/* XPM */
const char *xpm_tango_places_folder[] = {
  // Header (width height colors chars-per-pixel)
  "32 32 252 2",
  
  // Colors (code mode value)
  "+n c #00000001",
  "*T c #00000002",
  "*` c #00000004",
  ",D c #00000008",
  "5X c #00000009",
  "%V c #0000000A",
  "=2 c #0000000D",
  "%A c #00000010",
  "+b c #00000012",
  "rn c #0000002A",
  "2d c #00808002",
  "8* c #040D153C",
  "7} c #070E0E25",
  "8& c #080C1440",
  "8% c #0E131C36",
  "8. c #10151D3E",
  "7| c #11151E3C",
  "8X c #12161F39",
  "7{ c #192D4A3E",
  "7' c #3030304B",
  "7` c #305E96A3",
  "1{ c #3264A33D",
  "7[ c #33619CDC",
  "28 c #3366A614",
  "2= c #3366A628",
  "1n c #3464A37A",
  "2} c #3465A4FF",
  "2s c #3466A4FD",
  "</ c #3565A3FF",
  "1F c #3565A465",
  "2| c #3566A4FD",
  "<) c #3566A5FB",
  "1R c #3665A451",
  "<^ c #3666A4FF",
  "2m c #3667A6F3",
  "<~ c #3767A5FF",
  "1a c #3767A794",
  "1f c #3868A5FF",
  "<_ c #3869A69E",
  "1O c #3869A7DA",
  "2G c #3869A7E4",
  "7/ c #3967A5D4",
  "19 c #3969A8AF",
  "11 c #396AA7C6",
  "2Q c #3A68A4FF",
  "7P c #3A69A7F8",
  "7] c #3C5679FB",
  "1w c #3D6BA6FF",
  "7( c #3E3E3E8F",
  "7E c #44444492",
  "7x c #446EA5FF",
  "2* c #4572ACF4",
  "1B c #4672ABFF",
  "7_ c #4674ADFD",
  "2M c #4747479B",
  "2f c #494949A4",
  "7W c #4A73A5FF",
  "29 c #4B4B4BAE",
  "2- c #4E4E4EB8",
  "Ge c #4E75A7FF",
  "2N c #4F73A0FF",
  "1} c #505050C0",
  "1E c #525252C9",
  "<] c #5476A1FF",
  "1[ c #547EB5F1",
  "1G c #555555D1",
  "1J c #557DB2FF",
  "1m c #575757D8",
  "1s c #5A5A5ADF",
  "7) c #5B89BBFF",
  "2g c #5D7CA3FF",
  "2( c #5D8BBCFF",
  "10 c #5E5E5EE5",
  "12 c #5F5F5FEC",
  "2q c #5F7899FF",
  "7U c #608CC0FF",
  "1+ c #626262F1",
  "7M c #6288B8FF",
  "7m c #648BBDF3",
  "<` c #656565F6",
  "7h c #666666DB",
  "<E c #666666FB",
  "7I c #6790C2FF",
  "7^ c #6893C3FF",
  "7g c #696969D3",
  "<L c #696969FD",
  "2B c #6995C7FF",
  "2x c #6998CDFF",
  "7Z c #6A8FBEFF",
  "lI c #6B6B6B4A",
  "7Y c #6B9ACEFF",
  "7f c #6C6C6CC9",
  "<B c #6D6D6D0E",
  "<z c #6D6D6D15",
  "7d c #6D6D6DEC",
  "7s c #6E6E6EF1",
  "B! c #6F6F6F17",
  "7a c #6F6F6FF1",
  "<G c #6F6F6FFB",
  "1| c #6F7F94FF",
  "7J c #6F94C2FF",
  "2y c #6F9DCFFF",
  "7p c #70707072",
  "2W c #707478FF",
  "2u c #709DCFFF",
  "2; c #7186A0FF",
  "1D c #7196C3F7",
  "7R c #719CCCFF",
  "<p c #7272721D",
  "me c #737373F4",
  "<V c #737373F8",
  "<! c #738AA6FF",
  "7T c #75A0CEFF",
  "7y c #7676766A",
  "<6 c #777777FB",
  "24 c #77A2D2FF",
  "2Z c #77A3D1FF",
  "<t c #78787824",
  "Vo c #787878F7",
  "7Q c #789ECAFF",
  "7L c #78A2D2FF",
  "2S c #79A4D2FF",
  "<5 c #7A7A7AC1",
  "<x c #7A7A7AF5",
  "7u c #7A7A7AF8",
  "1b c #7C9FCAFD",
  "=< c #7E7E7EFF",
  "7K c #7EA7D4FF",
  "2% c #7FA8D5FF",
  "<4 c #80808004",
  "<W c #80808006",
  "<y c #808080F5",
  "1H c #808892FF",
  "7G c #80A8D5FF",
  "<U c #818181F4",
  "7b c #81A9D5FF",
  "7F c #81A9D6FF",
  "1W c #838F9FFF",
  "7~ c #83A8D1FF",
  "7! c #84A9D1FF",
  "1A c #84ACD6FF",
  "7D c #85ACD7FF",
  "7v c #86A7CFFF",
  "1u c #86ADD7FF",
  "20 c #878786FF",
  "-K c #878787FF",
  "h_ c #88AED7FF",
  "1U c #88AED8FF",
  "1Z c #88AFD7FF",
  "1` c #89AFD8FF",
  "-v c #8A8A8AFF",
  "=: c #8AAFD7FF",
  "1I c #8AAFD9FF",
  "7S c #8AB0D9FF",
  "7k c #8DB3D9FF",
  "9M c #8E8E8EFF",
  "1d c #8E8E8FFF",
  "18 c #8EAFD3FF",
  "1* c #8EB3D9FF",
  "-, c #8F8F8FFF",
  "1= c #8FB3D9FF",
  "16 c #8FB3DAFF",
  "1- c #8FB4D9FF",
  "1; c #8FB4DAFF",
  "1: c #8FB5DAFF",
  "2+ c #909090FF",
  "7l c #90B5DAFF",
  "!/ c #919191F4",
  "pb c #919191FF",
  ",7 c #929292FF",
  "1y c #92B5DBFF",
  "=L c #939393FF",
  "17 c #93B6DBFF",
  "'K c #93B6DCFF",
  "=v c #949494FF",
  "1z c #94B6DCFF",
  "2v c #959595FF",
  "FN c #95B6DCFF",
  "1l c #95B7DCFF",
  "1k c #95B8DCFF",
  "2@ c #969696FF",
  "1< c #96B6D7FF",
  "1j c #96B8DCFF",
  "7V c #96B8DDFF",
  ",F c #979797FF",
  "1N c #979BA0FF",
  "7c c #97B9DDFF",
  "2P c #989898FF",
  "1r c #98B9DDFF",
  "2# c #999999FF",
  "1C c #99B9DDFF",
  "1~ c #99BADDFF",
  ":^ c #9A9A9AFF",
  "<[ c #9AB8D8FF",
  "7B c #9ABADEFF",
  "<= c #9B9B9BFF",
  "1P c #9BBBDEFF",
  "7j c #9BBDDDFF",
  ",J c #9C9C9CFF",
  "7z c #9CBDDEFF",
  "2$ c #9D9D9DFF",
  "S1 c #9DBCDEFF",
  "7i c #9E9E9EFF",
  "<m c #9F9F9FFF",
  "1o c #A0BDDCFF",
  "W^ c #A0BEDFFF",
  ";I c #A2A2A2FF",
  "6| c #A3A3A3FF",
  "7H c #A3C0E1FF",
  "=C c #A4A4A4FF",
  "1M c #A5A5A4FF",
  "=W c #A5A5A5FF",
  "-6 c #A6A6A6FF",
  "-V c #A7A7A7FF",
  "1$ c #A7C1DEFF",
  "1S c #A7C4E2FF",
  "<Q c #A8A8A8FF",
  "-` c #A9A9A9FF",
  ",C c #AAAAAAFF",
  "7A c #AAC5E3FF",
  "6' c #ABABABFF",
  "<b c #ACACACFF",
  "7C c #ACC6E4FF",
  "1q c #ADADACFF",
  "<v c #ADADADFF",
  "1Y c #ADC7E4FF",
  ",Z c #AEAEAEFF",
  "<P c #B0B0AFFF",
  ">F c #B0B0B0FF",
  ":& c #B1B1B1FF",
  "4> c #B2CAE3FF",
  "Q> c #B3B3B3FF",
  "1@ c #B6B6B5FF",
  "7N c #B8CEE8FF",
  "1X c #BBD1E8FF",
  "1. c #BCD1E8FF",
  "<| c #BCD2E9FF",
  "1> c #BDBDBDFF",
  "<} c #BDD2E9FF",
  "<{ c #BED3E9FF",
  ";= c #BFBFBFFF",
  "g= c #BFD4EAFF",
  ";g c #C0C0C0FF",
  ";U c #C1C1C1FF",
  "<H c #C2C2C1FF",
  ":* c #C3C3C3FF",
  ":6 c #C4C4C4FF",
  "7n c #C4D8ECFF",
  "<c c #C5C5C4FF",
  "1V c #C5D8ECFF",
  ",2 c #CDCDCDFF",
  "   c none",
  
  // Image data
  "                                                                ",
  "                                                                ",
  "                                                                ",
  "  <4<5<6<6<6<6<6<6<6<6<6Vo7y                                    ",
  "  <t<y,2:6:*:*;U;U;g;g;g;=7uB!                                  ",
  "  <p<UQ><m7i2$,J<=:^2#2#:^!/7p                                  ",
  "  <z<x<c>F,Z<v<b6'-`-`<Q-`6|me7a7a7s7s7s7s7s7s7dlI              ",
  "  <B<V:&,J:^2#,F2@2@2v=v=v=v=L<m<b<v,Z,Z>F:&:&6|7f              ",
  "  <W<G<H<b,C-`-V-6=W=C6|;I;I;I;I;I;I6|=C=W-6-V2#7g              ",
  "    <L<P2P2@2@=v=Lpb2+-,-,9M9M9M9M-,-,2+pb,7=v-v7h              ",
  "    <E1><Q<!<~<~<~<~<^<^<^<^<^<^<^<^<^<^<~<~<~<^</<)<)<)<)<_    ",
  "    <`,C2v<]<[<{<{<{<}<}<|<|<|<|<|<|<|1.1.1.1.1.1X1X1X1X1o1O    ",
  "    1+1@=WGe1$7j7k7k1*1*1*1*1*1-1-1-1-1-1-1;1;1;1:1:7l7z1<11    ",
  "    12=W,77x4>1~1=1=1=1=1=1=1=1=1=1=1=1=1=1=1=1=1=1=1*171819    ",
  "    101q;I1w1.7c1y1y1y1y1y1y1y1y1y1y1y1y1y1y1y1y1y1y1u1~7v1a    ",
  "    1s<m1d1f1V1j1l1l1l1l1l1l1l1l1l1l1l1l1l1l1l1lFNh_7bW^1b1n    ",
  "    1m1M1N1B7n1r1r1r1r1r1r1r1r1r1r1r1r1r1r1r1r1k1Z1A1A1S1D1F    ",
  "    1G2P1H1Jg=1P1P1P1P1P1P1P1P1P1P1P1P1P1P1P1z1I1U1U1U1Y7m1R    ",
  "    1E,J1W7M7N1P1P1P1P1P1P1P1P7B1r7V1l1y161`1U1U1U1U1U7C1[1{    ",
  "    1}2+1|7Z7A1z1z'K167S7D7F7G2%2%2%2%2%2%2%2%2%2%2%2%7H2*2=    ",
  "    2-pb2;7JS11u7K7L24242424242424242424242424242424241C7P28    ",
  "    29202q7I7K2y2y2y2y2y2y2y2y2y2y2y2y2y2y2y2y2y2y2y2u=:2s2d    ",
  "    2f-K2g7U2u2x2x2x2x2x2x2x2x2x2x2x2x2x2x2x2x2x2x2x7Y7T2m      ",
  "    2M=<2N2B2S2Z2Z2Z2Z2Z2Z2Z2Z2Z2Z2Z2Z2Z2Z2Z2Z2Z2Z2Z2S7R2G      ",
  "    7E=<7W7Q7!7!7!7!7!7!7!7!7!7!7!7!7!7!7!7!7!7!7!7!7~7^7/      ",
  "  +n7(2W2Q7)2(2(2(2(2(2(2(2(2(2(2(2(2(2(2(2(2(2(2(2(2(7_7`%V    ",
  "  *`7'7]2}<^<^<^<^<^<^<^<^<^<^<^<^<^<^<^<^<^<^<^<^2|2|7[7{%V    ",
  "    =27}7|8.8X8X8X8X8X8X8X8X8X8X8X8X8X8X8X8X8X8X8%8&8*rn+b      ",
  "      *T5X=25X5X5X5X5X5X5X5X5X5X5X5X5X5X5X5X5X5X5X%A,D*T        ",
  "                                                                ",
  "                                                                ",
  "                                                                "
};
