/* XPM */
const char *xpm_tango_places_folder_saved_search[] = {
  // Header (width height colors chars-per-pixel)
  "32 32 318 2",
  
  // Colors (code mode value)
  "+n c #00000001",
  "*T c #00000002",
  "*` c #00000004",
  ",D c #00000008",
  "5X c #00000009",
  "%V c #0000000A",
  "=2 c #0000000D",
  "%A c #00000010",
  "+b c #00000012",
  "rn c #0000002A",
  "0S c #150E0725",
  "0J c #180C0040",
  "0K c #1A0D003C",
  "0H c #21130536",
  "0F c #2115083E",
  "0D c #2215093C",
  "0G c #24160939",
  "7' c #3030304B",
  "7( c #3E3E3E8F",
  "7E c #44444492",
  "2M c #4747479B",
  "2f c #494949A4",
  "29 c #4B4B4BAE",
  "2- c #4E4E4EB8",
  "1} c #505050C0",
  "1E c #525252C9",
  "1G c #555555D1",
  "1m c #575757D8",
  "1s c #5A5A5ADF",
  "10 c #5E5E5EE5",
  "0A c #5F29003E",
  "12 c #5F5F5FEC",
  "1+ c #626262F1",
  "<` c #656565F6",
  "7h c #666666DB",
  "<E c #666666FB",
  "7g c #696969D3",
  "<L c #696969FD",
  "lI c #6B6B6B4A",
  "7f c #6C6C6CC9",
  "<B c #6D6D6D0E",
  "<z c #6D6D6D15",
  "7d c #6D6D6DEC",
  "7s c #6E6E6EF1",
  "B! c #6F6F6F17",
  "7a c #6F6F6FF1",
  "<G c #6F6F6FFB",
  "7p c #70707072",
  "<p c #7272721D",
  "me c #737373F4",
  "<V c #737373F8",
  "7y c #7676766A",
  "<6 c #777777FB",
  "<t c #78787824",
  "Vo c #787878F7",
  "<5 c #7A7A7AC1",
  "<x c #7A7A7AF5",
  "7u c #7A7A7AF8",
  "0z c #7B736CFF",
  "=< c #7E7E7EFF",
  "<4 c #80808004",
  "<W c #80808006",
  "<y c #808080F5",
  "<U c #818181F4",
  "20 c #878786FF",
  "-K c #878787FF",
  "-v c #8A8A8AFF",
  "9M c #8E8E8EFF",
  "8' c #8F8E8EFF",
  "-, c #8F8F8FFF",
  "0M c #905321FB",
  "2+ c #909090FF",
  "!/ c #919191F4",
  "pb c #919191FF",
  ",7 c #929292FF",
  "=L c #939393FF",
  "=v c #949494FF",
  "2v c #959595FF",
  "2@ c #969696FF",
  ",F c #979797FF",
  "2P c #989898FF",
  "95 c #998677FF",
  "2# c #999999FF",
  ":^ c #9A9A9AFF",
  "<= c #9B9B9BFF",
  ",J c #9C9C9CFF",
  "2$ c #9D9D9DFF",
  "7i c #9E9E9EFF",
  "<m c #9F9F9FFF",
  "9v c #A27C5DFF",
  ";I c #A2A2A2FF",
  "9# c #A39A93FF",
  "6| c #A3A3A3FF",
  "=C c #A4A4A4FF",
  "1M c #A5A5A4FF",
  "=W c #A5A5A5FF",
  "-6 c #A6A6A6FF",
  "-V c #A7A7A7FF",
  "<Q c #A8A8A8FF",
  "-` c #A9A9A9FF",
  "9t c #AA8D76FF",
  ",C c #AAAAAAFF",
  "6' c #ABABABFF",
  "<b c #ACACACFF",
  "1q c #ADADACFF",
  "<v c #ADADADFF",
  "9] c #AE7444FF",
  ",Z c #AEAEAEFF",
  "<P c #B0B0AFFF",
  ">F c #B0B0B0FF",
  ":& c #B1B1B1FF",
  "9P c #B2825BFF",
  "Q> c #B3B3B3FF",
  "1@ c #B6B6B5FF",
  "8j c #BA865CFF",
  "0m c #BD5602A3",
  "0: c #BD763CFF",
  "1> c #BDBDBDFF",
  "0e c #BE6C29FF",
  "8v c #BF7130FF",
  ";= c #BFBFBFFF",
  ";g c #C0C0C0FF",
  ";U c #C1C1C1FF",
  "<H c #C2C2C1FF",
  ":* c #C3C3C3FF",
  ":6 c #C4C4C4FF",
  "<c c #C5C5C4FF",
  "0Z c #C65D03DC",
  "0f c #C86C21FF",
  "8C c #C87026FF",
  "8P c #CA6817FF",
  "9' c #CC590014",
  "9L c #CC590028",
  "0x c #CC6109FF",
  "9r c #CD5B0051",
  "9c c #CD5C003D",
  "8z c #CD5D02FF",
  "0B c #CD5E04FF",
  ",2 c #CDCDCDFF",
  "0N c #CE5C00FF",
  "0C c #CE5E02FD",
  "0V c #CE5E03FD",
  "8l c #CE5E03FF",
  "8] c #CE5F05FF",
  "8W c #CE630CFF",
  "94 c #CF5B0065",
  "9@ c #CF5C007A",
  "0; c #CF5D00FD",
  "8x c #CF5D01FB",
  "8k c #CF5F04FF",
  "0l c #CF6006D4",
  "0w c #D05E02F3",
  "8` c #D0600394",
  "0d c #D06004E4",
  "8c c #D062059E",
  "8V c #D16206DA",
  "9` c #D16207F8",
  "9$ c #D16B17FF",
  "8E c #D26306AF",
  "8L c #D26306C6",
  "9K c #D46C14F4",
  "96 c #D4782AFF",
  "9y c #D88438FF",
  "9x c #D97924F1",
  "0n c #DB791DFD",
  "9b c #DD8B41FF",
  "9e c #E08838F3",
  "9I c #E09146FF",
  "0> c #E18834FF",
  "9[ c #E28D3CFF",
  "0r c #E39044FF",
  "93 c #E49548F7",
  "0k c #E79746FF",
  "0s c #E8994EFF",
  "9+ c #EAA157FD",
  "0g c #EAA259FF",
  "0< c #EB963DFF",
  "05 c #EB973FFF",
  "00 c #EB9840FF",
  "01 c #EB9841FF",
  "0q c #EB9E4FFF",
  "0y c #EB9F55FF",
  "0a c #EBA056FF",
  "0t c #EBA057FF",
  "0p c #EBA158FF",
  "0, c #EC9B46FF",
  "0c c #EC9D40FF",
  "06 c #EDA050FF",
  "8_ c #EDAB63FF",
  "0b c #EEA143FF",
  "0v c #EEA244FF",
  "04 c #EEA355FF",
  "02 c #EEA458FF",
  "0u c #EEAD6DFF",
  "9} c #EF9D41FF",
  "0= c #EF9D42FF",
  "09 c #EFAA62FF",
  "03 c #EFAC66FF",
  "0j c #EFAF69FF",
  "0h c #EFB06BFF",
  "0i c #EFB379FF",
  "0* c #F0A047FF",
  "9{ c #F0A755FF",
  "0- c #F1AF65FF",
  "8R c #F1B470FF",
  "9| c #F2AE62FF",
  "7Z c #F2BE82FF",
  "9E c #F3A547FF",
  "9R c #F3A548FF",
  "07 c #F3C18CFF",
  "9T c #F4AA50FF",
  "9W c #F4AC55FF",
  "9Y c #F4AF5CFF",
  "8K c #F4BE7DFF",
  "0@ c #F4BE81FF",
  "9S c #F6AD4DFF",
  "9H c #F6AE50FF",
  "9_ c #F6B96FFF",
  "9^ c #F6BB74FF",
  "8Z c #F6C892FF",
  "0& c #F6CA97FF",
  "08 c #F6CEA4FF",
  "9V c #F7B45CFF",
  "9B c #F7B763FF",
  "9N c #F7BA69FF",
  "9m c #F7BA6AFF",
  "9U c #F7BE7AFF",
  "8B c #F7C68AFF",
  "0+ c #F8D2A8FF",
  "0. c #F8D7B1FF",
  "9J c #F9C47FFF",
  "9n c #F9C889FF",
  "9D c #F9CA8BFF",
  "9~ c #F9D0A0FF",
  "8I c #F9D19EFF",
  "0# c #F9DCBAFF",
  "0% c #F9DCBBFF",
  "0$ c #F9DCBCFF",
  "0O c #F9DDBDFF",
  "9l c #FAB553FF",
  "9k c #FAB655FF",
  "9A c #FAD09AFF",
  "9C c #FAD3A0FF",
  "0o c #FADEBEFF",
  "0X c #FADEBFFF",
  "9f c #FBBE68FF",
  "9g c #FBBF69FF",
  "9d c #FBBF6AFF",
  "9s c #FBC06DFF",
  "9i c #FBC16FFF",
  "8Q c #FBD8A9FF",
  "9) c #FBDFBDFF",
  "9o c #FCB855FF",
  "9w c #FCB958FF",
  "91 c #FCBA5AFF",
  "9X c #FCBC5FFF",
  "8( c #FCBD60FF",
  "9q c #FCBF66FF",
  "9< c #FCC26DFF",
  "8Y c #FCC370FF",
  "9; c #FCC371FF",
  "8{ c #FCC471FF",
  "8S c #FCC473FF",
  "8D c #FCC574FF",
  "8F c #FCC575FF",
  "8G c #FCC675FF",
  "8H c #FCC676FF",
  "8U c #FCC87DFF",
  "90 c #FCCA80FF",
  "9a c #FCCA84FF",
  "9: c #FCCB83FF",
  "9z c #FCCB87FF",
  "8A c #FCCC84FF",
  "8J c #FCCC85FF",
  "9& c #FCCC86FF",
  "9u c #FCD398FF",
  "9G c #FCDFBBFF",
  "9Q c #FCE7CEFF",
  "9/ c #FCE7CFFF",
  "9! c #FCE9D2FF",
  "9( c #FCE9D3FF",
  "8T c #FDC676FF",
  "8) c #FDC779FF",
  "9O c #FDCA7FFF",
  "92 c #FDCC86FF",
  "{X c #FDCE8AFF",
  "9- c #FDD499FF",
  "97 c #FDD9A4FF",
  "8} c #FDD9A5FF",
  "99 c #FDDBA9FF",
  "8N c #FDDBABFF",
  "8M c #FDDCACFF",
  "8m c #FDDCADFF",
  "8n c #FDDCAEFF",
  "8b c #FDDCAFFF",
  "9% c #FDDDAEFF",
  "8/ c #FDDEB1FF",
  "8[ c #FDDEB2FF",
  "98 c #FDE1B7FF",
  "9, c #FEE1B8FF",
  "8! c #FEE7C5FF",
  "9p c #FEE8CAFF",
  "9> c #FEEACEFF",
  "8^ c #FEEED6FF",
  "9. c #FEF2E0FF",
  "9j c #FEF2E1FF",
  "8~ c #FEF4E4FF",
  "9F c #FEF4E7FF",
  "9Z c #FEF5EAFF",
  "w5 c #FF800002",
  "9= c #FFF8EEFF",
  "9h c #FFF8F0FF",
  "8| c #FFF9F2FF",
  "9* c #FFFDFBFF",
  "{0 c #FFFEFCFF",
  "!L c #FFFFFEFF",
  "1U c #FFFFFFFF",
  "   c none",
  
  // Image data
  "                                                                ",
  "                                                                ",
  "                                                                ",
  "  <4<5<6<6<6<6<6<6<6<6<6Vo7y                                    ",
  "  <t<y,2:6:*:*;U;U;g;g;g;=7uB!                                  ",
  "  <p<UQ><m7i2$,J<=:^2#2#:^!/7p                                  ",
  "  <z<x<c>F,Z<v<b6'-`-`<Q-`6|me7a7a7s7s7s7s7s7s7dlI              ",
  "  <B<V:&,J:^2#,F2@2@2v=v=v=v=L<m<b<v,Z,Z>F:&:&6|7f              ",
  "  <W<G<H<b,C-`-V-6=W=C6|;I;I;I;I;I;I6|=C=W-6-V2#7g              ",
  "    <L<P2P2@2@=v=Lpb2+-,-,9M9M9M9M-,-,2+pb,7=v-v7h              ",
  "    <E1><Q8j8k8k8k8k8l8l8l8l8l8l8l8l8l8l8k8k8k8l8z8x8x8x8x8c    ",
  "    <`,C2v8v7Z8b8b8b8n8n8n8n8n8m8m8m8m8M8M8M8M8M8M8M8M8N8B8V    ",
  "    1+1@=W8C8Z8A8S8S8S8S8D8D8D8F8F8F8F8F8F8G8G8G8H8H8H8J8K8L    ",
  "    12=W,78P8I8U8Y8Y8Y8Y8Y8Y8Y8Y8Y8Y8Y8Y8Y8Y8Y8Y8Y8Y8Y8T8R8E    ",
  "    101q;I8W8Q8H8Y8Y8Y8Y8Y8Y{X8!8~8^8/8S8Y8Y8Y8Y8Y8Y8(8)8_8`    ",
  "    1s<m8'8]8[8{8Y8Y8Y8Y8Y8}{01U8|!L1U9.8D8Y8Y8Y8Y9X9o9O9+9@    ",
  "    1m1M9#9$9%8Y8Y8Y8Y8Y9&9*9=9-9;9:9>1U9,8Y8Y9<919o9o929394    ",
  "    1G2P9596978Y8Y8Y8Y8Y981U998Y8Y8Y90!L9.8Y9q9w9o9o9o{X9e9r    ",
  "    1E,J9t9y9u9i9i9i9i9i9p!L9a9s9d9f9g9h9j9k9l9l9l9l9l9z9x9c    ",
  "    1}2+9v9b9n9m9m9N9B9V9C9Z9A9S9S9S9D9F9G9H9S9S9S9S9S9J9K9L    ",
  "    2-pb9P9I9U9Y9T9R9E9E9W9Q9!9~9^9~9/9(9!9)9_9E9E9E9E9^9`9'    ",
  "    29209]9[9{9}9}9}9}9}9}9|0.0X0o0O0+0@0#0$0%0&0*9}0=0-0;w5    ",
  "    2f-K0:0>0,0<0<0<0<0<0<0<01020304050<06070808090<000q0w      ",
  "    2M=<0e0r0t0y0y0y0y0y0y0y0y0y0y0y0y0y0y0y0u0i0p0y0a0s0d      ",
  "    7E=<0f0g0h0h0h0h0h0h0h0h0h0h0h0h0h0h0h0h0h0h0h0h0j0k0l      ",
  "  +n7(0z0x0c0v0v0v0v0v0v0v0v0v0v0v0v0v0v0v0v0v0v0v0v0b0n0m%V    ",
  "  *`7'0M0N0B0B0B0B0B0B0B0B0B0B0B0B0B0B0B0B0B0B0B0B0V0C0Z0A%V    ",
  "    =20S0D0F0G0G0G0G0G0G0G0G0G0G0G0G0G0G0G0G0G0G0H0J0Krn+b      ",
  "      *T5X=25X5X5X5X5X5X5X5X5X5X5X5X5X5X5X5X5X5X5X%A,D*T        ",
  "                                                                ",
  "                                                                ",
  "                                                                "
};
