/* XPM */
const char *xpm_tango_places_network_server[] = {
  // Header (width height colors chars-per-pixel)
  "32 32 119 2",
  
  // Colors (code mode value)
  "+n c #00000001",
  "=1 c #00000005",
  "*R c #00000006",
  ",D c #00000008",
  "=# c #0000000E",
  "[i c #0000000F",
  "+b c #00000012",
  "+v c #00000016",
  "$^ c #00000019",
  "%B c #0000001A",
  "7e c #0000001B",
  "`I c #0000001C",
  "9b c #0000001E",
  "*' c #00000020",
  "rn c #0000002A",
  "a( c #0000002D",
  "&R c #0000002F",
  "=d c #00000037",
  "9c c #0000003A",
  ",E c #0000003B",
  "=r c #00000040",
  "q, c #4C4C4C89",
  "q> c #4D4D4D77",
  "q< c #4E4E4E90",
  "q5 c #4F4F4F7A",
  "R6 c #4F4F4F8B",
  "q1 c #4F4F4F97",
  "Rp c #50505093",
  "q4 c #5151519A",
  "q2 c #5151519E",
  "q: c #52525254",
  "dZ c #53535328",
  "q6 c #55555557",
  ">5 c #5858581D",
  "0R c #5D5D5D37",
  "0Q c #5D5D5D42",
  ":0 c #5E5E5EFF",
  "0T c #5F5F5F5B",
  "0P c #6262626D",
  "0I c #6363635D",
  "0L c #6565658B",
  "0E c #666666F4",
  "0W c #666666F6",
  "0^ c #68686858",
  "0/ c #6868687B",
  "0[ c #68686895",
  "0( c #6969698B",
  "0} c #6969698D",
  "0) c #6969698F",
  "0_ c #69696992",
  "0` c #69696996",
  "0{ c #6A6A6A91",
  "@v c #6D6D6D2A",
  "oN c #6D6D6D7E",
  "0Y c #6D6D6DF4",
  "0| c #7272725C",
  "5O c #7777771E",
  "0U c #787878F4",
  "q3 c #868686E8",
  "0] c #8A8A8AE5",
  "q$ c #8D8D8DFD",
  "0~ c #8E8E8E1B",
  "0! c #909090C8",
  ":^ c #9A9A9AFF",
  "7i c #9E9E9EFF",
  "<b c #ACACACFF",
  "tz c #AFAFAFFF",
  "Q> c #B3B3B3FF",
  "6{ c #B5B5B5FF",
  "=p c #B6B6B6FF",
  ",S c #B7B7B7FF",
  "0' c #BCBCBCFE",
  ",A c #BCBCBCFF",
  "1> c #BDBDBDFF",
  ";g c #C0C0C0FF",
  ":* c #C3C3C3FF",
  "q. c #C5C5C530",
  "q# c #C8C8C89D",
  ":7 c #C8C8C8FF",
  ">x c #C9C9C9FF",
  "q% c #CACACA99",
  ",< c #CACACAFF",
  "+a c #CBCBCBFF",
  "q; c #CCCCCC28",
  "q@ c #CCCCCC95",
  "#+ c #CCCCCCFF",
  "qX c #CDCDCD56",
  "q& c #D1D1D190",
  ",V c #D2D2D2FF",
  "q+ c #D3D3D38C",
  ",, c #D3D3D3FF",
  ",n c #D4D4D4FF",
  ":o c #D5D5D5FF",
  "qo c #D7D7D774",
  "q* c #D7D7D787",
  ",M c #D7D7D7FF",
  "qO c #D8D8D884",
  ",B c #D8D8D8FF",
  ",b c #D9D9D9FF",
  "q- c #DDDDDD68",
  "=b c #DDDDDDFF",
  "q= c #DFDFDF7E",
  "={ c #DFDFDFFF",
  "+A c #E2E2E2FF",
  "+S c #E3E3E3FF",
  ";3 c #E5E5E5FF",
  ";b c #E6E6E6FF",
  ":# c #E8E8E8FF",
  ":2 c #E9E9E9FF",
  ",% c #EAEAEAFF",
  ":, c #EBEBEBFF",
  ";h c #EDEDEDFF",
  ":3 c #F4F4F4FF",
  ":9 c #F7F7F7FF",
  ";Q c #FBFBFBFF",
  "=q c #FDFDFDFF",
  "3N c #FFFFFF01",
  "1U c #FFFFFFFF",
  "   c none",
  
  // Image data
  "                                                                ",
  "                                                                ",
  "                    0L:0:0:0:0:0:0:0:0:0:00P                    ",
  "                  0I0U=q1U1U1U1U1U1U1U1U:90Y0T                  ",
  "                0R0E:3;Q:3:3:3:3:3:3:3:3;Q;h0W0Q                ",
  "                :0+A=q:3:3:3:3:3:3:3:3:3:3;Q+S:0                ",
  "                :01U,%:#:#:#:#:#:#:#:#:#:#:21U:0                ",
  "                :01U<b<b<b<b<b<b<b<b<b<b<b<b1U:0                ",
  "                :01U<b:7:7:7:7:7:7:7:7:7:7<b1U:0                ",
  "                :01U<b:7:7:7:7:7:7:7:7:7:7<b1U:0                ",
  "                :01U<b<b<b<b<b<b<b<b<b<b<b<b1U:0                ",
  "                :01U=b;3;3;3;3;3;3;3;3;3;3;b1U:0                ",
  "                :01U<b<b<b<b<b<b<b<b<b<b<b<b1U:0                ",
  "                :01U<b:7:7:7:7:7:7:7:7:7:7<b1U:0                ",
  "                :01U<b:7:7:7:7:7:7:7:7:7:7<b1U:00!0~            ",
  "  @v0^0/0(0)0_0`:01U<b<b<b<b<b<b<b<b<b<b<b<b1U:00'0]0[0{0}oN0|5O",
  "3Nq.qXqoqOq+q@q#:01U,B,B,B,B,B,B,B,B,B,B,B,B1U:0;3q$q%q&q*q=q-q;",
  "  dZq:q>q,q<q1q2:01U,M,M,M+a<b<b<b<b<b<b<bQ>1U:00'q3q4RpR6q5q6>5",
  "                :01U,S:^,S+a6{:7:7:7:7:7;g,A1U:00!0~            ",
  "                :01U7i#+:^,<6{:7:7:7:7:7;g,A1U:0                ",
  "                :01U=p:^=p>x<b<b<b<b<b<b<b=p1U:0                ",
  "                :01U,n,n,n,n,n:o={;b:,:,:,:,1U:0                ",
  "                :01U,n,n,,,n,,,n,,,n,V,,,V,,1U:0                ",
  "                :01U,,,,+a:o+a:o+a:o+a:o+a,,1U:0                ",
  "                :01U,V,V:*:o:*:o:*:o:*:o:*,V1U:0                ",
  "                :01U,V,V1>,M1>,M1>,M1>,M1>,V1U:0                ",
  "                :01U,V,V=p,B=p,B=p,B=p,B=p,V1U:0                ",
  "              ,D:01U,V,Vtz,btz,btz,btz,btz,V1U:0+v              ",
  "              $^:01U1U1U1U1U1U1U1U1U1U1U1U1U1U:0rn=1            ",
  "              `I:0:0:0:0:0:0:0:0:0:0:0:0:0:0:0:0&R*R            ",
  "              +ba(,E=r=r=r=r=r=r=r=r=r=r=r=r9c=d7e              ",
  "                =#9b*'*'*'*'*'*'*'*'*'*'*'*'%B[i+n              "
};
