/* XPM */
const char *xpm_tango_places_network_workgroup[] = {
  // Header (width height colors chars-per-pixel)
  "32 32 141 2",
  
  // Colors (code mode value)
  "+n c #00000001",
  "*T c #00000002",
  "*` c #00000004",
  "qz c #00000005",
  "7t c #00000007",
  "%V c #0000000A",
  "+m c #0000000B",
  ",q c #0000000C",
  "=2 c #0000000D",
  "%A c #00000010",
  "@, c #00000014",
  "=$ c #00000015",
  "`L c #00000018",
  "$^ c #00000019",
  "%B c #0000001A",
  "=@ c #0000001D",
  "9b c #0000001E",
  "=k c #0000001F",
  "*' c #00000020",
  "+g c #00000021",
  "WK c #00000022",
  ":W c #00000025",
  "@$ c #00000026",
  "a( c #0000002D",
  "=l c #00000035",
  "qy c #00000041",
  "qs c #5382B9FF",
  "qB c #55575391",
  "qb c #595959B4",
  "qg c #5B5B5BC3",
  "k! c #5D5D5CFF",
  "q7 c #5E5E5E33",
  "qf c #5E5E5EAC",
  "q9 c #5E5E5EB9",
  "q8 c #5E5E5EBA",
  ":0 c #5E5E5EFF",
  ">J c #606060FF",
  "qv c #636362FF",
  "6( c #656565FF",
  ">L c #666666FF",
  "ql c #696968FF",
  "<p c #6F6F6EFF",
  "P- c #737372FF",
  "qt c #748DB1FF",
  "qn c #75757428",
  ";F c #757575FF",
  "=1 c #7B7B7BFF",
  ">_ c #7C7C7CFF",
  "qh c #7D7D7CFF",
  "=< c #7E7E7EFF",
  "qj c #7F7F7E25",
  "qm c #7F7F7EBF",
  "qN c #7F7F7ECC",
  "qM c #7F7F7EF8",
  ".V c #7F7F7EFF",
  "qx c #80807FFF",
  "qk c #818180FF",
  "t2 c #838383FF",
  "t< c #858585FF",
  "-O c #888888FF",
  "-v c #8A8A8AFF",
  "qc c #9D9D9CFF",
  "<: c #A4A4A3FF",
  "=W c #A5A5A5FF",
  "q0 c #AAAAA9FF",
  ",C c #AAAAAAFF",
  "6' c #ABABABFF",
  "1q c #ADADACFF",
  "tz c #AFAFAFFF",
  ":& c #B1B1B1FF",
  "<# c #B2B2B2FF",
  "qp c #B3B1C1FF",
  "Q> c #B3B3B3FF",
  "B5 c #B4B4B3FF",
  ";8 c #B4B4B4FF",
  "qa c #B5B3C1FF",
  "6{ c #B5B5B5FF",
  "qu c #B6B4C3FF",
  "=p c #B6B6B6FF",
  "qe c #B7B4C3FF",
  "qi c #B7B5C3FF",
  "qr c #B7B5C4FF",
  "9m c #B8B8B8FF",
  "5X c #B9B9B9FF",
  ",G c #BABABAFF",
  ",A c #BCBCBCFF",
  "1> c #BDBDBDFF",
  "qw c #C0C0C5FF",
  ";U c #C1C1C1FF",
  ":* c #C3C3C3FF",
  "qd c #C4CBD8FF",
  "Qj c #C6C6C6FF",
  "fM c #C8C8C7FF",
  ">x c #C9C9C9FF",
  "+a c #CBCBCBFF",
  "5y c #CDCDCCFF",
  ",2 c #CDCDCDFF",
  ",V c #D2D2D2FF",
  ",, c #D3D3D3FF",
  ",n c #D4D4D4FF",
  ":o c #D5D5D5FF",
  ",N c #D6D6D6FF",
  "+Y c #D6DAE1FF",
  ",M c #D7D7D7FF",
  ",B c #D8D8D8FF",
  ",b c #D9D9D9FF",
  ",m c #DADADAFF",
  ",v c #DBDBDBFF",
  ",_ c #DCDCDCFF",
  "=[ c #DEDEDEFF",
  "={ c #DFDFDFFF",
  "+A c #E2E2E2FF",
  "+S c #E3E3E3FF",
  "&I c #E4E4E4FF",
  ";3 c #E5E5E5FF",
  ":# c #E8E8E8FF",
  ",% c #EAEAEAFF",
  "]M c #EAEAEBFF",
  ":, c #EBEBEBFF",
  ":> c #ECECECFF",
  ";h c #EDEDEDFF",
  ":< c #EEEEEEFF",
  ";A c #EFEFEFFF",
  ";T c #F0F0F0FF",
  ";` c #F1F1F1FF",
  ";' c #F2F2F2FF",
  ":O c #F3F3F3FF",
  "A4 c #F3F3F4FF",
  ":3 c #F4F4F4FF",
  "-k c #F5F5F5FF",
  "qq c #F5F5F6FF",
  "@> c #F6F6F6FF",
  ":9 c #F7F7F7FF",
  ";R c #F8F8F8FF",
  ":v c #F9F9F9FF",
  ":5 c #FAFAFAFF",
  ";Q c #FBFBFBFF",
  ";7 c #FCFCFCFF",
  "=q c #FDFDFDFF",
  ";f c #FEFEFEFF",
  "   c none",
  
  // Image data
  "                                                                ",
  "                                                                ",
  "                                                                ",
  "                            q7q8:0:0:0:0:0:0:0:0:0q8q7+n        ",
  "                            q9q0;h;h;h;h;h;h;h;h;hq0q9          ",
  "                            :0;h,_=1=1=1=1=1=1=1Q>;3:0          ",
  "                            :0:O=1qqqwqwqqqwqwA4=1;T:0          ",
  "    a(>J>J>J>J>J>J>J=l      :0;T=1qeqrqrqrqq-kqt=1;T:0          ",
  "  a(>J&I=q=q:5:5:9Qj>Jqy    :0:<=1quqiqpqa]M+Yqs=1;A:0          ",
  "  >J:v=q=q;7:5:5:9@>:<>J    :0:<=1qsqsqsqsqdqdqs=1:<:0          ",
  "  >J:51>1>1>1>1>1>1>=q>J    :0;h=1qsqsqsqsqsqsqs=1;h:0          ",
  "  >J:5Q>,m,b,N:o,VQ>:3>J    :0:O,B=1=1;F6(:0:0:0:0:0:0:0:0:0q8q7",
  "  >J:5:&=p=p6{6{;8:&;'>J    :09m;h;h;ht<q0;h;h;h;h;h;h;h;h;hq0q9",
  "  >J;R1>1>1>1>1>1>1>:3>J    qf:0>LP-t2:0;h,_=1=1=1=1=1=1=1Q>;3:0",
  "  >J;RQ>,m,b,N:o,VQ>;`>J    :0:O;T+S;h:0:O=1qqqwqwqqqwqwA4=1;T:0",
  "  >J:5:&=p=p6{6{;8:&:O>J    :0=[,b,b,v:0;T=1qeqrqrqrqq-kqt=1;T:0",
  "  >J:5:#;3;3+A+S,b={:O>J    qg:0:0:0:0:0:<=1quqiqpqa]M+Yqs=1;A:0",
  "  >J;f=W-v6'1>,G5X9m;7>J    qhB5<p=k=k:0:<=1qsqsqsqsqdqdqs=1:<:0",
  "  >J;f-O<#=<:*,_,v6{;7>J    .VfM.V    :0;h=1qsqsqsqsqsqsqs=1;h:0",
  "  >J=q,C>_6'1>1>,A1>;7>J    .VfM.V    :0:O,B=1=1=1=1=1=1=1>x;h:0",
  "  >J=q,,,n,,,n,,,n,,;7>J    .V,,.V    :09m;h;h;h;h;h;h;h;h;h:*:0",
  "  >J=q+a:o+a:o+a:o+a;7>J  qj.Vqk.Vqj  qf:0>LP-t2t2t2t2P-qlk!:0qf",
  "*T>J=q:*:o:*:o:*:o:*;7>J.V.V,M:o<:.V.V:0:O;T+S;h:>:>B5;U5y,_,%:0",
  "qz>J=q1>,M1>,M1>,M1>;7>JQ>qx:o:,=pqkQ>:0=[,b,b,v={={,v,b+S+S,2:0",
  "+m>J=q=p,B=p,B=p,B=p;7>J.V.V1q=pqc.V.Vqv:0:0:0:0:0:0:0:0:0:0:0qb",
  "%A>J=qtz,btz,btz,btz;7>J=2qnqmqMqNqj  *`$^=k=k=k=k=k=k=k=k=k%Bqz",
  "=k>J;f;7;Q;7;Q;7;Q;7;f>J=k,q+n                                  ",
  "WKqB>J>J>J>J>J>J>J>J>JqBa(@,*T                                  ",
  "%V=$=@9bWK:W+g*'@$WK@$:W`L7t                                    ",
  "                                                                ",
  "                                                                ",
  "                                                                "
};
