/* XPM */
const char *xpm_tango_places_start_here[] = {
  // Header (width height colors chars-per-pixel)
  "32 32 263 2",
  
  // Colors (code mode value)
  "NE c #0000FF01",
  "%_ c #0055AA03",
  "ww c #17468B0B",
  "wg c #1A4D800A",
  "7< c #1C4C841B",
  "e6 c #1D498A23",
  "wl c #1F498693",
  "q' c #1F49888B",
  "w5 c #1F4A888D",
  "w< c #1F4B8663",
  "q] c #1F4B87FC",
  "ek c #1F4B87FD",
  "e# c #1F4B8929",
  "eh c #1F4B897B",
  "wU c #1F4C8751",
  "nu c #20408008",
  "wp c #20498757",
  "wE c #20498788",
  "7# c #20498938",
  "wF c #204A8786",
  "e< c #204A8797",
  "e@ c #204A87D6",
  "p- c #204A87FF",
  "ny c #204A896E",
  "q{ c #204B865F",
  "mr c #204B879D",
  "eo c #204B87EC",
  "w= c #204B87F0",
  "ej c #204B88F6",
  "wN c #204B89A6",
  "n; c #20508010",
  "e= c #21498654",
  "eg c #214A887C",
  "ei c #214A88ED",
  "q[ c #214B87F3",
  "ep c #214B887A",
  "el c #214B89A4",
  "w9 c #214B89B4",
  "wK c #214B89D9",
  "wy c #214B89E7",
  "e5 c #214C88E5",
  "#{ c #214C88F7",
  "#} c #2244880F",
  "w@ c #224A864C",
  "eq c #224B88C5",
  "]J c #224B88FF",
  "w/ c #224C8A25",
  "w- c #23468B16",
  "wQ c #234D89FF",
  "w( c #234E89FD",
  "K- c #2449800E",
  "er c #244D89FB",
  "SR c #264D8C14",
  "ea c #26508BF9",
  "t{ c #274E890D",
  "w+ c #274F8AFB",
  "e- c #28518CFB",
  "e, c #29518CFF",
  "ef c #29548EF7",
  "7r c #2B558006",
  "]2 c #2B55AA06",
  "e+ c #2C548EFF",
  "g~ c #2E5DA20B",
  "qK c #2E68A216",
  "wb c #30609F10",
  "wX c #315891F9",
  "wz c #3264A229",
  "w] c #3264A438",
  "qS c #3265A44C",
  "e0 c #33339905",
  "w# c #3365A486",
  "C6 c #33669905",
  "-o c #3366990A",
  "qV c #3366A45F",
  "qJ c #3366A56E",
  "28 c #3366A614",
  "wR c #3366A823",
  "An c #3366AA0F",
  "wZ c #3464A454",
  "qW c #3464A563",
  "qT c #3465A38D",
  "e% c #3465A3FD",
  "wx c #3465A4D6",
  "2} c #3465A4FF",
  "q) c #3465A593",
  "gP c #3466A37A",
  "wB c #3467A597",
  "q~ c #3564A457",
  "w8 c #3565A588",
  "qZ c #3565A5FC",
  "3p c #3566A4FF",
  "qA c #3567A58B",
  "e& c #3567A6F6",
  "1R c #3665A451",
  "e* c #3666A47B",
  "wf c #3666A49D",
  "qC c #3666A5F3",
  "8P c #3666A5FF",
  "qL c #3666A6F0",
  "wv c #3667A5EC",
  "qU c #3667A5F3",
  "Wn c #3667A5FF",
  "e$ c #3667A6A4",
  "q} c #3667A6A6",
  "w^ c #3668A6C5",
  "q( c #3668A7E7",
  "q! c #3669A6B4",
  "wI c #375D95F7",
  "w1 c #375D96F7",
  "*F c #3767A525",
  "'N c #3767A5F7",
  "<~ c #3767A5FF",
  "w, c #3767A6D9",
  "w_ c #3767A6ED",
  "wG c #3768A5E5",
  "wt c #3768A5FD",
  "w! c #376DA40E",
  "w} c #3867A77C",
  "<( c #3868A6FF",
  "w' c #3869A6FB",
  "w6 c #3968A11B",
  "wi c #3A5F95F8",
  "^f c #3A6AA7FF",
  "qY c #3B629D0D",
  "e8 c #3B6AA7FF",
  "W- c #3C6BA8FF",
  "w[ c #3D649AF9",
  "wj c #3D6CA8FF",
  "qD c #3D6CA9FB",
  "wC c #3E6DA9FB",
  "$~ c #3F6DA9FF",
  "eX c #3F6FAAF9",
  "Ct c #40408004",
  "e1 c #40609F08",
  "BI c #4080BF04",
  "9X c #416FAAFF",
  "=n c #426FAAFF",
  "wW c #43689EF9",
  "8M c #4370ABFF",
  "w| c #4473ADF7",
  "ew c #466DA3FC",
  "e2 c #466DA3FE",
  "ey c #4672ACFF",
  "qH c #4673ADF9",
  "e> c #486DA2FC",
  "8K c #4A76AEFF",
  "es c #4B73A9FF",
  "wD c #4C71A4FB",
  "e7 c #4C71A6FE",
  "w4 c #4D6FA2F8",
  "eu c #4D75AAFF",
  "q^ c #4D79B1F8",
  "w; c #4E7AB2F7",
  "3a c #4F7AB0FF",
  "wP c #507AB0FF",
  "ed c #5178ADFF",
  "qE c #517BB2F7",
  "et c #537BAFFF",
  "W* c #537DB2FF",
  "e: c #547DB2FF",
  "AA c #5555AA03",
  "%V c #557EB3FF",
  "wk c #5779A9FD",
  "eO c #587DADFE",
  "wd c #5882B6F9",
  "wM c #5A7CACFF",
  "w0 c #5F81B0FF",
  "ee c #5F84B6FF",
  "wm c #5F86B7FF",
  "e9 c #6287B7FF",
  "e4 c #6487B5FF",
  "wL c #6587B5FF",
  "88 c #658ABAFF",
  "w7 c #658DBDF9",
  "qR c #658DBEF8",
  "$s c #678CBBFF",
  "wS c #688CBBFF",
  "e; c #698CBBFF",
  "8; c #698DBCFF",
  "2. c #6A8FBDFF",
  "e3 c #6B8EBDFF",
  "8- c #6B8FBDFF",
  "wV c #6C93C1FC",
  "w$ c #6F94C2FB",
  "w~ c #7297C6FD",
  "wJ c #729AC7FE",
  "'~ c #729FCFFF",
  "w) c #7393BEFF",
  "N, c #739FCFFF",
  "'! c #73A0CFFF",
  "w{ c #7494BFFF",
  "E{ c #7495C1FF",
  "wa c #74A0D0FF",
  "gQ c #74A1D0FF",
  "w* c #7597C1FF",
  "Nj c #75A1D0FF",
  "wO c #7694BDFF",
  "&D c #7696C0FF",
  "23 c #76A2D1FF",
  "q_ c #779AC7FD",
  "wT c #779DC7FE",
  "2A c #78A3D1FF",
  "jy c #7AA4D2FF",
  "w& c #7B98C0FF",
  "wA c #7B99C1FF",
  "N) c #7C9BC3FF",
  "wu c #7D99C1FF",
  "q| c #7DA1CAFF",
  "QZ c #7DA6D3FF",
  "qQ c #7FA2CBFF",
  "2$ c #7FA8D4FF",
  "w` c #82A7D0FF",
  "Ve c #83AAD5FF",
  "wq c #84A0C4FF",
  "NG c #84ABD5FF",
  "wc c #85A7CFFE",
  "e. c #85A8D0FF",
  "Nm c #85ACD5FF",
  "2, c #85ACD6FF",
  "wh c #87A3C7FF",
  "w3 c #87A4C9FF",
  "wo c #89A4C7FF",
  "wn c #89A4C9FF",
  "W` c #8BAED4FF",
  "Hv c #8DAFD4FF",
  "=O c #8DB1D8FF",
  "w> c #8EAED3FF",
  "FD c #8EB2D8FF",
  "1= c #8FB3D9FF",
  "Fq c #90B3D9FF",
  "w2 c #92ACCEFF",
  "Np c #94B6DAFF",
  "hc c #95B7DBFF",
  "hx c #96B8DBFF",
  "D9 c #97B4D7FF",
  "1/ c #97B8DCFF",
  "gy c #98B9DCFF",
  "qF c #99B6D6FF",
  "qI c #99B6D7FF",
  "FL c #99B8DBFF",
  "-@ c #99BADCFF",
  "qP c #9AB6D8FF",
  "1^ c #9ABADDFF",
  "wY c #9BB9DAFF",
  "q/ c #9DB9D9FF",
  "'c c #9EBCDEFF",
  "wr c #9FBCDCFF",
  "AN c #9FBDDDFF",
  "w% c #A0BDDDFF",
  "ws c #A1BEDFFF",
  "W) c #A2BEDCFF",
  "g4 c #A2C0DFFF",
  "w: c #A3C1E0FF",
  "we c #A4C0DFFF",
  "wH c #A4C1DFFF",
  "qG c #A6C0DDFF",
  "gO c #A9C4E1FF",
  "q` c #AAC4E0FF",
  "gX c #AAC5E2FF",
  "w. c #ACC5E1FF",
  "'Q c #ADC7E3FF",
  "'F c #B3CBE5FF",
  "   c none",
  
  // Image data
  "                                                                ",
  "                                            ]2                  ",
  "                                        qVqCqZqANE              ",
  "                                      qSqDqFqGqHqJ              ",
  "                                    qKqLqP-@hcqIqUqY            ",
  "                                    qTqRgXN,gQ'FqEqW            ",
  "                                  g~'NW)NG'~'~gyqQq!            ",
  "                                  q~q^'Q'~'~'~Veq/q(            ",
  "                  7r              q)q_1/'~'~'~jyq`2}-o          ",
  "              NEq'q]q[q{          q}q|Fq'~'~'~23w.2}An          ",
  "              nywXwowOw+w@        w#w$hx'~'~'~QZw%qZAA          ",
  "            t{q[w&$sw*w&w=w-      1Rw;w:'~'~'~2,w>w,            ",
  "            w<w1w2<~8Pw3w4w5      w6<~gO'!'~'~1^w7w8            ",
  "            w9w08-2}2}3awq#{ww    An2}weNj'~2$wrwt*F            ",
  "            wywu8K2}2}2}w3wiwp    28WnweN,wawswdwf              ",
  "          wgp-whwj2}2}2}$swkwl  wzwx8M'c'~FDwcwvwb              ",
  "          #}p-wn<~2}2}2}wmwMwN  wB$~wV1=2AANwCwZ                ",
  "          %_q]wA9X2}2}2}wSwDwF  wGD9wHjy=OwJ2}AA                ",
  "            wKwLwP2}2}2}E{wIwUC62}wY2A'~g4wT2}wR                ",
  "            wEwW8;2}2}3pN)wQ7<w!2}FLgQ'~Npw~w^                  ",
  "            w/w(w)=n2}<(&Dp-#}  w_w`NGNmHvw'w]                  ",
  "              mrw[2.8P3pw{]JSR  w}w|W`e.eXgP                    ",
  "              n;eoeOW*2}wSe+e@e#BIe$e%e&e*NE                    ",
  "                e=e-e;W-e:e>e,e<    e1                          ",
  "                %_p-e2%V^fe3e4e5                                ",
  "                e6p-e7882}e8e9p-e0                              ",
  "                  eqew%V2}8Peep-K-                              ",
  "                  7#eretey8Meuei                                ",
  "                    epeaesedefeg                                ",
  "                    NEehejekelCt                                ",
  "                          nu                                    ",
  "                                                                "
};
