/* XPM */
const char *xpm_tango_places_user_trash[] = {
  // Header (width height colors chars-per-pixel)
  "32 32 587 2",
  
  // Colors (code mode value)
  "*T c #00000002",
  "*_ c #00000003",
  "*` c #00000004",
  "qz c #00000005",
  ",D c #00000008",
  "5X c #00000009",
  "=# c #0000000E",
  "[i c #0000000F",
  "+b c #00000012",
  "=$ c #00000015",
  "+v c #00000016",
  "[~ c #00000017",
  "%B c #0000001A",
  "9b c #0000001E",
  "WK c #00000022",
  "=e c #00000023",
  ":W c #00000025",
  "=l c #00000035",
  ",T c #00000036",
  "sC c #0D0D0028",
  "d> c #0D11003B",
  "sV c #1010002F",
  "d* c #1F23043A",
  "l* c #2E3436FF",
  "lS c #2F3537FF",
  "si c #30350535",
  "Ie c #353B3CFF",
  "su c #393E062D",
  "u. c #3B3F3FFF",
  "Xo c #3B3F40FF",
  "y~ c #3D4241FF",
  "yI c #3E4342FF",
  "yC c #404443FF",
  "d& c #404607B3",
  "d: c #474D09BC",
  "d- c #495106FF",
  "y6 c #4952091C",
  "yi c #49550015",
  "s= c #4A530537",
  "d; c #4A5308F6",
  "u0 c #4A570726",
  "s~ c #4B520AC6",
  "u7 c #4C530725",
  "s! c #4C5407F6",
  "d= c #4C540AD4",
  "yJ c #4C550439",
  "sZ c #4D5408FB",
  "y9 c #4D5506FF",
  "s* c #4D570535",
  "y( c #4D590014",
  "sB c #4E5508FC",
  "yE c #4F55062A",
  "yN c #4F56096E",
  "av c #4F5A055E",
  "a! c #4F5A0747",
  "yu c #50580860",
  "u+ c #50580BF8",
  "ac c #505A0560",
  "y8 c #51580BF9",
  "y0 c #51590CF6",
  "aQ c #5258074B",
  "y[ c #52590D79",
  "yp c #525A0EF8",
  "a5 c #525B0770",
  "ys c #535756FF",
  "y) c #535A0E8E",
  "u9 c #535A0EEE",
  "u8 c #535A0EEF",
  "y/ c #535B0EF7",
  "a4 c #545C0774",
  "p' c #545F0791",
  "yq c #565D1389",
  "p] c #565E0885",
  "y{ c #565E13E6",
  "u6 c #565E14C9",
  "sy c #565F12F4",
  "sp c #56600FF5",
  "yM c #575E14DC",
  "uO c #575E14E0",
  "yR c #575E15AD",
  "yK c #575F15D9",
  "u# c #585F16C6",
  "yw c #586016B9",
  "y7 c #586016C5",
  "pZ c #58620AAB",
  "<J c #5A5C58FF",
  "yW c #5A6117F5",
  "pA c #5A640BA4",
  "i# c #5A690011",
  "y! c #5B5D59FF",
  "ux c #5B612BFF",
  "pr c #5B650CC5",
  "yP c #5C6161FF",
  "uc c #5C622CFF",
  "iR c #5C660AEB",
  "p@ c #5C660CD9",
  "yZ c #5D5F5AFF",
  "uz c #5D632CFF",
  "i@ c #5D640821",
  "ib c #5D6609FA",
  "ie c #5D6709FD",
  "pt c #5D670EBA",
  "un c #5D6B0937",
  "Bu c #5E605CFF",
  "ul c #5E652CFF",
  "uv c #5E6612F2",
  "yH c #5E661EF3",
  "iE c #5E670BE3",
  "in c #5E680AF1",
  "Bd c #5F615DFF",
  "ub c #5F69074B",
  "p# c #5F690CCF",
  "iq c #5F6A0BFB",
  "uW c #60670725",
  "uk c #60672DFF",
  "uE c #606A0535",
  "uq c #606D074D",
  "yA c #61635EFF",
  "s& c #61681CF1",
  "]] c #626460FF",
  "uj c #62692EFF",
  "i$ c #626D0DF8",
  "s- c #636C1CF1",
  "uR c #636D12F1",
  "yS c #646661FF",
  "yd c #646662FF",
  "uh c #646B2EFF",
  "i+ c #646D10F3",
  "yD c #656762FF",
  "gG c #656763FF",
  "iw c #6666000A",
  "yF c #666864FF",
  "ug c #666C2FFF",
  ";| c #676964FF",
  "yj c #686A65FF",
  "BG c #686A66FF",
  "uY c #686F31FF",
  "uQ c #687312F2",
  "yk c #696B66FF",
  "h$ c #696B67FF",
  "uU c #697031FF",
  "yy c #697130F3",
  "yl c #6A6C68FF",
  "yf c #6B6C68FF",
  "yg c #6B6D6AFF",
  "uf c #6B7231FF",
  "aW c #6B7328F1",
  "yz c #6C6E69FF",
  "uT c #6C7337FF",
  "yx c #6D6F6AFF",
  "5l c #6D6F6BFF",
  "d% c #6D7531FA",
  "yh c #6E706BFF",
  "yc c #6E706CFF",
  ".I c #6F706DFF",
  "uI c #6F7633FF",
  "P@ c #70726DFF",
  "um c #707A16F0",
  "yv c #71736EFF",
  "a~ c #727A29F1",
  "4I c #737570FF",
  "]= c #747671FF",
  "ud c #747C35FF",
  "yb c #757772FF",
  "uw c #76821BF0",
  "ax c #777E36F4",
  "uP c #778037FF",
  "us c #7B8338FF",
  "uL c #80893CFF",
  "io c #80893EFF",
  "a3 c #818841FB",
  "ab c #818B39F3",
  "WX c #838580FF",
  "y| c #838888FF",
  "yB c #848A56F5",
  "ua c #848C3CFF",
  "iX c #848D3EFF",
  "sr c #858E3FFF",
  "se c #858E40FF",
  "gQ c #868883FF",
  "s$ c #868F41FF",
  "g, c #878984FF",
  "y] c #878E5CF5",
  "sW c #879040FF",
  "sw c #879041FF",
  "s# c #879042FF",
  "s@ c #879043FF",
  "sM c #889140FF",
  "aR c #889144FF",
  "i. c #899240FF",
  "aT c #899245FF",
  "aY c #899246FF",
  "uK c #899340FF",
  "p` c #8A904EFF",
  "aU c #8A9247FF",
  "sE c #8A9341FF",
  "sq c #8A9342FF",
  "s+ c #8A9344FF",
  "az c #8A9347FF",
  "=H c #8B8D88FF",
  "al c #8B9348FF",
  "i6 c #8B9441FF",
  "i7 c #8B9445FF",
  "ak c #8B9449FF",
  "u| c #8B9541FF",
  "3, c #8C8E89FF",
  "iO c #8C9351FF",
  "a1 c #8C954AFF",
  "up c #8C963FFF",
  "aj c #8D954AFF",
  "a< c #8D954BFF",
  "sR c #8D9642FF",
  "aI c #8D9648FF",
  "a, c #8D964CFF",
  "i5 c #8D9742FF",
  "sO c #8E9648FF",
  "p) c #8E964DFF",
  "sm c #8E9743FF",
  "s0 c #8E9744FF",
  "u} c #8E9842FF",
  "'! c #8F918BFF",
  "p( c #8F974EFF",
  "p/ c #8F974FFF",
  "a> c #8F984DFF",
  "i8 c #909850FF",
  "sT c #909943FF",
  "a6 c #909947F9",
  "pB c #909951FF",
  "i4 c #909A43FF",
  "pC c #919857FF",
  "pN c #919952FF",
  "s9 c #919A46FF",
  "uJ c #919B43FF",
  "p^ c #929A50FF",
  "pM c #929A53FF",
  "pq c #929A54FF",
  "ij c #929C45FF",
  "p0 c #939B55FF",
  "sY c #939C44FF",
  "s^ c #939C4DFD",
  "ik c #939D4AFF",
  "pO c #949C57FF",
  "ui c #949D42FF",
  "p9 c #959D56FF",
  "po c #959D58FF",
  "pm c #959E54FF",
  "u{ c #959F46FF",
  "ah c #969D54FF",
  "pe c #969D5DFF",
  "iU c #969E5AFF",
  "sU c #969F45FF",
  "y_ c #979D72FA",
  "il c #979F52FF",
  "iY c #979F5BFF",
  "u[ c #97A145FF",
  "iI c #989F5BFF",
  "i9 c #989F5CFF",
  "p8 c #98A057FF",
  "pX c #98A059FF",
  "ic c #98A05DFF",
  "uH c #98A246FF",
  "pw c #99A05EFF",
  "sv c #99A148FF",
  "sI c #99A247FF",
  "p+ c #9AA164FF",
  "iz c #9AA25AFF",
  "ix c #9AA25EFF",
  "pV c #9AA260FF",
  "u] c #9AA446FF",
  "i3 c #9AA450FF",
  "iP c #9BA25CFF",
  "p. c #9BA35BFF",
  "uu c #9BA445FF",
  "uG c #9BA547FF",
  "sc c #9BA54AFF",
  "ye c #9CA27AFC",
  "p_ c #9CA363FF",
  "sn c #9CA456FF",
  "a= c #9CA554FF",
  "sP c #9CA648FF",
  "u5 c #9DA386FE",
  "p[ c #9DA656FF",
  "uF c #9DA748FF",
  "iL c #9EA55EFF",
  "a2 c #9EA566FF",
  "sQ c #9EA569FF",
  "i| c #9EA65DFF",
  "s5 c #9EA74DFF",
  "sx c #9EA84BFF",
  "p7 c #9FA660FF",
  "iT c #9FA668FF",
  "sL c #9FA94AFF",
  "yV c #A0A4A5FF",
  "a: c #A0A764FF",
  "d$ c #A0A76CFF",
  "iK c #A0A860FF",
  "i} c #A0A95EFF",
  "uD c #A0AB49FF",
  "is c #A0AB4AFF",
  "iv c #A1A76CFF",
  "aE c #A1A86BFF",
  "pS c #A1A955FF",
  "s8 c #A1A95DFF",
  "p5 c #A1A95EFF",
  "i0 c #A1A96CFF",
  "s4 c #A1AA4FFF",
  "uy c #A1AB49FF",
  "s% c #A2A96EFF",
  "iJ c #A2AA60FF",
  "sz c #A2AB4DFF",
  "sK c #A2AC4CFF",
  "pE c #A3AC5CFF",
  "uS c #A3AE4AFF",
  "p4 c #A4AC5FFF",
  "sb c #A4AC60FF",
  "a[ c #A4AD53FF",
  "pR c #A4AD5AFF",
  "px c #A4AD5DFF",
  "pW c #A4AD62FF",
  "s3 c #A4AE51FF",
  "u$ c #A5A98DFE",
  "st c #A5AC71FF",
  "a% c #A5AE59FF",
  "s6 c #A5AE60FF",
  "sl c #A5AF50FF",
  "ai c #A5AF58FF",
  "yT c #A6AC8AFD",
  "ag c #A6AE6DFF",
  "aD c #A6AF56FF",
  "uA c #A6B04BFF",
  "sJ c #A6B04EFF",
  "a- c #A7AE6AFF",
  "sN c #A7AE75FF",
  "p3 c #A7AF60FF",
  "pT c #A7B05CFF",
  "pz c #A7B05FFF",
  "d# c #A8AE76FF",
  "p6 c #A8AF6CFF",
  "af c #A8AF6DFF",
  "s2 c #A8B153FF",
  "py c #A8B15BFF",
  "ut c #A8B24CFF",
  "sk c #A8B251FF",
  "iS c #A8B259FF",
  "d@ c #A9AF76FF",
  "i1 c #A9B163FF",
  "iA c #A9B255FF",
  "au c #A9B259FF",
  "a{ c #A9B261FF",
  "uZ c #A9B34CFF",
  "sH c #A9B34FFF",
  "aP c #AAB175FF",
  "p2 c #AAB262FF",
  "pl c #AAB360FF",
  "ad c #ABB26EFF",
  "d+ c #ABB277FF",
  "pY c #ABB35EFF",
  "pc c #ABB36CFF",
  "i{ c #ABB36DFF",
  "s1 c #ABB455FF",
  "a$ c #ABB45CFF",
  "sj c #ABB553FF",
  "iV c #ABB64DFF",
  "pn c #ACB275FF",
  "p1 c #ACB563FF",
  "sG c #ACB651FF",
  "uC c #ACB74DFF",
  "u/ c #ACB74FFF",
  "a; c #ADB377FF",
  "dO c #ADB477FF",
  "aF c #ADB567FF",
  "u) c #ADB65AFF",
  "pk c #ADB662FF",
  "i= c #ADB74FFF",
  "pU c #AEB660FF",
  "s< c #AEB757FF",
  "a# c #AEB75EFF",
  "p$ c #AEB75FFF",
  "u^ c #AEB84EFF",
  "iB c #AEB94EFF",
  "do c #AFB578FF",
  "a* c #AFB672FF",
  "sh c #AFB855FF",
  "p< c #AFB865FF",
  "uV c #AFB94EFF",
  "sF c #AFB953FF",
  "iy c #AFBA4EFF",
  "ur c #AFBA4FFF",
  "a_ c #AFBA59FF",
  "ap c #B0B870FF",
  "pj c #B0B964FF",
  "i* c #B0BA4FFF",
  "u( c #B0BA5DFF",
  "a@ c #B0BA5FFF",
  "dX c #B1B879FF",
  "u~ c #B1BB4FFF",
  "sg c #B1BB56FF",
  "s, c #B1BB58FF",
  "iC c #B1BB5EFF",
  "p, c #B1BB66FF",
  "iN c #B1BC4FFF",
  "y` c #B2B5B5FF",
  "so c #B2B880FF",
  "p~ c #B2B981FF",
  "i_ c #B2BA68FF",
  "i> c #B2BB69FF",
  "uB c #B2BC4FFF",
  "sD c #B2BC55FF",
  "a` c #B2BC63FF",
  "it c #B2BD4FFF",
  "d. c #B3BA7AFF",
  "a) c #B3BD5BFF",
  "i& c #B3BE50FF",
  "s> c #B3BE5AFF",
  "pP c #B4BD65FF",
  "i) c #B4BD6BFF",
  "sf c #B4BE58FF",
  "iu c #B4BE5EFF",
  "aC c #B4BE62FF",
  "iW c #B4BE63FF",
  "uN c #B4BF50FF",
  "a& c #B5BC7AFF",
  "s| c #B5BC7BFF",
  "i2 c #B5BC7CFF",
  "aV c #B5BF5FFF",
  "ue c #B5C051FF",
  "p& c #B5C052FF",
  "sS c #B5C057FF",
  "p! c #B6BC85FF",
  "i: c #B6BF6DFF",
  "ia c #B6BF6FFF",
  "a( c #B6C05DFF",
  "iM c #B6C153FF",
  "pv c #B7BD83FF",
  "s} c #B7BE7CFF",
  "uM c #B7C155FF",
  "s: c #B7C15BFF",
  "aw c #B7C161FF",
  "iQ c #B7C256FF",
  "sd c #B7C25AFF",
  "pQ c #B8BE85FF",
  "pb c #B8BE87FF",
  "iH c #B8BF83FF",
  "pI c #B8C071FF",
  "ar c #B8C16BFF",
  "aB c #B8C260FF",
  "l; c #B9BCB5FF",
  "s{ c #B9C07CFF",
  "im c #B9C266FF",
  "i( c #B9C271FF",
  "u! c #B9C35AFF",
  "a/ c #B9C35FFF",
  "ss c #B9C45CFF",
  "as c #BAC187FF",
  "p% c #BAC45CFF",
  "p* c #BAC45DFF",
  "aq c #BAC463FF",
  "s[ c #BBC27DFF",
  "pi c #BBC55FFF",
  "i% c #BBC560FF",
  "aN c #BBC562FF",
  "u' c #BCC381FF",
  "iZ c #BCC47AFF",
  "a+ c #BCC574FF",
  "pu c #BCC661FF",
  "aX c #BCC667FF",
  "yn c #BDC1BDFF",
  "s] c #BDC47FFF",
  "i` c #BDC481FF",
  "ir c #BDC666FF",
  "p= c #BDC668FF",
  "ao c #BDC66DFF",
  "i- c #BDC675FF",
  "aM c #BDC763FF",
  "am c #BDC764FF",
  "a0 c #BDC765FF",
  "aZ c #BEC577FF",
  "a9 c #BEC866FF",
  "a8 c #BEC867FF",
  "pH c #BEC86AFF",
  "a' c #BFC57FFF",
  "ip c #BFC77FFF",
  "a. c #BFC969FF",
  "p| c #BFC96AFF",
  "yU c #C0C4BCFF",
  "ih c #C0C690FF",
  "s' c #C0C77FFF",
  "a] c #C0C785FF",
  "i; c #C0C87FFF",
  "p} c #C0C96AFF",
  "pF c #C0C96BFF",
  "pp c #C0CA6CFF",
  "pa c #C0CA6DFF",
  "pG c #C1CA6CFF",
  "ps c #C1CA73FF",
  "ii c #C2C97FFF",
  "s` c #C2C981FF",
  "aS c #C2C987FF",
  "p> c #C2CA84FF",
  "i! c #C2CB74FF",
  "Q( c #C3C6C0FF",
  "ym c #C3C8B4FF",
  "i' c #C3C990FF",
  "yL c #C4C9B5FF",
  "ay c #C4CA8AFF",
  "aA c #C4CB89FF",
  "pD c #C4CC73FF",
  "s_ c #C4CC82FF",
  "at c #C6CC8BFF",
  "id c #C6CC93FF",
  "iD c #C6CC95FF",
  "s) c #C7CE83FF",
  "ae c #C7CE87FF",
  "pJ c #C7CF83FF",
  "sA c #C7D080FF",
  "s/ c #C8D182FF",
  "sX c #C9CDA3FF",
  "i] c #C9CE9DFF",
  "s( c #C9D184FF",
  "s7 c #CACEA1FF",
  "aL c #CACEA6FF",
  "a} c #CACFA0FF",
  "p{ c #CAD182FF",
  "ig c #CBD0A2FF",
  "aK c #CBD0A6FF",
  "ph c #CBD196FF",
  "a7 c #CBD283FF",
  "an c #CBD385FF",
  "s. c #CCD0A6FF",
  "uo c #CCD1BFFF",
  "u_ c #CCD29CFF",
  "a^ c #CCD387FF",
  "aJ c #CDD1A7FF",
  "u4 c #CDD1D2FF",
  "u` c #CDD29FFF",
  "if c #CDD2A3FF",
  "a| c #CDD2A7FF",
  "s; c #CDD489FF",
  "sa c #CDD58BFF",
  "u3 c #CED1D2FF",
  "aG c #CED2A5FF",
  "i< c #CED3A3FF",
  "aH c #CED3A8FF",
  "aa c #CED3A9FF",
  "yY c #CFD2D0FF",
  "u2 c #CFD2D3FF",
  "u1 c #CFD3D4FF",
  "i, c #CFD4A4FF",
  "i[ c #CFD4A9FF",
  "i~ c #CFD593FF",
  "u< c #D0D3D4FF",
  "iF c #D0D4A9FF",
  "iG c #D0D4AAFF",
  "u, c #D0D4D5FF",
  "u> c #D1D4D5FF",
  "u: c #D1D5D6FF",
  "qp c #D2D5CEFF",
  "uX c #D2D5D1FF",
  "u; c #D2D5D6FF",
  "u- c #D2D6D7FF",
  "][ c #D3D6D7FF",
  "y} c #D3D7CAFF",
  "u= c #D3D7D8FF",
  "i^ c #D3D9A0FF",
  "pg c #D3D9A6FF",
  "u* c #D4D7D8FF",
  "u& c #D4D8D9FF",
  "pL c #D4D9A4FF",
  "u% c #D5D8D9FF",
  "p- c #D6DBA3FF",
  "i/ c #D8DDAEFF",
  "aO c #DADFB0FF",
  "p: c #DBE0B4FF",
  "pf c #DCE0B4FF",
  "pd c #DCE1B2FF",
  "pK c #DCE1B3FF",
  "p; c #DDE1B5FF",
  "yt c #E0E5DFFF",
  "ya c #E3E7E4FF",
  "y' c #E3E7E6FF",
  "y^ c #E4E9E4FF",
  "u@ c #E8ECE9FF",
  "yr c #E8EDE9FF",
  "yQ c #EDF1F1FF",
  "yG c #EDF1F2FF",
  "dD c #EFF3F4FF",
  "   c none",
  
  // Image data
  "                                                                ",
  "    y6y7y8y9y9y9y9y9y9y9y9y9y9y9y9y9y9y9y9y9y9y9y9y9y9y0yq      ",
  "    ywyeyrdDdDdDdDdDdDdDdDdDdDdDdDdDdDdDdDdDdDdDdDdDdDytyyyu    ",
  "  yiypyaysydgG;|BGh$yfyg5lyh.IyjykylyzyxycP@yv4I]=ybWXynymyM    ",
  "  yNyByVyC<Jy!yZBuBdyA]]ySyDyFyjykylyzyxycP@yv4I]=ybgQl;yGyHyJ  ",
  "  yKyLyPyI<Jy!yZBuBdyA]]ySyDyFyjykylyzyxycP@yv4I]=ybg,yUyYyTyR  ",
  "yEyWyQIey~<Jy!yZBuBdyA]]ySyDyFyjykylyzyxycP@yv4I]=yb=HyUQ(y^y/y(",
  "y)y_y`l*Xo<Jy!yZBuBdyA]]ySyDyFyjykylyzyxycP@yv4I]=yb3,yUqpy'y]y[",
  "y{y}y|lSu.<Jy!yZBuBdyA]]ySyDyFyjykylyzyxycP@yv4I]=yb'!yUqpuXuouO",
  "u+u@dDdDdDdDdDdDdDdDdDdDdDdDdDdDdDdDdDdDdDdDdDdDdDdDdDdDdDdDu@u+",
  "u#u$u%u&u&u*u*u=u=][u-u;u;u;u:u:u>u>u,u,u<u<u1u1u2u2u3u3u3u4u5u6",
  "u7u8y9y9y9y9y9y9y9y9y9y9y9y9y9y9y9y9y9y9y9y9y9y9y9y9y9y9y9y9u9u0",
  "  uquwueueueueueueueueurutuyuuuiupuausudufuguhujukuluzuxucuvub  ",
  "  unumuMueueueueueueuNuBuVuCuZuAuSuDuFuGuHuJuKuLuPuIuUuYuTuRuE  ",
  "  uWuQu!ueueueueueueuNu~u^u/u(u)u_u`u'u]u[u{uJu}u|i.iXioiOi+i@  ",
  "  i#i$i%ueueueueueuei&i*i=i-i;i:i>i,i<i1i2i3i4i5i6i7i8i9i0iqiw  ",
  "    ieirueueueueueueitiyiuiiipiaisidifigihijikilizixici9ivib    ",
  "    inimiMueueueueuNiNiBiViCiZiAiSiDiFiGiHiJiKiLiPiIiUiYiTiR    ",
  "    iEiWiQueueueuei!i~i^i/i(i)i_i`i'i]i[i{i}i|p.pXpopOiYp+p@    ",
  "    p#p$p%ueuep&p*p=p-p;p:p>p,p<p1p2p3p4p5p6p7p8p9p0pqpwpepr    ",
  "    ptpypuiMpipppapspdpfpgphpjpkplpzpxpcpvpbpnpmpMpNpBpVpCpZ    ",
  "    pApSpDpFpGpppHpJpKpLpPpIpUpYpTpRpEpWpQp!p~p^p/p(p)p_p`p'    ",
  "    p]p[p{p}p|a.aXaoaOa+a@a#a$pya%a&a*a=a-a;a:a>a,a<a1a2a3a4    ",
  "    a5a6a7a8a9a0aqawaearatayauaiapaaasadafagahajakalaziTaxac    ",
  "    avabanamaMaNaBaVaCaZaAaSaDaFaGaHaJaKaLaPaIaUaYaTaRaEaWaQ    ",
  "    a!a~a^pupua/a(a)a_a`a'a]a[a{a}a|s.sXsosOs+aRs@s#s$s%s&s*    ",
  "    s=s-s;pip*s:s>s,s<s1s2s3s4s5s6s7s8s9s0sqswsesrsrsrstsysu*T  ",
  "  qzsispsasssdsfsgshsjskslszsxscsvsbsnsmi6sMsrsrsrsrsesNsBsV[~*`",
  "  [isCsZsAi%sSsDsFsGsHsJsKsLsPsIsUsYsTsRsEsWsrsrsrsep)sQs!,T=e=#",
  "  =#WKs~s^s/s(s)s_s`s's]s[s{s}s|d.dXdodOd+d@d#d#d#sNd$d%d&=lWK5X",
  "  *_=$d*d=d-d-d-d-d-d-d-d-d-d-d-d-d-d-d-d-d-d-d-d-d-d;d:d>:W[i  ",
  "      ,D+b%B9b9b9b9b9b9b9b9b9b9b9b9b9b9b9b9b9b9b9b9b%B+v=#*_    "
};
