/* XPM */
const char *xpm_tango_places_user_desktop[] = {
  // Header (width height colors chars-per-pixel)
  "32 32 229 2",
  
  // Colors (code mode value)
  "+n c #00000001",
  "*R c #00000006",
  ",q c #0000000C",
  "+b c #00000012",
  "+v c #00000016",
  "7e c #0000001B",
  "=@ c #0000001D",
  "9b c #0000001E",
  "+g c #00000021",
  "=r c #00000040",
  "tp c #26263D79",
  "ez c #2626412F",
  "e] c #26264236",
  "tQ c #262740F0",
  "t! c #262940A7",
  "th c #272840FF",
  "t6 c #28284152",
  "t5 c #28284313",
  "tW c #282A4185",
  "tE c #282A42F7",
  "r, c #292A41FF",
  "r] c #292B42FE",
  "tJ c #292C43E8",
  "ta c #292C44C3",
  "tH c #292C44E0",
  "t4 c #292C44F6",
  "e[ c #2A2B43FF",
  "tI c #2A2C42FF",
  "r' c #2A2E467F",
  "t$ c #2B2B5506",
  "t# c #2B2D479A",
  "eb c #2B3049C8",
  "r[ c #2C2E45FF",
  "eN c #2C2E47F8",
  "eB c #2C2F4AA9",
  "r< c #2D2D414A",
  "en c #2D30495B",
  "eV c #2D324C94",
  "eJ c #2D324CE7",
  "tD c #2E2F46FF",
  "t@ c #30314AFD",
  "t+ c #303247FF",
  "t% c #32354CF5",
  "eS c #333547FF",
  "eA c #333B55FF",
  "ev c #343650F2",
  "eM c #34384FF2",
  "eD c #393A42FF",
  "ex c #393A50FF",
  "em c #393C53F9",
  "eK c #3A3E55ED",
  "t0 c #3B4560FF",
  "ti c #3B4866FB",
  "eF c #3D4157FF",
  "t= c #3E4152FF",
  "ry c #3F3F3F41",
  "r1 c #3F4046F4",
  "tP c #3F526CFF",
  "r` c #40404058",
  "JW c #404040FF",
  "rt c #4040436B",
  "e' c #40455FFB",
  "rH c #42424242",
  "rR c #424242F3",
  "eP c #424559FF",
  "ec c #42465CF2",
  "rn c #4343432E",
  "t1 c #434554FF",
  "eL c #434F6CFF",
  "t* c #435474FF",
  "rG c #44444399",
  "tK c #45566FFF",
  "rj c #4747459F",
  "rh c #474745D9",
  "rb c #474745F3",
  "rm c #474746F1",
  "tL c #475B73FF",
  "tY c #475F80FF",
  "tT c #476081FF",
  "tR c #476082FF",
  "rE c #484846A0",
  "8# c #49494907",
  "e` c #4A4F65FF",
  "tg c #4C678CFF",
  "rr c #4F4F53F7",
  "tG c #4F688EFF",
  "ty c #51576DFF",
  "tf c #516C91FF",
  "eZ c #516D94FF",
  "r_ c #53544FF1",
  "#P c #55555503",
  "tU c #566986FF",
  "t3 c #587299FF",
  "e_ c #595C68FF",
  "t7 c #596278FB",
  "tq c #5A5C64FF",
  "t2 c #5A6680FF",
  "td c #5A7495FF",
  "t9 c #5A7AA4FF",
  "eH c #5C7BA5FF",
  "t8 c #5C7CA5FF",
  "tt c #5D5F62FF",
  "tu c #5D7CA5FF",
  "e{ c #5E606BFF",
  "eG c #607190FF",
  "rJ c #6A6A67F2",
  "eC c #6A7E9DFF",
  "ru c #6B6D69F2",
  "tF c #6B83A5FF",
  "rF c #6C6D63FB",
  "ts c #717F97FF",
  "t& c #7187A5FF",
  "tS c #737567FF",
  "tA c #747668FF",
  "tZ c #757668FF",
  "tC c #76776AFF",
  "tV c #77786AFF",
  "tB c #77796BFF",
  "tN c #787A6CFF",
  "tM c #797B6CFF",
  "tm c #7B7D6FFF",
  "tn c #7C7E70FF",
  "tb c #7D7E70FF",
  "tv c #7E7F71FF",
  "tc c #7F8172FF",
  "tx c #808273FF",
  "tz c #818374FF",
  "rg c #86877AFF",
  "tl c #868878FF",
  "r> c #878A80FF",
  "tO c #888A7BFF",
  "tj c #888A7CFF",
  "tk c #898B7BFF",
  "tr c #8C8E7DFF",
  "rT c #8C8E7FFF",
  "te c #8D8F7EFF",
  "t< c #8D8F7FFF",
  "tw c #8E907FFF",
  "t, c #8F9180FF",
  "t> c #909281FF",
  "to c #919381FF",
  "t: c #919382FF",
  "tX c #929482FF",
  "t; c #929483FF",
  "r) c #939583FF",
  "t. c #939584FF",
  "r( c #949684FF",
  "r/ c #959785FF",
  "r| c #959786FF",
  "r^ c #969886FF",
  "r} c #969887FF",
  "r{ c #96988BFF",
  "rY c #979987FF",
  "rU c #989A88FF",
  "rI c #999B89FF",
  "rD c #9A9C8AFF",
  "rS c #9B9D8AFF",
  "rP c #9B9D8BFF",
  "rv c #9C9E8BFF",
  "rA c #9C9E8CFF",
  "r~ c #9D9F8CFF",
  "rZ c #9D9F8DFF",
  "rW c #9E9E96FE",
  "rc c #9EA08DFF",
  "rC c #9EA08EFF",
  "rx c #9FA18EFF",
  "rV c #9FA18FFF",
  "rz c #A0A28FFF",
  "rB c #A0A290FF",
  "t- c #A0A291FF",
  "rf c #A1A390FF",
  "rN c #A1A391FF",
  "rk c #A2A29AFE",
  "rd c #A2A491FF",
  "r! c #A2A492FF",
  "eI c #A3A49EFF",
  "rs c #A3A592FF",
  "re c #A3A593FF",
  "ra c #A4A693FF",
  "rw c #A5A794FF",
  "rq c #A6A895FF",
  "r0 c #A7A996FF",
  "r: c #A8AA96FF",
  "r9 c #A8AA97FF",
  "r; c #A9AB97FF",
  "r8 c #A9AB98FF",
  "rL c #AAAC98FF",
  "r- c #AAAC99FF",
  "r= c #ABAD99FF",
  "r7 c #ABAD9AFF",
  "r* c #ACAE9AFF",
  "r6 c #ACAE9BFF",
  "e) c #ADADA3FF",
  "rp c #ADAF9BFF",
  "r& c #ADAF9CFF",
  "rQ c #ADAF9DFF",
  "r% c #AEB09CFF",
  "rl c #AEB09DFF",
  "r5 c #AFB19DFF",
  "r$ c #AFB19EFF",
  "r4 c #B0B29EFF",
  "r# c #B0B29FFF",
  "r3 c #B1B39FFF",
  "r@ c #B2B4A0FF",
  "r+ c #B3B5A1FF",
  "rO c #B4B6A2FF",
  "ro c #B5B7A3FF",
  "rX c #B6B8A4FF",
  "r. c #B7B9A5FF",
  "e| c #B8BAA6FF",
  "'Z c #B8BAACFF",
  "e} c #BABCAAFF",
  "rK c #BBBDADFF",
  "rM c #BDBFB2FF",
  "r2 c #BFC0B4FF",
  "e( c #C0C1B2FF",
  "ri c #C1C3B1FF",
  "e/ c #C2C4B5FF",
  "e^ c #C3C5B6FF",
  "e~ c #C4C5B6FF",
  "e! c #C5C6B7FF",
  "eQ c #C5C7B8FF",
  "eW c #C6C8B9FF",
  "eE c #C8C9B9FF",
  "eR c #C9CABAFF",
  "eT c #C9CBBBFF",
  "eY c #CACCBCFF",
  "eU c #CBCCBDFF",
  "   c none",
  
  // Image data
  "                                                                ",
  "                                                                ",
  "                                                                ",
  "                                                                ",
  "                                                                ",
  "                                                                ",
  "                                                                ",
  "                                                                ",
  "          ezexeceveb                      enemeMeNeB            ",
  "          eVeCeZeAeSJWJWJWJWJWJWJWJWJWJWJWeDeFeGeHeJ+n          ",
  "          eKeLePeIeUeYeTeReEeWeQe!e~e^e/e('Ze)e_e`e'e]          ",
  "          e[e{e}e|r.rXrorOr+r@r#r$r%r&r*r=r-r;r:r>r,r<          ",
  "        #Pr1r2rXrorOr+r@r3r4r5r%r6r7r-r8r9r0rqrwrerrrt          ",
  "        ryrurirOr@r3r4r5r%rpr*r=r8r9r0rqrwrarsrdrfrgrh          ",
  "        rjrkror3r$rlr&r6r7r-r8r:r0rwrarsrdrfrzrxrcrvrbrn        ",
  "      #PrmrMr5r%rpr7r-r8r9r0rqrwrarsrNrBrVrCrZrArSrDrFrG        ",
  "      rHrJrKr*r=rLr;r0rqrwrarsrdrfrzrCrZrArPrDrIrUrYrTrR8#      ",
  "      rErWrQr8r9r0rqrarer!rfrBrxrcr~rvrDrIrUrYr^r/r(r)r_r`      ",
  "    r'r]r[r{rqrwrarsrdrBrVrCrZrArPrDrIrUr}r|r(t.tXtotOt+t@t#    ",
  "  t$t%t&t*t=t-rdrfrzrxrcrArPrDrIrUrYr^r/t.t;t:t>t,t<t1t2t3t4t5  ",
  "  t6t7t8t9t0tqrVrcrZrvrSrDrUrYr^r/r(r)tXtot,twtetrtttytut9titp  ",
  "  tatstdtftgthtjtktltztxtctvtbtntmtMtNtBtVtCtZtAtStDtFt9t9tGtH,q",
  "  tJtKtLtLtPthJWJWJWJWJWJWJWJWJWJWJWJWJWJWJWJWJWJWtItUtYtTtRtE,q",
  "  tWththththth=r=r=r=r=r=r=r=r=r=r=r=r=r=r=r=r=r=rtQththththt!+n",
  "    +n,q+v9b+g+g+g+g+g+g+g+g+g+g+g+g+g+g+g+g+g+g+g+g=@7e+b*R    ",
  "                                                                ",
  "                                                                ",
  "                                                                ",
  "                                                                ",
  "                                                                ",
  "                                                                ",
  "                                                                "
};
