/* XPM */
const char *xpm_tango_categories_applications_accessories[] = {
  // Header (width height colors chars-per-pixel)
  "32 32 505 2",
  
  // Colors (code mode value)
  "+j c #00000001",
  "&T c #00000003",
  "%. c #00000004",
  "&0 c #00000005",
  "&^ c #00000006",
  "@C c #00000007",
  ":E c #00000008",
  "*7 c #00000009",
  "@B c #0000000A",
  "+> c #0000000B",
  "&Z c #00000011",
  "@m c #00000013",
  "@o c #00000014",
  "[~ c #00000017",
  "@n c #00000019",
  "@5 c #0000001A",
  "5U c #0000001B",
  "&) c #0000001C",
  "&A c #00000020",
  "*. c #00000022",
  ":W c #00000025",
  "+J c #00000027",
  "rn c #0000002A",
  "9) c #0000002C",
  "*^ c #0000002E",
  "&R c #0000002F",
  ":s c #00000031",
  "T2 c #00000032",
  "=( c #00000033",
  "&W c #00000034",
  "*8 c #00000036",
  "6o c #0B00002F",
  "69 c #1100002C",
  "6O c #2119003E",
  "4{ c #80000004",
  "6b c #80000036",
  "@> c #80808002",
  "<4 c #80808004",
  "e_ c #8080800A",
  "rj c #8092800E",
  "eo c #836A0054",
  "QJ c #848E841B",
  "<C c #85858517",
  "ri c #86868615",
  "r1 c #868C8628",
  "Uv c #878B8344",
  "3/ c #887D7774",
  "r5 c #8888843A",
  "c! c #8888880F",
  "eB c #888A85FF",
  "2R c #888B8472",
  "WI c #89898434",
  "3. c #89898438",
  "rD c #89898650",
  "2c c #898C8652",
  "ru c #898C875B",
  "3Q c #8A7A7532",
  "2C c #8A8A8323",
  "YE c #8A8A8530",
  "2v c #8A8A8A18",
  "2F c #8A8C8876",
  "2S c #8A8C8887",
  "2! c #8A8D886B",
  "5J c #8B000044",
  "rE c #8B8B8321",
  "2J c #8B8D877F",
  "2/ c #8B8D89D3",
  "r% c #8B8E89F5",
  "6n c #8C73005F",
  "60 c #8C7301B6",
  "2n c #8C8D8889",
  "3; c #8C8E8771",
  "3C c #8C8E899E",
  "rp c #8C8E89F2",
  "r: c #8C8E8A7C",
  "3t c #8C8E8AC8",
  "rN c #8C8E8AEB",
  "33 c #8D8F89F3",
  "3@ c #8D8F8A92",
  "3h c #8D8F8AE8",
  "3: c #8D8F8AED",
  "uJ c #8D8F8AF1",
  "r< c #8D8F8AF6",
  "3* c #8D908BAE",
  "2` c #8D908BD7",
  "2B c #8D908BDE",
  "5b c #8E000012",
  "3! c #8E8C87FF",
  "34 c #8E8F8AD6",
  "3X c #8E8F8ADF",
  "2Z c #8E8F8BF4",
  "3o c #8E908BA3",
  "3i c #8E908BCD",
  "2L c #8E908BDA",
  "2I c #8E908BE3",
  "fO c #8E908BFF",
  "2M c #8E918BA9",
  "2Q c #8E918BB9",
  "r/ c #8F8F8010",
  "3l c #8F918AF5",
  "rV c #8F918BF5",
  "3^ c #90857EFE",
  "3K c #90918CC5",
  "rM c #90928DF5",
  "<G c #92929207",
  "2] c #929490F5",
  "2m c #939591FC",
  "3| c #96261DA8",
  "2N c #969894FD",
  "3M c #979894F3",
  "5I c #9904048F",
  "44 c #990A004B",
  "4+ c #990B00FF",
  "6+ c #997D02ED",
  "rZ c #99999905",
  "4@ c #9A1B11E0",
  "4. c #9A5E59FF",
  "4g c #9B0C029B",
  "36 c #9B9D98F4",
  "68 c #9D0505A9",
  "4, c #9D0C01F6",
  "4H c #9D0E03A9",
  "2E c #9D9E9AF3",
  "3B c #9D9F9AFF",
  "4> c #9E0C002A",
  "4X c #9F9D99FF",
  "4G c #A00D029B",
  "3y c #A0A29EF4",
  ":u c #A0A29EFF",
  "R: c #A1000026",
  "4~ c #A1000044",
  "4} c #A10B03F8",
  "45 c #A200000B",
  "5z c #A200001E",
  "6X c #A20404CA",
  "4l c #A20D05FD",
  "4h c #A21005F6",
  "2~ c #A2A49EF3",
  "5x c #A300002F",
  "5; c #A3020277",
  "4O c #A3231AFF",
  "4[ c #A402026A",
  "yZ c #A500005D",
  "3- c #A5A7A2F5",
  "5% c #A6000014",
  "4V c #A6000042",
  "4u c #A6020284",
  "5[ c #A60404C2",
  "5{ c #A60505CF",
  "6q c #A68E1DF9",
  "5- c #A7020296",
  "4) c #A70202E3",
  "5e c #A70303B3",
  "5k c #A70303E3",
  "4` c #A70403EC",
  "6l c #A802026D",
  "50 c #A802028F",
  "62 c #A8030364",
  "5` c #A80303E0",
  "5G c #A80303ED",
  "5> c #A8040490",
  "5& c #A80404EB",
  "4i c #A90202E3",
  "4_ c #A9030392",
  "5H c #A90303EC",
  "6v c #A90404B4",
  "43 c #A9130AF6",
  "4y c #AA00000C",
  "4C c #AA0303EA",
  "5r c #AA0404AD",
  "5K c #AA0505EB",
  "4F c #AA0605FE",
  "05 c #AAAA0003",
  "cW c #AAAAAA03",
  "3e c #AAACA7F5",
  "6z c #AB0505E0",
  "5v c #AB0505EB",
  "6c c #AB0606E4",
  "5C c #AB0705EA",
  "4f c #AB140AF6",
  "4s c #AC0807FF",
  "6t c #AC1408FF",
  "6& c #AC1808FF",
  "5! c #AC1904FF",
  "2D c #ACADA9F5",
  "5f c #AD0707AE",
  "5u c #AD0707E1",
  "5A c #AD0707E9",
  "67 c #AD0707F0",
  "6x c #AD0808E3",
  "4^ c #AD0909F0",
  "51 c #AD1304FE",
  "4o c #AD4F47FF",
  "5l c #AE0707E9",
  "4a c #AE0908FB",
  "5T c #AE160EFF",
  "5, c #AF0A0AED",
  "57 c #AF0B09F0",
  "2A c #AFAFACF6",
  "5c c #B00909ED",
  "5i c #B0160CFF",
  "5Y c #B08704F8",
  "4p c #B10B0BEC",
  "6; c #B1180AFF",
  "6F c #B11A0AFF",
  "6m c #B19205F7",
  "3+ c #B1B2ADF7",
  "4x c #B21408FE",
  "6$ c #B2150DFF",
  "6A c #B21E0BFF",
  "5n c #B23804CE",
  "5= c #B30B0BF0",
  "4U c #B3160CFF",
  "6r c #B37719FF",
  "6@ c #B3A03FFF",
  "5^ c #B4180BFF",
  "6* c #B43B10FF",
  "55 c #B5170DFF",
  "6S c #B51E0EFF",
  "yk c #B6000007",
  "41 c #B65C59FF",
  "b7 c #B6920007",
  "6e c #B6A028FF",
  "6# c #B7803FFF",
  "5W c #B79400FF",
  "3V c #B7B8B4F8",
  "5. c #B81811F9",
  "5R c #B91811FF",
  "5@ c #B95803E5",
  "5Q c #B99700FF",
  "4( c #BA1111F4",
  "5+ c #BA1A10FF",
  "4J c #BA1A14FB",
  "5X c #BA4C0EFB",
  "5} c #BB1111F2",
  "5o c #BB3623FF",
  "6Z c #BB5513FF",
  "5E c #BB5B14FF",
  "5a c #BB5C07F9",
  "2K c #BBBCB8FC",
  "63 c #BC1212F2",
  "4z c #BC1413EF",
  "6w c #BCAD61FF",
  "3O c #BCBDBAF9",
  "5P c #BE1616F4",
  "5O c #BE1D15FF",
  "3r c #BEC0BCF9",
  "Rc c #BF000004",
  "6U c #BFA60014",
  "3= c #BFC0BEFA",
  "5] c #C01515F1",
  "5N c #C05018FF",
  "6s c #C05E15FF",
  "wS c #C0C1BEFF",
  "5y c #C11717F7",
  "6= c #C11F17FF",
  "2b c #C19F0025",
  "n0 c #C1A20021",
  "42 c #C21B17FF",
  "4c c #C24B2CFF",
  "6G c #C25C14FF",
  "5/ c #C29700FF",
  "4] c #C31616FD",
  "2x c #C3A0006B",
  "5w c #C41717FC",
  "6. c #C41B1BF7",
  "b$ c #C49D000D",
  "3# c #C49F003D",
  "6{ c #C49F00B4",
  "04 c #C4A000FF",
  "5S c #C4A201F6",
  "4R c #C4A20271",
  "5q c #C51818FD",
  "4Z c #C51A1AFA",
  "5V c #C59D02E0",
  "3p c #C5A0004B",
  "6Y c #C5A101EF",
  "46 c #C5A1026D",
  "4m c #C5A102F5",
  "3P c #C5A2005D",
  "4e c #C5A201F6",
  "2W c #C5C6C3FC",
  "2U c #C6A10031",
  "2G c #C6A2027E",
  "3) c #C6A202F3",
  "3x c #C6A203EF",
  "37 c #C6A403A2",
  "6% c #C7201BFF",
  "2[ c #C7A20491",
  "4w c #C7A303C3",
  "2( c #C7A303DE",
  "3> c #C7A303E7",
  "3Z c #C7A404B3",
  "4# c #C7A404C4",
  "2V c #C7A404D2",
  "6B c #C7AE24FF",
  "5: c #C81B1BFE",
  "3( c #C8A4001C",
  "2Y c #C8A509F6",
  "6C c #C8A820FF",
  "6V c #C8AF23FF",
  "2^ c #C8C9C6FD",
  "3z c #C9A10013",
  "3$ c #C9A80CF6",
  "4S c #CA1C1CFF",
  "Em c #CA1E1EFF",
  "4= c #CAA708F4",
  "3a c #CAA911F6",
  "4K c #CB211EFF",
  "6N c #CBB642FF",
  "3L c #CBCCC9FD",
  "5s c #CC211EFB",
  "4T c #CCA90AF4",
  "3I c #CCAB16F6",
  "3k c #CCCCCAFF",
  "5* c #CD1E1EFF",
  "5M c #CD2321FF",
  "6a c #CD2721FF",
  "3u c #CDCECCFD",
  "4j c #CE1E1EFF",
  "5t c #CE1F1FFF",
  "5< c #CE2421FF",
  "4/ c #CF2020FF",
  "4' c #CF2121FF",
  "47 c #CFAF19F5",
  "3~ c #CFD1CEFF",
  "4A c #D02020FF",
  "4D c #D02222FF",
  "6M c #D0BF67FF",
  "2' c #D0D1CEFE",
  "gp c #D0D1CFFF",
  "tV c #D12020FF",
  "4Y c #D17D23FF",
  "2P c #D1D2D0FE",
  "4| c #D22422FF",
  "35 c #D2D2D1FE",
  "54 c #D38C23FF",
  "E% c #D42424FF",
  "4d c #D42525FF",
  "4k c #D42625FF",
  "6y c #D42825FF",
  "#0 c #D5D5D4FF",
  "5m c #D62725FF",
  "2H c #D6BB32F5",
  ",M c #D7D7D7FF",
  "4! c #D7D8D5FF",
  "3j c #D8D9D7FF",
  "4q c #D9BB1EFB",
  "5B c #D9BC1EFE",
  "3R c #D9BC1EFF",
  "6: c #D9BE26FF",
  "2{ c #D9BF3AF7",
  ",b c #D9D9D9FF",
  "tg c #DA2828FF",
  "4I c #DA2B2AFF",
  "6P c #DABC1FFF",
  "6d c #DABD23FF",
  "6k c #DADAD9FF",
  ",m c #DADADAFF",
  "6L c #DBBD20FF",
  "6K c #DBBD21FF",
  "6H c #DBBD22FF",
  "6J c #DBBE21FF",
  ",v c #DBDBDBFF",
  "6h c #DCBE22FF",
  "6g c #DCBF23FF",
  "lw c #DCDCDBFF",
  ",^ c #DCDCDCFF",
  "66 c #DD2A2AFE",
  "4L c #DD2C2CFF",
  "4< c #DD3533FF",
  "6f c #DDC023FF",
  "=b c #DDDDDDFF",
  "6< c #DEC125FF",
  "6> c #DEC126FF",
  "6, c #DEC225FF",
  "38 c #DEC542F7",
  "&v c #DEDEDDFF",
  "=[ c #DEDEDEFF",
  "]Y c #DEDFDEFF",
  "5d c #DF2F2FFE",
  "5( c #DFC126FF",
  "6T c #DFC648FF",
  "={ c #DFDFDFFF",
  "5) c #E0C327FF",
  "3A c #E0C848F9",
  "6j c #E0E0DFFF",
  "&_ c #E0E0E0FF",
  "5D c #E1C428FF",
  "6D c #E1E1E0FF",
  "+Z c #E1E1E1FF",
  "eU c #E1E2E1FF",
  "5L c #E22E2EFF",
  "4P c #E22F2FFF",
  "5F c #E2C62AFF",
  "4$ c #E2CA4CFB",
  "+A c #E2E2E2FF",
  "5' c #E32E2EFF",
  "5g c #E3C62BFF",
  "6[ c #E3CD5EFF",
  "&3 c #E3E3E2FF",
  "+S c #E3E3E3FF",
  "5| c #E42F2FFF",
  "5h c #E4C82DFF",
  "58 c #E4C92DFF",
  "6] c #E4CE60FF",
  "6' c #E4CF61FF",
  "%- c #E4E4E2FF",
  "rt c #E4E4E3FF",
  "65 c #E52F2FFF",
  "56 c #E53131FF",
  "6I c #E5D064FF",
  "64 c #E62F2FFF",
  "5# c #E6CB30FF",
  "6` c #E6D166FF",
  "6_ c #E6D267FF",
  "6) c #E6D269FF",
  "4n c #E7CC31FF",
  "5$ c #E7CD32FF",
  "6( c #E7D36BFF",
  "6/ c #E7D46DFF",
  "6i c #E83333FF",
  "4E c #E8CE33FF",
  "3] c #E8D034FF",
  "6^ c #E8D46EFF",
  "61 c #E8D56EFF",
  "6~ c #E8D671FF",
  "6u c #E93434FF",
  "4v c #E9C65DFF",
  "4W c #E9D035FF",
  "6! c #E9D672FF",
  "6Q c #E9D774FF",
  "4M c #EAD035FF",
  "6E c #EAD772FF",
  "5_ c #EAD873FF",
  "6W c #EAD875FF",
  "6R c #EAD879FF",
  "5Z c #EB3636FF",
  "5p c #EBCF6FFF",
  "4N c #EBD238FF",
  "4r c #ECD238FF",
  "5~ c #ED3636FF",
  "4t c #EDD53AFF",
  "4- c #EED43AFF",
  "4b c #EED63CFF",
  "53 c #EED95DFF",
  "5j c #EEDD7DFF",
  "52 c #EEDE7AFF",
  "6p c #EF3838FF",
  "4; c #EFD73DFF",
  "2) c #EFDE78FE",
  "59 c #EFDF81FF",
  "3[ c #F0D73CFF",
  "40 c #F0D83EFF",
  "4* c #F0D93EFF",
  "3E c #F1D93FFF",
  "3{ c #F1DA40FF",
  "4& c #F1DA42FF",
  "49 c #F1DC4FFF",
  "3_ c #F1E27FFF",
  "6- c #F23B3BFF",
  "3, c #F2E17EFF",
  "3c c #F2E280FF",
  "4Q c #F2E48BFF",
  "3' c #F3DC42FF",
  "3W c #F3DC43FF",
  "3F c #F3DD44FF",
  "3T c #F4DE44FF",
  "3G c #F4DF44FF",
  "4B c #F4E690FF",
  "3H c #F5DF45FF",
  "3D c #F6E24BFF",
  "3Y c #F6E35AFF",
  "3` c #F6E676FF",
  "3m c #F7E148FF",
  "3n c #F7E249FF",
  "48 c #F7EA98FF",
  "4: c #F7EA99FF",
  "3b c #F8E349FF",
  "4% c #F8EA91FF",
  "3} c #F8EC9DFF",
  "3g c #F9E44BFF",
  "3f c #F9E54BFF",
  "3U c #F9EDA0FF",
  "3v c #FAEC83FF",
  "3J c #FAEFA6FF",
  "2T c #FAF2B2FF",
  "3q c #FBE64DFF",
  "30 c #FBE853FF",
  "3d c #FBE965FF",
  "3S c #FBEF9DFF",
  "3s c #FBF1A6FF",
  "3% c #FBF1A9FF",
  "31 c #FCE84FFF",
  "3& c #FDEC6EFF",
  "3< c #FDF08EFF",
  "3w c #FDF4B2FF",
  "39 c #FEF4A9FF",
  "2} c #FEF5B0FF",
  "32 c #FEF5B5FF",
  "2| c #FEF6BBFF",
  "2_ c #FEF6BDFF",
  "v4 c #FFFF0001",
  "3N c #FFFFFF01",
  "   c none",
  
  // Image data
  "                                                          2x    ",
  "          c!eB2c                  2veBUv                2b04    ",
  "          2n2mrNe_                2M2N2BrZ            052V04    ",
  "        2C2Z%-2A2S              r5rMrt2D2F            2G2H04    ",
  "        2J2K+ZeUr%rE          cW2L2P={lw2I          2U2Y2T04    ",
  "        2R2E+S+Z2W2Q          2!2~&_=[2^2/        b72(2)2_04    ",
  "        @>2`2'&_+A2]Uv      rirp]Y=b6jr<r1        2[2{2}2|04    ",
  "          3.rM&3=[#03X<4    3o3O=[=b3+3@        3#3$3%3&0404    ",
  "            3*3==[={3-3;  WIrV&_,^6k3:rj      b$3>3,3<313204    ",
  "            QJr%6j,^={33<C3435,v6j36ru        373839303q3w04    ",
  "              r:3e&v,v3r3t3y=b,m3u3i3N      3p3a3s3d3f3g0404    ",
  "              <G3h3j,m={fO3k,b6D3lYE      3z3x3c3v3b3n3m3%04    ",
  "                rD3M={,bgp3B,b3V3C        3Z3A3S3D3F3G3H3J04    ",
  "                  3K3L,M4!:uwSuJr/      3P3I3U3Y3T3R3E3W0404    ",
  "                  3Q3!6j3~lw3^3/      3(3)3_3`3'3]043[3{3}04    ",
  "                  3|4.4X4o4O4+4@    v44#4$4%4&4*4=044-4;4:04    ",
  "              yk4>4,4<414+42tg43444546474849404q4w4e4r4t0404    ",
  "        4y4u4i4p4a4s4d4f4g4h4j4k4l4z4x4c4v4b4n4mn04e4M4N4B04    ",
  "      4V4C4Z4A4S4D4A4F4G  4H4JtV4K4L4P4I4U4Y4T4R  4e4E4W4Q04    ",
  "    4~4^4/4(4)4_4`4'4]4[  4{4}4|5.5X5o5O4P5+5@05  4e5#5$0404    ",
  "  5%5&5*5=5-Rc  5;5:Em5>    5,5<51525354555657R:  4e585#5904    ",
  "  505q5w5e      5r5t5yyZ    5u565i5p4E5$5a5s5d5f  4e5g5h5j04    ",
  "  5k5*5l5z    5x5cE%5v5b&T&T5n5m5M5N5#5B5V5C5Z5A  5S5D5F0404    ",
  "  5G4j5H&0*75J5K5L5P5I5U&)eo5Y5T5L5R5E5W5Q5!5~5^5/045(5)5_04    ",
  "  5`5'5]5[5{5}5|6.6X6o:s6O6+6@6#6$5|6%6&6*6=6-6;6:6>6,6<6104    ",
  "  6263645|6566676869*^T2606q6w6e6r6t6y6u6i6p6a6s6d6f6g6h0404    ",
  "    6l6z6x6c6v6b@m[~@n6n6m6M6N6B6V6C6Z6A6S6F6G6H6J6K6L6P6I04    ",
  "                    6U6Y6T6R6E6W6Q6!6~6^6/6(6)6_6`6I6'6]6[04    ",
  "                    6{04040404040404040404040404040404040404&0  ",
  "                    %.@B&Z[~&)*.+J9):s&W*8*8=(&Rrn:W&A@5@o+>&0+j",
  "                            +j&T&0&^@C:E:E:E@C&^&0&T+j          ",
  "                                                                "
};
