/* XPM */
const char *xpm_tango_categories_applications_other[] = {
  // Header (width height colors chars-per-pixel)
  "32 32 329 2",
  
  // Colors (code mode value)
  "+j c #00000001",
  "&j c #00000002",
  "&T c #00000003",
  "%. c #00000004",
  "&0 c #00000005",
  "&^ c #00000006",
  "@C c #00000007",
  ":E c #00000008",
  "*7 c #00000009",
  "@B c #0000000A",
  "+> c #0000000B",
  ":k c #0000000C",
  "&; c #0000000D",
  "%H c #0000000E",
  ":l c #0000000F",
  "@: c #00000010",
  "&Z c #00000011",
  "+r c #00000012",
  "@m c #00000013",
  "@o c #00000014",
  "*' c #00000015",
  "+k c #00000016",
  "[~ c #00000017",
  "=N c #00000018",
  "@n c #00000019",
  "@5 c #0000001A",
  "5U c #0000001B",
  "&) c #0000001C",
  "*Q c #0000001D",
  "9b c #0000001E",
  "&V c #0000001F",
  "&A c #00000020",
  "+g c #00000021",
  "*. c #00000022",
  ":Q c #00000024",
  ":W c #00000025",
  "+J c #00000027",
  "er c #00000028",
  "tS c #00000029",
  "rn c #0000002A",
  "*F c #0000002B",
  "9) c #0000002C",
  "rF c #0000002D",
  "*^ c #0000002E",
  "&R c #0000002F",
  ":d c #00000030",
  ":s c #00000031",
  "=( c #00000033",
  "*8 c #00000036",
  "tD c #00000038",
  ",W c #00000039",
  "9c c #0000003A",
  ":h c #0000003B",
  "B% c #0000003D",
  "*6 c #00000040",
  "[G c #00000044",
  "!$ c #00000047",
  "v& c #8C450081",
  "v$ c #964B0077",
  "v% c #994B0085",
  "vO c #A150007D",
  "vo c #A452006D",
  "c} c #AF560073",
  "c{ c #B45A0063",
  "c) c #BE5E006A",
  "c( c #C9640059",
  "cW c #D2680060",
  "zw c #D98911FF",
  "zi c #DA880EFF",
  "zu c #DA8911FF",
  "zg c #DC8A10FF",
  "zf c #DC8B13FF",
  "zm c #DD8D15FF",
  "zn c #DE8C13FF",
  "zb c #DE8D13FF",
  "zF c #DF8E15FF",
  "zG c #DF8F17FF",
  "zD c #E08F15FF",
  "zW c #E09018FF",
  "zE c #E19017FF",
  "zR c #E19118FF",
  "z( c #E19119FF",
  "z| c #E1921AFF",
  "z} c #E29119FF",
  "z{ c #E29219FF",
  "x1 c #E2921AFF",
  "xu c #E2921BFF",
  "x: c #E2931BFF",
  "xx c #E2931DFF",
  "zv c #E29C32FF",
  "z[ c #E3921AFF",
  "z] c #E3931AFF",
  "xc c #E3931BFF",
  "x0 c #E3931CFF",
  "xh c #E3941CFF",
  "xS c #E3951FFF",
  "zT c #E39A2BFF",
  "x; c #E4931BFF",
  "x- c #E4941CFF",
  "cE c #E572004E",
  "x= c #E5941CFF",
  "x* c #E5951DFF",
  "xJ c #E5951EFF",
  "zq c #E5AE5CFF",
  "x9 c #E6961EFF",
  "x8 c #E6961FFF",
  "xR c #E69720FF",
  "xA c #E69721FF",
  "zS c #E6A542FF",
  "zy c #E6B05EFF",
  "x7 c #E7971FFF",
  "x6 c #E79720FF",
  "x^ c #E79822FF",
  "xg c #E89821FF",
  "x/ c #E89922FF",
  "z6 c #E89C3DFF",
  "z) c #E8AB4FFF",
  "zH c #E8B05DFF",
  "zM c #E8B15DFF",
  "zh c #E8B160FF",
  "xf c #E99922FF",
  "xV c #E99A23FF",
  "z8 c #E99A3BFF",
  "xC c #E99B27FF",
  "ze c #E99B3CFF",
  "z0 c #E99D3EFF",
  "x5 c #E9A033FF",
  "z' c #E9A94AFF",
  "xj c #E9AB50FF",
  "xH c #E9AC4FFF",
  "xy c #E9AC52FF",
  "xq c #E9AD53FF",
  "x< c #E9AE55FF",
  "x@ c #E9AE57FF",
  "zP c #E9AF57FF",
  "x. c #E9AF58FF",
  "z/ c #E9B059FF",
  "zQ c #E9B05AFF",
  "zL c #E9B05BFF",
  "cP c #EA720055",
  "xB c #EA9A24FF",
  "xN c #EA9B24FF",
  "zp c #EA9D3CFF",
  "xK c #EAA235FF",
  "xZ c #EAA640FF",
  "x& c #EAAA4BFF",
  "x# c #EAAD52FF",
  "z7 c #EABD7CFF",
  "z2 c #EB8717FF",
  "xM c #EB9B25FF",
  "xY c #EB9C25FF",
  "xt c #EB9C37FF",
  "x, c #EB9C39FF",
  "zj c #EB9D3DFF",
  "c& c #EB9E2BFF",
  "x+ c #EB9E3BFF",
  "zK c #EB9E3DFF",
  "zB c #EB9F3FFF",
  "x~ c #EBAD4FFF",
  "zY c #EBB463FF",
  "xz c #EBB666FF",
  "xk c #EC9A33FF",
  "xw c #EC9B35FF",
  "x> c #EC9B36FF",
  "xX c #EC9B38FF",
  "z! c #EC9C3AFF",
  "xP c #EC9D26FF",
  "xI c #EC9D27FF",
  "zJ c #EC9D3BFF",
  "zN c #EC9D3CFF",
  "z^ c #EC9E3CFF",
  "xT c #ECA944FF",
  "x2 c #ECB25CFF",
  "xE c #ECB461FF",
  "x! c #ED9C35FF",
  "x' c #ED9E29FF",
  "xU c #ED9F2DFF",
  "xd c #EDAD4DFF",
  "c% c #EDAE4EFF",
  "xl c #EE8A19FF",
  "x] c #EE9F29FF",
  "x[ c #EE9F2AFF",
  "c. c #EEA73CFF",
  "xm c #EEA841FF",
  "zt c #EEAD5DFF",
  "x4 c #EEB868FF",
  "xi c #EEB96BFF",
  "xD c #EEBF7AFF",
  "zx c #EEC689FF",
  "$$ c #EEC78AFF",
  "xF c #EF8817FF",
  "c$ c #EF9C35FF",
  "c4 c #EF9E36FF",
  "c; c #EFA02BFF",
  "zc c #EFC689FF",
  "zZ c #EFC78AFF",
  "zC c #EFC78BFF",
  "c: c #F0A12CFF",
  "c> c #F0A331FF",
  "c- c #F0A93FFF",
  "x{ c #F0A940FF",
  "x| c #F0AE4BFF",
  "x( c #F0B762FF",
  "zA c #F0C78AFF",
  "zI c #F0C78BFF",
  "zU c #F0C88BFF",
  "zV c #F0CC95FF",
  "x` c #F1B55BFF",
  "cX c #F1BB6AFF",
  "z_ c #F1C88CFF",
  "z` c #F1C98CFF",
  "zd c #F1D1A0FF",
  "xv c #F2C786FF",
  "x$ c #F2C98DFF",
  "x% c #F2CA8EFF",
  "v# c #F37A04FC",
  "cZ c #F3A138FF",
  "ce c #F3A83AFF",
  "cq c #F3AD45FF",
  "c0 c #F3AD46FF",
  "zl c #F3B975FF",
  "zs c #F3BC7BFF",
  "xL c #F3C47DFF",
  "cO c #F3C98AFF",
  "x3 c #F3CB8FFF",
  "xp c #F3CB90FF",
  "xe c #F4780048",
  "z3 c #F47900F9",
  "xO c #F47901F9",
  "cp c #F47902FA",
  "cz c #F47B04FB",
  "v+ c #F47B05FC",
  "cA c #F4B250FF",
  "c5 c #F4C581FF",
  "c* c #F4CB8CFF",
  "xa c #F4CC90FF",
  "xs c #F4CC91FF",
  "xb c #F4CD91FF",
  "zz c #F4D8AFFF",
  "xG c #F577004F",
  "z4 c #F579004A",
  "xr c #F5790050",
  "z5 c #F57900F8",
  "z, c #F57900FF",
  "zk c #F57A0049",
  "z< c #F57A004B",
  "z1 c #F57A00F9",
  "z9 c #F57A01F9",
  "c_ c #F57A02FA",
  "cC c #F57B03FA",
  "c3 c #F57B04FA",
  "c| c #F57C05FB",
  "cI c #F5A238FF",
  "cn c #F5AA3BFF",
  "cD c #F5AB3EFF",
  "cb c #F5AD42FF",
  "cS c #F5B14CFF",
  "c@ c #F5B469FF",
  "xW c #F5B66FFF",
  "co c #F5CD91FF",
  "xn c #F5CD92FF",
  "x) c #F5CE92FF",
  "c< c #F5CE93FF",
  "c+ c #F5D19DFF",
  "z~ c #F6780051",
  "z> c #F6780053",
  "za c #F6790052",
  "xo c #F67A01F8",
  "xQ c #F67B02F9",
  "c# c #F67B04F9",
  "zr c #F67B04FA",
  "cQ c #F6A846FF",
  "c2 c #F6B76FFF",
  "cg c #F6BB64FF",
  "ca c #F6BB75FF",
  "cw c #F6BC68FF",
  "cv c #F6BD68FF",
  "cf c #F6C273FF",
  "cr c #F6C274FF",
  "cc c #F6C782FF",
  "x} c #F6CD90FF",
  "x_ c #F6CE93FF",
  "c6 c #F6CE94FF",
  "c= c #F6CF94FF",
  "v@ c #F79E40FF",
  "ci c #F7B86FFF",
  "cl c #F7B970FF",
  "cx c #F7BC76FF",
  "c9 c #F7CA89FF",
  "c, c #F7CE92FF",
  "c7 c #F7CF94FF",
  "cy c #F7CF95FF",
  "c8 c #F7D095FF",
  "c1 c #F7D7A6FF",
  "cV c #F8B970FF",
  "ct c #F8D096FF",
  "cd c #F8D196FF",
  "]| c #F8D197FF",
  "cu c #F8D7A6FF",
  "cs c #F8D8A7FF",
  "cL c #F9BA71FF",
  "c` c #F9BE76FF",
  "cj c #F9D297FF",
  "ck c #F9D298FF",
  "cB c #F9D8A8FF",
  "c[ c #FABA71FF",
  "vX c #FABB71FF",
  "cF c #FAC578FF",
  "cm c #FAD296FF",
  "ch c #FAD398FF",
  "cN c #FAD399FF",
  "cJ c #FAD39AFF",
  "cM c #FAD49AFF",
  "cH c #FBD49AFF",
  "cG c #FBD59BFF",
  "cU c #FBD7A2FF",
  "cK c #FBD9A8FF",
  "cY c #FCD59BFF",
  "c~ c #FCD59CFF",
  "cT c #FCD69CFF",
  "c! c #FCD9A5FF",
  "cR c #FCDAA7FF",
  "c/ c #FCDAA8FF",
  "v. c #FCDBAAFF",
  "c^ c #FDD69DFF",
  "c' c #FDD69EFF",
  "c] c #FDDBA8FF",
  "w5 c #FF800002",
  "   c none",
  
  // Image data
  "                                                                ",
  "                                                                ",
  "                              z>z,z<                            ",
  "                            z>z1z2z3z4                          ",
  "                          z>z5z6z7z8z3z4                        ",
  "                        z>z9z0zqzwzqzez3z4                      ",
  "                      z>zrztzyzuzizuzyzpz3z4                    ",
  "                    zazrzszdzfzgzgzgzfzhzjz3zk                  ",
  "                  zaz1zlzz$$zxzczvzbznzmzMzNz3zk                ",
  "                zaz9zBzVzCzZzZzAzSzDzDzFzGzHzJz3zk              ",
  "              zaz9zKzLzPzIzUzYzTzRzRzRzEzEzWzQz!z3zk            ",
  "            z~z9z^z/z(z)z_z`z'z]z]z]z]z[z{z}z|x.xXxozk          ",
  "          z~xOx+x@z|z{x#x$x%x&x*x*x*x*x=x-x;z[x:zPx>xozk        ",
  "        z~xOx,x<x1z[x;x2x%x3x4x5x6x6x7x8x9x*x=x;x0xqxwxoxe      ",
  "      xrxOxtxyxuz]x-x*xixpxaxaxsxdxfxfxgxgx6x8x*x-xhxjxkxoxe    ",
  "    w5z,xlxzxxxcx=x9x6xvxsxbxnxnxmxMxNxBxVxfxCxZxAx=xSxDxFz,    ",
  "      xGxOxwxHxJx9x6xKxbxnxLxPxIxIxIxIxUxYxNxTxsxZxRxExWxQxe    ",
  "        xrz9x!x~x^x/x(x)x_x`x'x]x[x[x{x}x|c.cXcocOc+c@c#xe      ",
  "          xrz9c$c%c&c*x_c=c-c;c:c:c:c>c,c=c=x_c<c1c2c3xe        ",
  "            xrz9c4c5c6c7c8c9c0cqcwcecr]|ctc8cycucic3xe          ",
  "              xrcpcacsc8cd]|cfcgchcjckck]|cdcsclc3xe            ",
  "                z~czcxccc0cvcbcncmcMcNcNckcBcVc3xe              ",
  "                  z~cCcZcAcScDcFcGcGcHcJcKcLzrzk                ",
  "                  &TcPz9cIcUcMcYcTcTcYcRcLzrcE&0&j              ",
  "            &j@C+>%H+rcWz9cQc!c~c^c^c/cLczc(@m@::k:E%.          ",
  "          &0@B:l@o=N&)&Ac)c_c`cRc'c]c[czc{+g9b@5+k&Z:k@C&j      ",
  "        &T*7:l*'@5&A:WtS*^c}c|c`v.vXczvo&R9)+J*.*Q=N+r:k&^      ",
  "        %.@B&Z[~9b:Qrn:d*8:hvOv+v@v#v$B%tD=(rF+J+g@5@o&;@C      ",
  "          @C%H*'5U*.tS:d*8B%[Gv%z,v&!$*69c=(9):W&V=N&Z@B&T      ",
  "            &0:k+r@n&V:W*F:s*8,W:h9ctD=(*^er*.&)+k:l*7&j        ",
  "                %.*7:l@m=N&)&V+g*.+g&A*Q@5+k&Z:k&^+j            ",
  "                        +j%.&^@C:E:E@C&0&T                      "
};
