/* XPM */
const char *xpm_tango_categories_applications_development[] = {
  // Header (width height colors chars-per-pixel)
  "32 32 640 2",
  
  // Colors (code mode value)
  "+j c #00000001",
  "&j c #00000002",
  "&T c #00000003",
  "%. c #00000004",
  "&^ c #00000006",
  "@C c #00000007",
  ":E c #00000008",
  "*7 c #00000009",
  "@B c #0000000A",
  "+> c #0000000B",
  ":k c #0000000C",
  "&; c #0000000D",
  ":l c #0000000F",
  "@: c #00000010",
  "&Z c #00000011",
  "@o c #00000014",
  "+k c #00000016",
  "[~ c #00000017",
  "5U c #0000001B",
  "&) c #0000001C",
  "&V c #0000001F",
  "&A c #00000020",
  "&Y c #00000023",
  ":W c #00000025",
  "+N c #00000026",
  "w+ c #2B22001E",
  "ed c #2E230016",
  "nU c #3D310015",
  "wq c #60500020",
  "qJ c #6D52001C",
  "e< c #806A0024",
  "w[ c #806B0032",
  "q~ c #8972004E",
  "eV c #8C730033",
  "es c #9273002A",
  "w{ c #92780031",
  "ef c #9379004E",
  "wn c #9C80005A",
  "e, c #9F800048",
  "qH c #A889007B",
  "eg c #A98A0083",
  "eB c #AA8B007B",
  "05 c #AAAA0003",
  "qm c #AB8C0052",
  "w@ c #AE8D0077",
  "eh c #B39400AE",
  "q; c #B4A108FF",
  "eN c #B59500AD",
  "qz c #B5A200FF",
  "wm c #B696008F",
  "qn c #B69600A5",
  "qi c #B6A303FF",
  "qf c #BA990082",
  "e1 c #BB9900A8",
  "w0 c #BB9A00C0",
  "ej c #BC9B00D1",
  "ea c #BD9A00B9",
  "eM c #BD9D01D0",
  "0( c #BEAB0EFF",
  "ek c #BF9C00DE",
  "q> c #BF9F0010",
  "6U c #BFA60014",
  "qd c #C09D00D0",
  "wT c #C09E00D5",
  "q^ c #C09E00D6",
  "2b c #C19F0025",
  "el c #C1A107E7",
  "em c #C1A20EE1",
  "wR c #C29F00E0",
  "7@ c #C39F0062",
  "q7 c #C3A000BA",
  "w} c #C3A000EB",
  "q6 c #C3A000EF",
  "e2 c #C3A000F8",
  "ww c #C3A001F4",
  "3# c #C49F003D",
  "7, c #C4A0004E",
  "0| c #C4A000FB",
  "q. c #C4A100E7",
  "7X c #C4A101FC",
  "9X c #C4A2003C",
  "7` c #C4A2047E",
  "7x c #C4A20481",
  "w] c #C4A204F1",
  "7r c #C5A00046",
  "7' c #C5A1004F",
  "0F c #C5A100F9",
  "0D c #C5A101ED",
  "0f c #C5A101F1",
  "90 c #C5A10295",
  "bL c #C5A20016",
  "0= c #C5A201AF",
  "8g c #C5A2026E",
  "0d c #C5A202A2",
  "e> c #C5A202F1",
  "8K c #C5A20365",
  "7o c #C5A204F2",
  "6} c #C5A30285",
  "9m c #C5A3039E",
  "71 c #C5A305BA",
  "qK c #C5A305F9",
  "en c #C5A716EA",
  "7J c #C6A00279",
  "2U c #C6A10031",
  "2G c #C6A2027E",
  "7# c #C6A205D7",
  "0j c #C6A30024",
  "9M c #C6A302DC",
  "8L c #C6A303E6",
  "8< c #C6A303E8",
  "7. c #C6A303F1",
  "9. c #C6A304E4",
  "8f c #C6A305DD",
  "7O c #C6A406E0",
  "wo c #C6AA0009",
  "7t c #C7A305C3",
  "9Q c #C7A402E2",
  "7K c #C7A4059F",
  "7+ c #C7A507BA",
  "7c c #C7A508F1",
  "wf c #C7A60FFF",
  "ez c #C7A711F0",
  "6| c #C8A507CF",
  "7H c #C8A50AE6",
  "wO c #C8A60CF9",
  "ep c #C8A812F6",
  "ev c #C8A919F9",
  "ex c #C9A816F7",
  "eb c #C9A91CF1",
  "ec c #CAA917F9",
  "7$ c #CAAA17F6",
  "9! c #CBAA1AFC",
  "7< c #CC990005",
  "7e c #CCAD22F5",
  "7] c #CDAE1EF5",
  "8, c #CEAF24F6",
  "9o c #CEB021F3",
  "0* c #CFB12DFD",
  "e3 c #CFB22AF5",
  "7z c #CFB22BF6",
  "wb c #D0B52EF5",
  "q! c #D1B737F6",
  "qq c #D2BC00FF",
  "qw c #D2BC01FF",
  "qp c #D2BC02FF",
  "w> c #D2BD01FF",
  "qM c #D3BA37F4",
  "wM c #D3BB32F8",
  "qk c #D3BC02FF",
  "qx c #D3BD02FF",
  "qe c #D3BD03FF",
  "qr c #D3BD04FF",
  "qA c #D3BE04FF",
  "q3 c #D3BE05FF",
  "99 c #D4BB3FF4",
  "q+ c #D4BE06FF",
  "q2 c #D4BE07FF",
  "qC c #D4BF05FF",
  "qy c #D4BF07FF",
  "q@ c #D4BF08FF",
  "qu c #D4BF09FF",
  "q0 c #D4C008FF",
  "w, c #D4C00BFF",
  "qX c #D5AA0006",
  "q1 c #D5BF09FF",
  "w: c #D5BF0BFF",
  "q# c #D5C00AFF",
  "q< c #D5C00BFF",
  "q$ c #D5C00CFF",
  "q] c #D5C00EFF",
  "q, c #D6C00CFF",
  "0[ c #D6C10DFF",
  "q: c #D6C10EFF",
  "q% c #D6C10FFF",
  "0{ c #D6C110FF",
  "qT c #D6C112FF",
  "7_ c #D7BF4CFB",
  "w# c #D7C044F8",
  "0] c #D7C210FF",
  "q* c #D7C211FF",
  "0' c #D7C212FF",
  "q= c #D7C312FF",
  "w; c #D7C316FF",
  "7L c #D8BF46FA",
  "8h c #D8C042F5",
  "q- c #D8C312FF",
  "0` c #D8C314FF",
  "w| c #D8C345FB",
  "0_ c #D8C415FF",
  "w< c #D8C41DFF",
  "0Z c #D9C415FF",
  "0) c #D9C417FF",
  "0/ c #D9C419FF",
  "0C c #D9C518FF",
  "0I c #DAC51BFF",
  "0V c #DAC61AFF",
  "0A c #DAC722FF",
  "0H c #DAC726FF",
  "0B c #DBC71CFF",
  "0p c #DBC71DFF",
  "0N c #DBC71EFF",
  "q' c #DBC721FF",
  "0M c #DBC821FF",
  "w- c #DBC824FF",
  "q4 c #DBC82BFF",
  "w2 c #DBCC49FF",
  "8J c #DCC556F6",
  "0i c #DCC820FF",
  "q[ c #DCC823FF",
  "qc c #DCCA2AFF",
  "0P c #DCCB30FF",
  "0u c #DDC922FF",
  "0n c #DDC923FF",
  "0^ c #DDCA21FF",
  "0m c #DDCA24FF",
  "0% c #DDCA25FF",
  "q` c #DDCA27FF",
  "w& c #DDCA29FF",
  "qS c #DDCB2FFF",
  "w1 c #DDCB33FF",
  "0J c #DDCB37FF",
  "0y c #DECB27FF",
  "0$ c #DECB28FF",
  "wt c #DECB2BFF",
  "wC c #DECB2DFF",
  "qY c #DECB30FF",
  "w* c #DECC2FFF",
  "q{ c #DECD3AFF",
  "ei c #DECD6BFB",
  "0# c #DFCC2BFF",
  "wy c #DFCC30FF",
  "qG c #DFCC60FA",
  "0b c #DFCD33FF",
  "wV c #DFCD34FF",
  "7G c #DFCD69F8",
  "wQ c #DFCE34FF",
  "0L c #DFCE3EFF",
  "0K c #DFCE3FFF",
  "7> c #E0CA61F6",
  "0t c #E0CC2DFF",
  "0~ c #E0CD2CFF",
  "w% c #E0CD2DFF",
  "e4 c #E0CD64FC",
  "w= c #E0CE36FF",
  "wZ c #E0CE38FF",
  "qZ c #E0CF3CFF",
  "wE c #E0D05FFE",
  "8* c #E1CD63FF",
  "9R c #E1CE31FF",
  "0@ c #E1CF34FF",
  "w! c #E1CF3BFF",
  "wu c #E1CF3CFF",
  "qR c #E1CF40FF",
  "0r c #E1D039FF",
  "qD c #E1D03DFF",
  "wA c #E1D03EFF",
  "qO c #E1D14AFF",
  "7~ c #E2CD62FF",
  "qg c #E2CF68FC",
  "8C c #E2CF6AFF",
  "wi c #E2D141FF",
  "qW c #E2D142FF",
  "wS c #E2D144FF",
  "wr c #E2D146FF",
  "0k c #E2D14CFF",
  "qE c #E2D246FF",
  "wp c #E2D247FF",
  "e: c #E2D36FFD",
  "0h c #E2D452FF",
  "q_ c #E3CF35FF",
  "qU c #E3D036FF",
  "0! c #E3D139FF",
  "9T c #E3D13CFF",
  "9E c #E3D240FF",
  "0e c #E3D245FF",
  "ql c #E3D249FF",
  "wD c #E3D34AFF",
  "q| c #E3D34BFF",
  "wa c #E3D34CFF",
  "0v c #E3D34DFF",
  "0l c #E3D351FF",
  "9q c #E3D36CFE",
  "8) c #E4D16BFF",
  "9v c #E4D340FF",
  "0+ c #E4D343FF",
  "w~ c #E4D44DFF",
  "wB c #E4D450FF",
  "w7 c #E4D451FF",
  "ws c #E4D552FF",
  "q} c #E4D553FF",
  "0z c #E4D557FF",
  "qa c #E4D559FF",
  "0: c #E4D659FF",
  "7S c #E5D369FF",
  "0w c #E5D550FF",
  "w. c #E5D553FF",
  "w6 c #E5D556FF",
  "wg c #E5D558FF",
  "qV c #E5D64DFF",
  "wd c #E5D657FF",
  "w5 c #E5D659FF",
  "qt c #E5D65AFF",
  "0x c #E5D65BFF",
  "0a c #E5D760FF",
  "7% c #E6D371FA",
  "q) c #E6D444FF",
  "9Y c #E6D54AFF",
  "7y c #E6D577F8",
  "9c c #E6D64AFF",
  "wc c #E6D65BFF",
  "72 c #E6D67FFB",
  "0O c #E6D751FF",
  "04 c #E6D755FF",
  "0q c #E6D759FF",
  "w4 c #E6D75DFF",
  "q( c #E6D760FF",
  "0c c #E6D85EFF",
  "0> c #E6D85FFF",
  "w3 c #E6D860FF",
  "wh c #E6D861FF",
  "wI c #E6D863FF",
  "wY c #E6D879FE",
  "0- c #E6D87BFE",
  "97 c #E7D649FF",
  "0Q c #E7D64BFF",
  "0o c #E7D757FF",
  "06 c #E7D85AFF",
  "e+ c #E7D860FF",
  "wF c #E7D863FF",
  "0s c #E7D883FD",
  "00 c #E7D960FF",
  "wx c #E7D964FF",
  "0, c #E7D965FF",
  "07 c #E7DA60FF",
  "wj c #E7DA65FF",
  "wP c #E7DA66FF",
  "wz c #E7DA67FF",
  "wk c #E7DA68FF",
  "wl c #E7DA69FF",
  "9x c #E8D854FF",
  "9U c #E8D856FF",
  "7v c #E8D882FB",
  "96 c #E8D953FF",
  "qb c #E8D97EFF",
  "0X c #E8DA5DFF",
  "09 c #E8DA62FF",
  "08 c #E8DA63FF",
  "eO c #E8DA67FF",
  "wL c #E8DA6BFF",
  "e@ c #E8DA6CFF",
  "0< c #E8DB6AFF",
  "wG c #E8DB6DFF",
  "wK c #E8DB6EFF",
  "wH c #E8DC70FF",
  "wJ c #E8DC71FF",
  "8y c #E9D872FF",
  "8t c #E9D878FF",
  "9| c #E9DA68FF",
  "9J c #E9DA70FF",
  "0. c #E9DB65FF",
  "9n c #E9DB89FE",
  "03 c #E9DC69FF",
  "q& c #E9DC6AFF",
  "9/ c #E9DC6CFF",
  "9^ c #E9DC6EFF",
  "w^ c #E9DC74FF",
  "q/ c #E9DC84FF",
  "e# c #E9DD76FF",
  "w) c #E9DD77FF",
  "w/ c #E9DD78FF",
  "e5 c #E9DD8AFF",
  "9< c #EADA75FF",
  "8{ c #EADB59FF",
  "qP c #EADB61FF",
  "0W c #EADC60FF",
  "01 c #EADD70FF",
  "02 c #EADD72FF",
  "9b c #EADE6EFF",
  "9( c #EADE72FF",
  "qv c #EADE78FF",
  "w( c #EADE7AFF",
  "w_ c #EADE7CFF",
  "qI c #EBDB5CFF",
  "9P c #EBDC63FF",
  "9g c #EBDC78FF",
  "95 c #EBDD5FFF",
  "9L c #EBDD69FF",
  "8} c #EBDE69FF",
  "9} c #EBDE70FF",
  "9) c #EBDF78FF",
  "qj c #EBDF7CFF",
  "9V c #EBE078FF",
  "e$ c #EBE082FF",
  "w9 c #EBE092FF",
  "8G c #ECDD5EFF",
  "9I c #ECDE64FF",
  "9k c #ECDF6CFF",
  "9K c #ECDF70FF",
  "9{ c #ECDF76FF",
  "9[ c #ECE07AFF",
  "9_ c #ECE07BFF",
  "w8 c #ECE185FF",
  "e% c #ECE28CFF",
  "9] c #EDE17DFF",
  "9C c #EDE17FFF",
  "9' c #EDE280FF",
  "9` c #EDE281FF",
  "eo c #EDE38DFF",
  "0; c #EDE38EFF",
  "qs c #EDE398FF",
  "w' c #EDE39AFF",
  "eu c #EDE3A2FF",
  "9j c #EEE173FF",
  "0E c #EEE177FF",
  "9h c #EEE179FF",
  "9H c #EEE27DFF",
  "9e c #EEE282FF",
  "9G c #EEE381FF",
  "9Z c #EEE384FF",
  "e& c #EEE494FF",
  "9N c #EEE49EFF",
  "qF c #EEE592FF",
  "w$ c #EEE598FF",
  "9z c #EFE172FF",
  "92 c #EFE175FF",
  "9, c #EFE283FF",
  "9F c #EFE486FF",
  "9r c #EFE489FF",
  "9A c #EFE58CFF",
  "9B c #EFE592FF",
  "e* c #EFE79DFF",
  "8& c #F0E287FF",
  "91 c #F0E37CFF",
  "7k c #F0E496FF",
  "9f c #F0E587FF",
  "9D c #F0E58AFF",
  "9+ c #F0E58CFF",
  "q8 c #F0E59EFF",
  "7: c #F0E5A2FF",
  "9t c #F0E68FFF",
  "9S c #F0E690FF",
  "e6 c #F0E7A8FF",
  "we c #F0E8A8FF",
  "8Z c #F1E382FF",
  "9l c #F1E478FF",
  "8` c #F1E47CFF",
  "7D c #F1E493FF",
  "9d c #F1E68CFF",
  "0R c #F1E692FF",
  "9@ c #F1E792FF",
  "9y c #F1E895FF",
  "e= c #F1E9A8FF",
  "wU c #F1EAA9FF",
  "wN c #F1EAAAFF",
  "e. c #F1EAB0FF",
  "7^ c #F2E582FF",
  "8[ c #F2E583FF",
  "8_ c #F2E683FF",
  "93 c #F2E783FF",
  "8s c #F2E78EFF",
  "qB c #F2E78FFF",
  "9s c #F2E791FF",
  "9a c #F2E895FF",
  "9# c #F2E999FF",
  "81 c #F2E9AAFF",
  "8P c #F2E9ADFF",
  "8d c #F2E9B0FF",
  "wW c #F2EAACFF",
  "q5 c #F2EBB2FF",
  "0S c #F2EBB5FF",
  "0g c #F2ECB7FF",
  "8i c #F3E780FF",
  "8A c #F3E782FF",
  "8' c #F3E888FF",
  "8( c #F3E88EFF",
  "9> c #F3E890FF",
  "9: c #F3E996FF",
  "8U c #F3E999FF",
  "9u c #F3E99CFF",
  "9p c #F3EA9BFF",
  "9i c #F3EA9CFF",
  "7& c #F3EAACFF",
  "9$ c #F3EB9FFF",
  "qN c #F3EBACFF",
  "98 c #F3ECACFF",
  "eX c #F3ECB4FF",
  "9W c #F3ECB7FF",
  "qQ c #F3EDB3FF",
  "qL c #F3EDB8FF",
  "8- c #F4E780FF",
  "8S c #F4E886FF",
  "8u c #F4E986FF",
  "94 c #F4EA92FF",
  "8k c #F4EA9EFF",
  "9; c #F4EB9BFF",
  "8Y c #F4EBA1FF",
  "9- c #F4EC9FFF",
  "9% c #F4ECA4FF",
  "8| c #F4ECB7FF",
  "0T c #F4EDAEFF",
  "9w c #F4EDB0FF",
  "0& c #F4EDB7FF",
  "e7 c #F4EDBAFF",
  "w` c #F4EEB9FF",
  "e- c #F4EEBCFF",
  "ey c #F4EEC3FF",
  "7/ c #F5EB8DFF",
  "8/ c #F5EB97FF",
  "8^ c #F5EC9DFF",
  "9= c #F5ECA4FF",
  "0U c #F5ECA8FF",
  "8l c #F5EDA5FF",
  "8T c #F5EDA8FF",
  "8I c #F5EDACFF",
  "q9 c #F5EDB1FF",
  "7l c #F5EEC1FF",
  "8H c #F5EFB1FF",
  "0Y c #F5EFB9FF",
  "wv c #F5F0C1FF",
  "0} c #F5F0C2FF",
  "7! c #F6E993FF",
  "8= c #F6EA89FF",
  "8V c #F6EC98FF",
  "8~ c #F6EDA3FF",
  "83 c #F6EDA6FF",
  "9& c #F6EDAAFF",
  "8! c #F6EEA8FF",
  "8z c #F6EEADFF",
  "8F c #F6EFAEFF",
  "qo c #F6F0C2FF",
  "wX c #F6F1C5FF",
  "e8 c #F6F1C7FF",
  "et c #F6F2CDFF",
  "7j c #F7EC90FF",
  "8; c #F7ED9BFF",
  "8B c #F7ED9EFF",
  "8N c #F7EEA3FF",
  "9* c #F7EEA8FF",
  "8Q c #F7EFADFF",
  "84 c #F7EFAEFF",
  "8R c #F7F0B3FF",
  "8x c #F7F0B4FF",
  "qh c #F7F0BAFF",
  "7; c #F7F1C1FF",
  "e9 c #F7F2CEFF",
  "er c #F7F2CFFF",
  "9~ c #F7F3CEFF",
  "e; c #F7F3CFFF",
  "7A c #F8ED96FF",
  "78 c #F8ED9AFF",
  "7h c #F8EE97FF",
  "77 c #F8EE9AFF",
  "8r c #F8EE9CFF",
  "79 c #F8EF9FFF",
  "8M c #F8EFA9FF",
  "7} c #F8EFABFF",
  "8] c #F8F0ADFF",
  "8m c #F8F0AEFF",
  "7| c #F8F1B1FF",
  "8W c #F8F1B3FF",
  "85 c #F8F1B4FF",
  "7{ c #F8F1B9FF",
  "82 c #F8F2BEFF",
  "0G c #F8F2CBFF",
  "8> c #F8F3CAFF",
  "e0 c #F8F3D1FF",
  "ee c #F8F3D2FF",
  "eq c #F8F4D3FF",
  "ew c #F8F4D4FF",
  "7g c #F9EF9CFF",
  "8% c #F9EFA1FF",
  "8e c #F9EFA3FF",
  "7p c #F9F0A5FF",
  "76 c #F9F0A7FF",
  "70 c #F9F0AAFF",
  "8w c #F9F1A9FF",
  "7i c #F9F1AAFF",
  "8q c #F9F1ADFF",
  "75 c #F9F1B1FF",
  "8n c #F9F1B2FF",
  "8E c #F9F1B8FF",
  "89 c #F9F2B5FF",
  "8b c #F9F2B9FF",
  "8c c #F9F2BDFF",
  "8a c #F9F3BAFF",
  "7* c #F9F3C7FF",
  "7P c #F9F3CDFF",
  "9O c #F9F4CEFF",
  "7w c #F9F4D2FF",
  "7F c #F9F5CEFF",
  "8j c #F9F5D0FF",
  "7Z c #FAF09EFF",
  "7f c #FAF0A1FF",
  "7a c #FAF0A6FF",
  "7d c #FAF1A4FF",
  "7s c #FAF1A6FF",
  "8$ c #FAF1A7FF",
  "80 c #FAF1B1FF",
  "7m c #FAF2AEFF",
  "7n c #FAF2B0FF",
  "8p c #FAF2B4FF",
  "8: c #FAF2B6FF",
  "8o c #FAF3B7FF",
  "88 c #FAF3B8FF",
  "8D c #FAF3BBFF",
  "7U c #FAF3BCFF",
  "7q c #FAF3BDFF",
  "7( c #FAF4C2FF",
  "86 c #FAF5C4FF",
  "7[ c #FAF5D2FF",
  "7) c #FAF5D5FF",
  "7- c #FAF6D2FF",
  "7C c #FBF2A5FF",
  "7Q c #FBF2A8FF",
  "8# c #FBF2ACFF",
  "7M c #FBF3AFFF",
  "8@ c #FBF3B0FF",
  "8+ c #FBF3B3FF",
  "7R c #FBF3B4FF",
  "8O c #FBF3B5FF",
  "7T c #FBF4C0FF",
  "74 c #FBF4C6FF",
  "8v c #FBF5C6FF",
  "87 c #FBF6CBFF",
  "7I c #FBF6CEFF",
  "7= c #FBF8D8FF",
  "7V c #FCF3AAFF",
  "7B c #FCF3AEFF",
  "7N c #FCF3AFFF",
  "7E c #FCF4B4FF",
  "8X c #FCF6C8FF",
  "73 c #FCF9DEFF",
  "7W c #FDF5B3FF",
  "8. c #FDF8D4FF",
  "7b c #FDFAE4FF",
  "7Y c #FDFBE4FF",
  "7u c #FDFCEBFF",
  "#J c #FEFDEFFF",
  "v4 c #FFFF0001",
  "   c none",
  
  // Image data
  "                      0j6}6|7.7X7o7O7+7@6U                      ",
  "                  q>7#7$7%7&7*7=7-7;7:7>wf7,                    ",
  "                7<717273747576777879707q7w7e7r                  ",
  "              bL7t7y7u7i7p7a7s7d7f7g7h7j7k7l7z7x7<              ",
  "          wo2G7c7v7b#J7n7m7M7N7B7V7C7Z7A7S7D7F7G7H7Jv4          ",
  "          7K7L7P7I7U7Y7T7R7E7E7W7B7Q7f7!7~7^7/7(7)7_7`          ",
  "        7'7]7[7{7}7|8.8X8o8O8+8@8#8$8%8&8*8=8-8;8:8>8,3#        ",
  "      qX8<818283848586878889808q8w8e8r8t8y8u8i8p8a8s8d8f05      ",
  "      8g8h8j8k8l8z8x8c8v8b8n8m8M8N8B8V8C8Z8A8S8D8F8G8H8J8K      ",
  "    v48L8P8I8U8Y8T8F8R8E8W8Q8!8~8^8/8(8)8_8`8'8]8[8{8}8|9.v4    ",
  "    9X9o9O9+9@9#9$9%8T9&9*9=9-9;9:9>9,9<9192939495969798993#    ",
  "    909q9w9e9r9t9y9#9u9i9p8U9a9s9d9f9g9h9j9k9l9z9x9c9v9b9n9m    ",
  "    9M9N9B9V9C9Z9r9A9t9S9t9+9D9F9G9H9J9K9L9P9I9U9Y9T9R9E9W9Q    ",
  "  2U9!9~9^9/9(9)9_9C9`9e9`9'9]9[9{9}9|0.0X0o0O0+0@0#0$0%0&0*2b  ",
  "  0=0-0;0:0>0,0<9^0102030406070809000q0w0e0r0t0y0%0u0i0p0a0s0d  ",
  "  0f0g0h0k0l0z0x0c0v0b0n0m0%0%0%0%0%0m0n0u0M0i0N0B0V0C0Z0A0S0D  ",
  "  0F0G0H0J0K0L0P0I0C0U0Y0T0R0E0W0Q0!0~0^0/0(0)0_0`0'0]0[0{0}0|+j",
  "  q.qoqOq+q@q#q$0[q%q&q*q*q=q=q-q-q=0'q*0]q;q:q,q<q1q2q3q4q5q6@C",
  "  q7q8q9q0qqqwqeqrq3qtqyq@quq1q1q1quq@q@q2qiq3qeqpqqqqqeqaqsqd&;",
  "  qfqgqhqjqkqqqqqqqqqlqqqqqqqqqqqqqqqqqqqqqzqqqqqqqqqxqcqvqbqn:l",
  "  qmqMqNqBqVqCqqqqqqqZqqqqqqqqqqqqqqqqqqqqqzqqqqqqqAqSqDqFqGqH:l",
  "  qJqKqLqPqIqU0[qqqqqYqqqqqqqqqqqqqqqqqqqqqzqqqqqTqRqEqWqQq!q~:k",
  "  :kq^q/q(q)q_q`q'q]q[qqqqqqqqqqqqqqqqqqqqqzqTq{q}wBq|w.wXwOw+@C",
  "  :Ew@w#w$0yw%w&w*0bw=w-w;w:w>qqqqqxw,w<w1w2w3w4w5w6w7w8w9w0@o+j",
  "  &Twqwwwewrq`wtwyw=wuwiwpwawswdwgwhwjwkwlwlwzwxw30xwcwvwbwn*7  ",
  "    @BwmwMwNwVwC0bwZwAwSwDwBwdw4wFwkwGwHwJwJwKwLwPwIwUwYwT@:    ",
  "    +jnUwRwEwWwswQw!qRwpw~q}qtwhwkwKw^w/w(w(w)wJw_w`w'w]w[&j    ",
  "      &jw{w}w|e.eXeoqveOe+w4w4wje@e#e$e%e&e*e=e-e;e:e>e,&j      ",
  "        +je<e1e2e3e4e5e6e7e8e9e0eqeweeereteyeueiepeaes+j        ",
  "            &^edefegehejekelezexecevebenemeMeNeBeV%.            ",
  "                &^:l+k5U&V&Y:W+N+N:W&Y&A&)[~:k&T                ",
  "                    +j%.:E:k:l&Z:l&;+>&^&j                      "
};
