/* XPM */
const char *xpm_tango_categories_applications_games[] = {
  // Header (width height colors chars-per-pixel)
  "32 32 358 2",
  
  // Colors (code mode value)
  "+j c #00000001",
  "&j c #00000002",
  "%. c #00000004",
  "&0 c #00000005",
  "@C c #00000007",
  ":E c #00000008",
  "*7 c #00000009",
  "@B c #0000000A",
  "+> c #0000000B",
  ":k c #0000000C",
  "&; c #0000000D",
  "@: c #00000010",
  "&Z c #00000011",
  "+r c #00000012",
  "@m c #00000013",
  "@o c #00000014",
  "+k c #00000016",
  "[~ c #00000017",
  "=N c #00000018",
  "@n c #00000019",
  "@5 c #0000001A",
  "5U c #0000001B",
  "&) c #0000001C",
  "*Q c #0000001D",
  "&V c #0000001F",
  ":Q c #00000024",
  "tS c #00000029",
  "*^ c #0000002E",
  "T2 c #00000032",
  "*8 c #00000036",
  "tD c #00000038",
  ",W c #00000039",
  "9c c #0000003A",
  ":h c #0000003B",
  "*. c #00000045",
  "jY c #0000004B",
  "!O c #00000051",
  "%J c #000000FF",
  "r> c #010101FF",
  "r4 c #090908FF",
  "D) c #0A0A0AFF",
  "JK c #0C0C0CFF",
  "cy c #0F0F0FFF",
  "J( c #181818FF",
  "tI c #2222220F",
  "tM c #23232367",
  "r8 c #2C2C2BFF",
  "tm c #37373458",
  "zd c #3A3A3AFF",
  "tF c #41413E56",
  "JL c #494949FF",
  "tA c #4B4B463A",
  ":+ c #4E4E4EFF",
  "rz c #4F4F4EFF",
  ";D c #535353FF",
  "tN c #55575396",
  "tn c #5F615D7B",
  "tG c #6A6C6889",
  "tU c #73736614",
  "tl c #74767279",
  "O@ c #76766F27",
  "tb c #787A75A3",
  "tB c #797A77C8",
  "tP c #797B777C",
  "tu c #7A7A7758",
  "zy c #7A7C79FF",
  "5D c #7F817DFF",
  "<4 c #80808004",
  "e_ c #8080800A",
  "t@ c #8080800C",
  "tz c #80827F8B",
  "tH c #848681C9",
  "eP c #858B852C",
  "eC c #86898350",
  "rd c #868A863B",
  "t4 c #868B8639",
  "ro c #868C862A",
  "eZ c #87878346",
  "eA c #878A8560",
  "r( c #878A8571",
  "rV c #878B8342",
  "r= c #8888822D",
  "c! c #8888880F",
  "tV c #888985F4",
  "tv c #888A86D4",
  "r{ c #888C843E",
  "t> c #888C8549",
  "r% c #89898327",
  "T+ c #89898436",
  "3. c #89898438",
  "r/ c #8989845B",
  "Un c #89898545",
  "Yq c #89898654",
  "eI c #8989865F",
  "EI c #898B846E",
  "tJ c #898B86F7",
  "xs c #898B86F9",
  "rk c #898B8775",
  "e~ c #898B8777",
  "t7 c #898B877D",
  "td c #898B87FA",
  "ty c #898C86BE",
  "tf c #898C87F0",
  "rB c #8A8A856D",
  "2v c #8A8A8A18",
  "rX c #8A8C856F",
  "tx c #8A8C87F2",
  "eF c #8A8C87F9",
  "r6 c #8A8C8883",
  "tc c #8A8C88F4",
  "e| c #8A8C88F6",
  "tg c #8A8D88F6",
  "r< c #8B8B877B",
  "e` c #8B8D877D",
  "r, c #8B8D88F6",
  "T] c #8B8D88F8",
  "t* c #8B8D8993",
  "eS c #8B8E899A",
  "te c #8B8E89F5",
  "eU c #8C8E8999",
  "rO c #8C8E89F3",
  "e( c #8C8E89F8",
  "cQ c #8C8E89F9",
  "th c #8C8E8AFB",
  "tr c #8C8F89A9",
  "e! c #8C8F89C1",
  "t3 c #8C8F8ACF",
  "rL c #8D8E89E6",
  "rR c #8D8F8AAA",
  "t+ c #8D8F8ADF",
  "3h c #8D8F8AE8",
  "r& c #8D8F8AEB",
  "3: c #8D8F8AED",
  "3V c #8D8F8AFF",
  "eG c #8D8F8B88",
  "r$ c #8D8F8BDB",
  "tL c #8D8F8BF4",
  "T[ c #8E8E8012",
  "rj c #8E8F8BC0",
  "t, c #8E908BAC",
  "eH c #8E908BD6",
  "2I c #8E908BE3",
  "e' c #8E908C97",
  "e) c #8E908CCE",
  "Um c #8E908CD4",
  "tZ c #8E918BF7",
  "r. c #8E918CBE",
  "tq c #8E918CE0",
  "r2 c #8F908BD3",
  "rE c #8F908CB1",
  "ry c #8F908CB6",
  "r: c #8F908CBA",
  "r; c #8F908DCB",
  "rt c #8F918DF6",
  "eY c #8F928DD4",
  "eD c #90918CD5",
  "hb c #90928DFF",
  "pb c #919191FF",
  "5a c #91928EFF",
  ";j c #91938EF7",
  "d] c #91938FFF",
  "r+ c #92938FFF",
  "t8 c #929490FA",
  "t1 c #939390F8",
  ">2 c #939590FF",
  "eK c #939591FE",
  "eJ c #939591FF",
  "t# c #949692FA",
  "ts c #959791F8",
  "t$ c #969693FF",
  "2N c #969894FD",
  "rH c #979894FA",
  "rZ c #99999905",
  "r7 c #999B96FA",
  "r[ c #9A9C98F8",
  ":g c #9C9E9AFF",
  "r# c #9C9E9BF4",
  "eQ c #9D9E9AFF",
  "tt c #9FA09CFF",
  "r| c #A1A29FFF",
  "t- c #A1A39FFF",
  "ti c #A2A39FF4",
  "e[ c #A5A6A2FF",
  "eT c #A7A8A5F4",
  "e} c #A7A9A5F3",
  "rG c #A8A9A5F6",
  "eL c #A8AAA7F4",
  "56 c #A9ABA7FF",
  "cW c #AAAAAA03",
  "tw c #AAACA9FF",
  "]i c #ABACA9FF",
  "t0 c #ACADAAF4",
  "(- c #ADAEACFF",
  "e/ c #AEB0ACFD",
  ",B c #AEB0ACFF",
  "3T c #AFB0ADFF",
  ")b c #B0B2AFFF",
  "q& c #B2B4B0FF",
  "<{ c #B3B4B1FF",
  "tj c #B3B4B2F9",
  "t5 c #B5B5B2F4",
  "r9 c #B5B7B4F5",
  "e] c #B6B7B4F7",
  "t= c #B6B7B4FF",
  "2e c #B7B8B5FF",
  "r} c #B8B9B6F4",
  "t< c #B8B9B6FF",
  "ta c #B9BAB7F7",
  "t: c #B9BAB8F5",
  "rC c #BABBB9F5",
  "tC c #BABBB9FA",
  "eW c #BABBB9FF",
  "wh c #BBBCB9FF",
  "r3 c #BCBDBBF5",
  "Bg c #BEBEBCFF",
  "<1 c #BEBEBEFF",
  "32 c #BEBFBDFF",
  "eR c #BEC0BDF9",
  "h+ c #BFC0BEFF",
  "t9 c #C4C4C2FF",
  "r^ c #C6C7C5F7",
  "<u c #C6C7C5FF",
  "tk c #C7C8C6FA",
  "rA c #C7C8C6FF",
  ":7 c #C8C8C8FF",
  "e^ c #C9CAC7F8",
  "r@ c #CBCCCAF9",
  "oG c #CC0000FF",
  "tX c #CC0505FF",
  "ot c #CD0404FF",
  "r! c #CD0808FF",
  "rS c #CED0CEFF",
  "t; c #CFD0CEFF",
  "4D c #D02222FF",
  "gp c #D0D1CFFF",
  "e{ c #D1D2D0FC",
  "g> c #D2D2D1FF",
  "rN c #D2D3D2FA",
  "to c #D34848FF",
  "6& c #D3D3D2FF",
  "r* c #D4D4D3FF",
  "rU c #D52C2CFF",
  "yO c #D52D2DFF",
  "rI c #D52E2EFF",
  "r' c #D55858FF",
  "rQ c #D55D5DFF",
  "t2 c #D5D5D4FA",
  "l! c #D5D6D4FF",
  "rY c #D63131FF",
  "8Q c #D63232FF",
  "&* c #D6D6D4FF",
  "t6 c #D6D6D5FC",
  "8& c #D73838FF",
  "66 c #D83B3BFF",
  "oy c #D83C3CFF",
  "65 c #D83D3DFF",
  "tp c #D8D8D6FE",
  "63 c #D93F3FFF",
  "ou c #D94040FF",
  "6y c #D94141FF",
  "6t c #D94242FF",
  "6g c #D94343FF",
  "r_ c #D9DAD9FF",
  "6h c #DA4444FF",
  "6C c #DA4646FF",
  "6Z c #DA4747FF",
  "tT c #DA4848FF",
  "r~ c #DA9191FF",
  "W2 c #DADBD9FF",
  "rn c #DB4949FF",
  "rb c #DB4A4AFF",
  "tR c #DB4B4BFF",
  "tE c #DB4D4DFF",
  "rm c #DB5555FF",
  "rv c #DC4E4EFF",
  "rc c #DC4F4FFF",
  "rp c #DC5252FF",
  ",^ c #DCDCDCFF",
  "r) c #DCDDDCFC",
  "ri c #DD5454FF",
  "tK c #DD5555FF",
  "rD c #DD5E5EFF",
  "rl c #DDDDDCFC",
  "r1 c #DDDDDCFD",
  "6s c #DDDDDCFF",
  "rW c #DDDEDDFF",
  "ra c #DE5E5EFF",
  "rK c #DE7D7DFF",
  "r5 c #DEDFDDFD",
  "r- c #DEDFDEFE",
  "rJ c #DF7A7AFF",
  "t. c #DFB5B5FF",
  "tO c #DFBDBDFF",
  "={ c #DFDFDFFF",
  "rx c #E07474FF",
  "r] c #E0CACAFF",
  "t% c #E0CBCBFF",
  "&_ c #E0E0E0FF",
  "t& c #E0E1DFFE",
  "rF c #E18F8FFF",
  "+Z c #E1E1E1FF",
  "eE c #E1E2E1FF",
  "r` c #E2D8D8FF",
  "+A c #E2E2E2FF",
  "rf c #E39191FF",
  "+S c #E3E3E3FF",
  "jp c #E3E4E3FF",
  "rw c #E48E8EFF",
  "re c #E49797FF",
  "rg c #E49A9AFF",
  "&I c #E4E4E4FF",
  "rT c #E5BEBEFF",
  ";3 c #E5E5E5FF",
  "YF c #E5E6E5FF",
  "rs c #E6B6B6FF",
  "rP c #E6C2C2FF",
  ";b c #E6E6E6FF",
  ";G c #E7E7E7FF",
  "ru c #E8BCBCFF",
  "rM c #E8D8D8FF",
  ":# c #E8E8E8FF",
  "r0 c #E8E9E8FF",
  "rq c #E9C4C4FF",
  "lC c #E9E9E8FF",
  ":2 c #E9E9E9FF",
  ",$ c #EAEAEAFF",
  "rr c #EBDADAFF",
  "rh c #EBDCDCFF",
  "6d c #EBEBEAFF",
  ":, c #EBEBEBFF",
  ":> c #ECECECFF",
  "4M c #ECEDECFF",
  ";9 c #EDEDEDFF",
  "5] c #EEEEEDFF",
  ":< c #EEEEEEFF",
  "lt c #EFEFEEFF",
  ";A c #EFEFEFFF",
  ";T c #F0F0F0FF",
  ";` c #F1F1F1FF",
  "c} c #F2F2F1FF",
  ";' c #F2F2F2FF",
  "55 c #F3F3F2FF",
  ":O c #F3F3F3FF",
  "@< c #F3F4F3FF",
  ":3 c #F4F4F4FF",
  "c` c #F5F5F4FF",
  "=a c #F5F5F5FF",
  "+W c #F6F6F6FF",
  ":9 c #F7F7F7FF",
  "}/ c #F7F8F7FF",
  ";R c #F8F8F8FF",
  ":v c #F9F9F9FF",
  ":5 c #FAFAFAFF",
  ";Q c #FBFBFBFF",
  ";7 c #FCFCFCFF",
  "=q c #FDFDFDFF",
  "=w c #FEFEFEFF",
  "   c none",
  
  // Image data
  "                        T+eCeZeAeSeDeFT]eG                      ",
  "                <4r=eAeH2N<{eJeK,Bg>c`:veLYq                    ",
  "      cWePeIeUeYcQeTeR:g;7;7=w;ReEeW5aeQt=e!e_                  ",
  "rZe~UmcQeTe^YF:9=w;7<u&*:5;':O+W:v;7=w=aW2e/e(e)e`3.<4          ",
  "e'e]=a=w;7:v+W;':<;9e[@<+W;';';';';':O+W:v=q=qc}e{e}e|r.rXro    ",
  "rO;Q+W;';T;T;A;A:<,$r+=w:O;';';';';`;`;`;`;`;'+W:v=q=q4Mr@r#r$r%",
  "r&=q:O;`;`,^:+<1:<r*2e;Q;';`;`;`;`;`;`;`;`;T;T;T;T;T;'=a:v=qr-r;",
  "r::O+W;`;`JL%Jr>;D(-={;R;`;`;`;`;T;T;T;T;T;T;T;T;A;A;A;A:<;T;7r,",
  "r<r1:v;'pb%J%J%J%J5D;R:3;T;T;T;T;T;T;T;A;A;A;A;A;A:<:<:<:<;`}/r2",
  "Unr3;Q;Gcy%J%J%Jr4>2=q;T;T;T;T;A;A;A;A;A;A;A:<:<:<;9;9;9;9=ar5r6",
  "T[r7=q:7%J%J%J%Jr832:5;A;A;A;A;A;A;A:<:<:<;9;9;9;9;9;9:>:>:vr9rd",
  "  3h=q;Tzd%JJKD)zyr0+W;A;A:<:<rqrwrerr;9;9;9;9:>:>:>:>:,:>=qrtrZ",
  "  ry55+W;A:7&_J(eJ;Q;`:<:<:<rutKrirprarsrfrgrh:>:>:,:,:,;Tc}rj  ",
  "  rkrl:v;';`;Trzt-=q:<:<;9;9rxrcrvtEtRrbrn6ZrmrM,$,$,$,$=arNrB  ",
  "  rVrC;7;';`;TrArS;R:>:>:>:>rDrbtT6Z6C6h6g6tourF,$,$:2:2;QrGro  ",
  "  c!rH=w;';`;`]ilt:<,$:>:>:>rJ6h6g6you6365oy66rK:2:2:2,$;73:    ",
  "    rL;7:O;`;Td]=q;b&I;b:#:2rP65658&8QrIrUyOrYrT:#:#;G;T,$rR    ",
  "    rE;'+W;`rW)b:v&I&I&I+S+S+SrQoGoGoGoGoGr!r~+S;3;G;G=ar^r/    ",
  "    r(r);R;Th+r_;'&I+S+S+S+S+Sr`4DoGoGotr'r]+A+A+A+A;3;7r[2v    ",
  "    r{r};R;3r|=a,$+S+S+S+S+S+S+St.tXtotO+A+A+A+A+A+A;G;Rt+      ",
  "    t@t#=q+At$=q&I+S+S+S+S+S+S+A+At%+A+A+A+A+A+A+Z+Z:<t&t*      ",
  "      2I;Qt;Bg:9+S+S+S+S+A+A+A+A+A+A+A+A+A+A+Z+Z+Z+Z+Wt:t>      ",
  "      t,;9t<jp;A+S+S+A+A+A+A+A+A+A+A+A+Z+Z+Z+Z+Z+Z+A=qt1e_      ",
  "      EIt2eQ:v;G+A+A+A+A+A+A+A+A+A+Z+Z+Z+Z+Z+Z+Z+Z:2;'t3        ",
  "      t4t5hb:5,$+A+A+A+A+A+A+Z+Z+Z+Z+Z+Z+Z+Z+Z+Z&_;Tt6t7        ",
  "      e_t83Tt9:5;7:3;9;3+Z+Z+Z+Z+Z+Z+Z+Z+Z&_&_&_&_;Rt0T+        ",
  "        tq;Ttw3V56gp5];7:5;':,+S+Z+Z+Z&_&_&_&_&_+A;7tecW        ",
  "        trlC;';b6&whtt3Vq&l!;T=q:v;`:2+Z&_&_&_&_:,6dty@B%.      ",
  "    +j@Ctuti=a:v;9tptatstdtftgthtjr_55=q:9;T;G&_:3tktl+k@:*7&j  ",
  "    &j*7@:tztxtctvtbtntm*.jY!OtMtNtBtV;jtC6s=a=q:<tZtA=N+r@B+j  ",
  "        &0:k@m@n&V:QtS*^T2*8tD9c:h9c,WtFtGtHtJtLxstP@o+>%.      ",
  "              &j%.:E&;&Z@o[~@5&)*Q5U@n[~@m@:tIO@tU+j            "
};
