/* XPM */
const char *xpm_tango_categories_applications_internet[] = {
  // Header (width height colors chars-per-pixel)
  "32 32 648 2",
  
  // Colors (code mode value)
  "+j c #00000001",
  "&j c #00000002",
  "&T c #00000003",
  "%. c #00000004",
  "&^ c #00000006",
  "@C c #00000007",
  ":E c #00000008",
  "*7 c #00000009",
  "@B c #0000000A",
  "+> c #0000000B",
  ":k c #0000000C",
  "&; c #0000000D",
  "%H c #0000000E",
  ":l c #0000000F",
  "@: c #00000010",
  "+r c #00000012",
  "@o c #00000014",
  "@n c #00000019",
  "@5 c #0000001A",
  "5U c #0000001B",
  "&) c #0000001C",
  "*. c #00000022",
  "&Y c #00000023",
  ":Q c #00000024",
  "+N c #00000026",
  "9) c #0000002C",
  "*^ c #0000002E",
  "&R c #0000002F",
  ":d c #00000030",
  "*l c #00000035",
  "*8 c #00000036",
  ":h c #0000003B",
  "*/ c #0000003C",
  "B% c #0000003D",
  "3& c #0000003E",
  "9] c #0000003F",
  "*o c #00000041",
  "*) c #00000048",
  "*_ c #00000049",
  "km c #00000053",
  "kB c #0000005C",
  "kS c #0000005D",
  "&O c #00000063",
  "Du c #00000068",
  ".F c #00008002",
  "fS c #0202076B",
  "f8 c #03030350",
  "fG c #03030355",
  "fF c #0505076E",
  "fK c #07070724",
  "fD c #0B0B1578",
  "fl c #0D0D0D4F",
  "fH c #1D1D1D50",
  "dQ c #23232B41",
  "v< c #24242438",
  "sq c #285692FF",
  "sx c #295692FF",
  "f7 c #2A2A2A2B",
  "s0 c #2A5893FF",
  "aU c #2B5894FF",
  "ax c #2C5994FF",
  "s* c #2C5A94FF",
  "fJ c #2D2D2D49",
  "dF c #2D5A94FF",
  "s9 c #2D5A95FF",
  "aY c #2E5B95FF",
  "s= c #2E5D98FF",
  "f+ c #2F2F51A9",
  "&p c #2F5C96FF",
  "pz c #305C96FF",
  "dk c #305D96FF",
  "d! c #313460C1",
  "a' c #315D96FF",
  "a[ c #315F9BFF",
  "sl c #325E97FF",
  "aP c #325E98FF",
  "sc c #326099FF",
  "a{ c #32609AFF",
  "`f c #33336605",
  "E( c #3333660F",
  "fm c #333460E7",
  "p7 c #335F98FF",
  "sz c #345F97FF",
  "a` c #345F98FF",
  "pE c #353F73F8",
  "aL c #356099FF",
  "p# c #356199FF",
  "%b c #35629BFF",
  "i+ c #36366B13",
  "a$ c #365086F8",
  "p6 c #36619AFF",
  "fM c #373755BE",
  "fn c #373869F9",
  "a_ c #37629AFF",
  "s8 c #37639BFF",
  "sU c #38386C68",
  "i> c #383B6FFB",
  "p9 c #383E72F3",
  "aK c #38639BFF",
  "dl c #38649DFF",
  "a] c #38669FFF",
  "a% c #39396C63",
  "i& c #39396CFF",
  "i@ c #39396D5E",
  "i8 c #393A6EFB",
  "pc c #39588FFB",
  "ak c #39649BFF",
  "d9 c #39659DFF",
  "az c #39669FFF",
  "d5 c #3A3A6816",
  "sm c #3A3A6C66",
  "dX c #3A3A6DF8",
  "s. c #3A3A6DFC",
  "sn c #3A3B6EC3",
  "sr c #3A3B6EEC",
  "is c #3A3B6EF8",
  "s: c #3A3B6EFD",
  "i9 c #3A3B6F9F",
  "pv c #3A3B7092",
  "id c #3A3C6E66",
  "aw c #3A3D6FBD",
  "an c #3A3E6FFC",
  "d$ c #3A639CFF",
  "a) c #3A649CFF",
  "i0 c #3B3B6E64",
  "i% c #3B3B6EF8",
  "iq c #3B3C6EF7",
  "i* c #3B3C6EF8",
  "s> c #3B3D70EB",
  "st c #3B3E72C1",
  "do c #3B3F709B",
  "s& c #3B659CFF",
  "p0 c #3C3C6911",
  "sY c #3C3D6FF8",
  "i: c #3C3E6E9D",
  "d~ c #3C4275F9",
  "aJ c #3C659DFF",
  "al c #3C679FFF",
  "s- c #3C6AA0FF",
  "dj c #3C6AA2FF",
  "dG c #3C6AA4FF",
  "pW c #3D3D6D15",
  "i; c #3D3D7019",
  "i- c #3D3F71B7",
  "i= c #3D3F71E3",
  "f# c #3D598DFE",
  "d0 c #3D669FFF",
  "aj c #3D679DFF",
  "i$ c #3E3F71E3",
  "i# c #3E3F73B6",
  "s% c #3E679EFF",
  "-6 c #3E689EFF",
  "d_ c #3E70A9FF",
  "O! c #3E72ADFF",
  "aH c #3F689EFF",
  "p5 c #3F689FFF",
  "sk c #3F69A1FF",
  "a8 c #3F6BA2FF",
  "sI c #404978F4",
  "a9 c #40699EFF",
  "ah c #40699FFF",
  "f- c #406CA1FF",
  "d( c #4072ABFF",
  "n' c #41699FFF",
  "a5 c #416AA0FF",
  "f= c #416EA5FF",
  "aI c #416FA7FF",
  "Sa c #4174AFFF",
  "%5 c #426BA0FF",
  "sw c #426DA1FF",
  "p& c #4343765F",
  "nA c #436BA0FF",
  "a( c #436BA1FF",
  "a6 c #436DA2FF",
  "SL c #4376B0FF",
  "d4 c #444677A1",
  "m~ c #446CA1FF",
  "f* c #4472A8FF",
  "d) c #4477B0FF",
  "fA c #4545453B",
  "n] c #456DA1FF",
  "nQ c #456DA2FF",
  "sL c #466DA0FF",
  "a4 c #466EA3FF",
  "dP c #4679B2FF",
  "d/ c #476EA1FF",
  "m> c #476EA3FF",
  "dS c #495384F8",
  "fw c #495482FB",
  "s~ c #4970A3FF",
  "2J c #4A72A5FF",
  "dL c #4A7CB4FF",
  "ab c #4B4F7DEE",
  "f@ c #4B507EFC",
  "pR c #4B70A3FF",
  "*Q c #4B75AAFF",
  "ac c #4B78ACFF",
  "p~ c #4C5F8FF8",
  "5* c #4C77ADFF",
  "f& c #4C78ADFF",
  "X# c #4D4D7BFF",
  "i, c #4D5E8DF7",
  "s5 c #4D75A9FF",
  "dD c #4D77ACFF",
  "dK c #4D7EB5FF",
  "fq c #4E4F7CFD",
  "p8 c #4E71A2FF",
  "px c #4E73A5FF",
  "a7 c #4E77ABFF",
  "s7 c #4E78ACFF",
  "3| c #4F77ABFF",
  "d` c #4F7BADFF",
  "dJ c #4F7FB6FF",
  "i7 c #505988F4",
  "dH c #5080B7FF",
  "d^ c #5175A6FF",
  "sK c #5176A7FF",
  "s6 c #517AADFF",
  "dz c #517EB3FF",
  "pT c #5276A7FF",
  "d# c #5277A7FF",
  "sH c #5277A8FF",
  "pP c #527BADFF",
  "dZ c #53535328",
  "fN c #53535B9D",
  "pm c #545684F8",
  "p@ c #547EB0FF",
  "#P c #55555503",
  "a| c #555581FF",
  "sb c #556892FF",
  "sJ c #557AA9FF",
  "mp c #557BACFF",
  "fe c #576F9AFF",
  "s; c #5776A3FF",
  "f% c #5781B2FF",
  "dI c #5784B8FF",
  "fk c #58585840",
  "ia c #586593F9",
  "iy c #587BABFF",
  "+[ c #596992FF",
  "pl c #597DABFF",
  "dc c #5987BCFF",
  "f$ c #5A7EAEFF",
  "p$ c #5B7EABFF",
  "iu c #5B7EADFF",
  "aG c #5B80B1FF",
  "dx c #5B89BDFF",
  "ii c #5C7FAEFF",
  "s$ c #5C82B3FF",
  "sG c #5C84B4FF",
  "S. c #5C8ABEFF",
  "a= c #5F81AEFF",
  "dh c #5F8BBDFF",
  "a} c #6283AEFF",
  "p% c #636D98FA",
  "se c #637BA2FF",
  "d. c #637CA2FF",
  "s^ c #638BBBFF",
  "d= c #6390C2FF",
  "p+ c #648CBBFF",
  "sM c #656D97F6",
  "pL c #678DBCFF",
  "dv c #6791C1FF",
  "sP c #688BB4FF",
  "fp c #696F93FC",
  "d3 c #69769AF9",
  "sv c #6988B0FF",
  "AS c #6994C5FF",
  "iw c #6A769FFA",
  "a+ c #6A93C3FF",
  "d8 c #6A94C3FF",
  "ig c #6B6B93A5",
  "ih c #6B7097F9",
  "f9 c #6C6C7695",
  "f; c #6C8CB6FF",
  "d@ c #6C8DB7FF",
  "dt c #6C96C4FF",
  "fB c #6D6D6D8D",
  "aR c #6D6E93FD",
  "p- c #6D6E95F4",
  "ic c #6D8DB6FF",
  "a- c #6D8EB8FF",
  "sF c #6D97C7FF",
  "AT c #6D98C7FF",
  "fi c #6E83A6FF",
  "s_ c #6E98C7FF",
  "s) c #6E98C8FF",
  "&7 c #6F8AAFFF",
  "p/ c #6F8EB7FF",
  "dg c #6F93C0FF",
  "f0 c #70718FE1",
  "aX c #7095C1FF",
  "sD c #719BC9FF",
  "aT c #728FB5FF",
  "sj c #729CCAFF",
  "a* c #738CB3FF",
  "s] c #7391B8FF",
  "da c #747598F7",
  "s{ c #7492B8FF",
  "AM c #749DCBFF",
  "dU c #759AC4FF",
  "d- c #759CC7FF",
  "i6 c #7688B0FF",
  "fr c #768DB1FF",
  "sp c #7694BAFF",
  "fO c #7777773E",
  "sC c #7794BAFF",
  "s[ c #7895BAFF",
  "p^ c #7895BCFF",
  "AZ c #78A0CDFF",
  "fa c #79799CFE",
  "dy c #799EC8FF",
  "s( c #79A1CDFF",
  "s' c #7A9BC3FF",
  "s` c #7A9FCAFF",
  "aO c #7AA2CDFF",
  "sh c #7AA2CFFF",
  "dA c #7B7C9AC5",
  "df c #7B80A1FA",
  "p4 c #7B98BEFF",
  "sZ c #7BA1CCFF",
  "iS c #7C7DA1A5",
  "a@ c #7C98BDFF",
  "ao c #7CA2CDFF",
  "s/ c #7CA4D0FF",
  "fz c #7D7D7D83",
  "pw c #7D7DA0A7",
  "iZ c #7D7FA0AF",
  "E[ c #7D9DC5FF",
  "at c #7DA1C8FF",
  "i< c #7E90B5FF",
  "sa c #7EA2CBFF",
  "d* c #7EA3CEFF",
  "fV c #7F7F7F87",
  "iQ c #7F9ABFFF",
  "dr c #7FA4CCFF",
  "sS c #7FA5D1FF",
  "d% c #809BBFFF",
  "iv c #809DC1FF",
  "7C c #809FC6FF",
  "fZ c #81818165",
  "aq c #8197BAFF",
  "sg c #81A7D3FF",
  "pI c #829EC2FF",
  "s} c #839DBEFF",
  "db c #83A5CCFF",
  "il c #84A2C9FF",
  "sA c #84AAD4FF",
  "fC c #8686867A",
  "i( c #8686A276",
  "i) c #868AA9FA",
  "i3 c #86A2C5FF",
  "d; c #86A7CDFF",
  "ag c #86A7CEFF",
  "Oa c #8787A6FF",
  "ae c #8788A8F1",
  "sy c #8799BDFF",
  "sW c #87A0C2FF",
  "i2 c #87A0C4FF",
  "N; c #87A9CFFF",
  "dd c #8888A492",
  "iW c #88A6C9FF",
  "iz c #88A7CFFF",
  "B_ c #88ADD6FF",
  "sf c #89AED7FF",
  "fs c #8A8BA2E9",
  "i^ c #8A8DAAAE",
  "it c #8AA8CCFF",
  "iD c #8B93B1FA",
  "i1 c #8BA2C5FF",
  "p( c #8BA4C5FF",
  "d2 c #8CA2BEFF",
  "A~ c #8CAFD7FF",
  "a# c #8DA6C5FF",
  "8i c #8DA8CCFF",
  "a. c #8DAACDFF",
  "pM c #8EA6C6FF",
  "pK c #8EA8C8FF",
  "i4 c #8FA7CAFF",
  "d: c #8FAACCFF",
  "16 c #8FB3DAFF",
  "d6 c #9091ADF7",
  "i5 c #90A6C9FF",
  "pN c #90A8C7FF",
  "H9 c #90AED1FF",
  "pO c #91AFD2FF",
  "f, c #92A7C0FF",
  "s! c #93AAC9FF",
  "sE c #93ABC8FF",
  "s| c #94AAC7FF",
  "dq c #94B3D6FF",
  "sd c #94B6DDFF",
  "fj c #95959571",
  "d> c #95ACC9FF",
  "8q c #95AECFFF",
  "i! c #96ABCAFF",
  "g3 c #96B5D8FF",
  "f6 c #97979767",
  "d' c #97AFCDFF",
  "Ah c #97B9DEFF",
  "F2 c #98B8DBFF",
  "dV c #9999AEAA",
  "iL c #99B1D0FF",
  "dn c #99B4D5FF",
  "aM c #99B7D9FF",
  "ss c #99BBDFFF",
  "ft c #9AADC7FF",
  "O8 c #9AB0CFFF",
  "ip c #9AB9DBFF",
  "s4 c #9ABBE0FF",
  "dO c #9CA9C4FB",
  "dp c #9CAAC1FF",
  "1, c #9CBCDEFF",
  "fd c #9D9DA3BC",
  "d7 c #9DB4D2FF",
  "GO c #9DBBDEFF",
  "si c #9FB4CFFF",
  "ib c #9FB7D6FF",
  "iM c #9FBCDDFF",
  "A8 c #9FBFE3FF",
  "dB c #A0A2B9FB",
  "ij c #A0B3CEFF",
  "d, c #A0B4CFFF",
  "s1 c #A0B5D0FF",
  "H$ c #A0B8D5FF",
  "fg c #A1A1A190",
  "f< c #A1B0C6FF",
  "ph c #A1B5D0FF",
  "ay c #A1C1E4FF",
  "iE c #A2B7D1FF",
  "ie c #A2B7D5FF",
  "dY c #A2B9D4FF",
  "au c #A2BFE2FF",
  "dW c #A3A3A345",
  "aE c #A3B9D5FF",
  "s3 c #A3C3E5FF",
  "fx c #A4A4AAB7",
  "p) c #A4B8D4FF",
  "s# c #A4C4E6FF",
  "A6 c #A5C4E6FF",
  "ff c #A6A6A6A4",
  "dm c #A7BFDBFF",
  "s2 c #A7C6E6FF",
  "i~ c #A8B1C8FC",
  "iC c #A9ACC3FC",
  "de c #A9C1DDFF",
  "pB c #AABCD5FF",
  "*W c #AAC3DFFF",
  "ZQ c #AAC8E9FF",
  "fb c #ABACC0FC",
  "ik c #ABC0DAFF",
  "a/ c #ABC8E8FF",
  "dR c #ACACBEDD",
  "d< c #ACBDD4FF",
  "dM c #ACC2DCFF",
  "iH c #ACC4DFFF",
  "fo c #ADADAD76",
  "f5 c #ADADAD8F",
  "ds c #ADADC732",
  "f1 c #ADB2C5FE",
  "iN c #AEC3DBFF",
  "sN c #AEC6E0FF",
  "pk c #AFC0D7FF",
  "A& c #AFCCEBFF",
  "av c #B0BFD5FF",
  "pg c #B0C3DBFF",
  "am c #B0C8E3FF",
  "im c #B0CAE6FF",
  "di c #B1C0D4FF",
  "sT c #B1C5DEFF",
  "ix c #B1CCEBFF",
  "f2 c #B2B2C5FE",
  "A% c #B2CEEDFF",
  "Cv c #B4CAE3FF",
  "s, c #B4CBE4FF",
  "a^ c #B5D1EFFF",
  "fc c #B6B6C1DF",
  "d1 c #B6C5D8FF",
  "pj c #B6C6DAFF",
  "in c #B6CDE8FF",
  "f3 c #B7B7C2E0",
  "dw c #B7CCE3FF",
  "oD c #B7D3F0FF",
  "pe c #B8C2D6FD",
  "aN c #B9D2ECFF",
  "p| c #BACFE6FF",
  "ai c #BAD5F2FF",
  "f. c #BBBBCAEA",
  "fv c #BBBCCAF6",
  "f> c #BBC8DAFF",
  "iF c #BBCADDFF",
  "a~ c #BBD5F2FF",
  "dE c #BCBCBC79",
  "f4 c #BCBCBCAE",
  "fu c #BCC8D9FF",
  "s+ c #BCCFE5FF",
  "sX c #BCD0E6FF",
  "d& c #BDCBDEFF",
  "pY c #BDCCDEFF",
  "pJ c #BDCDE2FF",
  "po c #BDCFE5FF",
  "1e c #BDD1E8FF",
  "ir c #BDD3ECFF",
  "fX c #BEBEC0A2",
  "ar c #BECBDDFF",
  "iJ c #BED7F1FF",
  "a! c #BED8F4FF",
  "i[ c #BFCEE1FF",
  "aF c #BFD9F5FF",
  "dC c #C0C0C039",
  "s@ c #C0D7F0FF",
  "Z/ c #C0D9F4FF",
  "p= c #C1C1D031",
  "d[ c #C1CDDDFF",
  "pV c #C1CEE0FF",
  "f: c #C1CFDFFF",
  "sV c #C2CFE0FF",
  "sO c #C2D2E5FF",
  "i] c #C3D1E2FF",
  "dT c #C4C6D4FD",
  "a0 c #C4D1E1FF",
  "d+ c #C4D4E7FF",
  "a; c #C4D9F1FF",
  "iK c #C5DCF2FF",
  "dN c #C6CFDCFF",
  "sB c #C6D4E4FF",
  "aD c #C6DEF8FF",
  "iU c #C7D6E9FF",
  "aW c #C7D9EEFF",
  "p; c #C8D3E3FF",
  "aZ c #C8E0F9FF",
  "sQ c #C9D5E4FF",
  "pt c #C9D5E5FF",
  "a3 c #C9DEF4FF",
  "af c #C9E1FAFF",
  "B2 c #CAD6E5FF",
  "aS c #CAE1FAFF",
  "iB c #CBD7E6FF",
  "aB c #CBDEF3FF",
  "aA c #CBE2FBFF",
  "iV c #CCD6E5FF",
  "pr c #CCD7E5FF",
  "iG c #CCDBECFF",
  "a& c #CDCDDAE9",
  "pC c #CDD9E8FF",
  "aC c #CDE2F7FF",
  "d| c #D0D1DCFE",
  "fy c #D0D9E5FF",
  "ad c #D1E7FEFF",
  "p! c #D2D2DDBA",
  "a< c #D2E8FFFF",
  "pu c #D3E4F7FF",
  "ZH c #D3E6FAFF",
  "n2 c #D4DDE9FF",
  "a, c #D4E9FFFF",
  "ap c #D5E7F9FF",
  "a: c #D5E8FCFF",
  "as c #D5E9FFFF",
  "a1 c #D6EAFFFF",
  "p> c #D7E0ECFF",
  "py c #D7E6F5FF",
  "i_ c #D8E1EBFF",
  "iP c #D8E6F6FF",
  "d{ c #D9E0E9FF",
  "a2 c #D9ECFEFF",
  "d] c #DAE2ECFF",
  "NL c #DAE2EDFF",
  "p} c #DAE8F8FF",
  "if c #DBDBDB0E",
  "pU c #DBE3EDFF",
  "Ed c #DBE8F7FF",
  "p] c #DBEDFFFF",
  "iR c #DEE7F1FF",
  "iY c #DEE8F5FF",
  "iI c #DEEAF7FF",
  "Z+ c #DEEEFFFF",
  "=* c #DFE6EFFF",
  "VI c #E0E6EFFF",
  "Gv c #E0E7F0FF",
  "fh c #E0E8F1FF",
  "p, c #E1EBF6FF",
  "p{ c #E1EEFCFF",
  "pf c #E2ECF8FF",
  "p_ c #E2EFFDFF",
  "CB c #E2F0FFFF",
  "p[ c #E3F1FFFF",
  "pA c #E5F2FFFF",
  "M1 c #E6EBF2FF",
  "pZ c #E6F0FCFF",
  "i{ c #E6F2FEFF",
  "a> c #E6F2FFFF",
  "pH c #E7F1FBFF",
  "pi c #E7F2FFFF",
  "d} c #E8EBF1FF",
  "sR c #E8EEF6FF",
  "MN c #E9EEF4FF",
  "pD c #E9F4FFFF",
  "i} c #EAF3FEFF",
  "p` c #EAF4FFFF",
  "p: c #EBEFF5FF",
  "pF c #EBF5FFFF",
  "du c #ECEFF5FF",
  "su c #ECF2F8FF",
  "pn c #EDEDF183",
  "p3 c #EDF2F7FF",
  "i| c #EDF4FDFF",
  "pG c #EDF5FDFF",
  "pX c #EEF4FAFF",
  "nF c #EFF3F7FF",
  "p< c #EFF7FFFF",
  "s< c #F0F4FAFF",
  "i' c #F1F6FCFF",
  "m$ c #F3F5F9FF",
  "iT c #F3F7FBFF",
  "so c #F5F8FBFF",
  "aQ c #F5F8FCFF",
  "pd c #F5F9FDFF",
  "aa c #F5FAFEFF",
  "p' c #F5FAFFFF",
  "p1 c #F6FBFFFF",
  "ne c #F7F9FBFF",
  "aV c #F7FAFDFF",
  "Mr c #F8FAFCFF",
  "Nh c #F9FAFCFF",
  "i` c #F9FBFDFF",
  "pS c #FAFCFFFF",
  "G* c #FBFCFDFF",
  "p2 c #FBFCFEFF",
  "pa c #FBFDFFFF",
  "E_ c #FCFCFDFF",
  "p. c #FCFDFFFF",
  "pp c #FCFEFFFF",
  "Dx c #FDFEFEFF",
  "ps c #FDFEFFFF",
  "=w c #FEFEFEFF",
  "H= c #FEFEFFFF",
  "H- c #FEFFFFFF",
  "3N c #FFFFFF01",
  "t# c #FFFFFF08",
  "iA c #FFFFFF0B",
  "i/ c #FFFFFF1A",
  "pQ c #FFFFFF21",
  ">I c #FFFFFF22",
  "pb c #FFFFFF30",
  "p* c #FFFFFF4C",
  "pq c #FFFFFF6D",
  "1U c #FFFFFFFF",
  "   c none",
  
  // Image data
  "                                                                ",
  "                                `f                              ",
  "                      i+i@i#i$i%i&i*i=i-i@i+                    ",
  "                  i;i:i>i,i<i1i2i3i4i5i6i7i8i9i;                ",
  "                i0iqiwieiritiyiuii7C1,F2ip8iiaisid              ",
  "            ifigihijikilizixicivibinimGOiMiNiBiViCiZ#P          ",
  "          iAiSiDiFiG1eiHiJiKiLiPiIiUiYiTiRiEiWiQi!i~i^          ",
  "      t#i/i(i)i_i`i'i]i[i{i}i|p.1UH=pXpopOp+p@p#nAp$p%p&        ",
  "    3Np*p=p-p;E_1UH=p:p>p,p<p11U1U1Up2p3i]p4p5p6p7n]p8p9p0      ",
  "    >Ipqpwpepr=*G*nFptpypupipppapspdpfpgphpjM1pkplpzpxpcpv      ",
  "    pbpnpmpMpNpBpVpCpZCBpApSpDpFpGpHpJpKg3pLpPpIpUpYpTpRpEpW    ",
  "    pQp!p~p^p/p(p)p_CBp`p'p]Z+p[p{p}p|a.aXaoaOa+5*a@MNa#a$a%    ",
  "      a&a*a=mpa-a;a:a>p'a,a<a1a2ZHa3E[a4a5a6a7*Qa8pza9a0aqaw    ",
  "      aearatayauaiapaaasa<a<adafZ/agm>m~ahajakp6alazaxacavab    ",
  "      ann2amaMaNaBaVaCaZaAaSaDaFoDaGnQ%5aHaJaKaLaPaIaUaYaTaR+j  ",
  "    E(i&8qGvaEaWaQEda3Z/a!a!a~a^a/2Ja(ahaja)a_a`a'a]a[a{a}a|E(  ",
  "    +js.ibsXm$i`sosOs+s@A%A%A&ZQs#s$n's%s&aKp#aP&ps*s=s-s;s:.F  ",
  "      s>O8s,s<1U1UB2s1*Ws2A6s3A8s4A~s5s6s7s8p7a's9s0sqswsesr    ",
  "      stsyCvsu=wDxVIsispsassAhsd16sfsgshsjskslsz&psxscsvsbsn    ",
  "      smsMsNMrsBsVpUNLsC-63|sZB_sAsSAZsDsFsGsHsJsKsLsP&7sIsU    ",
  "      i;sYsTsRH$sEsWpMsQs!s~s^s/s(AMs)s_s`s's]s[s{s}s|d.dXi;    ",
  "        dodOd+N;d@d#d$a)d%d&iHd*ATASd=d-d;d:d>d,d<d1d2d3d4      ",
  "        d5d6d7d8S.d9p7a`a`d0dqdwdedrdtdyH9pgneH-dudidpdads      ",
  "          dddfdgdhdjpzdkdldzdxdcdvdbdndmdMfh1U1UDxdNdBdVdC      ",
  "        @BdZdAdSpLdDaxdFdGdHdJdKdLdPdIdUdYp:1U1UNhdTdRdEdW@B    ",
  "        @:&YdQd!d~d^d/%bd(d)SLSaO!d_d`d'd]d[d{d}d|f.fXfofO+r    ",
  "        :l*.*l*)f+f@f#f$f%f&f*f=f-f;f:f>f,f<f1f2f3f4f5f6f7%H    ",
  "        @C@59)3&f8f9f0fqfwfefrftfyfufi+[fpfafsfdfffgfjfk5U&j    ",
  "          *7&)9)*/flfzfxfcfvfbOaX#i&fnfmfMfNfBfVfCfZfA5U&T      ",
  "            &T@o&Y:dB%*_kmkB&OfSfDfFDu&OkSfGfHfJv<fK:k+j        ",
  "                &j+>@n+N*^*8:h9]*o*o9]*/*8&R:Q@o@C              ",
  "                        &j&^@B:k%H&;+>:E%.+j                    "
};
