/* XPM */
const char *xpm_tango_categories_applications_system[] = {
  // Header (width height colors chars-per-pixel)
  "32 32 601 2",
  
  // Colors (code mode value)
  "+j c #00000001",
  "&j c #00000002",
  "&T c #00000003",
  "%. c #00000004",
  "&^ c #00000006",
  ":E c #00000008",
  "*7 c #00000009",
  "@B c #0000000A",
  "+> c #0000000B",
  "&; c #0000000D",
  ":l c #0000000F",
  "@: c #00000010",
  "&Z c #00000011",
  "@m c #00000013",
  "*' c #00000015",
  "+k c #00000016",
  "[~ c #00000017",
  "@n c #00000019",
  "@5 c #0000001A",
  "&) c #0000001C",
  "*Q c #0000001D",
  "&V c #0000001F",
  "+g c #00000021",
  "*. c #00000022",
  "&Y c #00000023",
  ":Q c #00000024",
  ":W c #00000025",
  "+N c #00000026",
  "+J c #00000027",
  "er c #00000028",
  "rn c #0000002A",
  "*F c #0000002B",
  "rF c #0000002D",
  "*^ c #0000002E",
  ":s c #00000031",
  "=( c #00000033",
  "*l c #00000035",
  "*G c #00000037",
  "tD c #00000038",
  ",W c #00000039",
  "*/ c #0000003C",
  "NY c #0A0A1031",
  "N/ c #0D0D1239",
  "N] c #0F0F1722",
  "B: c #13171E43",
  "Bo c #20253337",
  "B& c #24293A77",
  "NU c #2B2E424D",
  "m4 c #2B555506",
  "N^ c #2E32477A",
  "BO c #31344B4E",
  "NT c #31374B7E",
  "`f c #33336605",
  "BX c #33374E9A",
  "nd c #334D660A",
  "B> c #34395162",
  "N( c #35374E66",
  "vn c #37495B0E",
  "NA c #383C5680",
  "B* c #3C3F58A2",
  "N` c #3C415A5E",
  "m{ c #3C435E26",
  "n{ c #3C445E1E",
  "ba c #3D476619",
  "N_ c #3E425C74",
  "n0 c #3E44602D",
  "Nx c #3E4461CD",
  "v0 c #3E446331",
  "vj c #3E4561FD",
  "vq c #3E45624E",
  "n@ c #3E466062",
  "nn c #3E46611D",
  "M0 c #3E46625B",
  "nw c #3F4460FE",
  "NJ c #3F455D55",
  "v* c #3F4561E9",
  "v= c #3F4561FF",
  "vi c #3F45635D",
  "b! c #3F466199",
  "vv c #3F4662F3",
  "N~ c #3F4662FD",
  "Mc c #3F4663B2",
  "v; c #3F4763CE",
  "vm c #40406614",
  "Rq c #40406A0C",
  "NK c #40446174",
  "vu c #4044623C",
  "mt c #404561FE",
  "mQ c #40456234",
  "nb c #40456260",
  "mW c #40456268",
  "nq c #40466154",
  "Ng c #4046625B",
  "nQ c #404662F4",
  "nM c #404662FE",
  "n8 c #4046635F",
  "bC c #404663B2",
  "v- c #404663F7",
  "b; c #40476270",
  "ML c #40476324",
  "vb c #4047636F",
  "vH c #404763F3",
  "vE c #404763F7",
  "vg c #40496374",
  "N' c #4144609D",
  "m[ c #4144634B",
  "mk c #41465F33",
  "m3 c #414662FC",
  "vp c #41466362",
  "vC c #41466379",
  "v/ c #4147605A",
  "B< c #414762F1",
  "n! c #414762FD",
  "n: c #414763F7",
  "v^ c #414763FD",
  "B, c #414764FB",
  "v( c #4148616E",
  "vh c #41486275",
  "mB c #4148646E",
  "va c #414A6579",
  "v2 c #4242631F",
  "Mx c #424762F9",
  "v9 c #424764E8",
  "N1 c #424864A6",
  "nm c #424864E7",
  "v: c #424864F8",
  "v6 c #424864FA",
  "mZ c #424864FC",
  "v8 c #42486560",
  "v1 c #424865F4",
  "ns c #42496496",
  "n> c #424965EA",
  "v7 c #43435E13",
  "NS c #434660AC",
  "vZ c #4347636F",
  "NR c #434862C6",
  "m& c #434866F3",
  "Mw c #434965F0",
  "n+ c #434965F1",
  "m! c #434A65D0",
  "vM c #434A66B7",
  "bV c #434A66E7",
  "m] c #434A67D0",
  "m} c #434B67D0",
  "Nc c #444965F1",
  "nH c #44496696",
  "B; c #444A65FC",
  "vA c #444A65FD",
  "bp c #444A66AC",
  "vJ c #444A66F7",
  "nJ c #444B6696",
  "b~ c #444B66F5",
  "N) c #444B66F6",
  "B+ c #454964D2",
  "MP c #454B67F6",
  "Nh c #454B68FA",
  "NZ c #454C67F6",
  "bs c #454C68F6",
  "v3 c #454C68F8",
  "Mq c #46465D0B",
  "mL c #464B67CD",
  "n[ c #464C69F4",
  "nv c #464D6698",
  "vV c #464E6AF6",
  "N[ c #474B67F0",
  "NI c #474C68E7",
  "vf c #474C68F9",
  "n} c #474C69F4",
  "b- c #474C69FB",
  "M} c #474D68D8",
  "M$ c #474D69B4",
  "M{ c #474E69C8",
  "b: c #474F69C9",
  "NL c #484D68F9",
  "Nz c #484D69F8",
  "mE c #484E6AC7",
  "mC c #484F6AEC",
  "n9 c #49496D07",
  "na c #49506DF4",
  "nf c #4A506EF4",
  "NH c #4B4F6BF7",
  "nc c #4B526ED3",
  "mV c #4C516DBF",
  "M< c #4C516DF3",
  "mA c #4C516DFB",
  "vs c #4C536EF9",
  "mj c #4D536FF2",
  "v) c #4E546FFC",
  "ml c #4E5470F2",
  "vN c #4E5570F8",
  "vr c #4F6A95FF",
  "ND c #50546FF8",
  "vy c #505774F5",
  "bQ c #535A75FB",
  "nN c #545973F9",
  "vz c #546D98FF",
  "N2 c #565B75FC",
  "vw c #575F7AF6",
  "v4 c #58729BFF",
  "Ni c #5A5E79FB",
  "vG c #5A6079FA",
  "vU c #5A719BFF",
  "M, c #5C607BF2",
  "vR c #5C6581F8",
  "n7 c #5D6580F6",
  "NP c #5E627CFC",
  "n; c #5E6682F7",
  "bX c #5E749EFF",
  "N< c #5F637CF8",
  "nW c #5F647DFA",
  "n, c #5F6783F7",
  "bo c #5F759EFF",
  "M9 c #606680F6",
  "bO c #60769FFF",
  "M% c #626883F6",
  "B% c #636680F8",
  "b7 c #6378A1FF",
  "b8 c #6479A2FF",
  "b9 c #6679A2FF",
  "bk c #667AA3FF",
  "Nv c #676A85F7",
  "Mv c #676D85FD",
  "b0 c #677AA3FF",
  "bl c #677BA3FF",
  "m' c #686C88F6",
  "bq c #687BA4FF",
  "b+ c #687CA4FF",
  "vc c #69728BFB",
  "bz c #697BA4FF",
  "m| c #6A6D89F6",
  "n# c #6A7089FA",
  "bx c #6A7CA5FF",
  "bw c #6A7DA4FF",
  "bc c #6B7DA5FF",
  "bH c #6B7DA6FF",
  "bv c #6C7EA6FF",
  "NC c #6D7188F9",
  "nB c #6D738AFA",
  "bi c #6D748EFA",
  "nG c #6D7491F8",
  "bJ c #6D7EA6FF",
  "bt c #6D7EA7FF",
  "D& c #6D7FA6FF",
  "bb c #6D7FA7FF",
  "bZ c #6E738AFE",
  "vK c #6F768DFC",
  "by c #6F80A8FF",
  "nK c #707693F8",
  "bn c #7080A8FF",
  "b* c #7081A9FF",
  "bm c #7181A9FF",
  "Np c #72748CFB",
  "bI c #7282A9FF",
  "bM c #7282AAFF",
  "bU c #7382AAFF",
  "bK c #7383AAFF",
  "vI c #7386ABFF",
  "vW c #747C94FC",
  "bY c #7483ABFF",
  "bP c #7485ACFF",
  "mN c #757991F9",
  "vk c #757E97FD",
  "bT c #7584ABFF",
  "bR c #7685ACFF",
  "b} c #7987AEFF",
  "W] c #798CAEFF",
  "bE c #7A88AEFF",
  "b| c #7B88AFFF",
  "bL c #7B8BB0FF",
  "n. c #7C89AFFF",
  "nX c #7D8AB0FF",
  "vl c #7F92B2FF",
  "n2 c #808CB2FF",
  "n3 c #818CB3FF",
  "n4 c #828DB3FF",
  "b. c #8495B5FF",
  "n5 c #858FB5FF",
  "m, c #8690B6FF",
  "ni c #8693B6FF",
  "B. c #87889FFD",
  "nj c #8791B7FF",
  "br c #8796B6FF",
  "b@ c #8796B7FF",
  "m< c #8891B7FF",
  "be c #8896B7FF",
  "vd c #8A90A2FF",
  "vx c #8A9AB8FF",
  "md c #8B93B8FF",
  "N6 c #8C8EA4FE",
  "b> c #8C91A4FD",
  "mf c #8C94B9FF",
  "b6 c #8C9CBAFF",
  "ve c #8C9DB9FF",
  "mg c #8D95BAFF",
  "b{ c #8D99BAFF",
  "bG c #8D9CBAFF",
  "nE c #8E92A7FE",
  "mM c #8F92A9FF",
  "mF c #9097BBFF",
  "m1 c #9098BBFF",
  "nh c #9099BCFF",
  "vT c #909AAFFF",
  "nV c #9195A8FE",
  "mK c #9196AFFE",
  "m. c #9197BCFF",
  "mG c #9198BCFF",
  "mH c #9298BDFF",
  "M[ c #9394A9FD",
  "vB c #939CB0FF",
  "M> c #9599B0FE",
  "m/ c #959ABEFF",
  "bB c #959CB0FF",
  "vt c #95A6C0FF",
  "mP c #9699B2FE",
  "M1 c #979AB0FE",
  "m~ c #979BB1FF",
  "m( c #979BBFFF",
  "nl c #979FBFFF",
  "vL c #97A0B5FF",
  "b` c #97A3C0FF",
  "B= c #9899ADFE",
  "m) c #989CC0FF",
  "nP c #989FC0FF",
  "M| c #999BAFFE",
  "m6 c #999EC1FF",
  "M# c #9A9DB2FF",
  "M= c #9C9FC2FF",
  "M* c #9C9FC3FF",
  "m_ c #9CA0C3FF",
  "M- c #9DA0C3FF",
  "no c #9DA6C4FF",
  "b& c #9DAAC3FF",
  "M; c #9EA1C4FF",
  "n1 c #9EA7C4FF",
  "bN c #9FA9C4FF",
  "mq c #A0A2C5FF",
  "v! c #A0ACC5FF",
  "Mt c #A1A3C5FF",
  "nD c #A1ABC6FF",
  "bj c #A1ADC6FF",
  "My c #A2A4C6FF",
  "n* c #A2ACC7FF",
  "XG c #A2B0C7FF",
  "Nb c #A3A3B8FF",
  "Mu c #A4A4C7FF",
  "Mi c #A5A5C8FF",
  "m# c #A5A9C8FF",
  "v[ c #A5AAB9FF",
  "mD c #A5ABC8FF",
  "b5 c #A6B2C9FF",
  "Mn c #A7A6C9FF",
  "my c #A7AABAFF",
  "ne c #A7ACBBFF",
  "Mm c #A8A7C9FF",
  "m0 c #A8ACCAFF",
  "b% c #A8B0C2FF",
  "MM c #A9A8CAFF",
  "Mp c #A9A9CAFF",
  "v< c #A9B4C7FF",
  "MN c #AAA9CBFF",
  "M: c #AAACCBFF",
  "m> c #AAB1CBFF",
  "nu c #AAB3CCFF",
  "v> c #AAB6C9FF",
  "M+ c #ABAACBFF",
  "MB c #ABAACCFF",
  "Nl c #ABABBDFF",
  "N! c #ABACBCFF",
  "mw c #ABACCBFF",
  "nk c #ABB1CBFF",
  "v` c #ABB8CDFF",
  "MY c #ACAACCFF",
  "NV c #ACABBEFF",
  "mm c #ACAEC1FF",
  "ms c #ACB2CCFF",
  "v5 c #ACB9CDFF",
  "MV c #ADABCCFF",
  "MT c #ADABCDFF",
  "mv c #ADAFCDFF",
  "nO c #ADB2C6FF",
  "bu c #ADB6CDFF",
  "b< c #ADB9CEFF",
  "MC c #AEABCDFF",
  "MR c #AEACCDFF",
  "nz c #AEB3CEFF",
  "MZ c #AFACCEFF",
  "M7 c #AFADCEFF",
  "Nf c #AFAFC1FF",
  "vQ c #AFB9CDFF",
  "b4 c #AFBACFFF",
  "MA c #B0ADCEFF",
  "mR c #B0B0CEFF",
  "m@ c #B0B4CFFF",
  "b$ c #B0B6C9FF",
  "b] c #B0B7CAFF",
  "n_ c #B0B8CFFF",
  "b# c #B0BACFFF",
  "bf c #B0BBD0FF",
  "ME c #B1ADCFFF",
  "m^ c #B1B5CFFF",
  "mX c #B1B5D0FF",
  "n` c #B1B8D0FF",
  "nF c #B1B9D0FF",
  "bg c #B1BBD0FF",
  "b1 c #B1BCD0FF",
  "MW c #B2AECFFF",
  "nx c #B2B4C4FF",
  "b_ c #B2BBD0FF",
  "bh c #B2BCD0FF",
  "MQ c #B3AFD0FF",
  "bS c #B3BDD1FF",
  "M! c #B4B0D1FF",
  "v~ c #B4BCCDFF",
  "bD c #B4BDD2FF",
  "bF c #B4BED2FF",
  "v, c #B4C0D2FF",
  "N4 c #B5B1D1FF",
  "Mk c #B5B2D2FF",
  "B@ c #B5B3C4FF",
  "Mg c #B5B3D2FF",
  "M3 c #B5B5D2FF",
  "M~ c #B6B1D2FF",
  "mJ c #B6B9D2FF",
  "b( c #B6BFD3FF",
  "v' c #B6C0D3FF",
  "v| c #B6C1D3FF",
  "N+ c #B7B2D2FF",
  "N@ c #B7B2D3FF",
  "Mr c #B7B9D3FF",
  "nR c #B7BAC8FF",
  "b) c #B7BFD3FF",
  "MH c #B8B2D3FF",
  "Me c #B8BACCFF",
  "n% c #B8C0D4FF",
  "N# c #B9B3D3FF",
  "NX c #B9B6D4FF",
  "MU c #B9B7D3FF",
  "m$ c #B9BBD4FF",
  "b[ c #B9C0D4FF",
  "n& c #B9C1D5FF",
  "N$ c #BAB4D4FF",
  "nL c #BABFD5FF",
  "nt c #BAC2D6FF",
  "vY c #BAC3D4FF",
  "vP c #BAC3D6FF",
  "b3 c #BAC4D6FF",
  "N% c #BBB5D5FF",
  "ny c #BBC2D6FF",
  "N& c #BCB5D5FF",
  "mT c #BCBCD6FF",
  "me c #BCBDD6FF",
  "bd c #BCC1CDFF",
  "n' c #BCC2D6FF",
  "M` c #BDB6D6FF",
  "MK c #BDBCCDFF",
  "n< c #BDC4D4FF",
  "nA c #BDC4D7FF",
  "M' c #BEB7D7FF",
  "MI c #BEBFD0FF",
  "nS c #BEC4D7FF",
  "b= c #BEC6D6FF",
  "Nw c #BFB7D7FF",
  "Nq c #BFB8D6FF",
  "N7 c #BFBED1FF",
  "mx c #BFC1D8FF",
  "n) c #BFC5D8FF",
  "n= c #BFC6D8FF",
  "Ne c #C0B8D8FF",
  "M6 c #C0BED8FF",
  "m- c #C0C6D9FF",
  "M^ c #C1BDD8FF",
  "Ma c #C1C1D9FF",
  "m; c #C1C6D9FF",
  "n- c #C1C7D7FF",
  "m: c #C1C7DAFF",
  "Mh c #C2BFD9FF",
  "np c #C2C7D8FF",
  "nZ c #C2C8DAFF",
  "MS c #C3C0DAFF",
  "M@ c #C3C3DAFF",
  "b^ c #C3C8D4FF",
  "n6 c #C3C8DBFF",
  "NM c #C4BBDAFF",
  "MJ c #C4BFDAFF",
  "Mf c #C4C3DBFF",
  "n( c #C4C9DBFF",
  "b' c #C4CAD9FF",
  "Ml c #C5C1DBFF",
  "NF c #C5C3D2FF",
  "Mz c #C5C5D5FF",
  "m7 c #C5C7DBFF",
  "ng c #C5C9DBFF",
  "nI c #C5C9DCFF",
  "b/ c #C5CCDCFF",
  "N> c #C6BCDBFF",
  "nU c #C6C9DCFF",
  "NW c #C7BDDCFF",
  "N: c #C7BEDCFF",
  "N0 c #C7C1DCFF",
  "NO c #C7C4DCFF",
  "N. c #C7C5DDFF",
  "vF c #C7CCD8FF",
  "Nr c #C8C0DDFF",
  "mn c #C8C9D9FF",
  "m= c #C8CDDEFF",
  "v{ c #C8CED9FF",
  "b, c #C8CFDEFF",
  "N} c #C9BFDDFF",
  "m% c #C9CBDBFF",
  "m+ c #C9CCDEFF",
  "bW c #C9CFDFFF",
  "b2 c #C9D1DFFF",
  "mo c #CACCDEFF",
  "m9 c #CACCDFFF",
  "mO c #CACDDFFF",
  "n/ c #CACFDFFF",
  "MX c #CBCBDFFF",
  "mh c #CBCEDFFF",
  "vS c #CBD0DBFF",
  "NN c #CCC3DFFF",
  "m8 c #CCCEE0FF",
  "mu c #CCCFD9FF",
  "n] c #CCD1E1FF",
  "M& c #CDCFE1FF",
  "nr c #CDD3E1FF",
  "Nj c #CECDDBFF",
  "mc c #CED0E1FF",
  "mp c #CED2E1FF",
  "N{ c #CFCDDBFF",
  "MO c #CFCEE1FF",
  "Nu c #CFCFDBFF",
  "Ns c #D0C8E2FF",
  "mI c #D0D0E2FF",
  "mU c #D0D1E2FF",
  "n^ c #D0D5E3FF",
  "M_ c #D1CCE3FF",
  "N9 c #D1CDE3FF",
  "N5 c #D1CFDFFF",
  "mY c #D1D1E3FF",
  "n| c #D1D4E3FF",
  "NQ c #D2CAE3FF",
  "M/ c #D2CFE3FF",
  "Ms c #D2D2E3FF",
  "m` c #D2D4E4FF",
  "NG c #D3D0DFFF",
  "MG c #D3D1E4FF",
  "Md c #D3D2E4FF",
  "Mo c #D3D3E4FF",
  "mS c #D3D5E1FF",
  "m2 c #D3D6E4FF",
  "ma c #D3D7E4FF",
  "v} c #D3D9E5FF",
  "B# c #D4CCE4FF",
  "M] c #D4CFE4FF",
  "Mb c #D4D5E5FF",
  "vD c #D4DAE5FF",
  "Nt c #D5CFE5FF",
  "M4 c #D5D3E5FF",
  "mb c #D5D5E5FF",
  "mz c #D5D6E5FF",
  "v] c #D5DBE5FF",
  "bA c #D5DBE6FF",
  "No c #D6D4E6FF",
  "M5 c #D6D5E6FF",
  "N| c #D7D0E6FF",
  "M. c #D7D8E7FF",
  "mr c #D7D9E7FF",
  "Mj c #D8D6E7FF",
  "M2 c #D8D8E7FF",
  "m5 c #D8DAE7FF",
  "n~ c #D8DCE5FF",
  "MD c #D9D7E8FF",
  "Nn c #DAD6E5FF",
  "N* c #DAD6E8FF",
  "MF c #DAD8E8FF",
  "M8 c #DAD9E9FF",
  "nT c #DADCE5FF",
  "v_ c #DBDFE8FF",
  "n$ c #DBDFE9FF",
  "Na c #DCD9E7FF",
  "M( c #DCD9E9FF",
  "mi c #DCDEE9FF",
  "Nd c #DDD7EAFF",
  "N; c #DDD9EAFF",
  "M) c #DDDAEAFF",
  "B$ c #DFDAEBFF",
  "B- c #DFDCE9FF",
  "N, c #E0DBEBFF",
  "Nm c #E0DCECFF",
  "N8 c #E0DDECFF",
  "N3 c #E0DEEBFF",
  "nC c #E0E4EBFF",
  "Nk c #E3E1EEFF",
  "NE c #E4DFEDFF",
  "m* c #E5E8F0FF",
  "N= c #E7E4F0FF",
  "nY c #E8E9F1FF",
  "NB c #E9E5F1FF",
  "N- c #ECEAF3FF",
  "Ny c #EFECF5FF",
  "   c none",
  
  // Image data
  "                          v*v=v-v=v;                            ",
  "                          v:v>v,v<v1                            ",
  "                        v2v3XGv4v5v6v7                          ",
  "          v8v9v0        vqvwvevrvtvyvu        viv=vp            ",
  "        vavsvdvfvg+jv7vhvjvkvlvzvxvcvvvbvnvmvMvNvBvVvC          ",
  "      vZvAvSvDvFvGvHvJvKvLvPvIvUW]vYvTvRvEv=vWvQv!v~v^v/        ",
  "      v(v)v_v`v'v]v[v{v}v|b.bXbobOb+b@b#b$b%b&D&b*b=b-b;        ",
  "      +jb:b>b,b<b1b2b3b4b5b6b7b8b9b0bqbwbebrbtbybubibp          ",
  "        babsbdvPbfbgbhbjbkblbzbxbcbvbbbybnbmbMbNbBbVRq          ",
  "          bCbZbAbSbDbFbGbHbJbKbLbPbIbUbYbTbRbEbWbQb!            ",
  "        vnb~b^b/b(b(b)b_b`b)b'b]b'b[b{b}b|n.nXnonOn+Rq          ",
  "        n@n#n$n%n%n&n*n=n-n;n:n>n:n,n<n1n2n3n4n5n6n7n8          ",
  "  n9n0nqnwnenrntnynuninpnansnd  ndnsnfngnhnjnknlnznxv=ncnvnbnn  ",
  "nmnMnNnBnVnCnZnAnSnDnFnGnH          nJnKnLnPnInUnInYnTnRnEnWnQ  ",
  "n!n~n$n^n/n(n)n_n`n'n]n[n{          n{n}n|m.mXmomOm+m@m#m$m%m&  ",
  "v=m*m=m-m;m:m>m,m<m1m2m3m4          m4m3m5m6m7m8m9m0mqmwmemrmt  ",
  "v=mymumimpmamsmdmfmgmhmjmk          mkmlmzmxmcmcmvmbmnmmmMmNv=  ",
  "mBmVmCmZmAmSmDmFmGmHmJmKmL`f      `fmLmPmImUmYmTmRmnv=mEnsmWmQ  ",
  "      ndm!m~m^m/m(m)m_m`m'm]m[m{m[m}m|M.MXMoMOM+M@M#M$          ",
  "        n@M%M&M*M=M-M;M:mzM>M,M<M,M1M2M3M4M5M6M7M8M9M0          ",
  "        MqMwMeMrMtMyMuMiMpMaMsM2MdMfMgMhMjMjMkMlMzMxm4          ",
  "          McMvMbMnMmMMMNMBMVMCMZMAMSMDMFMFMGMHMJMKv=nn          ",
  "        MLMPMIMUMYMTMRMAMEMWMQM!M~M^M/M(M)M_M`M'M]M[M{+j        ",
  "      m4M}M|N.MANXNoNON+M~N@N#N$N%N&M`N*N=N-N;N:N>N,N<vZ        ",
  "      N1N2N3N4NON5N6N7N8N9N0NqNwNeNrNtNyNuNiNpNaNsNdNfv=        ",
  "      NgNhNjNkNlNzNxNcNvNbNnNmNMNNNBNVNCNZNANSNDNFNGNHNJ        ",
  "        NKNLNPNINU&YNYNTNRv=NENWNQN!N~N^N/*F+NN(N)v=N_@B%.      ",
  "        &^N`N'N]+g+JrF=(,WN[N{N}N|B.BX*/*G:srn:QBoBO&Z@B&T      ",
  "        &j*7@:+k*Q:Q*F:stDB+B@B#B$B%B&*/*l*^er+g@5@m&;&^        ",
  "            &^&;@m@n&V:WrnB*B=NBB-B;B:rFer*.&)+k@:@B&T          ",
  "                &T:E&;&Z*'B>v=v=B,B<@5[~@m:l+>&^                ",
  "                            &j&T&T&j+j                          "
};
