/* XPM */
const char *xpm_tango_categories_applications_office[] = {
  // Header (width height colors chars-per-pixel)
  "32 32 476 2",
  
  // Colors (code mode value)
  "+j c #00000001",
  "&T c #00000003",
  "%. c #00000004",
  "&0 c #00000005",
  "&^ c #00000006",
  "@C c #00000007",
  ":E c #00000008",
  "*7 c #00000009",
  "@B c #0000000A",
  "+> c #0000000B",
  ":k c #0000000C",
  "&; c #0000000D",
  "%H c #0000000E",
  "@: c #00000010",
  "&Z c #00000011",
  "@o c #00000014",
  "*o c #246DB607",
  "]2 c #2B55AA06",
  "V8 c #2B6AAA0C",
  "fz c #3264A242",
  "gJ c #3264A270",
  "gR c #3365A468",
  "j3 c #3365A483",
  "ha c #3365A577",
  "=K c #3366A237",
  "hn c #3366A34B",
  "h7 c #3366A369",
  "hj c #3367A5A4",
  "*O c #3463A731",
  "gW c #3464A470",
  "gS c #3464A484",
  "g{ c #3464A4CF",
  "g( c #3464A54F",
  "h* c #3465A4C9",
  "G; c #3465A4F1",
  "2} c #3465A4FF",
  "hp c #3465A5A1",
  "g[ c #3466A367",
  "gP c #3466A37A",
  "gm c #3466A380",
  "hb c #3466A4E2",
  "gC c #3467A494",
  "h& c #3565A63F",
  "he c #3566A3E1",
  "hY c #3566A4AA",
  "hT c #3566A4C5",
  "3p c #3566A4FF",
  "jy c #3566A5BC",
  "jo c #3667A234",
  "jf c #3667A5FE",
  "hR c #3667A7D0",
  "j4 c #3766A4EF",
  "hs c #3766A6E0",
  "gN c #3767A5FC",
  "jd c #3768A5FF",
  "jO c #3768A6FB",
  "h= c #3868A5E9",
  "h~ c #3868A6FE",
  "'l c #3868A720",
  "gQ c #3869A7FA",
  "gM c #3969A6FF",
  "h, c #3B6AA7F7",
  "jY c #3B6BA6FB",
  "hV c #3D6CA9FE",
  "jN c #3D6DA8FF",
  "z: c #3E3E3621",
  "h< c #40400004",
  "ho c #416FA9F9",
  "9X c #416FAAFF",
  "j5 c #4171ACFF",
  "8M c #4370ABFF",
  "hm c #4471ADFC",
  "j$ c #4573AAFF",
  "jV c #4573ACFC",
  "g/ c #4673ABFA",
  "#] c #4673ACFF",
  "hh c #4D79AEFF",
  "j% c #4E79AFF3",
  "g} c #4E79B1FE",
  "jB c #4F7CB0FF",
  "l_ c #50505030",
  "ji c #5080B8FF",
  "h8 c #527EB4FB",
  "%d c #55550006",
  "z# c #57575729",
  "gI c #583E091D",
  "h! c #5B86B3FF",
  "hr c #5C400B5B",
  "gn c #5C410CC5",
  "j: c #5C410CFF",
  "jX c #5C420A32",
  "jC c #5C84B4DD",
  "hE c #5C88BBFF",
  "gb c #5D3E0C29",
  "h% c #5D410C3F",
  "g] c #5D420B5D",
  "hO c #5D420D65",
  "gE c #5E430C7D",
  "hv c #5E430D26",
  "gD c #5E44091E",
  "j8 c #5E88B4FF",
  "gV c #5F4410FF",
  "gB c #60401020",
  "h6 c #613D0C15",
  "hi c #61460CA5",
  "jm c #628BBAFF",
  "hU c #63460DB6",
  "g~ c #6389B9FF",
  "gH c #64460CA4",
  "g) c #644814ED",
  "hC c #647B9AB8",
  "hk c #654912E0",
  "h1 c #664A15E9",
  "gU c #664B15E8",
  "hc c #664B17F7",
  "gF c #664C16EA",
  "h5 c #674C1AFB",
  "jx c #684D16DB",
  "hw c #688EBAFF",
  "j. c #694D17F6",
  "j2 c #694F1FE5",
  "js c #6991BCFF",
  "h[ c #6A501FF0",
  "j# c #6A92BBFF",
  "jr c #6B4D16F6",
  "j0 c #6B4F1BE1",
  "lI c #6B6B6B4A",
  "jE c #6C511AFA",
  "jU c #6C93BCFF",
  "ju c #6D7E95FA",
  "jZ c #6E5320DF",
  "jM c #6E96C2FF",
  "hB c #6F95BCFF",
  "hQ c #7096BEFF",
  "jF c #735824F9",
  "Al c #739CCAFF",
  "jn c #748294FF",
  "gZ c #7497C1FF",
  "hN c #759BC1FF",
  "hJ c #76684FAB",
  "z@ c #7678735B",
  "j) c #7696BDD8",
  "j7 c #769CC2FF",
  "jj c #775C27F9",
  "g! c #7799C2FF",
  "k$ c #7898C0E3",
  "l` c #79797976",
  "hg c #7A9CC2FF",
  "hf c #7A9FC4FF",
  "h> c #7C9DC3FF",
  "hq c #7C9FC4FF",
  "j@ c #7CA0C5FF",
  "jb c #7D859260",
  "j6 c #7DA5CFFF",
  "gG c #7E683BFF",
  "j_ c #7F97B3FD",
  "jt c #80796AEC",
  "9/ c #80800002",
  "jL c #808D9EFF",
  "S& c #80A3CCFF",
  "z; c #81817C6D",
  "l$ c #8199B8FF",
  "h: c #81A3C6FF",
  "jp c #81A6CEFF",
  "j> c #826835F8",
  "kY c #8298B3FF",
  "h0 c #82A5C9FF",
  "-_ c #84A6C9FF",
  "lP c #8585816F",
  "jK c #86898EFF",
  "h. c #86A6C9FF",
  "ja c #86A8CBFF",
  "k' c #879DBAFF",
  "hu c #896723FB",
  "u. c #8A8A8A23",
  "g^ c #8AA8CAFF",
  "h$ c #8B713FF5",
  "kF c #8B8B8B5A",
  "j+ c #8BADD0FF",
  "hK c #8C7343F8",
  "j; c #8C7D5F89",
  "pM c #8C8C8C14",
  "lN c #8C8C8C9D",
  ";* c #8C8C8CFF",
  "hX c #8CABCBFF",
  "hW c #8CAED2FF",
  "kQ c #8D8D8D38",
  "hD c #8D8D8DF6",
  "j/ c #8D8D8DF9",
  "hM c #8DADCFFF",
  "hI c #8E6820FD",
  "hH c #8E8E8EBC",
  "l- c #8E8E8EF6",
  "j9 c #8EA9CCCD",
  "vR c #8F8F8F29",
  "kc c #8F8F8F7D",
  "hG c #8F8F8FD3",
  "hF c #8F8F8FE8",
  "k+ c #8F8F8FE9",
  "hS c #8F8F8FEC",
  "k| c #8F8F8FF4",
  "l% c #8FA0B5EB",
  "j1 c #90691EFF",
  "HS c #90B1D5FF",
  "lU c #919191EC",
  "<G c #92929207",
  "k2 c #929292CB",
  "hA c #929292DB",
  "l8 c #929292DC",
  "jI c #92ADC9FF",
  "gL c #92AECFFF",
  "jz c #93691BFF",
  "jv c #93938D5C",
  "ky c #939393A7",
  "ld c #939393BF",
  "hZ c #939393C6",
  "hd c #94B3D3FF",
  "h- c #94B3D4FF",
  "g' c #957A42F7",
  "kV c #95938AFD",
  "kW c #95958F29",
  "jH c #959595F1",
  "jc c #959790FF",
  "jJ c #959EA9EE",
  "h; c #95B3D2FF",
  "ht c #967E4FF7",
  "kj c #96886CF8",
  "kD c #96968F49",
  "kx c #96968F6B",
  "a8 c #96969611",
  "lM c #96989194",
  "z+ c #969891F1",
  "k] c #96A7BDC4",
  "kB c #96A8C0FF",
  "l2 c #96A9C1FF",
  "j^ c #979992FB",
  "k{ c #979992FC",
  "k! c #989898E3",
  "4^ c #989992FF",
  "jP c #98AABDFF",
  "jT c #98AEC9A9",
  "gT c #997C41FE",
  "jh c #998C758E",
  "jG c #99988EF7",
  "l) c #9A9C94F4",
  "kt c #9A9C9593",
  "kg c #9AA9B9FF",
  "l= c #9B9D96F2",
  "j! c #9C8F71FF",
  "z$ c #9C9C9C76",
  "kO c #9D9F99E0",
  "l' c #9E9E9EF3",
  "kq c #9F8E6DFA",
  "k} c #9F9F9F08",
  "k1 c #9FA19AC0",
  "gA c #9FB9D5FF",
  "h9 c #9FBAD9FF",
  "h+ c #A0895CF8",
  "l7 c #A0A19BD9",
  "ls c #A0A39CB9",
  "kE c #A1A39CF3",
  "jR c #A299879D",
  "l1 c #A2B4CAFF",
  "kU c #A3B5C9FF",
  "kG c #A4A4A4D6",
  "k8 c #A4B5C9FF",
  "g| c #A4BDD9FF",
  "z- c #A5A5A1B0",
  "kC c #A69D8BBD",
  "l4 c #A6A6A6FA",
  "h] c #A7A7A782",
  "zO c #A7A9A4E8",
  "lv c #A8A8A8FD",
  "lJ c #AAAAAAFA",
  "lH c #ABABABEE",
  "lG c #ABABABF2",
  "kf c #ADBDCFFF",
  "kS c #AEAFAAEF",
  "jA c #AF8C4BFE",
  "ly c #AFAFABFE",
  "l# c #AFBECFFF",
  "lu c #B0B1B3FB",
  "lF c #B1AFACF8",
  "lL c #B1B3AEF1",
  "lb c #B2B2B2FE",
  "k` c #B2C0CFFF",
  "l~ c #B3B3B3F4",
  "kv c #B4B4B4CC",
  "lB c #B4B4B4D0",
  "gY c #B59D67FD",
  "l! c #B5B5B5F8",
  "k= c #B5BEC8FE",
  "j| c #B6B09FFF",
  "h4 c #B78931FF",
  "jq c #B7975AFF",
  "kh c #B7A074FF",
  "h' c #B7B7B780",
  "l+ c #B7C4D4FF",
  "hx c #B98321FF",
  "k> c #BAB19FF8",
  "lx c #BAB3A4FA",
  "j} c #BAB8AEFF",
  "li c #BABABAFA",
  "oZ c #BAC6D4FF",
  "k* c #BAC7D6FE",
  "k. c #BBB8AEFE",
  "l^ c #BBBBBBF1",
  "lK c #BBBBBBFD",
  "j` c #BBC3CAFF",
  "jQ c #BC9A56FF",
  "kz c #BDBEBAF0",
  "j~ c #BDBEBAF7",
  "l3 c #BDC4CDFF",
  "h| c #BE881FFF",
  "z= c #BEBFBCDF",
  "g_ c #BFAE84FE",
  "kw c #BFBAADC4",
  "ln c #BFBFBFF2",
  "lm c #BFC0BCEE",
  "l@ c #BFCBD8FF",
  "gK c #BFD1E4FF",
  "h{ c #C0A267FF",
  "lQ c #C0BEBBFB",
  "lD c #C1B9AAFF",
  "kT c #C1C1C188",
  "lc c #C1C1C1EE",
  "kI c #C1CCD8FF",
  "ku c #C2C2C2BD",
  "je c #C38B21FF",
  "lf c #C3C3C3BC",
  "k7 c #C3CFDBFF",
  "zo c #C4C5C3E9",
  "k5 c #C4D2E05B",
  "k: c #C5B598FF",
  "jD c #C68D21FF",
  "k9 c #C6BCA7FF",
  "lp c #C6C6C6D1",
  "l] c #C6C6C6E7",
  "Wh c #C6C9CCFF",
  "k) c #C6D1DEFF",
  "j{ c #C7C6BFFF",
  "hl c #C8AA74FF",
  "k_ c #C8D2DCFF",
  "h` c #CACACA82",
  ",< c #CACACAFF",
  "kd c #CAD4DEFF",
  "h^ c #CB9023FF",
  "k0 c #CBAD77FF",
  "kr c #CBCCC9F1",
  "hP c #CC9125FF",
  "j< c #CC9327FF",
  "j- c #CCCCCC68",
  "la c #CCCDC9E9",
  "jl c #CD9329FF",
  "l< c #CDD1D7FF",
  "h/ c #CDD1D8CB",
  "h2 c #CFB27FFF",
  "kN c #D0D8E1FF",
  "h3 c #D29F40FF",
  "lz c #D2B6ABFF",
  "z* c #D2D2D1EF",
  "hz c #D3A144FF",
  "l( c #D3D3D2ED",
  "k3 c #D3D3D3AE",
  "l/ c #D3D3D3F0",
  "kP c #D3DBE3FF",
  "h} c #D4A348FF",
  "j' c #D4D6D8FF",
  "RY c #D4DCE5FF",
  "jw c #D5A54CFF",
  "j[ c #D5D4D0FF",
  "jS c #D6A851FF",
  "zX c #D6D6D5EB",
  "jW c #D7B677FF",
  "j= c #D7D7D778",
  "k; c #D8C9ADFF",
  "lW c #D8D4CEFE",
  "l6 c #D8D9D7E4",
  "jg c #D8DDE49E",
  "k6 c #D8E1EDFD",
  "kk c #D9D9D89B",
  "l5 c #D9D9D9A8",
  "l9 c #DADADAAA",
  "k< c #DADBD7EE",
  "lg c #DBDBDB7A",
  "j, c #DCB56EFF",
  "hL c #DCB66EFF",
  "jk c #DCB770FF",
  "z% c #DCDCDCE7",
  "kL c #DCE3EBFF",
  "hy c #DDB56BFF",
  "lC c #DDDCDBE9",
  "l0 c #DDDDDD53",
  "kZ c #DDDDDD97",
  "z. c #DDDDDDF0",
  "j] c #DDE1E6FF",
  "l& c #DEDEDE99",
  "k& c #DEE4EBFF",
  "lt c #E0C3C2FF",
  "h@ c #E0C88BFF",
  "k- c #E0D8CAFF",
  "lh c #E0DDD7D5",
  "g` c #E1D09AFF",
  "h( c #E1E1E1B3",
  "lY c #E2E2E2DA",
  "k% c #E2E9F2FF",
  "h# c #E3D7A5FF",
  "kX c #E3E2DDEA",
  "h_ c #E3E3E387",
  "l| c #E3E3E3F4",
  "*k c #E3E8EDFF",
  "h) c #E5E5E59C",
  ";3 c #E5E5E5FF",
  "N& c #E5E7EAFF",
  "kM c #E5EAEFFF",
  "z& c #E6E6E5F4",
  "l* c #E6E7E6DF",
  "lS c #E7CEC8FF",
  "k@ c #E7E7E7A0",
  "ks c #E7EAEFFF",
  "ko c #E8E9E7EA",
  ":2 c #E9E9E9FF",
  "lq c #EAEAE7A1",
  "lZ c #EBE7E0FE",
  "lT c #EBEBEBF0",
  "l[ c #EBEBEBF5",
  "j* c #ECECEC97",
  "ka c #ECF1F6D9",
  "lV c #EDEDEDDD",
  "l} c #EDEDEDF6",
  "lj c #EEEBE5FF",
  "k# c #EFF4F430",
  "lr c #F0DEDEFF",
  "lw c #F0EDE8FE",
  "k, c #F0F0EFC1",
  "su c #F0F0F0F1",
  "lE c #F1F0EDFE",
  "l; c #F1F1F195",
  "ke c #F1F1F1C4",
  "kl c #F1F1F1C9",
  "kA c #F1F1F1CD",
  "k[ c #F1F1F1D7",
  "lR c #F2F2F1FB",
  "kR c #F2F2F2D2",
  "ll c #F4D2D2FF",
  "kp c #F4F4F444",
  "lA c #F6F1EEFF",
  "l{ c #F6F6F6FA",
  "l> c #F7F6F3F7",
  "lO c #F8F7F6FF",
  "l, c #F9F7F5FF",
  "j& c #F9F9F9A6",
  "k4 c #FAFAFA34",
  "l: c #FAFAFA9C",
  "ki c #FBFBFB43",
  "k( c #FBFBFBFD",
  "le c #FCF9F9FF",
  "kb c #FCFCFC52",
  "kH c #FCFCFC61",
  "j( c #FCFCFC94",
  "lX c #FCFCFCA3",
  "k^ c #FCFCFCAC",
  "kJ c #FCFCFCB5",
  "E_ c #FCFCFDFF",
  "lk c #FDF7F7FF",
  "k~ c #FDFDFD70",
  "l. c #FDFDFD7E",
  "GP c #FDFDFEFF",
  "lo c #FEFEFDF1",
  "kn c #FEFEFEBF",
  "H= c #FEFEFFFF",
  "k/ c #FFFFFFF4",
  "kK c #FFFFFFF9",
  "km c #FFFFFFFE",
  "1U c #FFFFFFFF",
  "   c none",
  
  // Image data
  "    *ofzV8                                          gbgn        ",
  "    gmgMgNgR                                      gBgVj:        ",
  "    gCgZgA9XgS                                  gDgFgGgH        ",
  "    gJ#]gKgL8MgP                              gIgUgYgTgE        ",
  "    gWgQg!g~g^g/g(                          %dg)g_g`g'g]        ",
  "    g[g{g}g|h.hXho=K                        hOh+h@h#h$h%        ",
  "    h&h*h=h-h;h:h>h,'l                    h<h1h2h3h4h5h6        ",
  "    *oG;h7h8h9h0hqhwhe]2                  hrhthyh^huhi          ",
  "      hphahsS&hdhfhghhhj                9/hkhlhzhxhchv          ",
  "      *OhbhnhmHShMhNhBhVhChZhAhShDhFhGhHhJhKhLhPhIhU            ",
  "        hYhThRhEhW-_hQh!h~h/h(h)h_h`h'h]h[h{h}h|j.jX            ",
  "        jo2}2}jOAlj+j@j#j$j%j&j*h_j=j-j;j>j,j<j1j2              ",
  "          j32}j4j5j6hMj7j83pj9j*h_j=j-j0jqjwjejrjtu.            ",
  "            jyju;*jijpjajsjdjfjgh_j=jhjjjkjljzjxjcjv            ",
  "              jb;*jnjmjMjNjBjVjCh_j=jZjAjSjDjFjGjca8            ",
  "              vRjHjJjKjLjPjIjUjYjTjRjEjWjQj!4^j~j^              ",
  "              <Gj/j(j)j_j`Whj'N&j]j[j{j}j|k.kXkokO              ",
  "                k+k@k#k$k%1UGPk&k*k=k-k;k:k>k,k<k1              ",
  "                k2k3k4k5k61U1U*kk7k8k9k0kqkwkekrkt              ",
  "                kykukikpka1U1Ukskdkfkgkhkjkkklkzkx              ",
  "                kckvkbkpknkmH=kMkNoZkBkVkCkZkAkSkD              ",
  "                kFkGkHkpkJkKE_kLkPkIkUkYkTkZkRkEkW              ",
  "                kQk!k~kpk^k/k(RYk)k_k`k'k]kZk[k{k}              ",
  "                pMk|l.kplXlolO;3l+l@l#l$l%l&l*l=                ",
  "                  l-l;kpl:l>l,:2l<l1l2l3l4l5l6l7                ",
  "                  l8l9l0lqlwlelrltlylu,<lilplals                ",
  "                &0ldlflglhljlklllzlxlclvlblnlmlM&^              ",
  "              %.:klNlBlVlClZlAlSlDlFlGlHlJlKlLlP%H%.            ",
  "              &0%HlIlUlYlTlRlElWlQl!l~l^l/l(l)l_@:%.            ",
  "              +j@B&Zl`l'l]l[l{l}l|z.zXzozOz+z@@o:E              ",
  "                  &0%Hz#z$lfz%suz&z*z=z-z;z::k&T                ",
  "                      +j%.@C@B:k&;+>*7&^&T                      "
};
