/* XPM */
const char *xpm_tango_categories_applications_multimedia[] = {
  // Header (width height colors chars-per-pixel)
  "32 32 280 2",
  
  // Colors (code mode value)
  "+j c #00000001",
  "&j c #00000002",
  "%. c #00000004",
  "@C c #00000007",
  ":E c #00000008",
  "*7 c #00000009",
  ":k c #0000000C",
  "&; c #0000000D",
  ":l c #0000000F",
  "@: c #00000010",
  "&Z c #00000011",
  "@m c #00000013",
  "+k c #00000016",
  "=N c #00000018",
  "5U c #0000001B",
  "&) c #0000001C",
  "9b c #0000001E",
  "&V c #0000001F",
  "+g c #00000021",
  ":Q c #00000024",
  ":W c #00000025",
  "er c #00000028",
  "*^ c #0000002E",
  "=( c #00000033",
  "&W c #00000034",
  "*l c #00000035",
  "*G c #00000037",
  "tD c #00000038",
  ",W c #00000039",
  "9c c #0000003A",
  ":h c #0000003B",
  "*/ c #0000003C",
  "3& c #0000003E",
  "*z c #00000043",
  "kD c #00000054",
  "*j c #00000055",
  "gu c #00000058",
  "g8 c #00000059",
  "%J c #000000FF",
  "r> c #010101FF",
  "fU c #04040472",
  "f) c #04040473",
  "ge c #04040476",
  "g9 c #0505056E",
  "JU c #050505FF",
  "g1 c #06060676",
  "c. c #060606FF",
  "go c #07070773",
  "f( c #0A0A0AF3",
  "D) c #0A0A0AFF",
  "f` c #0C0C0CF1",
  "g& c #0C0C0CF7",
  "fI c #0D0D0DE8",
  "g, c #0D0D0DEF",
  "fT c #0E0E0EED",
  "g+ c #0E0E0EEF",
  "fL c #0F0F0F97",
  "fQ c #0F0F0F98",
  "g= c #0F0F0F9D",
  "f~ c #0F0F0FF4",
  "g7 c #1010109D",
  "g6 c #101010DC",
  "f} c #101010F4",
  "%K c #101010FF",
  "f[ c #11111199",
  "g* c #111111DC",
  "fP c #121212D7",
  "fY c #131313BA",
  "fW c #131313BB",
  "f! c #131313D8",
  "f_ c #141414BC",
  "g< c #141414BF",
  "f{ c #151515D8",
  "g- c #161616B6",
  "g2 c #171717BA",
  "gO c #171717BC",
  "f' c #171717F7",
  "g3 c #171717FF",
  "gy c #181818BF",
  "g> c #181818F7",
  "J( c #181818FF",
  "gX c #191919F3",
  "gv c #1A1A1ABC",
  "gw c #1A1A1AF6",
  "%L c #1B1B1BFF",
  "gz c #1C1C1CFD",
  "gx c #1C1C1CFE",
  "gc c #1D1D1DAF",
  "gi c #1D1D1DDE",
  "DJ c #1D1D1DFF",
  "J~ c #1E1E1EFF",
  "fR c #1F1F1FF1",
  "%d c #1F1F1FFF",
  "`h c #202020FF",
  "g@ c #232323F2",
  "JY c #232323FF",
  "u] c #252525F3",
  "gg c #252525FF",
  "gt c #272727FD",
  "`A c #272727FF",
  "f^ c #2A2A2AF7",
  "ai c #2B2B2BFF",
  "gd c #2C2C2CFD",
  "g% c #2D2D2DF7",
  "`! c #2D2D2DFF",
  "gj c #2E2E2EFE",
  "as c #2E2E2EFF",
  "gf c #2F2F2FF7",
  "gs c #303030F6",
  "g: c #313131FD",
  "gp c #313131FE",
  "ap c #323232FF",
  "gr c #333333F1",
  "af c #333333FF",
  "%{ c #363636FF",
  "gk c #37373790",
  "z1 c #383838FF",
  "aa c #393939FF",
  "zd c #3A3A3AFF",
  "': c #3B3B3BFF",
  "ga c #3C3C3C98",
  "gl c #3C3C3C9E",
  "J{ c #3C3C3CFF",
  "g5 c #3D3D3DF2",
  "f| c #3E3E3EF2",
  "gh c #3F3F3FFF",
  "JW c #404040FF",
  "f] c #414141FA",
  "nO c #434343FF",
  "f/ c #4A4A4AFE",
  "ry c #4A4A4AFF",
  "g# c #4B4B4BF9",
  "kv c #4B4B4BFF",
  ":- c #4C4C4CFF",
  "kc c #4D4D4DFF",
  ":+ c #4E4E4EFF",
  "rt c #4F4F4FFF",
  ";] c #505050FF",
  ";E c #515151FF",
  "kx c #525252FF",
  ";D c #535353FF",
  ":e c #545454FF",
  "6[ c #555555FF",
  "6] c #565656FF",
  ":w c #575757FF",
  "fE c #585858F6",
  ":i c #585858FF",
  ">' c #595959FF",
  ":q c #5A5A5AFF",
  "5| c #5B5B5BFF",
  "5{ c #5C5C5CFF",
  "5[ c #5D5D5DFF",
  "gq c #5E5E5EF7",
  ":0 c #5E5E5EFF",
  "l< c #5F5F5FFF",
  ">J c #606060FF",
  ":8 c #616161FF",
  "Q% c #626262FF",
  "rr c #636363FF",
  ":4 c #646464FF",
  ">L c #666666FF",
  "4Y c #676767FF",
  ":; c #686868FF",
  "6/ c #696969FF",
  "Nv c #6A6A6AFF",
  "g4 c #6B6B6BFD",
  ":@ c #6B6B6BFF",
  ">( c #6C6C6CFF",
  "t: c #6D6D6DFF",
  ";[ c #6E6E6EFF",
  "g; c #6F6F6FFC",
  "t1 c #6F6F6FFF",
  "6^ c #707070FF",
  "mT c #717171FF",
  ";W c #727272FF",
  ",c c #737373FF",
  "t4 c #747474FF",
  ";F c #757575FF",
  ",k c #777777FF",
  ";v c #787878FF",
  ",j c #797979FF",
  "g. c #7A7A7AFC",
  "g$ c #7A7A7AFD",
  ",h c #7A7A7AFF",
  "g0 c #7B7B7BFB",
  ">_ c #7C7C7CFF",
  ",z c #7D7D7DFF",
  "=< c #7E7E7EFF",
  "=, c #7F7F7FFF",
  "mk c #808080FF",
  ";@ c #818181FF",
  ",x c #828282FF",
  "t2 c #838383FF",
  "t< c #858585FF",
  "-K c #878787FF",
  "-O c #888888FF",
  "-Y c #898989FF",
  "-v c #8A8A8AFF",
  "mV c #8B8B8BFF",
  ";* c #8C8C8CFF",
  "-i c #8D8D8DFF",
  "-, c #8F8F8FFF",
  "2+ c #909090FF",
  "pb c #919191FF",
  ",7 c #929292FF",
  "=L c #939393FF",
  "=v c #949494FF",
  "<' c #959595FF",
  "2@ c #969696FF",
  ";f c #989898FF",
  "2# c #999999FF",
  ":^ c #9A9A9AFF",
  "<= c #9B9B9BFF",
  "<y c #9E9E9EFF",
  "5, c #A0A0A0FF",
  "6} c #A1A1A1FF",
  ";I c #A2A2A2FF",
  "6| c #A3A3A3FF",
  "=C c #A4A4A4FF",
  "=W c #A5A5A5FF",
  "-6 c #A6A6A6FF",
  "-` c #A9A9A9FF",
  "6' c #ABABABFF",
  "<b c #ACACACFF",
  "<v c #ADADADFF",
  ">F c #B0B0B0FF",
  ";8 c #B4B4B4FF",
  "6{ c #B5B5B5FF",
  "=p c #B6B6B6FF",
  ",S c #B7B7B7FF",
  "9m c #B8B8B8FF",
  ",G c #BABABAFF",
  "5> c #BBBBBBFF",
  ",A c #BCBCBCFF",
  "<W c #BDBDBDFF",
  "<1 c #BEBEBEFF",
  ";= c #BFBFBFFF",
  ";g c #C0C0C0FF",
  ";U c #C1C1C1FF",
  ":= c #C6C6C6FF",
  ">x c #C9C9C9FF",
  ",< c #CACACAFF",
  "+a c #CBCBCBFF",
  "#+ c #CCCCCCFF",
  ",2 c #CDCDCDFF",
  "+v c #D0D0D0FF",
  "+b c #D1D1D1FF",
  ",V c #D2D2D2FF",
  ",n c #D4D4D4FF",
  ":o c #D5D5D5FF",
  ",N c #D6D6D6FF",
  ",b c #D9D9D9FF",
  ",m c #DADADAFF",
  ",v c #DBDBDBFF",
  ",^ c #DCDCDCFF",
  "=b c #DDDDDDFF",
  "=[ c #DEDEDEFF",
  "={ c #DFDFDFFF",
  "+Z c #E1E1E1FF",
  "+A c #E2E2E2FF",
  "+S c #E3E3E3FF",
  "&I c #E4E4E4FF",
  ";3 c #E5E5E5FF",
  ";b c #E6E6E6FF",
  ";G c #E7E7E7FF",
  ":# c #E8E8E8FF",
  ":2 c #E9E9E9FF",
  ",$ c #EAEAEAFF",
  ":, c #EBEBEBFF",
  ":> c #ECECECFF",
  ";9 c #EDEDEDFF",
  ";A c #EFEFEFFF",
  ";T c #F0F0F0FF",
  ";' c #F2F2F2FF",
  ":O c #F3F3F3FF",
  ":3 c #F4F4F4FF",
  "+W c #F6F6F6FF",
  ":9 c #F7F7F7FF",
  ":v c #F9F9F9FF",
  "   c none",
  
  // Image data
  "                                              5UkDfLfPfI=(      ",
  "                                    @C*GfUfYfTfRfE,hpb=<fW      ",
  "                            5U*jfQf!f~f^f/mT+b:#+A:wD)=Lf(      ",
  "                  @C,Wf)f_f`f'f]=L+a+Z4YJWz1,n,n9mr>D)<=u]:W    ",
  "          5U*jf[f{f}f|g.,7=v,k6|=[,N;W%J%J,c,b={-6mV-v;vgX:Q    ",
  "  &ZgogOg+g@g#:4;*#+;A:2%{r>c.:=,n,Nkv:e,j,^;8g$g%g&g*g=*z      ",
  "  g-g;,A;v`!%{asJ(=[+S=Wr>DJ,j;b:,;gkxg:g>g,g<g1*/*7            ",
  "  g2,G:9%d,2kvg36/:2:>6}<'6^g4g5f}g6g7g89b                      ",
  "  g9g0+W%L=[;='::@:^gqgwf`g<ge9c*7                              ",
  "  *^gr;A%L<1;8<ygtgygu9b                                        ",
  "  +jgi%K%L<b;I;f;@JY`!afafafafafafafafafafafafafafafafafgpga    ",
  "    gs;G%L=p,7,7>F,j`A-K-Y;U:,:>,V-v-Y2#:>:O;32+-Y-,;3:v:9gd    ",
  "    gf:#kvJ~J~`hggggghg3%JJU5,,n,N;[%J%JnO+Z&I6'JU%J%d,^:vai    ",
  "    gs;G:2<y,j,j=C,v:#:ot2=,-O=b:2,$6|=,=,,S;T;',<mk=,<=:3gj    ",
  "    gkapJ{J{J{J{J{J{J{J{J{J{J{J{J{J{':aaaaaaJ{J{J{J{J{zdapgl    ",
  "      %Lmk>':q:q5|5|5|:q>'>':i:w:w6]6[6[:e;D;Dkx;E;E;]:4%L      ",
  "      %L=<>':q:q5|5|5|:q5[:4=v:w:w6]6[6[:e;D;Dkx;E;E;]Q%%L      ",
  "      %L>_>'>'t<<v:=>(=<<W2@>x:@6]6]6[:e:e:;kxkx;E;];]:8%L      ",
  "      %L,h:i>'6/6},m,A;9&I={+A-`6]6]6[:e:emkkxkx;E;];]l<%L      ",
  "      %L,k:i:i:i,j,2>(:=>Lt4=,t<6]6[6[:e;Dmkkx;E;E;]rt5[%L      ",
  "      %L;F:w>(t2-i:2t<t<t2t2,x,x,x,x;@;@-i-i=,=,=<;Drt5|%L      ",
  "      %L,c6]6]:w:wQ%:w6]6]-O;vNv6]Nvt4:e>x<16|>',k;]rt:i%L      ",
  "      %L6^6[6[6]6]6]6]6]6[,G,x+v,m;I5>t16{;T+S;v:ertrt6]%L      ",
  "      %Lt::eNv,x,x,x,x,x,x;@;@;@mkmk=,=,;85>=,=<,zkx:+:e%L      ",
  "      %L:@:e:e:e:e:e:e:e:e;D;D;D;Dkxkx;E;E;];]rtrt:+:+;E%L      ",
  "      %L:;;D;D;D;D;D;D;D;D;Dkxkxkx;E;E;E;];]rtrt:+:+kcrt%L      ",
  "      %L>Lkx:;=,=,=,=,=,=,=,=,l<;E;E;];]rtrtrt:+:+kckc:-%L%.    ",
  "    :E%Lrr;E;E;E;E;E;E;E;E;E;E;];];];]rtrt:+:+kckckc:-kv%L&V&Z  ",
  "  &j+kgz>J>Jl<:05[5{5|:q:q>':i:w6[:e;D;E;Ert:+kc:-:-kvrygx&W+g:k",
  "  %.=Ngc%L%L%L%L%L%L%L%L%L%L%L%L%L%L%L%L%L%L%L%L%L%L%L%LgvtD:Q:k",
  "    &;&V*^,W3&3&3&3&3&3&3&3&3&3&3&3&3&3&3&3&3&3&3&3&,W:h*ler@m+j",
  "      %.:l=N&V&V&V&V&V&V&V&V&V&V&V&V&V&V&V&V&V&V&V&V&)=N@:%.    "
};
