/* XPM */
const char *xpm_tango_categories_applications_graphics[] = {
  // Header (width height colors chars-per-pixel)
  "32 32 368 2",
  
  // Colors (code mode value)
  "+j c #00000001",
  "&j c #00000002",
  "&T c #00000003",
  "%. c #00000004",
  "&^ c #00000006",
  "@C c #00000007",
  ":E c #00000008",
  "*7 c #00000009",
  "@B c #0000000A",
  "+> c #0000000B",
  ":k c #0000000C",
  "&; c #0000000D",
  "%H c #0000000E",
  ":l c #0000000F",
  "&Z c #00000011",
  "+r c #00000012",
  "@o c #00000014",
  "+k c #00000016",
  "=N c #00000018",
  "@n c #00000019",
  "5U c #0000001B",
  "*Q c #0000001D",
  "+g c #00000021",
  "&Y c #00000023",
  ":W c #00000025",
  "+N c #00000026",
  "+J c #00000027",
  "tS c #00000029",
  "rn c #0000002A",
  "*F c #0000002B",
  "9) c #0000002C",
  "rF c #0000002D",
  "*^ c #0000002E",
  "&R c #0000002F",
  ":d c #00000030",
  ":s c #00000031",
  "*8 c #00000036",
  "*G c #00000037",
  "*/ c #0000003C",
  "B% c #0000003D",
  "3& c #0000003E",
  "*( c #00000042",
  "!$ c #00000047",
  "*_ c #00000049",
  "u' c #000000B8",
  "u( c #000000CD",
  "%J c #000000FF",
  "J' c #030303FF",
  "i. c #05050533",
  "u{ c #0707074D",
  "J^ c #121212FF",
  "a% c #15151524",
  "iX c #1515153D",
  "uQ c #171717E4",
  "uI c #1A1A1A32",
  "%L c #1B1B1BFF",
  "J~ c #1E1E1EFF",
  "p- c #204A87FF",
  "n; c #20508010",
  "yX c #214B87FF",
  "yu c #214C88F2",
  "u[ c #222222B2",
  "t} c #224D8A7E",
  "y+ c #234A8483",
  "y; c #234E8BCA",
  "u] c #252525F3",
  "y. c #264B84FE",
  "y@ c #26518CCA",
  "t{ c #274E890D",
  "y9 c #284C83FF",
  "t| c #294D84E0",
  "yo c #2A4E83FF",
  "ai c #2B2B2BFF",
  "uF c #2C2C2C45",
  "y- c #2E5D98F5",
  "yO c #2F4A76FA",
  "JI c #303030FF",
  "u) c #313131BD",
  "uU c #313131F5",
  "uM c #3333330A",
  "u} c #3939396F",
  "zd c #3A3A3AFF",
  "J{ c #3C3C3CFF",
  "y# c #3C669EF8",
  "uN c #3E3E3E3A",
  "u~ c #40404018",
  "y= c #4174AEFF",
  "u_ c #44444461",
  "u! c #454545FC",
  "yy c #46688CFF",
  "y3 c #467CB6FF",
  "uG c #474747ED",
  "y{ c #4772A0FF",
  "y2 c #4C81BAFF",
  "kc c #4D4D4DFF",
  "uY c #4E4E4EFC",
  ":+ c #4E4E4EFF",
  "yg c #4F5967A1",
  "y* c #4F81B8FF",
  ";E c #515151FF",
  "uH c #525252FE",
  "kx c #525252FF",
  "yt c #53677DFF",
  "y[ c #537EADFF",
  "y1 c #5386BDFF",
  "y0 c #547499FF",
  "yv c #552B0006",
  "Kz c #55550003",
  ",/ c #55555506",
  "u. c #55555512",
  "uW c #57575723",
  "yq c #576B82FF",
  "2A c #58585820",
  "yW c #5882AFFF",
  "uA c #59595914",
  "yc c #5959594D",
  "up c #5959596D",
  "u* c #5A5A5A30",
  ":q c #5A5A5AFF",
  "ux c #5B5B5BFC",
  "ye c #5B6775FF",
  "yr c #5B6878FF",
  "y% c #5B8ABFFF",
  "u3 c #5C5C5C4E",
  "io c #5C5C5CEB",
  "kY c #5C5C5CFC",
  "un c #5C5C5CFD",
  "5{ c #5C5C5CFF",
  "yw c #5C6979FF",
  "uj c #5D5D5D8F",
  "y~ c #5E5E5EF8",
  "iO c #5F5F5FB6",
  "uD c #5F5F5FEF",
  "u^ c #5F5F5FF2",
  "uh c #5F5F5FF5",
  "l< c #5F5F5FFF",
  "yE c #5F8BBAFF",
  "1x c #60606008",
  "yB c #606060C7",
  ">J c #606060FF",
  "yQ c #6083AAFF",
  "y, c #6090C4FF",
  "yH c #616161E2",
  "u8 c #616161EC",
  "uc c #626262B6",
  "um c #626262D6",
  "Q% c #626262FF",
  "u> c #636363E1",
  "rr c #636363FF",
  "y| c #636669F9",
  "y7 c #6437091C",
  "u/ c #646464CF",
  "uS c #646464F8",
  ":4 c #646464FF",
  "u# c #656564D9",
  "yh c #6633000A",
  "t~ c #66390655",
  "yU c #665A4EFC",
  "t` c #673806F4",
  "t_ c #6738074D",
  "u: c #673906EF",
  "yV c #673907B2",
  "yb c #673907C4",
  "yp c #673907DE",
  "tW c #673907F5",
  "tR c #673A0654",
  "t^ c #673A06F6",
  "u@ c #673A07E6",
  "tY c #673A0861",
  "t) c #673A0939",
  "y' c #675E56F3",
  "y8 c #683907E7",
  "tT c #683908DB",
  "yJ c #683A069F",
  "yj c #683A06D3",
  "tE c #683A0860",
  "yK c #693907F4",
  "yC c #693A07F6",
  "y4 c #6A390724",
  "yn c #6A3B07F7",
  "y` c #6A3B07F8",
  "t[ c #6A3C0795",
  "uE c #6A6A6AF5",
  "y6 c #6A96C5FF",
  "yi c #6B360D13",
  "yR c #6B97C7FF",
  "uP c #6C6C6CF5",
  "y: c #6C9ACCFF",
  "t( c #6E3D07F5",
  "yk c #6E3D08F8",
  "u+ c #6E3D08FD",
  "t! c #6E3E08BE",
  "y& c #6F9AC6FF",
  "u7 c #70543440",
  "yz c #716A64FF",
  "u& c #71777EF4",
  "u| c #727272F5",
  "ya c #734008FB",
  "y/ c #73522EF9",
  "uR c #747474F3",
  "yS c #755F47FF",
  "u` c #757575F6",
  ";F c #757575FF",
  "uJ c #757675FD",
  "y$ c #7A9DC5FF",
  "y< c #7BA1CAFF",
  "u; c #7E664AFE",
  "uT c #80807D85",
  "<F c #80808006",
  "t@ c #8080800C",
  "uB c #80827DEB",
  "u2 c #808993F6",
  "y^ c #827A6EE1",
  "ug c #85837A77",
  "ys c #87613DFF",
  "r= c #8888822D",
  "eB c #888A85FF",
  "t+ c #888B854B",
  "r$ c #8989891A",
  "ub c #898B86D9",
  "uf c #898B86FA",
  "2c c #898C8652",
  "uZ c #8A8B87C0",
  "ua c #8A8C8692",
  "uL c #8A8C879F",
  "uz c #8A8C87EB",
  "u4 c #8A8D88D4",
  "rE c #8B8B8321",
  "uK c #8B8C88FC",
  "u= c #8B8D87F3",
  "tQ c #8C5214FF",
  "u1 c #8CA5C0FF",
  "yx c #8D8D8DF8",
  "T[ c #8E8E8012",
  "uX c #8E8E86FF",
  "ui c #8E98A5FB",
  "t] c #8F4E09F5",
  "yM c #92683CFF",
  "Me c #96B7DBFF",
  "uv c #989995F3",
  "uC c #989995F5",
  "uy c #98AABCFF",
  "u% c #9AAFC7FF",
  "y5 c #9AB6D4FF",
  "<= c #9B9B9BFF",
  "yd c #9B9C9CFF",
  "2> c #9BBBDDFF",
  "u- c #9C9B95FE",
  "t' c #9D570BFF",
  "t/ c #9F580CFF",
  "1A c #9FA09DF7",
  "yI c #A0590BFF",
  "u6 c #A0A19DFD",
  "uk c #A1A3A0F6",
  "=U c #A2BFDFFF",
  "g4 c #A2C0DFFF",
  "y( c #A3590BFF",
  "uu c #A3B3C6FF",
  "ul c #A5A6A4FB",
  "g% c #A5C2E0FF",
  "y_ c #A75C0CFF",
  "y} c #A7BACEFF",
  "uo c #A9875FFF",
  "cW c #AAAAAA03",
  "yf c #ABABACFF",
  "yL c #AC5E0DFF",
  "uO c #AC600DFF",
  "ud c #ACADABFE",
  "ut c #ACB9C8FF",
  "'Q c #ADC7E3FF",
  ",Z c #AEAEAEFF",
  "tz c #AFAFAFFF",
  "y> c #B0C4DAFF",
  "u< c #B0CAE4FF",
  "<s c #B3B3B3FF",
  "yZ c #B4630DFF",
  ";8 c #B4B4B4FF",
  "us c #B5B5B3F8",
  "6{ c #B5B5B5FF",
  "=p c #B6B6B6FF",
  "y] c #B6CDE7FF",
  ",S c #B7B7B7FF",
  "9m c #B8B8B8FF",
  "ym c #BB670EFF",
  "5> c #BBBBBBFF",
  "yl c #BC6A13FF",
  "yN c #BCBCBBFF",
  "ur c #BCC7D2FF",
  "<W c #BDBDBDFF",
  "<1 c #BEBEBEFF",
  "3n c #BED0E3FF",
  ";= c #BFBFBFFF",
  "u$ c #BFD1E5FF",
  ";g c #C0C0C0FF",
  "u, c #C0D3E7FF",
  "1K c #C0D4EAFF",
  ";Z c #C2C2C2FF",
  ":* c #C3C3C3FF",
  "yY c #C3D1DEFF",
  "]5 c #C3D6EAFF",
  ":6 c #C4C4C4FF",
  "y! c #C4CED9FF",
  ";Y c #C5C5C5FF",
  ":= c #C6C6C6FF",
  "ue c #C7D0DAFF",
  ":7 c #C8C8C8FF",
  ",< c #CACACAFF",
  "u5 c #CACBCAFD",
  "#+ c #CCCCCCFF",
  ",2 c #CDCDCDFF",
  ";_ c #CECECEFF",
  "C] c #CFDEEFFF",
  "+v c #D0D0D0FF",
  "u0 c #D1DEEBFF",
  "g> c #D2D2D1FF",
  ",V c #D2D2D2FF",
  ",, c #D3D3D3FF",
  ",n c #D4D4D4FF",
  "yG c #D4D5D7FF",
  "yA c #D57510FF",
  ":o c #D5D5D5FF",
  "uw c #D5DEE6FF",
  "u9 c #D6E0ECFF",
  ",M c #D7D7D7FF",
  "yF c #D7DADDFF",
  ",B c #D8D8D8FF",
  ",b c #D9D9D9FF",
  "yP c #DB7810FF",
  ",v c #DBDBDBFF",
  ",^ c #DCDCDCFF",
  "uq c #DCE4ECFF",
  "=b c #DDDDDDFF",
  "yT c #DEE9F4FF",
  "={ c #DFDFDFFF",
  "y) c #E07B11FF",
  "+Z c #E1E1E1FF",
  "+A c #E2E2E2FF",
  "+S c #E3E3E3FF",
  "uV c #E4E5E4FE",
  ";3 c #E5E5E5FF",
  ";b c #E6E6E6FF",
  ";G c #E7E7E7FF",
  ":# c #E8E8E8FF",
  ":2 c #E9E9E9FF",
  ",$ c #EAEAEAFF",
  ":, c #EBEBEBFF",
  "yD c #EBEDEFFF",
  ":> c #ECECECFF",
  ";9 c #EDEDEDFF",
  ":< c #EEEEEEFF",
  ";T c #F0F0F0FF",
  ";` c #F1F1F1FF",
  ";' c #F2F2F2FF",
  ":O c #F3F3F3FF",
  ":3 c #F4F4F4FF",
  "=a c #F5F5F5FF",
  "+W c #F6F6F6FF",
  ":9 c #F7F7F7FF",
  ";R c #F8F8F8FF",
  ":v c #F9F9F9FF",
  ":5 c #FAFAFAFF",
  ";Q c #FBFBFBFF",
  "s` c #FBFCFCFF",
  ";7 c #FCFCFCFF",
  "=q c #FDFDFDFF",
  "=w c #FEFEFEFF",
  "1U c #FFFFFFFF",
  "   c none",
  
  // Image data
  "                                                  tYtTtR        ",
  "                                                tEtWtQt!        ",
  "                                              t~t^t/t(t)        ",
  "                                            t_t`t't]t[          ",
  "                                      t{t}t|y.yXyoyOy+n;        ",
  "                                      y@y#y$y%y&y*y=y-y;        ",
  "                                      p-y:y>y,y<y1y2y3p-        ",
  "                                    y4p-y:y5y,y6y1y2y3p-        ",
  "                                  y7y8y9y0yqywyeyrytyyyu        ",
  "                                yiypyaysyd;':v=q;7=ayfyg        ",
  "                              yhyjykylyz;71U=w;Q:5=q=wyxyc      ",
  "                            yvybynymyMyN;Q;7:<={,b,n=b;_yB      ",
  "                          KzyVyCyZyAyS,,:5s`yDyFyG,n,V,vyH      ",
  "                          yJyKyLyPyIyUyY]5yTg%yRyEyWyQy!y~      ",
  "                      t@y^y/y(y)y_y`y'3ny]C]g4yRyEy[y{y}y|u.    ",
  "                      2ceBuXuouOu+u@u#u$'Q1K2>yRyEy[y{u%u&u*    ",
  "                    rEu=g>;bu-u;u:y4u>u,=Uu<MeyRyEy[y{u1u2u3    ",
  "                  <Fu4u5;3+Su6eBu7  u8u9u0uquwueurutuyuuuiup    ",
  "                  uaus:5+AudufugT[  uh:O:3;T:2={,b,n;_,B;8uj    ",
  "                t+uk:v+Suluzr=      ux:9;';9=b;Y;Z#+;_,n:6uc    ",
  "              r$uv+W;b1Aubr$      1xun:v;`:otz,Z,Z,Z;g+v+vum    ",
  "          uMuNuBuV:#uCuZt@        uAuS:v;3,S=p6{;8;8<s:=,^uD    ",
  "        uFuG;FuHuJuKuLcW          2AuP;R;_:6;Z;g;=<W5>5>;3kY,/  ",
  "      uIuU5{<=Q%uYuT              u*uR:,,<:7;Y:*;g<15>9m,buEuW  ",
  "  +j*QuQ:+kxkc;Eu!a%@o@o+r&Z%H:ku~u^>J:4:4:4rrrrrrrrrrrr:4l<u/  ",
  "&;@nu(%LaiJIzdJ{u):d:d&R9)tS:W&Yu_u`;`;`;`;`;T:<:>,$:#;G;3+A:q  ",
  "+ku'%JJ'J^J~u]u[u{!$!$*(*/*G*8*Gu}u|+A+Z={=b,v,b,M:o,n,V+v,2:q:E",
  "+r:s3&*_B%i.+Jrn9)rFrF9)rn*F*^:siXio:q:q:q:q:q:q:q:q:q:q:q:qiO:k",
  "    +j&j%.&^@C*7+>:k+>@B*7@C+>&Z+k5U+g+N*F&R:s:s*^*F+N+g5U@o:k&T",
  "                                &j&^@B:l+r+k=N+k@o&Z&;:E%.+j    ",
  "                                                                ",
  "                                                                "
};
