/* XPM */
const char *xpm_tango_categories_preferences_desktop[] = {
  // Header (width height colors chars-per-pixel)
  "32 32 113 2",
  
  // Colors (code mode value)
  "+j c #00000001",
  "&T c #00000003",
  "&0 c #00000005",
  "&^ c #00000006",
  "@C c #00000007",
  ":E c #00000008",
  "@B c #0000000A",
  "+> c #0000000B",
  "&; c #0000000D",
  "%H c #0000000E",
  ":l c #0000000F",
  "&Z c #00000011",
  "*Q c #0000001D",
  "&V c #0000001F",
  "&A c #00000020",
  "&Y c #00000023",
  "tS c #00000029",
  "*^ c #0000002E",
  "D] c #353636FF",
  "ZK c #3F4243FF",
  "ZL c #494E50FF",
  "ZP c #525A5DFF",
  "ZI c #5C676AFF",
  "<, c #66666605",
  "ZU c #667377FF",
  "4Y c #676767FF",
  "Nv c #6A6A6AFF",
  ";[ c #6E6E6EFF",
  "mT c #717171FF",
  ";W c #727272FF",
  "ZB c #75757518",
  "ZG c #77777769",
  "ZS c #787878C3",
  "ZN c #787878F0",
  ";v c #787878FF",
  "ZH c #79797915",
  "Zb c #7979793F",
  "ZD c #797979B7",
  "Zn c #797979D0",
  "ZV c #797979F2",
  "=1 c #7B7B7BFF",
  "ZJ c #7C7C7C21",
  "=< c #7E7E7EFF",
  "Vj c #868686F2",
  "-K c #878787FF",
  "ZA c #8A8A8A90",
  "2+ c #909090FF",
  "pb c #919191FF",
  "ZF c #929292EB",
  "ZT c #949494C6",
  ",F c #979797FF",
  "ZM c #9898982F",
  ";f c #989898FF",
  "ZC c #9999996B",
  "ZY c #999999C0",
  "2# c #999999FF",
  ":^ c #9A9A9AFF",
  "<= c #9B9B9BFF",
  "<m c #9F9F9FFF",
  "6} c #A1A1A1FF",
  "Zm c #A2A2A229",
  "ZZ c #A3A3A35E",
  "<b c #ACACACFF",
  "<v c #ADADADFF",
  ",Z c #AEAEAEFF",
  ";8 c #B4B4B4FF",
  "6{ c #B5B5B5FF",
  "=p c #B6B6B6FF",
  "9m c #B8B8B8FF",
  ",G c #BABABAFF",
  ",A c #BCBCBCFF",
  ",2 c #CDCDCDFF",
  ";_ c #CECECEFF",
  "+c c #CFCFCFFF",
  "+v c #D0D0D0FF",
  "+b c #D1D1D1FF",
  ",V c #D2D2D2FF",
  ",, c #D3D3D3FF",
  ",n c #D4D4D4FF",
  ":o c #D5D5D5FF",
  ",N c #D6D6D6FF",
  ",M c #D7D7D7FF",
  ",B c #D8D8D8FF",
  ",m c #DADADAFF",
  "=b c #DDDDDDFF",
  "=[ c #DEDEDEFF",
  "&_ c #E0E0E0FF",
  "+A c #E2E2E2FF",
  "+S c #E3E3E3FF",
  ";3 c #E5E5E5FF",
  ";G c #E7E7E7FF",
  ":# c #E8E8E8FF",
  ":2 c #E9E9E9FF",
  ",$ c #EAEAEAFF",
  ":, c #EBEBEBFF",
  ":> c #ECECECFF",
  ";9 c #EDEDEDFF",
  ":< c #EEEEEEFF",
  ";A c #EFEFEFFF",
  ";T c #F0F0F0FF",
  ";` c #F1F1F1FF",
  ";' c #F2F2F2FF",
  ":O c #F3F3F3FF",
  ":3 c #F4F4F4FF",
  "c` c #F5F5F4FF",
  "=a c #F5F5F5FF",
  "+W c #F6F6F6FF",
  ";R c #F8F8F8FF",
  ":v c #F9F9F9FF",
  ";Q c #FBFBFBFF",
  "=w c #FEFEFEFF",
  "1U c #FFFFFFFF",
  "   c none",
  
  // Image data
  "                                                                ",
  "                                                                ",
  "                                                                ",
  "                                                                ",
  "                                                                ",
  "    <m<m<m<m<m<m<m<m<m<m<m<m<m<m<m<m<m<m<m<m<m<m<m<m<m<m<m<m<m  ",
  "    <m:3;A;A;A;A;A;A;A;A;A;A;A;A;A;A;A;A;A;A;A;A;A;A;A;A;A:2<m  ",
  "    <m<m<m<m<m<m<m<m<m<m<m<m<m<m<m<m<m<m<m<m<m<m<m<m<m<m<m<m<m  ",
  "      ZbZnZmZmZmZmZmZmZmZmZmZmZmZmZmZmZmZmZmZmZmZmZmZmZMZNZB    ",
  "      <,ZVZCZZZZZZZZZZZZZZZZZZZZZZZZZZZZZZZZZZZZZZZZZZZAZS      ",
  "        ZDZF6}6}6}6}6}6}6}6}6}6}6}6}6}6}6}6}6}6}6}6}6}VjZG      ",
  "        ZG-K9m<b<m<m<m<b9m9m9m9m9m9m9m9m9m<b<m<m<m<b=p=1ZH      ",
  "        ZJ;v;v<m,N=b,N<m;v;v;v;v;v;v;v;v;v<m,N=b,N<m;v=<        ",
  "          <=:2<vpbpbpb,Z+v+v+b+b+b,V+v+v+c<v2+2+2+<b:#<=        ",
  "          <=;G,2;_;_+c+c+v+v+b+b+b+b+b+b+b+b+b+v+v+c:#<=        ",
  "          <=;G;_+c,G;8;8;86{6{=p=p=p=p,A,,,,,V,V+b+b:#<=        ",
  "          <=;G+c+c+v+b,V,,,,,n,n:o:o:o:o:o,n,n,n,,,V;G<=        ",
  "          <=:v+S2#2#;f;f,F;3;3+S+A&_=[,m,M,N,N:o:o,n;G<=        ",
  "          <=1U;G<=c`c`c`<=;9;9mTmT;W;A;A;9;[Nv4Y,N:o;G<=        ",
  "          <=1U:#<=c`c`c`<=:<;AD]D]D];T;T;TD]D]D]+S,B;G<=        ",
  "          <=1U:2<=<=<=<=<=;T;`ZKZKZK;';';'ZKZKZK;A:>;T<=        ",
  "          <=1U,$:>ZLZLZL;T;`;'ZLZLZL:3:3:3ZLZLZL;`;A=w<=        ",
  "          <=1U:,;9ZPZPZP;':O<=<=<=<=<=+W<=<=<=<=<=;`1U<=        ",
  "          <=1U:>;9ZIZIZI:O:3<=c`c`c`<=;R<=c`c`c`<=;'1U<=        ",
  "          <=1U;9:<ZUZUZU:3=a<=c`c`c`<=:v<=c`c`c`<=:O1U<=+>      ",
  "        @B<=1U;9:<;T;':O=a+W<=<=<=<=<=;Q<=<=<=<=<=:O1U<=&V:E    ",
  "        &Z:^1U1U1U1U1U1U1U1U1U1U1U1U1U1U1U1U1U1U1U1U1U:^tS%H    ",
  "        &;ZY<=<=<=<=<=<=<=<=<=<=<=<=<=<=<=<=<=<=<=<=<=ZT&Y&0    ",
  "          :l&AtS*^*^*^*^*^*^*^*^*^*^*^*^*^*^*^*^*^tStS*Q&^      ",
  "            +j&0@C@C@C@C@C@C@C@C@C@C@C@C@C@C@C@C@C&0&T          ",
  "                                                                ",
  "                                                                "
};
