/* XPM */
const char *xpm_tango_categories_preferences_desktop_peripherals[] = {
  // Header (width height colors chars-per-pixel)
  "32 32 454 2",
  
  // Colors (code mode value)
  "+j c #00000001",
  "&T c #00000003",
  "%. c #00000004",
  "&0 c #00000005",
  "&^ c #00000006",
  "*7 c #00000009",
  "+> c #0000000B",
  ":k c #0000000C",
  "&; c #0000000D",
  "%H c #0000000E",
  "@m c #00000013",
  "=N c #00000018",
  "9b c #0000001E",
  "&A c #00000020",
  "2o c #33333305",
  "Zv c #39393948",
  "Z8 c #3E3E3E1D",
  "8] c #40404004",
  "Zg c #40404014",
  "V( c #4646460B",
  "Zh c #4646467F",
  "Zc c #4A4A4AAF",
  "5R c #4D4D4D1E",
  "Zw c #4D4D4D2B",
  "Zt c #4D4D4D3F",
  "Zp c #4D4D4D67",
  "Zf c #4D4D4DB0",
  "rp c #4E4E4E55",
  "Zj c #4E4E4ECD",
  "CR c #4F4F4F67",
  "Cq c #50505046",
  "Zk c #505050F1",
  "Zz c #505050F9",
  "Zl c #505050FC",
  "Zi c #515151AE",
  "Zx c #515151EA",
  "Zy c #52525276",
  "Zq c #525252BE",
  "Za c #525252F6",
  "Z9 c #535353A5",
  "9d c #535353F8",
  "Z; c #535353FC",
  "Cj c #54545494",
  "Z- c #545454EA",
  "C- c #555555DD",
  "C| c #555555E6",
  "CB c #565656E3",
  "C_ c #575757BB",
  ":w c #575757FF",
  "C= c #5A5A5A3E",
  "V) c #5A5A5AB0",
  "V_ c #5A5A5AE0",
  "V] c #5B5B5BEB",
  "Zd c #5C5C5CF7",
  "k! c #5D5D5CFF",
  "Ze c #5D5D5DF1",
  "Z7 c #6060604A",
  "C0 c #62626253",
  "}w c #63636324",
  "Zr c #636363F3",
  "<` c #656565F6",
  ">L c #666666FF",
  "V' c #676767F1",
  "V` c #686868F6",
  "Z6 c #69696977",
  "CV c #6A6A69FF",
  "CK c #6A6A6AF7",
  "Ch c #6B6B6B64",
  "4E c #6D6D6D07",
  "VL c #6D6D6D6E",
  "Z= c #6D6D6D85",
  "Vp c #6E6E6E4A",
  "VM c #6E6E6E5D",
  "CN c #6E6E6E79",
  "B! c #6F6F6F17",
  "BL c #70707030",
  "V4 c #70707039",
  "6^ c #707070FF",
  "<V c #71717109",
  "FU c #717171FD",
  "CJ c #72727294",
  "Z< c #727272F8",
  "VJ c #727272FB",
  "Vb c #737372F9",
  "Bn c #737372FE",
  "VO c #73737328",
  "Z5 c #737373A2",
  "BA c #737373F6",
  "Z& c #737373F9",
  ",c c #737373FF",
  "Z1 c #747373F6",
  "Z, c #747474F5",
  "mw c #747474F6",
  "V/ c #757574F4",
  "Vy c #757575E9",
  "Zu c #757575F8",
  ";F c #757575FF",
  "C` c #767674FF",
  "Z* c #767675DD",
  "Z3 c #767675E0",
  "Bb c #7676766E",
  "BW c #7676769C",
  "CT c #767676B1",
  "Z4 c #767676C6",
  "C} c #767676DE",
  "Z> c #767676E8",
  "Z2 c #767676EC",
  "B~ c #767676F6",
  ",l c #767676FF",
  "V1 c #777776D8",
  "BK c #777777A9",
  "C) c #777777CA",
  "Z: c #777777D7",
  "VX c #787878BF",
  ";v c #787878FF",
  "C: c #7A7978FF",
  "C* c #7D7D7CF3",
  ",z c #7D7D7DFF",
  "Zs c #7E7E7EF8",
  "@> c #80808002",
  "<F c #80808006",
  "r} c #80808008",
  "V[ c #808080FE",
  "V+ c #818180F3",
  "Bm c #8383818C",
  "t< c #858585FF",
  "ri c #86868615",
  "c! c #8888880F",
  "-O c #888888FF",
  "Z% c #8A8988F2",
  "C9 c #8A8A89F2",
  "uJ c #8A8A8A5E",
  "Cw c #8B8B8BF4",
  "V5 c #8C8C8BF2",
  "pM c #8C8C8C14",
  "BG c #8C8C8CED",
  "BV c #8D8D8DB8",
  "-i c #8D8D8DFF",
  "BD c #8E8E8E90",
  "BM c #8E8E8EAE",
  "Bl c #8E8E8EC6",
  "Bg c #8E8E8EE4",
  "Bd c #8F8F8FD4",
  "Be c #909090C4",
  "2+ c #909090FF",
  "Br c #9191917D",
  "pb c #919191FF",
  ",K c #939393FE",
  "Cl c #959491FF",
  "3B c #9595951D",
  "C; c #959595F5",
  "<' c #959595FF",
  "Vl c #969695FF",
  "Bh c #96969622",
  "Bx c #969696F4",
  "2@ c #969696FF",
  "Bv c #97979731",
  "l9 c #989897FF",
  "Bj c #9898982A",
  "+o c #9999990A",
  "Va c #9A9A99F2",
  "Bc c #9A9A9A49",
  "V* c #9B9B99FF",
  "Vj c #9B9B9AFF",
  "V: c #9C9B9AFF",
  "Cg c #9C9C9AF5",
  "BC c #9C9C9C24",
  "5^ c #9D9D9BFF",
  "B] c #9F9F9DFF",
  "k} c #9F9F9F08",
  "BZ c #9F9F9F8F",
  "<m c #9F9F9FFF",
  "BF c #A0A0A0F4",
  "VA c #A2A2A0FF",
  "BJ c #A3A3A340",
  "VN c #A4A4A2F5",
  "B| c #A4A4A2FF",
  "<: c #A4A4A3FF",
  "BH c #A4A4A4AD",
  "=C c #A4A4A4FF",
  "CW c #A5A4A1FF",
  "Bs c #A5A5A511",
  "=W c #A5A5A5FF",
  "Z$ c #A6A6A3FA",
  "B6 c #A6A6A614",
  "Bf c #A6A6A6FC",
  "-V c #A7A7A7FF",
  "VR c #A8A7A5FF",
  "B} c #A8A8A6FF",
  "BI c #A8A8A89F",
  "BN c #A8A8A8F6",
  "CE c #A8A8A8F8",
  "<Q c #A8A8A8FF",
  "-` c #A9A9A9FF",
  "cW c #AAAAAA03",
  "B1 c #AAAAAA1B",
  "Bw c #AAAAAA51",
  "BP c #AAAAAA75",
  ",C c #AAAAAAFF",
  "V8 c #ABAAA9FF",
  "B5 c #ABABAB3D",
  "Z0 c #ABABABFE",
  "Bt c #ACACAC2E",
  "Vn c #ACACAC4D",
  "Vi c #ACACAC69",
  "Bp c #ACACAC84",
  "Vu c #ACACAC96",
  "Vm c #ACACACB2",
  "Bi c #ACACACBF",
  "VK c #ACACACD1",
  "BQ c #ACACACDC",
  "V2 c #ACACACE0",
  "Vo c #ACACACFD",
  "<b c #ACACACFF",
  "V3 c #ADADAD1F",
  "B4 c #ADADAD41",
  "Bq c #ADADAD7F",
  "B0 c #ADADADAE",
  "B9 c #ADADADDC",
  "B8 c #ADADADDE",
  "Bu c #ADADADE4",
  "By c #ADADADFC",
  "<v c #ADADADFF",
  "CM c #AEADABFC",
  "Vk c #AEAEABFF",
  "B2 c #AEAEAE26",
  "B3 c #AEAEAE2F",
  "Ba c #AEAEAE42",
  "B7 c #AEAEAE5E",
  "Bk c #AEAEAE8A",
  ",Z c #AEAEAEFF",
  "C5 c #AFAFAAFF",
  "V; c #AFAFACFF",
  "VP c #AFAFAEF9",
  "tz c #AFAFAFFF",
  "C@ c #B1B1ADFF",
  ":& c #B1B1B1FF",
  "Vq c #B2B2B0FF",
  "Bz c #B2B2B2F7",
  "<# c #B2B2B2FF",
  "<s c #B3B3B3FF",
  ";8 c #B4B4B4FF",
  "=p c #B6B6B6FF",
  "B; c #B7B7B6FF",
  ",S c #B7B7B7FF",
  "BB c #B8B8B8F9",
  "9m c #B8B8B8FF",
  "CH c #B9B9B6FF",
  "5X c #B9B9B9FF",
  ",G c #BABABAFF",
  "V9 c #BBBBB8FF",
  "5> c #BBBBBBFF",
  "Ca c #BCBBB6FF",
  "BE c #BCBBB9FE",
  "V= c #BCBCB8FF",
  "V0 c #BCBCB9FF",
  ",A c #BCBCBCFF",
  "VQ c #BDBCB7FF",
  "V- c #BDBDB9FF",
  "<W c #BDBDBDFF",
  "B[ c #BEBEBAFF",
  "BR c #BEBEBCFF",
  "<1 c #BEBEBEFF",
  "C4 c #BFBDB8FF",
  ";= c #BFBFBFFF",
  "C7 c #C0BEB9FF",
  "C$ c #C0BFB9FF",
  "V{ c #C0C0BDFF",
  ";g c #C0C0C0FF",
  ";U c #C1C1C1FF",
  "C3 c #C2C1BCFF",
  "CY c #C2C1BEFF",
  "C6 c #C2C2BFFF",
  ";Z c #C2C2C2FF",
  "C% c #C3C1BCFF",
  ":* c #C3C3C3FF",
  "Ce c #C4C3BEFF",
  ":6 c #C4C4C4FF",
  "C+ c #C5C4BEFF",
  ";Y c #C5C5C5FF",
  "C# c #C6C5C1FF",
  ":= c #C6C6C6FF",
  "Vz c #C7C6C1FF",
  ",1 c #C7C7C7FF",
  "CX c #C8C6C2FF",
  "Cb c #C8C7C2FF",
  ":7 c #C8C8C8FF",
  "Cd c #C9C8C3FF",
  ">x c #C9C9C9FF",
  "Vh c #CAC8C4FF",
  "CD c #CAC9C4FF",
  "VT c #CAC9C5FF",
  ",< c #CACACAFF",
  "V~ c #CBC9C3FF",
  "CO c #CBC9C4FF",
  "C2 c #CBC9C5FF",
  "CS c #CBCAC5FF",
  "CA c #CBCAC6FF",
  "CZ c #CBCBC6FF",
  "Z# c #CBCBC7FF",
  "+a c #CBCBCBFF",
  "V^ c #CCCAC5FF",
  "C( c #CCCAC7FF",
  "V& c #CCCBC6FF",
  "#+ c #CCCCCCFF",
  "B{ c #CDCDCAFF",
  ",2 c #CDCDCDFF",
  "V$ c #CECCC7FF",
  "V# c #CECDC8FF",
  ";_ c #CECECEFF",
  "CL c #CFCEC8FF",
  "Cr c #CFCEC9FF",
  "V@ c #CFCFCAFF",
  "V. c #CFCFCBFF",
  "Ck c #CFCFCFFE",
  "+c c #CFCFCFFF",
  "C, c #D0CECAFF",
  "VW c #D0CFCAFF",
  "Vg c #D0CFCBFF",
  "VU c #D0D0CBFF",
  "Cs c #D0D0CCFF",
  "+v c #D0D0D0FF",
  "BS c #D1D0CBFF",
  "VV c #D1D0CCFF",
  "V! c #D1D0CDFF",
  "Vf c #D1D1CBFF",
  "Vd c #D1D1CCFF",
  "+b c #D1D1D1FF",
  "Co c #D2D1CBFF",
  "C8 c #D2D1CEFF",
  "C{ c #D3D2CEFF",
  "VE c #D4D3CDFF",
  "C& c #D4D3CFFF",
  ",n c #D4D4D4FF",
  "5b c #D5D5D3FF",
  ":o c #D5D5D5FF",
  "VF c #D6D4CFFF",
  ",N c #D6D6D6FF",
  "VG c #D7D6D0FF",
  "Cm c #D7D6D1FF",
  "CC c #D7D6D2FF",
  "TU c #D7D7D3FF",
  ",M c #D7D7D7FF",
  "Cn c #D8D6D0FF",
  "C[ c #D8D7D0FF",
  "Cp c #D8D7D1FF",
  "Cf c #D8D7D3FF",
  "V< c #D8D7D4FF",
  ",B c #D8D8D8FF",
  "C^ c #D9D7D1FF",
  "Vw c #D9D7D2FF",
  "CU c #D9D8D2FF",
  "V> c #D9D8D3FF",
  "ZO c #D9D8D5FF",
  ",b c #D9D9D9FF",
  "CG c #DAD8D2FF",
  "C] c #DAD9D2FF",
  "CF c #DAD9D3FF",
  ",m c #DADADAFF",
  "Cv c #DBD9D3FF",
  "C~ c #DBDAD4FF",
  ",v c #DBDBDBFF",
  "C! c #DCDAD4FF",
  "C' c #DCDAD5FF",
  "Cc c #DCDBD5FF",
  "Z. c #DCDBD6FF",
  "5x c #DCDBD9FF",
  ",^ c #DCDCDCFF",
  "CQ c #DDDBD5FF",
  "VS c #DDDBD8FF",
  "Ve c #DDDCD6FF",
  "C/ c #DDDCD7FF",
  "VD c #DDDCD8FF",
  "=b c #DDDDDDFF",
  "Vx c #DEDCD7FF",
  "Cx c #DEDDD7FF",
  "B' c #DEDDD8FF",
  "V} c #DEDDD9FF",
  "Vc c #DEDED8FF",
  "Cz c #DFDDD8FF",
  "Z@ c #DFDDDAFF",
  "Ci c #DFDED8FF",
  "Cu c #DFDED9FF",
  "Te c #DFDFDCFF",
  "={ c #DFDFDFFF",
  "Cy c #E0DED9FF",
  "C1 c #E0DFD9FF",
  "Vr c #E0DFDAFF",
  "Vt c #E0DFDCFF",
  "&_ c #E0E0E0FF",
  "C> c #E1DFDAFF",
  "C. c #E1E0DAFF",
  "B` c #E1E0DBFF",
  "+Z c #E1E1E1FF",
  "VY c #E2E0DBFF",
  "V% c #E2E1DAFF",
  "Oa c #E2E1DBFF",
  "V, c #E2E1DCFF",
  "+A c #E2E2E2FF",
  "B_ c #E3E1DCFF",
  "VB c #E3E2DCFF",
  "B) c #E3E2DDFF",
  "Zo c #E3E2DEFF",
  "CI c #E3E3DEFF",
  "+S c #E3E3E3FF",
  "ZX c #E4E2DEFF",
  "B^ c #E4E3DEFF",
  "CP c #E4E3DFFF",
  "}Q c #E4E4E0FF",
  "rt c #E4E4E3FF",
  "&I c #E4E4E4FF",
  "V7 c #E5E3DEFF",
  "B/ c #E5E4DEFF",
  "B( c #E5E4DFFF",
  "}6 c #E5E5E2FF",
  ";3 c #E5E5E5FF",
  "Ct c #E6E5E0FF",
  "VH c #E6E5E2FF",
  "C< c #E7E5E1FF",
  "V| c #E7E6E2FF",
  "Vv c #E7E6E3FF",
  "XD c #E7E7E3FF",
  ";G c #E7E7E7FF",
  "VC c #E8E7E3FF",
  ":# c #E8E8E8FF",
  "Z+ c #E9E7E4FF",
  "VZ c #E9E8E3FF",
  "$` c #E9E9E7FF",
  ":2 c #E9E9E9FF",
  ":, c #EBEBEBFF",
  "#A c #ECECEAFF",
  ":> c #ECECECFF",
  ";9 c #EDEDEDFF",
  "VI c #EEEDEAFF",
  ":< c #EEEEEEFF",
  "}t c #EFEFECFF",
  ";A c #EFEFEFFF",
  ";T c #F0F0F0FF",
  "Vs c #F1F0EEFF",
  "V6 c #F2F1EFFF",
  "f( c #F3F2F0FF",
  "BT c #F3F3F0FF",
  ":O c #F3F3F3FF",
  "BY c #F4F3F1FF",
  "BU c #F4F4F1FF",
  "$< c #F4F4F2FF",
  ":3 c #F4F4F4FF",
  "=a c #F5F5F5FF",
  ":9 c #F7F7F7FF",
  ";R c #F8F8F8FF",
  ";Q c #FBFBFBFF",
  "3N c #FFFFFF01",
  "1U c #FFFFFFFF",
  "   c none",
  
  // Image data
  "                                      @>cW                      ",
  "                            3NB1B2B3B4B5B6                      ",
  "                          B7B8<vB9B0BqBwB1              riBeBr  ",
  "              @>3Br}    BtBy<vBuBiBpBaBs              c!BdBfBg  ",
  "                BhBj    Bk<vBk                      <FBlBzBxuJ  ",
  "                BcBv  BbBn,cBm                    3NBMBNBBBV    ",
  "              BCBZ+o  BABSBSBA                    BDBF5bBGpM    ",
  "            k}BHBJ  BK6^6^6^6^6^6^6^6^6^6^6^6^6^,z2@rt-i,lBL    ",
  "            BPBI  4EFU}t$<$<$<$<$<BUBYBYBTf(#A=C<'$`5^BRBEBW    ",
  "            BQBt  B!B~$<B^B/B(B^B^B)B_OaB`B'B]B[B{B}B|B^V.VX    ",
  "            Vo@>  VOV+BTB^B(V@V@B^V#V$V%V&V*V=V-V;V:V>V,V<V1    ",
  "            V2V3  V4V5V6B^V7B(B^B^B)V,OaV8V9V0Vql9VwVeVrVtVy    ",
  "            VuVi  VpVaVsB)B^VdVfBSBSVgVhVjV=VkVlVzVxVeVcVvVb    ",
  "            VnVm  VMVN}tVBB)VVVCVZVCVC<:B;VAB]VSVVVDVFVGVHVJ<V  ",
  "            BtVK  VLVPVIV,V,VUXDOaVYVT-O2+VRVEVWVQV!V~V^5xV/}w+j",
  "    V(rpV)V_V`,lV'V]V[V{V}B`VgV|B`C.V!<:CXCoCOC+C@C#C$C%C&C*C=&0",
  "  8]C-C;,^;R;8,Ntz:<>xt<C:C>C,C<VrC1C1VxVEC2C3C4C5C6C7C3C8C9C0&T",
  "  CqCw;Q:3:2pb:&2++S;9;R;vCeCrCtCyCuCiCiVeCpVECrCaCsCdV~CfCgCh  ",
  "  CjCk:<:,:><b;F<b+A,m:#;=ClV#B(CiCzCxCxVxVeCcCvCbCuCnCmV,CMCN  ",
  "  CB;A&I=b+S:9-V:9,^+v,m&ICVV&CCV&V&V&CZCZCACSC2CDB_CFCGB`CHCJ  ",
  "5RCK:O:o+Z:#:91U=a={,B,2;T>LCLCPCPCPCPCPCICIB)B)B_V,CGCUCuCYCT  ",
  "CRCE;G,N,v={&_+Z,v,N+b+a+Z<mCWCQCQCcCcCcC!C~C~CvCFCGCUC^C/C(C)  ",
  "C_+b,b+b,n,M,B,M:o+b,2:7+c,1C`C'C!C!C!C~C~CvCFC]CGCUC^C[VeC{C}  ",
  "C|;3,<+a;_+v+b+b+c#+:7;Z,A={k!CuC/C!CvCvCFCvC!Z.VxCuB`ZXZoCY6^  ",
  "9d;3;g;Y:7,<+a,<>x:=;U,G<#,v:wZOTe}6Z+VCVC}QZ@TUZ#V=Z$Z%Z&Z*Z=  ",
  "Z-,M,A,A;U:*:6:*;U<W9m<#<v+vZ;Z:Z>Z,mwmwZ<Z1Z2Z3Z4Z5Z6Z7Z8:k&^  ",
  "Z9Z0:=<s=p5X5X5X,S<s,Z-`=p,CZq:k&;&;%H%H%H&;&;:k+>*7&^%.+j      ",
  "ZwZe+a5><b,Ztz,Z<b-`=W<Q;YZrZt                                  ",
  "  Zy<`<1:*<#-`=W=C<Q;8;gZuZi                                    ",
  "    ZpZaZs-V,A;Z;=<#,KZdZf2o                                    ",
  "      ZgZhZjZkZlZzZxZcZv+j                                      ",
  "          +>=N&A9b@m&^                                          "
};
