/* XPM */
const char *xpm_tango_categories_preferences_system[] = {
  // Header (width height colors chars-per-pixel)
  "32 32 416 2",
  
  // Colors (code mode value)
  "+j c #00000001",
  "&j c #00000002",
  "&T c #00000003",
  "%. c #00000004",
  "&0 c #00000005",
  "&^ c #00000006",
  "@C c #00000007",
  ":E c #00000008",
  "*7 c #00000009",
  "@B c #0000000A",
  "+> c #0000000B",
  ":k c #0000000C",
  "&; c #0000000D",
  ":l c #0000000F",
  "@: c #00000010",
  "&Z c #00000011",
  "+r c #00000012",
  "@m c #00000013",
  "@o c #00000014",
  "*' c #00000015",
  "+k c #00000016",
  "[~ c #00000017",
  "=N c #00000018",
  "@n c #00000019",
  "@5 c #0000001A",
  "5U c #0000001B",
  "&) c #0000001C",
  "*Q c #0000001D",
  "9b c #0000001E",
  "&V c #0000001F",
  "&A c #00000020",
  "+g c #00000021",
  "*. c #00000022",
  "&Y c #00000023",
  ":Q c #00000024",
  "+N c #00000026",
  "tS c #00000029",
  "9) c #0000002C",
  ":d c #00000030",
  "T2 c #00000032",
  "&W c #00000034",
  "*8 c #00000036",
  "DH c #07122048",
  "DR c #0C1D2E2C",
  "DQ c #0D1F3A39",
  "Dz c #0F1F3621",
  "DJ c #14141433",
  "DT c #142E5775",
  "DC c #16345F5E",
  "DP c #1635636A",
  "DE c #1838665F",
  "DW c #183A6869",
  "Dj c #1A407444",
  "7< c #1C4C841B",
  "DL c #1E1E1E2A",
  "Dm c #1E447CA9",
  "S* c #1E49862A",
  "7b c #1F498742",
  "Dp c #204A8560",
  "Ss c #204A8637",
  "S[ c #204A866E",
  "D6 c #204A8780",
  "DY c #204A87F7",
  "D* c #214A883E",
  "Sq c #214B864E",
  "DG c #214B86F5",
  "SE c #214B88B4",
  "Dt c #214C89EE",
  "#} c #2244880F",
  "S2 c #224B8762",
  "D2 c #224B88D5",
  "S) c #224C88D4",
  "D# c #224C89D3",
  "S{ c #224D87F3",
  "Dx c #224D88F0",
  "SP c #224D89C1",
  "SA c #234A8667",
  "Sv c #234C89F2",
  "DZ c #234D88F7",
  "Sd c #244D89F4",
  "SS c #244F8AF5",
  "Dh c #254F8BF6",
  "SR c #264D8C14",
  "S3 c #264F8BF4",
  "Sw c #27518CF6",
  "D= c #27518DF1",
  "SN c #29548FF1",
  "SW c #2C5590F4",
  "Su c #2D558CFF",
  "S6 c #2E548DFF",
  "DI c #2F5991F2",
  "DU c #315C96F5",
  "S= c #3357868D",
  "Dv c #355682FF",
  "Sl c #365D96FC",
  "Dw c #385780FF",
  "D, c #385880FF",
  "DO c #395980FF",
  "SJ c #3A5980FF",
  "Sm c #3A5981FF",
  "Dn c #3B639DF9",
  "S} c #3B659EF9",
  "Df c #3C5C87FF",
  "D7 c #3E67A0FE",
  "Dc c #3F6390FF",
  "SL c #3F669FF9",
  "D@ c #41679EF9",
  "S( c #4268A0F9",
  "DK c #43434345",
  "Sn c #436490FF",
  "De c #46648DFF",
  "Da c #466CA2F5",
  "SH c #496A93FF",
  "D1 c #4970A3FB",
  "S^ c #4E6D94FF",
  "D< c #4F6D94FF",
  "Sy c #4F75A9FF",
  "Ny c #5079ADFF",
  "SB c #516B856B",
  "Dr c #5176A8FF",
  "D+ c #527199FF",
  "D- c #537AB0FF",
  "Do c #547297FF",
  "S/ c #54739BFF",
  "DF c #547CB1FF",
  "SK c #55759EFF",
  "S5 c #5579ABFC",
  "DS c #56749CFF",
  "DD c #5679A6FF",
  "Db c #567AAAFF",
  "Sj c #5782B8FF",
  "D> c #58769CFF",
  "Dq c #5879A4FF",
  "SG c #5A84BAFF",
  "Sb c #5A84BBFF",
  "Dg c #5B7FAFFF",
  "Sh c #5C87BEFF",
  "DA c #5D82B4FF",
  "S- c #5E7289F9",
  "SM c #6386B4FF",
  "89 c #6388B9FF",
  "Sz c #66768AFA",
  "]L c #6B91C1FF",
  "Sk c #6D91BFFF",
  "Z6 c #6D91C0FE",
  "Sg c #6F96C7FF",
  "S~ c #7094C2FF",
  "S! c #7298C8FF",
  "SD c #7496C5FF",
  "V1 c #749AC9FF",
  "SF c #759AC9FF",
  "Sf c #7699C6FF",
  "D. c #799ECBFF",
  "DM c #7A7A7675",
  "DV c #7B7D7972",
  "SQ c #7B9ECAFF",
  "Se c #7FA1CBFF",
  "<F c #80808006",
  "r} c #80808008",
  "e_ c #8080800A",
  "V# c #8080801E",
  "Av c #8099990A",
  "D; c #81A5D1FF",
  "Z_ c #848C9C1F",
  "S& c #848D841D",
  "S| c #84A6D1FF",
  "<C c #85858517",
  "Ao c #85909B2E",
  "S4 c #859FC4FC",
  "A- c #86868613",
  "ri c #86868615",
  "E: c #868B8637",
  "Tt c #87878711",
  "A@ c #878B8340",
  "Uv c #878B8344",
  "Uj c #878D8731",
  "Z! c #878E9D46",
  "Z( c #878F9DFF",
  "AY c #87919EC0",
  "r= c #8888822D",
  "3Z c #88888547",
  "Dk c #8888856B",
  "c! c #8888880F",
  "Ad c #8888990F",
  "Au c #888985E6",
  "A; c #888A85F0",
  "eB c #888A85FF",
  "AK c #888E9E4F",
  "So c #888F9D94",
  "AJ c #888F9E89",
  "A) c #888F9E90",
  "A4 c #88909E5C",
  "AD c #88909EC8",
  "AH c #88909ECC",
  "AB c #88909EFF",
  "Ak c #88919EE7",
  "Ae c #8891A0AC",
  "3. c #89898438",
  "Un c #89898545",
  "y^ c #8989890D",
  "A# c #89899D0D",
  "AU c #898C8945",
  "AV c #898E9C36",
  "AW c #89909E8C",
  "Z/ c #89909F75",
  "Ab c #89919FCF",
  "AX c #89919FED",
  "A< c #8992A0DC",
  "A$ c #8993A0C1",
  "YE c #8A8A8530",
  "xp c #8A8A863D",
  "DN c #8A8C88F7",
  "A~ c #8A9199FC",
  "A8 c #8A91A0EF",
  "Z) c #8A92A0E2",
  "rC c #8B8B852E",
  "ZQ c #8B8B866E",
  "A_ c #8B8B884F",
  "r, c #8B8D88F6",
  "AS c #8B8E884F",
  "S% c #8B8F97F9",
  "Z{ c #8B93A19E",
  "Z` c #8C8C883E",
  "SI c #8C8C8847",
  "3C c #8C8E899E",
  "D5 c #8C8E8AF7",
  "A, c #8D8F8A94",
  "Ar c #8D8F8AE5",
  "r< c #8D8F8AF6",
  "A{ c #8D8F8AF8",
  "S_ c #8D908A4C",
  "2B c #8D908BDE",
  "D$ c #8E8E8B51",
  "r# c #8E8E8E09",
  "Z~ c #8E8E9C12",
  "AC c #8E908A85",
  "ZR c #8E908ADF",
  "R> c #8E908AF5",
  "SO c #8E908BF3",
  "S` c #8E908BF9",
  "ZE c #8E908CE8",
  "D3 c #8E918B58",
  "AQ c #8E918C5F",
  "ZW c #8E918CC5",
  "SV c #8E918CF7",
  "A3 c #8E98A5F4",
  "DX c #8EABD0FF",
  "Dd c #8EABD1FF",
  "D4 c #8F908CF9",
  "A` c #8F918CEB",
  "SU c #8F918CF8",
  "At c #8F918CFB",
  "S0 c #8F928DE2",
  "Z} c #8F99A6F4",
  "AI c #90918CF7",
  "Dl c #90918DF9",
  "S1 c #90928DEA",
  "Z[ c #90928EC6",
  "AA c #91928DF7",
  "As c #91938E9C",
  "A7 c #91938EB5",
  "Sa c #91938ED6",
  "AL c #91938FF1",
  "D& c #91948D79",
  "Dy c #91948F5D",
  "D} c #91AFD4FF",
  "Sc c #92938FC9",
  "Al c #92948FD2",
  "A5 c #93939055",
  "SZ c #939490BA",
  "ST c #939590AA",
  "DB c #939591F5",
  "A! c #939591F7",
  "St c #93B0D4FF",
  "S] c #94959098",
  "AG c #969EAAF5",
  "D% c #979995F8",
  "D8 c #97B4D8FF",
  "A% c #98A1AFF4",
  "Ay c #99999650",
  "rZ c #99999905",
  "AE c #9AA1ADF5",
  "Aw c #9AA4B3F7",
  "A' c #9B9C98F4",
  "S' c #9B9C98F8",
  "A+ c #9B9C99F3",
  "Si c #9CA4B0FF",
  "S; c #9CA5B1FF",
  "Di c #9D9F9BF4",
  "A| c #A0A6AFFF",
  "A( c #A0A6B0F6",
  "SX c #A0A8B2F8",
  "6} c #A1A1A1FF",
  "SY c #A1A29FF9",
  "A1 c #A1ABB8F8",
  "Z^ c #A2A4A0F7",
  "S@ c #A2A7AFFF",
  "AN c #A2AAB4FF",
  "A[ c #A3A5A1F4",
  "A= c #A3ADBBFF",
  "S$ c #A4ABB5FF",
  "Ds c #A4BDDCFF",
  "Ac c #A6A7A4FA",
  "SC c #A7A9A5F9",
  "S8 c #A7ACB4FF",
  "S> c #A7AEB7FF",
  "A. c #A7B3C1FC",
  "cW c #AAAAAA03",
  "S7 c #AAAFB9FF",
  "Aj c #AAB4C0FE",
  "D: c #AAC0DCFF",
  "]i c #ABACA9FF",
  "AM c #ABB3BEFF",
  "<b c #ACACACFF",
  "S, c #ACB0B8FF",
  "D9 c #ACC3DFFF",
  "Ai c #ADADAB7D",
  "A] c #AEB0ACF6",
  "Sx c #AEB0ACFB",
  "S: c #AFB4BCFF",
  "S# c #B1B6BEFF",
  "An c #B1B9C2FA",
  "Az c #B4B6B292",
  "S. c #B4B9C1FF",
  "D0 c #B4C8E1FF",
  "A^ c #B6BBC2FA",
  "AF c #B6BBC3FA",
  ",S c #B7B7B7FF",
  "AZ c #B8B9B6FC",
  "t< c #B8B9B6FF",
  "Sp c #B8B9B7FB",
  "AT c #B9BDC6F9",
  "Ah c #BAC4D0FF",
  "Ag c #BAC5D0FF",
  "Z] c #BBBCBAFC",
  "8R c #BBC3CEFF",
  ",A c #BCBCBCFF",
  "Z| c #BCC8D6FF",
  "A> c #BDBEBCFE",
  "Aq c #BDC9D6FF",
  "4c c #BECAD6FF",
  "S9 c #BFC0BEFC",
  "A& c #BFCBDAFF",
  "sF c #BFCDDAFF",
  ";g c #C0C0C0FF",
  "A0 c #C0CCD9FF",
  "Aa c #C1C2C0FE",
  "Am c #C1C8D0FF",
  ";Z c #C2C2C2FF",
  "Af c #C2CBD4FF",
  "A* c #C2CFDDFF",
  "Sr c #C2D3E7FF",
  "ED c #C4CAD0FF",
  ";Y c #C5C5C5FF",
  "A9 c #C6CFD9FF",
  "A2 c #C6D2DFFF",
  "ks c #C9CAC8FF",
  "S< c #CACAC8FD",
  "AR c #CACED2FF",
  "+a c #CBCBCBFF",
  "#+ c #CCCCCCFF",
  ",2 c #CDCDCDFF",
  "B: c #CDCECDFF",
  "Z' c #CECFCEFD",
  "fJ c #CECFCEFF",
  "A/ c #CED2D6FF",
  "+c c #CFCFCFFF",
  "Du c #D0D1D0FF",
  ",, c #D3D3D3FF",
  "A} c #D3D4D2FE",
  "BN c #D3D4D3FF",
  "#0 c #D5D5D4FF",
  ":o c #D5D5D5FF",
  "S+ c #D5D6D4FE",
  "Bc c #D5D6D5FF",
  ",N c #D6D6D6FF",
  "6f c #D7D7D6FF",
  ",M c #D7D7D7FF",
  "Bp c #D7D8D6FF",
  "jL c #D7D8D7FF",
  "$t c #D8D8D7FF",
  ",B c #D8D8D8FF",
  "3j c #D8D9D7FF",
  "AP c #D8D9D8FF",
  ",b c #D9D9D9FF",
  "r_ c #D9DAD9FF",
  ",m c #DADADAFF",
  "t5 c #DBDBDAFF",
  ",v c #DBDBDBFF",
  "Wy c #DBDCDAFF",
  ",^ c #DCDCDCFF",
  "6s c #DDDDDCFF",
  "=b c #DDDDDDFF",
  "=[ c #DEDEDEFF",
  "={ c #DFDFDFFF",
  "&_ c #E0E0E0FF",
  "+A c #E2E2E2FF",
  "A: c #E4E4E4DD",
  "&I c #E4E4E4FF",
  ";3 c #E5E5E5FF",
  ";G c #E7E7E7FF",
  "A6 c #E8E8E8D2",
  ":# c #E8E8E8FF",
  "AO c #E9E9E9F8",
  ":2 c #E9E9E9FF",
  ",$ c #EAEAEAFF",
  ":, c #EBEBEBFF",
  ":> c #ECECECFF",
  ";T c #F0F0F0FF",
  "Ax c #F2F2F2F7",
  ";' c #F2F2F2FF",
  "Ap c #F3F3F3F3",
  ":3 c #F4F4F4FF",
  "=a c #F5F5F5FF",
  "3N c #FFFFFF01",
  "   c none",
  
  // Image data
  "                                                                ",
  "                                                                ",
  "                                                                ",
  "                xpZRZEZWZQr}                      Z!Z~          ",
  "              y^eB]i6sfJZ^2B<C                  Z/Z(Z)Z_        ",
  "                Z`R>Z',$:2Z]Z[              cWZ{Z}Z|A.AXAo      ",
  "                  E:eBAO;3:2A+A@          A#A$A%A&A*A*A=Z(rZ    ",
  "        A-          A;A:;3+AA>A,          A<A1A2A*A*sFA3A4      ",
  "      3ZeBA5      UjeBA6:2&IksA7          A8A9A0Aq4cAwAe        ",
  "      Art<AtAy  YEAuAiAp;T:>AaAs        AdZ(AfAgAhAjAkA#        ",
  "      Al#0$teBeBeBAzAx;':>;TAc3C      AvAbAnAmAMANABAV          ",
  "      ACAZ:2:,:,:,:,:#=b,v&_r_AAAS  AvADAFEDAGAHAJAK            ",
  "      <CAL;3:,:#,$:,;G,$,B<b;ZAPAIAUAYATARAEAW                  ",
  "        AQA!t5=a:3:3,$Wy,M,A;g#+3jA~A^A/A(A)                    ",
  "          A_A`A'A]A[A{eBA},2,2#+A|S.A/SXSo                      ",
  "            cWr=Uv3.r#rCSOS++cS@S#A/S$S%S&                      ",
  "                      S*S=S-S;S:A/S>S,S<S1ri                    ",
  "                    S2S3S4S5S68RS7S8,N;3S9S0c!                  ",
  "                  SqSwSeSrStSySuSi,B,v,b:#SpSae_                ",
  "                SsSdSfSgShSjSkSlSzBp,b,^,m:2SxSc<F              ",
  "              7bSvZ6V1SbSnSmSMSNSBSVjL,m,^,v:2SCSZcW            ",
  "            SASSSDSFSGSHSJSKSLSP  SISU6f,^,^=[;GSYST3N          ",
  "        SRSESWSQS!S~S^SmS/S(S)#}    S_S`Bc=b,v&_;3S'S]          ",
  "      S[S{S}S|D.DXDoDOD+D@D##}        D$SU:o={=b=[=bD%D&        ",
  "    D*D=D-D;D}D:D>D,D<D1D2#}            D3D4BN,b+a,S,,D5Tt      ",
  "    D6D7D8D9D0DqDwDeDrDt7<                DyD4Du,A6};YDiUn      ",
  "    DpDaDsDdNyD,DfDgDhDj*7%.        +j%.@C*7DkDlB:+aDur<V#      ",
  "&^&;DzDx89]LDcDvDbDnDm&Y9b=N+r+>*7@B:l@m=N5U*QDMDNDBr,DV@:+>&^+j",
  ":l[~&VDCDZDADSDDDFDGDH&W9):Q&)@n+k+r*'5U+g+N9)T2DJDKDL&)+k&Z+>%.",
  "&;*'*Q:QDPDGDIDUDYDT*8:dtS*.@5@m:k*7:l@o=N5U9b&V9b&)@n*':l:E&j  ",
  "+j&^:k*'@5DRDEDWDQ&Y&A*Q[~:l@C&j      +j&T%.&0&^&0%.&j+j        ",
  "        +j+j&j&T&T&T&j+j                                        "
};
