/* XPM */
const char *xpm_tango_mimetypes_application_x_executable[] = {
  // Header (width height colors chars-per-pixel)
  "32 32 360 2",
  
  // Colors (code mode value)
  "+n c #00000001",
  "*T c #00000002",
  "*_ c #00000003",
  "*` c #00000004",
  "=1 c #00000005",
  "*R c #00000006",
  "$p c #00000007",
  ",D c #00000008",
  "1c c #00000009",
  "$a c #0000000A",
  "+> c #0000000B",
  ",q c #0000000C",
  "=2 c #0000000D",
  "=# c #0000000E",
  ":l c #0000000F",
  "$s c #00000010",
  "&Z c #00000011",
  "+r c #00000012",
  "$w c #00000013",
  "@o c #00000014",
  "=$ c #00000015",
  "+k c #00000016",
  "[~ c #00000017",
  ":5 c #00000018",
  "$^ c #00000019",
  "$z c #0000001A",
  "6O c #0000001B",
  "=w c #0000001C",
  "=@ c #0000001D",
  "9b c #0000001E",
  "=k c #0000001F",
  "*' c #00000020",
  "+g c #00000021",
  "Ee c #00000022",
  "1l c #00000024",
  ":W c #00000025",
  "+J c #00000027",
  "er c #00000028",
  "tS c #00000029",
  "rn c #0000002A",
  "=s c #0000002B",
  "eg c #0000002C",
  "a( c #0000002D",
  "=% c #0000002E",
  "&R c #0000002F",
  "6: c #00000030",
  ":s c #00000031",
  ":4 c #00000033",
  ",T c #00000036",
  "tD c #00000038",
  ",W c #00000039",
  "9c c #0000003A",
  ",E c #0000003B",
  "B% c #0000003D",
  "=r c #00000040",
  "[G c #00000044",
  "!$ c #00000047",
  "2d c #00808002",
  "TZ c #24283781",
  "TV c #272B3C77",
  "TC c #282A3D85",
  "Tm c #292D3F7D",
  "Tn c #2A2F426D",
  "Tx c #2C314573",
  "Tz c #2E344863",
  "Th c #30354B6A",
  "Tg c #34395059",
  "Ty c #353A5260",
  "U: c #355886FF",
  "U% c #375A86FF",
  "U; c #375A87FF",
  "U6 c #385A88FF",
  "U7 c #3A5B89FF",
  "U5 c #3A5C88FF",
  "U> c #3A5C89FF",
  "Tt c #3B415C4E",
  "T8 c #3C425D55",
  "U8 c #3C5D8AFF",
  "U2 c #3E446052",
  "U. c #3E45604A",
  "I{ c #3E4561F9",
  "Ue c #3E4562F9",
  "I| c #3E4661F9",
  "v= c #3F4561FF",
  "UK c #3F456251",
  "Uf c #3F4562F9",
  "UX c #3F4563F8",
  "U1 c #3F4661F9",
  "Uw c #3F466249",
  "U@ c #3F4662F9",
  "Ub c #3F4761F9",
  "UJ c #3F4762F9",
  "Y5 c #40436048",
  "Y6 c #40466050",
  "U( c #404663F8",
  "T# c #404763FA",
  "Ym c #4144614F",
  "I[ c #41446253",
  "m[ c #4144634B",
  "Y@ c #414663F8",
  "T9 c #414763F9",
  "U* c #414764FA",
  "Up c #41608DFF",
  "U9 c #41618DFF",
  "Tu c #424763F9",
  "YK c #424864F9",
  "v6 c #424864FA",
  "T; c #424864FB",
  "Tf c #424964FB",
  "Y_ c #434864FA",
  "T@ c #434865FA",
  "TB c #434963FC",
  "Tl c #434964FB",
  "TM c #434964FC",
  "Tc c #434965FB",
  "Ua c #43618EFF",
  "YW c #444965F9",
  "UP c #44638EFF",
  "Uz c #466390FF",
  "U` c #476490FF",
  "U_ c #476590FF",
  "Us c #486591FF",
  "UC c #496591FF",
  "Ux c #4A6692FF",
  "Y% c #4A6792FF",
  "UZ c #4B6792FF",
  "UR c #4C6893FF",
  "I} c #4D5C7AFF",
  "UA c #4D6894FF",
  "Y9 c #4D6994FF",
  "Uc c #4E6994FF",
  "US c #4F6995FF",
  "vr c #4F6A95FF",
  "UE c #506A95FF",
  "Yf c #506A96FF",
  "UD c #516B96FF",
  "Yd c #516C96FF",
  "UW c #526C96FF",
  "Yg c #526C97FF",
  "U} c #536C97FF",
  "Ya c #546180FF",
  "vz c #546D98FF",
  "UF c #556E98FF",
  "UQ c #566E99FF",
  "UV c #567199FF",
  "U| c #576F99FF",
  "fe c #576F9AFF",
  "YB c #577099FF",
  "U! c #57709AFF",
  "Y. c #58709AFF",
  "YV c #59719BFF",
  "Ui c #59749BFF",
  "vU c #5A719BFF",
  "YX c #5A729CFF",
  "Y: c #5B729CFF",
  "U~ c #5B739CFF",
  "Yo c #5C739DFF",
  "Y> c #5D749DFF",
  "Yn c #5E6682FF",
  "bX c #5E749EFF",
  "Y, c #5F759FFF",
  "bO c #60769FFF",
  "Y< c #6176A0FF",
  "Yt c #6277A0FF",
  "YO c #6278A0FF",
  "b7 c #6378A1FF",
  "Yy c #6478A1FF",
  "YA c #6478A2FF",
  "Y1 c #6579A2FF",
  "Y; c #657BA2FF",
  "bk c #667AA3FF",
  "b0 c #677AA3FF",
  "bl c #677BA3FF",
  "bq c #687BA4FF",
  "b+ c #687CA4FF",
  "Ul c #6880A4FF",
  "Y2 c #697CA4FF",
  "YC c #697EA5FF",
  "bx c #6A7CA5FF",
  "bc c #6B7DA5FF",
  "bH c #6B7DA6FF",
  "bv c #6C7EA6FF",
  "bb c #6D7FA7FF",
  "Y7 c #6E7E9CFF",
  "YS c #6E7FA7FF",
  "YM c #6F7E9CFF",
  "U+ c #6F7F9BFF",
  "Y# c #6F7F9CFF",
  "Uo c #6F809CFF",
  "YL c #707F9CFF",
  "UL c #70809DFF",
  "bn c #7080A8FF",
  "U# c #70819DFF",
  "Yu c #7081A8FF",
  "UT c #7086A9FF",
  "U& c #71819CFF",
  "Un c #71819DFF",
  "Yx c #7182A9FF",
  "UI c #7188AAFF",
  "Ug c #72829EFF",
  "bM c #7282AAFF",
  "YQ c #73809EFF",
  "bU c #7382AAFF",
  "U< c #74839EFF",
  "U{ c #7489ABFF",
  "Y` c #75819FFF",
  "Yz c #7588ACFF",
  "U' c #758BACFF",
  "UM c #768CADFF",
  "Uq c #77859FFF",
  "Y/ c #7786ADFF",
  "Ud c #7885A0FF",
  "YH c #7887AEFF",
  "UH c #7986A1FF",
  "Yv c #7986ADFF",
  "Y^ c #798AAEFF",
  "TN c #7A7E96FF",
  "U/ c #7A86A1FF",
  "Y+ c #7B86A1FF",
  "Y4 c #7C87A3FF",
  "T4 c #7D86A4FF",
  "Yr c #7D8EB0FF",
  "T0 c #7E87A6FF",
  "TX c #7E8BB0FF",
  "YI c #7E8DB1FF",
  "Yp c #7F88A3FF",
  "Y& c #8093B2FF",
  "Y} c #818FB3FF",
  "T2 c #828EB3FF",
  "Y| c #8291B3FF",
  "UB c #8296B3FF",
  "YY c #8390B3FF",
  "Yc c #8492B5FF",
  "T1 c #8591B5FF",
  "m, c #8690B6FF",
  "Y8 c #869AB7FF",
  "T, c #8793B7FF",
  "YD c #8795B6FF",
  "Ti c #888FABFF",
  "U= c #8894ABFF",
  "YN c #889AB7FF",
  "Y$ c #889BB8FF",
  "U) c #889CB8FF",
  "YP c #8999B8FF",
  "`~ c #899DB8FF",
  "YG c #8A96B8FF",
  "vx c #8A9AB8FF",
  "U$ c #8B9FB9FF",
  "Um c #8B9FBAFF",
  "Y! c #8C9BB9FF",
  "Y- c #8C9DBAFF",
  "bG c #8D9CBAFF",
  "Y0 c #8D9EBAFF",
  "U- c #8DA0BBFF",
  "=> c #8DA1BBFF",
  "T6 c #8F99BBFF",
  "U, c #91A4BDFF",
  "U0 c #95A6BFFF",
  "T5 c #96A1BFFF",
  "Uv c #96A6C0FF",
  "UG c #97A6C0FF",
  "T* c #99A4C1FF",
  "U^ c #99A7C1FF",
  "Ur c #9AA3B5FF",
  "O& c #9AA8C2FF",
  "T. c #9BA6C2FF",
  "Y3 c #9CA8C3FF",
  "T< c #9DA7C4FF",
  "Ys c #9DADC4FF",
  "Uu c #9DAEC4FF",
  "YE c #9EA2B7FF",
  "U3 c #9EA7B8FF",
  "Yi c #9EA9C4FF",
  "Uy c #9EAEC5FF",
  "T$ c #9FA6B9FF",
  "Uk c #9FAFC5FF",
  "YZ c #A0ADC5FF",
  "Uj c #A0AFC6FF",
  "=+ c #A0B0C6FF",
  "YJ c #A1A5B8FF",
  "T+ c #A1A6B8FF",
  "T- c #A1A6B9FF",
  "T: c #A1A7BAFF",
  "f< c #A1B0C6FF",
  "UN c #A1B1C7FF",
  "YT c #A2ACC6FF",
  "Tr c #A3A7BAFF",
  "T& c #A3ADC7FF",
  "UU c #A3B2C8FF",
  "Tb c #A4A7BAFF",
  "Yh c #A4B1C8FF",
  "UY c #A4B2C8FF",
  "U] c #A5B3C9FF",
  "Tj c #A6AABDFF",
  "To c #A6AFC9FF",
  "U[ c #A6B4CAFF",
  "]l c #A8AABEFF",
  "Y* c #A8B5CAFF",
  "Y= c #A9B6CBFF",
  "nu c #AAB3CCFF",
  "Yq c #AAB7CCFF",
  "T7 c #ABB3CCFF",
  "Yw c #ABB7CCFF",
  "Ye c #ACB8CDFF",
  "Yj c #ADB8CDFF",
  "Y~ c #ADB8CEFF",
  "b< c #ADB9CEFF",
  "Y{ c #AEB8CEFF",
  "Yk c #AEB9CEFF",
  "Y' c #AFB8CEFF",
  "Yl c #AFBACEFF",
  "b4 c #AFBACFFF",
  "UO c #AFBDCFFF",
  "bg c #B1BBD0FF",
  "b1 c #B1BCD0FF",
  "T> c #B3BBD0FF",
  "bS c #B3BDD1FF",
  "bD c #B4BDD2FF",
  "Uh c #B4C0D1FF",
  "YU c #B5BED2FF",
  "Y[ c #B5BED3FF",
  "Y] c #B5BFD2FF",
  "b( c #B6BFD3FF",
  "b[ c #B9C0D4FF",
  "n& c #B9C1D5FF",
  "YF c #BAC1D5FF",
  "ny c #BBC2D6FF",
  "Yb c #BCC3D6FF",
  "U4 c #BCC8D7FF",
  "Y( c #BDC3D7FF",
  "nA c #BDC4D7FF",
  "nS c #BEC4D7FF",
  "TO c #BEC4D8FF",
  "n) c #BFC5D8FF",
  "T= c #C0C5D9FF",
  "m- c #C0C6D9FF",
  "m; c #C1C6D9FF",
  "m: c #C1C7DAFF",
  "T3 c #C2C7DAFF",
  "n6 c #C3C8DBFF",
  "Tw c #C4C8DBFF",
  "n( c #C4C9DBFF",
  "nI c #C5C9DCFF",
  "Ta c #C5CADCFF",
  "Te c #C6CADCFF",
  "Ts c #C6CADDFF",
  "Td c #C7CBDDFF",
  "Ut c #C7D0DDFF",
  "T% c #C8CEDEFF",
  "m+ c #C9CCDEFF",
  "Tq c #C9CEDEFF",
  "YR c #CBD0DFFF",
  "Tp c #CCD0E0FF",
  "Tk c #D0D3E2FF",
  "Y) c #D0D4E2FF",
  "}g c #D0D4E3FF",
  "n| c #D1D4E3FF",
  "m` c #D2D4E4FF",
  "Tv c #D5D7E5FF",
  "   c none",
  
  // Image data
  "                                                                ",
  "                                                                ",
  "                              I[v=m[                            ",
  "                            I[I{I}I|U.                          ",
  "                          I[UXUoUOU+I|U.                        ",
  "                        I[U@U#U$U%=>U&I|U.                      ",
  "                      I[U*U=U-U;U:U>U,U<U1U.                    ",
  "                    U2U*U3U4U5U6U7U8U9U0UqU1Uw                  ",
  "                  U2UeUrUtUyUuUyUiUpUaUsU0UdU1Uw                ",
  "                U2UfUgUhUjUkUjf<UlUzUsUxUcUvUdUbUw              ",
  "              U2UfUnUmUM=+UNUBUVUCUZUAUSUDUFUGUHUJUw            ",
  "            UKU@UL`~UPUIUUUYUTURUcUEUWvzUQU!U~U^U/U(Uw          ",
  "          UKU1ULU)U_U`U'U]U[U{UDU}UFU|Y.YXYobXYOO&Y+Y@Uw        ",
  "        UKU1Y#Y$Y%UxURY&Y*Y=Y-Y;Y.vUY:Y>Y,Y<b7Y1Y2Y3Y4Y@Y5      ",
  "      Y6U1Y7Y8Y9UAvrUDY0YqYwYeb<YrbXbOYtYybkbqbxbvYuYiYpY@Y5    ",
  "    2dv=YaYsYdYfYgvzUQYhYjYkYlb4Yzb7Y1b0Y2bcYxYcbUbUYvYbYnv=    ",
  "      YmUJYMYNYBfeYVYCYkb4YZYtYAbkbqbxYxYSbnYDYFYGYHnuYJYKY5    ",
  "        Y6UJYLvxY>bXbGbgb1YPblY2bHbbYIYUYGYYYTYbb[YRYEYWY5      ",
  "          Y6UJYQY!b+Y~bSbDY^bvYSYubMY/b[nyY(nSn)Y)YJY_Y5        ",
  "            Y6UJY`Y'Y]Y[b(Y{Y}Y|T.TXTonATOn)m-Y)T+T@Y5          ",
  "              Y6T#T$T%b[n&YFT&T*Y(Y(n)T=m-m:Y)T-T@Y5            ",
  "                UKT;T:T>T,T<T1T2Y(m-m;T3n6}gT-T@Y5              ",
  "                  UKv6T4T5T6m,T7T3T3n6n(}gT-T@Uw                ",
  "                  *_T8T9T0TqT3n6TwnITen|TrT@Tt=1*T              ",
  "            *T$p+>=#+rTyTuTiTpTaTsTdn|TrTfTg$w$s,q,D*`          ",
  "          =1$a:l@o:5=w*'ThU*TjTkm+m`TrTlTz+g9b$z+k&Z,q$p*T      ",
  "        *_1c:l=$$z*':WtS=%TxTc]lTvTbTlTn&Reg+JEe=@:5+r,q*R      ",
  "        *`$a&Z[~9b1lrn6:,T,ETmTMTNTBTVB%tD:4a(+J+g$z@o=2$p      ",
  "          $p=#=$6OEetS6:,TB%[GTCv=TZ!$=r9c:4eg:W=k:5&Z$a*_      ",
  "            =1,q+r$^=k:W=s:s,T,W,E9ctD:4=%erEe=w+k:l1c*T        ",
  "                *`1c:l$w:5=w=k+gEe+g*'=@$z+k&Z,q*R+n            ",
  "                        +n*`*R$p,D,D$p=1*_                      "
};
