/* XPM */
const char *xpm_tango_mimetypes_application_certificate[] = {
  // Header (width height colors chars-per-pixel)
  "32 32 458 2",
  
  // Colors (code mode value)
  "+n c #00000001",
  "*T c #00000002",
  "*_ c #00000003",
  "*` c #00000004",
  "$a c #0000000A",
  "+> c #0000000B",
  ",q c #0000000C",
  "=2 c #0000000D",
  "=# c #0000000E",
  "$w c #00000013",
  "+k c #00000016",
  "$z c #0000001A",
  "6O c #0000001B",
  "*' c #00000020",
  "+g c #00000021",
  "Ee c #00000022",
  "=e c #00000023",
  ":W c #00000025",
  "+J c #00000027",
  "tS c #00000029",
  "rn c #0000002A",
  "=s c #0000002B",
  "=& c #00000034",
  "=l c #00000035",
  ",W c #00000039",
  "B% c #0000003D",
  "68 c #0000003E",
  ".F c #00008002",
  "=4 c #0300004D",
  "Pf c #09000053",
  "L7 c #0E03004B",
  "IO c #11172D2D",
  "I& c #12142C7F",
  "IM c #13162F52",
  "I~ c #14193634",
  "IT c #161A3650",
  "I* c #1A1F3D96",
  "Io c #1B1F42AD",
  "I! c #1B224679",
  "Ip c #1C1C5509",
  "JP c #1D030050",
  "I) c #1E1E4B11",
  "Iq c #1E245056",
  "I_ c #1E254E6F",
  "I] c #1E264E65",
  "I% c #1F0A116B",
  "I2 c #1F234D42",
  "IP c #1F244DD6",
  "I3 c #1F254F5A",
  "IE c #1F254FF2",
  "IW c #1F254FFF",
  "I' c #1F2550AD",
  "IQ c #1F2751CC",
  "Pn c #2005006F",
  "I= c #20254CCF",
  "IG c #202752B7",
  "I` c #21245046",
  "I^ c #2125507C",
  "IF c #212953C8",
  "I- c #222750F8",
  "I0 c #222850E8",
  "IN c #222852A5",
  "I1 c #222852F3",
  "Ii c #232954F7",
  "Il c #232955AE",
  "IR c #24245515",
  "Ia c #242B56E1",
  "Ik c #252A54C2",
  "Jd c #28050033",
  "J^ c #2A05006D",
  "IL c #2A305AEC",
  "IX c #2B203DF5",
  "KC c #2F050071",
  "IH c #303662FF",
  "I< c #313866FA",
  "I4 c #313966F1",
  "Pq c #33060081",
  "`f c #33336605",
  "P[ c #342E4DFF",
  "P] c #35253FFE",
  "KO c #3907008F",
  "I; c #3C4269FF",
  "II c #3D436EF7",
  "I, c #3E4570FF",
  "J9 c #40000008",
  "I. c #401725FB",
  "P{ c #402A40FF",
  "I( c #41456FFB",
  "Im c #414777F4",
  "I> c #424970FF",
  "IB c #424A7CF6",
  "Jt c #43070048",
  "I: c #434A70FF",
  "K+ c #4411000F",
  "Ka c #450900A7",
  "Jy c #46070045",
  "P: c #460A02A1",
  "Jr c #4709006F",
  "Lk c #480901AB",
  "P~ c #480902A9",
  "Pg c #4A070026",
  "JN c #4B060029",
  "Iw c #4B5286F2",
  "P} c #4C1E26FF",
  "I+ c #4D09006E",
  "LJ c #4D0A0032",
  "I$ c #4D0A01B4",
  "P| c #4D161CFF",
  "P' c #4F1317FD",
  "KZ c #50070046",
  "J/ c #50080040",
  "Ju c #50090070",
  "P> c #500A01B9",
  "Js c #500A01C5",
  "L[ c #500A029C",
  "I/ c #50547FFB",
  "Je c #510A01AB",
  "Pd c #510A01CF",
  "P^ c #510C0016",
  "JM c #520902DC",
  "K! c #520B01D6",
  "K2 c #520B01DA",
  "PH c #530A0084",
  "Pw c #530A01CC",
  "Jw c #530A01CE",
  "J0 c #530A0297",
  "Iz c #535B96F7",
  "Ks c #540B02A9",
  "+d c #55000006",
  "Jf c #550A01AB",
  "JI c #550A01B6",
  "Ji c #550A01BB",
  "K3 c #550A01C7",
  "Jq c #550B02D1",
  "Ll c #550C01C5",
  "I@ c #560B02E6",
  "K~ c #570A01C8",
  "I# c #580B02E0",
  "Ja c #580B02E4",
  "Jp c #590C02DD",
  "Pm c #590C04D4",
  "L+ c #5A0B02E2",
  "K@ c #5A0E05DB",
  "L@ c #5B0B02DE",
  "L8 c #5B0B02E1",
  "LH c #5B0B02E2",
  "I9 c #5C66A1FF",
  "L] c #5F0B02E8",
  "P/ c #600E04E7",
  "P0 c #610E04E7",
  "IK c #626997F9",
  "PG c #660E03E8",
  "Ib c #6A73B6FF",
  "I8 c #6B75AAFF",
  "I7 c #6C74A3FF",
  "I6 c #6F77A7FF",
  "L6 c #71130AEC",
  "I5 c #727BB5FF",
  "IY c #767CA7F8",
  "LK c #771E13EF",
  "Ic c #7780C5FF",
  "Is c #7782C8FF",
  "P` c #7D1D15FE",
  "IJ c #7D84B6FB",
  "Iv c #7D86C9FF",
  "Ij c #7E88C9FE",
  "T^ c #80000002",
  "P! c #801306F3",
  "JB c #80261CEC",
  "KV c #821D12F3",
  "Ph c #842216F0",
  "JL c #84281EF1",
  "If c #848ED1FF",
  "P; c #85170CF2",
  "Ig c #858FD2FF",
  "J( c #862C21EF",
  "Id c #8691D8FF",
  "IZ c #888FC9FF",
  "Ix c #8892DAFF",
  "KA c #8B2C22F2",
  "Ih c #8D97DDFF",
  "JZ c #8F1404FF",
  "JJ c #8F1504FF",
  "JT c #901404FF",
  "JH c #901606FF",
  "K6 c #911404FF",
  "JC c #911706FF",
  "PT c #912015FF",
  "JR c #931404FF",
  "JE c #951404FF",
  "LP c #951504FF",
  "JA c #951C0CFF",
  "JQ c #961404FF",
  "K/ c #961C0CFF",
  "K$ c #961D0EFF",
  "JW c #971404FF",
  "L$ c #981504FF",
  "J_ c #981C0DFF",
  "Lx c #981D0EFF",
  "IS c #98A0D9FF",
  "Lc c #991404FF",
  "K. c #991504FF",
  "Pb c #991D10F3",
  "JY c #992011FF",
  "L0 c #9A1504FF",
  "Pr c #9A1909FF",
  "Kg c #9A1D0EFF",
  "In c #9AA3E4FF",
  "Pk c #9B1504FF",
  "PL c #9C1504FF",
  "KX c #9C1A0BFF",
  "L{ c #9C3225F8",
  "IV c #9CA5E6FF",
  "Iu c #9CA7F4FF",
  "J| c #9E1504FF",
  "ID c #9EA4D8FF",
  "Ie c #9EA9F6FF",
  "J! c #9F2515FF",
  "Kp c #9F2D1FF8",
  "PN c #A01504FF",
  "Jz c #A03E32F9",
  "Pt c #A11504FF",
  "IC c #A1A9E6FF",
  "L| c #A21504FF",
  "K% c #A22F21FF",
  "Jg c #A23A2DFC",
  "Jx c #A23F33F9",
  "Pl c #A31604FF",
  "PY c #A32618FF",
  "JG c #A32B1CFF",
  "K< c #A41A08FF",
  "PK c #A41F0FFF",
  "P, c #A43628FA",
  "PP c #A51806FF",
  "PB c #A61604FF",
  "J} c #A62616FF",
  "J` c #A63628FF",
  "Ir c #A7B2F4FF",
  "Ku c #A81806FF",
  "PJ c #A92F20FE",
  "JS c #A93325FF",
  "KD c #A93728FF",
  "It c #A9B3F5FF",
  "Iy c #A9B4F6FF",
  "KN c #AA1604FF",
  "LI c #AA2312FF",
  "P1 c #AB1806FF",
  "PV c #AD1705FF",
  "J~ c #AD4437F9",
  "Py c #AE1806FF",
  "K5 c #AE392CFF",
  "J{ c #AE3B2CFF",
  "Pz c #AF1604FF",
  "KE c #AF1705FF",
  "KW c #AF1A08FF",
  "Jm c #AF3E30FF",
  "J' c #AF4739FF",
  "IA c #AFB7EEFF",
  "Lv c #B03525FF",
  "PR c #B12618FF",
  "Pj c #B12E1EFF",
  "K, c #B13525FF",
  "K( c #B14638FF",
  "Lo c #B21705FF",
  "KM c #B32615FF",
  "P< c #B33627FF",
  "JF c #B33F31FF",
  "J[ c #B34739FF",
  "Kd c #B34B3FFB",
  "K& c #B34E41FF",
  "PC c #B41705FF",
  "P. c #B42E1EFF",
  "Ky c #B43122FF",
  "Lq c #B44132FF",
  "L% c #B4473AFF",
  "J] c #B44B3EFF",
  "Kh c #B44E41FF",
  "K7 c #B44F42FF",
  "Jl c #B45043FE",
  "LX c #B51805FF",
  "JD c #B54134FF",
  "L4 c #B61805FF",
  "Pu c #B61906FF",
  "KR c #B61D0CFF",
  "K> c #B64031FF",
  "K* c #B64F42FF",
  "P_ c #B72F1DFF",
  "K: c #B74435FF",
  "K= c #B74C3FFF",
  "KF c #B74D40FF",
  "K8 c #B74F42FF",
  "Px c #B81805FF",
  "P2 c #B82A1AFF",
  "Kt c #B83A2AFF",
  "K; c #B84638FF",
  "K- c #B84A3CFF",
  "Kj c #B84E41FF",
  "Jc c #B85144FF",
  "L3 c #B91805FF",
  "Lj c #B92D1DFE",
  "LU c #B93A2BFF",
  "L& c #B94638FF",
  "L. c #BA1805FF",
  "Km c #BA3222FF",
  "Lb c #BA3F30FF",
  "Lw c #BA4233FF",
  "KG c #BA4B3DFF",
  "K9 c #BA4D3FFF",
  "Lg c #BB1805FF",
  "Kr c #BB3D2EFF",
  "K0 c #BB493BFF",
  "Kk c #BB4C3EFF",
  "KT c #BC2615FF",
  "PI c #BC2715FF",
  "PX c #BC3323FF",
  "P( c #BC3424FF",
  "Ke c #BC4031FF",
  "Kq c #BC4638FF",
  "Lf c #BD1805FF",
  "PQ c #BD2513FF",
  "Kw c #BD4435FF",
  "Kl c #BD493BFF",
  "Ko c #BD4B3DFE",
  "P) c #BE3222FF",
  "Kn c #BE3626FF",
  "L} c #BE4233FF",
  "Pe c #BE4234FF",
  "L* c #BE4435FF",
  "KH c #BE483AFF",
  "K| c #BF1905FF",
  "Lh c #BF1F0DFF",
  "P3 c #BF2B1AFF",
  "LY c #BF3828FF",
  "PM c #BF3B2BFF",
  "Ln c #BF3B2CFF",
  "Le c #BF4031FF",
  "Kz c #BF4638FF",
  "LF c #C01905FF",
  "L` c #C01B06FF",
  "Ki c #C03828FF",
  "Kb c #C03A29FF",
  "Kx c #C04334FF",
  "K) c #C04436FF",
  "P4 c #C11E0BFF",
  "PZ c #C1200DFF",
  "Kv c #C13D2DFF",
  "Kc c #C13F30FF",
  "KJ c #C14537FF",
  "Kf c #C15143FF",
  "L) c #C21905FF",
  "K} c #C21B07FF",
  "P9 c #C22A1AFE",
  "KY c #C23120FF",
  "L= c #C24131FF",
  "Pi c #C31905FF",
  "Lr c #C33D2DFF",
  "K_ c #C34232FF",
  "KK c #C34333FF",
  "Ld c #C41905FF",
  "LT c #C43524FF",
  "Lm c #C43A29FF",
  "L2 c #C51905FF",
  "KU c #C53625FF",
  "KL c #C54030FF",
  "JK c #C54F41FF",
  "L_ c #C61905FF",
  "PS c #C61E0BFF",
  "KI c #C63928FF",
  "KP c #C63C2CFF",
  "L- c #C63E2EFF",
  "K` c #C63F2FFF",
  "LD c #C71905FF",
  "P& c #C71A06FF",
  "PU c #C73120FF",
  "L( c #C81A06FF",
  "K{ c #C82917FF",
  "PE c #C82C1AFF",
  "Po c #C82F1DFF",
  "Lt c #C83A29FF",
  "L1 c #C91A06FF",
  "PA c #C92511FF",
  "Lz c #C95548FF",
  "K4 c #C96255FE",
  "P* c #CA1906FF",
  "Ls c #CA1A06FF",
  "LR c #CA3321FF",
  "LM c #CA3725FF",
  "L; c #CA3B2AFF",
  "K' c #CA3C2BFF",
  "LL c #CA5144FF",
  "Pc c #CB1906FF",
  "L< c #CB1A06FF",
  "PO c #CB200DFF",
  "Ps c #CB2C1AFE",
  "K[ c #CB3624FF",
  "K] c #CB3928FF",
  "Pp c #CC1A06FF",
  "PD c #CC1F0CFF",
  "J) c #CC6053FF",
  "P5 c #CD1A06FF",
  "PW c #CD2C18FF",
  "KQ c #CD402FFF",
  "KB c #CD4131FF",
  "LS c #CE1A06FF",
  "P= c #CE210DFF",
  "L5 c #CE3423FF",
  "Ly c #CE3826FF",
  "L: c #CE3927FF",
  "K1 c #CE5041FF",
  "La c #CF1A06FF",
  "L, c #CF2714FF",
  "LE c #CF301DFF",
  "LN c #CF3523FF",
  "KS c #CF6154FF",
  "L/ c #D01A06FF",
  "LG c #D03321FF",
  "L> c #D03624FF",
  "Jk c #D0695DFF",
  "P+ c #D11B06FF",
  "Lu c #D13523FF",
  "LO c #D13D2DFF",
  "K^ c #D16457FF",
  "P6 c #D21B06FF",
  "Pa c #D21D08FF",
  "L' c #D23220FF",
  "L9 c #D25F52FF",
  "Lp c #D31B06FF",
  "LW c #D31F0AFF",
  "Pv c #D3230FFF",
  "Li c #D32917FF",
  "Jv c #D3675BFF",
  "LA c #D41B06FF",
  "LB c #D42E1BFF",
  "L# c #D46557FF",
  "JU c #D46D61FF",
  "P7 c #D51B06FF",
  "P- c #D5311FFF",
  "Jn c #D56458FF",
  "IU c #D5DAFFFF",
  "P% c #D61B06FF",
  "LV c #D61C07FF",
  "Jb c #D6675AFF",
  "L^ c #D71B06FF",
  "JV c #D76F62FF",
  "P@ c #D81B06FF",
  "PF c #D82D19FF",
  "LQ c #D91B06FF",
  "Jh c #D97164FF",
  "Jj c #D97265FF",
  "LZ c #DA1B06FF",
  "LC c #DA1C06FF",
  "P8 c #DA2A17FF",
  "P$ c #DC1C06FF",
  "P# c #DD1C06FF",
  "K# c #DE786BFF",
  "L~ c #DF1C06FF",
  "L! c #E11C06FF",
  "   c none",
  
  // Image data
  "                                                                ",
  "                  J9J0JqJwJeJrJtJyJuJiJpJaJsJd*T                ",
  "                  JfJgJhJjJkJlJzJxJcJvJbJnJmJM=e                ",
  "                JNJBJVJCJZJAJSJDJFJGJHJZJJJKJLJP                ",
  "                JIJUJYJZJZJTJRJEJWJQJRJZJZJ!J~J^*`              ",
  "              J/J(J)JZJTJ_J`J'J]J[J{J}J|K.KXKoKO,q              ",
  "            K+K@K#K$JTK%K&K*K=K-K;K:K>K,K<J|K1K2Ee              ",
  "          +dK3K4K5K6K%K7K8K9K0KqKwKeKrKtKyKuKiKpKa$a            ",
  "          KsKdKfJZKgKhKjKkKlKzKxKcKvKbKnKmKMKNKBKVKC*_          ",
  "        KZKAKSJZK6KDKFKGKHKJKKKLKPKIKUKYKTKRKEKWKQK!=e          ",
  "        K~K^K/JZJQK(K-KqK)K_K`K'K]K[K{K}K|L.LXLoLOL+=l          ",
  "        L@L#JZJZL$L%L&L*L=L-L;L:L>L,L<L1L2K|L3L4L5L6L7          ",
  "        L8L9JZJZL0LqLwLeLrLtLyLuLiLpLpLaLsLdLfLgLhLjLk+>        ",
  "        LlLzLxJZLcLvLbLnLmLMLNLBLVLCLZLALSLDLFLFLfLGLH=s        ",
  "        LJLKLLJZLPLILULYLTLRLELWLQL!L~L^L/L(L)L_L`L'L]68        ",
  "          L[L{L}JTL|P.PXKYPoPOP+P@P#P$P%LaP&P*P=P-P;P:,W        ",
  "          +nP>P,P<K.P1P2P3P4LDP5P6P7P7P+L<P*P8P9P0PqB%$a        ",
  "            T^PwPePrPtPyPuLfPiL(PpLSLSL<L<PaPsPdPf+J*T          ",
  "              PgPhPjPkPlPzPxLfL)L2LDLDPcLaPvPbPn6O              ",
  "                PmPMK.PNPBPVPCPZPAPSLDL(PDPFPG=4*T              ",
  "                PHPJPKPLPPPIPUPYPTPRPEPWPQP!P~,W                ",
  "                P^P/P(P)P_P`P'P]P[P{P}P|I.IXIoIO                ",
  "                  I+I@I#I$I%I&I*I=I-I;I:I>I,I<I1I2              ",
  "                    +g=&rn+k+n    I3I4I5I6I7I8I9I0=2            ",
  "                                  IqIwIeIrItIyIuIitS            ",
  "                                IpIaIsIdIfIgIhIjIk:W            ",
  "                              +nIlIzIxIcIvIbInImIM$w            ",
  "                            .FINIBIVICIZIAISIDIF*'*T            ",
  "                          `fIGIHIJIKILIPIIIUIYIT=#              ",
  "                        IRIEIWIQI!I~+>*_I^I/I($z*T              ",
  "                      I)I_I`Ip*T          I'IW=2                ",
  "                                          +nI]                  "
};
