/* XPM */
const char *xpm_tango_mimetypes_audio_x_generic[] = {
  // Header (width height colors chars-per-pixel)
  "32 32 333 2",
  
  // Colors (code mode value)
  "+n c #00000001",
  "*T c #00000002",
  "*_ c #00000003",
  "*` c #00000004",
  "=1 c #00000005",
  "*R c #00000006",
  "$p c #00000007",
  ",D c #00000008",
  "1c c #00000009",
  "$a c #0000000A",
  "+> c #0000000B",
  ",q c #0000000C",
  "=2 c #0000000D",
  "=# c #0000000E",
  "$s c #00000010",
  "&Z c #00000011",
  "+r c #00000012",
  "$w c #00000013",
  "@o c #00000014",
  "=$ c #00000015",
  "+k c #00000016",
  "[~ c #00000017",
  ":5 c #00000018",
  "$^ c #00000019",
  "$z c #0000001A",
  "6O c #0000001B",
  "=w c #0000001C",
  "=@ c #0000001D",
  "9b c #0000001E",
  "=k c #0000001F",
  "*' c #00000020",
  "+g c #00000021",
  "WK c #00000022",
  "=e c #00000023",
  "1l c #00000024",
  "@$ c #00000026",
  "+J c #00000027",
  "tS c #00000029",
  "rn c #0000002A",
  "=s c #0000002B",
  "=% c #0000002E",
  "&R c #0000002F",
  "6: c #00000030",
  "T2 c #00000032",
  "=l c #00000035",
  "=d c #00000037",
  "=j c #00000043",
  "gu c #00000058",
  "Du c #00000068",
  "WJ c #02050070",
  "WH c #070A026B",
  "WG c #09090355",
  "WN c #2C300C40",
  "WF c #2D350D65",
  "Wx c #3B450F34",
  "WM c #3F47105D",
  "E* c #40800004",
  "W9 c #43510D13",
  "E+ c #496D2407",
  "Wz c #4D58145A",
  "WD c #4E5914C0",
  "Wi c #52601360",
  "Kz c #55550003",
  "RI c #55552B06",
  "E$ c #55611815",
  "W, c #5562153C",
  "WB c #556215CE",
  "R( c #556A150C",
  "R' c #556A1518",
  "R} c #55711C09",
  "TA c #57651426",
  "TJ c #57661623",
  "W@ c #5768172C",
  "RQ c #5862141A",
  "Wm c #586416BC",
  "W8 c #58641763",
  "TK c #5865174E",
  "RF c #586A1A1D",
  "EX c #59641617",
  "RP c #5964162E",
  "El c #59641742",
  "T! c #59661676",
  "Wc c #596616AC",
  "WA c #596616FE",
  "WZ c #596616FF",
  "WS c #596617F9",
  "Ep c #596716FB",
  "Rx c #5A63191F",
  "RL c #5A65165B",
  "TL c #5A66157A",
  "TD c #5A66167F",
  "WV c #5A6616FC",
  "TS c #5A671652",
  "R< c #5A6716FB",
  "WC c #5A6716FC",
  "TU c #5A6717F9",
  "E3 c #5A6717FF",
  "E& c #5A6718FE",
  "E> c #5A6718FF",
  "EF c #5A6816FB",
  "RX c #5A6817F8",
  "E1 c #5A690F11",
  "RT c #5B64121C",
  "TQ c #5B641738",
  "Ea c #5B65174C",
  "RK c #5B67168A",
  "RV c #5B6717F9",
  "EG c #5B681676",
  "Ej c #5B6816FA",
  "En c #5B6816FB",
  "ET c #5B6817F7",
  "RR c #5B6817FB",
  "Ee c #5B6817FC",
  "E7 c #5B6817FD",
  "R] c #5B6818FB",
  "Wb c #5B6916E5",
  "W< c #5B6917F3",
  "Eg c #5B6918FB",
  "Eq c #5B6D120E",
  "R. c #5C631524",
  "Eu c #5C661419",
  "Wl c #5C6817E1",
  "Wn c #5C6916E4",
  "Wp c #5C6917D6",
  "Wu c #5C6917E6",
  "Wv c #5C6917E7",
  "RH c #5C6917EB",
  "E_ c #5C6917EC",
  "Ey c #5C6917FA",
  "E0 c #5C6918F9",
  "EO c #5C6919FC",
  "EM c #5C6A16E3",
  "EH c #5C6A17EA",
  "E` c #5C6B188D",
  "Ek c #5D5D170B",
  "Rt c #5D641721",
  "W> c #5D6A17F5",
  "Ez c #5D6A18AD",
  "W+ c #5D6A18E3",
  "ER c #5D6A18E6",
  "E5 c #5D6A19F8",
  "R{ c #5D6A1AFB",
  "Es c #5D6B17A7",
  "TF c #5D6B18B5",
  "RC c #5D6B18E3",
  "Ex c #5D6B1AF4",
  "TI c #5E6A17DF",
  "RZ c #5E6A18B6",
  "R/ c #5E6A1BFA",
  "TG c #5E6B17C9",
  "W7 c #5E6B17F5",
  "RJ c #5E6B18C1",
  "Ed c #5E6B18ED",
  "Ef c #5E6B19E7",
  "E< c #5E6B1AF7",
  "E; c #5E6B1B13",
  "T~ c #5E6C17AE",
  "TP c #5E6C17B1",
  "T^ c #5E6C17DC",
  "RW c #5E6C1CF9",
  "E- c #5F6B1BF7",
  "Wk c #5F6C18F5",
  "RA c #5F6C1CEF",
  "E# c #5F6D1CF6",
  "TH c #60601010",
  "Er c #606D1BE5",
  "E. c #606E1CF6",
  "RU c #606E1DE6",
  "E8 c #616D1CE5",
  "Wy c #616F18F4",
  "R` c #626E1DF5",
  "W# c #626F1BF3",
  "TW c #626F1DF5",
  "R) c #626F1EE6",
  "R, c #62701AF2",
  "R~ c #636E1DF5",
  "RY c #63711EF4",
  "E' c #647219F4",
  "Eb c #647226F9",
  "RD c #65711FF3",
  "Rz c #657121F3",
  "Rr c #657222F3",
  "T| c #657320F2",
  "Ec c #677327FB",
  "RB c #697523F1",
  "TY c #6B7829F2",
  "Ev c #6C782DF6",
  "EN c #6D7A23F2",
  "T/ c #707A2FF4",
  "RG c #748226F3",
  "EJ c #7C893FF4",
  "Wa c #7C8B23FD",
  "Wj c #7C8C1FFD",
  "Rk c #7D8B2EF5",
  "W0 c #7E8E23FC",
  "9/ c #80800002",
  "Wt c #809021FE",
  "RN c #818E3AF3",
  "EE c #84932BFC",
  "TT c #879345F3",
  "E) c #899B23FF",
  "Rj c #8A983BFB",
  "W6 c #8A9B24FF",
  "W: c #8C9E24FF",
  "WO c #8D9F25FF",
  "Wr c #90A225FF",
  "Ro c #919E4BFC",
  "Wq c #92A42AFF",
  "We c #93A42AFF",
  "T( c #95A05BF4",
  "Ww c #95A62CFF",
  "Wh c #95A827FF",
  "RM c #96A24AFD",
  "E] c #96A731FF",
  "Eh c #98A92DFF",
  "Et c #98A932FF",
  "Em c #98AB28FF",
  "EY c #99AC28FF",
  "Ws c #9AAD28FF",
  "Ei c #9AAD2DFF",
  "TR c #9BA658FD",
  "E9 c #9BAB37FF",
  "E4 c #9DAD3CFF",
  "W; c #9DB029FF",
  "ED c #9DB02BFF",
  "Rh c #9EAC4FFF",
  "Ew c #9EB032FF",
  "Wo c #9EB12BFF",
  "E, c #9FAF40FF",
  "W5 c #9FB22FFF",
  "Wg c #9FB230FF",
  "Wd c #A0B22FFF",
  "E= c #A1B145FF",
  "Wf c #A1B332FF",
  "E6 c #A1B337FF",
  "W- c #A2B433FF",
  "EB c #A3AF5DFE",
  "E@ c #A3B248FF",
  "Rm c #A4B156FF",
  "W1 c #A4B343FF",
  "E( c #A4B538FF",
  "E2 c #A4B53CFF",
  "R| c #A5B44BFF",
  "Ru c #A5B73CFF",
  "R_ c #A6B54EFF",
  "EU c #A6B646FF",
  "Ri c #A6B73BFF",
  "E: c #A6B740FF",
  "R! c #A7B550FF",
  "Rp c #A7B83FFF",
  "RS c #A8B651FF",
  "E% c #A8B844FF",
  "TE c #A9B561FF",
  "WX c #A9BA43FF",
  "R9 c #AABA45FF",
  "Eo c #AABA48FF",
  "R[ c #ABBB4BFF",
  "R0 c #ACBC49FF",
  "R^ c #ADBC4EFF",
  "Ra c #ADBD4CFF",
  "RE c #ADBD50FF",
  "RO c #AEB86DFF",
  "ES c #AEBB5BFF",
  "Rc c #AEBD50FF",
  "Rl c #AEBD53FF",
  "R8 c #AEBE4EFF",
  "Rq c #AEBE4FFF",
  "Rw c #AFBF51FF",
  "Rn c #B0BD60FF",
  "Re c #B0BF53FF",
  "Rg c #B2BE65FF",
  "Ry c #B2C15AFF",
  "Rv c #B3C259FF",
  "W4 c #B4C25CFF",
  "E/ c #B4C35BFF",
  "R7 c #B6C45FFF",
  "Rs c #B6C460FF",
  "EK c #B7C183FE",
  "W= c #B7C563FF",
  "T) c #B8C189FD",
  "Rb c #B8C563FF",
  "R: c #B9C666FF",
  "W. c #BAC768FF",
  "R> c #BCC86BFF",
  "W2 c #BCC96DFF",
  "W$ c #BECA70FF",
  "W% c #BECA72FF",
  "R6 c #BFCC74FF",
  "R1 c #C0CB76FF",
  "Rd c #C0CD76FF",
  "EI c #C2CD7BFF",
  "E^ c #C2CE7BFF",
  "Rf c #C4CF7FFF",
  "R2 c #C4D07EFF",
  "EA c #C5CE8BFF",
  "W3 c #C7D184FF",
  "EV c #C7D190FF",
  "R; c #C7D284FF",
  "R+ c #C8D093FF",
  "R3 c #C9D388FF",
  "o, c #C9D389FF",
  "W* c #CAD58CFF",
  "E| c #CBD58EFF",
  "R5 c #CCD690FF",
  "R4 c #CDD792FF",
  "EZ c #CED69CFF",
  "T} c #D1DA9AFF",
  "W& c #D2DA9BFF",
  "E~ c #D3DB9EFF",
  "T_ c #D5DAB2FF",
  "EP c #D5DDA3FF",
  "EC c #D5DDA9FF",
  "EW c #D6DEA5FF",
  "EL c #D7DEADFF",
  "E} c #D7DFA8FF",
  "T{ c #D7DFA9FF",
  "R- c #D8E0ABFF",
  "E[ c #DCE3B2FF",
  "E{ c #DCE3B3FF",
  "E! c #DEE4B7FF",
  "R@ c #DEE4B9FF",
  "T[ c #E2E8BFFF",
  "EQ c #E4E9C3FF",
  "T` c #E5E9CCFF",
  "R= c #E9EDCEFF",
  "R# c #E9EED0FF",
  "T] c #EBEFD3FF",
  "T' c #EDF1D9FF",
  "R$ c #EEF1DBFF",
  "R* c #F0F3DEFF",
  "R% c #F2F4E2FF",
  "R& c #F3F5E5FF",
  "   c none",
  
  // Image data
  "                                                                ",
  "                                                                ",
  "                                                                ",
  "                                                                ",
  "                                          KzTATSTDTFTGTH        ",
  "                              9/TJTKTLTPTITUTYTTTRTETWTA        ",
  "                      TQT!T~T^TUT/T(T)T_T`T'T]T[T{T}T|R.        ",
  "                      RXRoROR+R@R#R$R%R&R*R=R-R;R:R>R,TJ        ",
  "                      R<R1R2R3R4R5R;R6R7R8R9R0RqRwReRrRt        ",
  "                      R<RyRuRiRpRaRsRdo,RfRgRhRjRkRlRzRx        ",
  "                      R<RcRvRbRnRmRMRNRBRVRCRZTDRARSRDRF        ",
  "                      R<RcRGRVRHRJRKRLRPRI      RURSRYRT        ",
  "                      RRRERWRQ                  RUR!R~RQ        ",
  "                      RRR^R/R(                  R)R_R`R'        ",
  "                      R]R[R{R}                  RUR|E.EX        ",
  "                      R]EoEOE+                  RUE@E#E$        ",
  "                      R]E%E&E*                  RUE=E-E;        ",
  "                      R]E:E>+n                  RUE,E<E1        ",
  "                      R]E2E3                    RUE4E5TH        ",
  "                      RRE6E7                    E8E9E0Eq        ",
  "                      RREwEe                    ErEtEyR(        ",
  "                RIEuKzR<EiEp      E+EaEsRHEdEfRCEgEhEjEk        ",
  "        +nElEzExEcEvEbEnEmTU    RTEMENEBEVECEZEAESEDEFR}        ",
  "      EGEHEJEKELEPR5EIEUEYET  KzEREEEWEQE!E~E^E/E(E)E_9/        ",
  "    E`E'E]E[E{E}E|W.WXWoWOW+  W@W#W$W%W&W*W=W-W;W:W>W,+n+n      ",
  "  +nW<W1E(W2R4W3W4W5W;W6W7W8=1W9RHW0WqWwWeWrWtWyWuWi1c=1*_+n    ",
  "*T,DWpWaWsWdWfWgWhWjWkWlWz&Z+r$wWxWcWvWuWbWnWmWM+g=w=$=#$p*`+n  ",
  "*`$sWNWBWVWCWZWAWSWDWFrn*'9b*'+g=e1lrn=%T2=l=d=l6:tS=k=$,q*R*T  ",
  "*T+>=@=lWGWHWJDugu=j&R*'6O$^$z6O=@=kWK+J=s=%&R=%rnWK$z&Z1c*`+n  ",
  "+n*_1c+r=@@$rn+J*'[~$s$a1c1c1c$a+>,q=#&Z@o+k:5[~=$&Z=2,D*`+n    ",
  "    +n*_*`=1*R=1*`*_*T+n+n+n+n+n+n*T*_*`=1*R*R*R*R=1*`*T+n      ",
  "                                      +n+n+n+n+n+n+n+n          "
};
