/* XPM */
const char *xpm_tango_mimetypes_font_x_generic[] = {
  // Header (width height colors chars-per-pixel)
  "32 32 173 2",
  
  // Colors (code mode value)
  "+n c #00000001",
  "*` c #00000004",
  "=1 c #00000005",
  "1c c #00000009",
  "+> c #0000000B",
  ",q c #0000000C",
  "=2 c #0000000D",
  ":l c #0000000F",
  "&Z c #00000011",
  "+r c #00000012",
  "$w c #00000013",
  "[~ c #00000017",
  "6O c #0000001B",
  "=k c #0000001F",
  "+g c #00000021",
  "=e c #00000023",
  "QV c #5180B8FF",
  "QB c #5381B9FF",
  "Qx c #5482BAFF",
  "Qz c #5584BBFF",
  "Qg c #5685BCFF",
  "]( c #5786BDFF",
  "Qp c #5887BDFF",
  "QN c #5A87BCFF",
  "Qi c #5A88BEFF",
  "Qr c #5C8BC0FF",
  "Q0 c #5F8DC2FF",
  "Q1 c #618FC4FF",
  "[, c #6391C5FF",
  "Q; c #6492C5FF",
  "Q< c #6492C6FF",
  "Q- c #6593C6FF",
  "[8 c #6694C7FF",
  "Q, c #6795C8FF",
  "Q@ c #6895C8FF",
  "Qd c #6996C8FF",
  "[i c #6996C9FF",
  "Qt c #6A93C4FF",
  "Qo c #6A98CAFF",
  "yR c #6B97C7FF",
  "[l c #6C99CBFF",
  "W{ c #6D9ACBFF",
  "[B c #6F9CCDFF",
  "QC c #7297C3FF",
  "Qb c #729AC8FF",
  "'~ c #729FCFFF",
  "W} c #739ECCFF",
  "N, c #739FCFFF",
  "w, c #76A1CEFF",
  "23 c #76A2D1FF",
  "Qj c #779FCBFF",
  "Q4 c #77A0CEFF",
  "Q9 c #79A0CAFF",
  "Qw c #7AA2CEFF",
  "jy c #7AA4D2FF",
  "QM c #7C9FC7FF",
  "No c #81A9D3FF",
  "hJ c #82A9D4FF",
  "=x c #83AAD4FF",
  "Hq c #84A6CDFF",
  "QS c #858782B6",
  "M~ c #86ACD5FF",
  "g, c #878984FF",
  "WP c #888A85FE",
  "eB c #888A85FF",
  "WI c #898B86FE",
  "QA c #8A8C87B1",
  "M[ c #8AAFD6FF",
  "W` c #8BAED4FF",
  "Q> c #8CAFD4FF",
  "WL c #91928EA9",
  "Qe c #91AFD0FF",
  "Av c #92B4D9FF",
  "W_ c #97B7D9FF",
  "Q2 c #9DB7D5FF",
  "Qc c #9EB6D2FF",
  "gW c #9EBCDCFF",
  "W) c #A2BEDCFF",
  ")= c #A5A6A3FF",
  "WW c #A5C1DEFF",
  "WY c #A6A7A3FF",
  "1< c #A6A7A4FF",
  "WU c #A7A8A4FF",
  "L` c #A7A8A5FF",
  "Qu c #A7BED7FF",
  "LR c #A8A9A6FF",
  "Qn c #A8C0D9FF",
  "Hf c #A9C1DCFF",
  "W[ c #ABC4DEFF",
  "W] c #ACC6DFFF",
  "W' c #B5CBE3FF",
  "Q: c #B6C9DDFF",
  "Ql c #B7C9DCFF",
  "W/ c #B8CDE3FF",
  "HZ c #B9CDE3FF",
  "WR c #B9CEE3FF",
  "Qf c #BACBDDFF",
  ".e c #BACDE0FF",
  "Qv c #BCCEE2FF",
  "QX c #C0D1E3FF",
  "WT c #C2D4E7FF",
  "Q= c #C5D3E4FF",
  "Q3 c #C5D5E5FF",
  "Qh c #CAD5E0FF",
  "W( c #CAD9E8FF",
  "Q$ c #CCD9E8FF",
  "Q# c #CED9E5FF",
  "Q* c #CEDAE6FF",
  "Q& c #CEDAE7FF",
  "W~ c #CEDBE9FF",
  "Q% c #D0DCE8FF",
  "W^ c #D3DFEBFF",
  "Q+ c #D4DFE9FF",
  "Qk c #D7E0E9FF",
  "Qs c #D8E1EAFF",
  "42 c #D9E3ECFF",
  "QZ c #DBE1E5FF",
  "W! c #DDE6EEFF",
  "Qm c #DEE4E8FF",
  "*k c #E3E8EDFF",
  "WQ c #E3E9EFFF",
  "QO c #E4E9EDFF",
  "Qa c #E6E9EAFF",
  "Q5 c #E6EAEDFF",
  "W| c #E8EDF1FF",
  "Q8 c #E9ECEDFF",
  "Q7 c #E9ECEEFF",
  "4& c #EAEDEEFF",
  "Q6 c #EAEDEFFF",
  "WE c #EBEFF2FF",
  "Q. c #ECEFF2FF",
  "#& c #EEEEECFF",
  "Qq c #EEF0F2FF",
  "#' c #EFEFEDFF",
  "lt c #EFEFEEFF",
  "#u c #F0F0EEFF",
  "l8 c #F0F0EFFF",
  "Qy c #F0F1F1FF",
  "#` c #F1F1EFFF",
  ",0 c #F1F1F0FF",
  "#Z c #F2F2F0FF",
  "c} c #F2F2F1FF",
  "M7 c #F2F3F3FF",
  "#_ c #F3F3F1FF",
  "55 c #F3F3F2FF",
  "$< c #F4F4F2FF",
  "hE c #F4F4F3FF",
  ">r c #F4F5F4FF",
  "Xv c #F4F5F6FF",
  "#) c #F5F5F3FF",
  "c` c #F5F5F4FF",
  "$, c #F6F6F4FF",
  "v0 c #F6F6F5FF",
  "+W c #F6F6F6FF",
  ">s c #F6F7F6FF",
  "v9 c #F7F7F6FF",
  ":9 c #F7F7F7FF",
  ",3 c #F8F8F7FF",
  ";R c #F8F8F8FF",
  "lP c #F9F9F8FF",
  ":v c #F9F9F9FF",
  "g~ c #FAFAF9FF",
  ":5 c #FAFAFAFF",
  "}1 c #FBFBFAFF",
  ";Q c #FBFBFBFF",
  "}y c #FCFCFBFF",
  ";7 c #FCFCFCFF",
  "}u c #FDFDFCFF",
  "=q c #FDFDFDFF",
  "}% c #FEFEFDFF",
  "=w c #FEFEFEFF",
  "1U c #FFFFFFFF",
  "   c none",
  
  // Image data
  "                                                                ",
  "    WLWPeBeBeBeBeBeBeBeBeBeBeBeBeBeBeBeBeBeBeBeBeBeBeBeBWPWL    ",
  "    WI1U1U1U1U1U1U1U1U1U1U1U1U1U1U1U1U1U1U1U1U1U1U1U1U1U1UWI    ",
  "    eB1U1U1ULR1U1U=w=w=w=q=q;7;7;Q;Q:5:5g~:vlP;R,3:9v9+W1UeB    ",
  "    eB1U1U1U1U1U=w=w}%=q}u;7}y;Q}1:5g~g~lPlP,3,3v9v9+Wv01UeB    ",
  "    eB1ULR1ULR=wLR}%L`}uL`}yL`}1L`g~WUlP1<,31<v91<v0WY$,1UeB    ",
  "    eB1U1U1U=w=w}%=q}u;7}y;Q}1:5g~g~lPlP,3,3v9v9v0v0c`c`1UeB    ",
  "    eB1U1U=wLR=q=q}u;7}y;Q}1:5g~:vlPlP,3XvWTv9v0v0c`c`#)1UeB    ",
  "    eB1U=w=w=q=q}u;7}y;Q}1:5g~:vlPlP,3,3WRM[v0v0c`c`#)hE1UeB    ",
  "    eB1U=w=qL`}u;7}y;Q}1:5g~:vlPlP,3,3WEjy23>rc`c`#)hE$<1UeB    ",
  "    eB1U=q=q;7;7}y;Q}1:5g~:vlP;R,3,3v9WW'~'~WQc`hEhE$<551UeB    ",
  "    eB1U=q;7L`}y;Q}1:5g~:vlP;R,3,3v9W!No'~'~W~hEhE$<55#_1UeB    ",
  "    eB1U;7;7}y;Q}1:5g~:vlP;R,3,3v9>sAvW^N,'~W/hE$<55#_c}1UeB    ",
  "    eB1U;7}yL`}1:5g~:vlP;R,3,3v9v9W(gWc`=x'~W)5555#_c}#Z1UeB    ",
  "    eB1U;Q;Q}1:5g~:vlP;R,3:9v9v9M7M~WQc`W_[BW`55#_c}#Z,01UeB    ",
  "    eB1U;Q}1L`g~:vlP;R,3:9v9v9v0W'W]c`hEW[W{W}#_c}#Z,0#`1UeB    ",
  "    eB1U}1:5g~:vlP;R,3:9v9v9v0W|hJQ.hEhEQXQo[iQO#Z,0#`l81UeB    ",
  "    eB1U:5g~1<lP;R,3:9v9+Wv0v0W)HZhEhE55Q+Q@[8Q#,0#`l8#u1UeB    ",
  "    eB1Ug~:vlP;R,3:9v9+Wv0v042w,Q$Q%Q&Q*Q=Q-Q;Q:#`l8#ult1UeB    ",
  "    eB1UlPlP1<,3v9v9v0v0$,>rQ>[lQo[iQ,[8Q<[,Q1Q2l8#ult#'1UeB    ",
  "    eB1UlP,3,3v9v9v0v0$,c`Q3Q4Q5Q64&Q7Q8Q8Q9Q0Hq#u#'#'#&1UeB    ",
  "    eB1U,3,31<v9v0v0c`c`QqQw.e55#_c}#Z,0#`QeQrQt#'#'#&#&1UeB    ",
  "    eB1U,3v9v9v0v0c`c`#)HfQwQy#_c}#Z,0#`#`QuQiQpQa#&#&#&1UeB    ",
  "    eB1Uv9v9WYv0c`c`#)QsQd.e#_c}#Z,0#`#`#uQf](QgQh#&#&#&1UeB    ",
  "    eB1Uv9v0v0c`c`hE*kQjQ;Qkc}#Z,0#`l8#u#uQlQzQxQc#&#&#&1UeB    ",
  "    eB1Uv0v0)=c`hEQvyR[,Q1QbQn,0#`l8#uQmQMQNQBQVQVQCQZ#&1UeB    ",
  "    eB1Uv0c`c`hEhE$<55#_c}#Z,0#`l8#u#u#'#'#&#&#&#&#&#&#&1UeB    ",
  "  +neB1Uc`c`)=hE$<55#_c}#Z,0#`l8#u#u#'#'#&#&#&#&#&#&#&#&1UeB&Z+n",
  "  =2eB1Uc`hEhE5555#_c}#Z,0#`l8#ult#'#'#&#&#&#&#&#&#&#&#&1UeB+g,q",
  "  :lWI1U1U1U1U1U1U1U1U1U1U1U1U1U1U1U1U1U1U1U1U1U1U1U1U1U1UWI=e+>",
  "  =1QAg,eBeBeBeBeBeBeBeBeBeBeBeBeBeBeBeBeBeBeBeBeBeBeBeBg,QS+r+n",
  "    +n1c$w6O=k=k=k=k=k=k=k=k=k=k=k=k=k=k=k=k=k=k=k=k6O[~:l*`    "
};
