/* XPM */
const char *xpm_tango_mimetypes_image_x_generic[] = {
  // Header (width height colors chars-per-pixel)
  "32 32 344 2",
  
  // Colors (code mode value)
  "+n c #00000001",
  "*T c #00000002",
  "*R c #00000006",
  "$a c #0000000A",
  "+> c #0000000B",
  ",q c #0000000C",
  "$s c #00000010",
  "+r c #00000012",
  "$w c #00000013",
  ":5 c #00000018",
  "$^ c #00000019",
  "*' c #00000020",
  "+g c #00000021",
  "eg c #0000002C",
  "1S c #2121213E",
  "^J c #2D4165FF",
  "^F c #31415EFF",
  "^B c #33405AFF",
  "^m c #34415CFF",
  "^N c #34425CFF",
  "^D c #384B6DFF",
  "!< c #396098FF",
  "^S c #3B4E72FF",
  "^f c #3C4963FF",
  "^n c #3C4C6AFF",
  "!, c #3C6299FF",
  "^j c #3E4B65FF",
  "^d c #3E4B66FF",
  "!> c #3E649BFF",
  "Zg c #40404014",
  "^W c #4044403C",
  "!: c #41669CFF",
  "^h c #42506DFF",
  "^M c #435375FF",
  "^V c #445679FF",
  "!; c #44699EFF",
  "^b c #46597DFF",
  "!- c #476B9FFF",
  "^I c #484B50FF",
  "^v c #485B80FF",
  "!s c #486CA0FF",
  "^c c #495C81FF",
  "!= c #496DA0FF",
  "^H c #4A4D52FF",
  "^s c #4A5A7AFF",
  "!a c #4A6DA1FF",
  "^g c #4B5A7AFF",
  "^k c #4B5B7BFF",
  "^x c #4B5E82FF",
  "^A c #4C4F54FF",
  "!* c #4C6FA1FF",
  "!p c #4C6FA2FF",
  "^C c #4E5157FF",
  "Q' c #4F555FFF",
  "!& c #4F71A3FF",
  "!i c #4F72A4FF",
  "^l c #505359FF",
  "^9 c #50596DFF",
  "^7 c #505A6EFF",
  ";E c #515151FF",
  "~i c #515252FF",
  "^z c #51545AFF",
  "!1 c #515760FF",
  "Q` c #515761FF",
  "!% c #5173A4FF",
  "^` c #5252505D",
  "^* c #525253FF",
  "^q c #52555BFF",
  "^8 c #525B70FF",
  "^6 c #525C72FF",
  "!u c #5274A5FF",
  "~, c #53575EFF",
  "Q_ c #535962FF",
  "^; c #54575DFF",
  "!d c #545962FF",
  "!$ c #5475A6FF",
  "!` c #555A61FF",
  "^a c #55678BFF",
  "~s c #56595FFF",
  "!F c #565B62FF",
  "Q) c #565B64FF",
  "^p c #56688DFF",
  "!D c #5676A7FF",
  "!# c #5677A7FF",
  "!y c #5778A7FF",
  "~A c #585B60FF",
  "^i c #586A8EFF",
  "!S c #5878A8FF",
  "~N c #595A5BFF",
  "Q( c #595E67FF",
  "!@ c #597AA9FF",
  "~Q c #5A5D62FF",
  "!A c #5A79A9FF",
  "Q/ c #5B6069FF",
  "!t c #5B7BAAFF",
  "!+ c #5C7CAAFF",
  "~} c #5D5F63FF",
  "Q^ c #5D626BFF",
  "^= c #5D6372FF",
  "^0 c #5D6D8EFF",
  "^u c #5D6E91FF",
  "!Z c #5D7CABFF",
  "^5 c #5E6D8BFF",
  "!O c #5E7EABFF",
  "Q~ c #5F646DFF",
  "^% c #5F6676FF",
  "^$ c #5F6778FF",
  "!C c #5F7DACFF",
  "^w c #606369FF",
  "~B c #606771FF",
  "~E c #61646BFF",
  "~Y c #61656BFF",
  "Q! c #61666FFF",
  "^& c #616A7BFF",
  "^y c #617194FF",
  "!V c #617FADFF",
  "!r c #6180ADFF",
  "~C c #626873FF",
  "!_ c #6280ADFF",
  "^4 c #63759AFF",
  "=4 c #6381AEFF",
  "!o c #6382AAFF",
  "!e c #6382AEFF",
  "QQ c #646972FF",
  "^3 c #64769AFF",
  "Q[ c #6482AEFF",
  "~u c #656E7CFF",
  "^t c #657597FF",
  "!) c #6582AEFF",
  "!w c #6583AFFF",
  "^: c #66686EFF",
  "~y c #666970FF",
  "QW c #666B74FF",
  "!B c #6683AFFF",
  "Q{ c #6684AFFF",
  "~- c #676D76FF",
  "^e c #677798FF",
  "^r c #677799FF",
  "Q} c #6785AFFF",
  "~] c #686B71FF",
  "QE c #686D75FF",
  "!^ c #687790FF",
  "!( c #6884B0FF",
  "!N c #6885B1FF",
  "!q c #6886B1FF",
  "~; c #69778CFF",
  "^2 c #697A9EFF",
  "QR c #6A6F77FF",
  "!/ c #6A86B1FF",
  "!M c #6A86B2FF",
  "~| c #6B6D73FF",
  "~= c #6B727EFF",
  "~V c #6B7686FF",
  "~> c #6B86B1FF",
  "~T c #6C737FFF",
  "QT c #6D7179FF",
  "^# c #6D7D9EFF",
  "!~ c #6D84A7FF",
  "!m c #6D89B3FF",
  "^- c #6E7D9FFF",
  "!0 c #6E89B1FF",
  "~: c #6E89B3FF",
  "QY c #6F737BFF",
  "!n c #6F8AB4FF",
  "QU c #70757DFF",
  "^1 c #7081A3FF",
  "~p c #7083A1FF",
  "!! c #708BB4FF",
  "~R c #717987FF",
  "^@ c #7182A8FF",
  "!b c #718CB5FF",
  "!3 c #718DB5FF",
  "QI c #72777FFF",
  "!Q c #728DB5FF",
  "!X c #7290A8FF",
  "QH c #73787FFF",
  "!v c #738EB6FF",
  "QP c #747880FF",
  "QJ c #747981FF",
  "!W c #748EB6FF",
  "Q| c #748FAAFF",
  "!4 c #748FB5FF",
  "QL c #757A81FF",
  "^< c #7585A5FF",
  "^> c #7585A6FF",
  "~! c #76777BFF",
  "~S c #76797DFF",
  "QK c #767A82FF",
  "^, c #7686A6FF",
  "!E c #7690B7FF",
  "Q] c #777B82FF",
  "~d c #787B7FFF",
  "~t c #788597FF",
  "^+ c #7888ACFF",
  "!R c #7891B8FF",
  "~< c #797C80FF",
  "~a c #7992B9FF",
  "!' c #7A7D83FF",
  "!2 c #7A7E85FF",
  "!T c #7A93B9FF",
  "!G c #7B7E84FF",
  "!f c #7B7F85FF",
  "!g c #7B94BAFF",
  "~* c #7C94BAFF",
  "!Y c #7C95BBFF",
  "^^ c #7D7F7CB7",
  "~' c #7D8490FF",
  "~& c #7E96BBFF",
  "!U c #7E97BCFF",
  "!. c #7E99A7FF",
  "~` c #808793FF",
  "^O c #808FB1FF",
  "~% c #8098BCFF",
  "~$ c #8199BDFF",
  "^o c #8392B3FF",
  "~# c #839ABEFF",
  "^. c #8493B4FF",
  "!H c #849BBFFF",
  "~[ c #858C9AFF",
  "^X c #8594B4FF",
  "~@ c #859CBFFF",
  "~+ c #879DC0FF",
  "~Z c #889EC0FF",
  "!h c #889FB4FF",
  "~O c #889FC1FF",
  "~r c #8AA0C2FF",
  "!c c #8AA2ADFF",
  "~e c #8BA1C3FF",
  "^_ c #8C908CDD",
  "!] c #8CA2C3FF",
  "~M c #8D9DB6FF",
  "~w c #8DA2C3FF",
  "~q c #8FA4C4FF",
  "c% c #90938FFF",
  "~0 c #90A5C5FF",
  "~9 c #91A6C6FF",
  "~8 c #92A7C6FF",
  "^E c #939692E6",
  "^~ c #959994FC",
  "![ c #95A9BCFF",
  "~7 c #95A9C5FF",
  "!5 c #95ABABFF",
  "!J c #96AAB4FF",
  "~1 c #96AAC8FF",
  "~W c #97A9C8FF",
  "~m c #97ABC8FF",
  "~n c #98ABC9FF",
  "~b c #9AACC9FF",
  "~o c #9AAFB3FF",
  "~v c #9BADCAFF",
  "~c c #9CAECBFF",
  "!9 c #9CB1A5FF",
  "^! c #9DA19CFF",
  "~x c #9DAFCBFF",
  "^Y c #9EA19EE1",
  "~U c #9EAECBFF",
  "~z c #9EB1C9FF",
  "!I c #9EB3AAFF",
  "^R c #9FA29FFD",
  "~f c #9FB1CCFF",
  "~h c #A0B1CBFF",
  "~g c #A0B1CDFF",
  "~I c #A4B4CFFF",
  "^) c #A5A8A5FF",
  "~P c #A5B4CFFF",
  "~j c #A5B6C3FF",
  "^U c #A6A8A6FE",
  "~L c #A6B5D0FF",
  "^P c #A7ABA78B",
  "~K c #A7B6D0FF",
  "~J c #A7B6D1FF",
  "~l c #A7B8C2FF",
  "*w c #A8A9A7FF",
  "~H c #A8B7D1FF",
  "^T c #A9ACA8FF",
  "~G c #A9B8D1FF",
  "~D c #A9B8D2FF",
  "~F c #AAB9D2FF",
  "~{ c #ABB8D0FF",
  "~_ c #ACBAD0FF",
  "~k c #ADBCBCFF",
  "~2 c #ADBDB4FF",
  ")q c #AFB1AEFF",
  "^L c #B1B3B1FE",
  "On c #B2BFD4FF",
  "/j c #B5B8B4FF",
  "^K c #B5B9B6FF",
  "~) c #B5C1D5FF",
  "~6 c #B5C4AFFF",
  "~( c #B6C2D6FF",
  ",S c #B7B7B7FF",
  "~/ c #B7C3D6FF",
  "~~ c #B7C3D7FF",
  "~^ c #B8C3D7FF",
  "^Z c #BABDB9FF",
  "^( c #BABEBAFF",
  "QF c #BBBFBBFF",
  "^/ c #BBC0BB9D",
  "QD c #BBC0BBA5",
  "^Q c #BBC0BBFD",
  ",A c #BCBCBCFF",
  "|- c #BCBEBBFF",
  "^G c #BCBFBBFF",
  "QG c #BCC0BCFE",
  ";= c #BFBFBFFF",
  "+a c #CBCBCBFF",
  "#+ c #CCCCCCFF",
  "!6 c #CEDBADFF",
  "+c c #CFCFCFFF",
  "+v c #D0D0D0FF",
  "!j c #D0DAAEFF",
  "+b c #D1D1D1FF",
  ",V c #D2D2D2FF",
  ",, c #D3D3D3FF",
  ",n c #D4D4D4FF",
  "!{ c #D4DEADFF",
  ":o c #D5D5D5FF",
  ",N c #D6D6D6FF",
  "!8 c #D6E0AFFF",
  "~3 c #D6E2ACFF",
  ",M c #D7D7D7FF",
  ",B c #D8D8D8FF",
  ",b c #D9D9D9FF",
  ",m c #DADADAFF",
  ",v c #DBDBDBFF",
  ",_ c #DCDCDCFF",
  "!x c #DCE5B2FF",
  "~5 c #DCE7AFFF",
  "~X c #E0E9B3FF",
  "!K c #E2EAB7FF",
  "!7 c #E4EBBCFF",
  "~4 c #E7EFB8FF",
  ";t c #EDEEEDFF",
  "!P c #EDF2C2FF",
  "!} c #FBFDE9FF",
  "!k c #FBFDEBFF",
  "!z c #FCFEEEFF",
  "~. c #FDFDEDFF",
  "=q c #FDFDFDFF",
  "!| c #FEFFFCFF",
  "!l c #FFFFFDFF",
  "!L c #FFFFFEFF",
  "1U c #FFFFFFFF",
  "   c none",
  
  // Image data
  "                                                                ",
  "                                                                ",
  "                                                                ",
  "                                                                ",
  "  QDQFQFQFQFQFQFQFQFQFQFQFQFQFQFQFQFQFQFQFQFQFQFQFQFQFQFQFQFQD  ",
  "  QG1U1U1U1U1U1U1U1U1U1U1U1U1U1U1U1U1U1U1U1U1U1U1U1U1U1U1U1UQG  ",
  "  QF1U,v,v,v,_,_,_,v,v,v,v,m,m,b,b,B,B,M,M,N:o:o,n,n,,,,,V1UQF  ",
  "  QF1U,vQHQJQKQKQKQLQPQIQUQYQTQRQEQWQQQ!Q~Q^Q/Q(Q)Q_Q`Q',V1UQF  ",
  "  QF1U,_Q]Q[Q{Q}Q|!.!X!o!O!+!@!#!$!%!&!*!=!-!;!:!>!,!<!1,V1UQF  ",
  "  QF1U,_!2!3!4!5!6!7!8!9!0!q!w!e!r!O!t!@!y!$!u!i!p!a!s!d,V1UQF  ",
  "  QF1U,_!f!g!h!j!k!l!z!x!c!v!b!n!m!M!N!B=4!V!C!Z!A!S!D!F,V1UQF  ",
  "  QF1U,_!G!H!J!K!l1U!L!P!I!U!Y!T!R!E!W!Q!!!~!^!/!(!)!_!`,V1UQF  ",
  "  QF1U,v!'!]![!{!}!|~.~X~o~O~+~@~#~$~%~&~*~=~-~;~:~>!/~,+b1UQF  ",
  "  QF1U,m~<~1~1~2~3~4~5~6~7~8~9~0~q~w~e~r~t~y~u~i~p~a~a~s+b1UQF  ",
  "  QF1U,b~d~f~g~h~j~k~l~z~x~x~c~v~b~n~m~M~N~B~V;E~C~Z~Z~A,V1UQF  ",
  "  QF1U,b~S~D~F~F~F~D~D~G~H~J~K~L~P~I~U~Y;E~T~R;E~E~W~W~Q,,1UQF  ",
  "  QF1U,B~!~~~^~^~^~~~~~/~/~(~)~)On~_~`;E;E~'~];E~[~{~{~},n1UQF  ",
  "  QF1U,M~|^.^X^X^X^.^.^.^o^o^O^+^@^#^$^%^%^&^*^=^-^@^@^;:o1UQF  ",
  "  QF1U,N^:^>^>^,^,^>^>^<^1^2^3^4^4^5^6^7^7^8^9^7^0^4^4^q,N1UQF  ",
  "  QF1U:o^w^e^e^r^t^y^u^i^p^p^p^p^p^p^a^s^d^f^g^h^j^k^p^l,M1UQF  ",
  "  QF1U,V^z^x^c^v^v^v^v^v^v^v^v^v^v^v^v^v^b^n^m^M^N^B^V^C,M;t^Z  ",
  "  QF1U+b^A^S^S^S^S^S^S^S^S^S^S^S^S^S^S^S^S^S^D^F^Z^Z^Z^Z^G|-/j  ",
  "  QF1U+b^H^J^J^J^J^J^J^J^J^J^J^J^J^J^J^J^J^J^J^J^K,V+v+v#+^L^P  ",
  "  QF1U+b^I^I^I^I^I^I^I^I^I^I^I^I^I^I^I^I^I^I^I^I)q+c,A;=^U^YZg  ",
  "  QF1U,V,,,,,n,n,n:o:o:o,N,N,M,M,M,B,B,b,b,b,m,m^T+a,S^R^E^W$s  ",
  "  ^Q=q1U1U1U1U1U1U1U1U1U1U1U1U1U1U1U1U1U1U1U1U=q^!*w^~^^1S*'*R  ",
  "  ^/QGQFQFQFQFQFQFQFQFQFQFQFQFQFQFQFQFQFQFQF^(^)c%^_^`eg+g+>    ",
  "      +n$a$w$^$^$^$^$^$^$^$^$^$^$^$^$^$^$^$^$^$^$^:5+r,q*T      ",
  "                                                                ",
  "                                                                ",
  "                                                                ",
  "                                                                "
};
