/* XPM */
const char *xpm_tango_mimetypes_package_x_generic[] = {
  // Header (width height colors chars-per-pixel)
  "32 32 251 2",
  
  // Colors (code mode value)
  "+n c #00000001",
  "*T c #00000002",
  "*_ c #00000003",
  "=1 c #00000005",
  "*R c #00000006",
  "$p c #00000007",
  "1c c #00000009",
  ":l c #0000000F",
  "&Z c #00000011",
  "+r c #00000012",
  "=$ c #00000015",
  "+k c #00000016",
  ":5 c #00000018",
  "$^ c #00000019",
  "$z c #0000001A",
  "9b c #0000001E",
  "=k c #0000001F",
  "*' c #00000020",
  "=e c #00000023",
  "1l c #00000024",
  "+J c #00000027",
  "=s c #0000002B",
  "eg c #0000002C",
  "6: c #00000030",
  "T2 c #00000032",
  "=l c #00000035",
  ",E c #0000003B",
  "*/ c #0000003C",
  "68 c #0000003E",
  ",R c #00000042",
  "=j c #00000043",
  ")q c #4C32067F",
  ")9 c #55380772",
  "/J c #9B640B17",
  "(3 c #9C630E12",
  "/{ c #9E610C15",
  ")8 c #9E6811EB",
  "(b c #9E690F22",
  "^} c #9F670BF6",
  "/. c #9F670BF8",
  "/X c #9F670BFF",
  "/@ c #9F670E25",
  ")0 c #9F6710EF",
  "/H c #9F680B5D",
  "^| c #9F680BF6",
  "^{ c #9F680BF8",
  "/b c #9F680D62",
  "(T c #9F690E38",
  "), c #9F6911EA",
  "^' c #A0650C2B",
  "(c c #A0670B9E",
  "/o c #A0670BFF",
  "^[ c #A0670CFF",
  "(v c #A0690D4E",
  "(x c #A1650C6A",
  "(2 c #A1670C54",
  "/[ c #A1670C57",
  "(K c #A1670CC6",
  "(1 c #A1680CFA",
  "/9 c #A16A0C54",
  "(Y c #A16A0C57",
  "/0 c #A2640F21",
  "/+ c #A2660E37",
  "/G c #A2690EF5",
  "(5 c #A2690FAA",
  "(~ c #A26A0FF8",
  "(R c #A26A0FFA",
  "/C c #A26C17FF",
  "/O c #A3680DC4",
  "(z c #A3690EB9",
  "/8 c #A3690EDE",
  "(! c #A36A10FF",
  "(l c #A36A12E9",
  "(Q c #A36B10FF",
  "(E c #A36B11FF",
  "/q c #A36C15EC",
  "/m c #A36D15E7",
  "/n c #A464091C",
  "/v c #A46A0DF6",
  "^] c #A46B13B0",
  "(J c #A46C11A6",
  "(X c #A46C13FF",
  "(L c #A46D14C4",
  "(W c #A46D14FF",
  "/K c #A46E14E3",
  "(^ c #A5690F11",
  "/7 c #A56C0EF4",
  "(, c #A56C13FF",
  "/} c #A56E16DD",
  "/i c #A56E17FF",
  "/# c #A56E18CE",
  "(4 c #A66E16E4",
  "/u c #A6711EFF",
  "/y c #A6721FFF",
  "/$ c #A7701BF5",
  "/t c #A7711FFF",
  "/p c #A97018FF",
  "(n c #A97622F6",
  "(_ c #AA6A150C",
  "/V c #AA7420FF",
  "(< c #AD7113FE",
  "/a c #AD7318FF",
  "/s c #B27619FF",
  "(U c #B58537F6",
  "/d c #B6791AFF",
  "/| c #B78A41FC",
  "(. c #B88941F3",
  "/f c #BB7C1AFF",
  "(( c #BC8024FF",
  "/g c #BF7F1BFF",
  "/] c #C28019FF",
  "/h c #C3821CFF",
  "(6 c #C49A58FF",
  "/6 c #C49F64FF",
  "(' c #C58A30FF",
  "/j c #C8851CFF",
  "/c c #CA861CFF",
  "({ c #CB933BFF",
  "/F c #CC871DFF",
  "/k c #CC881DFF",
  "/x c #CE9B4DFD",
  "/w c #CFAA74FD",
  "(H c #D0AA6DF9",
  "/L c #D0AE76FC",
  "/Z c #D18B1EFF",
  "). c #D19B47FF",
  "/D c #D29536FF",
  "/M c #D3B37EFB",
  "/l c #D4912DFF",
  "/% c #D5AD6AFF",
  "/A c #D69D3FFF",
  "/r c #D6AD6BFE",
  "() c #D6B279FF",
  ")O c #D8A352FF",
  "(/ c #D9B886FF",
  ")7 c #DDB476FF",
  "(] c #DDBB86FF",
  ")# c #DEAB5DFF",
  ")< c #DFB77BFF",
  "/B c #E0BC7FFF",
  "(} c #E0BF8BFF",
  "(o c #E0C08EFF",
  "/* c #E1BC7FFF",
  "(` c #E1C292FF",
  "/= c #E2BC80FF",
  ")X c #E3C391FF",
  "([ c #E3C596FF",
  "/& c #E4BF83FF",
  ")& c #E5B468FF",
  "/- c #E6C287FF",
  "/; c #E6C48DFF",
  "(+ c #E6C590FF",
  "/R c #E6C694FF",
  "/T c #E6C896FF",
  "/E c #E6C898FF",
  "(| c #E6C99BFF",
  "(k c #E6C99EFF",
  "/e c #E6CA9AFF",
  "(@ c #E7C692FF",
  "(# c #E7C795FF",
  ")+ c #E7C796FF",
  "($ c #E7C897FF",
  "(% c #E7C999FF",
  "(& c #E7C99CFF",
  "/W c #E7CB9DFF",
  "(* c #E7CCA0FF",
  "/z c #E7D2B1FE",
  "/I c #E8C58CFF",
  "/: c #E8C895FF",
  "/Y c #E8C998FF",
  "(= c #E8CDA1FF",
  "/Q c #E8CEA2FF",
  "(- c #E8CEA4FF",
  "{| c #E8CFA6FF",
  "(P c #E8D0ABFE",
  "/S c #E8D5B6FF",
  "); c #E9B96FFF",
  "): c #E9BA71FF",
  ")- c #E9BA72FF",
  "/> c #E9CB9CFF",
  "(: c #E9CFA6FF",
  "(; c #E9D0A6FF",
  "/! c #E9D0A7FF",
  "/P c #E9D3AFFF",
  ")o c #EACCA0FF",
  "/~ c #EAD2ACFF",
  "/^ c #EAD4B1FF",
  "(D c #EBC282FF",
  "(S c #EBC283FF",
  "(F c #EBC285FF",
  "(A c #EBC384FF",
  "(Z c #EBC385FF",
  ")$ c #EBCB9BFF",
  "/, c #EBCFA3FF",
  "// c #EBD6B6FF",
  "(C c #ECC487FF",
  "(V c #ECC588FF",
  "(B c #ECC589FF",
  "(h c #ECC68AFF",
  "(g c #ECC68BFF",
  "/( c #ECD9BAFF",
  "/) c #ECDABDFF",
  "(f c #EDC78DFF",
  "(d c #EDC88EFF",
  "(s c #EDC88FFF",
  "(a c #EDC990FF",
  "(p c #EDC991FF",
  "/U c #EDCC97FF",
  ")@ c #EDD0A5FF",
  "/< c #EDD3AAFF",
  "(> c #EDD9B9FF",
  "/_ c #EDDABDFF",
  "(N c #EECA92FF",
  "(i c #EECA93FF",
  "(u c #EECB94FF",
  "(y c #EECB95FF",
  "(t c #EECC96FF",
  "(r c #EECC97FF",
  "(e c #EFCD99FF",
  "(w c #EFCE9AFF",
  "(q c #EFCE9BFF",
  "(0 c #EFCF9CFF",
  ")* c #EFD1A1FF",
  "(O c #EFD5ACFF",
  "/1 c #EFD7B1FF",
  "(9 c #F0D09EFF",
  "(8 c #F0D1A0FF",
  "(M c #F0D2A4FF",
  ")% c #F0D5AAFF",
  "/2 c #F0DAB9FF",
  "/5 c #F0E0C6FE",
  "/' c #F0E0C8FF",
  ")> c #F1D3A4FF",
  ")6 c #F1D3A5FF",
  ")5 c #F1D4A6FF",
  ")4 c #F2D4A7FF",
  ")3 c #F2D5A8FF",
  ")2 c #F2D5A9FF",
  ")1 c #F2D6AAFF",
  ")= c #F2D6ABFF",
  "(j c #F2D9B4FF",
  "/3 c #F2DFC0FF",
  "(m c #F2DFC3FF",
  "(G c #F3DDBEFF",
  "(7 c #F3E1C4FF",
  "/N c #F4E1C0FF",
  "/4 c #F4E2C7FF",
  "(I c #F4E3CAFF",
  "/` c #F6E9D5FF",
  "Rr c #FF000001",
  "   c none",
  
  // Image data
  "                                                                ",
  "                                                                ",
  "                                                                ",
  "                                                                ",
  "                                                                ",
  "                                                                ",
  "              ^'^]^[^{^}^}^}^|/./X/X/X/X/X/o^[/O/+              ",
  "          /@/#/$/%/&/*/=/-/;/:/>/,/</1/2/3/4/5/6/7/8/9          ",
  "        /0/q/w/e/r/t/y/u/i/p/a/s/d/f/g/h/j/k/l/z/x/c/v/b        ",
  "      /n/m/M/N/B/V/C/C/C/i/p/a/s/d/f/g/h/j/k/Z/A/S/D/F/G/H      ",
  "    /J/K/L/P/I/U/Y/Y/Y/T/R/E/W/Q/!/~/^///(/)/_/_/`/'/]/h/G/[    ",
  "  /{/}/|(.(X(o(O(+(+(+(@(#($(%(&/W(*(=(-{|(;(:(:/2(>(,/v(<(1(2  ",
  "(3^[^[(4(5(6(7(8(9(0(q(w(e(r(t(y(u(i(p(a(s(d(f(g(h(j(k(l(z^[^[(x",
  "(c^[(v(b(n(m(M(t(y(u(i(N(a(s(d(f(g(h(B(V(C(Z(A(S(D(F(G(H(J(b(K^[",
  "      (L(P(I(I(I(I(I(I(I(I(I(I(I(I(I(I(I(I(I(I(I(I(I(I(I(U(Y    ",
  "    (T^[(R(E(W(E(E(E(E(E(E(E(E(E(E(E(Q(Q(Q(Q(Q(Q(Q(X(!(~^[^[    ",
  "    Rr(^(^^[(/((((((((((((((((((((((((((((((((((((()^[(^(^(_    ",
  "          ^[(`('('('('('('('('('('('('('('('('('('(]^[          ",
  "          ^[([({({({({({({({({({({({({({({({({({({(}^[          ",
  "          ^[(|).).).).).).).).).).).).).).).).).).)X^[          ",
  "          ^[)o)O)O)O)O)O)O)O)O)O)O)O)O)O)O)O)O)O)O)+^[          ",
  "          ^[)@)#)#)#)#)#)#)#)#)#)#)#)#)#)#)#)#)#)#)$^[          ",
  "          ^[)%)&)&)&)&)&)&)&)&)&)&)&)&)&)&)&)&)&)&)*^[*R        ",
  "      $p:5^[)=)-););););););););););););););););):)>^[=e=$*_    ",
  "      +k=s),)<)=)=)1)1)1)2)2)2)3)4)4)5)5)5)6)6)>)>)7)8,E+J+r    ",
  "    *_$z6:)9)0^[^[^[^[^[^[^[^[^[^[^[^[^[^[^[^[^[^[)0)q=jeg=$    ",
  "      &Z1l=l*/,R,R,R,R,R,R,R,R,R,R,R,R,R,R,R,R,R,R*/68T2*'=1    ",
  "        1c$^=k=e=e=e=e=e=e=e=e=e=e=e=e=e=e=e=e=e=e=k9b:l*T      ",
  "              +n+n+n+n+n+n+n+n+n+n+n+n+n+n+n+n+n+n              ",
  "                                                                ",
  "                                                                ",
  "                                                                "
};
