/* XPM */
const char *xpm_tango_mimetypes_text_x_generic_template[] = {
  // Header (width height colors chars-per-pixel)
  "32 32 144 2",
  
  // Colors (code mode value)
  "+n c #00000001",
  "*T c #00000002",
  "*R c #00000006",
  "$p c #00000007",
  ",D c #00000008",
  ",q c #0000000C",
  "=2 c #0000000D",
  ":l c #0000000F",
  "@o c #00000014",
  "=$ c #00000015",
  "+k c #00000016",
  "`L c #00000018",
  "6O c #0000001B",
  "=@ c #0000001D",
  "WK c #00000022",
  "tS c #00000029",
  "6: c #00000030",
  ":s c #00000031",
  ",E c #0000003B",
  "=r c #00000040",
  ",R c #00000042",
  "=f c #00000046",
  "!$ c #00000047",
  ":g c #0000004A",
  ":a c #33333381",
  ":y c #37373778",
  "kv c #4B4B4BFF",
  ":- c #4C4C4CFF",
  ":+ c #4E4E4EFF",
  "rt c #4F4F4FFF",
  ";] c #505050FF",
  "`w c #515151F1",
  "`U c #515151F2",
  "kx c #525252FF",
  ";D c #535353FF",
  ":e c #545454FF",
  "6[ c #555555FF",
  "`k c #565656F6",
  "6] c #565656FF",
  "`Y c #575757F7",
  ":F c #575757FF",
  "Il c #585858FF",
  ">' c #595959FF",
  ":d c #5A5A5AFF",
  "5| c #5B5B5BFF",
  "5{ c #5C5C5CFF",
  "5[ c #5D5D5DFF",
  "6_ c #60606052",
  ">J c #606060FF",
  "6` c #636363EF",
  "rr c #636363FF",
  ")w c #646464F2",
  ":4 c #646464FF",
  ">L c #666666FF",
  ":; c #686868FF",
  "Nv c #6A6A6AFF",
  ":@ c #6B6B6BFF",
  "t: c #6D6D6DFF",
  "t1 c #6F6F6FFF",
  "6^ c #707070FF",
  ";W c #727272FF",
  ",c c #737373FF",
  ",l c #767676FF",
  ",k c #777777FF",
  ",h c #7A7A7AFF",
  ",z c #7D7D7DFF",
  "mk c #808080FF",
  ";@ c #818181FF",
  "t2 c #838383FF",
  "-^ c #848484FF",
  "1{ c #868686FF",
  "-O c #888888FF",
  "-Y c #898989FF",
  "mV c #8B8B8BFF",
  ";* c #8C8C8CFF",
  "9M c #8E8E8EFF",
  "-, c #8F8F8FFF",
  "2+ c #909090FF",
  ",7 c #929292FF",
  "=L c #939393FF",
  "=& c #95959552",
  ")e c #969696EF",
  "2@ c #969696FF",
  "1@ c #999999F2",
  "2# c #999999FF",
  ",J c #9C9C9CFF",
  "<y c #9E9E9EFF",
  ":7 c #C8C8C8FF",
  ">x c #C9C9C9FF",
  ",< c #CACACAFF",
  "+a c #CBCBCBFF",
  "#+ c #CCCCCCFF",
  ",2 c #CDCDCDFF",
  ";_ c #CECECEFF",
  "+c c #CFCFCFFF",
  "+v c #D0D0D0FF",
  "+b c #D1D1D1FF",
  ",V c #D2D2D2FF",
  ",, c #D3D3D3FF",
  ",n c #D4D4D4FF",
  ":o c #D5D5D5FF",
  ",N c #D6D6D6FF",
  ",M c #D7D7D7FF",
  ",B c #D8D8D8FF",
  ",b c #D9D9D9FF",
  ",m c #DADADAFF",
  ",v c #DBDBDBFF",
  ",_ c #DCDCDCFF",
  "=b c #DDDDDDFF",
  "=[ c #DEDEDEFF",
  "={ c #DFDFDFFF",
  "&_ c #E0E0E0FF",
  "+Z c #E1E1E1FF",
  "+A c #E2E2E2FF",
  "+S c #E3E3E3FF",
  "&I c #E4E4E4FF",
  ";3 c #E5E5E5FF",
  ";b c #E6E6E6FF",
  ";G c #E7E7E7FF",
  ":# c #E8E8E8FF",
  ":2 c #E9E9E9FF",
  ",$ c #EAEAEAFF",
  ":, c #EBEBEBFF",
  ":> c #ECECECFF",
  ";9 c #EDEDEDFF",
  ":< c #EEEEEEFF",
  ";A c #EFEFEFFF",
  ";T c #F0F0F0FF",
  ";` c #F1F1F1FF",
  ";' c #F2F2F2FF",
  ":O c #F3F3F3FF",
  ":3 c #F4F4F4FF",
  "=a c #F5F5F5FF",
  "+W c #F6F6F6FF",
  ":9 c #F7F7F7FF",
  ";R c #F8F8F8FF",
  ":v c #F9F9F9FF",
  ":5 c #FAFAFAFF",
  ";Q c #FBFBFBFF",
  ";7 c #FCFCFCFF",
  "=q c #FDFDFDFF",
  "=w c #FEFEFEFF",
  "1U c #FFFFFFFF",
  "   c none",
  
  // Image data
  "                                                                ",
  "                                                                ",
  "        =&1@2#,J<y,J2#2@=L-,;*-O-^;@,z,h,l;Wt1:@:;:4)w6_        ",
  "        )e=q=q=w=w=w=q=q=q=q;7;7;7;Q;Q;Q:5:5:5:v:v:v;R6`        ",
  "        =L=q:7>x+a#+;_+v,,,N,M,m,$;A;`:O+W;R:5;7=w1U;R5[        ",
  "        ,7=w>x,<+a;_+v,V:o,N,B,N;`;A;`:O=a:9:v;7=w1U;R5[        ",
  "        2+=w,<+a,2+c+b,,,N,M,m&_;A;A;`:O=a:9:v;Q=q1U;R5{        ",
  "        9M=q+a#+;_+v,,:o,M,b,v=[:2;A;`:O=a:9:v;Q=q=w;R5{        ",
  "        mV=q+a,2+c,V,n,N,B,b,_+Z:<;9;`:O=a:9:v;Q;7=w;R5|        ",
  "        -Y=q#+;_+b,V:o,M,m,N+A,$+S:2:O:O=a:9:v:5;7=w;R:d        ",
  "        1{=q,2+c+b,n,M,b,m=b,$={;G;A;':3=a:9;R:5;7=q;R>'        ",
  "        t2=q;_+v,,,N,B,m,_+A:#;b:<,$;`:3=a:9;R:5;7=q;RIl        ",
  "        mk;7+c+b,n,M,b,v,_&I:#;b:2,$;9:3=a:9;R:5;Q=q;R:F        ",
  "        ,z;7+v,,,N,B,m,_,N:2:2={:,:,+S:3=a:9;R:5;Q=q;R6[        ",
  "        ,h;7+b,n,M,B,v=[+S;9,$,$;A:>:>=a+W:9;R:5;Q;7;R:e        ",
  "        ,k;Q,V:o,B,m=b&_:#,$:,;b:,;9;9:O+W:9;R:5;Q;7;Rkx        ",
  "        ,c;Q,,,N,B,v=b={,$:,:>&I;A:<:<;A=a:9:v:5;Q;7;R;]        ",
  "        6^;Q:o,M,b,_,_,_;9:>;9;9;A;A;A&I:O;R:v:5;Q;7:9:+        ",
  "        t:;Q:o,B,m=b&_:2;9:>;9+A:>;T;T;A+W;R:v:5;Q;7:9:-        ",
  "        Nv:5,M,b,v=[&I:,:>;9:<:2;';T;`;':3;R:v:5;Q;7:9kv        ",
  "        >L:5,M,b,_=[;3:,:>;9:<:>;A;`;':O:O:9:5:5;Q;7:9kv        ",
  "        rr:5,B,m=b,b;3:<;9:<;A+A;9;':O:3;9,$;Q:5;Q;7:9kv        ",
  "        >J:v,B,m=[;3:<:>;9:<;A:<:O;':O:3:3=a:5;Q;Q;7:9kv        ",
  "        5[:v,B,_={:2:,:>;9:<;T:2;T:O:3=a+W:9:5;Q;Q;7:9kv        ",
  "        >':v,m=b&_:2:,:>;9;A;T;3;`:O:3=a+W:9;R;Q;Q;7:9kv        ",
  "        6];R,m=b,_:2:,:>;9;A;T;`;':O:3=a:9;R;3;R;Q;7:9kv        ",
  "        ;D;R,m={:#:<:,:>;9:<;T&I:<:O:3=a+W:9:3:5;Q;Q:9kv        ",
  "        rt;R,m+A:2,$:,:>;9:<;A:2:O:O:3=a=a+W+W;R:5;Q:9kv        ",
  "      =2`w:9+W+W+W:9:9:9:9:9:9:9:9:9:9:9:9:9:9:9;R;R:9`U`L$p    ",
  "    =2WK:y`k6]6]6]6]6]6]6]6]6]6]6]6]6]6]6]6]6]6]5{6]`Y:a:s6O*T  ",
  "    *R=@6:=r!$:g:g:g:g:g:g:g:g:g:g:g:g:g:g:g:g:g:g,R=f,EtS,q    ",
  "        $p:l=$+k+k+k+k+k+k+k+k+k+k+k+k+k+k+k+k+k+k@o:l,D+n      "
};
