/* XPM */
const char *xpm_tango_mimetypes_text_html[] = {
  // Header (width height colors chars-per-pixel)
  "32 32 414 2",
  
  // Colors (code mode value)
  "+n c #00000001",
  "*T c #00000002",
  "*_ c #00000003",
  "=1 c #00000005",
  "*R c #00000006",
  "$p c #00000007",
  ",D c #00000008",
  ",q c #0000000C",
  "=2 c #0000000D",
  ":l c #0000000F",
  "$s c #00000010",
  "=$ c #00000015",
  "+k c #00000016",
  "`L c #00000018",
  "`I c #0000001C",
  "=@ c #0000001D",
  "*' c #00000020",
  "WK c #00000022",
  "@$ c #00000026",
  "tS c #00000029",
  "=s c #0000002B",
  "eg c #0000002C",
  "a( c #0000002D",
  "6: c #00000030",
  "`P c #00000033",
  "=l c #00000035",
  ",E c #0000003B",
  "68 c #0000003E",
  "=r c #00000040",
  "!$ c #00000047",
  ":g c #0000004A",
  "=i c #00000050",
  "!O c #00000051",
  "=t c #00000055",
  "lO c #00000059",
  "kZ c #00000061",
  "`K c #00000070",
  ".F c #00008002",
  "`J c #0202067E",
  "`Z c #02020773",
  "`H c #1B1B34B1",
  "`C c #1C1C1CA6",
  "`A c #1D1D37A8",
  "`G c #2C2E57DC",
  "`S c #2D2F59D8",
  "`> c #2E2E5953",
  "`q c #2E3059A6",
  "`D c #353769F4",
  ":y c #37373778",
  "`V c #373747FC",
  "`z c #37376B45",
  "`j c #373854FB",
  "`B c #383A68FF",
  ")Y c #383A6D88",
  "`x c #383B69FF",
  ")] c #383B70DB",
  "VN c #39396B51",
  "`F c #393A6BFC",
  "_s c #393A6DFA",
  "_: c #393C6EAB",
  "_8 c #393C6EE7",
  "~7 c #3C3C6EFF",
  "_9 c #3C3D6FFF",
  "`l c #3D3D4DFF",
  "`6 c #3D6EA6FF",
  ")i c #3E3F70FF",
  "`5 c #3F73AEFF",
  "`: c #42487AF5",
  ")s c #454776FF",
  "'~ c #4578B1FF",
  ")Z c #464763FF",
  "_> c #464977FF",
  ")^ c #464D7EF3",
  "G9 c #474747FF",
  "`h c #474B7BFF",
  "`* c #487AB3FF",
  ")x c #494B7AFF",
  "_b c #4A4D7BFF",
  "`0 c #4A5482FF",
  "`4 c #4A7BB4FF",
  ")( c #4B4E7BFF",
  ")u c #4B4E7CFF",
  "`r c #4B507EFF",
  "_) c #4B5688F2",
  "_` c #4C4E7BFF",
  "`N c #4C5684FF",
  "Si c #4C7EB5FF",
  "`# c #4E5382FF",
  "`7 c #4E739FFF",
  "`3 c #4E75A3FF",
  "rt c #4F4F4FFF",
  ";] c #505050FF",
  "`c c #505A87FF",
  "dH c #5080B7FF",
  "`w c #515151F1",
  ")C c #515684FF",
  "`a c #517AABFF",
  "_+ c #525B8BF3",
  "`p c #527DB0FF",
  ";D c #535353FF",
  "`< c #535D8BFF",
  "`k c #565656F6",
  "6] c #565656FF",
  ")T c #565B87FF",
  ")U c #565E88FF",
  "Ok c #5685BBFF",
  ":F c #575757FF",
  ")b c #575C88FF",
  "`. c #5786BBFF",
  "Il c #585858FF",
  ">' c #595959FF",
  "`s c #597EACFF",
  ":d c #5A5A5AFF",
  "5| c #5B5B5BFF",
  "_E c #5B6593FF",
  "dx c #5B89BDFF",
  "5{ c #5C5C5CFF",
  "5[ c #5D5D5DFF",
  "`i c #5D87B7FF",
  "`& c #5D8ABCFF",
  "6_ c #60606052",
  ">J c #606060FF",
  "_| c #608DC0FF",
  "6` c #636363EF",
  "rr c #636363FF",
  ")z c #636B95FF",
  ")w c #646464F2",
  ":4 c #646464FF",
  "_D c #647F9FFF",
  "){ c #656F98FF",
  "`= c #65809DFF",
  "^i c #6591C3FF",
  ">L c #666666FF",
  "_G c #66688BFF",
  ")S c #666D96FF",
  "_/ c #67778AFF",
  "`M c #677DA8FF",
  "_} c #6793C4FF",
  ":; c #686868FF",
  "Nv c #6A6A6AFF",
  ":@ c #6B6B6BFF",
  "_T c #6B82ABFA",
  "`v c #6C81ABFF",
  "A{ c #6C97C7FF",
  "t: c #6D6D6DFF",
  ")d c #6D749AFF",
  "_c c #6E849CFF",
  "t1 c #6F6F6FFF",
  "O8 c #6F99C8FF",
  "6^ c #707070FF",
  "`d c #708DB2FF",
  "`+ c #718BB4F6",
  "_Y c #718FB6FF",
  "_{ c #7190B3FF",
  ";W c #727272FF",
  ")y c #727497FF",
  ",c c #737373FF",
  "_@ c #737598FF",
  "_I c #739CCBFF",
  "`e c #747591FF",
  "`g c #758CB3FF",
  ",l c #767676FF",
  ",k c #777777FF",
  ")A c #777893FF",
  "`O c #7789A0FF",
  "_~ c #77A0CDFF",
  "`u c #789BC3FF",
  ",h c #7A7A7AFF",
  "_U c #7B8795FF",
  ",z c #7D7D7DFF",
  "`m c #7D94B7FF",
  "As c #7EA5D0FF",
  "'# c #7EA5D1FF",
  "mk c #808080FF",
  "`, c #80819CFF",
  "_Q c #809EBFFF",
  ";@ c #818181FF",
  "`b c #8299BBFF",
  "t2 c #838383FF",
  "db c #83A5CCFF",
  "-^ c #848484FF",
  "_H c #8496BAFF",
  "`; c #859DBDFF",
  "1{ c #868686FF",
  ")v c #8788A4FF",
  "gK c #87ADD6FF",
  "-O c #888888FF",
  "_; c #8890A8FD",
  "_F c #889DC0F8",
  "`f c #88A0BFFF",
  "-Y c #898989FF",
  "`9 c #8A99B1FF",
  "_[ c #8A9DB1FF",
  "_( c #8AA2C1FF",
  "`n c #8AA2C3FF",
  "mV c #8B8B8BFF",
  "`% c #8B97A5FF",
  ";* c #8C8C8CFF",
  "_' c #8CA2C4FF",
  "m! c #8CA4C4FF",
  "9M c #8E8E8EFF",
  "-, c #8F8F8FFF",
  ")l c #8F9FC0FF",
  "_M c #8FADCFFF",
  "]* c #8FB2DAFF",
  "2+ c #909090FF",
  "`X c #919FAEFF",
  ",7 c #929292FF",
  "_! c #92A2B3FF",
  "=L c #939393FF",
  ")a c #9393A3FF",
  "_] c #93B1D4FF",
  "_Z c #94A3B5FF",
  "_v c #94ACCAFC",
  "=& c #95959552",
  "_^ c #95A5B6FF",
  ")e c #969696EF",
  "2@ c #969696FF",
  "`- c #969BA1FF",
  "`t c #969FB2FF",
  "_P c #97B1CCFF",
  "_V c #97B7DAFF",
  "_a c #98ADC7FC",
  "1@ c #999999F2",
  "2# c #999999FF",
  "_w c #9AB7D6FF",
  "_m c #9AB8DBFF",
  ",J c #9C9C9CFF",
  "`1 c #9DB4D1FF",
  "<y c #9E9E9EFF",
  "`y c #9EAEC2FF",
  "_1 c #9EB3CAFF",
  "A8 c #9FBFE3FF",
  "_K c #A0B5CBFF",
  "_i c #A2ABB5FF",
  "`$ c #A2B8D5FF",
  "`8 c #A3A6AAFF",
  "_7 c #A3ABBAFD",
  "s# c #A4C4E6FF",
  "_X c #A5AEB9FF",
  "_f c #A5B5C7FF",
  "_= c #A6B7C9FF",
  "_J c #A6BFDEFF",
  "_B c #A6C5E7FF",
  ")' c #A7ADBCFD",
  "_6 c #A8AFB7FF",
  ")f c #A8B2C8FF",
  "_C c #A8B3BFFF",
  ")V c #A8B6CEFF",
  "'Q c #A9B4BFFF",
  "_# c #ACB3C8FF",
  "`o c #ADAEB0FF",
  "_g c #ADBAC7FF",
  ")t c #AFAFC0FF",
  "_o c #AFB9C3FF",
  "_n c #AFC0D8FF",
  ">F c #B0B0B0FF",
  ")p c #B0B0C1FF",
  "A$ c #B0CDECFF",
  ":& c #B1B1B1FF",
  "_< c #B1BCC7FF",
  ")[ c #B2B2C2FF",
  "_R c #B3B3C3FF",
  "_j c #B3C3D5FF",
  "_N c #B4BEC8FF",
  ")J c #B4BFCBFF",
  "_k c #B4CFEDFF",
  "C0 c #B5BDC5FF",
  "_- c #B5BFC9FF",
  "_W c #B5C9E1FF",
  ")! c #B6C3CFFF",
  ")L c #B6C7DBFF",
  "_z c #B6D0EEFF",
  "_2 c #B7D2EEFF",
  "9m c #B8B8B8FF",
  "|H c #B8C0C9FF",
  "_* c #B8C1CCFF",
  "Z~ c #B8D3F0FF",
  "o+ c #B9B9C7FF",
  "_h c #B9C6D4FF",
  ")c c #BABACAFF",
  "_l c #BAD3F0FF",
  "5> c #BBBBBBFF",
  "_x c #BBBEC2FF",
  "[G c #BBC0C5FF",
  ",A c #BCBCBCFF",
  "`@ c #BCBCCAFF",
  "X9 c #BCD1E7FF",
  "1> c #BDBDBDFF",
  ")F c #BDC9D2FF",
  ")k c #BDCADFFF",
  "_e c #BDD7F3FF",
  "1% c #BEBEBEFF",
  ")M c #BEC3C8FF",
  ";= c #BFBFBFFF",
  ")/ c #BFBFC0FF",
  "lh c #BFC0C2FF",
  ";g c #C0C0C0FF",
  ")K c #C0CDDDFF",
  ";U c #C1C1C1FF",
  "__ c #C1C1C2FF",
  "Am c #C1C8D0FF",
  "_p c #C2C4C6FF",
  ")` c #C2D0E1FF",
  ")G c #C4D1DFFF",
  "_q c #C5CCD5FF",
  "Xz c #C5D2E1FF",
  "_d c #C5D2E5FF",
  ")B c #C5D7EAFF",
  ")N c #C5D8EBFF",
  "W> c #C6CCD2FF",
  "_% c #C6CED5FF",
  ")n c #C6CEDEFF",
  ">x c #C9C9C9FF",
  "o9 c #C9D4E0FF",
  "_r c #C9E0F8FF",
  ",< c #CACACAFF",
  "_3 c #CBE2FAFF",
  "_S c #CCCDCDFF",
  "_5 c #CCCFD4FF",
  ")) c #CCD1DCFF",
  "_L c #CDD2D7FF",
  "oj c #CDE1F7FF",
  ")P c #CFD3D7FF",
  ")R c #CFD5DCFF",
  "+< c #CFDBEAFF",
  ")H c #D1D3D6FF",
  "Xl c #D1E2F5FF",
  "_u c #D2D7DBFF",
  "XF c #D2DEEAFF",
  "`2 c #D3D4D5FF",
  ")E c #D3D8DDFF",
  ")g c #D4DBE6FF",
  "o$ c #D4E6F9FF",
  "_y c #D4E6FAFF",
  "_t c #D4E7FBFF",
  ")I c #D5D9DFFF",
  "XH c #D5E6F8FF",
  ")| c #D6E7FAFF",
  ",M c #D7D7D7FF",
  ",B c #D8D8D8FF",
  "[< c #D8DADCFF",
  ")~ c #D8DADEFF",
  ")D c #D8DEE4FF",
  ")m c #D8E2ECFF",
  ")} c #D8E7F6FF",
  "_O c #D9DBDDFF",
  "_. c #D9DDE0FF",
  ")Q c #D9E8F9FF",
  "_4 c #D9EAFCFF",
  ",m c #DADADAFF",
  "lo c #DADBDCFF",
  "_$ c #DAECFFFF",
  ",v c #DBDBDBFF",
  "Xh c #DBE9F7FF",
  ",_ c #DCDCDCFF",
  ")W c #DCE9F8FF",
  "=b c #DDDDDDFF",
  "_, c #DDE0E7FF",
  "We c #DDEDFFFF",
  "Zj c #DDEEFFFF",
  "=[ c #DEDEDEFF",
  ")j c #DEE3ECFF",
  "Z+ c #DEEEFFFF",
  "={ c #DFDFDFFF",
  ")_ c #DFEEFDFF",
  "Z# c #DFEFFFFF",
  "&_ c #E0E0E0FF",
  "C/ c #E0EFFFFF",
  "+Z c #E1E1E1FF",
  "X^ c #E1EFFFFF",
  "+A c #E2E2E2FF",
  "CB c #E2F0FFFF",
  "+S c #E3E3E3FF",
  "_& c #E3E5E7FF",
  "&I c #E4E4E4FF",
  "&5 c #E4E4E5FF",
  ";3 c #E5E5E5FF",
  ")r c #E5E5E7FF",
  ";b c #E6E6E6FF",
  ";G c #E7E7E7FF",
  "_0 c #E7EAEEFF",
  ":# c #E8E8E8FF",
  ")h c #E8EBF0FF",
  ":2 c #E9E9E9FF",
  ",$ c #EAEAEAFF",
  ":, c #EBEBEBFF",
  "XK c #EBECEDFF",
  ":> c #ECECECFF",
  "_A c #ECEEEFFF",
  ";9 c #EDEDEDFF",
  ":< c #EEEEEEFF",
  "m4 c #EEF0F3FF",
  "|s c #EFEFF0FF",
  ";T c #F0F0F0FF",
  "CT c #F0F1F3FF",
  "&$ c #F1F1F2FF",
  ";' c #F2F2F2FF",
  ":O c #F3F3F3FF",
  ":3 c #F4F4F4FF",
  "CR c #F4F5F5FF",
  "Xv c #F4F5F6FF",
  "3S c #F5F6F6FF",
  "+W c #F6F6F6FF",
  ":9 c #F7F7F7FF",
  ";R c #F8F8F8FF",
  ":v c #F9F9F9FF",
  ":5 c #FAFAFAFF",
  ";Q c #FBFBFBFF",
  ";7 c #FCFCFCFF",
  "dV c #FCFDFDFF",
  "=q c #FDFDFDFF",
  "=w c #FEFEFEFF",
  "   c none",
  
  // Image data
  "                                                                ",
  "                                                                ",
  "        =&1@2#,J<y,J2#2@=L-,;*-O-^;@,z,h,l;Wt1:@:;:4)w6_        ",
  "        )e=q=q=w:5=w=q=q=q=q;7;7;7;Q;Q;Q:5:5:5:v:v:v;R6`        ",
  "        =L=q,_=b,m;3={={&_+Z+Z+Z+A+A+A+A+S+S+S+S+S+A;R5[        ",
  "        ,7=w=b=[,m;b&_&_+Z+Z+A+A+S+S+S&I&I&I&I&I&I+S;R5[        ",
  "        2+=w=[={,v;b+Z1>5>5>5>5>,A,A,A,A,A,A,A;=;3&I;R5{        ",
  "        9M=q={={,_;G+A+A+S+S&I&I;3;3;3;b;b;b;b;b;b;3;R5{        ",
  "        mV=q={&_=b:#+A1%,A,A,A,A1>1>1>1>1>1>1>;g;G;b;R5|        ",
  "        -Y=q&_+Z=[:#+S&I;3;3;b;b;G;G;G:#:#:#:#:#:#:#;R:d        ",
  "        1{=q+Z+A=[:2&I;=,A1>1>1>1%1%1%1%1%1%1%;U:2:2;R>'        ",
  "        t2=q+Z>F+Z,$;3;b;b;G:#:#)r)t)y)u)i)i)u)y)p)r;RIl        ",
  "        mk;7+A;b&_,$;b;g1>1%1%)a)s)d)f)g)h)j)k)l)z)x)c:F        ",
  "        ,z;7+S&I+Z,$;b;G:#:#)v)b)nm4)m&$=w)M)N)B+<)V)C)Z+n      ",
  "        ,h;7+S&I+Z:,;G;U1%)A)SCT)D)F)G)H)J)KX9)L)P|s)I)U)Y      ",
  "        ,k;Q&I;3+Z:>:#:2o+)TXv)R)E[<Xh)W)QXlXz)!|H3S;')~)^`z    ",
  "        ,c;Q&I;3+Z:>:#)/)())=w;QCR[GXFCB)_XH)`XK=w=w:3:,)')].F  ",
  "        6^;Q;3;b+A;9:2)[){dV=w&$C0)}C/X^X^)|_._X_o_O;R;b&5_+VN  ",
  "        t:;Q;3;b+A;9:2_@_#=w=q'Q_$Z+Z#Z#Z#o$_%_&_*_=_-;b+Z_;_:  ",
  "        Nv:5;b;G+S;9,$_>_,_<_1_2_3WeZjZ+_4o9=w=w=w=w_5lo_6_7_8  ",
  "        >L:5;b:&;3;9,$_9_0_q_wA$_e_r_t_yoj_u=w=w=w=w|s_i_p_a_s  ",
  "        rr:5;b,$+S;9:,~7_d_f_g_h_j_kZ~_l_zAm=w=w=w=q:,_x_c_v_s  ",
  "        >J:v;b;G&I:<:,_b_n_m_M;Q=w_N_Bs#A8_V_C_Z_A;'+A_S_D_F_8  ",
  "        5[:v;b:#&I:<:,_G_H_J_K=w=w=w_L_P]*gK'#_IW>;b,M_U_Y_T_:  ",
  "        >':v;G:#&I:<:,_R_E_W_Q:v=w=w=w_!As_~O8^i_^,B,<_/_(_)VN  ",
  "        6];R;G:#&I:<:,___`_'_]_[;T:3:9_{A{_}_|`.`X>x`o`O`+)].F  ",
  "        ;D;R;b:#&I:<:,:>`@`#`$db,v&_`%`&dxOkdH`*`=9m`-`;`:`>    ",
  "        rt;R;b:#&I:<:,:>,$`,`<`1`2lh`3Si`4'~`5`6`7`8`9`0`q@$=1  ",
  "      =2`w:9+W+W:O;R:9:9:O,M`e`r`t`y`u`i`p`a`s`d`f`g`h`j=ta(*_  ",
  "    =2WK:y`k6]6]6]6]6]6]6];]G9`l`x`c`v`bm!`n`m`M`N`B`V`ClO@$*T  ",
  "    *R=@6:=r!$:g:g:g:g:g:g:g=ikZ`Z`A`S`D`F`F`D`G`H`J`K!Oeg,q    ",
  "        $p:l=$+k+k+k+k+k+k+k+k+k`L*'=s=l,E68,E`PtS`I$s,D+n      "
};
