/* XPM */
const char *xpm_tango_mimetypes_text_x_script[] = {
  // Header (width height colors chars-per-pixel)
  "32 32 204 2",
  
  // Colors (code mode value)
  "*T c #00000002",
  "*R c #00000006",
  "$p c #00000007",
  ",D c #00000008",
  "$a c #0000000A",
  "=2 c #0000000D",
  ":l c #0000000F",
  "@o c #00000014",
  "=$ c #00000015",
  "+k c #00000016",
  "[~ c #00000017",
  "$z c #0000001A",
  "=@ c #0000001D",
  "+g c #00000021",
  "WK c #00000022",
  "=e c #00000023",
  "+J c #00000027",
  "rn c #0000002A",
  "6: c #00000030",
  "`P c #00000033",
  "tD c #00000038",
  ",E c #0000003B",
  "B% c #0000003D",
  "=r c #00000040",
  ",R c #00000042",
  "[G c #00000044",
  "!$ c #00000047",
  "=g c #00000049",
  ":g c #0000004A",
  "jU c #0000004E",
  "!O c #00000051",
  "=t c #00000055",
  "kB c #0000005C",
  "kZ c #00000061",
  "kA c #00000062",
  "%C c #00000065",
  "`/ c #00000069",
  "`K c #00000070",
  "`_ c #00000072",
  "&! c #00000079",
  "`( c #13131384",
  "`` c #1B1B1B5A",
  "`' c #1B1B1B5B",
  "`) c #24242499",
  ":c c #2929298E",
  ":y c #37373778",
  "z[ c #454545FF",
  "G9 c #474747FF",
  "rj c #484848FF",
  "JL c #494949FF",
  "ry c #4A4A4AFF",
  "`~ c #4B4B4BF3",
  "`^ c #4B4B4BF8",
  "kv c #4B4B4BFF",
  "kc c #4D4D4DFF",
  "rt c #4F4F4FFF",
  ";] c #505050FF",
  "`w c #515151F1",
  "kx c #525252FF",
  ";D c #535353FF",
  ":e c #545454FF",
  "6[ c #555555FF",
  "`k c #565656F6",
  "6] c #565656FF",
  ":F c #575757FF",
  "Il c #585858FF",
  ">' c #595959FF",
  ":d c #5A5A5AFF",
  "5| c #5B5B5BFF",
  "5{ c #5C5C5CFF",
  "5[ c #5D5D5DFF",
  "6_ c #60606052",
  ">J c #606060FF",
  "6` c #636363EF",
  "rr c #636363FF",
  ")w c #646464F2",
  ":4 c #646464FF",
  ">L c #666666FF",
  "`T c #67676719",
  "`E c #67676730",
  "4Y c #676767FF",
  ":; c #686868FF",
  "Nv c #6A6A6AFF",
  "`! c #6B6B6B20",
  ":@ c #6B6B6BFF",
  "t: c #6D6D6DFF",
  "t1 c #6F6F6FFF",
  "6^ c #707070FF",
  ";W c #727272FF",
  ",c c #737373FF",
  ",l c #767676FF",
  ",k c #777777FF",
  ";v c #787878FF",
  ",j c #797979FF",
  ",h c #7A7A7AFF",
  "=1 c #7B7B7BFF",
  ">_ c #7C7C7CFF",
  ",z c #7D7D7DFF",
  "=< c #7E7E7EFF",
  "=, c #7F7F7FFF",
  "mk c #808080FF",
  ";@ c #818181FF",
  ",x c #828282FF",
  "t2 c #838383FF",
  "-^ c #848484FF",
  "t< c #858585FF",
  "1{ c #868686FF",
  "-O c #888888FF",
  "-Y c #898989FF",
  "mV c #8B8B8BFF",
  ";* c #8C8C8CFF",
  "-i c #8D8D8DFF",
  "9M c #8E8E8EFF",
  "-, c #8F8F8FFF",
  "2+ c #909090FF",
  "pb c #919191FF",
  ",7 c #929292FF",
  "=L c #939393FF",
  "=& c #95959552",
  ")e c #969696EF",
  "2@ c #969696FF",
  ",F c #979797FF",
  "1@ c #999999F2",
  "2# c #999999FF",
  ":^ c #9A9A9AFF",
  ",J c #9C9C9CFF",
  "<y c #9E9E9EFF",
  "<m c #9F9F9FFF",
  "6} c #A1A1A1FF",
  "6| c #A3A3A3FF",
  "=W c #A5A5A5FF",
  ",C c #AAAAAAFF",
  "<v c #ADADADFF",
  ">F c #B0B0B0FF",
  ":& c #B1B1B1FF",
  "<# c #B2B2B2FF",
  "Q> c #B3B3B3FF",
  ";8 c #B4B4B4FF",
  "=p c #B6B6B6FF",
  ",S c #B7B7B7FF",
  "9m c #B8B8B8FF",
  "5X c #B9B9B9FF",
  ",G c #BABABAFF",
  "5> c #BBBBBBFF",
  "1> c #BDBDBDFF",
  "1% c #BEBEBEFF",
  ";= c #BFBFBFFF",
  ";g c #C0C0C0FF",
  ";U c #C1C1C1FF",
  ";Z c #C2C2C2FF",
  ":* c #C3C3C3FF",
  ":6 c #C4C4C4FF",
  ";Y c #C5C5C5FF",
  "Qj c #C6C6C6FF",
  ",1 c #C7C7C7FF",
  ":7 c #C8C8C8FF",
  ">x c #C9C9C9FF",
  ",< c #CACACAFF",
  "+a c #CBCBCBFF",
  "#+ c #CCCCCCFF",
  ",2 c #CDCDCDFF",
  "`R c #D0D0D0F9",
  "+v c #D0D0D0FF",
  "+b c #D1D1D1FF",
  ",V c #D2D2D2FF",
  ":o c #D5D5D5FF",
  ",B c #D8D8D8FF",
  "`Q c #D9D9D9FE",
  ",b c #D9D9D9FF",
  ",m c #DADADAFF",
  ",v c #DBDBDBFF",
  ",_ c #DCDCDCFF",
  "=b c #DDDDDDFF",
  "=[ c #DEDEDEFF",
  "={ c #DFDFDFFF",
  "&_ c #E0E0E0FF",
  "+Z c #E1E1E1FF",
  "`W c #E2E2E2FD",
  "+A c #E2E2E2FF",
  "+S c #E3E3E3FF",
  "&I c #E4E4E4FF",
  ";3 c #E5E5E5FF",
  ";b c #E6E6E6FF",
  ";G c #E7E7E7FF",
  ":# c #E8E8E8FF",
  ":2 c #E9E9E9FF",
  ",$ c #EAEAEAFF",
  ":, c #EBEBEBFF",
  ":> c #ECECECFF",
  ";9 c #EDEDEDFF",
  ":< c #EEEEEEFF",
  ";A c #EFEFEFFF",
  ";T c #F0F0F0FF",
  ":O c #F3F3F3FF",
  "+W c #F6F6F6FF",
  ":9 c #F7F7F7FF",
  ";R c #F8F8F8FF",
  ":v c #F9F9F9FF",
  ":5 c #FAFAFAFF",
  ";Q c #FBFBFBFF",
  ";7 c #FCFCFCFF",
  "=q c #FDFDFDFF",
  "=w c #FEFEFEFF",
  "   c none",
  
  // Image data
  "                                                                ",
  "                                                                ",
  "        =&1@2#,J<y,J2#2@=L-,;*-O-^;@,z,h,l;Wt1:@:;:4)w6_        ",
  "        )e=q=q=w:5=w=q=q=q=q;7;7;7;Q;Q;Q:5:5:5:v:v:v;R6`        ",
  "        =L=q,_=b,m;3={={&_+Z+Z+Z+A+A+A+A+S+S+S+S+S+A;R5[        ",
  "        ,7=w=b=[,m;b&_&_+Z+Z+A+A+S+S+S&I&I&I&I&I&I+S;R5[        ",
  "        2+=w=[={,v;b+Z1%1%1%1%1%1%1%1%1%1%1%1%1%;3&I;R5{        ",
  "        9M=q={={,_;G+A+A+S+S&I&I;3;3;3;b;b;b;b;b;b;3;R5{        ",
  "        mV=q={&_=b:#+A1%1%1%1%1%1%1%1%1%1%1%1%1%;G;b;R5|        ",
  "        -Y=q&_+Z=[:#+S&I;3;3;b;b;G;G;G:#:#:#:#:#:#:#;R:d        ",
  "        1{=q+Z+A=[:2&I1%1%1%1%1%1%1%:#:2:2:2:2:2:2:2;R>'        ",
  "        t2=q+Z>F+Z,$;3;b;b;G:#:#:2:2:2,$=b=b,$,$,$,$;RIl        ",
  "        mk;7+A;b&_,$;b;b;G:#:#:2,$,$,$,V4Y4Y=[:,:,:,;R:F        ",
  "        ,z;7+S&I+Z,$;b;G:#:2:2,$:,:,=[4Y>x,m4Y=[:>:>;R6[        ",
  "        ,h;7+S&I+Z:,;G:#:2:2,$:,:>=[4Y,Vt<,j;Z4Y={;9;R:e        ",
  "        ,k;Q&I;3+Z:>:#:2:2,$:,:>=[4Y,<;ZmV,j>_:*4Y&_;Rkx        ",
  "        ,c;Q&I;3+Z:>:#:2,$:,:>={4Y;ZmV5>=p1{;v=,:*4Y:2;]        ",
  "        6^;Q;3;b+A;9:2,$:,:>={4Y;Z-Y,h,S,F=1=1=1mk:*4Y;]        ",
  "        t:;Q;3;b+A;9:2,$:,=[4Y:*-Y>_=<1>;8-O=<=<,z;@:*4Y`T      ",
  "        Nv:5;b;G+S;9,$:,=[4Y;Z-Y,z=<-i;g<m-O1{;@6}t<6|1>4Y`T    ",
  "        >L:5;b:&;3;9,$=[4Y;U-Y=<mk,x,C;=t<t<=W<#;g;g;=>F`R4Y`E  ",
  "        rr:5;b,$+S;9=[4Y:omV=<mk,xpb;Z=p6|,G:*:*;Z;U;U;g;g`W4Y`T",
  "        >J:v;b;G&I:<:,,V4Y;=t2t2pb;==p-,6|:6;Y:6:6:*;Z;U`Q4Y`!  ",
  "        5[:v;b:#&I:<:,:>={4Y;Z,C;U,S;g-i1%QjQjQj;Y:6:*,b4Y`!    ",
  "        >':v;G:#&I:<:,:>;9+Z4Y,v5XmV2+<vQj:7:7,1Qj;Y,v4Y`!      ",
  "        6];R;G:#&I:<:,:>;9;A+A4Y+v-,2+:^>x,<>x>x,1,v4Yrt        ",
  "        ;D;R;b:#&I:<:,:>;9:<;T+S4Y:*=LQ>,<+a+a,<,_4Y;3kv        ",
  "        rt;R;b:#&I:<:,:>;9:<;A;A={4Y;Z,F:*#+#+=b4Y,B;Ary        ",
  "      =2`w:9+W+W:O;R:9:9:9:9;A:#+A+b4Y;Y9m,2=[4Y>x,v&_`~+g$a    ",
  "    =2WK:y`k6]6]6]6]6]6]6];D;]kckvrjJL4Y,B,_4YJLz[G9`^:c=r=e*T  ",
  "    *R=@6:=r!$:g:g:g:g:g:gjU=tkBkA`/`K`(4Y4Y`)&!`_%CkZ!OtD@o    ",
  "        $p:l=$+k+k+k+k+k+k+k$zWKrn`P,E,R```'=g[GB%`P+J[~,D      "
};
