/* XPM */
const char *xpm_tango_mimetypes_video_x_generic[] = {
  // Header (width height colors chars-per-pixel)
  "32 32 456 2",
  
  // Colors (code mode value)
  "+n c #00000001",
  "*T c #00000002",
  "*_ c #00000003",
  "*` c #00000004",
  "*R c #00000006",
  "$p c #00000007",
  "$a c #0000000A",
  ",q c #0000000C",
  "=2 c #0000000D",
  "[i c #0000000F",
  "&Z c #00000011",
  "+r c #00000012",
  "$w c #00000013",
  "@o c #00000014",
  "$^ c #00000019",
  "$z c #0000001A",
  "=@ c #0000001D",
  "9b c #0000001E",
  "*' c #00000020",
  "[< c #1717170B",
  "[q c #2C2C272E",
  "2o c #33333305",
  "uM c #3333330A",
  "]D c #3344330F",
  "[p c #3A3A3A23",
  "am c #3B3B3B2B",
  "[& c #3B3C39D1",
  "]Z c #3B3C39E4",
  "]S c #3B3D3864",
  "[* c #3B3D39F1",
  "]C c #3B3D39F3",
  "[s c #3B3D39FF",
  "]b c #3C3C384D",
  "[d c #3C3C3C2F",
  "]A c #3C3D39BC",
  "[a c #3C3D3A89",
  "]] c #3C3D3BBB",
  "[u c #3C3E395A",
  "[e c #3C3E3ACD",
  "]V c #3C3E3AFD",
  "[, c #3C3E3B87",
  "[= c #3C3E3BF3",
  "[w c #3C3F3A72",
  "[r c #3D3E3BF6",
  "[% c #3E403BCE",
  "[- c #40413FF7",
  "]U c #40423EFF",
  "]B c #41433EFF",
  "]^ c #424540FF",
  "[; c #434443FF",
  "][ c #434E4317",
  "[$ c #464945ED",
  "G9 c #474747FF",
  "[@ c #474844FD",
  "[+ c #474944FF",
  "]W c #474945E5",
  "rj c #484848FF",
  "[# c #484945FE",
  "]` c #484948FF",
  "JL c #494949FF",
  "(& c #494B47FF",
  "(1 c #4A4B48FF",
  "]_ c #4B4B4AFF",
  "[O c #4C4F4BFF",
  "]' c #4D4D4CFF",
  "]N c #4D4F4BFF",
  "]) c #4E4E4DFF",
  ":+ c #4E4E4EFF",
  "[: c #50504FFF",
  "[t c #50514FF9",
  "[y c #50524EF9",
  ";D c #535353FF",
  "GI c #535453FF",
  "IB c #545553FF",
  "<8 c #575955FF",
  "Il c #585858FF",
  "]( c #585958FF",
  "[0 c #585A566E",
  "[o c #595A57FF",
  "[1 c #595C5948",
  "]/ c #5D5E5CFF",
  "5` c #5D5F5BFF",
  "]L c #5E5F5EFF",
  "Bu c #5E605CFF",
  "L' c #60605FFF",
  "Kk c #60615FFF",
  "[> c #61625FFE",
  "zf c #616260FF",
  ">3 c #616261FF",
  "]Q c #62645F63",
  "[2 c #63655F83",
  "]f c #636560FF",
  "]g c #636661FF",
  ":4 c #646464FF",
  ".p c #646563FF",
  "[9 c #646762A4",
  "]{ c #66686487",
  "]n c #67676343",
  "KS c #676865FF",
  "]j c #686A65B5",
  "t% c #686A67FF",
  "]u c #696F6927",
  "]8 c #6A6D685B",
  "]F c #6A6E6790",
  "[3 c #6B6C68C1",
  "]I c #6B6C6AF6",
  "[8 c #6C6D6AD4",
  "]Y c #6C6E6795",
  "]P c #6D6D6CFF",
  "i& c #6D6E6AFF",
  "[7 c #6D6F6AE6",
  "[4 c #6D6F6BDE",
  "5l c #6D6F6BFF",
  "]} c #6D706BE9",
  "]! c #6D706BF0",
  "[6 c #6E706AF2",
  "]t c #6E706BE5",
  "[5 c #6E706BED",
  "'S c #6F716CF8",
  "]| c #6F726DF8",
  "[X c #70716FFF",
  "P@ c #70726DFF",
  "]d c #70736DFF",
  "h% c #71736FFF",
  "]k c #71746DCD",
  "]7 c #71746FF3",
  "]m c #72736FF4",
  "]T c #72746EF7",
  "'t c #72756DB1",
  ":* c #737671FF",
  "]1 c #74746E80",
  "]= c #747671FF",
  "'y c #747772EF",
  "'u c #747872FE",
  "]v c #757872F1",
  "'i c #757972FF",
  "'{ c #757973FF",
  ",l c #767676FF",
  "]G c #777874F5",
  "]s c #777B76FF",
  "'l c #777C75FF",
  "]i c #787A76EC",
  "'Z c #787C75FF",
  "'I c #797D77FF",
  "]~ c #7A7C78F7",
  "]- c #7A7E78FF",
  "1u c #7B7B7AFF",
  ".A c #7B7D79FF",
  ":, c #7B7E79FF",
  "'` c #7B8079FF",
  "'D c #7C7E79CA",
  "]K c #7C7F7AFF",
  "'Y c #7D7E7AF2",
  "[. c #7D7E7AF8",
  "]e c #7D817BFF",
  "]E c #7E7F7CFF",
  "'z c #7E817CFF",
  "'A c #7E827BFE",
  "'U c #7E827CF8",
  "'p c #7E827CFE",
  "'5 c #8080660A",
  "<4 c #80808004",
  "r} c #80808008",
  "]< c #80827BF2",
  "$A c #80847FFF",
  "]$ c #81837EA4",
  ",x c #828282FF",
  "5g c #82847FFF",
  "'6 c #83838327",
  "S& c #848D841D",
  "'x c #858884FF",
  "A- c #86868613",
  ":b c #868984FF",
  "ro c #868C862A",
  "'. c #868D8626",
  "Tt c #87878711",
  "kd c #878985FF",
  "`] c #878A8457",
  "'r c #878A84B7",
  "l' c #878A85FF",
  "c! c #8888880F",
  "3r c #888985FF",
  "]9 c #888A85F9",
  "eB c #888A85FF",
  "'B c #888A86FF",
  "R6 c #888B8558",
  "Wp c #888B85FF",
  "33 c #898988FF",
  "y^ c #8989890D",
  "uf c #898B86FA",
  "]R c #898B86FF",
  "'^ c #898C86FD",
  "'n c #898C87FF",
  "'k c #8A8B86FF",
  "]# c #8A8B87F4",
  "BA c #8A8B89FF",
  "'] c #8A8C87F6",
  "xv c #8A8C87F8",
  "v+ c #8A8C88FF",
  "]5 c #8A8D87FF",
  "'c c #8A8D88FF",
  "'1 c #8A8E898C",
  "rC c #8B8B852E",
  "]. c #8B8C87FF",
  "'& c #8B8D8782",
  "u= c #8B8D87F3",
  "5B c #8B8D87F4",
  "'G c #8B8D8872",
  "'X c #8B8D88A5",
  "=H c #8B8D88FF",
  "./ c #8B8D89FF",
  "'[ c #8B8E89E9",
  "l~ c #8B8E89FF",
  "`| c #8B90899C",
  "2n c #8C8D8889",
  "`{ c #8C8D89ED",
  "/U c #8C8D8AFF",
  "'E c #8C8E8887",
  "'% c #8C8E89A7",
  "'7 c #8C8E89E7",
  "K3 c #8C8E89E9",
  "'4 c #8C8E89EF",
  "'o c #8C8E89F6",
  "3, c #8C8E89FF",
  "j2 c #8C8E8AFF",
  "tr c #8C8F89A9",
  "'0 c #8C8F89C9",
  "]X c #8C8F89D1",
  "f7 c #8C8F89FF",
  "'g c #8C908773",
  "'Q c #8D8E89FF",
  "'q c #8D8E8AC2",
  "'2 c #8D8F88C3",
  "'f c #8D8F89D0",
  "3V c #8D8F8AFF",
  "jV c #8D908AFF",
  ")v c #8D908BFF",
  "r# c #8E8E8E09",
  "`[ c #8E8F89D9",
  "`} c #8E8F8ADA",
  "'V c #8E8F8AFF",
  "'W c #8E8F8BCB",
  "'/ c #8E8F8BDB",
  "'* c #8E908BF5",
  "lK c #8E918CFF",
  "'! c #8F918BFF",
  "ji c #8F918CFF",
  "') c #8F918DFF",
  "<m c #8F918EFF",
  ":m c #8F928DFF",
  "]; c #90918DFF",
  "]q c #90928CFF",
  "'> c #90928DBE",
  "'N c #90928DF1",
  "3< c #90928EFF",
  "]4 c #90938EFF",
  "5a c #91928EFF",
  "t< c #91938EFF",
  "': c #91938F99",
  "AL c #91938FF1",
  "d] c #91938FFF",
  "RH c #91948EFF",
  "R' c #91948FFF",
  "]* c #92948EFF",
  "3> c #92948FFF",
  "]h c #929490FE",
  "h@ c #929490FF",
  "eW c #929590FF",
  "ka c #939490FF",
  "]M c #939690FF",
  "]& c #939691FF",
  "YU c #939692FF",
  "j8 c #949691FF",
  "5h c #949692FF",
  ")N c #949792FF",
  "Lh c #959692FF",
  "'F c #959792F6",
  "3g c #959792FF",
  "RJ c #959892FF",
  "eQ c #959893FF",
  "]l c #959894FF",
  "2X c #969793FF",
  "k0 c #969893FF",
  "L& c #969894FF",
  "&[ c #979895FF",
  "4d c #979994FF",
  "ky c #979995FF",
  "'P c #979996FF",
  "'| c #979A95FF",
  "'; c #989A94C4",
  "k> c #999A97FF",
  "'C c #999B96FF",
  "]: c #9A9C97FF",
  "]> c #9A9D97FF",
  "h4 c #9A9D99FF",
  "'- c #9B9D98F8",
  "'( c #9B9D98FE",
  "t$ c #9B9D99FF",
  "]o c #9B9D9AFF",
  "'K c #9C9E99FF",
  "]H c #9C9F9AFF",
  ":i c #9D9F9BFF",
  "5w c #9E9F9CFF",
  "4* c #9EA09AFF",
  "]J c #9EA09BFF",
  "gE c #9EA09CFF",
  "'m c #9EA19BF4",
  "]y c #9FA09DFF",
  ":M c #9FA19DFF",
  "L+ c #9FA29DFF",
  ":B c #9FA29EFF",
  "W4 c #A0A29CFF",
  ":u c #A0A29EFF",
  "]w c #A0A29FFF",
  "]O c #A1A39EFF",
  "t- c #A1A39FFF",
  "]2 c #A2A49EFF",
  "W5 c #A2A59FFF",
  "Q1 c #A4A5A2FF",
  "'} c #A4A8A1FF",
  ")= c #A5A6A3FF",
  "|I c #A5A7A4FF",
  "'L c #A5A9A2FF",
  "'~ c #A6A8A5FF",
  "'O c #A7A9A3F1",
  "'3 c #A7A9A3F5",
  ")/ c #A7AAA4FF",
  "'$ c #A8A9A4F2",
  ",/ c #A8A9A5FF",
  "*w c #A8A9A7FF",
  "'a c #A8ABA4FF",
  "QG c #A8ABA5FF",
  "j4 c #A9AAA8FF",
  "'9 c #A9ACA7F6",
  "^T c #A9ACA8FF",
  "cW c #AAAAAA03",
  "tw c #AAACA9FF",
  "(s c #ABACAAFF",
  "'h c #ABADA8F5",
  "], c #ABAEA8FF",
  "(G c #ACAEABFF",
  "(- c #ADAEACFF",
  "z{ c #AEAFAAFF",
  "hp c #AFB0AEFF",
  "'M c #AFB1ACF5",
  "KN c #B0B1ADFF",
  "]a c #B2B3B0FF",
  "<$ c #B2B3B1FF",
  "'_ c #B2B6AFFF",
  "r* c #B3B6AFFF",
  "'w c #B3B6B0F8",
  "'e c #B3B7B0FF",
  "<@ c #B4B5B3FF",
  ":x c #B4B7B1FF",
  "E^ c #B5B8B1FF",
  "!9 c #B6B9B2FF",
  "'v c #B6BAB3FF",
  ",~ c #B7B8B6FF",
  "]0 c #B7BBB4FF",
  "]x c #B8BAB3FF",
  "'d c #B8BAB5F8",
  "<N c #B8BAB6FF",
  "', c #B8BBB5FA",
  "]@ c #B8BBB5FF",
  "50 c #B9BBB6FF",
  "0L c #B9BBB7FF",
  "'b c #B9BDB5FF",
  "l: c #BABDB6FF",
  "'= c #BBBDB7FC",
  "]c c #BBBDB9FF",
  "]3 c #BBBFB7FF",
  "'H c #BCBEB9F7",
  "'@ c #BCBEB9FF",
  "'+ c #BCBFB9FF",
  "'< c #BDC0BBFC",
  "qX c #BDC1BBFF",
  "hv c #BEC0BCFF",
  "]+ c #BEC2BBFF",
  "'# c #BFC0BAFF",
  "'j c #BFC3BBFF",
  "'R c #C0C2BEFA",
  "ov c #C0C3BCFF",
  "!0 c #C1C4BDFF",
  "]% c #C2C4C0FF",
  "Q) c #C2C6BFFF",
  "'T c #C3C5C0FB",
  "Yz c #C3C6BFFF",
  "_I c #C6C8C4FF",
  "]r c #C6C9C1FF",
  "'J c #C6CBC3FF",
  "r= c #C8CCC4FF",
  "'' c #C8CDC5FF",
  ":l c #C9CBC7FF",
  ".2 c #CACCC6FF",
  "QA c #CBCDC8FD",
  "3Y c #CBCDC9FF",
  "r$ c #CBCEC7FF",
  "e[ c #CBCFC8FF",
  "]p c #CBD0C8FF",
  "5: c #CCCEC9FF",
  "r@ c #CCCFC8FF",
  "oC c #CDCFC9FF",
  "]6 c #CDD1C9FF",
  "Ti c #CFD2CDFF",
  "Q# c #D1D5CDFF",
  "W_ c #D2D6CEFF",
  "'s c #D3D6CEFF",
  "xz c #D3D7CFFF",
  "'8 c #D5D9D1FF",
  "hu c #D6DAD2FF",
  "xT c #D6DAD3FF",
  "Bp c #D7D8D6FF",
  "5) c #D7DAD3FF",
  "E% c #D8DAD5FF",
  "5# c #D8DAD7FF",
  "]z c #D8DBD4FF",
  "Y( c #D8DCD5FF",
  "eV c #D9DCD5FF",
  "K^ c #D9DDD6FF",
  "XL c #DBDDD8FF",
  "0I c #DBDDD9FF",
  "xh c #DBDED7FF",
  "cC c #DBDED8FF",
  ",X c #DBDED9FF",
  "cZ c #DCDFD9FF",
  "!# c #DCDFDAFF",
  "e# c #DCE0D9FF",
  "|w c #DDDEDBFF",
  "XR c #DDDFDCFF",
  "4; c #DEE0DBFF",
  ":f c #DEE0DCFF",
  "Y[ c #E0E3DDFF",
  "Xv c #E1E3E0FF",
  "!@ c #E2E4DFFF",
  ":j c #E2E4E0FF",
  "T* c #E3E5E0FF",
  "3} c #E4E6E2FF",
  ">{ c #E5E7E3FF",
  "x` c #E5E8E3FF",
  "g! c #E7E9E6FF",
  "fG c #E9EBE8FF",
  ":Q c #EAECE8FF",
  ">. c #EBEDEAFF",
  ";p c #EEF0EDFF",
  "{T c #EFF0EEFF",
  "k7 c #EFF1EEFF",
  "f8 c #F1F2F0FF",
  "c} c #F2F2F1FF",
  ";~ c #F4F5F3FF",
  "v0 c #F6F6F5FF",
  ";K c #F6F7F5FF",
  "lP c #F9F9F8FF",
  ":v c #F9F9F9FF",
  "=q c #FDFDFDFF",
  "3N c #FFFFFF01",
  "   c none",
  
  // Image data
  "                                                                ",
  "                                                                ",
  "                                                                ",
  "                                                                ",
  "                  c!`]tr`[5BeBuf`{`}`|R6Tt                      ",
  "              '.'X'o'O'+'@hv5:E%xTTi'#'$'o'%ro                  ",
  "          <4'&'*'=cCQA'-';':'>'o',hueVe#,X'<'*'1r}              ",
  "        r#'2'3cCcZr@'4rC    '5'6'7!0xzxz'8cZ!#'9'0y^            ",
  "      3N'q'w!@xTxz'e'r't'y'u'i'i'p'axzxzr=Yz's!@'d'fcW          ",
  "      'g'hT*'8xzxz'j'k'l'z5g'xl''c'v'bjV'nu=xv'mXL'M2n          ",
  "    A-'N:jxTxzxzxzxzL+l~'B'c/U'V'Cl:3V3,'Z'A'S'D'F4;ALS&        ",
  "    'G'HY['J'K3,eBlK'Lr*4*j8'KE^Q#)N'P]yh4'IeQ'U'Y'T'R'E        ",
  "    'W0IoC=HYU'x$Av+'Q'!e[xzxzxzxz:mgEQ1'~4dl't-'^KN:f'/        ",
  "    K3g!'(kyt-'ll~')h@<mW5xzxzxzxz'_3>|I(s^T'`t$)v''fG']        ",
  "    '[fG5a:Mt-'{3<5h&[2X)Nxzr$'}!9ovQGf73g'|].jiqX'8>.xv$a      ",
  "    ]XXvz{L&t-P@'ck>]o3>QG]Oj2=H4dj8f7)/]+]@Q)Q#xzK^3}]#+r*R    ",
  "    ]$]%T*]&]*]=]-d]];]:]>k0*w(-hp<$hpeQ],xzxzxzxz>{_I]<$^=2    ",
  "    ]1R'{T5)!9W4RJ]2]3Yz]4(Ghp]a<@,~,~:B]5]6xzxzY(k7j8]79b&Z*T  ",
  "    ]8]9:xf8xTxzxzxzxz]0]q]wj4tw)=ky]e'{eB]rxzxTf850Lh]t*'@o*`  ",
  "    ]u]i3>_I;~xhxzxzxz]p].]s'i'i'{]d]f]gjiW_xh;~:l]4]h]j*'@o*_  ",
  "      ]k]lRH<Nv0:Q]zxzxz]xeBi&5`<85`.Af7.2:Q;K]c]4:M]v]b=@&Z+n  ",
  "      ]n]m5wk0]MBplPf8x`cZr$:u]*k0,/3Y;plP5#3>:*]N]B]V]C]Z]A]S]D",
  "      +n]F]G]H]Jt<./<N|wc}:v=q=q:vc}XR0L')]Kzf]L:4]P,l1u,x33]I]U",
  "        *`]Y]Tkat-eWBuh%:b]R]RWp]R3r]E[XL'Il;D:+JLG9G9G9rjL'BA]W",
  "          *_]Q]!]~ka:i5l]^(1IB]/>3L']L](GI])]_]`G9G9G9G9]'Kkt%]]",
  "            +n][]{]}]|[.kd:,KS[o[O(&[+[@[#[$[%[&[*[=[-[;[:.p[>[,",
  "                *T[<[1[2[3[4[5[6[7[8[9[0[q$z@o$a*Tam[w[e[r[t[y[u",
  "                      *_$p,q[i+r$w&Z[i,q$p*_            [p[a[s[d",
  "                                                            uM2o",
  "                                                                ",
  "                                                                ",
  "                                                                "
};
