/* XPM */
const char *xpm_tango_mimetypes_x_office_address_book[] = {
  // Header (width height colors chars-per-pixel)
  "32 32 408 2",
  
  // Colors (code mode value)
  "+n c #00000001",
  "*T c #00000002",
  "*_ c #00000003",
  "*` c #00000004",
  "=1 c #00000005",
  "$p c #00000007",
  "$a c #0000000A",
  "+> c #0000000B",
  ",q c #0000000C",
  "=2 c #0000000D",
  "=# c #0000000E",
  "[i c #0000000F",
  "$s c #00000010",
  "&Z c #00000011",
  "+r c #00000012",
  "$w c #00000013",
  "@o c #00000014",
  "+k c #00000016",
  "$^ c #00000019",
  "6O c #0000001B",
  "`I c #0000001C",
  "=k c #0000001F",
  "*' c #00000020",
  "+g c #00000021",
  "=e c #00000023",
  "@$ c #00000026",
  "+M c #1F2B456B",
  "+) c #222D4B44",
  "@O c #232D4949",
  "+H c #2431517E",
  "[S c #24496D07",
  "@& c #2734544F",
  "+^ c #2B395F8E",
  "+} c #2F3E6799",
  "[R c #3344771E",
  "[^ c #34467A2C",
  "[f c #35467B1D",
  "o_ c #3547787D",
  "o2 c #3549774D",
  "@+ c #364574CA",
  "os c #3647775A",
  "oN c #36487767",
  "{^ c #364878F7",
  "@# c #364878F8",
  ".- c #364878FF",
  "oL c #36487972",
  "{+ c #36497842",
  "+t c #364978F4",
  "+V c #364978FD",
  "@% c #374878EC",
  "@@ c #374878F7",
  "+l c #374878FA",
  "+L c #374975D5",
  "+, c #374978EC",
  ".= c #374978FC",
  "O' c #374979E2",
  "[h c #374979F4",
  ".* c #374979F6",
  "[m c #374A79F2",
  "O% c #3848798D",
  "[{ c #384A7937",
  "+q c #384A79F6",
  "O4 c #384A7A9F",
  "Oi c #384B7AAE",
  "[K c #39477112",
  "[g c #39497ACA",
  ".; c #394A79A9",
  "OU c #394A79D5",
  "Ob c #394B79BB",
  "+; c #394B79E5",
  "+f c #394B79FC",
  "OD c #394B7AC9",
  "[j c #394B7BB7",
  "+m c #3B4D7BF5",
  "[L c #3E4E7EF7",
  "+_ c #3E517EF5",
  "+G c #3F517DF6",
  ".s c #3F517EF0",
  "+~ c #445783FA",
  "[E c #475885F5",
  "+{ c #475885FF",
  "ob c #495A78FF",
  "ou c #4A5C6CFF",
  "oF c #4C5983FF",
  "[/ c #50628CF2",
  ".m c #516188FF",
  "O/ c #543C61FF",
  "o> c #546664FF",
  "XH c #55643EFF",
  "+[ c #596992FF",
  "[} c #5A6A92F2",
  "+] c #5B6A94FF",
  "+d c #5B6B94FF",
  "o~ c #5E6C93FF",
  "+F c #5E6D96FF",
  "+' c #5E6E95FF",
  "+0 c #5F6E96FF",
  ".K c #617294FF",
  "{@ c #637399F3",
  "+I c #68789DFF",
  "+u c #69799EFF",
  "+3 c #6A799DFF",
  "+! c #6B799EFF",
  "+9 c #6D7B9FFF",
  "{* c #6E7EA2F5",
  "oM c #717D0B5A",
  "{I c #717E9EFF",
  "X{ c #727E0AFC",
  "oa c #7280093A",
  "X] c #738183FF",
  "OL c #746182FF",
  "XJ c #74800BFF",
  "OO c #757FA0FF",
  "XK c #75810B8C",
  "o1 c #76800A1A",
  "+5 c #7682A1FF",
  "+6 c #7984A3FF",
  ".{ c #7985A0FF",
  "od c #7987AAF6",
  "[k c #798AACFE",
  "+2 c #7A8AABFF",
  "o< c #7B8717F6",
  "+U c #7C89A9FF",
  "{~ c #7C8BACFE",
  "+s c #828DA7FF",
  "oB c #8391B2F8",
  "{U c #848EA9FF",
  "+8 c #848FA9FF",
  "OC c #873B55FF",
  "O, c #8790ADFF",
  "op c #879329F1",
  "X4 c #8895AEFF",
  "{8 c #8A98B6FB",
  "+i c #8C95ACFF",
  "{e c #919FBBFF",
  "om c #95A13DF4",
  "[' c #95AECEFF",
  "XA c #95AFCEFF",
  "NU c #95AFCFFF",
  "XS c #95B0CEFF",
  ".] c #95B0CFFF",
  "Oe c #96A0BCFF",
  "{; c #96ADCCFF",
  "[! c #96ADCDFF",
  "Xf c #96AECDFF",
  "{t c #96AECEFF",
  "[~ c #97A4BAFF",
  "{% c #97ABCBFF",
  "[H c #97ABCCFF",
  ".^ c #97ACCCFF",
  "[Q c #97ADCDFF",
  "J+ c #97B1D0FF",
  "[_ c #98A8C9FF",
  "{2 c #98A9CAFF",
  "Ow c #98AAC9FF",
  "ol c #98AACAFF",
  "{3 c #98ABCAFF",
  "[Y c #98ABCBFF",
  "{o c #99A9C9FF",
  "70 c #99B2D1FF",
  "[C c #99B3D1FF",
  "{z c #9AA5C6FF",
  "{a c #9AA7C1FF",
  "Xp c #9AA7C8FF",
  "{g c #9AAFCFFF",
  "{S c #9AB4D1FF",
  "{- c #9BA3C5FF",
  "[` c #9BA4C6FF",
  "OX c #9BA5C7FF",
  "{A c #9BB4D2FF",
  "O! c #9BB5D2FF",
  "X) c #9CA1C3FF",
  ".' c #9CA2C4FF",
  "Oz c #9D374CFF",
  "{h c #9D9FC1FF",
  "X> c #9DA0C2FF",
  "X, c #9E9EC1FF",
  "Of c #9F9BBFFF",
  "{7 c #9F9DC0FF",
  "{1 c #9FA3C5FF",
  "{y c #A098BCFF",
  "X: c #A099BCFF",
  "{4 c #A099BDFF",
  "./ c #A09ABDFF",
  "{6 c #A0A1C3FF",
  "{O c #A0B8D4FF",
  "[U c #A197BCFF",
  "X= c #A198BCFF",
  "oe c #A296BAFF",
  "[] c #A296BBFF",
  "{= c #A29EC1FF",
  "{c c #A2AEC7FF",
  "O5 c #A2AFC7FF",
  "{W c #A2AFC8FF",
  "o= c #A393B8FF",
  "X< c #A395B9FF",
  "[) c #A398BCFF",
  "X/ c #A490B5FF",
  "{w c #A491B6FF",
  "{i c #A491B7FF",
  ".` c #A492B7FF",
  "{q c #A495BAFF",
  "[J c #A58DB4FF",
  "Xs c #A58FB5FF",
  "X( c #A590B5FF",
  "o! c #A590B6FF",
  "[[ c #A5BCD6FF",
  "Oh c #A68EB4FF",
  "O: c #A690B5FF",
  "o# c #A690B6FF",
  "{. c #A6B6D2FF",
  "[V c #A6BDD7FF",
  "._ c #A78BB1FF",
  "X; c #A78CB2FF",
  "{u c #A78CB3FF",
  "o{ c #A7AECBFF",
  "Qu c #A7BED7FF",
  "Xd c #A888AFFF",
  ".) c #A889B0FF",
  "o% c #A88AB1FF",
  "O9 c #A986ADFF",
  "Xi c #A988AFFF",
  "{$ c #A99FC0FF",
  "Ms c #A9BFD8FF",
  "X_ c #AA84ACFF",
  "oc c #AA84ADFF",
  "oW c #AA86ADFF",
  "ow c #AA87AEFF",
  "{0 c #AA98BBFF",
  "Xj c #AAA670FF",
  "{j c #AAB7CEFF",
  "Oq c #AB83AAFF",
  "Og c #AB83ABFF",
  "X1 c #AB84ABFF",
  "{< c #AB8AB0FF",
  "o8 c #AB91B5FF",
  "{x c #ABC0D9FF",
  "X^ c #AC80A8FF",
  "X- c #AC81A9FF",
  "o} c #AC81AAFF",
  "oQ c #AC82AAFF",
  "oC c #AC8CB2FF",
  "[z c #ACC1D9FF",
  "o* c #AD7FA8FF",
  "oA c #AD7FA9FF",
  "o0 c #AD80A9FF",
  "{X c #AD82AAFF",
  "[l c #ADC2DAFF",
  "X' c #AEBCD1FF",
  ".7 c #AEC3DAFF",
  "iN c #AEC3DBFF",
  "{E c #AFBCD2FF",
  "{m c #AFBCD3FF",
  "[T c #AFC3DBFF",
  "X3 c #AFC4DBFF",
  "Or c #B03444FF",
  "[x c #B0C4DBFF",
  "On c #B2BFD4FF",
  ".9 c #B2C6DCFF",
  "H@ c #B3C6DDFF",
  ".[ c #B3C7DDFF",
  "[c c #B4C7DDFF",
  ".0 c #B4C8DDFF",
  "O> c #B5C8DDFF",
  ".q c #B6C9DEFF",
  "[B c #B7C4D3FF",
  "{G c #B7C9DEFF",
  "O} c #B7CADFFF",
  "{Z c #B8C4D1FF",
  "{M c #B8C5D8FF",
  "+o c #B8CADFFF",
  "X5 c #B9B161FF",
  "4x c #B9C6D5FF",
  "{H c #B9CBDFFF",
  "oZ c #BAC6D4FF",
  "{& c #BAC7D9FF",
  "{V c #BAC8DBFF",
  "[Z c #BACBDFFF",
  "{p c #BACBE0FF",
  "Oo c #BACCE0FF",
  "{b c #BBC8D5FF",
  "[G c #BBC8D7FF",
  "g. c #BBCDE0FF",
  "+O c #BCCDE1FF",
  "{! c #BDC2D2FF",
  "{k c #BDC9D7FF",
  "on c #BDCA6FFF",
  "[I c #BDCAD9FF",
  ".r c #BDCEE1FF",
  "[W c #BFCCDBFF",
  "[v c #BFCFE2FF",
  ".t c #BFD0E2FF",
  "O< c #C0313EFF",
  "[n c #C0CCDEFF",
  "dp c #C0CDDAFF",
  ")K c #C0CDDDFF",
  "QX c #C0D1E3FF",
  "{R c #C1C3C9FF",
  "[( c #C1CFDEFF",
  ".y c #C1D1E3FF",
  "A* c #C2CFDDFF",
  "sO c #C2D2E5FF",
  ".} c #C3B751FF",
  "oi c #C3CE7BFF",
  "[M c #C3D0E1FF",
  "[| c #C3D1E0FF",
  "[b c #C3D2E4FF",
  "{B c #C3D4E5FF",
  "oK c #C400000D",
  ".P c #C4A00074",
  ".M c #C4A201E7",
  "{: c #C4D0E1FF",
  "{# c #C4D2E1FF",
  "oD c #C4D3E4FF",
  "{n c #C4D4E6FF",
  "Xz c #C5D2E1FF",
  "ov c #C5D3E3FF",
  ".i c #C5D4E5FF",
  "{l c #C5D5E6FF",
  "oJ c #C60D03E7",
  ".N c #C6A1001B",
  "Xk c #C6A200EA",
  "{T c #C6C7CAFF",
  "=d c #C6D2E1FF",
  "{D c #C6D2E2FF",
  "{J c #C6D4E5FF",
  "+% c #C6D5E5FF",
  ".| c #C7A400A0",
  "X6 c #C7A400C9",
  "X[ c #C7D288FF",
  "{F c #C7D2E2FF",
  "{> c #C7D4E3FF",
  "og c #C7D5E4FF",
  "H8 c #C7D5E6FF",
  "{f c #C7D6E7FF",
  "{, c #C8D5E5FF",
  "{K c #C8D6E6FF",
  "{d c #C8D7E7FF",
  "XL c #C9C9CAFF",
  "o, c #C9D389FF",
  "sQ c #C9D5E4FF",
  "gO c #C9D6E4FF",
  "{L c #C9D6E6FF",
  "[P c #C9D7E5FF",
  "{r c #C9D7E8FF",
  "{5 c #C9D8E7FF",
  ",< c #CACACAFF",
  "{9 c #CAD8E8FF",
  "W( c #CAD9E8FF",
  "O( c #CB0000FF",
  "[F c #CBD8E6FF",
  "[A c #CBD9E6FF",
  "+= c #CBD9E8FF",
  "O$ c #CC000077",
  "OI c #CC0000FE",
  "oG c #CC0000FF",
  "oH c #CC0100FF",
  "[N c #CCDAE7FF",
  "o) c #CD000056",
  "O) c #CD0000FD",
  ".L c #CDB632FB",
  "+C c #CDCFD6FF",
  "OS c #CE0101F3",
  "O_ c #CE0303A0",
  "Ov c #CE0303DC",
  ";_ c #CECECEFF",
  "O3 c #CF02029B",
  "Ou c #CF0303C0",
  "+c c #CFCFCFFF",
  "{P c #CFDAE9FF",
  "+- c #CFDBE9FF",
  "+v c #D0D0D0FF",
  "{Y c #D0DBE9FF",
  "O+ c #D22E35FF",
  "GN c #D2DDEAFF",
  "3) c #D3DFECFF",
  "+Y c #D6DAE1FF",
  "{C c #D6E1EEFF",
  "{N c #D6E2EEFF",
  "[D c #D7E2EFFF",
  "{v c #D7E3EFFF",
  "{s c #D8E3EFFF",
  "fe c #D9E4F0FF",
  "o( c #DA2726F6",
  "+D c #DADBDEFF",
  "jF c #DAE5F0FF",
  "oI c #DAE5F1FF",
  "+Z c #E1E1E1FF",
  "+A c #E2E2E2FF",
  "+S c #E3E3E3FF",
  "O# c #E44646FB",
  "O2 c #E95757FF",
  "{Q c #EAEBEEFF",
  "o^ c #EB8C8FFF",
  "+T c #EBECEFFF",
  "Oy c #ED6767FF",
  "OZ c #F03434FF",
  "Ox c #F14040FF",
  "Oc c #F17575FF",
  "+E c #F1F2F3FF",
  "Ot c #F24B4BFF",
  "O1 c #F25757FF",
  "O@ c #F36363FF",
  "OA c #F48686FF",
  "OP c #F69191FF",
  "+W c #F6F6F6FF",
  "o/ c #F79191FF",
  "   c none",
  
  // Image data
  "                                                                ",
  "        [f[g[h.*.*.*.*.*.*.*.*.=.-.-.-.-.-.-.-.-.-.-.;          ",
  "        [j[ksQov.t.q[l[z.7[x.9[c.q+oOo+O[v.y[b.iH8[n.s          ",
  "        [m[M[N[B.[[V[C.].].].].].].].].].].].].].][Z.m.M.N      ",
  "        +VGN[A4x.[[V[C.].].].].].].].].].].].].].]+o.K.L.P      ",
  "      [S.=[D[F[G.[[V[C.].][H./[J.)._.`.'NU.].].].].[.{.}.|      ",
  "      [K[Lfe[P[I.[[V[CXS[UX-X;X:X>X,X<OgX;[Y.].].][TX4X5X6      ",
  "      [R[EjF[P[W.[[V70XsXiXp.].].].].][QXsXd[!.].]Ms[~XjXk      ",
  "      [^[/oIgO[(.[[V[)XdXf.]XS[_[`['[![HXA.)[].].][[O5XHXJXK    ",
  "      [{[}oIog[|.[{.{X{o.].^._X^OgX1X/Xs.]X)X_.].]{OX'X]X[X{    ",
  "      {+{@oIog{#.[{$o#.].]X(o%.^.]X>o*o=.]{%o*[H.]O!{&o>o,o<o1  ",
  "      o2{*oIogog.[o8{=.]['o0{-.].].]owoe.]{;o*.^.]J+{:ouoiopoa  ",
  "      osodoI{>{,.[{<{1.]{2o*{3.].].]Xi{4.].'oc.].].]ovobonomoM  ",
  "      oNoBoI{>{5.[oC{6.][!oA.'.].]{oX^{7['o%X:.].].][boFoGoHoJoK",
  "      oL{8jF{>{9.[{0{q.].]{wX1././oWoQo!Xdo!NU.].].][vo~o^o/o(o)",
  "      o_{efeXz{r.[o{o}{%.]{t{y{uX/OXX/{i.'.].].].].]{pOOO+O@O#O$",
  "      O%{a{sA*{d.[[VO:o%[!.].].].].].]{t.].].].].].]O>O,O<O1O2O3",
  "      O4O5{sdp{f.[[V{g._O9{hXf.].]olX=OqOw.].].].].]X3OeOrOtOyOu",
  "      Oi{j{s{k{l.[[V[CXAOfO9X^X_Ogo0Oh{z.].].].].].]{x{cOzOxOcOv",
  "      ObOn{v{b{n.[[V[C.].].]ol[`Xp{t.].].].].].].].][[{mOCOZOAOS",
  "      OD{M{NoZ{B.[[V[C.].].].].].].].].].].].].].].]{O{VOLo/OPOI",
  "      OU)K{C{ZsO.0Qu{AJ+.].].].].].].].].].].].].].]{S{DO/O(O)O_",
  "    *TO'{FjF3)W(QXO}iN[l[xH@O>{G{Hg..r.t.yoD{J{K+%{L+=+-+;=#    ",
  "    +>+,{P=d+2+3{I+5+6+6+6+6+6+6+6+6+6+6+6+6+6+6{U+8+9+0+q$^=1  ",
  "    +r+t{Y+u+iXL,<,<,<,<,<,<,<,<,<,<,<,<,<,<,<,<,<+s+d+f.-+g,q  ",
  "  +n+k+l{M+d{T;_;_;_;_;_;_;_+c+c+c+c+c+c+c+c+v+v{R+d+d+m+M@$&Z  ",
  "  +n+k+V{E+d+C+Z+Z+Z+Z+Z+Z+A+A+A+A+A+A+A+A+S+S+S+D+F+d+G+H@$$s  ",
  "    $w+L{W+I+U+Y{Q{Q{Q+T+T+T+T+T+T+T+T+E+W+W+W+W+W{!+!+~+^=e$a  ",
  "    =2+)+_{~+'+d+d+d+d+d+d+]+[+[+[+[+[+[+[+[+[+[+[+[+[+{+}6O*_  ",
  "    *`@o@O@+@@.-.-.-.-.-.-+V@#@#@#@#@#@#@@{^{^{^{^{^{^@%@&=2    ",
  "      $p$w`I*'*'*'*'*'*'*'*'*'*'*'*'*'*'*'*'*'*'*'=k`I$^=#      ",
  "        *_$a$s$s$s$s$s$s$s$s$s$s$s$s$s$s$s$s$s$s$s[i$a=1        "
};
