/* XPM */
const char *xpm_tango_mimetypes_x_office_presentation[] = {
  // Header (width height colors chars-per-pixel)
  "32 32 251 2",
  
  // Colors (code mode value)
  "+n c #00000001",
  "*T c #00000002",
  "2o c #33333305",
  "8] c #40404004",
  ">; c #40404008",
  ",i c #404071FF",
  ",0 c #443B68FF",
  "Xb c #4949490E",
  "2t c #4E4E4E0D",
  ",p c #502849FF",
  "a/ c #50505010",
  ",: c #5081BDFF",
  ",} c #51515116",
  "~q c #5252521C",
  ",R c #5252521F",
  ",x c #5252523B",
  ",C c #525B521C",
  "kg c #525C5219",
  "dZ c #53535328",
  "a; c #5353532E",
  "<< c #55555145",
  "#P c #55555503",
  ",/ c #55555506",
  "<; c #55555509",
  "Kw c #5555550F",
  "~@ c #55555515",
  ">B c #55555527",
  ",H c #55555533",
  ",c c #55555539",
  ",Q c #55575384",
  "<. c #555753DD",
  ",D c #555753FC",
  "<$ c #555753FF",
  "(c c #555754FF",
  ",I c #55585257",
  "*M c #55585551",
  ",K c #55585554",
  ",J c #5656535F",
  ",` c #5656564D",
  ",P c #5656565C",
  "<X c #565754FF",
  "<> c #565755EE",
  "B7 c #565854FF",
  "<o c #565855E6",
  "<O c #56595653",
  ",| c #565A563E",
  "<, c #575754DA",
  "uW c #57575723",
  "z# c #57575729",
  ",( c #57575732",
  ",L c #57595581",
  ",z c #575955FA",
  ",U c #5759568C",
  ",; c #5788C6FF",
  "2N c #5858581A",
  ",) c #58585834",
  "<@ c #5858584E",
  "<- c #58585854",
  "<* c #58585862",
  ",~ c #585956E8",
  "<f c #585A56FF",
  ",] c #585A57F1",
  "<: c #585A5863",
  ",T c #585B56F5",
  "&! c #585B5851",
  ",, c #5872A6FF",
  "uA c #59595914",
  "<1 c #5959592B",
  ",^ c #59595942",
  "<& c #5959595C",
  "[o c #595A57FF",
  "*N c #595B56FF",
  "*e c #595B58ED",
  ",E c #595B58FF",
  "Bm c #5A5A5A25",
  "u* c #5A5A5A30",
  "a: c #5A5A5A33",
  "<+ c #5A5A5A47",
  "<% c #5A5A5A55",
  "<= c #5A5A5A5B",
  ",[ c #5A5B58F1",
  "&~ c #5A5C58F3",
  "<J c #5A5C58FF",
  ",> c #5A85BDFF",
  ",{ c #5B5B5B2A",
  "<2 c #5B5B5B2D",
  ">f c #5B5B5B35",
  "y! c #5B5D59FF",
  ",! c #5C5D59F8",
  "(8 c #5C5E5BFF",
  "<3 c #5D5D5D0B",
  "*= c #5D5F5BED",
  "5` c #5D5F5BFF",
  "5( c #5E5E5E1E",
  ",1 c #652A3DFF",
  "(> c #656663FF",
  "~/ c #666865FF",
  ",9 c #686D99FF",
  ",h c #704418FF",
  ",g c #714218FF",
  ",$ c #732B35FF",
  "iN c #7499C8FF",
  ".l c #757674FF",
  ",W c #767775FF",
  ",j c #774330FF",
  ",F c #787977FF",
  ",u c #787B23FF",
  "51 c #797A78FF",
  "Kd c #7A7B79FF",
  "Ki c #7C7D7BFF",
  ",f c #7F3C32FF",
  "@R c #80808002",
  ",a c #814C4FFF",
  ",y c #859B22FF",
  ",k c #865D5DFF",
  "B, c #888987FF",
  "eB c #888A85FF",
  "5I c #8A8A89FF",
  "=J c #8B1313FF",
  "Bb c #8B8C8AFF",
  "PK c #8B8C8BFF",
  ",w c #8C0202FF",
  "+Y c #8C8C8BFF",
  "-4 c #8D4B4BFF",
  ",Y c #8D8E8DFF",
  ",t c #8D9E2FFF",
  ",q c #8E5C5DFF",
  ",d c #8E6363FF",
  ".t c #8F908EFF",
  ",8 c #929FA5FF",
  "=l c #952727FF",
  ",2 c #965656FF",
  ",# c #995671FF",
  ",@ c #9B5471FF",
  ">R c #9D5858FF",
  ">_ c #9E2323FF",
  "=& c #9E6363FF",
  ">T c #9F4848FF",
  ">U c #9F5858FF",
  ",e c #A10202FF",
  ">Y c #A14848FF",
  ",+ c #A15B78FF",
  "=7 c #A26C6CFF",
  ",3 c #A30606FF",
  ",r c #A62F16FF",
  ",O c #A66380FF",
  ",. c #A97777FF",
  "-` c #A9A9A9FF",
  ">I c #AC7F7FFF",
  ",l c #ADA7A7FF",
  ",7 c #ADE473FF",
  ",o c #AF6A82FF",
  ">E c #AF8484FF",
  ">F c #B0B0B0FF",
  ">Q c #B13737FF",
  ",- c #B1AB83FF",
  ":& c #B1B1B1FF",
  ">| c #B21E1EFF",
  "<# c #B2B2B2FF",
  "Q> c #B3B3B3FF",
  ";8 c #B4B4B4FF",
  "6{ c #B5B5B5FF",
  "=p c #B6B6B6FF",
  ",S c #B7B7B7FF",
  "9m c #B8B8B8FF",
  ",s c #B9B2B2FF",
  "5X c #B9B9B9FF",
  ",G c #BABABAFF",
  "5> c #BBBBBBFF",
  ",A c #BCBCBCFF",
  "1> c #BDBDBDFF",
  "1% c #BEBEBEFF",
  ";= c #BFBFBFFF",
  ",6 c #BFD37FFF",
  ";g c #C0C0C0FF",
  ":6 c #C4C4C4FF",
  "Qj c #C6C6C6FF",
  ",< c #CACACAFF",
  ";_ c #CECECEFF",
  "+c c #CFCFCFFF",
  ",V c #D2D2D2FF",
  "-3 c #D3D2D2FF",
  ",n c #D4D4D4FF",
  ",4 c #D54C4CFF",
  ">P c #D6CDCDFF",
  ",N c #D6D6D6FF",
  ",M c #D7D7D7FF",
  ",B c #D8D8D8FF",
  ">W c #D9D2D2FF",
  ",b c #D9D9D9FF",
  ",= c #DA916CFF",
  ",m c #DADADAFF",
  ">) c #DB4646FF",
  "=8 c #DB5757FF",
  ",v c #DBDBDBFF",
  ",_ c #DCDCDCFF",
  "=b c #DDDDDDFF",
  "6F c #DEDDDDFF",
  "=[ c #DEDEDEFF",
  "={ c #DFDFDFFF",
  "*( c #E0E0E0FF",
  "+Z c #E1E1E1FF",
  "+A c #E2E2E2FF",
  "iP c #E3E2E2FF",
  "+S c #E3E3E3FF",
  "&I c #E4E4E4FF",
  ";3 c #E5E5E5FF",
  ";b c #E6E6E6FF",
  ";G c #E7E7E7FF",
  ">} c #E83F3FFF",
  ":# c #E8E8E8FF",
  ":2 c #E9E9E9FF",
  ",Z c #EA6D6DFF",
  ",% c #EAEAEAFF",
  ",' c #EB6464FF",
  ",5 c #EB7171FF",
  ":, c #EBEBEBFF",
  ">{ c #EC4747FF",
  ":> c #ECECECFF",
  ",X c #ED5C57FF",
  ">! c #ED6161FF",
  ";h c #EDEDEDFF",
  ":< c #EEEEEEFF",
  ";A c #EFEFEFFF",
  ">[ c #F04F4FFF",
  ",* c #F05252FF",
  ";T c #F0F0F0FF",
  ";` c #F1F1F1FF",
  ";' c #F2F2F2FF",
  ">] c #F35757FF",
  ":O c #F3F3F3FF",
  ":3 c #F4F4F4FF",
  ",& c #F56F6FFF",
  "-k c #F5F5F5FF",
  "@> c #F6F6F6FF",
  ">( c #F75F5FFF",
  ":9 c #F7F7F7FF",
  ";R c #F8F8F8FF",
  ":v c #F9F9F9FF",
  ">/ c #FB6767FF",
  ";Q c #FBFBFBFF",
  ";7 c #FCFCFCFF",
  "=q c #FDFDFDFF",
  ">^ c #FE6F6FFF",
  ">' c #FE7070FF",
  "=z c #FE8585FF",
  ";f c #FEFEFEFF",
  ">~ c #FF7070FF",
  ">` c #FF7474FF",
  "1U c #FFFFFFFF",
  "   c none",
  
  // Image data
  "    &!&~<$<$<$<$<$<$<$<$<$<$<$<$<$<$<$<$<$<$<$<$<$<$<$<$<$&~&!  ",
  "    *=,n;A;A;A;A;A;A;A;A;A;A;A;A;A;A;A;A;A;A;A;A;A;A;A;A;A,n*=  ",
  "    *e-`5>5>5>5>5>5>5>5>5>5>5>5>5>5>5>5>5>5>5>5>5>5>5>5>5>-`*e  ",
  "    *M*N<$<$<$<$<$<$<$<$<$<$<$<$<$<$<$<$<$<$<$<$<$<$<$<$<$*N*M  ",
  "      eB1%;gQj,<;_+c,V,n,N,B,_=b=b=[={*(*(*(+A&I&I;3;3;b;beB    ",
  "      eB=b*(*(*(>P>I>U>Y>T>R>E>W+S+S+S&I>F>F:&:&<#<#<#;G:2eB    ",
  "      eB;b*(6F=&>Q>!>~>^>/>(>)>_=7iP&I;3;3;b;b;b;G;G:#:#:,eB    ",
  "      eB:#+Z=7=8>`>'>/>(>]>[>{>}>|,.;b;b<#<#<#Q>Q>Q>;8:2:<eB    ",
  "      eB:,+A=l=z>/>(>],X,o,O,+,@,#,$;b;G:#:#:#:2:2,%,%,%;TeB    ",
  "      eB:<+S=J,Z,&,*>{,=,-,;,:,>,,,1,b:#;8;86{6{6{=p=p:>;'eB    ",
  "      eB;T&I,2,3,4,5,',6,7,8iN,9,0,q,m,%,%,%:,:,:>:>:>;h:3eB    ",
  "      eB:O;3-3-4,w,e,r,t,y,u,i,p,a:6:2:,=p=p=p=p,S;h:<:<@>eB    ",
  "      eB-k;b;G,v,s,d,f,g,h,j,k,l,N,%:>:>:>;h;h:<:<:<;A;A;ReB    ",
  "      eB:9:#:#:#:2;3=b,M,M,_;3:>:>:>;h;h:<:<:<;A;A;T;T;T:veB    ",
  "      eB:v:29m9m9m9m5X5X,G,G,G5>5>,A,A,A,A,A;T;T;T;`;`;';QeB    ",
  "      eB;Q,%,%:,:,:>:>:>;h;h:<:<:<;A;A;T;T;T;`;`;';';':O;7eB    ",
  "      eB;7:,,G,G,G5>5>,A,A,A,A,A1>1>1>1%1%;=;';':O:O:3:3=qeB    ",
  "      eB;f:>;h;h:<:<:<;A;A;T;T;T;`;`;';';':O:O:3:3:3-k-k;feB    ",
  "      eB1U:<,A,A,A,A1>1>1>1%1%;=;';':O:O:3:3:3-k-k-k-k-k;feB    ",
  "      eB1U;A;A;T;T;T;`;`;';';':O:O:3:3:3-k-k-k-k-k-k-k-k1UeB    ",
  "      eB1U1U1U1U1U1U1U1U1U1U1U1U1U1U1U1U1U1U1U1U1U1U1U1U1UeB    ",
  "      eBeBeBeBeBeBeBeBeBeBeBeBeBeBeBeBeBeBeBeBeBeBeBeBeBeBeB    ",
  "                              <$Ki,z                            ",
  "                            ,x<fKi*N,c                          ",
  "                          ,CB7.l:#Kd,Dkg                        ",
  "                        ,cy!51[o,F[o,F<J,H                      ",
  "                      ,J~/Bb(8,K,L,P5`+Y(>,I                    ",
  "                  #P,U,F,Y,T,R2o,/,/dZ,E.t,W,Q+n                ",
  "          #P<;KwuW,!,YB,,~,^u*,(,),)a:,`,]PK5I,[,{2NuAXb>;*T    ",
  "      +n<;a/,},|<.<X(c<o<O<+<@<%<&<*<=<-<:<>B7(c<,<<uW~q~@2t8]  ",
  "          +n8]uA5(Bm<1,{z#<2u*a:,),),),(u*,H>fa;>B2N<3,/@R      ",
  "                              +n+n+n+n                          "
};
