/* XPM */
const char *xpm_tango_mimetypes_x_office_presentation_template[] = {
  // Header (width height colors chars-per-pixel)
  "32 32 668 2",
  
  // Colors (code mode value)
  "+n c #00000001",
  "># c #33333303",
  "2o c #33333305",
  "8] c #40404004",
  "-q c #404071A7",
  "-# c #443B688D",
  "F7 c #4D4D4D0A",
  "-w c #5028499A",
  "a/ c #50505010",
  "=T c #5081BDA7",
  ">N c #51515122",
  ">@ c #52525214",
  ":x c #52525227",
  ":V c #525B5214",
  ":D c #525C520A",
  ">$ c #53535312",
  ">c c #55555106",
  "#P c #55555503",
  ">H c #55555505",
  ",/ c #55555506",
  "<; c #55555509",
  "u. c #55555512",
  ":n c #5555551A",
  ">C c #55555520",
  ">> c #55555523",
  ">B c #55555527",
  ":J c #5555552B",
  "W$ c #5555553F",
  "*# c #5557530C",
  "*@ c #55575319",
  ">* c #55575321",
  "*D c #55575325",
  "*+ c #55575326",
  "*O c #55575332",
  "*S c #55575333",
  "*o c #5557533F",
  "*A c #55575340",
  "*X c #5557534D",
  "*. c #55575359",
  "&| c #55575366",
  ":S c #55575372",
  "&} c #55575374",
  "&{ c #55575380",
  "&[ c #5557538D",
  "&] c #5557539A",
  "&' c #555753A7",
  "&` c #555753B4",
  "*Z c #555753C0",
  "&_ c #555753C1",
  "&) c #555753CD",
  "*C c #555753CE",
  "*V c #555753DA",
  "&( c #555753DB",
  "&/ c #555753E7",
  "*B c #555753E8",
  "&^ c #555753F4",
  "<$ c #555753FF",
  ">z c #55575433",
  ">i c #555754E7",
  ":[ c #5558521A",
  ":( c #55585533",
  "*M c #55585551",
  ":! c #5656534D",
  ":_ c #5656562E",
  ">p c #565754DA",
  ">x c #56575520",
  ">k c #56575548",
  ">l c #5658543F",
  ":C c #565854A7",
  ">u c #575754D3",
  ">F c #5757570C",
  ">D c #5757570F",
  ">7 c #5757571F",
  ">V c #57575724",
  ">2 c #575856B0",
  ":) c #57595547",
  ":k c #5759557D",
  ">X c #57595678",
  ">s c #575A5740",
  "=Y c #5788C6B4",
  ">a c #585855BA",
  ">A c #58585814",
  "2N c #5858581A",
  ">5 c #5858581D",
  "2A c #58585820",
  ":c c #585A569A",
  ">j c #585A5822",
  ">+ c #585B56AD",
  "&! c #585B5851",
  "=E c #5872A68D",
  ">w c #59595902",
  ">G c #59595909",
  ">S c #59595910",
  "uA c #59595914",
  ">y c #59595917",
  ">Z c #59595920",
  ">3 c #5959592F",
  ">d c #59595934",
  ">8 c #595A5754",
  ":U c #595A5780",
  ":P c #595A579A",
  ":b c #595B5680",
  "*N c #595B56FF",
  "*e c #595B58ED",
  ">e c #5A5A5A01",
  ">6 c #5A5A5A17",
  ">M c #5A5A5A1E",
  ">4 c #5A5A5A1F",
  ">h c #5A5A5A28",
  "u* c #5A5A5A30",
  ">g c #5A5A5A34",
  ">q c #5A5B5830",
  ":T c #5A5C5866",
  "&~ c #5A5C58F3",
  ">, c #5A5D59E2",
  "=R c #5A85BD9A",
  "@a c #5B5B5B33",
  ">f c #5B5B5B35",
  ":K c #5B5D59B3",
  ":/ c #5C5E5BA7",
  ":` c #5D5F5B73",
  "*= c #5D5F5BED",
  "=W c #652A3D80",
  ":] c #65666359",
  ":~ c #666865C1",
  "-@ c #686D999A",
  "-v c #704418C1",
  "-c c #714218CD",
  "=C c #732B3580",
  "-+ c #7499C8A6",
  ":Z c #7576749A",
  ">& c #7677754C",
  "-b c #774330B4",
  ":Y c #78797773",
  ":I c #7879778D",
  ">o c #787977CE",
  "-0 c #787B23B3",
  ":L c #797A78A6",
  ":A c #7A7B7980",
  ":j c #7C7D7B8D",
  "-x c #7F3C32DB",
  "-e c #814C4F8D",
  "-9 c #859B22C1",
  "-n c #865D5DA7",
  ">1 c #888988CE",
  ":s c #888A850C",
  ":a c #888A8519",
  ":p c #888A8526",
  ":i c #888A8532",
  ":u c #888A8540",
  ":y c #888A854C",
  ":t c #888A8559",
  ":r c #888A8566",
  ":e c #888A8573",
  ":w c #888A8580",
  ":q c #888A858D",
  ":0 c #888A859A",
  ":8 c #888A85A7",
  ":7 c #888A85B4",
  ":6 c #888A85C1",
  "R9 c #888A85CD",
  ":5 c #888A85DB",
  ":4 c #888A85E7",
  ":3 c #888A85F5",
  "eB c #888A85FF",
  ">0 c #898A893F",
  "=J c #8B1313FF",
  ">9 c #8B8C8A4D",
  ":^ c #8B8C8AB4",
  "-5 c #8C0202F4",
  ":' c #8C8C8B66",
  "-4 c #8D4B4BFF",
  ">O c #8D8E8DC0",
  ">< c #8D8E8DDA",
  "-8 c #8D9E2FCD",
  "-$ c #8E5C5D80",
  "-z c #8E6363E7",
  ">% c #8F908E59",
  "-O c #929FA5B4",
  "=l c #952727FF",
  "=[ c #965656FF",
  "=V c #9956718D",
  "=B c #9B54719A",
  "*[ c #9D5858B3",
  "=< c #9E23239A",
  "=& c #9E6363FF",
  "*] c #9F4848C0",
  "*` c #9F5858DB",
  "-6 c #A10202E7",
  "*' c #A14848CD",
  "=N c #A15B78A6",
  "=1 c #A26C6C8D",
  "=7 c #A26C6CFF",
  "={ c #A30606FF",
  "-7 c #A62F16DA",
  "=M c #A66380B4",
  "=i c #A9777780",
  "-` c #A9A9A9FF",
  "*_ c #AC7F7FE8",
  "-m c #ADA7A79A",
  "-o c #ADE473C0",
  "=m c #AF6A82C1",
  "*{ c #AF8484A7",
  "=. c #B0B0B04D",
  "*| c #B0B0B059",
  "=* c #B13737F4",
  "=U c #B1AB83C1",
  "=o c #B1B1B133",
  "=X c #B1B1B13F",
  "=u c #B21E1E8D",
  "=@ c #B2B2B20C",
  "=+ c #B2B2B219",
  "=O c #B2B2B226",
  "=s c #B2B2B23F",
  "=a c #B2B2B24D",
  "=p c #B2B2B259",
  "=g c #B3B3B318",
  "=f c #B3B3B325",
  "=d c #B3B3B332",
  "=h c #B4B4B40C",
  "=~ c #B4B4B44D",
  "=! c #B4B4B459",
  "=( c #B5B5B526",
  "=/ c #B5B5B532",
  "=^ c #B5B5B540",
  "=_ c #B6B6B60B",
  "=) c #B6B6B619",
  "-p c #B6B6B632",
  "X2 c #B6B6B63F",
  "-i c #B6B6B64C",
  "-u c #B6B6B65A",
  "-a c #B7B7B725",
  "-_ c #B8B8B8E8",
  "-) c #B8B8B8F4",
  "9m c #B8B8B8FF",
  "-l c #B9B2B2F4",
  "-] c #B9B9B9CE",
  "-' c #B9B9B9DA",
  "-} c #BABABAA7",
  "-{ c #BABABAB4",
  "-[ c #BABABAC1",
  ";8 c #BABABAF4",
  ",G c #BABABAFF",
  "*v c #BBBBBB0C",
  "*c c #BBBBBB19",
  "*x c #BBBBBB26",
  "*z c #BBBBBB33",
  "*l c #BBBBBB40",
  "*k c #BBBBBB4D",
  "*j c #BBBBBB59",
  "*h c #BBBBBB66",
  "*g c #BBBBBB73",
  "*f c #BBBBBB80",
  "*d c #BBBBBB8D",
  "*s c #BBBBBB9A",
  "*a c #BBBBBBA7",
  "*p c #BBBBBBB4",
  "*i c #BBBBBBC1",
  "*u c #BBBBBBCE",
  ";0 c #BBBBBBDA",
  "*y c #BBBBBBDB",
  "*t c #BBBBBBE7",
  ";9 c #BBBBBBE8",
  "*r c #BBBBBBF4",
  "5> c #BBBBBBFF",
  ".t c #BCBCBC4D",
  ".r c #BCBCBC59",
  ";. c #BCBCBC67",
  ".w c #BCBCBC73",
  "-| c #BCBCBC80",
  ".9 c #BCBCBC9A",
  ".8 c #BCBCBCA6",
  ".7 c #BCBCBCB4",
  ";w c #BCBCBCC1",
  ";q c #BCBCBCCD",
  ";S c #BCBCBCE7",
  ";Z c #BCBCBCF5",
  ",A c #BCBCBCFF",
  ";e c #BDBDBD73",
  ".K c #BDBDBD80",
  ".J c #BDBDBD8D",
  ".D c #BDBDBDC1",
  ";F c #BDBDBDCE",
  ";D c #BDBDBDDA",
  ";t c #BEBEBE59",
  ";r c #BEBEBE67",
  ";J c #BEBEBEA7",
  ";H c #BEBEBEB4",
  "1% c #BEBEBEFF",
  ";y c #BFBFBF4C",
  ";K c #BFBFBF9A",
  "-X c #BFD37FCE",
  ";g c #C0C0C0FF",
  "*$ c #C19F05FF",
  ">L c #C3A50011",
  "04 c #C4A000FF",
  "*% c #C4A003F8",
  "-r c #C4C4C481",
  "** c #C5A002F8",
  ">K c #C5A304FA",
  "*& c #C6A102F5",
  ">J c #C6A205F7",
  "wo c #C6AA0009",
  "Qj c #C6C6C6FF",
  ",< c #CACACAFF",
  ":} c #CDAB0BFF",
  "*H c #CECECEF5",
  "*J c #CFCFCFE8",
  ":; c #D0AF11FF",
  ">r c #D0B022FF",
  ":{ c #D1B327FF",
  ":F c #D2B52BFF",
  "*K c #D2D2D2DA",
  "oY c #D3B630FF",
  "-3 c #D3D2D2FF",
  ";@ c #D4B416FF",
  "*L c #D4D4D4CE",
  ",n c #D4D4D4FF",
  "=} c #D54C4CF4",
  ":- c #D5B834FF",
  ";R c #D6BA38FF",
  "*) c #D6CDCDF5",
  "-M c #D6D6D68D",
  "*P c #D6D6D6C1",
  ";a c #D7BB3CFF",
  ";+ c #D7BC3FFF",
  "-L c #D7D7D7C1",
  "-K c #D7D7D7CE",
  "=F c #D8B91BFF",
  "+u c #D8B91CFF",
  ">- c #D8B91EFF",
  "*n c #D8B91FFF",
  "-D c #D8BE43FF",
  "-, c #D8BE47FF",
  "*I c #D8D8D8B4",
  "=D c #D9BF4AFF",
  "=5 c #D9C04DFF",
  "*b c #D9C04FFF",
  "*} c #D9D2D29A",
  "=Q c #D9D9D973",
  "=I c #DA916CCE",
  ">; c #DABB22FF",
  "-% c #DADADA73",
  "=, c #DB4646A6",
  "=8 c #DB5757FF",
  ",v c #DBDBDBFF",
  ":| c #DCBE24FF",
  "*U c #DCDCDCA7",
  "-P c #DCDCDCB3",
  ":E c #DDC024FF",
  ":W c #DDC128FF",
  "*T c #DDDDDD8D",
  "*Y c #DDDDDD9A",
  "-J c #DDDDDDDB",
  "=b c #DDDDDDFF",
  "6F c #DEDDDDFF",
  "*R c #DEDEDE80",
  "O] c #DFC226FF",
  ":G c #DFC22AFF",
  "*E c #DFDFDF73",
  ">v c #E0C857FF",
  ">m c #E0C858FF",
  ">n c #E0CA57FF",
  "*! c #E0E0E04D",
  "*Q c #E0E0E05A",
  "*W c #E0E0E066",
  "*( c #E0E0E0FF",
  ":M c #E1C529FF",
  ":N c #E1C52DFF",
  ">b c #E1C955FF",
  "+Z c #E1E1E1FF",
  "OB c #E2C72BFF",
  ":f c #E2C72CFF",
  ">t c #E2CB5EFF",
  "|{ c #E2E2E23F",
  "+A c #E2E2E2FF",
  ":l c #E3C830FF",
  "=2 c #E3E2E281",
  "|` c #E3E3E373",
  "|_ c #E3E3E380",
  "|) c #E3E3E38D",
  "+S c #E3E3E3FF",
  ">= c #E4CF64FF",
  ">: c #E4CF65FF",
  "*~ c #E4E4E426",
  ".u c #E4E4E432",
  ".= c #E4E4E466",
  ".* c #E4E4E473",
  "&I c #E4E4E4FF",
  ":g c #E5CA33FF",
  "*/ c #E5E5E50B",
  "*^ c #E5E5E519",
  "@x c #E5E5E559",
  "@z c #E5E5E566",
  ".j c #E5E5E5A7",
  ".~ c #E5E5E5E8",
  ";3 c #E5E5E5FF",
  ":: c #E6CC35FF",
  ">. c #E6D26CFF",
  ".T c #E6E6E632",
  "=3 c #E6E6E640",
  ".U c #E6E6E64D",
  ".c c #E6E6E667",
  ".x c #E6E6E673",
  ";b c #E6E6E6FF",
  "=4 c #E7E7E719",
  "X4 c #E7E7E725",
  ".P c #E7E7E766",
  ";G c #E7E7E7FF",
  "=y c #E83F3F9A",
  "4E c #E8CE33FF",
  ";_ c #E8CF38FF",
  ":R c #E8D570FF",
  ":Q c #E8D573FF",
  "4= c #E8E8E80B",
  "=A c #E8E8E83F",
  ".| c #E8E8E84D",
  "=Z c #E8E8E85A",
  ".{ c #E8E8E866",
  ".' c #E8E8E88D",
  ":# c #E8E8E8FF",
  "XN c #E9E9E925",
  "Xd c #E9E9E932",
  "-t c #E9E9E973",
  ".a c #E9E9E9F4",
  ":2 c #E9E9E9FF",
  ",Z c #EA6D6DFF",
  "4M c #EAD035FF",
  ";E c #EAD13AFF",
  ":H c #EAD87AFF",
  "4- c #EAEAEA0C",
  "=S c #EAEAEA18",
  "-= c #EAEAEA4C",
  "-* c #EAEAEA59",
  "-& c #EAEAEA66",
  "-N c #EAEAEA81",
  ",$ c #EAEAEAFF",
  "-. c #EB6464DA",
  "=| c #EB7171E8",
  ";B c #EBD338FF",
  "-- c #EBEBEB32",
  "#p c #EBEBEB3F",
  "-y c #EBEBEB66",
  "X7 c #EBEBEBF4",
  ":, c #EBEBEBFF",
  "=t c #EC4747A7",
  "=P c #EC4747DB",
  ";V c #ECD33DFF",
  ":m c #ECDA7DFF",
  ":B c #ECDB80FF",
  "-> c #ECECEC0C",
  "-: c #ECECEC19",
  "-; c #ECECEC25",
  "-C c #ECECEC5A",
  "-V c #ECECEC67",
  "-B c #ECECEC73",
  "-Y c #ECECEC80",
  "-U c #ECECEC8D",
  "-I c #ECECEC9A",
  ";% c #ECECECCE",
  "%s c #ECECECDA",
  "oi c #ECECECE8",
  ":> c #ECECECFF",
  "=n c #ED5C57CE",
  "== c #ED6161E7",
  ";4 c #EDD43AFF",
  "4t c #EDD53AFF",
  "-s c #EDEDED19",
  "#N c #EDEDED3F",
  "-Z c #EDEDED4C",
  "-R c #EDEDED67",
  "-T c #EDEDED73",
  ";* c #EDEDEDB4",
  ";& c #EDEDEDC0",
  ";h c #EDEDEDFF",
  ";s c #EED641FF",
  ":z c #EEDD86FF",
  "-d c #EEEEEE0C",
  "-A c #EEEEEE19",
  "ov c #EEEEEE25",
  "oc c #EEEEEE32",
  "-Q c #EEEEEE40",
  "-W c #EEEEEE4C",
  "-E c #EEEEEE59",
  ";; c #EEEEEE8D",
  ";- c #EEEEEE9A",
  ";= c #EEEEEEA7",
  ";j c #EEEEEEDB",
  "OC c #EEEEEEE8",
  "o< c #EEEEEEF4",
  ":< c #EEEEEEFF",
  ";5 c #EFD743FF",
  ":d c #EFDF89FF",
  ":h c #EFE08CFF",
  "-S c #EFEFEF0B",
  "*8 c #EFEFEF0C",
  "*7 c #EFEFEF19",
  "o} c #EFEFEF26",
  "*6 c #EFEFEF33",
  "*5 c #EFEFEF3F",
  "*4 c #EFEFEF4C",
  "*3 c #EFEFEF59",
  "*2 c #EFEFEF66",
  "*1 c #EFEFEF73",
  "em c #EFEFEF80",
  "*< c #EFEFEF8D",
  "*, c #EFEFEF9A",
  "*> c #EFEFEFA6",
  "*: c #EFEFEFB3",
  ";k c #EFEFEFC0",
  "*; c #EFEFEFC1",
  "*- c #EFEFEFCD",
  "OO c #EFEFEFCE",
  "+- c #EFEFEFDB",
  "OY c #EFEFEFE7",
  "ou c #EFEFEFF4",
  ";A c #EFEFEFFF",
  "=r c #F04F4FB4",
  "=L c #F05252E8",
  "-~ c #F0F0F00C",
  "-! c #F0F0F019",
  "O, c #F0F0F026",
  ";X c #F0F0F033",
  "$& c #F0F0F03F",
  ";, c #F0F0F04C",
  ";> c #F0F0F05A",
  ";: c #F0F0F066",
  ";l c #F0F0F09A",
  "%b c #F0F0F0A7",
  "%g c #F0F0F0B4",
  ";! c #F0F0F0E7",
  "oE c #F0F0F0F5",
  ";T c #F0F0F0FF",
  ";# c #F1DA46FF",
  ":1 c #F1E293FF",
  ";O c #F1F1F10C",
  ";o c #F1F1F119",
  "Ou c #F1F1F132",
  "$9 c #F1F1F13F",
  ";x c #F1F1F181",
  ";z c #F1F1F18D",
  "kA c #F1F1F1CD",
  ";~ c #F1F1F1DA",
  ";) c #F2E495FF",
  ";` c #F2E599FF",
  ";1 c #F2F2F20C",
  ";< c #F2F2F219",
  "$B c #F2F2F226",
  "Om c #F2F2F232",
  "O: c #F2F2F240",
  "$f c #F2F2F259",
  ";v c #F2F2F266",
  ";c c #F2F2F273",
  ";P c #F2F2F280",
  ";L c #F2F2F28D",
  "O# c #F2F2F2A7",
  "Oh c #F2F2F2B4",
  "+@ c #F2F2F2C1",
  "=e c #F35757C0",
  "=v c #F35757DB",
  "3' c #F3DC42FF",
  "-/ c #F3DC48FF",
  ";W c #F3E79FFF",
  ";i c #F3F3F319",
  ";u c #F3F3F325",
  "O_ c #F3F3F33F",
  ";n c #F3F3F34D",
  "O= c #F3F3F366",
  ";I c #F3F3F373",
  "O% c #F3F3F38D",
  "O$ c #F3F3F39A",
  ":O c #F3F3F3FF",
  "-F c #F4DE45FF",
  "-G c #F4DF4BFF",
  ";N c #F4E8A0FF",
  ";p c #F4F4F40B",
  ";m c #F4F4F418",
  "%* c #F4F4F425",
  "$L c #F4F4F432",
  ";U c #F4F4F43F",
  "+% c #F4F4F44C",
  "$m c #F4F4F459",
  ";^ c #F4F4F466",
  "O* c #F4F4F473",
  "O& c #F4F4F480",
  "=K c #F56F6FF5",
  ";C c #F5E9A5FF",
  ";M c #F5F5F50B",
  ";( c #F5F5F518",
  ";Y c #F5F5F519",
  "%8 c #F5F5F526",
  "$` c #F5F5F532",
  ";/ c #F5F5F53F",
  "+X c #F5F5F54C",
  "Ov c #F5F5F559",
  "-k c #F5F5F5FF",
  "-g c #F6E147FF",
  "-h c #F6E14DFF",
  ";d c #F6EBAAFF",
  ";2 c #F6ECABFF",
  "=> c #F75F5FB4",
  "=w c #F75F5FCE",
  "=c c #F75F5FE8",
  "3m c #F7E148FF",
  "-1 c #F7E351FF",
  ";6 c #F7EDAFFF",
  ":9 c #F7F7F7FF",
  "-< c #F8E34AFF",
  "-^ c #F8EFB4FF",
  "3g c #F9E44BFF",
  "=' c #F9E653FF",
  ";$ c #F9EFB5FF",
  "-( c #F9F1BAFF",
  ":v c #F9F9F9FF",
  "-f c #FAF1BFFF",
  "-H c #FAF2C0FF",
  "=: c #FB6767C0",
  "=q c #FB6767DA",
  "=x c #FB6767F5",
  "=G c #FBE856FF",
  "-j c #FBF4C5FF",
  "=` c #FBF4C7FF",
  "=j c #FBF5D0FF",
  ";Q c #FBFBFBFF",
  "31 c #FCE84FFF",
  "=$ c #FCE957FF",
  "*G c #FCE958FF",
  "*m c #FCEA62FF",
  "-2 c #FCF5CAFF",
  "=# c #FCF6D7FF",
  "*F c #FCF7DAFF",
  ";7 c #FCFCFCFF",
  "=] c #FDF7CEFF",
  "=H c #FDF8D3FF",
  "=; c #FE6F6FCD",
  "=0 c #FE7070E7",
  "=z c #FE8585FF",
  "=k c #FEF9D8FF",
  "*0 c #FEF9DAFF",
  "=6 c #FEFADCFF",
  "*q c #FEFADEFF",
  "=% c #FEFAE0FF",
  "*w c #FEFAE4FF",
  "*9 c #FEFBE5FF",
  ";f c #FEFEFEFF",
  "=- c #FF7070DA",
  "=9 c #FF7474F4",
  "iA c #FFFFFF0B",
  ":= c #FFFFFF18",
  ":* c #FFFFFF26",
  ":& c #FFFFFF33",
  ":% c #FFFFFF40",
  "p* c #FFFFFF4C",
  ":$ c #FFFFFF59",
  ":@ c #FFFFFF66",
  ":+ c #FFFFFF73",
  "en c #FFFFFF80",
  ":o c #FFFFFF8D",
  ":X c #FFFFFF9A",
  ":. c #FFFFFFA7",
  ";| c #FFFFFFB4",
  ";} c #FFFFFFC1",
  ";{ c #FFFFFFCE",
  ";[ c #FFFFFFDA",
  ";] c #FFFFFFE8",
  ";' c #FFFFFFF5",
  "1U c #FFFFFFFF",
  "   c none",
  
  // Image data
  "&!&~<$<$<$<$&^&/&(&)&_&`&'&]&[&{&}&|*.*X*o*O*+*@*#  04*$*%*&**04",
  "*=,n;A;A;A;AouOY+-*-*;*:*>*,*<em*1*2*3*4*5*6o}*7*8  04*9*0*q*w04",
  "*e-`5>5>5>5>*r*t*y*u*i*p*a*s*d*f*g*h*j*k*l*z*x*c*v  04*b*n*m*904",
  "*M*N<$<$<$<$&^*B*V*C*Z&`&'&]&[&{&}&|*.*X*A*S*D*@*#  04*F3g*G*904",
  "  eB1%;gQj,<*H*J*K*L*P*I*U*Y*T*R*E*W*Q*!|{.u*~*^*/  04*b31*G*904",
  "  eB=b*(*(*(*)*_*`*'*]*[*{*}|)|_|`.=*|=.=X=o=O=+=@  04=#31=$=%04",
  "  eB;b*(6F=&=*===-=;=:=>=,=<=1=2.*@z@x.U=3.TX4=44=  04=531=$=604",
  "  eB:#+Z=7=8=9=0=q=w=e=r=t=y=u=i.x.c=p=a=s=d=f=g=h  04=j31=$=k04",
  "  eB:,+A=l=z=x=c=v=n=m=M=N=B=V=C.x.P=Z.|=AXdXN=S4-  04=D=F=G=H04",
  "  eB:<+S=J,Z=K=L=P=I=U=Y=T=R=E=W=Q.{=!=~=^=/=(=)=_  04=`3m='=]04",
  "  eB;T&I=[={=}=|-.-X-o-O-+-@-#-$-%-&-*-=#p---;-:->  04-,-<-1-204",
  "  eB:O;3-3-4-5-6-7-8-9-0-q-w-e-r-t-y-u-iX2-p-a-s-d  04-f-g-h-j04",
  "  eB-k;b;G,v-l-z-x-c-v-b-n-m-M-N-B-V-C-Z#Nocov-A-S  04-D-F-G-H04",
  "  eB:9:#:#:#.a.~-J-K-L-P.j-I-U-Y-T-R-E-W-Q*6o}-!-~  04-^3'-/-(04",
  "  eB:v:29m9m-)-_-'-]-[-{-}*s*d-|.w;..r.t$&;XO,;o;O  04;+;@;#;$04",
  "  eB;Q,$,$:,X7oi%s;%;&;*;=;-;;em*1;:;>;,$9Ou$B;<;1  04;2;4;5;604",
  "  eB;7:,,G,G;8;9;0;q;w.7.8.9.J.K;e;r;t;yO:Om;u;i;p  04;a4t;s;d04",
  "  eB;f:>;h;ho<OC;jOO;k%g%b;l;z;x;c;v$f;nO_$L%*;m;M  04;N;B;V;C04",
  "  eB1U:<,A,A;Z;S;D;F.D;H;J;K;L;P;IO=$m+%;U$`%8;Y;M  04;R4M;E;W04",
  "  eB1U;A;A;ToE;!;~kA+@OhO#O$O%O&O*;^Ov+X;/$`%8;(;M  04;)4E;_;`04",
  "  eB1U1U1U1U;';];[;{;};|:.:X:oen:+:@:$p*:%:&:*:=iA  04:-:;:::104",
  "  eBeBeBeBeB:3:4:5R9:6:7:8:0:q:w:e:r:t:y:u:i:p:a:s  04:d:f:g:h04",
  "                          &]:j:k                    04oYOB:l:z04",
  "                        :x:c:j:b:n                  04:m:M:N:B04",
  "                      :V:C:Z.':A:S:D                04:FO]:G:H04",
  "                    :J:K:L:P:I:U:Y:Tu.              04:R:E:W:Q04",
  "                  :!:~:^:/:(:):_:`:':]:[            04:{:}:|>.04",
  "              #P>X>o>O>+>@>##P#P>$:T>%>&>*          04>=>->;>:04",
  "      8]F7a/>>>,><>1>2>3>4>4>52N>6>7>8>9>0>q,/>w>e  04>r+u*n>t04",
  "  +n<;a/>yW$>u>i>p>a>s@a>d>f>gu*>h2A>j>k>l>z>x>c>e  04>v>b>n>m04",
  "      +n2ouA>M>N>B>V>C>Z2A>4>52N>6>A>S>D>F>G>H>w    04>J>J>J>K04",
  "                          +n+n+n                    wo>L>L>L>Lwo"
};
