/* XPM */
const char *xpm_tango_mimetypes_x_office_document[] = {
  // Header (width height colors chars-per-pixel)
  "32 32 200 2",
  
  // Colors (code mode value)
  "+n c #00000001",
  "*T c #00000002",
  "*R c #00000006",
  "$p c #00000007",
  ",D c #00000008",
  ",q c #0000000C",
  "=2 c #0000000D",
  "[i c #0000000F",
  "@, c #00000014",
  "=$ c #00000015",
  "+v c #00000016",
  "`L c #00000018",
  "6O c #0000001B",
  "=@ c #0000001D",
  "WK c #00000022",
  "tS c #00000029",
  "6: c #00000030",
  ":s c #00000031",
  ",E c #0000003B",
  "=r c #00000040",
  ",R c #00000042",
  "=f c #00000046",
  "!$ c #00000047",
  ":g c #0000004A",
  ":a c #33333381",
  ":y c #37373778",
  "kv c #4B4B4BFF",
  ":- c #4C4C4CFF",
  ":+ c #4E4E4EFF",
  "rt c #4F4F4FFF",
  ";] c #505050FF",
  "`w c #515151F1",
  "`U c #515151F2",
  "kx c #525252FF",
  ";D c #535353FF",
  ":e c #545454FF",
  "6[ c #555555FF",
  "`k c #565656F6",
  "6] c #565656FF",
  "`Y c #575757F7",
  ":F c #575757FF",
  "Il c #585858FF",
  ">' c #595959FF",
  ":d c #5A5A5AFF",
  "5| c #5B5B5BFF",
  "5{ c #5C5C5CFF",
  "5[ c #5D5D5DFF",
  "6_ c #60606052",
  ">J c #606060FF",
  "6` c #636363EF",
  "rr c #636363FF",
  ")w c #646464F2",
  ":4 c #646464FF",
  ">L c #666666FF",
  ":; c #686868FF",
  "Nv c #6A6A6AFF",
  ":@ c #6B6B6BFF",
  "t: c #6D6D6DFF",
  "t1 c #6F6F6FFF",
  "6^ c #707070FF",
  ";W c #727272FF",
  ",c c #737373FF",
  ",l c #767676FF",
  ",k c #777777FF",
  "@: c #778195FF",
  "@; c #788399FF",
  "@* c #79859BFF",
  ",h c #7A7A7AFF",
  "@= c #7A869CFF",
  "@# c #7B8497FF",
  "@% c #7B8598FF",
  "@- c #7B879DFF",
  ",z c #7D7D7DFF",
  "@$ c #7D879BFF",
  "mk c #808080FF",
  ";@ c #818181FF",
  "t2 c #838383FF",
  "@@ c #838FA7FF",
  "-^ c #848484FF",
  "@o c #8491A9FF",
  "t< c #858585FF",
  "@O c #8592AAFF",
  "1{ c #868686FF",
  "@+ c #8693ABFF",
  "-O c #888888FF",
  "-Y c #898989FF",
  "+_ c #898A8BFF",
  "@. c #89919FFF",
  "+| c #8A8F9DFF",
  "+} c #8A909FFF",
  "mV c #8B8B8BFF",
  ";* c #8C8C8CFF",
  "+R c #8C96A0FF",
  "9M c #8E8E8EFF",
  "+' c #8E9296FF",
  "+~ c #8E9AA8FF",
  "+T c #8E9BA8FF",
  "-, c #8F8F8FFF",
  "+{ c #8F98AAFF",
  "+^ c #8F9DACFF",
  "2+ c #909090FF",
  ",7 c #929292FF",
  "=L c #939393FF",
  "+] c #949FB9FF",
  "=& c #95959552",
  "+[ c #95A0BAFF",
  "@X c #95A1B9FF",
  "+J c #95ADC6FF",
  ")e c #969696EF",
  "2@ c #969696FF",
  "1@ c #999999F2",
  "2# c #999999FF",
  "+K c #99B6D4FF",
  "+` c #9AA3AEFF",
  "y5 c #9AB6D4FF",
  "+! c #9AB7D7FF",
  "<[ c #9AB8D8FF",
  "+E c #9BB9D9FF",
  ",J c #9C9C9CFF",
  "+N c #9CB9D3FF",
  "+P c #9CBAD2FF",
  "+W c #9DBAD5FF",
  "<y c #9E9E9EFF",
  "+Q c #A0BCD1FF",
  "+D c #A7C0CAFF",
  "+) c #A9B8CCFF",
  "+C c #AAC4C7FF",
  "+/ c #AEC2DAFF",
  "[T c #AFC3DBFF",
  ">F c #B0B0B0FF",
  "+( c #B0C4DCFF",
  ":& c #B1B1B1FF",
  "Hu c #B1C5DDFF",
  "+Y c #B3C9C5FF",
  "6{ c #B5B5B5FF",
  "=p c #B6B6B6FF",
  "@& c #B6B6B7FF",
  "+M c #B6B7B8FF",
  ",S c #B7B7B7FF",
  "+L c #B7B8B9FF",
  "9m c #B8B8B8FF",
  "5X c #B9B9B9FF",
  ",G c #BABABAFF",
  "5> c #BBBBBBFF",
  ",A c #BCBCBCFF",
  "1> c #BDBDBDFF",
  "1% c #BEBEBEFF",
  ";= c #BFBFBFFF",
  ";g c #C0C0C0FF",
  ";U c #C1C1C1FF",
  ";Z c #C2C2C2FF",
  ":* c #C3C3C3FF",
  ":6 c #C4C4C4FF",
  ",1 c #C7C7C7FF",
  ":7 c #C8C8C8FF",
  "+H c #CFDCBDFF",
  "+B c #D4DFBEFF",
  ",m c #DADADAFF",
  ",v c #DBDBDBFF",
  ",_ c #DCDCDCFF",
  "=b c #DDDDDDFF",
  "=[ c #DEDEDEFF",
  "={ c #DFDFDFFF",
  "+I c #DFE9C5FF",
  "&_ c #E0E0E0FF",
  "+Z c #E1E1E1FF",
  "+A c #E2E2E2FF",
  "+S c #E3E3E3FF",
  "&I c #E4E4E4FF",
  ";3 c #E5E5E5FF",
  "+V c #E5ECC8FF",
  ";b c #E6E6E6FF",
  ";G c #E7E7E7FF",
  ":# c #E8E8E8FF",
  ":2 c #E9E9E9FF",
  ",$ c #EAEAEAFF",
  ":, c #EBEBEBFF",
  ":> c #ECECECFF",
  "+U c #ECF1D2FF",
  ";9 c #EDEDEDFF",
  ":< c #EEEEEEFF",
  ";A c #EFEFEFFF",
  ";T c #F0F0F0FF",
  ";` c #F1F1F1FF",
  ";' c #F2F2F2FF",
  ":O c #F3F3F3FF",
  "+F c #F3F5E4FF",
  ":3 c #F4F4F4FF",
  "=a c #F5F5F5FF",
  "@> c #F6F6F6FF",
  "+G c #F6F7F2FF",
  ":9 c #F7F7F7FF",
  ";R c #F8F8F8FF",
  ":v c #F9F9F9FF",
  ":5 c #FAFAFAFF",
  ";Q c #FBFBFBFF",
  ";7 c #FCFCFCFF",
  "=q c #FDFDFDFF",
  "=w c #FEFEFEFF",
  "   c none",
  
  // Image data
  "                                                                ",
  "                                                                ",
  "        =&1@2#,J<y,J2#2@=L-,;*-O-^;@,z,h,l;Wt1:@:;:4)w6_        ",
  "        )e=q=q=w:5=w=q=q=q=q;7;7;7;Q;Q;Q:5:5:5:v:v:v;R6`        ",
  "        =L=q,_=b,m;3={={&_+Z+Z+Z+A+A+A+A+S+S+S+S+S+A;R5[        ",
  "        ,7=w=b=[,m;b&_&_+Z+Z+A+A+S+S+S&I&I&I&I&I&I+S;R5[        ",
  "        2+=w=[={,v;b+Z1>5>5>5>5>,A,A,A,A,A,A,A;=;3&I;R5{        ",
  "        9M=q={={,_;G+A+A+S+S&I&I;3;3;3;b;b;b;b;b;b;3;R5{        ",
  "        mV=q={&_=b:#+A1%,A,A,A,A1>1>1>;g;G;G;G;G;G;b;R5|        ",
  "        -Y=q&_+Z=[:#+S&I;3;3;b;b;G;G;G:#:#:#:#:#:#:#;R:d        ",
  "        1{=q+Z+A=[:2&I6{6{=p=p=p=p=p=p,S,S,S,S,S:2:2;R>'        ",
  "        t2=q+Z>F+Z,$;3+M+N+B+V+C<[<[<[<[<[<[<[,S,$,$;RIl        ",
  "        mk;7+A;b&_,$;b+M+D+F+G+H<[<[<[<[+J+K<[,S:,:,;R:F        ",
  "        ,z;7+S&I+Z,$;b+L+P+I+U+Y<[<[<[y5+T+R+E9m:>:>;R6[        ",
  "        ,h;7+S&I+Z:,;G+L<[+W+Q+!+E+E+E+~+^t<y59m;9;9;R:e        ",
  "        ,k;Q&I;3+Z:>:#+L+/[T[T+(+(+(+)+_+`+'Hu9m:<:<;Rkx        ",
  "        ,c;Q&I;3+Z:>:#+M+]+]+[+[+[+[+{+}+|@.@X5X;A;A;R;]        ",
  "        6^;Q;3;b+A;9:2+M@o@O@O@O@O@+@+@@@#@$@%5X;T;T:9:+        ",
  "        t:;Q;3;b+A;9:2@&@*@=@=@=@-@-@-@-@-@;@:5X;`;T:9:-        ",
  "        Nv:5;b;G+S;9,$,S9m9m9m5X5X5X5X,G,G,G,G,G;';`:9kv        ",
  "        >L:5;b:&;3;9,$:,:>;9:<;A;T;`;':O:O:3:3:O:O;':9kv        ",
  "        rr:5;b,$+S;9:,:*;g;g;U;U;Z;Z:*:*:*:*:*,1:3:O:9kv        ",
  "        >J:v;b;G&I:<:,:>;9:<;A;T;`;':O:3=a@>@>=a=a:3:9kv        ",
  "        5[:v;b:#&I:<:,:*;g;g;U;Z;Z:*:*:*:6:6:6:7=a:3:9kv        ",
  "        >':v;G:#&I:<:,:>;9;A;T;`;':O:3=a@>:9;R:9@>=a:9kv        ",
  "        6];R;G:#&I:<:,:*;g;U;U;Z;Z:*:*,1:9;R;R:9@>=a:9kv        ",
  "        ;D;R;b:#&I:<:,:>;9:<;T;`;':O:3=a@>:9:9@>=a:3:9kv        ",
  "        rt;R;b:#&I:<:,:>;9:<;A;T;':O:3=a=a@>@>@>=a:3:9kv        ",
  "      =2`w:9@>@>:O;R:9:9:9:9:9:9:9:9:9:9:9:9:9:9:9:9:9`U`L$p    ",
  "    =2WK:y`k6]6]6]6]6]6]6]6]6]6]6]6]6]6]6]6]6]6]6]6]`Y:a:s6O*T  ",
  "    *R=@6:=r!$:g:g:g:g:g:g:g:g:g:g:g:g:g:g:g:g:g:g,R=f,EtS,q    ",
  "        $p[i=$+v+v+v+v+v+v+v+v+v+v+v+v+v+v+v+v+v+v@,[i,D+n      "
};
