/* XPM */
const char *xpm_tango_mimetypes_x_office_drawing[] = {
  // Header (width height colors chars-per-pixel)
  "32 32 254 2",
  
  // Colors (code mode value)
  "+n c #00000001",
  "*T c #00000002",
  "*R c #00000006",
  "%C c #00000007",
  ",D c #00000008",
  ",q c #0000000C",
  "=2 c #0000000D",
  "[i c #0000000F",
  "@, c #00000014",
  "=$ c #00000015",
  "+v c #00000016",
  "`L c #00000018",
  "6O c #0000001B",
  "=@ c #0000001D",
  "WK c #00000022",
  "tS c #00000029",
  "6: c #00000030",
  ":s c #00000031",
  ",E c #0000003B",
  "=r c #00000040",
  ",R c #00000042",
  "=f c #00000046",
  "!$ c #00000047",
  ":g c #0000004A",
  "&V c #27313BFF",
  "&m c #2F4052FF",
  "&M c #32424FFF",
  ":a c #33333381",
  "&W c #344565FF",
  "&E c #344666FF",
  ":y c #37373778",
  "&R c #394C70FF",
  "%= c #3A4D71FF",
  "&U c #404E6AFF",
  "&Y c #42516EFF",
  "&T c #43516FFF",
  "&P c #49597AFF",
  "kv c #4B4B4BFF",
  ":- c #4C4C4CFF",
  ":+ c #4E4E4EFF",
  "&Q c #4F4F4FFF",
  ";] c #505050FF",
  "&l c #505844FF",
  "`w c #515151F1",
  "`U c #515151F2",
  "kx c #525252FF",
  "$] c #526489FF",
  ";D c #535353FF",
  "&C c #535558FF",
  ":e c #545454FF",
  "6[ c #555555FF",
  "&H c #555F74FF",
  "`k c #565656F6",
  "6] c #565656FF",
  "&S c #56585AFF",
  "&B c #565C62FF",
  "&J c #565E70FF",
  "`Y c #575757F7",
  ":F c #575757FF",
  "Il c #585858FF",
  "&G c #586379FF",
  "&K c #58647EFF",
  ">' c #595959FF",
  ":d c #5A5A5AFF",
  "&j c #5A944BFF",
  "5| c #5B5B5BFF",
  "5{ c #5C5C5CFF",
  "5[ c #5D5D5DFF",
  "&h c #5D9D5AFF",
  ":0 c #5E5E5EFF",
  "&b c #5E7083FF",
  "6_ c #60606052",
  ">J c #606060FF",
  "&z c #606352FF",
  "&n c #60758CFF",
  "&e c #609D69FF",
  ":u c #616161FF",
  "&k c #619E6BFF",
  "&g c #619F6CFF",
  "6` c #636363EF",
  "rr c #636363FF",
  ")w c #646464F2",
  ":4 c #646464FF",
  ">L c #666666FF",
  "Nt c #666F7AFF",
  "&r c #67A762FF",
  ":; c #686868FF",
  "&F c #687A9FFF",
  "&f c #689E9BFF",
  "&L c #697BA0FF",
  "$I c #697BA1FF",
  "&v c #698AAEFF",
  "Nv c #6A6A6AFF",
  ":@ c #6B6B6BFF",
  "t: c #6D6D6DFF",
  "&D c #6E7B8AFF",
  "t1 c #6F6F6FFF",
  "6^ c #707070FF",
  "&A c #707D8EFF",
  "&N c #719CC9FF",
  "&w c #719EC4FF",
  "&d c #719FCCFF",
  ";W c #727272FF",
  "'~ c #729FCFFF",
  ",c c #737373FF",
  "&c c #749FCDFF",
  "#' c #74A1CCFF",
  "$0 c #75A1CCFF",
  ",l c #767676FF",
  "&u c #769D51FF",
  ",k c #777777FF",
  "&3 c #779D53FF",
  "&t c #77BA67FF",
  "&s c #78A4C9FF",
  ",h c #7A7A7AFF",
  "$= c #7CA6C2FF",
  ",z c #7D7D7DFF",
  "&y c #7DC26CFF",
  "mk c #808080FF",
  "&4 c #80B151FF",
  ";@ c #818181FF",
  "t2 c #838383FF",
  "-^ c #848484FF",
  "&7 c #84BD4DFF",
  "1{ c #868686FF",
  "&6 c #87BF51FF",
  "-O c #888888FF",
  "-Y c #898989FF",
  "mV c #8B8B8BFF",
  ";* c #8C8C8CFF",
  "%F c #8DBA63FF",
  "9M c #8E8E8EFF",
  "&o c #8EBB64FF",
  "&5 c #8EC25AFF",
  "-, c #8F8F8FFF",
  "2+ c #909090FF",
  "H9 c #90AED1FF",
  "&@ c #90BD66FF",
  "A. c #91AED2FF",
  "pO c #91AFD2FF",
  ",7 c #929292FF",
  "&Z c #92AFD2FF",
  "S_ c #92AFD3FF",
  "=L c #939393FF",
  "_] c #93B1D4FF",
  "=& c #95959552",
  ")e c #969696EF",
  "2@ c #969696FF",
  "%J c #98BF73FF",
  "1@ c #999999F2",
  "2# c #999999FF",
  "%U c #99C074FF",
  "%K c #99C670FF",
  "%D c #9AC176FF",
  "%/ c #9AC770FF",
  "%I c #9AC771FF",
  "&; c #9AC86FFF",
  "%Y c #9BC177FF",
  "%G c #9BC277FF",
  ",J c #9C9C9CFF",
  "%~ c #9CC278FF",
  "&% c #9CC378FF",
  "%' c #9CC972FF",
  "&< c #9CCA71FF",
  "<A c #9D9E9CFF",
  "&X c #9DC479FF",
  "&2 c #9E9E9DFF",
  "<y c #9E9E9EFF",
  "&- c #9FC67BFF",
  "&8 c #A0C67CFF",
  "%T c #A0CF72FF",
  "%) c #A1DA69FF",
  "%! c #A2D074FF",
  "%W c #A2DA6AFF",
  "%_ c #A2DB6AFF",
  "%` c #A3DB6BFF",
  "%} c #A3DC6BFF",
  "&+ c #A4DC6CFF",
  "&* c #A4DD6CFF",
  "&& c #A5D775FF",
  "%{ c #A5DC6FFF",
  "&> c #A5DD6DFF",
  "%E c #A6DC71FF",
  "%[ c #A7D778FF",
  "&= c #A7D876FF",
  "%| c #A7DE71FF",
  "%L c #A8D87AFF",
  "&. c #A8D979FF",
  "&: c #ABDF78FF",
  "&, c #ABE078FF",
  "&# c #ACDE7CFF",
  "&O c #ADDD7DFF",
  "&$ c #ADDE7CFF",
  "%( c #AEDF7EFF",
  "(- c #AEE07EFF",
  "%R c #AFDF7FFF",
  "%P c #AFDF81FF",
  "%Q c #AFE080FF",
  "&q c #B0C9A9FF",
  "%S c #BCD1AAFF",
  "&x c #BCD3A6FF",
  "&9 c #BDD4A7FF",
  "%H c #BED3ACFF",
  "%^ c #C3D4B2FF",
  "%] c #C6D7B5FF",
  "&1 c #CADBB9FF",
  "x' c #DBDFD8FF",
  ",_ c #DCDCDCFF",
  "=b c #DDDDDDFF",
  "=[ c #DEDEDEFF",
  "xR c #DEE2DBFF",
  "={ c #DFDFDFFF",
  "&_ c #E0E0E0FF",
  "TI c #E0E1DFFF",
  "+Z c #E1E1E1FF",
  "+A c #E2E2E2FF",
  "+S c #E3E3E3FF",
  "5r c #E3E4E2FF",
  "rt c #E4E4E3FF",
  "&I c #E4E4E4FF",
  ";3 c #E5E5E5FF",
  ";b c #E6E6E6FF",
  ";G c #E7E7E7FF",
  "&i c #E7EBE4FF",
  "6$ c #E8E8E7FF",
  ":# c #E8E8E8FF",
  ":2 c #E9E9E9FF",
  "&a c #E9F3BFFF",
  ",$ c #EAEAEAFF",
  "&0 c #EAF2C2FF",
  ":, c #EBEBEBFF",
  ":> c #ECECECFF",
  ";9 c #EDEDEDFF",
  ":< c #EEEEEEFF",
  "lt c #EFEFEEFF",
  ";A c #EFEFEFFF",
  ";T c #F0F0F0FF",
  ";` c #F1F1F1FF",
  ";' c #F2F2F2FF",
  ":O c #F3F3F3FF",
  "&p c #F3F8D3FF",
  ":3 c #F4F4F4FF",
  "=a c #F5F5F5FF",
  "@> c #F6F6F6FF",
  ":9 c #F7F7F7FF",
  ";R c #F8F8F8FF",
  ":v c #F9F9F9FF",
  ":5 c #FAFAFAFF",
  ";Q c #FBFBFBFF",
  ";7 c #FCFCFCFF",
  "=q c #FDFDFDFF",
  "=w c #FEFEFEFF",
  "1U c #FFFFFFFF",
  "   c none",
  
  // Image data
  "                                                                ",
  "                                                                ",
  "        =&1@2#,J<y,J2#2@=L-,;*-O-^;@,z,h,l;Wt1:@:;:4)w6_        ",
  "        )e=q=q=w=w=w=q=q=q=q;7;7;7;Q;Q;Q:5:5:5:v:v:v;R6`        ",
  "        =L=q,_=b=[=[={={&_+Z+Z+Z+A+A+A+A+S+S+S+S+S+A;R5[        ",
  "        ,7=w=b=[=[>':d&_+Z+Z+A+A+S5|+S&I&I&I&I5|5|+S;R5[        ",
  "        2+=w=[={={:d:d+Z+A+A+S+S&I&I&I;3;3;3;35{5{&I;R5{        ",
  "        9M=q={={&_+Z+A+A+STI%S%D%F%F%G%H5r;b;b;b;b;3;R5{        ",
  "        mV=q={&_+Z+A+A+Sx'%J%K%L%P%P%L%I%UxR;G;G;G;b;R5|        ",
  "        -Y=q&_+Z+A+A+Srt%Y%T%R%E%W%W%E%Q%!%~6$:#:#:#;R:d        ",
  "        1{=q+Z+A+A+S&I%^%/%(%W%)%_%_%_%`(-%'%]:2:2:2;R>'        ",
  "        t2=q+Z+A+S&I;3%G%[%{%_%_%_%_%_%}%|&.&X,$,$,$;RIl        ",
  "        mk;7+A+S&I5{;b&o&O%`%_%_%}%}%}%}&+%(&@:,:0:,;R:F        ",
  "        ,z;7+S&I;3;3;b&o&#%`%_%}%}%}%}%}&+&$&@:>:>:>;R6[        ",
  "        ,h;7+S&I;3;b;G&%&&%{%}%}%}%}%}&*%|&=&-;9;9;9;R:e        ",
  "        ,k;Q&I;3;b;G:#%]&;&:&+%}%}&*&*&>&,&<&1:<:<:<;Rkx        ",
  "        ,c;Q&I<y<y<y<y&2&3&4&5&6&7&7&6&5&4&8lt;A;A;A;R;]        ",
  "        6^;Q;3<y#'&9&0&q&w&e&r&t&y&y&t&r&u&i;T;T;T;T:9:+        ",
  "        t:;Q;3<y$=&p1U&a&s&d&f&g&h&j&k&f<A;`;`;`;`;T:9:-        ",
  "        Nv:5;b<y$0&l&z&x&c'~'~'~&v&b&n'~<y;':O:u:u;`:9kv        ",
  "        >L:5;b<y'~&m&M#''~'~'~&N&B&V&C'~<y:3:3:u:u;':9kv        ",
  "        rr:5;b<yH9A.pO&Z&ZS_S_&A&S&DNt_]<y=a=a:3:3:O:9kv        ",
  "        >J:v;b<y$I$I$I$I$I$I&F&G&H&J&K&L<y@>@>=a=a:3:9kv        ",
  "        5[:v;b<y$]$]$]$]$]$]$]$]&P&U&Y&T<y:9:9@>=a:3:9kv        ",
  "        >':v;G<y%=%=%=%=%=%=%=%=%=&R&E&W<y:9;R:9@>=a:9kv        ",
  "        6];R;G<y<y<y<y<y<y<y<y<y<y<y<y<y<y;R;R:9@>=a:9kv        ",
  "        ;D;R;b:#:2,$:,:>;9:<;T;`;':O:3=a@>:9:9@>=a:3:9kv        ",
  "        &Q;R;b:#:2,$:,:>;9:<;A;T;':O:3=a=a@>@>@>=a:3:9kv        ",
  "      =2`w:9@>@>@>:9:9:9:9:9:9:9:9:9:9:9:9:9:9:9:9:9:9`U`L%C    ",
  "    =2WK:y`k6]6]6]6]6]6]6]6]6]6]6]6]6]6]6]6]6]6]6]6]`Y:a:s6O*T  ",
  "    *R=@6:=r!$:g:g:g:g:g:g:g:g:g:g:g:g:g:g:g:g:g:g,R=f,EtS,q    ",
  "        %C[i=$+v+v+v+v+v+v+v+v+v+v+v+v+v+v+v+v+v+v@,[i,D+n      "
};
