/* XPM */
const char *xpm_tango_mimetypes_x_office_calendar[] = {
  // Header (width height colors chars-per-pixel)
  "32 32 282 2",
  
  // Colors (code mode value)
  "+n c #00000001",
  "*T c #00000002",
  "*_ c #00000003",
  "$p c #00000007",
  "+> c #0000000B",
  "&Z c #00000011",
  "$w c #00000013",
  "@o c #00000014",
  "[~ c #00000017",
  "$^ c #00000019",
  "$z c #0000001A",
  "+g c #00000021",
  "=e c #00000023",
  "1l c #00000024",
  ":W c #00000025",
  "=& c #00000034",
  "=l c #00000035",
  "B% c #0000003D",
  "68 c #0000003E",
  "=r c #00000040",
  "[G c #00000044",
  "|j c #0D11113D",
  "|h c #1116163B",
  "I< c #2D3335FF",
  "|y c #2E3436FE",
  "l* c #2E3436FF",
  "|g c #2F3537F7",
  "lS c #2F3537FF",
  "}L c #353B3DFF",
  "}E c #383E40FF",
  "}S c #393F40FF",
  "}I c #3F4547FF",
  "}( c #414648FF",
  "z[ c #454545FF",
  "}Q c #464B4DFF",
  "ry c #4A4A4AFF",
  "|e c #4A4D4EFB",
  "|t c #4A4D4EFC",
  "|f c #4D504CFF",
  "}U c #4D5254FF",
  "|r c #4F504EFF",
  "IM c #4F524EFF",
  "|d c #50534FFF",
  "|s c #505350FF",
  "LO c #535452FF",
  "|a c #535552FF",
  "PR c #535759FF",
  "}C c #54585AFF",
  "|p c #555854FF",
  "|i c #565955FF",
  "}} c #565A5CFF",
  "}A c #565B5CFF",
  "Il c #585858FF",
  "PL c #585B57FF",
  "zC c #595D5FFF",
  ":i c #5A5D59FF",
  "/8 c #5B5E5AFF",
  "w1 c #5D5D5D81",
  "}- c #606060DD",
  "X- c #606060FE",
  ":u c #616161FF",
  "|u c #616460FF",
  "}J c #636769FF",
  ":4 c #646464FF",
  "|w c #65656562",
  "6( c #656565FF",
  "}W c #65696AFF",
  "}o c #6666668F",
  "}2 c #666666FE",
  "}4 c #67676795",
  ":; c #686868FF",
  "+m c #6B6B6BE8",
  "}0 c #6D6E6CFE",
  "}Z c #6E7273FF",
  ".U c #717576FF",
  "}g c #747473FF",
  "|& c #75797AFF",
  "}f c #777776FF",
  "}[ c #797C7EFF",
  "|= c #797D7EFF",
  ",h c #7A7A7AFF",
  "}w c #7B7E7AFD",
  "=, c #7F7F7FFF",
  "@R c #80808002",
  "<4 c #80808004",
  "`u c #80808016",
  "$D c #80847EFF",
  "|X c #808F8010",
  ";@ c #818181FF",
  "x; c #818485FF",
  "|0 c #828681FF",
  "}V c #838687FF",
  "}c c #838A8323",
  "}; c #848482B8",
  "}& c #848482DD",
  "}d c #848584FF",
  "|- c #858889FF",
  "}{ c #85898380",
  "|q c #858983FF",
  "}9 c #858984FD",
  "}N c #85898545",
  "|< c #8589857B",
  "}T c #858C8549",
  "}e c #868784FD",
  "}~ c #8689845D",
  "eR c #868A84FF",
  "}G c #868B8237",
  "}F c #868B8367",
  "}` c #868B846E",
  "'. c #868D8626",
  "}q c #878B85FC",
  "e! c #878B85FF",
  "|$ c #878D8231",
  "R6 c #888B8558",
  "}6 c #898D86CD",
  "}r c #898D87F6",
  "e/ c #898D87FF",
  "}Y c #898E878C",
  "}j c #898E87F5",
  "'c c #8A8D88FF",
  "|o c #8A8E8999",
  "}t c #8B8E88A5",
  "}| c #8B8E8FFF",
  "}h c #8B8F89EB",
  "|7 c #8B8F89F3",
  "|, c #8B8F89FF",
  "}v c #8C8C8014",
  "|4 c #8C8F89E6",
  "}a c #8C8F8AE9",
  "}l c #8C908AFC",
  "eE c #8C908AFF",
  "|9 c #8C908BE7",
  "}y c #8D908ADD",
  "|3 c #8D908C9F",
  "}_ c #8D908CDB",
  "|1 c #8D918CD7",
  "|% c #8E918BB0",
  "}! c #8E918BB7",
  "}p c #8E918BCF",
  "ZW c #8E918CC5",
  "}z c #8E918CFE",
  "|> c #8F938EFF",
  "|6 c #90948EC8",
  "|8 c #90948FFF",
  "pb c #919191FF",
  "R' c #91948FFF",
  "|; c #919495FF",
  "|2 c #91958FFF",
  "|: c #929691FD",
  "|. c #939791F9",
  "E, c #939791FF",
  "}) c #949697FF",
  "|5 c #959994FF",
  "}i c #969895FF",
  ",F c #979797FF",
  "}K c #979A9BFF",
  "{_ c #989996C8",
  "}# c #989996DE",
  "{` c #989997D7",
  "{( c #989A97BA",
  "rZ c #99999905",
  "}b c #9A9E99F7",
  "]o c #9B9D9AFF",
  "2$ c #9D9D9DFF",
  "{/ c #9E9E9215",
  "{| c #9FA09F8F",
  "}O c #9FA19EFA",
  "}1 c #9FA39F95",
  "5, c #A0A0A0FF",
  ".x c #A0A2A0FF",
  "}X c #A2A4A1FF",
  "}x c #A3A5A1F5",
  "}, c #A5A7A4FD",
  "'~ c #A6A8A5FF",
  "|* c #A6A8A9FF",
  "{[ c #A7A7A69A",
  "}8 c #A7AAA6FC",
  "}B c #A8AAA5F5",
  ")& c #A8AAA7FF",
  "|# c #A9ACA8F4",
  "cW c #AAAAAA03",
  "<v c #ADADADFF",
  "}= c #B0B2AEFF",
  "}* c #B0B3AEF0",
  "{{ c #B1B2AFFE",
  "}. c #B1B2B0F3",
  "<+ c #B1B2B0FF",
  "## c #B2B3B4FF",
  "}$ c #B2B5B1B7",
  "}@ c #B3B3B19A",
  "{) c #B3B5B1C2",
  "}> c #B3B5B1DE",
  "}7 c #B3B5B1FF",
  "{] c #B4B6B2BA",
  "}H c #B4B6B4F4",
  "$m c #B6B8B4FF",
  ",; c #B9B9B916",
  "0L c #B9BBB7FF",
  "}M c #BABCBAF4",
  "}% c #BCBFBBB8",
  "{' c #BCBFBBC2",
  "1> c #BDBDBDFF",
  "hn c #BDBEBCFF",
  "}P c #BDBEBFFF",
  "}: c #BEBFBBB7",
  "32 c #BEBFBDFF",
  "F: c #BEBFBFFF",
  "hv c #BEC0BCFF",
  "h4 c #BFBFBF04",
  "}3 c #C0C2BEF0",
  "r0 c #C0C2BEFF",
  "}R c #C0C2C0F5",
  "}< c #C0C3BE95",
  "}5 c #C0C3BEFD",
  "{} c #C1C3BFFA",
  ";Z c #C2C2C2FF",
  "}m c #C5C6C6FF",
  "}u c #C6C9C4FF",
  "}n c #C7C8C8FF",
  "|O c #C8CACAFF",
  ">x c #C9C9C9FF",
  "}/ c #C9CACAFF",
  "}+ c #C9CBC7FE",
  ",< c #CACACAFF",
  "3; c #CBCBCAFF",
  "+a c #CBCBCBFF",
  "}] c #CBCCCCFF",
  "}^ c #CDCECCF8",
  "|+ c #CDCECEFF",
  "}D c #CECFCEFA",
  "fJ c #CECFCEFF",
  "}s c #CFD1CFFF",
  "+v c #D0D0D0FF",
  "|@ c #D0D1D1FF",
  "+b c #D1D1D1FF",
  "g> c #D2D2D1FF",
  ",n c #D4D4D4FF",
  ",N c #D6D6D6FF",
  "}' c #D6D7D5FB",
  ",b c #D9D9D9FF",
  ",m c #DADADAFF",
  ",v c #DBDBDBFF",
  "=b c #DDDDDDFF",
  "=[ c #DEDEDEFF",
  "={ c #DFDFDFFF",
  "w/ c #DFE0DEFF",
  "6j c #E0E0DFFF",
  "&_ c #E0E0E0FF",
  "+A c #E2E2E2FF",
  "+S c #E3E3E3FF",
  "&I c #E4E4E4FF",
  ";b c #E6E6E6FF",
  "&. c #E7E7E6FF",
  ";G c #E7E7E7FF",
  ":# c #E8E8E8FF",
  ":2 c #E9E9E9FF",
  ",$ c #EAEAEAFF",
  ":, c #EBEBEBFF",
  ":> c #ECECECFF",
  ";9 c #EDEDEDFF",
  ";t c #EDEEEDFF",
  ":< c #EEEEEEFF",
  ";A c #EFEFEFFF",
  ";T c #F0F0F0FF",
  ";` c #F1F1F1FF",
  ";' c #F2F2F2FF",
  ":O c #F3F3F3FF",
  "hE c #F4F4F3FF",
  ":3 c #F4F4F4FF",
  "=a c #F5F5F5FF",
  "+W c #F6F6F6FF",
  ":9 c #F7F7F7FF",
  ";R c #F8F8F8FF",
  ":5 c #FAFAFAFF",
  ";Q c #FBFBFBFF",
  ";7 c #FCFCFCFF",
  "=q c #FDFDFDFF",
  "=w c #FEFEFEFF",
  "}k c #FEFFFEFF",
  "3N c #FFFFFF01",
  "1U c #FFFFFFFF",
  "   c none",
  
  // Image data
  "                            3N@R                                ",
  "          {/{({),;          {_{`          `u{'{]{/              ",
  "          {[{{{}{|          }.}X          }o}O}+}@              ",
  "          }#}$}%}&          }*}=          }-};}:}>              ",
  "        <4},}<}1}2+n        }3r0        +nX-}4}1}5h4            ",
  "      }6eR}7}8}9}0}q}q}q}q}q$m0L}q}q}q}q}q}0}w}ehv}reR}t        ",
  "      }y;7}u32+S;Q=q=q=q=q=q]o}i;b=q=q=q=q=q=qpb)&1U:9}p        ",
  "      }a=q}s}d5,=b:#:#:#:#;G}f}g1>=[:#:#:#:#+b:4,F,$;7}h        ",
  "      }j}kg>6(:u,m;b;b;b;b=[ryz[<v,v;b;b;b;b=,Il2$;b=w}lrZ      ",
  "    cW}z=w;b;Z+v&I;b;b;b;b;b,N,b+b&I;b;b;b;b&_,<;b;b;Q}x}c      ",
  "    }v}b;7;b:2;b;b;b;b;b,v}n&I={&I;b,n}m&_;b;b:,;b;b;R}M}N      ",
  "    '.}B:5;b;b;b;b;b}V}ClS}Z;b;b;b}AI<I<}S##;b;b;b;b=a}D}F      ",
  "    }G}H;R;b;b;b;b;b}J}K}L}Z;b;b;b.UF:}P}I}U;b;b;b;b;`6j}Y      ",
  "    }T}R+W;b;b;b;b;b;b;b}E}Z;b;b;b;b;b;b}W}Q;b;b;b;b:<;t}!      ",
  "    }~}^:3;b;b;b;b;b;b;b}E}Z;b;b;b;b;b}/}(});b;b;b;G;9:9}_      ",
  "    }`}':O;b;b;b;b;b;b;b}E}Z;b;b;b;b}]PR}[+A;G:2,$:>;A=w}j      ",
  "    }{w/;`;b;b;b;b;b;b;b}E}Z;b;b;b}m}}}|;b:,:>:<;T;':3=w|.|X    ",
  "    |o&.;A;b;b;b;b;b;b;b}E}Z;b;b}nzCx;|O|+|@;':3+W;R:5=w|#|$    ",
  "    |%:<;9;b;b;b;b;b;b;b}E|&:2:,|*}J}Z|=|-|;;R:5;7=w1U;Q|:R6    ",
  "    ZWhE:,;b;b;b;b;b;G:2:,;9;A;`;':3+W;R:5;7=weRe!eE|>e/|,|<    ",
  "    |1;R,$;b;b;G:2:,;9;A;`:O:3+W;R:5;7=w1U1U1U|2+a+vfJ<+E,|3    ",
  "    |4;7:2:2:,;9;A;`:O=a+W;R:5;7=w1U1U1U1U1U1U|53;>x.x'chn|6    ",
  "    |71U1U1U1U1U1U1U1U1U1U1U1U1U1U1U1U1U1U1U1U|8'~R'|>hn,<|9    ",
  "    eReReReReReReReReReReReReReReReReReReReReRe!e!|0$D$D$D|qcW  ",
  "      +m,hpbpbpbpbpbpbpbpbpbpbpbpbpbpbpbpbpbpbpbpbpbpb;@:;      ",
  "      |w|eLO|r|r|r|r|r|r|r|r|r|r|r|r|r|r|r|r|r|r|r|r|r|tw1*T    ",
  "      @o|y|u/8:iPLPLPLPL|i|p|p|p|p|a|a|a|a|s|d|d|dIM|f|g|h$w    ",
  "    *T$^l*l*l*l*l*l*l*l*l*l*l*l*l*l*l*l*l*l*l*l*l*l*l*l*|j[~    ",
  "      &Z1l=l68[G[G[G[G[G[G[G[G[G[G[G[G[G[G[G[G[G[GB%=r=&=e$p    ",
  "        +>$z+g:W:W:W:W:W:W:W:W:W:W:W:W:W:W:W:W:W:W+g+g$w*_      ",
  "            +n+n+n+n+n+n+n+n+n+n+n+n+n+n+n+n+n+n+n              ",
  "                                                                "
};
