/* XPM */
const char *xpm_tango_mimetypes_x_office_spreadsheet_template[] = {
  // Header (width height colors chars-per-pixel)
  "32 32 708 2",
  
  // Colors (code mode value)
  "+n c #00000001",
  "*T c #00000002",
  "*_ c #00000003",
  "*` c #00000004",
  "*R c #00000006",
  "%C c #00000007",
  ",D c #00000008",
  "5X c #00000009",
  "%V c #0000000A",
  "+m c #0000000B",
  ",q c #0000000C",
  "=2 c #0000000D",
  "=# c #0000000E",
  "%A c #00000010",
  "&Z c #00000011",
  "+b c #00000012",
  "%Z c #00000013",
  "@, c #00000014",
  "=$ c #00000015",
  "+v c #00000016",
  "[~ c #00000017",
  "`I c #0000001C",
  "9b c #0000001E",
  "WK c #00000022",
  "=e c #00000023",
  "+J c #00000027",
  "rn c #0000002A",
  "=s c #0000002B",
  "a( c #0000002D",
  "&R c #0000002F",
  "6: c #00000030",
  "5. c #00000034",
  "tD c #00000038",
  "*/ c #0000003C",
  "9] c #0000003F",
  "=r c #00000040",
  "=j c #00000043",
  "=f c #00000046",
  "!$ c #00000047",
  ":g c #0000004A",
  "4| c #28282807",
  "4n c #375C9326",
  "4Y c #38383877",
  "4i c #3B5E920B",
  "3R c #3D6EAE0C",
  "3} c #4071B018",
  "3| c #4372AE0C",
  "3Y c #4475B419",
  "4> c #4777B425",
  "3{ c #4778B726",
  "4} c #49414117",
  "4: c #497AB933",
  "3U c #4B7CBA25",
  "4^ c #4D45459A",
  "3[ c #4D7EBD33",
  "&Q c #4F4F4FFF",
  "2w c #5050500B",
  "4~ c #515151A6",
  "`w c #515151F1",
  "3I c #5182C132",
  "4{ c #52282826",
  "2* c #5252520C",
  "4/ c #5329298D",
  ";D c #535353FF",
  "4m c #544D7519",
  "1` c #5454540C",
  "<* c #5555550C",
  "3] c #5585C03F",
  "4U c #5618180C",
  "4! c #565656B3",
  "4Q c #565656C1",
  "4W c #565656CE",
  "4R c #565656DA",
  "4T c #565656E7",
  "~r c #565656F4",
  "`k c #565656F6",
  "6] c #565656FF",
  "1C c #5757570B",
  "2c c #582C2C0B",
  "1h c #5858580C",
  "4, c #5882B918",
  "3P c #5889C740",
  "4[ c #59151533",
  "1r c #5959590C",
  ">' c #595959FF",
  "11 c #5A5A5A0B",
  "4( c #5B171780",
  "1* c #5B5B5B0C",
  "<Y c #5C5C5C0B",
  "<_ c #5C5C5C0C",
  "<3 c #5D5D5D0B",
  "<B c #5D5D5D0C",
  "5[ c #5D5D5DFF",
  "<s c #60606004",
  ">J c #606060FF",
  "3B c #6063960C",
  "4] c #610A0A3F",
  "4) c #610A0A73",
  "<d c #6363630B",
  "rr c #636363FF",
  "<a c #64646418",
  "<p c #64646426",
  "4' c #6504044D",
  "4_ c #65040466",
  ">L c #666666FF",
  "4` c #6700005A",
  "3C c #670000CE",
  "3a c #670101CE",
  "3N c #67699B19",
  "<i c #68686833",
  "3E c #690D0DCE",
  "4I c #6A050519",
  "4A c #6A05059A",
  "Nv c #6A6A6AFF",
  "4B c #6B18230C",
  "<u c #6B6B6B40",
  "3M c #6B6FA126",
  "4P c #6C141B26",
  "43 c #6D0E0EC1",
  "t: c #6D6D6DFF",
  "32 c #6E1515CD",
  "4v c #6E675B32",
  "4J c #6E8F234D",
  "<t c #6F6F6F4D",
  "4L c #703C3133",
  "4u c #70698D19",
  "6^ c #707070FF",
  "4H c #70902459",
  "4d c #711515B4",
  "<r c #72727259",
  "3m c #7275A732",
  "4G c #72872367",
  "2| c #733D3DCE",
  ",c c #737373FF",
  "4K c #737C1F3F",
  "4r c #7494BB33",
  "<e c #76767666",
  "4S c #770A0A8D",
  "4. c #773939CE",
  "42 c #776C6CCE",
  ",k c #777777FF",
  "3v c #777BAD40",
  "3c c #777CAE4D",
  "25 c #78252567",
  "<h c #787878CD",
  ";v c #787878FF",
  "4< c #797FA60C",
  "4X c #7A0909C1",
  "2a c #7A1B1B9A",
  "<w c #7A7A7A73",
  "<z c #7A7A7A9A",
  ",h c #7A7A7AFF",
  "4f c #7B0C0CA7",
  "2N c #7B2828B4",
  "<b c #7B7B7B66",
  "=1 c #7B7B7BFF",
  ">_ c #7C7C7CFF",
  "<N c #7D7D7D33",
  "<q c #7D7D7D80",
  "1. c #7D7D7D9A",
  "<[ c #7D7D7DCE",
  ",z c #7D7D7DFF",
  "2x c #7E1D1D18",
  "2R c #7E2626C1",
  "27 c #7E2B2B4C",
  "1& c #7E7E7E32",
  "1+ c #7E7E7E66",
  "b) c #7E7E7ECD",
  "=< c #7E7E7EFF",
  "2: c #7F7F7FCD",
  "1Y c #7F7F7FCE",
  "26 c #80272759",
  "2m c #808080CE",
  "mk c #808080FF",
  "<0 c #8181818D",
  "t2 c #838383FF",
  "28 c #843D3D40",
  "24 c #843D3D73",
  "<9 c #8484849A",
  "4- c #848A6640",
  "4y c #848EB426",
  "29 c #86525232",
  "1{ c #868686FF",
  "4c c #869F3340",
  "44 c #881111B4",
  "<8 c #888888A7",
  "-Y c #898989FF",
  "3L c #8A939F4C",
  "mV c #8B8B8BFF",
  "4w c #8BD93C4C",
  "<7 c #8C8C8CB4",
  "-i c #8D8D8DFF",
  "4D c #8E141480",
  "<f c #8E8E8EF5",
  "9M c #8E8E8EFF",
  "<j c #8F8F8FC0",
  "[< c #8F8F8FC1",
  "<g c #8F8F8FDB",
  "hF c #8F8F8FE8",
  "4= c #8FDC434C",
  "<l c #909090A7",
  "<k c #909090B3",
  "2+ c #909090FF",
  "4e c #90C93A3F",
  "4F c #91331C74",
  "4Z c #915454A7",
  "<M c #9191913F",
  "<m c #9191914D",
  "<n c #91919159",
  "<v c #91919173",
  "<c c #91919180",
  "<x c #9191918D",
  "pb c #919191FF",
  "4x c #91A73C4C",
  "4q c #91DC4759",
  "<' c #929292E8",
  "<` c #929292F5",
  ",7 c #929292FF",
  "<6 c #939393CE",
  "<] c #939393DB",
  "12 c #939393F4",
  "=L c #939393FF",
  "4l c #93A64066",
  "23 c #94606080",
  "1o c #94949480",
  "1X c #9494948D",
  "<| c #949494A6",
  "<} c #949494B4",
  "<{ c #949494C1",
  "14 c #949494DA",
  "1l c #949494DB",
  "1k c #949494E7",
  "13 c #949494E8",
  "1j c #949494F4",
  "=v c #949494FF",
  "1% c #9595953F",
  "1$ c #9595954D",
  "=& c #95959552",
  "1# c #9595955A",
  "1O c #95959573",
  "1I c #959595E8",
  "2= c #959595F4",
  "2v c #959595FF",
  "<A c #969696CD",
  "1U c #969696DA",
  "<5 c #969696DB",
  "2- c #969696E8",
  ")e c #969696EF",
  "2b c #969696F5",
  "2@ c #969696FF",
  "4z c #96A84059",
  "1u c #979797CD",
  "<E c #979797CE",
  "2; c #979797DA",
  "2n c #979797E7",
  "2{ c #979797E8",
  "3i c #979797F4",
  "2[ c #979797F5",
  ",F c #979797FF",
  "2T c #989292CD",
  "<G c #9898989A",
  "2} c #989898DA",
  "3p c #989898E7",
  "41 c #989898E8",
  "2P c #989898FF",
  "<U c #99999932",
  "<L c #99999966",
  "<( c #99999967",
  "<~ c #9999999A",
  "1S c #999999CE",
  "<4 c #999999E7",
  "1@ c #999999F2",
  "2# c #999999FF",
  "4& c #99E05359",
  "2y c #9A9A9ACE",
  "K& c #9C9C9CF4",
  ",J c #9C9C9CFF",
  "<y c #9E9E9EFF",
  "16 c #A0A0A09A",
  "2L c #A11F1F0B",
  "1e c #A1A1A132",
  "10 c #A1A1A166",
  "40 c #A1D65666",
  "4g c #A21D1D9A",
  "2z c #A2252525",
  "1c c #A2A2A29A",
  "3W c #A32424C0",
  "21 c #A3A2A29A",
  "1V c #A3A3A332",
  "1m c #A3A3A367",
  "1W c #A3A3A39A",
  "1_ c #A4A4A433",
  "1^ c #A4A4A467",
  "2s c #A62F2F8D",
  "3. c #A63737C1",
  "22 c #AB91918D",
  "3` c #ABC35F4D",
  "2B c #AC3434A7",
  "4h c #AD1B1B8D",
  "3_ c #ADE77359",
  "45 c #B02323A7",
  "1= c #B0B0B0F5",
  ">F c #B0B0B0FF",
  "2p c #B18585A7",
  "<Z c #B1B1B1DA",
  "<C c #B1B1B1E7",
  "1- c #B1B1B1E8",
  "<V c #B1B1B1F4",
  ":& c #B1B1B1FF",
  "4k c #B24F3374",
  "<S c #B2B2B2C0",
  "<R c #B2B2B2DA",
  "1; c #B2B2B2DB",
  "<T c #B2B2B2E7",
  "oD c #B2B2B2F4",
  "<F c #B3B3B3A6",
  "<D c #B3B3B3B4",
  "<W c #B3B3B3C0",
  "1y c #B3B3B3DA",
  "1t c #B3B3B3E7",
  "1Z c #B3B3B3E8",
  "l~ c #B3B3B3F4",
  "Q> c #B3B3B3FF",
  "<J c #B4B4B481",
  "<H c #B4B4B48D",
  "<! c #B4B4B4A7",
  "<Q c #B4B4B4B4",
  "1A c #B4B4B4DB",
  "1' c #B4B4B4F4",
  ";8 c #B4B4B4FF",
  "<) c #B5B5B53F",
  "=^ c #B5B5B540",
  "<I c #B5B5B54D",
  "<P c #B5B5B559",
  "<K c #B5B5B573",
  "</ c #B5B5B580",
  "<^ c #B5B5B58D",
  "1] c #B5B5B5E8",
  "2e c #B5B5B5F4",
  "6{ c #B5B5B5FF",
  "4j c #B6272780",
  "X% c #B6B6B6DA",
  "2t c #B6B6B6DB",
  "2U c #B6B6B6E7",
  "2r c #B6B6B6E8",
  "2I c #B6B6B6F5",
  "=p c #B6B6B6FF",
  "2M c #B7ABABC1",
  "2Y c #B7B7B7DA",
  "3> c #B7B7B7E7",
  "3V c #B7B7B7E8",
  "oQ c #B8B8B8DA",
  "3< c #B8B8B8DB",
  "4% c #BA9F4E66",
  "4o c #BB3232B3",
  ".G c #BDBDBDA6",
  ".F c #BDBDBDB4",
  "15 c #BDBDBDC0",
  "4s c #BEAAAAC0",
  "18 c #BEBEBE80",
  "17 c #BEBEBE8D",
  ";H c #BEBEBEB4",
  "1z c #BEBEBEC1",
  "1w c #BFBFBF3F",
  ";y c #BFBFBF4C",
  "1q c #BFBFBF59",
  "19 c #BFBFBF73",
  "1x c #BFBFBFA7",
  "1T c #BFBFBFC1",
  "1b c #C0C0C081",
  "1v c #C0C0C08D",
  "1: c #C0C0C09A",
  "1R c #C0C0C0B4",
  "1< c #C1C1C132",
  "1B c #C1C1C13F",
  "1N c #C1C1C14C",
  "1M c #C1C1C15A",
  "1> c #C1C1C166",
  "1n c #C1C1C173",
  "1! c #C1C1C180",
  "1Q c #C1C1C18D",
  "1E c #C1C1C1A7",
  "2, c #C1C1C1B4",
  "2> c #C1C1C1C1",
  "1) c #C2C2C23F",
  "1( c #C2C2C24D",
  "1/ c #C2C2C259",
  "1~ c #C2C2C273",
  "1a c #C2C2C29A",
  "2< c #C2C2C2A6",
  "1g c #C3C3C332",
  "Oe c #C3C3C366",
  "04 c #C4A000FF",
  "1P c #C4C4C433",
  "1H c #C4C4C467",
  "1G c #C4C4C49A",
  "3K c #C5E18C5A",
  "2& c #C6C6C632",
  "2O c #C6C6C666",
  "46 c #CA45459A",
  "2E c #CB5050B4",
  "+* c #CBA80AFF",
  "20 c #CCB2B225",
  "2l c #CD434332",
  "3x c #CD847859",
  "+y c #CEAD1DFF",
  "O1 c #CFAD0EFF",
  "+& c #CFAF21FF",
  "O' c #D0B125FF",
  "ON c #D1B329FF",
  "X| c #D2B113FF",
  "O< c #D2B42DFF",
  "2d c #D3505081",
  "oY c #D3B630FF",
  "or c #D4B734FF",
  ".W c #D5B517FF",
  "|V c #D5B518FF",
  "X} c #D5B837FF",
  "XB c #D5B93AFF",
  "X5 c #D5BA3DFF",
  "4C c #D5CDCDB4",
  ".E c #D6BB40FF",
  ".i c #D6BB42FF",
  "|B c #D6BB44FF",
  "+i c #D7B81BFF",
  "3Z c #D86262C1",
  "3) c #D86B4D66",
  "+u c #D8B91CFF",
  "+> c #D9BA1EFF",
  "+: c #D9BB1EFF",
  "6L c #DBBD20FF",
  "6g c #DCBF23FF",
  ",_ c #DCDCDCFF",
  "6f c #DDC023FF",
  "=b c #DDDDDDFF",
  "6< c #DEC125FF",
  "@< c #DEDEDEF5",
  "=[ c #DEDEDEFF",
  "33 c #DF6D6DC1",
  "O] c #DFC226FF",
  "@2 c #DFDFDFDA",
  "@1 c #DFDFDFE8",
  "={ c #DFDFDFFF",
  "OI c #E0C428FF",
  "@3 c #E0E0E0CE",
  "*( c #E0E0E0FF",
  "3u c #E12E2E0C",
  "OP c #E1C429FF",
  "+c c #E1CA58FF",
  "@6 c #E1E1E1A7",
  "@5 c #E1E1E1B4",
  "@4 c #E1E1E1C1",
  "+Z c #E1E1E1FF",
  "49 c #E24F4B73",
  "47 c #E266668D",
  "5F c #E2C62AFF",
  "OB c #E2C72BFF",
  "+x c #E2CB5AFF",
  "+z c #E2CB5BFF",
  "+p c #E2CD5FFF",
  "., c #E2E2E226",
  "@9 c #E2E2E273",
  "@8 c #E2E2E280",
  "@7 c #E2E2E28D",
  "|( c #E2E2E29A",
  "|~ c #E2E2E2C1",
  "+A c #E2E2E2FF",
  "3y c #E3333319",
  "4$ c #E3333373",
  "@s c #E3E3E326",
  "@0 c #E3E3E332",
  ".: c #E3E3E33F",
  ".; c #E3E3E34D",
  "|] c #E3E3E35A",
  "|' c #E3E3E366",
  ".# c #E3E3E3A7",
  "@h c #E3E3E3B4",
  "+S c #E3E3E3FF",
  "5h c #E4C82DFF",
  "Op c #E4C92EFF",
  ".M c #E4E4E425",
  ".& c #E4E4E480",
  ".% c #E4E4E48D",
  "1i c #E4E4E4C1",
  "&I c #E4E4E4FF",
  "3: c #E537370B",
  "3t c #E5383826",
  "4# c #E5383880",
  "O2 c #E5CB2FFF",
  "+, c #E5D067FF",
  ".R c #E5E5E525",
  "1, c #E5E5E540",
  ".b c #E5E5E54D",
  "@x c #E5E5E559",
  "@l c #E5E5E573",
  ".j c #E5E5E5A7",
  "1p c #E5E5E5B3",
  ";3 c #E5E5E5FF",
  "2K c #E6484819",
  "6) c #E6D269FF",
  "2i c #E6E4E4B4",
  "@R c #E6E6E625",
  "1s c #E6E6E681",
  ".l c #E6E6E68D",
  "1F c #E6E6E6B3",
  "1D c #E6E6E6C1",
  ";b c #E6E6E6FF",
  "3; c #E73C3C18",
  "3( c #E73C3C73",
  "3r c #E73D3D32",
  "5$ c #E7CD32FF",
  "+= c #E7D36CFF",
  "@T c #E7E7E73F",
  "1f c #E7E7E74C",
  ".I c #E7E7E75A",
  "1d c #E7E7E773",
  "._ c #E7E7E7A7",
  "1[ c #E7E7E7C0",
  "sm c #E7E7E7F4",
  ";G c #E7E7E7FF",
  "4@ c #E842428D",
  "3J c #E8434166",
  "48 c #E85D5D80",
  "4O c #E87171A6",
  "4E c #E8CE33FF",
  "@{ c #E8E8E826",
  ".] c #E8E8E880",
  ".' c #E8E8E88D",
  "1} c #E8E8E8B4",
  "4a c #E8E8E8CE",
  "#C c #E8E8E8E8",
  "2] c #E93F3F0B",
  "3/ c #E9404080",
  "3- c #E9414126",
  "oT c #E9CF34FF",
  "++ c #E9D673FF",
  "XN c #E9E9E925",
  "1L c #E9E9E940",
  "1K c #E9E9E94C",
  "1J c #E9E9E959",
  "-t c #E9E9E973",
  "1| c #E9E9E9A7",
  "2u c #E9E9E9C0",
  "4p c #E9E9E9DB",
  "3e c #EA424240",
  "4M c #EAD035FF",
  "+O c #EAD776FF",
  "#7 c #EAEAEA25",
  "2X c #EAEAEA80",
  "2. c #EAEAEA8D",
  "2' c #EB444418",
  "3H c #EB444473",
  "3= c #EB454533",
  "3^ c #EB45458D",
  "om c #EBD237FF",
  "4N c #EBD238FF",
  "O[ c #EBD97AFF",
  "#s c #EBEBEB25",
  "#p c #EBEBEB3F",
  "2% c #EBEBEB4C",
  "2$ c #EBEBEB5A",
  "2o c #EBEBEB73",
  "3w c #EC47474C",
  "3z c #EC484867",
  "OU c #ECDC81FF",
  "o: c #ECECEC26",
  "2` c #ED494926",
  "3G c #ED494980",
  "2k c #ED5B5B3F",
  "4+ c #ED61619A",
  "3s c #ED7B7BC1",
  "ot c #EDD439FF",
  "4t c #EDD53AFF",
  "#V c #EDEDED26",
  "3* c #EE4A4A40",
  "3~ c #EE4A4A9A",
  "3q c #EE4C4C59",
  "4b c #EED63CFF",
  "OL c #EEDD83FF",
  "OV c #EEDE87FF",
  "oI c #EEEEEE26",
  "3l c #EF4D4D73",
  "2_ c #EF4E4E32",
  "3F c #EF4E4E8D",
  "3Q c #EF7B7BB4",
  "4; c #EFD73DFF",
  "3& c #F04F4F4C",
  "30 c #F0505066",
  "4* c #F0D93EFF",
  "Oa c #F0E18EFF",
  "2J c #F1525226",
  "3k c #F1525280",
  "2) c #F153533F",
  "3D c #F153539A",
  "3! c #F15A5AA7",
  "Oi c #F1E390FF",
  "3% c #F2545459",
  "2f c #F2676773",
  "XW c #F2DB41FF",
  "wo c #F2E494FF",
  "39 c #F3555573",
  "3j c #F356568D",
  "2H c #F3575732",
  "3' c #F3DC42FF",
  "O. c #F3E69AFF",
  "2( c #F458584C",
  "3S c #F45858A7",
  "3$ c #F4595966",
  "XV c #F4DD44FF",
  "3T c #F4DE44FF",
  "o| c #F4E79BFF",
  "oR c #F4E89FFF",
  "4V c #F4F4F4C1",
  "38 c #F55A5A80",
  "3h c #F55B5B9A",
  "2G c #F55C5C3F",
  "2V c #F56A6A9A",
  "2/ c #F65D5D59",
  "3# c #F65E5E73",
  "Xj c #F6E046FF",
  "Xh c #F6E047FF",
  "oM c #F6EAA5FF",
  "2q c #F6F5F519",
  "@> c #F6F6F6FF",
  "37 c #F75F5F8D",
  "3A c #F76D6DB3",
  "3n c #F7E249FF",
  "on c #F7ECA7FF",
  "oy c #F7ECABFF",
  "+3 c #F7F7F7CE",
  "+2 c #F7F7F7DA",
  "+1 c #F7F7F7E8",
  "%N c #F7F7F7F5",
  ":9 c #F7F7F7FF",
  "2F c #F860604C",
  "3f c #F86060A7",
  "2^ c #F8626266",
  "3b c #F8E349FF",
  "o, c #F8EFB1FF",
  ".N c #F8F8F818",
  "|R c #F8F8F819",
  ";R c #F8F8F8FF",
  "3@ c #F9636380",
  "36 c #F964649A",
  "3g c #F9E44BFF",
  "o> c #F9F0B3FF",
  "o. c #F9F0B6FF",
  "|T c #F9F9F925",
  "|Y c #F9F9F933",
  "|U c #F9F9F940",
  ":v c #F9F9F9FF",
  "2D c #FA656559",
  "2~ c #FA676773",
  "3d c #FA6A6AB4",
  "X+ c #FAE54CFF",
  "XQ c #FAF2BCFF",
  "|I c #FAFAFA4D",
  "|P c #FAFAFA59",
  "|L c #FAFAFA66",
  ":5 c #FAFAFAFF",
  "3+ c #FB68688D",
  "35 c #FB6969A7",
  ".Q c #FBE74EFF",
  "XE c #FBF3BDFF",
  "XC c #FBF4C1FF",
  "|K c #FBFBFB74",
  "eG c #FBFBFB80",
  "|J c #FBFBFB8D",
  ";Q c #FBFBFBFF",
  "2j c #FC69694D",
  "2S c #FC6A6A66",
  "31 c #FCE84FFF",
  "3, c #FCF5C5FF",
  "|H c #FCFCFC9A",
  "|G c #FCFCFCA7",
  "|F c #FCFCFCB4",
  ";7 c #FCFCFCFF",
  "2! c #FD6B6B80",
  "3O c #FD6D6D9A",
  "Xg c #FDF6C7FF",
  "X6 c #FDF6CBFF",
  "X@ c #FDF8CFFF",
  "|D c #FDFDFDC0",
  "|S c #FDFDFDCE",
  "|A c #FDFDFDDA",
  "|Z c #FDFDFDE8",
  "=q c #FDFDFDFF",
  "2h c #FE6E6E59",
  "2A c #FE6F6F73",
  "34 c #FE7575B4",
  "XO c #FEF9D1FF",
  ".! c #FEF9D4FF",
  ".V c #FEFAD9FF",
  ".B c #FEFADAFF",
  ".p c #FEFBDDFF",
  ".1 c #FEFBE1FF",
  "|C c #FEFEFEF4",
  ";f c #FEFEFEFF",
  "2g c #FF707066",
  "2Z c #FF707080",
  "2C c #FF70708D",
  "2Q c #FF70709A",
  "3o c #FF7272A7",
  "2W c #FF7474A7",
  "3X c #FF7979B4",
  ".< c #FFFBE2FF",
  "|k c #FFFCE5FF",
  "   c none",
  
  // Image data
  "                                                    040404040404",
  "                                                    04|k|k|k|k04",
  "  =&1@2#,J<yK&<4<5<6[<<7<8<9<0<q<w<e<r<t<u<i<p<a<s  04|B|V31|k04",
  "  )e=q=q;f;f|C|Z|A|S|D|F|G|H|JeG|K|L|P|I|U|Y|T|R<d  04|k3131|k04",
  "  =L=q,_=b=[@<@1@2@3@4@5@6|(@7@8@9|'|].;.:@0.,|R<3  04|B3131|k04",
  "  ,7;f=b;v-i<fhF<g<h<j<k<l<z<x<c<v<b<n<m<M<N@s|R<B  04.<3131.104",
  "  2+;f=[=v>F<V<C<Z<A<S<D<F<G<H<J<K<L<P<I=^<U.M|R<Y  04.i3131.p04",
  "  9M=q={=v:&<V<T<R<E<W<Q<!<~<^</<K<(<P<I<)<U.R.N<_  04.B3131.V04",
  "  mV=q={,hpb<`<'<]<[<{<}<|1.1X1o1O1+1#1$1%1&@R.N1*  04.E.W.Q.!04",
  "  -Y=q*(=v>F1=1-1;<E|~@h.#1:.%.&@l1>@x.b1,1<@{|R11  04XOX+3gX@04",
  "  1{=q+Z=1,7121314<[15.F.G16171819101q;y1w1eXN|R1r  04X53b3nX604",
  "  t2=q+Z=v:&oD1t1y1u1i1p.j1a.l1s1dOe.I1f@T1g#7|R1h  04XgXhXj3,04",
  "  mk;7+A>_=v1j1k1lb)1z;H1x1c1v1b1n1m1M1N1B1V#s|R1C  04XB3TXVXC04",
  "  ,z;7+S2@Q>l~1Z1A1S1D1F._1G.'.]-t1H1J1K1L1Po:|R<*  04XE3'XWXQ04",
  "  ,h;7+S,z=v1j1I1U1Y1T1R1E1W1Q1!1~1^1/1(1)1_#V|R1`  04X}X|4*o.04",
  "  ,k;Q&I,FQ>1'1]X%1S1[1}1|1G2.2X2o2O2$2%#p2&oI|R2*  04o>4;4bo,04",
  "  ,c;Q&I,z=v2=2-2;2:2>2,2<212223242526272829202q2w  04or4totoy04",
  "  6^;Q;3,F;82e2r2t2y2u2i2p2a2s2d2f2g2h2j2k2l2z2x2c  04on4NomoM04",
  "  t:;Q;3,z2v2b2n2;2m2M2N2B2V2C2Z2A2S2D2F2G2H2J2K2L  04oY4MoToR04",
  "  Nv:5;b2P6{2I2U2Y2T2R2E2W2Q2C2!2~2^2/2(2)2_2`2'2]  04o|4E5$O.04",
  "  >L:5;b=<2@2[2{2}2|3.3X3o3O3+3@3#3$3%3&3*3=3-3;3:  04O<O1O2wo04",
  "  rr:5;b2P6{2I3>3<3233343536373839303q3w3e3r3t3y3u  04OiOp5hOa04",
  "  >J:v;b=<,F3i3p2}3a3s3d3f3h3j3k3l3z3x3c3v3m3M3N3B  04ONOB5FOV04",
  "  5[:v;b2#=p2I3V3<3C3Z3A3S3D3F3G3H3J3K3L3P3I3U3Y3R  04OLOPOIOU04",
  "  >':v;G=<,F2[3p2}3E3W3Q3!3~3^3/3(3)3_3`3]3[3{3}3|  04O'O]6<O[04",
  "  6];R;G2#=p2I3VoQ4.4X4o4O4+4@4#4$4%4&4=4-4:4>4,4<  04+O6f6g++04",
  "  ;D;R;b=<,F3i412}4243444546474849404q4w4e4r4y4u4i  04+&+*6L+=04",
  "  &Q;R;b;3;bsm#C4p4a4s4d4f4g4h4j4k4l4z4x4c4v4n4m4B  046)+:+>+,04",
  "=2`w:9@>@>@>%N+1+2+34V4C4Z4A4S4D4F4G4H4J4K4L4P4I4U  04+y+u+i+p04",
  "WK4Y`k6]6]6]~r4T4R4W4Q4!4~4^4/4(4)4_4`4'4]4[4{4}4|  04+z+x+c+c04",
  "`I&R9]=f:g:g!$=j=r*/tD5.6:a(=s=srn+J=e9b[~+b,q%C*_  040404040404",
  "  *R=#=$+v+v=$@,%Z+b&Z%A=#=2,q+m%V5X,D%C*R*`*_*T+n              "
};
