/* XPM */
const char *xpm_tango_mimetypes_x_office_spreadsheet[] = {
  // Header (width height colors chars-per-pixel)
  "32 32 374 2",
  
  // Colors (code mode value)
  "+n c #00000001",
  "*T c #00000002",
  "*R c #00000006",
  "7t c #00000007",
  ",D c #00000008",
  ",q c #0000000C",
  "=2 c #0000000D",
  "=# c #0000000E",
  "[i c #0000000F",
  "%Z c #00000013",
  "@, c #00000014",
  "=$ c #00000015",
  "+v c #00000016",
  "[~ c #00000017",
  "`L c #00000018",
  "7e c #0000001B",
  "=@ c #0000001D",
  "WK c #00000022",
  "tS c #00000029",
  "7r c #00000030",
  "9c c #0000003A",
  ",E c #0000003B",
  "=r c #00000040",
  "!$ c #00000047",
  ":g c #0000004A",
  "kL c #0000004B",
  "D3 c #0000004C",
  "*5 c #00000052",
  "kD c #00000054",
  "&E c #0000005E",
  "&O c #00000063",
  "%C c #00000065",
  "`/ c #00000069",
  "&W c #0000006B",
  "72 c #19000052",
  "7w c #26262693",
  "6T c #2C000040",
  ":y c #37373778",
  "7o c #375C93FF",
  "7# c #39000059",
  "6P c #3B5E92FF",
  "62 c #3D6EAEFF",
  "6t c #4071B0FF",
  "6y c #4372AEFF",
  "61 c #4475B4FF",
  "6b c #455E90FF",
  "63 c #4572ADFF",
  "7q c #473E3EF9",
  "6x c #4777B4FF",
  "6r c #4778B7FF",
  "6z c #497AB9FF",
  "73 c #4B4343FF",
  "6< c #4B7CBAFF",
  "6e c #4D7EBDFF",
  "&Q c #4F4F4FFF",
  "70 c #502626FF",
  ";] c #505050FF",
  "`w c #515151F1",
  "6, c #5182C1FF",
  "74 c #522828FF",
  "kx c #525252FF",
  ";D c #535353FF",
  "6i c #544267FF",
  "7O c #544D75FF",
  ":e c #545454FF",
  "+d c #55000006",
  "71 c #551717FB",
  "6[ c #555555FF",
  "6w c #5585C0FF",
  "`k c #565656F6",
  "6] c #565656FF",
  ":F c #575757FF",
  "58 c #582C2CFF",
  "Il c #585858FF",
  "6c c #5882B9FF",
  "6> c #5889C7FF",
  "79 c #591515FF",
  ">' c #595959FF",
  "75 c #5A1616FF",
  ":d c #5A5A5AFF",
  "5| c #5B5B5BFF",
  "6m c #5C0000AC",
  "5{ c #5C5C5CFF",
  "5[ c #5D5D5DFF",
  "6# c #5E6091FF",
  "78 c #600909FF",
  "6I c #602942FF",
  "6_ c #60606052",
  ">J c #606060FF",
  "6@ c #606396FF",
  "76 c #610A0AFF",
  "6` c #636363EF",
  "rr c #636363FF",
  "7@ c #640000EB",
  ")w c #646464F2",
  ":4 c #646464FF",
  "6p c #650000E8",
  "6U c #650000EF",
  "77 c #650404FF",
  "6n c #651723FF",
  "5n c #6600000F",
  "5( c #660000DE",
  ">L c #666666FF",
  "5K c #67000086",
  "5b c #670000D7",
  "6% c #670000FC",
  "6& c #670000FF",
  "5) c #670101FF",
  "6+ c #67699BFF",
  "5a c #680000CB",
  ":; c #686868FF",
  "65 c #690D0DFF",
  "5s c #6A00001D",
  "7& c #6A0505FF",
  "64 c #6A6087FF",
  "Nv c #6A6A6AFF",
  "7+ c #6B1823FF",
  ":@ c #6B6B6BFF",
  "6O c #6B6FA1FF",
  "6u c #6B7AA6FF",
  "7< c #6C141BFF",
  "6N c #6D0E0EFF",
  "t: c #6D6D6DFF",
  "5L c #6E1515FF",
  "7X c #6E675BFF",
  "7> c #6E8F23FF",
  "t1 c #6F6F6FFF",
  "7, c #703C31FF",
  "6L c #70688EFF",
  "6^ c #707070FF",
  "7: c #709024FF",
  "6E c #711515FF",
  ";W c #727272FF",
  "6o c #7275A7FF",
  "7; c #728723FF",
  "5m c #733D3DFF",
  ",c c #737373FF",
  "#/ c #737C1FFF",
  "6J c #7494BBFF",
  "6M c #766B6BFF",
  ",l c #767676FF",
  "7* c #770A0AFF",
  "6a c #773939FF",
  ",k c #777777FF",
  "6X c #777BADFF",
  "6. c #777CAEFF",
  "5# c #782525FF",
  ";v c #787878FF",
  "6v c #797FA6FF",
  "6s c #7A0909FF",
  "5: c #7A1B1BFF",
  ",h c #7A7A7AFF",
  "6W c #7B0C0CFF",
  "50 c #7B2828FF",
  "=1 c #7B7B7BFF",
  ">_ c #7C7C7CFF",
  ",z c #7D7D7DFF",
  "57 c #7E1D1DFF",
  "5f c #7E2626FF",
  "5% c #7E2B2BFF",
  "6$ c #7E5E82FF",
  "=< c #7E7E7EFF",
  "=, c #7F7F7FFF",
  "5$ c #802727FF",
  "mk c #808080FF",
  ";@ c #818181FF",
  "t2 c #838383FF",
  "5@ c #843D3DFF",
  "-^ c #848484FF",
  "6l c #848A66FF",
  "6K c #848EB4FF",
  "5& c #865252FF",
  "1{ c #868686FF",
  "7. c #869F33FF",
  "6B c #881111FF",
  "-O c #888888FF",
  "-Y c #898989FF",
  "6: c #8A939FFF",
  "mV c #8B8B8BFF",
  "6G c #8BD93CFF",
  ";* c #8C8C8CFF",
  "-i c #8D8D8DFF",
  "7= c #8E1414FF",
  "9M c #8E8E8EFF",
  "-, c #8F8F8FFF",
  "6k c #8FDC43FF",
  "7% c #905353FF",
  "2+ c #909090FF",
  "6H c #90C93AFF",
  "5J c #911313FF",
  "7- c #91331CFF",
  "pb c #919191FF",
  "6' c #91A73CFF",
  "6F c #91DC47FF",
  ",7 c #929292FF",
  "=L c #939393FF",
  "6( c #93A640FF",
  "5+ c #946060FF",
  "=v c #949494FF",
  "=& c #95959552",
  "2v c #959595FF",
  ")e c #969696EF",
  "2@ c #969696FF",
  "6) c #96A840FF",
  ",F c #979797FF",
  "5d c #989292FF",
  "2P c #989898FF",
  "1@ c #999999F2",
  "2# c #999999FF",
  "6j c #99E053FF",
  ":^ c #9A9A9AFF",
  ",J c #9C9C9CFF",
  "<y c #9E9E9EFF",
  "5, c #A0A0A0FF",
  "5p c #A11F1FFF",
  "6} c #A1A1A1FF",
  "6D c #A1D656FF",
  "6Q c #A21D1DFF",
  "56 c #A22525FF",
  ";I c #A2A2A2FF",
  "66 c #A32424FF",
  "5o c #A3A2A2FF",
  "6| c #A3A3A3FF",
  "=C c #A4A4A4FF",
  "5> c #A62F2FFF",
  "5M c #A63737FF",
  "5O c #AB9191FF",
  "6q c #ABC35FFF",
  "5q c #AC3434FF",
  "6! c #AD1B1BFF",
  "60 c #ADE773FF",
  "6V c #B02323FF",
  ">F c #B0B0B0FF",
  "5; c #B18585FF",
  ":& c #B1B1B1FF",
  "6/ c #B24F33FF",
  "<# c #B2B2B2FF",
  "Q> c #B3B3B3FF",
  ";8 c #B4B4B4FF",
  "6{ c #B5B5B5FF",
  "5v c #B62424FF",
  "6~ c #B62727FF",
  "=p c #B6B6B6FF",
  "59 c #B7ABABFF",
  ",S c #B7B7B7FF",
  "9m c #B8B8B8FF",
  "6h c #BA9F4EFF",
  "6d c #BB3232FF",
  "6R c #BDA9A9FF",
  "1> c #BDBDBDFF",
  "1% c #BEBEBEFF",
  ";= c #BFBFBFFF",
  ";g c #C0C0C0FF",
  ";U c #C1C1C1FF",
  "5/ c #C22828FF",
  ";Z c #C2C2C2FF",
  ":* c #C3C3C3FF",
  ":6 c #C4C4C4FF",
  "6; c #C5E18CFF",
  "Qj c #C6C6C6FF",
  "6C c #CA4545FF",
  "5g c #CB5050FF",
  "5* c #CCB2B2FF",
  "55 c #CD4343FF",
  "5} c #CD8478FF",
  "7$ c #D1C9C9FF",
  "5< c #D35050FF",
  "6* c #D86262FF",
  "69 c #D86B4DFF",
  ",_ c #DCDCDCFF",
  "=b c #DDDDDDFF",
  "=[ c #DEDEDEFF",
  "9Z c #DF2D2DFF",
  "5P c #DF6D6DFF",
  "={ c #DFDFDFFF",
  "*( c #E0E0E0FF",
  "5^ c #E12E2EFF",
  "+Z c #E1E1E1FF",
  "5H c #E23535FF",
  "6S c #E24F4BFF",
  "6Z c #E26666FF",
  "+A c #E2E2E2FF",
  "0T c #E33333FF",
  "+S c #E3E3E3FF",
  "&I c #E4E4E4FF",
  "5G c #E53737FF",
  "5~ c #E53838FF",
  ";3 c #E5E5E5FF",
  "5i c #E64848FF",
  "5- c #E6E4E4FF",
  ";b c #E6E6E6FF",
  "5F c #E73C3CFF",
  "5! c #E73D3DFF",
  ";G c #E7E7E7FF",
  "6g c #E84242FF",
  "6- c #E84341FF",
  "6A c #E85D5DFF",
  "6f c #E87171FF",
  ":# c #E8E8E8FF",
  "9W c #E93F3FFF",
  "68 c #E94040FF",
  "<z c #E94141FF",
  ":2 c #E9E9E9FF",
  "5Q c #EA4242FF",
  ",% c #EAEAEAFF",
  "6Y c #EB4444FF",
  "9E c #EB4545FF",
  ":, c #EBEBEBFF",
  ">{ c #EC4747FF",
  "<! c #EC4848FF",
  ":> c #ECECECFF",
  "5c c #ED4949FF",
  "54 c #ED5B5BFF",
  ">! c #ED6161FF",
  "5_ c #ED7B7BFF",
  ";h c #EDEDEDFF",
  "5D c #EE4A4AFF",
  "5W c #EE4C4CFF",
  ":< c #EEEEEEFF",
  "14 c #EF4D4DFF",
  "T) c #EF4E4EFF",
  "<% c #EF7B7BFF",
  ">[ c #F04F4FFF",
  "5E c #F05050FF",
  ";T c #F0F0F0FF",
  "5u c #F15252FF",
  "5x c #F15353FF",
  "67 c #F15A5AFF",
  "R3 c #F25454FF",
  "51 c #F26767FF",
  "5R c #F35555FF",
  "5] c #F35656FF",
  ">] c #F35757FF",
  "5z c #F45858FF",
  "5S c #F45959FF",
  "5T c #F55A5AFF",
  "5' c #F55B5BFF",
  "5y c #F55C5CFF",
  "5w c #F56A6AFF",
  "5l c #F65D5DFF",
  "5A c #F65E5EFF",
  "5= c #F6F5F5FF",
  "@> c #F6F6F6FF",
  ">( c #F75F5FFF",
  "6= c #F76D6DFF",
  ":9 c #F7F7F7FF",
  "5t c #F86060FF",
  "5k c #F86262FF",
  ";R c #F8F8F8FF",
  "5Z c #F96363FF",
  "5Y c #F96464FF",
  ":v c #F9F9F9FF",
  "5r c #FA6565FF",
  "5j c #FA6767FF",
  "5` c #FA6A6AFF",
  ":5 c #FAFAFAFF",
  "5C c #FB6868FF",
  "5U c #FB6969FF",
  ";Q c #FBFBFBFF",
  "53 c #FC6969FF",
  "5e c #FC6A6AFF",
  ";7 c #FCFCFCFF",
  "5h c #FD6B6BFF",
  "5V c #FD6D6DFF",
  "=q c #FDFDFDFF",
  "52 c #FE6E6EFF",
  ">^ c #FE6F6FFF",
  "5I c #FE7575FF",
  ";f c #FEFEFEFF",
  ">~ c #FF7070FF",
  "5B c #FF7272FF",
  ">` c #FF7474FF",
  "5N c #FF7979FF",
  "   c none",
  
  // Image data
  "                                                                ",
  "                                                                ",
  "        =&1@2#,J<y,J2#2@=L-,;*-O-^;@,z,h,l;Wt1:@:;:4)w6_        ",
  "        )e=q=q;f;f;f=q=q=q=q;7;7;7;Q;Q;Q:5:5:5:v:v:v;R6`        ",
  "        =L=q,_=b=[=[={={*(+Z+Z+Z+A+A+A+A+S+S+S+S+S+A;R5[        ",
  "        ,7;f=b;v-i9M-,-,;v-,2+2+,hpbpbpb=1pbpbpb,z+S;R5[        ",
  "        2+;f=[=v>F:&:&:&2@<#Q>Q>2P;8;86{2#6{6{6{2#&I;R5{        ",
  "        9M=q={=v:&:&<#<#,FQ>;8;82#6{6{6{2#6{6{6{2#;3;R5{        ",
  "        mV=q={,hpb,7,7=L,z=v=v=v,z=v=v2v=<2v2v2v=<;b;R5|        ",
  "        -Y=q*(=v>F>F:&<#,F+A+S+S;g&I&I;3;U;3;3;3;U:#;R:d        ",
  "        1{=q+Z=1,7=L=v=v,z1>1>1>5,1%1%;=6};=;=;=6}:2;R>'        ",
  "        t2=q+Z=v:&<#Q>Q>,F&I;3;3;Z;b;b;G:*;G;G;G:*,%;RIl        ",
  "        mk;7+A>_=v=v=v=v=<1%1%;=;I;g;g;U6|;U;U;U6|:,;R:F        ",
  "        ,z;7+S2@Q>Q>Q>;82#;b;b;G:6:#:#:2:6:2:2:2:6:>;R6[        ",
  "        ,h;7+S,z=v=v2v2@=,;=;g;U6|;U;U;Z=C;Z;Z;Z=C;h;R:e        ",
  "        ,k;Q&I,FQ>;86{=p2#;G:#:2:6,%,%:,Qj:,:,:,Qj:<;Rkx        ",
  "        ,c;Q&I,z=v2v2@,F=,;U;U;Z5o5O5+5@5#5$5%5@5&5*5=;]        ",
  "        6^;Q;3,F;86{=p=p:^:25-5;5:5>5<51>~52535455565758+d      ",
  "        t:;Q;3,z2v2@,F,Fmk59505q5w>~>~>^5e5r5t5y>]5u5i5p5a5s    ",
  "        Nv:5;b2P6{=p=p,S5d5f5g>`>~>~5h5j5k5l5z5xT)5c6Y9W5v5b5n  ",
  "        >L:5;b=<2@,F,F2P5m5M5N5B5V5C5Z5A5SR3>[5D9E<z5F5G5H5J5K  ",
  "        rr:5;b2P6{=p,S9m5L5P5I5U5Y>(5T5R5E5W>{5Q5!5~0T5^9Z5/5(  ",
  "        >J:v;b=<,F,F2P2P5)5_5`5t5'5]5u14<!5}6.6X6o6O6+6@6#6$6%*T",
  "        5[:v;b2#=p=p,S9m6&6*6=5z5xT)5c6Y6-6;6:6>6,6<616263646&=#",
  "        >':v;G=<,F,F2P2P6566<%675D9E685F69606q6w6e6r6t6y6u6i6p+v",
  "        6];R;G2#=p=p,S9m6a6s6d6f>!6g5~0T6h6j6k6l6z6x6c6v6b6n6m%Z",
  "        ;D;R;b=<,F,F2P2P6M6N6B6V6C6Z6A6S6D6F6G6H6J6K6L6P6I6U6T,D",
  "        &Q;R;b;3;b;G:#:2;b6R6E6W6Q6!6~6/6(6)6'7.7X7o7O7+7@7#+v  ",
  "      =2`w:9@>@>@>:9:9:9:9;T7$7%7&7*7=7-7;7:7>#/7,7<7&7172=@+n  ",
  "    =2WK:y`k6]6]6]6]6]6]6]6]6[&Q73747576776&777879707q7w9c7e*T  ",
  "    *R=@7r=r!$:g:g:g:g:g:g:g:g:gD3kD&E%C`/&W&W`/&O*5kL,EtS,q    ",
  "        7t[i=$+v+v+v+v+v+v+v+v+v+v+v+v+v[~`L[~[~+v@,[i,D+n      "
};
