/* XPM */
const char *xpm_tango_mimetypes_x_office_drawing_template[] = {
  // Header (width height colors chars-per-pixel)
  "32 32 590 2",
  
  // Colors (code mode value)
  "+n c #00000001",
  "*_ c #00000003",
  "*` c #00000004",
  "*R c #00000006",
  "%C c #00000007",
  ",D c #00000008",
  "1c c #00000009",
  "%V c #0000000A",
  "+m c #0000000B",
  ",q c #0000000C",
  "=2 c #0000000D",
  "=# c #0000000E",
  "[i c #0000000F",
  "%A c #00000010",
  "&Z c #00000011",
  "+b c #00000012",
  "%Z c #00000013",
  "@, c #00000014",
  "=$ c #00000015",
  "+v c #00000016",
  "%B c #0000001A",
  "9b c #0000001E",
  "*' c #00000020",
  "WK c #00000022",
  ":W c #00000025",
  "tS c #00000029",
  "a( c #0000002D",
  "6: c #00000030",
  "=& c #00000034",
  "tD c #00000038",
  "*/ c #0000003C",
  "=r c #00000040",
  ",R c #00000042",
  "=j c #00000043",
  "!$ c #00000047",
  ":g c #0000004A",
  "$b c #27313B8D",
  "$k c #2F4052F5",
  "$l c #32424FE8",
  "%5 c #34456573",
  "%4 c #34466680",
  "%3 c #394C708D",
  "%2 c #3A4D719A",
  "%1 c #3A4D71A7",
  "%< c #3A4D71B4",
  "%, c #3A4D71C0",
  "%> c #3A4D71CE",
  "%: c #3A4D71DA",
  "%; c #3A4D71E7",
  "%- c #3A4D71F5",
  "%= c #3A4D71FF",
  "%+ c #404E6A8D",
  "%@ c #42516E80",
  "%# c #43516F73",
  "%O c #49597A9A",
  "$q c #505844F5",
  "%o c #526489A7",
  "%X c #526489B3",
  "%. c #526489C1",
  "$| c #526489CE",
  "$} c #526489DB",
  "${ c #526489E8",
  "$[ c #526489F5",
  "$] c #526489FF",
  "$n c #53555880",
  "<$ c #555753FF",
  "$! c #555F749A",
  "$G c #56585A9A",
  "$v c #565C629A",
  "$~ c #565E708D",
  "$Q c #586379A7",
  "$^ c #58647E80",
  "@q c #595959F5",
  "@f c #5A5A5AE7",
  "!B c #5A5A5AE8",
  "@d c #5A5A5AF4",
  "$3 c #5A944B8D",
  "@a c #5B5B5B33",
  "@p c #5B5B5B3F",
  "@u c #5B5B5B8D",
  "@c c #5C5C5C32",
  ",Y c #5C5C5C40",
  "E} c #5C5C5CF4",
  "$2 c #5D9D5A9A",
  "#a c #5E5E5E32",
  "$p c #5E70838D",
  "$w c #606352E7",
  "$a c #60758C80",
  "#| c #609D69C0",
  "$j c #61616132",
  "$N c #61616133",
  "$h c #6161613F",
  "$M c #61616140",
  "$4 c #619E6B80",
  "$1 c #619F6CA7",
  "$J c #666F7A80",
  "$@ c #67A76273",
  "$. c #67A762B4",
  "$W c #687A9FB4",
  "$5 c #689E9B73",
  "$< c #689E9BB4",
  "$/ c #697BA073",
  "$E c #697BA1C1",
  "$R c #697BA1CE",
  "$T c #697BA1DA",
  "$Y c #697BA1E7",
  "$U c #697BA1F4",
  "$I c #697BA1FF",
  "$i c #698AAE9A",
  "$H c #6E7B8A8D",
  "$F c #707D8EA7",
  "$c c #719CC9A7",
  "#} c #719EC4CE",
  "$, c #719FCCC1",
  "$s c #729FCF73",
  "$u c #729FCFA7",
  "$y c #729FCFB4",
  "$t c #729FCFC1",
  "$x c #729FCFCE",
  "'~ c #729FCFFF",
  "$r c #749FCDCD",
  "$z c #74A1CCDA",
  "#' c #74A1CCFF",
  "$0 c #75A1CCFF",
  "$# c #769D5166",
  "#T c #779D53CD",
  "$+ c #77BA6781",
  "$X c #77BA67A7",
  "$> c #78A4C9CE",
  "$= c #7CA6C2FF",
  "$O c #7DC26C8D",
  "$o c #7DC26C9A",
  "#/ c #80B15167",
  "#R c #80B151C1",
  "#! c #84BD4D8D",
  "#Q c #84BD4D9A",
  "#~ c #87BF5180",
  "#W c #87BF51A6",
  "@B c #8DBA638D",
  "@N c #8DBA639A",
  "#9 c #8EBB64DB",
  "#^ c #8EC25A73",
  "#E c #8EC25AB4",
  "H9 c #90AED1FF",
  "#i c #90BD664C",
  "$V c #91AED2F5",
  "$C c #91AFD2E7",
  "$A c #92AFD2CD",
  "$Z c #92AFD2DB",
  "$D c #92AFD3B4",
  "$S c #92AFD3C1",
  "$K c #93B1D473",
  "@F c #98BF73C1",
  "@I c #99C07466",
  "@G c #99C670B4",
  "@M c #9AC176A7",
  "@| c #9AC770CE",
  "@P c #9AC77173",
  "#A c #9AC86FCE",
  "@Q c #9BC177CE",
  "@V c #9BC27780",
  "#; c #9BC277DA",
  "@' c #9CC27859",
  "#x c #9CC378DA",
  "#% c #9CC97259",
  "#K c #9CCA715A",
  "$6 c #9D9E9C66",
  "#5 c #9DC4794C",
  "#Y c #9E9E9DDA",
  "$d c #9E9E9E66",
  "$( c #9E9E9E67",
  "%y c #9E9E9E73",
  "%t c #9E9E9E80",
  "%r c #9E9E9E8D",
  "%e c #9E9E9E9A",
  "ak c #9E9E9EA6",
  "%w c #9E9E9EB3",
  "%q c #9E9E9EC1",
  "%0 c #9E9E9ECE",
  "%9 c #9E9E9EDA",
  "#U c #9E9E9EE8",
  "#I c #9E9E9EF4",
  "ah c #9E9E9EF5",
  "<y c #9E9E9EFF",
  "#M c #9FC67B4D",
  "#( c #A0C67C59",
  "@! c #A0CF72C1",
  "#o c #A1DA69A6",
  "@` c #A2D07466",
  "@( c #A2DA6A8D",
  "@/ c #A2DA6A9A",
  "#X c #A2DA6AB4",
  "#@ c #A2DB6A80",
  "#1 c #A2DB6A81",
  "#+ c #A2DB6A8D",
  "#O c #A2DB6A9A",
  "#< c #A2DB6AA7",
  "#, c #A2DB6AB3",
  "#w c #A2DB6AB4",
  "## c #A3DB6B73",
  "#q c #A3DB6BC1",
  "#2 c #A3DC6B73",
  "#h c #A3DC6B80",
  "#t c #A3DC6B81",
  "#r c #A3DC6B8D",
  "#e c #A3DC6B9A",
  "#g c #A3DC6BA7",
  "#v c #A3DC6BB4",
  "#y c #A4DC6C67",
  "#D c #A4DC6CB4",
  "#b c #A4DD6C73",
  "#G c #A4DD6C80",
  "#F c #A4DD6C8D",
  "#c c #A5D775CE",
  "#> c #A5DC6FC1",
  "#H c #A5DD6D73",
  "@) c #A6DC7180",
  "@^ c #A6DC71A7",
  "#: c #A7D778CD",
  "#m c #A7D87659",
  "#3 c #A7DE7166",
  "#n c #A7DE7167",
  "@L c #A8D87A80",
  "@H c #A8D87AA6",
  "#4 c #A8D9795A",
  "#S c #ABDF78C0",
  "#J c #ABE07866",
  "#f c #ACDE7CCE",
  "#0 c #ADDD7DCD",
  "#j c #ADDE7C59",
  "#u c #AEDF7E5A",
  "#. c #AEDF7EC0",
  "#$ c #AEE07E66",
  "@~ c #AFDF7FB4",
  "@K c #AFDF818D",
  "@J c #AFDF819A",
  "@_ c #AFE08073",
  "#{ c #B0C9A9DB",
  ".. c #BABDB60B",
  "|N c #BABDB60C",
  "|M c #BABDB626",
  "|m c #BABDB640",
  "|n c #BABDB659",
  "|b c #BABDB673",
  "|v c #BABDB68D",
  "|c c #BABDB6A7",
  "|x c #BABDB6C1",
  "|z c #BABDB6DB",
  "|l c #BABDB6F4",
  "l: c #BABDB6FF",
  "@m c #BCD1AAB4",
  "$e c #BCD3A6DA",
  "#] c #BDD4A7F4",
  "+l c #BEC0BA18",
  "+k c #BEC0BA33",
  "+j c #BEC0BA4D",
  "+h c #BEC0BA66",
  "+g c #BEC0BA80",
  "+f c #BEC0BA9A",
  "+d c #BEC0BAB3",
  "+s c #BEC0BACE",
  "+a c #BEC0BAE7",
  "yR c #BEC0BAFF",
  "@C c #BED3AC73",
  "@} c #C3D4B2DA",
  "04 c #C4A000FF",
  "#& c #C6D7B54C",
  "#Z c #C6D7B5DA",
  "#L c #CADBB94C",
  "+* c #CBA80AFF",
  "+y c #CEAD1DFF",
  "O1 c #CFAD0EFF",
  "+& c #CFAF21FF",
  "O' c #D0B125FF",
  "ON c #D1B329FF",
  "X| c #D2B113FF",
  "O< c #D2B42DFF",
  "oY c #D3B630FF",
  "or c #D4B734FF",
  ".W c #D5B517FF",
  "|V c #D5B518FF",
  "X} c #D5B837FF",
  "XB c #D5B93AFF",
  "X5 c #D5BA3DFF",
  ".E c #D6BB40FF",
  ".i c #D6BB42FF",
  "|B c #D6BB44FF",
  "+i c #D7B81BFF",
  "+u c #D8B91CFF",
  "+> c #D9BA1EFF",
  "+: c #D9BB1EFF",
  "6L c #DBBD20FF",
  "@D c #DBDFD8CE",
  "6g c #DCBF23FF",
  ",_ c #DCDCDCFF",
  "6f c #DDC023FF",
  "=b c #DDDDDDFF",
  "6< c #DEC125FF",
  "@< c #DEDEDEF5",
  "=[ c #DEDEDEFF",
  "@U c #DEE2DB5A",
  "O] c #DFC226FF",
  "@2 c #DFDFDFDA",
  "@1 c #DFDFDFE8",
  "={ c #DFDFDFFF",
  "OI c #E0C428FF",
  "@3 c #E0E0E0CE",
  "@w c #E0E0E0DB",
  "&_ c #E0E0E0FF",
  "@n c #E0E1DFC0",
  "OP c #E1C429FF",
  "+c c #E1CA58FF",
  "@6 c #E1E1E1A7",
  "@5 c #E1E1E1B4",
  "@r c #E1E1E1C0",
  "@4 c #E1E1E1C1",
  "@e c #E1E1E1CD",
  "|Q c #E1E1E1DA",
  "@v c #E1E1E1F4",
  "+Z c #E1E1E1FF",
  "5F c #E2C62AFF",
  "OB c #E2C72BFF",
  "+x c #E2CB5AFF",
  "+z c #E2CB5BFF",
  "+p c #E2CD5FFF",
  "., c #E2E2E226",
  "@9 c #E2E2E273",
  "@8 c #E2E2E280",
  "@7 c #E2E2E28D",
  "|( c #E2E2E29A",
  "|/ c #E2E2E2A7",
  "@t c #E2E2E2B3",
  "@g c #E2E2E2C0",
  ".O c #E2E2E2CD",
  "lY c #E2E2E2DA",
  ".3 c #E2E2E2E7",
  "@S c #E2E2E2E8",
  "@A c #E2E2E2F5",
  "+A c #E2E2E2FF",
  "@s c #E3E3E326",
  "@0 c #E3E3E332",
  ".: c #E3E3E33F",
  ".; c #E3E3E34D",
  "|] c #E3E3E35A",
  "|' c #E3E3E366",
  "|_ c #E3E3E380",
  "@y c #E3E3E39A",
  "@j c #E3E3E3A6",
  "@h c #E3E3E3B4",
  "@b c #E3E3E3CE",
  "+C c #E3E3E3DB",
  "@E c #E3E3E3E8",
  "l| c #E3E3E3F4",
  "+S c #E3E3E3FF",
  "@Z c #E3E4E267",
  "5h c #E4C82DFF",
  "Op c #E4C92EFF",
  "@W c #E4E4E3DB",
  ".M c #E4E4E425",
  "@i c #E4E4E44D",
  ".- c #E4E4E459",
  ".= c #E4E4E466",
  ".* c #E4E4E473",
  "@k c #E4E4E481",
  ".% c #E4E4E48D",
  ".$ c #E4E4E49A",
  ".Z c #E4E4E4E8",
  "#= c #E4E4E4F4",
  "&I c #E4E4E4FF",
  "O2 c #E5CB2FFF",
  "+, c #E5D067FF",
  ".R c #E5E5E525",
  ".b c #E5E5E54D",
  "@x c #E5E5E559",
  "@z c #E5E5E566",
  "@l c #E5E5E573",
  "#- c #E5E5E5E7",
  "#d c #E5E5E5F4",
  ";3 c #E5E5E5FF",
  "6) c #E6D269FF",
  "@R c #E6E6E625",
  ".T c #E6E6E632",
  ".Y c #E6E6E63F",
  ".U c #E6E6E64D",
  ".v c #E6E6E659",
  "#8 c #E6E6E6E7",
  "X$ c #E6E6E6E8",
  "#l c #E6E6E6F4",
  ";b c #E6E6E6FF",
  "5$ c #E7CD32FF",
  "+= c #E7D36CFF",
  "XX c #E7E7E732",
  "@T c #E7E7E73F",
  "@Y c #E7E7E74D",
  "#z c #E7E7E7E8",
  "sm c #E7E7E7F4",
  ";G c #E7E7E7FF",
  "$$ c #E7EBE459",
  "4E c #E8CE33FF",
  "@] c #E8E8E74D",
  "@{ c #E8E8E826",
  "X3 c #E8E8E832",
  "@[ c #E8E8E840",
  "#C c #E8E8E8E8",
  ":# c #E8E8E8FF",
  "oT c #E9CF34FF",
  "++ c #E9D673FF",
  "XN c #E9E9E925",
  "Xd c #E9E9E932",
  "#* c #E9E9E93F",
  ":2 c #E9E9E9FF",
  "$: c #E9F3BFDA",
  "4M c #EAD035FF",
  "+O c #EAD776FF",
  "#7 c #EAEAEA25",
  "XM c #EAEAEA32",
  "#6 c #EAEAEA3F",
  "X# c #EAEAEAF4",
  "#[ c #EAF2C2E8",
  "om c #EBD237FF",
  "4N c #EBD238FF",
  "O[ c #EBD97AFF",
  "#s c #EBEBEB25",
  "#p c #EBEBEB3F",
  "o1 c #EBEBEBE8",
  "OU c #ECDC81FF",
  "o: c #ECECEC26",
  "X[ c #ECECEC33",
  "#k c #ECECEC40",
  "%s c #ECECECDA",
  "%x c #ECECECDB",
  "ot c #EDD439FF",
  "4t c #EDD53AFF",
  "#V c #EDEDED26",
  "#B c #EDEDED33",
  "#N c #EDEDED3F",
  "%d c #EDEDEDCE",
  "4b c #EED63CFF",
  "OL c #EEDD83FF",
  "OV c #EEDE87FF",
  "oI c #EEEEEE26",
  "oc c #EEEEEE32",
  "#P c #EEEEEE3F",
  "%c c #EEEEEEC0",
  "%f c #EEEEEEC1",
  "4; c #EFD73DFF",
  "#) c #EFEFEE4C",
  "#` c #EFEFEF25",
  "oP c #EFEFEF32",
  "#_ c #EFEFEF40",
  "%v c #EFEFEFB4",
  "4* c #F0D93EFF",
  "Oa c #F0E18EFF",
  "$* c #F0F0F025",
  "O, c #F0F0F026",
  "o{ c #F0F0F032",
  "$& c #F0F0F03F",
  "$% c #F0F0F04D",
  "%b c #F0F0F0A7",
  "%g c #F0F0F0B4",
  "Oi c #F1E390FF",
  "OM c #F1F1F126",
  "Ou c #F1F1F132",
  "$9 c #F1F1F13F",
  "$8 c #F1F1F14C",
  "$7 c #F1F1F159",
  "%h c #F1F1F1A7",
  "XW c #F2DB41FF",
  "wo c #F2E494FF",
  "$B c #F2F2F226",
  "$f c #F2F2F259",
  "%j c #F2F2F29A",
  "3' c #F3DC42FF",
  "O. c #F3E69AFF",
  "$P c #F3F3F326",
  "$g c #F3F3F34C",
  "O% c #F3F3F38D",
  "$- c #F3F8D3F5",
  "XV c #F4DD44FF",
  "3T c #F4DE44FF",
  "o| c #F4E79BFF",
  "oR c #F4E89FFF",
  "%* c #F4F4F425",
  "$' c #F4F4F426",
  "$L c #F4F4F432",
  "+o c #F4F4F440",
  "+% c #F4F4F44C",
  "$m c #F4F4F459",
  "O& c #F4F4F480",
  "%a c #F5F5F525",
  "%8 c #F5F5F526",
  "$` c #F5F5F532",
  "%z c #F5F5F533",
  "$_ c #F5F5F540",
  "+X c #F5F5F54C",
  "Ov c #F5F5F559",
  "%m c #F5F5F566",
  "%k c #F5F5F573",
  "%n c #F5F5F574",
  "Xj c #F6E046FF",
  "Xh c #F6E047FF",
  "oM c #F6EAA5FF",
  "%7 c #F6F6F633",
  "%l c #F6F6F63F",
  "%& c #F6F6F640",
  "%M c #F6F6F64C",
  "$) c #F6F6F64D",
  "O( c #F6F6F659",
  "+$ c #F6F6F666",
  "@> c #F6F6F6FF",
  "3n c #F7E249FF",
  "on c #F7ECA7FF",
  "oy c #F7ECABFF",
  "ob c #F7F7F718",
  "oU c #F7F7F719",
  "+t c #F7F7F726",
  "+r c #F7F7F733",
  "+e c #F7F7F73F",
  "%p c #F7F7F740",
  "%% c #F7F7F74C",
  "+w c #F7F7F74D",
  "+q c #F7F7F759",
  "%$ c #F7F7F75A",
  "+0 c #F7F7F767",
  "+9 c #F7F7F774",
  "eK c #F7F7F780",
  "+8 c #F7F7F78D",
  "+7 c #F7F7F79A",
  "+6 c #F7F7F7A7",
  "+5 c #F7F7F7B4",
  "+4 c #F7F7F7C1",
  "+3 c #F7F7F7CE",
  "+2 c #F7F7F7DA",
  "+1 c #F7F7F7E8",
  "%N c #F7F7F7F5",
  ":9 c #F7F7F7FF",
  "3b c #F8E349FF",
  "o, c #F8EFB1FF",
  ".N c #F8F8F818",
  "|R c #F8F8F819",
  "%i c #F8F8F84C",
  "%6 c #F8F8F84D",
  "%u c #F8F8F859",
  ";R c #F8F8F8FF",
  "3g c #F9E44BFF",
  "o> c #F9F0B3FF",
  "o. c #F9F0B6FF",
  "|T c #F9F9F925",
  "|Y c #F9F9F933",
  "|U c #F9F9F940",
  ":v c #F9F9F9FF",
  "X+ c #FAE54CFF",
  "XQ c #FAF2BCFF",
  "|I c #FAFAFA4D",
  "|P c #FAFAFA59",
  "|L c #FAFAFA66",
  ":5 c #FAFAFAFF",
  ".Q c #FBE74EFF",
  "XE c #FBF3BDFF",
  "XC c #FBF4C1FF",
  "|K c #FBFBFB74",
  "eG c #FBFBFB80",
  "|J c #FBFBFB8D",
  ";Q c #FBFBFBFF",
  "31 c #FCE84FFF",
  "3, c #FCF5C5FF",
  "|H c #FCFCFC9A",
  "|G c #FCFCFCA7",
  "|F c #FCFCFCB4",
  ";7 c #FCFCFCFF",
  "Xg c #FDF6C7FF",
  "X6 c #FDF6CBFF",
  "X@ c #FDF8CFFF",
  "|D c #FDFDFDC0",
  "|S c #FDFDFDCE",
  "|A c #FDFDFDDA",
  "|Z c #FDFDFDE8",
  "=q c #FDFDFDFF",
  "XO c #FEF9D1FF",
  ".! c #FEF9D4FF",
  ".V c #FEFAD9FF",
  ".B c #FEFADAFF",
  ".p c #FEFBDDFF",
  ".1 c #FEFBE1FF",
  "|C c #FEFEFEF4",
  "=w c #FEFEFEFF",
  ".< c #FFFBE2FF",
  "|k c #FFFCE5FF",
  "$; c #FFFFFFE7",
  "   c none",
  
  // Image data
  "                                                    040404040404",
  "                                                    04|k|k|k|k04",
  "  <$l:<$l:<$|l<$|z<$|x<$|c<$|v<$|b<$|n<$|m<$|M<$|N  04|B|V31|k04",
  "  l:=q=q=w=w|C|Z|A|S|D|F|G|H|JeG|K|L|P|I|U|Y|T|R<$  04|k3131|k04",
  "  <$=q,_=b=[@<@1@2@3@4@5@6|(@7@8@9|'|].;.:@0.,|R..  04|B3131|k04",
  "  l:=w=b=[=[@q!B@w@e@r@t|/@y@u|_.*.=.-@i@p@a@s|R<$  04.<3131.104",
  "  <$=w=[={={@d@f|Q.O@g@h@j.$.%@k@l@z@x.b,Y@c.M|R..  04.i3131.p04",
  "  l:=q={={&_@v.3lY@b@n@m@M@N@B@V@C@Z.v.U.Y.T.R.N<$  04.B3131.V04",
  "  <$=q={&_+Z@A@S+C@D@F@G@H@J@K@L@P@I@U@Y@TXX@R.N|N  04.E.W.Q.!04",
  "  l:=q&_+Z+A@A@E@W@Q@!@~@^@/@(@)@_@`@'@]@[X3@{|R<$  04XOX+3gX@04",
  "  <$=q+Z+A+Al|.Z@}@|#.#X#o#O#+#@###$#%#&#*XdXN|R|N  04X53b3nX604",
  "  l:=q+Z+A+S#=#-#;#:#>#,#<#O#+#1#2#3#4#5#6XM#7|R<$  04XgXhXj3,04",
  "  <$;7+A+S&IE}#8#9#0#q#w#<#e#r#t#2#y#u#i#p#a#s|R..  04XB3TXVXC04",
  "  l:;7+S&I;3#dX$#9#f#q#,#g#e#r#h#2#y#j#i#kX[o:|R<$  04XE3'XWXQ04",
  "  <$;7+S&I;3#l#z#x#c#>#v#g#e#r#h#b#n#m#M#N#B#V|R|N  04X}X|4*o.04",
  "  l:;Q&I;3;bsm#C#Z#A#S#D#g#e#F#G#H#J#K#L#PocoI|R<$  04o>4;4bo,04",
  "  <$;Q&I<y<y#I#U#Y#T#R#E#W#Q#!#~#^#/#(#)#_oP#`|R..  04or4totoy04",
  "  l:;Q;3<y#'#]#[#{#}#|$.$X$o$O$+$@$#$$$%$&o{$*ob<$  04on4NomoM04",
  "  <$;Q;3<y$=$-$;$:$>$,$<$1$2$3$4$5$6$7$8$9OuO,oU..  04oY4MoToR04",
  "  l::5;b<y$0$q$w$e$r$t$y$u$i$p$a$s$d$f$g$h$jOMob<$  04o|4E5$O.04",
  "  <$:5;b<y'~$k$l$z$x$t$y$c$v$b$n$s$d$m+%$M$N$Bob..  04O<O1O2wo04",
  "  l::5;b<yH9$V$C$Z$A$S$D$F$G$H$J$K$dOv+X+o$L$PoU<$  04OiOp5hOa04",
  "  <$:v;b<y$I$U$Y$T$R$E$W$Q$!$~$^$/$(O($)$_$`$'oU|N  04ONOB5FOV04",
  "  l::v;b<y$]$[${$}$|%.%X%o%O%+%@%#$d%$%%%&$`%*oU<$  04OLOPOIOU04",
  "  <$:v;G<y%=%-%;%:%>%,%<%1%2%3%4%5$d+q%6+e%7%8ob|N  04O'O]6<O[04",
  "  l:;R;G<y<yah#U%9%0%q%wak%e%r%t%y$d%u%i%p%7%aob<$  04+O6f6g++04",
  "  <$;R;b:#:2X#o1%s%d%f%g%h%jO%O&%k+$+q%%%l%z$'oU..  04+&+*6L+=04",
  "  l:;R;b:#:2X#o1%x%d%c%v%b%jO%O&%n%mO(%M%&$`$'oU<$  046)+:+>+,04",
  "  <$:9@>@>@>%N+1+2+3+4+5+6+7+8eK+9+0+q+w+e+r+toU|N  04+y+u+i+p04",
  "  l:<$yR<$yR<$+a<$+s<$+d<$+f<$+g<$+h<$+j<$+k<$+l<$  04+z+x+c+c04",
  "  ,D*'=&,R:g!$=j=r*/tD=&6:a(tS:WWK9b%B+v+b[i%V%C*_  040404040404",
  "    +n1c+b+v=$@,%Z+b&Z%A=#=2,q+m%V1c,D%C*R*`*_+n                "
};
