/* XPM */
const char *xpm_tango_mimetypes_x_office_document_template[] = {
  // Header (width height colors chars-per-pixel)
  "32 32 559 2",
  
  // Colors (code mode value)
  "+n c #00000001",
  "*_ c #00000003",
  "*` c #00000004",
  "*R c #00000006",
  "$p c #00000007",
  ",D c #00000008",
  "1c c #00000009",
  "$a c #0000000A",
  "+m c #0000000B",
  ",q c #0000000C",
  "=2 c #0000000D",
  "=# c #0000000E",
  "[i c #0000000F",
  "$s c #00000010",
  "&Z c #00000011",
  "+b c #00000012",
  "$w c #00000013",
  "@o c #00000014",
  "=$ c #00000015",
  "+v c #00000016",
  "$z c #0000001A",
  "9b c #0000001E",
  "*' c #00000020",
  "WK c #00000022",
  ":W c #00000025",
  "tS c #00000029",
  "a( c #0000002D",
  "6: c #00000030",
  "=& c #00000034",
  "tD c #00000038",
  "*/ c #0000003C",
  "=r c #00000040",
  ",R c #00000042",
  "=j c #00000043",
  "!$ c #00000047",
  ":g c #0000004A",
  "<$ c #555753FF",
  "oL c #7781954C",
  "oK c #78839959",
  "oC c #7A869CCE",
  "ok c #7B849766",
  "oz c #7B85984D",
  "oJ c #7B879D66",
  "oH c #7B879D73",
  "oG c #7B879D80",
  "oF c #7B879D8D",
  "oD c #7B879D9A",
  "oS c #7B879DA7",
  "oA c #7B879DB4",
  "oZ c #7B879DC1",
  "ol c #7D879B59",
  "oj c #838FA773",
  "X` c #85858559",
  "oa c #8592AAC0",
  "op c #8592AACE",
  "oh c #8693AB81",
  "og c #8693AB8D",
  "of c #8693AB9A",
  "od c #8693ABA7",
  "os c #8693ABB4",
  "o& c #898A8B73",
  "oq c #89919F59",
  "o0 c #8A8F9D67",
  "o9 c #8A909F73",
  "XI c #8C96A059",
  "o= c #8E92965A",
  "X) c #8E9AA873",
  "XP c #8E9BA867",
  "X_ c #8F9DAC67",
  "o8 c #9099AB80",
  "o5 c #95A0BAA6",
  "o4 c #95A0BAB4",
  "o3 c #95A0BAC1",
  "o2 c #95A0BACD",
  "ow c #95A1B94C",
  "Xn c #95ADC667",
  "o7 c #96A1BB8D",
  "o6 c #96A1BB9A",
  "Xm c #99B6D45A",
  "o* c #9AA3AE66",
  "X' c #9AB6D44D",
  "XL c #9AB6D473",
  "Xa c #9AB8D84C",
  "Xp c #9AB8D85A",
  "Xi c #9AB8D866",
  "Xu c #9AB8D873",
  "Xy c #9AB8D881",
  "Xt c #9AB8D88D",
  "Xr c #9AB8D89A",
  "X~ c #9AB8D8CE",
  "X( c #9BB8D8A7",
  "XU c #9BB9D94C",
  "XK c #9BB9D980",
  "XJ c #9BB9D98D",
  "XH c #9BB9D99A",
  "X0 c #9CB9D3CD",
  "XS c #9DBBD3CE",
  "X^ c #9EBBD6C1",
  "X/ c #A1BDD2B4",
  "Xx c #A8C1CBCD",
  "o% c #A9B8CC80",
  "Xe c #ABC5C8A7",
  "o@ c #B0C4DCA7",
  "o+ c #B0C4DCB4",
  "oO c #B0C4DCC0",
  "oo c #B0C4DCCE",
  ":& c #B1B1B1FF",
  "o- c #B1C5DD4C",
  "o$ c #B1C5DD8D",
  "o# c #B1C5DD9A",
  "XG c #B3C9C5A7",
  "X2 c #B6B6B63F",
  "X- c #B6B6B6A6",
  "X= c #B6B6B6B4",
  "X* c #B6B6B6C0",
  "X& c #B6B6B6CE",
  "X% c #B6B6B6DA",
  "Xs c #B7B7B73F",
  "XY c #B7B7B740",
  "X1 c #B7B7B74C",
  "X< c #B7B7B759",
  "X, c #B7B7B766",
  "X> c #B7B7B773",
  "h' c #B7B7B780",
  "X: c #B7B7B78D",
  "X; c #B7B7B79A",
  "oV c #B7B7B8DA",
  "X9 c #B7B8B9DA",
  "Xz c #B7B8B9DB",
  "X] c #B8B8B83F",
  "oe c #B8B8B840",
  "oQ c #B8B8B8DA",
  "X! c #B8B9BADA",
  "ox c #B9B9B93F",
  "o[ c #B9B9B94C",
  "o/ c #B9B9B9A7",
  "o^ c #B9B9B9B4",
  "o~ c #B9B9B9C1",
  "o! c #B9B9B9CD",
  "o] c #BABABA59",
  "o' c #BABABA66",
  "o` c #BABABA73",
  "o_ c #BABABA80",
  "o) c #BABABA8D",
  "o( c #BABABA9A",
  ".. c #BABDB60B",
  "|N c #BABDB60C",
  "|M c #BABDB626",
  "|m c #BABDB640",
  "|n c #BABDB659",
  "|b c #BABDB673",
  "|v c #BABDB68D",
  "|c c #BABDB6A7",
  "|x c #BABDB6C1",
  "|z c #BABDB6DB",
  "|l c #BABDB6F4",
  "l: c #BABDB6FF",
  ".5 c #BBBBBBCD",
  ".t c #BCBCBC4D",
  ".r c #BCBCBC59",
  ".e c #BCBCBC66",
  ".w c #BCBCBC73",
  ".q c #BCBCBC81",
  ".0 c #BCBCBC8D",
  ".9 c #BCBCBC9A",
  ".8 c #BCBCBCA6",
  ".7 c #BCBCBCB4",
  ".6 c #BCBCBCC0",
  ".S c #BCBCBCCE",
  ".K c #BDBDBD80",
  ".J c #BDBDBD8D",
  ".H c #BDBDBD9A",
  ".G c #BDBDBDA6",
  ".F c #BDBDBDB4",
  ".D c #BDBDBDC1",
  ".4 c #BEBEBEDA",
  "+l c #BEC0BA18",
  "+k c #BEC0BA33",
  "+j c #BEC0BA4D",
  "+h c #BEC0BA66",
  "+g c #BEC0BA80",
  "+f c #BEC0BA9A",
  "+d c #BEC0BAB3",
  "+s c #BEC0BACE",
  "+a c #BEC0BAE7",
  "yR c #BEC0BAFF",
  ".y c #BFBFBF40",
  ".A c #BFBFBFDB",
  ".L c #C0C0C073",
  "O6 c #C1C1C1CD",
  "O8 c #C2C2C2B4",
  "O7 c #C2C2C2C1",
  "OA c #C2C2C2CE",
  "Ot c #C3C3C34C",
  "Or c #C3C3C359",
  "OJ c #C3C3C35A",
  "Oe c #C3C3C366",
  "Ow c #C3C3C373",
  "eS c #C3C3C380",
  "Oq c #C3C3C38D",
  "O0 c #C3C3C39A",
  "O| c #C3C3C3A6",
  "O9 c #C3C3C3A7",
  "OS c #C3C3C3B3",
  "04 c #C4A000FF",
  "OH c #C4C4C466",
  "OG c #C4C4C473",
  "OF c #C4C4C480",
  "OD c #C4C4C48D",
  "O5 c #C4C4C4DB",
  "eZ c #C5C5C580",
  "O} c #C5C5C5DA",
  "OZ c #C5C5C5DB",
  "Oy c #C6C6C640",
  "+. c #C9C9C973",
  "+* c #CBA80AFF",
  "+y c #CEAD1DFF",
  "O1 c #CFAD0EFF",
  "+& c #CFAF21FF",
  "Xb c #CFDCBDA7",
  "O' c #D0B125FF",
  "ON c #D1B329FF",
  "X| c #D2B113FF",
  "O< c #D2B42DFF",
  "oY c #D3B630FF",
  "or c #D4B734FF",
  ".W c #D5B517FF",
  "|V c #D5B518FF",
  "X} c #D5B837FF",
  "XB c #D5B93AFF",
  "X5 c #D5BA3DFF",
  "Xq c #D5E0BFC1",
  ".E c #D6BB40FF",
  ".i c #D6BB42FF",
  "|B c #D6BB44FF",
  "+i c #D7B81BFF",
  "+u c #D8B91CFF",
  "+> c #D9BA1EFF",
  "+: c #D9BB1EFF",
  "6L c #DBBD20FF",
  ",v c #DBDBDBFF",
  "6g c #DCBF23FF",
  ",_ c #DCDCDCFF",
  "6f c #DDC023FF",
  "=b c #DDDDDDFF",
  "6< c #DEC125FF",
  "=[ c #DEDEDEFF",
  "O] c #DFC226FF",
  "={ c #DFDFDFFF",
  "XD c #DFE9C5C1",
  "OI c #E0C428FF",
  "&_ c #E0E0E0FF",
  "OP c #E1C429FF",
  "+c c #E1CA58FF",
  "|| c #E1E1E126",
  "|! c #E1E1E1CE",
  "|Q c #E1E1E1DA",
  "|W c #E1E1E1E8",
  "+Z c #E1E1E1FF",
  "5F c #E2C62AFF",
  "OB c #E2C72BFF",
  "+x c #E2CB5AFF",
  "+z c #E2CB5BFF",
  "+p c #E2CD5FFF",
  "., c #E2E2E226",
  "|} c #E2E2E232",
  "|{ c #E2E2E23F",
  "|[ c #E2E2E24D",
  "|( c #E2E2E29A",
  "|/ c #E2E2E2A7",
  "|^ c #E2E2E2B4",
  "|~ c #E2E2E2C1",
  ".O c #E2E2E2CD",
  ".o c #E2E2E2DB",
  ".3 c #E2E2E2E7",
  "+A c #E2E2E2FF",
  ">n c #E3E3E325",
  ".> c #E3E3E333",
  ".: c #E3E3E33F",
  ".; c #E3E3E34D",
  "|] c #E3E3E35A",
  "|' c #E3E3E366",
  "|` c #E3E3E373",
  "|_ c #E3E3E380",
  "|) c #E3E3E38D",
  ".# c #E3E3E3A7",
  ".@ c #E3E3E3B3",
  ".+ c #E3E3E3C0",
  ".s c #E3E3E3E7",
  "+S c #E3E3E3FF",
  "5h c #E4C82DFF",
  "Op c #E4C92EFF",
  ".M c #E4E4E425",
  ".u c #E4E4E432",
  ".- c #E4E4E459",
  ".= c #E4E4E466",
  ".* c #E4E4E473",
  ".& c #E4E4E480",
  ".% c #E4E4E48D",
  ".$ c #E4E4E49A",
  ".f c #E4E4E4CE",
  ".d c #E4E4E4DA",
  ".Z c #E4E4E4E8",
  "&I c #E4E4E4FF",
  "O2 c #E5CB2FFF",
  "+, c #E5D067FF",
  ".R c #E5E5E525",
  ".m c #E5E5E532",
  ".n c #E5E5E53F",
  ".b c #E5E5E54D",
  ".j c #E5E5E5A7",
  ".h c #E5E5E5B4",
  ".g c #E5E5E5C0",
  ".~ c #E5E5E5E8",
  ";3 c #E5E5E5FF",
  "6) c #E6D269FF",
  "Xo c #E6E6E626",
  ".T c #E6E6E632",
  ".Y c #E6E6E63F",
  ".U c #E6E6E64D",
  ".v c #E6E6E659",
  ".c c #E6E6E667",
  ".x c #E6E6E673",
  ".z c #E6E6E680",
  ".l c #E6E6E68D",
  ".k c #E6E6E69A",
  "./ c #E6E6E6CE",
  ".^ c #E6E6E6DB",
  "X$ c #E6E6E6E8",
  "|E c #E6E6E6F5",
  ";b c #E6E6E6FF",
  "Xw c #E6EDC9B3",
  "5$ c #E7CD32FF",
  "+= c #E7D36CFF",
  "X4 c #E7E7E725",
  "XX c #E7E7E732",
  "X. c #E7E7E740",
  ".I c #E7E7E75A",
  ".P c #E7E7E766",
  "._ c #E7E7E7A7",
  ".) c #E7E7E7B4",
  ".( c #E7E7E7C1",
  "X8 c #E7E7E7E7",
  ".X c #E7E7E7F5",
  ";G c #E7E7E7FF",
  "4E c #E8CE33FF",
  "Xf c #E8E8E825",
  "X3 c #E8E8E832",
  ".| c #E8E8E84D",
  ".} c #E8E8E859",
  ".{ c #E8E8E866",
  ".[ c #E8E8E873",
  ".] c #E8E8E880",
  ".' c #E8E8E88D",
  ".` c #E8E8E89A",
  "Xl c #E8E8E8E7",
  ".2 c #E8E8E8F4",
  ":# c #E8E8E8FF",
  "oT c #E9CF34FF",
  "++ c #E9D673FF",
  "XN c #E9E9E925",
  "Xd c #E9E9E932",
  "XA c #E9E9E9E8",
  ".a c #E9E9E9F4",
  ":2 c #E9E9E9FF",
  "4M c #EAD035FF",
  "+O c #EAD776FF",
  "XR c #EAEAEA26",
  "XM c #EAEAEA32",
  "oX c #EAEAEAE8",
  "X# c #EAEAEAF4",
  ".C c #EAEAEAF5",
  ",$ c #EAEAEAFF",
  "om c #EBD237FF",
  "4N c #EBD238FF",
  "O[ c #EBD97AFF",
  "X{ c #EBEBEB26",
  "XT c #EBEBEB33",
  "o1 c #EBEBEBE8",
  "X7 c #EBEBEBF4",
  ":, c #EBEBEBFF",
  "OU c #ECDC81FF",
  "o: c #ECECEC26",
  "X[ c #ECECEC33",
  "oB c #ECECECE7",
  "oi c #ECECECE8",
  "Xk c #ECECECF4",
  "XF c #ECF1D2B3",
  "ot c #EDD439FF",
  "4t c #EDD53AFF",
  "yj c #EDEDED25",
  "o; c #EDEDED32",
  "oW c #EDEDEDE7",
  "OX c #EDEDEDE8",
  "XZ c #EDEDEDF4",
  ";9 c #EDEDEDFF",
  "4b c #EED63CFF",
  "OL c #EEDD83FF",
  "OV c #EEDE87FF",
  "ov c #EEEEEE25",
  "oI c #EEEEEE26",
  "oc c #EEEEEE32",
  "Oo c #EEEEEEDA",
  "O4 c #EEEEEEE7",
  "OC c #EEEEEEE8",
  "o< c #EEEEEEF4",
  "4; c #EFD73DFF",
  "o} c #EFEFEF26",
  "oP c #EFEFEF32",
  "OO c #EFEFEFCE",
  "Od c #EFEFEFDA",
  "+- c #EFEFEFDB",
  "OY c #EFEFEFE7",
  "O{ c #EFEFEFE8",
  "ou c #EFEFEFF4",
  "oN c #EFEFEFF5",
  "4* c #F0D93EFF",
  "Oa c #F0E18EFF",
  "O, c #F0F0F026",
  "o{ c #F0F0F032",
  "O+ c #F0F0F0C1",
  "Of c #F0F0F0CE",
  "OT c #F0F0F0DA",
  "oE c #F0F0F0F5",
  "Oi c #F1E390FF",
  "OK c #F1F1F125",
  "OM c #F1F1F126",
  "Ou c #F1F1F132",
  "O> c #F1F1F133",
  "O@ c #F1F1F1B4",
  "Og c #F1F1F1C1",
  "OR c #F1F1F1CE",
  "Os c #F1F1F1F4",
  "O3 c #F1F1F1F5",
  "XW c #F2DB41FF",
  "wo c #F2E494FF",
  "Om c #F2F2F232",
  "O` c #F2F2F233",
  "O: c #F2F2F240",
  "O; c #F2F2F24C",
  "O# c #F2F2F2A7",
  "Oh c #F2F2F2B4",
  "OE c #F2F2F2C0",
  "+@ c #F2F2F2C1",
  "3' c #F3DC42FF",
  "O. c #F3E69AFF",
  "O_ c #F3F3F33F",
  "On c #F3F3F340",
  "O- c #F3F3F359",
  "O= c #F3F3F366",
  "O% c #F3F3F38D",
  "O$ c #F3F3F39A",
  "Oj c #F3F3F3A7",
  "OW c #F3F3F3B4",
  "XV c #F4DD44FF",
  "3T c #F4DE44FF",
  "o| c #F4E79BFF",
  "oR c #F4E89FFF",
  "+o c #F4F4F440",
  "+% c #F4F4F44C",
  "Ob c #F4F4F44D",
  "O* c #F4F4F473",
  "O& c #F4F4F480",
  "Ok c #F4F4F49A",
  "OQ c #F4F4F4A7",
  ":3 c #F4F4F4FF",
  "Xc c #F4F6E5C1",
  "+X c #F5F5F54C",
  "O) c #F5F5F54D",
  "Ov c #F5F5F559",
  "Oc c #F5F5F567",
  "Ol c #F5F5F58D",
  "O! c #F5F5F59A",
  "Xj c #F6E046FF",
  "Xh c #F6E047FF",
  "oM c #F6EAA5FF",
  "O( c #F6F6F659",
  "+$ c #F6F6F666",
  "Ox c #F6F6F673",
  "+; c #F6F6F674",
  "Oz c #F6F6F680",
  "O~ c #F6F6F68D",
  "3n c #F7E249FF",
  "on c #F7ECA7FF",
  "oy c #F7ECABFF",
  "ob c #F7F7F718",
  "oU c #F7F7F719",
  "+t c #F7F7F726",
  "+r c #F7F7F733",
  "+e c #F7F7F73F",
  "+w c #F7F7F74D",
  "+q c #F7F7F759",
  "O/ c #F7F7F766",
  "+0 c #F7F7F767",
  "+# c #F7F7F773",
  "+9 c #F7F7F774",
  "eK c #F7F7F780",
  "+8 c #F7F7F78D",
  "+7 c #F7F7F79A",
  "+6 c #F7F7F7A7",
  "+5 c #F7F7F7B4",
  "+4 c #F7F7F7C1",
  "+3 c #F7F7F7CE",
  "+2 c #F7F7F7DA",
  "+1 c #F7F7F7E8",
  ":9 c #F7F7F7FF",
  "Xv c #F7F8F3B4",
  "3b c #F8E349FF",
  "o, c #F8EFB1FF",
  ".N c #F8F8F818",
  "|R c #F8F8F819",
  "O^ c #F8F8F873",
  "+< c #F8F8F8F5",
  ";R c #F8F8F8FF",
  "3g c #F9E44BFF",
  "o> c #F9F0B3FF",
  "o. c #F9F0B6FF",
  "|T c #F9F9F925",
  "|Y c #F9F9F933",
  "|U c #F9F9F940",
  ":v c #F9F9F9FF",
  "X+ c #FAE54CFF",
  "XQ c #FAF2BCFF",
  "|I c #FAFAFA4D",
  "|P c #FAFAFA59",
  "|L c #FAFAFA66",
  ":5 c #FAFAFAFF",
  ".Q c #FBE74EFF",
  "XE c #FBF3BDFF",
  "XC c #FBF4C1FF",
  "|K c #FBFBFB74",
  "eG c #FBFBFB80",
  "|J c #FBFBFB8D",
  ";Q c #FBFBFBFF",
  "31 c #FCE84FFF",
  "3, c #FCF5C5FF",
  "|H c #FCFCFC9A",
  "|G c #FCFCFCA7",
  "|F c #FCFCFCB4",
  ";7 c #FCFCFCFF",
  "Xg c #FDF6C7FF",
  "X6 c #FDF6CBFF",
  "X@ c #FDF8CFFF",
  "|D c #FDFDFDC0",
  "|S c #FDFDFDCE",
  "|A c #FDFDFDDA",
  "|Z c #FDFDFDE8",
  "=q c #FDFDFDFF",
  "XO c #FEF9D1FF",
  ".! c #FEF9D4FF",
  ".V c #FEFAD9FF",
  ".B c #FEFADAFF",
  ".p c #FEFBDDFF",
  ".1 c #FEFBE1FF",
  "|C c #FEFEFEF4",
  "=w c #FEFEFEFF",
  ".< c #FFFBE2FF",
  "|k c #FFFCE5FF",
  "   c none",
  
  // Image data
  "                                                    040404040404",
  "                                                    04|k|k|k|k04",
  "  <$l:<$l:<$|l<$|z<$|x<$|c<$|v<$|b<$|n<$|m<$|M<$|N  04|B|V31|k04",
  "  l:=q=q=w:5|C|Z|A|S|D|F|G|H|JeG|K|L|P|I|U|Y|T|R<$  04|k3131|k04",
  "  <$=q=[={,v|E|W|Q|!|~|^|/|(|)|_|`|'|]|[|{|}|||R..  04|B3131|k04",
  "  l:=w={&_,_.X|W.o.O.+.@.#.$.%.&.*.=.-.;.:.>.,|R<$  04.<3131.104",
  "  <$=w&_+Z=b.2.3.4.5.6.7.8.9.0.q.w.e.r.t.y.u>n|R..  04.i3131.p04",
  "  l:=q+Z+A=[.a.s.d.f.g.h.j.k.l.z.x.c.v.b.n.m.M.N<$  04.B3131.V04",
  "  <$=q+A+A={.C.Z.A.S.D.F.G.H.J.K.L.P.I.U.Y.T.R.N|N  04.E.W.Q.!04",
  "  l:=q+A+S&_.C.~.^./.(.)._.`.'.].[.{.}.|X.XXXo|R<$  04XOX+3gX@04",
  "  <$=q+S&I+ZX#X$X%X&X*X=X-X;X:h'X>X,X<X1X2X3X4|R|N  04X53b3nX604",
  "  l:=q&I:&+SX7X8X9X0XqXwXeXrXtXyXuXiXpXaXsXdXf|R<$  04XgXhXj3,04",
  "  <$;7;3:2+ZXkXlXzXxXcXvXbXrXtXyXuXnXmXaXsXMXN|R..  04XB3TXVXC04",
  "  l:;7;3;b+AXZXAXzXSXDXFXGXHXJXKXLXPXIXUXYXTXR|R<$  04XE3'XWXQ04",
  "  <$;7;b;G+SXZXAX!X~X^X/X(XHXJXKX)X_X`X'X]X[X{|R|N  04X}X|4*o.04",
  "  l:;Q;G:#&IXZoXX!oooOo+o@o#o$o%o&o*o=o-X]o;o:|R<$  04o>4;4bo,04",
  "  <$;Q;G:#&Io<o1X9o2o3o4o5o6o7o8o9o0oqowoeo;yj|R..  04or4totoy04",
  "  l:;Q:#:2;3ouoiXzopoaosodofogohojokolozoxocovob<$  04on4NomoM04",
  "  <$;Q:#:2;3oNoBoVoCoZoAoSoDoFoGoHoJoKoLoxoPoIoU..  04oY4MoToR04",
  "  l::5:2,$;boEoWoQo!o~o^o/o(o)o_o`o'o]o[oxo{o}ob<$  04o|4E5$O.04",
  "  <$:5:2:&;GoEOXOoOOO+O@O#O$O%O&O*O=O-O;O:O>O,ob..  04O<O1O2wo04",
  "  l::5:2;9;GO3O4O5O6O7O8O9O0OqeSOwOeOrOtOyOuO,oU<$  04OiOp5hOa04",
  "  <$:v,$:,;GOsO4OdOfOgOhOjOkOlOzOxOcOvObOnOmOMoU|N  04ONOB5FOV04",
  "  l::v,$:,;GO3OCOZOAO7OSO9O0ODOFOGOHOJOtOyOmOKoU<$  04OLOPOIOU04",
  "  <$:v,$:,;GO3OYOTOROEOWOQO!O~eKO^O/O(O)O_O`OMob|N  04O'O]6<O[04",
  "  l:;R,$:,;GO3O{O}OAO7OSO|O0ODeZ+.O/O(+X+oO`OKob<$  04+O6f6g++04",
  "  <$;R,$:,;GOsOCOTOR+@OWOQO!O~eK+#+$Ov+%O_O`OMoU..  04+&+*6L+=04",
  "  l:;R,$:,;GOsOC+-OfOEOWOQO!OlOz+;+$Ov+%OnOmOMoU<$  046)+:+>+,04",
  "  <$:9:9:9:3+<+1+2+3+4+5+6+7+8eK+9+0+q+w+e+r+toU|N  04+y+u+i+p04",
  "  l:<$yR<$yR<$+a<$+s<$+d<$+f<$+g<$+h<$+j<$+k<$+l<$  04+z+x+c+c04",
  "  ,D*'=&,R:g!$=j=r*/tD=&6:a(tS:WWK9b$z+v+b[i$a$p*_  040404040404",
  "    +n1c+b+v=$@o$w+b&Z$s=#=2,q+m$a1c,D$p*R*`*_+n                "
};
