/* XPM */
const char *xpm_tango_devices_audio_input_microphone[] = {
  // Header (width height colors chars-per-pixel)
  "32 32 346 2",
  
  // Colors (code mode value)
  "+j c #00000001",
  "&j c #00000002",
  "&T c #00000003",
  "%. c #00000004",
  "@C c #00000007",
  ":E c #00000008",
  "*7 c #00000009",
  "@B c #0000000A",
  "+> c #0000000B",
  ":k c #0000000C",
  "&; c #0000000D",
  "%H c #0000000E",
  ":l c #0000000F",
  "+r c #00000012",
  "@m c #00000013",
  "@o c #00000014",
  "*' c #00000015",
  "+k c #00000016",
  "=N c #00000018",
  "@n c #00000019",
  "&) c #0000001C",
  "9b c #0000001E",
  "&V c #0000001F",
  "+g c #00000021",
  "*. c #00000022",
  "&Y c #00000023",
  "er c #00000028",
  "r> c #010101FF",
  "Fl c #020202FF",
  "J' c #030303FF",
  "JU c #050505FF",
  "g3 c #171717FF",
  "%L c #1B1B1BFF",
  "DJ c #1D1D1DFF",
  "JY c #232323FF",
  "H6 c #2424244F",
  "`c c #242424FF",
  "TK c #2525254C",
  "gg c #252525FF",
  "H2 c #2626264A",
  "H7 c #27272748",
  "JE c #2A2A2AFF",
  "Hi c #2C2C2C51",
  "Hw c #2E2E2E4E",
  "ap c #323232FF",
  "af c #333333FF",
  "GE c #34343436",
  "JQ c #373737FF",
  "z1 c #383838FF",
  "He c #3C3C3C9C",
  "Hu c #3C3C3C9D",
  "JR c #3D3D3DFF",
  "ag c #3E3E3EFF",
  "ad c #414141FF",
  "H> c #424242D0",
  "H1 c #424242D2",
  "H8 c #424242D8",
  "Hq c #424242D9",
  "no c #424242FF",
  "G[ c #434343CE",
  "Hr c #434343D9",
  "Ht c #434343F4",
  "Gl c #434343F6",
  "Hy c #434343FD",
  "nO c #434343FF",
  "GL c #4444447C",
  "GW c #444444F3",
  "Gj c #444444F8",
  "H& c #444444F9",
  "nX c #444444FC",
  "n+ c #444444FF",
  "GB c #444544FA",
  "G} c #444544FF",
  "Gf c #454544FB",
  "GC c #454545EE",
  "z[ c #454545FF",
  "z] c #454645FF",
  "GK c #464645ED",
  "Ga c #464646FD",
  "G8 c #464646FF",
  "GZ c #474747C8",
  "H5 c #474747F4",
  "G9 c #474747FF",
  "H3 c #484848F4",
  "Gn c #484848F9",
  "GJ c #484848FD",
  "ru c #484848FF",
  "JL c #494949FF",
  "Gy c #4A4A4AD1",
  "ry c #4A4A4AFF",
  ":- c #4C4C4CFF",
  "rt c #4F4F4FFF",
  "GS c #50504FF8",
  "Gi c #50505023",
  ";] c #505050FF",
  "H9 c #515151F6",
  "GP c #525251FD",
  "G| c #525251FF",
  "uH c #525252FE",
  "kx c #525252FF",
  "c0 c #525352FF",
  "Gw c #535353F7",
  "GQ c #535353FE",
  "GI c #535453FF",
  ":e c #545454FF",
  "G! c #555554FF",
  "#P c #55555503",
  "H* c #555555FB",
  "6[ c #555555FF",
  "GD c #575757ED",
  ":w c #575757FF",
  ">' c #595959FF",
  ":q c #5A5A5AFF",
  "G^ c #5B5B5AFF",
  "5| c #5B5B5BFF",
  "5{ c #5C5C5CFF",
  "5[ c #5D5D5DFF",
  ":0 c #5E5E5EFF",
  "HX c #5E5F5DFF",
  "l< c #5F5F5FFF",
  "Kk c #60615FFF",
  "G~ c #61615FFF",
  "Q% c #626262FF",
  ">8 c #626361FF",
  "rr c #636363FF",
  ":4 c #646464FF",
  "H. c #646562FF",
  "4Y c #676767FF",
  "Nv c #6A6A6AFF",
  "G( c #6A6B68FF",
  ":@ c #6B6B6BFF",
  ">( c #6C6C6CFF",
  "t: c #6D6D6DFF",
  ";[ c #6E6E6EFF",
  "4| c #70716EFF",
  "mT c #717171FF",
  "}g c #71726FFF",
  ";W c #727272FF",
  "H< c #737373FE",
  ",c c #737373FF",
  "GA c #747572FF",
  "Ho c #757575FE",
  ";F c #757575FF",
  "*$ c #757672FF",
  "5o c #7777770F",
  "G0 c #777777FD",
  ",k c #777777FF",
  "H0 c #787878FD",
  ";v c #787878FF",
  "4{ c #79797926",
  "GN c #797979F6",
  "G{ c #797979FE",
  "G/ c #797B77FF",
  "BH c #7B7B7B1B",
  "F` c #7B7B7B1F",
  "Gg c #7B7B7B34",
  "G& c #7B7B7B38",
  "G. c #7B7B7B59",
  "F_ c #7B7B7B5D",
  "Gb c #7B7B7B72",
  "GF c #7B7B7BFE",
  "=1 c #7B7B7BFF",
  "ZJ c #7C7C7C21",
  "F! c #7C7C7C52",
  "Gs c #7C7C7C54",
  "G7 c #7C7C7C61",
  "G; c #7C7C7C7F",
  "F| c #7C7C7CA8",
  "G% c #7C7C7CF6",
  "F{ c #7C7C7CFC",
  "F^ c #7C7C7CFD",
  ">_ c #7C7C7CFF",
  "GU c #7C7D79FF",
  "G@ c #7D7D7D39",
  "GX c #7D7D7D66",
  "Ge c #7D7D7D6C",
  "G3 c #7D7D7DAF",
  "G+ c #7D7D7DE8",
  "G< c #7D7D7DEF",
  "Gu c #7D7D7DF8",
  "F/ c #7D7D7DFD",
  ",z c #7D7D7DFF",
  "Gz c #7E7E7E67",
  "Gc c #7E7E7E75",
  "G- c #7E7E7EA2",
  "F} c #7E7E7EE9",
  "G> c #7E7E7EED",
  "Gq c #7E7E7EFB",
  "=< c #7E7E7EFF",
  "G4 c #7F7F7F9D",
  "F) c #7F7F7FA1",
  "Gt c #7F7F7FBD",
  "G# c #7F7F7FED",
  "Gk c #7F7F7FEF",
  "=, c #7F7F7FFF",
  "1: c #7F817CFF",
  "<F c #80808006",
  "r} c #80808008",
  "F' c #80808090",
  "G, c #808080D0",
  "F~ c #808080D1",
  "F( c #808080E4",
  "Gp c #808080F8",
  "G* c #808080F9",
  "mk c #808080FF",
  "W. c #80827DFF",
  "Gx c #818181F7",
  "H4 c #818181FE",
  ";@ c #818181FF",
  "GV c #81827EFF",
  ",x c #828282FF",
  "t2 c #838383FF",
  "GO c #848484F5",
  "-^ c #848484FF",
  "W$ c #848681FF",
  "Gh c #858585F1",
  "Gm c #858585FD",
  "t< c #858585FF",
  "Bc c #868686F6",
  "G6 c #868686F7",
  "1{ c #868686FF",
  "Gr c #878787F8",
  "-K c #878787FF",
  "G1 c #888888F6",
  "-O c #888888FF",
  "ig c #898989F6",
  "-Y c #898989FF",
  "GG c #8A8A8AFE",
  "-v c #8A8A8AFF",
  "G2 c #8B8B8BFE",
  "mV c #8B8B8BFF",
  "Gd c #8C8C8CF3",
  "F[ c #8C8C8CF6",
  "H, c #8C8C8CFE",
  "-i c #8D8D8DFF",
  "G: c #8E8E8EFB",
  "9M c #8E8E8EFF",
  "Gv c #909090F7",
  "2+ c #909090FF",
  "pb c #919191FF",
  ",7 c #929292FF",
  "=L c #939393FF",
  "GH c #949494F3",
  "=v c #949494FF",
  "<' c #959595FF",
  "2@ c #969696FF",
  "G= c #979797FC",
  ",F c #979797FF",
  ";f c #989898FF",
  "G_ c #9999997F",
  "GM c #999999FD",
  ":^ c #9A9A9AFF",
  "G5 c #9B9B9BFD",
  ",J c #9C9C9CFF",
  "2$ c #9D9D9DFF",
  "GY c #9F9F9F6F",
  "<m c #9F9F9FFF",
  "5, c #A0A0A0FF",
  "6} c #A1A1A1FF",
  "6| c #A3A3A3FF",
  "Go c #A4A4A4FE",
  "=C c #A4A4A4FF",
  "-6 c #A6A6A6FF",
  "G$ c #A7A7A7FE",
  "-V c #A7A7A7FF",
  "H@ c #A8A8A855",
  "<Q c #A8A8A8FF",
  "F] c #A9A9A9FE",
  "cW c #AAAAAA03",
  ",C c #AAAAAAFF",
  "6' c #ABABABFF",
  "<v c #ADADADFF",
  ",Z c #AEAEAEFF",
  "tz c #AFAFAFFF",
  ">F c #B0B0B0FF",
  "H+ c #B1B1B18A",
  ":& c #B1B1B1FF",
  "<# c #B2B2B2FF",
  "H= c #B3B3B3A1",
  "G) c #B3B3B3FD",
  "<s c #B3B3B3FF",
  ";8 c #B4B4B4FF",
  "6{ c #B5B5B5FF",
  "=p c #B6B6B6FF",
  ",S c #B7B7B7FF",
  "9m c #B8B8B8FF",
  "H# c #B9B9B957",
  "HO c #B9B9B9FA",
  "5X c #B9B9B9FF",
  ",G c #BABABAFF",
  "G] c #BBBBBB0F",
  "5> c #BBBBBBFF",
  ",A c #BCBCBCFF",
  "H: c #BDBDBD5D",
  "<W c #BDBDBDFF",
  "H- c #BEBEBEC0",
  "<1 c #BEBEBEFF",
  ";= c #BFBFBFFF",
  "H; c #C0C0C0B6",
  ";g c #C0C0C0FF",
  ";U c #C1C1C1FF",
  ";Z c #C2C2C2FF",
  ":* c #C3C3C3FF",
  ":6 c #C4C4C4FF",
  "GR c #C5C5C523",
  "G' c #C5C5C554",
  "G` c #C5C5C576",
  "H$ c #C5C5C5B5",
  ";Y c #C5C5C5FF",
  "H% c #C6C6C670",
  ":= c #C6C6C6FF",
  "GT c #C7C7C732",
  ":7 c #C8C8C8FF",
  ">x c #C9C9C9FF",
  ",< c #CACACAFF",
  "+a c #CBCBCBFF",
  ",2 c #CDCDCDFF",
  ";_ c #CECECEFF",
  "+c c #CFCFCFFF",
  "+v c #D0D0D0FF",
  "+b c #D1D1D1FF",
  ",V c #D2D2D2FF",
  ",, c #D3D3D3FF",
  ",n c #D4D4D4FF",
  "{n c #D5D5D506",
  ":o c #D5D5D5FF",
  ",N c #D6D6D6FF",
  ",M c #D7D7D7FF",
  ",B c #D8D8D8FF",
  ",b c #D9D9D9FF",
  ",m c #DADADAFF",
  ",v c #DBDBDBFF",
  ",^ c #DCDCDCFF",
  "=b c #DDDDDDFF",
  "=[ c #DEDEDEFF",
  "={ c #DFDFDFFF",
  "&_ c #E0E0E0FF",
  "+Z c #E1E1E1FF",
  "+A c #E2E2E2FF",
  "+S c #E3E3E3FF",
  "&I c #E4E4E4FF",
  ";G c #E7E7E7FF",
  ":# c #E8E8E8FF",
  ":2 c #E9E9E9FF",
  "3N c #FFFFFF01",
  "   c none",
  
  // Image data
  "                      F!F~F^F/F(F)F_F`                          ",
  "                    F'Bc<1+Z+A:7F]F[F{F}F|G.r}                  ",
  "                  GXig:#:2&I+Z+A&I;G+S;ZGoGOG+G@                ",
  "                #PG#,<:2+A+A&_=b,B:o,V:o,B+ZG$G%ZJ              ",
  "                G&G*+v,v&I+S&_,^,B,n+v+a:=;Y,^G=G-              ",
  "                G;G:t2:eJL>(={<1,<,n+c+a:=;g:6;YG>              ",
  "                G,<1:#,N-V:^=bJQFl`ckxmktz;=;=,,>_              ",
  "              5oF^mV2+:^,S={,v,B,At2rtJY%Lag,z<WG<              ",
  "              F!G1>x=v:0JY;Z=v:q-O9m,<:=:&-v;[G2G3              ",
  "              G4G5,,,v=[,^,m6'6[JYr>DJ:et2,C;_G6G7              ",
  "              F},74YnOG82$,M,<+b,25>-YrrG9nO:qG0BH              ",
  "            4{Gq;G,B5X1{>F<sJU%Lru,k<Q:45[,zrrGw                ",
  "            GeGrpb-Y5,:7,n,V:*-i:qJQJEnOmT6},JnX                ",
  "            Gt<Q<v;Wafap+bNv=,<v;Y;Z9m5|5{mT5{Gy                ",
  "          <FGu6{,<+b+b+b;_Q%JEJ'gg:w,x,Fn+z[z[Gi                ",
  "          G&Gp-YG9JR;]:*+a>x:=,Gpb;Wl<>'noW$Ga                  ",
  "          GsGd+A;U2@t:;Y:qg3ad;F<m6{<v<mnOW$Gf                  ",
  "          GgGh&_:=:=;Y;Z,GmVl<z[z1:-t:-^ruW$Gj                  ",
  "          #PGk,A,n<W,A,G,S;8:&<v-V,7t2=,G9W$Gl                  ",
  "            GzGx:=,b+a;==p<#tz6'-V6|<m5XG8W$Gl                  ",
  "              GcGuGv2@,S,B;_;g<#<Q,C;=,ZG8W$Gl                  ",
  "                BHGbGnnonoGm=C<W,<<1GMGNGBGVGC                  ",
  "                    GZGAGSGDGF=1>_=<GGGHGJW.GK                  ",
  "                    GLGP1:Kkc0G8:-:w:@;[GIGUuHGY          cWGTGR",
  "                :EGEGWGQG8G!>8}g*$4|G~G^G/G(5[G)G_:k%.  {nG`G'G]",
  "            &T&;+kG[G{-i-K,z:wG8G}z]G|H.HXry>_HoHOH+H@H#H$H%3N  ",
  "          +j+>*'&VH&<m-^-Y2+<'=,t:>(,c:@>(,xmk;vH*H=H-H;H:3N    ",
  "          &T&;=N*.H>H,;f;@1{mV9M2+2+-i-Y-^=,1{H<H1er9b@m@C      ",
  "            @B@o9bH2H3G2-6,F-vt<,x,xt<-Opb2$H4H5H6&Y@n:l+j      ",
  "              *7@m&)H7H8H9H0=L<m-6-6<m=LH0H9HqTK+g=N:k+j        ",
  "                &j:E+r@nHwHeHrHtHyHyHtHrHuHi&)@o*7&j            ",
  "                      +j&T@C@B:k%H%H:k@B@C%.+j                  "
};
