/* XPM */
const char *xpm_tango_devices_audio_card[] = {
  // Header (width height colors chars-per-pixel)
  "32 32 294 2",
  
  // Colors (code mode value)
  "+j c #00000001",
  "&T c #00000003",
  "%. c #00000004",
  "&0 c #00000005",
  "&^ c #00000006",
  ":E c #00000008",
  "@B c #0000000A",
  "+> c #0000000B",
  ":k c #0000000C",
  "&; c #0000000D",
  "%H c #0000000E",
  ":l c #0000000F",
  "@: c #00000010",
  "&Z c #00000011",
  "+r c #00000012",
  "@m c #00000013",
  "@o c #00000014",
  "*' c #00000015",
  "+k c #00000016",
  "=N c #00000018",
  "@5 c #0000001A",
  "&) c #0000001C",
  "*Q c #0000001D",
  "9b c #0000001E",
  "&V c #0000001F",
  "&A c #00000020",
  "+g c #00000021",
  "*. c #00000022",
  ":Q c #00000024",
  ":W c #00000025",
  "+N c #00000026",
  "+J c #00000027",
  "er c #00000028",
  "rn c #0000002A",
  "9) c #0000002C",
  "rF c #0000002D",
  "*^ c #0000002E",
  ":d c #00000030",
  "&W c #00000034",
  "*8 c #00000036",
  "*G c #00000037",
  ",W c #00000039",
  "9c c #0000003A",
  "*/ c #0000003C",
  "B% c #0000003D",
  "3& c #0000003E",
  "9] c #0000003F",
  "*6 c #00000040",
  "FQ c #04040444",
  "Fx c #0909093C",
  "FJ c #0C0C0C52",
  "FK c #0D0D0D51",
  ":) c #0E0E0E25",
  "Fm c #1111114A",
  "FV c #1111114D",
  "Fn c #1313135E",
  "Fh c #15151525",
  "FW c #19191971",
  "FS c #1D1D1D71",
  "FL c #2323238A",
  "FA c #2323238B",
  "Fl c #2424245C",
  "FB c #25252599",
  "FH c #262626A1",
  "FE c #262626A7",
  "Fk c #28282860",
  "FR c #2A2A2AC8",
  "Fv c #2B2B2BA2",
  "FP c #2B2B2BB7",
  "FD c #2D2D2DC5",
  "FI c #2D2D2DD5",
  "FT c #2D2D2DE2",
  "FG c #2E2E2EE9",
  "FY c #2E2E2EEF",
  "FU c #2F2F2FF4",
  "FC c #303030C8",
  "FZ c #303030F2",
  "Fb c #313131B7",
  "Fz c #313131C4",
  "2o c #33333305",
  "x0 c #343434FA",
  "FM c #353535E4",
  "FF c #353535FC",
  "%{ c #363636FF",
  "Fj c #37373791",
  "FN c #373737FE",
  "Fc c #393939FB",
  "aa c #393939FF",
  "ag c #3E3E3EFF",
  "ru c #484848FF",
  "2k c #49494915",
  "Fg c #4949497D",
  "JL c #494949FF",
  "<+ c #4A4A4A18",
  "Ff c #4A4A4AEF",
  "F- c #4B4B4B4E",
  "F2 c #4B4B4B52",
  "F* c #4B4B4B5F",
  "Fa c #4B4B4B7D",
  "Fs c #4B4B4B85",
  "F: c #4B4B4BBA",
  "D} c #4C4C4C39",
  "Ft c #4C4C4C6F",
  "Fr c #4C4C4C76",
  "D~ c #4C4C4C79",
  "F3 c #4C4C4C80",
  "D[ c #4C4C4C83",
  "Fp c #4C4C4C86",
  "F% c #4C4C4CA1",
  "Fw c #4C4C4CA5",
  "D| c #4C4C4CA7",
  "D^ c #4C4C4CA8",
  "D] c #4C4C4CAE",
  "F; c #4C4C4CC2",
  "F9 c #4C4C4CC6",
  "FX c #4C4C4CC9",
  "D/ c #4C4C4CCD",
  "F# c #4C4C4CCF",
  "D' c #4C4C4CD4",
  "F5 c #4C4C4CD6",
  "F$ c #4C4C4CD8",
  "F. c #4C4C4CD9",
  "Fi c #4C4C4CDD",
  "Fy c #4C4C4CDE",
  "Fu c #4C4C4CE5",
  "D` c #4C4C4CE9",
  "F8 c #4C4C4CEA",
  "FO c #4C4C4CED",
  "D) c #4C4C4CF1",
  "Fo c #4C4C4CF2",
  "D_ c #4C4C4CF4",
  ":- c #4C4C4CFF",
  "F7 c #4D4D4D0A",
  "F& c #4D4D4D32",
  "F> c #4D4D4D49",
  "Fq c #4D4D4D78",
  "Fe c #4D4D4DA0",
  "F4 c #4D4D4DAA",
  "F, c #4D4D4DB4",
  "F@ c #4D4D4DBE",
  "F< c #4D4D4DDA",
  "F6 c #4D4D4DDC",
  "D( c #4D4D4DE6",
  "8W c #4E4E4E17",
  "D! c #4E4E4E3B",
  "D{ c #4E4E4E45",
  "rt c #4F4F4FFF",
  "F0 c #505050F0",
  "Fd c #505050F2",
  "F+ c #515151F7",
  ":e c #545454FF",
  "#P c #55555503",
  "<; c #55555509",
  "F1 c #555555F5",
  "6] c #565656FF",
  "8+ c #585858FC",
  ":i c #585858FF",
  ">' c #595959FF",
  ":q c #5A5A5AFF",
  "F= c #5B5B5BFE",
  "5| c #5B5B5BFF",
  "5{ c #5C5C5CFF",
  "5[ c #5D5D5DFF",
  ":0 c #5E5E5EFF",
  "l< c #5F5F5FFF",
  ">J c #606060FF",
  "Q% c #626262FF",
  "rr c #636363FF",
  ":4 c #646464FF",
  ">L c #666666FF",
  "4Y c #676767FF",
  ":; c #686868FF",
  "6/ c #696969FF",
  "Nv c #6A6A6AFF",
  ">( c #6C6C6CFF",
  "t: c #6D6D6DFF",
  ";[ c #6E6E6EFF",
  "t1 c #6F6F6FFF",
  "6^ c #707070FF",
  "mT c #717171FF",
  ";W c #727272FF",
  ",c c #737373FF",
  "t4 c #747474FF",
  ";F c #757575FF",
  ",l c #767676FF",
  ",k c #777777FF",
  ";v c #787878FF",
  ",j c #797979FF",
  ",h c #7A7A7AFF",
  "=1 c #7B7B7BFF",
  ">_ c #7C7C7CFF",
  ",z c #7D7D7DFF",
  "=< c #7E7E7EFF",
  "=, c #7F7F7FFF",
  "mk c #808080FF",
  ";@ c #818181FF",
  ",x c #828282FF",
  "t2 c #838383FF",
  "-^ c #848484FF",
  "t< c #858585FF",
  "1{ c #868686FF",
  "-K c #878787FF",
  "-O c #888888FF",
  "-Y c #898989FF",
  "-v c #8A8A8AFF",
  "mV c #8B8B8BFF",
  ";* c #8C8C8CFF",
  "-i c #8D8D8DFF",
  "9M c #8E8E8EFF",
  "-, c #8F8F8FFF",
  "2+ c #909090FF",
  "pb c #919191FF",
  ",7 c #929292FF",
  "=L c #939393FF",
  "=v c #949494FF",
  "<' c #959595FF",
  "2@ c #969696FF",
  ",F c #979797FF",
  ";f c #989898FF",
  "2# c #999999FF",
  ":^ c #9A9A9AFF",
  "<= c #9B9B9BFF",
  ",J c #9C9C9CFF",
  "2$ c #9D9D9DFF",
  "<y c #9E9E9EFF",
  "<m c #9F9F9FFF",
  "5, c #A0A0A0FF",
  "6} c #A1A1A1FF",
  ";I c #A2A2A2FF",
  "6| c #A3A3A3FF",
  "=C c #A4A4A4FF",
  "=W c #A5A5A5FF",
  "-6 c #A6A6A6FF",
  "-V c #A7A7A7FF",
  "<Q c #A8A8A8FF",
  "-` c #A9A9A9FF",
  ",C c #AAAAAAFF",
  "6' c #ABABABFF",
  "<b c #ACACACFF",
  "<v c #ADADADFF",
  ",Z c #AEAEAEFF",
  "tz c #AFAFAFFF",
  ">F c #B0B0B0FF",
  ":& c #B1B1B1FF",
  "<s c #B3B3B3FF",
  ";8 c #B4B4B4FF",
  "6{ c #B5B5B5FF",
  "=p c #B6B6B6FF",
  ",S c #B7B7B7FF",
  ",G c #BABABAFF",
  "5> c #BBBBBBFF",
  ",A c #BCBCBCFF",
  "<W c #BDBDBDFF",
  "<1 c #BEBEBEFF",
  ";= c #BFBFBFFF",
  ";g c #C0C0C0FF",
  ";U c #C1C1C1FF",
  ";Z c #C2C2C2FF",
  ":* c #C3C3C3FF",
  ":6 c #C4C4C4FF",
  ";Y c #C5C5C5FF",
  ":= c #C6C6C6FF",
  ",1 c #C7C7C7FF",
  ":7 c #C8C8C8FF",
  ">x c #C9C9C9FF",
  ",< c #CACACAFF",
  "+a c #CBCBCBFF",
  "#+ c #CCCCCCFF",
  ",2 c #CDCDCDFF",
  ";_ c #CECECEFF",
  "+c c #CFCFCFFF",
  "+v c #D0D0D0FF",
  "+b c #D1D1D1FF",
  ",, c #D3D3D3FF",
  ",n c #D4D4D4FF",
  ":o c #D5D5D5FF",
  ",N c #D6D6D6FF",
  ",M c #D7D7D7FF",
  ",B c #D8D8D8FF",
  ",b c #D9D9D9FF",
  ",m c #DADADAFF",
  ",v c #DBDBDBFF",
  ",^ c #DCDCDCFF",
  "=b c #DDDDDDFF",
  "=[ c #DEDEDEFF",
  "={ c #DFDFDFFF",
  "&_ c #E0E0E0FF",
  "+Z c #E1E1E1FF",
  "+A c #E2E2E2FF",
  "+S c #E3E3E3FF",
  "&I c #E4E4E4FF",
  ";9 c #EDEDEDFF",
  ":9 c #F7F7F7FF",
  "   c none",
  
  // Image data
  "                                                                ",
  "                                                                ",
  "                  2oD!D~D^D/D(D)D_D`D'D]D[D{<;                  ",
  "        D}D|F.FXFoFOt:,J;=,n=[+S+S=[,N:*=W,zF+F@F@F#F$F%F&      ",
  "      F*F=:&,1+b:7,v+Z,1<b=Lt2,j;v,x9M=C,A,N=b=ptz>x:6,Z8+F-    ",
  "      D'#+;_:9,1;Y,Ft4,ct4;F,l,k,k;v,j,j,j,h;*5>,b;Z;9,B<WF;    ",
  "      :-,v:=,G-Y,ct4;F,k;v,j,h=1=1>_,z,z=<=<=<=<-Y,S;=:7,1F:    ",
  "    F>:q&I,<,jt4,l,k,j,h=1>_=<=<=,mk;@;@,x,x,x,x,xt2:&+A-YF,    ",
  "  2oF<,<,,,h,l;v,j=1>_=<=,mk;@,xt2-^t<t<1{1{1{1{1{1{t<,<,nF18W  ",
  "  F2-^&I;*,k,j,h>_=<=,;@,x-^t<1{-K-O-Y-Y-v-v-v-v-v-v-Ypb={5,F3  ",
  "  F4:7,1;v,h=1,z=,;@,x-^1{-K-O-vmV;*-i-i9M9M-,-,9M9M9M-i>x,,F5  ",
  "  F6,^tz,h>_=<mk,x-^t<-K9M2@,J<=:^2@=Lpb,7=L=L=L=L,7,7pb:*,v6]F7",
  "  F8=[<b>_=<mk,x-^1{-O;f6|=C=C6}<y:^2@,7pb,F,F,F,F2@<'<':7,ml<<+",
  "  F9,2;==<mk,x-^1{-O<'6|-V6'-`=W6},J;f=v-,=L<=<=<=:^2#;f,N:oF0#P",
  "  Fq<y,v-i;@t21{-O-v2$;I=W-V-V6|5,,J,F=L-,;*<m<m<m<y2$;8,^:&Fw  ",
  "  2k:e,M;g-^t<-K-YmV2#2$5,6}6}<m,J2#<'pb-imV6|6|6|;I-`=[,B>(Fe#P",
  "  Frmk&_,b5>-O-O-v;*=L;f:^<=:^2#,F=vpb9M-v<'-V<Q-V>F=[+b,M+vt4Ft",
  "  Fy,M:7,B,<,2-`-v-i-,pb=L=v=v=Lpb-,-i-v,7<Q6'<b:7=[+a>x,B:=,1F5",
  "  Fu+c:6+Z;_:7+b+v;8=vpbpbpb9M-i;*-ipb,J-66'>x,v,n+a,1;_+A;Y,AFi",
  "  Fp,c;Y:*:7:*<=-`,<,n,2:=,S6'6'<b>F<1+a,n,b+ctz,x,F;g:=;g=p4YFa",
  "  #PFsFd;[-^;U<'-K;@2+;I<s:=+b,n,n+b:7,S=W-,t:5[:0<'-Y:;>JFfFg#P",
  "    +>FhFj6]<1,C;I-Y;vt4mT6^;[t1t16/>L>J>'6]:i,k<m=<;vaaFk:):l  ",
  "    @:+gFlrt<16|6|<b-`<'t<;FNvrr5|5{>J6/,h2+<Q-,t4=1,cFz*8:W@o+j",
  "  +j&Z*.FxFc6{-V5,2$2$6}=W6'<vtztz<v6'6|,F-O;v;F,c,x>'Fv*G+J+k+j",
  "    :l&V:dFb:4,S6|2$:^,F=v,7-,;*-Y1{t2mk=<=1;v;F>_,jx0Fn&W:Q+r  ",
  "    :E=NerFmFMQ%<b<Q<=,F=v,7-,;*-Y1{t2mk=<=1>_t<;[FNFB*/rF*Q&^  ",
  "      %H*Q9)FVFCag,l;I-6,J,F2+;*-Y1{t<1{-O-O;WruFZFA3&:d+g:k    ",
  "        &;&)rn*GFSFDFFJL>L;vt<-K-K=,,l:4rt%{FGFHFJ9crF&A+>      ",
  "          &^+k*.rF*GFKFLFPFIFGFUFUFYFTFRFEFWFQ9c:d:W*'&T        ",
  "              &^@m9b+N*^&W,WB%9]*6*63&9c*8:der&V@:%.            ",
  "                  +j&0+>@m@5&V+g+g+g9b=N&Z@B%.                  ",
  "                                                                "
};
