/* XPM */
const char *xpm_tango_devices_battery[] = {
  // Header (width height colors chars-per-pixel)
  "32 32 329 2",
  
  // Colors (code mode value)
  "+j c #00000001",
  "&j c #00000002",
  "&T c #00000003",
  "%. c #00000004",
  "&0 c #00000005",
  "&^ c #00000006",
  "@C c #00000007",
  ":E c #00000008",
  "+> c #0000000B",
  ":k c #0000000C",
  "&; c #0000000D",
  ":l c #0000000F",
  "@: c #00000010",
  "+r c #00000012",
  "*' c #00000015",
  "+k c #00000016",
  "@n c #00000019",
  "@5 c #0000001A",
  "5U c #0000001B",
  "&) c #0000001C",
  ":Q c #00000024",
  ":W c #00000025",
  "tS c #00000029",
  "9) c #0000002C",
  "*^ c #0000002E",
  "T2 c #00000032",
  "=( c #00000033",
  "*8 c #00000036",
  "L= c #0404043A",
  "L& c #09090937",
  "L* c #0909093A",
  "L. c #0D0D0D27",
  "K| c #1111113B",
  "KC c #1313131B",
  "K/ c #1C1C1C25",
  "KF c #1D1D1D3E",
  "K^ c #23232349",
  "KL c #2626262F",
  "KV c #26262644",
  "KM c #28282820",
  "Km c #2B2B2B3C",
  "L% c #31313173",
  "Kc c #35353518",
  "Kx c #3737372E",
  "LX c #3939396C",
  "K} c #434343A4",
  "L$ c #434343AC",
  "Lo c #484848A9",
  "K( c #4A4A4A98",
  "F. c #4C4C4CD9",
  "K~ c #4F4F4FEB",
  "L# c #505050DC",
  "KD c #515151F9",
  "KG c #525252C3",
  "K{ c #535352F6",
  "Kn c #535352F7",
  "KP c #535353E3",
  "9f c #535353FD",
  "GQ c #535353FE",
  "KK c #545452FE",
  "K9 c #545452FF",
  "Kj c #545453F5",
  "Kl c #545453F6",
  "L@ c #545454F2",
  "Ke c #545454F8",
  "Kv c #545454F9",
  "KZ c #545454FA",
  "Kz c #55550003",
  "K= c #5555440F",
  "Kq c #555554F4",
  "Kw c #5555550F",
  ":r c #5555551E",
  "LO c #555555DC",
  "F1 c #555555F5",
  "L+ c #565656F3",
  "K- c #58534CF8",
  "K! c #585857F9",
  "K[ c #585958F6",
  "KA c #5B5B59FF",
  "K& c #5C5445F4",
  "K* c #5E55441E",
  "K8 c #5F605CFF",
  "Ku c #5F605DFF",
  "H( c #66330005",
  "Ko c #6655220F",
  "KS c #676865FF",
  "K) c #686868F5",
  "KO c #694F2AF8",
  "}f c #6B6C69FF",
  "K. c #6C5225F4",
  "fm c #6C6D6AFF",
  "KB c #6D6D6BFF",
  "KI c #6E6E6DF8",
  "KX c #6F4D221E",
  "Kb c #6F706EFF",
  "K% c #705B3AFF",
  "K] c #70706FFE",
  "Kk c #727270FF",
  "KQ c #727370FF",
  "Kh c #747573FF",
  "KH c #767774FC",
  "J5 c #7744000F",
  "Ky c #777774FF",
  "Kf c #777876FF",
  "J# c #784A0490",
  "Hm c #7949002A",
  "H/ c #794B0396",
  "J' c #794D08F8",
  "J3 c #7A4A02F7",
  "HJ c #7A4B002C",
  "Hk c #7A4D0032",
  "H) c #7A4D067B",
  "Jr c #7A4E09F4",
  "Jd c #7A4E0AF4",
  "Kd c #7A7B79FF",
  "J$ c #7C4C04F4",
  "J6 c #7C4D04F8",
  "HK c #7C4D058E",
  "HH c #7C4E05A1",
  "Ki c #7C7D7BFF",
  "Hn c #7D4C002F",
  "K7 c #7D6F58FF",
  "HM c #7E5009A2",
  "K0 c #7F807EFF",
  "J4 c #804D000A",
  "Jt c #804D001E",
  "9/ c #80800002",
  "g( c #828380FF",
  "B* c #828381FF",
  "KW c #858583FF",
  "5H c #878784FF",
  "K' c #878885FF",
  "B4 c #8B8C89FF",
  "fo c #8E8F8BFF",
  "KE c #929390FF",
  "ka c #939490FF",
  "HG c #956C25F7",
  "K_ c #959694FD",
  "k> c #999A97FF",
  "<0 c #999A98FF",
  "KR c #9B9C99FF",
  "H^ c #9D7835FA",
  "K6 c #9D7E4DFF",
  "eQ c #9D9E9AFF",
  "J| c #9F8D6FFF",
  "tt c #9FA09CFF",
  "ml c #A0A09AFF",
  "HN c #A2762BF7",
  "JU c #A4680FFF",
  "K$ c #A46F21FF",
  "J@ c #A5894EFB",
  "e[ c #A5A6A2FF",
  "gW c #A9AAA6FF",
  "KU c #AAABA7FF",
  "]i c #ABACA9FF",
  "(s c #ABACAAFF",
  "KJ c #ACADAAFF",
  "HL c #AD8338FA",
  "Kt c #ADAEAAFF",
  "Hj c #AE6B0013",
  "2t c #AEAFACFF",
  "JI c #AF7217FF",
  "KT c #AFB0ACFF",
  "KN c #B0B1ADFF",
  "yB c #B1B2AEFF",
  "2r c #B1B2AFFF",
  "Kg c #B2B3AFFF",
  "]a c #B2B3B0FF",
  "Hb c #B36E06DD",
  "<{ c #B3B4B1FF",
  "HV c #B46C02FF",
  "Hl c #B46D05EC",
  "Bw c #B4B4B2FF",
  "gs c #B4B5B2FF",
  "Hf c #B56D03FA",
  "J: c #B56E05FF",
  "J; c #B56E06FF",
  "Ks c #B5B6B2FF",
  "W3 c #B5B6B3FF",
  "Hd c #B66E03F8",
  "HW c #B67008FF",
  "J> c #B67312FF",
  "Kr c #B6B7B3FF",
  "t= c #B6B7B4FF",
  "Ha c #B76E048B",
  "HD c #B77109FF",
  "J, c #B78133FF",
  "2e c #B7B8B5FF",
  "Hh c #B86F048C",
  "K5 c #B88B47FF",
  "K` c #B8B8B5FF",
  "t< c #B8B9B6FF",
  "t; c #B8B9B7FF",
  "Hp c #B9680016",
  "Hg c #B97007DF",
  "Hs c #B97107DB",
  "J- c #B97615FF",
  "JO c #B97B1DFF",
  "J_ c #B97B1EFF",
  "JM c #B98A46FF",
  "J` c #B9955FFF",
  "K+ c #B99762FF",
  "BF c #BABAB8FF",
  "Kp c #BABBB8FF",
  "V0 c #BCBCB9FF",
  "2w c #BCBDBAFF",
  "H[ c #BD7915FF",
  "JY c #BE9960FF",
  "K; c #BEBEBBFF",
  "32 c #BEBFBDFF",
  "H_ c #BF9951FA",
  ">z c #BF9B64FF",
  "rK c #BFC0BDFF",
  "wS c #C0C1BEFF",
  "5( c #C0C1BFFF",
  "KY c #C2C3C1FF",
  "J= c #C38C3BFF",
  "J) c #C48526FF",
  "JP c #C49041FF",
  "Ka c #C4C5C3FF",
  "HF c #C6AF70FB",
  "6; c #C6C6C4FF",
  "K4 c #CA9746FF",
  "tX c #CACBC9FF",
  "3k c #CCCCCAFF",
  "Jo c #CF871BFF",
  "J( c #CF8E2EFF",
  "H{ c #D2891DFF",
  "Js c #D2BA8FFF",
  "J< c #D4AF76FF",
  "K: c #D4C7B2FF",
  "HB c #D6BB7AFB",
  "Hv c #D7A448FD",
  "Hz c #D8A449FD",
  "J/ c #DA9835FF",
  "J+ c #DAB681FF",
  "]P c #DBA048FF",
  "HQ c #DBC893FF",
  "J] c #DEC59EFF",
  "JL c #DFBC89FF",
  "H~ c #E0D79FFF",
  "J^ c #E4A13DFF",
  "J2 c #E4DFA7FF",
  "HP c #E8DDA2FF",
  "HS c #E8E2A5FF",
  "H! c #E8E2AAFF",
  "K> c #E9D0ABFF",
  "HC c #E9E2A5FF",
  "J% c #E9E2A7FF",
  "Hc c #E9E4A9FF",
  "Je c #E9E5B9FF",
  "Hx c #EADA98FF",
  "HI c #EAE3ABFF",
  "H` c #EAE4ABFF",
  "K3 c #ECAB49FF",
  "H} c #EEA232FF",
  "J* c #EEC284FF",
  "J7 c #EEE8BBFF",
  "JX c #EFA333FF",
  "J~ c #EFAB45FF",
  "K@ c #F0A435FF",
  "K< c #F0BB6AFF",
  "Jq c #F0C88EFF",
  "K, c #F1CF9EFF",
  "Jm c #F1E5D2FF",
  "J0 c #F2CA8FFF",
  "HU c #F2DDA3FF",
  "JK c #F2DDC0FF",
  "HZ c #F2DEA2FF",
  "K1 c #F4B557FF",
  "xa c #F4CC90FF",
  "Ja c #F5F0DAFF",
  "H' c #F6DA9EFF",
  "K2 c #F7B350FF",
  "JB c #F89C15FF",
  "JT c #F8C985FF",
  "H| c #F9AC3BFF",
  "J. c #F9AC3CFF",
  "J9 c #F9D093FF",
  "JJ c #F9ECD9FF",
  "JV c #FAA528FF",
  "J! c #FAB44DFF",
  "Jg c #FAB44EFF",
  "HE c #FAC06BFF",
  "J1 c #FAD194FF",
  "J& c #FAD79AFF",
  "Jy c #FADBA7FF",
  "Ju c #FAF4E0FF",
  "JN c #FBCB85FF",
  "Jf c #FBCD89FF",
  "Jw c #FBD294FF",
  "HA c #FBD699FF",
  "J8 c #FBD99EFF",
  "Jp c #FCE0B1FF",
  "Ji c #FCE2B7FF",
  "Jn c #FCF5EBFF",
  "JQ c #FDB64CFF",
  "JW c #FDBC5CFF",
  "J} c #FDBD5DFF",
  "HY c #FDC36EFF",
  "K# c #FDD08CFF",
  "[_ c #FDD69CFF",
  "Jb c #FDE9CCFF",
  "JH c #FDF5EAFF",
  "H] c #FED496FF",
  "[p c #FED498FF",
  "Jc c #FED599FF",
  "Jx c #FED9A2FF",
  "{i c #FEDAA5FF",
  "J[ c #FEDAA6FF",
  "J{ c #FEDBA8FF",
  "Jz c #FEDCABFF",
  "JR c #FEDDAEFF",
  "JE c #FEDEAFFF",
  "JC c #FEE1B7FF",
  "Jv c #FEE2B7FF",
  "Jl c #FEE3BAFF",
  "HT c #FEE8C8FF",
  "Jh c #FEF3E3FF",
  "JZ c #FFEDD3FF",
  "Jk c #FFEED7FF",
  "JA c #FFF5E6FF",
  "HR c #FFF5E7FF",
  "JS c #FFF6E9FF",
  "JD c #FFF9EFFF",
  "Jj c #FFFBF4FF",
  "JG c #FFFCF8FF",
  "JF c #FFFCF9FF",
  "   c none",
  
  // Image data
  "                                                                ",
  "                                                                ",
  "                                                                ",
  "                        HpHaHsHdHfHgHhHj                        ",
  "                    KzHkHlHzHxHcHcHxHvHbHnKz                    ",
  "                HmHMHNHBHVHCHZHAHAHZHSHDHFHGHHHJ                ",
  "            9/HKHLHPHIHUHVHYHTHRHRHTHEHWHQH!H~H^H/H(            ",
  "            H)H_H`H'H]H]H[H{H}H|J.JXJoJOJ+H]H'H!J@J#            ",
  "          +jJ$J%J&H]H]H]J*J=J-J;J:J>J,J<J1H]H]J&J2J3J4          ",
  "          J5J6J7J8H]H]H]H]H]J9J0JqxaJwH]H]H]H]J8JeJrJt          ",
  "          J5J6JyJuJiH]H]H]H]H]H]H]H]H]H]H]H]JpJaJsJdJt          ",
  "          J5J6JfJgJhJjJkJlJzJxJcJcJxJzJvJbJnJmJM>zJdJt          ",
  "          J5J6JNJBJVJCJZJAJSJDJFJGJHJJJKJLJPJIJUJYJdJt          ",
  "          J5J6JTJBJV{iJRJEJWJQJ!J~J^J/J(J)J_JIJUJ`JrJt          ",
  "          J5J'J]JBJV[_J[J{J}JQJ!J~J^J/J(J)J_JIJUJ|K.KX          ",
  "          KoKOrKK+K@K#[pJcJ}JQJ!J~J^J/J(J)J_K$K%B*K&K*          ",
  "          K=K-K;kamlK:K>K,K<K1K2K3]PK4K5K6K7K8K9K0Kq:r          ",
  "          KwKeV0katt5(3ktXKrKtgWe[k>fog(Ky}fKuK9KiKq:r          ",
  "          KwKeBFkattKp6;KaKsKtgWe[k>fog(Ky}fKuK9KdKq:r          ",
  "          KwKet<kattBwwS32<{KtgWe[k>fog(Ky}fKuK9KfKq:r          ",
  "          KwKet=katt2tKpt;KgKtgWe[k>fog(Ky}fKuK9KhKj:r          ",
  "          KwKegskatt]i2eW3yBKtgWe[k>fog(Ky}fKuK9KkKlKx          ",
  "          KcKv]akatt]i2eW3yBKtgWe[k>fog(Ky}fKuK9KbKnKm:k        ",
  "          KMKvKNkatt]i2eW3yBKtgWe[k>fog(Ky}fKuK9KBKnKV+k        ",
  "          KCKZe[eQtt]i2eW3yBKtgWe[k>fog(Ky}fKuKAKSKDKF@n        ",
  "          @:KGKH2r]iKJ2eW3yBKtgWe[k>fog(KyfmfmKkKKF.tS:l        ",
  "          &0KLKPKIKU5(KY2wKsKTgWe[KRKEB45HKWKQK!K~K^&)&j        ",
  "            @CK/K(F1K)K_KJ2eK;V0K`(s<0K'K]K[K{K}K|5U&T          ",
  "              &j+rL.LXLoLOL+GQGQGQ9fL@L#L$L%L&:Q&;              ",
  "                  &j+>@5:W9)T2L*L=*8=(*^:W*':E                  ",
  "                          &j%.&^&^&0%.+j                        ",
  "                                                                "
};
