/* XPM */
const char *xpm_tango_devices_camera_photo[] = {
  // Header (width height colors chars-per-pixel)
  "32 32 442 2",
  
  // Colors (code mode value)
  "+j c #00000001",
  "&j c #00000002",
  "&^ c #00000006",
  "@C c #00000007",
  "@B c #0000000A",
  "@: c #00000010",
  "@m c #00000013",
  "@o c #00000014",
  "[~ c #00000017",
  "5U c #0000001B",
  "&) c #0000001C",
  "9b c #0000001E",
  "+N c #00000026",
  "+J c #00000027",
  "*F c #0000002B",
  "9) c #0000002C",
  "&R c #0000002F",
  ",W c #00000039",
  "*/ c #0000003C",
  "jY c #0000004B",
  "*5 c #00000052",
  "kV c #0000005F",
  "r> c #010101FF",
  "*H c #0303034E",
  "J' c #030303FF",
  "c> c #040404FF",
  "i. c #05050533",
  "JU c #050505FF",
  "c. c #060606FF",
  "I1 c #060707FF",
  "fK c #07070724",
  "I' c #09090956",
  "J! c #090909FF",
  "D) c #0A0A0AFF",
  "I7 c #0A0B0BFF",
  "D' c #0B0B0BFF",
  "JK c #0C0C0CFF",
  "cy c #0F0F0FFF",
  "I! c #10101060",
  "DK c #111111FF",
  "P} c #111415FF",
  "J^ c #121212FF",
  "P| c #131314FF",
  "IQ c #1414148C",
  "IY c #1414148D",
  "J[ c #151515FF",
  "I~ c #1717174E",
  "J( c #181818FF",
  "JT c #191919FF",
  "Ir c #191B1CFF",
  "IU c #1A1A1AA0",
  "IW c #1A1D1DB2",
  "IT c #1B1F1FA7",
  "U# c #1C1C1C09",
  "U, c #1C1C1C1B",
  "Lu c #1C1D1CFF",
  "I` c #1D1D1D9C",
  "Ll c #1E1E1EFA",
  "Ii c #1F2021FF",
  "I6 c #1F2325FF",
  "`h c #202020FF",
  "Lp c #2121218A",
  "Ly c #21212195",
  "J) c #222222FF",
  "Ls c #222322FA",
  "I. c #222525FF",
  "I^ c #232323AA",
  "JY c #232323FF",
  "`c c #242424FF",
  "Li c #242524FF",
  "IH c #25252598",
  "I_ c #252525D0",
  "IG c #26262692",
  "I/ c #262626DD",
  "Lx c #2727272E",
  "U& c #272C2E90",
  "Lz c #2828283F",
  "Lc c #28282853",
  "Lv c #28282878",
  "LL c #282828D0",
  "LN c #282828F1",
  "II c #282828F6",
  "%H c #282828FF",
  "U. c #282B2DC8",
  "LK c #29292963",
  "La c #2929296A",
  "LH c #2929297B",
  "Lb c #2929299C",
  "Ln c #292929BB",
  "Lm c #292929D3",
  "LM c #292929E0",
  "PO c #292929E2",
  "L_ c #292929EF",
  "LP c #292929F9",
  "I@ c #292929FA",
  "Pw c #292929FB",
  "au c #292929FF",
  "I= c #292A2AFF",
  "Ik c #292C2DFF",
  "U> c #292E3163",
  "JE c #2A2A2AFF",
  "L) c #2B2B2B72",
  "I( c #2B2B2BF5",
  "L( c #2B2B2BF6",
  "LF c #2B2C2BEB",
  "I] c #2B2F31C2",
  "I* c #2B3031FF",
  "U$ c #2B313383",
  "U: c #2B323494",
  "LG c #2C2C2BDC",
  "LJ c #2C2C2C1D",
  "2| c #2C2C2C23",
  "U@ c #2C3132D2",
  "U= c #2C32355C",
  "U- c #2C333591",
  "U* c #2D2D2D11",
  "IF c #2D2D2DF6",
  "U; c #2D3234A3",
  "I< c #2D3335FF",
  "I) c #2E2E2EFC",
  "UX c #2E3334CD",
  "l* c #2E3436FF",
  "IJ c #2F2F2EFE",
  "IA c #2F3436FF",
  "lS c #2F3537FF",
  "U% c #2F3637F7",
  "JI c #303030FF",
  "Uo c #303537FF",
  "l& c #303638FF",
  "`{ c #313131FF",
  "2o c #33333305",
  "Io c #33393BFF",
  "IC c #343433F3",
  "LI c #343433F6",
  "IV c #343433F9",
  "k{ c #343434FF",
  "L0 c #34393436",
  "I8 c #34393BFF",
  "Iy c #343A3BFF",
  "lc c #343A3CFF",
  "Pb c #353533FF",
  "Pv c #353633FF",
  "L= c #353634FF",
  "Ie c #353B3CFF",
  "Lt c #36363621",
  "Pe c #363734FF",
  "Lr c #363735B8",
  "Lw c #363835B3",
  "Lq c #363835FF",
  "IR c #363A3BFF",
  "Pn c #373735FF",
  "I2 c #373839FF",
  "Ic c #373E3EFF",
  "z1 c #383838FF",
  "IS c #383B3DFB",
  "Ij c #383E3FFF",
  ")f c #393A38FF",
  "IZ c #393C3EFB",
  "PH c #3A3F43FF",
  "Pg c #3A4042FF",
  "ID c #3B3B3AF2",
  "': c #3B3B3BFF",
  "I- c #3B4041FF",
  "Le c #3C3C3C11",
  "Pc c #3C3E3AFF",
  "Id c #3D3F3BFF",
  "I9 c #3D4244FF",
  "I[ c #3E4243FF",
  "P( c #3E4345FF",
  "I& c #3F4445FF",
  "P] c #3F4446FF",
  "8] c #40404004",
  "JW c #404040FF",
  "P{ c #404345FF",
  "U+ c #404546FF",
  "ad c #414141FF",
  "Pf c #41494CFF",
  "Pm c #42423FFF",
  "It c #424647FF",
  "I5 c #424648FF",
  "nO c #434343FF",
  "PI c #434642FF",
  "Ix c #434748FF",
  "n+ c #444444FF",
  "P/ c #44494AFF",
  "Ke c #454644FF",
  "IE c #45494BFF",
  "LU c #464646F6",
  "G8 c #464646FF",
  "L5 c #465D460B",
  "I| c #474B4CFF",
  "UO c #474B4DFF",
  "P` c #474C4BFF",
  "I3 c #474C4EFF",
  "Ks c #484847FF",
  "IX c #484B4DFF",
  "JL c #494949FF",
  "f/ c #4A4A4AFE",
  "Ip c #4A4D4EFF",
  "I; c #4A4E50FF",
  "kv c #4B4B4BFF",
  "PP c #4B4E4AFF",
  "P7 c #4B5153FF",
  ":- c #4C4C4CFF",
  "PQ c #4C4F50FF",
  "P6 c #4D5559FF",
  ";< c #4E4E4BFF",
  "LB c #4E4E4EFB",
  "LD c #4E4F4CFF",
  "IM c #4F524EFF",
  ";] c #505050FF",
  "P> c #505150FF",
  "L9 c #50534EEA",
  "L6 c #50534FFD",
  "PD c #505455FF",
  "I% c #505656FF",
  "PU c #51524EFF",
  "Pt c #515352FF",
  "PA c #515455FF",
  "PS c #515556FF",
  "I, c #515757FF",
  "kx c #525252FF",
  "LQ c #52534FFF",
  "I+ c #525453FF",
  "L8 c #525551FF",
  "IO c #525557FF",
  "L7 c #535652FF",
  "PR c #535759FF",
  "IB c #545553FF",
  "P# c #545654FF",
  ":8 c #545753FF",
  "PZ c #545758FF",
  "P8 c #545856FF",
  "L/ c #555553F9",
  "I{ c #555656FF",
  "P! c #555859FF",
  "P5 c #555F64FF",
  "B7 c #565854FF",
  "LW c #575854FF",
  "I$ c #575A56FF",
  "P& c #585855FF",
  "L] c #585857FF",
  "Il c #585858FF",
  "IK c #585957FF",
  "PL c #585B57FF",
  ">' c #595959FF",
  "Pr c #595A58FF",
  ">| c #595C58FF",
  "Ld c #5A5B58FF",
  ":i c #5A5D59FF",
  "P% c #5B5B58FF",
  "5| c #5B5B5BFF",
  "]' c #5B5D5AFF",
  "/8 c #5B5E5AFF",
  "5{ c #5C5C5CFF",
  "LV c #5C5D59FF",
  "Iz c #5C5D5DFF",
  "PG c #5C5F60FF",
  "Pj c #5C605BFF",
  "If c #5D5D5BFF",
  "5[ c #5D5D5DFF",
  "L! c #5D5E59FF",
  "P: c #5D5E5BFF",
  "zo c #5D6063FF",
  "PC c #5D6263FF",
  "PY c #5D6768FF",
  "Ih c #5E5E5DFF",
  "P4 c #5E696EFF",
  "Ig c #5F5F5DFF",
  "LY c #5F5F5EFC",
  "Pd c #5F6467FF",
  "P2 c #5F6564FF",
  "L' c #60605FFF",
  "LC c #60615DFF",
  "IN c #616360FF",
  "P0 c #626261FF",
  "3a c #62635EFF",
  "PM c #626462FF",
  "PF c #626464FF",
  ",+ c #626561FF",
  "LZ c #656661FF",
  "P3 c #656E71FF",
  ">J c #666762FF",
  "P* c #666763FF",
  "L~ c #666863FF",
  "2: c #676863FF",
  "In c #676866FF",
  ":; c #686868FF",
  "P^ c #686969FF",
  "PW c #68696AFF",
  "PJ c #686B67FF",
  "6/ c #696969FF",
  "P9 c #696A66FF",
  "Px c #696C68FF",
  "P< c #6A6A67FF",
  "Nv c #6A6A6AFF",
  "LA c #6A6B66FF",
  "i% c #6A6B67FF",
  ">Y c #6B6C67FF",
  "P~ c #6B6C6CFF",
  "PE c #6B6C6DFF",
  "PN c #6B777CFF",
  ">( c #6C6C6CFF",
  "3v c #6C6D68FF",
  "P= c #6E6F6BFF",
  "LS c #6F706BFF",
  "L4 c #70716FBF",
  "P@ c #70726DFF",
  "Ps c #707375FF",
  "P[ c #717172FF",
  "k8 c #717370FF",
  "P' c #717778FF",
  "L| c #72736FFF",
  "P- c #737372FF",
  ",c c #737373FF",
  "*% c #73746FFF",
  "I} c #737474FF",
  "4I c #737570FF",
  "Py c #737F83FF",
  "t4 c #747474FF",
  "24 c #747570FF",
  "GA c #747572FF",
  "Kh c #747573FF",
  "L[ c #747672FF",
  "t= c #747673FF",
  "Ib c #757571FF",
  "P1 c #757874FF",
  "66 c #777874FF",
  "Iv c #787975FF",
  "Kw c #787A78FF",
  "Im c #787B77FF",
  "P. c #7A7B77FF",
  "L^ c #7B7B78FF",
  "L3 c #7B7D7AE4",
  "Iu c #7C7D7CFF",
  "IL c #7C7F7BFF",
  "Pa c #7C8081FF",
  "P+ c #7D7E7CFF",
  "IP c #7D7F7CFF",
  "Ia c #7E7E7BFF",
  "=< c #7E7E7EFF",
  "Iw c #7E7F7EFF",
  "Po c #7F7F7CFF",
  "Is c #7F807BFF",
  "gZ c #7F807DFF",
  "mk c #808080FF",
  "5e c #80817FFF",
  ",x c #828282FF",
  "g( c #828380FF",
  "I> c #828482FF",
  "Pk c #828581FF",
  "Pu c #829095FF",
  "W: c #848781FF",
  "P$ c #848884FF",
  "LT c #858684FF",
  "I4 c #868682FF",
  "I# c #868886FF",
  "LE c #868985FF",
  "I: c #878783FF",
  "K' c #878885FF",
  "3r c #888985FF",
  "eB c #888A85FF",
  "Wp c #888B85FF",
  "Pp c #888D90FF",
  "-Y c #898989FF",
  "P_ c #898A89FF",
  "5@ c #8A8C87FF",
  "v+ c #8A8C88FF",
  "mV c #8B8B8BFF",
  "P) c #8B8C88FF",
  "PK c #8B8C8BFF",
  "PT c #8C9294FF",
  "Pi c #8C9597FF",
  "PX c #8D8D8AFF",
  "<Y c #8D8E8AFF",
  ")v c #8D908BFF",
  "fo c #8E8F8BFF",
  "Ph c #8E8F8EFF",
  "fO c #8E908BFF",
  "ga c #8F908DFF",
  "PV c #8F9495FF",
  "Lf c #90908EFF",
  "Pq c #91918EFF",
  "P, c #91928DFF",
  "5a c #91928EFF",
  "Iq c #92928FFF",
  "Lg c #929290FF",
  "h@ c #929490FF",
  "e` c #929491FF",
  "P; c #939390FF",
  "I0 c #939493FF",
  "YU c #939692FF",
  "=v c #949494FF",
  "Lh c #959692FF",
  "Lj c #989895FF",
  "e( c #989A97FF",
  "1c c #999B97FF",
  "L< c #999B99A8",
  "Lk c #9A9A97FF",
  "t9 c #9A9B98FF",
  "Pl c #9A9C99FF",
  "Vj c #9B9B9AFF",
  "<= c #9B9B9BFF",
  "2p c #9B9C98FF",
  "<9 c #9B9C9BFF",
  "5s c #9C9D99FF",
  "2$ c #9D9D9DFF",
  "L, c #9E9E9ED8",
  "]y c #9FA09DFF",
  "L> c #A0A0A023",
  "[l c #A0A19DFF",
  "L- c #A1A1A139",
  "6} c #A1A1A1FF",
  "Pz c #A1A3A0FF",
  "L2 c #A2A3A2C3",
  "PB c #A3ADAFFF",
  "L; c #A4A4A4F2",
  "L: c #A5A5A5EA",
  "L} c #A5A9A5FF",
  "hX c #A6A8A4FF",
  "L` c #A7A8A5FF",
  "E) c #A7A8A6FF",
  "L{ c #A7ABA7FF",
  "LR c #A8A9A6FF",
  "L1 c #ABABAAE7",
  "]p c #ACAEAAFF",
  "<v c #ADADADFF",
  "(/ c #ADAEABFF",
  "jl c #B0B1AEFF",
  ",A c #BCBCBCFF",
  ":6 c #C4C4C4FF",
  ",V c #D2D2D2FF",
  "%B c #D4D5D4FF",
  ":o c #D5D5D5FF",
  ",v c #DBDBDBFF",
  "=b c #DDDDDDFF",
  "&_ c #E0E0E0FF",
  "+Z c #E1E1E1FF",
  ";G c #E7E7E7FF",
  "+W c #F6F6F6FF",
  "1U c #FFFFFFFF",
  "   c none",
  
  // Image data
  "                                                                ",
  "                                                                ",
  "                                L-L;6}6}6}6}L:L>                ",
  "                                L,=b1U1U1U1U,VL<                ",
  "                                L1+Z+W+W+W+W,vL2                ",
  "                                L3%B:o:o:o:o,VL4                ",
  "                              L5L6L7]']']']'L8L9                ",
  "                              L0LqLwLeLeLeLeLrLqLt              ",
  "                              LyLu`c%H%H%H%HLiLuLp              ",
  "                            LaLsLdLfLgLhLjLk2pL=LlLz            ",
  "          2oLxLcLvLbLnLmLMLNLBt9g(LVLCLZLALS*%K'LD%HLFLGLHLJ    ",
  "    8]LKLLLPLILULYKhLTe`]yLRE)LELWLQLWL!3a2:2:L~gZgaK'L^L/L(L)  ",
  "  2|L_f/K'L`jl]phX[l1cL'G8G8L]L[L{L{L{L{L{L{L{L}*%24L|P.PXPo%H  ",
  "  POP+jl5sfOP@P#B7eBh@G81U1UG8P$P%P&LV3aP*>Y>YP=v+2:3vP-GAP;%H  ",
  "  %H(/5@eBeBP:P>)fP,P<G8;G;GG8P1;<P2P3P4P5P6P7P8664IP95[P0Pq%H  ",
  "  Pw<9e(<YWpeBW:5a)vPeKsJLJLPrPtPyPuPiPpPaPsPdPfPgP12:2:2:fo%H  ",
  "  PwPhPjPkPlPzYUPxPcPvPbPnPmPMPNPBPVPCPZPAPSPDPFPGPHPJ2:2:PX%H  ",
  "  PwPKPL:8:8L8PPPIPcPvPbPnPUPYPTPRPEPWPZPQP!P~P^P/zoP(>J2:P)%H  ",
  "  PwP_PL:8:8L8PPPIPcPvPbPnP`P'P]P[P{P}c.D)P|I.IXlcIoIOI+2:3r%H  ",
  "  I@I#I$:8:8L8PPPIPcPvPbPnI%I&l*I*J'c>J'r>JUJ(I=l*l*I-I;i%I:%H  ",
  "  I@I>:i:8:8L8PPPIPcPvPbPnI,l*I<I1J[=<5|JIDKJ^`hI2l*l*I3VjI4%H  ",
  "  Pw5e/8:8:8L8PPPIPcPvPbPnI5l*I6I7nO,A<=:6;]JEJYadI8l*I9I0Iq%H  ",
  "  %HIw/8:8:8L8PPPIPcPvPbPnIel*IrJ!JW=<&_&_mk>'z1adItl*Iy2$K'%H  ",
  "  auIu:i:8:8L8PPPIPcPvPbPnl&l*IiJKJ[,x,v<vmVt4kv:-Ipl*l&IaIs%H  ",
  "  auKw/8:8:8L8PPPIIdIfIgIhIjl*IkJTD'`c>(-Y=v,cIlIzIxl*IcIvIbI@&j",
  "+jI@InIm,+>|L7IML8INIBIVICIZl*IAk{cyJ)':5{:;Nv5{P~l&l*ISIDIFIG@o",
  "@CIHIJIKk8ILIPt=PMKeIIIUIYITl*l*IRJW`c`{n+kx5|,cIEl*l*IWIQI!&R5U",
  "&j@oI~I^I/I(I)L_I_I`I'jYjYjYI]l*l*I[>'I{>'6/I}I|l*l*U.kV*5,W+J@m",
  "  &j@:9b+N*F9)9)9)9)9)9)9)9)i.UXl*l*UoI&UOU+lSl*l*U@*H*/9)&)@B  ",
  "        &j&^&^&^&^&^&^&^&^&^&^U#U$U%l*l*l*l*l*U%U&fK[~@C&j      ",
  "                                  U*U=U-U;U:U>U,@C&j            ",
  "                                                                "
};
