/* XPM */
const char *xpm_tango_devices_camera_video[] = {
  // Header (width height colors chars-per-pixel)
  "32 32 312 2",
  
  // Colors (code mode value)
  "+j c #00000001",
  "&j c #00000002",
  "&T c #00000003",
  "%. c #00000004",
  "&0 c #00000005",
  "&^ c #00000006",
  "@C c #00000007",
  "@B c #0000000A",
  "+> c #0000000B",
  "&; c #0000000D",
  "&Z c #00000011",
  "+k c #00000016",
  "[~ c #00000017",
  "=N c #00000018",
  "@5 c #0000001A",
  "5U c #0000001B",
  "&) c #0000001C",
  "*Q c #0000001D",
  "9b c #0000001E",
  "&A c #00000020",
  "+g c #00000021",
  ":W c #00000025",
  "9) c #0000002C",
  "rF c #0000002D",
  "*^ c #0000002E",
  "=( c #00000033",
  "tD c #00000038",
  "B% c #0000003D",
  "*o c #00000041",
  "*z c #00000043",
  "[G c #00000044",
  "YZ c #0D0D0D50",
  "UP c #19427EFF",
  "U^ c #1A3F74FF",
  "U~ c #1A3F76FF",
  "U! c #1A4077FF",
  "U{ c #1B3D6FFF",
  "U[ c #1B3D70FF",
  "Y. c #1C3C6AFF",
  "U| c #1C3C6CFF",
  "U} c #1C3D6DFF",
  "UL c #1C4582FF",
  "Y= c #1D3963FF",
  "Y* c #1D3A65FF",
  "Y& c #1D3A66FF",
  "Y% c #1D3B68FF",
  "Y$ c #1D3C6AFF",
  "J~ c #1E1E1EFF",
  "Y3 c #1E385EFF",
  "Y2 c #1E385FFF",
  "Y; c #1E3860FF",
  "Y- c #1E3961FF",
  "Y1 c #1E3962FF",
  "UQ c #1E437BFF",
  "%d c #1F1F1FFF",
  "Y6 c #1F3659FF",
  "Y5 c #1F375AFF",
  "Y4 c #1F375CFF",
  "Y8 c #203556FF",
  "Y7 c #203657FF",
  "Uc c #204F95FF",
  "U] c #214376FF",
  "Y# c #22416FFF",
  "UK c #234C87FF",
  "Ug c #235297FF",
  "`c c #242424FF",
  "gg c #252525FF",
  "Ux c #255398FF",
  "Y@ c #264472FF",
  "Uz c #265498FF",
  "Yh c #2727274E",
  "UW c #274C82FF",
  "Ul c #275699FF",
  "U' c #28497BFF",
  "UC c #285391FF",
  "Uk c #28569AFF",
  "U` c #294C7EFF",
  "U_ c #294C7FFF",
  "UE c #294E85FF",
  "UY c #29518AFF",
  "UD c #295594FF",
  "Uj c #29579AFF",
  "UR c #2A5087FF",
  "8, c #2A528DFF",
  "UZ c #2A538EFF",
  "UV c #2A5494FF",
  "UB c #2A5696FF",
  "Uh c #2A589AFF",
  "Yj c #2B2B2B42",
  "UJ c #2B538EFF",
  "UH c #2B5490FF",
  "UT c #2C528AFF",
  "UG c #2C5693FF",
  "UN c #2C5798FF",
  "UM c #2D599AFF",
  "UF c #2E5795FF",
  "Um c #2E5A9BFF",
  "UI c #305284FF",
  "Un c #305C9DFF",
  "Ub c #305D9EFF",
  "U/ c #3B567FFF",
  "ag c #3E3E3EFF",
  "G8 c #464646FF",
  "ru c #484848FF",
  "YX c #4B5F7FFF",
  "Yk c #4E4E4E8C",
  "YC c #4F4F4FA2",
  "Yz c #515151A1",
  "Yl c #535353A2",
  "Yx c #565656AC",
  "Yd c #58585860",
  ">' c #595959FF",
  "Y< c #5B6B82FF",
  "5{ c #5C5C5CFF",
  "Yc c #5D5D5DBE",
  "Y: c #5D6D83FF",
  ":0 c #5E5E5EFF",
  "1x c #60606008",
  ":8 c #616161FF",
  "2F c #6666660F",
  "YV c #666666E2",
  ">L c #666666FF",
  "Y+ c #67778EFF",
  "Yv c #686868E3",
  "U3 c #69696911",
  "Yg c #696969E5",
  "FI c #6A6A6A0C",
  "Ys c #6A6A6A18",
  "YN c #6A6A6AF4",
  "Nv c #6A6A6AFF",
  "U6 c #6B6B6B32",
  "lI c #6B6B6B4A",
  "Dh c #6B6B6BF9",
  "YB c #6B6B6BFE",
  ":@ c #6B6B6BFF",
  "Yr c #6C6C6C74",
  "Y0 c #6C6C6C8E",
  "U7 c #6C6C6CA0",
  "U8 c #6C6C6CE9",
  "uP c #6C6C6CF5",
  "Yn c #6C6C6CFA",
  "Ua c #6C6C6CFE",
  ">( c #6C6C6CFF",
  "U0 c #6D6D6D59",
  "mY c #6D6D6DE3",
  "Ui c #6D6D6DEE",
  "Uu c #6D6D6DF6",
  "B[ c #6D6D6DF7",
  "Yp c #6D6D6DF8",
  "YM c #6D6D6DF9",
  "Ym c #6D6D6DFB",
  "Ud c #6D6D6DFD",
  "t: c #6D6D6DFF",
  "Ya c #6E6E6EE7",
  "U9 c #6E6E6EED",
  "Db c #6E6E6EF5",
  "Yi c #6E6E6EF7",
  "Yu c #6E6E6EF8",
  "Yb c #6E6E6EF9",
  "Yy c #6E6E6EFD",
  ";[ c #6E6E6EFF",
  "U2 c #6F6F6F57",
  "!% c #6F6F6F7C",
  "Y> c #6F6F6FA5",
  "U5 c #6F6F6FE3",
  "UA c #6F6F6FEA",
  "Yt c #6F6F6FEF",
  "U1 c #6F6F6FF2",
  "mr c #6F6F6FF6",
  "t1 c #6F6F6FFF",
  "Yo c #707070B9",
  "b_ c #707070DC",
  "Up c #707070F1",
  "YO c #707070F2",
  "6^ c #707070FF",
  "Y9 c #707A89FF",
  "Yq c #71717187",
  "U< c #7171718A",
  "U( c #717171CB",
  "mT c #717171FF",
  "U) c #718198FF",
  "Uq c #7272729B",
  "Us c #727272A3",
  "Uw c #727272B0",
  "Ur c #727272D7",
  ";W c #727272FF",
  "Y, c #737373D3",
  "Ue c #737373DC",
  "Uy c #737373DF",
  ",c c #737373FF",
  "U4 c #7474740B",
  "t4 c #747474FF",
  ";F c #757575FF",
  ",l c #767676FF",
  ",j c #797979FF",
  ",h c #7A7A7AFF",
  "=1 c #7B7B7BFF",
  ">_ c #7C7C7CFF",
  ",z c #7D7D7DFF",
  "UU c #7D8CA2FF",
  "=< c #7E7E7EFF",
  "=, c #7F7F7FFF",
  "<F c #80808006",
  "mk c #808080FF",
  ";@ c #818181FF",
  "Ye c #828282F9",
  "-^ c #848484FF",
  "-K c #878787FF",
  "US c #8794A9FF",
  "-O c #888888FF",
  "-Y c #898989FF",
  "-v c #8A8A8AFF",
  "Yf c #8B8B8BF8",
  "mV c #8B8B8BFF",
  ";* c #8C8C8CFF",
  "-i c #8D8D8DFF",
  "9M c #8E8E8EFF",
  "Yw c #919191F8",
  "pb c #919191FF",
  "Uv c #939EAEFF",
  "=v c #949494FF",
  "<' c #959595FF",
  "2@ c #969696FF",
  ",F c #979797FF",
  ";f c #989898FF",
  "2# c #999999FF",
  ":^ c #9A9A9AFF",
  "<= c #9B9B9BFF",
  ",J c #9C9C9CFF",
  "ay c #9D9D9DF5",
  "2$ c #9D9D9DFF",
  "<y c #9E9E9EFF",
  "5, c #A0A0A0FF",
  "Uf c #A0A8B2FF",
  "6} c #A1A1A1FF",
  ";I c #A2A2A2FF",
  "6| c #A3A3A3FF",
  "=C c #A4A4A4FF",
  "=W c #A5A5A5FF",
  "-6 c #A6A6A6FF",
  "-V c #A7A7A7FF",
  "<Q c #A8A8A8FF",
  "-` c #A9A9A9FF",
  ",C c #AAAAAAFF",
  "<b c #ACACACFF",
  "<v c #ADADADFF",
  ",Z c #AEAEAEFF",
  "tz c #AFAFAFFF",
  "Ut c #B0B0B0FA",
  ">F c #B0B0B0FF",
  "<# c #B2B2B2FF",
  "<s c #B3B3B3FF",
  ";8 c #B4B4B4FF",
  "6{ c #B5B5B5FF",
  "9m c #B8B8B8FF",
  "5X c #B9B9B9FF",
  ",G c #BABABAFF",
  "5> c #BBBBBBFF",
  ",A c #BCBCBCFF",
  "<W c #BDBDBDFF",
  "<1 c #BEBEBEFF",
  ";= c #BFBFBFFF",
  ";g c #C0C0C0FF",
  ";U c #C1C1C1FF",
  ";Z c #C2C2C2FF",
  ":* c #C3C3C3FF",
  ";Y c #C5C5C5FF",
  ":= c #C6C6C6FF",
  ",1 c #C7C7C7FF",
  ":7 c #C8C8C8FF",
  ">x c #C9C9C9FF",
  ",< c #CACACAFF",
  "+a c #CBCBCBFF",
  "#+ c #CCCCCCFF",
  ",2 c #CDCDCDFF",
  ";_ c #CECECEFF",
  "+c c #CFCFCFFF",
  "+v c #D0D0D0FF",
  "+b c #D1D1D1FF",
  ",V c #D2D2D2FF",
  ",, c #D3D3D3FF",
  ",n c #D4D4D4FF",
  ",N c #D6D6D6FF",
  ",M c #D7D7D7FF",
  ",B c #D8D8D8FF",
  ",b c #D9D9D9FF",
  ",v c #DBDBDBFF",
  ",^ c #DCDCDCFF",
  "=b c #DDDDDDFF",
  "=[ c #DEDEDEFF",
  "={ c #DFDFDFFF",
  "&_ c #E0E0E0FF",
  "+Z c #E1E1E1FF",
  "+A c #E2E2E2FF",
  "&I c #E4E4E4FF",
  ";3 c #E5E5E5FF",
  ";b c #E6E6E6FF",
  ";G c #E7E7E7FF",
  ":# c #E8E8E8FF",
  ",$ c #EAEAEAFF",
  ":, c #EBEBEBFF",
  ":> c #ECECECFF",
  ";9 c #EDEDEDFF",
  ":< c #EEEEEEFF",
  ";A c #EFEFEFFF",
  ";` c #F1F1F1FF",
  ";' c #F2F2F2FF",
  ":O c #F3F3F3FF",
  ":3 c #F4F4F4FF",
  ":5 c #FAFAFAFF",
  "1U c #FFFFFFFF",
  "   c none",
  
  // Image data
  "                                                                ",
  "                                                                ",
  "                                                                ",
  "                                                                ",
  "                                                                ",
  "                                                                ",
  "                                        U<>(>(>(>(>(>(U1U2      ",
  "                    1xU3U3U3U3U4        B[<=5,5,5,5,5,<'U5      ",
  "              U6U7U86^,c,c,c,c,ct1>(>(>(t:t4-^;I-6-i,h<'U9      ",
  "    <FU0UqUwUe>_<b+b=b+A;',$,$:>;A;`:3:3:O:,,b,F;W-O,h-iU9      ",
  "  FIUray,V=[&_;g=,;W=,+b1U:>,$,$:,:,:,:,:,;9:#;'<=mk,h-KU9      ",
  "  !%Ut;';b+A:*:@>'J~gg:@+v,B,M,M,M,M,N,N,N,,;_,,&_6^,h,zmY      ",
  "  Uy;G&_=b,^>_5{1U<1>'G8=1,n+b+b+b+b,V,V,2:7:*;=;96^UuUilI      ",
  "  Up:<=b=b,^;[`c>x;Y9m-Yt1,,+a#+#+#++a,1;Z<19m6{;G,h            ",
  "  mr;9=b=b,^,h%dag,Z,N<y,z+a<W,G=<>(>(>(>(>(>(>(>(>(>(>(>(UaUs  ",
  "  mr:,=b=b=b;ZNvru;F<'t45>6{5>5,-^,G<1;U;Y:7#++c,,,N,b=b&_<1Ud  ",
  "  mr:#;=;I6};I<#=1mT=,tz;g<Q2@;@-iUfUgUhUjUkUlUlUzUzUxUc,M5>Db  ",
  "  mr;b-`:51U:5-`,B+b+a,n,A-O=,-v=vUvUhUbUnUmUMUNUBUVUCUZ,v<#UA  ",
  "  mr&I5X1U1U1U5X,B,M,M,n>Fmk;8,J;fUSUDUFUGUHUJ8,UKULUPUI&_-Vb_  ",
  "  mr+A#+&_+A&_#+,B,l:8+a<Q,z5>=v<yUUUYUTURUEUWUQU!U~U^U/;32$U(  ",
  "  mr=b,^=[=[=[,^,N:0G8:*6}>_:*mV=CU)U_U`U'U]U[U{U}U|Y.YX;b=vYo  ",
  "  YO;_;=+v;=+b;=+c:=;g,G,J,j;W;W-`Y+Y@Y#Y$Y%Y&Y*Y=Y-Y;Y:+Z9MY>  ",
  "  Y,;8,1-6>x-6,<:*<19m<#2#;@:@>LtzY<Y1Y-Y2Y3Y4Y5Y6Y7Y8Y9,v-OY0  ",
  "  YqYwmV;=;*;=;*<16{tz,C<'mk=<>(<s<W;Z:=,<;_,,,B,^+Z;3;b={YeYr  ",
  "  2FYt=W6^<smT<s<b<v-V6}mV=<=,,lt:t1t1t1t1t1t1mT6^YyYuYiYpYaYs  ",
  "  %.YdB[Yf-^pb-K-O=v;f,F<'2@2$=C:^-i<',J6|-V,C2$YgYh&A%.        ",
  "    [~YjYkYlYzYxYxYcYvuPYbYnYmYMYNYNDh>(>(YBYVYCYZtD+g@B@B&0    ",
  "    &0=N:W9)*^*^*^*^*^*^*^*^*^=(B%*z[G[G[G[G*z*oB%rF&)=N5U&Z&j  ",
  "        &T&^@C@C@C@C@C@C@C@C@C+>[~*Q9b9b9b9b9b&)@5=N=N+k[~&;    ",
  "                                +j&T&T&T&T&T&T&T&T&T&T&T&j      ",
  "                                                                ",
  "                                                                "
};
