/* XPM */
const char *xpm_tango_devices_computer[] = {
  // Header (width height colors chars-per-pixel)
  "32 32 382 2",
  
  // Colors (code mode value)
  "+j c #00000001",
  "&j c #00000002",
  "&T c #00000003",
  "%. c #00000004",
  "&0 c #00000005",
  "&^ c #00000006",
  "@C c #00000007",
  ":E c #00000008",
  "+> c #0000000B",
  "&; c #0000000D",
  "%H c #0000000E",
  ":l c #0000000F",
  "+r c #00000012",
  "*' c #00000015",
  "+k c #00000016",
  "&) c #0000001C",
  "9b c #0000001E",
  "&A c #00000020",
  "&Y c #00000023",
  "+J c #00000027",
  "tS c #00000029",
  "rn c #0000002A",
  "9) c #0000002C",
  "&W c #00000034",
  "*8 c #00000036",
  "!$ c #00000047",
  ":g c #0000004A",
  "&E c #0000005E",
  "&O c #00000063",
  "&/ c #00000076",
  "Ri c #09090957",
  "Rh c #0D0D0D88",
  "fL c #0F0F0F97",
  "U# c #1C1C1C09",
  "Rj c #1D1E1DA9",
  "Ta c #1D3F6FFF",
  "Rk c #1E201EB0",
  "R8 c #21211F7A",
  "RN c #21212127",
  "Tb c #214577FF",
  "a< c #22222225",
  "Tv c #234678FF",
  "Ru c #242423A1",
  "TZ c #244B80FF",
  "R> c #27272348",
  "Tp c #284976FF",
  "TP c #285189FF",
  "TC c #2A5083FF",
  "Ew c #2C2C2C17",
  "T[ c #2C4093FF",
  "T! c #2C5791FF",
  "Rl c #2E2E2E1C",
  "TQ c #2E5892FF",
  "G7 c #2F5E9AFF",
  "Y} c #303A83FF",
  "YW c #303A84FF",
  "YT c #313B83FF",
  "YY c #313C83FF",
  "TL c #31588EFF",
  "YU c #323C83FF",
  "T- c #323C86FF",
  "YP c #323D84FF",
  "Ts c #323D89FF",
  "T9 c #323E89FF",
  "TW c #325C94FF",
  "TT c #325C95FF",
  "YI c #333D84FF",
  "Th c #333E8AFF",
  "Tm c #33408DFF",
  "TR c #335D95FF",
  "T_ c #3364A2FF",
  "T7 c #343F88FF",
  "TI c #34418FFF",
  "TF c #34428FFF",
  "TE c #345D95FF",
  "Kc c #35353518",
  "T/ c #354594FF",
  "TY c #364391FF",
  "Tc c #365784FF",
  "T) c #374696FF",
  "TG c #375D91FF",
  "Ti c #385680FF",
  "TH c #385E92FF",
  "LX c #3939396C",
  "T& c #394388FF",
  "TJ c #395E92FF",
  "TK c #395F92FF",
  "TV c #3A5D8DFF",
  "Y] c #3C468BFF",
  "T6 c #3C577DFF",
  "TM c #3C5F8EFF",
  "E1 c #3E3E3E31",
  "TN c #3E608FFF",
  "TB c #3F6190FF",
  "R* c #40434063",
  "Tj c #42618BFF",
  "R7 c #43434354",
  "T] c #434D98FF",
  "YL c #444892FF",
  "T{ c #444D98FF",
  "Tk c #44628DFF",
  "Tl c #44638DFF",
  "Tz c #45638DFF",
  "YR c #464B93FF",
  "Tx c #46648EFF",
  "R: c #47494593",
  "R9 c #484A47E2",
  "T0 c #48638AFF",
  "Tu c #48648BFF",
  "E0 c #4A4A421F",
  "Tq c #4A658CFF",
  "Ry c #4B4D4AEE",
  "Tw c #4B668CFF",
  "Te c #4B668DFF",
  "R5 c #4C4D4CD8",
  "Tr c #4C668DFF",
  "Tt c #4C678DFF",
  "Eq c #4D4D441E",
  "Ty c #4D678EFF",
  "R& c #4E4E4E69",
  "T; c #4E668AFF",
  "T5 c #4E678AFF",
  "R6 c #4F4F4F8B",
  "Rp c #50505093",
  "T: c #50698BFF",
  "R@ c #515151E4",
  "R, c #515250F9",
  "T> c #51698BFF",
  "T, c #51698CFF",
  "T< c #516A8CFF",
  "R# c #52525289",
  "T1 c #526A8CFF",
  "Ro c #535353EC",
  "T2 c #536B8DFF",
  "R0 c #545754FC",
  "Y| c #546A8AFF",
  "T3 c #546C8DFF",
  "T4 c #546C8EFF",
  "6[ c #555555FF",
  "R% c #565656F7",
  "Rt c #565855FD",
  "R4 c #565955FD",
  "RO c #575857FB",
  "T. c #576C8CFF",
  "TX c #576D8CFF",
  "To c #586D8CFF",
  "TO c #586E8DFF",
  "R$ c #595958FB",
  "T+ c #596E8DFF",
  "T@ c #596F8DFF",
  "T# c #5A6F8EFF",
  "T} c #5B5B5BEC",
  "T$ c #5B708EFF",
  "T% c #5B708FFF",
  "5{ c #5C5C5CFF",
  "Rq c #5E605DFD",
  "YQ c #5E728FFF",
  "Rr c #5F615EFE",
  "T' c #616261EC",
  "Y! c #617491FF",
  "Y~ c #617591FF",
  "Ra c #626262B3",
  "Q% c #626262FF",
  "Y^ c #627592FF",
  "Y/ c #627692FF",
  "R= c #636662F7",
  "Y( c #637692FF",
  "Y) c #637693FF",
  "Y_ c #637793FF",
  "Y` c #647793FF",
  "Y' c #657894FF",
  "T( c #696969EC",
  "6/ c #696969FF",
  "E9 c #696B689B",
  "Rz c #6B6B6B4C",
  "Rw c #6C6F6AFD",
  "Re c #6D706CFE",
  "E5 c #6E6E6A89",
  "mB c #6F6F6FEC",
  "t1 c #6F6F6FFF",
  "R; c #70726FFB",
  "R{ c #7171716A",
  "Rs c #737373BD",
  ";F c #757575FF",
  "Z2 c #767676EC",
  "E= c #78787442",
  "=1 c #7B7B7BFF",
  "TD c #7C7D7CEC",
  "E6 c #7E807AB6",
  "E# c #7F807CAB",
  "@> c #80808002",
  ";@ c #818181FF",
  "E2 c #8486839C",
  "Tn c #858584EC",
  "Rd c #868686B3",
  ":b c #868984FF",
  "-O c #888888FF",
  "E> c #898C86FF",
  "Tg c #8B8B8BEC",
  "RI c #8B8E884D",
  "R3 c #8B8F8AFF",
  "E; c #8D8F89FF",
  "E7 c #8E908BFC",
  "-, c #8F8F8FFF",
  "E8 c #8F918CFA",
  "YD c #909090FB",
  "kh c #90918EFF",
  "YG c #9191915D",
  "YH c #919191FA",
  "T8 c #929292EC",
  "YS c #929292F4",
  "h@ c #929490FF",
  "YE c #939393EC",
  "YF c #939393F0",
  "E, c #939791FF",
  "YK c #949493E3",
  "YA c #94949479",
  "Qu c #969892FF",
  "Em c #989A94FF",
  "Rf c #9C9C9C89",
  "Rx c #9C9C9C9F",
  "R- c #9EA29CFF",
  "RB c #9F9F9F9F",
  "R] c #A3A3A2BF",
  "ho c #A3A4A0FF",
  "ll c #A3A6A0FF",
  "RP c #A7A7A78B",
  "E* c #A7A9A3DC",
  "E< c #A7A9A3FB",
  "Rg c #A8A8A835",
  "R} c #A8AAA4A2",
  "E- c #A9ABA5F7",
  "rc c #ADB0AAFF",
  ")] c #ADB1AAFF",
  "Rc c #B1B1B1BB",
  "E: c #B2B3ADFF",
  "E$ c #B3B6AEED",
  "QI c #B6B9B2FF",
  "B; c #B7B7B6FF",
  "t; c #B8B9B7FF",
  "E4 c #B8BAB6F9",
  "Y[ c #B9B9B8FF",
  ",; c #B9B9B916",
  "R[ c #B9B9B9D0",
  "0L c #B9BBB7FF",
  "eW c #BABBB9FF",
  "yT c #BABCB6FF",
  "Rb c #BABDB688",
  "Rm c #BABDB6F9",
  "Rn c #BABDB6FC",
  "l: c #BABDB6FF",
  "RK c #BBBDB6D2",
  "RC c #BBBDB7F0",
  "RU c #BBBEB7F5",
  "R2 c #BCBDBBFF",
  "RM c #BDBFB760",
  "E& c #BFC2BEFF",
  "Q' c #C1C4BDFF",
  "E3 c #C3C5C0FC",
  "E@ c #C3C6BEFC",
  "Rv c #C5C5C56E",
  "RV c #C5C5C584",
  "_I c #C6C8C4FF",
  "E. c #C8CAC4FF",
  "EX c #C8CAC5FF",
  "eO c #C8CAC7FF",
  "yK c #C8CBC6FF",
  "4{ c #CACCC8FF",
  "yV c #CBCDC8FF",
  "3Y c #CBCDC9FF",
  "Eo c #CBCECAFF",
  "EO c #CCCECAFF",
  "RL c #CDCDCDB8",
  "R| c #CDCFC8FC",
  "gA c #CDCFCBFF",
  "R_ c #CED1C9FF",
  "rX c #CED1CAFF",
  "r. c #CED2CAFF",
  "R. c #CFD1CBFF",
  "T| c #CFD2CBFF",
  "XJ c #CFD2CCFF",
  "RX c #D0D2CBFF",
  "Q0 c #D0D3CCFF",
  "eM c #D1D2CFFF",
  "}D c #D1D3CEFF",
  "R< c #D2D4D1FF",
  "T` c #D2D5CFFF",
  "R' c #D2D6CFFF",
  "T^ c #D3D6D2FF",
  "yG c #D4D5D1FF",
  "R1 c #D4D5D3FF",
  "X) c #D4D6D1FF",
  "09 c #D4D7D0FF",
  "XK c #D4D7D1FF",
  "}} c #D5D6D2FF",
  "UB c #D5D6D3FF",
  "oB c #D5D7D1FF",
  "TS c #D6D6D2FF",
  ",O c #D6D8D2FF",
  "_: c #D6D9D3FF",
  "|% c #D7D8D3FF",
  "f^ c #D7D9D3FF",
  "TU c #D7D9D6FF",
  "RJ c #D7DAD2FF",
  "_; c #D7DAD4FF",
  "E% c #D8DAD5FF",
  "XV c #D8DAD6FF",
  "wA c #D8DBD5FF",
  "T~ c #D9DCD7FF",
  "|< c #DADBD7FF",
  "W2 c #DADBD9FF",
  "RZ c #DADCD4FF",
  "yC c #DADCD8FF",
  "cj c #DADDD8FF",
  "R+ c #DADDD9FF",
  "RY c #DADED5FF",
  "xA c #DADED8FF",
  "K7 c #DADFD9FF",
  "g^ c #DBDCD9FF",
  "E+ c #DBDDD5FF",
  "TA c #DBDDD7FF",
  "0I c #DBDDD9FF",
  "RT c #DBDFD6FF",
  "xC c #DBE0D9FF",
  "|e c #DCDED9FF",
  "r9 c #DCDEDAFF",
  "RR c #DCDFD7FF",
  "RE c #DCE0D7FF",
  "RW c #DDE1D8FF",
  "Tf c #DEE0DAFF",
  "RQ c #DEE1D9FF",
  "R! c #DEE2DAFF",
  "fp c #DFE0DDFF",
  "Td c #DFE1DBFF",
  "R~ c #DFE2DBFF",
  "Ky c #E0E2DFFF",
  "R^ c #E0E3DBFF",
  "R/ c #E0E4DCFF",
  "R( c #E1E4DDFF",
  "hc c #E1E4DFFF",
  "!@ c #E2E4DFFF",
  ":j c #E2E4E0FF",
  "R) c #E2E5DEFF",
  ".: c #E3E4DFFF",
  "T= c #E3E5DFFF",
  "T* c #E3E5E0FF",
  ":w c #E3E5E1FF",
  "wl c #E3E6E0FF",
  "Y{ c #E4E6E0FF",
  "3} c #E4E6E2FF",
  "R` c #E4E7E1FF",
  "RA c #E5E7E1FF",
  ">5 c #E6E7E6FF",
  "xg c #E6E8E3FF",
  "|t c #E7E8E4FF",
  "RS c #E7E9E3FF",
  "q[ c #E7E9E4FF",
  "YJ c #E8E9E4FF",
  "|4 c #E8E9E5FF",
  "r0 c #E8E9E8FF",
  "qD c #E8EAE5FF",
  "c- c #E8EBE6FF",
  "RD c #EAEBE6FF",
  "RF c #ECEEE9FF",
  "#i c #EDEDEBFF",
  "o. c #EDEEECFF",
  "RG c #EEF0EBFF",
  "lt c #EFEFEEFF",
  "{T c #EFF0EEFF",
  "4[ c #F0F1EFFF",
  ";z c #F0F2EFFF",
  "RH c #F1F2EEFF",
  "f8 c #F1F2F0FF",
  "0@ c #F2F3F0FF",
  "}8 c #F2F3F1FF",
  "Xg c #F3F4F1FF",
  ";~ c #F4F5F3FF",
  "3] c #F5F6F4FF",
  "X' c #F7F8F6FF",
  "2a c #F9FAF8FF",
  "}1 c #FBFBFAFF",
  "   c none",
  
  // Image data
  "                                                                ",
  "          YAYSYDYDYDYDYDYDYDYDYDYDYDYDYDYDYDYDYDYDYFYG          ",
  "          YHr9|4|4|4|4|4|4|4|4|4|4YJ|t|t|t|t|t|t|teMYK          ",
  "          -,qDYLYPYIYPYPYPYUYUYUYUYYYYYTYTYTYRq[xg|eYE          ",
  "          -,xgYWYQY!Y~Y^Y^Y/Y(Y)Y_Y`Y`Y'Y'Y'Y]|eY[r9YE          ",
  "          -,Y{Y}Y|T.TXToToTOT+T@T#T#T#T$T$T%T&T*T*XVYE          ",
  "          -,T=T-T;T:T>T,T<T1T1T1T2T2T3T4T5T6T7XVeWg^T8          ",
  "          -,.:T9T0TqTqTwTeTrTtTtTyTuTiTpTaTaTsTdTff^Tg          ",
  "          -OhcThTjTkTlTzTzTzTxTxTcTvTbTbTbTbThoBt;|<Tn          ",
  "          ;@hcTmTMTNTNTNTBTBTVTCTZTZTZTZTZTZTmTATATSTD          ",
  "          =1hcTFTGTHTHTJTKTLTPTPTPTPTPTPTPTPTI}DB;TUZ2          ",
  "          ;FhcTYTTTRTETWTQT!T!T!T!T!T!T!T!T!TY_:T~T^mB          ",
  "          t1!@T/G7G7G7G7G7G7G7G7G7G7G7G7G7G7T/XKwAyGT(          ",
  "          6/:jT)T_T_T_T_T_T_T_T_T_T_T_T_T_T_T)T`_;X)T'          ",
  "          Q%:wT]T[T[T[T[T[T[T[T[T[T[T[T[T[T[T{Q0,OX)T}          ",
  "          5{3}T|T|T|T|R.R.RXK7xCxAXJrXrXrXrXrXrXoB}}Ro          ",
  "          ROfpyCyCyCyCyCyCyCR+cjcjyCyCyCyCyCyCyC0IeOR@          ",
  "          R#R$6[6[6[6[6[6[6[6[6[6[6[6[6[6[6[6[6[6[R%R&          ",
  "              +j&0&;R*R=R-rcrcrcrcrcrcllR;R:+k%H@C&j            ",
  "            &T&;+k&AR>R,:b0LR<>5r0R1R2R3R4R5R6R7a<:l%.          ",
  "            @C+r9btS&WR8R9R0RqRwReRrRtRyRuRiLXRpRaRsRdRfRg      ",
  "            &j+>+k&Arn&W:g&ORhRjRkfL&/&E!$*89)&Y&)*'RlRzRxRcRv@>",
  "    +jRbRnl:l:l:l:l:l:l:l:l:l:l:l:l:l:l:l:l:l:l:l:l:RmRM@CRNRBRV",
  "  +jU#RCRZRARSRDRFRGRHXg3]X'2a}1}12aX'3]XgRHRGRFRDRSRJRK:E,;RLRP",
  "  &0RIRUr.RYRYRYRTRTRRRERWRQR!R~R^R/R(R)R)09R_wlY{R`R'RnR]R[R{&;",
  "  :ER}R|q[qDc-|%E.EXyK4{4{yV3YEoEOgA;zf80@;zE+W2;~;~{TE@E#+J+j  ",
  "+j%HE$E%o.o.o._I;~;~;~;~;~;~;~;~;~W2Ky4[4[4[|eE&lt4[}8UBE*+r&j  ",
  "%.E=E-)]E;E;E;E:khkhkhkhkhkhkhkhkhhoEmE>E>E>QIQ'QuE,h@yTE<E1%.  ",
  "&^E2E3#i#i#i#i#i#i#i#i#i#i#i#i#i#i#i#i#i#i#i#i#i#i#i#i#iE4E5&0  ",
  "%.E6E7E8E8E8E8E8E8E8E8E8E8E8E8E8E8E8E8E8E8E8E8E8E8E8E8E8E7E9&j  ",
  "+j&0KcE0E0E0E0E0E0E0E0E0E0E0E0E0E0EqEqEqEqEqEqEqEqEqEqEqEw&^    ",
  "                                                                "
};
