/* XPM */
const char *xpm_tango_devices_drive_harddisk[] = {
  // Header (width height colors chars-per-pixel)
  "32 32 174 2",
  
  // Colors (code mode value)
  "+j c #00000001",
  "&j c #00000002",
  "&^ c #00000006",
  ":E c #00000008",
  ":k c #0000000C",
  "%H c #0000000E",
  "+r c #00000012",
  "[~ c #00000017",
  "@5 c #0000001A",
  "5U c #0000001B",
  "9b c #0000001E",
  "&V c #0000001F",
  "Ee c #00000022",
  "9) c #0000002C",
  "9c c #0000003A",
  "9] c #0000003F",
  "*6 c #00000040",
  "*( c #00000042",
  "*. c #00000045",
  "9z c #3A3A3A5D",
  "8] c #40404004",
  "9j c #48484858",
  "8# c #49494907",
  "8W c #4E4E4E17",
  "98 c #4E4E4E1A",
  "9l c #505050E3",
  "9> c #51515148",
  "9h c #515151D6",
  "9k c #515151E3",
  "9# c #5252524E",
  "9u c #52525279",
  "9g c #525252DF",
  "8S c #53535322",
  "8r c #53535359",
  "8< c #53535375",
  "8' c #53535378",
  "9p c #5353537E",
  "8@ c #535353A9",
  "8A c #535353AA",
  "9, c #535353B3",
  "8& c #535353B6",
  "8l c #535353BC",
  "9a c #535353D3",
  "8e c #535353D9",
  "9@ c #535353DE",
  "9d c #535353F8",
  "9f c #535353FD",
  ";D c #535353FF",
  "8k c #54545443",
  "8Q c #54545486",
  "97 c #545454AE",
  "7' c #545454BD",
  "83 c #545454ED",
  "9y c #5555551B",
  "7` c #55555524",
  "8[ c #555555E5",
  "6[ c #555555FF",
  "9s c #575757DB",
  "8+ c #585858FC",
  "7] c #595959FD",
  "5| c #5B5B5BFF",
  "5{ c #5C5C5CFF",
  "8E c #5F5F5FF9",
  "1x c #60606008",
  "9t c #626262FB",
  "99 c #676767FB",
  "8D c #696969FE",
  "=< c #7E7E7EFF",
  "=, c #7F7F7FFF",
  "@> c #80808002",
  "-^ c #848484FF",
  "-K c #878787FF",
  "-v c #8A8A8AFF",
  ";* c #8C8C8CFF",
  "9M c #8E8E8EFF",
  "-, c #8F8F8FFF",
  "2+ c #909090FF",
  "pb c #919191FF",
  ",7 c #929292FF",
  "=L c #939393FF",
  "=v c #949494FF",
  "<' c #959595FF",
  "2@ c #969696FF",
  ",F c #979797FF",
  ";f c #989898FF",
  "2# c #999999FF",
  "2$ c #9D9D9DFF",
  "<y c #9E9E9EFF",
  "<m c #9F9F9FFF",
  "5, c #A0A0A0FF",
  "6} c #A1A1A1FF",
  ";I c #A2A2A2FF",
  "6| c #A3A3A3FF",
  "=C c #A4A4A4FF",
  "=W c #A5A5A5FF",
  "-6 c #A6A6A6FF",
  "-V c #A7A7A7FF",
  "<Q c #A8A8A8FF",
  "-` c #A9A9A9FF",
  ",C c #AAAAAAFF",
  "6' c #ABABABFF",
  "<b c #ACACACFF",
  "<v c #ADADADFF",
  ",Z c #AEAEAEFF",
  "tz c #AFAFAFFF",
  ">F c #B0B0B0FF",
  ":& c #B1B1B1FF",
  "<# c #B2B2B2FF",
  "<s c #B3B3B3FF",
  ";8 c #B4B4B4FF",
  "6{ c #B5B5B5FF",
  "=p c #B6B6B6FF",
  ",S c #B7B7B7FF",
  "9m c #B8B8B8FF",
  "5X c #B9B9B9FF",
  ",G c #BABABAFF",
  "5> c #BBBBBBFF",
  "<W c #BDBDBDFF",
  ";= c #BFBFBFFF",
  ";g c #C0C0C0FF",
  ";U c #C1C1C1FF",
  ";Z c #C2C2C2FF",
  ":* c #C3C3C3FF",
  ":6 c #C4C4C4FF",
  ";Y c #C5C5C5FF",
  ",1 c #C7C7C7FF",
  ">x c #C9C9C9FF",
  "+a c #CBCBCBFF",
  ",2 c #CDCDCDFF",
  "+c c #CFCFCFFF",
  "+v c #D0D0D0FF",
  "+b c #D1D1D1FF",
  ",, c #D3D3D3FF",
  ",n c #D4D4D4FF",
  ":o c #D5D5D5FF",
  ",N c #D6D6D6FF",
  ",M c #D7D7D7FF",
  ",B c #D8D8D8FF",
  ",b c #D9D9D9FF",
  ",m c #DADADAFF",
  ",v c #DBDBDBFF",
  ",^ c #DCDCDCFF",
  "=b c #DDDDDDFF",
  "=[ c #DEDEDEFF",
  "={ c #DFDFDFFF",
  "&_ c #E0E0E0FF",
  "+Z c #E1E1E1FF",
  "+A c #E2E2E2FF",
  "+S c #E3E3E3FF",
  "&I c #E4E4E4FF",
  ";3 c #E5E5E5FF",
  ";b c #E6E6E6FF",
  ";G c #E7E7E7FF",
  ":# c #E8E8E8FF",
  ":2 c #E9E9E9FF",
  ",$ c #EAEAEAFF",
  ":, c #EBEBEBFF",
  ":> c #ECECECFF",
  ";9 c #EDEDEDFF",
  ";T c #F0F0F0FF",
  ";' c #F2F2F2FF",
  ":O c #F3F3F3FF",
  ":3 c #F4F4F4FF",
  "=a c #F5F5F5FF",
  "+W c #F6F6F6FF",
  ":9 c #F7F7F7FF",
  ";R c #F8F8F8FF",
  ":v c #F9F9F9FF",
  ":5 c #FAFAFAFF",
  ";Q c #FBFBFBFF",
  ";7 c #FCFCFCFF",
  "=q c #FDFDFDFF",
  "=w c #FEFEFEFF",
  "   c none",
  
  // Image data
  "                                                                ",
  "                                                                ",
  "                                                                ",
  "                                                                ",
  "          7`7'7]5{5{5{5{5{5{5{5{5{5{5{5{5{5|5|5|8+8@8#          ",
  "          8&tz;7=w=q=q;7;7;Q;Q:5:v;R;R:9+W=a:3:O;'<'8<          ",
  "        1x83=a:>+Z+A+S+A+A+Z&_={=[=b=b,^,v,m,b,B&I=[8e+j        ",
  "        8r,F;R;3:#+A&I;b;b;3&I+Z={=[=[={=b,v,b&_=b;9=<8k        ",
  "        8l={:>&_+S;b:#;G;b&I+A={=[+Z+A+A+Z={=b,b,M+A:*8A        ",
  "      8S8D:5+Z&I;G;G;b;3+S+Z&_&_+A+S+S+Z&_=[=b,^,b,b:28E8W      ",
  "      8Q<W;T+Z;3;3&I+S+A&_&_+Z+S&I+S+Z={={=b,^,v,m,B&I;I8'      ",
  "    8]8[;T&I;3&I+A+Z&_={&_+A&I&I+A+A&_=[=b,^,^,v,m,m,m,B9@@>    ",
  "    9#pb=a,^;G+A&_={={+Z+S&I&I+A+Z&_=[=b,^,^,v,v,v+Z:o;3=,9>    ",
  "    9,,B;G,^;b&I=[={+A&I&I+A+A+Z={=[=b,^,^,^,v,v+Z+Z:o,^<W97    ",
  "  9899=a,^,v,v;b:2+S+S+S+A&_&_={=b=b,^,^,^,^=b;b&I:o:o:o&_9t9y  ",
  "  9u=p:,=b,m,v,v+A;9:>;G+A={=[=b=b,^,^={+S:#:2=b,N:o:o,B=b2$9p  ",
  "  9a:2+Z:9;G,m,m,m,v={&I:2:,:,:,:,,$:,;G+S,v,M,N:o,n+A+W,m,,9s  ",
  "  9d+W,^=b,v,^,^,^,^,^,^,^,^,^,^,^,^,v,v,m,m,b,B,B,M,N,M:o:#6[  ",
  "  ;D;T&_+Z+Z&_&_={={=[=b=b=b,^,^,v,v,m,m,m,b,B,M,M,N,N:o:o+v;D  ",
  "  ;D:>,G,G5X9m,S6{;8<s<#:&tz,Z<v<b6',C<Q-V-6=W=C;I6}5,<m<m5X;D  ",
  "  ;D,$,G,G-^-v,72#<y6|-V,C<b<v,Z6',C;f;Y,F:*=v;Z,7;U2+;=<m,S;D  ",
  "  ;D:2,G5X-K-v,72#<y6|-V,C6'<v<v6',C;f;Y2@:*=v;Zpb;g-,;=<m;8;D  ",
  "  ;D;G,G5X9M;*,72#<y6|-V,C6'<v<b,C-`;f;Y2@:*=L;Upb;g-,;=<m<#;D  ",
  "  ;D&I,G9m9m6{5X<s>Ftz<b<v,C<b<b,C-`,F:6<':*=L;U2+;=-,;=5,,Z9f  ",
  "  9g;Y+Z&_=[,^,v,b,M:o,,+b+c,2+a>x,1:6;Z;=<W5>5X=p;8<#:&tz<'9h:E",
  "  9j9k;D;D;D;D;D;D;D;D;D;D;D;D;D;D;D;D;D;D;D;D;D;D;D;D;D;D9l9z%H",
  "  :E5U9)9c*6*.*.*.*.*.*.*.*.*.*.*.*.*.*.*.*.*.*.*.*.9]*(9c9)[~&j",
  "    +j:k[~&VEeEeEeEeEeEeEeEeEeEeEeEeEeEeEeEeEeEeEeEe9b@5+r&^    ",
  "                                                                ",
  "                                                                ",
  "                                                                ",
  "                                                                "
};
