/* XPM */
const char *xpm_tango_devices_drive_optical[] = {
  // Header (width height colors chars-per-pixel)
  "32 32 229 2",
  
  // Colors (code mode value)
  "+j c #00000001",
  "&j c #00000002",
  "&T c #00000003",
  "%. c #00000004",
  "&0 c #00000005",
  "&^ c #00000006",
  "@C c #00000007",
  ":E c #00000008",
  "*7 c #00000009",
  "+> c #0000000B",
  ":k c #0000000C",
  "&; c #0000000D",
  "%H c #0000000E",
  ":l c #0000000F",
  "@: c #00000010",
  "&Z c #00000011",
  "@m c #00000013",
  "*' c #00000015",
  "+k c #00000016",
  "@n c #00000019",
  "@5 c #0000001A",
  "&) c #0000001C",
  "*Q c #0000001D",
  "&A c #00000020",
  "+g c #00000021",
  "Ee c #00000022",
  ":W c #00000025",
  "+N c #00000026",
  "er c #00000028",
  "rn c #0000002A",
  "9) c #0000002C",
  "rF c #0000002D",
  "*^ c #0000002E",
  "&R c #0000002F",
  "T2 c #00000032",
  "=( c #00000033",
  "*G c #00000037",
  "tD c #00000038",
  ",W c #00000039",
  "*o c #00000041",
  "*) c #00000048",
  "*D c #00000050",
  "E! c #16161646",
  "EI c #1C1C1C66",
  "EU c #2424243F",
  "EF c #2D2D2D61",
  "ED c #3A3A3A58",
  "8] c #40404004",
  "EZ c #40404060",
  "ry c #4A4A4AFF",
  "kc c #4D4D4DFF",
  "8W c #4E4E4E17",
  "ES c #505050DF",
  "EA c #505050E1",
  ";] c #505050FF",
  "El c #51515129",
  "9> c #51515148",
  "EC c #515151D4",
  "Ej c #5252525A",
  "Ec c #52525282",
  "EV c #525252DE",
  "kx c #525252FF",
  "Ed c #53535331",
  "En c #53535347",
  "Eh c #53535368",
  "Ei c #53535369",
  "Ex c #53535387",
  "Ef c #53535394",
  "Ey c #5353539D",
  "Em c #535353A6",
  "8@ c #535353A9",
  "8l c #535353BC",
  "Ek c #535353C7",
  "Ea c #535353CE",
  "Ep c #535353E6",
  "EN c #535353E7",
  "EB c #535353F0",
  "Et c #535353F9",
  "Z; c #535353FC",
  "GQ c #535353FE",
  ";D c #535353FF",
  "Es c #54545449",
  "EQ c #54545485",
  "EM c #545454AB",
  "Er c #545454B1",
  "Eu c #545454B7",
  "#P c #55555503",
  "Ez c #55555521",
  "Ev c #555555E4",
  "Eb c #565656E2",
  ":w c #575757FF",
  "Eg c #585858EE",
  "<@ c #5A5A5A11",
  "Zd c #5C5C5CF7",
  "EY c #5F5F5F86",
  "1x c #60606008",
  "Q% c #626262FF",
  "rr c #636363FF",
  ":4 c #646464FF",
  "6( c #656565FF",
  ">L c #666666FF",
  "<L c #696969FD",
  "6/ c #696969FF",
  ":@ c #6B6B6BFF",
  "EP c #6C6C6CC0",
  ">( c #6C6C6CFF",
  ";[ c #6E6E6EFF",
  "EW c #747474BF",
  "t4 c #747474FF",
  "EG c #757575C9",
  ";F c #757575FF",
  "<5 c #7A7A7AC1",
  ",h c #7A7A7AFF",
  ",z c #7D7D7DFF",
  "@> c #80808002",
  "EE c #808080E7",
  "Gx c #818181F7",
  ";@ c #818181FF",
  "ET c #828282E8",
  "ER c #828282F8",
  "Vn c #828282FA",
  ",x c #828282FF",
  "EL c #838383F8",
  "EH c #858585F8",
  "1{ c #868686FF",
  "-Y c #898989FF",
  "-v c #8A8A8AFF",
  "mV c #8B8B8BFF",
  "-i c #8D8D8DFF",
  "2+ c #909090FF",
  "pb c #919191FF",
  ",7 c #929292FF",
  "=v c #949494FF",
  "2# c #999999FF",
  ",J c #9C9C9CFF",
  "<m c #9F9F9FFF",
  "5, c #A0A0A0FF",
  "EK c #A2A2A2FB",
  ";I c #A2A2A2FF",
  "6| c #A3A3A3FF",
  "=C c #A4A4A4FF",
  "=W c #A5A5A5FF",
  "-6 c #A6A6A6FF",
  "-V c #A7A7A7FF",
  "<Q c #A8A8A8FF",
  "-` c #A9A9A9FF",
  ",C c #AAAAAAFF",
  "6' c #ABABABFF",
  "<b c #ACACACFF",
  "<v c #ADADADFF",
  ",Z c #AEAEAEFF",
  "tz c #AFAFAFFF",
  ">F c #B0B0B0FF",
  ":& c #B1B1B1FF",
  "EJ c #B2B2B2FB",
  "<# c #B2B2B2FF",
  "<s c #B3B3B3FF",
  ";8 c #B4B4B4FF",
  "6{ c #B5B5B5FF",
  "=p c #B6B6B6FF",
  ",S c #B7B7B7FF",
  "9m c #B8B8B8FF",
  "5X c #B9B9B9FF",
  ",G c #BABABAFF",
  ",A c #BCBCBCFF",
  "<W c #BDBDBDFF",
  "<1 c #BEBEBEFF",
  ";g c #C0C0C0FF",
  ";U c #C1C1C1FF",
  ";Z c #C2C2C2FF",
  ":* c #C3C3C3FF",
  ":6 c #C4C4C4FF",
  ";Y c #C5C5C5FF",
  ",1 c #C7C7C7FF",
  ":7 c #C8C8C8FF",
  ",< c #CACACAFF",
  "+a c #CBCBCBFF",
  "#+ c #CCCCCCFF",
  ",2 c #CDCDCDFF",
  ";_ c #CECECEFF",
  "+c c #CFCFCFFF",
  "+v c #D0D0D0FF",
  "+b c #D1D1D1FF",
  ",V c #D2D2D2FF",
  ",, c #D3D3D3FF",
  ",n c #D4D4D4FF",
  ":o c #D5D5D5FF",
  ",N c #D6D6D6FF",
  ",M c #D7D7D7FF",
  ",B c #D8D8D8FF",
  ",b c #D9D9D9FF",
  ",m c #DADADAFF",
  ",v c #DBDBDBFF",
  ",^ c #DCDCDCFF",
  "=b c #DDDDDDFF",
  "=[ c #DEDEDEFF",
  "={ c #DFDFDFFF",
  "&_ c #E0E0E0FF",
  "+Z c #E1E1E1FF",
  "+A c #E2E2E2FF",
  "+S c #E3E3E3FF",
  "&I c #E4E4E4FF",
  ";3 c #E5E5E5FF",
  ";b c #E6E6E6FF",
  ";G c #E7E7E7FF",
  ":# c #E8E8E8FF",
  ":2 c #E9E9E9FF",
  ",$ c #EAEAEAFF",
  ":, c #EBEBEBFF",
  ":> c #ECECECFF",
  ";9 c #EDEDEDFF",
  ":< c #EEEEEEFF",
  ";A c #EFEFEFFF",
  ";T c #F0F0F0FF",
  ";` c #F1F1F1FF",
  ";' c #F2F2F2FF",
  ":O c #F3F3F3FF",
  ":3 c #F4F4F4FF",
  "=a c #F5F5F5FF",
  "+W c #F6F6F6FF",
  ":9 c #F7F7F7FF",
  ";R c #F8F8F8FF",
  ":v c #F9F9F9FF",
  ":5 c #FAFAFAFF",
  ";Q c #FBFBFBFF",
  ";7 c #FCFCFCFF",
  "=q c #FDFDFDFF",
  "=w c #FEFEFEFF",
  "   c none",
  
  // Image data
  "                                                                ",
  "                                                                ",
  "                                                                ",
  "          8WErEt;D;D;D;D;D;D;D;D;D;D;D;D;D;D;D;DEtEy8]          ",
  "          Eu9m;7=w=q=q;7;7;Q:5:5:v;R:9:9+W=a:3:O;`2+Ei          ",
  "        #PEp:O,$+Z+A+S+A+A+Z&_={=[=b=b,^,v,m,b,B={,vEa          ",
  "        EsmV:v+Z+A+A+S+S+A+Z&_={=[=[=b,^,v,m,b,B,M;9;FEd        ",
  "        8@,N:<&_+Z+A+A+A+A+Z&_={=[=[=b,^,v,m,b,B,M+S5XEf        ",
  "      <@Zd:v+A&_+Z+Z+A+A+Z+Z&_={=[=b=b,^,v,m,b,B,M,m&IEg1x      ",
  "      Eh,C:O={={&_&_+Z+Z&_&_={={=[=b,^,^,v,m,b,B,M,N;bpbEj      ",
  "      Ek;b;b=[={={&_&_&_&_={={=[=b=b,^,v,m,m,b,B,M,N,^+a8l      ",
  "    Elt4:9=[=b=[=[={={={={=[=[=[=b,^,^,v,m,b,b,B,M,N:o;b<LEz    ",
  "    Ex:*:>,^=b=b=b=[=[=[=[=[=b=b,^,^,v,m,m,b,B,M,M,N:o={<QEc    ",
  "  @>Ev;T&_,v,^,^=b=b=b=b=b=b,^,^,^,v,m,m,b,B,B,M,N,N:o,M,MEb@>  ",
  "  En,7;`,m,m,v,v,^,^,^,^,^,^,^,v,v,m,m,b,b,B,M,M,N:o,n,n&_;@9>  ",
  "  Em:o;3,b,m,m,v,v,v,v,v,v,v,v,v,m,m,b,b,B,M,M,N:o:o,n,,,B;UEM  ",
  "  EN:O,v,B,b,b,m,m,m,m,m,m,m,m,m,b,b,b,B,M,M,N,N:o,n,n,,,,;bEB  ",
  "  GQ;R:O;';';';';';';';';';';';';';`;`;`;`;`;`;T;T;T;T;T;A;G;D  ",
  "  ;D;9,G,G5X9m,S=p6{<s<#:&>Ftz<v<b6',C-`-V-6=W=C6|;I5,<m<m,G;D  ",
  "  ;D:,,G:4Q%Q%Q%Q%Q%Q%Q%Q%Q%rr:4:4rrQ%Q%Q%Q%Q%Q%Q%Q%rr>L<m9m;D  ",
  "  ;D,$,G6(;[:*;g;U;Z9m,Z,Z2#:@>(>(6/-6<#:&,A;Y:*;Z;U;[:4<m=p;D  ",
  "  ;D:#,G-Y,h,^,b,b,m,V:6;Y+b<v;I;I>F;_:*:*+b,b,M,B+c,h,z<m;8;D  ",
  "  ;D;b,G9m,7,b:>,$:>;T;G;3;b+S,m,m,M+v+c,B;G;G;b:2<W2+<m<m:&;D  ",
  "&0;D+S;U<1>F=v:,:<:<:<:<:2+A#+:7,1,1,2,M=[=[=[+Z,b-v<m;I;I,ZZ;&^",
  ":lEV:&,n,n,V<v<m:#:>:2:#:#+Z,B:o:o,B,B,B,B,b=b+b-i,J-6-6=C-YEC&Z",
  "%HEZEA;D;D;D;]Q%1{,<:>:>:2,v,B,B,B,B,m,v=b,m:&,x:wrykckx;DESED:k",
  "+j&Z&A9)T2*G,W*oEFEGEHEJ,2,M={&_={=[,,;gEKELEPEI*D*)tD=(rFEe&;  ",
  "    &j*7@:@m@m+k&AerEUEY<5ETERVnVnGxEEEWEQE!*G&R+N@5@::k@C+j    ",
  "                &j+>@m@5+g+NrnrF&R*^rFrn:W&A@n&Z%.              ",
  "                    &T+>&Z+k@5&)*Q*Q&)@n*'%H&0                  ",
  "                          &j&0@C:E:E&^&T+j                      ",
  "                                                                "
};
