/* XPM */
const char *xpm_tango_devices_drive_removable_media[] = {
  // Header (width height colors chars-per-pixel)
  "32 32 199 2",
  
  // Colors (code mode value)
  "+j c #00000001",
  "%. c #00000004",
  "&^ c #00000006",
  ":E c #00000008",
  "*7 c #00000009",
  "@B c #0000000A",
  "+> c #0000000B",
  "&; c #0000000D",
  "%H c #0000000E",
  ":l c #0000000F",
  "+r c #00000012",
  "*Q c #0000001D",
  "9b c #0000001E",
  "tS c #00000029",
  "rn c #0000002A",
  "*^ c #0000002E",
  "&R c #0000002F",
  "=( c #00000033",
  "W: c #3B3B3B56",
  "W; c #4040405C",
  "2t c #4E4E4E0D",
  "W- c #505050CD",
  "ES c #505050DF",
  "EA c #505050E1",
  "El c #51515129",
  "E] c #51515142",
  "W= c #515151DA",
  "WX c #52525251",
  "9u c #52525279",
  "W% c #5252529E",
  "E[ c #525252A1",
  "E~ c #525252EB",
  ":t c #525252F2",
  "E_ c #53535362",
  "E{ c #5353538B",
  "E( c #53535393",
  "Yl c #535353A2",
  "8A c #535353AA",
  "Wo c #535353C1",
  "E' c #535353C5",
  "W# c #535353DB",
  "E` c #535353E0",
  "W& c #535353E1",
  "Ep c #535353E6",
  "E/ c #535353EA",
  "E^ c #535353EE",
  "EB c #535353F0",
  "W* c #535353FA",
  "GQ c #535353FE",
  ";D c #535353FF",
  "W. c #54545461",
  "W+ c #54545480",
  "E) c #545454B4",
  "Kw c #5555550F",
  "9y c #5555551B",
  "Ez c #55555521",
  "W$ c #5555553F",
  "W@ c #555555DE",
  "E| c #555555E9",
  "6[ c #555555FF",
  "6] c #565656FF",
  ":w c #575757FF",
  "Il c #585858FF",
  ">' c #595959FF",
  "5| c #5B5B5BFF",
  "E} c #5C5C5CF4",
  "5{ c #5C5C5CFF",
  "5[ c #5D5D5DFF",
  ":0 c #5E5E5EFF",
  "l< c #5F5F5FFF",
  ">J c #606060FF",
  ":8 c #616161FF",
  "WO c #636363FB",
  "<, c #66666605",
  ":; c #686868FF",
  "6^ c #707070FF",
  "Ho c #757575FE",
  ",j c #797979FF",
  ",h c #7A7A7AFF",
  "=1 c #7B7B7BFF",
  ">_ c #7C7C7CFF",
  ",z c #7D7D7DFF",
  "=< c #7E7E7EFF",
  "=, c #7F7F7FFF",
  "@> c #80808002",
  "mk c #808080FF",
  ";@ c #818181FF",
  ",x c #828282FF",
  "t2 c #838383FF",
  "-^ c #848484FF",
  "t< c #858585FF",
  "1{ c #868686FF",
  "-K c #878787FF",
  "-O c #888888FF",
  "-Y c #898989FF",
  "-v c #8A8A8AFF",
  "mV c #8B8B8BFF",
  ";* c #8C8C8CFF",
  "-i c #8D8D8DFF",
  "9M c #8E8E8EFF",
  "-, c #8F8F8FFF",
  "2+ c #909090FF",
  "pb c #919191FF",
  ",7 c #929292FF",
  "=L c #939393FF",
  "=v c #949494FF",
  "<' c #959595FF",
  "2@ c #969696FF",
  ",F c #979797FF",
  ";f c #989898FF",
  "2# c #999999FF",
  ":^ c #9A9A9AFF",
  "<= c #9B9B9BFF",
  ",J c #9C9C9CFF",
  "2$ c #9D9D9DFF",
  "<y c #9E9E9EFF",
  "<m c #9F9F9FFF",
  "5, c #A0A0A0FF",
  "6} c #A1A1A1FF",
  ";I c #A2A2A2FF",
  "6| c #A3A3A3FF",
  "=C c #A4A4A4FF",
  "=W c #A5A5A5FF",
  "-6 c #A6A6A6FF",
  "-V c #A7A7A7FF",
  "<Q c #A8A8A8FF",
  "-` c #A9A9A9FF",
  ",C c #AAAAAAFF",
  "6' c #ABABABFF",
  "<b c #ACACACFF",
  "<v c #ADADADFF",
  ",Z c #AEAEAEFF",
  "tz c #AFAFAFFF",
  ">F c #B0B0B0FF",
  ":& c #B1B1B1FF",
  "<# c #B2B2B2FF",
  "<s c #B3B3B3FF",
  ";8 c #B4B4B4FF",
  "6{ c #B5B5B5FF",
  "=p c #B6B6B6FF",
  ",S c #B7B7B7FF",
  "9m c #B8B8B8FF",
  "5X c #B9B9B9FF",
  ",G c #BABABAFF",
  "5> c #BBBBBBFF",
  ",A c #BCBCBCFF",
  "<W c #BDBDBDFF",
  ";= c #BFBFBFFF",
  ";g c #C0C0C0FF",
  ";Z c #C2C2C2FF",
  ":6 c #C4C4C4FF",
  ";Y c #C5C5C5FF",
  ":= c #C6C6C6FF",
  ",1 c #C7C7C7FF",
  ":7 c #C8C8C8FF",
  ">x c #C9C9C9FF",
  ",< c #CACACAFF",
  "+a c #CBCBCBFF",
  "#+ c #CCCCCCFF",
  ",2 c #CDCDCDFF",
  ";_ c #CECECEFF",
  "+c c #CFCFCFFF",
  "+v c #D0D0D0FF",
  "+b c #D1D1D1FF",
  ",, c #D3D3D3FF",
  ",n c #D4D4D4FF",
  ":o c #D5D5D5FF",
  ",N c #D6D6D6FF",
  ",M c #D7D7D7FF",
  ",B c #D8D8D8FF",
  ",b c #D9D9D9FF",
  ",m c #DADADAFF",
  ",v c #DBDBDBFF",
  ",^ c #DCDCDCFF",
  "=[ c #DEDEDEFF",
  "={ c #DFDFDFFF",
  "&_ c #E0E0E0FF",
  "+Z c #E1E1E1FF",
  "&I c #E4E4E4FF",
  ";G c #E7E7E7FF",
  ":# c #E8E8E8FF",
  ":2 c #E9E9E9FF",
  ",$ c #EAEAEAFF",
  ":, c #EBEBEBFF",
  ":> c #ECECECFF",
  ";9 c #EDEDEDFF",
  ":< c #EEEEEEFF",
  ";A c #EFEFEFFF",
  ";T c #F0F0F0FF",
  ";` c #F1F1F1FF",
  ";' c #F2F2F2FF",
  ":O c #F3F3F3FF",
  "=a c #F5F5F5FF",
  "+W c #F6F6F6FF",
  ":9 c #F7F7F7FF",
  ";R c #F8F8F8FF",
  ":5 c #FAFAFAFF",
  ";Q c #FBFBFBFF",
  "   c none",
  
  // Image data
  "                                                                ",
  "                                                                ",
  "                                                                ",
  "                                                                ",
  "          Kw8AE~E^E^E^E^E^E^E^E^E^E^E^E^E^E^E^E^E/E(@>          ",
  "          E),Z:9;Q:5;R+W=a:O;`;T:<:>:2;G&I+Z=[,^,m-iE_          ",
  "        @>E`:<<W=W=W=W=W;I5,2$<=2#2@=vpb-,;*-v-K;I;YE'          ",
  "        E]2+;A=W=W=W=W6|6}<y,J2#,F=v,72+-imV-O1{t<,<6^El        ",
  "        E[:o,2=W=W=W=C;I<m2$:^;f<'=L2+9M;*-Y-K-^,x,C6'E{        ",
  "      2tE};',Z=W=W=W;I5,<y<=2#2@=vpb-,;*-v-Ot<t2mkmV;ZE|<,      ",
  "      W.tz={=W=W=W6|6}<y,J2#,F<',72+-imV-O1{t2;@=,>_<#mVWX      ",
  "      Wo+Z;==W=W=C;I<m2$:^;f<'=Lpb9M;*-Y-K-^,x=,,z=12@:&E)      ",
  "    EzHo:>-V=W=W6|5,<y<=2#2@=vpb-,-i-v-Ot<t2mk=<=1,h,z,SWO9y    ",
  "    W+:6+v=W=W6|6}<y,J:^,F<',72+-imV-O1{-^;@=,>_,h,h,h5,<=9u    ",
  "  +jW@;G<#=W=C;I<m2$:^;f2@=Lpb9M;*-Y-K-^,xmk,z=1,h,h,h-K>FW#+j  ",
  "  W$=L#+:;:;:;:;:;:;:;:;:;:;:;:;:;:;:;:;:;:;:;:;:;:;:;:;:^,jW$  ",
  "  W%:7,1<b<v<v<v<v<v<v-V-6-6-6-6=W=W=W5,,J<=<=<=:^:^:^2#=C;IYl  ",
  "  W&;T,^,B,b,b,m,m,m,m,m,m,m,m,m,b,b,b,B,B,M,N,N:o,n,n,,,n={Ep  ",
  "  W*;R:O:O:O:O:O:O:O:O:O:O:O:O:O:O;';';';';`;`;`;`;`;`;T;T:#W*  ",
  "  ;D;9,G,G5X9m,S=p6{<s<#:&>Ftz<v<b6',C-`<Q-6=W=C6|;I5,<m6}=pEB  ",
  "  ;D:,,G,G2+:8>J>Jl<l<:0:05[5{5{5|5|>'>'IlIl:w6]6]6[<b<m6};8EB  ",
  "  ;D,$,G,G=C;*mV-v-v-O-K-K1{t<-^t2,x;@mk=,=<,z,z>_=1;8<m6}:&EB  ",
  "  ;D:#,G5X;g,^,^,v,v,m,m,b,B,B,M,M,N:o+b+v+v+c;_;_,2,A<m6}tzEB  ",
  "  ;D;G,G9m,S=p6{;8<s:&>Ftz,Z<v6',C-`<Q-V=W=C6|;I6}5,mV6|<m<vEB  ",
  "&^GQ&I,G9m,S=p;8<s<#:&>F,Z<v<b6',C-`-V-6=W=C6|6}5,<mpb+a5,6':t:E",
  ":lW=;Z+Z&_=[,^,v,b,M:o,,+b+c,2+a>x:=:6;Z;=<W5>5X=p;8<#:&,ZpbW-+r",
  "&;W;EA;D;D;D;D;D;D;D;D;D;D;D;D;D;D;D;D;D;D;D;D;D;D;D;D;D;DESW:@B",
  "  %H9btS*^=(=(=(=(=(=(=(=(=(=(=(=(=(=(=(=(=(=(=(=(=(&R&Rrn*Q*7  ",
  "    +j&^+>&;&;&;&;&;&;&;&;&;&;&;&;&;&;&;&;&;&;&;&;&;+>:E%.      ",
  "                                                                ",
  "                                                                ",
  "                                                                "
};
