/* XPM */
const char *xpm_tango_devices_input_gaming[] = {
  // Header (width height colors chars-per-pixel)
  "32 32 254 2",
  
  // Colors (code mode value)
  "+j c #00000001",
  "&j c #00000002",
  "&T c #00000003",
  "%. c #00000004",
  "&0 c #00000005",
  "@C c #00000007",
  "@o c #00000014",
  "*' c #00000015",
  "&A c #00000020",
  ":Q c #00000024",
  "+J c #00000027",
  "er c #00000028",
  "tS c #00000029",
  "*F c #0000002B",
  "Qg c #2F2F2F1B",
  "Qc c #3F3F3F61",
  "F7 c #4D4D4D0A",
  "Ql c #50505050",
  "Qx c #505050E0",
  "El c #51515129",
  "Q3 c #51515145",
  "Qk c #515151E6",
  "Q< c #52525235",
  "Q: c #52525273",
  "Q4 c #525252C0",
  "Qz c #525252DB",
  "Qr c #53535365",
  "E{ c #5353538B",
  "Q7 c #53535390",
  "Q5 c #535353B0",
  "Qt c #535353C4",
  "Q, c #535353D2",
  "Q1 c #535353DA",
  "Ep c #535353E6",
  "Qi c #535353F6",
  ";D c #535353FF",
  "Q2 c #54545458",
  "W. c #54545461",
  "Qh c #545454E7",
  ":e c #545454FF",
  ",/ c #55555506",
  "<; c #55555509",
  "Kw c #5555550F",
  "Ez c #55555521",
  "Q9 c #555555EF",
  "Q8 c #565656EF",
  ":w c #575757FF",
  "Qp c #585858FB",
  ">' c #595959FF",
  "<@ c #5A5A5A11",
  ":q c #5A5A5AFF",
  "DS c #6262620D",
  "Q6 c #626262FD",
  "rr c #636363FF",
  "W1 c #6565655B",
  "Q- c #6565655D",
  "Q+ c #65656565",
  "2F c #6666660F",
  "<s c #66666623",
  "Q; c #66666664",
  "WE c #6666668C",
  "Wi c #66666696",
  "WR c #666666D8",
  "WJ c #666666DC",
  "Wl c #666666E4",
  "W< c #666666F3",
  "WH c #666666F8",
  ">L c #666666FF",
  ":= c #67676725",
  "W` c #67676786",
  "W, c #676767A4",
  "QO c #68686820",
  "W> c #6868682C",
  ":; c #686868FF",
  "WB c #696664F9",
  "Wu c #696665F9",
  "8D c #696969FE",
  "W8 c #6A6765FA",
  "Nv c #6A6A6AFF",
  "Qo c #6B6865F6",
  "Q= c #6B6866FF",
  "W9 c #6C6764F9",
  "Q@ c #6C6764FF",
  "W2 c #6C6966FA",
  "Qd c #6D513CFF",
  "W' c #6D6864F7",
  "t: c #6D6D6DFF",
  ";F c #757575FF",
  "@> c #80808002",
  "mV c #8B8B8BFF",
  "Qs c #8C6E57FF",
  "Qf c #8F8B88FF",
  "<= c #9B9B9BFF",
  "<m c #9F9F9FFF",
  "5, c #A0A0A0FF",
  "6} c #A1A1A1FF",
  ";I c #A2A2A2FF",
  "6| c #A3A3A3FF",
  "=C c #A4A4A4FF",
  "=W c #A5A5A5FF",
  "W_ c #A67F60FF",
  "-6 c #A6A6A6FF",
  "-V c #A7A7A7FF",
  "<Q c #A8A8A8FF",
  "-` c #A9A9A9FF",
  ",C c #AAAAAAFF",
  "Wk c #AB8363FF",
  "6' c #ABABABFF",
  "<b c #ACACACFF",
  "<v c #ADADADFF",
  "WW c #AE8360FF",
  ",Z c #AEAEAEFF",
  "tz c #AFAFAFFF",
  ">F c #B0B0B0FF",
  ":& c #B1B1B1FF",
  "W7 c #B28D70FF",
  "<# c #B2B2B2FF",
  "Q> c #B3B3B3FF",
  ";8 c #B4B4B4FF",
  "Wp c #B58966FF",
  "6{ c #B5B5B5FF",
  "=p c #B6B6B6FF",
  ",S c #B7B7B7FF",
  "W3 c #B89275FF",
  "9m c #B8B8B8FF",
  "5X c #B9B9B9FF",
  ",G c #BABABAFF",
  "5> c #BBBBBBFF",
  ",A c #BCBCBCFF",
  "<W c #BDBDBDFF",
  "Q& c #BF6F30FF",
  ";= c #BFBFBFFF",
  "Q% c #C06319FF",
  ";g c #C0C0C0FF",
  "Qq c #C16216FF",
  "QX c #C18B61FF",
  ";Z c #C2C2C2FF",
  "Q$ c #C37231FF",
  ":* c #C3C3C3FF",
  ":6 c #C4C4C4FF",
  ";Y c #C5C5C5FF",
  "Qj c #C6C6C6FF",
  "W] c #C78E62FF",
  ",1 c #C7C7C7FF",
  ":7 c #C8C8C8FF",
  "Qw c #C96618FF",
  "Q* c #C9A88FFF",
  "Qa c #C9C4C1FF",
  ">x c #C9C9C9FF",
  "W| c #CA6819FF",
  ",< c #CACACAFF",
  "W{ c #CB691BFF",
  "+a c #CBCBCBFF",
  "W} c #CC6819FF",
  "#+ c #CCCCCCFF",
  "Qu c #CD6E23FF",
  ",2 c #CDCDCDFF",
  ";_ c #CECECEFF",
  "+c c #CFCFCFFF",
  "W( c #D06A1AFF",
  "WT c #D09668FF",
  "+v c #D0D0D0FF",
  "Q. c #D18244FF",
  "Wy c #D19F78FF",
  "+b c #D1D1D1FF",
  "WY c #D27326FF",
  ",V c #D2D2D2FF",
  "W! c #D36D1CFF",
  "W) c #D38344FF",
  ",, c #D3D3D3FF",
  ",n c #D4D4D4FF",
  "W/ c #D56E1CFF",
  "W[ c #D5894DFF",
  ":o c #D5D5D5FF",
  "WF c #D6701FFF",
  "WN c #D6A074FF",
  ",N c #D6D6D6FF",
  "W~ c #D76F1DFF",
  "WL c #D77628FF",
  "Q# c #D7B69BFF",
  ",M c #D7D7D7FF",
  "W^ c #D8701DFF",
  "WQ c #D88B4CFF",
  "Q0 c #D8925AFF",
  ",B c #D8D8D8FF",
  "WU c #D9701DFF",
  "Qy c #D9792DFF",
  "WK c #D99E70FF",
  "W0 c #D9A67EFF",
  ",b c #D9D9D9FF",
  ",m c #DADADAFF",
  "WC c #DB731FFF",
  "WM c #DB7A2CFF",
  ",v c #DBDBDBFF",
  ",^ c #DCDCDCFF",
  "WP c #DD731FFF",
  "WG c #DDA273FF",
  "=b c #DDDDDDFF",
  "Qe c #DE965CFF",
  "=[ c #DEDEDEFF",
  "Wz c #DFA87CFF",
  "={ c #DFDFDFFF",
  "WD c #E07520FF",
  "W6 c #E0B08BFE",
  "&_ c #E0E0E0FF",
  "Wx c #E17D2FFF",
  "+Z c #E1E1E1FF",
  "WI c #E27621FF",
  "W4 c #E2B28BFF",
  "+A c #E2E2E2FF",
  "Wh c #E37721FF",
  "+S c #E3E3E3FF",
  "Wm c #E47721FF",
  "Wj c #E49C63FF",
  "&I c #E4E4E4FF",
  "WZ c #E57822FF",
  "WV c #E5AC7FFF",
  ";3 c #E5E5E5FF",
  ";b c #E6E6E6FF",
  ";G c #E7E7E7FF",
  "Wr c #E88535FF",
  ":# c #E8E8E8FF",
  "Ws c #E97B23FF",
  "Wa c #E9A168FF",
  ":2 c #E9E9E9FF",
  "Wc c #EA7C24FF",
  "Wt c #EAA670FF",
  ",$ c #EAEAEAFF",
  "We c #EB7E27FF",
  "Ww c #EB8635FF",
  "W5 c #EBBA95FF",
  ":, c #EBEBEBFF",
  "Wq c #ECA56CFF",
  ":> c #ECECECFF",
  "WA c #ED7D24FF",
  ";9 c #EDEDEDFF",
  "Wg c #EE7E25FF",
  ":< c #EEEEEEFF",
  "WS c #EF7E25FF",
  "Wn c #EF7F25FF",
  ";A c #EFEFEFFF",
  ";T c #F0F0F0FF",
  ";` c #F1F1F1FF",
  ";' c #F2F2F2FF",
  "Wd c #F38127FF",
  ":3 c #F4F4F4FF",
  "Wv c #F58327FF",
  "Wf c #F68328FF",
  ";R c #F8F8F8FF",
  ":v c #F9F9F9FF",
  "Wb c #FA8529FF",
  ":5 c #FAFAFAFF",
  ";Q c #FBFBFBFF",
  "   c none",
  
  // Image data
  "                          W>W,W<>LW<W,W>                        ",
  "                        W1W2W3W4W5W6W7W8W1                      ",
  "                      :=W9W0WqWwWeWrWtWyWu:=                    ",
  "                      WiWpWaWsWdWfWgWhWjWkWi                    ",
  "                      WlWzWxWcWvWbWnWmWMWNWl                    ",
  "                      WBWVWCWZWAWSWsWDWFWGWH                    ",
  "                      WJWKWLWPWIWhWDWUWYWTWR                    ",
  "                      WEWWWQW!W~W^W/W(W)W_W`                    ",
  "                      <sW'W]W[W{W}W|Q.QXQoQO                    ",
  "                        Q+Q@Q#Q$Q%Q&Q*Q=Q-                      ",
  "                        2F>L,v;_;Z,S;=>L                        ",
  "                        2F>L,m;_;Z,S<W>L                        ",
  "                        2F>L,B;_;Z,S5>>L                        ",
  "                        Q;t:,B;_;Z,S,GNvDS                      ",
  "        Q:Ep;D;D;D;D;D;D:;,n,V,2;Z=pQ>+arr;D;D;D;D;DQ,Q<        ",
  "      ,/:e=[;Q;Q;Q:5:5:v;`;b+Z,B+c#+,b=[&_;';`;T;A:<;YQ1+j      ",
  "      Q2mV:v&_={&_+Z:2;A+A,V={:,:<:2:o6{,<:2=b,B,M,B,$;FQ3      ",
  "      Q4,b:,=[={={:,;A;A:o+c>x:*<W9m<#,Z9m:>:,=[,M,N+Z<WQ5      ",
  "    El8D;R&_=b=[+S:<:<:<+b;_,1;Z,A=p:&<b>F:,:,:#,M,N,M;3Q6Ez    ",
  "    Q7<W:<,^,^=b+S:<:<:<+Z;_,1;Z,A=p:&Q>,^:,:,:#,M,N:o+Z=WE{    ",
  "  <;Q8;T+Z,v,^,^=b,$;9;9;9;9&_:o+v,,=[:>:,:,:,=[,N:o:o,b,BQ9<;  ",
  "  W.<=;`,mQ0QqQwQe=b;G;9;9;9;9:>:>:>:>:,:,:2=[,M,N:o,n,n+ZmVQr  ",
  "  Qt=b&I,bQyWDWsQu;g,v=[+S:#,$:,:>,$:#&I=[,M,M,N:o:o,n,,,B#+Qi  ",
  "@>Qp:3,m,BQaQsQdQf,M,m,m,m,m,m,m,b,b,B,B,M,M,N,N:o,n,,,,,,:#:qF7",
  "Kw>';R;`;T;T;T;T;T;T;T;A;A;A;A;A:<:<:<:<:<;9;9;9;9:>:>:>:>&I:w<@",
  "Kw>':>,G,G5X9m,S=p;8Q><#:&>F,Z<v<b6',C-`-V-6=W=C6|;I5,<m6}9m:wKw",
  "Kw>':,,G,G5X,S=p6{;8Q><#>Ftz,Z<v<b,C-`<Q-V-6=W6|;I6}5,<m6}=p:wKw",
  "Kw>':25>5X9m,S=p6{Q><#:&>Ftz<v<b6',C-`<Q-6=W=C6|;I5,<m<m6};8:wQg",
  "+jQh:7;b;3+S+A&_=[,^,v,B,M:o,,+b+c#+,<:7Qj:6;Z;=<W,G9m=p;8<=Qk@o",
  "  QlQz;D;D;D;D;D;D;D;D;D;D;D;D;D;D;D;D;D;D;D;D;D;D;D;D;D;DQxQc@C",
  "    &T@o&A+J*F*F*F*F*F*F*F*F*F*F*F*F*F*F*F*F*F*F*F*FtSer:Q*'%.  ",
  "          &T&0&0&0&0&0&0&0&0&0&0&0&0&0&0&0&0&0&0&0&0&0&j+j      "
};
