/* XPM */
const char *xpm_tango_devices_input_keyboard[] = {
  // Header (width height colors chars-per-pixel)
  "32 32 216 2",
  
  // Colors (code mode value)
  "+j c #00000001",
  "&j c #00000002",
  "%. c #00000004",
  "&0 c #00000005",
  "&^ c #00000006",
  ":E c #00000008",
  "&; c #0000000D",
  "%H c #0000000E",
  "+r c #00000012",
  "U# c #1C1C1C09",
  "Ew c #2C2C2C17",
  "Kc c #35353518",
  "E1 c #3E3E3E31",
  "E0 c #4A4A421F",
  "Eq c #4D4D441E",
  "!6 c #4F4F4A37",
  "E9 c #696B689B",
  "E5 c #6E6E6A89",
  "E= c #78787442",
  "E6 c #7E807AB6",
  "@> c #80808002",
  "E2 c #8486839C",
  "E> c #898C86FF",
  "RI c #8B8E884D",
  "!8 c #8C8E898A",
  "E; c #8D8F89FF",
  "E7 c #8E908BFC",
  "E8 c #8F918CFA",
  "kh c #90918EFF",
  "h@ c #929490FF",
  "E, c #939791FF",
  "Qu c #969892FF",
  "Em c #989A94FF",
  "ho c #A3A4A0FF",
  "E* c #A7A9A3DC",
  "E< c #A7A9A3FB",
  "R} c #A8AAA4A2",
  "E- c #A9ABA5F7",
  "cW c #AAAAAA03",
  "}= c #AAAAAA06",
  ")] c #ADB1AAFF",
  "QM c #B1C4B10D",
  "E: c #B2B3ADFF",
  "!o c #B3B3B30A",
  "E$ c #B3B6AEED",
  "{^ c #B6B6B607",
  "!9 c #B6B9B2FF",
  "QH c #B7BFB720",
  "QJ c #B8B8B812",
  "E4 c #B8BAB6F9",
  "Q[ c #B8BCB441",
  ",; c #B9B9B916",
  "Q] c #B9B9B921",
  "!@ c #B9BDB53E",
  "QL c #B9BDB580",
  "!1 c #B9BEB76A",
  "!# c #BABCB591",
  "!> c #BABCB6CF",
  "yT c #BABCB6FF",
  "Q| c #BABDB5A6",
  "Rb c #BABDB688",
  "!< c #BABDB6AE",
  "QP c #BABDB6C8",
  "!= c #BABDB6E0",
  "!$ c #BABDB6E5",
  "Q` c #BABDB6F8",
  "Rm c #BABDB6F9",
  "Rn c #BABDB6FC",
  "!. c #BABDB6FE",
  "l: c #BABDB6FF",
  "QG c #BABEB681",
  "!, c #BABEB6BF",
  "Qn c #BBBBB31E",
  "!+ c #BBBBB52D",
  "G] c #BBBBBB0F",
  "Q' c #BBBCB58A",
  "Q} c #BBBDB561",
  "!X c #BBBDB6B3",
  "RK c #BBBDB6D2",
  "RC c #BBBDB7F0",
  "!2 c #BBBEB55A",
  "!4 c #BBBEB752",
  "RU c #BBBEB7F5",
  "QK c #BBBFB73C",
  "Qm c #BBC4BB1E",
  "QI c #BCBEB8D4",
  "QF c #BCBFB7A4",
  "Q_ c #BCBFB8FF",
  "!O c #BDBDB31B",
  "Qb c #BDBDB51F",
  "!: c #BDBEB8F2",
  "RM c #BDBFB760",
  "!3 c #BDBFB8E0",
  "QU c #BDC0BADF",
  "yR c #BEC0BAFF",
  "Q{ c #BEC1BBFF",
  "!5 c #BFBFB518",
  "h4 c #BFBFBF04",
  "&H c #BFC1BBFF",
  "Q) c #BFC2BBFF",
  "E& c #BFC2BEFF",
  "%k c #C0C2BCFF",
  "QD c #C0C3BCC7",
  "QY c #C0C3BCE9",
  "Q( c #C1C4BDFE",
  "!0 c #C1C4BDFF",
  "QT c #C3C5BFF3",
  "E3 c #C3C5C0FC",
  "Yz c #C3C6BFFF",
  "Q^ c #C3C6C0FC",
  "Q/ c #C3C6C0FD",
  "QS c #C4C7C1E7",
  "Q~ c #C4C7C1FC",
  "!; c #C4C7C1FF",
  "Q! c #C5C7C1FC",
  "!7 c #C5C8C0F9",
  "QR c #C6C8C2F9",
  "QQ c #C6C8C2FB",
  "_I c #C6C8C4FF",
  "QE c #C7C9C3FA",
  "QW c #C7C9C4FA",
  "Q< c #C7CAC4FF",
  "E. c #C8CAC4FF",
  "EX c #C8CAC5FF",
  "yK c #C8CBC6FF",
  "4{ c #CACCC8FF",
  "QA c #CBCDC8FD",
  "yV c #CBCDC8FF",
  "3Y c #CBCDC9FF",
  "!* c #CBCEC7EE",
  "Eo c #CBCECAFF",
  "1q c #CCCCCC05",
  "!% c #CCCEC881",
  "EO c #CCCECAFF",
  "R| c #CDCFC8FC",
  "gA c #CDCFCBFF",
  "T1 c #CED0CBFF",
  "!& c #CED0CCD0",
  "R_ c #CED1C9FF",
  "r. c #CED2CAFF",
  "!- c #D1D4CFE5",
  "QB c #D2D5D066",
  "R' c #D2D6CFFF",
  "QZ c #D3D5D0FF",
  "TX c #D3D5D1FF",
  "09 c #D4D7D0FF",
  "{Q c #D5D5CE2A",
  "UB c #D5D6D3FF",
  "QV c #D6D7D4A7",
  "|% c #D7D8D3FF",
  ".r c #D7D9D5FF",
  "RJ c #D7DAD2FF",
  "E% c #D8DAD5FF",
  "W2 c #DADBD9FF",
  "RZ c #DADCD4FF",
  "yC c #DADCD8FF",
  "QC c #DADCD9DB",
  "RY c #DADED5FF",
  "E+ c #DBDDD5FF",
  "RT c #DBDFD6FF",
  "}^ c #DCDDD9FF",
  "|e c #DCDED9FF",
  "RR c #DCDFD7FF",
  "RE c #DCE0D7FF",
  "RW c #DDE1D8FF",
  "QN c #DEDED61F",
  "yZ c #DEDFDCFF",
  "RQ c #DEE1D9FF",
  "R! c #DEE2DAFF",
  "R~ c #DFE2DBFF",
  "|2 c #E0E1DEFF",
  "Ky c #E0E2DFFF",
  "R^ c #E0E3DBFF",
  "R/ c #E0E4DCFF",
  "Xv c #E1E3E0FF",
  "R( c #E1E4DDFF",
  "R) c #E2E5DEFF",
  "X} c #E3E5E2FF",
  "wl c #E3E6E0FF",
  "|3 c #E4E5E2FF",
  "Y{ c #E4E6E0FF",
  "R` c #E4E7E1FF",
  "RA c #E5E7E1FF",
  ":F c #E6E7E4FF",
  ",- c #E7E8E6FF",
  "RS c #E7E9E3FF",
  "q[ c #E7E9E4FF",
  "1W c #E8E9E7FF",
  "qD c #E8EAE5FF",
  "c- c #E8EBE6FF",
  "|y c #E9EAE7FF",
  "RD c #EAEBE6FF",
  "RF c #ECEEE9FF",
  "#i c #EDEDEBFF",
  "o. c #EDEEECFF",
  "RG c #EEF0EBFF",
  "lt c #EFEFEEFF",
  "{T c #EFF0EEFF",
  "4[ c #F0F1EFFF",
  ";z c #F0F2EFFF",
  "RH c #F1F2EEFF",
  "f8 c #F1F2F0FF",
  "0@ c #F2F3F0FF",
  "}8 c #F2F3F1FF",
  "Xg c #F3F4F1FF",
  ";~ c #F4F5F3FF",
  "3] c #F5F6F4FF",
  "Qv c #F6FFF61C",
  "X' c #F7F8F6FF",
  "2a c #F9FAF8FF",
  "}1 c #FBFBFAFF",
  "3N c #FFFFFF01",
  ":C c #FFFFFF02",
  ">) c #FFFFFF0F",
  ">W c #FFFFFF16",
  "   c none",
  
  // Image data
  "                                                                ",
  "                                                                ",
  "                                                                ",
  "                                                                ",
  "                                                                ",
  "                                                                ",
  "                                                                ",
  "                                                                ",
  "      :C                                                        ",
  "      >)>WQv{QQbQnQm,;QM{^{^}=1qh4cWcW@>3N                      ",
  "      :CQNQBQVQCyCyZXvX}:F1W|y,-|3|2}^.rQZT1QAQSQDQFQGQH        ",
  "      3NQJQKQLQPQIQUQYQTQRQEQWQQQ!Q~Q^Q/Q(%kQ)Q)Q{Q_l:Q`Q'G]    ",
  "                                            h4Q]Q[Q}Q|!.l:!X    ",
  "                                              !o!O!+!@!#l:!$    ",
  "                                      1q!%!&!*Q<YzyRl:l:l:!={^  ",
  "                                    Qn!-TX!;&H!:!=!>!,!<!1}=    ",
  "                                    !2.r!3!4!5                  ",
  "    +jRbRnl:l:l:l:l:l:l:l:l:l:l:l:l:l:l:l:l:l:l:l:l:RmRM        ",
  "  +jU#RCRZRARSRDRFRGRHXg3]X'2a}1}12aX'3]XgRHRGRFRDRSRJRK:E&j    ",
  "  &0RIRUr.RYRYRYRTRTRRRERWRQR!R~R^R/R(R)R)09R_wlY{R`R'Rm!6:E    ",
  "  :ER}R|q[qDc-|%E.EXyK4{4{yV3YEoEOgA;zf80@;zE+W2;~;~{T!7!8&;    ",
  "+j%HE$E%o.o.o._I;~;~;~;~;~;~;~;~;~W2Ky4[4[4[|eE&lt4[}8UBE*+r&j  ",
  "%.E=E-)]E;E;E;E:khkhkhkhkhkhkhkhkhhoEmE>E>E>!9!0QuE,h@yTE<E1%.  ",
  "&^E2E3#i#i#i#i#i#i#i#i#i#i#i#i#i#i#i#i#i#i#i#i#i#i#i#i#iE4E5&0  ",
  "%.E6E7E8E8E8E8E8E8E8E8E8E8E8E8E8E8E8E8E8E8E8E8E8E8E8E8E8E7E9&j  ",
  "+j&0KcE0E0E0E0E0E0E0E0E0E0E0E0E0E0EqEqEqEqEqEqEqEqEqEqEqEw&^    ",
  "                                                                ",
  "                                                                ",
  "                                                                ",
  "                                                                ",
  "                                                                ",
  "                                                                "
};
