/* XPM */
const char *xpm_tango_devices_input_mouse[] = {
  // Header (width height colors chars-per-pixel)
  "32 32 267 2",
  
  // Colors (code mode value)
  "+j c #00000001",
  "&j c #00000002",
  "%. c #00000004",
  "+> c #0000000B",
  ":l c #0000000F",
  "*' c #00000015",
  "@n c #00000019",
  "@5 c #0000001A",
  "&) c #0000001C",
  "~v c #0D0D0D14",
  "~j c #37373717",
  "~c c #3C3C3C5E",
  "~k c #43434363",
  "~h c #44444465",
  "<+ c #4A4A4A18",
  "F7 c #4D4D4D0A",
  "5L c #4D4D4D14",
  "~7 c #4D4D4D4F",
  "F, c #4D4D4DB4",
  "~l c #4D4D4DB5",
  "!v c #4E4E4E24",
  "~u c #4E4E4E41",
  "D{ c #4E4E4E45",
  "!^ c #4E4E4E4E",
  "~# c #4E4E4E58",
  "~y c #4E4E4EA6",
  "~s c #4E4E4EB0",
  "~4 c #4F4F4F2A",
  "!Z c #4F4F4F4D",
  "!} c #4F4F4F54",
  "~d c #4F4F4F9A",
  "l_ c #50505030",
  "Ql c #50505050",
  "~& c #50505059",
  "!b c #50505070",
  "!' c #50505079",
  "Zk c #505050F1",
  "Zz c #505050F9",
  "~, c #505050FB",
  "4A c #5151512F",
  "~x c #515151DD",
  "~z c #515151DF",
  "~g c #515151F0",
  "~q c #5252521C",
  "~3 c #525252A2",
  "~0 c #525252E2",
  ":t c #525252F2",
  "~> c #525252F7",
  "E{ c #5353538B",
  "Q7 c #53535390",
  "Em c #535353A6",
  "KP c #535353E3",
  "EB c #535353F0",
  "~i c #535353F2",
  "9d c #535353F8",
  "~. c #5454549D",
  "~; c #545454D4",
  "~: c #545454E9",
  "Z- c #545454EA",
  "!I c #545454F6",
  "#P c #55555503",
  "<; c #55555509",
  "<* c #5555550C",
  "~@ c #55555515",
  "!C c #55555593",
  "~8 c #555555C3",
  "~< c #555555D5",
  "C- c #555555DD",
  "~o c #555555E3",
  "~w c #555555EE",
  "~+ c #555555F8",
  "!) c #56565697",
  "~* c #565656A0",
  "!U c #565656A6",
  "!W c #565656EE",
  "~r c #565656F4",
  "![ c #575757CA",
  "~- c #575757CD",
  "!~ c #575757CE",
  "!] c #575757E0",
  "!H c #585858C5",
  "!B c #5A5A5AE8",
  "!M c #5A5A5AEB",
  "~O c #5A5A5AF8",
  "!V c #5B5B5BC8",
  "!m c #5B5B5BDE",
  "!n c #5C5C5CB7",
  "!{ c #5C5C5CF8",
  "~a c #5D5D5DF6",
  "~5 c #606060F2",
  "~e c #606060F4",
  "!J c #616161F5",
  "~f c #656565F4",
  "<, c #66666605",
  "~6 c #6C6C6CF3",
  "!( c #6C6C6CF4",
  "~t c #6C6C6CF7",
  ">( c #6C6C6CFF",
  "Fe c #717171FE",
  "!N c #727272FD",
  "me c #737373F4",
  "!| c #7B7B7BF2",
  "@> c #80808002",
  "~% c #818181F5",
  "!P c #828282F2",
  "~p c #848484F9",
  "1{ c #868686FF",
  "c! c #8888880F",
  "-v c #8A8A8AFF",
  "mV c #8B8B8BFF",
  "~$ c #8D8D8DF4",
  "-i c #8D8D8DFF",
  "9M c #8E8E8EFF",
  "D| c #8F8F8FFE",
  "-, c #8F8F8FFF",
  "!/ c #919191F4",
  "YS c #929292F4",
  "!u c #9494941F",
  "!i c #94949439",
  "2@ c #969696FF",
  "~2 c #979797FE",
  "2# c #999999FF",
  ";( c #9B9B9B17",
  "<= c #9B9B9BFF",
  ",J c #9C9C9CFF",
  "2$ c #9D9D9DFF",
  "~1 c #9E9E9EFC",
  "<y c #9E9E9EFF",
  "k} c #9F9F9F08",
  "<m c #9F9F9FFF",
  "!h c #A0A0A086",
  "~9 c #A0A0A0FD",
  "5, c #A0A0A0FF",
  "6} c #A1A1A1FF",
  "!y c #A2A2A237",
  ";I c #A2A2A2FF",
  "!t c #A3A3A375",
  "6| c #A3A3A3FF",
  "=C c #A4A4A4FF",
  "Bs c #A5A5A511",
  "=W c #A5A5A5FF",
  "B6 c #A6A6A614",
  "!r c #A6A6A6AC",
  "-6 c #A6A6A6FF",
  "!e c #A7A7A7D1",
  "!c c #A7A7A7D6",
  "!! c #A7A7A7FB",
  "-V c #A7A7A7FF",
  "<Q c #A8A8A8FF",
  "!w c #A9A9A9CF",
  "!` c #A9A9A9FA",
  "-` c #A9A9A9FF",
  "1z c #AAAAAA0C",
  "B1 c #AAAAAA1B",
  "!G c #AAAAAA21",
  "!k c #AAAAAA27",
  "!a c #AAAAAA39",
  "BP c #AAAAAA75",
  ",C c #AAAAAAFF",
  "!E c #ABABAB74",
  "!D c #ABABABE8",
  "6' c #ABABABFF",
  "!Y c #ACACAC2B",
  "Bt c #ACACAC2E",
  "!q c #ACACAC5C",
  "!F c #ACACAC72",
  "!s c #ACACAC75",
  "!l c #ACACAC9F",
  "!S c #ACACACA3",
  "!T c #ACACACA6",
  "V2 c #ACACACE0",
  "!f c #ACACACE2",
  "!j c #ACACACE7",
  "!p c #ACACACE9",
  "!R c #ACACACF0",
  "Vo c #ACACACFD",
  "<b c #ACACACFF",
  "!x c #ADADAD7C",
  "!d c #ADADADC6",
  "!z c #ADADADEB",
  "<v c #ADADADFF",
  ",Z c #AEAEAEFF",
  "!A c #AFAFAF23",
  "tz c #AFAFAFFF",
  ">F c #B0B0B0FF",
  "!g c #B1B1B10D",
  ":& c #B1B1B1FF",
  "<# c #B2B2B2FF",
  "Q> c #B3B3B3FF",
  "!K c #B4B4B4F9",
  ";8 c #B4B4B4FF",
  "6{ c #B5B5B5FF",
  "=p c #B6B6B6FF",
  ",S c #B7B7B7FF",
  "9m c #B8B8B8FF",
  "~= c #B9B9B9FE",
  "5X c #B9B9B9FF",
  ",G c #BABABAFF",
  "5> c #BBBBBBFF",
  ",A c #BCBCBCFF",
  "<W c #BDBDBDFF",
  "<1 c #BEBEBEFF",
  ";= c #BFBFBFFF",
  "!L c #C0C0C0FE",
  ";g c #C0C0C0FF",
  ";U c #C1C1C1FF",
  "~X c #C2C2C2FE",
  ";Z c #C2C2C2FF",
  ":* c #C3C3C3FF",
  ":6 c #C4C4C4FF",
  ";Y c #C5C5C5FF",
  "Qj c #C6C6C6FF",
  ",1 c #C7C7C7FF",
  ":7 c #C8C8C8FF",
  "!_ c #C9C9C9FE",
  ">x c #C9C9C9FF",
  ",< c #CACACAFF",
  "+a c #CBCBCBFF",
  "#+ c #CCCCCCFF",
  ",2 c #CDCDCDFF",
  "!Q c #CECECEFE",
  ";_ c #CECECEFF",
  "+c c #CFCFCFFF",
  "+v c #D0D0D0FF",
  "+b c #D1D1D1FF",
  ",V c #D2D2D2FF",
  ",, c #D3D3D3FF",
  ",n c #D4D4D4FF",
  ":o c #D5D5D5FF",
  ",N c #D6D6D6FF",
  ",M c #D7D7D7FF",
  ",B c #D8D8D8FF",
  ",b c #D9D9D9FF",
  ",m c #DADADAFF",
  ",v c #DBDBDBFF",
  ",^ c #DCDCDCFF",
  "=b c #DDDDDDFF",
  "=[ c #DEDEDEFF",
  "={ c #DFDFDFFF",
  "&_ c #E0E0E0FF",
  "+Z c #E1E1E1FF",
  "+A c #E2E2E2FF",
  "+S c #E3E3E3FF",
  "&I c #E4E4E4FF",
  ";3 c #E5E5E5FF",
  ";b c #E6E6E6FF",
  ";G c #E7E7E7FF",
  ":# c #E8E8E8FF",
  ":2 c #E9E9E9FF",
  ",$ c #EAEAEAFF",
  ":> c #ECECECFF",
  ";9 c #EDEDEDFF",
  ":< c #EEEEEEFF",
  ";A c #EFEFEFFF",
  ";T c #F0F0F0FF",
  ";` c #F1F1F1FF",
  ";' c #F2F2F2FF",
  ":O c #F3F3F3FF",
  ":3 c #F4F4F4FF",
  "=a c #F5F5F5FF",
  "+W c #F6F6F6FF",
  ":9 c #F7F7F7FF",
  ":5 c #FAFAFAFF",
  "=q c #FDFDFDFF",
  "=w c #FEFEFEFF",
  "1U c #FFFFFFFF",
  "   c none",
  
  // Image data
  "                                                                ",
  "                                                        c!<,    ",
  "                              !q!w!e!r!t!y@>            !u!i    ",
  "                              !pBtBs!a!s!d!fBP!g        ;(!h    ",
  "                              !jB1        !k!l!z!x1z    !g!c    ",
  "                    !v!b!n!m!MFe!N!B!V!C!Z<*  !A!S!D!FBs!GV2    ",
  "                4A!H!J!K+Z:O2$;U5X<=+Z!L!P!I!U5L  !Y!T!R!z!E    ",
  "              F7!W!Q:5:9=a=[9M+S,b9M,M:<:3:<!!!~      k}B6      ",
  "              !^!/+W:2;9:O+b-,,V;Z-i#+={,b,v;T!(l_              ",
  "              !)!_;9;G;9:O,M-v5X=C-v:o={,b,n;3!`!'              ",
  "              !]:#;b;b:>;`;3mV1{1{mV&I=[,b,n,v+v![              ",
  "            5L!{+W&_&I:2:<:O<#>(>(<#;T=b,M,,+b,$9d<;            ",
  "            !}YS:<,^+Z;b,$:9=w2@2@=w;',v,N+b,2;b!|D{            ",
  "            ~.~X;3,b:7Qj,1,2=q1U1U=q#+;U;Z;Z+a,vVoQ7            ",
  "            ~o&_,,,<=b={+Z+S,$:5:5;b,b,N,,+v:*;_;_C-            ",
  "          <+~O;A+b,n,M,m,^=[=[=[,^,b,N,,+c#+:7;Y+A~+~@          ",
  "          ~#~$;b;_+b,n,N,B,b,b,b,M:o,,+v,2>xQj;g,B~%~&          ",
  "          ~*~=,v+a;_+v,V,n:o:o:o,n,V+v,2,<,1;Z,A,<-`Em          ",
  "          ~-,V+c:7+a,2+c+v+b+b+b+v;_#+,<,1:*<19m,A;U~;          ",
  "          ~:,^:6;Y,1>x+a#+,2,2,2#++a>x,1:*;=5X;8:&+aEB          ",
  "          ~>={<W;=:*Qj,1>x>x>x>x:7,1;Y;Z<1,G6{tz,C;_~,          ",
  "          Z-:o,G,G<1;U:*;Y;YQj;Y:6;Z;g<W5X;8>F6'-V:6:t          ",
  "          ~<:65>;89m5><W;=;g;g;=<1,A,G,SQ>tz6'-6<Q6{KP          ",
  "          E{~1:6tz<#6{,S9m5X5X5X9m=p;8:&,Z,C=W6}tz~2~3          ",
  "          ~4~5+c6'<b,Z>F<#Q>Q>Q><#>F,Z6'<Q=C5,,J9m~6~7          ",
  "            ~8~9;g-6<Q,C<b<b<v<b6',C<Q=W;I<y<==W6|~0@>          ",
  "            ~q~w9m,G;I=C=W-6-6-6=W6|6}<m,J2#<y<#~e!Z            ",
  "              Ql~r<b<W-6<m5,5,<m<m2$<=2#2@6|:&~t~y              ",
  "                ~u~i~p5X=p,C6}2$2#<=,J=Ctz6}~a~s#P              ",
  "                  5L~d9dme2@<Q>F6{,Z6}D|~f~g~h&j                ",
  "                      ~j~k~l~z~gZzZk~xF,~c~v+j                  ",
  "                        &j+>*'@5&)&)@n:l%.                      "
};
