/* XPM */
const char *xpm_tango_devices_media_floppy[] = {
  // Header (width height colors chars-per-pixel)
  "32 32 295 2",
  
  // Colors (code mode value)
  "+j c #00000001",
  "&T c #00000003",
  "%. c #00000004",
  "&^ c #00000006",
  "@C c #00000007",
  "+> c #0000000B",
  ":k c #0000000C",
  "&; c #0000000D",
  "%H c #0000000E",
  "@m c #00000013",
  "+k c #00000016",
  "[~ c #00000017",
  "*Q c #0000001D",
  "9b c #0000001E",
  "&V c #0000001F",
  "&A c #00000020",
  "&Y c #00000023",
  "rn c #0000002A",
  "*F c #0000002B",
  "&R c #0000002F",
  "*G c #00000037",
  ":h c #0000003B",
  "B% c #0000003D",
  "9] c #0000003F",
  "*o c #00000041",
  "*z c #00000043",
  "_^ c #141C3065",
  "_I c #19223E52",
  ")- c #1F2C3BFF",
  "_/ c #233459BF",
  "(R c #25375FFF",
  "(T c #25385FFE",
  "_< c #263960F6",
  ")H c #263961F6",
  ")Z c #263A61F6",
  "_U c #273961F6",
  ")* c #273A61F6",
  "(W c #283963F5",
  "(E c #2A3D67AB",
  "(Y c #2C3F6895",
  "_L c #43609AFF",
  "_K c #43619BFF",
  "_J c #44629CFF",
  "_C c #44639CFF",
  "_H c #45639CFF",
  "_V c #45639DFF",
  "_B c #46649EFF",
  "_m c #46659EFF",
  "_n c #46659FFF",
  "_b c #4766A0FF",
  "_z c #4767A0FF",
  "_v c #4867A0FF",
  "_l c #4867A1FF",
  "_e c #4967A2FF",
  "_k c #4968A2FF",
  "_d c #4969A2FF",
  "_s c #4969A3FF",
  "_a c #4A6AA4FF",
  "_y c #4A6BA4FF",
  "_p c #4B6BA4FF",
  "_t c #4B6BA5FF",
  "_r c #4C6CA6FF",
  "_8 c #4C6DA6FF",
  "_7 c #4C6EA7FF",
  "_6 c #4D6EA8FF",
  "_> c #4D6FA8FF",
  "_5 c #4E6FA8FF",
  "_: c #4E70A9FF",
  "_D c #4E70AAFF",
  "_; c #4F70AAFF",
  "_& c #4F71AAFF",
  "_% c #4F72ABFF",
  "_$ c #5072ACFF",
  ")| c #5073ACFF",
  "_# c #5173ACFF",
  ")} c #5174ADFF",
  "_c c #5174AEFF",
  "kx c #525252FF",
  "){ c #5274AEFF",
  ")( c #5275AEFF",
  "_O c #535455FF",
  "_- c #535456FF",
  ")/ c #5376AFFF",
  "_j c #5376B0FF",
  ")Q c #5377B0FF",
  "_+ c #545455FF",
  "_h c #5477B0FF",
  ")W c #5478B1FF",
  ")[ c #5478B2FF",
  "_@ c #556785FF",
  ")T c #5579B2FF",
  ")Y c #567AB3FF",
  "_w c #567AB4FF",
  ")L c #567BB4FF",
  "_q c #577BB4FF",
  ")K c #577CB5FF",
  "_~ c #5872A3FF",
  "_2 c #587CB6FF",
  ")F c #587DB6FF",
  "_o c #596D8BFF",
  ")D c #597EB7FF",
  ")V c #597FB8FF",
  "_! c #5A73A5FF",
  ")] c #5A7FB8FF",
  ")B c #5A80B9FF",
  ")b c #5B81BAFF",
  ")' c #5B82BBFF",
  "_Q c #5C75A7FF",
  "_P c #5C76A7FF",
  ")v c #5C82BBFF",
  ")` c #5C83BCFF",
  "_W c #5D76A8FF",
  ")k c #5D83BCFF",
  ")j c #5D84BDFF",
  "_E c #5E78AAFF",
  ")s c #5E85BEFF",
  ")a c #5F86BFFF",
  ")^ c #5F87C0FF",
  ")y c #6087C0FF",
  ")t c #6088C1FF",
  "_Y c #617AA5FE",
  "_Z c #617AAAFF",
  ")0 c #6189C2FF",
  "_G c #626366FF",
  ")9 c #628AC3FF",
  ")U c #628BC4FF",
  ")5 c #638BC4FF",
  ")4 c #638CC5FF",
  "_A c #647BA7FF",
  "_M c #647EADFF",
  ")< c #648DC6FF",
  "_F c #65666AFF",
  "), c #658EC7FF",
  ")S c #658FC8FF",
  ")N c #6690C9FF",
  "_x c #6781B0FF",
  ")M c #6791CAFF",
  ")c c #6893CBFF",
  ")x c #6893CCFF",
  ")h c #6995CDFF",
  "_f c #6A84B3FF",
  ")g c #6A95CEFF",
  ":@ c #6B6B6BFF",
  "_3 c #6B6C6FFF",
  "GR c #6B97CFFF",
  ")p c #6B97D0FF",
  ")r c #6C99D1FF",
  "t: c #6D6D6DFF",
  "_4 c #6D6F72FF",
  ")e c #6D99D2FF",
  ")8 c #6E9BD3FF",
  ")7 c #6E9CD4FF",
  "t1 c #6F6F6FFF",
  "_u c #6F88B6FF",
  ")3 c #6F9DD5FF",
  "_S c #708DBBFF",
  ")2 c #709ED6FF",
  "); c #719FD7FF",
  ";W c #727272FF",
  "_9 c #728CB8FF",
  ",c c #737373FF",
  "_, c #758FBBFF",
  "_R c #7690BCFF",
  ",k c #777777FF",
  ";v c #787878FF",
  "_T c #7891BCFF",
  ",j c #797979FF",
  "_* c #7993BEFF",
  "=1 c #7B7B7BFF",
  ",z c #7D7D7DFF",
  "_. c #7D96C0FF",
  "=< c #7E7E7EFF",
  ")) c #7F99C3FF",
  "mk c #808080FF",
  "_N c #8099C2FF",
  ";@ c #818181FF",
  ",x c #828282FF",
  ")! c #839CC5FF",
  "-^ c #848484FF",
  "t< c #858585FF",
  "1{ c #868686FF",
  "_g c #869FC6FF",
  ")R c #86A0C8FF",
  "-K c #878787FF",
  "-O c #888888FF",
  "-Y c #898989FF",
  "-v c #8A8A8AFF",
  "_i c #8AA3C9FF",
  ")P c #8AA3CAFF",
  ";* c #8C8C8CFF",
  ")G c #8CA6CDFF",
  "-i c #8D8D8DFF",
  "_0 c #8DA6CBFF",
  "9M c #8E8E8EFF",
  "-, c #8F8F8FFF",
  "2+ c #909090FF",
  "_1 c #90A8CEFF",
  ")C c #90A8CFFF",
  "pb c #919191FF",
  ",7 c #929292FF",
  "=L c #939393FF",
  "_= c #93ABD0FF",
  ")n c #93ACD1FF",
  "<' c #959595FF",
  "2@ c #969696FF",
  ")l c #96AFD3FF",
  ",F c #979797FF",
  "_X c #97AED2FF",
  "2# c #999999FF",
  ")_ c #99B1D4FF",
  ")d c #99B2D5FF",
  ":^ c #9A9A9AFF",
  "<= c #9B9B9BFF",
  ",J c #9C9C9CFF",
  ")~ c #9CB4D6FF",
  ")u c #9CB5D8FF",
  "2$ c #9D9D9DFF",
  "<m c #9F9F9FFF",
  ")E c #9FB7D9FF",
  ")q c #9FB8DAFF",
  "5, c #A0A0A0FF",
  "6} c #A1A1A1FF",
  ";I c #A2A2A2FF",
  ")I c #A2B9DAFF",
  ")6 c #A2BADBFF",
  "6| c #A3A3A3FF",
  "=C c #A4A4A4FF",
  "G( c #A4BDDDFF",
  "=W c #A5A5A5FF",
  ")J c #A5BCDCFF",
  "-6 c #A6A6A6FF",
  ")& c #A7BFDFFF",
  "<Q c #A8A8A8FF",
  ")A c #A8BEDEFF",
  ")% c #A9C1E0FF",
  ",C c #AAAAAAFF",
  ")$ c #AAC1E1FF",
  "6' c #ABABABFF",
  ")m c #ABC1E0FF",
  "<b c #ACACACFF",
  ")z c #ADC3E1FF",
  ",Z c #AEAEAEFF",
  ">F c #B0B0B0FF",
  ")f c #B0C6E3FF",
  ":& c #B1B1B1FF",
  "<# c #B2B2B2FF",
  ")i c #B3C8E5FF",
  ";8 c #B4B4B4FF",
  "6{ c #B5B5B5FF",
  ")w c #B5CBE6FF",
  "=p c #B6B6B6FF",
  ",S c #B7B7B7FF",
  "9m c #B8B8B8FF",
  "Gl c #B8CDE8FF",
  "5X c #B9B9B9FF",
  ",G c #BABABAFF",
  ")1 c #BACFE9FF",
  "5> c #BBBBBBFF",
  "<W c #BDBDBDFF",
  ")= c #BDD1EBFF",
  ";= c #BFBFBFFF",
  "(Q c #BFD2EBFF",
  "(~ c #BFD5EEFF",
  ";g c #C0C0C0FF",
  ";U c #C1C1C1FF",
  "(! c #C1D6EFFF",
  ";Z c #C2C2C2FF",
  ":* c #C3C3C3FF",
  ";Y c #C5C5C5FF",
  "Qj c #C6C6C6FF",
  ">x c #C9C9C9FF",
  ")> c #D31C00FF",
  "): c #D31D01FF",
  "=[ c #DEDEDEFF",
  ")# c #E78374FF",
  ")@ c #E78475FF",
  ")+ c #E78576FF",
  ")O c #E88778FF",
  ")o c #E88879FF",
  ")X c #E8897AFF",
  "). c #E88A7CFF",
  "(| c #E98B7DFF",
  "(} c #E98C7EFF",
  "({ c #E98D7FFF",
  "([ c #E98F81FF",
  "(] c #E99082FF",
  "(' c #EA9183FF",
  "(` c #EA9285FF",
  "(_ c #EA9386FF",
  "() c #EA9487FF",
  "(( c #EA9588FF",
  "(/ c #EB978AFF",
  "(^ c #EB988BFF",
  "1U c #FFFFFFFF",
  "   c none",
  
  // Image data
  "                                                                ",
  "                                                                ",
  "    (Y(T(R(R(R(R(R(R(R(R(R(R(R(R(R(R(R(R(R(R(R(R(R(R(R(R(R(E    ",
  "    (W(Q(!(~(^(/((()(_(`('(]([({(}(|).)X)o)O)+)@)#)#)$)%)&(R    ",
  "    )*)=)-);):)>)>)>)>)>)>)>)>)>)>)>)>)>)>)>)>)>)>):),)<G((R    ",
  "    )*)1)2)31U1U1U1U1U1U1U1U1U1U1U1U1U1U1U1U1U1U1U1U)4)5)6(R    ",
  "    )*Gl)7)81U1U1U1U1U1U1U1U1U1U1U1U1U1U1U1U1U1U1U1U)9)0)q(R    ",
  "    )*)w)e)r1U1U=[=[=[=[=[=[=[=[=[=[=[=[=[=[=[=[1U1U)t)y)u(R    ",
  "    )*)i)pGR1U1U1U1U1U1U1U1U1U1U1U1U1U1U1U1U1U1U1U1U)a)s)d(R    ",
  "    )*)f)g)h1U1U1U1U1U1U1U1U1U1U1U1U1U1U1U1U1U1U1U1U)j)k)l(R    ",
  "    )*)z)x)c1U1U=[=[=[=[=[=[=[=[=[=[=[=[=[=[=[=[1U1U)v)b)n(R    ",
  "    )*)m)M)N1U1U1U1U1U1U1U1U1U1U1U1U1U1U1U1U1U1U1U1U)B)V)C(R    ",
  "    )Z)A)S),1U1U1U1U1U1U1U1U1U1U1U1U1U1U1U1U1U1U1U1U)D)F)G(R    ",
  "    )H)J)<)41U1U=[=[=[=[=[=[=[=[=[=[=[=[=[=[=[=[1U1U)K)L)P(R    ",
  "    )H)I)U)91U1U1U1U1U1U1U1U1U1U1U1U1U1U1U1U1U1U1U1U)Y)T)R(R    ",
  "    )H)E)0)t1U1U1U1U1U1U1U1U1U1U1U1U1U1U1U1U1U1U1U1U)W)Q)!(R    ",
  "    )H)~)^)a1U1U1U1U1U1U1U1U1U1U1U1U1U1U1U1U1U1U1U1U)/)())(R    ",
  "    )H)_)s)j)k)`)')b)B)])V)D)F)K)K)L)Y)T)[)W)Q)/)(){)})|_.(R    ",
  "    )H_X)`)v)b)b_o_Okxkxkxkxkxkxkxkxkxkxkxkx_+_@_#_$_%_&_*(R    ",
  "    )H_=)b)B)])V_-=C,Z:&6{9m5>;=;Z;Y>xQj;U<W>F_-_&_;_:_>_,(R    ",
  "    _<_1)V)D)F_2kx<#=p_3kxkx_4Qj>x;Y;g5>,S<#,Zkx_5_6_7_8_9(R    ",
  "    _<_0)F)K_q_wkx,G<Wkx_e_ekx:*;=,G=p:&<b<Q6|kx_8_r_t_y_u(R    ",
  "    _<_i)L)Y)T)[kx;U;Ykx_e_ekx5X;8>F6'-6;I2$2#kx_p_a_s_d_f(R    ",
  "    _<_g)T)W_h_jkx>xQjkx_e_ekx,Z,C=W6},J,F=L9Mkx_d_k_l_z_x(R    ",
  "    _<)!)Q)/)(_ckx;g5>kx_e_ekx=C<m<=2@pb-i-O-^kx_v_b_n_m_M(R    ",
  "    _<_N)/)}_#_$kx6{:&kx_e_ekx:^<'2+;*-K,x=<,jkx_m_B_V_C_Z(R    ",
  "  %.(R_A_S_#_&_Dkx6'-6_Fkxkx_G-,-v1{;@,z;v,ct1kx_H_J_K_L_P(R&;  ",
  "  @m_I_U_Y_*_T_Rkx5,,J,F,79M-Yt<mk=1,k;Wt::@:@kx_E_W_Q_!_~(R9b+>",
  "&T[~*F_^(R(R(R(Rkxkxkxkxkxkxkxkxkxkxkxkxkxkxkxkx(R(R(R(R(R_/&Y:k",
  "  %H&A&R:h*o*z*z*z*z*z*z*z*z*z*z*z*z*z*z*z*z*z*z*z*zB%9]*Grn+k+j",
  "    &^@m*Q&Y&Y&Y&Y&Y&Y&Y&Y&Y&Y&Y&Y&Y&Y&Y&Y&Y&Y&Y&Y&Y&V&V+k@C    ",
  "            +j+j+j+j+j+j+j+j+j+j+j+j+j+j+j+j+j+j+j+j            "
};
