/* XPM */
const char *xpm_tango_devices_media_flash[] = {
  // Header (width height colors chars-per-pixel)
  "32 32 354 2",
  
  // Colors (code mode value)
  "+j c #00000001",
  "&j c #00000002",
  "&T c #00000003",
  "%. c #00000004",
  "&0 c #00000005",
  "&^ c #00000006",
  "@C c #00000007",
  ":k c #0000000C",
  "&; c #0000000D",
  "@: c #00000010",
  "+r c #00000012",
  "@m c #00000013",
  "@o c #00000014",
  "+k c #00000016",
  "[~ c #00000017",
  "=N c #00000018",
  "&) c #0000001C",
  "+g c #00000021",
  "rF c #0000002D",
  "&R c #0000002F",
  ",W c #00000039",
  "*o c #00000041",
  "[G c #00000044",
  "*) c #00000048",
  "(U c #06060651",
  "(P c #0B0E0E5B",
  "(I c #0B0E0E5C",
  "(L c #1E2324A2",
  "(D c #20252590",
  "(F c #2D3435F7",
  "(S c #2E3335EF",
  "(G c #2E3335FB",
  "(H c #2E3335FC",
  "(J c #2E3435FB",
  "(M c #2E3436F6",
  "(K c #2E3436FA",
  "l* c #2E3436FF",
  "~B c #2E3537F7",
  "~S c #2F353781",
  "^* c #2F3537FB",
  "lS c #2F3537FF",
  "~( c #2F3637E9",
  "Uo c #303537FF",
  "~m c #303637EC",
  "(# c #303637FF",
  "~n c #303638E9",
  "l& c #303638FF",
  "~U c #30373766",
  "~M c #303738E0",
  "~N c #30373970",
  "~b c #30373974",
  "^w c #313739FF",
  "~H c #323736FF",
  "(n c #323838FF",
  "lV c #323839FF",
  "~G c #323939FF",
  "/( c #333A3AFF",
  "~J c #343835FF",
  "(@ c #343934FF",
  "~K c #34393AFF",
  "(O c #353A33FF",
  "^% c #353A3BFF",
  "(s c #373A36FF",
  "(+ c #373B33FF",
  "(w c #383B3BFF",
  "~A c #393E3FF4",
  "(y c #3A3E3DFF",
  "/) c #3A3E3EFF",
  "~I c #3A3F3FF4",
  "(o c #3B3F3EFF",
  "(e c #3E403CFF",
  "(t c #3E403DFF",
  "/| c #3E4241FF",
  "~Y c #3F4342FF",
  "(r c #40433FFF",
  "~F c #424645FF",
  "(q c #444542FF",
  "(0 c #444642FF",
  "(7 c #454643FF",
  "(6 c #454743FF",
  "~T c #46452DFF",
  "~^ c #46452EFF",
  "(3 c #464744FF",
  "(2 c #464844FF",
  "(< c #474845FF",
  "(, c #474945FF",
  "(- c #484946FF",
  "(X c #484947FF",
  "(= c #484A46FF",
  "(* c #494A47FF",
  "(& c #494B47FF",
  "($ c #494B48FF",
  "(1 c #4A4B48FF",
  "(; c #4A4C48FF",
  "(Z c #4A4E4FFF",
  "(A c #4C4E4DFF",
  "(B c #4C5152FF",
  "~L c #4D5150FF",
  "(N c #505251FF",
  "~D c #535551FF",
  "(m c #545653FF",
  "(c c #555754FF",
  "[L c #565855FF",
  "(x c #565856FF",
  "(d c #585A57FF",
  "(u c #5A5B59FF",
  "(v c #5B5C59FF",
  "6. c #5B5C5AFF",
  ")B c #5C5D5AFF",
  "(8 c #5C5E5BFF",
  "P: c #5D5E5BFF",
  "(4 c #5D5F5CFF",
  "(f c #5E5F5CFF",
  "6X c #5E605DFF",
  "Ku c #5F605DFF",
  "(: c #5F615EFF",
  "(% c #60635FFF",
  "f/ c #61625FFF",
  "(9 c #626260FF",
  "(. c #626461FF",
  "(5 c #636461FF",
  ">h c #636462FF",
  "/D c #646663FF",
  "(> c #656663FF",
  "/h c #656764FF",
  "~/ c #666865FF",
  ";{ c #676965FF",
  "x! c #676966FF",
  "t% c #686A67FF",
  "[3 c #696A67FF",
  "Kh c #696A68FF",
  "^G c #696B68FF",
  "~Z c #696B69FF",
  "Kt c #6A6C69FF",
  "~P c #6A6C6AFF",
  "/$ c #6B6C6AFF",
  "^e c #6B6D6BFF",
  "^& c #6B6E6BFF",
  "<: c #6C6D6BFF",
  "^H c #6C6E6CFF",
  "~V c #6C6F6CFF",
  "^r c #6D706CFF",
  "^= c #6E716DFF",
  "~C c #6F716FFF",
  "k8 c #717370FF",
  "BM c #737571FF",
  "(i c #8F5902FF",
  "(p c #915B05FF",
  "(a c #915C05FF",
  "(g c #915C06FF",
  "(k c #99640EFF",
  "^$ c #998111FF",
  "/F c #998211FF",
  "// c #9A8210FF",
  "~) c #9B8413FF",
  "~~ c #9F870EFF",
  "/_ c #A3890DFF",
  "/} c #A4890EFF",
  "~R c #A48B10FF",
  "kb c #ABADA8FF",
  "(C c #B1B2ACFF",
  "(V c #B1B3AFFF",
  "Kg c #B2B3AFFF",
  ":d c #B2B4AFFF",
  "/j c #C19F02FF",
  "^- c #C1A002FF",
  "/S c #C1A003FF",
  "^q c #C1A006FF",
  "/' c #C2A108FF",
  "/] c #C2A208FF",
  "/7 c #C3A001FF",
  "^t c #C3A002FF",
  "/` c #C3A007FF",
  "~! c #C3A103FF",
  "~E c #C3A104FF",
  "/{ c #C3A106FF",
  "/[ c #C3A208FF",
  "/g c #C4A105FF",
  "~Q c #C4A106FF",
  "^x c #C4A107FF",
  "/# c #C4A206FF",
  "~W c #C5A106FF",
  "^W c #C6B416FF",
  "^l c #CDBC2EFF",
  "^Q c #CEBC28FF",
  "/< c #CFBA12FF",
  "/, c #CFBD22FF",
  "/e c #CFBD30FF",
  "/w c #CFBE32FF",
  "/c c #D1BF2FFF",
  "^E c #D1C02FFF",
  "^D c #D2C12EFF",
  "/> c #D2C23EFF",
  "^~ c #D3C022FF",
  "^! c #D3C12DFF",
  "/; c #D3C236FF",
  "^S c #D3C43FFF",
  "/x c #D3C445FF",
  "^9 c #D4C436FF",
  "^} c #D4C43DFF",
  "/: c #D4C54BFF",
  "^A c #D4C64DFF",
  "/v c #D5C32FFF",
  "^{ c #D5C433FF",
  "^k c #D5C542FF",
  "/z c #D5C74EFF",
  "/1 c #D6C324FF",
  "^C c #D6C639FF",
  "^^ c #D7C425FF",
  "^[ c #D7C42AFF",
  "/l c #D7C637FF",
  "/- c #D7C639FF",
  "/r c #D7C849FF",
  "^| c #D7C955FF",
  "(b c #D7D7D4FF",
  "/q c #D8C94BFF",
  "^Z c #D8C951FF",
  "/2 c #DAC829FF",
  "^V c #DAC938FF",
  "^R c #DACB4AFF",
  "/t c #DACB4CFF",
  "/u c #DBC82AFF",
  "/G c #DBC95FFF",
  "/y c #DBCB40FF",
  "^j c #DBCD53FF",
  "rg c #DBDBD8FF",
  "^8 c #DCCD4AFF",
  "/3 c #DDC925FF",
  "^] c #DDCA31FF",
  "/b c #DDCD48FF",
  "/0 c #DDCF56FF",
  "/H c #DDD06DFF",
  "^# c #DECD66FF",
  "^z c #DED16BFF",
  "^0 c #DED270FF",
  "/i c #DFCB2DFF",
  "^g c #DFCE41FF",
  "^h c #DFD057FF",
  "Te c #DFDFDCFF",
  "/n c #E0D04BFF",
  "/= c #E0D152FF",
  "/9 c #E0D153FF",
  "/J c #E0D57AFF",
  "/4 c #E1CD23FF",
  "/M c #E1CD29FF",
  "/8 c #E1CF3EFF",
  "/m c #E1D03FFF",
  "^B c #E1D14FFF",
  "/. c #E1D675FF",
  "|N c #E1E1DEFF",
  "wi c #E2D141FF",
  "^7 c #E2D45BFF",
  "^F c #E2D46BFF",
  "/X c #E2D66DFF",
  "(l c #E3B266FF",
  "/P c #E3D569FF",
  "^T c #E3D668FF",
  "/L c #E3D87AFF",
  "/K c #E3D87FFF",
  "/N c #E4D12DFF",
  "^N c #E4D346FF",
  "/* c #E4D65CFF",
  "/I c #E4D869FF",
  "/o c #E4D86DFF",
  "(z c #E5B569FF",
  "^M c #E5D439FF",
  "/p c #E5D549FF",
  "}6 c #E5E5E2FF",
  "(h c #E6B56AFF",
  "/5 c #E6D336FF",
  "^' c #E6D64FFF",
  "^/ c #E6D96AFF",
  "(j c #E7B66BFF",
  "/^ c #E7D360FF",
  "97 c #E7D649FF",
  "06 c #E7D85AFF",
  "^6 c #E7D85EFF",
  "/O c #E7DA6FFF",
  "/k c #E7DA76FF",
  "/a c #E8D747FF",
  "^@ c #E8DC78FF",
  "/s c #E9D73AFF",
  "/& c #E9D846FF",
  "/+ c #E9DD72FF",
  "^f c #EADA58FF",
  "^` c #EADB57FF",
  "/@ c #EADC69FF",
  "/U c #EADE7BFF",
  "^Y c #EADF80FF",
  "}d c #EAEAE7FF",
  "/d c #EBD729FF",
  "~_ c #EBD869FF",
  "^m c #EBDA45FF",
  "/B c #EBDA49FF",
  "^5 c #ECDB49FF",
  "9_ c #ECE07BFF",
  "/Y c #ECE17CFF",
  "^U c #ECE181FF",
  "w8 c #ECE185FF",
  "/R c #EDE065FF",
  "^I c #EDE06FFF",
  "/V c #EEDC48FF",
  "^_ c #EEDD50FF",
  "^d c #EEE065FF",
  "/6 c #EEE06AFF",
  "/T c #EEE175FF",
  "/C c #EFDC3AFF",
  "^P c #EFE168FF",
  "/Z c #F0DB29FF",
  "/E c #F0E268FF",
  "^) c #F1E14FFF",
  "^4 c #F1E25FFF",
  "^+ c #F1E790FF",
  "^n c #F2E25AFF",
  "/% c #F2E681FF",
  "/f c #F3E369FF",
  "^s c #F3E467FF",
  "/A c #F3E46EFF",
  "^O c #F3E993FF",
  "/~ c #F4E469FF",
  "^L c #F4E776FF",
  "/W c #F4E77CFF",
  "^o c #F4E985FF",
  "^a c #F5E456FF",
  "/! c #F5E772FF",
  "^3 c #F6E76CFF",
  "/Q c #F6E97CFF",
  "^b c #F7E86AFF",
  "^X c #F7EC85FF",
  "^K c #F8EC84FF",
  "^( c #F8EC86FF",
  "^p c #F9E958FF",
  "^v c #FAEB64FF",
  "^2 c #FAEB6DFF",
  "^. c #FAF094FF",
  "^J c #FCF192FF",
  "^1 c #FDEC5EFF",
  "^; c #FDF28EFF",
  "^c c #FEEE5EFF",
  "^i c #FEEE64FF",
  "~` c #FEF28DFF",
  "~| c #FEF49DFF",
  "^: c #FFEE5BFF",
  "^< c #FFEF5EFF",
  "^u c #FFEF68FF",
  "^y c #FFEF69FF",
  "^> c #FFF06FFF",
  "^, c #FFF174FF",
  "~[ c #FFF38EFF",
  "~{ c #FFF38FFF",
  "~' c #FFF59AFF",
  "~} c #FFF59DFF",
  "~] c #FFF59EFF",
  "   c none",
  
  // Image data
  "                                                                ",
  "      ~b~n~m~m~m~m~m~m~m~m~m~m~m~m~m~m~m~m~m~m~m~M~N            ",
  "      ~B~V~C~C~C~C~C~C~C~C~C~C~C~C~C~C~C~C~C~C~C~Z~A~S          ",
  "      l*BM~D~F~G~H~J~J~J~J~J~J~J~J~J~J~J~J~J~H~K~L~P~I~U        ",
  "      l*BM~Y~T~R~E~W~W~W~W~W~W~W~W~W~W~W~Q~Q~!~~~^~L~/~(        ",
  "      l*k8l&~)~_~`~'~]~'~[~{~}~|^.^X^o^O^+w8^@^#^$^%^&^*        ",
  "      l*^=l*^-^;^:^>^,^>^<^1^2^3^4^597^6^7^8^9^0^q^w^e^*        ",
  "      l*^rl*^t~`^:^y^u^i^p^a^s^d^fwi^g^h^j^k^l^z^x^w~P^*        ",
  "      l*~Vl*^t~`^u^c^v^b^n^m^M^N^B^V^C^Z^A^S^D^F^x^w^G^*        ",
  "      l*^Hl*^t~`^J^K^L^P^I^U^Y^T^R^E^W^Q^!^~^^^/~Q^wt%^*        ",
  "      l*<:l*^t^(^)^_^`^'^]^[^{^}^|^0/./X/o/O/+/@/#^wx!^*        ",
  "      l*/$l*^t/%/&06/*/=/-/;/:/>/,/</1/2/3/4/5/6/#^w~/^*        ",
  "      l*Ktl*/79_/8/9/0/q/w/e/r/t/y/u/i/p/a/s/d/f/g^w/h^*        ",
  "      l*Khl*/j/k/l/q/z/x/c/v/b/n/m/M/N/B/V/C/Z/A/S^w/D^*        ",
  "      l*[3Uo/F/G/H/J/K/L/P/I/U/Y/T/R/E/W/Q/!/~/^///(>h^*        ",
  "      l*[3/)~T/_/`/'/'/'/'/'/]/[/[/[/[/[/[/[/{/}~^/|(.^*        ",
  "      l*;{(X(oUo(O(+(+(+(+(+(+(+(+(+(+(+(+(+(@(#(o($(%^*        ",
  "      l*~/(&(&(&(*(*(*(*(*(*(=(=(=(=(=(-(-(-(-(-(-(;(:^*        ",
  "      l*(>(=(=(=(=(-(-(-(-(-(-(,(,(,(,(,(<(<(<(<(<(16X^*        ",
  "      l*(>(-(,(,(,(,(<(<(<(<(<(<(<(2(2(2(2(3(3(3(3(*(4^*        ",
  "      l*(5(<(<(2(2(2(2(2(3(3(3(3(3(3(6(6(6(6(7(7(7(<(8^*        ",
  "      l*(9(3(3(3(3(6(6(6(6(7(7(7(7(7(7(7(0(0(0(q(q(36.^*        ",
  "      l*f/(w(e(r(r(r(r(r(r(r(r(r(r(r(r(r(r(r(r(r(t(y(u^*        ",
  "      l*KulS(i(i(i(i(i(i(i(i(i(i(p(a(i(i(i(i(i(i(i(s(d^*        ",
  "      l*(flS(g(h(j(j(j(j(j(j(k(i(l(z(i(i(i(i(i(i(i(s(x^*        ",
  "      l*P:lSTe}d}d}d}d}d}d}d}d}d}d}d}d}d}d}d}d}d}dlV[L^*        ",
  "    +jl*)BlSrg}6}6}6}6}6}6}6}6}6}6}6}6}6}6}6}6}6}6lV(c^*&j      ",
  "  +j@Cl*(vlS(b|N|N|N|N|N|N|N|N|N|N|N|N|N|N|N|N|N|N(n(m^*+r&^+j  ",
  "  %.=N(M(N(Bkb:dKgKgKgKgKgKgKg(V(V(V(V(V(V(V(V(V(C(Z(A(S,W@o&T  ",
  "+j@C+g(D(F(G(H(H(H(H(H(H(H(H(H(H(H(H(H(H(H(H(H(H(H(J(K(L*)&)&0+j",
  "  &T+r&R[G(P(I(I(I(I(I(I(I(I(I(I(I(I(I(I(I(I(I(I(I(I(U*orF@:&j  ",
  "    %.&;@o[~[~[~[~[~[~[~[~[~[~[~[~[~[~[~[~[~[~[~[~[~+k@m:k&T    "
};
