/* XPM */
const char *xpm_tango_devices_media_optical[] = {
  // Header (width height colors chars-per-pixel)
  "32 32 681 2",
  
  // Colors (code mode value)
  "+j c #00000001",
  "&j c #00000002",
  "%. c #00000004",
  "&0 c #00000005",
  "@C c #00000007",
  "*7 c #00000009",
  "@B c #0000000A",
  "+> c #0000000B",
  ":k c #0000000C",
  ":l c #0000000F",
  "@: c #00000010",
  "&Z c #00000011",
  "@m c #00000013",
  "@o c #00000014",
  "*' c #00000015",
  "=N c #00000018",
  "@n c #00000019",
  "@5 c #0000001A",
  "&) c #0000001C",
  "*Q c #0000001D",
  "9b c #0000001E",
  "&V c #0000001F",
  "+g c #00000021",
  "Ee c #00000022",
  "&Y c #00000023",
  ":W c #00000025",
  "+N c #00000026",
  "+J c #00000027",
  "er c #00000028",
  "rn c #0000002A",
  "9) c #0000002C",
  "*^ c #0000002E",
  ":d c #00000030",
  "T2 c #00000032",
  "*8 c #00000036",
  "}P c #1010103E",
  "K| c #1111113B",
  "|O c #2525253E",
  "}] c #2626263C",
  "}M c #2C2C2C40",
  "}y c #3232323D",
  "}' c #3838385B",
  "}I c #39393959",
  "}t c #4141412B",
  "}= c #48484827",
  "}[ c #6060607D",
  "}L c #757575B9",
  "}N c #7B7B7BBA",
  "}` c #7E7E7FD3",
  "<F c #80808006",
  "{+ c #80808010",
  "_( c #80808012",
  "`n c #80808014",
  "`u c #80808016",
  "}m c #8080801C",
  "`$ c #80808026",
  "V> c #80808028",
  "]g c #8080804A",
  "') c #8080805A",
  "_{ c #8080805C",
  "]D c #808080FD",
  "]6 c #81818153",
  "_) c #8181815D",
  "]7 c #818181E9",
  "]5 c #818181EA",
  "_' c #818181FD",
  "H4 c #818181FE",
  "}U c #828282D2",
  "[# c #828282EA",
  "]Y c #828282FD",
  "]m c #828282FE",
  "}n c #828283E2",
  "|o c #838383CF",
  "o[ c #8484841B",
  "{r c #8484841D",
  "}{ c #848585CF",
  "}r c #848585EF",
  "<C c #85858517",
  "g| c #85858519",
  "Gm c #858585FD",
  "}_ c #858686FC",
  "ri c #86868615",
  "G6 c #868686F7",
  "|. c #868686F8",
  "}| c #868687F8",
  "{O c #868687FB",
  "_` c #878786F6",
  "}u c #878787E2",
  "_] c #878787F6",
  "_| c #878787FB",
  "}Y c #878788FC",
  "|X c #878888EC",
  "[q c #888788F1",
  "'S c #888887FB",
  "c! c #8888880F",
  "`% c #888888A1",
  "`2 c #888888DA",
  "`i c #888888ED",
  "'| c #888888F1",
  "]. c #888889F0",
  "}* c #888989D6",
  "}} c #888989EC",
  "]h c #89888AEF",
  "_} c #898989C1",
  "u_ c #898989D6",
  "u4 c #898989ED",
  "m: c #898989F2",
  "[w c #898989F3",
  "`@ c #898989FB",
  "]f c #89898AEF",
  "{V c #89898BF9",
  "{/ c #898A8A97",
  "`I c #8A8A8A97",
  "`1 c #8A8A8AA1",
  "}- c #8A8A8AEF",
  "'d c #8A8A8AFA",
  "`& c #8A8A8AFB",
  "3- c #8A8A8AFD",
  "]^ c #8A8A8BF1",
  "`y c #8B8B8BD9",
  "y} c #8B8B8BE5",
  "[P c #8B8B8BFA",
  "`< c #8B8B8BFC",
  "{e c #8B8D8DB5",
  "`# c #8C8C8BC1",
  "__ c #8C8C8CBF",
  "]t c #8C8C8CE5",
  "[, c #8C8C8CE6",
  "]; c #8C8C8CE7",
  "`P c #8D8C8CD5",
  "_[ c #8D8D8DBE",
  "[h c #8D8D8DC0",
  "'_ c #8D8D8DC1",
  "]} c #8D8D8DE7",
  "{( c #8E8D8ED7",
  "K* c #8E8E8EB6",
  "]- c #8E8E8EBF",
  "'. c #8E8E8EF8",
  "[< c #8F8F8FC1",
  "'2 c #8F8F8FF8",
  "'s c #90908EB5",
  "`| c #90909095",
  "{C c #91919199",
  "{t c #919191F9",
  "<G c #92929207",
  "{@ c #929292B6",
  "}b c #999B9BFE",
  "{^ c #9C9FA2FE",
  "}) c #9FA2A1FE",
  "'L c #A3A0A4FF",
  "[L c #A3A3A6FD",
  "]k c #A3A4BCFF",
  "'j c #A4A2A7FF",
  "]H c #A4A5B9FF",
  "}e c #A4A6A8FF",
  "'K c #A5A3A9FF",
  "'} c #A5A5A5FC",
  "]G c #A5A6BAFF",
  "]) c #A5A7B5FF",
  "'[ c #A6A5A8FF",
  "[& c #A6A8ACFF",
  "}& c #A6AAADFF",
  "'l c #A7A2AFFF",
  "'k c #A7A4ABFF",
  "]( c #A8A7ADFF",
  "X@ c #A8A8BDFF",
  "]l c #A8AABEFF",
  "'P c #A9A6AEFF",
  "'J c #A9A7ADFF",
  "'9 c #AAA7AFFF",
  "}K c #AAADADFF",
  "]4 c #ABAAAAFC",
  "'{ c #ABABA9FF",
  "Z0 c #ABABABFE",
  "'c c #ACA8B6FF",
  "'8 c #ACA9ADFF",
  "'] c #ACAAB1FF",
  "]2 c #ACAAB3FF",
  "]3 c #ACABB1FF",
  "]s c #ACABBCFF",
  "Vo c #ACACACFD",
  "}T c #ACACAEFE",
  "[) c #ADA9A4FF",
  "]0 c #ADACBEFF",
  "{w c #ADB2BAFF",
  "[/ c #AEAAB4FF",
  "]X c #AEAAB8FC",
  "l. c #AEAEA3FF",
  "`. c #AEAEAEFD",
  "]8 c #AFADBCFC",
  "[O c #AFAEC3FF",
  "`U c #AFAFAFFE",
  "[( c #B0AAB0FF",
  "]J c #B0B4C8FF",
  "{< c #B1ACAFFF",
  "]1 c #B1B0B7FF",
  "]a c #B1B0BEFF",
  "[u c #B1B1A5FF",
  "`} c #B1B1B1FE",
  "{1 c #B2ABA8FF",
  "'w c #B2ACB7FF",
  "'q c #B2ADBAFF",
  "{, c #B2AEB6FF",
  "]+ c #B2AEC1FF",
  "'h c #B2B0B3FF",
  "]d c #B2B0C4FF",
  "`+ c #B2B1B1FD",
  "`t c #B2B1B1FE",
  "[@ c #B3B0C1FC",
  "[0 c #B3B1BAFC",
  "}i c #B3B2B3FE",
  "'' c #B3B2B6FF",
  "]_ c #B3B7C5FF",
  "'7 c #B4B2B4FF",
  "{> c #B4B2BFFF",
  "'D c #B4B4B4FD",
  "[+ c #B4B6D0FF",
  "{3 c #B5B199FF",
  "[_ c #B5B1A2FF",
  "'z c #B5B1B9FF",
  "'x c #B5B1BAFF",
  "[o c #B6B5C4FF",
  "[y c #B6B6A4FF",
  "=p c #B6B6B6FF",
  "}# c #B6B9ACFF",
  "{2 c #B7B2A5FF",
  "{W c #B7B9A7FF",
  "{Q c #B7BAAFFF",
  "}$ c #B7BCB2FF",
  "'0 c #B8B3BAFF",
  "]@ c #B8B5C4FF",
  "'6 c #B8B6B7FF",
  "{Z c #B8B7B7FE",
  "[j c #B8B8B6FD",
  "[* c #B8BAC4FF",
  "{! c #B8BEB8FF",
  "{N c #B8BFC5FF",
  "[` c #B9B69DFF",
  "]9 c #B9B7CFFF",
  "{E c #B9B8A4FF",
  "]z c #B9BACCFF",
  "{m c #B9BCAFFF",
  "{8 c #B9BEB1FF",
  "[} c #B9BEBAFF",
  "{X c #B9C3D2FF",
  "'I c #BAB6C2FF",
  "'O c #BAB8B7FF",
  "[e c #BAB9B3FE",
  "'o c #BAB9B5FF",
  "`T c #BABAB5FF",
  "`Y c #BABBB4FF",
  "[i c #BABBC0FF",
  "}( c #BABDBDFF",
  "}q c #BABEB2FF",
  "[F c #BABEC0FF",
  "[p c #BABEC5FF",
  "]` c #BABFCFFF",
  "{M c #BAC0BBFF",
  "{9 c #BAC0BEFF",
  "{0 c #BAC1C2FF",
  "[- c #BAC1CEFF",
  "{. c #BAC3C7FF",
  "[s c #BAC3CDFF",
  "'Y c #BBB5CBFF",
  "'% c #BBB6C2FF",
  "'# c #BBB7BFFF",
  "[^ c #BBB8C6FF",
  "]Q c #BBB9C9FF",
  "]! c #BBBAC7FF",
  "{b c #BBBCA1FF",
  "{n c #BBBCA6FF",
  "}@ c #BBBCADFF",
  "`m c #BBBCB5FF",
  "[D c #BBBDB2FF",
  "[{ c #BBBEACFF",
  "}0 c #BBBEB1FF",
  "[= c #BBBFC9FF",
  "[| c #BBC0C1FF",
  "[G c #BBC0C5FF",
  "[a c #BBC1C9FF",
  "[H c #BBC4CAFF",
  "`R c #BCBBB8FF",
  "V= c #BCBCB8FF",
  ",A c #BCBCBCFF",
  "{7 c #BCBEA8FF",
  "[J c #BCC7CEFF",
  "[' c #BDBBA1FF",
  "'+ c #BDBBBBFF",
  "'H c #BDBBBEFF",
  "'5 c #BDBCBBFF",
  "[A c #BDBDA7FF",
  "[S c #BDBDA9FF",
  "[$ c #BDBDB8FE",
  "<W c #BDBDBDFF",
  "}w c #BDC1C0FF",
  "]Z c #BEBCC6FF",
  "{v c #BEBD9FFF",
  "'g c #BEBDBEFF",
  "`M c #BEBEB9FF",
  "}% c #BEC3C4FF",
  "]' c #BEC4D1FF",
  "{l c #BFB9B5FF",
  "{k c #BFBABCFF",
  "]O c #BFBBCFFF",
  "{4 c #BFBC9EFF",
  "'@ c #BFBCBEFF",
  "{j c #BFBCC3FF",
  "`E c #BFBDBCFF",
  "]A c #BFBEC6FF",
  "[6 c #BFBECEFF",
  "[g c #BFC1C5FF",
  "}v c #BFC3C1FF",
  "]K c #BFC3D2FF",
  "{q c #BFC7D3FF",
  "'& c #C0BAC2FF",
  "'$ c #C0BCC1FF",
  "}+ c #C0BFAFFF",
  ";g c #C0C0C0FF",
  "{6 c #C0C1A5FF",
  "[[ c #C0C1A9FF",
  "'e c #C1BBC8FF",
  "`W c #C1BFBFFF",
  "`Q c #C1BFC5FF",
  "{5 c #C1C0A3FF",
  "`N c #C1C0BCFF",
  "'4 c #C1C0BDFF",
  "[] c #C1C1A7FF",
  "`p c #C1C2BCFF",
  "[7 c #C1C2D5FF",
  "}9 c #C1C3B5FF",
  "}x c #C1C5BAFF",
  "{~ c #C1C7CCFF",
  "[; c #C1C7D2FF",
  "{B c #C1C8D1FF",
  "]p c #C2C1CAFF",
  ";Z c #C2C2C2FF",
  "'X c #C2C3BCFF",
  "{c c #C3BEA2FF",
  "{z c #C3BEB7FF",
  "'v c #C3BECEFF",
  "]q c #C3C2D1FF",
  ":* c #C3C3C3FF",
  "[d c #C3CAD2FF",
  "{R c #C4C0ACFF",
  "`V c #C4C1C6FF",
  "`B c #C4C2C1FF",
  "'U c #C4C2C8FF",
  "]C c #C4C2CFFF",
  "{h c #C4C3CEFF",
  "}O c #C4C4B3FF",
  "`a c #C4C4BFFF",
  "'f c #C4C4C1FF",
  "}8 c #C4C5B8FF",
  "[8 c #C4C5DDFF",
  "{x c #C5C0AEFF",
  "{T c #C5C2B2FF",
  "}o c #C5C3B9FF",
  "]W c #C5C3D3FF",
  ";Y c #C5C5C5FF",
  "'3 c #C5C6C1FF",
  "]x c #C5C6D3FF",
  "}z c #C5C8BEFF",
  "]L c #C5C8D3FF",
  "}c c #C5C9C0FF",
  "{Y c #C6C2BBFF",
  "`! c #C6C2CAFF",
  "`C c #C6C4CAFF",
  "[Z c #C6C5B2FF",
  "]< c #C6C5C8FF",
  "]j c #C6C5DFFF",
  "[t c #C6C6B6FF",
  "`3 c #C6C7C1FF",
  "]] c #C6C9D3FF",
  "`~ c #C7C3CAFF",
  "[C c #C7C5B3FF",
  "`d c #C7C5C6FF",
  "`s c #C7C6C2FF",
  "'G c #C7C6C5FF",
  "`b c #C7C6C6FF",
  "}7 c #C7C7BEFF",
  "[b c #C7C7DEFF",
  "}/ c #C7CBCDFF",
  "[: c #C7CDD3FF",
  "{U c #C8C5BFFF",
  "`f c #C8C6C9FF",
  "`L c #C8C7C7FF",
  "]~ c #C8C7D2FF",
  ":7 c #C8C8C8FF",
  "}Q c #C8C8C9FF",
  "}l c #C8C9C3FF",
  "'R c #C9C3D6FF",
  "}X c #C9C7BFFF",
  "{I c #C9C7C8FF",
  "}6 c #C9C8C2FF",
  "`5 c #C9C8C6FF",
  "'a c #C9C8C8FF",
  "`4 c #C9C9C4FF",
  "]F c #C9CAD3FF",
  "[! c #C9CAE0FF",
  "}R c #C9CBD0FF",
  "`^ c #CAC6CCFF",
  "}. c #CAC7C4FF",
  "[n c #CAC8DBFF",
  "}; c #CAC9CAFF",
  "}B c #CAC9CCFF",
  "]w c #CAC9D4FF",
  ",< c #CACACAFF",
  "{| c #CACACCFF",
  "]c c #CACAD5FF",
  "[v c #CACADFFF",
  "4{ c #CACCC8FF",
  "`Z c #CBC7CAFF",
  "'E c #CBC7D8FF",
  "{P c #CBC8CFFF",
  "]# c #CBC8D5FF",
  "]S c #CBC9CFFF",
  "{L c #CBC9D5FF",
  "{} c #CBCAD2FF",
  "[~ c #CBCADBFF",
  "'F c #CBCBC8FF",
  "3; c #CBCBCAFF",
  "]P c #CBCDD5FF",
  "}k c #CBCECFFF",
  "o0 c #CBCFD3FF",
  "}J c #CBD1CAFF",
  "'b c #CCC6D5FF",
  "`, c #CCCBCBFF",
  ".1 c #CCCDC7FF",
  "}5 c #CCCDD1FF",
  "}G c #CCD0D0FF",
  "}F c #CCD1D5FF",
  "{o c #CCD2DCFF",
  "'* c #CDC7D0FF",
  "'T c #CDC7DBFF",
  "'n c #CDC8D7FF",
  "'W c #CDC9D9FF",
  "[% c #CDCDBFFF",
  "6= c #CDCDCBFF",
  ",2 c #CDCDCDFF",
  "Z1 c #CDCEDAFF",
  "}4 c #CDCFD7FF",
  "=w c #CDD0CDFF",
  "}j c #CDD0D6FF",
  "}D c #CDD2DAFF",
  "[K c #CDD2DCFF",
  "`A c #CEC9CDFF",
  "`/ c #CEC9D0FF",
  "`g c #CECBCBFF",
  "`6 c #CECCCAFF",
  "'` c #CECDCDFF",
  ";_ c #CECECEFF",
  "A' c #CED0D3FF",
  "}H c #CED1CDFF",
  "}3 c #CED1DDFF",
  "{{ c #CED1E2FF",
  "}h c #CED2DCFF",
  "[f c #CED4D6FF",
  "'! c #CFCBD6FF",
  "]/ c #CFCDCBFF",
  "]V c #CFCDD8FF",
  "]$ c #CFCED7FF",
  "{: c #CFCEDFFF",
  "]v c #CFD1D6FF",
  "}2 c #CFD3E6FF",
  "'Q c #D0CCD9FF",
  "[m c #D0CCDEFF",
  "Cs c #D0D0CCFF",
  "+v c #D0D0D0FF",
  "}g c #D0D4E3FF",
  "[> c #D0D5D5FF",
  "}S c #D0D6E1FF",
  "'r c #D1CAD7FF",
  "`S c #D1CCD0FF",
  "`h c #D1CDCFFF",
  "]o c #D1CDE4FF",
  "[V c #D1CEBFFF",
  "`7 c #D1CFCEFF",
  "[9 c #D1CFE5FF",
  "], c #D1D0D1FF",
  "]i c #D1D1D4FF",
  "{K c #D1D3E3FF",
  "]I c #D1D4D6FF",
  "]E c #D2CFDCFF",
  "[Q c #D2D3E7FF",
  "}^ c #D2D6DBFF",
  "[M c #D3CEDCFF",
  "'~ c #D3D0D7FF",
  "6& c #D3D3D2FF",
  "Zr c #D3D3D4FF",
  "{; c #D3D3E9FF",
  "|$ c #D3D4D0FF",
  "][ c #D3D6D7FF",
  "}E c #D3D6DDFF",
  "[N c #D4D0D1FF",
  "`j c #D4D0D2FF",
  "`8 c #D4D1D1FF",
  "]% c #D4D2D8FF",
  "C& c #D4D3CFFF",
  "{g c #D4D3E5FF",
  ".6 c #D4D4CFFF",
  "r* c #D4D4D3FF",
  "]e c #D4D4D8FF",
  "}f c #D4D7E8FF",
  "}A c #D4D8E8FF",
  "[B c #D5D1C9FF",
  "`* c #D5D3D1FF",
  "]B c #D5D3DCFF",
  "[5 c #D5D4DEFF",
  ":o c #D5D5D5FF",
  "]b c #D5D6D8FF",
  "}W c #D5D9E3FF",
  "]> c #D6D5D3FF",
  ",N c #D6D6D6FF",
  "]U c #D6D8D8FF",
  "`9 c #D7D4D4FF",
  "TU c #D7D7D3FF",
  "]R c #D7D7DEFF",
  "ok c #D7D8D2FF",
  "'^ c #D8D5DAFF",
  "`= c #D8D7D5FF",
  "]u c #D8D7D7FF",
  ",B c #D8D8D8FF",
  "}~ c #D8DEE5FF",
  "'m c #D9D2E0FF",
  "]& c #D9D6DAFF",
  "[X c #D9D8DFFF",
  "]r c #D9D9DBFF",
  "{f c #D9DAEEFF",
  "]{ c #D9DBDEFF",
  "{J c #D9DBF0FF",
  "'t c #DAD4E0FF",
  "'B c #DAD6DDFF",
  "M8 c #DAD9E9FF",
  "&J c #DADAD8FF",
  "]n c #DADBDBFF",
  "{- c #DADBEFFF",
  "{[ c #DADDF2FF",
  "'V c #DBD8DCFF",
  "'/ c #DBD9DBFF",
  "]* c #DBDADCFF",
  "|K c #DBDBD7FF",
  ",v c #DBDBDBFF",
  "{d c #DBDCF0FF",
  "`0 c #DCD8DAFF",
  ",^ c #DCDCDCFF",
  "}1 c #DCDFF1FF",
  "'= c #DDD7E0FF",
  "`k c #DDD8DBFF",
  "`D c #DDD8DDFF",
  "`- c #DDDBDAFF",
  "]N c #DDDCDEFF",
  "[4 c #DDDCE3FF",
  "%I c #DDDDDBFF",
  "[c c #DDDEE8FF",
  "[W c #DDDEEEFF",
  "=[ c #DEDEDEFF",
  "oq c #DEDFDBFF",
  "}d c #DEE0EEFF",
  "{H c #DEE0F2FF",
  "}Z c #DEE1EDFF",
  "'- c #DFD9E2FF",
  "'C c #DFDDDEFF",
  "[x c #DFDEE5FF",
  "rH c #DFDFDEFF",
  "={ c #DFDFDFFF",
  "]: c #DFE0DAFF",
  "yy c #DFE0DFFF",
  "`( c #E0DAE1FF",
  "'y c #E0DAE4FF",
  "'M c #E0DBE6FF",
  "'N c #E0DCE5FF",
  "|9 c #E0E0E2FF",
  "{= c #E0E0F0FF",
  "`O c #E1E0DFFF",
  "'; c #E2DBE4FF",
  "`) c #E2DCE3FF",
  "`F c #E2DDE3FF",
  "'p c #E2DFE0FF",
  "`; c #E2E0E0FF",
  "{s c #E2E1F2FF",
  "]y c #E2E3DDFF",
  "'u c #E3DDE6FF",
  "'Z c #E3E1E1FF",
  "[3 c #E3E1E4FF",
  "+S c #E3E3E3FF",
  "{] c #E3E3F3FF",
  "X` c #E3E5E3FF",
  "`_ c #E4DEE5FF",
  "[E c #E4E3EFFF",
  "%- c #E4E4E2FF",
  "&I c #E4E4E4FF",
  "`l c #E5E0E3FF",
  "`G c #E5E0E5FF",
  "': c #E5E0E7FF",
  "]= c #E5E4E2FF",
  "#* c #E5E5E4FF",
  "`` c #E6E0E6FF",
  "'i c #E6E3E7FF",
  "[z c #E6E4E8FF",
  "{* c #E6E5F1FF",
  "}! c #E6E6E2FF",
  ";b c #E6E6E6FF",
  "}< c #E6E7F4FF",
  "'> c #E7E1E6FF",
  "`z c #E7E2E5FF",
  "`' c #E7E2E7FF",
  "`q c #E7E3E5FF",
  "[. c #E7E5E5FF",
  "{G c #E7E5F3FF",
  ";G c #E7E7E7FF",
  "`H c #E8E3E6FF",
  "EF c #E8E6E6FF",
  "`o c #E8E7E5FF",
  "[r c #E8E8DFFF",
  "|C c #E8E8E4FF",
  "{' c #E8E8F4FF",
  "}C c #E8E9F2FF",
  "`x c #E9E4E7FF",
  "', c #E9E4E8FF",
  "`w c #E9E5E7FF",
  ":2 c #E9E9E9FF",
  "{a c #E9EAF3FF",
  "`J c #EAE5E8FF",
  "'( c #EAE8E7FF",
  "[2 c #EAE9E9FF",
  "[R c #EAE9F1FF",
  ",$ c #EAEAEAFF",
  "]M c #EAEAEBFF",
  "`] c #EBE6E9FF",
  "'A c #EBEAE9FF",
  "{F c #EBEAF3FF",
  "}s c #EBEBF5FF",
  "'< c #ECE8EBFF",
  "]| c #ECEBE8FF",
  "`X c #ECEBEAFF",
  "[l c #ECEBECFF",
  "[T c #ECEBEFFF",
  "}, c #ECEBF5FF",
  ":> c #ECECECFF",
  "`c c #EDE9EBFF",
  "`[ c #EDEAEBFF",
  "{& c #EDECF3FF",
  "'1 c #EEEBEBFF",
  "{p c #EEEDF3FF",
  "{` c #EEEDF5FF",
  "<O c #EEEEEBFF",
  "]T c #EEEFE9FF",
  "`r c #EFEEEFFF",
  "`e c #F0EDEEFF",
  "`: c #F0EEEEFF",
  "[Y c #F0EFF0FF",
  "}V c #F0F1F6FF",
  ";` c #F1F1F1FF",
  "RH c #F1F2EEFF",
  "`> c #F2F0F0FF",
  "`K c #F2F0F1FF",
  "{% c #F2F0F3FF",
  "}p c #F2F0F5FF",
  "{D c #F2F0F6FF",
  "$y c #F2F2EFFF",
  "`{ c #F3F1F1FF",
  "`v c #F3F1F2FF",
  "}> c #F3F2F8FF",
  "}a c #F3F2F9FF",
  ":O c #F3F3F3FF",
  "{_ c #F4F1F7FF",
  "{i c #F4F2F5FF",
  "{S c #F5F3F6FF",
  "{$ c #F5F4F5FF",
  "[U c #F6F4F3FF",
  "[1 c #F6F6F3FF",
  "{u c #F7F6F7FF",
  ":9 c #F7F7F7FF",
  "}: c #F8F6FAFF",
  "{y c #F9F7F7FF",
  "{) c #F9F7F9FF",
  "[k c #F9F9F6FF",
  "[I c #F9F9F7FF",
  "{# c #FAF8F7FF",
  "{A c #FAF8F9FF",
  "   c none",
  
  // Image data
  "                                                                ",
  "                                                                ",
  "                      _(_)__y}_`_'_]y}_[_{_(                    ",
  "                  V>_}_|`.;_%I#*`X`o`O6&`+`@`#`$                ",
  "              <G`%`&;Z&I=[TU.6C&`*`=`-`;`:`>`,`<`1<G            ",
  "            <C`2Z0={:o;Y`3`4`5`6`7`8`9`0`q`w`e`r`t`y`u          ",
  "          ri`i<W,^;g,A`p`a`s`d`f`g`h`j`k`l`z`x`c`v`bu4`n        ",
  "        <Fu_;g,v,A=p`m`M`N`B`V`C`Z`A`S`D`F`G`H`J`c`K`L`P<F      ",
  "        `I`U+S:*,A`Y`T`R`E`W`Q`!`~`^`/`(`)`_```'`]`[`{`}`|      ",
  "      }m'.;b;_;Y'XV='o'O'+'@'#'$'%'&'*'='-';':'>','<'1`X'2o[    ",
  "      K*,<={,2:7'3'4'5'6'7'8'9'0'q'w'e'r't'y'u':'i`q'pEF'a's    ",
  "    _('d:>,N+v.1`4'f'g'h'j'k'l'z'x'c'v'b'n'm'M'N'B'V'C'Z'A'Sc!  ",
  "    _{'D,$,BZrCs'F'G'H'J'K'L'P'I'U'Y'T'R'E'W'Q'!'~'^'/'C'(Vo')  ",
  "    '_,B;b,^ok|$'`}Q''']'['{'}'|H4].]X]o]O]+]@]#]$]%]&]*]=6=]-  ",
  "    ];;G;G]:|K]>],]<]1]2]3]4]5]6g|]6]7]8]9X@]0]q]w]$]e]rrH&J]t  ",
  "    G6;`:2]yoq]u]i]p]a]s]d]f]g      ]g]h]j]k]l]z]x]c]v]b]nyy_]  ",
  "    ]m:9]M}!]N]B]V]C]Z]A]S]Dg|      g|]D]F]G]H]J]K]L]P]I]UX`]Y  ",
  "    G6:O]T|C%-]R]E]W]Q]!]~]^]g      ]gm:]/](])]_]`]']]o0][]{_]  ",
  "    ]}:>RH]|[.|9[X]$[o[O[+[@]7]6g|]6[#[$[%l.[&[*[=[-[;[:[>A'[,  ",
  "    [<={[1<O[2[3[4[5[6[7[8[9[0[qH4[w[e[r[t[y[u[i[p[a[s[d[f[g[h  ",
  "    _{[j[k$y[l[z[x[cM8[v[b[n[m[M[N[B[V[C[Z[A[S[D[F[G[H[J[K[L')  ",
  "    _([P[I[U[Y[T[R[E[W[Q[![~[^[/[([)[_[`['[][[[{[}[|{.{X{o{O{+  ",
  "      {@r*{#{${%{&{*{={-{;{:{>{,{<{1{2{3{4{5{6{7{8{9{0{q{w{e    ",
  "      {r{t{y{u{i{p{a{s{d{f{g{h{j{k{l{z{x{c{v{b{n{m{M{N{B{Vo[    ",
  "        {C{Z{A{S{D{F{G{H{J{K{L{P{I{U{Y{T{R[S{E{W{Q{!{~{^{/      ",
  "        <F{(,2{){_{`{'{]{[{{Z1{}{|}.}X}o}O}+}@}#}$}%}&}*<F      ",
  "      %.:k}=}-};}:}>},}<}1}2}3}4}53;}6}7}8}9}0}q}w}e}r}t@:@C    ",
  "    &0:l=N+g}y}u}i}p}a}s}d}f}g}h}j}k4{}l}z}x}c}v}b}n}M:W&)@m@B  ",
  "    @C@:@n&Y9)K|}N3-}B}V}C}Z}A}S}D}F}G=w}H}J}KGm}L}P:d+J9b@o*7  ",
  "      @C&Z@5EernT2}I}U}Y}T}R}E}W}~}^}/}(})}_}`}'*8*^+N*Q@o@C    ",
  "          %.+>*'&)Eeer}]}[}{}}}|]m|.|X|o}[|Orn:W&V*'+>%.        ",
  "                  &j%.@C@B:k:l:l@::l:l:k@B@C%.+j                "
};
