/* XPM */
const char *xpm_tango_devices_multimedia_player[] = {
  // Header (width height colors chars-per-pixel)
  "32 32 406 2",
  
  // Colors (code mode value)
  "+j c #00000001",
  "&T c #00000003",
  "%. c #00000004",
  "&0 c #00000005",
  "&^ c #00000006",
  ":k c #0000000C",
  "&; c #0000000D",
  "%H c #0000000E",
  "&Z c #00000011",
  "@m c #00000013",
  "@o c #00000014",
  "@n c #00000019",
  "@5 c #0000001A",
  "5U c #0000001B",
  "&Y c #00000023",
  "9) c #0000002C",
  "&R c #0000002F",
  "=( c #00000033",
  "&W c #00000034",
  "*l c #00000035",
  "tD c #00000038",
  "9c c #0000003A",
  "X% c #06060657",
  "X+ c #1E232366",
  ".} c #252D2D3E",
  "X& c #28282826",
  "X@ c #2A2A2A68",
  "3% c #2B2B2B06",
  ",c c #2B2B2B0C",
  ".X c #2C363634",
  ".3 c #2D353561",
  "|+ c #2E323738",
  "l* c #2E3436FF",
  "|] c #2E34384E",
  "|b c #2E35356A",
  "|T c #2F3537F1",
  "|' c #2F3537F9",
  "|$ c #2F373A46",
  "X, c #30303079",
  "XO c #303638EE",
  "l& c #303638FF",
  ".: c #31353773",
  "X. c #313638FF",
  ".| c #313739E5",
  ".4 c #313739ED",
  "|t c #313839BF",
  ".> c #313839ED",
  ".{ c #323738EC",
  ".2 c #323739F7",
  "|@ c #32373AEB",
  "2o c #33333305",
  ".0 c #333839ED",
  ".; c #333839FA",
  ".) c #33383AD7",
  "|# c #33383AEC",
  ".o c #33383AED",
  "|> c #33393BE9",
  "|n c #34393BED",
  "lc c #343A3CFF",
  "|, c #353A3BED",
  "|v c #353A3BFA",
  "|< c #353A3CED",
  "|% c #353B3CD8",
  "X< c #39393912",
  "Xo c #3B3F40FF",
  ".% c #3C4140FF",
  "|r c #3C4143FA",
  "|Y c #3D4141FF",
  "|` c #3E4242FF",
  "X1 c #40404020",
  "H1 c #424242D2",
  "X* c #46464699",
  "ru c #484848FF",
  ".( c #484D4EFF",
  "X> c #494949D8",
  "X# c #4A4A4AF4",
  "ry c #4A4A4AFF",
  "XX c #4A4B4BFF",
  "X= c #4C4C4CEC",
  ":+ c #4E4E4EFF",
  ".m c #4E4F4EFF",
  "rt c #4F4F4FFF",
  ";] c #505050FF",
  ";E c #515151FF",
  "kx c #525252FF",
  ":e c #545454FF",
  "IB c #545553FF",
  "(m c #545653FF",
  ".n c #575857FF",
  ".S c #595958FF",
  ".C c #595A59FF",
  "(u c #5A5B59FF",
  "X: c #5D5D5DFD",
  ".G c #5F5F5EFF",
  "X- c #606060FE",
  ">J c #606060FF",
  "(% c #60635FFF",
  ":8 c #616161FF",
  "fH c #61635FFF",
  "IN c #616360FF",
  ".s c #616361FF",
  "P0 c #626261FF",
  ".] c #636463FF",
  ".p c #646563FF",
  "/D c #646663FF",
  "i# c #646763FF",
  "6( c #656565FF",
  ".a c #656664FF",
  ".8 c #656864FF",
  "|J c #656B3FFF",
  "KS c #676865FF",
  "._ c #676A67FF",
  "^G c #696B68FF",
  "Px c #696C68FF",
  "Nv c #6A6A6AFF",
  ".[ c #6A6F6BFF",
  "|H c #6A7147FF",
  ".7 c #6C6F6BFF",
  "X; c #6D6D6DFC",
  ".R c #6D6E6CFF",
  "|L c #6D753EFF",
  "|K c #6D7541FF",
  ";[ c #6E6E6EFF",
  "5/ c #6E6F6CFF",
  ".I c #6F706DFF",
  "Kb c #6F706EFF",
  ".6 c #6F726EFF",
  ".< c #70736FFF",
  "<V c #71717109",
  "}g c #71726FFF",
  ".i c #717470FF",
  "|C c #717555FF",
  ".U c #717576FF",
  ";W c #727272FF",
  "KQ c #727370FF",
  ".k c #737471FF",
  "I} c #737474FF",
  "4I c #737570FF",
  "BM c #737571FF",
  "., c #737672FF",
  "GA c #747572FF",
  "Kh c #747573FF",
  ".w c #747773FF",
  ".l c #757674FF",
  "h# c #757773FF",
  "ci c #757774FF",
  "|B c #757A58FF",
  "<| c #767675FF",
  ".P c #767773FF",
  ".! c #767873FF",
  "(V c #767874FF",
  ".9 c #767978FF",
  "5q c #777974FF",
  "BK c #777975FF",
  ".f c #777976FF",
  ".H c #787A75FF",
  "Im c #787B77FF",
  "|M c #787D57FF",
  "|V c #787D5BFF",
  ".Q c #797B76FF",
  ".- c #797D7CFF",
  ".F c #7A7C77FF",
  "zv c #7A7C78FF",
  ".L c #7B7D78FF",
  ".A c #7B7D79FF",
  ".* c #7B7E7AFF",
  "E_ c #7C7E79FF",
  "hH c #7C7E7AFF",
  "yb c #7D7F7BFF",
  ".$ c #7D7F7FFF",
  ".1 c #7D807CFF",
  "|Z c #7D825FFF",
  "(2 c #7E807CFF",
  ".h c #7E807DFF",
  "|S c #7E835DFF",
  ".V c #7F7F7EFF",
  ".M c #7F7F7FE9",
  "=, c #7F7F7FFF",
  "5D c #7F817DFF",
  ".N c #8080808E",
  ".Z c #80808092",
  "mk c #808080FF",
  "B1 c #80817EFF",
  "W. c #80827DFF",
  ".b c #80827EFF",
  "yq c #80827FFF",
  ".@ c #80837FFF",
  "Bn c #81827FFF",
  "lW c #81837FFF",
  ".. c #818483FF",
  "g( c #828380FF",
  ".v c #828481FF",
  "|A c #828862FF",
  "yu c #838582FF",
  ".c c #838583FF",
  ".+ c #838682FF",
  "|w c #84857DFF",
  "|& c #858685FF",
  ".y c #858785FF",
  "|P c #858F4AFF",
  "|q c #86877DFF",
  "|0 c #86877EFF",
  "|_ c #868888FF",
  "|W c #86904CFF",
  "-K c #878787FF",
  "|9 c #87887EFF",
  "|8 c #87887FFF",
  "|1 c #878881FF",
  ".= c #878A86FF",
  "Jc c #878A87FF",
  "xj c #8888882F",
  "|7 c #88897FFF",
  "|6 c #888980FF",
  "g/ c #888A87FF",
  "|Q c #88924EFF",
  "`@ c #898989FB",
  "|2 c #898A80FF",
  "|3 c #898A81FF",
  "g% c #898A88FF",
  "P_ c #898A89FF",
  "|U c #898C8CFF",
  "|4 c #8A8B81FF",
  "|5 c #8A8B82FF",
  "BA c #8A8B89FF",
  ".g c #8A8B8AFF",
  ".j c #8A8C8AFF",
  "|) c #8A9351FF",
  "mV c #8B8B8BFF",
  "Bb c #8B8C8AFF",
  "./ c #8B8D89FF",
  "BS c #8B8D8AFF",
  ".r c #8B8D8BFF",
  "|G c #8B9260FF",
  "|! c #8B9453FF",
  ";* c #8C8C8CFF",
  ".d c #8C8D8CFF",
  "|( c #8C9655FF",
  ".e c #8D8F8DFF",
  ".u c #8D908DFF",
  "|x c #8D9656FF",
  "|~ c #8E9757FF",
  "-, c #8F8F8FFF",
  ".t c #8F908EFF",
  ".# c #8F928EFF",
  "|/ c #8F9859FF",
  "B2 c #90918FFF",
  "5k c #90928FFF",
  "|^ c #90995AFF",
  ".D c #919191EE",
  "d] c #91938FFF",
  "|F c #919767FF",
  "h@ c #929490FF",
  "e` c #929491FF",
  "|z c #929B5DFF",
  "eJ c #939591FF",
  "|E c #939592FF",
  "5h c #949692FF",
  ".' c #949693FF",
  "|c c #949696FF",
  ".` c #959793FF",
  "|l c #959E62FF",
  "2@ c #969696FF",
  "EQ c #969795FF",
  "L& c #969894FF",
  "|| c #969896FF",
  "5p c #979894FF",
  "<q c #989997FF",
  "e( c #989A97FF",
  "k> c #999A97FF",
  "1c c #999B97FF",
  "|} c #999C90FF",
  "|k c #99A167FF",
  "[] c #9A9B99FF",
  "Pl c #9A9C99FF",
  "|{ c #9A9D94FF",
  ".5 c #9A9D9AFF",
  ".J c #9B9B9B42",
  "KR c #9B9C99FF",
  ".B c #9B9D9BFF",
  "By c #9C9D9AFF",
  "|j c #9CA56DFF",
  "2$ c #9D9D9DFF",
  "Bq c #9D9E9BFF",
  ".z c #9D9F9CFF",
  ".q c #9D9F9DFF",
  "<y c #9E9E9EFF",
  "=1 c #9EA09DFF",
  "*~ c #9EA09EFF",
  "|N c #9EA475FF",
  "|D c #9EA573FF",
  "]y c #9FA09DFF",
  "*{ c #9FA19EFF",
  "|: c #9FA1A0FF",
  "5, c #A0A0A0FF",
  "<g c #A0A19FFF",
  ".x c #A0A2A0FF",
  "|h c #A0A872FF",
  "X$ c #A1A1A1FC",
  "r| c #A1A29FFF",
  "Pz c #A1A3A0FF",
  "|u c #A2AA77FF",
  "<S c #A3A4A2FF",
  "|g c #A3AB77FF",
  ".K c #A4A4A4E1",
  ".& c #A4A7A4FF",
  "=W c #A5A5A5FF",
  "|I c #A5A7A4FF",
  "|i c #A5AC7BFF",
  "-6 c #A6A6A6FF",
  "|f c #A6AE7CFF",
  "L` c #A7A8A5FF",
  "E) c #A7A8A6FF",
  "-` c #A9A9A9FF",
  "j4 c #A9AAA8FF",
  "|p c #A9B080FF",
  "cW c #AAAAAA03",
  ",C c #AAAAAAFF",
  "(b c #AAABA9FF",
  ".O c #AAACAAFF",
  "v{ c #ACACABFF",
  "|a c #ACB384FF",
  "<v c #ADADADFF",
  "(- c #ADAEACFF",
  ".~ c #ADAEAEFF",
  ".Y c #AEAEAEF7",
  "2t c #AEAFACFF",
  "|s c #AEB587FF",
  "|[ c #AFB1AFFF",
  "|d c #AFB688FF",
  ":& c #B1B1B1FF",
  "3w c #B2B2B1FF",
  "<# c #B2B2B2FF",
  "Q> c #B3B3B3FF",
  "|R c #B5B7B5FF",
  ".T c #B7B7B779",
  "q* c #B7B8B7FF",
  "5X c #B9B9B9FF",
  "5j c #B9BAB9FF",
  ",G c #BABABAFF",
  "|m c #BABCBAFF",
  "5> c #BBBBBBFF",
  "|; c #BBBCBAFF",
  "|- c #BCBEBBFF",
  "Bv c #BDBDBBFF",
  "<W c #BDBDBDFF",
  "hn c #BDBEBCFF",
  "|e c #BEBEBDFF",
  "<1 c #BEBEBEFF",
  "32 c #BEBFBDFF",
  ".W c #BFBFBF8B",
  ".E c #BFBFBFFC",
  ";= c #BFBFBFFF",
  "rK c #BFC0BDFF",
  "h+ c #BFC0BEFF",
  "|y c #BFC0BFFF",
  "gc c #BFC1BEFF",
  ";g c #C0C0C0FF",
  "5( c #C0C1BFFF",
  ".^ c #C1C1C125",
  ";U c #C1C1C1FF",
  "|= c #C1C2C0FF",
  "KY c #C2C3C1FF",
  ">H c #C2C4C1FF",
  ":* c #C3C3C3FF",
  "|* c #C3C4C2FF",
  "3C c #C3C4C3FF",
  ":6 c #C4C4C4FF",
  ";Y c #C5C5C5FF",
  "Qj c #C6C6C6FF",
  ",1 c #C7C7C7FF",
  ">x c #C9C9C9FF",
  ",< c #CACACAFF",
  "#+ c #CCCCCCFF",
  "+c c #CFCFCFFF",
  ",, c #D3D3D3FF",
  ",n c #D4D4D4FF",
  ":o c #D5D5D5FF",
  ",M c #D7D7D7FF",
  ",B c #D8D8D8FF",
  ",m c #DADADAFF",
  ",^ c #DCDCDCFF",
  "=b c #DDDDDDFF",
  "={ c #DFDFDFFF",
  "+Z c #E1E1E1FF",
  "+A c #E2E2E2FF",
  "+S c #E3E3E3FF",
  "&I c #E4E4E4FF",
  ";b c #E6E6E6FF",
  ";G c #E7E7E7FF",
  ":# c #E8E8E8FF",
  ":2 c #E9E9E9FF",
  ",$ c #EAEAEAFF",
  ":, c #EBEBEBFF",
  ":> c #ECECECFF",
  ";9 c #EDEDEDFF",
  ";A c #EFEFEFFF",
  ";T c #F0F0F0FF",
  ";' c #F2F2F2FF",
  ":O c #F3F3F3FF",
  ":3 c #F4F4F4FF",
  "=a c #F5F5F5FF",
  ";R c #F8F8F8FF",
  ":5 c #FAFAFAFF",
  ";Q c #FBFBFBFF",
  ";7 c #FCFCFCFF",
  "   c none",
  
  // Image data
  "                                                                ",
  "                                                                ",
  "  |+|@l*l*l*l*l*l*l*l*l*l*l*l*l*l*l*l*l*l*l*l*l*l*l*l&|#|$      ",
  "  |%|&rK|*|*>HKYKYKY|=|=5(5(5(gch+h+rK323232hnhn|-|-|;|:|>      ",
  "  |,5jL`ByKRk>k>k>k>k>k>k>k>k>k>k>k>k>k>k>k>k>KRByBy2tBvl*      ",
  "  |<3Cj4E)g%|1|2|3|4|5|5|5|4|3|2|6|7|8|9|0|q|wg%E)(b|e|r|t      ",
  "  |<|y<S<gP_|u|i|p|a|s|d|s|a|p|f|g|h|j|k|l|z|xP_<gv{|c|v|b      ",
  "  |n|mPle(B2|h|M|N|B|V|C|Z|A|S|D|F|G|H|J|K|L|PB2e(|I|U|Y|T2o    ",
  "  |n|R|E5kEQ|W|Q|!|x|~|^|/|x|(|)|W|P|P|P|P|P|WEQ5k=1|_|`|'|]    ",
  "  |n|[BSg/e(|{|}|}|}|}|}|}|}|}|}|}|}|}|}|}|}|{<qg/||..|`l*.X    ",
  "  .o.O.+.@.@.@.@.@.@.@.@.@.@.@.@.@.@.@.@.@.@.@.@.@.#.$.%|T3%    ",
  "  .o.&.*ImImImImImImImImImImImImImImImImImImImImIm.=.-.;.:      ",
  "  .>*~.,.<.<.<.<.<.<.<.<.<.<.<.<.<.<.<.<.<.<.<.<.<.1Jc.2.3      ",
  "  .4.5.6.7.7.7.7.7.7.7.7.7.7.7.7.7i#(m(m(%Px(%(m(m.85k.9l*      ",
  "  .0.q.wg%.e.r.t.r.y.y.uyq.i.i.i.i.pNv<y.aIN.s;[2$/D.wPll*      ",
  "  .o*~zv.d.fBb.d.g.h.jBA(VBKBKBKBK.k;W<v.lGAKQ<|<vKhBK.zl*      ",
  "  .o.x5DhHhHhHhHhHhHhHhHhHhHhHhHhH5D.c.vlW(2lWyuyu5DhH*{l*      ",
  "  .oPzg(5D5D5D5D5D5D5D5D5D5D5D5D5D5D5D5D5D5D5D5D5D5D5Dr|l*      ",
  "  .o*{Bn(2(2(2(2(2(2(2(2(2(2(2(2(2(2(2(2(2(2(2(2(2(2(2]yl*      ",
  "  .o.q.bybybybybybybybybybhHKS.nryru.m(u5/ybybybybybybBqlc.M.N<V",
  "  .o.B5DhHhHhHhHhHhHhHhHGA;E:8-,=W-`<y.V:+.C(VhHhHhHhHKRl*=,=,.Z",
  "  .o[]yb.A.A.A.A.A.A.A.frt-K<#;Y:o,m,n:*-`>J.SBM.A.A.A1cl*xj;*.D",
  "  .o<qE_.F.F.F.F.F.F.F.Gmk5X&I;T;':O:O;'+ZQ>:efH.H.F.F5pl*.J5,.K",
  "  .oL&.L5qKb(V.P.I.HKQ;]<#;b;A:O,<;R;R=a;';bmVIBciEQ(-3w.U.YQ>.T",
  "  .o5h.F}g2@.t.R,CB1P06(#+;9+A=b;A;7;7;R:3:#;=:&<15><1<1<W.E.WcW",
  "  .oh@.Q5q}g.!h#KQ.!^G:8,M;G,^:3;R:5:>,BQj;Y,m;A:2;g<1<1.~.^    ",
  "  .o./W..!.!.!.!.!.!4Ikx,n:2;G;';'>x,<={:O;7:3,$,,;g5>q*.(%H    ",
  "  .)._d].`.`.'5h|E|EeJ.]-6:2:>;A={:o;Q:O;G,n;U<W,Gj4e`.[.{@5&T  ",
  "  .}.|l*l*l*l*l*l*l*l*X.XX,1:2:,+S:6+c;Y;U5XI}Xol*l*l*XOX+@n+j  ",
  "  +j@m&Y&R*ltDtDtDtDtDtDX@X#X$={:2={:o,,`@H1X%9ctD=(&W9)5U%.    ",
  "      &0:k@m@o@o@o@o@o@o@oX&X*X=X-X;X:X>X,&Y@o@o@o&Z&;&^        ",
  "                                X<X1,c%.                        "
};
