/* XPM */
const char *xpm_tango_devices_network_wired[] = {
  // Header (width height colors chars-per-pixel)
  "32 32 294 2",
  
  // Colors (code mode value)
  "+j c #00000001",
  "&j c #00000002",
  "&T c #00000003",
  "%. c #00000004",
  "&0 c #00000005",
  "&^ c #00000006",
  "@C c #00000007",
  "@B c #0000000A",
  ":k c #0000000C",
  "&; c #0000000D",
  "%H c #0000000E",
  ":l c #0000000F",
  "@: c #00000010",
  "&Z c #00000011",
  "+r c #00000012",
  "@m c #00000013",
  "@o c #00000014",
  "*' c #00000015",
  "+k c #00000016",
  "=N c #00000018",
  "@n c #00000019",
  "@5 c #0000001A",
  "5U c #0000001B",
  "&) c #0000001C",
  "*Q c #0000001D",
  "9b c #0000001E",
  "&V c #0000001F",
  "+g c #00000021",
  "&Y c #00000023",
  ":Q c #00000024",
  ":W c #00000025",
  "+N c #00000026",
  "+J c #00000027",
  "er c #00000028",
  "tS c #00000029",
  "rn c #0000002A",
  "*F c #0000002B",
  "*^ c #0000002E",
  "&R c #0000002F",
  ":d c #00000030",
  "T2 c #00000032",
  "=( c #00000033",
  "*8 c #00000036",
  "9c c #0000003A",
  ":h c #0000003B",
  "oe c #09090938",
  "o$ c #0A0A0A33",
  "og c #0B0B0B45",
  "ow c #1010104E",
  "oX c #13131335",
  "=M c #2323233A",
  "oZ c #2E2E2E16",
  "X! c #2F2F2F41",
  "ov c #3131315E",
  "od c #37373774",
  "oh c #3A3A3C5D",
  "o1 c #3A3A3C8C",
  "on c #3B3B3E4E",
  "o9 c #3C3C3C8C",
  "XE c #3D3D3D4B",
  "o, c #404040A3",
  "o% c #444444B7",
  "XU c #45454559",
  "ob c #454545AE",
  "of c #464646C9",
  "or c #4646479D",
  "oB c #46464954",
  "oo c #474747C9",
  "oq c #474747D6",
  "oA c #48484E27",
  "8# c #49494907",
  "Xb c #4949490E",
  "o< c #494949E0",
  "X_ c #4A4A4AD8",
  "Xg c #4B4B4B11",
  "oV c #4C4C4C54",
  "XJ c #4C4C4C6B",
  "XS c #4C4C4C72",
  "X~ c #4C4C4CE4",
  "X= c #4C4C4CEC",
  "om c #4C4C4E97",
  "oj c #4C4C4FCC",
  "5L c #4D4D4D14",
  "5R c #4D4D4D1E",
  "F> c #4D4D4D49",
  "XF c #4D4D4D6E",
  "Fq c #4D4D4D78",
  "Xv c #4D4D4D7E",
  "Xt c #4D4D4D88",
  "X8 c #4D4D4D8F",
  "X3 c #4D4D4D95",
  "X4 c #4D4D4DBA",
  "XG c #4D4D4DD6",
  "XH c #4D4D4DE0",
  "XD c #4D4D4DE1",
  "D( c #4D4D4DE6",
  "XI c #4D4D4DEB",
  "ri c #4D4D4DF2",
  "2t c #4E4E4E0D",
  "8W c #4E4E4E17",
  "98 c #4E4E4E1A",
  "os c #4E4E4E27",
  "Xy c #4E4E4E31",
  "oC c #4E4E4E34",
  "Xf c #4E4E4E83",
  "X2 c #4E4E4E97",
  "X9 c #4E4E4ED2",
  "Xn c #4E4E4EE1",
  "XA c #4E4E4EEA",
  "XV c #4E4E4EEC",
  ":+ c #4E4E4EFF",
  "o2 c #4E4E4FE2",
  "o8 c #4E4E5172",
  "p[ c #4F4F4FEF",
  "oa c #4F4F518E",
  "o> c #4F4F52AC",
  "Xu c #505050E5",
  "Xc c #505050EF",
  "o# c #505051A6",
  "o. c #5050526D",
  "X| c #505052F8",
  "X] c #505052FF",
  "oc c #50505443",
  "ot c #515153FE",
  "o@ c #515153FF",
  "kx c #525252FF",
  "~i c #535353F2",
  "Kv c #545454F9",
  "o7 c #545457D1",
  ",/ c #55555506",
  "<; c #55555509",
  "<* c #5555550C",
  "Kw c #5555550F",
  "o: c #555557FF",
  "R% c #565656F7",
  "Xr c #585858F4",
  "o0 c #585858FD",
  "Xh c #595854F3",
  "o* c #59595BFF",
  "X7 c #5B5B5BF6",
  "oO c #5B5B5CFF",
  "u3 c #5C5C5C4E",
  "ox c #5C5C5E72",
  "o+ c #5C5C5EFF",
  "XK c #5D5D5DFC",
  "l< c #5F5F5FFF",
  "o& c #5F5F60FF",
  "XR c #626262E8",
  "6( c #656565FF",
  "<, c #66666605",
  ">L c #666666FF",
  "o3 c #686869FF",
  "6/ c #696969FF",
  "o= c #69696AFF",
  "X} c #69696BFF",
  "X[ c #6A6A6BFF",
  "oM c #6B6B6E9D",
  ">( c #6C6C6CFF",
  "oy c #6C6C6EF8",
  "oN c #6D6D6D7E",
  "ok c #6E6E6FD1",
  "X) c #70707190",
  "X` c #727273FF",
  ",c c #737373FF",
  "t4 c #747474FF",
  "o; c #777778FF",
  "o- c #78787AFF",
  "op c #79797ACD",
  ",h c #7A7A7AFF",
  "=1 c #7B7B7BFF",
  "oz c #7D7D7DB8",
  "=, c #7F7F7FFF",
  "XQ c #808080E9",
  ";@ c #818181FF",
  "X^ c #818183FF",
  "ol c #828284D4",
  "-^ c #848484FF",
  "1{ c #868686FF",
  "o4 c #878788FF",
  "-O c #888888FF",
  "-Y c #898989FF",
  "mV c #8B8B8BFF",
  "o6 c #8D8D8FF8",
  "9M c #8E8E8EFF",
  "2+ c #909090FF",
  "pb c #919191FF",
  "<' c #959595FF",
  "X{ c #969697FF",
  "oi c #979797F2",
  ",F c #979797FF",
  "ou c #98989AF9",
  "o5 c #9B9B9CFF",
  "2$ c #9D9D9DFF",
  "<y c #9E9E9EFF",
  "<m c #9F9F9FFF",
  "X( c #9F9FA0FF",
  "6| c #A3A3A3FF",
  "=C c #A4A4A4FF",
  "=W c #A5A5A5FF",
  "-6 c #A6A6A6FF",
  "-V c #A7A7A7FF",
  "<Q c #A8A8A8FF",
  "-` c #A9A9A9FF",
  ",C c #AAAAAAFF",
  "<b c #ACACACFF",
  ",Z c #AEAEAEFF",
  "tz c #AFAFAFFF",
  ">F c #B0B0B0FF",
  ":& c #B1B1B1FF",
  "XP c #B1B1B2FF",
  "<# c #B2B2B2FF",
  "X/ c #B4B4B5FF",
  "6{ c #B5B5B5FF",
  "9m c #B8B8B8FF",
  "X0 c #B9B5A9FF",
  "5X c #B9B9B9FF",
  ",G c #BABABAFF",
  "5> c #BBBBBBFF",
  "=R c #BCBCBDFF",
  "<W c #BDBDBDFF",
  "XT c #BDBDBEFF",
  "X5 c #C0AF83FF",
  ";U c #C1C1C1FF",
  "Qj c #C6C6C6FF",
  ":7 c #C8C8C8FF",
  "XL c #C9C9CAFF",
  ",< c #CACACAFF",
  "#+ c #CCCCCCFF",
  "+v c #D0D0D0FF",
  "XW c #D2D2D3FF",
  "XY c #D4D4D5FF",
  ":o c #D5D5D5FF",
  ",N c #D6D6D6FF",
  ",M c #D7D7D7FF",
  "6k c #DADAD9FF",
  ",m c #DADADAFF",
  "Xi c #DBC794FF",
  ",v c #DBDBDBFF",
  ",^ c #DCDCDCFF",
  "=b c #DDDDDDFF",
  "X' c #DEDEDFFF",
  "={ c #DFDFDFFF",
  "&_ c #E0E0E0FF",
  "+Z c #E1E1E1FF",
  "+A c #E2E2E2FF",
  "+S c #E3E3E3FF",
  "&I c #E4E4E4FF",
  ";3 c #E5E5E5FF",
  ";G c #E7E7E7FF",
  ":# c #E8E8E8FF",
  ":2 c #E9E9E9FF",
  "@Z c #E9E9EAFF",
  ",$ c #EAEAEAFF",
  ":, c #EBEBEBFF",
  ":> c #ECECECFF",
  ";9 c #EDEDEDFF",
  "Xj c #EED183FF",
  ":< c #EEEEEEFF",
  ";A c #EFEFEFFF",
  ";T c #F0F0F0FF",
  "X6 c #F1EFE9FF",
  ";` c #F1F1F1FF",
  ";' c #F2F2F2FF",
  ":O c #F3F3F3FF",
  ":3 c #F4F4F4FF",
  "=a c #F5F5F5FF",
  "+W c #F6F6F6FF",
  ":9 c #F7F7F7FF",
  ";R c #F8F8F8FF",
  "Xx c #F9F1DBFF",
  "Xe c #F9F2DCFF",
  ":v c #F9F9F9FF",
  "XB c #FAF9F6FF",
  ":5 c #FAFAFAFF",
  "Xs c #FBDD8DFF",
  "Xd c #FBDE8EFF",
  "Xa c #FBEAC0FF",
  ";Q c #FBFBFBFF",
  "XZ c #FCEEC9FF",
  ";7 c #FCFCFCFF",
  "Xl c #FDE29CFF",
  "XN c #FDE5A6FF",
  "Xk c #FDF2D1FF",
  "XC c #FDF3D6FF",
  "=q c #FDFDFDFF",
  "Xw c #FECC47FF",
  "Xq c #FEDC7FFF",
  "Xm c #FEE8ABFF",
  "=w c #FEFEFEFF",
  "XM c #FFC425FF",
  "Xz c #FFC527FF",
  "Xp c #FFD462FF",
  "1U c #FFFFFFFF",
  "   c none",
  
  // Image data
  "                                                                ",
  "                                                                ",
  "                                                                ",
  "            <,X2kxX398                                          ",
  "          KwX4X5X6:&X7X88W                                      ",
  "        5RX9X0XqXwXe:<<QXrXt5L                                  ",
  "      XyXuXiXpXaXsXd+W:9:2<m~iXfXg                              ",
  "    F>XhXjXkXlXzXx:9+W=a:O=a+S,FXcXvXb                          ",
  "    Xn6kXmXMXNXB;R:9+W=a:O;';':O,^9MXVFq<*                      ",
  "    p[Qj:2XCXZ:5;R:9+W;':>&I;A;T;A;`,M-^XAXS<;                  ",
  "    XD;U-V,v;Q:5;R:9:<;T:O:3;A+Z;9;9:<;T+v=1D(XF8#              ",
  "    XG<W<Q-6:7:5;R:9;';3:3=a=a+W@Z=b:>:,:,:<:7,cX4              ",
  "    XH5X:&-6=W,G:9:9+W=a={:>+W:9;R:v&_X':2:#,$Qj:+              ",
  "    XJ>L5X<#-6-6tz;`+W=a:O;G:o=a;R:v:5+W,N,^=C-Vri              ",
  "      XJXK<#6{-6-6<Q:#=a:O;':<XL+A:5;Q;7;7:<XP6|XI              ",
  "      &0XUR%-`9m-6-6-6,m:O;';`;TXY;U;`;7=q=w1UXTXR              ",
  "      &^%HXEXc2$5>-V-6=W,<;';`;T:<+A<#XW;Q=w1U=RXQ              ",
  "      %.&;+kX!X~pb<W<Q-6-6<W;`;T:<&_2+X^>F#+X/X(X)              ",
  "      +j@B@m&)=MX_;@<W,C-6-6,Z;9,^9MX`X]X[X{X{X}X|o.            ",
  "        &^:l=N+goXoot45><b-6-6<ymV=,,hX]X]X]X]oOo+o@o#,/        ",
  "        +j@B@m&):Wo$o%6/9mtz-6-Y=,1{=Wo&X]X]o*o=o-o;o:o><,      ",
  "          &T:k*'9b+J:do,l<:&<#mV-O=W,co<o1o2o@o3o4o5o6o7o8      ",
  "            %.&;+k9b+N*^o9o0-`<b=W>(oqow:hoeorotoyouoiopoaos    ",
  "              &T:k@o&):Q*FodKv<'6(ofog9c*8:drnohojokolozoxoc+j  ",
  "                &j@B+r@n&V:WovX=oboe=(T2&R*F:W&VonomoMoNu3os<,  ",
  "                    &^&;@o@n9b&Y+NertSer+N&Y&V@5*'oBoVoC98      ",
  "                      +j@C&;+r+k@5&)*Q9b*Q5U=N@o:loZoA2t        ",
  "                            %.@B%H@:+r@m+r&Z:l:k@C+j            ",
  "                                +j&j%.&0&^%.&T+j                ",
  "                                                                ",
  "                                                                ",
  "                                                                "
};
