/* XPM */
const char *xpm_tango_devices_printer[] = {
  // Header (width height colors chars-per-pixel)
  "32 32 207 2",
  
  // Colors (code mode value)
  "+n c #00000001",
  "&j c #00000002",
  "&T c #00000003",
  "&0 c #00000005",
  "&^ c #00000006",
  "@C c #00000007",
  ":E c #00000008",
  "+> c #0000000B",
  ":k c #0000000C",
  ":l c #0000000F",
  "@: c #00000010",
  "&Z c #00000011",
  "+r c #00000012",
  "*' c #00000015",
  "[~ c #00000017",
  "@5 c #0000001A",
  ":Q c #00000024",
  ":W c #00000025",
  "@$ c #00000026",
  "er c #00000028",
  "rn c #0000002A",
  ":d c #00000030",
  "T2 c #00000032",
  "&W c #00000034",
  "*8 c #00000036",
  "*G c #00000037",
  ",W c #00000039",
  "6N c #47474696",
  "6C c #494949A8",
  "6M c #5959599B",
  "6V c #595959FC",
  ">' c #595959FF",
  "6B c #5A5A5AFB",
  "@# c #5F5F5F8E",
  "4R c #6565652B",
  "6( c #656565FF",
  ">L c #666666FF",
  "4Y c #676767FF",
  "4B c #68686836",
  "6n c #686868FC",
  ":; c #686868FF",
  "53 c #6969697C",
  "6h c #696969F9",
  "5t c #6A6A69F4",
  "CV c #6A6A69FF",
  "+m c #6B6B6BE8",
  "6Z c #6B6B6BEC",
  ":@ c #6B6B6BFF",
  "54 c #6C6C6CEF",
  "4E c #6D6D6D07",
  "5O c #6E6E6E80",
  "5o c #6E6E6EDA",
  "4W c #717171E4",
  "<4 c #80808004",
  "KW c #858583FF",
  "t< c #858585FF",
  "3= c #898989FD",
  "-Y c #898989FF",
  "3- c #8A8A8AFD",
  "+Y c #8C8C8BFF",
  "3* c #90909097",
  ",7 c #929292FF",
  "6# c #979795FF",
  "<= c #9B9B9BFF",
  ";I c #A2A2A2FF",
  "+T c #A6A6A4FF",
  "<b c #ACACACFF",
  "<v c #ADADADFF",
  "9m c #B8B8B8FF",
  "+U c #BBBAB9FF",
  "Bm c #BCBCBAFF",
  "@. c #BEBDBCFF",
  "+| c #BFBEBDFF",
  "6> c #C0C0BEFF",
  "52 c #C1C1C1FA",
  "+} c #C2C1C0FF",
  ";Z c #C2C2C2FF",
  "@@ c #C3C2C1FF",
  "+{ c #C3C3C1FF",
  "+I c #C3C3C2FF",
  ":* c #C3C3C3FF",
  ":6 c #C4C4C4FF",
  "+[ c #C5C4C2FF",
  ";Y c #C5C5C5FF",
  "+] c #C6C5C4FF",
  "Qj c #C6C6C6FF",
  "+' c #C7C7C5FF",
  "`5 c #C9C8C6FF",
  "+F c #C9C8C7FF",
  "5v c #C9C9C7FF",
  "+` c #CAC9C7FF",
  ",< c #CACACAFF",
  "+_ c #CBCBC9FF",
  "+a c #CBCBCBFF",
  "`, c #CCCBCBFF",
  "+) c #CDCCCAFF",
  "+B c #CDCCCCFF",
  "6= c #CDCDCBFF",
  "+M c #CDCDCDFA",
  "'` c #CECDCDFF",
  "+( c #CECECBFF",
  "6c c #CFCECDFF",
  "yv c #CFCFCDFF",
  "6* c #D0D0CEFF",
  "+/ c #D1D0CEFF",
  "y5 c #D1D1D0FF",
  "+^ c #D2D2CFFF",
  "g> c #D2D2D1FF",
  "+~ c #D3D3D1FF",
  ",, c #D3D3D3FF",
  "+G c #D4D3D1FF",
  "r* c #D4D4D3FF",
  ",n c #D4D4D4FF",
  "+! c #D5D5D2FF",
  "#0 c #D5D5D4FF",
  "]> c #D6D5D3FF",
  "+Q c #D6D6D3FF",
  "@+ c #D7D6D4FF",
  "@X c #D7D6D6FF",
  "6% c #D7D7D5FF",
  ",M c #D7D7D7FF",
  "$t c #D8D8D7FF",
  ",B c #D8D8D8FF",
  "+W c #D9D9D6FF",
  ",b c #D9D9D9FF",
  "@O c #DAD9D7FF",
  "+D c #DAD9D9FF",
  "+E c #DADAD7FF",
  "&J c #DADAD8FF",
  ",m c #DADADAFF",
  "%~ c #DBDBD9FF",
  "t5 c #DBDBDAFF",
  ",v c #DBDBDBFF",
  "5R c #DCDBDAFF",
  "lw c #DCDCDBFF",
  ",^ c #DCDCDCFF",
  "5Y c #DDDCDAFF",
  "+A c #DDDCDBFF",
  "%I c #DDDDDBFF",
  "6s c #DDDDDCFF",
  "6F c #DEDDDDFF",
  "&v c #DEDEDDFF",
  "=[ c #DEDEDEFF",
  "+C c #DFDEDDFF",
  "={ c #DFDFDFFF",
  "+V c #E0DEDEFF",
  "@o c #E0E0DDFF",
  "%^ c #E0E0DEFF",
  "]Z c #E1E0DEFF",
  "`O c #E1E0DFFF",
  "6D c #E1E1E0FF",
  "+Z c #E1E1E1FF",
  "5N c #E2E1E1FF",
  "%# c #E2E2E1FF",
  "69 c #E3E2E1FF",
  "v= c #E3E3E0FF",
  "%e c #E3E3E1FF",
  "+S c #E3E3E3FF",
  "6J c #E4E3E1FF",
  "&I c #E4E4E4FF",
  "]= c #E5E4E2FF",
  "6S c #E5E4E3FF",
  "5U c #E6E5E4FF",
  "o_ c #E6E5E5FF",
  ";G c #E7E7E7FF",
  "`o c #E8E7E5FF",
  "+R c #E8E7E7FF",
  "%w c #E8E8E6FF",
  ":# c #E8E8E8FF",
  "+N c #E9E8E6FF",
  ":2 c #E9E9E9FF",
  "'A c #EBEAE9FF",
  "#p c #EBEBE9FF",
  ":, c #EBEBEBFF",
  ";9 c #EDEDEDFF",
  "+P c #EEECEBFF",
  "+L c #EEEDEBFF",
  "5J c #EEEDECFF",
  "#& c #EEEEECFF",
  ":< c #EEEEEEFF",
  "+K c #EFEEECFF",
  "6Y c #EFEEEDFF",
  ";A c #EFEFEFFF",
  "+J c #F0EFEDFF",
  "6I c #F0EFEEFF",
  "l8 c #F0F0EFFF",
  ";T c #F0F0F0FF",
  "+H c #F1EFEEFF",
  "Vs c #F1F0EEFF",
  "6L c #F1F0EFFF",
  ";` c #F1F1F1FF",
  "V6 c #F2F1EFFF",
  ";' c #F2F2F2FF",
  "55 c #F3F3F2FF",
  ":O c #F3F3F3FF",
  ":3 c #F4F4F4FF",
  "v0 c #F6F6F5FF",
  "6Q c #F7F6F5FF",
  ":9 c #F7F7F7FF",
  ";R c #F8F8F8FF",
  ":v c #F9F9F9FF",
  ":5 c #FAFAFAFF",
  ";Q c #FBFBFBFF",
  ";7 c #FCFCFCFF",
  "=q c #FDFDFDFF",
  "=w c #FEFEFEFF",
  "   c none",
  
  // Image data
  "                                                                ",
  "                                                                ",
  "            3*3=-Y-Y-Y-Y-Y-Y-Y-Y-Y-Y-Y-Y-Y-Y-Y-Y3=3*            ",
  "            3-:9:9:9:9:9:9:9:9:9:9:9:9:9:9:9:9:9:93-            ",
  "            -Y:9={={={={={={={={={={={={={={={={:9-Y            ",
  "            -Y:9={;Z;Z;Z;Z;Z;Z;Z;Z;Z;Z;Z;Z;Z={={:9-Y            ",
  "            -Y:9&I&I&I&I&I&I&I&I&I&I+S+S+S+S+S+S:9-Y            ",
  "            -Y:9:2+a+a+a+a+a+a+a+a,<,<,<,<,<:#:#:9-Y            ",
  "            -Y:9:<:<:<:<:<:<:<:<;9;9;9;9;9;9;9;9:9-Y            ",
  "            -Y:9:O,n,n,n,n,n,,,,,,,,,,,,,,,,;';':9-Y            ",
  "            -Y:9;R;R;R;R;R:9:9:9:9:9:9:9:9:9:9:9:9-Y            ",
  "            -Y:9=q,^,^,^,v,v,v,v:,;7;7;7;7;7;7;7:9-Y            ",
  "            -Y:9;A;A;T;T;T;`;`;`;';';':O:O:O:3:3:9-Y            ",
  "            -Y;`,M,M,B,B,B,b,b,b,m,m,m,v,v,v,^,^;`-Y            ",
  "      4B6Z4Y-Y=[;Z:*:*:*:*:6:6:6:6;Y;Y;Y;YQjQjQj={-Y4Y+m4R      ",
  "    4E4W:,;Q-Y9m<b<b<b<b<v<b<b<b<b<b<b<b<v<b<b<v9mt<;`+Z5o<4    ",
  "    5O+M;Q;Q<=;I;I;I;I;I;I;I;I;I;I;I;I;I;I;I;I;I;I,7;G;95253    ",
  "    54=q=w=w=w=w=w=w=w=w=w=w=q=q=q=q=q=q=q=q=q=q=q=q=q=q;75t    ",
  "    4Y;76J+N+B]>`oo_5U6S]=6J695N6D`O]Z+V+C6F6s+A5R+D6=+F:54Y    ",
  "    4Y:v+GV65v%e6L6LVs+H6I6I+J+J6Y6Y6Y6Y+K5J5J5J+L+P+I+U:O4Y    ",
  "    4Yv0+Y5J5U'A6Q6Q6Q6Q6Q6Q6Q6Q6Q6Q6Q6Q6Q6Q6Q6Q6Q5JKW+U;94Y    ",
  "    4Y55+T:@>L>L>L>L6(6(6(6(6(6(6(6(6(6(6(6(6(6(6(CV6#+U+R4Y    ",
  "    4Yl8+E+W6%+Q+!+~+^+/yv+(+)+_+``5+'+]+[+{+}6>+|@.Bm+U%#4Y    ",
  "    4Y#&+E+W6%+Q+!+~+^+/yv+(+)+_+``5+'+]+[+{+}6>+|@.Bm+Ulw4Y    ",
  "    4Y#p+E+W6%+Q+!+~+^+/yv+(+)+_+``5+'+]+[+{+}6>+|@.Bm+U@X4Y    ",
  "    4Y%w+E+W6%+Q+!+~+^+/yv+(+)+_+``5+'+]+[+{+}6>+|@.Bm+Uy54Y    ",
  "  &^6h%~%ev=6D%^@o&v%I5Yt5&J@O$t6%@+#0r*+Gg>y56*6c'`6=`,@@6n+r&j",
  "&j*'@#:;4Y4Y4Y4Y4Y4Y4Y4Y4Y4Y4Y4Y4Y4Y4Y4Y4Y4Y4Y4Y4Y4Y4Y4Y:;6M:Q&Z",
  "&T[~rn6N6B>'>'>'>'>'>'>'>'>'>'>'>'>'>'>'>'>'>'>'>'>'>'6V6C,W@$:l",
  "  :E@5erT2*G,W,W,W,W,W,W,W,W,W,W,W,W,W,W,W,W,W,W,W,W&W*8:d:W@:+n",
  "      &0+>&Z&Z&Z&Z&Z&Z&Z&Z&Z&Z&Z&Z&Z&Z&Z&Z&Z&Z&Z&Z&Z:l:k@C+n    ",
  "                                                                "
};
