/* XPM */
const char *xpm_tango_devices_video_display[] = {
  // Header (width height colors chars-per-pixel)
  "32 32 412 2",
  
  // Colors (code mode value)
  "+n c #00000001",
  "&j c #00000002",
  "&T c #00000003",
  "%. c #00000004",
  "&0 c #00000005",
  "&^ c #00000006",
  "$p c #00000007",
  ":E c #00000008",
  "*7 c #00000009",
  "$a c #0000000A",
  "+> c #0000000B",
  ":k c #0000000C",
  "&; c #0000000D",
  "%H c #0000000E",
  ":l c #0000000F",
  "$s c #00000010",
  "&Z c #00000011",
  "+r c #00000012",
  "$w c #00000013",
  "@o c #00000014",
  "*' c #00000015",
  "+k c #00000016",
  "[~ c #00000017",
  "=N c #00000018",
  "$^ c #00000019",
  "$z c #0000001A",
  "5U c #0000001B",
  "&) c #0000001C",
  "*Q c #0000001D",
  "9b c #0000001E",
  "&V c #0000001F",
  "&A c #00000020",
  "Ee c #00000022",
  ":Q c #00000024",
  ":W c #00000025",
  "+J c #00000027",
  "er c #00000028",
  "tS c #00000029",
  "rn c #0000002A",
  "*F c #0000002B",
  "9) c #0000002C",
  "*^ c #0000002E",
  ":d c #00000030",
  ":s c #00000031",
  "=( c #00000033",
  "&W c #00000034",
  "*8 c #00000036",
  "tD c #00000038",
  "9c c #0000003A",
  "*/ c #0000003C",
  "B% c #0000003D",
  "[G c #00000044",
  "*_ c #00000049",
  "jY c #0000004B",
  "$~ c #0303034D",
  "$K c #0808085E",
  "$L c #0F0F0F57",
  "$! c #1818187E",
  "$x c #1B1B1B4C",
  "@/ c #1C3F6EFF",
  "@} c #1F4375FF",
  "@^ c #224472FF",
  "#% c #22487BFF",
  "@I c #23426DFF",
  "#2 c #254D82FF",
  "@{ c #264979FF",
  "#H c #264B98FF",
  "#Z c #274793FF",
  "$P c #282A2893",
  "TP c #285189FF",
  "#w c #293B8AFF",
  "#s c #293D8CFF",
  "#c c #294290FF",
  "$Q c #2A2B2AAB",
  "#q c #2A528AFF",
  "#U c #2A529CFF",
  "#G c #2B4595FF",
  "#I c #2B4897FF",
  "#a c #2B568FFF",
  "#$ c #2C5181FF",
  "#B c #2D4192FF",
  "#3 c #2E3C8BFF",
  "#p c #2E5991FF",
  "#x c #2E5B96FF",
  "$B c #2F302F8E",
  "#h c #2F3F91FF",
  "#1 c #315689FF",
  "#z c #315E98FF",
  "&1 c #31609DFF",
  "$i c #32363242",
  "@~ c #32527DFF",
  "$I c #333532B8",
  "#& c #333F8CFF",
  "#C c #33619EFF",
  "%3 c #3364A3FF",
  "#y c #344191FF",
  "#V c #34629FFF",
  "2} c #3465A4FF",
  "#0 c #355C90FF",
  "#l c #35619AFF",
  "$d c #3636335F",
  "$N c #363736A6",
  "@P c #37537AFF",
  "#i c #386196FF",
  "#k c #38629BFF",
  "$W c #393A37CB",
  "@| c #39438DFF",
  "#8 c #394793FF",
  "#j c #39639BFF",
  "#u c #3C6398FF",
  "Z8 c #3E3E3E1D",
  "@( c #3E488EFF",
  "$J c #3F403ECA",
  "#> c #3F4A93FF",
  "(> c #3F5E88FF",
  "$9 c #4040401C",
  "$8 c #40404034",
  "## c #40618EFF",
  "#9 c #406496FF",
  "#< c #416492FF",
  "$0 c #4242421B",
  "@w c #434C90FF",
  "@! c #436087FF",
  "#, c #436594FF",
  "$U c #444642DB",
  "#+ c #444D95FF",
  "+f c #4545451A",
  "@U c #454D91FF",
  "$q c #47474719",
  "$l c #474A47C1",
  "#@ c #476791FF",
  "$E c #484947E7",
  "@] c #485096FF",
  "8# c #49494907",
  "<+ c #4A4A4A18",
  "@f c #4A5293FF",
  "@e c #4A5392FF",
  "@L c #4A6387FF",
  "$T c #4B4D4AFE",
  "@r c #4B5393FF",
  "$Y c #4C4E4BF2",
  "$R c #4C4E4BF9",
  "$2 c #4C4E4C7C",
  "$7 c #4C4F4CAC",
  "@y c #4C5393FF",
  "@p c #4C5395FF",
  "@W c #4C5397FF",
  "@t c #4C5494FF",
  "@a c #4C5495FF",
  "@[ c #4C6991FF",
  "$> c #4D4D4DF5",
  "#_ c #4D4D4DFA",
  "$u c #4D4F4CF5",
  "$V c #4D4F4CF6",
  "@G c #4D5295FF",
  "@u c #4D5494FF",
  "@i c #4D5595FF",
  "@s c #4D5596FF",
  "$, c #4E4E4E68",
  "#] c #4E4E4EEF",
  "#/ c #4E4E4EF2",
  "$e c #4E504DCB",
  "@d c #4E5595FF",
  "$c c #4F514EF9",
  "$6 c #50514FE2",
  "#~ c #50589CFF",
  "@Q c #506B8FFF",
  "#T c #515151E8",
  "@J c #515799FF",
  "#W c #51589CFF",
  "#! c #51599CFF",
  "#Q c #51599DFF",
  "~q c #5252521C",
  "@F c #526889FF",
  "$3 c #535552D4",
  "$4 c #535552F9",
  "$H c #535553FA",
  "@B c #545898FF",
  "@N c #546988FF",
  ":r c #5555551E",
  "@K c #556D8EFF",
  "#K c #565656DC",
  "@S c #565B9CFF",
  "<8 c #575955FF",
  "@z c #576C8AFF",
  "2N c #5858581A",
  "$5 c #585956FF",
  "#S c #595958D0",
  "@D c #596F8FFF",
  "$: c #5A5A5AF7",
  "$f c #5A5D5AF7",
  "#m c #5C5C5CC1",
  "@x c #5C609EFF",
  "#- c #5D5D5D7C",
  "#d c #5D5D5DB2",
  "P: c #5D5E5BFF",
  "$r c #5D5F5BF5",
  "#4 c #5E5E5E8D",
  "#e c #5E605EA0",
  "@m c #5E7190FF",
  "#o c #5F5F5F6E",
  "$; c #5F5F5FF7",
  "@M c #5F7390FF",
  "$- c #606060F7",
  "@` c #61616161",
  ".K c #617294FF",
  "C0 c #62626253",
  "$= c #626262F7",
  "$* c #646464F7",
  "$& c #666665F7",
  "$1 c #66666619",
  "$M c #666866FB",
  "$% c #676766F7",
  "@H c #67676745",
  "$$ c #676867FE",
  "@n c #676BA3FF",
  "@l c #677A95FF",
  "$< c #68686816",
  "@Z c #69696938",
  "6/ c #696969FF",
  "Ys c #6A6A6A18",
  "2I c #6A6A6A1D",
  ":@ c #6B6B6BFF",
  "$C c #6B6D68F9",
  ">( c #6C6C6CFF",
  "@v c #6D6D6D2A",
  ";[ c #6E6E6EFF",
  "$# c #70706FFF",
  "$@ c #717271FA",
  "$G c #727571FB",
  "#{ c #737373DD",
  "$+ c #737373F7",
  "U4 c #7474740B",
  "#[ c #74747421",
  "$O c #747474F7",
  "#` c #7575758B",
  "Zu c #757575F8",
  "$y c #757773F9",
  "#} c #767675F8",
  "Wf c #767676F7",
  "$o c #777777F7",
  "@7 c #79797972",
  "@h c #797979F5",
  "0O c #797979F7",
  "$Z c #797D78FE",
  "@k c #797DADFF",
  "#L c #7A7A7A7B",
  "#( c #7B7B7A9F",
  "$X c #7B7B7AF7",
  "#R c #7B7B7B8D",
  "#D c #7C7C7C6D",
  "$. c #7C7D7CF7",
  "$k c #7C807AFE",
  "@5 c #7D7D7DF1",
  "#| c #7D7D7DF7",
  "$F c #7D817CFF",
  "@6 c #7E7E7EE7",
  "@c c #7E7E7EF1",
  "@4 c #7F7F7FF1",
  "@R c #80808002",
  "#M c #80808060",
  "*O c #80817DFF",
  "@3 c #808180F1",
  "$D c #80847EFF",
  "$A c #80847FFF",
  "$S c #818480FF",
  "@2 c #828282F1",
  "l^ c #828580FF",
  "#f c #83838352",
  "@1 c #838383F1",
  "2* c #838480FF",
  "@C c #848584F0",
  "#r c #85858545",
  "Gh c #858585F1",
  "#Y c #8589AFFF",
  "#5 c #86868637",
  "@< c #878787F1",
  "eY c #878A84FF",
  "'| c #888888F1",
  "$v c #888C86FF",
  "uX c #8989891C",
  "#; c #89898929",
  "@, c #8B8B8AF1",
  "R3 c #8B8F8AFF",
  "@> c #8C8C8CF1",
  "@: c #8E8E8EF1",
  "@; c #8F8F8FF1",
  "@% c #90909035",
  "@g c #9093B9FF",
  "@- c #919191F1",
  "Yw c #919191F8",
  "R' c #91948FFF",
  "1m c #9292920E",
  "@E c #929292FE",
  "@T c #929492F2",
  "@A c #939392EF",
  "@= c #939393F1",
  "@' c #939393F9",
  "@b c #949494E5",
  "@* c #949494F1",
  "@8 c #959595B2",
  "@0 c #959595CD",
  "@& c #959595D4",
  "@j c #959595D9",
  "#O c #969695F6",
  "$t c #999C96FF",
  "#J c #9A9CB7FF",
  "#: c #9B9C9BF2",
  "@_ c #9C9D9AF4",
  "$h c #9C9F99FF",
  "#6 c #A0A0A0F1",
  "$g c #A0A39EFF",
  "@q c #A3A6C3FF",
  "#X c #A4A5A3F9",
  "#t c #A6A7A6F1",
  "$j c #A6AAA4FF",
  "$b c #A7AAA5FF",
  "#^ c #A9ADBCFF",
  "#A c #AAACBFFF",
  "#g c #ACADACF3",
  "#= c #ACAEABFD",
  "rc c #ADB0AAFF",
  "#' c #AEAFADFA",
  "#N c #B3B4B2F6",
  "W3 c #B5B6B3FF",
  "$m c #B6B8B4FF",
  "#v c #B9BBC5FF",
  "#F c #BABAB9F9",
  "|; c #BBBCBAFF",
  "|- c #BCBEBBFF",
  "c] c #BDBEBBFF",
  "Aa c #C1C2C0FE",
  "|= c #C1C2C0FF",
  "#P c #C3C4D0FF",
  "#* c #C4C5C1FF",
  "Ka c #C4C5C3FF",
  "6i c #C5C5C3FF",
  "la c #C6C6C5FF",
  "@) c #C6C8C3FF",
  "rA c #C7C8C6FF",
  "fM c #C8C8C7FF",
  "C` c #C8CACDFF",
  "rL c #C9CBC8FF",
  "B6 c #CBCCCAFF",
  "#n c #CCCDCAFF",
  ".v c #CCCEC8FF",
  "rO c #CDD0C9FF",
  "#) c #CDD0CAFF",
  "`q c #CECFD5FF",
  "rP c #CED0CDFF",
  "rX c #CED1CAFF",
  "#E c #CFD0D3FF",
  "R. c #CFD1CBFF",
  "Q0 c #D0D3CCFF",
  "T` c #D2D5CFFF",
  "+~ c #D3D3D1FF",
  "r[ c #D3D4D1FF",
  ".Y c #D4D6D2FF",
  "l! c #D5D6D4FF",
  "_> c #D5D8D2FF",
  "XC c #D5D8D3FF",
  "Bl c #D6D7D5FF",
  "X_ c #D6D8D4FF",
  "E% c #D8DAD5FF",
  "[< c #D8DADCFF",
  "}m c #D9DAD7FF",
  ":a c #DADCD6FF",
  "yC c #DADCD8FF",
  "3t c #DADCD9FF",
  "#b c #DADDD6FF",
  "XL c #DBDDD8FF",
  "|e c #DCDED9FF",
  "#. c #DDE0DAFF",
  "Y- c #DEDEDBFF",
  "R$ c #DEDFDDFF",
  "4; c #DEE0DBFF",
  "w/ c #DFE0DEFF",
  "5_ c #DFE1DCFF",
  "XM c #DFE1DDFF",
  "}v c #E0E1DDFF",
  "6O c #E0E2DDFF",
  "Y[ c #E0E3DDFF",
  "}| c #E1E2DFFF",
  "Lw c #E1E2E0FF",
  "@9 c #E1E3DDFF",
  "hy c #E1E3DEFF",
  ">} c #E1E3DFFF",
  "XE c #E2E3DFFF",
  "!@ c #E2E4DFFF",
  ":j c #E2E4E0FF",
  ">[ c #E3E4E0FF",
  "T* c #E3E5E0FF",
  "}N c #E4E5E1FF",
  "Y{ c #E4E6E0FF",
  "#7 c #E4E7E2FF",
  "3: c #E5E6E4FF",
  ">{ c #E5E7E3FF",
  "@Y c #E5E8E2FF",
  ",% c #E6E7E3FF",
  "r6 c #E6E8E4FF",
  "q[ c #E7E9E4FF",
  ";Z c #E7E9E5FF",
  "g! c #E7E9E6FF",
  "|X c #E8E9E6FF",
  "@V c #E8EAE4FF",
  "qD c #E8EAE5FF",
  ":U c #E9EBE7FF",
  "X| c #EAEBE9FF",
  "|r c #EBECE9FF",
  ">& c #EEEFEEFF",
  "$n c #F2F3F2FF",
  "   c none",
  
  // Image data
  "                                                                ",
  "                                                                ",
  "    @%@&@*@*@*@*@*@*@*@*@*@=@-@;@:@>@,'|@<Gh@1@2@3@4@5@6@7      ",
  "    @8|=>[>[>[>[>[>[>[>[:j!@!@!@XE>}>}hy@9Y[6O}vXMXM5_X_ZuU4    ",
  "    @0.Y@q@w@e@r@r@t@y@t@y@u@i@u@p@a@i@a@s@s@i@d@f@gq[:U@h2I    ",
  "    @j}m@k.K@l@l@l@l@l@l@l@l@l@l@l@l@l@l@l@l@l@l@z@x|;g!@c@v    ",
  "    @bY-@n@m@M@M@M@M@M@M@M@M@M@M@M@M@M@M@M@M@M@M@N@BY{@V@C@Z    ",
  "    @AXE@S@D@D@D@D@D@D@D@D@D@D@D@D@D@D@D@D@D@D@D@F@Gc]w/@,@H    ",
  "    Yw>{@J@K@K@K@K@K@K@K@K@K@K@K@K@K@K@K@K@K@L@P@I@UY[@Y@TC0    ",
  "  @R@EqD@W@Q@Q@Q@Q@Q@Q@Q@Q@Q@Q@Q@Q@Q@Q@!@~@^@/@/@/@(@)Bl@_@`    ",
  "  1m@';Z@]@[@[@[@[@[@[@[@[@[@[@[@[(>@{@}@}@}@}@}@}@|#.T*#X#o    ",
  "  uX#Or6#+#@#@#@#@#@#@#@#@#@#@###$#%#%#%#%#%#%#%#%#&#*l!#=#-    ",
  "  #;#:,%#>#,#,#,#,#,#,#,#,#<#1#2#2#2#2#2#2#2#2#2#2#3:a6OW3#4    ",
  "  #5#6#7#8#9#9#9#9#9#9#9#0#qTPTPTPTPTPTPTPTPTPTPTP#wXC4;|-#e    ",
  "  #r#t}N#y#u#u#u#u#u#i#p#a#a#a#a#a#a#a#a#a#a#a#a#a#sC`|eKa#d    ",
  "  #f#g!@#h#j#j#k#l#z#x#x#x#x#x#x#x#x#x#x#x#x#x#x#x#c#v#b#n#m    ",
  "  #M#N[<#B#V#C&1&1&1&1&1&1&1&1&1&1&1&1&1&1&1&1&1&1#Z#AE%r[#S    ",
  "  #D#F`q#G%3%3%3%3%3%3%3%3%3%3%3%3%3%3%3%3%3%3%3%3#H#J_>yC#K    ",
  "  #LAa#P#I2}2}2}2}2}2}2}2}2}2}2}2}2}2}2}2}2}2}2}2}#U#YT`Lw#T    ",
  "  #RfM#E#W#Q#Q#Q#Q#Q#!#!#!#!#!#!#!#!#!#!#!#!#!#!#!#~#^Q0|X#/    ",
  "  #(B6XLrXrXrXrXrXrXrXrXrX.v6ilarA#)#)#)rOrOrOrOrOrOrOR.|r#_    ",
  "  #`#'3:R$R$R$R$R$R$R$R$R$R$R$R$R$R$R$R$R$R$R$R$R$R$R$}|+~#]    ",
  "  #[#{#}#|$.$X0O$oWf$O$+$@$#;[>(:@6/$$$%$&$*$=$-$;$;$;$:$>$,    ",
  "      $<YsYs$12N~q:r$2$3$4$5$5$5$5$5<8$6$7$8Z8$9$0+f$q<+8#      ",
  "        &j%.*7%H$w$e$rR'eY$5$5$5$5$5P:$t$y$u$i+k&Z:k$p&T+n      ",
  "    +n%.$a$s[~&V$d$f$grc$h*O*O*O*O*O2*rc$j$k$ltSEe5U@o&;$p&j    ",
  "    &T$a+r$zEern$x$c$v$brL3tX|$n>&w/rP$mR3$M$N*/*^+J9b+k%H&0+n  ",
  "    &T+>$w&):Q9)tD$B$V$C$Z$A$S$A$Dl^$F$G$H$J$K9c:stS&A[~%H&0+n  ",
  "    +n&^&;*'&):W9)*8$L$P$I$U$Y$T$R$E$W$Q$!jYtD:der&A=N:l$p&j    ",
  "      +n&T:E%H*'5U&A:W*F&W*/[G$~*_[GB%=(9)erEe*Q[~:l*7%.+n      ",
  "          +n&j%.$p*7&;$s+r*'[~$^$^[~*'$w$s%H$a$p%.&T+n          ",
  "                  +n&j&j&T&T%.%.%.%.&T&T&j&j+n                  "
};
