/* XPM */
const char *xpm_tango_status_audio_volume_medium[] = {
  // Header (width height colors chars-per-pixel)
  "32 32 459 2",
  
  // Colors (code mode value)
  "+n c #00000001",
  "*T c #00000002",
  "*_ c #00000003",
  ",D c #00000008",
  "%V c #0000000A",
  ",q c #0000000C",
  "[i c #0000000F",
  "+b c #00000012",
  "%Z c #00000013",
  "@, c #00000014",
  "=$ c #00000015",
  "+v c #00000016",
  "[~ c #00000017",
  "$^ c #00000019",
  "%B c #0000001A",
  "=@ c #0000001D",
  "9b c #0000001E",
  "=k c #0000001F",
  "+g c #00000021",
  ":W c #00000025",
  "@$ c #00000026",
  "tS c #00000029",
  "eg c #0000002C",
  "a( c #0000002D",
  "7r c #00000030",
  "5. c #00000034",
  ",W c #00000039",
  "9c c #0000003A",
  "qy c #00000041",
  "2d c #00808002",
  "h- c #0303034C",
  "h3 c #1C20206E",
  "g{ c #1E221E3C",
  "gY c #24242431",
  "*o c #246DB607",
  "he c #262B2D72",
  "hp c #2B40400C",
  "]2 c #2B55AA06",
  "dR c #2B6A950C",
  "V8 c #2B6AAA0C",
  "l* c #2E3436FF",
  "hr c #2F3636BE",
  "h4 c #303637DD",
  "l& c #303638FF",
  "FZ c #30609F20",
  "g` c #31619E15",
  "hu c #323939CB",
  "F= c #3264A533",
  "hi c #33373A73",
  "ht c #33383AF1",
  "h5 c #33393AFD",
  "dV c #3363A364",
  "f4 c #3364A582",
  "dC c #3365A377",
  "g4 c #3365A4B3",
  "fP c #3365A4E9",
  "ha c #3365A577",
  "gM c #3365A57C",
  "d] c #3365A59F",
  "fI c #3365A5B8",
  "g# c #3365A5D1",
  "C6 c #33669905",
  "A( c #3366A21E",
  "gZ c #3366A42D",
  "qJ c #3366A56E",
  "dj c #3366B30A",
  "Iy c #343A3BFF",
  "hy c #343A3CF7",
  "dB c #3463A22C",
  "gd c #3463A536",
  "h; c #3465A34E",
  "gs c #3465A489",
  "g6 c #3465A49D",
  "g% c #3465A4B1",
  "f` c #3465A4F5",
  "f' c #3465A5BA",
  "gm c #3466A380",
  "fi c #3466A399",
  "f5 c #3466A47B",
  "g] c #3466A498",
  "h* c #3468A22C",
  "f3 c #3563A348",
  "f# c #3563A64D",
  "f@ c #3564A473",
  "gN c #3564A552",
  "fu c #3565A3A9",
  "gP c #3565A435",
  "gK c #3565A4B3",
  "-t c #3565A530",
  "f$ c #3565A55B",
  "gB c #3565A560",
  "dT c #3566A48C",
  "fx c #3566A4AD",
  "fz c #3566A4C6",
  "ga c #3567A64D",
  "g5 c #356AA71D",
  "h: c #363C3CEB",
  "1R c #3665A451",
  "l> c #373D3EFF",
  "=) c #3764A41C",
  "h0 c #383F3F69",
  "dd c #383F40FF",
  "h9 c #393E3FE3",
  "}S c #393F40FF",
  "h2 c #39404024",
  "gL c #39639C12",
  "F, c #3963AA12",
  "fL c #3971AA09",
  "dx c #3D4344FF",
  "h& c #40444478",
  "gG c #404646FF",
  "g$ c #406AAA0C",
  "BI c #4080BF04",
  "dn c #414647FF",
  "g_ c #43484872",
  "hX c #454847BF",
  "gJ c #45494946",
  "dc c #464A49FF",
  "h% c #464C4CFF",
  "h1 c #474B4CFD",
  "gn c #474D4D81",
  "g' c #496DB607",
  "(Z c #4A4E4FFF",
  "gi c #4B4F4FCC",
  "db c #4D504DFF",
  "dI c #4E5251FF",
  "dm c #4E5253FF",
  "h+ c #4E5454FF",
  "dK c #4F5250FF",
  "gh c #4F54543D",
  "dv c #505250FF",
  "d/ c #505351FF",
  "f{ c #505553FF",
  "I% c #505656FF",
  "g2 c #515555FB",
  "d_ c #515555FF",
  "h6 c #515655FF",
  "L8 c #525551FF",
  "f_ c #5256563B",
  "fR c #525656FF",
  "g@ c #53535328",
  "ys c #535756FF",
  "ho c #545858FF",
  "gQ c #545A58FF",
  "g3 c #55555506",
  "AA c #5555AA03",
  "<$ c #555753FF",
  "g} c #555A57B0",
  "dA c #556A550C",
  "|i c #565955FF",
  "fb c #565A5AFF",
  "g; c #565B5AFF",
  "dL c #575A55FF",
  "[W c #585B59FF",
  "fJ c #585C583A",
  "<n c #595B57FF",
  "d( c #5A5D58FF",
  "f. c #5A5E5DFF",
  "y! c #5B5D59FF",
  "h8 c #5B5E5EFF",
  "f& c #5B60602D",
  "fl c #5C5C5C27",
  "yQ c #5C5E5AFF",
  "g+ c #5D605EFF",
  "fU c #5D615FFF",
  "h. c #5E615FE9",
  "gA c #5E6261C0",
  "f[ c #5E6361FB",
  "Bd c #5F615DFF",
  "fM c #5F625DFF",
  "gT c #5F6260E9",
  "g| c #5F6261EC",
  "fy c #5F6361FA",
  "x$ c #5F6462FF",
  "dG c #5F65618B",
  "dP c #60635EFF",
  "f2 c #606461C7",
  "g9 c #6065639D",
  "fw c #61625EFF",
  "fH c #61635FFF",
  "d~ c #616563FF",
  "f1 c #616564FF",
  "g= c #616664E1",
  "ds c #616666FF",
  "zN c #626565FF",
  "dS c #62666482",
  "gw c #626664FF",
  "Br c #636561FF",
  "f+ c #6365637E",
  "]g c #636661FF",
  "f) c #636764FF",
  "yd c #646662FF",
  "f7 c #64676597",
  "fa c #646766DC",
  "g) c #646766FF",
  "[a c #646866FF",
  "dl c #64696438",
  "fk c #656866FF",
  "d' c #65686847",
  "dW c #656966D9",
  "}W c #65696AFF",
  "<, c #66666605",
  "L~ c #666863FF",
  "fG c #666A68FF",
  "f| c #676A65FF",
  "d{ c #686B69AA",
  "dD c #686C6AD3",
  "yk c #696B66FF",
  "gb c #696C69FF",
  "dY c #696D6B75",
  "dF c #696D6CCC",
  "fo c #696D6CFF",
  "z7 c #696D6DFF",
  "d) c #6A6D68FF",
  "fX c #6A6D69FF",
  "gj c #6A6E6BF3",
  "dp c #6A6F6BDD",
  "4W c #6B706B39",
  "dh c #6B736B1F",
  "yz c #6C6E69FF",
  "d6 c #6C6F6CCB",
  "d7 c #6C6F6CE6",
  "dN c #6D6F6D75",
  "g> c #6D706AFF",
  "gW c #6D706DFD",
  "d8 c #6D706DFF",
  "ft c #6E7270FF",
  "f* c #6F7371F2",
  "P@ c #70726DFF",
  "dr c #707370FC",
  "ff c #707372FF",
  "d, c #71717148",
  "d4 c #71747163",
  "d< c #717471AA",
  "dt c #717471D5",
  "d1 c #717471E2",
  "de c #717471FF",
  "d| c #717571FF",
  "dy c #7274725C",
  "d2 c #727671E6",
  "fm c #727774FF",
  "BM c #737571FF",
  "d3 c #737573BB",
  "fg c #737670FF",
  ":* c #737671FF",
  "g, c #747670FF",
  ":% c #747771FF",
  ",= c #747772FF",
  "dg c #747773FB",
  "h< c #747774FF",
  "h# c #757773FF",
  "h> c #757975FF",
  ".! c #767873FF",
  ":; c #777A75FF",
  "df c #777A79FF",
  "fW c #787C79FF",
  "f: c #797C76FF",
  "f~ c #797C77FF",
  "x& c #797C78FF",
  "'I c #797D77FF",
  ".- c #797D7CFF",
  "zy c #7A7C79FF",
  "gl c #7A7D77FF",
  "d^ c #7A7E7EFF",
  ".* c #7B7E7AFF",
  ":> c #7B7F79FF",
  "fj c #7B7F7BFF",
  "fq c #7B7F7CFF",
  "f< c #7C7F79FF",
  "f> c #7D807AFF",
  "fe c #7E817BFF",
  "'z c #7E817CFF",
  "fO c #7E817EFF",
  "g. c #7E827CFF",
  "gu c #7F807DFF",
  "f, c #7F827CFF",
  "fF c #7F8480FF",
  "@R c #80808002",
  "<W c #80808006",
  "fr c #80837DFF",
  "f0 c #808381FF",
  "f} c #808480FF",
  "$S c #818480FF",
  "Pk c #828581FF",
  "dU c #828582FF",
  "yu c #838582FF",
  "fQ c #838680FF",
  ".+ c #838682FF",
  "dH c #838683FF",
  "ge c #838685FF",
  "/) c #858783FF",
  "W4 c #858882FF",
  "dM c #858883FF",
  "'x c #858884FF",
  "dz c #858886FF",
  "W0 c #868983FF",
  "LE c #868985FF",
  "fS c #868A85FF",
  "d! c #878987FA",
  "eY c #878A84FF",
  "eB c #888A85FF",
  "Wp c #888B85FF",
  "gF c #888B86FF",
  "d9 c #898B89FF",
  "E> c #898C86FF",
  "5@ c #8A8C87FF",
  "v+ c #8A8C88FF",
  "c2 c #8A8C89FF",
  "3[ c #8B8E88FF",
  "l~ c #8B8E89FF",
  "2, c #8C8D89FF",
  "3, c #8C8E89FF",
  "g: c #8C908CFF",
  "h7 c #8D8F8BFF",
  "dw c #8D8F8CFF",
  "jV c #8D908AFF",
  "gk c #8E918DFF",
  "f( c #8E928CFF",
  "') c #8F918DFF",
  "fh c #90938DFF",
  "gy c #909490FF",
  "t< c #91938EFF",
  "d` c #919390FF",
  "RH c #91948EFF",
  "eW c #929590FF",
  "gv c #929691FF",
  "E; c #93958FFF",
  "]M c #939690FF",
  "gO c #939792FF",
  "Rl c #949791FF",
  "f9 c #959791FF",
  "3g c #959792FF",
  "RJ c #959892FF",
  "gR c #969894FC",
  "gz c #969993FF",
  "Jr c #979993FF",
  "4d c #979994FF",
  "f= c #979997FF",
  "$t c #999C96FF",
  "]: c #9A9C97FF",
  "Pl c #9A9C99FF",
  ".5 c #9A9D9AFF",
  "g( c #9A9E99FF",
  "fK c #9B9E98FF",
  "5s c #9C9D99FF",
  "f- c #9C9E9DFF",
  "h@ c #9DA099FF",
  ")H c #9DA09AFF",
  "fA c #9DA19AFF",
  "hO c #9E9F9BFF",
  "]J c #9EA09BFF",
  "gE c #9EA09CFF",
  "f; c #9EA09FFF",
  "fZ c #9EA19BFF",
  "h, c #9EA19CFF",
  "gr c #9EA19EFF",
  "g! c #9EA39DFF",
  ":M c #9FA19DFF",
  ":B c #9FA29EFF",
  "gS c #A0A09EFC",
  "<g c #A0A19FFF",
  ":u c #A0A29EFF",
  "g^ c #A0A39DFF",
  "<- c #A1A29EFF",
  "fC c #A1A59EFF",
  "gH c #A2A4A0FF",
  "g0 c #A2A4A1FD",
  "f/ c #A2A69FFF",
  "ll c #A3A6A0FF",
  "fN c #A4A6A1FF",
  "gx c #A4A7A0FF",
  "'} c #A4A8A1FF",
  "'L c #A5A9A2FF",
  "'~ c #A6A8A5FF",
  "$j c #A6AAA4FF",
  "$b c #A7AAA5FF",
  "f^ c #A7ABA4FF",
  ",/ c #A8A9A5FF",
  "fY c #A8AAA5FF",
  "34 c #A8AAA6FF",
  "rU c #A8ABA6FF",
  ":C c #A8ACA5FF",
  "2u c #A9AAA7FF",
  "56 c #A9ABA7FF",
  "f! c #A9ADA6FF",
  "fT c #ABACA7FF",
  "35 c #ABADA9FF",
  "dQ c #ABADABF9",
  "6+ c #ABAEA9FF",
  "go c #ABAFA8FF",
  "g- c #ACADA8FF",
  "g/ c #ACB0A9FF",
  "Kt c #ADAEAAFF",
  "0m c #ADAFACFF",
  "h$ c #ADB1ABFF",
  "gX c #AEB1AAFF",
  "qb c #AFB3ACFF",
  "fB c #B0B3ACFF",
  "R` c #B0B4ADFF",
  "yB c #B1B2AEFF",
  "(& c #B1B4ADFF",
  ":N c #B1B4AEFF",
  "]a c #B2B3B0FF",
  "Rk c #B2B5AEFF",
  "}7 c #B3B5B1FF",
  "r* c #B3B6AFFF",
  "'e c #B3B7B0FF",
  "gD c #B4B5B0FF",
  "gq c #B4B6B1FF",
  "gc c #B4B8B1FF",
  "W3 c #B5B6B3FF",
  "d0 c #B6B8B5FF",
  "g< c #B6BAB2FF",
  "=# c #B7B9B7FF",
  "cw c #B7BAB6FF",
  "]0 c #B7BBB4FF",
  "t; c #B8B9B7FF",
  "f8 c #B9BBB9FC",
  "'b c #B9BDB5FF",
  "d} c #BABBBAFA",
  "fs c #BBBCB7FF",
  "g1 c #BBBFB8FF",
  "!. c #BCC0B9FF",
  "fE c #BDBEBAFF",
  "Q} c #BDC1BAFF",
  "]+ c #BEC2BBFF",
  "wS c #C0C1BEFF",
  "yU c #C0C4BCFF",
  "fn c #C1C2BFFF",
  "|= c #C1C2C0FF",
  "fd c #C2C3C0FF",
  "]% c #C2C4C0FF",
  "gt c #C4C8C0FF",
  "dq c #C5C6C3FF",
  "fV c #C5C9C1FF",
  "la c #C6C6C5FF",
  "xq c #C6CAC2FF",
  "fv c #C8C9C5FF",
  ",` c #C8C9C7FF",
  "r= c #C8CCC4FF",
  "r% c #CACEC6FF",
  "6e c #CECECCFF",
  "r. c #CED2CAFF",
  "gp c #D0D1CFFF",
  "dJ c #D1D2D0FF",
  "da c #D2D3D0FF",
  "UB c #D5D6D3FF",
  "Bc c #D5D6D5FF",
  "BC c #D9DAD8FF",
  "t5 c #DBDBDAFF",
  "&v c #DEDEDDFF",
  "%r c #DFDFDDFF",
  "6j c #E0E0DFFF",
  "%- c #E4E4E2FF",
  "rt c #E4E4E3FF",
  "|. c #E5E6E3FF",
  "#' c #EFEFEDFF",
  "@< c #F3F4F3FF",
  "   c none",
  
  // Image data
  "                                                                ",
  "                                                                ",
  "                                                                ",
  "                                                                ",
  "                                                                ",
  "                      d,d<d1d2d3d4<W                            ",
  "              4Wd6d7d8d9d0dqt;0mdwdedrdtdy                      ",
  "            @Rdp,`da]a|=dsl&l*dddf:uPlgEdgdh      C6dj          ",
  "            dldz%-z7=#dxdcdvL8dbdnI%34dmdMdN      dBdV          ",
  "    dAdSdDdFdGdH%rdJ(ZdK<$dLyQBddPdI}WfNdUdY  =)  ]2dTdR        ",
  "  dAdWdQ&vlad!d~UBd^d/<$d(fHL~ykd)d)d_d`ded'2dd]F,  qJF=        ",
  "  d{d}rt]J/)d|.-6ef.<$y!]gd)P@:*,=,=fXfofOf+  f@h;  f#f$        ",
  "f&f*#'yBt<Pkf=f-f;[W<nBryz:*f:f>f,'zf<f1dwf2  f3f4  F=f5        ",
  "f7f86jf9,/|.f0W3fq|ifw:%fe.!freYE>E>W0ftv+fy<,gZfu  =)fi        ",
  "faBc]%E;fs@<zNfdffd(fg$tllfh'IRHRl]MfhfjyufkflA(fz  V8fx        ",
  "fyt5}7E;cwfvfbfnfmfMW0fBfVfC:>fKfZfA$tfSfFfGfJfLfP  BIfI        ",
  "fUBCfYE;fT35fRfEfWydfQf!'b)Hf~'}:Cf^f/f(.+f)f_fLf`  BIf'        ",
  "f[gp56E;Jr3gf{W3f}f|,=jVRJW4g.gXr*RkgogOLEg+g@FZg#  g$g%        ",
  "g=fdg-E;3,5@g;<gg:g>h#g,BM:;'Lg<!.g1'eeWv+g2g3-tg4  g5g6        ",
  "g9g0gqE;t<3,gwgegr'If:eYRJf/R`!.xqgt'bgygugi  gags  gdgm        ",
  "ghgjwS]:f9:Mc2x$2ugkglWpgzgxRkyUr.r%gcgvgbgn  gM1R  gNgB        ",
  "+bgAgSgD4dgF'~gGgH.5'xeYRJll(&Q}r=xq:Bl~ysgJ  gKgL  hagP        ",
  "+vgYgTgRKthOgWgQ<-<-g!3[]Mg^g/]0]+g/g(eBg)g_  g`  g'g]V8        ",
  "[~+gg{g}g|h.hXho5sh+fZ$bfKh@$jh$6+fN5@h%[ah&      h*dC          ",
  "%Z=@@$7r,Wqyh-h:yu2,h>]:rU:N:Nqbh,x&h<$Sh1h2      AA*o          ",
  ",q=$9b@$a(5.9ch3h4h5Iyh6zyh7').*h8}Sl>h9h0                      ",
  "+n%V+b$^=k:WtSega(a(a(hehrhthyhuhihp                            ",
  "    *T,D[i@,[~$^%B%B$^+v+b%V*_                                  ",
  "            *T*_*_*_*T+n                                        ",
  "                                                                ",
  "                                                                ",
  "                                                                "
};
