/* XPM */
const char *xpm_tango_status_battery_caution[] = {
  // Header (width height colors chars-per-pixel)
  "32 32 405 2",
  
  // Colors (code mode value)
  "+n c #00000001",
  "*T c #00000002",
  "*` c #00000004",
  "qz c #00000005",
  "*R c #00000006",
  "7t c #00000007",
  "5X c #00000009",
  "+m c #0000000B",
  ",q c #0000000C",
  "%A c #00000010",
  "+b c #00000012",
  "%Z c #00000013",
  "=$ c #00000015",
  "%B c #0000001A",
  "=@ c #0000001D",
  "=k c #0000001F",
  ":W c #00000025",
  "tS c #00000029",
  "=s c #0000002B",
  "eg c #0000002C",
  "T2 c #00000032",
  "5. c #00000034",
  "=l c #00000035",
  "B% c #0000003D",
  "=j c #00000043",
  "=3 c #00000045",
  "!$ c #00000047",
  "%J c #000000FF",
  "L* c #0909093A",
  "L. c #0D0D0D27",
  "KC c #1313131B",
  "K/ c #1C1C1C25",
  "KL c #2626262F",
  "KM c #28282820",
  "Kc c #35353518",
  "LX c #3939396C",
  "Lo c #484848A9",
  "K( c #4A4A4A98",
  "j= c #4B000011",
  "jM c #4B00007A",
  "jc c #4D000078",
  "j7 c #50000023",
  "h( c #51000052",
  "hL c #52000035",
  "js c #5200003B",
  "jd c #520000D2",
  "KG c #525252C3",
  "jt c #534242FE",
  "KP c #535353E3",
  "GQ c #535353FE",
  "jb c #540000F8",
  "jn c #540000F9",
  "jm c #540000FA",
  "Ke c #545454F8",
  "Kv c #545454F9",
  "KZ c #545454FA",
  "hN c #5500001E",
  "j@ c #55000072",
  "j* c #550000F2",
  "jk c #550000F3",
  "jx c #550000F5",
  "hM c #550000F7",
  "hb c #55070795",
  "Kz c #55550003",
  "K= c #5555440F",
  "Kw c #5555550F",
  "LO c #555555DC",
  "F1 c #555555F5",
  "j1 c #56000094",
  "jv c #560000EF",
  "L+ c #565656F3",
  "hR c #570000CD",
  "h{ c #570000E5",
  "j6 c #570000F6",
  "hm c #570202FF",
  "jy c #570303FF",
  "j$ c #570505FF",
  "hx c #571C1BFF",
  "hl c #573229F8",
  "jr c #580000B6",
  "jj c #580000D0",
  "hK c #580000F5",
  "j3 c #580505FF",
  "h_ c #580808FF",
  "K- c #58534CF8",
  "hS c #590000AC",
  "hI c #590E0EFF",
  "hB c #591414FF",
  "hz c #5A52411F",
  "ja c #5B0000F5",
  "hn c #5C4D4AFF",
  "hF c #5F0404FF",
  "K8 c #5F605CFF",
  "h/ c #620000F3",
  "hD c #634D4BFF",
  "h} c #66000005",
  "H( c #66330005",
  "Ko c #6655220F",
  "hE c #684947FF",
  "K) c #686868F5",
  "hW c #690504FF",
  "KO c #694F2AF8",
  "hv c #6B0303FF",
  "}f c #6B6C69FF",
  "j- c #6C3A39FF",
  "h| c #6C4342FF",
  "hk c #6C4847FF",
  "K. c #6C5225F4",
  "hj c #6E5838FF",
  "KI c #6E6E6DF8",
  "j+ c #6F0000F4",
  "KX c #6F4D221E",
  "j8 c #713534FF",
  "hc c #730403FF",
  "j. c #740505FF",
  "KH c #767774FC",
  "J5 c #7744000F",
  "hP c #777673FF",
  "Ky c #777774FF",
  "J# c #784A0490",
  "Hm c #7949002A",
  "H/ c #794B0396",
  "J' c #794D08F8",
  "J3 c #7A4A02F7",
  "HJ c #7A4B002C",
  "Hk c #7A4D0032",
  "H) c #7A4D067B",
  "Jr c #7A4E09F4",
  "Jd c #7A4E0AF4",
  "J$ c #7C4C04F4",
  "J6 c #7C4D04F8",
  "HK c #7C4D058E",
  "HH c #7C4E05A1",
  "Hn c #7D4C002F",
  "K7 c #7D6F58FF",
  "HM c #7E5009A2",
  "j< c #7F0000F7",
  "J4 c #804D000A",
  "Jt c #804D001E",
  "h) c #807E7BFF",
  "9/ c #80800002",
  "j; c #810404FF",
  "g( c #828380FF",
  "j# c #898480FF",
  "hA c #8B0000FB",
  "j9 c #8E0302FF",
  "fo c #8E8F8BFF",
  "je c #8F0000FB",
  "j2 c #918784FF",
  "ka c #939490FF",
  "HG c #956C25F7",
  "K_ c #959694FD",
  "hV c #980000FF",
  "k> c #999A97FF",
  "hT c #9A0000FE",
  "H^ c #9D7835FA",
  "K6 c #9D7E4DFF",
  "eQ c #9D9E9AFF",
  "jh c #9F0000FE",
  "J| c #9F8D6FFF",
  "tt c #9FA09CFF",
  "ml c #A0A09AFF",
  "HN c #A2762BF7",
  "R7 c #A40000FF",
  "JU c #A4680FFF",
  "K$ c #A46F21FF",
  "J@ c #A5894EFB",
  "e[ c #A5A6A2FF",
  "h[ c #A90000FF",
  "gW c #A9AAA6FF",
  "KU c #AAABA7FF",
  "]i c #ABACA9FF",
  "KJ c #ACADAAFF",
  "HL c #AD8338FA",
  "Kt c #ADAEAAFF",
  "Hj c #AE6B0013",
  "2t c #AEAFACFF",
  "JI c #AF7217FF",
  "KT c #AFB0ACFF",
  "h` c #B00000FF",
  "KN c #B0B1ADFF",
  "yB c #B1B2AEFF",
  "2r c #B1B2AFFF",
  "Kg c #B2B3AFFF",
  "]a c #B2B3B0FF",
  "Hb c #B36E06DD",
  "<{ c #B3B4B1FF",
  "HV c #B46C02FF",
  "Hl c #B46D05EC",
  "Bw c #B4B4B2FF",
  "gs c #B4B5B2FF",
  "jl c #B50000FF",
  "Hf c #B56D03FA",
  "J: c #B56E05FF",
  "J; c #B56E06FF",
  "Ks c #B5B6B2FF",
  "W3 c #B5B6B3FF",
  "jz c #B60000FF",
  "Hd c #B66E03F8",
  "HW c #B67008FF",
  "J> c #B67312FF",
  "Kr c #B6B7B3FF",
  "t= c #B6B7B4FF",
  "q+ c #B70000FF",
  "Ha c #B76E048B",
  "HD c #B77109FF",
  "J, c #B78133FF",
  "2e c #B7B8B5FF",
  "Hh c #B86F048C",
  "K5 c #B88B47FF",
  "K` c #B8B8B5FF",
  "t< c #B8B9B6FF",
  "t; c #B8B9B7FF",
  "8w c #B90000FF",
  "Hp c #B9680016",
  "Hg c #B97007DF",
  "Hs c #B97107DB",
  "J- c #B97615FF",
  "JO c #B97B1DFF",
  "J_ c #B97B1EFF",
  "JM c #B98A46FF",
  "J` c #B9955FFF",
  "K+ c #B99762FF",
  "BF c #BABAB8FF",
  "Kp c #BABBB8FF",
  "V0 c #BCBCB9FF",
  "2w c #BCBDBAFF",
  "H[ c #BD7915FF",
  "nC c #BE0000FF",
  "JY c #BE9960FF",
  "K; c #BEBEBBFF",
  "32 c #BEBFBDFF",
  "H_ c #BF9951FA",
  ">z c #BF9B64FF",
  "rK c #BFC0BDFF",
  "wS c #C0C1BEFF",
  "5( c #C0C1BFFF",
  "8> c #C10000FF",
  "KY c #C2C3C1FF",
  "8G c #C30000FF",
  "J= c #C38C3BFF",
  "J) c #C48526FF",
  "JP c #C49041FF",
  "Ka c #C4C5C3FF",
  "9d c #C60000FF",
  "ju c #C60303FF",
  "HF c #C6AF70FB",
  "6; c #C6C6C4FF",
  "jp c #C70101FF",
  "K4 c #CA9746FF",
  "tX c #CACBC9FF",
  "h^ c #CB0404FF",
  "hG c #CB0909FF",
  "hQ c #CC1313FF",
  "3k c #CCCCCAFF",
  "jO c #CD0E0EFF",
  "4' c #CF2121FF",
  "hZ c #CF2B2BFF",
  "Jo c #CF871BFF",
  "J( c #CF8E2EFF",
  "j, c #D01F1FFF",
  "j: c #D03232FF",
  "hC c #D04A4AFF",
  "j0 c #D14747FF",
  "hY c #D24545FF",
  "H{ c #D2891DFF",
  "Js c #D2BA8FFF",
  "jw c #D33636FF",
  "jf c #D35151FF",
  "hU c #D36A6AFF",
  "J< c #D4AF76FF",
  "K: c #D4C7B2FF",
  "h] c #D56161FF",
  "jg c #D64747FF",
  "h' c #D68080FF",
  "HB c #D6BB7AFB",
  "Hv c #D7A448FD",
  "j% c #D89696FF",
  "Hz c #D8A449FD",
  "hJ c #D8A6A6FF",
  "j& c #D97E7EFF",
  "J/ c #DA9835FF",
  "j4 c #DAACACFF",
  "J+ c #DAB681FF",
  "hH c #DAC5C5FF",
  "]P c #DBA048FF",
  "HQ c #DBC893FF",
  "h! c #DBD0D0FF",
  "h~ c #DCBEBEFF",
  ",_ c #DCDCDCFF",
  "jX c #DDD9D9FF",
  "=b c #DDDDDDFF",
  "J] c #DEC59EFF",
  "6F c #DEDDDDFF",
  "=[ c #DEDEDEFF",
  "j5 c #DF9C9CFF",
  "JL c #DFBC89FF",
  "={ c #DFDFDFFF",
  "jo c #E0D1D1FF",
  "H~ c #E0D79FFF",
  "*( c #E0E0E0FF",
  "+Z c #E1E1E1FF",
  "+A c #E2E2E2FF",
  "+S c #E3E3E3FF",
  "J^ c #E4A13DFF",
  "J2 c #E4DFA7FF",
  "&I c #E4E4E4FF",
  "ji c #E5B9B9FF",
  "j> c #E5DFDFFF",
  ";3 c #E5E5E5FF",
  ";b c #E6E6E6FF",
  ";G c #E7E7E7FF",
  "HP c #E8DDA2FF",
  "HS c #E8E2A5FF",
  "H! c #E8E2AAFF",
  ":# c #E8E8E8FF",
  "K> c #E9D0ABFF",
  "HC c #E9E2A5FF",
  "J% c #E9E2A7FF",
  "Hc c #E9E4A9FF",
  "Je c #E9E5B9FF",
  "jq c #E9E8E8FF",
  ":2 c #E9E9E9FF",
  "Hx c #EADA98FF",
  "HI c #EAE3ABFF",
  "H` c #EAE4ABFF",
  ",% c #EAEAEAFF",
  ":, c #EBEBEBFF",
  "K3 c #ECAB49FF",
  ":> c #ECECECFF",
  ";h c #EDEDEDFF",
  "H} c #EEA232FF",
  "J* c #EEC284FF",
  "J7 c #EEE8BBFF",
  "JX c #EFA333FF",
  "J~ c #EFAB45FF",
  "K@ c #F0A435FF",
  "K< c #F0BB6AFF",
  "Jq c #F0C88EFF",
  "K, c #F1CF9EFF",
  "Jm c #F1E5D2FF",
  "J0 c #F2CA8FFF",
  "HU c #F2DDA3FF",
  "JK c #F2DDC0FF",
  "HZ c #F2DEA2FF",
  "K1 c #F4B557FF",
  "xa c #F4CC90FF",
  "Ja c #F5F0DAFF",
  "H' c #F6DA9EFF",
  "K2 c #F7B350FF",
  "JB c #F89C15FF",
  "JT c #F8C985FF",
  "H| c #F9AC3BFF",
  "J. c #F9AC3CFF",
  "J9 c #F9D093FF",
  "JJ c #F9ECD9FF",
  "JV c #FAA528FF",
  "J! c #FAB44DFF",
  "Jg c #FAB44EFF",
  "HE c #FAC06BFF",
  "J1 c #FAD194FF",
  "J& c #FAD79AFF",
  "Jy c #FADBA7FF",
  "Ju c #FAF4E0FF",
  "JN c #FBCB85FF",
  "Jf c #FBCD89FF",
  "Jw c #FBD294FF",
  "HA c #FBD699FF",
  "J8 c #FBD99EFF",
  "Jp c #FCE0B1FF",
  "Ji c #FCE2B7FF",
  "Jn c #FCF5EBFF",
  "JQ c #FDB64CFF",
  "JW c #FDBC5CFF",
  "J} c #FDBD5DFF",
  "HY c #FDC36EFF",
  "K# c #FDD08CFF",
  "[_ c #FDD69CFF",
  "Jb c #FDE9CCFF",
  "JH c #FDF5EAFF",
  "H] c #FED496FF",
  "[p c #FED498FF",
  "Jc c #FED599FF",
  "Jx c #FED9A2FF",
  "{i c #FEDAA5FF",
  "J[ c #FEDAA6FF",
  "J{ c #FEDBA8FF",
  "Jz c #FEDCABFF",
  "JR c #FEDDAEFF",
  "JE c #FEDEAFFF",
  "JC c #FEE1B7FF",
  "Jv c #FEE2B7FF",
  "Jl c #FEE3BAFF",
  "HT c #FEE8C8FF",
  "Jh c #FEF3E3FF",
  "JZ c #FFEDD3FF",
  "Jk c #FFEED7FF",
  "JA c #FFF5E6FF",
  "HR c #FFF5E7FF",
  "JS c #FFF6E9FF",
  "JD c #FFF9EFFF",
  "Jj c #FFFBF4FF",
  "JG c #FFFCF8FF",
  "JF c #FFFCF9FF",
  "   c none",
  
  // Image data
  "                                                                ",
  "                    HpHaHsHdHfHgHhHj                            ",
  "                KzHkHlHzHxHcHcHxHvHbHnKz                        ",
  "            HmHMHNHBHVHCHZHAHAHZHSHDHFHGHHHJ                    ",
  "        9/HKHLHPHIHUHVHYHTHRHRHTHEHWHQH!H~H^H/H(                ",
  "        H)H_H`H'H]H]H[H{H}H|J.JXJoJOJ+H]H'H!J@J#                ",
  "      +nJ$J%J&H]H]H]J*J=J-J;J:J>J,J<J1H]H]J&J2J3J4              ",
  "      J5J6J7J8H]H]H]H]H]J9J0JqxaJwH]H]H]H]J8JeJrJt              ",
  "      J5J6JyJuJiH]H]H]H]H]H]H]H]H]H]H]H]JpJaJsJdJt              ",
  "      J5J6JfJgJhJjJkJlJzJxJcJcJxJzJvJbJnJmJM>zJdJt              ",
  "      J5J6JNJBJVJCJZJAJSJDJFJGJHJJJKJLJPJIJUJYJdJt              ",
  "      J5J6JTJBJV{iJRJEJWJQJ!J~J^J/J(J)J_JIJUJ`JrJt              ",
  "      J5J'J]JBJV[_J[J{J}JQJ!J~J^J/J(J)J_JIJUJ|K.KX              ",
  "      KoKOrKK+K@K#[pJcJ}JQJ!J~J^J/J(J)J_K$hjhkhlhz              ",
  "      K=K-K;kamlK:K>K,K<K1K2K3]PK4K5K6K7K8hxhchvhb              ",
  "      KwKeV0katt5(3ktXKrKtgWe[k>fog(Ky}fhnhm9dnChMhN            ",
  "      KwKeBFkattKp6;KaKsKtgWe[k>fog(Ky}fhBhVhChZhAhS            ",
  "      KwKet<kattBwwS32<{KtgWe[k>fog(KyhDhFhGhHhJ9dhKhL          ",
  "      KwKet=katt2tKpt;KgKtgWe[k>fog(hPhIR7hU,_=bhYhThR          ",
  "      KwKegskatt]i2eW3yBKtgWe[k>fog(hEhWhQh!=b=[h~h^h/h(        ",
  "      KcKv]akatt]i2eW3yBKtgWe[k>foh)h_h`h'=b%J%J*(h]h[h{h}      ",
  "      KMKvKNkatt]i2eW3yBKtgWe[k>foh|j.4'jX=[%J%J+ZjojOj+j@      ",
  "      KCKZe[eQtt]i2eW3yBKtgWe[k>j#j$8wj%=[={%J%J+A+Sj&q+j*j=    ",
  "      %AKGKH2r]iKJ2eW3yBKtgWe[k>j-j;j:6F={*(%J%J+S&Ij>j,j<j1    ",
  "      qzKLKPKIKU5(KY2wKsKTgWe[j2j38>j4={*(+Z+A+S&I;3;Gj58>j6j7  ",
  "        7tK/K(F1K)K_KJ2eK;V0K`j8j9j0={*(+Z+A%J%J;3;G:#jqjwjejr  ",
  "          *T+bL.LXLoLOL+GQGQjtjyjuh~*(+Z+A+S%J%J;G:#:2,%jijpjajs",
  "              *T+m%B:WegT2L*jdhTjf*(+Z+A+S&I;b;G:#:2:,:>;hjgjhjj",
  "                      *T*`*Rjkjl8G8G8G8G8G8G8G8G8G8G8G8G8G8Gjzjx",
  "                        +n,qjcjvjbjbjbjnjnjmjmjmjmjnjnjnjbjbjvjM",
  "                            *`,q=$=k=s=lB%=3!$!$=jB%5.tS=@%Z5X*T",
  "                                                                "
};
