/* XPM */
const char *xpm_tango_status_dialog_warning[] = {
  // Header (width height colors chars-per-pixel)
  "32 32 302 2",
  
  // Colors (code mode value)
  "+n c #00000001",
  "*T c #00000002",
  "*_ c #00000003",
  "qz c #00000005",
  "7t c #00000007",
  "nB c #00000009",
  "+m c #0000000B",
  ",q c #0000000C",
  "=2 c #0000000D",
  "%A c #00000010",
  "+b c #00000012",
  "@, c #00000014",
  "*' c #00000020",
  "+g c #00000021",
  "%J c #000000FF",
  "J' c #030303FF",
  "D( c #0D0D0DFF",
  "%L c #1B1B1BFF",
  "gg c #252525FF",
  "M[ c #28000039",
  "N. c #2800003A",
  "M} c #29000045",
  "M{ c #2B000041",
  "M| c #2B000042",
  ":z c #353535FF",
  "JQ c #373737FF",
  "J{ c #3C3C3CFF",
  "M) c #6A00004D",
  "M] c #70000052",
  "4{ c #80000004",
  "*% c #80000008",
  "%0 c #92000007",
  "my c #9C00002C",
  "MV c #9C0000D8",
  "nZ c #9D000073",
  "M_ c #9D0000E9",
  "M' c #9D0000EA",
  "M; c #9E000015",
  "m* c #9E00001D",
  "M0 c #9E000022",
  "mf c #9E000042",
  "nT c #9E000061",
  "n! c #9E000071",
  "M( c #9E0000EB",
  "R' c #9F000010",
  "m9 c #9F00002D",
  "mN c #9F000058",
  "nL c #9F00005A",
  "m( c #9F000068",
  "mI c #9F00006F",
  "m= c #9F00008D",
  "MB c #9F0000FD",
  "M` c #9F0000FF",
  "M3 c #A000002B",
  "mc c #A000003E",
  "nF c #A000004B",
  "mG c #A0000053",
  "n' c #A0000076",
  "M# c #A000007E",
  "nD c #A0000083",
  "m. c #A0000089",
  "M- c #A000009F",
  "m< c #A00000A3",
  "M9 c #A00000B9",
  "mg c #A00000BA",
  "Mn c #A00000F0",
  "nS c #A00000F7",
  "n` c #A00101F2",
  "M@ c #A100001B",
  "m[ c #A1000087",
  "M4 c #A1000092",
  "Mt c #A10000A5",
  "mt c #A10000BB",
  "mF c #A10000E4",
  "nY c #A10000E6",
  "nA c #A10000F3",
  "mB c #A10101CF",
  "nP c #A10101DB",
  "n~ c #A10303E9",
  "45 c #A200000B",
  "Mb c #A20000CA",
  "mx c #A20000D2",
  "m^ c #A20202F1",
  "mU c #A20303DF",
  "m& c #A20404F9",
  "M+ c #A20505F9",
  "m{ c #A20808ED",
  "M2 c #A20808FD",
  "m8 c #A20909FD",
  "mX c #A30808F3",
  "m/ c #A400000E",
  "tl c #A5000011",
  "Mr c #A50C0CFD",
  "md c #A50F0FFD",
  "M: c #A60F0FF6",
  "m1 c #A60F0FFA",
  "nK c #A70F0FFA",
  "nG c #A71313FC",
  "Mq c #A71616FC",
  "mM c #A81616FA",
  "mu c #A91717FD",
  "y@ c #AA000003",
  "tE c #AA000006",
  "y5 c #AA000009",
  "mP c #AC1E1EFA",
  "mv c #AC2222FD",
  "nQ c #AF2424F9",
  "m] c #B12424F9",
  "mH c #B12F2FFC",
  "nR c #B43232FB",
  "n| c #B62E2EF9",
  "M= c #B72929F9",
  "m) c #B83B3BFA",
  "n] c #BA3F3FFA",
  "M8 c #BB2C2CFB",
  "M/ c #BC1B1BFE",
  "m, c #BC3737FA",
  "M$ c #BD4646FA",
  "Mv c #BF2929FC",
  "m- c #C04B4BFA",
  "mr c #C13E3EFB",
  ";U c #C1C1C1FF",
  ":* c #C3C3C3FF",
  "MC c #C43B3BFD",
  "M5 c #C45252FA",
  "m0 c #C65656FB",
  "mz c #C74545FD",
  "My c #C75656FB",
  "mD c #CB4949FE",
  "oG c #CC0000FF",
  "nW c #CC0101FF",
  "y+ c #CC0202FF",
  "me c #CC0404FF",
  "mh c #CC6262FC",
  "#+ c #CCCCCCFF",
  "y& c #CD0303FF",
  "ot c #CD0404FF",
  "t{ c #CD0707FF",
  "ml c #CD0C0CFF",
  "n( c #CD1717FF",
  "mp c #CE0808FF",
  "RW c #CE0909FF",
  "zi c #CE0A0AFF",
  "mC c #CE1010FF",
  "n/ c #CE1515FF",
  "mR c #CE1B1BFF",
  "m~ c #CE4B4BFF",
  ";_ c #CECECEFF",
  "t} c #CF0E0EFF",
  "m3 c #CF0F0FFF",
  "m6 c #CF1111FF",
  "mS c #CF1919FF",
  "m+ c #CF2C2CFF",
  "MN c #CF3838FF",
  "+c c #CFCFCFFF",
  "MM c #D01414FF",
  "M. c #D02A2AFF",
  "m# c #D03535FF",
  "m| c #D11717FF",
  "m! c #D11818FF",
  "mO c #D11919FF",
  "9@ c #D11B1BFF",
  "mQ c #D12828FF",
  "M, c #D13B3BFF",
  "m4 c #D13F3FFF",
  "MO c #D14949FF",
  "m$ c #D21C1CFF",
  "M1 c #D24343FF",
  "m5 c #D24A4AFF",
  "ma c #D25252FF",
  "nU c #D25F5FFE",
  "mT c #D32222FF",
  "t' c #D32424FF",
  "Mo c #D33B3BFF",
  "5< c #D35050FF",
  "mV c #D36C6CFD",
  "n) c #D42A2AFF",
  "M^ c #D43636FF",
  "mn c #D46666FF",
  "y% c #D52F2FFF",
  "h] c #D56161FF",
  "nI c #D56E6EFE",
  "mJ c #D57979FF",
  "rY c #D63131FF",
  "M~ c #D63E3EFF",
  "n{ c #D68F8FFF",
  "n} c #D69898FF",
  "m' c #D73C3CFF",
  "M! c #D74040FF",
  "MQ c #D74343FF",
  "M< c #D75252FF",
  "n_ c #D76868FF",
  "mY c #D77373FE",
  "m_ c #D78D8DFF",
  "m: c #D7A2A2FF",
  ",M c #D7D7D7FF",
  "6b c #D83A3AFF",
  "66 c #D83B3BFF",
  "MW c #D84545FF",
  "ME c #D84848FF",
  "mm c #D87676FF",
  "ou c #D94040FF",
  "6t c #D94242FF",
  "MR c #D94B4BFF",
  "m% c #D96A6AFF",
  "m> c #D9ADADFF",
  "mq c #D9B4B4FF",
  ",b c #D9D9D9FF",
  "6h c #DA4444FF",
  "6C c #DA4646FF",
  "tT c #DA4848FF",
  "mL c #DA4B4BFF",
  "MT c #DA4E4EFF",
  "MY c #DA5151FF",
  "nJ c #DA6A6AFF",
  "nH c #DA6D6DFF",
  "m} c #DA7979FF",
  "n^ c #DA7A7AFF",
  "mK c #DA8C8CFF",
  "M& c #DAA2A2FF",
  ",m c #DADADAFF",
  "MU c #DB5353FF",
  "MI c #DB5656FF",
  "=8 c #DB5757FF",
  "ms c #DB6262FF",
  "m7 c #DB6868FF",
  "Me c #DB6969FF",
  "Mu c #DBA3A3FF",
  "M6 c #DBB3B3FF",
  "mj c #DBC3C3FF",
  "m@ c #DBDADAFF",
  "y* c #DC5050FF",
  "M% c #DC5151FF",
  "m; c #DC5555FF",
  "MP c #DC5959FF",
  "ML c #DC5C5CFF",
  "M> c #DC7979FF",
  "mw c #DCC0C0FF",
  "mZ c #DCCECEFF",
  ",_ c #DCDCDCFF",
  "rD c #DD5E5EFF",
  "Mw c #DD7575FF",
  "Mm c #DD7979FF",
  "mE c #DDD7D7FF",
  "=b c #DDDDDDFF",
  "ra c #DE5E5EFF",
  "MK c #DE6161FF",
  "MJ c #DE6464FF",
  "mo c #DE8080FF",
  "=[ c #DEDEDEFF",
  "t^ c #DF6161FF",
  "n[ c #DF6363FF",
  "MH c #DF6666FF",
  "MG c #DF6969FF",
  "bN c #DF6A6AFF",
  "m` c #DFA4A4FF",
  "mk c #DFCECEFF",
  "MX c #DFDDDDFF",
  "={ c #DFDFDFFF",
  "MF c #E06C6CFF",
  "MZ c #E07070FF",
  "mb c #E07575FF",
  "mi c #E07C7CFF",
  "m2 c #E08080FF",
  "Mi c #E0D2D2FF",
  "*( c #E0E0E0FF",
  "MD c #E16F6FFF",
  "nE c #E17171FF",
  "Mp c #E1D3D3FF",
  "+Z c #E1E1E1FF",
  "MS c #E27474FF",
  "MA c #E27575FF",
  "Ma c #E2D4D4FF",
  "mA c #E2DADAFF",
  "+A c #E2E2E2FF",
  "M* c #E3BABAFF",
  "Ms c #E3D5D5FF",
  "+S c #E3E3E3FF",
  "Md c #E4D6D6FF",
  "mW c #E4E2E2FF",
  "&I c #E4E4E4FF",
  "Mf c #E5D7D7FF",
  ";3 c #E5E5E5FF",
  "Mg c #E6D8D8FF",
  ";b c #E6E6E6FF",
  "Mc c #E7C1C1FF",
  "M7 c #E7CDCDFF",
  "Mh c #E7D9D9FF",
  ";G c #E7E7E7FF",
  "Mj c #E8DADAFF",
  ":# c #E8E8E8FF",
  "Mk c #E9DBDBFF",
  ":2 c #E9E9E9FF",
  "Ml c #EADCDCFF",
  ",% c #EAEAEAFF",
  "Mz c #EBDDDDFF",
  ":, c #EBEBEBFF",
  "Mx c #ECDEDEFF",
  ":> c #ECECECFF",
  ";h c #EDEDEDFF",
  "Rr c #FF000001",
  "   c none",
  
  // Image data
  "                                                                ",
  "                                                                ",
  "                              y@4{                              ",
  "                            nZnAnSnD                            ",
  "                          nFnGnHnJnKnL                          ",
  "                        y@nPnI6t6CnUnY%0                        ",
  "                        nTnRnEnWy&nEnQn!                        ",
  "                      y5n~n^t'n/n(n)n_n`R'                      ",
  "                      n'n]n[oGn{n}nWt^n|m.                      ",
  "                    tlmXmomOm+m@,_m#m$m%m&m*                    ",
  "                    m=m-m;oGm:,_,_m>nWy*m,m<                    ",
  "                  m*m1m2m3m4,_=b=b=[m5m6m7m8m9                  ",
  "                  m<m0tTy+mq=b=b=[=[mwmeoumrmt                  ",
  "                mymumimpma=b,m+c+c,_={h]RWmsmdmf                ",
  "                mgmh66t{mj=b;U%J%J:**(mkmlrYmzmxRr              ",
  "              mcmvmbotmn=b=[#+%J%J;_+Z+Zmmot=8mMmN              ",
  "            RrmBmVy%mCmZ=[=[,M%J%J,b+Z+AmAmSt'mDmFtE            ",
  "            mGmHbNnWmJ=[=[={*(J'J'+Z+A+S&ImKnWmLmPmI            ",
  "          4{mUmYmTmRmE={={*(*(D(D(+A+S&I;3mWmQm!m~m^m/          ",
  "          m(m)raoGm_={={*(*(+Z%L%L+S&I;3;3;bm`oGm'm]m[          ",
  "        45m{m}m|M.MX={*(*(+Z+Agggg&I;3;3;b;G:#Mot}MOM+M@        ",
  "        M#M$M%oGM&={*(*(+Z+A+A,M,M;3;b;b;G:#:2M*nWy%M=M-        ",
  "      M;M:M>t}M,={*(*(+Z+A+A+SJQ:z;b;b;G:#:2,%,%M<mpM1M2M3      ",
  "      M4M56hy+M6*(+Z+Z+A+S+S&IJ{JQ;b;G:#:2,%,%:,M7t{t'M8M9      ",
  "    M0MqMwmp5<*(+Z+Z+A+S+S&I;3;b;b;G:#:2,%,%:,:>;hMey&MoMrmc    ",
  "    MtMy6boGMuMiMiMpMaMaMsMdMfMgMgMhMhMjMjMkMlMzMxMcoG9@MvMb    ",
  "  *TMnMmMMoGoGoGoGoGoGoGoGoGoGoGoGoGoGoGoGoGoGoGoGoGoGziMNMB*%  ",
  "  ,qMVMCMZMAMSnEMDMFMGMHMJMKrDMLMPMIMUMYMTMRMEMWMQM!M~M^M/M(nB  ",
  "  +mM)M_M`M`M`M`M`M`M`M`M`M`M`M`M`M`M`M`M`M`M`M`M`M`M`M`M'M]qz  ",
  "    %A+gM[M{M}M}M}M}M}M}M}M}M}M}M}M}M}M}M}M}M}M}M}M{M|N.*'nB    ",
  "      *_+m+b@,@,@,@,@,@,@,@,@,@,@,@,@,@,@,@,@,@,@,+b=27t+n      ",
  "                                                                "
};
