/* XPM */
const char *xpm_tango_status_dialog_error[] = {
  // Header (width height colors chars-per-pixel)
  "32 32 407 2",
  
  // Colors (code mode value)
  "+n c #00000001",
  "*_ c #00000003",
  "*R c #00000006",
  ",D c #00000008",
  "%V c #0000000A",
  "+m c #0000000B",
  "=2 c #0000000D",
  "%A c #00000010",
  "@, c #00000014",
  "+v c #00000016",
  "[~ c #00000017",
  "`L c #00000018",
  "%B c #0000001A",
  "9b c #0000001E",
  "+g c #00000021",
  "WK c #00000022",
  "=e c #00000023",
  "1l c #00000024",
  "+J c #00000027",
  "rn c #0000002A",
  "eg c #0000002C",
  "=% c #0000002E",
  "&R c #0000002F",
  "`P c #00000033",
  "tD c #00000038",
  ",W c #00000039",
  "9c c #0000003A",
  "*/ c #0000003C",
  ",R c #00000042",
  "[G c #00000044",
  "!$ c #00000047",
  "=0 c #00000048",
  "D3 c #0000004C",
  "*W c #0000004D",
  "x9 c #00000053",
  "=t c #00000055",
  "eh c #00000056",
  "x0 c #0000005D",
  "xw c #00000062",
  "&O c #00000063",
  "%C c #00000065",
  "xq c #00000066",
  "x8 c #1A00006A",
  "x, c #1D000060",
  "x> c #4C000054",
  "x. c #4D00000A",
  "xX c #5400004C",
  "x7 c #6300009F",
  "x< c #67000099",
  "x6 c #940000D7",
  "x1 c #970000D3",
  "ti c #99000005",
  "x: c #A00000C4",
  "xo c #A30000C3",
  "y4 c #A40000EC",
  "x2 c #A50000EB",
  "y@ c #AA000003",
  "tE c #AA000006",
  "yd c #AA00000F",
  "z| c #AC000097",
  "x3 c #AC0000F7",
  "x5 c #AC0000F8",
  "kc c #AD000019",
  "zR c #AE000013",
  "zn c #AF000010",
  "x; c #B00000F9",
  "x4 c #B00000FD",
  "z; c #B100000D",
  "kA c #B1000017",
  "j~ c #B1000024",
  "k[ c #B1000055",
  "zE c #B100009A",
  "xO c #B10000F9",
  "l_ c #B2000059",
  "jB c #B200005D",
  "z} c #B20000F6",
  "k, c #B3000014",
  "jH c #B3000025",
  "kQ c #B300005A",
  "jF c #B300005B",
  "zS c #B30000E1",
  "zm c #B30000E4",
  "lj c #B30000FA",
  "ly c #B30000FC",
  "z- c #B30100F6",
  "l) c #B30101AE",
  "zW c #B30101F6",
  "jA c #B30101FC",
  "jG c #B4000011",
  "zT c #B40000C9",
  "zD c #B40000CC",
  "zb c #B40101C4",
  "lM c #B40101ED",
  "ze c #B40101EF",
  "kE c #B40101F5",
  "zO c #B40101F6",
  "z5 c #B50000A1",
  "l= c #B50101AF",
  "zg c #B50101C7",
  "k> c #B50101CC",
  "lG c #B50101D8",
  "k9 c #B50101E3",
  "k< c #B50101E4",
  "lt c #B50101ED",
  "l7 c #B50101F0",
  "kL c #B50101F6",
  "z: c #B50202A5",
  "jQ c #B50202F8",
  "jK c #B50303F7",
  "x- c #B50807F6",
  "kW c #B600000E",
  "kO c #B6000015",
  "lH c #B60101B2",
  "j! c #B60101B3",
  "k+ c #B60101CE",
  "l6 c #B60101D8",
  "lN c #B60101DA",
  "z6 c #B60101EF",
  "zf c #B6020284",
  "kx c #B6020285",
  "zr c #B6020288",
  "j^ c #B6020297",
  "j/ c #B60202F7",
  "jZ c #B60303F1",
  "ko c #B60303F6",
  "ka c #B70101C5",
  "k0 c #B70101C9",
  "l- c #B70101DB",
  "kK c #B70202A3",
  "kS c #B70202A7",
  "jJ c #B70303B7",
  "jN c #B8000012",
  "k{ c #B80101B3",
  "ks c #B8020288",
  "kZ c #B80202EF",
  "jD c #B80303B4",
  "jV c #B80404B7",
  "jC c #B80606DE",
  "kv c #B90202F0",
  "jS c #B90505DD",
  "zY c #B90806F6",
  "x+ c #B90907F6",
  "zd c #BC0807F4",
  "zF c #BD0908F6",
  "zo c #BE0907F2",
  "zt c #C00A09F5",
  "zA c #C0130FFA",
  "zv c #C1130FF9",
  "z{ c #C11611FB",
  "l` c #C20E0DF3",
  "k] c #C30F0EF3",
  "zQ c #C41813FD",
  "zM c #C51511FA",
  "x= c #C52018FF",
  "k: c #C71615F7",
  "z4 c #C71713FB",
  "x@ c #C72119FF",
  "zL c #C80909FF",
  "k! c #C81312F3",
  "kz c #C81413F5",
  "zK c #C90909FF",
  "zh c #C91613FA",
  "zV c #CA0909FF",
  "k@ c #CA1717F7",
  "jW c #CA1919F5",
  "jL c #CA1A1AF5",
  "hG c #CB0909FF",
  "zz c #CB0A0AFF",
  "z) c #CB110FFF",
  "z_ c #CB1612FF",
  "zP c #CB1613FF",
  "x* c #CB3226FF",
  "zl c #CC0A0AFF",
  "kd c #CC1413F6",
  "zp c #CD0A0AFF",
  "zx c #CD1411FF",
  "z( c #CD1612FF",
  "z` c #CD1E19FF",
  "l( c #CD221CFF",
  "zi c #CE0A0AFF",
  "za c #CE1311FF",
  "zC c #CE1E18FF",
  "z0 c #CF0A0AFF",
  "z9 c #CF0B0BFF",
  "z> c #CF1B18FB",
  "z/ c #CF1E19FF",
  "x# c #CF3427FF",
  "z2 c #D00B0BFF",
  "z' c #D02D23FF",
  "z1 c #D10B0BFF",
  "zJ c #D11513FF",
  "z& c #D20B0BFF",
  "zq c #D21C17FF",
  "x& c #D24130FF",
  "z< c #D30B0BFF",
  "z% c #D30C0CFF",
  "z^ c #D32E24FF",
  "x$ c #D34131FF",
  "z. c #D40C0CFF",
  "z* c #D41512FF",
  "k8 c #D42A28FB",
  "zI c #D43E2FFF",
  "l| c #D50C0CFF",
  "kp c #D52927FA",
  "z] c #D54534FF",
  "zU c #D54735FF",
  "20 c #D60C0CFF",
  "zB c #D61F1AFF",
  "kJ c #D62A28FB",
  "l* c #D6312CFF",
  "29 c #D70C0CFF",
  "28 c #D70D0DFF",
  "zk c #D71614FF",
  "k1 c #D72A2AFB",
  "lF c #D7372EFF",
  "z[ c #D74B37FF",
  "x% c #D74C39FF",
  "l^ c #D80D0DFF",
  "kX c #D83130FD",
  "lA c #D90D0DFF",
  "kq c #D92929FB",
  "lJ c #D93A37FF",
  "z3 c #D93B2FFF",
  "zw c #D94535FF",
  "zc c #D94A38FF",
  "zZ c #D94E3BFF",
  "lZ c #DA0D0DFF",
  "zu c #DA1513FF",
  "lS c #DA1717FF",
  "j( c #DA3433FD",
  "zH c #DA4033FF",
  "z~ c #DA4636FF",
  "z! c #DA4E3DFF",
  "l} c #DB0D0DFF",
  "l~ c #DB0E0EFF",
  "zG c #DB4A3BFF",
  "zs c #DB4E3CFF",
  "l! c #DC0E0EFF",
  "lQ c #DD0E0EFF",
  "lc c #DD1717FF",
  "l/ c #DD3028FF",
  "lW c #DE0E0EFF",
  "z8 c #DE1F1CFF",
  "z= c #DE4D3CFF",
  "lE c #DF0E0EFF",
  "lR c #DF0F0FFF",
  "kD c #DF2C2BFC",
  "lD c #DF3833FF",
  "k} c #DF3835FF",
  "zX c #DF483AFF",
  "l5 c #DF4C45FF",
  "lT c #E00F0FFF",
  "z$ c #E01616FF",
  "1` c #E11919FF",
  "lY c #E11A1AFF",
  "zN c #E15242FF",
  "lm c #E1574CFF",
  "z# c #E21D1DFF",
  "lv c #E23939FF",
  "zj c #E24E40FF",
  "z@ c #E31E1DFF",
  "jE c #E34443FF",
  "jP c #E34544FF",
  "z7 c #E44B3FFF",
  "lr c #E45F55FF",
  "tP c #E53333FF",
  "z, c #E53D35FF",
  "lb c #E54F4FFF",
  "zy c #E55244FF",
  "ln c #E55957FF",
  "lB c #E55E58FF",
  "lU c #E63A3AFF",
  "lf c #E64C4CFF",
  "lg c #E65452FF",
  "ls c #E74A4AFF",
  "ld c #E74C4CFF",
  "l{ c #E84848FF",
  "lw c #E84B4BFF",
  "z+ c #E85246FF",
  "l2 c #E94848FF",
  "l3 c #E94949FF",
  "<~ c #E94B4BFF",
  "le c #E95553FF",
  "l; c #E95652FF",
  "lh c #E96E61FF",
  "l% c #EA4747FF",
  "l1 c #EA4949FF",
  "lI c #EA5151FF",
  "9a c #EA5252FF",
  "l[ c #EA5454FF",
  "<E c #EB4747FF",
  "<w c #EB5353FF",
  "l] c #EB5454FF",
  "l4 c #EB5A57FF",
  "k` c #EC4545FF",
  "k_ c #EC4646FF",
  ">{ c #EC4747FF",
  "lL c #EC5252FF",
  "lP c #EC5353FF",
  "k) c #ED4545FF",
  "oI c #ED4747FF",
  "lC c #ED5050FF",
  "l& c #ED635EFF",
  "k( c #EE4545FF",
  "0F c #EE4747FF",
  "lx c #EE4F4FFF",
  "jR c #EE5D5BFF",
  "l' c #EE6F68FF",
  "lk c #EE736DFF",
  "kY c #EF4444FF",
  "kU c #EF4545FF",
  "k/ c #EF4646FF",
  "l$ c #EF4747FF",
  "kT c #EF4B4AFF",
  "lz c #EF4F4FFF",
  "jI c #EF5E5CFF",
  "l8 c #EF6C67FF",
  ";A c #EFEFEFFF",
  "kG c #F04545FF",
  "k^ c #F04646FF",
  "l@ c #F04747FF",
  "l# c #F04848FF",
  "la c #F04D4DFF",
  "ll c #F05757FF",
  "lV c #F05F5DFF",
  "lK c #F06B67FF",
  "kR c #F0736AFF",
  ";T c #F0F0F0FF",
  "TT c #F14545FF",
  "E& c #F14747FF",
  "lq c #F14B4BFF",
  "lp c #F14D4DFF",
  "kC c #F16F68FF",
  "k' c #F1746CFF",
  ";` c #F1F1F1FF",
  "kB c #F24545FF",
  "kN c #F24646FF",
  "6} c #F24747FF",
  "Ot c #F24B4BFF",
  "li c #F25251FF",
  "kV c #F25351FF",
  "kH c #F26B64FF",
  ";' c #F2F2F2FF",
  "kM c #F34646FF",
  "lO c #F34747FF",
  "l+ c #F34848FF",
  "l, c #F34949FF",
  "l< c #F34A4AFF",
  "l0 c #F34B4BFF",
  ":O c #F3F3F3FF",
  "km c #F44646FF",
  "lo c #F44747FF",
  "l> c #F44949FF",
  "l9 c #F45554FF",
  "lu c #F47E78FF",
  "kj c #F54646FF",
  "lX c #F54747FF",
  "kk c #F54C4BFF",
  "l: c #F55957FF",
  "kh c #F64747FF",
  "l. c #F64848FF",
  "jT c #F66F6DFF",
  "jU c #F66F6EFF",
  "k; c #F6746FFF",
  "ky c #F74747FF",
  "ku c #F74F4EFF",
  "k| c #F76361FF",
  "kl c #F77C75FF",
  "kt c #F84747FF",
  "k# c #F87573FF",
  "ki c #F87A73FF",
  "kr c #F94747FF",
  "kI c #F94E4DFF",
  "kP c #F97974FF",
  "k5 c #FA4747FF",
  "k6 c #FA5756FF",
  "kb c #FA736FFF",
  "k~ c #FA7671FF",
  "k7 c #FA7E78FF",
  "k4 c #FB4747FF",
  "k. c #FB7B77FF",
  "j) c #FB7C7AFF",
  "74 c #FC4848FF",
  "k= c #FC5251FF",
  "kn c #FC5655FF",
  "kF c #FC6D6AFF",
  "k- c #FC716DFF",
  "jY c #FC7E7BFF",
  "k* c #FD4848FF",
  "kg c #FD4F4FFF",
  "k& c #FE4848FF",
  "j[ c #FE4E4DFF",
  "ke c #FE504FFF",
  "k% c #FE5150FF",
  "j] c #FE5252FF",
  "k3 c #FE5856FF",
  "j{ c #FE5957FF",
  "j' c #FE5958FF",
  "j} c #FE6462FF",
  "j` c #FE6463FF",
  "k$ c #FE726FFF",
  "j| c #FE7773FF",
  "j_ c #FE7875FF",
  "kw c #FE7C79FF",
  "kf c #FE7E7AFF",
  "k2 c #FE7F7DFF",
  "   c none",
  
  // Image data
  "                                                                ",
  "                    jNjBjVjCjZjAjZjSjDjFjG                      ",
  "                jHjJjKjLjPjIjUjYjTjRjEjWjQj!j~                  ",
  "            tEj^j/j(j)j_j`j'j]j[j]j{j}j|k.kXkoj^ti              ",
  "          kOk+k@k#k$k%k&k&k&k&k&k*k*k*74k=k-k;k:k>k,            ",
  "        jGk<k1k2k3k&k&k&k&k*k*k*74k4k4k5k5k5k6k7k8k9yd          ",
  "      y@k0kqkwkek&k*k*k*7474k4k5k5k5krkrktkykykukikpkay@        ",
  "      kskdkfkgk*k*74k4k4k5k5k5krktktkykhkhkhkjkjkkklkzkx        ",
  "    kckvkbkn74k4k4k5k5krkrktkykykhkhkhkjkmkmkMkNkBkVkCkZkA      ",
  "    kSkDkFk5k5k5krktktkykykhkhkjkjkmkMkMkNkBkBTTkGkGkHkJkK      ",
  "  ydkLkPkIkrktktkykhkhkhkjkmkmkMkMkNkBTTTTkGkUkYkYkYkTkRkEkW    ",
  "  kQk!k~kykykhkhkjkjkmkmkMkNkBkBTTkGk^k/kUkUk(k)k)k_k`k'k]k[    ",
  "  k{k}k|l.lXlXlolOl+l+6}E&E&l@l#l#l$l$0FoI>{oI>{>{<El%l&l*l=    ",
  "  l-l;l:l>l,l<:O:O:O:O:O:O:O:O:O:O:O:O:O:O:O:O:Ol1l2l3l4l5l6    ",
  "  l7l8l9l0Otlq:O:O:O:O:O:O:O:O:O;';T;T;A;T;':O:O<~lwlwlelrlt    ",
  "  lylulilplala:O:O:O:O:O:O:O:O;`;A;A;A;A;A;A;A;`lsldlflglhlj    ",
  "  l7lklllzlzlx:O:O:O:O:O:O:O;T;A;A;A;A;A;A;A;A;AlclvlblnlmlM    ",
  "  lNlBlVlClClC:O:O:O:O:O;`;A;A;A;A;A;A;A;A;A;A;AlZlAlSlDlFlG    ",
  "  lHlJlKlLlPlP<w9alIlUlYlTlRlElWlQl!l!l~lZlZlAl^l^2820l/l(l)    ",
  "  l_l`l'l]l[l[l{tP1`lRlWlQlQl!l~l}lZlZlAl^282920l|l|z.zXzok[    ",
  "  ydzOz+z@z#z$lElWlQl!l!l~l}lZlAl^l^282020l|l|z.z%z&z*z=z-z;    ",
  "    z:z>z,lQlQl!l!l~lZlZlAl^28292020l|z.z%z<z&z1z1z2z3z4z5      ",
  "    kcz6z7z8l}lZlAl^l^282920l|l|z.z%z&z&z1z2z2z9z0zqzwzekA      ",
  "      zrztzyzul^282020l|z.z%z<z&z&z1z2z2z0zizpzpzazszdzf        ",
  "      y@zgzhzjzkl|z.z%z<z&z1z1z2z9z0zizpzlzlzzzxzczvzby@        ",
  "        znzmzMzNzBz&z1z2z2z0zizpzpzlzlhGzVzVzCzZzAzSyd          ",
  "          k,zDzFzGzHzJzizpzpzlzzhGzVzKzLzPzIzUzYzTzR            ",
  "            tizEzWzQz!z~z^z/z(z)z_z`z'z]z[z{z}z|x.              ",
  "        +n=2`L1lxXxoxOx+x@x#x$x%x&x*x=x-x;x:x>=%WK[~+m          ",
  "        %V+v=e&R*/=0x,x<x1x2x3x4x5y4x6x7x8x9!$9c=%+g@,*_        ",
  "          %V`L1l&R,W[G*Wehx0&Oxq%Cxwx0=tD3,RtD=%+g%A*_          ",
  "              +n*R=2+v9b1lrn&R`P&Reg+J+g%B%A,D*_                "
};
