/* XPM */
const char *xpm_tango_status_dialog_information[] = {
  // Header (width height colors chars-per-pixel)
  "32 32 439 2",
  
  // Colors (code mode value)
  "+n c #00000001",
  "*_ c #00000003",
  "*` c #00000004",
  "qz c #00000005",
  "*R c #00000006",
  "7t c #00000007",
  ",D c #00000008",
  "nB c #00000009",
  "%V c #0000000A",
  ",q c #0000000C",
  "=2 c #0000000D",
  "=# c #0000000E",
  "[i c #0000000F",
  "%A c #00000010",
  "&Z c #00000011",
  "%Z c #00000013",
  "=$ c #00000015",
  "+v c #00000016",
  "[~ c #00000017",
  "$^ c #00000019",
  "%B c #0000001A",
  "7e c #0000001B",
  "=@ c #0000001D",
  "*' c #00000020",
  "WK c #00000022",
  ":W c #00000025",
  "+J c #00000027",
  "er c #00000028",
  "tS c #00000029",
  "eg c #0000002C",
  "a( c #0000002D",
  "=% c #0000002E",
  "7r c #00000030",
  ":s c #00000031",
  ",T c #00000036",
  "B% c #0000003D",
  "=r c #00000040",
  "=0 c #00000048",
  "X% c #06060657",
  "nn c #0808083E",
  "nx c #16160F23",
  "nC c #1818183F",
  "nV c #1A1A1A3C",
  "na c #3737120E",
  "ns c #3A3A1D35",
  "nb c #3F3F3F96",
  "nc c #4444448A",
  "nd c #4848269B",
  "n9 c #49496D07",
  "nz c #4C4C27A6",
  "b{ c #4D4D29DC",
  "ng c #4D4D2CFF",
  "nf c #4D4D2DF5",
  "nl c #4D4D31EC",
  "np c #4E4E29DE",
  "nk c #4E4E2EFF",
  "nN c #4E4E4ECE",
  "nj c #4F4F2CFF",
  "nm c #4F4F4FC8",
  "n< c #50502CA8",
  "nh c #50502EFF",
  "n0 c #51512BF5",
  "n% c #55552C7A",
  "n$ c #555531FF",
  "xz c #55558006",
  "xe c #55717109",
  "n1 c #58582DFF",
  "b} c #585830F4",
  "n8 c #595931FF",
  "nM c #595959FA",
  "bY c #5B5E4DB4",
  "nv c #5D5D5DF8",
  "b@ c #5E646F2E",
  "b+ c #5E657444",
  "b^ c #5F6167DF",
  "c. c #60607010",
  "bz c #60647052",
  "xr c #60657158",
  "bt c #61647484",
  "vo c #616573F9",
  "cE c #616573FA",
  "xu c #616574F7",
  "vA c #61687371",
  "xy c #616878E5",
  "xi c #62647366",
  "b3 c #62657049",
  "b2 c #62657253",
  "xE c #62657668",
  "c1 c #6266726B",
  "cV c #626676ED",
  "xp c #626676EE",
  "xx c #626678B1",
  "xS c #626679B1",
  "cR c #626775EC",
  "vO c #626777EC",
  "cB c #626878CA",
  "vS c #626878D5",
  "cX c #626878EC",
  "xt c #626879B1",
  "cp c #626879CA",
  "by c #63637112",
  "v~ c #63637124",
  "v4 c #636774EE",
  "xl c #636777EE",
  "v5 c #63687AC1",
  "c< c #636978EC",
  "b[ c #656651F9",
  "b' c #656873FF",
  "bU c #65697597",
  "v! c #656977E5",
  "v^ c #656977ED",
  "bx c #656978C8",
  "vg c #656978CA",
  "n, c #66663EFF",
  "F~ c #6666660A",
  "WH c #666666F8",
  "bA c #66667019",
  "b# c #676A78EC",
  "ni c #69683FFF",
  "bu c #696D7AF6",
  "bS c #696D7BF0",
  "b` c #6A6C76FF",
  "bT c #6A6F76FF",
  "bZ c #6B6E7BEC",
  "xW c #6F7C96F5",
  "cQ c #6F98CDFF",
  "xM c #6F98CEFF",
  "xN c #6F99CCFF",
  "n& c #70703DFF",
  "b1 c #707481EA",
  "xc c #70798EF4",
  "b] c #71747AFF",
  "bO c #717582ED",
  "AA c #719AC9FF",
  "b/ c #72733CF1",
  "cZ c #7299D4FF",
  "xm c #749CD4FF",
  "xB c #749DCCFF",
  "vh c #758299F2",
  "(V c #767874FF",
  "xD c #7686A3F8",
  "c2 c #7786A7F6",
  "x! c #789DDEFF",
  "xa c #7986A1F4",
  "xA c #7A8397F5",
  "n> c #7B7B50FF",
  "cO c #7B9FDFFF",
  "nq c #7D7D41FF",
  "b_ c #7D8184FF",
  "xH c #7DA1D8FF",
  "cs c #7DA1DDFF",
  "x| c #7E8BA0F6",
  "bN c #808173BE",
  "b4 c #808796E7",
  "xG c #80A2DFFF",
  "v8 c #80A4CEE7",
  "c: c #82A6CEE4",
  "v7 c #83A7CFF9",
  "vk c #83A8CFE1",
  "xk c #8490A7F5",
  "b| c #858647FF",
  "cy c #85A8D0DF",
  "x{ c #85A9D1F2",
  "xn c #86A7DEFF",
  "nu c #88895DFF",
  "b~ c #898B90FF",
  "bn c #8B8E8CD5",
  "xR c #8B98AFF9",
  "cm c #8DAED2D4",
  "xV c #8DAED6FF",
  "ca c #8EA4CFFF",
  "xY c #8EADD4FA",
  "c3 c #8FADE5FF",
  "vl c #8FB1D4D0",
  "n# c #918F61FF",
  "v6 c #91A7C9FF",
  "c> c #92B1D6EF",
  "ct c #92B2D5DA",
  "xU c #92B2D5F7",
  "vG c #92B3D5CA",
  "cY c #94B2D6D5",
  "v. c #94B4D6C8",
  "bG c #959A91FF",
  "xs c #95A9CFFF",
  "c4 c #95B2E0FF",
  "cU c #95B4D6C8",
  "v@ c #95B4D6F1",
  "x[ c #95B5D6EF",
  "co c #96AFE0FF",
  "ci c #97A3B6F6",
  "vD c #99ADC8F4",
  "cn c #99B7D7CE",
  "cC c #9AB1DFFF",
  "cI c #9BB8D8BF",
  "bI c #9DA0A8E2",
  "xQ c #9DB7E7FF",
  "c| c #9DB9D9BD",
  "xJ c #9DB9DDFF",
  "xv c #9EB3DDFF",
  "v+ c #9EB5DCFF",
  "cW c #9EB6E3FF",
  "xb c #9EB8E9FF",
  "v2 c #9EBADAC0",
  "n2 c #A1A15AFF",
  "x~ c #A1BBE2FF",
  "xF c #A2B9E8FF",
  "vj c #A2BCDDF6",
  "bl c #A3A6B4DD",
  "c} c #A3BFDBB2",
  "vZ c #A4ADBCE8",
  "cM c #A4BDDDE7",
  "v1 c #A4C0DCB1",
  "n* c #A5A686FF",
  "xj c #A5B5D4FF",
  "bK c #A6A68EFF",
  "vF c #A8C0DFE4",
  "n7 c #A9A97EFF",
  "bR c #AAAEB5FF",
  "bb c #AAB7BBB8",
  "v) c #AAC3DEB8",
  "bg c #ABABAD64",
  "v< c #ABC3DDA7",
  "bh c #ACAFAF6C",
  "vs c #ACC2DEA8",
  "v/ c #ADBCD2EC",
  "xd c #ADC0E6FF",
  "c+ c #AEC4E6FF",
  "b) c #AFB0B7FF",
  "v9 c #AFC5DFE1",
  "xI c #AFC6E0F8",
  "b( c #B1B16FFF",
  "nw c #B1B276FF",
  "v, c #B2C8E09E",
  "c! c #B2C9E1F9",
  "va c #B3C9E19B",
  "HF c #B3C9E2FF",
  "ba c #B4BDC7A9",
  "cd c #B4CAE6FF",
  "n6 c #B5B78DFF",
  "bH c #B5BAA7FF",
  "v( c #B5C9E5D5",
  "xC c #B6CAE7FF",
  "xf c #B7CAECFF",
  "vd c #B7CCE4C4",
  "bp c #B8CCE297",
  "c{ c #B8CCE4B3",
  "n@ c #B9B987FF",
  "5X c #B9B9B9FF",
  "xh c #B9C9E8FF",
  "b% c #B9CDE6BE",
  "n+ c #BABA8FFF",
  "bs c #BAC3CF89",
  "b$ c #BAC8DBE2",
  "vV c #BACEE591",
  "bm c #BBC1B6B8",
  "bc c #BBC4D7D9",
  "xg c #BBCCEDFF",
  "cA c #BBCFE4FF",
  "b6 c #BCCDE59F",
  "bJ c #BDC0A7FF",
  "c; c #BED2E6ED",
  "vi c #BED3E58A",
  "xP c #BFD1E6FA",
  "xZ c #C1CFE7FF",
  "vE c #C1D4E687",
  "br c #C2C5D1DC",
  "v# c #C2D4E7EE",
  "xK c #C2D4E7FD",
  "cS c #C2D5E7F8",
  "cf c #C2D5E8FC",
  "bM c #C3C6B1AB",
  "vc c #C3D4E7B2",
  "c~ c #C3D4E8F3",
  "ne c #C4C694FF",
  "x^ c #C4D5EAFF",
  "cu c #C4D5EBF6",
  "AZ c #C5D6EAFF",
  "bq c #C6C8C890",
  "bF c #C6CDCEFF",
  "c5 c #C6D6EAFB",
  "vu c #C6D7E88E",
  "v> c #C6D7E9A5",
  "vR c #C7CACCD7",
  "cD c #C7D7E9F1",
  "x] c #C7D7E9F4",
  "xL c #C7D7EAFB",
  "cg c #C7D8E9F6",
  "ny c #C8CB9AFF",
  "vn c #C8D7E981",
  "cP c #C8D8E9CF",
  "c^ c #C8D8E9EB",
  "c- c #C8D8E9ED",
  "v0 c #C8D8EADE",
  "v$ c #C8D8EAE5",
  "cr c #C8D8EAE6",
  "x' c #C8D8EAF4",
  "c@ c #C8D8EAFC",
  "x/ c #C8D8EAFD",
  "c6 c #C8D9E9F7",
  "vN c #C9CCCFD0",
  "vv c #C9D7EAA1",
  "ch c #C9D9EAF1",
  "vb c #C9DBEA93",
  "bD c #CAD1D9F9",
  "c= c #CAD9EBED",
  "x( c #CAD9EBFA",
  "c# c #CADAEBF7",
  "cN c #CBD5E8FA",
  "vm c #CBD9EA7A",
  "x` c #CBD9EBF4",
  "vM c #CBDAEA7B",
  "ce c #CBDAEAE5",
  "x) c #CBDAEBF7",
  "cF c #CBDBEAEA",
  "cb c #CBDBEBDD",
  "c7 c #CBDBECF1",
  "vB c #CCCCCDF9",
  "bv c #CCD8EAB9",
  "v` c #CCD9E8A9",
  "c$ c #CCDAEBF4",
  "c/ c #CCDBEBE4",
  "cj c #CCDBEBEB",
  "c% c #CCDBEBF1",
  "x_ c #CCDBEBF5",
  "c* c #CCDBECED",
  "b5 c #CCDBEFCF",
  "vI c #CDD3D9A8",
  "b8 c #CDDAE976",
  "v% c #CDDCEBDD",
  "bB c #CECEBC72",
  "b7 c #CED8E0B6",
  "vq c #CEDCECD6",
  "cw c #CEDCECE4",
  "c& c #CEDCECEE",
  "c8 c #CEDDECED",
  "xT c #CFDBF0FF",
  "cq c #CFDCECE5",
  "c9 c #CFDCECEA",
  "cv c #CFDDECDB",
  "cc c #CFDDECDC",
  "ck c #CFDEECE6",
  "vU c #D0D6DAB3",
  "c0 c #D0DDECE7",
  "c( c #D0DEEDDD",
  "nO c #D1D2A7FF",
  "c, c #D1DCEFFD",
  "cx c #D1DFEDDD",
  "nt c #D2D5A7FF",
  "cl c #D2DEEDE2",
  "b. c #D2DFED71",
  "cL c #D2DFEDD2",
  "v& c #D2DFEED5",
  "cz c #D2DFEEDE",
  "b! c #D3D6D6FF",
  "bE c #D3D7DCFF",
  "cG c #D3E1EDDA",
  "cK c #D3E1EED2",
  "b& c #D4DFEDBD",
  "c[ c #D4E0EEC8",
  "c) c #D4E1EED6",
  "vW c #D5DEF1BC",
  "x} c #D5E0F3FD",
  "cJ c #D5E1EED3",
  "vw c #D5E1EFCC",
  "cH c #D5E1EFD5",
  "b* c #D5E2F0A5",
  "vY c #D6D9DBD6",
  "vP c #D6DDE4B5",
  "bi c #D6E0F2D8",
  "v* c #D6E1EFCD",
  "b= c #D6E2EE69",
  "vx c #D7E2EDD9",
  "c_ c #D7E2EFD0",
  "vy c #D7E3EFA4",
  "vp c #D8E3F1B0",
  "ve c #D8E4EFC4",
  "c' c #D8E4F0C9",
  "c` c #D8E4F0CC",
  "v} c #D9D9DCC5",
  "vf c #D9E0EFF3",
  "c] c #D9E4F0C7",
  "v= c #DAE4F0C6",
  "bL c #DBDDC9FF",
  "vC c #DBE4F5DD",
  "b9 c #DBE5F063",
  "v- c #DBE6F2C1",
  "v: c #DCE5F1BB",
  "bd c #DCE7F25F",
  "n: c #DDDFABFF",
  "nr c #DDE0B1FF",
  "bX c #DDE6F5AE",
  "vr c #DDE7F1BC",
  "v; c #DDE7F2BD",
  "vQ c #DEE4F2EA",
  "vH c #DEE7F1E2",
  "b, c #DEE8F57B",
  "vt c #DFE8F2B5",
  "b- c #E0E9F15B",
  "bW c #E1E4E7FF",
  "vT c #E2E2E2FC",
  "v| c #E2E5E6CB",
  "vL c #E2E6ECD2",
  "v' c #E2E8EBC4",
  "no c #E3E6B7FF",
  "v{ c #E3E6E7DC",
  "bQ c #E4E7EBFF",
  "n. c #E5E6C1FF",
  "N* c #E6E8EBFF",
  "cT c #E6EAF9FC",
  "b; c #E6ECF651",
  "n5 c #E7E9B9FF",
  "bo c #E7EBF7EB",
  "bw c #E7EDF354",
  "b0 c #E7EEF14A",
  "nX c #E8EABAFF",
  "bf c #E8F2F54C",
  "bP c #E9EBEEFE",
  "v] c #EAECEED8",
  "be c #EAEFFAA0",
  "v[ c #EBEBECE1",
  "b: c #EBEDF17D",
  "b< c #EBEFFBE5",
  "v3 c #EBEFFCFB",
  "vX c #ECEFFCFD",
  "b> c #ECF0F97B",
  "v_ c #ECF1F7E0",
  "n; c #EDEFBDFF",
  "bk c #EDF0FCB8",
  "bj c #EDF1F848",
  "n= c #EEF1C0FF",
  "bV c #EEF1F959",
  "bC c #F0F1FEE1",
  "n4 c #F2F4C5FF",
  "n- c #F4F7C6FF",
  "vK c #F6F7F8F7",
  "vJ c #F6F7FAF3",
  "vz c #F7F9FBFA",
  "n3 c #FAFBF2FF",
  "   c none",
  
  // Image data
  "                                                                ",
  "                      xexrxtxyxuxuxyxtxrxe                      ",
  "                    xixpxaxsxdxfxgxhxjxkxlxi                    ",
  "                xzxxxcxvxbxnxmxMxNxBxVxCxZxAxxxz                ",
  "              +nxSxDxFxGxHxJHFxKxLxPxIxUxYxTxRxS+n              ",
  "              xExWxQx!x~x^x/x(x)x_x`x'x]x[x{x}x|xE              ",
  "            c.cXcocOc+AZc@c#c$c%c&c*c=c-c;c:c>c,c<c.            ",
  "            c1c2c3c4x^c5c6c7c8c9c0cqcwcecrctcycucic1            ",
  "            cpcacscdcfcgchcjckclczcxcccvcbcncmcMcNcB            ",
  "            cVcCcZcAcScDcFcwczcGcHcJcKcLcPcIcUcYcTcR            ",
  "            cEcWcQc!c~c^c/c(c)c_c`c'c]c[c{c}c|v.vXvo            ",
  "            vOv+AAv@v#v$v%v&v*v=v-v;v:v>v,v<v1v2v3v4            ",
  "            v5v6v7v8v9v0vqvwvevrvtvyvuvivpvavsvdvfvg            ",
  "            xrvhvjvkvlvzvxvcvvvbvnvmvMvNvBvVv,vCvZvA            ",
  "            +nvSvDvFvGvHvJvKvLvPvIvUvYvTvRvEvWvQv!F~            ",
  "              v~v^v/v(v)v_v`v'v]v[v{v}v|b.bXbobOb+              ",
  "                b@b#b$b%b&b*vmb=b-b;b:b>b,b<b1b2                ",
  "                  b3b4b5b6b7b8b9b;b0bqbwbebrbt                  ",
  "                  bybubibpbabsbdbfbgbhbjbkblbz                  ",
  "                    bxbcbvbbbnbmbMbNbBbVbCbZbA                  ",
  "                    b@bSbDbFbGbHbJbKbLbPbIbU                    ",
  "                      bYbTbRbEbWbQN*b!b~b^n9                    ",
  "                      b/b(b)b_b`b'b](Vb[b{                      ",
  "                      b}b|n.nXnonOn+n@n#n$                      ",
  "                      n%n&n*n=n-n;n:n>n,n<                      ",
  "                      n1n2n3n4n-n5n6n7n#n8                      ",
  "                      n0nqnwnenrntnynuninpna*_                  ",
  "                *`,D=2nsndnfngnhnjnknlnznx+v%Z=#%Vqz            ",
  "              *R,q&Z[~=@erncnv5X5XWHnb=r,Teg*'$^%Z=#,D+n        ",
  "            +n7t=2%Z$^*'a(nnnmnMnMnNX%=0B%:s:W%B=$[inB+n        ",
  "              +n*R,q&Z+v%B*'+JnVnC7r=%tSWK7e[~%Z=2qz            ",
  "                    +n*_7t%V,q=#%A%A=#,q%V*R*_+n                "
};
