/* XPM */
const char *xpm_tango_status_folder_visiting[] = {
  // Header (width height colors chars-per-pixel)
  "32 32 135 2",
  
  // Colors (code mode value)
  "+n c #00000001",
  "*T c #00000002",
  "*` c #00000004",
  ",D c #00000008",
  "nB c #00000009",
  "%V c #0000000A",
  "=2 c #0000000D",
  "%A c #00000010",
  "+b c #00000012",
  "+g c #00000021",
  "@$ c #00000026",
  "rn c #0000002A",
  ",T c #00000036",
  "VB c #0C0C0C3E",
  "Vn c #10101040",
  "VM c #12121238",
  "Vm c #13131336",
  "DJ c #14141433",
  "VN c #14141434",
  "a% c #15151524",
  "1x c #6262624E",
  "U6 c #6B6B6B32",
  "Vb c #727272B9",
  "Vx c #7C7C7CAD",
  "Vl c #80807F8F",
  "Vv c #868686FD",
  "Vc c #878787FD",
  "<T c #898989F4",
  "Vh c #8D8D8D77",
  "Vj c #8D8D8D92",
  "<H c #8E8E8E12",
  "Vk c #909090F6",
  "Vf c #9292929B",
  "@' c #939393F9",
  "!i c #94949439",
  "Vu c #96969655",
  "Vd c #969696D0",
  "Vs c #979797A4",
  "Vr c #98989872",
  "Va c #9A9A9AAE",
  "Vi c #9D9D9DB8",
  "Vq c #9E9E9E93",
  "Vt c #9E9E9EC0",
  "Vw c #A0A0A0C9",
  "V0 c #A2A2A2D1",
  "V9 c #A3A3A3B7",
  "V8 c #A4A4A4D8",
  "Vp c #A4A4A4F0",
  "Vz c #A4A4A4F9",
  "V7 c #A5A5A5D5",
  "V5 c #A5A5A5ED",
  "V6 c #A6A6A6DF",
  "V2 c #A7A7A6F1",
  "V1 c #A7A7A6FA",
  "V4 c #A8A8A7E5",
  "V3 c #A9A9A9A6",
  "V< c #A9A9A9EC",
  "V, c #A9A9A9EE",
  "V> c #AAAAA9F1",
  "}= c #AAAAAA06",
  "V; c #ACACABF6",
  "V: c #ADADABE8",
  "V= c #ADADADFB",
  "V- c #AFAFAFE2",
  "V& c #B0B0AFFE",
  "V$ c #B1B1B0FC",
  "V* c #B2B2B1DA",
  "Vy c #B2B2B2F1",
  "V% c #B4B4B3D2",
  "VO c #B5B5B545",
  "V@ c #B6B6B5F8",
  "V+ c #B6B6B60E",
  "B} c #B6B6B615",
  "V# c #B6B6B6C8",
  "Vo c #B7B7B6EB",
  "VX c #B7B7B6F1",
  "B` c #B7B7B720",
  "B/ c #B7B7B76A",
  "B{ c #B8B8B676",
  "B^ c #B8B8B7F7",
  "B_ c #B8B8B7F8",
  "B~ c #B8B8B7FB",
  "B( c #B8B8B824",
  "B| c #B9B9B7F6",
  "B! c #B9B9B8C5",
  "B) c #B9B9B8F5",
  "B' c #B9B9B91D",
  "V. c #BABAB9F4",
  "Vg c #BABABAF6",
  "B] c #BBBBBAF3",
  "h4 c #BFBFBF04",
  "Ve c #C0C0C0F9",
  "B[ c #C3C3C2F3",
  ":* c #C3C3C3FF",
  ">x c #C9C9C9FF",
  "+a c #CBCBCBFF",
  ";_ c #CECECEFF",
  "+v c #D0D0D0FF",
  ",V c #D2D2D2FF",
  ":o c #D5D5D5FF",
  ",N c #D6D6D6FF",
  "$t c #D8D8D7FF",
  ",b c #D9D9D9FF",
  ",m c #DADADAFF",
  "t5 c #DBDBDAFF",
  "lw c #DCDCDBFF",
  "=b c #DDDDDDFF",
  "&v c #DEDEDDFF",
  "=[ c #DEDEDEFF",
  "rH c #DFDFDEFF",
  "={ c #DFDFDFFF",
  "*( c #E0E0E0FF",
  "+Z c #E1E1E1FF",
  "+A c #E2E2E2FF",
  "+S c #E3E3E3FF",
  "&I c #E4E4E4FF",
  ";3 c #E5E5E5FF",
  ";b c #E6E6E6FF",
  ":# c #E8E8E8FF",
  ":2 c #E9E9E9FF",
  ",% c #EAEAEAFF",
  ":, c #EBEBEBFF",
  ":> c #ECECECFF",
  ":< c #EEEEEEFF",
  ";T c #F0F0F0FF",
  ";' c #F2F2F2FF",
  ":3 c #F4F4F4FF",
  "@> c #F6F6F6FF",
  ":9 c #F7F7F7FF",
  ";R c #F8F8F8FF",
  ":5 c #FAFAFAFF",
  ";Q c #FBFBFBFF",
  ";7 c #FCFCFCFF",
  ";f c #FEFEFEFF",
  "   c none",
  
  // Image data
  "                                                                ",
  "                                                                ",
  "                                                                ",
  "  h4B!B~B~B~B~B~B~B~B~B~B^B/                                    ",
  "  B(B)=b=b=b=b=b=b=b=b=b,bB_B`                                  ",
  "  B'B]={={={={={={={={={={B[B{                                  ",
  "  B}B|+Z+Z+Z+Z+Z+Z+Z+Z+Z+Z,mV.VXVXVXVXVXVXVXVXVoVO              ",
  "  V+V@+A+A+A+A+A+A+A+A+A+A+A+Z&v&v&v&v&v&v&v&v+vV#              ",
  "  }=V$&I&I&I&I&I&I&I&I&I&I&I&I&I&I&I&I&I&I&I&I$tV%              ",
  "    V&;b;b;b;b;b;b;b;b;b;b;b;b;b;b;b;b;b;b;b;bt5V*              ",
  "    V=;b:#:#:#:#:#:#:#:#:#:#:#:#:#:#:#:#:#:#:#=[V-              ",
  "    V;;b,%,%,%,%,%,%,%,%,%,%,%,%,%,%,%,%,%,%,%+ZV:              ",
  "    V>;b:>:>:>:>:>:>:>:>:>:>:>:>:>:>:>:>:>:>:>;3V,              ",
  "    V<;3:<:<:<:<:<:<:<:<:<:<:<:<:<:<:<:<:<:<:<:,V1V2V2V2V2V3    ",
  "    V4&I;T;T;T;T;T;T;T;T;T;T;T;T;T;T;T;T;T;T;T;T:>:2:2:2rHV5    ",
  "    V6+S;';';';';';';';';';';';';';';';';';';';';';';';'=bV7    ",
  "    V8+Z:3:3:3:3:3:3:3:3:3:3:3:3:3:3:3:3:3:3:3:3:3:3:3:3:oV9    ",
  "    V0*(@>@>@>@>@>@>@>@>@>@>@>@>@>@>@>@>@>@>@>@>@>@>@>@>+aVq    ",
  "    Vw=[;R;R;R;R;R;R;R;R;R;R;R;R;R;R;R;R;R;R;R;R;R;R;R;RVeVr    ",
  "    Vtlw:5:5:5:5:5:5:5:5:5:5:5:5:5:5:5:5:5:5:5:5:5:5:5:5VyVu    ",
  "    Vi,b;7;7;7;7;7;7;7;7;7;7;7;7;7;7;7;7;7;7;7;7;7;7;7;7Vp!i    ",
  "    Va,N;f;f;f;f;f;f;f;f;f;f;f;f;f;f;f;f;f;f;f;f;f;f;f;Q@'<H    ",
  "    Vs,V;f;f;f;f;f;f;f;f;f;f;f;f;f;f;f;f;f;f;f;f;f;f;f=[Vd      ",
  "    Vf;_;f;f;f;f;f;f;f;f;f;f;f;f;f;f;f;f;f;f;f;f;f;f;fVgVh      ",
  "    Vj>x;f;f;f;f;f;f;f;f;f;f;f;f;f;f;f;f;f;f;f;f;f;f@>VkU6      ",
  "  +nVl:*;f;f;f;f;f;f;f;f;f;f;f;f;f;f;f;f;f;f;f;f;f:9VzVx+g%V    ",
  "  *`1x<TVcVcVcVcVcVcVcVcVcVcVcVvVvVvVvVvVvVvVvVvVvVvVbVn@$%V    ",
  "    =2a%VmVMDJDJDJDJDJDJDJDJDJDJDJDJDJDJDJDJDJDJVNVB,Trn+b      ",
  "      *TnB=2nBnBnBnBnBnBnBnBnBnBnBnBnBnBnBnBnBnBnB%A,D*T        ",
  "                                                                ",
  "                                                                ",
  "                                                                "
};
