/* XPM */
const char *xpm_tango_status_folder_open[] = {
  // Header (width height colors chars-per-pixel)
  "32 32 250 2",
  
  // Colors (code mode value)
  "+n c #00000001",
  "*T c #00000002",
  "*` c #00000004",
  ",D c #00000008",
  "nB c #00000009",
  "%V c #0000000A",
  "=2 c #0000000D",
  "%A c #00000010",
  "+b c #00000012",
  "+g c #00000021",
  "@$ c #00000026",
  "rn c #0000002A",
  ",T c #00000036",
  "BQ c #04080C3E",
  "BW c #040C1440",
  "N~ c #0D141A27",
  "8% c #0E131C36",
  "8. c #10151D3E",
  "7| c #11151E3C",
  "8X c #12161F39",
  "BH c #294D7A32",
  "BE c #2C5588BB",
  "BY c #2E5991AB",
  "7' c #3030304B",
  "w] c #3264A438",
  "BR c #3365A3FD",
  "B5 c #3366A555",
  "NE c #3465A3FF",
  "B, c #3466A571",
  "~C c #3565A4FF",
  "BV c #3566A478",
  "Bi c #3566A5F9",
  "BT c #36629BFE",
  "B= c #3667A692",
  "BG c #3668A5F6",
  "Bk c #3768A6D1",
  "N& c #3768A6F1",
  "N[ c #3868A7ED",
  "F, c #3963AA12",
  "N_ c #3967A3FE",
  "Br c #3968A5FF",
  "4: c #3969A4FF",
  "N` c #3A6AA7A6",
  "N$ c #3B69A4FF",
  "B@ c #3B6AA9B7",
  "BX c #3B6BA8D5",
  "N) c #3C6AA5FF",
  "Bz c #3D6AA3FF",
  "7( c #3E3E3E8F",
  "BZ c #406FA8FF",
  "aI c #416FA7FF",
  "BK c #4175ACFF",
  "Bw c #4272ADF0",
  "N( c #436EA3FF",
  "BU c #4372ACF8",
  "7E c #44444492",
  "BB c #4678B2F7",
  "2M c #4747479B",
  "B6 c #4871A4FF",
  "2f c #494949A4",
  "29 c #4B4B4BAE",
  "N} c #4D78ADFF",
  "2- c #4E4E4EB8",
  "Ba c #4E7BB3FF",
  "1} c #505050C0",
  "1E c #525252C9",
  "BL c #5281B4FF",
  "BI c #5382B4FF",
  "BP c #5483B5FF",
  "1G c #555555D1",
  "B4 c #5581B7F2",
  "BM c #5589C1FF",
  "Bm c #568AC1FF",
  "1m c #575757D8",
  "B< c #57759AFF",
  "f. c #5880B2FF",
  "1s c #5A5A5ADF",
  "BJ c #5A6E89FF",
  "Bn c #5A8CC3FF",
  "BN c #5B8DC3FF",
  "NO c #5C5C5CEF",
  "BF c #5D8BBEFF",
  "Bx c #5D8CC1FF",
  "Bb c #5D8FC4FF",
  "10 c #5E5E5EE5",
  "B$ c #5E85B6FF",
  "Bh c #5E91C9FF",
  "No c #5F5F5FE9",
  "12 c #5F5F5FEC",
  "Bj c #5F8DC3FF",
  "Bg c #5F91C9FF",
  "BD c #618FC0FF",
  "ju c #6193CAFF",
  "NX c #626262E2",
  "1+ c #626262F1",
  "Bv c #6292C6FF",
  "BA c #6390C0FF",
  "Bf c #6394CBFF",
  "BS c #6491C2FF",
  "<` c #656565F6",
  "j: c #6596CBFF",
  "7h c #666666DB",
  "<E c #666666FB",
  "Bd c #6696CCFF",
  "BC c #6780A1FF",
  "B; c #678FBDFF",
  "2j c #6797CCFF",
  "B> c #6890C1FA",
  "Bc c #6896C8FF",
  "7g c #696969D3",
  "<L c #696969FD",
  "Bu c #6998CCFF",
  "Bs c #6A99CDFF",
  "lI c #6B6B6B4A",
  "Bp c #6B819DFF",
  "Bq c #6B9BCEFF",
  "7f c #6C6C6CC9",
  "y> c #6C9ACEFF",
  "By c #6C9BCDFF",
  "<B c #6D6D6D0E",
  "<z c #6D6D6D15",
  "7d c #6D6D6DEC",
  "7s c #6E6E6EF1",
  "B! c #6F6F6F17",
  "7a c #6F6F6FF1",
  "<G c #6F6F6FFB",
  "7p c #70707072",
  "2u c #709DCFFF",
  "B0 c #709FD0FF",
  "<p c #7272721D",
  "B- c #72849CFF",
  "Qb c #729AC8FF",
  "'~ c #729FCFFF",
  "B3 c #729FD0FF",
  "me c #737373F4",
  "<V c #737373F8",
  "B2 c #74A1D1FF",
  "B# c #758190FF",
  "Nj c #75A1D0FF",
  "7y c #7676766A",
  "B9 c #76A2D2FF",
  "<6 c #777777FB",
  "<t c #78787824",
  "Vo c #787878F7",
  "2V c #78A4D2FF",
  "2S c #79A4D2FF",
  "<5 c #7A7A7AC1",
  "<x c #7A7A7AF5",
  "7u c #7A7A7AF8",
  "jy c #7AA4D2FF",
  "B7 c #7BA3CEFF",
  "2< c #7CA6D3FF",
  "N{ c #7D858FFF",
  "0a c #7DA0CCFF",
  "B1 c #7DA6D4FF",
  "=< c #7E7E7EFF",
  "7K c #7EA7D4FF",
  "<4 c #80808004",
  "<W c #80808006",
  "<y c #808080F5",
  "<U c #818181F4",
  "B* c #82A9D6FF",
  "B8 c #83ABD6FF",
  "Be c #84878AFF",
  "Bt c #84ABD4FF",
  "B: c #84ABD6FF",
  "Bo c #858F9CFF",
  "2, c #85ACD6FF",
  "20 c #878786FF",
  "-K c #878787FF",
  "-Y c #898989FF",
  "1` c #89AFD8FF",
  "-v c #8A8A8AFF",
  "N/ c #8A8C8FFF",
  "B& c #8AAFD8FF",
  "mV c #8B8B8BFF",
  "B% c #8BB0D9FF",
  ";* c #8C8C8CFF",
  "Bl c #8C8C8DFF",
  "-i c #8D8D8DFF",
  "9M c #8E8E8EFF",
  "2O c #8EB2D9FF",
  "-, c #8F8F8FFF",
  "16 c #8FB3DAFF",
  "2+ c #909090FF",
  "N' c #90969EFF",
  "], c #90B3DAFF",
  "]@ c #90B4DAFF",
  "!/ c #919191F4",
  "pb c #919191FF",
  ",7 c #929292FF",
  "B+ c #92B1D5FF",
  "=L c #939393FF",
  "2o c #93B5DBFF",
  "17 c #93B6DBFF",
  "=v c #949494FF",
  "2v c #959595FF",
  "2@ c #969696FF",
  ",F c #979797FF",
  "'J c #97B8DDFF",
  "2P c #989898FF",
  "2# c #999999FF",
  "1~ c #99BADDFF",
  ":^ c #9A9A9AFF",
  "B. c #9ABBDDFF",
  "<= c #9B9B9BFF",
  ",J c #9C9C9CFF",
  "1, c #9CBCDEFF",
  "2$ c #9D9D9DFF",
  "7i c #9E9E9EFF",
  "<m c #9F9F9FFF",
  "5, c #A0A0A0FF",
  "6} c #A1A1A1FF",
  ";I c #A2A2A2FF",
  "6| c #A3A3A3FF",
  "=C c #A4A4A4FF",
  "1M c #A5A5A4FF",
  "=W c #A5A5A5FF",
  "fm c #A5BFDEFF",
  "-6 c #A6A6A6FF",
  "-V c #A7A7A7FF",
  "<Q c #A8A8A8FF",
  "-` c #A9A9A9FF",
  ",C c #AAAAAAFF",
  "7A c #AAC5E3FF",
  "6' c #ABABABFF",
  "g. c #ABC4E0FF",
  "<b c #ACACACFF",
  "1q c #ADADACFF",
  "<v c #ADADADFF",
  ",Z c #AEAEAEFF",
  "<P c #B0B0AFFF",
  ">F c #B0B0B0FF",
  ":& c #B1B1B1FF",
  "Q> c #B3B3B3FF",
  "1@ c #B6B6B5FF",
  "BO c #B8CFE7FF",
  "1> c #BDBDBDFF",
  ";= c #BFBFBFFF",
  "N] c #BFD4E9FF",
  ";g c #C0C0C0FF",
  "*P c #C0D4E9FF",
  ";U c #C1C1C1FF",
  "N| c #C1D5EBFF",
  "<H c #C2C2C1FF",
  ":* c #C3C3C3FF",
  ":6 c #C4C4C4FF",
  "<c c #C5C5C4FF",
  ",2 c #CDCDCDFF",
  "   c none",
  
  // Image data
  "                                                                ",
  "                                                                ",
  "                                                                ",
  "  <4<5<6<6<6<6<6<6<6<6<6Vo7y                                    ",
  "  <t<y,2:6:*:*;U;U;g;g;g;=7uB!                                  ",
  "  <p<UQ><m7i2$,J<=:^2#2#:^!/7p                                  ",
  "  <z<x<c>F,Z<v<b6'-`-`<Q-`6|me7a7a7s7s7s7s7s7s7dlI              ",
  "  <B<V:&,J:^2#,F2@2@2v=v=v=v=L<m<b<v,Z,Z>F:&:&6|7f              ",
  "  <W<G<H<b,C-`-V-6=W=C6|;I;I;I;I;I;I6|=C=W-6-V2#7g              ",
  "    <L<P2P2@2@=v=Lpb2+-,-,9M9M9M9M-,-,2+pb,7=v-v7h              ",
  "    <E1><Q-6=C6|6}5,<m7i2$2$,J,J2$2$7i<m5,6};I2#NX              ",
  "    <`,C2v=Lpb2+9M9M;*mVmV-v-v-v-v-vmV;*-i9M-,-YNo              ",
  "    1+1@=W6|6}<m2$<=:^2#2P,F,F,F,F2P2P2#:^,J2$,FNO              ",
  "    12=W,72+N/N(N)N)N$N$N$N$N$N$N$N$N$N$N$N)N)N)N_N&N&N&N&N`    ",
  "    101q;I<mN'aI*P*P*P*P*P*P*P*P*P*P*P*P*P*P*P*P*P*P*PN]g.N[    ",
  "    1s<m-,9MN{N}N|171717171717171717171717171717171717B.fmBX    ",
  "    1m1M<m,JBof.BO]@]@]@]@]@]@]@]@]@]@]@]@]@]@]@]@]@161~B+B@    ",
  "    1G2P9MmVB#B$7AB%B%B%B%B%B%B%B%B%B%B%B%B%B%B%B%B&B*'J0aB=    ",
  "    1E,J2$:^B-B;1,2,2,2,2,2,2,2,2,2,2,2,2,2,2,2,B:2<2S2oB>B,    ",
  "    1}2+;*-YB<Qb],7K7K7K7K7K7K7K7K7K7K7K7K7K7KB1B2B3B32OB4B5    ",
  "    2-pb2$2#B6B7B82V2V2V2V2V2V2V2V2V2V2V2VB9B0BqBqBqBq1`Bww]    ",
  "    2920;*BeBrBtNj'~'~'~'~'~'~'~'~'~2uByBuj:j:j:j:j:BujyBiF,    ",
  "    2f-K2$BpBajyy>y>y>y>Bs2jBdBfjuBgBhBhBhBhBhBhBhBhj:BjBk      ",
  "    2M=<BlBzBxBcBvBbBnBmBMBMBMBMBMBMBMBMBMBMBMBMBMBMBNBBBV      ",
  "    7E=<BCBZBABSBDBDBDBDBDBDBDBDBDBDBDBDBDBDBDBDBDBDBFBGBH      ",
  "  +n7(BJ4:BKBLBPBPBPBPBPBPBPBPBPBPBPBPBPBPBPBPBPBPBIBUBY+g%V    ",
  "  *`7'BT~CNENENENENENENENENENENENENENENENENENENENEBRBEBW@$%V    ",
  "    =2N~7|8.8X8X8X8X8X8X8X8X8X8X8X8X8X8X8X8X8X8X8%BQ,Trn+b      ",
  "      *TnB=2nBnBnBnBnBnBnBnBnBnBnBnBnBnBnBnBnBnBnB%A,D*T        ",
  "                                                                ",
  "                                                                ",
  "                                                                "
};
