/* XPM */
const char *xpm_tango_status_folder_drag_accept[] = {
  // Header (width height colors chars-per-pixel)
  "32 32 235 2",
  
  // Colors (code mode value)
  "+n c #00000001",
  "*T c #00000002",
  "*` c #00000004",
  ",D c #00000008",
  "nB c #00000009",
  "%V c #0000000A",
  "=2 c #0000000D",
  "%A c #00000010",
  "+b c #00000012",
  "@$ c #00000026",
  "rn c #0000002A",
  ",T c #00000036",
  "NI c #00000822",
  "N^ c #0408103F",
  "N! c #0B162447",
  "N~ c #0D141A27",
  "8% c #0E131C36",
  "8. c #10151D3E",
  "7| c #11151E3C",
  "8X c #12161F39",
  "*o c #246DB607",
  "NQ c #2D588EC5",
  "NA c #2E599053",
  "7' c #3030304B",
  "NP c #32619BCE",
  "=K c #3366A237",
  "NW c #3464A3FE",
  "NR c #3464A3FF",
  "NE c #3465A3FF",
  "Nr c #3465A558",
  "f5 c #3466A47B",
  "NT c #366199FE",
  "Nd c #3667A5F5",
  "Nb c #3768A6AC",
  "N& c #3768A6F1",
  "N% c #3866A1FF",
  "NF c #3968A4FF",
  "N6 c #3969A7A5",
  "N: c #3969A7EA",
  "Nm c #3A69A5FF",
  "N1 c #3A6BA8CB",
  "N$ c #3B69A4FF",
  "N* c #3B6BA8AA",
  "NZ c #3B6CA8F3",
  "7( c #3E3E3E8F",
  "Np c #3E6BA7FF",
  "Nu c #4171ACF0",
  "NG c #4174ADFF",
  "Nt c #426CA1FF",
  "N# c #426DA2FF",
  "N- c #426FA9FF",
  "7E c #44444492",
  "NL c #4574ACFB",
  "2M c #4747479B",
  "2f c #494949A4",
  "29 c #4B4B4BAE",
  "Nf c #4D719EFF",
  "2- c #4E4E4EB8",
  "1} c #505050C0",
  "N, c #507AAFFF",
  "1E c #525252C9",
  "W* c #535353FA",
  "Nv c #5384BCFE",
  "NH c #5483B6FF",
  "1G c #555555D1",
  "NK c #5583B6FF",
  "NJ c #5584B7FF",
  "N+ c #565656F5",
  "Ne c #5683B8F2",
  "%: c #5684BBFF",
  "1m c #575757D8",
  "1s c #5A5A5ADF",
  "Nx c #5A8EC6FF",
  "N3 c #5B83B4FF",
  "NO c #5C5C5CEF",
  "Nz c #5C8FC7FF",
  "N0 c #5D7BA0FF",
  "10 c #5E5E5EE5",
  "Nl c #5E91C7FF",
  "No c #5F5F5FE9",
  "12 c #5F5F5FEC",
  "NS c #606F84FF",
  "Nk c #6092C8FF",
  "Nc c #6193C8FF",
  "NX c #626262E2",
  "1+ c #626262F1",
  "Ns c #6395CBFF",
  "NC c #6491C3FF",
  "NB c #6492C3FF",
  "Nj c #6495CAFF",
  "<` c #656565F6",
  "N8 c #658BBAFF",
  "NV c #6592C3FF",
  "N' c #6597CCFF",
  "7h c #666666DB",
  "<E c #666666FB",
  "NM c #6794C4FF",
  "Nh c #6897CBFF",
  "Ng c #6898CBFF",
  "7g c #696969D3",
  "<L c #696969FD",
  "2c c #6999CDFF",
  "N7 c #6A7B91FF",
  "NY c #6A9ACDFF",
  "lI c #6B6B6B4A",
  "NN c #6B96C6FF",
  "NU c #6B9ACDFF",
  "7f c #6C6C6CC9",
  "2b c #6C9BCEFF",
  "<B c #6D6D6D0E",
  "<z c #6D6D6D15",
  "7d c #6D6D6DEC",
  "7s c #6E6E6EF1",
  "N9 c #6E95C4FC",
  "2r c #6E9CCEFF",
  "2t c #6E9CCFFF",
  "B! c #6F6F6F17",
  "7a c #6F6F6FF1",
  "<G c #6F6F6FFB",
  "7p c #70707072",
  "ND c #709DCEFF",
  "2i c #709ECFFF",
  "Na c #719FCFFF",
  "<p c #7272721D",
  "Nq c #7299C7FF",
  "h[ c #729ECFFF",
  "me c #737373F4",
  "<V c #737373F8",
  "Nw c #73A0D0FF",
  "7y c #7676766A",
  "23 c #76A2D1FF",
  "<6 c #777777FB",
  "2C c #77A2D1FF",
  "<t c #78787824",
  "Vo c #787878F7",
  "2A c #78A3D1FF",
  "<5 c #7A7A7AC1",
  "<x c #7A7A7AF5",
  "7u c #7A7A7AF8",
  "N> c #7A838EFF",
  "2D c #7BA5D3FF",
  "Ny c #7DA3CFFF",
  "y3 c #7DA7D3FF",
  "=< c #7E7E7EFF",
  "Nn c #7E8C9FFF",
  "y: c #7FA8D4FF",
  "<4 c #80808004",
  "<W c #80808006",
  "<y c #808080F5",
  "1c c #80A9D5FF",
  "<U c #818181F4",
  "N2 c #828D9BFF",
  "QC c #82AAD5FF",
  "t< c #858585FF",
  "1{ c #868686FF",
  "1u c #86ADD7FF",
  "20 c #878786FF",
  "-K c #878787FF",
  "N@ c #87898CFF",
  "-O c #888888FF",
  "N5 c #88A9D1FF",
  "-Y c #898989FF",
  "Ni c #89909AFF",
  "1' c #89AED8FF",
  "=6 c #89AFD7FF",
  "-v c #8A8A8AFF",
  "mV c #8B8B8BFF",
  ";* c #8C8C8CFF",
  "N= c #8C929BFF",
  "-i c #8D8D8DFF",
  "9M c #8E8E8EFF",
  "N4 c #8EB1DAFF",
  "-, c #8F8F8FFF",
  "1= c #8FB3D9FF",
  "2+ c #909090FF",
  "!/ c #919191F4",
  "pb c #919191FF",
  "1_ c #91B4DAFF",
  ",7 c #929292FF",
  "=L c #939393FF",
  "=v c #949494FF",
  "2v c #959595FF",
  "1l c #95B7DCFF",
  "2@ c #969696FF",
  "1( c #96B7DCFF",
  ",F c #979797FF",
  "2P c #989898FF",
  "2# c #999999FF",
  "1C c #99B9DDFF",
  ":^ c #9A9A9AFF",
  "<= c #9B9B9BFF",
  ",J c #9C9C9CFF",
  "2$ c #9D9D9DFF",
  "ZW c #9DBCDFFF",
  "7i c #9E9E9EFF",
  "<m c #9F9F9FFF",
  "5, c #A0A0A0FF",
  "W^ c #A0BEDFFF",
  "6} c #A1A1A1FF",
  "N< c #A1BCDCFF",
  ";I c #A2A2A2FF",
  "6| c #A3A3A3FF",
  "=C c #A4A4A4FF",
  "1M c #A5A5A4FF",
  "=W c #A5A5A5FF",
  "-6 c #A6A6A6FF",
  "-V c #A7A7A7FF",
  "<Q c #A8A8A8FF",
  "-` c #A9A9A9FF",
  ",C c #AAAAAAFF",
  "*W c #AAC3DFFF",
  "6' c #ABABABFF",
  "<b c #ACACACFF",
  "1q c #ADADACFF",
  "<v c #ADADADFF",
  ",Z c #AEAEAEFF",
  "<P c #B0B0AFFF",
  ">F c #B0B0B0FF",
  "t/ c #B0C9E5FF",
  ":& c #B1B1B1FF",
  "Q> c #B3B3B3FF",
  "1@ c #B6B6B5FF",
  "1> c #BDBDBDFF",
  "Gg c #BED1E8FF",
  "N; c #BED2E8FF",
  ";= c #BFBFBFFF",
  ";g c #C0C0C0FF",
  "1K c #C0D4EAFF",
  ";U c #C1C1C1FF",
  "<H c #C2C2C1FF",
  ":* c #C3C3C3FF",
  ":6 c #C4C4C4FF",
  "<c c #C5C5C4FF",
  ",2 c #CDCDCDFF",
  "   c none",
  
  // Image data
  "                                                                ",
  "                                                                ",
  "                                                                ",
  "  <4<5<6<6<6<6<6<6<6<6<6Vo7y                                    ",
  "  <t<y,2:6:*:*;U;U;g;g;g;=7uB!                                  ",
  "  <p<UQ><m7i2$,J<=:^2#2#:^!/7p                                  ",
  "  <z<x<c>F,Z<v<b6'-`-`<Q-`6|me7a7a7s7s7s7s7s7s7dlI              ",
  "  <B<V:&,J:^2#,F2@2@2v=v=v=v=L<m<b<v,Z,Z>F:&:&6|7f              ",
  "  <W<G<H<b,C-`-V-6=W=C6|;I;I;I;I;I;I6|=C=W-6-V2#7g              ",
  "    <L<P2P2@2@=v=Lpb2+-,-,9M9M9M9M-,-,2+pb,7=v-v7h              ",
  "    <E1><Q-6=C6|6}5,<m7i2$2$,J,J2$2$7i<m5,6};I2#NX              ",
  "    <`,C2v=Lpb2+9M9M;*mVmV-v-v-v-v-vmV;*-i9M-,-YNo              ",
  "    1+1@=W6|6}<m2$<=:^2#2P,F,F,F,F2P2P2#:^,J2$,FNO              ",
  "    12=W,72+9M-imV-Y-O-K1{1{t<t<t<1{1{-K-O-YmV-YN+              ",
  "    101q;I<m2$<=2#,F2@=v=L,7,7,7,7,7=L=v2v,F2P,FW*              ",
  "    1s<m-,9MN@N#N$N$N$N$N$N$N$N$N$N$N$N$N$N$N$N$N%N&N&N&N&N*    ",
  "    1m1M<m,JN=N-N;N;N;N;N;N;N;N;N;N;N;N;N;N;N;N;N;N;N;Gg*WN:    ",
  "    1G2P9MmVN>N,1K1(1(1(1(1(1(1(1(1(1(1(1(1(1(1(1(1(1(ZWN<N1    ",
  "    1E,J2$:^N2N3t/N4N4N4N4N4N4N4N4N4N4N4N4N4N4N4N4N41'1CN5N6    ",
  "    1}2+;*-YN7N8W^1u1u1u1u1u1u1u1u1u1u1u1u1u1u1u1u1c2D1lN9f5    ",
  "    2-pb2$2#N0Nq1_y:y:y:y:y:y:y:y:y:y:y:y:y:y:y323NwNw1=NeNr    ",
  "    2920;*-ONtNyQC2A2A2A2A2A2A2A2A2A2A2A2CNw2rNUNUNUNU=6Nu=K    ",
  "    2f-K2$NiNpQCNa2i2i2i2i2i2i2t2bNY2cN'NsNsNsNsNsNs2ch[Nd*o    ",
  "    2M=<-iNf%:NDNgNhNjNkNlNzNxNxNxNxNxNxNxNxNxNxNxNxNcNvNb      ",
  "    7E=<NnNmNMNNNMNBNBNBNBNBNBNBNBNBNBNBNBNBNBNBNBNVNCNZNA      ",
  "  +n7(NSNFNGNHNJNJNJNJNJNJNJNJNJNJNJNJNJNJNJNJNJNJNKNLNPNI%V    ",
  "  *`7'NTNRNENENENENENENENENENENENENENENENENENENENENWNQN!@$%V    ",
  "    =2N~7|8.8X8X8X8X8X8X8X8X8X8X8X8X8X8X8X8X8X8X8%N^,Trn+b      ",
  "      *TnB=2nBnBnBnBnBnBnBnBnBnBnBnBnBnBnBnBnBnBnB%A,D*T        ",
  "                                                                ",
  "                                                                ",
  "                                                                "
};
