/* XPM */
const char *xpm_tango_status_image_loading[] = {
  // Header (width height colors chars-per-pixel)
  "32 32 261 2",
  
  // Colors (code mode value)
  "+n c #00000001",
  "*T c #00000002",
  "*R c #00000006",
  "7t c #00000007",
  ",D c #00000008",
  ",q c #0000000C",
  "=2 c #0000000D",
  "[i c #0000000F",
  "@, c #00000014",
  "=$ c #00000015",
  "+v c #00000016",
  "`L c #00000018",
  "7e c #0000001B",
  "=@ c #0000001D",
  "WK c #00000022",
  "tS c #00000029",
  "7r c #00000030",
  ":s c #00000031",
  ",E c #0000003B",
  "=r c #00000040",
  ",R c #00000042",
  "=f c #00000046",
  "!$ c #00000047",
  ":g c #0000004A",
  "%J c #000000FF",
  "c> c #040404FF",
  "c. c #060606FF",
  "V/ c #080807FF",
  "J! c #090909FF",
  "V) c #151514FF",
  "VP c #292928FF",
  "C* c #313839FF",
  "V^ c #32383AFF",
  ":a c #33333381",
  ":y c #37373778",
  "}E c #383E40FF",
  "V( c #3B4142FF",
  "do c #3C4243FF",
  "dx c #3D4344FF",
  "V! c #3E4445FF",
  "}I c #3F4547FF",
  "CO c #424749FF",
  "VC c #43484AFF",
  "VU c #444A4BFF",
  "Co c #454A4CFF",
  "VL c #454B4CFF",
  "}Q c #464B4DFF",
  "(Z c #4A4E4FFF",
  "kv c #4B4B4BFF",
  ":- c #4C4C4CFF",
  ":+ c #4E4E4EFF",
  "&Q c #4F4F4FFF",
  "CX c #4F5355FF",
  ";] c #505050FF",
  "`w c #515151F1",
  "`U c #515151F2",
  "kx c #525252FF",
  "VD c #525658FF",
  "VJ c #525758FF",
  ";D c #535353FF",
  "V} c #535758FF",
  ":e c #545454FF",
  "6[ c #555555FF",
  "V_ c #555A5BFF",
  "`k c #565656F6",
  "6] c #565656FF",
  "`Y c #575757F7",
  ":F c #575757FF",
  "Il c #585858FF",
  "z~ c #585C5EFF",
  "C= c #585D5EFF",
  ">' c #595959FF",
  ":d c #5A5A5AFF",
  "5| c #5B5B5BFF",
  "5{ c #5C5C5CFF",
  "VR c #5C6061FF",
  "5[ c #5D5D5DFF",
  "C& c #5D6163FF",
  "6_ c #60606052",
  ">J c #606060FF",
  "VQ c #626667FF",
  "6` c #636363EF",
  "rr c #636363FF",
  ")w c #646464F2",
  ":4 c #646464FF",
  "VV c #646868FF",
  ">L c #666666FF",
  ":; c #686868FF",
  "lA c #686C6EFF",
  "Nv c #6A6A6AFF",
  "t> c #6B6B6AFF",
  ":@ c #6B6B6BFF",
  "t: c #6D6D6DFF",
  "VZ c #6D7171FF",
  "VF c #6D7273FF",
  "t1 c #6F6F6FFF",
  "VH c #6F7475FF",
  "6^ c #707070FF",
  "V~ c #727271FF",
  ";W c #727272FF",
  ",c c #737373FF",
  "}g c #747473FF",
  ",l c #767676FF",
  ",k c #777777FF",
  "C@ c #787D7CFF",
  "C# c #797E7DFF",
  ",h c #7A7A7AFF",
  "d^ c #7A7E7EFF",
  "VE c #7B8080FF",
  ",z c #7D7D7DFF",
  "mk c #808080FF",
  "V' c #808484FF",
  ";@ c #818181FF",
  "V[ c #818584FF",
  "t2 c #838383FF",
  "V{ c #838485FF",
  "-^ c #848484FF",
  "C% c #858788FF",
  "1{ c #868686FF",
  "-O c #888888FF",
  "C- c #888A8BFF",
  "-Y c #898989FF",
  "mV c #8B8B8BFF",
  ";* c #8C8C8CFF",
  "9M c #8E8E8EFF",
  "-, c #8F8F8FFF",
  "2+ c #909090FF",
  ",7 c #929292FF",
  "=L c #939393FF",
  "=& c #95959552",
  "VW c #959797FF",
  ")e c #969696EF",
  "2@ c #969696FF",
  "z` c #97999AFF",
  "1@ c #999999F2",
  "2# c #999999FF",
  ",J c #9C9C9CFF",
  "x< c #9C9E9EFF",
  "7i c #9E9E9EFF",
  "C$ c #AAABABFF",
  "6' c #ABABABFF",
  "VA c #ADAFB0FF",
  "') c #AEAFAFFF",
  "V` c #B1B2B3FF",
  "VS c #B6B7B7FF",
  "FZ c #B7B8B8FF",
  "5X c #B9B9B9FF",
  "&1 c #B9BABAFF",
  "BF c #BABAB8FF",
  "VK c #BBBCBCFF",
  "Km c #BBBDBAFF",
  "Bm c #BCBCBAFF",
  "Bz c #BDBDBCFF",
  "1> c #BDBDBDFF",
  "BR c #BEBEBCFF",
  ";= c #BFBFBFFF",
  "VI c #BFC1BDFF",
  "E& c #BFC2BEFF",
  ";Z c #C2C2C2FF",
  ":* c #C3C3C3FF",
  "VT c #C3C6C2FF",
  ":6 c #C4C4C4FF",
  ";Y c #C5C5C5FF",
  "Qj c #C6C6C6FF",
  "VG c #C6C8C5FF",
  ",1 c #C7C7C7FF",
  ">7 c #C7C9C6FF",
  ":7 c #C8C8C8FF",
  "eO c #C8CAC7FF",
  ">x c #C9C9C9FF",
  ",< c #CACACAFF",
  "C+ c #CACBCBFF",
  "4{ c #CACCC8FF",
  "+a c #CBCBCBFF",
  "#+ c #CCCCCCFF",
  ",2 c #CDCDCDFF",
  ";_ c #CECECEFF",
  "rP c #CED0CDFF",
  "+c c #CFCFCFFF",
  "t; c #CFD0CEFF",
  "4g c #D0D2CEFF",
  "+b c #D1D1D1FF",
  ",V c #D2D2D2FF",
  ",, c #D3D3D3FF",
  ",n c #D4D4D4FF",
  "R1 c #D4D5D3FF",
  ",N c #D6D6D6FF",
  "VY c #D6D7D7FF",
  ",M c #D7D7D7FF",
  ".r c #D7D9D5FF",
  ",B c #D8D8D8FF",
  "3j c #D8D9D7FF",
  ",b c #D9D9D9FF",
  ",_ c #DCDCDCFF",
  "=b c #DDDDDDFF",
  "=[ c #DEDEDEFF",
  "yZ c #DEDFDCFF",
  "={ c #DFDFDFFF",
  "fp c #DFE0DDFF",
  "*( c #E0E0E0FF",
  "%: c #E1E1DFFF",
  "+Z c #E1E1E1FF",
  "v; c #E2E2DFFF",
  "+A c #E2E2E2FF",
  "%e c #E3E3E1FF",
  "+S c #E3E3E3FF",
  "%- c #E4E4E2FF",
  "&I c #E4E4E4FF",
  "%h c #E5E5E3FF",
  ";3 c #E5E5E5FF",
  ";b c #E6E6E6FF",
  "%g c #E7E7E5FF",
  ";G c #E7E7E7FF",
  "%w c #E8E8E6FF",
  ":# c #E8E8E8FF",
  "$` c #E9E9E7FF",
  ":2 c #E9E9E9FF",
  "%q c #EAEAE8FF",
  ",% c #EAEAEAFF",
  "#p c #EBEBE9FF",
  ":, c #EBEBEBFF",
  "#A c #ECECEAFF",
  ":> c #ECECECFF",
  "#i c #EDEDEBFF",
  "ld c #EDEDECFF",
  ";h c #EDEDEDFF",
  "<O c #EEEEEBFF",
  "#& c #EEEEECFF",
  ":< c #EEEEEEFF",
  "#' c #EFEFEDFF",
  ";A c #EFEFEFFF",
  "#u c #F0F0EEFF",
  ";T c #F0F0F0FF",
  "#` c #F1F1EFFF",
  ";` c #F1F1F1FF",
  "$y c #F2F2EFFF",
  "#Z c #F2F2F0FF",
  ";' c #F2F2F2FF",
  ":O c #F3F3F3FF",
  "$< c #F4F4F2FF",
  ":3 c #F4F4F4FF",
  "#) c #F5F5F3FF",
  "-k c #F5F5F5FF",
  "$, c #F6F6F4FF",
  "@> c #F6F6F6FF",
  "$h c #F7F7F5FF",
  ":9 c #F7F7F7FF",
  "$~ c #F8F8F6FF",
  ";R c #F8F8F8FF",
  "[I c #F9F9F7FF",
  ":v c #F9F9F9FF",
  "V] c #FAFAF8FF",
  ":5 c #FAFAFAFF",
  ";Q c #FBFBFBFF",
  "C. c #FCFCFAFF",
  ";7 c #FCFCFCFF",
  "V| c #FDFDFBFF",
  "=q c #FDFDFDFF",
  ";f c #FEFEFEFF",
  "1U c #FFFFFFFF",
  "   c none",
  
  // Image data
  "                                                                ",
  "                                                                ",
  "        =&1@2#,J7i,J2#2@=L-,;*-O-^;@,z,h,l;Wt1:@:;:4)w6_        ",
  "        )e=q=q;f;f;f=q=q=q=q;7;7;7;Q;Q;Q:5:5:5:v:v:v;R6`        ",
  "        =L=q,_=b=[=[={={*(+Z+Z+Z+A+A+A+A+S+S+S+S+S+A;R5[        ",
  "        ,7;f=b;Z;Z:**(*(+Z;YQjQj+S+S+S&I&I&I&I&I&I+S;R5[        ",
  "        2+;f=[:*:*:6+Z+Z+AQj,1,1&I&I&I;3;3;3;3;3;3&I;R5{        ",
  "        9M=q={:*:6;Y+A+A+S,1,1,1;3;3;3;b;b;b;b;b;b;3;R5{        ",
  "        mV=q={:6;YQjQj,1,1,1:7:7;b;b;b,<,<,<;G;G;G;b;R5|        ",
  "        -Y=q*(;YQjQj,1Qjz`VVVC}E}QVZVA,<+a+a:#:#:#:#;R:d        ",
  "        1{=q+ZQjQj,1VSVDVFVGyZv;fp>7VHVJVK#+:2:2:2:2;R>'        ",
  "        t2=q+ZQj,1FZVLKm%e%-%hVP%g%g%gVIVUVY,2,2,2,%;RIl        ",
  "        mk;7+A,1,1z~E&%e%h%g%w%J$`%q%q$`VTVR;_;_;_:,;R:F        ",
  "        ,z;7+S,1x<d^%e%h%g$`%q%J#A#i#A#A#pVEVW;_;_:>;R6[        ",
  "        ,h;7+S,1VQ4{%h%g$`#p#i%J#'#'#'#'#&4gVV,%;h;h;R:e        ",
  "        ,k;Q&I:7V!%:%g$`#p#iV~%J}g#Z#Z#`#u#pdx+Z:<:<;Rkx        ",
  "        ,c;Q&I:7V^%h%w%q#i#'V/1Uc.#)#)$<#Z#uV^,B;A;A;R;]        ",
  "        6^;Q;3;b}I%e$`#A#&#`t>c>J!Bm$h$,#)ldV(5X,V;T:9:+        ",
  "        t:;Q;3;blArP%q#A#'#Z$<$hBFV)Bz$~$,.rV_1>,,;T:9:-        ",
  "        Nv:5;b;GV`V'%q#i#u#Z#)$~V]BRVPV]$hV[V{Qj,n;`:9kv        ",
  "        >L:5;b,<+aV}eO#i#u#Z#)$~V]V|C.V]t;CX>x:<:O;':9kv        ",
  "        rr:5;b,<+a&1Co>7#'#Z$<$h[IV]V]rPCO')=[:3:3:O:9kv        ",
  "        >J:v;b,<#+,2C+CXC@R1<O$<$y3jC#(ZC$,N:3-k-k:3:9kv        ",
  "        5[:v;b:#:2,%;_;ZC%C&dxC*doC=C-6';=,N:9@>-k:3:9kv        ",
  "        >':v;G:#:2,%;_;_,2=b+b+a,<,2,M;_,M,B;R:9@>-k:9kv        ",
  "        6];R;G:#:2,%;_;_+c;A;T;A;A;':3,N,B,b;R:9@>-k:9kv        ",
  "        ;D;R;b:#:2,%:,:>;h:<;T;`;':O:3-k@>:9:9@>-k:3:9kv        ",
  "        &Q;R;b:#:2,%:,:>;h:<;A;T;':O:3-k-k@>@>@>-k:3:9kv        ",
  "      =2`w:9@>@>@>:9:9:9:9:9:9:9:9:9:9:9:9:9:9:9:9:9:9`U`L7t    ",
  "    =2WK:y`k6]6]6]6]6]6]6]6]6]6]6]6]6]6]6]6]6]6]6]6]`Y:a:s7e*T  ",
  "    *R=@7r=r!$:g:g:g:g:g:g:g:g:g:g:g:g:g:g:g:g:g:g,R=f,EtS,q    ",
  "        7t[i=$+v+v+v+v+v+v+v+v+v+v+v+v+v+v+v+v+v+v@,[i,D+n      "
};
