/* XPM */
const char *xpm_tango_status_image_missing[] = {
  // Header (width height colors chars-per-pixel)
  "32 32 155 2",
  
  // Colors (code mode value)
  "+n c #00000001",
  "*_ c #00000003",
  "qz c #00000005",
  "%V c #0000000A",
  "=2 c #0000000D",
  "=# c #0000000E",
  "=$ c #00000015",
  "9b c #0000001E",
  "*' c #00000020",
  "1l c #00000024",
  ":W c #00000025",
  "er c #00000028",
  "CP c #17171722",
  "CH c #2B2B2B12",
  "1x c #60606008",
  "CL c #606060AF",
  "CG c #636363A2",
  "CJ c #646464A9",
  ":4 c #646464FF",
  "CA c #676767F4",
  "CK c #676767F5",
  "CS c #6868689A",
  "C: c #686868F3",
  "K) c #686868F5",
  "V` c #686868F6",
  ":; c #686868FF",
  "C; c #6969699E",
  "C> c #6B6B6B9E",
  ":@ c #6B6B6BFF",
  "C, c #6C6C6C93",
  ">( c #6C6C6CFF",
  "C1 c #6D6D6D93",
  "mT c #717171FF",
  "t4 c #747474FF",
  ">_ c #7C7C7CFF",
  "Gv c #909090F7",
  "C< c #939393F7",
  "CD c #9E9E9EF9",
  "CF c #A2A2A2F9",
  "-` c #A9A9A9FF",
  ",C c #AAAAAAFF",
  "<b c #ACACACFF",
  "<v c #ADADADFF",
  "tz c #AFAFAFFF",
  ">F c #B0B0B0FF",
  ":& c #B1B1B1FF",
  "<# c #B2B2B2FF",
  "Q> c #B3B3B3FF",
  ";8 c #B4B4B4FF",
  "6{ c #B5B5B5FF",
  ",S c #B7B7B7FF",
  ",G c #BABABAFF",
  "1> c #BDBDBDFF",
  ";= c #BFBFBFFF",
  ";Z c #C2C2C2FF",
  ":6 c #C4C4C4FF",
  "Qj c #C6C6C6FF",
  ",1 c #C7C7C7FF",
  "+a c #CBCBCBFF",
  "oG c #CC0000FF",
  "#+ c #CCCCCCFF",
  "Ca c #CD1D1DFF",
  "C5 c #CD2626FF",
  "C8 c #CD3232FF",
  "9# c #CE1313FF",
  "Cy c #CE1D1DFF",
  "5t c #CE1F1FFF",
  "Cs c #CE2424FF",
  "Ce c #CE2E2EFF",
  "C3 c #CE7B7BFF",
  "MN c #CF3838FF",
  "Cp c #CF4848FF",
  "C6 c #CF7474FF",
  "C7 c #CF9494FF",
  "C2 c #CF9696FF",
  "+c c #CFCFCFFF",
  "Cu c #D05C5CFF",
  "Cw c #D05E5EFF",
  "+v c #D0D0D0FF",
  "7$ c #D1C9C9FF",
  "+b c #D1D1D1FF",
  "Cg c #D25757FF",
  "Cd c #D27474FF",
  "C4 c #D2C0C0FF",
  "C9 c #D2C7C7FF",
  ",V c #D2D2D2FF",
  "CC c #D34B4BFF",
  "Cz c #D35252FF",
  "C0 c #D3BBBBFF",
  ",, c #D3D3D3FF",
  "CV c #D45959FF",
  "Cq c #D4D2D2FF",
  ",n c #D4D4D4FF",
  ",4 c #D54C4CFF",
  "Cc c #D55C5CFF",
  "Cx c #D56464FF",
  "Cr c #D5C7C7FF",
  "Ci c #D5CBCBFF",
  "Ct c #D5D3D3FF",
  ":o c #D5D5D5FF",
  "Cl c #D67878FF",
  "n{ c #D68F8FFF",
  ",N c #D6D6D6FF",
  "CB c #D76262FF",
  ",M c #D7D7D7FF",
  "]u c #D8D7D7FF",
  ",B c #D8D8D8FF",
  "Cj c #D9B0B0FF",
  ",b c #D9D9D9FF",
  "CM c #DAAFAFFF",
  "Cf c #DAD2D2FF",
  ",m c #DADADAFF",
  "Cb c #DB9696FF",
  "Ck c #DBABABFF",
  ",v c #DBDBDBFF",
  "Ch c #DCD5D5FF",
  ",_ c #DCDCDCFF",
  "Cn c #DDA7A7FF",
  "=b c #DDDDDDFF",
  "=[ c #DEDEDEFF",
  "Cm c #DFBBBBFF",
  "El c #DFD5D5FF",
  "={ c #DFDFDFFF",
  "Cv c #E0DDDDFF",
  "*( c #E0E0E0FF",
  "CN c #E1CCCCFF",
  "+Z c #E1E1E1FF",
  "+A c #E2E2E2FF",
  "+S c #E3E3E3FF",
  "Md c #E4D6D6FF",
  "&I c #E4E4E4FF",
  ";3 c #E5E5E5FF",
  ";b c #E6E6E6FF",
  ";G c #E7E7E7FF",
  "CZ c #E8E2E2FF",
  ":# c #E8E8E8FF",
  ":2 c #E9E9E9FF",
  ",% c #EAEAEAFF",
  ":, c #EBEBEBFF",
  ":> c #ECECECFF",
  ";h c #EDEDEDFF",
  ";A c #EFEFEFFF",
  ";` c #F1F1F1FF",
  ";' c #F2F2F2FF",
  ":O c #F3F3F3FF",
  ":3 c #F4F4F4FF",
  "-k c #F5F5F5FF",
  "@> c #F6F6F6FF",
  ":9 c #F7F7F7FF",
  ";R c #F8F8F8FF",
  ":v c #F9F9F9FF",
  ":5 c #FAFAFAFF",
  ";Q c #FBFBFBFF",
  ";7 c #FCFCFCFF",
  "   c none",
  
  // Image data
  "                                                                ",
  "                                                                ",
  "  1xC;C::4:4:4:4:4:4:4:4:4:4:4:4:4:4:4:4:4:4:4:4:4:4:4:4C:C>1x  ",
  "  C,Gv:#:9:v:v:v:v:v:v:v:v:v:v:v:v:v:v:v:v:v:v:v:v:v:v;R:,C<C1  ",
  "  C:;G;b,,+b+b+b+b+b,V,V,,,,,n,n,n:o:o,N,N,M,M,B,B,b,b,m:,,%C:  ",
  "  :4:9,,+b+b+b+b,V,V,,,,,,,n,n:o:o,N,N,M,M,B,B,B,b,b,m,m=b:v:4  ",
  "  :4:v+b+b+b,V,V,V,,,,,n,n:o:o,N,N,M,M,M,B,B,b,b,m,m,v,v,_:v:;  ",
  "  :4:v+b-`-`-`,C,C,C,C,C,C,C,C,C,C<b<b<vtz>F:&<#Q>;86{,S,_;R>(  ",
  "  :4:v,V-`+c+c+c+c+c+c+c+c+c+c+c+c+c+c+c+c+c+c+c+c+c+c,G=b:9mT  ",
  "  :4:v,,-`+c+c+c+c+c+c+c+c+c+c+c+c+v+v+v+v+v+c+c+c+c+c1>=[:9t4  ",
  "  :4:v,,,C+c+c+c+c+c+cC2C37$+b+b,V,VC4C5C6,V,V+b+b+v+v;Z={@>>_  ",
  "  :4:v,ntz+c+c+c+v+vC7oGoGC8C9,n,nC0oGoGoGCq,n,,,,,,,VQj={@>>_  ",
  "  :4:v:o<#+c+v+b,V,VCwoGoGoGCeCrCtCyoGoGCu,N,N,N:o:o,n+a*(@>>_  ",
  "  :4:v,N,S+v,V,V,,,nCiCpoGoGoGCaCsoGoGMN,b,B,B,B,M,M,N+c+Z@>>_  ",
  "  :4:v,M,G,V,,,n:o,N,M]uCdoGoGoGoGoGoGCf,v,m,m,m,b,b,B,,+A@>>_  ",
  "  :4:v,M;=,n:o,N,M,B,b,m,mn{oGoGoGoGCgCh=b=b,_,_,v,v,m,M+S:9>_  ",
  "  :4:v,B:6:o,N,M,b,m,v,vCjoGoGoGoGoGoG5tCk={=[=[=b=b,_,_+S:9>_  ",
  "  :4:v,b,1,N,B,b,m,v,_CloGoGoGCzCxoGoGoGoGCcCv*(={={=[*(&I:9>_  ",
  "  :4:5,m#+,B,b,m,v=boGoGoGoGCb+A+SCn9#oGoGoGCm+A+Z*(={&I;3:9>_  ",
  "  :4:5,m+c,b,m,v=bCMoGoGoGCN&I&I;3;bMd,4oGCB;3&I+S+A+Z:#;b:vt4  ",
  "  :4:5,v,n,m,v,_=[ElCVCC+S&I;3;b;G:#:#:#CZ;G;G;b;3&I+A;h;G:vt4  ",
  "  :4:5,_,B,m,_=b={*(+A+S&I;b;G:#:2,%,%,%,%:2:#;G;b;3&I;`;G:vt4  ",
  "  :4:5=b,_,v,_=[={+Z+A&I;3;G:#:2:,:>:>:>:>:,,%:2;G;b&I-k:#;Q>(  ",
  "  :4:5=[+Z+Z+S+S;3;b:#:2:,:>:>;A;A;`;':O:3-k-k:9@>@>-k@>:2;Q>(  ",
  "  :4:5=[={={*(*(+Z+Z+A+A+S+S+S&I&I;3;3;b;b;G;G:#:#:#:2:2,%;Q:@  ",
  "  :4:5={*(*(+Z+Z+A+A+A+S+S&I&I;3;3;b;b;b;G;G:#:#:2:2,%,%:,;7:4  ",
  "  :4:5*(*(+Z+Z+A+A+S+S&I&I;3;3;3;b;b;G;G:#:#:2:2,%,%,%:,:,;7:4  ",
  "  CA;`,%+Z+A+A+S+S&I&I&I;3;3;b;b;G;G:#:#:2:2:2,%,%:,:,:>;'-kK)%V",
  "  CSCD:O;Q;Q;Q;Q;Q;Q;Q;Q;Q;Q;7;7;7;7;7;7;7;7;7;7;7;7;7;7@>CFCG=#",
  "  CHCJCK:4:4:4:4:4:4:4:4:4:4:4:4:4:4:4:4:4:4:4:4:4:4:4:4V`CLCP*_",
  "    qz=$*':Werererererererererererererererererererer1l:W9b=2+n  ",
  "          *_*_*_*_*_*_*_*_*_*_*_*_*_*_*_*_*_*_*_*_*_*_+n        "
};
