/* XPM */
const char *xpm_tango_status_mail_attachment[] = {
  // Header (width height colors chars-per-pixel)
  "32 32 322 2",
  
  // Colors (code mode value)
  "+n c #00000001",
  "*T c #00000002",
  "*_ c #00000003",
  "*` c #00000004",
  "qz c #00000005",
  "*R c #00000006",
  "7t c #00000007",
  "%V c #0000000A",
  "+m c #0000000B",
  "=2 c #0000000D",
  "=# c #0000000E",
  "[i c #0000000F",
  "&Z c #00000011",
  "+b c #00000012",
  "%Z c #00000013",
  "+v c #00000016",
  "`L c #00000018",
  "%B c #0000001A",
  "`I c #0000001C",
  "9b c #0000001E",
  "*' c #00000020",
  "+g c #00000021",
  "WK c #00000022",
  "1l c #00000024",
  ":W c #00000025",
  "@$ c #00000026",
  "er c #00000028",
  "tS c #00000029",
  "=s c #0000002B",
  "eg c #0000002C",
  "a( c #0000002D",
  "=% c #0000002E",
  "7r c #00000030",
  ":s c #00000031",
  "Z` c #1E1E1E11",
  "A. c #47474453",
  "Z' c #52525232",
  "Z| c #787975A6",
  "Z] c #7D7F7A95",
  "@R c #80808002",
  "<W c #80808006",
  "r} c #80808008",
  "e_ c #8080800A",
  "t@ c #8080800C",
  "Z_ c #80827F87",
  "rj c #8092800E",
  "Z} c #828580D7",
  "Z[ c #858782D8",
  "Tj c #858F8519",
  "A- c #86868613",
  "Z{ c #868884F0",
  "rd c #868A863B",
  "t4 c #868B8639",
  "r1 c #868C8628",
  "'. c #868D8626",
  "rQ c #87878720",
  "r! c #87878722",
  "Zv c #87898468",
  "4- c #878984F0",
  "ZP c #87898575",
  "C/ c #87898577",
  "Z5 c #87898582",
  "Z* c #87898691",
  "CQ c #878A8455",
  "C) c #878A8562",
  "En c #878A8564",
  "C( c #878A85C2",
  "CU c #878A85D1",
  "ZA c #878A86A4",
  "R) c #878A8746",
  "Zo c #878A8748",
  "rV c #878B8342",
  "Uv c #878B8344",
  "Wb c #878B8451",
  "CW c #878B84A2",
  "Zc c #878B8586",
  "Zk c #878C8735",
  "R2 c #8888843C",
  "xj c #8888882F",
  "Z! c #888985A9",
  "Z$ c #888985B4",
  "ZT c #888985C1",
  "W6 c #888A8481",
  "Rz c #888A8485",
  "Ze c #888A8487",
  "Z8 c #888A848B",
  "Zg c #888A84B9",
  "Z& c #888A84E7",
  "Y' c #888A855E",
  "ZS c #888A856D",
  "R7 c #888A858E",
  "ZC c #888A8592",
  "Z1 c #888A8596",
  "Qy c #888A85A3",
  "ZN c #888A85A5",
  "ZF c #888A85AC",
  "Zu c #888A85B0",
  "ZX c #888A85C7",
  "ZD c #888A85C9",
  "ZB c #888A85CC",
  "R9 c #888A85CD",
  "R8 c #888A85DC",
  "Z, c #888A85DE",
  "ZU c #888A85E5",
  "CT c #888A85E8",
  "CY c #888A85EC",
  "ZY c #888A85EE",
  "]9 c #888A85F9",
  "Z4 c #888A86BB",
  "Z2 c #888A86D2",
  "Z9 c #888B844D",
  "2R c #888B8472",
  "EN c #888B84D0",
  "C[ c #888B855C",
  "CR c #888B85B8",
  "ZV c #888B85C5",
  "C' c #888B85FE",
  "r{ c #888C843E",
  "WI c #89898434",
  "r/ c #8989845B",
  "Y} c #89898541",
  "rD c #89898650",
  "Z~ c #89898652",
  "Yq c #89898654",
  "eI c #8989865F",
  "Y| c #89898661",
  "uX c #8989891C",
  "Zr c #898A84B5",
  "CE c #898A84B7",
  "ZI c #898A8599",
  "Zf c #898A85C4",
  "ZH c #898A85C6",
  "Zb c #898A85D3",
  "W$ c #898A86A8",
  "EI c #898B846E",
  "Zm c #898B8470",
  "Z# c #898B8588",
  "CI c #898B858A",
  "Za c #898B86E0",
  "Zt c #898B86E1",
  "Z@ c #898B86E7",
  "ZR c #898B86EA",
  "Zl c #898B86EF",
  "T/ c #898B86FB",
  "Z^ c #898B86FE",
  "Zx c #898B87E9",
  "Zw c #898C86E8",
  "Zn c #8A8A8325",
  "YE c #8A8A8530",
  "Qc c #8A8A8532",
  "ZQ c #8A8A864C",
  "Z- c #8A8B86E4",
  "s, c #8A8C87F7",
  "5@ c #8A8C87FF",
  "C! c #8A8C88F0",
  "Z6 c #8A8D87EA",
  "T] c #8B8D88F8",
  "=H c #8B8D88FF",
  "C| c #8C8E89F7",
  "cQ c #8C8E89F9",
  "Zs c #8C8E89FA",
  "A{ c #8D8F8AF8",
  "Zz c #8D8F8AF9",
  "Z) c #8D8F8AFC",
  "3V c #8D8F8AFF",
  "ZG c #8D8F8BFC",
  "T[ c #8E8E8012",
  "r# c #8E8E8E09",
  "S` c #8E908BF9",
  "C} c #8E908BFA",
  "ZW c #8E908CFE",
  "Zq c #8F8F8010",
  "ZL c #8F908CFC",
  "ZE c #8F908CFF",
  "E8 c #8F918CFA",
  "t. c #8F918CFE",
  "Zi c #8F918DFC",
  "Z> c #8F928CFB",
  "Z: c #8F928DFC",
  "]; c #90918DFF",
  "]q c #90928CFF",
  "Zd c #90928DFB",
  "Zy c #91938EFC",
  "d] c #91938FFF",
  "<G c #92929207",
  "C^ c #92948FFE",
  "3> c #92948FFF",
  "C_ c #93948FFE",
  "ka c #939490FF",
  ">2 c #939590FF",
  "jC c #949591FF",
  "5h c #949692FF",
  ".` c #959793FF",
  "Z; c #979893FF",
  "Zp c #989995FF",
  "=G c #989A95FF",
  "Z( c #989A96FF",
  ":N c #989B95FF",
  "rZ c #99999905",
  "1] c #999A96FF",
  "'C c #999B96FF",
  "1c c #999B97FF",
  "kp c #9A9B97FF",
  "]: c #9A9C97FF",
  "2p c #9B9C98FF",
  "KR c #9B9C99FF",
  "Ws c #9B9D98FF",
  "fK c #9B9E98FF",
  "By c #9C9D9AFF",
  "'K c #9C9E99FF",
  ":g c #9C9E9AFF",
  ":i c #9D9F9BFF",
  "hO c #9E9F9BFF",
  "5w c #9E9F9CFF",
  "=1 c #9EA09DFF",
  "Z0 c #9FA19CFF",
  "*{ c #9FA19EFF",
  "<g c #A0A19FFF",
  "r| c #A1A29FFF",
  "31 c #A2A3A0FF",
  "gH c #A2A4A0FF",
  "<S c #A3A4A2FF",
  "(* c #A5A6A4FF",
  "ZM c #A5A7A3FF",
  "1< c #A6A7A4FF",
  "<U c #A6A7A5FF",
  "L` c #A7A8A5FF",
  "fY c #A8AAA5FF",
  "QG c #A8ABA5FF",
  "cW c #AAAAAA03",
  "4Q c #AAABA8FF",
  "(b c #AAABA9FF",
  "jz c #AAACA8FF",
  "ZO c #AAADA8FF",
  "(s c #ABACAAFF",
  "C] c #ABADA7FF",
  "], c #ABAEA8FF",
  ",) c #ACACAAFF",
  "qV c #ACADABFF",
  "1q c #ADADACFF",
  "Kt c #ADAEAAFF",
  "2t c #AEAFACFF",
  ",B c #AEB0ACFF",
  ")q c #AFB1AEFF",
  "Z< c #AFB2AEFF",
  "jl c #B0B1AEFF",
  "yA c #B1B1B0FF",
  "<+ c #B1B2B0FF",
  "(& c #B1B4ADFF",
  "3w c #B2B2B1FF",
  "ZJ c #B2B3B2FF",
  "4U c #B3B3B2FF",
  "<{ c #B3B4B1FF",
  "<# c #B3B4B2FF",
  "yf c #B3B4B3FF",
  ";8 c #B4B4B4FF",
  "Z+ c #B5B8B2FF",
  "ZK c #B6B7B6FF",
  "Z7 c #B6B8B3FF",
  "Z% c #B6B9B4FF",
  "B; c #B7B7B6FF",
  ",S c #B7B7B7FF",
  "q* c #B7B8B7FF",
  "t< c #B8B9B6FF",
  "B8 c #B8B9B8FF",
  "5X c #B9B9B9FF",
  "KV c #B9BDB6FF",
  "Z/ c #BABAB9FF",
  ",G c #BABABAFF",
  "j6 c #BABBBAFF",
  "C` c #BABDB7FF",
  "kt c #BBBBBAFF",
  "|; c #BBBCBAFF",
  "Bz c #BDBDBCFF",
  "_p c #BEC0BBFF",
  "yH c #BFBFBEFF",
  "rK c #BFC0BDFF",
  "ZZ c #C1C1C0FF",
  "|= c #C1C2C0FF",
  "Z3 c #C2C3BFFF",
  "]% c #C2C4C0FF",
  "C~ c #C2C7BFFF",
  "|* c #C3C4C2FF",
  ":6 c #C4C4C4FF",
  ">g c #C4C6C3FF",
  ":7 c #C8C8C8FF",
  "$! c #C9C9C8FF",
  "on c #C9CCC5FF",
  "r% c #CACEC6FF",
  "3; c #CBCBCAFF",
  "e[ c #CBCFC8FF",
  "]p c #CBD0C8FF",
  "B< c #CCCDCCFF",
  ",2 c #CDCDCDFF",
  "Zj c #CDCECCFF",
  ";_ c #CECECEFF",
  ".y c #CECFCBFF",
  "Z. c #CED0C9FF",
  "Z= c #CED0CCFF",
  "yM c #CFCFCEFF",
  "Zh c #CFD0CFFF",
  "}G c #CFD1CDFF",
  "yF c #D2D4CFFF",
  "o0 c #D2D5D0FF",
  "C{ c #D3D6D0FF",
  "r* c #D4D4D3FF",
  ",M c #D7D7D7FF",
  "}m c #D9DAD7FF",
  "BC c #D9DAD8FF",
  "3t c #DADCD9FF",
  "t5 c #DBDBDAFF",
  ",v c #DBDBDBFF",
  "lw c #DCDCDBFF",
  "cZ c #DCDFD9FF",
  "|2 c #E0E1DEFF",
  "Xv c #E1E3E0FF",
  "&3 c #E3E3E2FF",
  "#* c #E5E5E4FF",
  ";3 c #E5E5E5FF",
  "&. c #E7E7E6FF",
  "3N c #FFFFFF01",
  "   c none",
  
  // Image data
  "                                                                ",
  "                                                                ",
  "                                                                ",
  "                                    TjCICUCYCTCRR)              ",
  "                        rQCECWe_  CQC!],C~]pe[KVC^C/            ",
  "                      3NC((&fKrDC)C_r%C`:NC'3VC]ont.r{          ",
  "                      C['CC{C}UvC|Z.fYZXZo<GuXCEZOZ+CW          ",
  "                    rjZ@.yQGZ#Z$Z%_pENe_      rQ]qo0Z&          ",
  "                    Z*KtZ=Z-r/Z;3tZ:WI        <W5@cZ]9          ",
  "                  xjZ>|2]:eIZ,}GZ<Z1          R2=GyFZ2          ",
  "                3NC(>gZ3Z4Z5jz}mZ6A-        3NC(]%Z7Z8          ",
  "                eIhO&.S`Z9A{#*Z0En          C[:gXvE8r!          ",
  "              ZqZwlw2tZeZr|*3;ZX3NcWY}T[  rjZ@BC,BZ#            ",
  "              Z*jlr*ZtC[1c;3ZyQc  Zu'KR8@RZ*<{t5Z-t@            ",
  "            YEZi,vZpY'ZayM)qZ1  Wb1]&3ZsrdZd;3WsCQ              ",
  "          3NZf|;t<ZgW6L`ZhZ6Zqe_ZtZj2tZ1C(|=rKZ4                ",
  "          eI1c,2A{ZkZlyM2pY|  Rz1<B<Z6EIkp,MZzr1                ",
  "        r#Zx:7r|ZcZvgHBzZb3NZnA{;_1cZmZ@$!ZMZe                  ",
  "        eIKRktZ@e_ZN<#*{En<WZB<+<#ZVZC1<ZZZtt@                  ",
  "        ZA,):iZS  ZDB;.`Z9ZF:iyHcQeIZG:65hYq                    ",
  "        EN;83>xj  W$(b=1=H31j6>2EIZfqV4QZg                      ",
  "        ZHZJjCt4  Yq];ZK,G1qZLZPeI5h5XT]'.                      ",
  "        R7(*r|ZI    2RZUZYZTr{ZqZR4UKRZc                        ",
  "        WIZEB;ZWZP3N          Qy5wyAZte_                        ",
  "          W$By,S.`R9ZQr}r}rVZ!kaB8d]Z~                          ",
  "          e_ZT1cq*(sjCT/Z^ka<UZ/Z(Qy                            ",
  "            rZZ5s,<gyfB8B83w<SZ)Z_Z`=#=2+m%V7tqz*T              ",
  "        *`%V=#+bZ'Z]Z[4-Z{Z}Z|A.:s7r=%=ser1l*'`I`L%Z[i+m*R*T    ",
  "          *T*R+m&Z`L9b+g:Wer=sega(a(=stS@$WK9b%B+v+b=27t*_      ",
  "                      +n+n*T*T*_*_*`*_*_*T+n+n                  ",
  "                                                                ",
  "                                                                "
};
