/* XPM */
const char *xpm_tango_status_network_transmit[] = {
  // Header (width height colors chars-per-pixel)
  "32 32 272 2",
  
  // Colors (code mode value)
  "*T c #00000002",
  "*` c #00000004",
  "*R c #00000006",
  ",D c #00000008",
  "%V c #0000000A",
  "=# c #0000000E",
  "%A c #00000010",
  "@, c #00000014",
  "[~ c #00000017",
  "$^ c #00000019",
  "7e c #0000001B",
  "=@ c #0000001D",
  "=k c #0000001F",
  "+g c #00000021",
  "=e c #00000023",
  "er c #00000028",
  "A+ c #36487882",
  "A@ c #364878A3",
  ".- c #364878FF",
  "F: c #364E9382",
  "F, c #364F96A3",
  "F> c #3752A1FF",
  "G. c #3F5C9DFF",
  "Ah c #445C8AFF",
  "AN c #47608CFF",
  "AM c #47608DFF",
  "Ag c #49618DFF",
  "AH c #496390FF",
  "AG c #4A6390FF",
  "Fz c #4B6FB4FF",
  "AL c #4C6692FF",
  "AP c #4C6693FF",
  "AK c #4C6793FF",
  "AF c #4E6793FF",
  "AT c #4E6996FF",
  "AY c #4E6A96FF",
  "US c #4F6995FF",
  "AR c #4F6A96FF",
  "A/ c #506D99FF",
  "FB c #5074B5FF",
  "FN c #5074B6FF",
  "Am c #516793FF",
  "A! c #516D98FF",
  "A~ c #516D99FF",
  "A^ c #516E99FF",
  "S| c #52535144",
  "Fl c #5276B6FF",
  "FG c #5379B9FF",
  "FF c #5478B9FF",
  "Af c #566B95FF",
  "FK c #577DBBFF",
  "FL c #577DBDFF",
  "FJ c #577EBDFF",
  "Aw c #5A6E96FF",
  "FD c #5A7EBBFF",
  "FY c #5A81BFFF",
  "F} c #5A83BEFF",
  "FI c #5A83BFFF",
  "Fo c #5B5D5967",
  "FU c #5C81BDFF",
  "FT c #5C82BFFF",
  ")j c #5D84BDFF",
  "F~ c #5D87C2FF",
  "FM c #5E7EBBFF",
  "FW c #5E87C1FF",
  "FQ c #5E87C2FF",
  "F! c #5E88C2FF",
  "Du c #64666245",
  "Fk c #6684BDFF",
  "F{ c #678DC3FF",
  "D3 c #68686801",
  "A_ c #686A6778",
  "A, c #68799EFF",
  "AX c #6A6B6756",
  "D[ c #6A6C6841",
  "AJ c #6B757FFF",
  "Aq c #6B7DA1FF",
  "A> c #6C7DA0FF",
  "A0 c #6C7EA2FF",
  "Fp c #6C88BDFF",
  "A: c #6E7EA1FF",
  "A9 c #6E80A3FF",
  "Ad c #6E81A4FF",
  "D4 c #6F716D3E",
  "A; c #6F80A2FF",
  "A8 c #6F80A3FF",
  "^1 c #7081A3FF",
  "As c #7081A5FF",
  "Aa c #7082A5FF",
  "An c #7082A6FF",
  "Ab c #7084A6FF",
  "AD c #7085A8FF",
  "A- c #7181A4FF",
  "A7 c #7182A4FF",
  "A6 c #7182A5FF",
  "A= c #7283A4FF",
  "A5 c #7283A6FF",
  "Ap c #7284A6FF",
  "Ai c #7285A6FF",
  "Av c #7285A7FF",
  "AS c #7285A8FF",
  "Au c #7386A7FF",
  "Ac c #7386A8FF",
  "AA c #7387A9FF",
  "F| c #7387B5FF",
  "F' c #7393C5FF",
  "F+ c #74767192",
  "A* c #7484A5FF",
  "A4 c #7485A7FF",
  "Ax c #7487A8FF",
  "D{ c #7577723B",
  "A& c #7584A6FF",
  "A3 c #7585A7FF",
  "A2 c #7586A7FF",
  "Ay c #7586A8FF",
  "Az c #7587A9FF",
  "AZ c #7588AAFF",
  "AC c #7589ABFF",
  "A% c #7685A7FF",
  "At c #7688A9FF",
  "Al c #7688AAFF",
  "FX c #787A7570",
  "Ao c #787A76AD",
  "Dl c #7B7D7965",
  "F. c #7E807BC6",
  "D} c #7F817C78",
  "D- c #7F817CB3",
  "D| c #7F817DB7",
  "F9 c #7F95C4FF",
  "5g c #82847FFF",
  "D` c #83858081",
  "WX c #838580FF",
  "Fi c #839BC8FF",
  "Fu c #849CC9FF",
  "F8 c #859BC6FF",
  "D' c #86888399",
  "DH c #868883BF",
  "So c #878984CF",
  "D] c #878984D9",
  "S4 c #878984E7",
  "F7 c #879DC8FF",
  "Fy c #879FCAFF",
  "Fj c #87A0CBFF",
  "SO c #888A8534",
  "eB c #888A85FF",
  "F6 c #889FC9FF",
  "E> c #898C86FF",
  "Fh c #89A0CCFF",
  "Fg c #89A1CCFF",
  "Fm c #89A1CDFF",
  "Fn c #89A4CDFF",
  "FS c #89A6D0FF",
  "F5 c #8AA1CAFF",
  "F4 c #8BA0CBFF",
  "Fr c #8BA1CCFF",
  "Ft c #8BA2CBFF",
  "F3 c #8CA3CBFF",
  "Fe c #8CA3CDFF",
  "Ff c #8CA4CDFF",
  "Fb c #8CA5CEFF",
  "FA c #8CA5CFFF",
  ")G c #8CA6CDFF",
  "Fd c #8EA7CEFF",
  "Fv c #8EA7CFFF",
  "FZ c #8EA8D0FF",
  "F` c #8EA8D1FF",
  "F2 c #8FA4CCFF",
  "Fw c #8FA6CEFF",
  "Fc c #8FA8CFFF",
  "F_ c #8FA9D2FF",
  "F[ c #8FACD3FF",
  "Fs c #90A7CFFF",
  ")C c #90A8CFFF",
  "FV c #90AAD2FF",
  "F) c #90ACD3FF",
  "F1 c #91A4CDFF",
  "Fq c #91A6CEFF",
  "F0 c #91A7CEFF",
  "FC c #91A9D1FF",
  "F( c #91ADD3FF",
  "F< c #92A5CEFF",
  "Fa c #92A9D0FF",
  "GX c #92A9D1FF",
  "F] c #93ACD5FF",
  ".` c #959793FF",
  "Vl c #969695FF",
  ";I c #A2A2A2FF",
  "<: c #A4A4A3FF",
  "Bh c #A4A5A3FF",
  "-6 c #A6A6A6FF",
  "*q c #A9A9A8FF",
  "-` c #A9A9A9FF",
  "Dz c #A9AAA9FF",
  "q0 c #AAAAA9FF",
  "v{ c #ACACABFF",
  "1q c #ADADACFF",
  "j9 c #B0B1AFFF",
  "Kr c #B6B7B3FF",
  "C` c #BABDB7FF",
  "D= c #BCBDB9FF",
  "'@ c #BCBEB9FF",
  "Bv c #BDBDBBFF",
  "*! c #C0C0BFFF",
  "Fx c #C0C2C2FF",
  "yE c #C2C4BFFF",
  "D% c #C3C4C0FF",
  "Aj c #C6C7C4F8",
  "A( c #C6C7C4FF",
  "A< c #C6C7C5F6",
  ",1 c #C7C7C7FF",
  "3s c #C7C8C6FB",
  "rA c #C7C8C6FF",
  "AQ c #C8CCCDFF",
  "A) c #C9CCC7FD",
  "3; c #CBCBCAFF",
  "D* c #CBCCC8FF",
  "3k c #CCCCCAFF",
  "5y c #CDCDCCFF",
  "da c #D2D3D0FF",
  "R< c #D2D4D1FF",
  "r[ c #D3D4D1FF",
  "C{ c #D3D6D0FF",
  "r* c #D4D4D3FF",
  "A# c #D4D5D3E9",
  "AU c #D5D7DAFF",
  "Ae c #D6D6D5F0",
  "AB c #D6D8D5F4",
  "Bp c #D7D8D6FF",
  "AI c #D9DAD8FA",
  "BC c #D9DAD8FF",
  "AE c #DADBD9FE",
  "cj c #DADDD8FF",
  "S/ c #DBDBD9FD",
  "D& c #DCDDDBFF",
  "T; c #DCDEDBFF",
  "dP c #DDDDDCE5",
  "kl c #DDE0DBFF",
  "A$ c #DEDEDDE9",
  "Ar c #DEDEDDF0",
  "Ak c #DEDFDDF2",
  "Te c #DFDFDCFF",
  "AV c #DFE0DEF5",
  "A1 c #DFE0DFED",
  "KN c #DFE1DEFF",
  "AO c #E0E0E0ED",
  "|2 c #E0E1DEFF",
  "S+ c #E0E1DFF7",
  "TI c #E0E1DFFF",
  "xx c #E0E3DEFF",
  "%: c #E1E1DFFF",
  "6D c #E1E1E0FF",
  "eE c #E1E2E1FF",
  "S5 c #E1E3E0FB",
  "Sd c #E2E3E1FE",
  "}g c #E2E3E1FF",
  "hJ c #E2E3E2FF",
  "FO c #E2E4E2FF",
  "&3 c #E3E3E2FF",
  "|h c #E3E4E1FF",
  "5r c #E3E4E2FF",
  ":w c #E3E5E1FF",
  "%- c #E4E4E2FF",
  "|3 c #E4E5E2FF",
  "}6 c #E5E5E2FF",
  "|. c #E5E6E3FF",
  "3: c #E5E6E4FF",
  ",@ c #E5E7E4FF",
  "55 c #E5E7E5FF",
  ":F c #E6E7E4FF",
  ":T c #E6E8E5FF",
  ";t c #EDEEEDFF",
  "   c none",
  
  // Image data
  "                                                                ",
  "                      AX5g5g5g5g5g5g5g5g5g5g5g5g5g5g5g5gAo      ",
  "                      5g%-dadadadadadadadadadadadadadaAO5g      ",
  "                      5gdPA+.-.-.-.-.-.-.-.-.-.-.-A@cjA#5g      ",
  "                      5gA$.-A%A&A*A=A-^1A;A:A>A>A,.-yEA<5g      ",
  "                      5gA1.-A2A3A4A5A6A7A8A9A0AqAw.-:wAe5g      ",
  "                      5gAr.-AtAyAuAiApAaAsAdAfAgAh.-yEAj5g      ",
  "                      5gAk.-AlAzAxAcAvAbAnAmAMAMAN.-:wAB5g      ",
  "                      5gAV.-ACAZAAAAASADAFAGAHAGAH.-'@3s5g      ",
  "    AX5g5g5g5g5g5g5g5g5g5g5g5g5g5g5g5gAJAKALALAKAP.-:wAI5g      ",
  "    5g%-dadadadadadadadadadadadadadaAU5gAYUSAYATAR.-:wAE5g      ",
  "    5gdPF:F>F>F>F>F>F>F>F>F>F>F>G.cjAQ5gA!A~A^A!A/.-:wT;5g      ",
  "    5gA$F>F<F1F2F3F4F5F6F7F8F8F9F>yEFx5g.-.-.-.-.-A@klTe5g      ",
  "    5gA1F>F0FqFwFeFrFtF6FyFuFiFpF>:wr*5gC`klxxxxxxxxC{|25g      ",
  "    5gArF>FaFsFd)GFfFgFhFjFkFlFzF>yEA(5g}6|3|35r&3hJhJA)5g      ",
  "    5gAkF>GX)CFcFvFbFnFmFMFNFNFBF>:wR<5gE>E>E>E>E>E>E>WXA_      ",
  "    5gAVF>FVFCFZFZFAFSFDFFFGFFFGF>'@rA5gD*D%D=KrD-5gD`D'D]SoSO  ",
  "    5gS+F>F(F)F_F`F')jFJFKFKFJFLF>:wBp5geBeBeBeBeBeBeBD[D{D}S4  ",
  "    5gS5F>F]F(F[F{FTF}FIFUFIFYFTF>:wBC5gv{v{1q;I,1*!VleBD|F.FX*R",
  "    5gSdF>F!FQFWFQFQFQFWFQF!FWF~F>:wT;5gq0q03;*q*q5yBh-6.`Fo=e@,",
  "    5g3:F,F>F>F>F>F>F>F>F>F>F>F>F|klTe5g%:%:hJKNKNeE3:FO}geBer[~",
  "    5g:FC{:w:w:wxxC`C`C`klxxxxxxxxC{|25geBeBeBeBeBeBeBeBeBF+=k=#",
  "    5gS/:T55,@,@3:3:|.}6|3|35r&3hJhJA)5g7e=@=k=k=k+g=k=k7e@,%V*T",
  "    S|5g5g5g5g5g5g5g5gE>E>E>E>E>E>E>WXA_                        ",
  "      *T*`5gD%r[D&D&r[D*D%D=KrD-5gD`D'D]SoSO                    ",
  "  D3*RD4eBeBeBeBeBeBeBeBeBeBeBeBeBeBD[D{D}S4                    ",
  "  *RDueB;Ij93kv{v{v{v{v{v{1q;I,1*!VleBD|F.FX*R                  ",
  "  DleB<:rABv-`DzDzq0q0q0q03;*q*q5yBh-6.`Fo=e@,                  ",
  "  eB;t6D|h%:%:TI%:%:%:%:%:hJKNKNeE3:FO}geBer[~                  ",
  "  DHeBeBeBeBeBeBeBeBeBeBeBeBeBeBeBeBeBeBF+=k=#                  ",
  "  *T,D%A@,$^$^$^7e7e7e7e=@=k=k=k+g=k=k7e@,%V*T                  ",
  "                                                                "
};
