/* XPM */
const char *xpm_tango_status_network_offline[] = {
  // Header (width height colors chars-per-pixel)
  "32 32 222 2",
  
  // Colors (code mode value)
  "*T c #00000002",
  "*` c #00000004",
  "*R c #00000006",
  ",D c #00000008",
  "%A c #00000010",
  "@, c #00000014",
  "$^ c #00000019",
  "7e c #0000001B",
  "=@ c #0000001D",
  "=k c #0000001F",
  "+g c #00000021",
  "A+ c #36487882",
  "A@ c #364878A3",
  ".- c #364878FF",
  "AW c #3F5583FF",
  "Ah c #445C8AFF",
  "AN c #47608CFF",
  "AM c #47608DFF",
  "Ag c #49618DFF",
  "AH c #496390FF",
  "AG c #4A6390FF",
  "AL c #4C6692FF",
  "AP c #4C6693FF",
  "AK c #4C6793FF",
  "AF c #4E6793FF",
  "AT c #4E6996FF",
  "S9 c #4E6A95FF",
  "AY c #4E6A96FF",
  "US c #4F6995FF",
  "AR c #4F6A96FF",
  "S* c #506B95FF",
  "A/ c #506D99FF",
  "Am c #516793FF",
  "A! c #516D98FF",
  "A~ c #516D99FF",
  "A^ c #516E99FF",
  "S| c #52535144",
  "Af c #566B95FF",
  "S8 c #57729BFF",
  "Aw c #5A6E96FF",
  "S& c #5F779EFF",
  "Du c #64666245",
  "D3 c #68686801",
  "A_ c #686A6778",
  "A, c #68799EFF",
  "AX c #6A6B6756",
  "D[ c #6A6C6841",
  "AJ c #6B757FFF",
  "Aq c #6B7DA1FF",
  "A> c #6C7DA0FF",
  "A0 c #6C7EA2FF",
  "A: c #6E7EA1FF",
  "A9 c #6E80A3FF",
  "Ad c #6E81A4FF",
  "D4 c #6F716D3E",
  "A; c #6F80A2FF",
  "A8 c #6F80A3FF",
  "^1 c #7081A3FF",
  "As c #7081A5FF",
  "Aa c #7082A5FF",
  "An c #7082A6FF",
  "Ab c #7084A6FF",
  "AD c #7085A8FF",
  "A- c #7181A4FF",
  "A7 c #7182A4FF",
  "A6 c #7182A5FF",
  "A= c #7283A4FF",
  "A5 c #7283A6FF",
  "Ap c #7284A6FF",
  "Ai c #7285A6FF",
  "Av c #7285A7FF",
  "AS c #7285A8FF",
  "SM c #737F9DFF",
  "Au c #7386A7FF",
  "Ac c #7386A8FF",
  "AA c #7387A9FF",
  "S% c #7387AAFF",
  "A* c #7484A5FF",
  "A4 c #7485A7FF",
  "Ax c #7487A8FF",
  "S$ c #7488ABFF",
  "S7 c #748AACFF",
  "D{ c #7577723B",
  "A& c #7584A6FF",
  "A3 c #7585A7FF",
  "A2 c #7586A7FF",
  "Ay c #7586A8FF",
  "Az c #7587A9FF",
  "AZ c #7588AAFF",
  "AC c #7589ABFF",
  "S# c #758AACFF",
  "A% c #7685A7FF",
  "At c #7688A9FF",
  "Al c #7688AAFF",
  "S@ c #768BACFF",
  "S6 c #778BAEFF",
  "Ao c #787A76AD",
  "Dl c #7B7D7965",
  "D} c #7F817C78",
  "D- c #7F817CB3",
  "5g c #82847FFF",
  "D` c #83858081",
  "WX c #838580FF",
  "D' c #86888399",
  "DH c #868883BF",
  "So c #878984CF",
  "D] c #878984D9",
  "S4 c #878984E7",
  "SO c #888A8534",
  "eB c #888A85FF",
  "E> c #898C86FF",
  "F& c #8E000024",
  "Vl c #969695FF",
  "F# c #9F1918FF",
  "F; c #A10000CD",
  "F% c #A10B0BE4",
  ";I c #A2A2A2FF",
  "F- c #A30000CA",
  "R7 c #A40000FF",
  "F$ c #A40100FE",
  "}M c #A40101FF",
  "<: c #A4A4A3FF",
  "Bh c #A4A5A3FF",
  "o] c #A500001F",
  "oe c #A50000FC",
  "hh c #A50202FF",
  "o' c #A60000CE",
  "o) c #A70000C6",
  "*q c #A9A9A8FF",
  "-` c #A9A9A9FF",
  "Dz c #A9AAA9FF",
  "q0 c #AAAAA9FF",
  "v{ c #ACACABFF",
  "1q c #ADADACFF",
  "j9 c #B0B1AFFF",
  "F* c #B23130FF",
  "Kr c #B6B7B3FF",
  "C` c #BABDB7FF",
  "D= c #BCBDB9FF",
  "'@ c #BCBEB9FF",
  "Bv c #BDBDBBFF",
  "*! c #C0C0BFFF",
  "Fx c #C0C2C2FF",
  "yE c #C2C4BFFF",
  "D% c #C3C4C0FF",
  "Aj c #C6C7C4F8",
  "A( c #C6C7C4FF",
  "A< c #C6C7C5F6",
  ",1 c #C7C7C7FF",
  "3s c #C7C8C6FB",
  "rA c #C7C8C6FF",
  "F= c #C83232FF",
  "AQ c #C8CCCDFF",
  "o( c #C93232FD",
  "A) c #C9CCC7FD",
  "3; c #CBCBCAFF",
  "D* c #CBCCC8FF",
  "oG c #CC0000FF",
  "3k c #CCCCCAFF",
  "ot c #CD0404FF",
  "ow c #CD0505FF",
  "5y c #CDCDCCFF",
  "F@ c #D2BFBDFF",
  "da c #D2D3D0FF",
  "R< c #D2D4D1FF",
  "r[ c #D3D4D1FF",
  "C{ c #D3D6D0FF",
  "r* c #D4D4D3FF",
  "A# c #D4D5D3E9",
  "AU c #D5D7DAFF",
  "od c #D63434FF",
  "Ae c #D6D6D5F0",
  "AB c #D6D8D5F4",
  "oa c #D73636FF",
  "Bp c #D7D8D6FF",
  "oy c #D83C3CFF",
  "ou c #D94040FF",
  "AI c #D9DAD8FA",
  "AE c #DADBD9FE",
  "cj c #DADDD8FF",
  "S/ c #DBDBD9FD",
  "D& c #DCDDDBFF",
  "T; c #DCDEDBFF",
  "dP c #DDDDDCE5",
  "kl c #DDE0DBFF",
  "A$ c #DEDEDDE9",
  "Ar c #DEDEDDF0",
  "Ak c #DEDFDDF2",
  "o5 c #DF6464FF",
  "Te c #DFDFDCFF",
  "AV c #DFE0DEF5",
  "A1 c #DFE0DFED",
  "KN c #DFE1DEFF",
  "o6 c #E06666FF",
  "AO c #E0E0E0ED",
  "|2 c #E0E1DEFF",
  "S+ c #E0E1DFF7",
  "TI c #E0E1DFFF",
  "xx c #E0E3DEFF",
  "%: c #E1E1DFFF",
  "6D c #E1E1E0FF",
  "eE c #E1E2E1FF",
  "S5 c #E1E3E0FB",
  "Sd c #E2E3E1FE",
  "hJ c #E2E3E2FF",
  "&3 c #E3E3E2FF",
  "|h c #E3E4E1FF",
  "5r c #E3E4E2FF",
  ":w c #E3E5E1FF",
  "%- c #E4E4E2FF",
  "|3 c #E4E5E2FF",
  "}6 c #E5E5E2FF",
  "|. c #E5E6E3FF",
  "3: c #E5E6E4FF",
  ",@ c #E5E7E4FF",
  "55 c #E5E7E5FF",
  ":F c #E6E7E4FF",
  ":T c #E6E8E5FF",
  "os c #E98F8FFF",
  ";t c #EDEEEDFF",
  "1U c #FFFFFFFF",
  "   c none",
  
  // Image data
  "                                                                ",
  "                      AX5g5g5g5g5g5g5g5g5g5g5g5g5g5g5g5gAo      ",
  "                      5g%-dadadadadadadadadadadadadadaAO5g      ",
  "                      5gdPA+.-.-.-.-.-.-.-.-.-.-.-A@cjA#5g      ",
  "                      5gA$.-A%A&A*A=A-^1A;A:A>A>A,.-yEA<5g      ",
  "                      5gA1.-A2A3A4A5A6A7A8A9A0AqAw.-:wAe5g      ",
  "                      5gAr.-AtAyAuAiApAaAsAdAfAgAh.-yEAj5g      ",
  "                      5gAk.-AlAzAxAcAvAbAnAmAMAMAN.-:wAB5g      ",
  "                      5gAV.-ACAZAAAAASADAFAGAHAGAH.-'@3s5g      ",
  "    AX5g5g5g5g5g5g5g5g5g5g5g5g5g5g5g5gAJAKALALAKAP.-:wAI5g      ",
  "    5g%-dadadadadadadadadadadadadadaAU5gAYUSAYATAR.-:wAE5g      ",
  "    5gdPA+.-.-.-.-.-.-.-.-.-.-.-AWcjAQ5gA!A~A^A!A/.-:wT;5g      ",
  "    5gA$.-A%A&A*A=A-^1A;A:A>A>A,.-yEFx5g.-.-.-.-.-A@klTe5g      ",
  "    5gA1.-A2A3A4A5A6A7A8A9A0AqAw.-:wr*5gC`klxxxxxxxxC{|25g      ",
  "    5gAr.-AtAyAuAiApAaAsAdAfAgAh.-yEA(5g}6|3|35r&3hJhJA)5g      ",
  "    5gAk.-AlAzAxAcAvAbAnAmAMAMAN.-:wR<5gE>E>E>E>E>E>E>WXA_      ",
  "    5gAV.-ACAZAAAAASADAFAGAHAGAH.-'@rA5gD*D%D=KrD-5gD`D'D]SoSO  ",
  "    5gS+.-S@S#S$S%S&S*AKALALAKAP.-:wBp5geBeBeBeBeBeBeBD[D{D}S4  ",
  "    5gS5.-S6S@S7S8ARS9AYUSAYATAR.-:wF@F#hhR7R7R7R7R7R7R7R7F$F%F&",
  "    5gSd.-A^A~A!A~A~A~A!A~A^A!A/.-:wF*F=o5o6o6o6o6o6o6o6o6o5o(F-",
  "    5g3:A@.-.-.-.-.-.-.-.-.-.-.-SMklhho5owoGoGoGoGoGoGoGoGowo5oe",
  "    5g:FC{:w:w:wxxC`C`C`klxxxxxxxxC{R7o6oGotoyoGoGoGoGouotoGo6R7",
  "    5gS/:T55,@,@3:3:|.}6|3|35r&3hJhJR7o6oGoa1UosoGoGos1UodoGo6R7",
  "    S|5g5g5g5g5g5g5g5gE>E>E>E>E>E>E>R7o6oGoGos1Uosos1UosoGoGo6R7",
  "      *T*`5gD%r[D&D&r[D*D%D=KrD-5gD`R7o6oGoGoGos1U1UosoGoGoGo6R7",
  "  D3*RD4eBeBeBeBeBeBeBeBeBeBeBeBeBeBR7o6oGoGoGos1U1UosoGoGoGo6R7",
  "  *RDueB;Ij93kv{v{v{v{v{v{1q;I,1*!VlR7o6oGoGos1Uosos1UosoGoGo6R7",
  "  DleB<:rABv-`DzDzq0q0q0q03;*q*q5yBhR7o6oGod1UosoGoGos1UoaoGo6R7",
  "  eB;t6D|h%:%:TI%:%:%:%:%:hJKNKNeE3:R7o6oGotouoGoGoGoGoyotoGo6R7",
  "  DHeBeBeBeBeBeBeBeBeBeBeBeBeBeBeBeB}Mo5owoGoGoGoGoGoGoGoGowo5oe",
  "  *T,D%A@,$^$^$^7e7e7e7e=@=k=k=k+g=kF;o(o5o6o6o6o6o6o6o6o6o5o(o)",
  "                                    o]o'oeR7R7R7R7R7R7R7R7oeo'o]"
};
