/* XPM */
const char *xpm_tango_status_network_wireless_encrypted[] = {
  // Header (width height colors chars-per-pixel)
  "32 32 468 2",
  
  // Colors (code mode value)
  "+n c #00000001",
  "*T c #00000002",
  "*_ c #00000003",
  "*` c #00000004",
  "qz c #00000005",
  "*R c #00000006",
  "7t c #00000007",
  ",D c #00000008",
  "+m c #0000000B",
  "=2 c #0000000D",
  "=# c #0000000E",
  "[i c #0000000F",
  "%A c #00000010",
  "&Z c #00000011",
  "+b c #00000012",
  "=$ c #00000015",
  "+v c #00000016",
  "[~ c #00000017",
  "`L c #00000018",
  "7e c #0000001B",
  "`I c #0000001C",
  "=@ c #0000001D",
  "9b c #0000001E",
  "=k c #0000001F",
  "*' c #00000020",
  "+g c #00000021",
  "WK c #00000022",
  ":W c #00000025",
  "@$ c #00000026",
  "er c #00000028",
  "eg c #0000002C",
  "a( c #0000002D",
  "7r c #00000030",
  ":s c #00000031",
  "T2 c #00000032",
  "5. c #00000034",
  ",T c #00000036",
  "tD c #00000038",
  "=r c #00000040",
  "J0 c #0B0B0B2F",
  "1Q c #14141426",
  ";g c #1A1A1A1D",
  "Jd c #2B2E2B4D",
  "Jp c #3434344F",
  "Ji c #55555381",
  "Jr c #60605E87",
  "Je c #71736EA0",
  "Js c #797B76B7",
  "Jq c #7B7C78B3",
  "J9 c #7B7D789D",
  "Ja c #7B7D78B9",
  "@R c #80808002",
  "<4 c #80808004",
  "<W c #80808006",
  "r} c #80808008",
  "J5 c #838480B7",
  "S& c #848D841D",
  "<C c #85858517",
  "J4 c #8588838E",
  "Tj c #858F8519",
  "A- c #86868613",
  "rd c #868A863B",
  "E: c #868B8637",
  "g, c #878984FF",
  "C/ c #87898577",
  "Ju c #878985F7",
  "`] c #878A8457",
  "C) c #878A8562",
  "r( c #878A8571",
  "Uv c #878B8344",
  "r5 c #8888843A",
  "R2 c #8888843C",
  "3Z c #88888547",
  "G6 c #888A856F",
  "cL c #888A85FB",
  "eB c #888A85FF",
  "Hk c #888A8681",
  "GO c #888A8683",
  "t+ c #888B854B",
  "3. c #89898438",
  "G7 c #8989864E",
  "Z~ c #89898652",
  "r$ c #8989891A",
  "ZI c #898A8599",
  "CI c #898B858A",
  "GU c #898B869C",
  "xs c #898B86F9",
  "G9 c #898B86FC",
  "G, c #898B86FD",
  "G% c #898B8779",
  "J, c #898B87B6",
  "J= c #898B87F5",
  "G$ c #898C87F3",
  "Zn c #8A8A8325",
  "HP c #8A8B8698",
  "G+ c #8A8C87F1",
  "s, c #8A8C87F7",
  "Gu c #8A8C87FA",
  "HV c #8A8C87FB",
  "H] c #8A8C8878",
  "C! c #8A8C88F0",
  "H% c #8A8D88BA",
  "Gi c #8A8D89A8",
  "H$ c #8A8E87EC",
  "t> c #8B8B8016",
  "{& c #8B8B8B0B",
  "J- c #8B8C878A",
  "G& c #8B8C87D5",
  "G8 c #8B8C88B2",
  "Hr c #8B8C88EC",
  "G< c #8B8D87AE",
  "u= c #8B8D87F3",
  "HQ c #8B8D88A3",
  "G- c #8B8D88D6",
  "G1 c #8B8D88E4",
  "Go c #8B8D89B7",
  "GA c #8B8E88B0",
  "J+ c #8B8E89D8",
  "H[ c #8C8C8014",
  "G5 c #8C8D88DB",
  "Ht c #8C8D89A8",
  "Gn c #8C8E88DB",
  "HC c #8C8F88C3",
  "GZ c #8D8E89CE",
  "G; c #8D8F8AFB",
  "Z) c #8D8F8AFC",
  "T[ c #8E8E8012",
  "Zq c #8F8F8010",
  "J@ c #8F918DF9",
  "Gp c #90928EFE",
  "Jw c #91928EFC",
  "HI c #91938EFA",
  "Hl c #91938EFB",
  "G2 c #91938FF9",
  "G* c #929390FA",
  "J> c #929690F9",
  "H7 c #949592FA",
  "rH c #979894FA",
  "rZ c #99999905",
  "J3 c #999B95FA",
  "Gy c #9D9E99F8",
  "G= c #9EA09BF9",
  "J6 c #A0A39FFA",
  "J; c #A2A59FF8",
  "G0 c #A3A5A0F8",
  "G( c #A4A5A1F7",
  "G# c #A4A6A2F9",
  "H< c #A6A7A2F8",
  "J< c #A7A8A4F9",
  "cW c #AAAAAA03",
  "H' c #AAACA8F8",
  "Jy c #ACAEAAFB",
  "G> c #ADAEA9F8",
  "Gl c #B0B1AEFD",
  "Jt c #B1B4AFFB",
  "GY c #B2B3B0F8",
  "E4 c #B8BAB6F9",
  "G@ c #B8BAB6FB",
  "UN c #C0C2BEFB",
  "HL c #C2C3C0FA",
  "co c #C2C5C0FF",
  "H! c #C3C5C1FA",
  ".i c #C6C8C2FF",
  "@) c #C6C8C3FF",
  "H, c #C6C8C5FC",
  "GI c #C7C8C5FE",
  "op c #C8CBC5FF",
  "yI c #C9CBC6FF",
  "J# c #C9CCC6FF",
  "yV c #CBCDC8FF",
  "5: c #CCCEC9FF",
  "Ga c #CCCECAFD",
  "QP c #CCD0C9FF",
  "Hy c #CDCECBFC",
  "gd c #CDCFCAFF",
  "T1 c #CED0CBFF",
  "XH c #CED1CCFF",
  "}F c #CFD1CCFF",
  "T| c #CFD2CBFF",
  "GS c #D0D1CEFF",
  "G: c #D0D1CFFD",
  "}H c #D0D2CDFF",
  "XB c #D0D3CEFF",
  "BS c #D1D0CBFF",
  "}D c #D1D3CEFF",
  "}n c #D1D3CFFF",
  "yF c #D2D4CFFF",
  "KB c #D2D4D0FF",
  "QZ c #D3D5D0FF",
  "TX c #D3D5D1FF",
  "C{ c #D3D6D0FF",
  "Hz c #D4D5D2FF",
  "X) c #D4D6D1FF",
  ".Y c #D4D6D2FF",
  "JO c #D5D6D2FD",
  "}J c #D5D7D2FF",
  "}b c #D5D7D3FF",
  "_> c #D5D8D2FF",
  "X( c #D6D7D3FF",
  "}M c #D6D8D3FF",
  "X_ c #D6D8D4FF",
  ">: c #D6D8D5FE",
  "|I c #D7D8D4FF",
  "|g c #D7D9D4FF",
  ".r c #D7D9D5FF",
  "H& c #D7D9D6FE",
  "T: c #D8D9D5FF",
  "HZ c #D8D9D6FD",
  "E% c #D8DAD5FF",
  "XV c #D8DAD6FF",
  "wA c #D8DBD5FF",
  "J7 c #D8DCD4FF",
  "o@ c #D9DAD6FF",
  ":p c #D9DBD6FF",
  "r3 c #D9DBD7FF",
  "K^ c #D9DDD6FF",
  "W2 c #DADBD9FF",
  ",# c #DADCD7FF",
  "yC c #DADCD8FF",
  "J8 c #DADED6FF",
  "K/ c #DADED7FF",
  "g^ c #DBDCD9FF",
  "J* c #DBDDD6FF",
  "0I c #DBDDD9FF",
  "xh c #DBDED7FF",
  "cC c #DBDED8FF",
  ":9 c #DBDEDAFF",
  "Hx c #DCCFCCFF",
  "J& c #DCD8D1FF",
  "o# c #DCDDDAFF",
  "D& c #DCDDDBFF",
  "r9 c #DCDEDAFF",
  "J$ c #DCDFD8FF",
  "H{ c #DDD8D2FF",
  "Jo c #DDD9D2FF",
  "J% c #DDDBD4FF",
  "T~ c #DDDDDAFF",
  "|w c #DDDEDBFF",
  "|* c #DDDFDAFF",
  "|1 c #DDDFDBFF",
  "H} c #DECDC7FF",
  "Hu c #DED7D4FF",
  "yZ c #DEDFDCFF",
  "KZ c #DEE0DDFF",
  "G) c #DEE1DBFF",
  "H| c #DFC3BDFF",
  "H^ c #DFD3CEFF",
  "H~ c #DFDBD5FF",
  "HY c #DFDDD6FF",
  "fp c #DFE0DDFF",
  "XM c #DFE1DDFF",
  "KN c #DFE1DEFF",
  "HU c #DFE2DCFF",
  "xP c #DFE3DDFF",
  "JX c #E0C2BDFF",
  "HA c #E0D4CFFF",
  "}v c #E0E1DDFF",
  "|2 c #E0E1DEFF",
  "HF c #E0E2DCFF",
  ",& c #E0E2DEFF",
  "Ky c #E0E2DFFF",
  "Y[ c #E0E3DDFF",
  "H/ c #E1C7C2FF",
  "H` c #E1C9C3FF",
  "}| c #E1E2DFFF",
  "Lw c #E1E2E0FF",
  "hy c #E1E3DEFF",
  ">} c #E1E3DFFF",
  "Xv c #E1E3E0FF",
  "wG c #E1E4DEFF",
  "HT c #E2B4B0FF",
  "J. c #E2BAB5FF",
  "HS c #E2CBC5FF",
  "HD c #E2D3CEFF",
  "Hf c #E2D9D5FF",
  "Hm c #E2DCD7FF",
  "57 c #E2E3E0FF",
  "!@ c #E2E4DFFF",
  "TZ c #E2E4E1FF",
  "f] c #E2E5DFFF",
  "H_ c #E39D99FF",
  "H) c #E3A4A0FF",
  "HG c #E3B6B1FF",
  "H0 c #E3C2BDFF",
  "G/ c #E3DDD8FF",
  "|h c #E3E4E1FF",
  "T* c #E3E5E0FF",
  "X} c #E3E5E2FF",
  ">< c #E3E6E1FF",
  "H( c #E4B1ACFF",
  "Hc c #E4C1BCFF",
  "Hi c #E4DAD5FF",
  "H8 c #E4DCD8FF",
  "|3 c #E4E5E2FF",
  "|= c #E4E5E3FF",
  "xn c #E4E6E1FF",
  ">% c #E4E6E4FF",
  "R` c #E4E7E1FF",
  "HR c #E5908DFF",
  "Hv c #E5ADA9FF",
  "Hp c #E5CCC7FF",
  "%h c #E5E5E3FF",
  "XP c #E5E6E2FF",
  "|. c #E5E6E3FF",
  "w3 c #E5E7E2FF",
  ">{ c #E5E7E3FF",
  ",@ c #E5E7E4FF",
  "@Y c #E5E8E2FF",
  "x` c #E5E8E3FF",
  "HE c #E68884FF",
  "H5 c #E69B98FF",
  "HM c #E69C99FF",
  "Hn c #E6A29FFF",
  "G} c #E6B1ADFF",
  "GC c #E6DCD7FF",
  "G~ c #E6DFDAFF",
  ":F c #E6E7E4FF",
  "xR c #E6E8E3FF",
  "r6 c #E6E8E4FF",
  "J1 c #E6E9E3FF",
  "HJ c #E77775FF",
  "Ha c #E79491FF",
  "Hb c #E79B98FF",
  "H; c #E7A8A5FF",
  "H* c #E7BCB8FF",
  "HW c #E7C8C4FF",
  "G] c #E7CAC6FF",
  "%g c #E7E7E5FF",
  "q[ c #E7E9E4FF",
  "g! c #E7E9E6FF",
  "HH c #E87C79FF",
  "Hq c #E88582FF",
  "H6 c #E88683FF",
  "Hd c #E88C89FF",
  "H# c #E88E8CFF",
  "GP c #E89D9AFF",
  "H+ c #E89F9CFF",
  "H3 c #E8AAA6FF",
  "Gb c #E8CCC8FF",
  "G_ c #E8E2DEFF",
  "GT c #E8E5E2FF",
  "|4 c #E8E9E5FF",
  "1W c #E8E9E7FF",
  "qD c #E8EAE5FF",
  "}I c #E8EAE6FF",
  "Hg c #E96260FF",
  "HN c #E96765FF",
  "H> c #E97876FF",
  "H4 c #E98481FF",
  "G[ c #E98D8BFF",
  "HB c #E99593FF",
  "GK c #E9A8A4FF",
  "HX c #E9B0ADFF",
  "Gj c #E9D4D0FF",
  "GJ c #E9E5E0FF",
  ".. c #E9EAE6FF",
  "59 c #E9EAE8FF",
  ":U c #E9EBE7FF",
  "H9 c #EA7270FF",
  "Hs c #EA7876FF",
  "H1 c #EA8381FF",
  "HO c #EA9390FF",
  "Gh c #EAB2AFFF",
  "GN c #EAC2BFFF",
  "GE c #EAD6D3FF",
  "GR c #EAE3DFFF",
  "J: c #EAEBE7FF",
  "X| c #EAEBE9FF",
  ":Q c #EAECE8FF",
  "H- c #EB6F6DFF",
  "G^ c #EB706EFF",
  "GL c #EB7674FF",
  "H2 c #EB8481FF",
  "GV c #EB8886FF",
  "GB c #EB8C8AFF",
  "Gv c #EB9A97FF",
  "Gc c #EBA29EFF",
  "G! c #EBA29FFF",
  "GW c #EBA9A6FF",
  "He c #EBB1AEFF",
  "GH c #EBBAB7FF",
  "Gx c #EBC4C1FF",
  "Gr c #EBD4D1FF",
  "GD c #EBD9D6FF",
  "GM c #EBE4E0FF",
  "Gt c #EBE7E3FF",
  "Gz c #EBE9E5FF",
  "|r c #EBECE9FF",
  "5; c #EBECEAFF",
  "J2 c #EBEDE8FF",
  "|- c #EBEDE9FF",
  ">. c #EBEDEAFF",
  "Hh c #EC5755FF",
  "1H c #EC6463FF",
  "G' c #EC6D6BFF",
  "H. c #EC8483FF",
  "G` c #EC8583FF",
  "GQ c #EC918FFF",
  "GG c #ECB6B3FF",
  "Gg c #ECB9B6FF",
  "GF c #ECC6C3FF",
  "}l c #ECEDEAFF",
  "3f c #ECEDEBFF",
  ";r c #ECEEEAFF",
  "Hw c #ED4646FF",
  "H@ c #ED4746FF",
  "G{ c #ED5453FF",
  "Ho c #ED5554FF",
  "G| c #ED8584FF",
  "Gf c #EDC6C2FF",
  "Ge c #EDD0CDFF",
  "Gw c #EDDAD7FF",
  "Gm c #EDE3E0FF",
  "G3 c #EDECE9FF",
  "}w c #EDEEEBFF",
  ">e c #EDEFEBFF",
  "H: c #EE3E3DFF",
  "H= c #EE4140FF",
  "Gd c #EEE6E3FF",
  "Gq c #EEE7E3FF",
  "Gs c #EEECE9FF",
  "G4 c #EEEEEAFF",
  "3B c #EEEFECFF",
  ">2 c #EEEFEDFF",
  "1Y c #EEF0ECFF",
  ";p c #EEF0EDFF",
  "R# c #EF2929FF",
  "+$ c #EF3232FF",
  "}# c #EFF0EDFF",
  "{T c #EFF0EEFF",
  ";a c #EFF1EDFF",
  "o$ c #F0F1EEFF",
  "4[ c #F0F1EFFF",
  ";z c #F0F2EFFF",
  "f8 c #F1F2F0FF",
  "}8 c #F2F3F1FF",
  "$n c #F2F3F2FF",
  "55 c #F3F3F2FF",
  "}, c #F3F4F2FF",
  "@< c #F3F4F3FF",
  ";! c #F3F5F3FF",
  "hE c #F4F4F3FF",
  ";~ c #F4F5F3FF",
  "Gk c #F4F6F3FF",
  "HK c #F5E8E6FF",
  "#) c #F5F5F3FF",
  "3] c #F5F6F4FF",
  "Hj c #F6EEECFF",
  ";K c #F6F7F5FF",
  ">s c #F6F7F6FF",
  "v9 c #F7F7F6FF",
  "X' c #F7F8F6FF",
  "}/ c #F7F8F7FF",
  ",3 c #F8F8F7FF",
  "lP c #F9F9F8FF",
  ":D c #F9FAF9FF",
  "g~ c #FAFAF9FF",
  "3C c #FAFBFAFF",
  "}1 c #FBFBFAFF",
  ";Q c #FBFBFBFF",
  ";^ c #FBFCFBFF",
  "}y c #FCFCFBFF",
  ";7 c #FCFCFCFF",
  ":1 c #FCFDFCFF",
  "}u c #FDFDFCFF",
  "=q c #FDFDFDFF",
  "58 c #FDFEFDFF",
  "   c none",
  
  // Image data
  "                                                                ",
  "                          <CGoeBGOZq                            ",
  "                      @RC)G+G@%hG#G$G%{&                        ",
  "                    3ZG&G*>%}u:D581WG=u=CIS&                    ",
  "              cW`]G-G;G:;7,3|4>e>2;K5859G>G,G<rd                ",
  "          t>r(G1G2>:;^:D|r:9X)1Y3BG3G4#)=q55UNG,G5G6T[          ",
  "    r}G7G8G9G0KZ:1X'5;XM|g|I.r}#GqGwGeGrGtf8}13CW2GyGuGir5      ",
  "  <WeBGpGa$n}u;!g!|1T:XVr3yCyCGsGdGwGfGgGhGjq[|-Gk=q>2GleB{&    ",
  "  @ReB{T;7|r}v,#}MT:r3g^r9|1yZ}w}w;rGzGxGcGvGbx`xnXPX'{Tu=      ",
  "    GnLw;aQZTXX(XVyCo#|1fp,&}|}lGmGM:Q:UGNGBGVGCxnT*;zD&GZ      ",
  "    GAGS},X_}J.rr3o#yZ|257X}|=GDGFGGGHGJqDGKGLGP><f]3]GIGU      ",
  "    C/GYlPyCX(XVyC|wXM57|3:FGTGRGEGWGQG!q[G~G^1HG/!@;QG(C)      ",
  "    R2Z)58G)X_o@0IyZ|2|h|.g!X|..}IG_G`G'G]>{G[G{G}R`}yg,Zn      ",
  "    r}cL@<qDX_XV0I|1|2TZ|.g!G|+$H.q[HXHoHOw3H+H@H#>.5;H$        ",
  "      H%H&f8r3XVyC|wfpXvX},@+$R#+$xRH*H=H-xnH;H:H>;~H,ZI        ",
  "      C)H<3C|*.rr30I|1KN>}|hH1+$H2w3H3H=H4T*H5H:H6}uH7Uv        ",
  "      A-Gu>s@YX_.rr30I|1fpfpKyxnxnH8H9G{H0!@HqHwHe3fHr<4        ",
  "        HtHy}8:p}b.rr3yCo#T~HuHiHpHaHsHdwGHfHgHhHjE4Hk          ",
  "        3.Hl;QxPHz}JX_.ro@r3HxHcHvHbHnHmY[HMHNHBv9HVTj          ",
  "          HCHZ4[E%yFTX.Y}bX_|IHAHSHDY[HFHGHHHJHKHLHP            ",
  "          E:HI:Dhy}DXB}nKBQZTXHUHUHUHYHTHRHEHW},s,r$            ",
  "            HQH!;KwAXHT1}F}HBSH~H^H/H(H)H_H`g~H'H]              ",
  "            H[C!1W;pC{yV5:5:gdH{H}H|J.JXJo;~JOJ+rZ              ",
  "              t+J@>sr6}FopyIJ#J$J%J&J*cC;r3fJ=Zn                ",
  "                J-J;3CxnQP.i@)xhxhK/K/J:}/J>Z~                  ",
  "                <4J,J<g~J1T|coK^K^K^J2v9J3J4qz                  ",
  "            *`+m+b;gJ5J6,3}#_>J7J8}8hErHJ99b`L&Z+m*`            ",
  "          *R=#+v9b@$J0JqJw%g3Co$}1fpZ)Je5.a(:W=@=$=2*`          ",
  "          ,D%A`L*'er7rtDJrxsJt%gJyJuJi=rtD7rer=k[~[i*`          ",
  "          +n,D&Z`L=k@$egT2JpJaeBJsJd,T:seg:W9b[~=#*`            ",
  "              +nqz+m+b`L`I=k+g1QWK+g=k7e+v[i7t*T                ",
  "                        +n*T*T*_*T*T+n                          "
};
