/* XPM */
const char *xpm_tango_status_network_error[] = {
  // Header (width height colors chars-per-pixel)
  "32 32 379 2",
  
  // Colors (code mode value)
  "+n c #00000001",
  "*T c #00000002",
  "*` c #00000004",
  "*R c #00000006",
  ",D c #00000008",
  "%V c #0000000A",
  "%A c #00000010",
  "@, c #00000014",
  "+v c #00000016",
  "$^ c #00000019",
  "7e c #0000001B",
  "=@ c #0000001D",
  "9b c #0000001E",
  "=k c #0000001F",
  "+g c #00000021",
  "WK c #00000022",
  "@$ c #00000026",
  "tS c #00000029",
  "eg c #0000002C",
  "a( c #0000002D",
  "7r c #00000030",
  "T2 c #00000032",
  "`P c #00000033",
  "DW c #0300003F",
  "D_ c #04000040",
  "81 c #0C0C0C15",
  "A+ c #36487882",
  "A@ c #364878A3",
  ".- c #364878FF",
  "AW c #3F5583FF",
  "Ah c #445C8AFF",
  "AN c #47608CFF",
  "AM c #47608DFF",
  "Ag c #49618DFF",
  "AH c #496390FF",
  "AG c #4A6390FF",
  "AL c #4C6692FF",
  "AP c #4C6693FF",
  "AK c #4C6793FF",
  "AF c #4E6793FF",
  "AT c #4E6996FF",
  "S9 c #4E6A95FF",
  "AY c #4E6A96FF",
  "US c #4F6995FF",
  "AR c #4F6A96FF",
  "S* c #506B95FF",
  "A/ c #506D99FF",
  "Am c #516793FF",
  "A! c #516D98FF",
  "A~ c #516D99FF",
  "A^ c #516E99FF",
  "S| c #52535144",
  "Af c #566B95FF",
  "S8 c #57729BFF",
  "Aw c #5A6E96FF",
  "S& c #5F779EFF",
  "D) c #63000089",
  "Du c #64666245",
  "DE c #6500002B",
  "D3 c #68686801",
  "A_ c #686A6778",
  "A, c #68799EFF",
  "AX c #6A6B6756",
  "AJ c #6B757FFF",
  "Aq c #6B7DA1FF",
  "DQ c #6C000088",
  "A> c #6C7DA0FF",
  "A0 c #6C7EA2FF",
  "A: c #6E7EA1FF",
  "A9 c #6E80A3FF",
  "Ad c #6E81A4FF",
  "D4 c #6F716D3E",
  "A; c #6F80A2FF",
  "A8 c #6F80A3FF",
  "^1 c #7081A3FF",
  "As c #7081A5FF",
  "Aa c #7082A5FF",
  "An c #7082A6FF",
  "Ab c #7084A6FF",
  "AD c #7085A8FF",
  "A- c #7181A4FF",
  "A7 c #7182A4FF",
  "A6 c #7182A5FF",
  "A= c #7283A4FF",
  "A5 c #7283A6FF",
  "Ap c #7284A6FF",
  "Ai c #7285A6FF",
  "Av c #7285A7FF",
  "AS c #7285A8FF",
  "SM c #737F9DFF",
  "Au c #7386A7FF",
  "Ac c #7386A8FF",
  "AA c #7387A9FF",
  "S% c #7387AAFF",
  "A* c #7484A5FF",
  "A4 c #7485A7FF",
  "Ax c #7487A8FF",
  "S$ c #7488ABFF",
  "S7 c #748AACFF",
  "A& c #7584A6FF",
  "A3 c #7585A7FF",
  "A2 c #7586A7FF",
  "Ay c #7586A8FF",
  "Az c #7587A9FF",
  "AZ c #7588AAFF",
  "AC c #7589ABFF",
  "S# c #758AACFF",
  "A% c #7685A7FF",
  "At c #7688A9FF",
  "Al c #7688AAFF",
  "S@ c #768BACFF",
  "S6 c #778BAEFF",
  "Ao c #787A76AD",
  "Dl c #7B7D7965",
  "D- c #7F817CB3",
  "5g c #82847FFF",
  "WX c #838580FF",
  "Ss c #856B677F",
  "DH c #868883BF",
  "S= c #87716DFF",
  "SX c #878883D9",
  "So c #878984CF",
  "S4 c #878984E7",
  "S3 c #88696687",
  "SO c #888A8534",
  "eB c #888A85FF",
  "E> c #898C86FF",
  "DJ c #8A7571FF",
  "D( c #910000D3",
  "SL c #94303059",
  "S. c #954E4BBB",
  "D! c #960000D4",
  "Di c #9A6968FF",
  "DK c #A00908F0",
  "DR c #A10000D4",
  "D/ c #A10000F6",
  "D5 c #A12726FF",
  "Dk c #A2000037",
  "D~ c #A20000F6",
  ";I c #A2A2A2FF",
  "A{ c #A30101FE",
  "D. c #A30303FF",
  "D^ c #A40000FE",
  "S- c #A41717FF",
  "<: c #A4A4A3FF",
  "Bh c #A4A5A3FF",
  "A| c #A51D1CDE",
  "Dy c #A60000A1",
  "A} c #A60B0BFF",
  "}c c #A60C0CFF",
  "Sa c #A61010FA",
  "Sm c #A61212CD",
  "DM c #A70000B9",
  "DF c #A70000E5",
  "D2 c #A70202DF",
  "D; c #A70908F9",
  "S2 c #A70E0EDD",
  "Dx c #A72020FF",
  "D$ c #A80707F1",
  "A[ c #A80D0CFF",
  "*q c #A9A9A8FF",
  "-` c #A9A9A9FF",
  "Dz c #A9AAA9FF",
  "DG c #AA000015",
  "DT c #AA0404F6",
  "DB c #AA0F0FFF",
  "S^ c #AA1919B5",
  "q0 c #AAAAA9FF",
  "Dj c #AB0303F0",
  "S} c #AB0C0CE6",
  "S( c #AB1111FF",
  "DL c #AC0404F6",
  "v{ c #ACACABFF",
  "SK c #AD1010F5",
  "1q c #ADADACFF",
  "A] c #AE3231FF",
  "Dp c #AF0F0EFF",
  "S1 c #AF1111F8",
  "j9 c #B0B1AFFF",
  "0n c #B21A1AFF",
  "Sf c #B32D2DFF",
  "SP c #B63D3CFF",
  "Kr c #B6B7B3FF",
  "SB c #B82223FF",
  "A' c #B87F7CFF",
  "C` c #BABDB7FF",
  "D= c #BCBDB9FF",
  "'@ c #BCBEB9FF",
  "Dm c #BD1717FB",
  "Bv c #BDBDBBFF",
  "DD c #BF1818FB",
  "*! c #C0C0BFFF",
  "Fx c #C0C2C2FF",
  "Dt c #C21C1CFE",
  "yE c #C2C4BFFF",
  "D% c #C3C4C0FF",
  "DV c #C41E1EFF",
  "DY c #C42020FF",
  "DP c #C62222FF",
  "Sn c #C63637FD",
  "Aj c #C6C7C4F8",
  "A( c #C6C7C4FF",
  "A< c #C6C7C5F6",
  "Dc c #C72020FF",
  ",1 c #C7C7C7FF",
  "3s c #C7C8C6FB",
  "rA c #C7C8C6FF",
  "Sp c #C83838FE",
  "AQ c #C8CCCDFF",
  "A) c #C9CCC7FD",
  "S~ c #CA3B3BFE",
  "A` c #CACAC6FF",
  "3; c #CBCBCAFF",
  "D* c #CBCCC8FF",
  "oG c #CC0000FF",
  "DA c #CC0303FF",
  "3k c #CCCCCAFF",
  "Dh c #CD0101FF",
  "Dn c #CD0202FF",
  "y& c #CD0303FF",
  "ot c #CD0404FF",
  "SN c #CD9E9AFF",
  "5y c #CDCDCCFF",
  "Dr c #CE0202FF",
  "Dg c #CE0303FF",
  "RW c #CE0909FF",
  "Db c #CF0303FF",
  "De c #CF0404FF",
  "Df c #D00404FF",
  "D< c #D00505FF",
  "z2 c #D00B0BFF",
  "Dw c #D10606FF",
  "z1 c #D10B0BFF",
  "D1 c #D13A3AFF",
  "D6 c #D13E3EFF",
  "Sq c #D14243FF",
  "Dq c #D20707FF",
  "Dd c #D20808FF",
  "t] c #D21D1DFF",
  "DS c #D21E1EFF",
  "da c #D2D3D0FF",
  "R< c #D2D4D1FF",
  "D0 c #D30909FF",
  "Sg c #D34445FF",
  "S< c #D34748FF",
  "S0 c #D3C2C0FF",
  "r[ c #D3D4D1FF",
  "C{ c #D3D6D0FF",
  "2i c #D40909FF",
  "z. c #D40C0CFF",
  "D+ c #D40D0DFF",
  "DU c #D43C3CFF",
  "r* c #D4D4D3FF",
  "A# c #D4D5D3E9",
  "2y c #D50A0AFF",
  "2e c #D50B0BFF",
  "DZ c #D52222FF",
  "DI c #D53D3DFF",
  "AU c #D5D7DAFF",
  "20 c #D60C0CFF",
  "Ds c #D60F0FFF",
  "Ae c #D6D6D5F0",
  "AB c #D6D8D5F4",
  "D9 c #D71010FF",
  "D@ c #D72829FF",
  "oa c #D73636FF",
  "SI c #D74B4BFF",
  "S; c #D74C4DFF",
  "Bp c #D7D8D6FF",
  "64 c #D83E3EFF",
  "6g c #D94343FF",
  "AI c #D9DAD8FA",
  "tT c #DA4848FF",
  "S{ c #DA5F5FFF",
  "AE c #DADBD9FE",
  "cj c #DADDD8FF",
  "DN c #DBCAC9FF",
  "S/ c #DBDBD9FD",
  "D& c #DCDDDBFF",
  "T; c #DCDEDBFF",
  "D8 c #DD2526FF",
  "Dv c #DD3E3EFF",
  "DC c #DD4747FF",
  "dP c #DDDDDCE5",
  "kl c #DDE0DBFF",
  "S[ c #DE494AFF",
  "A$ c #DEDEDDE9",
  "Ar c #DEDEDDF0",
  "Ak c #DEDFDDF2",
  "S] c #DF4243FF",
  "D# c #DF6C6DFF",
  "Te c #DFDFDCFF",
  "AV c #DFE0DEF5",
  "A1 c #DFE0DFED",
  "KN c #DFE1DEFF",
  "SQ c #E04142FF",
  "SW c #E04243FF",
  "AO c #E0E0E0ED",
  "|2 c #E0E1DEFF",
  "S+ c #E0E1DFF7",
  "TI c #E0E1DFFF",
  "xx c #E0E3DEFF",
  "SH c #E14546FF",
  "Da c #E14949FF",
  "%: c #E1E1DFFF",
  "6D c #E1E1E0FF",
  "eE c #E1E2E1FF",
  "S5 c #E1E3E0FB",
  "SE c #E24344FF",
  "Sd c #E2E3E1FE",
  "hJ c #E2E3E2FF",
  "SG c #E34344FF",
  "SR c #E34445FF",
  "D7 c #E34A4BFF",
  "S! c #E35556FF",
  "&3 c #E3E3E2FF",
  "|h c #E3E4E1FF",
  "5r c #E3E4E2FF",
  ":w c #E3E5E1FF",
  "SF c #E44546FF",
  "SD c #E44647FF",
  "%- c #E4E4E2FF",
  "|3 c #E4E5E2FF",
  "ST c #E54647FF",
  "Sc c #E54748FF",
  "Sv c #E5494AFF",
  "DO c #E54D4EFF",
  "D, c #E55051FF",
  "}6 c #E5E5E2FF",
  "|. c #E5E6E3FF",
  "3: c #E5E6E4FF",
  ",@ c #E5E7E4FF",
  "55 c #E5E7E5FF",
  "SS c #E64748FF",
  "SY c #E64849FF",
  "D> c #E65657FF",
  "D: c #E67373FF",
  ":F c #E6E7E4FF",
  ":T c #E6E8E5FF",
  "Sx c #E74849FF",
  "SA c #E7494AFF",
  "Sz c #E74A4BFF",
  "S` c #E74B4CFF",
  "Do c #E75051FF",
  "S, c #E76E6FFF",
  "SJ c #E76F70FF",
  "Sl c #E84A4BFF",
  "S) c #E87071FF",
  "SZ c #E94B4CFF",
  "St c #E94D4EFF",
  "Sy c #E95152FF",
  "S_ c #E95253FF",
  "Sb c #E96B6CFF",
  "S: c #E97172FF",
  "Sk c #EA4C4DFF",
  "SC c #EA4E4FFF",
  "Sj c #EB5152FF",
  "Sr c #EB5354FF",
  "Su c #EB5E5FFF",
  "SU c #EB5F60FF",
  "Si c #EC7879FF",
  "DX c #EC8182FF",
  ";t c #EDEEEDFF",
  "Se c #EE6364FF",
  "#& c #EEEEECFF",
  "S> c #EF7E7FFF",
  "lt c #EFEFEEFF",
  "Sh c #F07374FF",
  "SV c #F0797AFF",
  "5n c #F0EFEFFF",
  "Sw c #F17D7EFF",
  "6L c #F1F0EFFF",
  "6K c #F1F0F0FF",
  "#` c #F1F1EFFF",
  "S' c #F2F1F0FF",
  "6G c #F2F1F1FF",
  "#Z c #F2F2F0FF",
  "c} c #F2F2F1FF",
  "   c none",
  
  // Image data
  "                                                                ",
  "                      AX5g5g5g5g5g5g5g5g5g5g5g5g5g5g5g5gAo      ",
  "                      5g%-dadadadadadadadadadadadadadaAO5g      ",
  "                      5gdPA+.-.-.-.-.-.-.-.-.-.-.-A@cjA#5g      ",
  "                      5gA$.-A%A&A*A=A-^1A;A:A>A>A,.-yEA<5g      ",
  "                      5gA1.-A2A3A4A5A6A7A8A9A0AqAw.-:wAe5g      ",
  "                      5gAr.-AtAyAuAiApAaAsAdAfAgAh.-yEAj5g      ",
  "                      5gAk.-AlAzAxAcAvAbAnAmAMAMAN.-:wAB5g      ",
  "                      5gAV.-ACAZAAAAASADAFAGAHAGAH.-'@3s5g      ",
  "    AX5g5g5g5g5g5g5g5g5g5g5g5g5g5g5g5gAJAKALALAKAP.-:wAI5g      ",
  "    5g%-dadadadadadadadadadadadadadaAU5gAYUSAYATAR.-:wAE5g      ",
  "    5gdPA+.-.-.-.-.-.-.-.-.-.-.-AWcjAQ5gA!A~A^A!A/.-:wT;5g      ",
  "    5gA$.-A%A&A*A=A-^1A;A:A>A>A,.-yEFx5g.-.-.-.-.-A@klTe5g      ",
  "    5gA1.-A2A3A4A5A6A7A8A9A0AqAw.-:wr*5gC`klxxxxxxxxC{|25g      ",
  "    5gAr.-AtAyAuAiApAaAsAdAfAgAh.-yEA(5g}6|3|35r&3hJhJA)5g      ",
  "    5gAk.-AlAzAxAcAvAbAnAmAMAMAN.-:wR<5gE>E>E>E>E>E>E>WXA_      ",
  "    5gAV.-ACAZAAAAASADAFAGAHAGAH.-'@rA5gA`A'A]A[A{A}A|S.SXSoSO  ",
  "    5gS+.-S@S#S$S%S&S*AKALALAKAP.-:wBpS=S-0nS;S:S>S,S<S1S2S3S4  ",
  "    5gS5.-S6S@S7S8ARS9AYUSAYATAR.-:wS0}cSqSwSeSrStSySuSiSpSaSs*R",
  "    5gSd.-A^A~A!A~A~A~A!A~A^A!A/.-:wSfSgShSjSkSlSzSxScSvSbSnSm81",
  "    5g3:A@.-.-.-.-.-.-.-.-.-.-.-SMSNSBSVSCSZSlSASSSDSFSGSHSJSKSL",
  "    5g:FC{:w:w:wxxC`C`C`klxxxxxxxxSPSISUSlSASYSTSFSRSESWSQS!S~S^",
  "    5gS/:T55,@,@3:3:|.}6|3|35r&3hJS(S)S_S`S'S'S'S'6K6L#`S]S[S{S}",
  "    S|5g5g5g5g5g5g5g5gE>E>E>E>E>E>D.DXDoDO6G6G#Zlt#&#&#&D+D@D#D$",
  "      *T*`5gD%r[D&D&r[D*D%D=KrD-5gD;D:D>D,c}5n#&#&#&#&#&D<z1D1D2",
  "  D3*RD4eBeBeBeBeBeBeBeBeBeBeBeBeBD5D6D7D8D9202yD0DqDwDeDrt]DtDy",
  "  *RDueB;Ij93kv{v{v{v{v{v{1q;I,1*!DiDpDaDs2e2iDdDwDfDgDhy&64DjDk",
  "  DleB<:rABv-`DzDzq0q0q0q03;*q*q5yBhDxDcDvz.DwD<DbDnoGotoaDmDM  ",
  "  eB;t6D|h%:%:TI%:%:%:%:%:hJKNKNeE3:DNDBDVDCDZz2DARWDS6gDDDFDG  ",
  "  DHeBeBeBeBeBeBeBeBeBeBeBeBeBeBeBeBeBDJDKDLDPDItTDUDYDTDRDE*`  ",
  "  *T,D%A@,$^$^$^7e7e7e7e=@=k=k=k+g=k@$`PDWDQD!D~D^D/D(D)D_a($^*`",
  "                                      +n%V+vWKegT27rtS9b%A*R    "
};
