/* XPM */
const char *xpm_tango_status_printer_error[] = {
  // Header (width height colors chars-per-pixel)
  "32 32 335 2",
  
  // Colors (code mode value)
  "+n c #00000001",
  "*T c #00000002",
  "*_ c #00000003",
  "*` c #00000004",
  "qz c #00000005",
  "*R c #00000006",
  ",D c #00000008",
  "%V c #0000000A",
  "K. c #0000000B",
  "[i c #0000000F",
  "%A c #00000010",
  "&Z c #00000011",
  "@, c #00000014",
  "=$ c #00000015",
  "+v c #00000016",
  "[~ c #00000017",
  "`L c #00000018",
  "$^ c #00000019",
  "%B c #0000001A",
  "9b c #0000001E",
  "WK c #00000022",
  "er c #00000028",
  "tS c #00000029",
  "rn c #0000002A",
  "eg c #0000002C",
  "=% c #0000002E",
  "7r c #00000030",
  "T2 c #00000032",
  "=d c #00000037",
  ",W c #00000039",
  "KX c #0400003D",
  "K@ c #04000045",
  "J| c #3B00004A",
  "J` c #40000038",
  "J' c #43000057",
  "6N c #47474696",
  ">' c #595959FF",
  "6B c #5A5A5AFB",
  "K+ c #5F00008E",
  "@# c #5F5F5F8E",
  "J^ c #614F4FFF",
  "4R c #6565652B",
  "6( c #656565FF",
  ">L c #666666FF",
  "4Y c #676767FF",
  "4B c #68686836",
  ":; c #686868FF",
  "53 c #6969697C",
  "6h c #696969F9",
  "Ko c #6A00008B",
  "+m c #6B6B6BE8",
  "6Z c #6B6B6BEC",
  ":@ c #6B6B6BFF",
  "54 c #6C6C6CEF",
  "4E c #6D6D6D07",
  "5O c #6E6E6E80",
  "5o c #6E6E6EDA",
  "Jm c #71605FF5",
  "4W c #717171E4",
  "<4 c #80808004",
  "t< c #858585FF",
  "3= c #898989FD",
  "-Y c #898989FF",
  "3- c #8A8A8AFD",
  "+Y c #8C8C8BFF",
  "KO c #8F0000D6",
  "3* c #90909097",
  "x6 c #940000D7",
  "J} c #9B0000DC",
  "JW c #9B1414FF",
  "<= c #9B9B9BFF",
  "JE c #9D000039",
  "JL c #9D2324FF",
  "J~ c #9E0000C3",
  "J] c #9E0000E5",
  "nS c #A00000F7",
  "J/ c #A10606FF",
  "D~ c #A20000F6",
  "Jf c #A2A1A1FF",
  ";I c #A2A2A2FF",
  "J_ c #A30000EB",
  "Jg c #A36969FF",
  "D^ c #A40000FE",
  "JC c #A41010FF",
  "hh c #A50202FF",
  "JU c #A50304FF",
  "Dy c #A60000A1",
  "+T c #A6A6A4FF",
  "D2 c #A70202DF",
  "Jj c #A70C0CFF",
  "D$ c #A80707F1",
  "Jh c #A82C2CFF",
  "J{ c #A90404F8",
  "JI c #A91010FF",
  "Dj c #AB0303F0",
  "J[ c #AB0505F7",
  "S} c #AB0C0CE6",
  "JN c #AB1212FF",
  "<b c #ACACACFF",
  "JF c #AD1313C5",
  "<v c #ADADADFF",
  "JP c #AE1A1AB1",
  "JJ c #AF1111F3",
  "JY c #B23837FF",
  "Jb c #B31919FF",
  "JR c #B41414FF",
  "Jc c #B42727FF",
  "JA c #B63030FF",
  "Jv c #B81F1FFF",
  "Jn c #B83333FF",
  "JK c #B83C3C48",
  "9m c #B8B8B8FF",
  "JH c #BA2425FF",
  "JZ c #BA31311A",
  "Jk c #BB4343FF",
  "J! c #BC1818FD",
  "J) c #BD1919FE",
  "Jz c #C1C0C0FA",
  "Dt c #C21C1CFE",
  ";Z c #C2C2C2FF",
  ":* c #C3C3C3FF",
  "J( c #C41F1FFF",
  "DY c #C42020FF",
  ":6 c #C4C4C4FF",
  ";Y c #C5C5C5FF",
  "DP c #C62222FF",
  "Qj c #C6C6C6FF",
  "JD c #C73737FF",
  "JQ c #C82121FF",
  "JT c #C89695FF",
  "5v c #C9C9C7FF",
  "JV c #CA393AFF",
  "S~ c #CA3B3BFE",
  "+` c #CAC9C7FF",
  ",< c #CACACAFF",
  "+_ c #CBCBC9FF",
  "+a c #CBCBCBFF",
  "oG c #CC0000FF",
  "DA c #CC0303FF",
  "Dh c #CD0101FF",
  "Dn c #CD0202FF",
  "y& c #CD0303FF",
  "ot c #CD0404FF",
  "+) c #CDCCCAFF",
  "+B c #CDCCCCFF",
  "+M c #CDCDCDFA",
  "Dr c #CE0202FF",
  "Dg c #CE0303FF",
  "RW c #CE0909FF",
  "+( c #CECECBFF",
  "Db c #CF0303FF",
  "De c #CF0404FF",
  "yv c #CFCFCDFF",
  "Df c #D00404FF",
  "D< c #D00505FF",
  "z2 c #D00B0BFF",
  "Dw c #D10606FF",
  "z1 c #D10B0BFF",
  "D1 c #D13A3AFF",
  "D6 c #D13E3EFF",
  "+/ c #D1D0CEFF",
  "Dq c #D20707FF",
  "Dd c #D20808FF",
  "t] c #D21D1DFF",
  "DS c #D21E1EFF",
  "JB c #D24344FF",
  "+^ c #D2D2CFFF",
  "D0 c #D30909FF",
  "S< c #D34748FF",
  "+~ c #D3D3D1FF",
  ",, c #D3D3D3FF",
  "2i c #D40909FF",
  "z. c #D40C0CFF",
  "D+ c #D40D0DFF",
  "DU c #D43C3CFF",
  "JS c #D44647FF",
  "+G c #D4D3D1FF",
  ",n c #D4D4D4FF",
  "2y c #D50A0AFF",
  "2e c #D50B0BFF",
  "DZ c #D52222FF",
  "DI c #D53D3DFF",
  "+! c #D5D5D2FF",
  "20 c #D60C0CFF",
  "Ds c #D60F0FFF",
  "Jl c #D6A1A1FF",
  "]> c #D6D5D3FF",
  "+Q c #D6D6D3FF",
  "D9 c #D71010FF",
  "D@ c #D72829FF",
  "oa c #D73636FF",
  "SI c #D74B4BFF",
  "S; c #D74C4DFF",
  "6% c #D7D7D5FF",
  ",M c #D7D7D7FF",
  "64 c #D83E3EFF",
  "$t c #D8D8D7FF",
  ",B c #D8D8D8FF",
  "6g c #D94343FF",
  "+W c #D9D9D6FF",
  ",b c #D9D9D9FF",
  "tT c #DA4848FF",
  "S{ c #DA5F5FFF",
  "JM c #DAC7C6FF",
  "@O c #DAD9D7FF",
  "+E c #DADAD7FF",
  "&J c #DADAD8FF",
  ",m c #DADADAFF",
  "%~ c #DBDBD9FF",
  "t5 c #DBDBDAFF",
  ",v c #DBDBDBFF",
  ",_ c #DCDCDCFF",
  "D8 c #DD2526FF",
  "Dv c #DD3E3EFF",
  "DC c #DD4747FF",
  "5Y c #DDDCDAFF",
  "%I c #DDDDDBFF",
  "S[ c #DE494AFF",
  "JG c #DEADACFF",
  "&v c #DEDEDDFF",
  "=[ c #DEDEDEFF",
  "S] c #DF4243FF",
  "D# c #DF6C6DFF",
  "={ c #DFDFDFFF",
  "SQ c #E04142FF",
  "SW c #E04243FF",
  "@o c #E0E0DDFF",
  "%^ c #E0E0DEFF",
  "SH c #E14546FF",
  "Da c #E14949FF",
  "`O c #E1E0DFFF",
  "6D c #E1E1E0FF",
  "+Z c #E1E1E1FF",
  "SE c #E24344FF",
  "5N c #E2E1E1FF",
  "SG c #E34344FF",
  "SR c #E34445FF",
  "D7 c #E34A4BFF",
  "S! c #E35556FF",
  "69 c #E3E2E1FF",
  "v= c #E3E3E0FF",
  "%e c #E3E3E1FF",
  "+S c #E3E3E3FF",
  "SF c #E44546FF",
  "SD c #E44647FF",
  "6J c #E4E3E1FF",
  "&I c #E4E4E4FF",
  "ST c #E54647FF",
  "Sc c #E54748FF",
  "Sv c #E5494AFF",
  "DO c #E54D4EFF",
  "D, c #E55051FF",
  "]= c #E5E4E2FF",
  "6S c #E5E4E3FF",
  "SS c #E64748FF",
  "SY c #E64849FF",
  "D> c #E65657FF",
  "D: c #E67373FF",
  "5U c #E6E5E4FF",
  "o_ c #E6E5E5FF",
  "Sx c #E74849FF",
  "SA c #E7494AFF",
  "Sz c #E74A4BFF",
  "S` c #E74B4CFF",
  "Do c #E75051FF",
  "S, c #E76E6FFF",
  "SJ c #E76F70FF",
  "Sl c #E84A4BFF",
  "S) c #E87071FF",
  "`o c #E8E7E5FF",
  "%w c #E8E8E6FF",
  ":# c #E8E8E8FF",
  "SZ c #E94B4CFF",
  "St c #E94D4EFF",
  "Sy c #E95152FF",
  "S_ c #E95253FF",
  "Sb c #E96B6CFF",
  "S: c #E97172FF",
  "+N c #E9E8E6FF",
  ":2 c #E9E9E9FF",
  "Sk c #EA4C4DFF",
  "SC c #EA4E4FFF",
  "Sj c #EB5152FF",
  "Sr c #EB5354FF",
  "Su c #EB5E5FFF",
  "SU c #EB5F60FF",
  "'A c #EBEAE9FF",
  "#p c #EBEBE9FF",
  ":, c #EBEBEBFF",
  "Si c #EC7879FF",
  "DX c #EC8182FF",
  ";h c #EDEDEDFF",
  "Se c #EE6364FF",
  "5J c #EEEDECFF",
  "#& c #EEEEECFF",
  ":< c #EEEEEEFF",
  "S> c #EF7E7FFF",
  "6Y c #EFEEEDFF",
  "lt c #EFEFEEFF",
  ";A c #EFEFEFFF",
  "Sh c #F07374FF",
  "SV c #F0797AFF",
  "+J c #F0EFEDFF",
  "6I c #F0EFEEFF",
  "5n c #F0EFEFFF",
  "l8 c #F0F0EFFF",
  ";T c #F0F0F0FF",
  "Sw c #F17D7EFF",
  "Jx c #F1DADAFF",
  "+H c #F1EFEEFF",
  "Vs c #F1F0EEFF",
  "6L c #F1F0EFFF",
  "6K c #F1F0F0FF",
  "#` c #F1F1EFFF",
  ";` c #F1F1F1FF",
  "V6 c #F2F1EFFF",
  "S' c #F2F1F0FF",
  "6G c #F2F1F1FF",
  "#Z c #F2F2F0FF",
  "c} c #F2F2F1FF",
  ";' c #F2F2F2FF",
  "55 c #F3F3F2FF",
  ":O c #F3F3F3FF",
  ":3 c #F4F4F4FF",
  "v0 c #F6F6F5FF",
  "6Q c #F7F6F5FF",
  ":9 c #F7F7F7FF",
  ";R c #F8F8F8FF",
  ":v c #F9F9F9FF",
  ";Q c #FBFBFBFF",
  ";7 c #FCFCFCFF",
  "=q c #FDFDFDFF",
  ";f c #FEFEFEFF",
  "3N c #FFFFFF01",
  "   c none",
  
  // Image data
  "                                                                ",
  "                                                                ",
  "            3*3=-Y-Y-Y-Y-Y-Y-Y-Y-Y-Y-Y-Y-Y-Y-Y-Y3=3*            ",
  "            3-:9:9:9:9:9:9:9:9:9:9:9:9:9:9:9:9:9:93-            ",
  "            -Y:9={={={={={={={={={={={={={={={={:9-Y            ",
  "            -Y:9={;Z;Z;Z;Z;Z;Z;Z;Z;Z;Z;Z;Z;Z={={:9-Y            ",
  "            -Y:9&I&I&I&I&I&I&I&I&I&I+S+S+S+S+S+S:9-Y            ",
  "            -Y:9:2+a+a+a+a+a+a+a+a,<,<,<,<,<:#:#:9-Y            ",
  "            -Y:9:<:<:<:<:<:<:<:<;h;h;h;h;h;h;h;h:9-Y            ",
  "            -Y:9:O,n,n,n,n,n,,,,,,,,,,,,,,,,;';':9-Y            ",
  "            -Y:9;R;R;R;R;R:9:9:9:9:9:9:9:9:9:9:9:9-Y            ",
  "            -Y:9=q,_,_,_,v,v,v,v:,;7;7;7;7;7;7;7:9-Y            ",
  "            -Y:9;A;A;T;T;T;`;`;`;';';':O:O:O:3:3:9-Y            ",
  "            -Y;`,M,M,B,B,B,b,b,b,m,m,m,v,v,v,_,_;`-Y            ",
  "      4B6Z4Y-Y=[;Z:*:*:*:*:6:6:6:6;Y;Y;Y;YQjQjQj={-Y4Y+m4R      ",
  "    4E4W:,;Q-Y9m<b<b<b<b<v<b<b<b<b<b<b<b<v<b<b<v9mt<;`+Z5o<4    ",
  "    5O+M;Q;Q<=;I;I;I;I;I;I;I;I;I;I;I;I;IJfJgJhJjhhJjJkJlJz53    ",
  "    54=q;f;f;f;f;f;f;f;f;f;f=q=q=q=q=qJxJcJvS;S:S>S,S<JbJnJm    ",
  "    4Y;76J+N+B]>`oo_5U6S]=6J695N6D`OJMJNJBSwSeSrStSySuSiJVJCJZ  ",
  "    4Y:v+GV65v%e6L6LVs+H6I6I+J+J6Y6YJAJSShSjSkSlSzSxScSvSbJDJF3N",
  "    4Yv0+Y5J5U'A6Q6Q6Q6Q6Q6Q6Q6Q6QJGJHSVSCSZSlSASSSDSFSGSHSJJJJK",
  "    4Y55+T:@>L>L>L>L6(6(6(6(6(6(6(JLSISUSlSASYSTSFSRSESWSQS!S~JP",
  "    4Yl8+E+W6%+Q+!+~+^+/yv+(+)+_+`JIS)S_S`S'S'S'S'6K6L#`S]S[S{S}",
  "    4Y#&+E+W6%+Q+!+~+^+/yv+(+)+_+`JUDXDoDO6G6G#Zlt#&#&#&D+D@D#D$",
  "    4Y#p+E+W6%+Q+!+~+^+/yv+(+)+_+`JID:D>D,c}5n#&#&#&#&#&D<z1D1D2",
  "    4Y%w+E+W6%+Q+!+~+^+/yv+(+)+_+`JYD6D7D8D9202yD0DqDwDeDrt]DtDy",
  "  *R6h%~%ev=6D%^@o&v%I5Yt5&J@O$t6%JTJRDaDs2e2iDdDwDfDgDhy&64DjJE",
  "*T=$@#:;4Y4Y4Y4Y4Y4Y4Y4Y4Y4Y4Y4Y4Y4YJWJQDvz.DwD<DbDnoGotoaJ!J~&Z",
  "*_[~rn6N6B>'>'>'>'>'>'>'>'>'>'>'>'>'J^J/J(DCDZz2DARWDS6gJ)J_J`[i",
  "  ,D%BerT2=d,W,W,W,W,W,W,W,W,W,W,W,W,WJ'J]J[DPDItTDUDYJ{J}J|@,+n",
  "      qzK.&Z&Z&Z&Z&Z&Z&Z&Z&Z&Z&Z&Z&Z`LrnKXKox6D~D^nSKOK+K@=%$^*`",
  "                                      +n%V+vWKegT27rtS9b%A*R    "
};
