/* XPM */
const char *xpm_tango_status_software_update_available[] = {
  // Header (width height colors chars-per-pixel)
  "32 32 297 2",
  
  // Colors (code mode value)
  "+n c #00000001",
  "*T c #00000002",
  "*_ c #00000003",
  "*` c #00000004",
  "qz c #00000005",
  "*R c #00000006",
  "7t c #00000007",
  ",D c #00000008",
  "nB c #00000009",
  "%V c #0000000A",
  "K. c #0000000B",
  ",q c #0000000C",
  "=2 c #0000000D",
  "=# c #0000000E",
  "[i c #0000000F",
  "%A c #00000010",
  "&Z c #00000011",
  "+b c #00000012",
  "=$ c #00000015",
  "+v c #00000016",
  "%B c #0000001A",
  "`I c #0000001C",
  "9b c #0000001E",
  "*' c #00000020",
  "WK c #00000022",
  "=e c #00000023",
  "@$ c #00000026",
  "er c #00000028",
  "eg c #0000002C",
  "a( c #0000002D",
  "=% c #0000002E",
  ":s c #00000031",
  "=l c #00000035",
  ",T c #00000036",
  "*/ c #0000003C",
  "68 c #0000003E",
  "=3 c #00000045",
  "PS c #1C0E0048",
  "PV c #2111003D",
  "PM c #25130029",
  "Pc c #38170017",
  "PL c #6A2D0022",
  "PK c #6D2F0021",
  "Pf c #7D37007C",
  "P: c #7E3A001A",
  "PG c #843B0069",
  "Pg c #883D007D",
  "PD c #893D0064",
  "Pi c #8A3D0071",
  "Pu c #98440071",
  "PN c #9945004E",
  "Pm c #AB4C00B2",
  "PB c #B04F0054",
  "Pv c #B04F00AC",
  "Ph c #B15000A7",
  "P# c #B34E0017",
  "Pw c #B3500053",
  "Px c #B4500040",
  "Py c #BA54009E",
  "K9 c #BF600008",
  "Pl c #C057008A",
  "PJ c #C15601AE",
  "PH c #C25701AE",
  "Pz c #C457004D",
  "P> c #C7580051",
  "Pj c #C95A00D9",
  "PA c #CA5C01EC",
  "Pe c #CB5A008A",
  "L_ c #CB5C0077",
  "PC c #CB5C01EB",
  "Pt c #CC5C00D5",
  "K2 c #CC5D0037",
  "KG c #CC66000A",
  "K1 c #CD5B0070",
  "PX c #CD5C00A3",
  "P$ c #CD5C00FF",
  "K# c #CD5D0029",
  "Lm c #CD5D004D",
  "K< c #CD5D006B",
  "Pk c #CD5D01FC",
  "K= c #CE58001A",
  "L0 c #CE5B0049",
  "Kq c #CE5B0073",
  "Kf c #CE5B0086",
  "P; c #CE5B00FE",
  "Kw c #CE5C0069",
  "Kz c #CE5C0072",
  "LR c #CE5C0077",
  "K] c #CE5C0096",
  "Kj c #CE5C00FC",
  "Kt c #CE5C01FB",
  "Kx c #CE5D003F",
  "K% c #CE5D0068",
  "KT c #CE5D00FC",
  "Pp c #CE5D01FC",
  "Pr c #CE5D01FF",
  "Pd c #CE5D02FC",
  "KF c #CE5E0039",
  "K/ c #CE5E0093",
  "K0 c #CF5B003B",
  "LO c #CF5B0094",
  "9@ c #CF5C007A",
  "Ki c #CF5C007F",
  "L` c #CF5D00A5",
  "P@ c #CF5D00E1",
  "Po c #CF5D00E4",
  "LM c #CF5D00EA",
  "0; c #CF5D00FD",
  "Lf c #CF5D01B5",
  "Lq c #CF5D01E9",
  "K* c #CF5E006A",
  "K' c #CF5E0090",
  "Ln c #CF5E01B4",
  "L> c #CF5E01D4",
  "L8 c #CF5E01FB",
  "Kg c #CF5E0296",
  "K- c #CF5E02F5",
  "L1 c #CF5E02FA",
  "Ku c #CF5F008F",
  "PF c #CF5F03FA",
  "P4 c #CF5F03FD",
  "Ls c #D05B0046",
  "L9 c #D05D0091",
  "LH c #D05D0092",
  "LF c #D05D00E9",
  "La c #D05D01E8",
  "K, c #D05E001B",
  "L+ c #D05E0031",
  "K> c #D05E01F7",
  "L< c #D05F0091",
  "L@ c #D05F01D4",
  "K8 c #D05F03B9",
  "Kl c #D06306FC",
  "Ld c #D15B001C",
  "L, c #D15D000B",
  "K^ c #D15F02D3",
  "KE c #D15F02D6",
  "K4 c #D15F03B6",
  "K$ c #D15F03CC",
  "Kh c #D16002D7",
  "Ky c #D16104D2",
  "Lg c #D16106F8",
  "Ke c #D16307FC",
  "Pq c #D26204F5",
  "Lb c #D26206F8",
  "KD c #D26407F6",
  "Kp c #D2660BF8",
  "Kc c #D36507F7",
  "Kd c #D3670CF8",
  "Kr c #D36911F6",
  "Kk c #D36A11F6",
  "P, c #D46304F5",
  "P3 c #D4670BF5",
  "P9 c #D4670BF6",
  "L: c #D4670BF7",
  "K3 c #D5550006",
  "LG c #D555000C",
  "L# c #D5670BF7",
  "Pb c #D5680BF9",
  "K& c #D56E14F6",
  "Lo c #D76C11F6",
  "K[ c #D76D11F7",
  "L) c #D8690AF3",
  "LE c #D8690BF5",
  "Lp c #D96D0FF7",
  "KC c #D9761DF7",
  "Lw c #DA6D10F7",
  "LN c #DA6E12F7",
  "LD c #DA7013F7",
  "KM c #DA771FF7",
  "KR c #DB6D0007",
  "P0 c #E07415FC",
  "P2 c #E07416FB",
  "L' c #E27514FF",
  "P. c #E27614FD",
  "P8 c #E27817FE",
  "P5 c #E27917FD",
  "K` c #E3852BFB",
  "K5 c #E38B36FA",
  "K7 c #E38C37FA",
  "K( c #E4852BFC",
  "L7 c #E58529FD",
  "LT c #E68023FC",
  "LJ c #E68023FD",
  "L2 c #E68528FD",
  "KZ c #E68F3AFC",
  "Km c #E6903CFC",
  "PZ c #E77E18FE",
  "P1 c #E9801EFF",
  "PO c #EB7F1AFF",
  "Lh c #EB8D2FFF",
  "Lv c #EB8D31FF",
  "KW c #EE9E46FF",
  "L; c #F09C43FF",
  "L$ c #F09C44FF",
  "KA c #F0A655FF",
  "9{ c #F0A755FF",
  "Kn c #F0A756FF",
  "Pa c #F18A22FF",
  "P< c #F18B26FF",
  "KV c #F1A856FF",
  "LB c #F3983BFF",
  "Li c #F39D41FF",
  "K; c #F3B263FF",
  "K: c #F3B363FF",
  "P% c #F48A23FF",
  "Le c #F49D41FF",
  "z, c #F57900FF",
  ";X c #F57A01FF",
  ";7 c #F57A02FF",
  ";m c #F57B03FF",
  "L[ c #F57C04FF",
  ";+ c #F57E09FF",
  "P7 c #F57F07FF",
  "L! c #F58008FF",
  "LQ c #F58009FF",
  "L{ c #F5800BFF",
  "P- c #F58C25FF",
  "P= c #F58D28FF",
  "LP c #F6830CFF",
  "LL c #F6830DFF",
  "P+ c #F68415FF",
  ";( c #F6860FFF",
  "P& c #F6871AFF",
  "Ps c #F68816FF",
  "L/ c #F68A19FF",
  "LC c #F68B18FF",
  "L~ c #F68B1AFF",
  "P* c #F68B22FF",
  "P6 c #F68C20FF",
  "L| c #F68C23FF",
  "L] c #F68D24FF",
  "Lz c #F78A13FF",
  "Ll c #F78A14FF",
  "Lc c #F78B16FF",
  "Lx c #F78D16FF",
  "Ly c #F78D17FF",
  "Pn c #F79126FF",
  "L( c #F79634FF",
  "LW c #F79735FF",
  ";3 c #F8901BFF",
  "L5 c #F8921FFF",
  "L& c #F8941FFF",
  "Lt c #F89426FF",
  "Lk c #F8962BFF",
  "LY c #F8962CFF",
  "K| c #F89723FF",
  "L. c #F89724FF",
  "K} c #F89825FF",
  "LI c #F8982FFF",
  "LK c #F89938FF",
  "LV c #F89B38FF",
  "L3 c #F8A952FF",
  "KH c #F8B562FF",
  "KS c #F8BA6DFF",
  "Kb c #F8BA6EFF",
  ";1 c #F99A26FF",
  "K! c #F99E2AFF",
  "L4 c #F9A240FF",
  "Lj c #F9A447FF",
  "Lr c #F9A548FF",
  "KY c #FAA12EFF",
  "KB c #FAA432FF",
  "KU c #FAA434FF",
  "LS c #FAA443FF",
  "L} c #FAA446FF",
  "LZ c #FAA848FF",
  "L% c #FAAC51FF",
  "K~ c #FAAE4EFF",
  "KQ c #FAAF4FFF",
  "K_ c #FAB157FF",
  "K) c #FAB158FF",
  "LX c #FAB35FFF",
  "K{ c #FAB460FF",
  "Ka c #FAC073FF",
  "KK c #FBAE4CFF",
  "KJ c #FBB050FF",
  "Ks c #FBB14AFF",
  "KL c #FBB65CFF",
  "KN c #FBB85FFF",
  "L- c #FBB962FF",
  "KI c #FBB964FF",
  "KP c #FBBD6BFF",
  "L* c #FCBC69FF",
  "Kv c #FCC276FF",
  "L^ c #FCC377FF",
  "K6 c #FCC475FF",
  "L= c #FDCA84FF",
  "LU c #FDCB86FF",
  "Lu c #FECC87FF",
  "L6 c #FECC88FF",
  "]/ c #FECF8BFF",
  "LA c #FED08CFF",
  "[' c #FED08EFF",
  "Rr c #FF000001",
  "w5 c #FF800002",
  "   c none",
  
  // Image data
  "                                                                ",
  "                                                                ",
  "                              K#K#                              ",
  "                            RrK$K$Rr                            ",
  "                            K%K&K&K*                            ",
  "                          K=K-K;K:K>K,                          ",
  "            K<K1K2K3      K4K5K6K6K7K8      K9K0KqKw            ",
  "            9@KeKrKtKyKuKiKpKaKsKsKaKdKfKgKhKjKkKlKz            ",
  "            KxKcKvKbKnKmKM9{KNKBKBKNKVKCKZKAKSKvKDKF            ",
  "            KG0;KHKJKKKLKPKIKUKYKYKUKIKPKLKKKJKHKTKR            ",
  "              KEKWKQK!K!K!K!K!K!K!K!K!K!K!K!K~KWK^              ",
  "              K/K(K);1;1;1;1;1;1;1;1;1;1;1;1K_K`K'              ",
  "            w5K]K[K{K}K|K|K|K|K|K|K|K|K|K|L.LXLoLOw5            ",
  "          L+L@L#L$L%L&L&L&L&L*L=L=L=L-L&L&L&L%L;L:L>L+          ",
  "      L,L<L1L2L3L4L5;3;3;3;3['['['['L6;3;3;3L5L4L3L7L8L9L,      ",
  "    L0LqLwLeLrLtLyLyLyLyLyLy['['['['LuLyLyLyLyLyLtLrLiLpLaLs    ",
  "    LdLfLgLhLjLkLlLzLzLzLxLx['['['['LuLcLlLzLzLlLkLjLvLbLnK,    ",
  "        LmLMLNLBLVLC;(;(LZLA['['['['[']/LS;(LCLVLBLDLFLm        ",
  "          LGLHL1LJLKLLLPLPLILU['['['L=LYLPLPLKLTL1LHLG          ",
  "              LRLELWLQL!L!L!L~L^['KvL/L!L!L!L(L)L_+n            ",
  "              L`L'L]L[L[L[L[L[L{L}L{L[L[L[L[L|P.PX*_+n          ",
  "            +nPoPOP+z,z,;7;Xz,z,z,z,;X;7z,z,P+POP@*R*_+n        ",
  "          +nP#P$P%P&P&P*P=P-;+;m;m;+P-P=P*P&P&P%P;P:*R*_+n      ",
  "          +nP>P,P<P1P2P3P4P5P6P7P7P6P8P4P9P0P1P<PqPwnB*`+n      ",
  "          *TPePrKtPtPyPuPiPpPaPsPsPaPdPfPgPhPjPkPrPl%Vqz*T      ",
  "          *TPzPxPc%B=eeg=lPvPbPnPnPbPm=368,Ta(PMPNPB%V*`+n      ",
  "          +n*_,D=#=$9b@$=%PVPCPZPZPAPS*/,T=%@$9b=$=27t*_+n      ",
  "          +n*TqznB[i=$`IWKerPDPFPFPG:s=%erWK`I=$=#nB*`*T        ",
  "            +n*_qz,D=2&Z+v%B9bPHPJWK*'9b%B+v&Z,q,D*`*T+n        ",
  "              +n*T*_*R,DK.=2%APKPL+b&Z%A=2K.,Dqz*_*T+n          ",
  "                  +n*T*_*`qz7t7t7t7t7t7tqz*`*_*T+n              ",
  "                      +n+n*T*T*T*_*T*T*T*T+n+n                  "
};
