/* XPM */
const char *xpm_tango_status_software_update_urgent[] = {
  // Header (width height colors chars-per-pixel)
  "32 32 261 2",
  
  // Colors (code mode value)
  "+n c #00000001",
  "*_ c #00000003",
  "qz c #00000005",
  "*R c #00000006",
  "7t c #00000007",
  ",D c #00000008",
  "%V c #0000000A",
  ",q c #0000000C",
  "=# c #0000000E",
  "[i c #0000000F",
  "%Z c #00000013",
  "@, c #00000014",
  "=$ c #00000015",
  "`L c #00000018",
  "$^ c #00000019",
  "%B c #0000001A",
  "7e c #0000001B",
  "`I c #0000001C",
  "=@ c #0000001D",
  "9b c #0000001E",
  "=k c #0000001F",
  "a( c #0000002D",
  "=% c #0000002E",
  "=d c #00000037",
  "tD c #00000038",
  "*/ c #0000003C",
  "B% c #0000003D",
  "68 c #0000003E",
  "U{ c #63000062",
  "Yo c #6A00006A",
  "UI c #7B000042",
  "T^ c #80000002",
  "U^ c #82000049",
  "Uc c #93000015",
  "YX c #950000CE",
  "Y. c #950000DC",
  "U} c #960000D3",
  "U| c #960000DB",
  "UA c #9A000019",
  "U/ c #9A0000C4",
  "U_ c #9D0000D2",
  "U` c #9E0000E3",
  "U[ c #9F0000E5",
  "US c #A000009C",
  "UP c #A00000A4",
  "P} c #A2000021",
  "I@ c #A3000027",
  "U9 c #A3000040",
  "IF c #A3000048",
  "P! c #A3000059",
  "R] c #A400001C",
  "I; c #A4000049",
  "PE c #A4000051",
  "Ud c #A4000068",
  "IQ c #A4000070",
  "I] c #A4000078",
  "Iq c #A4000079",
  "P_ c #A4000081",
  "P{ c #A4000089",
  "U# c #A40000A0",
  "U, c #A40000A8",
  "Ij c #A40000A9",
  "I# c #A40000B1",
  "I- c #A40000B9",
  "PP c #A40000BF",
  "PI c #A40000C2",
  "U0 c #A40000CD",
  "Us c #A40000D4",
  "R7 c #A40000FF",
  "PU c #A40101B9",
  "PR c #A40101C1",
  "IG c #A40101D4",
  "IW c #A40101DA",
  "Uv c #A40202ED",
  "IN c #A5000041",
  "I> c #A50101FF",
  "UZ c #A50202F0",
  "I0 c #A50303DF",
  "o; c #A50303FF",
  "I2 c #A50404DA",
  "ym c #A6000017",
  "U< c #A6000039",
  "I[ c #A60505F1",
  "U@ c #A60505F4",
  "U~ c #A60606FE",
  "IX c #A60606FF",
  "IO c #A60707FF",
  "yl c #A7000020",
  "UU c #A70707FD",
  "P~ c #A70909E1",
  "P) c #A70909E6",
  "UQ c #A70909FF",
  "E0 c #A8000023",
  "Ug c #A80404FF",
  "UY c #A80A0AFF",
  "Iu c #A80B0BF4",
  "Ih c #A80B0BF7",
  "Ii c #A80B0BFF",
  "I! c #A90303FF",
  "I' c #A90404FF",
  "U1 c #A90D0DFE",
  "U8 c #A90D0DFF",
  "tE c #AA000006",
  "y5 c #AA000009",
  "4y c #AA00000C",
  "I} c #AA1010FF",
  "P/ c #AA1111FF",
  "P( c #AA1212FF",
  "Ie c #AB0404FF",
  "I+ c #AB1414FA",
  "UV c #AB1414FF",
  "P| c #AB1515F8",
  "Ub c #AB1515FF",
  "IB c #AC1616FF",
  "Uf c #AC1717FF",
  "P] c #AD0404FF",
  "I4 c #AD1818FF",
  "I8 c #AD1A1AFF",
  "IJ c #AF1F1FFF",
  "UL c #AF2020FF",
  "UD c #B00C0CFF",
  "Up c #B02121FF",
  "I1 c #B02222FF",
  "6V c #B02323FF",
  "U) c #B12525FF",
  "y7 c #B20C0CFF",
  "U( c #B22727FF",
  "I$ c #B32B2BFF",
  "I* c #B42C2CFF",
  "U> c #B42E2EFF",
  "IM c #B50B0BFF",
  "U$ c #B52F2FFF",
  "PW c #B53030FF",
  "U: c #B53131FF",
  "Il c #B60B0BFF",
  "Iw c #B63232FF",
  "Ua c #B83737FF",
  "Uq c #B83939FF",
  "I% c #B90909FF",
  "U' c #B93A3AFF",
  "U] c #B93B3BFF",
  "U! c #B93C3CFF",
  "UC c #BA3D3DFF",
  "Ux c #BA3E3EFF",
  "P' c #BA3F3FFF",
  "Ik c #BB4040FF",
  "P[ c #BB4141FF",
  "P` c #BC4343FF",
  "IE c #BE4848FF",
  "U7 c #BE4949FF",
  "IH c #BE4A4AFF",
  "Rc c #BF000004",
  "U+ c #BF4D4DFF",
  "I{ c #C04E4EFF",
  "Uw c #C11A1AFF",
  "I= c #C15252FF",
  "PQ c #C25353FF",
  "PT c #C25454FF",
  "PY c #C25555FF",
  "I: c #C35757FF",
  "I< c #C35858FF",
  "I9 c #C45B5BFF",
  "IK c #C51616FF",
  "IR c #C51717FF",
  "I3 c #C55C5CFF",
  "I. c #C86666FF",
  "I5 c #C91212FF",
  "P^ c #CA6A6AFF",
  "UT c #CE2D2DFF",
  "Ce c #CE2E2EFF",
  "hZ c #CF2B2BFF",
  "m+ c #CF2C2CFF",
  "I| c #D52525FF",
  "tn c #D52626FF",
  "Ip c #D91E1EFF",
  "Io c #DC1A1AFF",
  "U2 c #E43636FF",
  "U6 c #E43838FF",
  "UR c #E54545FF",
  "UE c #E54646FF",
  "UW c #E54747FF",
  "IV c #E92C2CFF",
  "TG c #E92D2DFF",
  "I, c #ED2121FF",
  "k^ c #F04646FF",
  "l# c #F04848FF",
  "I~ c #F33939FF",
  "I` c #F33B3BFF",
  "UF c #F65454FF",
  "UK c #F65656FF",
  "Ir c #F72C2CFF",
  "Iy c #F72D2DFF",
  "7i c #F85353FF",
  "UN c #F85454FF",
  "UB c #F85555FF",
  "UG c #F85656FF",
  "UH c #F85757FF",
  "UJ c #F85858FF",
  "U% c #F94545FF",
  "U; c #F94646FF",
  "Ue c #F94C4CFF",
  "Ur c #F94D4DFF",
  "Ui c #F94E4EFF",
  "Uh c #F95050FF",
  "Uz c #F95151FF",
  "U& c #FA4646FF",
  "k5 c #FA4747FF",
  "U3 c #FA4949FF",
  "U4 c #FA4A4AFF",
  "U5 c #FA4B4BFF",
  "6I c #FA4F4FFF",
  "U- c #FA5353FF",
  "Un c #FA8989FF",
  "Im c #FB3737FF",
  "IT c #FB3D3DFF",
  "I^ c #FB4040FF",
  "I_ c #FB4141FF",
  "U. c #FB4343FF",
  "UO c #FB4444FF",
  "U* c #FB5A5AFF",
  "Ut c #FB8383FF",
  "Uu c #FB9393FF",
  "UM c #FB9F9FFF",
  "Iz c #FC3636FF",
  "In c #FC3737FF",
  "IC c #FC3939FF",
  "ID c #FC3A3AFF",
  "IL c #FC3C3CFF",
  "IY c #FC3D3DFF",
  "Uo c #FC6565FF",
  "53 c #FC6969FF",
  "I) c #FC7676FF",
  "I/ c #FC7777FF",
  "It c #FD3030FF",
  "Ia c #FD3333FF",
  "Ig c #FD3535FF",
  "Ix c #FD3636FF",
  "IP c #FD8383FF",
  "IU c #FD8585FF",
  "IZ c #FD8E8EFF",
  "IS c #FD9494FF",
  "Uj c #FDBEBEFF",
  "Uy c #FDCDCDFF",
  "Um c #FDD5D5FF",
  "I& c #FE2929FF",
  "I6 c #FE2C2CFF",
  "I7 c #FE2D2DFF",
  "Ic c #FE9696FF",
  "Is c #FE9E9EFF",
  "Ib c #FE9F9FFF",
  "If c #FEA7A7FF",
  "Id c #FEAAAAFF",
  "Iv c #FEB3B3FF",
  "IA c #FEBCBCFF",
  "II c #FEC5C5FF",
  "I( c #FECECEFF",
  "UX c #FED6D6FF",
  "U= c #FEDFDFFF",
  "Uk c #FEE1E1FF",
  "Ul c #FEE4E4FF",
  "   c none",
  
  // Image data
  "                                                                ",
  "                                                                ",
  "                                                                ",
  "                            E0PPPIyl                            ",
  "                            PUPYPTPR                            ",
  "                          PEPWPQPTPWP!                          ",
  "                        y5P~P^P/P(P^P)4y                        ",
  "                        P_P`P'P]P]P[P`P{                        ",
  "                      P}P|I.IXIoIoIOI.I+I@                      ",
  "                      I#PQI$I%I&I&I%I*I=I-                      ",
  "                    I;6VI:I>I,I&I&I,I>I<I1PE                    ",
  "                  tEI2I3I4I5I6I6I6I7I5I8I9I0y5                  ",
  "                  IqIwP`IeIrItItItItIyIeP`IwP_                  ",
  "                R]IuI3IiIpIaIsIdIfIgIaIpIiI9IhP}                ",
  "                IjIkPWIlIzIxIcIvIbIzInImIMPWP'I#                ",
  "              INIBPQo;IVICICIZIAISIDIDIDTGo;I=IBIF              ",
  "            RcIGIHIJIKILILILIPIIIUIYIYIYITIRIJIEIWtE            ",
  "            IQ6VP`I!I~I^I^I^I/I(I)I^I^I^I_I`I'P`6VI]            ",
  "          ymI[I{I}I|U.U.U.U.53UXUoU.UOUOUOUOtnI}U+U@R]          ",
  "          U#U$Iwy7U%U&U&U&U&U*U=U-k5k5k5k5k5U;y7U:U>U,          ",
  "        U<U1IHIXU2U3U3U3U3U4U46IU4U4U4U4U4U4U5U6IXU7U8U9        ",
  "      T^U0UqI1UwUeUeUrUrUrUrUtUyUuUrUrUrUiUiUiUiUwUpUaUsRc      ",
  "      UdUfIkUgk^UhUhUhUhUhUhUjUkUlUzUzUzUzUzUzUzl#UgUxIBIQ      ",
  "+n+nUcUvP'UbhZ7i7i7i7i7i7i7iUnUmUMUNUNUNUNUNUNUNUBm+UVUCUZUA+n  ",
  "*_*RUSUpIwUDUFUGUGUGUGUGUHUHUHUHUHUHUHUHUHUJUJUJUJUKUDU$ULUP*R*_",
  "%VUIUUP'UYUTURURURURUEUEUEUEUEUEUEUEUEUWUWUWUWUWUWUWCeUQU!U~U^%V",
  "=$U/ULU(R7R7R7R7R7R7R7R7R7R7R7R7R7R7R7R7R7R7R7R7R7R7R7R7U)IJU_@,",
  "=@U`P/U'UxUxUxUxUCUCUCUCUCUCUCUCUCUCUCU!U!U!U!U!U!U!U]U]UaP/U[`I",
  "%BU{U}U|Y.Y.Y.Y.Y.Y.Y.Y.Y.Y.Y.Y.Y.Y.Y.Y.Y.Y.Y.Y.Y.Y.Y.Y.U|YXYo$^",
  "[i=k=%tD*/B%6868686868686868686868686868686868686868B%*/=da(9b=#",
  "qz,q%Z`L7e7e`I`I`I`I`I`I`I`I`I`I`I`I`I`I`I`I`I`I`I`I7e7e`L%Z,qqz",
  "+n*_qz7t,D,D,D,D,D,D,D,D,D,D,D,D,D,D,D,D,D,D,D,D,D,D,D,D7tqz*_+n"
};
