/* XPM */
const char *xpm_tango_status_user_trash_full[] = {
  // Header (width height colors chars-per-pixel)
  "32 32 705 2",
  
  // Colors (code mode value)
  "*T c #00000002",
  "*_ c #00000003",
  "*` c #00000004",
  "qz c #00000005",
  ",D c #00000008",
  "nB c #00000009",
  "=# c #0000000E",
  "[i c #0000000F",
  "+b c #00000012",
  "=$ c #00000015",
  "+v c #00000016",
  "[~ c #00000017",
  "%B c #0000001A",
  "9b c #0000001E",
  "WK c #00000022",
  "=e c #00000023",
  ":W c #00000025",
  "=l c #00000035",
  ",T c #00000036",
  "sC c #0D0D0028",
  "d> c #0D11003B",
  "sV c #1010002F",
  "d* c #1F23043A",
  "si c #30350535",
  "su c #393E062D",
  "d& c #404607B3",
  "d: c #474D09BC",
  "d- c #495106FF",
  "y6 c #4952091C",
  "yi c #49550015",
  "s= c #4A530537",
  "d; c #4A5308F6",
  "u0 c #4A570726",
  "s~ c #4B520AC6",
  "u7 c #4C530725",
  "s! c #4C5407F6",
  "d= c #4C540AD4",
  "yJ c #4C550439",
  "sZ c #4D5408FB",
  "y9 c #4D5506FF",
  "Y: c #4D5507FF",
  "s* c #4D570535",
  "sB c #4E5508FC",
  "Tt c #4E550DFF",
  "Y3 c #4E5610FF",
  "yE c #4F55062A",
  "Y> c #4F5516FF",
  "yN c #4F56096E",
  "av c #4F5A055E",
  "a! c #4F5A0747",
  "Y& c #505626FF",
  "yu c #50580860",
  "u+ c #50580BF8",
  "ac c #505A0560",
  "Y2 c #51562CFF",
  "y8 c #51580BF9",
  "y0 c #51590CF6",
  "Y; c #525632FF",
  "aQ c #5258074B",
  "yp c #525A0EF8",
  "a5 c #525B0770",
  "y) c #535A0E8E",
  "u8 c #535A0EEF",
  "Y1 c #545841FF",
  "Tu c #545918F1",
  "a4 c #545C0774",
  "p' c #545F0791",
  "7` c #55555524",
  "T% c #555741C4",
  "<$ c #555753FF",
  "YO c #5656523E",
  "Y% c #5656534A",
  "Y$ c #5657548C",
  "B7 c #565854FF",
  "yq c #565D1389",
  "p] c #565E0885",
  "y{ c #565E13E6",
  "u6 c #565E14C9",
  "sy c #565F12F4",
  "sp c #56600FF5",
  "YE c #57575129",
  "Y+ c #575955F3",
  "I$ c #575A56FF",
  "YR c #575C21B9",
  "yM c #575E14DC",
  "uO c #575E14E0",
  "yK c #575F15D9",
  "YA c #585A55FF",
  "<f c #585A56FF",
  "PL c #585B57FF",
  "u# c #585F16C6",
  "yw c #586016B9",
  "y7 c #586016C5",
  "pZ c #58620AAB",
  ">| c #595C58FF",
  "Tk c #595D4BFF",
  "Tf c #595F30F8",
  "Ld c #5A5B58FF",
  "yW c #5A6117F5",
  "pA c #5A640BA4",
  "i# c #5A690011",
  "Y# c #5B5D59FD",
  "y! c #5B5D59FF",
  "YG c #5B5F5EFF",
  "pr c #5B650CC5",
  "iR c #5C660AEB",
  "p@ c #5C660CD9",
  "5` c #5D5F5BFF",
  "YZ c #5D605CFF",
  "Tl c #5D6144FF",
  "i@ c #5D640821",
  "YF c #5D6428F5",
  "ib c #5D6609FA",
  "ie c #5D6709FD",
  "pt c #5D670EBA",
  "un c #5D6B0937",
  "Tj c #5E6059FF",
  "TM c #5E6154FF",
  "iE c #5E670BE3",
  "in c #5E680AF1",
  "T$ c #5F625EFF",
  "ub c #5F69074B",
  "p# c #5F690CCF",
  "iq c #5F6A0BFB",
  "1x c #60606008",
  "[$ c #60615EFF",
  "uW c #60670725",
  "uE c #606A0535",
  "uq c #606D074D",
  "IN c #616360FF",
  "s& c #61681CF1",
  ">8 c #626361FF",
  "(. c #626461FF",
  "Ti c #626932FF",
  "Tv c #626D0DF8",
  "Br c #636561FF",
  "Tb c #636562FF",
  "s- c #636C1CF1",
  "uR c #636D12F1",
  "i+ c #646D10F3",
  "yD c #656762FF",
  "/h c #656764FF",
  ".8 c #656864FF",
  "T7 c #656865FF",
  "iw c #6666000A",
  "yF c #666864FF",
  "~/ c #666865FF",
  "Yy c #666966FF",
  "ug c #666C2FFF",
  "YS c #676766FF",
  "._ c #676A67FF",
  "Tz c #676C3EFF",
  "t% c #686A67FF",
  "PJ c #686B67FF",
  "uQ c #687312F2",
  "yy c #697130F3",
  "i$ c #6B6D69FF",
  "yg c #6B6D6AFF",
  "uf c #6B7231FF",
  "aW c #6B7328F1",
  ".7 c #6C6F6BFF",
  "d% c #6D7531FA",
  "yc c #6E706CFF",
  "^= c #6E716DFF",
  "Y* c #6E716EFF",
  ".6 c #6F726EFF",
  "Td c #6F7270FF",
  "Y@ c #707370FF",
  "um c #707A16F0",
  "YD c #717270FF",
  "a~ c #727A29F1",
  "4I c #737570FF",
  "Y- c #737573FF",
  "Tp c #737774FF",
  "]= c #747671FF",
  "ud c #747C35FF",
  "YY c #757574FF",
  ".l c #757674FF",
  "Tx c #767976FF",
  "Tr c #767A6BFF",
  "uw c #76821BF0",
  "Kf c #777876FF",
  "YT c #777B6AFE",
  "Tm c #777C52FF",
  "ax c #777E36F4",
  "us c #7B8338FF",
  "Tc c #7F8643FF",
  "io c #80893EFF",
  "a3 c #818841FB",
  "ab c #818B39F3",
  "Yf c #838482FF",
  "yB c #848A56F5",
  "ua c #848C3CFF",
  "iX c #848D3EFF",
  "Tn c #858D47FF",
  "sr c #858E3FFF",
  "se c #858E40FF",
  "s$ c #868F41FF",
  "Yp c #878A89FF",
  "sW c #879040FF",
  "sw c #879041FF",
  "s# c #879042FF",
  "s@ c #879043FF",
  "T6 c #888B87FF",
  "sM c #889140FF",
  "aR c #889144FF",
  "Tg c #889240FF",
  "g% c #898A88FF",
  "aT c #899245FF",
  "aY c #899246FF",
  "Yl c #8A8D89FF",
  "Y[ c #8A8F6CFB",
  "p` c #8A904EFF",
  "aU c #8A9247FF",
  "sE c #8A9341FF",
  "sq c #8A9342FF",
  "s+ c #8A9344FF",
  "az c #8A9347FF",
  "al c #8B9348FF",
  "i6 c #8B9441FF",
  "ak c #8B9449FF",
  "iO c #8C9351FF",
  "a1 c #8C954AFF",
  "up c #8C963FFF",
  "aj c #8D954AFF",
  "a< c #8D954BFF",
  "sR c #8D9642FF",
  "aI c #8D9648FF",
  "a, c #8D964CFF",
  "sO c #8E9648FF",
  "p) c #8E964DFF",
  "sm c #8E9743FF",
  "s0 c #8E9744FF",
  "Y< c #8F9290FF",
  "Yx c #8F9392FF",
  "p( c #8F974EFF",
  "p/ c #8F974FFF",
  "a> c #8F984DFF",
  "YC c #909391FF",
  "i8 c #909850FF",
  "sT c #909943FF",
  "a6 c #909947F9",
  "pB c #909951FF",
  "i4 c #909A43FF",
  "YN c #919290FF",
  "pC c #919857FF",
  "pN c #919952FF",
  "s9 c #919A46FF",
  "uJ c #919B43FF",
  "Ya c #929694FF",
  "p^ c #929A50FF",
  "pM c #929A53FF",
  "pq c #929A54FF",
  "ij c #929C45FF",
  "=L c #939393FF",
  "p0 c #939B55FF",
  "sY c #939C44FF",
  "s^ c #939C4DFD",
  "ik c #939D4AFF",
  "=v c #949494FF",
  "pO c #949C57FF",
  "ui c #949D42FF",
  "p9 c #959D56FF",
  "po c #959D58FF",
  "pm c #959E54FF",
  "u{ c #959F46FF",
  "T> c #969999FF",
  "ah c #969D54FF",
  "pe c #969D5DFF",
  "iU c #969E5AFF",
  "sU c #969F45FF",
  "Y` c #979798FF",
  "Yc c #979A98FF",
  "iY c #979F5BFF",
  "u[ c #97A145FF",
  "<q c #989997FF",
  "Te c #989C9DFF",
  "iI c #989F5BFF",
  "i9 c #989F5CFF",
  "p8 c #98A057FF",
  "pX c #98A059FF",
  "ic c #98A05DFF",
  "TN c #98A05EFF",
  "uH c #98A246FF",
  "Y4 c #999E78FC",
  "pw c #99A05EFF",
  "sv c #99A148FF",
  "sI c #99A247FF",
  "Y5 c #9A9E9AFF",
  "Yt c #9A9E9EFF",
  "p+ c #9AA164FF",
  "pV c #9AA260FF",
  "u] c #9AA446FF",
  "i3 c #9AA450FF",
  "Th c #9B9E9EFF",
  "iP c #9BA25CFF",
  "p. c #9BA35BFF",
  "uu c #9BA445FF",
  "uG c #9BA547FF",
  "sc c #9BA54AFF",
  "p_ c #9CA363FF",
  "sn c #9CA456FF",
  "a= c #9CA554FF",
  "sP c #9CA648FF",
  "<h c #9D9E9DFF",
  "Y0 c #9D9F9EFF",
  "Yk c #9DA2A1FF",
  "p[ c #9DA656FF",
  "uF c #9DA748FF",
  "Ym c #9EA2A2FF",
  "iL c #9EA55EFF",
  "a2 c #9EA566FF",
  "sQ c #9EA569FF",
  "i| c #9EA65DFF",
  "s5 c #9EA74DFF",
  "sx c #9EA84BFF",
  "YU c #9FA1A1FF",
  "p7 c #9FA660FF",
  "iT c #9FA668FF",
  "sL c #9FA94AFF",
  "a: c #A0A764FF",
  "d$ c #A0A76CFF",
  "iK c #A0A860FF",
  "i} c #A0A95EFF",
  "uD c #A0AB49FF",
  "is c #A0AB4AFF",
  "kk c #A1A2A0FF",
  "YM c #A1A2A1FF",
  "Y_ c #A1A5A6FF",
  "Ts c #A1A6A6FF",
  "iv c #A1A76CFF",
  "aE c #A1A86BFF",
  "pS c #A1A955FF",
  "s8 c #A1A95DFF",
  "p5 c #A1A95EFF",
  "i0 c #A1A96CFF",
  "s4 c #A1AA4FFF",
  "uy c #A1AB49FF",
  "s% c #A2A96EFF",
  "iJ c #A2AA60FF",
  "sz c #A2AB4DFF",
  "sK c #A2AC4CFF",
  "pE c #A3AC5CFF",
  "uS c #A3AE4AFF",
  "p4 c #A4AC5FFF",
  "sb c #A4AC60FF",
  "a[ c #A4AD53FF",
  "pR c #A4AD5AFF",
  "px c #A4AD5DFF",
  "pW c #A4AD62FF",
  "s3 c #A4AE51FF",
  "u$ c #A5A98DFE",
  "st c #A5AC71FF",
  "a% c #A5AE59FF",
  "s6 c #A5AE60FF",
  "sl c #A5AF50FF",
  "ai c #A5AF58FF",
  "-6 c #A6A6A6FF",
  "ag c #A6AE6DFF",
  "aD c #A6AF56FF",
  "uA c #A6B04BFF",
  "sJ c #A6B04EFF",
  "a- c #A7AE6AFF",
  "sN c #A7AE75FF",
  "p3 c #A7AF60FF",
  "pT c #A7B05CFF",
  "pz c #A7B05FFF",
  "d# c #A8AE76FF",
  "p6 c #A8AF6CFF",
  "af c #A8AF6DFF",
  "s2 c #A8B153FF",
  "py c #A8B15BFF",
  "ut c #A8B24CFF",
  "sk c #A8B251FF",
  "iS c #A8B259FF",
  "d@ c #A9AF76FF",
  "i1 c #A9B163FF",
  "iA c #A9B255FF",
  "au c #A9B259FF",
  "a{ c #A9B261FF",
  "uZ c #A9B34CFF",
  "sH c #A9B34FFF",
  "}K c #AAADADFF",
  "T5 c #AAAEAEFF",
  "To c #AAAFB0FF",
  "aP c #AAB175FF",
  "p2 c #AAB262FF",
  "pl c #AAB360FF",
  "6' c #ABABABFF",
  "Yi c #ABAEACFF",
  "Y) c #ABB0B1FF",
  "ad c #ABB26EFF",
  "d+ c #ABB277FF",
  "pY c #ABB35EFF",
  "pc c #ABB36CFF",
  "i{ c #ABB36DFF",
  "s1 c #ABB455FF",
  "a$ c #ABB45CFF",
  "sj c #ABB553FF",
  "iV c #ABB64DFF",
  "Yq c #ACAFAEFF",
  "pn c #ACB275FF",
  "p1 c #ACB563FF",
  "sG c #ACB651FF",
  "uC c #ACB74DFF",
  "u/ c #ACB74FFF",
  "Y, c #ADAFAEFF",
  "Y8 c #ADB2B1FF",
  "a; c #ADB377FF",
  "dO c #ADB477FF",
  "aF c #ADB567FF",
  "u) c #ADB65AFF",
  "pk c #ADB662FF",
  "i= c #ADB74FFF",
  "pU c #AEB660FF",
  "s< c #AEB757FF",
  "a# c #AEB75EFF",
  "p$ c #AEB75FFF",
  "u^ c #AEB84EFF",
  "iB c #AEB94EFF",
  "YI c #AFB3B4FF",
  "do c #AFB578FF",
  "a* c #AFB672FF",
  "sh c #AFB855FF",
  "p< c #AFB865FF",
  "uV c #AFB94EFF",
  "sF c #AFB953FF",
  "iy c #AFBA4EFF",
  "ur c #AFBA4FFF",
  "a_ c #AFBA59FF",
  ">F c #B0B0B0FF",
  "Y= c #B0B4B4FF",
  "TX c #B0B5B6FF",
  "ap c #B0B870FF",
  "pj c #B0B964FF",
  "i* c #B0BA4FFF",
  "u( c #B0BA5DFF",
  "a@ c #B0BA5FFF",
  "dX c #B1B879FF",
  "u~ c #B1BB4FFF",
  "sg c #B1BB56FF",
  "s, c #B1BB58FF",
  "iC c #B1BB5EFF",
  "p, c #B1BB66FF",
  "iN c #B1BC4FFF",
  "<# c #B2B2B2FF",
  "T. c #B2B6B7FF",
  "Y( c #B2B7B8FF",
  "so c #B2B880FF",
  "p~ c #B2B981FF",
  "i_ c #B2BA68FF",
  "i> c #B2BB69FF",
  "uB c #B2BC4FFF",
  "sD c #B2BC55FF",
  "a` c #B2BC63FF",
  "it c #B2BD4FFF",
  "d. c #B3BA7AFF",
  "a) c #B3BD5BFF",
  "i& c #B3BE50FF",
  "s> c #B3BE5AFF",
  ";8 c #B4B4B4FF",
  "pP c #B4BD65FF",
  "i) c #B4BD6BFF",
  "sf c #B4BE58FF",
  "iu c #B4BE5EFF",
  "aC c #B4BE62FF",
  "iW c #B4BE63FF",
  "uN c #B4BF50FF",
  "YP c #B5BABBFF",
  "Y^ c #B5BABCFF",
  "a& c #B5BC7AFF",
  "s| c #B5BC7BFF",
  "i2 c #B5BC7CFF",
  "aV c #B5BF5FFF",
  "ue c #B5C051FF",
  "p& c #B5C052FF",
  "sS c #B5C057FF",
  "p! c #B6BC85FF",
  "i: c #B6BF6DFF",
  "ia c #B6BF6FFF",
  "a( c #B6C05DFF",
  "iM c #B6C153FF",
  "pv c #B7BD83FF",
  "s} c #B7BE7CFF",
  "uM c #B7C155FF",
  "s: c #B7C15BFF",
  "aw c #B7C161FF",
  "iQ c #B7C256FF",
  "sd c #B7C25AFF",
  "|o c #B8BDBEFF",
  "pQ c #B8BE85FF",
  "pb c #B8BE87FF",
  "iH c #B8BF83FF",
  "pI c #B8C071FF",
  "ar c #B8C16BFF",
  "aB c #B8C260FF",
  "Y/ c #B9BDBEFF",
  "s{ c #B9C07CFF",
  "im c #B9C266FF",
  "i( c #B9C271FF",
  "u! c #B9C35AFF",
  "a/ c #B9C35FFF",
  "ss c #B9C45CFF",
  "YJ c #BABEBFFF",
  "as c #BAC187FF",
  "p% c #BAC45CFF",
  "p* c #BAC45DFF",
  "aq c #BAC463FF",
  "Yn c #BBBFC0FF",
  "[| c #BBC0C1FF",
  "Y~ c #BBC1C1FF",
  "s[ c #BBC27DFF",
  "pi c #BBC55FFF",
  "i% c #BBC560FF",
  "aN c #BBC562FF",
  "Yz c #BCC0AEFF",
  "YL c #BCC0C1FF",
  "u' c #BCC381FF",
  "iZ c #BCC47AFF",
  "a+ c #BCC574FF",
  "pu c #BCC661FF",
  "aX c #BCC667FF",
  "}P c #BDBEBFFF",
  "Y| c #BDC2C3FF",
  "s] c #BDC47FFF",
  "i` c #BDC481FF",
  "ir c #BDC666FF",
  "p= c #BDC668FF",
  "ao c #BDC66DFF",
  "i- c #BDC675FF",
  "aM c #BDC763FF",
  "am c #BDC764FF",
  "a0 c #BDC765FF",
  "1% c #BEBEBEFF",
  "aZ c #BEC577FF",
  "a9 c #BEC866FF",
  "a8 c #BEC867FF",
  "pH c #BEC86AFF",
  "YV c #BFC4C5FF",
  "a' c #BFC57FFF",
  "ip c #BFC77FFF",
  "a. c #BFC969FF",
  "p| c #BFC96AFF",
  "Yj c #C0C5C6FF",
  "ih c #C0C690FF",
  "s' c #C0C77FFF",
  "a] c #C0C785FF",
  "i; c #C0C87FFF",
  "p} c #C0C96AFF",
  "pF c #C0C96BFF",
  "pp c #C0CA6CFF",
  "pa c #C0CA6DFF",
  ";U c #C1C1C1FF",
  "pG c #C1CA6CFF",
  "ps c #C1CA73FF",
  "YK c #C2C7C8FF",
  "ii c #C2C97FFF",
  "s` c #C2C981FF",
  "aS c #C2C987FF",
  "p> c #C2CA84FF",
  "i! c #C2CB74FF",
  ":* c #C3C3C3FF",
  "T* c #C3C8C8FF",
  "i' c #C3C990FF",
  "yL c #C4C9B5FF",
  "ay c #C4CA8AFF",
  "aA c #C4CB89FF",
  "pD c #C4CC73FF",
  "s_ c #C4CC82FF",
  "YB c #C5CACBFF",
  "T& c #C6CABDFF",
  "Ye c #C6CACAFF",
  "Tw c #C6CBCDFF",
  "at c #C6CC8BFF",
  "id c #C6CC93FF",
  "iD c #C6CC95FF",
  "s) c #C7CE83FF",
  "ae c #C7CE87FF",
  "pJ c #C7CF83FF",
  "sA c #C7D080FF",
  "s/ c #C8D182FF",
  "}/ c #C9CACAFF",
  "YQ c #C9CCCDFF",
  "sX c #C9CDA3FF",
  "T< c #C9CDCDFF",
  "i] c #C9CE9DFF",
  "Yh c #C9CECFFF",
  "s( c #C9D184FF",
  "s7 c #CACEA1FF",
  "aL c #CACEA6FF",
  "a} c #CACFA0FF",
  "Y} c #CACFD0FF",
  "p{ c #CAD182FF",
  "+a c #CBCBCBFF",
  "ig c #CBD0A2FF",
  "aK c #CBD0A6FF",
  "T4 c #CBD0D1FF",
  "Ta c #CBD0D2FF",
  "ph c #CBD196FF",
  "a7 c #CBD283FF",
  "an c #CBD385FF",
  "s. c #CCD0A6FF",
  "}) c #CCD1D2FF",
  "u_ c #CCD29CFF",
  "a^ c #CCD387FF",
  "Y9 c #CDD0D0FF",
  "aJ c #CDD1A7FF",
  "Yg c #CDD1D1FF",
  "u` c #CDD29FFF",
  "if c #CDD2A3FF",
  "a| c #CDD2A7FF",
  "TO c #CDD2D2FF",
  "Y! c #CDD2D3FF",
  "T: c #CDD2D4FF",
  "s; c #CDD489FF",
  "sa c #CDD58BFF",
  "aG c #CED2A5FF",
  "i< c #CED3A3FF",
  "aH c #CED3A8FF",
  "aa c #CED3A9FF",
  "FA c #CFD3D3FF",
  "u1 c #CFD3D4FF",
  "i, c #CFD4A4FF",
  "i[ c #CFD4A9FF",
  "Tq c #CFD4D5FF",
  "i~ c #CFD593FF",
  "Y' c #D0D2D3FF",
  "u< c #D0D3D4FF",
  "iF c #D0D4A9FF",
  "iG c #D0D4AAFF",
  "u, c #D0D4D5FF",
  "u> c #D1D4D5FF",
  "u: c #D1D5D6FF",
  ",V c #D2D2D2FF",
  "u; c #D2D5D6FF",
  "u- c #D2D6D7FF",
  "][ c #D3D6D7FF",
  "u= c #D3D7D8FF",
  "Yr c #D3D8D9FF",
  "Ty c #D3D8DAFF",
  "i^ c #D3D9A0FF",
  "pg c #D3D9A6FF",
  "u* c #D4D7D8FF",
  "u& c #D4D8D9FF",
  "pL c #D4D9A4FF",
  "T3 c #D4D9DAFF",
  "Y] c #D5D7D8FF",
  "u% c #D5D8D9FF",
  "p- c #D6DBA3FF",
  "T0 c #D6DBDCFF",
  "Y7 c #D7DCDCFF",
  "T; c #D7DCDDFF",
  ",B c #D8D8D8FF",
  "Y{ c #D8DCDCFF",
  "i/ c #D8DDAEFF",
  "T# c #D8DDDEFF",
  ",b c #D9D9D9FF",
  "T8 c #D9DEE0FF",
  ",m c #DADADAFF",
  "YH c #DADCDCFF",
  "aO c #DADFB0FF",
  ",v c #DBDBDBFF",
  "Yd c #DBDFE0FF",
  "p: c #DBE0B4FF",
  "T9 c #DBE0E2FF",
  "pf c #DCE0B4FF",
  "Y6 c #DCE0E0FF",
  "pd c #DCE1B2FF",
  "pK c #DCE1B3FF",
  "T2 c #DCE1E2FF",
  "p; c #DDE1B5FF",
  "Ys c #DDE2E3FF",
  "=[ c #DEDEDEFF",
  "={ c #DFDFDFFF",
  "yt c #E0E5DFFF",
  "T- c #E0E5E6FF",
  "+Z c #E1E1E1FF",
  "T@ c #E2E7E8FF",
  "T1 c #E3E8E9FF",
  "Yv c #E4E9EAFF",
  ";3 c #E5E5E5FF",
  ";b c #E6E6E6FF",
  "dN c #E7EBECFF",
  "u@ c #E8ECE9FF",
  "T= c #E9EEEFFF",
  "4& c #EAEDEEFF",
  "YW c #EAEEEEFF",
  "Yb c #EAEEEFFF",
  ":, c #EBEBEBFF",
  "Yw c #EBEEEFFF",
  "Yu c #EBEFF0FF",
  "d) c #EBF0F2FF",
  ":> c #ECECECFF",
  "dm c #EDF2F3FF",
  "T, c #EEF2F3FF",
  "dD c #EFF3F4FF",
  "T+ c #F0F5F6FF",
  "+E c #F1F2F3FF",
  ";' c #F2F2F2FF",
  "dG c #F3F5F5FF",
  "ZL c #F7F8F8FF",
  ";R c #F8F8F8FF",
  ";f c #FEFEFEFF",
  "1U c #FFFFFFFF",
  "   c none",
  
  // Image data
  "              YOY+Y@Y#7`      Y$PJ<$Y%1x                        ",
  "    y6y7y8y9Y&Y*Y=Y-Y;Y:y9y9y9Y>[$Y,Y<i$Y1Y2Y3y9y9y9y9y0yq      ",
  "    ywY4Y5Y6.8Y7Y8ygdNY9Y0YqYw4&YeycYr})[|YtYyYudDdDdDytyyyu    ",
  "  yiypYiYp^=YaYsYd}K>|.l<qYfLdy!IN<$YgYhYjYkPL4I]=yD5`YlYzyM    ",
  "  yNyBYxYcYvYbZL+EYnYm-6>F>FyFYM<hYNu&YBYV|oYCYZBrYAYSYDt%YFyJ  ",
  "  yKyLYG.7dG1U;f;RYHYJ=L,B=[:*;8<#FAYhYKYLYPYIYU>8YY=v6'kkYTYRYE",
  "yEyWYWB7,b1U1U;R;':,;3+Z=[,m+a;UYQY!Y~Y^Y/Y(Y)Y_Y`}PY'Y]<qBrI$<$",
  "y)Y[<fg%1U1U;R;':>;b={,v,V1%1%}/Y{Y}Y|T.TXYIToTOT+d)T@T#[|~/T$T%",
  "y{T&<$<$<$<$<$<$<$<$<$<$<$<$<$<$<$<$<$<$<$<$(.T*dmT=T-T;T:T><$uO",
  "u+u@dDdDdDdDdDdDdDdDdDdDdDdDdDdDdDdDdDdDdDdDT,KfT<T1T2T3T4T5T6u+",
  "u#u$u%u&u&u*u*u=u=][u-u;u;u;u:u:u>u>u,u,u<u<u1T7T8T9T0TqTwTeTru6",
  "u7u8y9y9y9y9y9y9y9y9y9y9y9y9y9y9y9y9y9y9y9y9Tt.6T0TyTqYhYV._Tuu0",
  "  uquwueueueueueueueueurutuyuuuiupuausudufugTiTpY!TaYVTsTdTfub  ",
  "  unumuMueueueueueueuNuBuVuCuZuAuSuDuFuGuHuJTg/hThTjTkTlTzuRuE  ",
  "  uWuQu!ueueueueueueuNu~u^u/u(u)u_u`u'u]u[u{uJ<fTxTciXioiOi+i@  ",
  "  i#Tvi%ueueueueueuei&i*i=i-i;i:i>i,i<i1i2i3i4<$TbTni8i9i0iqiw  ",
  "    ieirueueueueueueitiyiuiiipiaisidifigihijikTmTMTNici9ivib    ",
  "    inimiMueueueueuNiNiBiViCiZiAiSiDiFiGiHiJiKiLiPiIiUiYiTiR    ",
  "    iEiWiQueueueuei!i~i^i/i(i)i_i`i'i]i[i{i}i|p.pXpopOiYp+p@    ",
  "    p#p$p%ueuep&p*p=p-p;p:p>p,p<p1p2p3p4p5p6p7p8p9p0pqpwpepr    ",
  "    ptpypuiMpipppapspdpfpgphpjpkplpzpxpcpvpbpnpmpMpNpBpVpCpZ    ",
  "    pApSpDpFpGpppHpJpKpLpPpIpUpYpTpRpEpWpQp!p~p^p/p(p)p_p`p'    ",
  "    p]p[p{p}p|a.aXaoaOa+a@a#a$pya%a&a*a=a-a;a:a>a,a<a1a2a3a4    ",
  "    a5a6a7a8a9a0aqawaearatayauaiapaaasadafagahajakalaziTaxac    ",
  "    avabanamaMaNaBaVaCaZaAaSaDaFaGaHaJaKaLaPaIaUaYaTaRaEaWaQ    ",
  "    a!a~a^pupua/a(a)a_a`a'a]a[a{a}a|s.sXsosOs+aRs@s#s$s%s&s*    ",
  "    s=s-s;pip*s:s>s,s<s1s2s3s4s5s6s7s8s9s0sqswsesrsrsrstsysu*T  ",
  "  qzsispsasssdsfsgshsjskslszsxscsvsbsnsmi6sMsrsrsrsrsesNsBsV[~*`",
  "  [isCsZsAi%sSsDsFsGsHsJsKsLsPsIsUsYsTsRsEsWsrsrsrsep)sQs!,T=e=#",
  "  =#WKs~s^s/s(s)s_s`s's]s[s{s}s|d.dXdodOd+d@d#d#d#sNd$d%d&=lWKnB",
  "  *_=$d*d=d-d-d-d-d-d-d-d-d-d-d-d-d-d-d-d-d-d-d-d-d-d;d:d>:W[i  ",
  "      ,D+b%B9b9b9b9b9b9b9b9b9b9b9b9b9b9b9b9b9b9b9b9b%B+v=#*_    "
};
