/* XPM */
const char *xpm_tango_status_weather_severe_alert[] = {
  // Header (width height colors chars-per-pixel)
  "32 32 392 2",
  
  // Colors (code mode value)
  "%J c #000000FF",
  "cy c #0F0F0FFF",
  "J~ c #1E1E1EFF",
  "F7 c #4D4D4D0A",
  "2t c #4E4E4E0D",
  "/C c #50000010",
  "/E c #5100003F",
  "/[ c #510000FF",
  "33 c #51515113",
  "^Z c #515D5116",
  "^i c #525A521F",
  ",C c #525B521C",
  "kg c #525C5219",
  "/' c #53000062",
  "d- c #5359532E",
  "/b c #54000076",
  "/l c #545450FF",
  "^- c #54565282",
  "^w c #54575446",
  "^f c #5457544F",
  "^> c #545853A3",
  "hN c #5500001E",
  "/{ c #5500007B",
  "j* c #550000F2",
  "hM c #550000F7",
  "#P c #55555503",
  ">B c #55555527",
  "/& c #55565394",
  "^q c #555654B1",
  "^5 c #555654B4",
  "^R c #55575301",
  "*+ c #55575326",
  "^M c #55575327",
  "/r c #55575332",
  "/g c #55575336",
  "^z c #55575341",
  "^A c #5557536C",
  "^4 c #5557537E",
  "^6 c #55575381",
  ",Q c #55575384",
  "^P c #55575387",
  "^x c #555753AF",
  "ku c #555753B2",
  "&_ c #555753C1",
  "^; c #555753CA",
  "^C c #555753D8",
  "*V c #555753DA",
  "&/ c #555753E7",
  "/* c #555753F9",
  "/k c #555753FF",
  "^: c #555754E8",
  "^< c #55595148",
  "/` c #560000F3",
  "/Y c #560000F5",
  "/z c #560706FF",
  "^, c #56565359",
  "^7 c #56565368",
  "^g c #565752A1",
  "^T c #565853E2",
  "/U c #565853F9",
  "^c c #56585474",
  "^l c #5658547A",
  "/e c #5658547D",
  "^) c #56585481",
  "^3 c #565954C9",
  "/H c #57000090",
  "/] c #570000EE",
  "jy c #570303FF",
  "/I c #571615FF",
  "^E c #575955AC",
  "/o c #575955DF",
  "^u c #575955EB",
  "^j c #575955ED",
  "/G c #575955F4",
  ",z c #575955FA",
  "^( c #575955FE",
  "<8 c #575955FF",
  "/W c #580000A8",
  "/^ c #580000D7",
  "/S c #580404FF",
  "j3 c #580505FF",
  "/c c #580606FF",
  "/j c #585A56CA",
  "/2 c #585A56CC",
  "/f c #585A56DD",
  "^y c #585A56ED",
  "<f c #585A56FF",
  "^e c #585A57E8",
  "^p c #595B57F0",
  "^' c #5A0505FF",
  "/$ c #5A100FFF",
  "^d c #5A5C58F7",
  "/1 c #5A5C58FD",
  "<J c #5A5C58FF",
  "// c #5B0000D3",
  "^| c #5B0303FF",
  "/t c #5B5D59F4",
  "^m c #5C5E59FF",
  "yQ c #5C5E5AFF",
  "/0 c #5D0D0DFF",
  "/5 c #5D1413FF",
  "<3 c #5D5D5D0B",
  "/R c #5E0000F4",
  "^K c #5E2D2BFF",
  "Bu c #5E605CFF",
  "^N c #5F615DF5",
  "Bd c #5F615DFF",
  "/- c #600606FF",
  "^/ c #602121FF",
  "Bi c #60625EFF",
  "^8 c #61635FF8",
  "^J c #620505FF",
  "^H c #620707FF",
  "^1 c #626461F9",
  "/% c #626560FE",
  "/O c #63201FFF",
  "77 c #650404FF",
  "(> c #656663FF",
  "gG c #656763FF",
  "L~ c #666863FF",
  "yF c #666864FF",
  "^v c #676965F5",
  "/X c #686A66FC",
  "BG c #686A66FF",
  "/i c #690706FF",
  "h$ c #696B67FF",
  "^G c #696B68FF",
  "/B c #6A3634FF",
  "G( c #6A6B68FF",
  "^L c #6A6C67FF",
  "yl c #6A6C68FF",
  "Kt c #6A6C69FF",
  "^~ c #6B3130FF",
  "i$ c #6B6D69FF",
  "^t c #6C6E6BFF",
  "5l c #6D6F6BFF",
  "B= c #6F716DFF",
  "}g c #71726FFF",
  "/n c #730303FD",
  "^V c #735C59FF",
  "4I c #737570FF",
  "BM c #737571FF",
  "/F c #757772FE",
  "/s c #760606FF",
  "/V c #767873FE",
  ".! c #767873FF",
  "/u c #775B58FF",
  "/d c #78514FFF",
  "^Y c #786E6BFF",
  "/= c #796561FF",
  ".Q c #797B76FF",
  "^F c #7A4D4CFF",
  "/. c #7A6866FF",
  "^s c #7A7B78FF",
  "zv c #7A7C78FF",
  "*@ c #7B7C78FF",
  ".A c #7B7D79FF",
  "/w c #7B7D7AFF",
  "u_ c #7D7F7AFF",
  "yb c #7D7F7BFF",
  "/D c #7F7571FF",
  "5D c #7F817DFF",
  "*O c #80817DFF",
  "/J c #820000F6",
  "/< c #826764FF",
  "^B c #826D69FF",
  "5g c #82847FFF",
  "/v c #837F7AFF",
  "/N c #840303FF",
  "W$ c #848681FF",
  "W> c #858782FF",
  "^_ c #858783F7",
  "^` c #867976FF",
  "^k c #868884FF",
  "B3 c #878886FF",
  "g, c #878984FF",
  "kd c #878985FF",
  "eB c #888A85FF",
  "]R c #898B86FF",
  "5@ c #8A8C87FF",
  "v+ c #8A8C88FF",
  "c2 c #8A8C89FF",
  "u/ c #8B0202FF",
  "B4 c #8B8C89FF",
  "=H c #8B8D88FF",
  "3V c #8D8F8AFF",
  "^2 c #8E908DFF",
  "/Q c #8F0000FA",
  "ZE c #8F908CFF",
  "ga c #8F908DFF",
  "ji c #8F918CFF",
  "') c #8F918DFF",
  "u( c #900101FF",
  "^h c #90908FFF",
  "B2 c #90918FFF",
  "YN c #919290FF",
  "t< c #91938EFF",
  "d] c #91938FFF",
  "h@ c #929490FF",
  "/P c #940100FF",
  "^U c #948C89FF",
  "~_ c #949592FF",
  "j8 c #949691FF",
  "5h c #949692FF",
  "Lh c #959692FF",
  "^W c #959794FB",
  "2X c #969793FF",
  "^r c #969794FF",
  "k0 c #969893FF",
  "L& c #969894FF",
  "4d c #979994FF",
  "ky c #979995FF",
  "=G c #989A95FF",
  "Z( c #989A96FF",
  "/+ c #990101FF",
  "1c c #999B97FF",
  "kp c #9A9B97FF",
  "t, c #9A9C98FF",
  "/4 c #9A9D98FF",
  "V* c #9B9B99FF",
  "^S c #9B9D99F8",
  "t$ c #9B9D99FF",
  "5s c #9C9D99FF",
  "/3 c #9C9D9AFE",
  "'K c #9C9E99FF",
  ":g c #9C9E9AFF",
  "eQ c #9D9E9AFF",
  "<A c #9D9E9CFF",
  ":i c #9D9F9BFF",
  "hO c #9E9F9BFF",
  "5w c #9E9F9CFF",
  "]J c #9EA09BFF",
  "gE c #9EA09CFF",
  "/q c #9F9E9AFF",
  "tt c #9FA09CFF",
  "/y c #9FA09DFE",
  ":M c #9FA19DFF",
  "[l c #A0A19DFF",
  "/# c #A10000FF",
  "kk c #A1A2A0FF",
  "t- c #A1A39FFF",
  "1z c #A2A39FFF",
  "31 c #A2A3A0FF",
  "=0 c #A2A49FFF",
  "/( c #A30000FF",
  "ho c #A3A4A0FF",
  "R7 c #A40000FF",
  "^n c #A4A5A1FF",
  "Q1 c #A4A5A2FF",
  "Bh c #A4A5A3FF",
  "j5 c #A4A6A2FF",
  "/6 c #A50000FF",
  "e[ c #A5A6A2FF",
  ")= c #A5A6A3FF",
  "ZM c #A5A7A3FF",
  "^! c #A5A8A4FF",
  "WY c #A6A7A3FF",
  "1< c #A6A7A4FF",
  "hX c #A6A8A4FF",
  "^I c #A7A8A5FE",
  "L` c #A7A8A5FF",
  "^0 c #A8A9A5FF",
  "LR c #A8A9A6FF",
  "34 c #A8AAA6FF",
  "56 c #A9ABA7FF",
  "KU c #AAABA7FF",
  "4Q c #AAABA8FF",
  "^D c #ABABA8FF",
  "]i c #ABACA9FF",
  "(s c #ABACAAFF",
  "35 c #ABADA9FF",
  "(/ c #ADAEABFF",
  "/h c #ADAFABFF",
  ")w c #ADB0ACFF",
  "Vk c #AEAEABFF",
  "^b c #AEAFACFF",
  "hi c #AEAFADFF",
  ",B c #AEB0ACFF",
  "/9 c #AF0000FF",
  "3T c #AFB0ADFF",
  ")q c #AFB1AEFF",
  "h` c #B00000FF",
  "KN c #B0B1ADFF",
  "j9 c #B0B1AFFF",
  "2r c #B1B2AFFF",
  "(V c #B1B3AFFF",
  "]a c #B2B3B0FF",
  "<$ c #B2B3B1FF",
  "<{ c #B3B4B1FF",
  "}7 c #B3B5B1FF",
  "Bw c #B4B4B2FF",
  "jl c #B50000FF",
  "W3 c #B5B6B3FF",
  "t= c #B6B7B4FF",
  "^a c #B7B7B5FF",
  ",/ c #B8B8B6FF",
  "t; c #B8B9B7FF",
  "B8 c #B8B9B8FF",
  "yU c #B9BAB7FF",
  "8< c #BA0000FF",
  "Kp c #BABBB8FF",
  "eW c #BABBB9FF",
  "^9 c #BABCB9FF",
  "V9 c #BBBBB8FF",
  "wh c #BBBCB9FF",
  "|; c #BBBCBAFF",
  "Bm c #BCBCBAFF",
  "2w c #BCBDBAFF",
  "Bv c #BDBDBBFF",
  "c] c #BDBEBBFF",
  "hn c #BDBEBCFF",
  "!1 c #BEBFBCFF",
  "k9 c #BEBFBEFF",
  "<i c #BEC0BDFF",
  "rK c #BFC0BDFF",
  "wS c #C0C1BEFF",
  "8> c #C10000FF",
  "fn c #C1C2BFFF",
  "|= c #C1C2C0FF",
  "8` c #C20000FF",
  "8G c #C30000FF",
  "|* c #C3C4C2FF",
  "3h c #C5C6C4FF",
  "^] c #C60202FF",
  "<u c #C6C7C5FF",
  "rA c #C7C8C6FF",
  "^} c #C90101FF",
  "9% c #C90303FF",
  "ks c #C9CAC8FF",
  "3; c #CBCBCAFF",
  "^Q c #CBCCC9FF",
  "me c #CC0404FF",
  "/; c #CC0808FF",
  "BH c #CCCCCBFF",
  "y& c #CD0303FF",
  "/, c #CD0909FF",
  "jO c #CD0E0EFF",
  "/_ c #CE0E0EFF",
  "/) c #CE0F0FFF",
  "m3 c #CF0F0FFF",
  "yv c #CFCFCDFF",
  "yM c #CFCFCEFF",
  "t[ c #D01313FF",
  "m| c #D11717FF",
  "mT c #D32222FF",
  "n) c #D42A2AFF",
  "/~ c #D54E4EFF",
  "#0 c #D5D5D4FF",
  "^^ c #D63535FF",
  "/L c #D64242FF",
  "6A c #D73A3AFF",
  "/! c #D83F3FFF",
  "tH c #DE5B5BFF",
  "/@ c #DE5D5DFF",
  "+A c #E2E2E2FF",
  "/7 c #E37676FF",
  "/8 c #E47A7AFF",
  "&I c #E4E4E4FF",
  "rP c #E6C2C2FF",
  "tW c #E88E8EFF",
  ":# c #E8E8E8FF",
  ":2 c #E9E9E9FF",
  "/x c #EA9797FF",
  "/A c #EBB1B1FF",
  ":, c #EBEBEBFF",
  "/Z c #EDA7A7FF",
  ";h c #EDEDEDFF",
  ":< c #EEEEEEFF",
  ";A c #EFEFEFFF",
  ";T c #F0F0F0FF",
  ";` c #F1F1F1FF",
  "/T c #F2C0C0FF",
  ";' c #F2F2F2FF",
  "^{ c #F4CACAFF",
  ":3 c #F4F4F4FF",
  "^[ c #F5CECEFF",
  "!r c #F6F6F6FF",
  "/: c #F8E0E0FF",
  "/> c #F8E1E1FF",
  ";R c #F8F8F8FF",
  ":v c #F9F9F9FF",
  ":5 c #FAFAFAFF",
  "/p c #FBEFEFFF",
  "/a c #FBF1F1FF",
  ";Q c #FBFBFBFF",
  "/M c #FCFAFAFF",
  ";7 c #FCFCFCFF",
  "/m c #FDF8F8FF",
  "=q c #FDFDFDFF",
  "/K c #FEFDFDFF",
  ";f c #FEFEFEFF",
  "   c none",
  
  // Image data
  "                                                                ",
  "                          d-^-^;^:^>^,2t                        ",
  "                        ^<^1B3Bhhi^2B=^3F7                      ",
  "            33^4^5&_^6^7^8t;^9,/(V^01<5D^q#P<3                  ",
  "          ^w^e~_B8k9^r^t(sBv|;]a34tt2Xt$h$^yBi^uku>B            ",
  "        ^i^p|*yvrK^a)qKp<ic]<{KU[lL&3V]R<A5wV*YN^s^d^f          ",
  "        ^gkkyM|=5h5l<8BGB4<{Vk35j5k0eB4d(V/h1<:i^h5D^jkg        ",
  "        *VBH|=')}g)=yUt,^GB22wW33TLRgE)w/hZM]JL&ZE^kG(^l        ",
  "      ^z,zKtybBueWV9Bmj9)=yQ.A(>B=ZE:gky31:gk0ZEeBkdBM^x        ",
  "    ^c^v<$3hL`Q1whyU^b^n=0v+5gc2*@^m.QzvyF<8gG.!g,eByb&/,C      ",
  "  ^M^N#0|*<{KN^9Kp!1Bwhoj8e[]i^0^B^V<fi$)=yUt,h$4IeBeB*O^C^Z    ",
  "  ^A^S3;]a1<4Qfn!1t=^b1<eQ^D34^F^H^J^KgaV9Bmj9)=<J^LBdL~yl,Q    ",
  "  ^P^I2wZM:MwS|;}735^n5sZ(k0^Uj38>8`jy^YyU^b^n=0v+5gc2*@<J^T    ",
  "^R^E^W^Qkpj5yU2r56t-'K^!hot,^~u/6A^^u(^/c]Bwhoj8e[]i^0k05g^(*+  ",
  "^)^_ks|;1<WY3TL`tt4dhO1zkp^`^'^]^[^{^}^|/.^b1<eQ^D34t-1c]R/X^A  ",
  "/orAhn,B:i4dj5eQLh3V:g1cd]/O/+/@;f;ftH/#/$^n5sZ(k0:iL&jig,/%/&  ",
  "/*<u]a:MZE]R=Gh@5@eBjit</=/-/;/:;f;f/>/,77/<^!hot,h@=HeBW$/1^E^R",
  "/2/3k9/4g,eB]ReBeBeBeBg,/5/6/7;fJ~cy;A/8/9/0/qkph@5@eBeB/w5g^N/e",
  "/r/t/yyUKp<{(/hX[l1ch@/u/it[/p;fcy%J:</am|/s/dd]]ReBeBeBkdeBu_/f",
  "  /g/j/*/k/k/k/k/k/k/l/zh`tW;f;fcy%J:<;f/x8</c/veBeBeBeBkdeBW$/*",
  "                    /b/nmT/m;f;fcy%J:<;f/Mn)/N/BeBeBeBeBkdeB/V/2",
  "                  /Cj*8</Z;f;f;f;A:<;Q:5;R/A8G/S/DeBeBeBW>/F/G/r",
  "                  /H/J^^/K;f;f=qJ~cy:2!r:3;'/L/P/I/k/k/k/U/j/g  ",
  "                hN/Y8>/T;f;7;Q:vcy%J&I;`;T:<rP9%/R/E            ",
  "                /W/Q/!;7:5;R!r:3&I+A:<;h:,:2:#/~R7/^            ",
  "                ///(y&m3m3m3/)/)/)/)/)/)/_/_jOmejl/`            ",
  "                /'/]/[/[/[/[/[/[/[/[/[/[/[/[/[/[hM/{            ",
  "                                                                ",
  "                                                                ",
  "                                                                ",
  "                                                                ",
  "                                                                "
};
