/* XPM */
const char *xpm_tango_status_weather_showers[] = {
  // Header (width height colors chars-per-pixel)
  "32 32 429 2",
  
  // Colors (code mode value)
  "*o c #246DB607",
  "g( c #3464A54F",
  "2} c #3465A4FF",
  ")) c #3468A43B",
  "g} c #3561A71D",
  "_> c #3562A522",
  "_s c #3566A4FC",
  "_p c #3664A73D",
  "8P c #3666A5FF",
  "Wn c #3667A5FF",
  "_a c #3667A6D9",
  "_@ c #3669A75A",
  "NJ c #366BA113",
  "_f c #3769A838",
  "_# c #376CA77D",
  "gM c #3969A6FF",
  "_7 c #396BA786",
  "$Z c #3A69A6FF",
  "_w c #3A6BA7E0",
  "_d c #3A6BA8D4",
  "qY c #3B629D0D",
  "e8 c #3B6AA7FF",
  "_* c #3B6AA9C7",
  ")} c #3B6BA9E5",
  "W- c #3C6BA8FF",
  ")Q c #3D6BA9AB",
  "wj c #3D6CA8FF",
  "_: c #3D6EABEA",
  "-6 c #3E6CA8FF",
  "_, c #4070ACC2",
  "BI c #4080BF04",
  "_e c #4270ACEA",
  "_i c #4274ADEA",
  ")| c #4B78B0DF",
  "_+ c #4B7BB3EF",
  "^i c #525A521F",
  ",C c #525B521C",
  ")% c #53585334",
  "d@ c #53585337",
  "(4 c #5359532B",
  "(b c #5457526D",
  "(O c #54575270",
  "(& c #5458539A",
  "(0 c #545853A9",
  ")I c #545A5A82",
  "#P c #55555503",
  "Kw c #5555550F",
  "Ez c #55555521",
  "(3 c #55555536",
  "^A c #5557536C",
  "^P c #55575387",
  "(2 c #555753B8",
  "(d c #555753B9",
  "($ c #555753C2",
  "(X c #555753D1",
  "/| c #555753E4",
  "(u c #555753EA",
  "(. c #555753F5",
  "/k c #555753FF",
  "(% c #555852C6",
  "(Z c #555854E0",
  "_6 c #5584BBF5",
  "(p c #56565241",
  "(; c #56565350",
  "^, c #56565359",
  "/} c #565753AA",
  "(Y c #565853DF",
  "^c c #56585474",
  "(o c #56585477",
  "(# c #56585486",
  "(P c #565854F8",
  "(- c #565954CF",
  "(h c #565955E9",
  ")( c #565956FC",
  "YE c #57575129",
  "(L c #57585399",
  "(@ c #575854D7",
  ")F c #575955EF",
  "<8 c #575955FF",
  "[j c #575A56F2",
  "(c c #58584E1A",
  "(j c #58584F1D",
  ")G c #585854C3",
  "(J c #585A55EA",
  "(a c #585A55FD",
  "(D c #585A567D",
  "/j c #585A56CA",
  ")U c #585A56EB",
  "(y c #585A56F7",
  "<f c #585A56FF",
  "(f c #585B566B",
  "(T c #585B57C4",
  "(] c #595A58C3",
  "*N c #595B56FF",
  ")H c #5A5B57FD",
  ")S c #5A5B57FF",
  "(1 c #5A5C58FA",
  "(: c #5A5C59F3",
  ":i c #5A5D59FF",
  ")T c #5A83B7EA",
  "4| c #5B5B5B0E",
  "(v c #5B5C59FF",
  "(9 c #5B5D59FA",
  ")L c #5C5E58FE",
  "(< c #5C5E5AEE",
  "yQ c #5C5E5AFF",
  "P: c #5D5E5BFF",
  "yZ c #5D5F5AFF",
  "(! c #5D5F5CF2",
  "(5 c #5E605CF7",
  ")K c #5E615CFF",
  ")W c #5E6160FF",
  "(M c #5F625DFF",
  "LC c #60615DFF",
  ")C c #60625DFF",
  "yA c #61635EFF",
  "fH c #61635FFF",
  "(k c #626360F1",
  "]] c #626460FF",
  ")P c #626764FE",
  "]f c #636560FF",
  "Br c #636561FF",
  ")J c #646662FE",
  "_& c #6493C6FE",
  ")Y c #656662FF",
  "yD c #656762FF",
  "(+ c #656763FC",
  ")D c #656863FF",
  "<, c #66666605",
  "L~ c #666863FF",
  ";{ c #676965FF",
  "(g c #686965F6",
  "(G c #686B66FF",
  "[3 c #696A67FF",
  "h$ c #696B67FF",
  "G( c #6A6B68FF",
  "yl c #6A6C68FF",
  ",$ c #6B6E6AFF",
  "_u c #6B98CAFF",
  "yz c #6C6E69FF",
  "_= c #6C90BEEF",
  "_q c #6C99CAFF",
  "5l c #6D6F6BFF",
  ")^ c #6D90B5FF",
  "){ c #6E9BCCFF",
  "(* c #6F716DFE",
  "B9 c #70726EFF",
  "yv c #71736EFF",
  ")/ c #717676FF",
  "h[ c #729ECFFF",
  "'~ c #729FCFFF",
  "BM c #737571FF",
  ":* c #737671FF",
  "N, c #739FCFFF",
  "'! c #73A0CFFF",
  "wa c #74A0D0FF",
  "gQ c #74A1D0FF",
  "). c #757773FE",
  "P1 c #757874FF",
  "Nj c #75A1D0FF",
  "23 c #76A2D1FF",
  "26 c #777974FE",
  "BK c #777975FF",
  "(E c #777A74FF",
  "(l c #787A76FF",
  "(s c #787A77FF",
  "2A c #78A3D1FF",
  "G/ c #797B77FF",
  "N> c #79A4D1FF",
  "jy c #7AA4D2FF",
  ".A c #7B7D79FF",
  ")Z c #7C7D7AFF",
  "NA c #7CA6D2FF",
  "y3 c #7DA7D3FF",
  "'z c #7E817CFF",
  "-7 c #7EA7D3FF",
  "1: c #7F817CFF",
  "5D c #7F817DFF",
  "/p c #7F827DFF",
  "B1 c #80817EFF",
  "W. c #80827DFF",
  "gu c #80A9D4FF",
  "lW c #81837FFF",
  ")[ c #82AAD4FF",
  "WX c #838580FF",
  "Ve c #83AAD5FF",
  "_; c #83ABD5FF",
  "(t c #848582FF",
  "W$ c #848681FF",
  "NG c #84ABD5FF",
  "W> c #858782FF",
  ")_ c #85A4CAF2",
  "Nm c #85ACD5FF",
  "2, c #85ACD6FF",
  "(i c #868784FF",
  "K' c #878885FF",
  "g, c #878984FF",
  "gK c #87ADD6FF",
  "3r c #888985FF",
  "&| c #888986FF",
  "B, c #888987FF",
  "l] c #888A84FF",
  "eB c #888A85FF",
  ")E c #88A5C3FF",
  ")] c #88AED6FF",
  "]R c #898B86FF",
  "=6 c #89AFD7FF",
  "5@ c #8A8C87FF",
  "v+ c #8A8C88FF",
  "c2 c #8A8C89FF",
  "=: c #8AAFD7FF",
  "=H c #8B8D88FF",
  ")` c #8BB0D8FF",
  "3, c #8C8E89FF",
  "(= c #8C8E8BFF",
  "3V c #8D8F8AFF",
  "=O c #8DB1D8FF",
  "fo c #8E8F8BFF",
  "cg c #8E8F8CFF",
  "fO c #8E908BFF",
  "ZE c #8F908CFF",
  "ji c #8F918CFF",
  "3< c #90928EFF",
  "Fq c #90B3D9FF",
  "(I c #91938EFF",
  "1_ c #91B4DAFF",
  "r+ c #92938FFF",
  "(F c #929391F7",
  "3> c #92948FFF",
  "h@ c #929490FF",
  ")# c #92B5DAFF",
  "_0 c #93B6DAFF",
  "jC c #949591FF",
  "j8 c #949691FF",
  "5h c #949692FF",
  "Np c #94B6DAFF",
  "1) c #94B6DBFF",
  "f; c #959693FF",
  "EQ c #969795FF",
  "k0 c #969893FF",
  "L& c #969894FF",
  "Z( c #989A96FF",
  "_8 c #98B3D3F5",
  "gy c #98B9DCFF",
  "<0 c #999A98FF",
  "'C c #999B96FF",
  "$t c #999C96FF",
  "Az c #99B9DCFF",
  "kp c #9A9B97FF",
  "(A c #9A9B98FB",
  "t9 c #9A9B98FF",
  "t, c #9A9C98FF",
  "1^ c #9ABADDFF",
  "t$ c #9B9D99FF",
  "2> c #9BBBDDFF",
  "'G c #9CBCDDFF",
  "(n c #9D9E9CF9",
  "VB c #9DBCDDFF",
  "5w c #9E9F9CFF",
  "]J c #9EA09BFF",
  "gE c #9EA09CFF",
  "'j c #9EBDDEFF",
  "]y c #9FA09DFF",
  ":M c #9FA19DFF",
  "*{ c #9FA19EFF",
  "'g c #9FBEDEFF",
  "(V c #A0A09CFF",
  "[l c #A0A19DFF",
  "(, c #A0A19EFF",
  "<g c #A0A19FFF",
  "<- c #A1A29EFF",
  "t- c #A1A39FFF",
  "W~ c #A1BFDFFF",
  "1z c #A2A39FFF",
  "gH c #A2A4A0FF",
  "(8 c #A2A4A2FF",
  "g4 c #A2C0DFFF",
  "<S c #A3A4A2FF",
  "v@ c #A3A5A1FF",
  "*g c #A3C0E0FF",
  "w: c #A3C1E0FF",
  "^n c #A4A5A1FF",
  "L9 c #A4A6A3FF",
  "WQ c #A4C1E0FF",
  "e[ c #A5A6A2FF",
  "(~ c #A5A6A3FE",
  "(q c #A5A6A4FF",
  "ZM c #A5A7A3FF",
  "1< c #A6A7A4FF",
  "(m c #A6A8A3FF",
  "hX c #A6A8A4FF",
  "WE c #A6C2E1FF",
  "(S c #A7A7A3FF",
  "LR c #A8A9A6FF",
  "34 c #A8AAA6FF",
  "go c #A8C4E1FF",
  "gW c #A9AAA6FF",
  "2u c #A9AAA7FF",
  "^T c #A9ACA8FF",
  "2X c #A9C4E2FF",
  "]X c #A9C5E2FF",
  "4Q c #AAABA8FF",
  "gX c #AAC5E2FF",
  "(e c #ABACA8FF",
  "(B c #ABACA9FE",
  "]i c #ABACA9FF",
  ")$ c #ABADAAFF",
  "KJ c #ACADAAFF",
  "qV c #ACADABFF",
  "]p c #ACAEAAFF",
  "*v c #ACC6E3FF",
  "Kt c #ADAEAAFF",
  "(/ c #ADAEABFF",
  "/h c #ADAFABFF",
  "(R c #AEAFACFE",
  "^b c #AEAFACFF",
  ",B c #AEB0ACFF",
  "y< c #AEC8E4FF",
  "5i c #AFB1ADFF",
  "_$ c #AFC5DEFA",
  "FR c #AFC8E4FF",
  "g! c #AFC9E4FF",
  "<O c #B0B0AEFF",
  "jl c #B0B1AEFF",
  "_9 c #B0C9E4FF",
  "yB c #B1B2AEFF",
  "2r c #B1B2AFFF",
  "f/ c #B1CAE4FF",
  "Kg c #B2B3AFFF",
  "]a c #B2B3B0FF",
  "<$ c #B2B3B1FF",
  "(7 c #B2B4B1FF",
  "_% c #B2CAE5FF",
  "fI c #B2CBE5FF",
  "<{ c #B3B4B1FF",
  "<# c #B3B4B2FF",
  "v. c #B4B5B1FF",
  "gs c #B4B5B2FF",
  "Q. c #B4B6B2FF",
  "ki c #B4B6B3FF",
  "W3 c #B5B6B3FF",
  "'S c #B5CDE6FF",
  "w< c #B6B7B5FF",
  "2e c #B7B8B5FF",
  ",~ c #B7B8B6FF",
  "*Z c #B7CEE6FF",
  "K` c #B8B8B5FF",
  "t< c #B8B9B6FF",
  "(r c #B8BAB7FF",
  "'A c #B8CEE7FF",
  "BO c #B8CFE7FF",
  "yU c #B9BAB7FF",
  "h3 c #B9BAB8FF",
  "!2 c #B9BBB8FF",
  "]8 c #B9CFE7FF",
  "fK c #B9D0E7FF",
  "Kp c #BABBB8FF",
  "M; c #BAD0E7FF",
  "wh c #BBBCB9FF",
  "Bm c #BCBCBAFF",
  "2w c #BCBDBAFF",
  "R2 c #BCBDBBFF",
  "|- c #BCBEBBFF",
  "c] c #BDBEBBFF",
  "hn c #BDBEBCFF",
  "F0 c #BDD2E8FF",
  "<} c #BDD2E9FF",
  "!1 c #BEBFBCFF",
  "_3 c #BED3E9FF",
  "6, c #BFBFBDFF",
  ";= c #BFBFBFFF",
  "rK c #BFC0BDFF",
  "(6 c #BFC1BFFF",
  "N] c #BFD4E9FF",
  "wS c #C0C1BEFF",
  "fn c #C1C2BFFF",
  "|= c #C1C2C0FF",
  "*t c #C1D4EAFF",
  "fd c #C2C3C0FF",
  "0M c #C2C3C2FF",
  ")! c #C2D3E8FE",
  "T/ c #C3C4C1FF",
  ")A c #C4C4C2FF",
  "dq c #C5C6C3FF",
  "'m c #C5D7EBFF",
  "A( c #C6C7C4FF",
  "(> c #C6C7C6FF",
  "1g c #C6D8ECFF",
  "'f c #C7D9ECFF",
  "fM c #C8C8C7FF",
  "h6 c #C8D9ECFF",
  "ho c #C9DAEDFF",
  "c) c #CACBC8FF",
  "Be c #CACBCAFF",
  "B6 c #CBCCCAFF",
  ")' c #CCDCEDFF",
  "5y c #CDCDCCFF",
  "_- c #CDDDEEFF",
  "B! c #CEDDEEFF",
  "_y c #CEDEEEFF",
  "_< c #CFDDEDFF",
  "C] c #CFDEEFFF",
  "_5 c #CFDFEFFF",
  "(w c #D0D2D0FF",
  "V- c #D0DFEFFF",
  "dJ c #D1D2D0FF",
  "_1 c #D3E1F0FF",
  "R1 c #D4D5D3FF",
  "%B c #D4D5D4FF",
  "_O c #D4E2F0FF",
  "t~ c #D4E2F1FF",
  "#0 c #D5D5D4FF",
  "_2 c #D5E2F1FF",
  ")R c #D6E3F1FF",
  "Bp c #D7D8D6FF",
  "_X c #D7E4F1FF",
  "y* c #D8E4F2FF",
  "_. c #DAE5F2FF",
  "BT c #DCE7F3FF",
  "_r c #DDE7F2FF",
  "_o c #DDE8F3FF",
  ")~ c #DDE8F4FF",
  "yT c #DEE9F4FF",
  "4o c #DFE9F4FF",
  "_t c #DFEAF4FF",
  "4+ c #E1EAF4FF",
  "_4 c #E1EAF5FF",
  "jv c #E3ECF5FF",
  "   c none",
  
  // Image data
  "                                                                ",
  "                          d@/}/|(.(X(o4|                        ",
  "                        (O(+t9<$w<<SG/(@Ez                      ",
  "            ,C(#($(%(&^c(*;=BmrKyU,B]i(=(-<,Kw<,                ",
  "          (;(:<00M(>qVBKh3hnT/wh]aLRgE(,BM(<Br(1(2(3            ",
  "        (4(5fMdJ|=rKK`c](6T/2w(7gW:Mk0ji<g(8]yEQB1(9^,          ",
  "        (0(q(wfd5h]f<8yAB,R2gs]a(e:Mji'C(rW3^be[f;(t(y^i        ",
  "        (u%Bfd&|G/Kpdq^byv(i|=whQ.^bL9v.W3/hZM]JL&c25l(#        ",
  "      (p(ayzG(]]A(hnwSKpyByQ[3L~:*jCt-/pfH<8)C)Zfo3r(s(d        ",
  "    (f(gw<B6<#KJ!1fn2w2r2ucgv+r+1:P:yl(lKpdq^bB95leBW.(h(4      ",
  "  (j(kBp)Ahngs|-c]fn!1^b5wKJ,~<{*{l])SyUhnwSKpyByQLC(M)D)F(c    ",
  "  (b(nc)c]]a2rfnfnrK2e5i(mki]a4Q^nfO,$r+fn2w2r2ucgv+r+1:(v)G    ",
  "  ^P(Bfd2r2ufnfnR2W3(/1<1z(VhX:MZ(3,yD5Dfn!1^b5wKJ,~<{*{l])H(j  ",
  "#P(Z(ABeZMKtfnKp(74Q(S<O]iv@$tj83Vg,yZBr!12e5i(mki]a4Q^nfOh$^A  ",
  "(D(F5ywSKpKgt<jl34[l^T4QgHt,h@eBeB.AW$(GK'(/1<1z(VhX:MZ(3,)J(L  ",
  "(J#0wS!1^b)$^bZM]Jk0ZM1zkp3>5@eBeBeBeBlW)K(S<O]iv@$tj83Vg,)L(Y#P",
  "(PR16,5igEji<-t$jC3,L&'C(I]ReBeBeBeBeBW>*N^T4QgHt,h@eBeB.AW$)P)I",
  "(T(RT/^nZEeB=H3<]ReB]R3VeBeBeBeBeBeBeB(E;{ZM1zkp3>5@eBeBeBeBlW)U",
  "(4(!(~rKwS!2<{]pZM:M'C3>=HeBeBeBeBW>P1:iWXL&'C(I]ReBeBeBeBeBW>(P",
  "  (3/j(P/k/k/k/k/k/k/k/k/k/k/k/k/k<f)Y'zeB]R3VeBeBeBeBeBeBeB26(]",
  "          NJ)T4+)RN]]X)E)WL9rKwS!2<{]pZM:M'C3>=HeBeBeBeBW>).[jYE",
  "          )Q)!)~'ff/1^NG)^)/:i/k/k/k/k/k/k/k/k/k/k/k/k/k)(/j)%  ",
  "        )))_jvC]BOg4)`gQw:jv)''S'j)]'~N])~1gg!Az)['~){)}qY      ",
  "      BI)|_._X*tgXNpNA-7_o_O<}WEFq2A1)jvB!'AW~=:'!'~_+_@        ",
  "      _#_$yTh6_%2>Nm'~F0BT'mFRgygu23t~_XN]2X)#jy'~_&_*          ",
  "    g}_=jvV-fK*g=ONj)#jv_-*Z'g=6N,y<yT'ff/1^_;'~h[_:_>          ",
  "    _,_<_X*tgX1)y3Nj_1_2_3go1_N>Nm_4_5]8g4)`wa'~_6_7            ",
  "  g(_84ohofI'G2,'~*v)~'f_9AzVeN,'fy**tgX_0NA'~_q_w*o            ",
  "  _e_rV-M;WQ=:gQ_;_t_y'AW~gKN,VB_thofI2>gu'~_u_i_p              ",
  "  _a$ZW-$ZWn2}2}gM-6W-gM8P2}2}W-wje8gM8P2}_s_d_f                ",
  "                                                                ",
  "                                                                "
};
