/* XPM */
const char *xpm_tango_status_weather_few_clouds_night[] = {
  // Header (width height colors chars-per-pixel)
  "32 32 322 2",
  
  // Colors (code mode value)
  "@R c #80808002",
  "<4 c #80808004",
  "A- c #86868613",
  "rd c #868A863B",
  "`] c #878A8457",
  "Q/ c #878A8459",
  "3Z c #88888547",
  "eB c #888A85FF",
  "rF c #888B844F",
  "R6 c #888B8558",
  "TY c #888B884B",
  "!A c #888C8847",
  "Z~ c #89898652",
  "TB c #8989865D",
  "!O c #898B8586",
  "ub c #898B86D9",
  "Ro c #898B86FB",
  "G9 c #898B86FC",
  "G, c #898B86FD",
  "]R c #898B86FF",
  "J= c #898B87F5",
  "!g c #898C8545",
  "!e c #898C86FA",
  "!6 c #898C86FC",
  "!: c #898C8768",
  "G$ c #898C87F3",
  "xp c #8A8A863D",
  "!7 c #8A8A8746",
  "UT c #8A8B868B",
  "!c c #8A8B86CB",
  "!q c #8A8C87EE",
  "!j c #8A8D8757",
  "rx c #8B8C88AD",
  "!b c #8B8D8793",
  "u= c #8B8D87F3",
  "!$ c #8B8D88EF",
  "=H c #8B8D88FF",
  "!& c #8B8E89DA",
  "!M c #8C8D88E8",
  "!w c #8C8E89A2",
  "!i c #8C8E89D2",
  "!p c #8C8E89D8",
  "!9 c #8C8E89DA",
  "!G c #8C8E89DB",
  "!k c #8C8E89DE",
  "!v c #8C8E89F4",
  "!B c #8C8E89FB",
  "3, c #8C8E89FF",
  "!m c #8C8E8ACF",
  "rB c #8C8E8AE9",
  "!# c #8C8F89A8",
  "Q' c #8C8F89EC",
  "!< c #8D8E89B3",
  "!Z c #8D8E8ACD",
  "!h c #8D8F89A4",
  "Q} c #8D8F8A98",
  "!, c #8D8F8AAF",
  "!F c #8D8F8BF3",
  "Q| c #8D908AB5",
  "r# c #8E8E8E09",
  "Q[ c #8E8F8A99",
  "Q_ c #8E9089EC",
  "!o c #8E908A8E",
  "Q) c #8E908AEC",
  "fO c #8E908BFF",
  "Zq c #8F8F8010",
  "!% c #8F908BE1",
  "Q` c #8F908CB8",
  "ji c #8F918CFF",
  "Q( c #90928DB8",
  "fh c #90938DFF",
  "!5 c #949690FF",
  "5h c #949692FF",
  "f; c #959693FF",
  ".` c #959793FF",
  "!S c #969995F4",
  "4d c #979994FF",
  "xf c #979995F3",
  "!t c #999A95FF",
  "1c c #999B97FF",
  "!f c #9A9C98F2",
  "!+ c #9C9E98F8",
  "Q{ c #9C9E99FA",
  ":g c #9C9E9AFF",
  "3B c #9D9F9AFF",
  "!l c #9E9F9AFF",
  "TH c #9EA09BFA",
  "Z0 c #9FA19CFF",
  "!x c #9FA19DFE",
  "!n c #A1A39EF7",
  "t- c #A1A39FFF",
  "!8 c #A4A6A2F6",
  ")= c #A5A6A3FF",
  "!u c #A6A7A4F7",
  ",/ c #A8A9A5FF",
  "cW c #AAAAAA03",
  "!; c #ABACA9F6",
  "!0 c #ACADA9FF",
  "(/ c #ADAEABFF",
  "!X c #AEAFACF9",
  "2t c #AEAFACFF",
  "Q] c #AEB0ACFA",
  "!. c #AEB0ACFE",
  "!s c #B0B3AFFF",
  "2r c #B1B2AFFF",
  "UY c #B1B3AEF7",
  "TF c #B1B4AFFA",
  "Kg c #B2B3AFFF",
  "!N c #B2B3B0F5",
  ":d c #B2B4AFFF",
  "v. c #B4B5B1FF",
  "gs c #B4B5B2FF",
  "!D c #B5B5B2FF",
  "!= c #B5B7B4FF",
  "!2 c #B9BBB8FF",
  "Kp c #BABBB8FF",
  "!1 c #BEBFBCFF",
  "rK c #BFC0BDFF",
  "!d c #C0C2BEFF",
  "!y c #C0C2C0FF",
  "!> c #C2C3C0F8",
  "fd c #C2C3C0FF",
  "yE c #C2C4BFFF",
  "co c #C2C5C0FF",
  "D% c #C3C4C0FF",
  "T/ c #C3C4C1FF",
  "R% c #C3C5C0FF",
  "z| c #C3C5C1FF",
  "T{ c #C3C5C2FF",
  "#* c #C4C5C1FF",
  "T( c #C4C5C2FF",
  "Ka c #C4C5C3FF",
  "!- c #C4C6C1FF",
  "T^ c #C4C7C3FF",
  "R= c #C5C6C2FF",
  "dq c #C5C6C3FF",
  "T' c #C5C7C2FF",
  "TW c #C5C7C3FF",
  "x, c #C6C7C3FF",
  "A( c #C6C7C4FF",
  "T} c #C7C8C4FF",
  "!a c #C7C8C5FF",
  "!4 c #C7C9C5FF",
  ">7 c #C7C9C6FF",
  "fv c #C8C9C5FF",
  ":z c #C8C9C6FF",
  "T) c #C8CAC6FF",
  ")! c #C9CAC6FF",
  "!C c #C9CAC7FF",
  "yI c #C9CBC6FF",
  ":l c #C9CBC7FF",
  "!z c #CACAC8FF",
  "|( c #CACBC6FF",
  "tX c #CACBC9FF",
  "4{ c #CACCC8FF",
  "B6 c #CBCCCAFF",
  "3Y c #CBCDC9FF",
  "Eo c #CBCECAFF",
  "#n c #CCCDCAFF",
  "!* c #CDCDCBFC",
  "!3 c #CDCECAFF",
  "gd c #CDCFCAFF",
  ".y c #CECFCBFF",
  "!V c #CECFCCFF",
  "5z c #CECFCDFF",
  "R+ c #CFD0CCFF",
  "q] c #CFD0CDFF",
  "}G c #CFD1CDFF",
  "#= c #D0D0CFFF",
  "R- c #D0D1CDFF",
  "GS c #D0D1CEFF",
  "}H c #D0D2CDFF",
  "4g c #D0D2CEFF",
  "yF c #D2D4CFFF",
  "T! c #D3D3CFFF",
  "+~ c #D3D3D1FF",
  "|$ c #D3D4D0FF",
  "TX c #D3D5D1FF",
  "60 c #D4D4D2FF",
  "yG c #D4D5D1FF",
  "R1 c #D4D5D3FF",
  "5b c #D5D5D3FF",
  "UB c #D5D6D3FF",
  "}J c #D5D7D2FF",
  "}b c #D5D7D3FF",
  "@> c #D5D7D5FF",
  "Bl c #D6D7D5FF",
  "X_ c #D6D8D4FF",
  "6% c #D7D7D5FF",
  "Bp c #D7D8D6FF",
  ".r c #D7D9D5FF",
  "%| c #D8D8D6FF",
  "3l c #D8D9D6FF",
  "3j c #D8D9D7FF",
  "5# c #D8DAD7FF",
  "&2 c #D9D9D7FF",
  "BC c #D9DAD8FF",
  ":p c #D9DBD6FF",
  "r3 c #D9DBD7FF",
  "&J c #DADAD8FF",
  "6k c #DADAD9FF",
  "3E c #DADBD8FF",
  ",# c #DADCD7FF",
  "yC c #DADCD8FF",
  "3t c #DADCD9FF",
  "dJ c #DADDD7FF",
  "%~ c #DBDBD9FF",
  "Wy c #DBDCDAFF",
  "Kl c #DBDDDAFF",
  "lw c #DCDCDBFF",
  "@% c #DCDDDCFF",
  "|w c #DDDEDBFF",
  "ra c #DDDEDCFF",
  "|1 c #DDDFDBFF",
  "XR c #DDDFDCFF",
  "kl c #DDE0DBFF",
  "R$ c #DEDFDDFF",
  "]Y c #DEDFDEFF",
  "4; c #DEE0DBFF",
  ":f c #DEE0DCFF",
  "%r c #DFDFDDFF",
  "|V c #DFE0DCFF",
  "fp c #DFE0DDFF",
  "w/ c #DFE0DEFF",
  "%^ c #E0E0DEFF",
  "6j c #E0E0DFFF",
  "}v c #E0E1DDFF",
  "6D c #E1E1E0FF",
  "hy c #E1E3DEFF",
  ">} c #E1E3DFFF",
  "%# c #E2E2E1FF",
  "}g c #E2E3E1FF",
  "!@ c #E2E4DFFF",
  "&3 c #E3E3E2FF",
  ">[ c #E3E4E0FF",
  "|h c #E3E4E1FF",
  "5r c #E3E4E2FF",
  "jp c #E3E4E3FF",
  "X} c #E3E5E2FF",
  ">< c #E3E6E1FF",
  "rt c #E4E4E3FF",
  "|= c #E4E5E3FF",
  "1E c #E4E5E4FF",
  "xn c #E4E6E1FF",
  "3} c #E4E6E2FF",
  "K8 c #E4E6E3FF",
  ">% c #E4E6E4FF",
  ";3 c #E5E6E4FE",
  "3: c #E5E6E4FF",
  "w3 c #E5E7E2FF",
  "6A c #E6E6E5FF",
  ";b c #E6E6E6FF",
  ":F c #E6E7E4FF",
  "r6 c #E6E8E4FF",
  "&. c #E7E7E6FF",
  "}K c #E7E8E5FF",
  ";Z c #E7E9E5FF",
  "g! c #E7E9E6FF",
  "6$ c #E8E8E7FF",
  "r0 c #E8E9E8FF",
  "}I c #E8EAE6FF",
  "$` c #E9E9E7FF",
  "lC c #E9E9E8FF",
  ":U c #E9EBE7FF",
  "lb c #EAEAE9FF",
  ":Q c #EAECE8FF",
  "6d c #EBEBEAFF",
  "5; c #EBECEAFF",
  "Wt c #EBECEBFF",
  ">. c #EBEDEAFF",
  "j# c #ECECEBFF",
  ":> c #ECECECFF",
  "3f c #ECEDEBFF",
  "4M c #ECEDECFF",
  ";r c #ECEEEAFF",
  "ld c #EDEDECFF",
  ";t c #EDEEEDFF",
  ";B c #EDEFEDFF",
  ";p c #EEF0EDFF",
  "}# c #EFF0EDFF",
  "fn c #EFF0EFFF",
  "l8 c #F0F0EFFF",
  "4[ c #F0F1EFFF",
  "46 c #F0F1F0FF",
  ",0 c #F1F1F0FF",
  ";` c #F1F1F1FF",
  "|j c #F1F2EFFF",
  "vq c #F1F2F1FF",
  ";E c #F1F3F0FF",
  "c} c #F2F2F1FF",
  ";' c #F2F2F2FF",
  "0@ c #F2F3F0FF",
  "$n c #F2F3F2FF",
  "55 c #F3F3F2FF",
  ":O c #F3F3F3FF",
  "cB c #F3F5F2FF",
  ";! c #F3F5F3FF",
  "hE c #F4F4F3FF",
  ";~ c #F4F5F3FF",
  ">r c #F4F5F4FF",
  "c` c #F5F5F4FF",
  "-k c #F5F5F5FF",
  "v0 c #F6F6F5FF",
  "!r c #F6F6F6FF",
  ":9 c #F7F7F7FF",
  "}/ c #F7F8F7FF",
  ",3 c #F8F8F7FF",
  "lP c #F9F9F8FF",
  ":v c #F9F9F9FF",
  ":D c #F9FAF9FF",
  "g~ c #FAFAF9FF",
  ":5 c #FAFAFAFF",
  "3C c #FAFBFAFF",
  "}1 c #FBFBFAFF",
  ";Q c #FBFBFBFF",
  ";^ c #FBFCFBFF",
  "}y c #FCFCFBFF",
  ";7 c #FCFCFCFF",
  "=q c #FDFDFDFF",
  ";f c #FEFEFEFF",
  "1U c #FFFFFFFF",
  "   c none",
  
  // Image data
  "                                                                ",
  "                                                                ",
  "                                                                ",
  "                                                                ",
  "                                                                ",
  "                    r#Q/Q(Q)RoRoQ_Q`Q/r#                        ",
  "                  R6Q'TFrt}/}y}y>r%#Q]Q'R6                      ",
  "              cWQ[Q{46;Q0@:F|V!@}K3f:5fnTHQ}cW                  ",
  "              Q|!.;Q;p3}3}>};Z:QfpT!.rcB;7!X!o                  ",
  "            !Ot-;Q}K3}}J)!T)TXr6:Q>[yG|h4[;7!+3Z                ",
  "    A-!#!$G$fOvq5;5#}J:lTWA(:zyCw33tyC4;g!;!,0!%cW              ",
  "  <4!&!*-k#=!=:v|w}HT^T(#*T()!3EdJ!-T'3::Q;r}1!;Z~              ",
  "  !:!>$n=q(/1E5;r3:lT{D%R=yI3l;Zhyx,x,Kl:Q:Q5;w/!,              ",
  "  !<&.v0555h}/|w|(!1!2yE4{}G3}klX}><X_R-xn:UK8hErB              ",
  "  ub6j6d3:=H;f!3fv2tcoEo.y4g|$XR>}}I!4x,Kg!5=H:g!6              ",
  "!7!8l8:>1E=H=q3Y>7A(#*T)yF@>TX3}:Q:Q.y:dZ0]Yr0R1f;TY            ",
  "!9c}lP;f6d.`,3:p:zT}T}z|R%R+}I!@!0fhji]R6$;`;7l8R1eBJ=!q!wZq    ",
  "!e!r;fld&J)=|=4[XR,#3YR=R=GS>.!t5zc`,0@%j#:9-kldlw!y5bB6!u!i@R  ",
  "!p&3lCWy!a2r!s3C:U|1}v}Hgd}b!dKa55=q:O6A:51U;fldBll8v0Wtq]!fTB  ",
  "!gxfBC&.|=%r4d55;E:f}K;B>%|w,/&.!r55&.1U1U;Q;'lCw/;tlC6D60!0!h  ",
  "  !j!kG,eBeBeB!l;7}#}I|j;~:D1c6D6d3::91UlPfn;brt|=%~WyR1!z!x!c  ",
  "              UTUY;7;~:QlPra,/l8:>rt1Uv0ldjp&3j#}gBCR-A(T/Z0!vxp",
  "              cW!b!nvq;^g~3B$n:v;f6d55lb6D%|5r%#3jq]A(T(Kpfdv.!m",
  "                  `]!M!N;33,!r;f4MBC&2R$UB#nUBBp5zdqT(T(T(T(rKu=",
  "                    r#Q/rx!Bjp$`Wy!adq!V!CT(dqtXT(T(T(T(T(T(gs!Z",
  "                          !A!S6k&.|=%^Wy6%+~5z!zdqT(T(T(T/!D!Frd",
  "                            R6!kG,eBeBeBeBeBeBeBeBeBeBeBG9!GrF  ",
  "                                                                ",
  "                                                                ",
  "                                                                ",
  "                                                                ",
  "                                                                "
};
