/* XPM */
const char *xpm_tango_status_weather_snow[] = {
  // Header (width height colors chars-per-pixel)
  "32 32 327 2",
  
  // Colors (code mode value)
  "`+ c #70A3CC19",
  "_E c #739CCE1F",
  "_U c #739FCF45",
  "_A c #73A0CFFC",
  "__ c #73A2D047",
  "_F c #74A1CE44",
  "_Y c #759FCF25",
  "_H c #759FD148",
  "_( c #75A0D046",
  "_~ c #75A1D04C",
  "_D c #75A1D0F8",
  "`# c #75A1D0F9",
  "`. c #75A2CF4A",
  "_) c #76A1D041",
  "_k c #76A3CF50",
  "_g c #77A1D249",
  "_| c #77A2D0F1",
  "-: c #77A2D0FF",
  "_^ c #77A2D1EF",
  "_} c #77A3D0F0",
  "_Q c #77A3D1EF",
  "_j c #77A3D1F3",
  "_/ c #77A4D1ED",
  "_h c #78A3D0F1",
  "_G c #78A3D1EC",
  "_Z c #78A3D1EE",
  "_n c #78A3D2F1",
  "`X c #78A4D1EB",
  "_v c #79A3D1EA",
  "_I c #79A3D2EC",
  "_W c #79A4D1E9",
  "_{ c #79A4D1ED",
  "_T c #7AA5D2D7",
  "_V c #7AA5D2E8",
  "_] c #7BA4D2E4",
  "`@ c #7BA5D2C7",
  "`$ c #7BA5D2CB",
  "_R c #7BA5D2D2",
  "_` c #7BA5D2E2",
  "_l c #7C93A642",
  "_J c #7CA6D2D1",
  "_P c #7CA6D3C3",
  "`o c #7DA6D3BE",
  "_m c #7DA7D3CA",
  "e_ c #8080800A",
  "t@ c #8080800C",
  "h< c #8080FF02",
  "_B c #809FBFFF",
  "_z c #80A1C4FC",
  "S& c #848D841D",
  "A- c #86868613",
  "ro c #868C862A",
  "'. c #868D8626",
  "Tt c #87878711",
  "ZP c #87898575",
  "v1 c #878A85E0",
  "Zk c #878C8735",
  "3k c #8888881E",
  "Z! c #888985A9",
  "ZN c #888A85A5",
  "~S c #888A85BC",
  "~A c #888A85CA",
  "~Y c #888A85F1",
  "22 c #888A85F6",
  "eB c #888A85FF",
  "~K c #888A867C",
  "Z2 c #888A86D2",
  "r{ c #888C843E",
  "Y} c #89898541",
  "rD c #89898650",
  "Zr c #898A84B5",
  "CE c #898A84B7",
  "~V c #898A8597",
  "W$ c #898A86A8",
  "Zm c #898B8470",
  "CI c #898B858A",
  "~F c #898B86DE",
  "Ro c #898B86FB",
  "Z^ c #898B86FE",
  "]R c #898B86FF",
  "t2 c #898C876A",
  "2C c #8A8A8323",
  "xp c #8A8A863D",
  "ZQ c #8A8A864C",
  "Z- c #8A8B86E4",
  "~| c #8A8C86F1",
  "!q c #8A8C87EE",
  "~I c #8A8C87FE",
  "~D c #8A8C88E9",
  "^@ c #8A8C88EC",
  "K, c #8A8C88F8",
  "^O c #8B8B8963",
  "{& c #8B8B8B0B",
  "'& c #8B8D8782",
  "~' c #8B8D8788",
  "!b c #8B8D8793",
  "~E c #8B8D87FF",
  "=H c #8B8D88FF",
  "~{ c #8B8D89DC",
  "~P c #8B8E88E9",
  "^* c #8B8E8961",
  "~} c #8B8E89DE",
  "H[ c #8C8C8014",
  "~^ c #8C8D88F3",
  "~( c #8C8E88E6",
  "^= c #8C8E89E3",
  "3, c #8C8E89FF",
  "~] c #8C8E8AB2",
  "j2 c #8C8E8AFF",
  "~T c #8C8F89BA",
  "^# c #8C8F8AD3",
  "^. c #8D8E8AB0",
  "3V c #8D8F8AFF",
  "h7 c #8D8F8BFF",
  "dw c #8D8F8CFF",
  "r# c #8E8E8E09",
  "~H c #8F918CFC",
  "') c #8F918DFF",
  "^o c #90918DF4",
  "~C c #90928EEC",
  "^+ c #91928EF2",
  "5a c #91928EFF",
  "^& c #92938EF3",
  "~G c #92938FE3",
  "r+ c #92938FFF",
  "3> c #92948FFF",
  "]M c #939690FF",
  "_x c #93B4D7FF",
  "~_ c #949592FF",
  "2X c #969793FF",
  "L& c #969894FF",
  "5p c #979894FF",
  "ky c #979995FF",
  "rZ c #99999905",
  "!t c #999A95FF",
  "~) c #999A96F4",
  "t, c #9A9C98FF",
  "5s c #9C9D99FF",
  ":g c #9C9E9AFF",
  ":i c #9D9F9BFF",
  ":M c #9FA19DFF",
  "~! c #A0A19CFF",
  "[l c #A0A19DFF",
  "vX c #A0A29DFF",
  ":u c #A0A29EFF",
  "<- c #A1A29EFF",
  "gH c #A2A4A0FF",
  "~` c #A3A6A1F8",
  ")= c #A5A6A3FF",
  "WY c #A6A7A3FF",
  "3: c #A7A9A5FF",
  "34 c #A8AAA6FF",
  "gW c #A9AAA6FF",
  "cW c #AAAAAA03",
  "4Q c #AAABA8FF",
  "!0 c #ACADA9FF",
  "%P c #ADADABFF",
  "~Q c #AEAFABFF",
  "~W c #AEAFACF3",
  ",B c #AEB0ACFF",
  "]a c #B2B3B0FF",
  "Q. c #B4B6B2FF",
  "~L c #B5B7B2FF",
  "t= c #B6B7B4FF",
  "<N c #B8BAB6FF",
  "CH c #B9B9B6FF",
  "!2 c #B9BBB8FF",
  "Kp c #BABBB8FF",
  "_N c #BBD0E7FF",
  "`O c #BBD0E8FC",
  "R2 c #BCBDBBFF",
  "fE c #BDBEBAFF",
  "c] c #BDBEBBFF",
  "*2 c #BDBFBBFF",
  "h+ c #BFC0BEFF",
  "~R c #BFC1BEF8",
  "gc c #BFC1BEFF",
  "~[ c #C0C1BDFF",
  "5( c #C0C1BFFF",
  "~Z c #C0C2BFFF",
  "_M c #C1D4E9FE",
  "_L c #C2D5EAFD",
  "T/ c #C3C4C1FF",
  "|* c #C3C4C2FF",
  "T( c #C4C5C2FF",
  "~U c #C5C5C2FF",
  "A( c #C6C7C4FF",
  "!a c #C7C8C5FF",
  "rA c #C7C8C6FF",
  ":z c #C8C9C6FF",
  ",` c #C8C9C7FF",
  "eO c #C8CAC7FF",
  "_K c #C8D9ECFE",
  "ks c #C9CAC8FF",
  "!z c #CACAC8FF",
  "c) c #CACBC8FF",
  "tX c #CACBC9FF",
  "#n c #CCCDCAFF",
  "B{ c #CDCDCAFF",
  "6= c #CDCDCBFF",
  "gF c #CDCECBFF",
  "Zj c #CDCECCFF",
  "~/ c #CECFCDFC",
  "5z c #CECFCDFF",
  "yM c #CFCFCEFF",
  "q] c #CFD0CDFF",
  "UD c #D0D1CCFF",
  "GS c #D0D1CEFF",
  "gp c #D0D1CFFF",
  "eM c #D1D2CFFF",
  "dJ c #D1D2D0FF",
  "6& c #D3D3D2FF",
  "yg c #D3D4D2FF",
  "60 c #D4D4D2FF",
  "Hz c #D4D5D2FF",
  "R1 c #D4D5D3FF",
  "l! c #D5D6D4FF",
  "~J c #D6D7D4FF",
  "Bl c #D6D7D5FF",
  "^X c #D7D7D6FE",
  "6f c #D7D7D6FF",
  "~~ c #D7D8D6FE",
  "Bp c #D7D8D6FF",
  "%| c #D8D8D6FF",
  "$t c #D8D8D7FF",
  "3j c #D8D9D7FF",
  "&2 c #D9D9D7FF",
  "%! c #D9D9D8FF",
  "BC c #D9DAD8FF",
  "&J c #DADAD8FF",
  "W2 c #DADBD9FF",
  "_c c #DADFE2FF",
  "%~ c #DBDBD9FF",
  "t5 c #DBDBDAFF",
  "_' c #DBE6F3FF",
  "lw c #DCDCDBFF",
  "o# c #DCDDDAFF",
  "D& c #DCDDDBFF",
  "@% c #DCDDDCFF",
  "+{ c #DCDEDCFF",
  "rW c #DDDEDDFF",
  "%l c #DEDEDCFF",
  "&v c #DEDEDDFF",
  "R$ c #DEDFDDFF",
  "]Y c #DEDFDEFF",
  "KZ c #DEE0DDFF",
  "_C c #DEE8F4FF",
  "yT c #DEE9F4FF",
  "rH c #DFDFDEFF",
  "w/ c #DFE0DEFF",
  "4o c #DFE9F4FF",
  "_t c #DFEAF4FF",
  "%^ c #E0E0DEFF",
  "TI c #E0E1DFFF",
  "=f c #E0E1E0FF",
  "_[ c #E0EAF4FF",
  "%: c #E1E1DFFF",
  "6D c #E1E1E0FF",
  "Lw c #E1E2E0FF",
  "_4 c #E1EAF5FF",
  "%# c #E2E2E1FF",
  "}g c #E2E3E1FF",
  "_b c #E2EBF5FF",
  "&3 c #E3E3E2FF",
  "jp c #E3E4E3FF",
  "_! c #E3ECF6FF",
  "rt c #E4E4E3FF",
  "1E c #E4E5E4FF",
  "#* c #E5E5E4FF",
  "6A c #E6E6E5FF",
  "51 c #E6E7E5FF",
  "y. c #E6EEF7FF",
  "&. c #E7E7E6FF",
  ",- c #E7E8E6FF",
  "6$ c #E8E8E7FF",
  "1W c #E8E9E7FF",
  "r0 c #E8E9E8FF",
  "lC c #E9E9E8FF",
  "^$ c #E9EBE9FF",
  "lb c #EAEAE9FF",
  "X| c #EAEBE9FF",
  ">d c #EAEBEAFF",
  "#p c #EBEBE9FF",
  "6d c #EBEBEAFF",
  ":, c #EBEBEBFF",
  "Wt c #EBECEBFF",
  "#A c #ECECEAFF",
  "ld c #EDEDECFF",
  ";h c #EDEDEDFF",
  "5] c #EEEEEDFF",
  ":< c #EEEEEEFF",
  ">& c #EEEFEEFF",
  "lt c #EFEFEEFF",
  "fn c #EFF0EFFF",
  "l8 c #F0F0EFFF",
  ";T c #F0F0F0FF",
  "46 c #F0F1F0FF",
  ",0 c #F1F1F0FF",
  "#Z c #F2F2F0FF",
  "c} c #F2F2F1FF",
  "}8 c #F2F3F1FF",
  "$n c #F2F3F2FF",
  "55 c #F3F3F2FF",
  ":O c #F3F3F3FF",
  "@< c #F3F4F3FF",
  "hE c #F4F4F3FF",
  "c` c #F5F5F4FF",
  "-k c #F5F5F5FF",
  ">A c #F5F6F5FF",
  "v0 c #F6F6F5FF",
  "!r c #F6F6F6FF",
  "v9 c #F7F7F6FF",
  ":9 c #F7F7F7FF",
  "}/ c #F7F8F7FF",
  ";R c #F8F8F8FF",
  "_S c #F8FAFDFF",
  "lP c #F9F9F8FF",
  ":v c #F9F9F9FF",
  "i` c #F9FBFDFF",
  ":5 c #FAFAFAFF",
  ";7 c #FCFCFCFF",
  "=q c #FDFDFDFF",
  "GP c #FDFDFEFF",
  "Dx c #FDFEFEFF",
  ";f c #FEFEFEFF",
  "1U c #FFFFFFFF",
  "   c none",
  
  // Image data
  "                                                                ",
  "                          3k~Vv122Z2ZPe_                        ",
  "                        Zk~C~ZrW&3gp3:~AA-                      ",
  "              rD~S~D~F~V~G]Ylbv055#*+{]aW$2CxpH[                ",
  "            CI5s&v}/l85z6=ld1U:9ld}g3j6f:igH:u~HZNTt            ",
  "          ZQ5s:v46=q:91W6$;f:v:<jp%!5zB{KZrH~Jc))=Z2{&          ",
  "          CE6D&2<-3VL&c]3j#ZlthE5]w/yM$n:O6d}gBlks:g~K          ",
  "          Z-1Et,BCr0BCvX~L=q=qv0lt,-w/r0>d}g&JeMeOKpZ2          ",
  "    r#!b~P~IeBD&lt;755@%=H')')gW&vLwW2Hz6DBCeM:z~U5(~YrZ        ",
  "    ~T~R:O$n%~#AlP!rltR$|*6&UD,B]M%|R1gFgc!t~E3>!0T/:MZrcW      ",
  "  Y}~W>A:5-k51:91U1U,0%|6d:95]60WY~Q5zKpkyBClC&2~!4QT/2XZm      ",
  "  '&~~c}c`&.=q1U=qhE>d6D:,X|%#3jt=3V3,eBR$lt;7$no#=Hj23,~^S&    ",
  "  Z!~/6d,-l81U:5,06$&3#*lwo#l!#ngWdw}8t5Wt;R!rltrW|*6&5z%P~(t@  ",
  "ro~)ld;h&.:v:9:<#*%:ldrt%~eM:zT(<-~_tX6A:91U1U46$t6d:95]60~`~'  ",
  "~]6A:O1U5]>&Wt}gBCw/&3&JeMrAT(fE~[*25a=q1U=q@<>d6D:,lb%#3jQ.~{  ",
  "~};T;RfnD&l!%^BlZjdJBCGS!aT(T(T(T(T(h7v9:5,06$&3#*D&D&l!#n34~|  ",
  "^.^X#p&v!zT(gFtXT(T(tXA(T(T(T(T(T(fEr+:95]#*=fldrtW2gp:zT([l^o^O",
  "'.^+60&.#*TID&%|ygq]c)A(T(T(T(T/CH2X,`Wt}gBC%^&3&JgprAT(fEh+fE^@",
  "  r{^#RoeBeBeBeBeBeBeBeBeBeBeB]R5p!2l!w/BlZjdJ%!GS!aT(T(T(T(T(K,",
  "                          ~]Bl^$%l!zT(gFtXT(T(tXA(T(T(T(T(T(R2!q",
  "        _g_h_j_k          _l_z-:_x_cTID&Bpygq]c)A(T(T(T(T/<N^&^*",
  "        _v_by._n          _m_Mi`_N_BeBeBeBeBeBeBeBeBeBeBZ^^=t2  ",
  "        _V_C_b_Z        h<_AGP1U_S_D                            ",
  "        _F_G_Z_H          _J_KDx_L_P              _H_Z_I_U      ",
  "                          _Y_T_A_R_E              _Z_byT_W      ",
  "                              h<                  _Q_!4o_v      ",
  "                                            h<    _~_^_/_(      ",
  "          _)_G_Z__                      _E_R_A_T_Y              ",
  "          _`_'_t_V        ___/_Q_H      _P_LDx_K_J              ",
  "          _]yT_b_v        _v_[_b_{      _D_S1UGP_Ah<            ",
  "          _U_}_|`.        _W4o_4`X      `o`Oi`_L_m              ",
  "                          _U_G_Z__      `+`@`#`$_E              "
};
