/* XPM */
const char *xpm_tango_status_weather_clear[] = {
  // Header (width height colors chars-per-pixel)
  "32 32 319 2",
  
  // Colors (code mode value)
  "Rz c #F7AA3E21",
  "Rm c #F7AF4020",
  "RH c #F7B33C1E",
  "E3 c #F8AA3924",
  "R~ c #F8AC3E25",
  "Ra c #F8AD3C22",
  "E@ c #F8AE3C26",
  "Ed c #F8AF3A23",
  "R) c #F9AC3B2B",
  "Rx c #F9AC3D2E",
  "RF c #F9AC4028",
  "Rn c #F9AE3A2C",
  "QF c #F9AE3E29",
  "Rl c #FAAD3B38",
  "RR c #FAAD3D32",
  "QD c #FAAE3C2F",
  "Ww c #FAAE3D65",
  "QQ c #FAB03C37",
  "Rg c #FAB03D64",
  "Wb c #FAB03E5E",
  "RI c #FAB13E31",
  "E4 c #FAB13FA7",
  "Rd c #FAB33D64",
  "Wq c #FAB446A7",
  "W- c #FAB54BA9",
  "Rh c #FAB648A7",
  "QL c #FBAE3E7B",
  "RM c #FBAE3F39",
  "Q$ c #FBAF3E46",
  "QK c #FBB03F8E",
  "Qg c #FBB03FF6",
  "R! c #FBB13F89",
  "W, c #FBB13FF0",
  "QG c #FBB23E87",
  "RE c #FBB23F8E",
  "E[ c #FBB23FCA",
  "RP c #FBB2418E",
  "QM c #FBB33FC9",
  "Qe c #FBB3408C",
  "W! c #FBB340D0",
  "E* c #FBB444F3",
  "WJ c #FBBA4EAB",
  "QT c #FBBC52AB",
  "QS c #FBCB7FAF",
  "Ef c #FCAD3D54",
  "Qh c #FCAE3C4C",
  "Q, c #FCAE3F55",
  "Qt c #FCAF3D50",
  "Rs c #FCAF3EB2",
  "Qc c #FCAF3F5D",
  "EI c #FCB03D64",
  "WH c #FCB03EF4",
  "Wz c #FCB03FFB",
  "W~ c #FCB04057",
  "E& c #FCB13B52",
  "R| c #FCB13D65",
  "Em c #FCB13E4E",
  "WL c #FCB13E62",
  "Qm c #FCB13EF0",
  "Qn c #FCB13EF6",
  "Wu c #FCB13EF9",
  "WN c #FCB13FEF",
  "W8 c #FCB13FF3",
  "E2 c #FCB14058",
  "E_ c #FCB1405F",
  "Q# c #FCB140F4",
  "Qb c #FCB23FE9",
  "EL c #FCB23FEC",
  "R[ c #FCB240F7",
  "Qj c #FCB33FA7",
  "R{ c #FCB33FE9",
  "E1 c #FCB33FEF",
  "W% c #FCB340C2",
  "R] c #FCB342F0",
  "WK c #FCB344A5",
  "Qv c #FCB43FBE",
  "WI c #FCB440BB",
  "R' c #FCB441C9",
  "Wn c #FCB445A3",
  "R} c #FCB540C4",
  "Q! c #FCB546A5",
  "Rk c #FCB547A5",
  "E8 c #FCB752B2",
  "R( c #FCB755B2",
  "Q2 c #FCB849F9",
  "Q% c #FCBB47F7",
  "Qk c #FCBC42B2",
  "QE c #FCBC4EAA",
  "RS c #FCBC5FB2",
  "W0 c #FCBD51AA",
  "E0 c #FCC159F8",
  "QH c #FCC46EAE",
  "Qu c #FCC756FC",
  "Rb c #FCCB77AC",
  "Rc c #FCCD7BAC",
  "R^ c #FCCD80AE",
  "E+ c #FCCD82AE",
  "RW c #FCCF85AE",
  "RL c #FCD088AE",
  "WP c #FDAE3D71",
  "QP c #FDAE3E78",
  "Q^ c #FDAE3F75",
  "We c #FDAF3F76",
  "Es c #FDAF3F7D",
  "R` c #FDAF4070",
  "QN c #FDAF4166",
  "RC c #FDB03D7A",
  "Rp c #FDB03E77",
  "RG c #FDB03E8B",
  "Qw c #FDB03F7E",
  "RD c #FDB13D79",
  "E' c #FDB13E80",
  "E# c #FDB13F8A",
  "E6 c #FDB23E8B",
  "Q1 c #FDB23F71",
  "QU c #FDB23F85",
  "W{ c #FDB33FE8",
  "Qy c #FDB33FED",
  "E9 c #FDB3407C",
  "Ql c #FDB3408C",
  "EM c #FDB340EE",
  "RJ c #FDB34186",
  "W= c #FDB43F69",
  "RB c #FDB4418E",
  "Q> c #FDB647FD",
  "Qq c #FDB848FC",
  "Ea c #FDBE4FF7",
  "Eg c #FDC159F7",
  "Qf c #FDC355FE",
  "W] c #FDC456FE",
  "E% c #FDC670A9",
  "E) c #FDCB59FA",
  "W^ c #FDCB5AF8",
  "Q8 c #FDD250FF",
  "E< c #FDD36EF9",
  "E= c #FDD67AFA",
  "WM c #FEBC5FB2",
  "QV c #FEBD42B1",
  "En c #FEBE4EF6",
  "RA c #FEBF61B2",
  "Wy c #FEBF64B2",
  "RZ c #FEC069B2",
  "W: c #FEC16BB2",
  "QZ c #FEC66FAD",
  "Q~ c #FEC674B2",
  "Wr c #FEC675B2",
  "Wm c #FEC872AC",
  "Rf c #FEC97AB2",
  "E5 c #FECA69B2",
  "Eo c #FECD71B2",
  "Qr c #FECD73B2",
  "W` c #FECF4AFF",
  "Q7 c #FED04AFF",
  "W; c #FED080AC",
  "QO c #FED14AFF",
  "Q- c #FED24BFF",
  "Q6 c #FED24EFF",
  "EU c #FED270F9",
  "WE c #FED34BFF",
  "Wk c #FED34CFF",
  "WF c #FED350FF",
  "Q= c #FED44BFF",
  "W6 c #FED550FF",
  "Qo c #FED64BFF",
  "W_ c #FED64CFF",
  "Q9 c #FED65EFF",
  "WD c #FED74CFF",
  "WW c #FED75EFF",
  "Q; c #FED761FF",
  "Q+ c #FED762FF",
  "Q. c #FED84CFF",
  "Qd c #FED86EFF",
  "QJ c #FED8A0B2",
  "Wj c #FEDA4DFF",
  "Q5 c #FEDA5FFF",
  "Qi c #FEDA6FFF",
  "RK c #FEDA9FB2",
  "RQ c #FEDAA0B2",
  "W@ c #FEDB4DFF",
  "E/ c #FEDB4EFF",
  "WQ c #FEDB72FF",
  "W# c #FEDC61FF",
  "QX c #FEDD4EFF",
  "WS c #FEDE4EFF",
  "Q* c #FEDE67FF",
  "W( c #FEDF4FFF",
  "Q@ c #FEDF76FF",
  "W) c #FEE04FFF",
  "EG c #FEE053FF",
  "WT c #FEE054FF",
  "WR c #FEE057FF",
  "Wg c #FEE058FF",
  "W2 c #FEE059FF",
  "WZ c #FEE05AFF",
  "W| c #FEE067FF",
  "Wh c #FEE14FFF",
  "W+ c #FEE150FF",
  "Ec c #FEE153FF",
  "E^ c #FEE155FF",
  "WO c #FEE156FF",
  "Ex c #FEE158FF",
  "EF c #FEE15BFF",
  "W5 c #FEE15CFF",
  "E~ c #FEE15DFF",
  "Wo c #FEE15EFF",
  "Wf c #FEE15FFF",
  "ET c #FEE160FF",
  "Et c #FEE161FF",
  "E$ c #FEE1AAB2",
  "EH c #FEE250FF",
  "WA c #FEE251FF",
  "WC c #FEE252FF",
  "WV c #FEE258FF",
  "Ey c #FEE25FFF",
  "W3 c #FEE262FF",
  "WY c #FEE267FF",
  "R/ c #FEE2ADB2",
  "Wp c #FEE355FF",
  "Wa c #FEE362FF",
  "W4 c #FEE365FF",
  "ED c #FEE366FF",
  "E{ c #FEE367FF",
  "Ws c #FEE368FF",
  "Wd c #FEE369FF",
  "Ez c #FEE36AFF",
  "W1 c #FEE45FFF",
  "EV c #FEE46AFF",
  "ER c #FEE56CFF",
  "Er c #FEE56EFF",
  "Ej c #FEE56FFF",
  "EJ c #FEE570FF",
  "WU c #FEE583FF",
  "El c #FEE672FF",
  "W} c #FEE77EFF",
  "Eu c #FEE876FF",
  "Ev c #FEE877FF",
  "WX c #FEE878FF",
  "EC c #FEE879FF",
  "E! c #FEE97AFF",
  "EE c #FEE97BFF",
  "EA c #FEEA81FF",
  "Ee c #FEEA87FF",
  "E| c #FEEB84FF",
  "EB c #FEEB8BFF",
  "Wx c #FEEC71B2",
  "QR c #FEEC73B2",
  "QC c #FEEC7BB2",
  "EZ c #FEEC85FF",
  "Eh c #FEEC8DFF",
  "E, c #FEEC9CFF",
  "W. c #FEED85FF",
  "E- c #FEEEA5FF",
  "EQ c #FEEF8EFF",
  "EW c #FEF090FF",
  "Wc c #FEF5D8B2",
  "EO c #FEF6C6B2",
  "Qz c #FEF6C9B2",
  "Rv c #FEFBD8B2",
  "Wt c #FEFBDAB2",
  "E` c #FF808002",
  "EP c #FF993305",
  "QB c #FFAA3909",
  "W9 c #FFAA400C",
  "RU c #FFAA4018",
  "E] c #FFAD3D19",
  "RN c #FFAD401C",
  "Wv c #FFB03E1D",
  "W& c #FFB03E2D",
  "E. c #FFB13B0D",
  "Q< c #FFB14024",
  "QY c #FFB14034",
  "EX c #FFB23B2B",
  "RY c #FFB3330A",
  "QW c #FFB3391B",
  "RV c #FFB34028",
  "E7 c #FFB3412F",
  "W> c #FFB34D0A",
  "QI c #FFB43C22",
  "W* c #FFB53C26",
  "RT c #FFB54018",
  "R_ c #FFB9460B",
  "W[ c #FFBF4004",
  "Qx c #FFCB69B1",
  "QA c #FFDA9EB1",
  "W$ c #FFE074FF",
  "Q0 c #FFE278FF",
  "W' c #FFE478FF",
  "Q3 c #FFE479FF",
  "Qp c #FFE47BFF",
  "Qs c #FFE47DFF",
  "Q: c #FFE57EFF",
  "ES c #FFE674FF",
  "Ek c #FFE675FF",
  "Q4 c #FFE67BFF",
  "E} c #FFE776FF",
  "Qa c #FFE780FF",
  "WG c #FFE981FF",
  "E( c #FFE982FF",
  "W/ c #FFEB84FF",
  "EK c #FFEB8DFF",
  "W7 c #FFEC83FF",
  "Q& c #FFED83FF",
  "Wl c #FFEF88FF",
  "Ep c #FFF0A1FF",
  "WB c #FFF19FFF",
  "Eb c #FFF1A1FF",
  "EN c #FFF1ADFF",
  "Ei c #FFF2A0FF",
  "Eq c #FFF2B0FF",
  "EY c #FFF3ABFF",
  "Wi c #FFF4ACFF",
  "W< c #FFF4ADFF",
  "Ew c #FFF4AFFF",
  "E> c #FFF5B3FF",
  "E; c #FFF6B9FF",
  "E: c #FFF7BEFF",
  "v4 c #FFFF0001",
  "Rj c #FFFFFEB2",
  "   c none",
  
  // Image data
  "                              Rp                                ",
  "                            RaRsRa                              ",
  "                            RdRfRg                              ",
  "                          v4RhRjRkv4                            ",
  "        RlRz              RxRcRvRbRn              RmRM          ",
  "        RNRsRBRV          RCRZRARSRD          RFRGRsRH          ",
  "          RJRKRLRPRI      RURY  RYRT      RRRERWRQR!            ",
  "          R~R^RjR/R(R)R_R`R'R]R[R{R}R|E.EXRsEoEOE+E@            ",
  "            E#E$E%RaE&E*E=E-E;E:E>E,E<E1E2E3E4E5E6              ",
  "            E7E8RaE9E0EqEwEeErEtEyEuEiEpEaEsEdRsE7              ",
  "              R)EfEgE;EhEjEkElEzEtExEcEvEbEnEmR)                ",
  "              R_EMENEBEVECEZEAESEDEFEGEHEJEKELEP                ",
  "              EIEUEYETEREEEWEQE!EzE~E^EHE/E(E)E_                ",
  "      E`RRE'E]E[E,ECE~E{E}E|W.WXEzWoWOW+W@W#W$W%E]RCW&v4        ",
  "  W*W=W-W;W:W>W,W<W1W2W3EREkE}EJW4W5E^EHE/W6W7W8W9RsW0WqWwRa    ",
  "WeRsWrRjWtWy  WuWiWpE^EFWaWsWdEDWfWgEcWhWjWkWlWz  RsWxWcWrRsWeW9",
  "  WvWbWnWmWMW9WNWBWVWCE^WZE~WfE~W2E^WAWSWDWFWGWHW9RsWJWKWLRm    ",
  "      v4RVWPRUWIWUWYWhWAWTWOWRWOWTWAWhWjWEWWWQW!RTRpRnv4        ",
  "              W~W^W/WjW(EHWAWCWAEHW)W@W_W`W'W]R|                ",
  "              W[W{W}W|Q.W@QXW(WSQXWjQoQOQ+Q@Q#R_                ",
  "              RnQ$Q%Q&Q*Q=W_WDWDQoQ-W`Q;Q:Q>Q,EX                ",
  "            RIRsQ<Q1Q2Q3Q4Q5Q6Q7Q8Q9Q0Q@QqQwW*RsE7              ",
  "            QeQrE4E3QtQyQuQiQpQaQsQdQfQgQhE3QjQkQl              ",
  "          W*E+QzQxRsR)RYQcQvQbQnQmQMQNQBRVRsQVQCQZRV            ",
  "          E#QAQSE6QD      E]W9  W9RT      QFQGQHQJQK            ",
  "        RHRsR!R~          QLRsRsRsQP          QIQURsRz          ",
  "        QYWv              RnQTQRQERn              QWQQ          ",
  "                          v4Q!WcQ!v4                            ",
  "                            RgQ~Rg                              ",
  "                            RaRsRa                              ",
  "                              Q^                                ",
  "                              W9                                "
};
