/* XPM */
const char *xpm_tango_status_weather_showers_scattered[] = {
  // Header (width height colors chars-per-pixel)
  "32 32 365 2",
  
  // Colors (code mode value)
  "NE c #0000FF01",
  "%_ c #0055AA03",
  ")k c #1E4B8733",
  ")s c #1F4B884B",
  "p- c #204A87FF",
  ")g c #204B87FD",
  "7n c #204B8847",
  ")V c #21498665",
  "KR c #21498746",
  "eg c #214A887C",
  "Sq c #214B864E",
  ")b c #214B87FB",
  "%u c #214B88FF",
  ")X c #214C882F",
  "#} c #2244880F",
  ")i c #224A88FA",
  "s' c #224B87FF",
  ")4 c #224B888F",
  ")& c #224C8872",
  "u^ c #224C89F7",
  ")n c #224D8753",
  ")3 c #224D89F6",
  "([ c #23478724",
  ")- c #234B852C",
  ")m c #234C88FB",
  ")o c #234C89C5",
  ")6 c #234D8984",
  ")0 c #234D8AA8",
  ")d c #234D8AEE",
  ")h c #234E8AE7",
  ")l c #234E8BE6",
  "K- c #2449800E",
  ")u c #24498615",
  ")= c #244D8AEB",
  ")B c #244E8BA3",
  ")7 c #244E8BA9",
  ")< c #244E8BCD",
  "); c #244E8BDE",
  ")q c #244E8BE2",
  ")y c #244F89F0",
  ")j c #24508CCC",
  ")w c #24518BA1",
  ")a c #254F8BB5",
  "), c #254F8CDC",
  "t{ c #274E890D",
  ")v c #29528CF7",
  "(} c #2A5189FF",
  ")+ c #2A528BFF",
  "(' c #2F558AFF",
  ")N c #315B94F5",
  ")c c #325B93F4",
  "Ct c #40408004",
  ")e c #4068A0F8",
  ")f c #4169A1F7",
  ")* c #416CA3FD",
  "nZ c #436AA0FF",
  ")O c #455363FF",
  "(` c #456288FF",
  ")M c #4970A6F3",
  ")1 c #4A6FA2F6",
  "(_ c #4F6787FF",
  "^i c #525A521F",
  ",C c #525B521C",
  ")5 c #527AACF9",
  ")% c #53585334",
  "d@ c #53585337",
  "(4 c #5359532B",
  "(b c #5457526D",
  "(O c #54575270",
  "(& c #5458539A",
  "(0 c #545853A9",
  "#P c #55555503",
  "Kw c #5555550F",
  "Ez c #55555521",
  "(3 c #55555536",
  "^A c #5557536C",
  "^P c #55575387",
  "(2 c #555753B8",
  "(d c #555753B9",
  "($ c #555753C2",
  "(X c #555753D1",
  "/| c #555753E4",
  "(u c #555753EA",
  "(. c #555753F5",
  "/k c #555753FF",
  "(% c #555852C6",
  "(Z c #555854E0",
  "(p c #56565241",
  "(; c #56565350",
  "^, c #56565359",
  "(N c #56575298",
  "/} c #565753AA",
  "(C c #565754EF",
  "(Y c #565853DF",
  "^c c #56585474",
  "(o c #56585477",
  "(Q c #5658547C",
  "(# c #56585486",
  "(P c #565854F8",
  "(- c #565954CF",
  "(h c #565955E9",
  "YE c #57575129",
  "(L c #57585399",
  "(@ c #575854D7",
  "<8 c #575955FF",
  "[j c #575A56F2",
  "(c c #58584E1A",
  "(j c #58584F1D",
  "(x c #585956EA",
  "(J c #585A55EA",
  "(a c #585A55FD",
  "(D c #585A567D",
  "/j c #585A56CA",
  "(y c #585A56F7",
  "(f c #585B566B",
  "(T c #585B57C4",
  "[o c #595A57FF",
  "(] c #595A58C3",
  "*N c #595B56FF",
  "<n c #595B57FF",
  "(1 c #5A5C58FA",
  "(: c #5A5C59F3",
  "4| c #5B5B5B0E",
  "(v c #5B5C59FF",
  "(9 c #5B5D59FA",
  "]' c #5B5D5AFF",
  "LV c #5C5D59FF",
  "(U c #5C5E59FD",
  "(< c #5C5E5AEE",
  "yQ c #5C5E5AFF",
  "P: c #5D5E5BFF",
  "yZ c #5D5F5AFF",
  "(! c #5D5F5CF2",
  "(5 c #5E605CF7",
  "Bd c #5F615DFF",
  "(M c #5F625DFF",
  "LC c #60615DFF",
  "yA c #61635EFF",
  ")8 c #6184B1F9",
  "(k c #626360F1",
  "]] c #626460FF",
  "(| c #628EC1FF",
  "]f c #636560FF",
  "Br c #636561FF",
  "(K c #646661FE",
  "(W c #646762F4",
  "yD c #656762FF",
  "(+ c #656763FC",
  ")p c #658CBCFE",
  "<, c #66666605",
  "L~ c #666863FF",
  "() c #676864FF",
  "f| c #676A65FF",
  "(g c #686965F6",
  "(G c #686B66FF",
  "[3 c #696A67FF",
  "(H c #696B67FD",
  "h$ c #696B67FF",
  "2B c #6995C7FF",
  "G( c #6A6B68FF",
  "({ c #6B7A88FF",
  "yz c #6C6E69FF",
  "5l c #6D6F6BFF",
  "P= c #6E6F6BFF",
  "(* c #6F716DFE",
  "O8 c #6F99C8FF",
  "B9 c #70726EFF",
  ")t c #7094C0FE",
  "yv c #71736EFF",
  ")> c #7198C5FF",
  ")9 c #719AC6FF",
  "BM c #737571FF",
  ":* c #737671FF",
  "(z c #747571FF",
  "). c #757773FE",
  "P1 c #757874FF",
  "66 c #777874FF",
  "26 c #777974FE",
  "BK c #777975FF",
  "(E c #777A74FF",
  "(( c #777F85FF",
  "(s c #787A77FF",
  "G/ c #797B77FF",
  ".A c #7B7D79FF",
  ")z c #7B9FC9FF",
  "1: c #7F817CFF",
  "*O c #80817DFF",
  "B1 c #80817EFF",
  "W. c #80827DFF",
  "lW c #81837FFF",
  "lU c #828480FF",
  "ge c #838685FF",
  "(t c #848582FF",
  "W$ c #848681FF",
  "W> c #858782FF",
  ")r c #85A8CFFF",
  "(i c #868784FF",
  "LE c #868985FF",
  ")2 c #86A9D0FF",
  "g, c #878984FF",
  "kd c #878985FF",
  "3r c #888985FF",
  "&| c #888986FF",
  "B, c #888987FF",
  "l] c #888A84FF",
  "eB c #888A85FF",
  "]R c #898B86FF",
  "sf c #89AED7FF",
  "5@ c #8A8C87FF",
  "v+ c #8A8C88FF",
  "c2 c #8A8C89FF",
  "=H c #8B8D88FF",
  "(^ c #8C8E88FF",
  "3, c #8C8E89FF",
  "j2 c #8C8E8AFF",
  "(= c #8C8E8BFF",
  "3V c #8D8F8AFF",
  "cg c #8E8F8CFF",
  "fO c #8E908BFF",
  "ZE c #8F908CFF",
  "ji c #8F918CFF",
  "3< c #90928EFF",
  "(I c #91938EFF",
  "r+ c #92938FFF",
  "(F c #929391F7",
  "3> c #92948FFF",
  "h@ c #929490FF",
  ")# c #92B5DAFF",
  "jC c #949591FF",
  "j8 c #949691FF",
  "5h c #949692FF",
  "Np c #94B6DAFF",
  "f; c #959693FF",
  "hc c #95B7DBFF",
  "EQ c #969795FF",
  "k0 c #969893FF",
  "L& c #969894FF",
  "): c #96B2D2FF",
  "~J c #96B5D7FF",
  "hx c #96B8DBFF",
  "Z( c #989A96FF",
  "<0 c #999A98FF",
  "'C c #999B96FF",
  "$t c #999C96FF",
  "kp c #9A9B97FF",
  "(A c #9A9B98FB",
  "t9 c #9A9B98FF",
  "t, c #9A9C98FF",
  "t$ c #9B9D99FF",
  ")@ c #9BB6D5FF",
  "(n c #9D9E9CF9",
  "3B c #9D9F9AFF",
  "5w c #9E9F9CFF",
  "]J c #9EA09BFF",
  "gE c #9EA09CFF",
  "'j c #9EBDDEFF",
  "]y c #9FA09DFF",
  ":M c #9FA19DFF",
  "*{ c #9FA19EFF",
  "(V c #A0A09CFF",
  "[l c #A0A19DFF",
  "(, c #A0A19EFF",
  "<g c #A0A19FFF",
  "W^ c #A0BEDFFF",
  "<- c #A1A29EFF",
  "1z c #A2A39FFF",
  "gH c #A2A4A0FF",
  "(8 c #A2A4A2FF",
  ")x c #A2BEDDFF",
  "<S c #A3A4A2FF",
  "v@ c #A3A5A1FF",
  "*g c #A3C0E0FF",
  "^n c #A4A5A1FF",
  "L9 c #A4A6A3FF",
  "e[ c #A5A6A2FF",
  "(~ c #A5A6A3FE",
  "(q c #A5A6A4FF",
  "ZM c #A5A7A3FF",
  "1< c #A6A7A4FF",
  "(m c #A6A8A3FF",
  "hX c #A6A8A4FF",
  "qG c #A6C0DDFF",
  "Fv c #A6C2E0FF",
  "(S c #A7A7A3FF",
  "LR c #A8A9A6FF",
  "34 c #A8AAA6FF",
  "4} c #A9A9A7FF",
  "gW c #A9AAA6FF",
  "2u c #A9AAA7FF",
  "^T c #A9ACA8FF",
  "4Q c #AAABA8FF",
  "(e c #ABACA8FF",
  "(B c #ABACA9FE",
  "]i c #ABACA9FF",
  ")$ c #ABADAAFF",
  "KJ c #ACADAAFF",
  "qV c #ACADABFF",
  "]p c #ACAEAAFF",
  "]. c #ACC7E3FF",
  "Kt c #ADAEAAFF",
  "(/ c #ADAEABFF",
  "/h c #ADAFABFF",
  "(R c #AEAFACFE",
  "^b c #AEAFACFF",
  ",B c #AEB0ACFF",
  "5i c #AFB1ADFF",
  "<O c #B0B0AEFF",
  "jl c #B0B1AEFF",
  "yB c #B1B2AEFF",
  "2r c #B1B2AFFF",
  "Kg c #B2B3AFFF",
  "]a c #B2B3B0FF",
  "<$ c #B2B3B1FF",
  "(7 c #B2B4B1FF",
  "<{ c #B3B4B1FF",
  "<# c #B3B4B2FF",
  "v. c #B4B5B1FF",
  "gs c #B4B5B2FF",
  "Q. c #B4B6B2FF",
  "ki c #B4B6B3FF",
  "W3 c #B5B6B3FF",
  "w< c #B6B7B5FF",
  "2e c #B7B8B5FF",
  ",~ c #B7B8B6FF",
  "K` c #B8B8B5FF",
  "t< c #B8B9B6FF",
  "(r c #B8BAB7FF",
  "yU c #B9BAB7FF",
  "h3 c #B9BAB8FF",
  "!2 c #B9BBB8FF",
  "Kp c #BABBB8FF",
  "wh c #BBBCB9FF",
  "Bm c #BCBCBAFF",
  "2w c #BCBDBAFF",
  "R2 c #BCBDBBFF",
  "|- c #BCBEBBFF",
  "c] c #BDBEBBFF",
  "hn c #BDBEBCFF",
  "!1 c #BEBFBCFF",
  "6, c #BFBFBDFF",
  ";= c #BFBFBFFF",
  "rK c #BFC0BDFF",
  "(6 c #BFC1BFFF",
  "wS c #C0C1BEFF",
  "fn c #C1C2BFFF",
  "|= c #C1C2C0FF",
  "fd c #C2C3C0FF",
  "0M c #C2C3C2FF",
  "T/ c #C3C4C1FF",
  "(l c #C4C4C2FF",
  "dq c #C5C6C3FF",
  "A( c #C6C7C4FF",
  "(> c #C6C7C6FF",
  "fM c #C8C8C7FF",
  "c) c #CACBC8FF",
  "Be c #CACBCAFF",
  "B6 c #CBCCCAFF",
  "5y c #CDCDCCFF",
  "(w c #D0D2D0FF",
  "dJ c #D1D2D0FF",
  "R1 c #D4D5D3FF",
  "%B c #D4D5D4FF",
  "#0 c #D5D5D4FF",
  "Bp c #D7D8D6FF",
  "   c none",
  
  // Image data
  "                                                                ",
  "                          d@/}/|(.(X(o4|                        ",
  "                        (O(+t9<$w<<SG/(@Ez                      ",
  "            ,C(#($(%(&^c(*;=BmrKyU,B]i(=(-<,Kw<,                ",
  "          (;(:<00M(>qVBKh3hnT/wh]aLRgE(,BM(<Br(1(2(3            ",
  "        (4(5fMdJ|=rKK`c](6T/2w(7gW:Mk0ji<g(8]yEQB1(9^,          ",
  "        (0(q(wfd5h]f<8yAB,R2gs]a(e:Mji'C(rW3^be[f;(t(y^i        ",
  "        (u%Bfd&|G/Kpdq^byv(i|=whQ.^bL9v.W3/hZM]JL&c25l(#        ",
  "      (p(ayzG(]]A(hnwSKpyByQ[3L~:*jCgH3B4}ZM]JL&ZE3r(s(d        ",
  "    (f(gw<B6<#KJ!1fn2w2r2ucgv+r+1:P:B1.ABd<8Bd66g,eBW.(h(4      ",
  "  (j(kBp(lhngs|-c]fn!1^b5wKJ,~<{*{l](v(zKpdq^bB95leBeBlU(x(c    ",
  "  (b(nc)c]]a2rfnfnrK2e5i(mki]a4Q^nfOh$L&hnwSKpyByQLC(Mf|P=(N    ",
  "  ^P(Bfd2r2ufnfnR2W3(/1<1z(VhX:MZ(3,yD*Ofn2w2r2ucgv+r+1:LV(C    ",
  "#P(Z(ABeZMKtfnKp(74Q(S<O]iv@$tj83Vg,yZ]fwS!1^b5wKJ,~<{*{l][o(j  ",
  "(D(F5ywSKpKgt<jl34[l^T4QgHt,h@eBeB.AW$(Gj22e5i(mki]a4Q^nfO(H^A  ",
  "(J#0wS!1^b)$^bZM]Jk0ZM1zkp3>5@eBeBeBeBlWBd(/1<1z(VhX:MZ(3,(K(L  ",
  "(PR16,5igEji<-t$jC3,L&'C(I]ReBeBeBeBeBW><n(S<O]iv@$tj83Vg,(U(Y#P",
  "(T(RT/^nZEeB=H3<]ReB]R3VeBeBeBeBeBeBeB(EG(^T4QgHt,h@eBeB.AW$(W(Q",
  "(4(!(~rKwS!2<{]pZM:M'C3>=HeBeBeBeBW>P1]'(^ZM1zkp3>5@((LEeBeBlW(J",
  "  (3/j(P/k/k/k/k/k/k/k/k/k/k/k/k/k*N()g,3,L&'C(I]Rkdp-(_eBeBW>(P",
  "                      (T(RT/^nZEeB=H3<]ReB]R3VeBge(`p-('eBeB26(]",
  "              eg([    (4(!(~rKwS!2<{]pZM:M'C3>({(}nZ(|%uW>).[jYE",
  "            )Xp-)o      (3/j(P/k/k/k/k/k/k/k)O)+)@)#O8s'(P/j)%  ",
  "        Ct)&u^)*)=              )-%_        );):Nphx)>),        ",
  "      #})<)1)22B)3            NEp-)4        u^~J'j].)5)6        ",
  "      )7)8Fvsf)9)=          K-)0p-)q        )w)e)r)t)y)u        ",
  "      )iqGhc*g)p)a        )s)d)f(|)g        t{)7)h)j)k          ",
  "      )l)zW^)x)cKR      Sq)v)@)#O8)b                            ",
  "      )n)m)M)N)B        );):Nphx)>),                            ",
  "        )X)V7nNE        u^~J'j].)5)6                            ",
  "                        )w)e)r)t)y)u                            ",
  "                        t{)7)h)j)k                              "
};
