/* XPM */
const char *xpm_tango_status_weather_few_clouds[] = {
  // Header (width height colors chars-per-pixel)
  "32 32 422 2",
  
  // Colors (code mode value)
  "@R c #80808002",
  "<4 c #80808004",
  "A- c #86868613",
  "rd c #868A863B",
  "eB c #888A85FF",
  "rF c #888B844F",
  "TB c #8989865D",
  "G9 c #898B86FC",
  "G, c #898B86FD",
  "]R c #898B86FF",
  "!g c #898C8545",
  "!e c #898C86FA",
  "!: c #898C8768",
  "G$ c #898C87F3",
  "xp c #8A8A863D",
  "!c c #8A8B86CB",
  "~B c #8A8C86FE",
  "!j c #8A8D8757",
  "u= c #8B8D87F3",
  "!$ c #8B8D88EF",
  "!& c #8B8E89DA",
  "~O c #8C8D86FF",
  "~v c #8C8D87FE",
  "!i c #8C8E89D2",
  "!p c #8C8E89D8",
  "!9 c #8C8E89DA",
  "!G c #8C8E89DB",
  "!k c #8C8E89DE",
  "!v c #8C8E89F4",
  "!m c #8C8E8ACF",
  "!# c #8C8F89A8",
  "~9 c #8D8D86FC",
  "!< c #8D8E89B3",
  "!Z c #8D8E8ACD",
  "!h c #8D8F89A4",
  "!F c #8D8F8BF3",
  "~b c #8E8E87DD",
  "~0 c #8F8E84F9",
  "~8 c #909184FF",
  "~7 c #929284FF",
  "~@ c #93907E53",
  "~; c #969894F2",
  "~N c #979786F5",
  "xf c #979995F3",
  "!K c #98907CFA",
  "~l c #9A967EFF",
  "!f c #9A9C98F2",
  "~+ c #9B937FFD",
  "~o c #9B9781FF",
  "~m c #9B9A92FB",
  "bQ c #9C9078FF",
  "~i c #9C9981FF",
  "~c c #9C9986FF",
  "!] c #9E9179DF",
  "Z0 c #9FA19CFF",
  "!x c #9FA19DFE",
  "~q c #A0937CC6",
  "~- c #A1A197FF",
  "!u c #A6A7A4F7",
  "~j c #A89471FF",
  "~x c #A8A8A0FF",
  "!0 c #ACADA9FF",
  "~h c #AEA678FF",
  "~6 c #B2A979FF",
  "!L c #B39B6EE5",
  "v. c #B4B5B1FF",
  "gs c #B4B5B2FF",
  "!D c #B5B5B2FF",
  "!I c #B8996A76",
  "Kp c #BABBB8FF",
  "rK c #BFC0BDFF",
  "!y c #C0C2C0FF",
  "!> c #C2C3C0F8",
  "fd c #C2C3C0FF",
  "T/ c #C3C4C1FF",
  "T( c #C4C5C2FF",
  "~d c #C5C5BFFF",
  "dq c #C5C6C3FF",
  "A( c #C6C7C4FF",
  "!a c #C7C8C5FF",
  "~M c #C8A769C8",
  "~n c #C99F5EA0",
  "!C c #C9CAC7FF",
  "!z c #CACAC8FF",
  "tX c #CACBC9FF",
  "B6 c #CBCCCAFF",
  "#n c #CCCDCAFF",
  "~s c #CDBD67FF",
  "!* c #CDCDCBFC",
  "!V c #CECFCCFF",
  "5z c #CECFCDFF",
  "V. c #CFCFCBFF",
  "q] c #CFD0CDFF",
  "R- c #D0D1CDFF",
  "~: c #D1A259C8",
  "~w c #D3A6532E",
  "+~ c #D3D3D1FF",
  "60 c #D4D4D2FF",
  "R1 c #D4D5D3FF",
  "~= c #D5C362FF",
  "5b c #D5D5D3FF",
  "UB c #D5D6D3FF",
  "Bl c #D6D7D5FF",
  "~X c #D7C061FF",
  "6% c #D7D7D5FF",
  "Bp c #D7D8D6FF",
  "~f c #D8D8D4FF",
  "%| c #D8D8D6FF",
  "3j c #D8D9D7FF",
  "&2 c #D9D9D7FF",
  "BC c #D9DAD8FF",
  "!J c #DAB477F4",
  "~p c #DAC198FF",
  "6k c #DADAD9FF",
  "%~ c #DBDBD9FF",
  "Wy c #DBDCDAFF",
  "~z c #DCC46BFF",
  "lw c #DCDCDBFF",
  "D& c #DCDDDBFF",
  "@% c #DCDDDCFF",
  "R$ c #DEDFDDFF",
  "]Y c #DEDFDEFF",
  "w/ c #DFE0DEFF",
  "~# c #E0A5509C",
  "!U c #E0B067FC",
  "~e c #E0D4C0FF",
  "%^ c #E0E0DEFF",
  "!Y c #E1D8C8FF",
  "~t c #E1DACEFF",
  "6D c #E1E1E0FF",
  "%# c #E2E2E1FF",
  "}g c #E2E3E1FF",
  "~$ c #E3AC5BFC",
  "&3 c #E3E3E2FF",
  "5r c #E3E4E2FF",
  "jp c #E3E4E3FF",
  "rt c #E4E4E3FF",
  "|= c #E4E5E3FF",
  "3: c #E5E6E4FF",
  "6A c #E6E6E5FF",
  ";b c #E6E6E6FF",
  "&. c #E7E7E6FF",
  "~r c #E8C693FF",
  "6$ c #E8E8E7FF",
  "r0 c #E8E9E8FF",
  "$` c #E9E9E7FF",
  "lC c #E9E9E8FF",
  "!E c #EADECAFF",
  "lb c #EAEAE9FF",
  "~3 c #EBE7E1FF",
  "6d c #EBEBEAFF",
  "Wt c #EBECEBFF",
  "![ c #ECCE9DFF",
  "!! c #ECEAE4FF",
  "j# c #ECECEBFF",
  ":> c #ECECECFF",
  "4M c #ECEDECFF",
  "#i c #EDEDEBFF",
  "ld c #EDEDECFF",
  ";t c #EDEEEDFF",
  "!H c #EFD6A6CC",
  "fn c #EFF0EFFF",
  "l8 c #F0F0EFFF",
  ",0 c #F1F1F0FF",
  ";` c #F1F1F1FF",
  "~y c #F2BD67FF",
  "!_ c #F2CC92FF",
  "!T c #F2CE95FF",
  ";' c #F2F2F2FF",
  "$n c #F2F3F2FF",
  "~> c #F3EADDFF",
  "55 c #F3F3F2FF",
  ":O c #F3F3F3FF",
  "!) c #F4E5CFFF",
  "!{ c #F5C781FF",
  "~5 c #F5DA60FF",
  "!W c #F5DBB6FF",
  "c` c #F5F5F4FF",
  "-k c #F5F5F5FF",
  "!} c #F6D7A0FF",
  "~& c #F6F4DDFF",
  "!( c #F6F5F4FF",
  "v0 c #F6F6F5FF",
  "!r c #F6F6F6FF",
  "Rz c #F7AA3E21",
  "Rm c #F7AF4020",
  "RH c #F7B33C1E",
  "~1 c #F7D399FF",
  ":9 c #F7F7F7FF",
  "E3 c #F8AA3924",
  "R~ c #F8AC3E25",
  "Ra c #F8AD3C22",
  "E@ c #F8AE3C26",
  "Ed c #F8AF3A23",
  "R) c #F9AC3B2B",
  "Rx c #F9AC3D2E",
  "RF c #F9AC4028",
  "Rn c #F9AE3A2C",
  "~g c #F9B64CFF",
  "~k c #F9B849FF",
  "~% c #F9D29AFF",
  "~, c #F9DEB4FF",
  "lP c #F9F9F8FF",
  ":v c #F9F9F9FF",
  "Rl c #FAAD3B38",
  "RR c #FAAD3D32",
  "QD c #FAAE3C2F",
  "Ww c #FAAE3D65",
  "Rg c #FAB03D64",
  "RI c #FAB13E31",
  "E4 c #FAB13FA7",
  "Rd c #FAB33D64",
  "!P c #FAB445F6",
  "Wq c #FAB446A7",
  "Rh c #FAB648A7",
  "~2 c #FACC8BFF",
  ":5 c #FAFAFAFF",
  "RM c #FBAE3F39",
  "R! c #FBB13F89",
  "RE c #FBB23F8E",
  "RP c #FBB2418E",
  "Qe c #FBB3408C",
  "~4 c #FBB449FF",
  "~. c #FBB649FF",
  "!~ c #FBB74CFF",
  "!R c #FBC25DFF",
  "QS c #FBCB7FAF",
  "!^ c #FBDDB0FF",
  ";Q c #FBFBFBFF",
  "Qt c #FCAF3D50",
  "Rs c #FCAF3EB2",
  "Qc c #FCAF3F5D",
  "R| c #FCB13D65",
  "Em c #FCB13E4E",
  "E2 c #FCB14058",
  "E_ c #FCB1405F",
  "EL c #FCB23FEC",
  "R[ c #FCB240F7",
  "~* c #FCB243FF",
  "R{ c #FCB33FE9",
  "E1 c #FCB33FEF",
  "W% c #FCB340C2",
  "R] c #FCB342F0",
  "R' c #FCB441C9",
  "R} c #FCB540C4",
  "Q! c #FCB546A5",
  "Rk c #FCB547A5",
  "R( c #FCB755B2",
  "Q2 c #FCB849F9",
  "RS c #FCBC5FB2",
  "W0 c #FCBD51AA",
  "!' c #FCC267FF",
  "!Q c #FCC35DFF",
  "Qu c #FCC756FC",
  "~a c #FCCB5CFF",
  "Rb c #FCCB77AC",
  "Rc c #FCCD7BAC",
  "R^ c #FCCD80AE",
  "E+ c #FCCD82AE",
  "RW c #FCCF85AE",
  "RL c #FCD088AE",
  "!| c #FCD296FF",
  "~u c #FCDF58FF",
  ";7 c #FCFCFCFF",
  "Q^ c #FDAE3F75",
  "We c #FDAF3F76",
  "Es c #FDAF3F7D",
  "R` c #FDAF4070",
  "RC c #FDB03D7A",
  "Rp c #FDB03E77",
  "RG c #FDB03E8B",
  "RD c #FDB13D79",
  "E# c #FDB13F8A",
  "E6 c #FDB23E8B",
  "Q1 c #FDB23F71",
  "Qy c #FDB33FED",
  "RJ c #FDB34186",
  "RB c #FDB4418E",
  "Ea c #FDBE4FF7",
  "E) c #FDCB59FA",
  "~< c #FDCF88FF",
  "E< c #FDD36EF9",
  "E= c #FDD67AFA",
  "=q c #FDFDFDFF",
  "En c #FEBE4EF6",
  "RA c #FEBF61B2",
  "RZ c #FEC069B2",
  "Q~ c #FEC674B2",
  "Wr c #FEC675B2",
  "Rf c #FEC97AB2",
  "E5 c #FECA69B2",
  "Eo c #FECD71B2",
  "Qr c #FECD73B2",
  "[y c #FED293FF",
  "Q= c #FED44BFF",
  "!/ c #FED473FF",
  "W_ c #FED64CFF",
  "Q. c #FED84CFF",
  "Wj c #FEDA4DFF",
  "RK c #FEDA9FB2",
  "RQ c #FEDAA0B2",
  "W@ c #FEDB4DFF",
  "E/ c #FEDB4EFF",
  "W# c #FEDC61FF",
  "QX c #FEDD4EFF",
  "Q* c #FEDE67FF",
  "W( c #FEDF4FFF",
  "EG c #FEE053FF",
  "WT c #FEE054FF",
  "Wg c #FEE058FF",
  "W2 c #FEE059FF",
  "WZ c #FEE05AFF",
  "W| c #FEE067FF",
  "Wh c #FEE14FFF",
  "W+ c #FEE150FF",
  "Ec c #FEE153FF",
  "E^ c #FEE155FF",
  "WO c #FEE156FF",
  "Ex c #FEE158FF",
  "EF c #FEE15BFF",
  "W5 c #FEE15CFF",
  "E~ c #FEE15DFF",
  "Wo c #FEE15EFF",
  "Wf c #FEE15FFF",
  "ET c #FEE160FF",
  "Et c #FEE161FF",
  "EH c #FEE250FF",
  "WA c #FEE251FF",
  "WC c #FEE252FF",
  "WV c #FEE258FF",
  "Ey c #FEE25FFF",
  "W3 c #FEE262FF",
  "WY c #FEE267FF",
  "R/ c #FEE2ADB2",
  "Wp c #FEE355FF",
  "Wa c #FEE362FF",
  "W4 c #FEE365FF",
  "ED c #FEE366FF",
  "E{ c #FEE367FF",
  "Ws c #FEE368FF",
  "Wd c #FEE369FF",
  "Ez c #FEE36AFF",
  "W1 c #FEE45FFF",
  "EV c #FEE46AFF",
  "ER c #FEE56CFF",
  "Er c #FEE56EFF",
  "Ej c #FEE56FFF",
  "EJ c #FEE570FF",
  "WU c #FEE583FF",
  "El c #FEE672FF",
  "W} c #FEE77EFF",
  "Eu c #FEE876FF",
  "Ev c #FEE877FF",
  "WX c #FEE878FF",
  "EC c #FEE879FF",
  "E! c #FEE97AFF",
  "EE c #FEE97BFF",
  "EA c #FEEA81FF",
  "Ee c #FEEA87FF",
  "E| c #FEEB84FF",
  "EB c #FEEB8BFF",
  "Wx c #FEEC71B2",
  "EZ c #FEEC85FF",
  "Eh c #FEEC8DFF",
  "E, c #FEEC9CFF",
  "W. c #FEED85FF",
  "E- c #FEEEA5FF",
  "EQ c #FEEF8EFF",
  "EW c #FEF090FF",
  "Wc c #FEF5D8B2",
  "EO c #FEF6C6B2",
  "Qz c #FEF6C9B2",
  "Rv c #FEFBD8B2",
  ";f c #FEFEFEFF",
  "EP c #FF993305",
  "W9 c #FFAA400C",
  "RU c #FFAA4018",
  "E] c #FFAD3D19",
  "RN c #FFAD401C",
  "Wv c #FFB03E1D",
  "W& c #FFB03E2D",
  "E. c #FFB13B0D",
  "Q< c #FFB14024",
  "QY c #FFB14034",
  "EX c #FFB23B2B",
  "RY c #FFB3330A",
  "RV c #FFB34028",
  "E7 c #FFB3412F",
  "W* c #FFB53C26",
  "RT c #FFB54018",
  "R_ c #FFB9460B",
  "Qx c #FFCB69B1",
  "QA c #FFDA9EB1",
  "W$ c #FFE074FF",
  "Q3 c #FFE479FF",
  "ES c #FFE674FF",
  "Ek c #FFE675FF",
  "Q4 c #FFE67BFF",
  "E} c #FFE776FF",
  "E( c #FFE982FF",
  "W/ c #FFEB84FF",
  "EK c #FFEB8DFF",
  "Q& c #FFED83FF",
  "Ep c #FFF0A1FF",
  "WB c #FFF19FFF",
  "Eb c #FFF1A1FF",
  "EN c #FFF1ADFF",
  "Ei c #FFF2A0FF",
  "Eq c #FFF2B0FF",
  "EY c #FFF3ABFF",
  "Wi c #FFF4ACFF",
  "W< c #FFF4ADFF",
  "Ew c #FFF4AFFF",
  "E> c #FFF5B3FF",
  "E; c #FFF6B9FF",
  "E: c #FFF7BEFF",
  "!` c #FFF7ECFF",
  "JG c #FFFCF8FF",
  "v4 c #FFFF0001",
  "Rj c #FFFFFEB2",
  "1U c #FFFFFFFF",
  "   c none",
  
  // Image data
  "                              Rp                                ",
  "                            RaRsRa                              ",
  "                            RdRfRg                              ",
  "                          v4RhRjRkv4                            ",
  "        RlRz              RxRcRvRbRn              RmRM          ",
  "        RNRsRBRV          RCRZRARSRD          RFRGRsRH          ",
  "          RJRKRLRPRI      RURY  RYRT      RRRERWRQR!            ",
  "          R~R^RjR/R(R)R_R`R'R]R[R{R}R|E.EXRsEoEOE+E@            ",
  "            E#!H!J!K!L!PE=E-E;E:E>E,E<E1E2E3E4E5E6              ",
  "            !I!U!Y!T!REqEwEeErEtEyEuEiEpEaEsEdRsE7              ",
  "    A-!#!$G$]R!E!W!QE;EhEjEkElEzEtExEcEvEbEnEmR)                ",
  "  <4!&!*-k;`D&!!!~ENEBEVECEZEAESEDEFEGEHEJEKELEP                ",
  "  !:!>$n=q:O6A!^!/EYETEREEEWEQE!EzE~E^EHE/E(E)E_                ",
  "  !<&.!(!)!_!`!'E,ECE~E{E}E|W.WXEzWoWOW+W@W#W$W%E]RCW&v4        ",
  "  !]![!{!}!|JG~.W<W1W2W3EREkE}EJW4W5E^EH~X~o~O~+~@RsW0WqWwRa    ",
  "~#~$~%lP~&[yv0~*WiWpE^EFWaWsWdEDWfWgEc~=~-]Yr0R1~;~:WxWcWrRsWeW9",
  "!9~>~,~<~1~2~3~4WBWVWCE^WZE~Wf~5~6~7~8]R6$;`;7l8R1eB~9~0~q~w    ",
  "!e!r;f#i~e~r~t~yWUWYWhWAWTWO~u~iV.c`,0@%j#:9-kldlw!y5bB6!u!i@R  ",
  "!p&3lCWy!aT(!V~p~aW/WjW(EHWA~s~d55=q:O6A:51U;fldBll8v0Wtq]!fTB  ",
  "!gxfBC&.|=%^Wy~f~gW}W|Q.W@QX~h&.!r55&.1U1U;Q;'lCw/;tlC6D60!0!h  ",
  "  !j!kG,eBeBeBbQ~j~kQ&Q*Q=W_~l6D6d3::91UlPfn;brt|=%~WyR1!z!x!c  ",
  "            RIRsQ<Q1Q2Q3Q4~z~xl8:>rt1Uv0ldjp&3j#}gBCR-A(T/Z0!vxp",
  "            QeQrE4E3QtQyQu~c$n:v;f6d55lb6D%|5r%#3jq]A(T(Kpfdv.!m",
  "          W*E+QzQxRsR)RYQc~v!r;f4MBC&2R$UB#nUBBp5zdqT(T(T(T(rKu=",
  "          E#QAQSE6QD      ~bjp$`Wy!adq!V!CT(dqtXT(T(T(T(T(T(gs!Z",
  "        RHRsR!R~          ~n~m6k&.|=%^Wy6%+~5z!zdqT(T(T(T/!D!Frd",
  "        QYWv              Rn~M~N~BeBeBeBeBeBeBeBeBeBeBeBG9!GrF  ",
  "                          v4Q!WcQ!v4                            ",
  "                            RgQ~Rg                              ",
  "                            RaRsRa                              ",
  "                              Q^                                ",
  "                              W9                                "
};
