/* XPM */
const char *xpm_tango_status_weather_storm[] = {
  // Header (width height colors chars-per-pixel)
  "32 32 358 2",
  
  // Colors (code mode value)
  "^i c #525A521F",
  ",C c #525B521C",
  ")% c #53585334",
  "d@ c #53585337",
  "(4 c #5359532B",
  "(b c #5457526D",
  "(O c #54575270",
  "(& c #5458539A",
  "(0 c #545853A9",
  "#P c #55555503",
  "Kw c #5555550F",
  "Ez c #55555521",
  "(3 c #55555536",
  "^A c #5557536C",
  "^P c #55575387",
  "(2 c #555753B8",
  "(d c #555753B9",
  "($ c #555753C2",
  "(X c #555753D1",
  "/| c #555753E4",
  "(u c #555753EA",
  "(. c #555753F5",
  "/k c #555753FF",
  "(% c #555852C6",
  "(Z c #555854E0",
  "(p c #56565241",
  "(; c #56565350",
  "^, c #56565359",
  "/} c #565753AA",
  "(Y c #565853DF",
  "^c c #56585474",
  "(o c #56585477",
  "(Q c #5658547C",
  "(# c #56585486",
  "(P c #565854F8",
  "(- c #565954CF",
  "(h c #565955E9",
  "YE c #57575129",
  "(L c #57585399",
  "(@ c #575854D7",
  ")F c #575955EF",
  "<8 c #575955FF",
  "(c c #58584E1A",
  "(j c #58584F1D",
  ")G c #585854C3",
  "(J c #585A55EA",
  "(a c #585A55FD",
  "(D c #585A567D",
  "/j c #585A56CA",
  "(y c #585A56F7",
  "(f c #585B566B",
  "(T c #585B57C4",
  "(] c #595A58C3",
  "`3 c #595B57F2",
  "<n c #595B57FF",
  ")H c #5A5B57FD",
  ")S c #5A5B57FF",
  "`= c #5A5C57FF",
  "(1 c #5A5C58FA",
  "(: c #5A5C59F3",
  "4| c #5B5B5B0E",
  "(v c #5B5C59FF",
  "(9 c #5B5D59FA",
  ")L c #5C5E58FE",
  "(< c #5C5E5AEE",
  "yQ c #5C5E5AFF",
  "P: c #5D5E5BFF",
  "yZ c #5D5F5AFF",
  "(! c #5D5F5CF2",
  "(5 c #5E605CF7",
  "6X c #5E605DFF",
  ")K c #5E615CFF",
  "(M c #5F625DFF",
  "LC c #60615DFF",
  ")C c #60625DFF",
  "yA c #61635EFF",
  "fH c #61635FFF",
  "(k c #626360F1",
  "]] c #626460FF",
  "]f c #636560FF",
  "Br c #636561FF",
  ")J c #646662FE",
  "(W c #646762F4",
  "yD c #656762FF",
  "(+ c #656763FC",
  ")D c #656863FF",
  "<, c #66666605",
  "L~ c #666863FF",
  "(g c #686965F6",
  "(G c #686B66FF",
  "[3 c #696A67FF",
  "h$ c #696B67FF",
  "G( c #6A6B68FF",
  "yl c #6A6C68FF",
  ",$ c #6B6E6AFF",
  "yz c #6C6E69FF",
  "5l c #6D6F6BFF",
  ".I c #6F706DFF",
  "(* c #6F716DFE",
  "B9 c #70726EFF",
  "yv c #71736EFF",
  "h% c #71736FFF",
  "BM c #737571FF",
  ":* c #737671FF",
  "BK c #777975FF",
  "(l c #787A76FF",
  "(s c #787A77FF",
  "`1 c #796D57F4",
  "G/ c #797B77FF",
  ".A c #7B7D79FF",
  ")Z c #7C7D7AFF",
  "`- c #7C7E79FE",
  "f< c #7C7F79FF",
  "1: c #7F817CFF",
  "5D c #7F817DFF",
  "/p c #7F827DFF",
  "B1 c #80817EFF",
  "W. c #80827DFF",
  "lW c #81837FFF",
  "(t c #848582FF",
  "W$ c #848681FF",
  "W> c #858782FF",
  "(i c #868784FF",
  "K' c #878885FF",
  "g, c #878984FF",
  "3r c #888985FF",
  "&| c #888986FF",
  "B, c #888987FF",
  "l] c #888A84FF",
  "eB c #888A85FF",
  "`* c #888B88FF",
  "`2 c #898B88FE",
  "v+ c #8A8C88FF",
  "c2 c #8A8C89FF",
  "3, c #8C8E89FF",
  "(= c #8C8E8BFF",
  "3V c #8D8F8AFF",
  "fo c #8E8F8BFF",
  "cg c #8E8F8CFF",
  "fO c #8E908BFF",
  "ji c #8F918CFF",
  "r+ c #92938FFF",
  "(F c #929391F7",
  "3> c #92948FFF",
  "jC c #949591FF",
  "j8 c #949691FF",
  "5h c #949692FF",
  "Lh c #959692FF",
  "f; c #959693FF",
  ".` c #959793FF",
  "EQ c #969795FF",
  "k0 c #969893FF",
  "L& c #969894FF",
  "Z( c #989A96FF",
  "<0 c #999A98FF",
  "'C c #999B96FF",
  "$t c #999C96FF",
  "(A c #9A9B98FB",
  "t9 c #9A9B98FF",
  ":g c #9C9E9AFF",
  "eQ c #9D9E9AFF",
  "(n c #9D9E9CF9",
  "5w c #9E9F9CFF",
  "]J c #9EA09BFF",
  "gE c #9EA09CFF",
  "]y c #9FA09DFF",
  ":M c #9FA19DFF",
  "*{ c #9FA19EFF",
  "(V c #A0A09CFF",
  "(, c #A0A19EFF",
  "<g c #A0A19FFF",
  ":u c #A0A29EFF",
  "t- c #A1A39FFF",
  "1z c #A2A39FFF",
  "(8 c #A2A4A2FF",
  "<S c #A3A4A2FF",
  "v@ c #A3A5A1FF",
  "^n c #A4A5A1FF",
  "j5 c #A4A6A2FF",
  "L9 c #A4A6A3FF",
  "e[ c #A5A6A2FF",
  "(q c #A5A6A4FF",
  "ZM c #A5A7A3FF",
  "1< c #A6A7A4FF",
  "(m c #A6A8A3FF",
  "hX c #A6A8A4FF",
  "(S c #A7A7A3FF",
  "^0 c #A8A9A5FF",
  "LR c #A8A9A6FF",
  "34 c #A8AAA6FF",
  "gW c #A9AAA6FF",
  "2u c #A9AAA7FF",
  "4Q c #AAABA8FF",
  "jz c #AAACA8FF",
  "(e c #ABACA8FF",
  "(B c #ABACA9FE",
  "]i c #ABACA9FF",
  "KJ c #ACADAAFF",
  "qV c #ACADABFF",
  "Kt c #ADAEAAFF",
  "(/ c #ADAEABFF",
  "/h c #ADAFABFF",
  "0m c #ADAFACFF",
  "`& c #AEAEACFF",
  "(R c #AEAFACFE",
  "^b c #AEAFACFF",
  ",B c #AEB0ACFF",
  "3T c #AFB0ADFF",
  "5i c #AFB1ADFF",
  "<O c #B0B0AEFF",
  "jl c #B0B1AEFF",
  "yB c #B1B2AEFF",
  "2r c #B1B2AFFF",
  "`% c #B1B4B1FF",
  "Kg c #B2B3AFFF",
  "]a c #B2B3B0FF",
  "<$ c #B2B3B1FF",
  "(7 c #B2B4B1FF",
  "<{ c #B3B4B1FF",
  "<# c #B3B4B2FF",
  "`0 c #B48A48FC",
  "v. c #B4B5B1FF",
  "gs c #B4B5B2FF",
  "Q. c #B4B6B2FF",
  "ki c #B4B6B3FF",
  "W3 c #B5B6B3FF",
  "t= c #B6B7B4FF",
  "w< c #B6B7B5FF",
  "2e c #B7B8B5FF",
  ",~ c #B7B8B6FF",
  "K` c #B8B8B5FF",
  "t< c #B8B9B6FF",
  "<N c #B8BAB6FF",
  "(r c #B8BAB7FF",
  "yU c #B9BAB7FF",
  "h3 c #B9BAB8FF",
  "!2 c #B9BBB8FF",
  "Kp c #BABBB8FF",
  "wh c #BBBCB9FF",
  "|; c #BBBCBAFF",
  "Bm c #BCBCBAFF",
  "2w c #BCBDBAFF",
  "R2 c #BCBDBBFF",
  "|- c #BCBEBBFF",
  "c] c #BDBEBBFF",
  "hn c #BDBEBCFF",
  "!1 c #BEBFBCFF",
  "6, c #BFBFBDFF",
  ";= c #BFBFBFFF",
  "rK c #BFC0BDFF",
  "(6 c #BFC1BFFF",
  "V{ c #C0C0BDFF",
  "wS c #C0C1BEFF",
  "6a c #C1C1BFFF",
  "fn c #C1C2BFFF",
  "|= c #C1C2C0FF",
  "fd c #C2C3C0FF",
  "0M c #C2C3C2FF",
  "T/ c #C3C4C1FF",
  ")A c #C4C4C2FF",
  "Ka c #C4C5C3FF",
  "dq c #C5C6C3FF",
  "A( c #C6C7C4FF",
  "<u c #C6C7C5FF",
  "(> c #C6C7C6FF",
  "!a c #C7C8C5FF",
  "rA c #C7C8C6FF",
  "fM c #C8C8C7FF",
  "ks c #C9CAC8FF",
  "c) c #CACBC8FF",
  "tX c #CACBC9FF",
  "Be c #CACBCAFF",
  "^Q c #CBCCC9FF",
  "B6 c #CBCCCAFF",
  "5y c #CDCDCCFF",
  "6e c #CECECCFF",
  "5z c #CECFCDFF",
  "GS c #D0D1CEFF",
  "(w c #D0D2D0FF",
  "dJ c #D1D2D0FF",
  "yg c #D3D4D2FF",
  "R1 c #D4D5D3FF",
  "%B c #D4D5D4FF",
  "#0 c #D5D5D4FF",
  "l! c #D5D6D4FF",
  "@, c #D6D8D6FF",
  "Bp c #D7D8D6FF",
  "6k c #DADAD9FF",
  "t5 c #DBDBDAFF",
  "@% c #DCDDDCFF",
  "=f c #E0E1E0FF",
  "%# c #E2E2E1FF",
  "&3 c #E3E3E2FF",
  "`; c #E6B3330A",
  "6A c #E6E6E5FF",
  "Ba c #E7E8E7FF",
  "`I c #EBD8000D",
  "`P c #EDD50061",
  "`K c #EECF0676",
  "`H c #F0CE0CED",
  ";T c #F0F0F0FF",
  "`S c #F1CE1DE5",
  "`G c #F2C41E3C",
  "`D c #F2CB29C6",
  "`L c #F2CF0B5F",
  "`e c #F2D938FF",
  "@< c #F3F4F3FF",
  "`9 c #F4AD3DFC",
  "`V c #F4DE57FF",
  "`r c #F5E76EFF",
  "`A c #F6B03E1D",
  "`n c #F6E67DFF",
  "`M c #F7B33565",
  "`b c #F7BA2D98",
  "`5 c #F7C33CF3",
  "`B c #F7C42FBE",
  "`m c #F7D861F5",
  "`j c #F7DF75FF",
  "5Y c #F7EC8DFF",
  "`4 c #F8B03A6E",
  "`f c #F8B72ED2",
  "`g c #F8B82FD3",
  "`C c #F8BE2C95",
  "`6 c #F8D466FF",
  "`> c #F8E686FF",
  "`t c #F8EE98FF",
  "`a c #F9AE402C",
  "`8 c #F9B03BF4",
  "`d c #F9B730CA",
  "`h c #F9B92FD7",
  "`l c #F9C545E0",
  ":D c #F9FAF9FF",
  "`i c #FAB236CB",
  "`w c #FAB733D0",
  "`J c #FABF2530",
  "`u c #FAEFB5FF",
  "4< c #FAF3B6FF",
  "`v c #FBAF3E8F",
  "`x c #FBB03AF1",
  "`7 c #FBB13AF2",
  "`: c #FBB13BE9",
  "`c c #FBB13CF0",
  "`< c #FBBA54F9",
  "`k c #FBF4C2FF",
  "4A c #FBF5C1FF",
  "`s c #FCAF3C59",
  "`, c #FCF8D5FF",
  "`p c #FDBB55F7",
  "`y c #FEFCEBFF",
  "7X c #FEFCF1FF",
  "W9 c #FFAA400C",
  "`F c #FFAE3A16",
  "`z c #FFAE412F",
  "`q c #FFAF4010",
  "`N c #FFB34D0A",
  "`Z c #FFB64907",
  "v4 c #FFFF0001",
  "   c none",
  
  // Image data
  "                                                                ",
  "                          d@/}/|(.(X(o4|                        ",
  "                        (O(+t9<$w<<SG/(@Ez                      ",
  "            ,C(#($(%(&^c(*;=BmrKyU,B]i(=(-<,Kw<,                ",
  "          (;(:<00M(>qVBKh3hnT/wh]aLRgE(,BM(<Br(1(2(3            ",
  "        (4(5fMdJ|=rKK`c](6T/2w(7gW:Mk0ji<g(8]yEQB1(9^,          ",
  "        (0(q(wfd5h]f<8yAB,R2gs]a(e:Mji'C(rW3^be[f;(t(y^i        ",
  "        (u%Bfd&|G/Kpdq^byv(i|=whQ.^bL9v.W3/hZM]JL&c25l(#        ",
  "      (p(ayzG(]]A(hnwSKpyByQ[3L~:*jCt-/pfH<8)C)Zfo3r(s(d        ",
  "    (f(gw<B6<#KJ!1fn2w2r2ucgv+r+1:P:yl(lKpdq^bB95leBW.(h(4      ",
  "  (j(kBp)Ahngs|-c]fn!1^b5wKJ,~<{*{l])SyUhnwSKpyByQLC(M)D)F(c    ",
  "  (b(nc)c]]a2rfnfnrK2e5i(mki]a4Q^nfO,$r+fn2w2r2ucgv+r+1:(v)G    ",
  "  ^P(Bfd2r2ufnfnR2W3(/1<1z(VhX:MZ(3,yD5Dfn!1^b5wKJ,~<{*{l])H(j  ",
  "#P(Z(ABeZMKtfnKp(74Q(S<O]iv@$tj83Vg,yZBr!12e5i(mki]a4Q^nfOh$^A  ",
  "(D(F5ywSKpKgt<]a0m^0`%<$jz:u.`eBeB.AW$(GK'(/1<1z(VhX:MZ(3,)J(L  ",
  "(J#0wS!12rki2w!2<Nt=fdV{t<5ij5:gLh3,eBlW)K(S<O]iv@$tj83Vg,)L(Y#P",
  "(PR16,t=3TKJ6aKa<urA5zGSkswSyUjlhXeQ3>W><n`%<$jz:u.`eBeB.AW$(W(Q",
  "(T(R!av.`&Q.|=5zl!@%%#&3@%R1tXwSgs34:gf<.IfdV{t<5ij5:gLh3,eBlW(J",
  "(4(!(B^Qyg@,t5=fBa;T:D@<6A6k6efd2e34`*6XW35zGSkswSyUjlhXeQ3>W>(P",
  "  (3/j(P/k/k/k/k/k/k/k/k/k/k/k/k/k`=h%|;@%%#&3@%R1tXwSgs34:g`-(]",
  "            `;`:`>`,7X`<`1(B^Qyg@,t5=fBa;T:D@<6A6k6efd2e34`2`3YE",
  "            `4`55Y4<`6`7`8`9`0/k/k/k/k/k/k/k/k/k/k/k/k/k(P/j)%  ",
  "          `q`w`e`r`t4A`y`u`iW9    `;`:`>`,7X`p`a                ",
  "          `s`d`f`g`h`j`k`l`z      `4`55Y4<`6`7`x`c`v            ",
  "                  `b`n`m`M      `q`w`e`r`t4A`y`u`iW9            ",
  "                `N`B`V`C`Z      `s`d`f`g`h`j`k`l`z              ",
  "                `A`S`D`F                `b`n`m`M                ",
  "                `G`H`J                `N`B`V`C`Z                ",
  "                `K`Lv4                `A`S`D`F                  ",
  "                `P                    `G`H`J                    ",
  "                `I                    `K`Lv4                    ",
  "                                      `P                        "
};
