/* XPM */
const char *xpm_tango_status_weather_clear_night[] = {
  // Header (width height colors chars-per-pixel)
  "32 32 216 2",
  
  // Colors (code mode value)
  "@R c #80808002",
  "<W c #80808006",
  "CQ c #878A8455",
  "Wb c #878B8451",
  "Ql c #888A85FD",
  "TY c #888B884B",
  "Un c #89898545",
  "Yq c #89898654",
  "TB c #8989865D",
  "Rq c #898B868D",
  "Ri c #898B86A7",
  "Ro c #898B86FB",
  "4` c #898C865D",
  "R5 c #8A8C8687",
  "xv c #8A8C87F8",
  "Rw c #8A8C88E5",
  "TA c #8A8D885E",
  "Ry c #8B8C88A7",
  "R8 c #8B8D868F",
  "G1 c #8B8D88E4",
  "R* c #8B8E8AAC",
  "Ru c #8C8D89E2",
  "rh c #8C8D89EE",
  "R; c #8C8E89A9",
  "'7 c #8C8E89E7",
  "RX c #8C8F89E9",
  "TG c #8C908B9E",
  "TK c #8C918A9D",
  "TU c #8D8E8993",
  "r| c #8D8F89E8",
  "R. c #8D8F89EA",
  "TS c #8D8F89EE",
  "R, c #8D8F8ADD",
  "TC c #8D8F8AEF",
  "r$ c #8D8F8BDB",
  "r# c #8E8E8E09",
  "TL c #8E908B95",
  "T[ c #8E908CB3",
  "TQ c #8F908BE3",
  "TE c #8F908CE4",
  "T| c #8F918BB0",
  "TZ c #90918DBC",
  "TV c #90938CBD",
  "R0 c #9B9D99F7",
  "TR c #9D9E9AF8",
  "R1 c #9D9F9BF5",
  "TH c #9EA09BFA",
  "R9 c #9EA09DF7",
  "R4 c #9FA09BF5",
  "TJ c #A0A29EF9",
  "TT c #A3A5A0F9",
  "cW c #AAAAAA03",
  "R7 c #ADAFABF5",
  "R: c #ADB0ABF4",
  "T] c #AEAFACF5",
  "Re c #AFB0ADF5",
  "TI c #AFB0ADFA",
  "3T c #AFB0ADFF",
  "R6 c #AFB1ADF6",
  "Rt c #B0B1ADF4",
  "R> c #B1B2AFF3",
  "TF c #B1B4AFFA",
  "TP c #B3B4B0FA",
  "TD c #B5B5B2FB",
  "T~ c #B6B7B4F8",
  "yU c #B9BAB7FF",
  "rK c #BFC0BDFF",
  "fd c #C2C3C0FF",
  "co c #C2C5C0FF",
  "D% c #C3C4C0FF",
  "T/ c #C3C4C1FF",
  "R% c #C3C5C0FF",
  "z| c #C3C5C1FF",
  "T{ c #C3C5C2FF",
  "#* c #C4C5C1FF",
  "T( c #C4C5C2FF",
  "g< c #C4C7C2FF",
  "T^ c #C4C7C3FF",
  "R= c #C5C6C2FF",
  "T' c #C5C7C2FF",
  "TW c #C5C7C3FF",
  ".O c #C6C7C2FF",
  "A( c #C6C7C4FF",
  "T} c #C7C8C4FF",
  ">7 c #C7C9C6FF",
  "R@ c #C8C8C4FF",
  "fv c #C8C9C5FF",
  ":z c #C8C9C6FF",
  "T) c #C8CAC6FF",
  "yK c #C8CBC6FF",
  ")! c #C9CAC6FF",
  ":l c #C9CBC7FF",
  "4{ c #CACCC8FF",
  "R# c #CACDC9FF",
  "Z# c #CBCBC7FF",
  "Eo c #CBCECAFF",
  "EO c #CCCECAFF",
  "RO c #CCCFCBFF",
  "gA c #CDCFCBFF",
  "R$ c #CECFCCFF",
  "R+ c #CFD0CCFF",
  "q] c #CFD0CDFF",
  "}G c #CFD1CDFF",
  "R- c #D0D1CDFF",
  "4g c #D0D2CEFF",
  "Tw c #D2D3CFFF",
  "yF c #D2D4CFFF",
  "R< c #D2D4D1FF",
  "T! c #D3D3CFFF",
  "|$ c #D3D4D0FF",
  "TX c #D3D5D1FF",
  "yG c #D4D5D1FF",
  "eo c #D4D6D0FF",
  ".Y c #D4D6D2FF",
  "Tb c #D5D7D4FF",
  "X_ c #D6D8D4FF",
  "=I c #D6D9D4FF",
  "|g c #D7D9D4FF",
  "T: c #D8D9D5FF",
  "3l c #D8D9D6FF",
  "5# c #D8DAD7FF",
  "}m c #D9DAD7FF",
  "r3 c #D9DBD7FF",
  "T_ c #D9DBD8FF",
  "yC c #DADCD8FF",
  "Kl c #DBDDDAFF",
  "o# c #DCDDDAFF",
  "T` c #DCDED8FF",
  "T; c #DCDEDBFF",
  "|w c #DDDEDBFF",
  "|* c #DDDFDAFF",
  "|1 c #DDDFDBFF",
  "XR c #DDDFDCFF",
  "kl c #DDE0DBFF",
  "yZ c #DEDFDCFF",
  ":f c #DEE0DCFF",
  "4M c #DEE1DCFF",
  "w/ c #DFE0DEFF",
  "XM c #DFE1DDFF",
  "KN c #DFE1DEFF",
  "r8 c #DFE2DDFF",
  "@o c #E0E0DDFF",
  "|2 c #E0E1DEFF",
  ">} c #E1E3DFFF",
  "R& c #E2E4E1FF",
  ">[ c #E3E4E0FF",
  "|h c #E3E4E1FF",
  ";4 c #E3E4E2FE",
  "5r c #E3E4E2FF",
  ":w c #E3E5E1FF",
  "X} c #E3E5E2FF",
  "Rr c #E4E4E3FD",
  "3} c #E4E6E2FF",
  "3: c #E5E6E4FF",
  ">{ c #E5E7E3FF",
  ",% c #E6E7E3FF",
  "r6 c #E6E8E4FF",
  "|t c #E7E8E4FF",
  "}K c #E7E8E5FF",
  ";Z c #E7E9E5FF",
  "}I c #E8EAE6FF",
  ":U c #E9EBE7FF",
  "fG c #E9EBE8FF",
  ":Q c #EAECE8FF",
  "|r c #EBECE9FF",
  "5; c #EBECEAFF",
  "|- c #EBEDE9FF",
  ">. c #EBEDEAFF",
  "}l c #ECEDEAFF",
  ";r c #ECEEEAFF",
  "}w c #EDEEEBFF",
  "o. c #EDEEECFF",
  ";t c #EDEEEDFF",
  ";x c #EDEFECFF",
  ";p c #EEF0EDFF",
  "}# c #EFF0EDFF",
  "k7 c #EFF1EEFF",
  "o$ c #F0F1EEFF",
  "46 c #F0F1F0FF",
  ";z c #F0F2EFFF",
  ",0 c #F1F1F0FF",
  "f8 c #F1F2F0FF",
  "c} c #F2F2F1FF",
  "}8 c #F2F3F1FF",
  "Xg c #F3F4F1FF",
  "}, c #F3F4F2FF",
  "@< c #F3F4F3FF",
  "cB c #F3F5F2FF",
  ":3 c #F4F4F4FF",
  ";~ c #F4F5F3FF",
  ">r c #F4F5F4FF",
  "3] c #F5F6F4FF",
  "v0 c #F6F6F5FF",
  ">s c #F6F7F6FF",
  "R3 c #F6F8F6FF",
  ",3 c #F8F8F7FF",
  ";R c #F8F8F8FF",
  "R2 c #F8F9F7FF",
  "37 c #F8F9F8FF",
  ":v c #F9F9F9FF",
  ":D c #F9FAF9FF",
  "g~ c #FAFAF9FF",
  ":5 c #FAFAFAFF",
  "3C c #FAFBFAFF",
  "}1 c #FBFBFAFF",
  ";Q c #FBFBFBFF",
  ";^ c #FBFCFBFF",
  "}y c #FCFCFBFF",
  ";7 c #FCFCFCFF",
  ":1 c #FCFDFCFF",
  "=q c #FDFDFDFF",
  ";f c #FEFEFEFF",
  "}k c #FEFFFEFF",
  "3N c #FFFFFF01",
  "1U c #FFFFFFFF",
  "   c none",
  
  // Image data
  "                                                                ",
  "                                                                ",
  "                                                                ",
  "                                                                ",
  "                                                                ",
  "                              3N3N                              ",
  "                      r#TBTVTCQlQlTCTZTBr#                      ",
  "                    TATSTD3:,3:1;7v0X}TFrh4`                    ",
  "                cWTGTH}83Cf8,%@o>[|t}l:v,0TJTKcW                ",
  "                TLTP;Q;p3}:w>};Z:UKNT!T:},:1TITU                ",
  "              TYTT;7}K>{eo)!)!R<r6:Q|hyG>[o$;7TRTY              ",
  "            cWTEc}|r5#.YyKTWA(:zyC3}yC|*yZ}I@<f8TQcW            ",
  "            CQT~37T;}GT^T/#*T(T)T_T`g<T',%:Q;r}1T]CQ            ",
  "            T[3:5;r3:lT{fdT(:l3l}Ir8T'T}Kl:Q:Q5;w/T|            ",
  "            R.;Ro#:lrKyUD%4{}G:w4M|h:w=Iq]:w}I>{:3RX            ",
  "            Ro;fEOfv3TcoROR+4g|$kl>}}Ifv.OR@Z#fG:1Ro            ",
  "            Ro=qR#>7A(#*:zTwTbTX3}:Q:QR$T)yF|gXM=qRo            ",
  "            r|,3}mT)T}T}z|R%R+;Z:Q:Q:Q;Zr3:Q:wR&>s'7            ",
  "            R*5r46XRyCEoR=R=R-;x:Q|-:Q:Q:Q:Q}Io.;4R;            ",
  "            WbR:3C:U:f|24ggAX_:U}w;r:Q|-:Q}#|-3CR>Wb            ",
  "            @RR,c}}8|1;Z;t3:|w:QXg:Q:Q>.;~;~},c}r$@R            ",
  "              UnR1}y;p}I;z>rg~R2:D;p|-R3>sk7}yR4Un              ",
  "                R5R6;73]:Q:D1U1U1U:5=qcB},;7R7R5                ",
  "                3NR8R9f8;^:D}k1U;f3]37;746R0Rq3N                ",
  "                    YqRwRe;4>s;^;7,3RrRtG1Yq                    ",
  "                      <WCQRyRuxvxvRuRiCQ<W                      ",
  "                                                                ",
  "                                                                ",
  "                                                                ",
  "                                                                ",
  "                                                                ",
  "                                                                "
};
