/* XPM */
const char *xpm_tango_emotes_face_wink[] = {
  // Header (width height colors chars-per-pixel)
  "32 32 704 2",
  
  // Colors (code mode value)
  "+n c #00000001",
  "*T c #00000002",
  "*_ c #00000003",
  "*` c #00000004",
  "*R c #00000006",
  "$p c #00000007",
  ",D c #00000008",
  "1c c #00000009",
  "$a c #0000000A",
  "+> c #0000000B",
  ",q c #0000000C",
  "=2 c #0000000D",
  "=# c #0000000E",
  "$s c #00000010",
  "&Z c #00000011",
  "+r c #00000012",
  "@o c #00000014",
  "=$ c #00000015",
  "+k c #00000016",
  "[~ c #00000017",
  "6O c #0000001B",
  "=w c #0000001C",
  "=@ c #0000001D",
  "*' c #00000020",
  "+g c #00000021",
  "Ee c #00000022",
  ":W c #00000025",
  "+J c #00000027",
  "=s c #0000002B",
  "eg c #0000002C",
  "a( c #0000002D",
  "&R c #0000002F",
  "=l c #00000035",
  "=d c #00000037",
  ",W c #00000039",
  "*/ c #0000003C",
  "[G c #00000044",
  "=f c #00000046",
  "=0 c #00000048",
  "!O c #00000051",
  "*5 c #00000052",
  "eh c #00000056",
  "&+ c #0000005B",
  "&E c #0000005E",
  "kA c #00000062",
  "ej c #00000064",
  "Fc c #00000067",
  "&W c #0000006B",
  "ew c #0000006F",
  "&~ c #0000007A",
  "eq c #0000007D",
  "%J c #000000FF",
  "ek c #0202006A",
  "JU c #050505FF",
  "Cm c #070604FF",
  "e- c #09070570",
  "t' c #090807FF",
  "w' c #0A060350",
  "ee c #0B09048C",
  "CA c #0D0A04FF",
  "ef c #0E090594",
  "CZ c #121009FF",
  "Cs c #14120DFF",
  "Ft c #141414FF",
  "e; c #1510089E",
  "e0 c #171109A7",
  "w` c #24190E47",
  "gg c #252525FF",
  "Cz c #2A291BFF",
  "er c #2B2010BA",
  "ed c #2C2010BE",
  "wU c #30251030",
  "CK c #342A10FF",
  "H. c #36301EFF",
  "HN c #372608FF",
  "CJ c #383116FF",
  "wI c #3B2C1434",
  "HC c #402D09FF",
  "HZ c #412D09FF",
  "e= c #412E16DC",
  "et c #453217E2",
  "w] c #453218D2",
  "Cx c #45402FFF",
  "es c #463217E4",
  "e9 c #463217E7",
  "e: c #463218E2",
  "wm c #472B1C12",
  "HM c #49320AFF",
  "HB c #49330BFF",
  "HV c #4B340BFF",
  "ey c #4D3719F2",
  "ea c #4E381AF2",
  "wM c #4E391C24",
  "w_ c #4F381BE8",
  "eu c #4F391CFB",
  "ep c #503A1CFB",
  "ei c #503A1EFE",
  "wP c #513A1DF1",
  "Ch c #514E38FF",
  "HA c #52370AFF",
  "Cj c #52492AFF",
  "e> c #533B1DFC",
  "e* c #533D1DFB",
  "wn c #543C1CE3",
  "w& c #5540223C",
  "wr c #573E1DB6",
  "e8 c #574023FC",
  "G| c #57461DFF",
  "w[ c #583F1DFC",
  "wY c #5B411FDE",
  "C_ c #5C5536FF",
  "Hm c #5D3E0CFF",
  "qQ c #5D421FD3",
  "wt c #5D46170B",
  "w% c #5E421EF4",
  "qN c #5E43212E",
  "qe c #5F462383",
  "wN c #614623EC",
  "CE c #61501FFF",
  "HX c #625A37FF",
  "CR c #645929FF",
  "Hs c #65450DFF",
  "q@ c #664923DA",
  "wy c #674923D8",
  "qM c #674923F2",
  "03 c #684C261B",
  "0U c #694A25F4",
  "q! c #694E272E",
  "e, c #6A4A21FA",
  "wT c #6B481BFA",
  "w* c #6B4D25A5",
  "0k c #6B4D26FA",
  "0l c #6D492407",
  "q~ c #6E4E25F5",
  "Ha c #70490DFF",
  "9/ c #71551C09",
  "qB c #725127C2",
  "9^ c #725228F9",
  "w) c #734E21FB",
  "qr c #7352291F",
  "02 c #755228F2",
  "9m c #755429F7",
  "qt c #76542BF5",
  "we c #774D1AF7",
  "w= c #77521EF6",
  "q# c #78562B71",
  "e7 c #785830FB",
  "97 c #7A5629DF",
  "x| c #7C5319FB",
  "0Y c #7C572BCA",
  "9X c #7C582B8E",
  "w{ c #7D521BFE",
  "HI c #7D5819FF",
  "8P c #7D582E37",
  "0z c #7E5B2DE8",
  "x~ c #7F551BFB",
  "Hd c #805913FF",
  "04 c #815D2FF9",
  "HP c #825B1BFF",
  "9) c #846031F7",
  "8d c #855E2DE1",
  "8: c #855F304B",
  "wL c #86581CFD",
  "q$ c #885F29F6",
  "HU c #88601EFF",
  "9M c #886231FA",
  "[5 c #888887FF",
  "wb c #89591AFD",
  "HS c #895A10FF",
  "9( c #8B5D2E0B",
  "qV c #8B5F21FD",
  "98 c #8B6431EB",
  "Ht c #8D5C10FF",
  "qw c #8D5F28F9",
  "7~ c #8D6330C9",
  "7B c #8E68391B",
  "e< c #8F6228FF",
  "8L c #8F6533F2",
  "9o c #8F6631D0",
  "7N c #8F6633ED",
  "e& c #90632BFE",
  "7r c #90663337",
  "8I c #9168367B",
  "8; c #92662EF3",
  "7& c #936C3634",
  "6( c #936C3B1A",
  "7e c #946B37F4",
  "Hn c #956519FF",
  "HL c #966922FF",
  "8f c #96693427",
  "7% c #986E39EC",
  "8> c #996D34D2",
  "7^ c #996F373C",
  "qW c #9A6322FE",
  "8g c #9A6F38F3",
  "e6 c #9C7138FF",
  "6/ c #9E723CCB",
  "7/ c #9F7035F4",
  "7V c #9F7036B8",
  "6F c #9F794650",
  "0T c #A06F2FFF",
  "6) c #A0773B2B",
  "7y c #A17338E7",
  "7t c #A1793613",
  "wR c #A2671CFF",
  "6_ c #A27439E7",
  "7* c #A2743A2C",
  "7= c #A2753BF2",
  "q^ c #A3691EFF",
  "6c c #A4783E46",
  "6H c #A5763BC1",
  "H& c #A59C69FF",
  "6G c #A6734014",
  "6D c #A67B41E0",
  "e1 c #A77636FF",
  "Hf c #A7771BFF",
  "6v c #A77A3FD9",
  "6p c #A8824D35",
  "x^ c #AA6917FF",
  "ZQ c #AA6B1AFF",
  "xL c #AA6C1DFF",
  "6J c #AB7D3FF3",
  "6a c #AB834B8C",
  "6l c #AB854D95",
  "6^ c #AC8046F3",
  "w} c #AD7329FF",
  "qy c #AD7429FF",
  "HY c #AE7927FF",
  "e5 c #AE7D41FF",
  "6s c #AF854BDE",
  "6d c #AF8951F6",
  "G} c #B0852EFF",
  "6k c #B0894EE1",
  "6z c #B08A583D",
  "0x c #B27A35FF",
  "8U c #B27A3DF8",
  "6j c #B28B54F7",
  "6f c #B28E58FC",
  "wE c #B46F1CFF",
  "qC c #B46F1EFF",
  "w( c #B47224FF",
  "q+ c #B47732FF",
  "6b c #B48A50F4",
  "6h c #B4915BFC",
  "e2 c #B5803DFF",
  "ZT c #B66305FF",
  "Z! c #B6670DFF",
  "w| c #B67322FF",
  "ZW c #B76304FF",
  "ZA c #B76910FF",
  "q% c #B77323FF",
  "Hl c #B77916FF",
  "e% c #B8792CFF",
  "6g c #B8965EF7",
  "wW c #B96403FF",
  "e. c #B96D16FF",
  "9. c #B97C3DFC",
  "e4 c #B98441FF",
  "6S c #B9915AF4",
  "qu c #BA6505FF",
  "wK c #BB701CFF",
  "w$ c #BB7423FF",
  "eX c #BC6607FF",
  "e$ c #BC721BFF",
  "HK c #BC8938FF",
  "e3 c #BD8540FF",
  "Z^ c #BE6E14FF",
  "wv c #BE701AFF",
  "eo c #BF6501FF",
  "e# c #BF6B0DFF",
  "0R c #BF7016FF",
  "7! c #BF8036FB",
  "e@ c #C06603FF",
  "ww c #C07522FF",
  "Hy c #C08219FF",
  "Cd c #C0AC71FF",
  "eO c #C16500FF",
  "e+ c #C16601FF",
  "Hr c #C17811FF",
  "Hw c #C17B14FF",
  "7C c #C17E33F9",
  "05 c #C1853EFF",
  "Zz c #C26500FF",
  "Hp c #C27A13FF",
  "Ca c #C2BD90FF",
  "wQ c #C36500FF",
  "Z~ c #C46702FF",
  "wJ c #C56C0BFF",
  "0c c #C66C0CFF",
  "9O c #C68945FF",
  "q& c #C76700FF",
  "ZS c #C86700FF",
  "Hz c #C87F14FF",
  "qm c #C8802FFF",
  "6` c #C88F44F9",
  "6e c #C8AA792A",
  "ZR c #CA6700FF",
  "wc c #CA6903FF",
  "9_ c #CA8C46FF",
  "H@ c #CAAC6FFF",
  "qE c #CB7920FF",
  "wq c #CC6A04FF",
  "w! c #CD6800FF",
  "w# c #CD700FFF",
  "0I c #CD873CFF",
  "99 c #CD8E48FF",
  "7$ c #CD984FFA",
  "06 c #CE6B05FF",
  "HT c #CF8D2AFF",
  "9N c #CF8E48FF",
  "H: c #CFA73CFF",
  "wA c #D06900FF",
  "wH c #D16A00FF",
  "J: c #D17C0DFF",
  "qq c #D17E26FF",
  "J; c #D27D0DFF",
  "8, c #D28B42FF",
  "ha c #D36A00FF",
  "Hk c #D38F1CFF",
  "0E c #D46B00FF",
  "H+ c #D4921FFF",
  "9` c #D56B00FF",
  "qn c #D56D04FF",
  "JX c #D58210FF",
  "Jo c #D58310FF",
  "8s c #D5954DFF",
  "J- c #D67D0CFF",
  "J> c #D67F0DFF",
  "Hq c #D68212FF",
  "J. c #D7820FFF",
  "JO c #D78511FF",
  "HD c #D78816FF",
  "96 c #D8924CFF",
  "7u c #D89C55FE",
  "wx c #D96C00FF",
  "J5 c #D97A09FF",
  "Hg c #D99E24FF",
  "Zx c #DA6D00FF",
  "qO c #DA7816FF",
  "J4 c #DA7A07FF",
  "Hb c #DA9126FF",
  "H4 c #DAAC33FF",
  "w~ c #DB6D00FF",
  "J= c #DB7E0CFF",
  "H| c #DB8410FF",
  "HJ c #DBA24BFF",
  "7- c #DBA35FFE",
  "7M c #DBA55FFE",
  "6n c #DBB882FB",
  "qR c #DC6D00FF",
  "9B c #DC7006FF",
  "J, c #DC810DFF",
  "J+ c #DC8611FF",
  "0j c #DC9347FF",
  "H; c #DCA936FF",
  "Ho c #DCD49AFF",
  "h> c #DD6D00FF",
  "J3 c #DD7907FF",
  "J6 c #DD7B09FF",
  "j. c #DE6E00FF",
  "J7 c #DE7B08FF",
  "H3 c #DEA62AFF",
  "6w c #DEDEA617",
  "w@ c #DF6E00FF",
  "J2 c #DF7806FF",
  "J< c #DF810DFF",
  "J@ c #DF8812FF",
  "7w c #DFAC6BFE",
  "H5 c #DFB73FFF",
  "H> c #DFC25DFF",
  "0v c #E06E00FF",
  "ko c #E07001FF",
  "j` c #E07303FF",
  "J8 c #E07404FF",
  "H} c #E0830EFF",
  "6A c #E0C28FFD",
  "H% c #E0D7B5FF",
  "q0 c #E16F00FF",
  "wS c #E17001FF",
  "wz c #E17101FF",
  "07 c #E17201FF",
  "Zr c #E17202FF",
  "qb c #E17302FF",
  "FX c #E17403FF",
  "FO c #E17404FF",
  "0h c #E17405FF",
  "A` c #E17503FF",
  "wl c #E17A07FF",
  "J* c #E17C08FF",
  "H! c #E18A12FF",
  "Hj c #E19D21FF",
  "wD c #E27302FF",
  "0W c #E27303FF",
  "9' c #E27403FF",
  "0< c #E27504FF",
  "0P c #E2750AFF",
  "9V c #E27705FF",
  "J& c #E27806FF",
  "Zc c #E27A07FF",
  "H{ c #E2800BFF",
  "0b c #E37705FF",
  "0L c #E37805FF",
  "9q c #E37806FF",
  "9@ c #E37906FF",
  "9! c #E37908FF",
  "90 c #E37911FF",
  "8T c #E37A07FF",
  "08 c #E37B07FF",
  "HQ c #E38710FF",
  "J# c #E38810FF",
  "H~ c #E39524FF",
  "01 c #E3984DFF",
  "0g c #E47B08FF",
  "qo c #E47C08FF",
  "J1 c #E47E08FF",
  "9] c #E47E09FF",
  "0, c #E47E0AFF",
  "A^ c #E47F0AFF",
  "8j c #E47F11FF",
  "J$ c #E4840DFF",
  "H' c #E49016FF",
  "He c #E4981DFF",
  "q9 c #E57F0AFF",
  "9C c #E5800BFF",
  "9b c #E58014FF",
  "9Q c #E5810BFF",
  "jy c #E5820BFF",
  "9w c #E5820CFF",
  "9v c #E5830CFF",
  "9# c #E5830DFF",
  "81 c #E5830EFF",
  "9+ c #E58525FF",
  "Hc c #E5860FFF",
  "H[ c #E5880EFF",
  "HF c #E5880FFF",
  "Hx c #E58A12FF",
  "H] c #E58C12FF",
  "6K c #E5BC7EFF",
  "J% c #E6800AFF",
  "8k c #E6840DFF",
  "8} c #E6850DFF",
  "9[ c #E6870FFF",
  "Hi c #E68F16FF",
  "9n c #E69B52FF",
  "H2 c #E6A425FF",
  "C` c #E6BC4BFF",
  "HW c #E7870FFF",
  "0> c #E7880FFF",
  "8J c #E78816FF",
  "Z* c #E78910FF",
  "9Z c #E78A11FF",
  "9e c #E78C12FF",
  "95 c #E78D2BFF",
  "H0 c #E78F15FF",
  "HG c #E79018FF",
  "H` c #E79E34FF",
  "H# c #E7DAB7FF",
  "9c c #E88C13FF",
  "9$ c #E88D13FF",
  "HE c #E88E12FF",
  "8R c #E88E13FF",
  "8l c #E88E14FF",
  "8H c #E88E15FF",
  "8p c #E88F17FF",
  "7_ c #E8911FFF",
  "H^ c #E8AC54FF",
  "H$ c #E8E3D4FF",
  "Hv c #E98F15FF",
  "82 c #E9901AFF",
  "0: c #E99115FF",
  "9A c #E99317FF",
  "9W c #E99417FF",
  "HR c #E9961EFF",
  "8Y c #E99745FF",
  "9~ c #E99E54FF",
  "H= c #E9AB3EFF",
  "9r c #EA9618FF",
  "9x c #EA9619FF",
  "9% c #EA9719FF",
  "7A c #EA972EFF",
  "8{ c #EA981AFF",
  "8E c #EA981BFF",
  "8G c #EA991EFF",
  "8z c #EA9A1FFF",
  "7) c #EA9C3EFF",
  "HH c #EAA53DFF",
  "6~ c #EAC691FF",
  "9} c #EB991BFF",
  "0; c #EB9A1BFF",
  "83 c #EB9E28FF",
  "8| c #EBA04DFF",
  "H_ c #EBAE53FF",
  "6r c #EBD69919",
  "C) c #EBDA80FF",
  "9E c #EC9D1DFF",
  "Z+ c #EC9E1EFF",
  "9z c #ECA01FFF",
  "0( c #ECA11FFF",
  "H1 c #ECA123FF",
  "8< c #ECA557FF",
  "8h c #ECA661FF",
  "7( c #ECAB64FF",
  "H- c #ECB954FF",
  "H6 c #ECCB50FF",
  "94 c #EDA121FF",
  "hA c #EDA220FF",
  "q< c #EDA321FF",
  "8[ c #EDA322FF",
  "8F c #EDA425FF",
  "8* c #EDA437FF",
  "8= c #EDA443FF",
  "7` c #EDA539FF",
  "Hu c #EDA623FF",
  "8x c #EDA627FF",
  "7S c #EDA946FF",
  "Hh c #EDAA26FF",
  "7p c #EDAA4AFF",
  "H/ c #EDBA6FFF",
  "H) c #EDBB6FFF",
  "Cy c #EDE3B8FF",
  "0) c #EEA623FF",
  "S; c #EEA624FF",
  "q3 c #EEA723FF",
  "hh c #EEA824FF",
  "8i c #EEA933FF",
  "G) c #EEAA33FF",
  "8a c #EEAD5EFF",
  "G4 c #EEAF2AFF",
  "CQ c #EFA926FF",
  "0] c #EFAB26FF",
  "AQ c #EFAB27FF",
  "CP c #EFAC28FF",
  "0V c #EFAD27FF",
  "8K c #EFB26FFF",
  "H7 c #EFB630FF",
  "CM c #EFBB40FF",
  "H8 c #EFBF38FF",
  "H( c #EFC381FF",
  "0` c #F0AE28FF",
  "Z& c #F0AE29FF",
  "0' c #F0AF29FF",
  "C' c #F0AF2AFF",
  "8] c #F0AF2CFF",
  "8D c #F0B030FF",
  "7' c #F0B34AFF",
  "8& c #F0B34CFF",
  "8- c #F0B875FF",
  "0C c #F1B22AFF",
  "0S c #F1B22BFF",
  "A! c #F1B32CFF",
  "0e c #F1B42CFF",
  "CW c #F1B42DFF",
  "8u c #F1B43AFF",
  "0Z c #F1B62DFF",
  "Z% c #F1B631FF",
  "7W c #F1BB61FF",
  "7D c #F1BC62FF",
  "0A c #F2B72EFF",
  "CL c #F2B832FF",
  "0r c #F2B930FF",
  "0o c #F2BB30FF",
  "Z$ c #F2BC34FF",
  "Zo c #F2BC3EFF",
  "8% c #F2BD54FF",
  "7a c #F2BD6AFF",
  "7Z c #F2BE82FF",
  "G! c #F2BF57FF",
  "7i c #F2C082FF",
  "G' c #F2DF9BFF",
  "CS c #F3BC39FF",
  "0t c #F3BD33FF",
  "7n c #F3BD6AFF",
  "0u c #F3BE33FF",
  "8y c #F3C34AFF",
  "G_ c #F3C568FF",
  "7: c #F3C580FF",
  "H, c #F3E4A2FF",
  "0y c #F4C034FF",
  "0O c #F4C137FF",
  "7Q c #F4C890FF",
  "7F c #F4C976FF",
  "6m c #F4DDB7FF",
  "H< c #F4E174FF",
  "0+ c #F5C63BFF",
  "8$ c #F5C85EFF",
  "H9 c #F5C941FF",
  "7E c #F5C975FF",
  "7m c #F5CB91FF",
  "7> c #F5CD88FF",
  "6' c #F5D2A0FF",
  "0# c #F6C93CFF",
  "0@ c #F6CA3BFF",
  "C| c #F6CC48FF",
  "7b c #F6CE88FF",
  "7s c #F6D18CFF",
  "7; c #F6D3A4FF",
  "6[ c #F6D599FF",
  "6Z c #F6E4C2FF",
  "H* c #F6EA8FFF",
  "7R c #F7D382FF",
  "70 c #F7D59EFF",
  "GE c #F7D686FF",
  "G~ c #F7D783FF",
  "Z. c #F7D869FF",
  "G` c #F7D88AFF",
  "9K c #F8D146FF",
  "ZX c #F8D56AFF",
  "7v c #F8DCA0FF",
  "79 c #F8DCA5FF",
  "6] c #F8DCB0FF",
  "7d c #F8DEA2FF",
  "7q c #F8DEB7FF",
  "7, c #F8DFACFF",
  "7# c #F8DFB7FF",
  "9L c #F9D449FF",
  "C( c #F9D85BFF",
  "CT c #F9DD5EFF",
  "7+ c #F9E3B6FF",
  "GW c #F9E49BFF",
  "6{ c #F9E5B8FF",
  "7c c #F9E7B2FF",
  "6P c #FAE7C3FF",
  "7@ c #FAE7C4FF",
  "G^ c #FAE8A8FF",
  "78 c #FAE9C1FF",
  "6I c #FAE9C2FF",
  "6L c #FAE9CDFF",
  "9d c #FBDF5EFF",
  "9s c #FBE05FFF",
  "9, c #FBE670FF",
  "7f c #FBEAB7FF",
  "7< c #FBECC5FF",
  "8) c #FBEF8CFF",
  "GQ c #FBEFB1FF",
  "7O c #FBEFCEFF",
  "6Q c #FBEFD4FF",
  "6M c #FBEFD8FF",
  "G/ c #FBF3BAFF",
  "Cn c #FBF4A3FF",
  "8w c #FBF8B5FF",
  "G{ c #FBFABDFF",
  "8O c #FBFABEFF",
  "7I c #FBFBC6FF",
  "9> c #FCEC79FF",
  "9: c #FCEC7BFF",
  "6U c #FCEECCFF",
  "6W c #FCF0D2FF",
  "6! c #FCF0DBFF",
  "6} c #FCF1D3FF",
  "7g c #FCF3C8FF",
  "77 c #FCF3D4FF",
  "6E c #FCF3DAFF",
  "6C c #FCF3DFFF",
  "G] c #FCF4C9FF",
  "71 c #FCF4D7FF",
  "6Y c #FCF4D8FF",
  "HO c #FCF6ADFF",
  "3R c #FCF7CFFF",
  "G( c #FCF8C0FF",
  "O~ c #FCF8C1FF",
  "G[ c #FCF8CCFF",
  "8. c #FCFCC2FF",
  "7K c #FCFCCAFF",
  "8X c #FCFDC7FF",
  "7P c #FCFDCCFF",
  "8( c #FDF597FF",
  "8/ c #FDF599FF",
  "6T c #FDF6DFFF",
  "6R c #FDF6E1FF",
  "7o c #FDF7E1FF",
  "76 c #FDF8DFFF",
  "6| c #FDF8E3FF",
  "6N c #FDF8EBFF",
  "8B c #FDF9AFFF",
  "8N c #FDF9B0FF",
  "7h c #FDF9D3FF",
  "72 c #FDF9E1FF",
  "8q c #FDFBBEFF",
  "7z c #FDFBD7FF",
  "75 c #FDFBE6FF",
  "80 c #FDFCC0FF",
  "7j c #FDFCD9FF",
  "8o c #FDFDC6FF",
  "7L c #FDFDCEFF",
  "7l c #FDFDDAFF",
  "7k c #FDFDDBFF",
  "ky c #FDFDE9FF",
  "6V c #FEF9F0FF",
  "7. c #FEFBEDFF",
  "6B c #FEFBF5FF",
  "73 c #FEFCE7FF",
  "7X c #FEFCF1FF",
  "74 c #FEFDEAFF",
  "6x c #FFCC9905",
  "6i c #FFFFAA03",
  "69 c #FFFFBF04",
  "60 c #FFFFBF08",
  "6t c #FFFFC80E",
  "6y c #FFFFCC0A",
  "6u c #FFFFD506",
  "6q c #FFFFD50C",
  "3N c #FFFFFF01",
  ":C c #FFFFFF02",
  "   c none",
  
  // Image data
  "                  3N:C69606q6w6e6r6t6y6u6i3N                    ",
  "                3N:C6p6a6s6d6f6g6h6j6k6l6z6x3N                  ",
  "                6c6v6b6n6m6M6N6B6V6C6Z6A6S6D6F3N                ",
  "            6G6H6J6K6L6P6I6U6Y6T6R6E6W6Q6!6~6^6/6(              ",
  "          6)6_6`6'6]6[6{6}6|7.7X7X7.7o7O7+7@7#7$7%7&            ",
  "        7*7=7-7;7:7>7,7<71727374ky7576777879707q7w7e7r          ",
  "      7t7y7u7i7p7a7s7d7f7g7h7j7k7l7z3RCy7c7v7b7n7m7M7N7B        ",
  "      7V7C7Z7A7S7D7FGEGWGQO~7K7L7P7ICaCsCd7R7E7W7S7Q7!7~        ",
  "    7^7/7(7)7_7`7'G!G~G^G/G(8.8X8o8OCh[5Cj8$8%8&8*8=8-8;8:      ",
  "    8>8,8<818283G)G_G`G'G]G[G{808q8wCzggCx8y8u8i838p8a8s8d+n    ",
  "  8f8g8h8j8k8l8z8xG}G|H.HXHoHO8N8BCnCmJUt'CM8D8F8G8H8J8K8L8P    ",
  "  8I8U8Y8T8k8R8EH+H@H#H$H%H&H*8/8(8)CZ%JCACS8]8[8{8l8}8|9.9X    ",
  "  9o9O9+9@9#9$9%H=H-H;H:H>H,H<9:9>9,CJ%JCKCLCP948{8R8k959697    ",
  "  9899909q9w9e9rH1H2H3H4H5H6CT9s9dCTCRFtCECWCQ9z9x9c9v9b9n9m    ",
  "  9M9N9B9V9C9Z9A9ES;G4H7H8H99K9L9LC(C)C_C`C'q39E9W9Z9Q9!9~9^9/  ",
  "9(9)9_9`9'9]9[H09}hAAQA!0o0O0+0@0#C|Z.ZXZo0]q<0;0:0>0,0<010203  ",
  "  04050607088kHqHwHe0)0V0e0r0t0y0y0uZ$Z%Z&0)Z+9x9$8k0g0h0j0k0l  ",
  "  0z0x0c0v0b9CZ*HrHtHyHu0V0C0Z0A0A0Z0S0Vhh0(8EHiZ*9Q0L0P0I0U    ",
  "  0Y0T0R0E0Wqo8k9eHpHaHsHdHfHg0'0'0`HhHjHkHlHzHx8}qo9'qOq+q@    ",
  "  q#q$q%q&q00bA^HcHvHbHnHmHMHNHBHVHCHZHAHSHD8R9[q90Lq0qqqwqe    ",
  "  qrqtqyquhaZr8T9CHFHGHHHJHKHLHPHIHUHYHTHRHEHW9Q8TqbqnqmqMqN    ",
  "    qBqVqCZzZx9'8TjyHQH!H~H^H/H(H)H_H`H'H]H[9C089'qRqEqWqQ      ",
  "    q!q~q^ZAZSj.9'ZcH{H}H|J.JXJoJOJ+J@J#J$J%8T9'w@w#w$w%w&      ",
  "      w*w=xLZTZRh>wDJ&J*J=J-J;J:J>J,J<H{J19q0Ww@wqwwwewr        ",
  "      wtwyx~x^ZWZSwxwzA`J2J3J4J5J6J7wl9@0<wzwxwcwvwbwnwm+n+n    ",
  "    +n*_wMwNx|ZQZ!ZzwAw~koZrj`J8FOFXZrwSh>wHwJwKwLwPwI$a*`+n    ",
  "  +n*_$p=#wUwYwTwRwEwWwQw!0Ewxw~w~wx0Ew!Z~Z^w(w)w_w`6O&Z1c*_+n  ",
  "  +n*_1c+rEew'w]w[w{w}w|e.eXeoeOe+e@e#e$e%e&e*e=e-=d+g=$+>*`+n  ",
  "  +n*_,D$s=w=d&We;e:e>e,e<e1e2e3e4e5e6e7e8e9e0eq!Oa(=@+r,D*_+n  ",
  "    +n*`$a&Z=@=l*5eweeereteyeueiepeaesedef&~kA=feg=@+r$a*`+n    ",
  "    +n+n*`$p,q@o*'&R*/=0eh&EejekFckA&+!O[G,W=s=@@o=2,D*_+n+n    ",
  "        +n*T*`*R$a=2&Z[~=@Ee:W+J+J:W*'6O+k&Z=#$a*R*`*T+n        "
};
