/* XPM */
const char *xpm_tango_emotes_face_surprise[] = {
  // Header (width height colors chars-per-pixel)
  "32 32 666 2",
  
  // Colors (code mode value)
  "+n c #00000001",
  "*T c #00000002",
  "*_ c #00000003",
  "*` c #00000004",
  "*R c #00000006",
  "$p c #00000007",
  ",D c #00000008",
  "1c c #00000009",
  "$a c #0000000A",
  "+> c #0000000B",
  ",q c #0000000C",
  "=2 c #0000000D",
  "=# c #0000000E",
  "$s c #00000010",
  "&Z c #00000011",
  "+r c #00000012",
  "@o c #00000014",
  "=$ c #00000015",
  "+k c #00000016",
  "[~ c #00000017",
  "6O c #0000001B",
  "=w c #0000001C",
  "=@ c #0000001D",
  "*' c #00000020",
  "+g c #00000021",
  "Ee c #00000022",
  ":W c #00000025",
  "+J c #00000027",
  "=s c #0000002B",
  "eg c #0000002C",
  "a( c #0000002D",
  "&R c #0000002F",
  "=l c #00000035",
  "=d c #00000037",
  ",W c #00000039",
  "*/ c #0000003C",
  "[G c #00000044",
  "=f c #00000046",
  "=0 c #00000048",
  "!O c #00000051",
  "*5 c #00000052",
  "eh c #00000056",
  "&+ c #0000005B",
  "&E c #0000005E",
  "kA c #00000062",
  "ej c #00000064",
  "Fc c #00000067",
  "&W c #0000006B",
  "ew c #0000006F",
  "&~ c #0000007A",
  "eq c #0000007D",
  "ek c #0202006A",
  "e- c #09070570",
  "w' c #0A060350",
  "ee c #0B09048C",
  "ef c #0E090594",
  "e; c #1510089E",
  "e0 c #171109A7",
  "w` c #24190E47",
  "GA c #271105FF",
  "G= c #272210FF",
  "Go c #272211FF",
  "G$ c #28210EFF",
  "F/ c #2A2717FF",
  "er c #2B2010BA",
  "ed c #2C2010BE",
  "F| c #2F2916FF",
  "wU c #30251030",
  "G2 c #302A17FF",
  "F] c #302C1CFF",
  "GN c #3B1105FF",
  "wI c #3B2C1434",
  "F! c #3B341CFF",
  "e= c #412E16DC",
  "G> c #41371EFF",
  "GB c #421408FF",
  "et c #453217E2",
  "w] c #453218D2",
  "es c #463217E4",
  "e9 c #463217E7",
  "e: c #463218E2",
  "wm c #472B1C12",
  "GZ c #4D180BFF",
  "ey c #4D3719F2",
  "F} c #4D3E18FF",
  "ea c #4E381AF2",
  "wM c #4E391C24",
  "w_ c #4F381BE8",
  "eu c #4F391CFB",
  "ep c #503A1CFB",
  "ei c #503A1EFE",
  "FD c #50432CFF",
  "GM c #511307FF",
  "wP c #513A1DF1",
  "e> c #533B1DFC",
  "e* c #533D1DFB",
  "Gv c #541509FF",
  "wn c #543C1CE3",
  "w& c #5540223C",
  "Fm c #554A35FF",
  "F_ c #554F3EFF",
  "wr c #573E1DB6",
  "e8 c #574023FC",
  "Gb c #581509FF",
  "w[ c #583F1DFC",
  "GS c #593824FF",
  "wY c #5B411FDE",
  "qQ c #5D421FD3",
  "wt c #5D46170B",
  "w% c #5E421EF4",
  "qN c #5E43212E",
  "qe c #5F462383",
  "FZ c #5F584BFF",
  "wN c #614623EC",
  "Gc c #63170AFF",
  "F) c #65511FFF",
  "q@ c #664923DA",
  "FK c #664F2CFF",
  "G# c #665325FF",
  "wy c #674923D8",
  "qM c #674923F2",
  "03 c #684C261B",
  "FC c #685E4CFF",
  "0U c #694A25F4",
  "q! c #694E272E",
  "e, c #6A4A21FA",
  "wT c #6B481BFA",
  "w* c #6B4D25A5",
  "0k c #6B4D26FA",
  "0l c #6D492407",
  "Gh c #6E190CFF",
  "q~ c #6E4E25F5",
  "Gj c #711B0BFF",
  "9/ c #71551C09",
  "qB c #725127C2",
  "9^ c #725228F9",
  "w) c #734E21FB",
  "qr c #7352291F",
  "02 c #755228F2",
  "9m c #755429F7",
  "qt c #76542BF5",
  "we c #774D1AF7",
  "w= c #77521EF6",
  "q# c #78562B71",
  "e7 c #785830FB",
  "Gg c #79190DFF",
  "97 c #7A5629DF",
  "x| c #7C5319FB",
  "0Y c #7C572BCA",
  "9X c #7C582B8E",
  "w{ c #7D521BFE",
  "8P c #7D582E37",
  "0z c #7E5B2DE8",
  "x~ c #7F551BFB",
  "FH c #806E52FF",
  "04 c #815D2FF9",
  "GO c #826B2AFF",
  "9) c #846031F7",
  "8d c #855E2DE1",
  "8: c #855F304B",
  "GX c #857B43FF",
  "wL c #86581CFD",
  "q$ c #885F29F6",
  "9M c #886231FA",
  "wb c #89591AFD",
  "Gp c #8B270EFF",
  "9( c #8B5D2E0B",
  "qV c #8B5F21FD",
  "98 c #8B6431EB",
  "qw c #8D5F28F9",
  "7~ c #8D6330C9",
  "7B c #8E68391B",
  "e< c #8F6228FF",
  "8L c #8F6533F2",
  "9o c #8F6631D0",
  "7N c #8F6633ED",
  "e& c #90632BFE",
  "7r c #90663337",
  "8I c #9168367B",
  "8; c #92662EF3",
  "FQ c #927734FF",
  "7& c #936C3634",
  "6( c #936C3B1A",
  "G: c #937328FF",
  "Gx c #943A0EFF",
  "7e c #946B37F4",
  "8f c #96693427",
  "7% c #986E39EC",
  "8> c #996D34D2",
  "7^ c #996F373C",
  "G- c #997D2CFF",
  "qW c #9A6322FE",
  "8g c #9A6F38F3",
  "e6 c #9C7138FF",
  "GH c #9C7D63FF",
  "FG c #9D8B68FF",
  "G* c #9D8E48FF",
  "F' c #9D945BFF",
  "Gm c #9E460CFF",
  "6/ c #9E723CCB",
  "Gi c #9F4816FF",
  "7/ c #9F7035F4",
  "7V c #9F7036B8",
  "6F c #9F794650",
  "FP c #9F8558FF",
  "F[ c #9F873CFF",
  "0T c #A06F2FFF",
  "6) c #A0773B2B",
  "7y c #A17338E7",
  "7t c #A1793613",
  "wR c #A2671CFF",
  "6_ c #A27439E7",
  "7* c #A2743A2C",
  "7= c #A2753BF2",
  "q^ c #A3691EFF",
  "6c c #A4783E46",
  "6H c #A5763BC1",
  "6G c #A6734014",
  "6D c #A67B41E0",
  "e1 c #A77636FF",
  "6v c #A77A3FD9",
  "6p c #A8824D35",
  "x^ c #AA6917FF",
  "ZQ c #AA6B1AFF",
  "xL c #AA6C1DFF",
  "6J c #AB7D3FF3",
  "6a c #AB834B8C",
  "6l c #AB854D95",
  "6^ c #AC8046F3",
  "w} c #AD7329FF",
  "qy c #AD7429FF",
  "e5 c #AE7D41FF",
  "6s c #AF854BDE",
  "6d c #AF8951F6",
  "6k c #B0894EE1",
  "6z c #B08A583D",
  "Fn c #B19D7EFF",
  "FM c #B1A383FF",
  "0x c #B27A35FF",
  "8U c #B27A3DF8",
  "6j c #B28B54F7",
  "6f c #B28E58FC",
  "Gf c #B45B12FF",
  "wE c #B46F1CFF",
  "qC c #B46F1EFF",
  "w( c #B47224FF",
  "q+ c #B47732FF",
  "6b c #B48A50F4",
  "6h c #B4915BFC",
  "e2 c #B5803DFF",
  "ZT c #B66305FF",
  "Z! c #B6670DFF",
  "w| c #B67322FF",
  "Ga c #B67431FF",
  "ZW c #B76304FF",
  "Gn c #B76510FF",
  "ZA c #B76910FF",
  "q% c #B77323FF",
  "e% c #B8792CFF",
  "6g c #B8965EF7",
  "wW c #B96403FF",
  "e. c #B96D16FF",
  "9. c #B97C3DFC",
  "e4 c #B98441FF",
  "6S c #B9915AF4",
  "qu c #BA6505FF",
  "wK c #BB701CFF",
  "w$ c #BB7423FF",
  "eX c #BC6607FF",
  "e$ c #BC721BFF",
  "FS c #BC9863FF",
  "e3 c #BD8540FF",
  "Z^ c #BE6E14FF",
  "wv c #BE701AFF",
  "eo c #BF6501FF",
  "e# c #BF6B0DFF",
  "0R c #BF7016FF",
  "7! c #BF8036FB",
  "GR c #C06400FF",
  "e@ c #C06603FF",
  "ww c #C07522FF",
  "e+ c #C16601FF",
  "7C c #C17E33F9",
  "05 c #C1853EFF",
  "Zz c #C26500FF",
  "wQ c #C36500FF",
  "Z~ c #C46702FF",
  "wJ c #C56C0BFF",
  "G3 c #C59C2FFF",
  "G. c #C5AF57FF",
  "0c c #C66C0CFF",
  "9O c #C68945FF",
  "q& c #C76700FF",
  "ZS c #C86700FF",
  "qm c #C8802FFF",
  "FU c #C88E3BFF",
  "6` c #C88F44F9",
  "6e c #C8AA792A",
  "F( c #C8AC54FF",
  "FV c #C8BEA4FF",
  "G1 c #C9AF4AFF",
  "ZR c #CA6700FF",
  "wc c #CA6903FF",
  "GC c #CA6C0CFF",
  "9_ c #CA8C46FF",
  "qE c #CB7920FF",
  "wq c #CC6A04FF",
  "GV c #CC7511FF",
  "F^ c #CCC484FF",
  "w! c #CD6800FF",
  "w# c #CD700FFF",
  "0I c #CD873CFF",
  "99 c #CD8E48FF",
  "7$ c #CD984FFA",
  "06 c #CE6B05FF",
  "GT c #CE6B0BFF",
  "9N c #CF8E48FF",
  "wA c #D06900FF",
  "wH c #D16A00FF",
  "qq c #D17E26FF",
  "8, c #D28B42FF",
  "ha c #D36A00FF",
  "G6 c #D3A831FF",
  "0E c #D46B00FF",
  "9` c #D56B00FF",
  "qn c #D56D04FF",
  "8s c #D5954DFF",
  "GG c #D59E68FF",
  "G5 c #D6A22BFF",
  "FW c #D6C87FFF",
  "GY c #D76B00FF",
  "96 c #D8924CFF",
  "7u c #D89C55FE",
  "FI c #D8A85EFF",
  "wx c #D96C00FF",
  "FE c #D9C374FF",
  "Zx c #DA6D00FF",
  "qO c #DA7816FF",
  "7- c #DBA35FFE",
  "7M c #DBA55FFE",
  "6n c #DBB882FB",
  "qR c #DC6D00FF",
  "9B c #DC7006FF",
  "0j c #DC9347FF",
  "G% c #DCBC4DFF",
  "h> c #DD6D00FF",
  "j. c #DE6E00FF",
  "Gk c #DE8F1BFF",
  "Gu c #DE941CFF",
  "F` c #DECB76FF",
  "Fb c #DED4C1FF",
  "6w c #DEDEA617",
  "w@ c #DF6E00FF",
  "7w c #DFAC6BFE",
  "0v c #E06E00FF",
  "GL c #E0A567FF",
  "GI c #E0AB75FF",
  "6A c #E0C28FFD",
  "q0 c #E16F00FF",
  "wS c #E17001FF",
  "wz c #E17101FF",
  "07 c #E17201FF",
  "Zr c #E17202FF",
  "qb c #E17302FF",
  "FO c #E17404FF",
  "0h c #E17405FF",
  "FT c #E1AF5BFF",
  "wD c #E27302FF",
  "0W c #E27303FF",
  "9' c #E27403FF",
  "he c #E27503FF",
  "0< c #E27504FF",
  "0P c #E2750AFF",
  "GU c #E27607FF",
  "9V c #E27705FF",
  "0b c #E37705FF",
  "0L c #E37805FF",
  "9q c #E37806FF",
  "9@ c #E37906FF",
  "9! c #E37908FF",
  "90 c #E37911FF",
  "8T c #E37A07FF",
  "08 c #E37B07FF",
  "01 c #E3984DFF",
  "0g c #E47B08FF",
  "qo c #E47C08FF",
  "w0 c #E47D08FF",
  "9] c #E47E09FF",
  "0, c #E47E0AFF",
  "GF c #E47E0CFF",
  "A^ c #E47F0AFF",
  "8j c #E47F11FF",
  "q9 c #E57F0AFF",
  "hN c #E5800AFF",
  "9C c #E5800BFF",
  "9b c #E58014FF",
  "9Q c #E5810BFF",
  "9w c #E5820CFF",
  "9v c #E5830CFF",
  "9# c #E5830DFF",
  "81 c #E5830EFF",
  "9+ c #E58525FF",
  "6K c #E5BC7EFF",
  "Fv c #E5DAC2FF",
  "8k c #E6840DFF",
  "8} c #E6850DFF",
  "A/ c #E6860FFF",
  "9[ c #E6870FFF",
  "9n c #E69B52FF",
  "0> c #E7880FFF",
  "h_ c #E78810FF",
  "8J c #E78816FF",
  "Z* c #E78910FF",
  "9Z c #E78A11FF",
  "Zb c #E78B12FF",
  "9e c #E78C12FF",
  "95 c #E78D2BFF",
  "Z: c #E88C12FF",
  "9c c #E88C13FF",
  "9$ c #E88D13FF",
  "8R c #E88E13FF",
  "8l c #E88E14FF",
  "8H c #E88E15FF",
  "8p c #E88F17FF",
  "Gz c #E89014FF",
  "Zn c #E89015FF",
  "7_ c #E8911FFF",
  "FJ c #E8A749FF",
  "9{ c #E99015FF",
  "82 c #E9901AFF",
  "0: c #E99115FF",
  "Z- c #E99116FF",
  "Gd c #E99316FF",
  "9A c #E99317FF",
  "9W c #E99417FF",
  "GK c #E99435FF",
  "GD c #E9952EFF",
  "8Y c #E99745FF",
  "9~ c #E99E54FF",
  "FY c #E9B65FFF",
  "hs c #EA9418FF",
  "ZO c #EA9518FF",
  "9r c #EA9618FF",
  "9x c #EA9619FF",
  "9% c #EA9719FF",
  "Gl c #EA971AFF",
  "7A c #EA972EFF",
  "8{ c #EA981AFF",
  "8E c #EA981BFF",
  "8G c #EA991EFF",
  "8z c #EA9A1FFF",
  "7) c #EA9C3EFF",
  "6~ c #EAC691FF",
  "Z= c #EB991AFF",
  "9} c #EB991BFF",
  "0; c #EB9A1BFF",
  "Z; c #EB9B1CFF",
  "83 c #EB9E28FF",
  "8| c #EBA04DFF",
  "Gr c #EBD380FF",
  "6r c #EBD69919",
  "9E c #EC9D1DFF",
  "Z+ c #EC9E1EFF",
  "q, c #EC9F1EFF",
  "lR c #EC9F1FFF",
  "9z c #ECA01FFF",
  "0( c #ECA11FFF",
  "G+ c #ECA323FF",
  "8< c #ECA557FF",
  "8h c #ECA661FF",
  "7( c #ECAB64FF",
  "hj c #EDA120FF",
  "94 c #EDA121FF",
  "hA c #EDA220FF",
  "q< c #EDA321FF",
  "8[ c #EDA322FF",
  "lV c #EDA324FF",
  "8F c #EDA425FF",
  "8* c #EDA437FF",
  "8= c #EDA443FF",
  "7` c #EDA539FF",
  "8x c #EDA627FF",
  "7S c #EDA946FF",
  "FF c #EDD5A5FF",
  "0) c #EEA623FF",
  "S; c #EEA624FF",
  "q3 c #EEA723FF",
  "hh c #EEA824FF",
  "84 c #EEA931FF",
  "8i c #EEA933FF",
  "8a c #EEAD5EFF",
  "G4 c #EEAF2AFF",
  "CQ c #EFA926FF",
  "0_ c #EFAA26FF",
  "0] c #EFAB26FF",
  "AQ c #EFAB27FF",
  "CP c #EFAC28FF",
  "0V c #EFAD27FF",
  "8K c #EFB26FFF",
  "FL c #EFCB88FF",
  "GJ c #EFD1B1FF",
  "0` c #F0AE28FF",
  "C' c #F0AF2AFF",
  "8] c #F0AF2CFF",
  "8D c #F0B030FF",
  "Gs c #F0B137FF",
  "G; c #F0B234FF",
  "8c c #F0B235FF",
  "7' c #F0B34AFF",
  "8& c #F0B34CFF",
  "F{ c #F0B437FF",
  "85 c #F0B63FFF",
  "8- c #F0B875FF",
  "0C c #F1B22AFF",
  "0S c #F1B22BFF",
  "A! c #F1B32CFF",
  "0e c #F1B42CFF",
  "CW c #F1B42DFF",
  "8u c #F1B43AFF",
  "Gy c #F1B636FF",
  "Gw c #F1B831FF",
  "G@ c #F1BA42FF",
  "Ge c #F1C65EFF",
  "FN c #F1E7CAFF",
  "CL c #F2B832FF",
  "0r c #F2B930FF",
  "0i c #F2BA30FF",
  "0o c #F2BB30FF",
  "8% c #F2BD54FF",
  "7] c #F2BE54FF",
  "7Z c #F2BE82FF",
  "7i c #F2C082FF",
  "FR c #F2CC65FF",
  "GP c #F2E1D0FF",
  "FB c #F2ECD7FF",
  "A~ c #F3BB32FF",
  "CS c #F3BC39FF",
  "0t c #F3BD33FF",
  "0u c #F3BE33FF",
  "9H c #F3C239FF",
  "8y c #F3C34AFF",
  "8S c #F4BF41FF",
  "0O c #F4C137FF",
  "0% c #F4C236FF",
  "G9 c #F4C750FF",
  "G, c #F4C844FF",
  "7Q c #F4C890FF",
  "7F c #F4C976FF",
  "6m c #F4DDB7FF",
  "0$ c #F5C63AFF",
  "0+ c #F5C63BFF",
  "G8 c #F5C743FF",
  "8$ c #F5C85EFF",
  "7E c #F5C975FF",
  "7m c #F5CB91FF",
  "6' c #F5D2A0FF",
  "0# c #F6C93CFF",
  "0@ c #F6CA3BFF",
  "S, c #F6CA3EFF",
  "9J c #F6CA41FF",
  "G7 c #F6CA4AFF",
  "7; c #F6D3A4FF",
  "8# c #F6D876FF",
  "6Z c #F6E4C2FF",
  "7R c #F7D382FF",
  "9p c #F7D450FF",
  "Gq c #F7D46BFF",
  "7G c #F7D685FF",
  "G0 c #F7D872FF",
  "FA c #F7DEB6FF",
  "9P c #F8D045FF",
  "9K c #F8D146FF",
  "G< c #F8DC59FF",
  "7v c #F8DCA0FF",
  "7d c #F8DEA2FF",
  "7q c #F8DEB7FF",
  "7T c #F8DF92FF",
  "Gt c #F8E089FF",
  "F~ c #F8E896FF",
  "9L c #F9D449FF",
  "9a c #F9DC5AFF",
  "9- c #F9DE67FF",
  "7H c #F9E49AFF",
  "7c c #F9E7B2FF",
  "7} c #F9EEA1FF",
  "6P c #FAE7C3FF",
  "8~ c #FAE882FF",
  "78 c #FAE9C1FF",
  "6I c #FAE9C2FF",
  "6L c #FAE9CDFF",
  "7Y c #FAEBA6FF",
  "9d c #FBDF5EFF",
  "9s c #FBE05FFF",
  "G& c #FBE773FF",
  "9; c #FBE774FF",
  "7f c #FBEAB7FF",
  "7< c #FBECC5FF",
  "8) c #FBEF8CFF",
  "8m c #FBEF9BFF",
  "7J c #FBEFB0FF",
  "6M c #FBEFD8FF",
  "7x c #FBF0C3FF",
  "8+ c #FBF4AEFF",
  "7U c #FBF5BAFF",
  "8w c #FBF8B5FF",
  "89 c #FBFABBFF",
  "8O c #FBFABEFF",
  "7I c #FBFBC6FF",
  "9> c #FCEC79FF",
  "9: c #FCEC7BFF",
  "6U c #FCEECCFF",
  "8^ c #FCF092FF",
  "6W c #FCF0D2FF",
  "7g c #FCF3C8FF",
  "77 c #FCF3D4FF",
  "6E c #FCF3DAFF",
  "6C c #FCF3DFFF",
  "71 c #FCF4D7FF",
  "6Y c #FCF4D8FF",
  "8V c #FCF5A4FF",
  "8M c #FCF6AAFF",
  "7| c #FCF7B8FF",
  "3R c #FCF7CFFF",
  "O~ c #FCF8C1FF",
  "8. c #FCFCC2FF",
  "7K c #FCFCCAFF",
  "8X c #FCFDC7FF",
  "7P c #FCFDCCFF",
  "8( c #FDF597FF",
  "8/ c #FDF599FF",
  "6T c #FDF6DFFF",
  "6R c #FDF6E1FF",
  "76 c #FDF8DFFF",
  "6| c #FDF8E3FF",
  "6N c #FDF8EBFF",
  "8B c #FDF9AFFF",
  "8N c #FDF9B0FF",
  "7h c #FDF9D3FF",
  "72 c #FDF9E1FF",
  "8q c #FDFBBEFF",
  "7z c #FDFBD7FF",
  "75 c #FDFBE6FF",
  "80 c #FDFCC0FF",
  "7j c #FDFCD9FF",
  "8o c #FDFDC6FF",
  "7L c #FDFDCEFF",
  "7l c #FDFDDAFF",
  "7k c #FDFDDBFF",
  "ky c #FDFDE9FF",
  "6V c #FEF9F0FF",
  "7. c #FEFBEDFF",
  "6B c #FEFBF5FF",
  "73 c #FEFCE7FF",
  "7X c #FEFCF1FF",
  "74 c #FEFDEAFF",
  "6x c #FFCC9905",
  "6i c #FFFFAA03",
  "69 c #FFFFBF04",
  "60 c #FFFFBF08",
  "6t c #FFFFC80E",
  "6y c #FFFFCC0A",
  "6u c #FFFFD506",
  "6q c #FFFFD50C",
  "3N c #FFFFFF01",
  ":C c #FFFFFF02",
  "   c none",
  
  // Image data
  "                  3N:C69606q6w6e6r6t6y6u6i3N                    ",
  "                3N:C6p6a6s6d6f6g6h6j6k6l6z6x3N                  ",
  "                6c6v6b6n6m6M6N6B6V6C6Z6A6S6D6F3N                ",
  "            6G6H6J6K6L6P6I6U6Y6T6R6E6WFvFb6~6^6/6(              ",
  "          6)6_6`6'FnFmFMFN6|7.7X7X7.FBFVFCFZFA7$7%7&            ",
  "        7*7=7-7;FSFDFF7<71727374ky75767778FGFH7q7w7e7r          ",
  "      7t7y7u7iFJFKFL7d7f7g7h7j7k7l7z3R7x7c7vFPFI7m7M7N7B        ",
  "      7V7C7Z7AFUFY7F7G7H7JO~7K7L7P7I7U7Y7T7R7EFT7S7Q7!7~        ",
  "    7^7/7(7)7_7`7'7]FRFE7}7|8.8X8o8O8+FW8#8$8%8&8*8=8-8;8:      ",
  "    8>8,8<8182838485FQF!F~8+89808q8wF^F/F(8y8u8i838p8a8s8d+n    ",
  "  8f8g8h8j8k8l8z8x8cF)F_F`8m8M8N8B8VF'F]F[8S8D8F8G8H8J8K8L8P    ",
  "  8I8U8Y8T8k8R8ElVF{F}F|G.8~8^8/8(8)GXGoGOCS8]8[8{8l8}8|9.9X    ",
  "  9o9O9+9@9#9$9%G+G@G#G$G%9-9;9:9>G&G*G=G-CLCP948{8R8k959697    ",
  "  9899909q9w9e9rlRG;G:G>G,9p9a9s9dG<G1G2G3CWCQ9z9x9c9v9b9n9m    ",
  "  9M9N9B9V9C9Z9A9ES;G4G59H9J9K9L9L9PS,G60rC'q39E9W9Z9Q9!9~9^9/  ",
  "9(9)9_9`9'9]9[9{9}hAAQA!0o0O0+0@0#0$0%A~A!0]q<0;0:0>0,0<010203  ",
  "  04050607088k9$ZOZ+0)0V0e0r0tG7G80u0i0e0`0)Z+9x9$8k0g0h0j0k0l  ",
  "  0z0x0c0v0b9CZ*0:Z=9zq30V0CG9G0GqGw0S0Vhh0(9}Z-Z*9Q0L0P0I0U    ",
  "  0Y0T0R0E0Wqo8k9e9A0;0(0)0_GeGrGtGy0]0)hjZ;9WZ:8}qo9'qOq+q@    ",
  "  q#q$q%q&q00bA^A/9$9W0;q,GuGiGpGaGsq<q,0;hs8R9[q90Lq0qqqwqe    ",
  "  qrqtqyquhaZr8T9Q9[9$Gd9%GfGgGhGjGkZ;Gl9A8R0>9Q8TqbqnqmqMqN    ",
  "    qBqVqCZzZx9'8T9QA/ZbGzGxGcGvGbGn9AZn9e9[9Q089'qRqEqWqQ      ",
  "    q!q~q^ZAZSj.9'8Tq98kh_GmGMGNGBGVZbh_8khN8T9'w@w#w$w%w&      ",
  "      w*w=xLZTZRh>wD9qqo9CGCGZGAGSGD9v9Cw09q0Ww@wqwwwewr        ",
  "      wtwyx~x^ZWZSwxwzhe9qGFGGGHGJGK089q0<wzwxwcwvwbwnwm+n+n    ",
  "    +n*_wMwNx|ZQZ!ZzwAqRwSFOGLGPGIGUwDwSh>wHwJwKwLwPwI$a*`+n    ",
  "  +n*_$p=#wUwYwTwRwEwWwQw!0EGYGTwxwx0Ew!Z~Z^w(w)w_w`6O&Z1c*_+n  ",
  "  +n*_1c+rEew'w]w[w{w}w|e.eXeoGRe+e@e#e$e%e&e*e=e-=d+g=$+>*`+n  ",
  "  +n*_,D$s=w=d&We;e:e>e,e<e1e2e3e4e5e6e7e8e9e0eq!Oa(=@+r,D*_+n  ",
  "    +n*`$a&Z=@=l*5eweeereteyeueiepeaesedef&~kA=feg=@+r$a*`+n    ",
  "    +n+n*`$p,q@o*'&R*/=0eh&EejekFckA&+!O[G,W=s=@@o=2,D*_+n+n    ",
  "        +n*T*`*R$a=2&Z[~=@Ee:W+J+J:W*'6O+k&Z=#$a*R*`*T+n        "
};
