/* XPM */
const char *xpm_tango_emotes_face_glasses[] = {
  // Header (width height colors chars-per-pixel)
  "32 32 748 2",
  
  // Colors (code mode value)
  "+n c #00000001",
  "*T c #00000002",
  "*_ c #00000003",
  "*` c #00000004",
  "=1 c #00000005",
  "*R c #00000006",
  "$p c #00000007",
  ",D c #00000008",
  "$a c #0000000A",
  "+> c #0000000B",
  ",q c #0000000C",
  "=2 c #0000000D",
  "=# c #0000000E",
  ":l c #0000000F",
  "&Z c #00000011",
  "+r c #00000012",
  "$w c #00000013",
  "@o c #00000014",
  "+k c #00000016",
  "[~ c #00000017",
  ":5 c #00000018",
  "$^ c #00000019",
  "=@ c #0000001D",
  "9b c #0000001E",
  "=k c #0000001F",
  "Ee c #00000022",
  "=e c #00000023",
  "1l c #00000024",
  "@$ c #00000026",
  "=s c #0000002B",
  "6: c #00000030",
  "T2 c #00000032",
  "=l c #00000035",
  ",W c #00000039",
  "9c c #0000003A",
  "68 c #0000003E",
  "=r c #00000040",
  "=q c #00000041",
  "=j c #00000043",
  "[G c #00000044",
  "!$ c #00000047",
  ":g c #0000004A",
  "kL c #0000004B",
  "D3 c #0000004C",
  "&R c #0000004F",
  "=i c #00000050",
  "!O c #00000051",
  "eh c #00000056",
  "lO c #00000059",
  "Du c #00000068",
  "&( c #0000006E",
  "kP c #00000075",
  "k_ c #0000007B",
  "lo c #0200007F",
  "k` c #0604027F",
  "kK c #08060482",
  "k) c #100B069E",
  "kv c #15100883",
  "kI c #1C140BA6",
  "f_ c #1C2732FF",
  "lX c #1D160BA6",
  "kc c #20170C58",
  "s! c #20404008",
  "k' c #241B0DAC",
  "dp c #2D343449",
  "d( c #2D3537A3",
  "di c #2E35379A",
  "l. c #302312C4",
  "d& c #30363696",
  "k] c #322413C5",
  "~H c #323736FF",
  "d* c #3237389F",
  "g^ c #333736FF",
  "fl c #333738FA",
  "g_ c #333837FF",
  "dA c #333A3DF0",
  "hO c #343837FF",
  "f< c #343839E8",
  "sG c #343839FF",
  "dS c #343939AD",
  "f1 c #353939FE",
  "da c #353B3DF6",
  "d% c #363B3BFB",
  "s~ c #3738389F",
  "s^ c #373C3BFE",
  "f` c #384654FF",
  "kJ c #392914D5",
  "d) c #393B3BF1",
  "fN c #394856FF",
  "k| c #3B2A15D3",
  "kq c #3B2D154A",
  "g5 c #3B4244FF",
  "kw c #3C2B1766",
  "do c #3C4243FF",
  "j& c #3D2807FF",
  "k( c #3D2B15D9",
  "k[ c #3D2C16D5",
  "s' c #3D4342FF",
  "gx c #3E3A34FF",
  "gU c #3E3C34FF",
  "sQ c #3E3E3346",
  "dn c #3E4442FF",
  "dz c #3F4442FF",
  "du c #424A4EF1",
  "fR c #433E35FD",
  "sE c #43423AFE",
  "k} c #443117E0",
  "gF c #444439FF",
  "gB c #454538FF",
  "k$ c #462E1721",
  "kU c #463217E2",
  "g@ c #465666FF",
  "k{ c #473116E3",
  "sF c #47443CFE",
  "d= c #474E50F9",
  "g) c #484539FF",
  "h+ c #48463AFF",
  "g+ c #485A6DFF",
  "j! c #49242407",
  "g, c #494238FF",
  "g/ c #494538FF",
  "fy c #494E47FF",
  "gu c #495C69FF",
  "kb c #4A3419E1",
  "h# c #4A4638FF",
  "fe c #4A4D46FF",
  "jq c #4B2F07FF",
  "fx c #4B453AFC",
  "gg c #4C453AFF",
  "j0 c #4D3007FF",
  "kx c #4D381BED",
  "j* c #4E3208FF",
  "jw c #503308FF",
  "k/ c #50391CFA",
  "d9 c #505A5BFF",
  "kY c #513A1CFC",
  "sH c #51524DFF",
  "sR c #515452FF",
  "g6 c #515854FF",
  "d2 c #515B5AFF",
  "k0 c #523B1CF3",
  "kH c #523B1DFC",
  "sW c #524736EA",
  "k# c #533C1DF0",
  "sS c #534A3659",
  "gX c #535A51FF",
  "gi c #545E5FFF",
  "j9 c #553508FF",
  "jQ c #563D1ED8",
  "f! c #565553FF",
  "fM c #56626FFF",
  "jC c #573F1F75",
  "kn c #583F1EFB",
  "k% c #5840216B",
  "sD c #584B37F6",
  "g9 c #58563BFF",
  "gr c #58563CFF",
  "f[ c #585B4BFF",
  "f@ c #585E53FF",
  "fo c #595E51FF",
  "ja c #5A3C1E11",
  "d/ c #5A6872F8",
  "j% c #5B3D0BFF",
  "jp c #5B411FF3",
  "ke c #5B4120F7",
  "kT c #5C421CF9",
  "j, c #5C422277",
  "jO c #5D3B09FF",
  "g= c #5D5952FF",
  "k^ c #5E4423FA",
  "g- c #5E4A31F8",
  "g( c #5E543EFF",
  "j~ c #5F452243",
  "h@ c #5F563FFF",
  "dD c #5F6A75FD",
  "hI c #61492415",
  "j8 c #623E09FF",
  "k& c #624622F6",
  "h] c #634521D3",
  "hv c #64462545",
  "gG c #646553FF",
  "gc c #65594AFF",
  "d$ c #657075FE",
  "hP c #664924F7",
  "hy c #664B265F",
  "j^ c #674A24F6",
  "f) c #68614BFF",
  "gN c #686246FF",
  "d5 c #68685FFF",
  "jA c #694A24F1",
  "h= c #6A4D2878",
  "gI c #6A5941FF",
  "s/ c #6A7378FF",
  "jZ c #6B4A291F",
  "d6 c #6B6B62FF",
  "js c #6C4D26B5",
  "jV c #6D491BF4",
  "gR c #6D502970",
  "j< c #6D522938",
  "dO c #6E7E86FF",
  "dR c #6E8084FF",
  "j+ c #6F480CFF",
  "kz c #6F4C20FC",
  "s` c #6F7D82FF",
  "fQ c #705738FC",
  "f, c #707C87FC",
  "g~ c #714E26FF",
  "h$ c #715127FF",
  "j1 c #715129F5",
  "gj c #72522957",
  "dP c #728283FF",
  "h[ c #735228BA",
  "fZ c #747351FF",
  "fD c #747554FF",
  "gO c #748385FF",
  "jo c #75490AFF",
  "g; c #75522B3B",
  "db c #757566FF",
  "dx c #767767FF",
  "gt c #767D6DFF",
  "dZ c #768796FC",
  "kr c #774F17FD",
  "hU c #77552AF7",
  "g< c #776D63FF",
  "fF c #778885FF",
  "je c #794F13FF",
  "hb c #795A2D4A",
  "fc c #797E86FF",
  "kR c #7A5521FE",
  "d_ c #7A858FFE",
  "hc c #7C5729F0",
  "ho c #7C6833FF",
  "sJ c #7C725DFF",
  "sT c #7C7866FF",
  "hu c #7D592F7E",
  "g` c #7D6631FF",
  "dy c #7D8C99FC",
  "j> c #7E5624F7",
  "k~ c #7E5A29FD",
  "fE c #80602008",
  "9/ c #80800002",
  "sA c #80804004",
  "jd c #815619FC",
  "h- c #815C2DA0",
  "g8 c #817D5CFF",
  "gf c #826B50FF",
  "kG c #835D2AFD",
  "hn c #835E2DF2",
  "fT c #83807DFF",
  "fC c #838C7CFF",
  "km c #84591DFF",
  "gE c #845E2EBE",
  "ds c #848F99FC",
  "s_ c #84929AFF",
  "f# c #849AA1FF",
  "jW c #855519FB",
  "d+ c #8595A0FF",
  "s( c #8596A3FF",
  "dI c #868A71FF",
  "dT c #868A72FF",
  "d# c #8698A6FF",
  "gk c #87602EB5",
  "d3 c #878875FF",
  "fX c #879C9FFF",
  "k9 c #88591DFD",
  "j$ c #885B11FF",
  "d8 c #888977FF",
  "j@ c #8B5B10FF",
  "g: c #8B633295",
  "f2 c #8B929DFF",
  "k* c #8C5A16FF",
  "fk c #8C8C8EFF",
  "d- c #8C959EFE",
  "fu c #8CA3A6FF",
  "j# c #8D5E11FF",
  "ht c #8E622DF3",
  "fW c #8E663573",
  "fz c #8E673634",
  "dX c #8E8D80FF",
  "jS c #8F5E19FF",
  "s] c #8F8D7DFF",
  "h{ c #906326FE",
  "kE c #90662FFF",
  "k@ c #925E1BFF",
  "k! c #926A35FF",
  "hR c #935B0DFF",
  "d^ c #939A9FFF",
  "h/ c #946111FF",
  "gh c #946733F2",
  "s) c #94A1A9FF",
  "d1 c #94AAB8FF",
  "j/ c #956219FF",
  "hi c #95682DFD",
  "f' c #95906AFF",
  "fw c #95A6A0FF",
  "d@ c #95A6B4FF",
  "dl c #95ACB6FF",
  "dm c #96AEB8FF",
  "g# c #97804EFF",
  "d0 c #97AEBBFF",
  "fK c #9BA4ADFF",
  "sf c #9C713912",
  "gy c #9CA796FF",
  "sZ c #9D72389A",
  "f~ c #9E8E7EFF",
  "j7 c #9F6416FF",
  "gT c #A06C31F9",
  "h* c #A06C31FB",
  "dL c #A0B8BAFF",
  "j= c #A16610FF",
  "h; c #A17031FF",
  "kW c #A1753DFF",
  "s7 c #A1763E5F",
  "sd c #A1763F41",
  "fJ c #A1ACB8FF",
  "kQ c #A27840FF",
  "sg c #A3753BC8",
  "ss c #A3793FD5",
  "sC c #A4773DF4",
  "go c #A5B49FFF",
  "s8 c #A6793FEA",
  "s- c #A67B465F",
  "f> c #A6A9AAFF",
  "f{ c #A79A54FF",
  "g. c #A79D56FF",
  "kt c #A86D21FF",
  "j2 c #A86E22FF",
  "gv c #A88C66FF",
  "g1 c #A88F70FF",
  "d4 c #A8A790FF",
  "d7 c #A9A891FF",
  "h' c #AA6F2BFF",
  "h1 c #AA7220FF",
  "h0 c #AA7623FF",
  "f. c #AABBB2FF",
  "g> c #AB773AFF",
  "s; c #AB8045BD",
  "s6 c #AB834A4C",
  "s5 c #AB844AAA",
  "s: c #AB844CF8",
  "fj c #AB9E8CFF",
  "gH c #ABA885FF",
  "hY c #AC752DFF",
  "kM c #AC752FFF",
  "ji c #AD6D23FF",
  "gW c #AD7736FF",
  "f^ c #AD9679FF",
  "j( c #AE6711FF",
  "jD c #AE6914FF",
  "k= c #AE6C1BFF",
  "kl c #AE7127FF",
  "s4 c #AE884FF2",
  "g4 c #AE9D6DFF",
  "f: c #AE9F87FF",
  "jf c #AF6F1FFF",
  "fY c #AF9372FF",
  "kF c #B07833FF",
  "g* c #B08C63FF",
  "fh c #B09369FF",
  "fB c #B0AB7DFF",
  "gl c #B17A39FF",
  "sh c #B17F3EF3",
  "fq c #B1BCA5FF",
  "d| c #B2BBA5FF",
  "d< c #B2C2CAFF",
  "s# c #B3945D6E",
  "fv c #B3AA9FFF",
  "dt c #B3C1CDFF",
  "h} c #B46E1BFF",
  "h( c #B47212FF",
  "g2 c #B49265FF",
  "dk c #B4C5C9FF",
  "ky c #B56E1AFF",
  "gP c #B58E55FF",
  "C0 c #B5BDC5FF",
  "hE c #B67413FF",
  "s+ c #B69B6038",
  "fV c #B6BA96FF",
  "gz c #B76F25FF",
  "sa c #B79057F5",
  "fU c #B7915EFF",
  "s$ c #B7935E6A",
  "s@ c #B7966055",
  "gM c #B7A56CFF",
  "f0 c #B7B791FF",
  "dF c #B7BCC2FF",
  "dK c #B7C4BDFF",
  "fG c #B7C5BAFF",
  "j3 c #B8680CFF",
  "kN c #B87B2EFF",
  "gb c #B89762FF",
  "s& c #B8A16836",
  "|o c #B8BDBEFF",
  "k- c #B9660AFF",
  "hm c #B9792CFF",
  "f] c #B9B888FF",
  "dE c #B9CBD0FF",
  "ku c #BA6402FF",
  "g& c #BA9056FF",
  "gd c #BA9057FF",
  "s% c #BA9A6551",
  "j) c #BB6401FF",
  "kC c #BB6709FF",
  "k8 c #BB721EFF",
  "kB c #BB7623FF",
  "f/ c #BB9E75FF",
  "jg c #BC6402FF",
  "eX c #BC6607FF",
  "kV c #BC6E16FF",
  "kk c #BC7018FF",
  "kD c #BC7A2BFF",
  "h^ c #BC7E18FF",
  "s3 c #BC9861F5",
  "gJ c #BCAB75FF",
  "g7 c #BCAD71FF",
  "fm c #BCB199FF",
  "jF c #BD6300FF",
  "kZ c #BD6709FF",
  "kA c #BD6D12FF",
  "f9 c #BDB68FFF",
  "k+ c #BE7118FF",
  "kS c #BE751FFF",
  "s> c #BE9961F4",
  "fI c #BF9657FF",
  "g3 c #BF9B5FFF",
  "s= c #BF9F6008",
  "dq c #BFCDD6FF",
  "hp c #C07724FF",
  "jB c #C07725FF",
  "jx c #C0863BFF",
  "gK c #C0A060FF",
  "fH c #C0C6C0FF",
  "jE c #C1741EFF",
  "h< c #C17818FF",
  "gL c #C19957FF",
  "f( c #C19D62FF",
  "d; c #C1C9D2FF",
  "ki c #C26601FF",
  "kj c #C26804FF",
  "hq c #C27C1BFF",
  "gn c #C2A66BFF",
  "s9 c #C3975DF5",
  "gp c #C39F57FF",
  "k; c #C46700FF",
  "k7 c #C46C0CFF",
  "gs c #C4944DFF",
  "fg c #C4AB82FF",
  "f3 c #C4C2BFFF",
  "dv c #C4C5A2FF",
  "fi c #C4D2CFFF",
  "h| c #C56600FF",
  "gm c #C5AF73FF",
  "gY c #C67F38FF",
  "jr c #C68429FF",
  "h2 c #C68621FF",
  "g% c #C6954DFF",
  "f$ c #C6D5D6FF",
  "hM c #C76600FF",
  "h9 c #C78B24FF",
  "dc c #C7C8A4FF",
  "ZE c #C7CCD1FF",
  "kh c #C86701FF",
  "h: c #C8771FFF",
  "jX c #C9770FFF",
  "kO c #CA6904FF",
  "kp c #CA6A02FF",
  "j: c #CA7C28FF",
  "jc c #CA9144FF",
  "hT c #CB780FFF",
  "fP c #CBA96BFF",
  "j_ c #CC6800FF",
  "jR c #CC6901FF",
  "ks c #CC6B03FF",
  "ga c #CC9B48FF",
  "d, c #CCD5D9FF",
  "w! c #CD6800FF",
  "ka c #CD6B02FF",
  "ju c #CD7517FF",
  "hV c #CD7E12FF",
  "hL c #CD8639FF",
  "s2 c #CDAE79F5",
  "dr c #CDD2D5FF",
  "k6 c #CE6900FF",
  "kg c #CE6A01FF",
  "kf c #CE6B02FF",
  "kd c #CE6D03FF",
  "jN c #CE6D08FF",
  "gQ c #CE771BFF",
  "g$ c #CE9C47FF",
  "jz c #CF9343FF",
  "s, c #CFAF7AF5",
  "fb c #CFC3B4FF",
  "k: c #D06B01FF",
  "k2 c #D07207FF",
  "k1 c #D07307FF",
  "hF c #D08919FF",
  "wH c #D16A00FF",
  "hG c #D18515FF",
  "sK c #D1C09DFF",
  "dM c #D1DCDFFF",
  "k3 c #D27306FF",
  "ha c #D36A00FF",
  "h` c #D37515FF",
  "j} c #D3780AFF",
  "j{ c #D3790AFF",
  "fL c #D3C3A0FF",
  "sY c #D3C6A9FF",
  "dd c #D3D8DEFF",
  "0E c #D46B00FF",
  "g! c #D46C05FF",
  "f4 c #D4CDC3FF",
  "k< c #D57306FF",
  "sO c #D5B88012",
  "f8 c #D5CFBAFF",
  "h% c #D67409FF",
  "]J c #D6C7B2FF",
  "fa c #D6D7CCFF",
  "d: c #D6D8D9FF",
  "dj c #D6DDDFFF",
  "j[ c #D77A0AFF",
  "hx c #D78937FF",
  "f; c #D7CEBEFF",
  "dC c #D7DBDDFF",
  "fp c #D7DDD4FF",
  "dw c #D7DEE3FF",
  "wx c #D96C00FF",
  "j; c #D96D01FF",
  "k> c #D96F02FF",
  "k4 c #D97305FF",
  "j| c #D97A0AFF",
  "j6 c #D98519FF",
  "gV c #D9B139FF",
  "s1 c #D9BC89F9",
  "d~ c #D9D5CEFF",
  "d` c #D9D5D1FF",
  "d} c #D9D8C8FF",
  "k, c #DA7304FF",
  "gD c #DAB53CFF",
  "f5 c #DAD1C3FF",
  "dJ c #DADDD7FF",
  "s< c #DBBE8AF9",
  "fn c #DBCBADFF",
  "f% c #DBE3DFFF",
  "qR c #DC6D00FF",
  "j] c #DC7B09FF",
  "jv c #DCA254FF",
  "d> c #DCE0E2FF",
  "h> c #DD6D00FF",
  "hK c #DD6F04FF",
  "fs c #DDDAC8FF",
  "j. c #DE6E00FF",
  "k. c #DE7908FF",
  "jY c #DE800DFF",
  "jU c #DE8312FF",
  "dG c #DEDFE1FF",
  "dV c #DEE1E0FF",
  "dh c #DEE2E3FF",
  "de c #DEE2E5FF",
  "dW c #DEE5E6FF",
  "w@ c #DF6E00FF",
  "k5 c #DF7102FF",
  "j' c #DF7906FF",
  "h, c #DF7E0CFF",
  "hB c #DF830EFF",
  "hr c #DF8934FF",
  "ff c #DFD1B9FF",
  "f6 c #DFD5C3FF",
  "ko c #E07001FF",
  "j` c #E07303FF",
  "hw c #E08511FF",
  "jl c #E09F4AFF",
  "sV c #E0B777FF",
  "f7 c #E0D6C0FF",
  "f- c #E0DACCFF",
  "d{ c #E0DCCDFF",
  "q0 c #E16F00FF",
  "j4 c #E17000FF",
  "wz c #E17101FF",
  "kX c #E17605FF",
  "jH c #E1800BFF",
  "fd c #E1D9C1FF",
  "d' c #E1DCD4FF",
  "d! c #E1E0D9FF",
  "dH c #E1E2DBFF",
  "wD c #E27302FF",
  "9' c #E27403FF",
  "he c #E27503FF",
  "0< c #E27504FF",
  "hJ c #E27604FF",
  "j5 c #E27605FF",
  "9V c #E27705FF",
  "jG c #E27B08FF",
  "jT c #E27E0AFF",
  "jJ c #E2891AFF",
  "f& c #E2E4DDFF",
  "0b c #E37705FF",
  "9q c #E37806FF",
  "9@ c #E37906FF",
  "8T c #E37A07FF",
  "08 c #E37B07FF",
  "jI c #E3993AFF",
  "d[ c #E3DED2FF",
  "0g c #E47B08FF",
  "qo c #E47C08FF",
  "jh c #E47C09FF",
  "w0 c #E47D08FF",
  "9] c #E47E09FF",
  "jM c #E4800BFF",
  "jj c #E4830FFF",
  "jm c #E4850EFF",
  "hW c #E4961BFF",
  "d] c #E4DFD4FF",
  "f= c #E4E0D4FF",
  "hN c #E5800AFF",
  "9Q c #E5810BFF",
  "jy c #E5820BFF",
  "9w c #E5820CFF",
  "9# c #E5830DFF",
  "h~ c #E59C1FFF",
  "f* c #E5E3DAFF",
  "}6 c #E5E5E2FF",
  "FG c #E5E7E7FF",
  "8k c #E6840DFF",
  "hH c #E6860EFF",
  "9[ c #E6870FFF",
  "h& c #E68930FF",
  "jn c #E69124FF",
  "hC c #E69419FF",
  "jK c #E6A048FF",
  "sp c #E6C896FE",
  "dg c #E6E9E8FF",
  "dQ c #E6EAE8FF",
  "DM c #E6EAEAFF",
  "h_ c #E78810FF",
  "hz c #E78B11FF",
  "j- c #E78E14FF",
  "h3 c #E79E20FF",
  "g' c #E7B02FFF",
  "V| c #E7E6E2FF",
  "|t c #E7E8E4FF",
  "dN c #E7EBECFF",
  "9$ c #E88D13FF",
  "h) c #E88F14FF",
  "jt c #E8911EFF",
  "hl c #E89217FF",
  "hk c #E8981BFF",
  "h8 c #E8A324FF",
  "jL c #E8AA5CFF",
  "jk c #E99733FF",
  "hX c #E9B532FF",
  "s0 c #E9C997FF",
  "}f c #E9E9E6FF",
  "hs c #EA9418FF",
  "jP c #EAB066FF",
  "sj c #EABE80FF",
  "s* c #EAEAAA0C",
  "X| c #EAEBE9FF",
  "hd c #EB9C1CFF",
  "hZ c #EB9D1DFF",
  "jb c #EBAB58FF",
  "df c #EBECECFF",
  "dB c #EBEEF0FF",
  "q, c #EC9F1EFF",
  "hj c #EDA120FF",
  "hA c #EDA220FF",
  "q< c #EDA321FF",
  "h! c #EDA421FF",
  "q1 c #EDA422FF",
  "hQ c #EDA522FF",
  "0) c #EEA623FF",
  "q3 c #EEA723FF",
  "hh c #EEA824FF",
  "h4 c #EEA925FF",
  "hS c #EFAA25FF",
  "hD c #EFAC27FF",
  "0V c #EFAD27FF",
  "0` c #F0AE28FF",
  "h5 c #F0B029FF",
  "hg c #F0B12AFF",
  "0C c #F1B22AFF",
  "0e c #F1B42CFF",
  "hf c #F1B52CFF",
  "0Z c #F1B62DFF",
  "h7 c #F2B92FFF",
  "0i c #F2BA30FF",
  "h6 c #F3BC32FF",
  "g] c #F3BD32FF",
  "0u c #F3BE33FF",
  "g[ c #F3C336FF",
  "h. c #F4C235FF",
  "g| c #F5C538FF",
  "g{ c #F5C638FF",
  "g} c #F5C739FF",
  "gC c #F5CC40FF",
  "g0 c #F6D451FF",
  "ge c #F6D854FF",
  "gS c #F7CF43FF",
  "gZ c #F7D044FF",
  "gA c #F7D144FF",
  "gq c #F9DC56FF",
  "sl c #F9E1B4FF",
  "si c #F9EACDFF",
  "s[ c #F9F4D7FF",
  "d. c #F9F5DCFF",
  "gw c #FADC58FF",
  "sz c #FAE7BCFF",
  "sk c #FAE7C8FF",
  "sq c #FAEACFFF",
  "f} c #FBE771FF",
  "f| c #FBE973FF",
  "sN c #FBEAC9FF",
  "sB c #FBECD3FF",
  "sM c #FBEDCEFF",
  "sx c #FBEECBFF",
  "sL c #FBF0D0FF",
  "fA c #FCF18FFF",
  "sm c #FCF2D7FF",
  "fS c #FCF491FF",
  "sc c #FCF4DBFF",
  "se c #FCF4E1FF",
  "fr c #FCF7A9FF",
  "fO c #FCFBBBFF",
  "dU c #FCFDC5FF",
  "dY c #FCFDC6FF",
  "sU c #FDF4DBFF",
  "sr c #FDF4DFFF",
  "st c #FDF5E3FF",
  "sw c #FDF5E4FF",
  "7o c #FDF7E1FF",
  "sn c #FDF7E2FF",
  "sy c #FDF7E8FF",
  "sv c #FDF8E5FF",
  "su c #FDF8ECFF",
  "ft c #FDF9ABFF",
  "sb c #FDF9E8FF",
  "sP c #FDFAEAFF",
  "f+ c #FDFBBCFF",
  "s{ c #FDFBE2FF",
  "s| c #FDFCE4FF",
  "s} c #FDFDE6FF",
  "sI c #FEFCEEFF",
  "3Q c #FEFCEFFF",
  "m/ c #FEFDF0FF",
  "v4 c #FFFF0001",
  "so c #FFFFCC05",
  "3N c #FFFFFF01",
  ":C c #FFFFFF02",
  "   c none",
  
  // Image data
  "                  3N:CsosOs+s@s#s$s%s&s*so:C3N                  ",
  "                v4s=s-s;s:s>s,s<s1s2s3s4s5s6:C3N                ",
  "              9/s7s8s9s0sqswsesrstsysusispsasssd                ",
  "            sfsgshsjskslszsxscsvsbsnsmsMsNsBsVsCsZsA            ",
  "          sSsDsFsGsHsJsKsL7osP3Qm/sIsbsUsYsTsRsGsEsWsQ          ",
  "      s!s~s^s/s(s)s_s`s's]s[s{s}s}s|d.dXdodOd+d@d#d$d%d&s!      ",
  "      d*d=d-d;d:d>d,d<d1d2d3d4d5d6d7d8d9d0dqdwdedrdtdydudi      ",
  "    dpdadsddFGdfdgdhdjdkdldzdxdcdvdbdndmdMdNdBDMdVdCC0dZdAdp    ",
  "    dSdDdFdG}6}fV|dHdJdKdLdPdIdUdYdTdRdEdWdQX||td!d~|od^d/d(    ",
  "    d)d_ZEd`d'd]d[d{d}d|f.fXfofOf+f@f#f$f%f&f*f=f-f;f:f>f,f<    ",
  "    f1f2f3f4f5f6f7f8f9f0fqfwfefrftfyfufifpfafsfdfffgfhfjfkfl    ",
  "  fzfxfcfvfb]JfnfmfMfNfBfVfCfZfAfSfDfFfGfHfJfKfLfPfIfUfYfTfRfE  ",
  "  fWfQf!f~f^f/f(f)f_f`f'f]f[f{f}f|g.gXgogOg+g@g#g$g%g&g*g=g-g;  ",
  "  g:g>g,g<g1g2g3g4g5g6g7g8g9g0gqgwgegrgtgygugigpgagsgdgfggghgj  ",
  "  gkglgzgxgcgvgbgngmgMgNgBgVgCgZgAgSgDgFgGgHgJgKgLgPgIgUgYgTgR  ",
  "  gEgWgQg!g~g^g/g(g)g_g`g'g]g[g{g}g|h.hXhohOh+h@h#~Hh$h%h&h*h=  ",
  "  h-h;h:h>9Vh,h<h1h2h3h4h50Z0ig]0uh6h70e0`h8h9h0hqhw9]hehrhthy  ",
  "  huhihphawDqo8k9$hshdq<h40`0Chfhf0ehg0Vhhhjhkhlhz9w8Twzhxhchv  ",
  "  hbhnhmhMq00bhNhBhVhChZhAq3hShD0VhDhS0)hjhFhG9$hH9]hJhKhLhPhI  ",
  "  fEhUhYeX0EwD089whThRhEhWq,hAq1hQh!h~h^h/h(h)h_9Q9@wzh`h'h]    ",
  "    h[h{h}h|j.0<qo9#jXjojOj+j@j#j$j%j&j*j=j-h_9w089'j;j:j>j,    ",
  "    j<j1j2j3w!j4j5w09#j6j7j8j9j0jqjwjejrjt9[jy0g0<w@jujijpja    ",
  "      jsjdjfjgwHj4hJjhjjjkjljzjxjcjvjbjnjmjM08heq0jNjBjVjC      ",
  "      jZjAjSjDjFwHq00<jGjHjJjKjLjPjIjUjYjT9q9'w@jRjEjWjQj!      ",
  "      +nj~j^j/j(j)j_qRj`j'j]j[j{j}j{j|k.kXkowxkOk+k@k#k$*_+n    ",
  "    +n*_,Dk%k&k*k=k-k;k:k>k,k<k1k2k3k4k5wxk6k7k8k9k0kq:l,D*_+n  ",
  "    +n=1=2[~kwkekrktkykukikpkakskdkfkgkhkjkkklkzkxkc=e[~,q=1+n  ",
  "    *T*R:l$^=lkvkbknkmkMkNkBkVkCkZkAkSkDkFkGkHkJkK=j@$$^=2*R+n  ",
  "    +n*`+>@o@$kLkPkIkUkYkTkRkEkWkQk!k~k^k/k(k)k_ehT2=k@o$a*`+n  ",
  "    +n*T*R+>@oEe,W!ODuk`k'k]k[k{k}k|l.lXlo&(lO=r=s=@+r$a*`+n    ",
  "      +n*T*`,D,q@o9b=s=l68[G:g&R=iD3!$=q9c6:1l$^&Z+>$p*_+n      ",
  "          +n*T*_*R,D+>=#&Z$w+k:5$^[~@o$w&Z=#$a,D=1*_+n+n        "
};
