/* XPM */
const char *xpm_tango_emotes_face_grin[] = {
  // Header (width height colors chars-per-pixel)
  "32 32 731 2",
  
  // Colors (code mode value)
  "+n c #00000001",
  "*T c #00000002",
  "*_ c #00000003",
  "*` c #00000004",
  "*R c #00000006",
  "$p c #00000007",
  ",D c #00000008",
  "1c c #00000009",
  "$a c #0000000A",
  "+> c #0000000B",
  ",q c #0000000C",
  "=2 c #0000000D",
  "=# c #0000000E",
  "$s c #00000010",
  "&Z c #00000011",
  "+r c #00000012",
  "@o c #00000014",
  "=$ c #00000015",
  "+k c #00000016",
  "[~ c #00000017",
  "6O c #0000001B",
  "=w c #0000001C",
  "=@ c #0000001D",
  "*' c #00000020",
  "+g c #00000021",
  "Ee c #00000022",
  ":W c #00000025",
  "+J c #00000027",
  "=s c #0000002B",
  "eg c #0000002C",
  "a( c #0000002D",
  "&R c #0000002F",
  "=l c #00000035",
  "=d c #00000037",
  ",W c #00000039",
  "*/ c #0000003C",
  "[G c #00000044",
  "=f c #00000046",
  "=0 c #00000048",
  "!O c #00000051",
  "*5 c #00000052",
  "eh c #00000056",
  "&+ c #0000005B",
  "&E c #0000005E",
  "kA c #00000062",
  "ej c #00000064",
  "Dy c #00000067",
  "&W c #0000006B",
  "ew c #0000006F",
  "&~ c #0000007A",
  "eq c #0000007D",
  "ek c #0202006A",
  "e- c #09070570",
  "w' c #0A060350",
  "ee c #0B09048C",
  "ef c #0E090594",
  "lz c #0E0A03FF",
  "lD c #130F06FF",
  "e; c #1510089E",
  "lm c #160F06FF",
  "e0 c #171109A7",
  "lM c #181004FF",
  "ll c #211606FF",
  "lL c #231F0FFF",
  "w` c #24190E47",
  "er c #2B2010BA",
  "ed c #2C2010BE",
  "wU c #30251030",
  "lU c #3B2708FF",
  "wI c #3B2C1434",
  "e= c #412E16DC",
  "et c #453217E2",
  "w] c #453218D2",
  "es c #463217E4",
  "e9 c #463217E7",
  "e: c #463218E2",
  "wm c #472B1C12",
  "ey c #4D3719F2",
  "ea c #4E381AF2",
  "wM c #4E391C24",
  "w_ c #4F381BE8",
  "eu c #4F391CFB",
  "ep c #503A1CFB",
  "ei c #503A1EFE",
  "wP c #513A1DF1",
  "e> c #533B1DFC",
  "e* c #533D1DFB",
  "wn c #543C1CE3",
  "w& c #5540223C",
  "lZ c #573C0DFF",
  "wr c #573E1DB6",
  "e8 c #574023FC",
  "w[ c #583F1DFC",
  "wY c #5B411FDE",
  "qQ c #5D421FD3",
  "wt c #5D46170B",
  "w% c #5E421EF4",
  "qN c #5E43212E",
  "qe c #5F462383",
  "wN c #614623EC",
  "q@ c #664923DA",
  "wy c #674923D8",
  "qM c #674923F2",
  "03 c #684C261B",
  "0U c #694A25F4",
  "q! c #694E272E",
  "e, c #6A4A21FA",
  "wT c #6B481BFA",
  "w* c #6B4D25A5",
  "0k c #6B4D26FA",
  "0l c #6D492407",
  "q~ c #6E4E25F5",
  "9/ c #71551C09",
  "qB c #725127C2",
  "9^ c #725228F9",
  "w) c #734E21FB",
  "qr c #7352291F",
  "02 c #755228F2",
  "9m c #755429F7",
  "qt c #76542BF5",
  "we c #774D1AF7",
  "w= c #77521EF6",
  "q# c #78562B71",
  "e7 c #785830FB",
  "97 c #7A5629DF",
  "x| c #7C5319FB",
  "0Y c #7C572BCA",
  "9X c #7C582B8E",
  "w{ c #7D521BFE",
  "8P c #7D582E37",
  "0z c #7E5B2DE8",
  "x~ c #7F551BFB",
  "04 c #815D2FF9",
  "9) c #846031F7",
  "lx c #855D22FF",
  "8d c #855E2DE1",
  "8: c #855F304B",
  "wL c #86581CFD",
  "z! c #877C67FF",
  "q$ c #885F29F6",
  "9M c #886231FA",
  "lA c #886B24FF",
  "wb c #89591AFD",
  "9( c #8B5D2E0B",
  "qV c #8B5F21FD",
  "98 c #8B6431EB",
  "qw c #8D5F28F9",
  "7~ c #8D6330C9",
  "7B c #8E68391B",
  "zC c #8E7041FF",
  "zQ c #8E7349FF",
  "e< c #8F6228FF",
  "8L c #8F6533F2",
  "9o c #8F6631D0",
  "7N c #8F6633ED",
  "e& c #90632BFE",
  "7r c #90663337",
  "8I c #9168367B",
  "zW c #916B32FF",
  "8; c #92662EF3",
  "zM c #935402FF",
  "7& c #936C3634",
  "6( c #936C3B1A",
  "7e c #946B37F4",
  "zZ c #957D55FF",
  "8f c #96693427",
  "x+ c #96998EFF",
  "zE c #976A26FF",
  "7% c #986E39EC",
  "8> c #996D34D2",
  "7^ c #996F373C",
  "zA c #997543FF",
  "z~ c #9A5907FF",
  "qW c #9A6322FE",
  "8g c #9A6F38F3",
  "e6 c #9C7138FF",
  "6/ c #9E723CCB",
  "z) c #9E7846FF",
  "ln c #9E7B3BFF",
  "zm c #9F5E08FF",
  "7/ c #9F7035F4",
  "7V c #9F7036B8",
  "zS c #9F7536FF",
  "6F c #9F794650",
  "0T c #A06F2FFF",
  "6) c #A0773B2B",
  "x@ c #A15D08FF",
  "c; c #A15F09FF",
  "7y c #A17338E7",
  "7t c #A1793613",
  "2i c #A1A19EFF",
  "xo c #A1A79BFF",
  "x5 c #A25E07FF",
  "wR c #A2671CFF",
  "zR c #A26D20FF",
  "6_ c #A27439E7",
  "7* c #A2743A2C",
  "7= c #A2753BF2",
  "xC c #A35E07FF",
  "x) c #A3610CFF",
  "xQ c #A3620EFF",
  "q^ c #A3691EFF",
  "xO c #A3A89EFF",
  "6c c #A4783E46",
  "x4 c #A4A293FF",
  "xI c #A56008FF",
  "xJ c #A5610CFF",
  "zT c #A56F20FF",
  "6H c #A5763BC1",
  "lI c #A58733FF",
  "z` c #A5AAA0FF",
  "z' c #A5ABA0FF",
  "x{ c #A6620CFF",
  "6G c #A6734014",
  "6D c #A67B41E0",
  "z_ c #A6ABA1FF",
  "c5 c #A76511FF",
  "c+ c #A7691AFF",
  "lN c #A76C17FF",
  "zD c #A7762FFF",
  "e1 c #A77636FF",
  "6v c #A77A3FD9",
  "xS c #A8630DFF",
  "c6 c #A86512FF",
  "x[ c #A8722CFF",
  "xU c #A87C41FF",
  "6p c #A8824D35",
  "x^ c #AA6917FF",
  "xL c #AA6C1DFF",
  "x& c #AA712BFF",
  "zF c #AA7527FF",
  "xi c #AB5F03FF",
  "c. c #AB6C1BFF",
  "6J c #AB7D3FF3",
  "6a c #AB834B8C",
  "6l c #AB854D95",
  "xV c #AB956FFF",
  "xy c #AC6002FF",
  "cO c #AC640DFF",
  "c- c #AC7730FF",
  "6^ c #AC8046F3",
  "xX c #ACB2A6FF",
  "x( c #AD6812FF",
  "zY c #AD7223FF",
  "w} c #AD7329FF",
  "qy c #AD7429FF",
  "xp c #ADA38CFF",
  "xc c #AE6812FF",
  "k= c #AE6C1BFF",
  "zG c #AE7725FF",
  "e5 c #AE7D41FF",
  "z{ c #AEAFAAFF",
  "z] c #AEB3A7FF",
  "zt c #AF6304FF",
  "xD c #AF7934FF",
  "6s c #AF854BDE",
  "6d c #AF8951F6",
  "xH c #AFAD97FF",
  "6k c #B0894EE1",
  "6z c #B08A583D",
  "xk c #B1782FFF",
  ":N c #B1B4AEFF",
  "zr c #B26304FF",
  "0x c #B27A35FF",
  "8U c #B27A3DF8",
  "6j c #B28B54F7",
  "6f c #B28E58FC",
  "xt c #B29871FF",
  "zH c #B37A25FF",
  "xW c #B3A07CFF",
  "yJ c #B3B5B0FF",
  "x8 c #B46810FF",
  "zn c #B46F14FF",
  "w( c #B47224FF",
  "c7 c #B47324FF",
  "q+ c #B47732FF",
  "6b c #B48A50F4",
  "6h c #B4915BFC",
  "xz c #B57121FF",
  "zU c #B57724FF",
  "e2 c #B5803DFF",
  "x* c #B5BAB0FF",
  "x_ c #B69E75FF",
  "z[ c #B6BAB0FF",
  "x3 c #B6BBB0FF",
  "xv c #B6BCAFFF",
  "x2 c #B6BDB0FF",
  "q% c #B77323FF",
  "xB c #B7BEB0FF",
  "Y^ c #B7BEB1FF",
  "c4 c #B87524FF",
  "e% c #B8792CFF",
  "6g c #B8965EF7",
  "xs c #B8BFB1FF",
  "x- c #B8BFB2FF",
  "x= c #B8BFB3FF",
  "9. c #B97C3DFC",
  "e4 c #B98441FF",
  "6S c #B9915AF4",
  "c@ c #B9935EFF",
  "xl c #BA6504FF",
  "xx c #BA7625FF",
  "c< c #BA7B2EFF",
  "zJ c #BA7D27FF",
  "z} c #BAB5ADFF",
  "xY c #BAC0B2FF",
  "zV c #BB6B0FFF",
  "zy c #BB6E0BFF",
  "w$ c #BB7423FF",
  "lP c #BBA34BFF",
  "x. c #BBC0B5FF",
  "xa c #BBC2B5FF",
  "c, c #BC721EFF",
  "xr c #BCC2B6FF",
  "x; c #BCC3B6FF",
  "e3 c #BD8540FF",
  "x> c #BDBFBAFF",
  "xd c #BDC3B6FF",
  "z( c #BE7018FF",
  "wv c #BE701AFF",
  "x! c #BE7723FF",
  "lk c #BE7D1CFF",
  "c= c #BE9A66FF",
  "`M c #BEBEB9FF",
  "x1 c #BEC4B8FF",
  "xe c #BEC5B8FF",
  "xA c #BF7A2BFF",
  "c3 c #BF7E32FF",
  "zI c #BF7F27FF",
  "7! c #BF8036FB",
  "x9 c #BFC5BAFF",
  "ww c #C07522FF",
  "c8 c #C07E31FF",
  "xP c #C07F31FF",
  "cw c #C08540FF",
  "x$ c #C1731BFF",
  "x% c #C17722FF",
  "xu c #C17825FF",
  "7C c #C17E33F9",
  "05 c #C1853EFF",
  "xK c #C2731BFF",
  "zK c #C28329FF",
  "%M c #C2C4BEFF",
  "z| c #C3C5C1FF",
  "c: c #C48740FF",
  "zu c #C67B16FF",
  "x7 c #C67F2FFF",
  "zP c #C6842BFF",
  "9O c #C68945FF",
  "x, c #C6C7C3FF",
  "xq c #C6CAC2FF",
  "xf c #C6CBC0FF",
  "x: c #C6CCC1FF",
  "zb c #C78324FF",
  "ca c #C78941FF",
  "xb c #C7CBC1FF",
  "xF c #C7CCC1FF",
  "xE c #C7CCC2FF",
  "x0 c #C7CCC3FF",
  "qm c #C8802FFF",
  "cq c #C88235FF",
  "6` c #C88F44F9",
  "6e c #C8AA792A",
  "c# c #C8AF88FF",
  ":z c #C8C9C6FF",
  "{V c #C8CDC3FF",
  "xw c #C8CEC3FF",
  "zL c #C9862BFF",
  "x/ c #C98D4BFF",
  "xN c #C9CEC3FF",
  "xZ c #CA7820FF",
  "9_ c #CA8C46FF",
  "x] c #CAC4B0FF",
  "xj c #CCD0C7FF",
  "_9 c #CCD0CAFF",
  "z/ c #CD7E2AFF",
  "0I c #CD873CFF",
  "99 c #CD8E48FF",
  "ce c #CD9759FF",
  "7$ c #CD984FFA",
  "xg c #CDD1C8FF",
  "x} c #CE8D47FF",
  "lS c #CEAD47FF",
  "9N c #CF8E48FF",
  "cX c #CF9B60FF",
  ".M c #CFD2C9FF",
  "Qd c #CFD3CBFF",
  "xM c #CFD4CCFF",
  "c2 c #D09D62FF",
  "xT c #D0D5CCFF",
  "zN c #D16E03FF",
  "qq c #D17E26FF",
  "zi c #D18A25FF",
  "c9 c #D19A5CFF",
  "xG c #D1D5CCFF",
  "x< c #D1D5CEFF",
  "z^ c #D26E05FF",
  "8, c #D28B42FF",
  "co c #D29F65FF",
  "c* c #D2BE9FFF",
  "W_ c #D2D6CEFF",
  "cp c #D39B5CFF",
  "x# c #D5700AFF",
  "8s c #D5954DFF",
  "}} c #D5D6D2FF",
  "x6 c #D67716FF",
  "cr c #D7A46CFF",
  "96 c #D8924CFF",
  "7u c #D89C55FE",
  "c$ c #D8C9B0FF",
  "ze c #D97817FF",
  "zp c #D99938FF",
  "c1 c #D9AD79FF",
  "zB c #DA8E40FF",
  "ci c #DAA76FFF",
  "#b c #DADDD6FF",
  "K/ c #DADED7FF",
  "zv c #DB9F41FF",
  "7- c #DBA35FFE",
  "7M c #DBA55FFE",
  "6n c #DBB882FB",
  "xh c #DBDED7FF",
  "x' c #DBDFD8FF",
  "9B c #DC7006FF",
  "0j c #DC9347FF",
  "cZ c #DCDFD9FF",
  "e# c #DCE0D9FF",
  "l] c #DDA42AFF",
  "c0 c #DDAF7BFF",
  "xm c #DDE0D9FF",
  "zq c #DE7E0CFF",
  "c> c #DEAC75FF",
  "l! c #DEBB4BFF",
  "6w c #DEDEA617",
  "yZ c #DEDFDCFF",
  "zw c #DF7708FF",
  "7w c #DFAC6BFE",
  "6A c #E0C28FFD",
  "za c #E1AA4BFF",
  "ct c #E1B687FF",
  "9V c #E27705FF",
  "cu c #E2B788FF",
  "9q c #E37806FF",
  "9@ c #E37906FF",
  "90 c #E37911FF",
  "8T c #E37A07FF",
  "01 c #E3984DFF",
  "lE c #E3A326FF",
  "l_ c #E3C956FF",
  ">< c #E3E6E1FF",
  "8j c #E47F11FF",
  "xn c #E4E6E1FF",
  "R` c #E4E7E1FF",
  "#7 c #E4E7E2FF",
  "9C c #E5800BFF",
  "9b c #E58014FF",
  "9w c #E5820CFF",
  "9v c #E5830CFF",
  "9# c #E5830DFF",
  "81 c #E5830EFF",
  "9+ c #E58525FF",
  "6K c #E5BC7EFF",
  "w3 c #E5E7E2FF",
  "x` c #E5E8E3FF",
  "8k c #E6840DFF",
  "8} c #E6850DFF",
  "9n c #E69B52FF",
  "xR c #E6E8E3FF",
  "r6 c #E6E8E4FF",
  ";A c #E6E9E4FF",
  "8J c #E78816FF",
  "z& c #E78A12FF",
  "z0 c #E78B15FF",
  "9e c #E78C12FF",
  "95 c #E78D2BFF",
  "zc c #E7B860FF",
  "cy c #E7C39CFF",
  "9c c #E88C13FF",
  "9$ c #E88D13FF",
  "8R c #E88E13FF",
  "8l c #E88E14FF",
  "8H c #E88E15FF",
  "8p c #E88F17FF",
  "7_ c #E8911FFF",
  "c& c #E8E0D3FF",
  "82 c #E9901AFF",
  "z* c #E9951CFF",
  "z9 c #E9961CFF",
  "8Y c #E99745FF",
  "9~ c #E99E54FF",
  "zs c #E9BA61FF",
  "c% c #E9E3D8FF",
  "9r c #EA9618FF",
  "9x c #EA9619FF",
  "9% c #EA9719FF",
  "7A c #EA972EFF",
  "8{ c #EA981AFF",
  "8E c #EA981BFF",
  "8G c #EA991EFF",
  "8z c #EA9A1FFF",
  "7) c #EA9C3EFF",
  "lW c #EAB334FF",
  "6~ c #EAC691FF",
  ">d c #EAEBEAFF",
  "83 c #EB9E28FF",
  "8| c #EBA04DFF",
  "6r c #EBD69919",
  "lR c #EC9F1FFF",
  "9z c #ECA01FFF",
  "l{ c #ECA020FF",
  "z8 c #ECA122FF",
  "8< c #ECA557FF",
  "8h c #ECA661FF",
  "7( c #ECAB64FF",
  ";r c #ECEEEAFF",
  ";} c #ECEEEBFF",
  "z= c #EDA024FF",
  "lV c #EDA324FF",
  "8* c #EDA437FF",
  "8= c #EDA443FF",
  "7` c #EDA539FF",
  "7S c #EDA946FF",
  "7p c #EDAA4AFF",
  "lt c #EDC25FFF",
  "lT c #EE9E1EFF",
  "lj c #EEA123FF",
  "l} c #EEAA26FF",
  "8a c #EEAD5EFF",
  "zd c #EEC977FF",
  "3B c #EEEFECFF",
  "1Y c #EEF0ECFF",
  ";p c #EEF0EDFF",
  "lC c #EF9A1BFF",
  "z- c #EFA92DFF",
  "0_ c #EFAA26FF",
  "lh c #EFAE3EFF",
  "lw c #EFAF40FF",
  "8K c #EFB26FFF",
  "zx c #EFC876FF",
  "}# c #EFF0EDFF",
  "k7 c #EFF1EEFF",
  "z7 c #F0B02DFF",
  "8- c #F0B875FF",
  "l' c #F0C23FFF",
  "o$ c #F0F1EEFF",
  ";z c #F0F2EFFF",
  "l[ c #F1A422FF",
  "l| c #F1B42EFF",
  "lq c #F1B654FF",
  "7W c #F1BB61FF",
  "7D c #F1BC62FF",
  "le c #F1BE58FF",
  "ld c #F1C155FF",
  "|j c #F1F2EFFF",
  "lY c #F29718FF",
  "lB c #F29F21FF",
  "0r c #F2B930FF",
  "7a c #F2BD6AFF",
  "z6 c #F2BE38FF",
  "7Z c #F2BE82FF",
  "l> c #F2BF66FF",
  "7i c #F2C082FF",
  "z; c #F3B938FF",
  "lr c #F3BC4BFF",
  "7n c #F3BD6AFF",
  "7: c #F3C580FF",
  "zf c #F3D588FF",
  "#_ c #F3F3F1FF",
  "z. c #F4C23BFF",
  "z: c #F4C43FFF",
  "z% c #F4C63CFF",
  "7Q c #F4C890FF",
  "ls c #F4D271FF",
  "6m c #F4DDB7FF",
  ";~ c #F4F5F3FF",
  "lQ c #F5C646FF",
  "7m c #F5CB91FF",
  "7> c #F5CD88FF",
  "6' c #F5D2A0FF",
  "zz c #F5D589FF",
  "c` c #F5F5F4FF",
  "3] c #F5F6F4FF",
  "lF c #F6AE40FF",
  "z5 c #F6C93FFF",
  "lf c #F6CB6FFF",
  "lg c #F6CC78FF",
  "l: c #F6CE81FF",
  "7b c #F6CE88FF",
  "zX c #F6CF46FF",
  "z> c #F6D046FF",
  "7s c #F6D18CFF",
  "7; c #F6D3A4FF",
  "l+ c #F6D491FF",
  "6[ c #F6D599FF",
  "6Z c #F6E4C2FF",
  ";K c #F6F7F5FF",
  "gZ c #F7D044FF",
  "l` c #F7D151FF",
  "70 c #F7D59EFF",
  "zg c #F7E093FF",
  "}/ c #F7F8F7FF",
  "lc c #F8C564FF",
  "l~ c #F8CA52FF",
  "z4 c #F8D245FF",
  "z, c #F8D74AFF",
  "z$ c #F8D94EFF",
  "zo c #F8D94FFF",
  "z3 c #F8DA4AFF",
  "l, c #F8DA9CFF",
  "l0 c #F8DA9FFF",
  "7v c #F8DCA0FF",
  "79 c #F8DCA5FF",
  "6] c #F8DCB0FF",
  "7d c #F8DEA2FF",
  "7q c #F8DEB7FF",
  "7, c #F8DFACFF",
  "7# c #F8DFB7FF",
  "zl c #F8E196FF",
  "37 c #F8F9F8FF",
  "lK c #F9CF66FF",
  "z< c #F9DD4FFF",
  "7+ c #F9E3B6FF",
  "6{ c #F9E5B8FF",
  "7c c #F9E7B2FF",
  "zh c #F9E99DFF",
  ":D c #F9FAF9FF",
  "z2 c #FADD4EFF",
  "l) c #FADE63FF",
  "z# c #FADF55FF",
  "ly c #FADF95FF",
  "z1 c #FAE050FF",
  "zO c #FAE057FF",
  "l^ c #FAE26CFF",
  "lb c #FAE28AFF",
  "l; c #FAE2AEFF",
  "l@ c #FAE6B4FF",
  "6P c #FAE7C3FF",
  "7@ c #FAE7C4FF",
  "zk c #FAE9A0FF",
  "78 c #FAE9C1FF",
  "6I c #FAE9C2FF",
  "6L c #FAE9CDFF",
  ":5 c #FAFAFAFF",
  "3C c #FAFBFAFF",
  "lG c #FBD873FF",
  "z@ c #FBE259FF",
  "7f c #FBEAB7FF",
  "l< c #FBEABDFF",
  "7< c #FBECC5FF",
  "la c #FBEDA5FF",
  "lv c #FBEE9FFF",
  "l- c #FBEEC4FF",
  "7O c #FBEFCEFF",
  "6Q c #FBEFD4FF",
  "6M c #FBEFD8FF",
  "7x c #FBF0C3FF",
  "lp c #FBF9BEFF",
  "li c #FBFBC2FF",
  "l& c #FBFBC8FF",
  "z+ c #FCE35BFF",
  "l( c #FCEB74FF",
  "zj c #FCECA1FF",
  "l/ c #FCED76FF",
  "6U c #FCEECCFF",
  "l9 c #FCEFD0FF",
  "l# c #FCF0C9FF",
  "6W c #FCF0D2FF",
  "6! c #FCF0DBFF",
  "6} c #FCF1D3FF",
  "7g c #FCF3C8FF",
  "l= c #FCF3CAFF",
  "77 c #FCF3D4FF",
  "6E c #FCF3DAFF",
  "6C c #FCF3DFFF",
  "71 c #FCF4D7FF",
  "6Y c #FCF4D8FF",
  "lu c #FCF6C7FF",
  "l7 c #FCF6D1FF",
  "l* c #FCF7CBFF",
  "3R c #FCF7CFFF",
  "l% c #FCF9CAFF",
  "l5 c #FCFBCCFF",
  "l4 c #FCFCC8FF",
  "7K c #FCFCCAFF",
  "8X c #FCFDC7FF",
  "7P c #FCFDCCFF",
  "lJ c #FDF394FF",
  "lH c #FDF598FF",
  "l$ c #FDF5CFFF",
  "l1 c #FDF6DEFF",
  "6T c #FDF6DFFF",
  "6R c #FDF6E1FF",
  "7o c #FDF7E1FF",
  "l8 c #FDF7E4FF",
  "76 c #FDF8DFFF",
  "6| c #FDF8E3FF",
  "6N c #FDF8EBFF",
  "8B c #FDF9AFFF",
  "8N c #FDF9B0FF",
  "7h c #FDF9D3FF",
  "l6 c #FDF9D4FF",
  "72 c #FDF9E1FF",
  "8q c #FDFBBEFF",
  "7z c #FDFBD7FF",
  "l3 c #FDFBDBFF",
  "75 c #FDFBE6FF",
  "80 c #FDFCC0FF",
  "7j c #FDFCD9FF",
  "8o c #FDFDC6FF",
  "7L c #FDFDCEFF",
  "7l c #FDFDDAFF",
  "7k c #FDFDDBFF",
  "ky c #FDFDE9FF",
  "6V c #FEF9F0FF",
  "l2 c #FEFBE8FF",
  "7. c #FEFBEDFF",
  "6B c #FEFBF5FF",
  "73 c #FEFCE7FF",
  "7X c #FEFCF1FF",
  "74 c #FEFDEAFF",
  "6x c #FFCC9905",
  "6i c #FFFFAA03",
  "69 c #FFFFBF04",
  "60 c #FFFFBF08",
  "6t c #FFFFC80E",
  "6y c #FFFFCC0A",
  "6u c #FFFFD506",
  "6q c #FFFFD50C",
  "3N c #FFFFFF01",
  ":C c #FFFFFF02",
  "   c none",
  
  // Image data
  "                  3N:C69606q6w6e6r6t6y6u6i3N                    ",
  "                3N:C6p6a6s6d6f6g6h6j6k6l6z6x3N                  ",
  "                6c6v6b6n6m6M6N6B6V6C6Z6A6S6D6F3N                ",
  "            6G6H6J6K6L6P6I6U6Y6T6R6E6W6Q6!6~6^6/6(              ",
  "          6)6_6`6'6]6[6{6}6|7.7X7X7.7o7O7+7@7#7$7%7&            ",
  "        7*7=7-7;7:7>7,7<71727374ky7576777879707q7w7e7r          ",
  "      7t7y7u7i7p7a7s7d7f7g7h7j7k7l7z3R7x7c7v7b7n7m7M7N7B        ",
  "      7V7C7Z7A7S7Dl+l@l#l$l%7K7L7Pl&l*l=l-l;l:7W7S7Q7!7~        ",
  "    7^7/7(7)7_7`l>l,l<l1l2l3l48X8ol5l6l7l8l9l0lq8*8=8-8;8:      ",
  "    8>8,8<818283lwlelrltlyluli808qlplalsldlflglh838p8a8s8d+n    ",
  "  8f8g8h8j8k8l8zljlklllzlxlclv8N8BlblnlmlMlNlBlV8G8H8J8K8L8P    ",
  "  8I8U8Y8T8k8R8ElClZlAlSlDlFlGlHlJlKlLlPlIlUlYlT8{8l8}8|9.9X    ",
  "  9o9O9+9@9#9$9%lRlElWlQl!l~l^l/l(l)l_l`l'l]l[l{8{8R8k959697    ",
  "  9899909q9w9e9rlRl}l|z.zXzozOz+z@z#z$gZz%0r0_9z9x9c9v9b9n9m    ",
  "  9M9N9B9V9Cz&z*z=z-z;z:z>z,z<z1z1z2z3z4z5z6z7z8z9z0zqzw9~9^9/  ",
  "9(9)9_zezrztzyzuzizpzazszdzfzgzhzjzkzlzzzxzczvzbznzmzMzN010203  ",
  "  0405zBzVzCzZzAzSzDzFzGzHzJzKzLzPzIzUzYzTzRzEzWzQz!z~z^0j0k0l  ",
  "  0z0xz/z(z)z_z`z'z]z[z{_9}}:z2iz}`Mz|yJ:Nx.xXxoxOx+x@x#0I0U    ",
  "  0Y0Tx$x%x&x*x=x-x;x:x>#bxn;rx,3]3Bx`x<%M{Vx1x2x3x4x5x6q+q@    ",
  "  q#q$q%x7x8x9x;x-x;x:x0K/#71YyZ37o$r6cZxqxwxeY^xrxtxyqqqwqe    ",
  "  qrqtqyxuxixpxaxsxdxfxgxh#7;p>d:5;z;Ae#xjxwxexsxrxkxlqmqMqN    ",
  "    qBqVxzxxxcxvxsxdxbQdxhw3}##_3C|j;AxmxMxNxexBxVxCxZqWqQ      ",
  "    q!q~q^xAxSxDxBxdxFxGK/#7;pc`:D;z;Ae#W_xwxexHxJxKw$w%w&      ",
  "      w*w=xLxPxIxUxYx:xTK/R`3B;K}/k7xRcZW_xExWxQx!wwwewr        ",
  "      wtwyx~x^x/x(x)x_.M#b><;};~3]1Yw3x'x]x[x{x}wvwbwnwm+n+n    ",
  "    +n*_wMwNx|c.cXcocOc+c@c#c$c%c&c*c=c-c;c:c>c,wLwPwI$a*`+n    ",
  "  +n*_$p=#wUwYwTwRc<c1c2c3c4k=c5c6c7c8c9c0cqw(w)w_w`6O&Z1c*_+n  ",
  "  +n*_1c+rEew'w]w[w{w}cwcecrctcycucicpcae%e&e*e=e-=d+g=$+>*`+n  ",
  "  +n*_,D$s=w=d&We;e:e>e,e<e1e2e3e4e5e6e7e8e9e0eq!Oa(=@+r,D*_+n  ",
  "    +n*`$a&Z=@=l*5eweeereteyeueiepeaesedef&~kA=feg=@+r$a*`+n    ",
  "    +n+n*`$p,q@o*'&R*/=0eh&EejekDykA&+!O[G,W=s=@@o=2,D*_+n+n    ",
  "        +n*T*`*R$a=2&Z[~=@Ee:W+J+J:W*'6O+k&Z=#$a*R*`*T+n        "
};
