/* XPM */
const char *xpm_tango_emotes_face_angel[] = {
  // Header (width height colors chars-per-pixel)
  "32 32 409 2",
  
  // Colors (code mode value)
  "+n c #00000001",
  "*T c #00000002",
  "*_ c #00000003",
  "*` c #00000004",
  "=1 c #00000005",
  "*R c #00000006",
  "$p c #00000007",
  ",D c #00000008",
  "$a c #0000000A",
  "+> c #0000000B",
  "=2 c #0000000D",
  "=# c #0000000E",
  ":l c #0000000F",
  "$s c #00000010",
  "&Z c #00000011",
  "+r c #00000012",
  "$w c #00000013",
  "@o c #00000014",
  "[~ c #00000017",
  ":5 c #00000018",
  "$^ c #00000019",
  "$z c #0000001A",
  "6O c #0000001B",
  "=@ c #0000001D",
  "9b c #0000001E",
  "*' c #00000020",
  "+g c #00000021",
  "Ee c #00000022",
  "=e c #00000023",
  "1l c #00000024",
  ":W c #00000025",
  "@$ c #00000026",
  "+J c #00000027",
  "9) c #0000002C",
  "&R c #0000002F",
  "6: c #00000030",
  "T2 c #00000032",
  "=d c #00000037",
  "tD c #00000038",
  ",W c #00000039",
  ",E c #0000003B",
  "*/ c #0000003C",
  "68 c #0000003E",
  "=r c #00000040",
  "=q c #00000041",
  "4j c #090907FF",
  "67 c #0D0A004D",
  "6; c #0F070046",
  "6> c #0F0B0046",
  ":T c #0F0F0DFF",
  "4s c #10100EFF",
  "6+ c #1109003C",
  "4k c #191912FF",
  "&% c #454544FF",
  "5n c #4A4A49FF",
  "5k c #4E4D47FF",
  "5w c #535144FF",
  "6o c #54390A4C",
  "5b c #565550FF",
  ">' c #595959FF",
  "5D c #5A5A58FF",
  ":d c #5A5A5AFF",
  "5] c #5E400B44",
  "5l c #676558FF",
  "4h c #6D6B57FF",
  "4q c #6E6B4AFF",
  "5F c #6F6E64FF",
  "5v c #73715EFF",
  "5p c #777358FF",
  "5S c #797767FF",
  "66 c #7A520C7F",
  "5i c #7A7654FF",
  "42 c #7B796AFF",
  "45 c #7C7B76FF",
  "5z c #7D7A62FF",
  "6, c #80560D7A",
  "5c c #817E64FF",
  "48 c #86836CFF",
  "4d c #86857AFF",
  "5x c #888467FF",
  "56 c #8C865AFF",
  "51 c #908B63FF",
  "47 c #93917DFF",
  "5' c #94640E4A",
  "4a c #95937EFF",
  "5q c #979370FF",
  "5G c #999576FF",
  "5< c #9A956EFF",
  "5m c #9A956FFF",
  "6- c #9C6A1193",
  "6@ c #A36E128D",
  "5( c #A46E0F43",
  "4l c #ABA571FF",
  "55 c #ACA461FF",
  "46 c #ACAAA0FF",
  "5A c #ADA881FF",
  "5e c #AEA874FF",
  "5/ c #BB80111E",
  "65 c #BC8316BD",
  "6< c #BE8416BB",
  "5j c #BEB787FF",
  "40 c #BFB98AFF",
  "2! c #C0B3006E",
  "5# c #C0B97EFF",
  "2b c #C2B400A4",
  "2Z c #C2B400DB",
  "3o c #C2B50571",
  "2K c #C2B80019",
  "2n c #C3B400D9",
  "2m c #C3B400FE",
  "2M c #C3B400FF",
  "3g c #C3B401FF",
  "5* c #C3B866FF",
  "2v c #C4B40052",
  "2L c #C4B500EB",
  "3O c #C4B50798",
  "2) c #C4B603FB",
  "3X c #C4B604FB",
  "43 c #C4C2B2FF",
  "2C c #C5B20035",
  "3t c #C5B600EC",
  "2A c #C5B600FF",
  "3r c #C5B601EC",
  "36 c #C5B707FF",
  "34 c #C5B70A9B",
  "3e c #C5B80973",
  "2N c #C6B800FF",
  "35 c #C6B90974",
  "44 c #C6C5BBFF",
  "3i c #C7B104FC",
  "3u c #C7B204FC",
  "2( c #C7B900FF",
  "49 c #C9C399FF",
  "3# c #CABA10E6",
  "33 c #CABB10E8",
  "2B c #CABC01FF",
  "3h c #CBBC17FF",
  "3f c #CBBE1DFF",
  "3@ c #CBBF01FF",
  "5u c #CBC274FF",
  "2_ c #CCBD18F1",
  "3. c #CCBE19F1",
  "2V c #CCBF01FF",
  "5= c #CCC16AFF",
  "41 c #CDC9A7FF",
  "3y c #CFAA074B",
  "2Q c #CFC301FF",
  "37 c #D0C32CFF",
  "2` c #D1C227F6",
  "2W c #D1C501FF",
  "5@ c #D1C987FF",
  "2| c #D2C328F6",
  "2S c #D4CA02FF",
  "38 c #D4CA3DFF",
  "qX c #D5AA0006",
  "2' c #D6C533FB",
  "2} c #D6C535FC",
  "3j c #D6C832FF",
  "3d c #D6CB42FF",
  "64 c #D7961CE6",
  "61 c #D8961CE5",
  "2E c #D8CE02FF",
  "39 c #D8CE4BFF",
  "2] c #DACA3FFD",
  "4| c #DACF6CFF",
  "6X c #DB971AE1",
  "2{ c #DBCA41FD",
  "2[ c #DBCB47FF",
  "2/ c #DBD202FF",
  "5[ c #DC971AE0",
  "30 c #DCD25BFF",
  "3w c #DCD25CFF",
  "5H c #DDD486FF",
  "2R c #DDD503FF",
  "4w c #DED58BFF",
  "3q c #DED665FF",
  "63 c #DF991AF5",
  "4` c #DFD691FF",
  "3Z c #DFD76FFF",
  "2P c #DFD803FF",
  "5E c #E0991419",
  "6# c #E09A1AF4",
  "3$ c #E1D247D7",
  "5` c #E29C1CF1",
  "3A c #E2D972FF",
  "2D c #E2DA03FF",
  "2~ c #E2DB03FF",
  "5) c #E39C1CF0",
  "32 c #E3D34BDB",
  "3C c #E3DA7CFF",
  "58 c #E4981743",
  "62 c #E49A18FC",
  "5B c #E49C1B55",
  "6= c #E4AD3BF7",
  "3[ c #E59B1645",
  "4I c #E59B17FC",
  "3x c #E59C1A58",
  "5^ c #E59D1BEB",
  "4P c #E59E1AF1",
  "3] c #E59E1CE7",
  "4n c #E59E1CF1",
  "4y c #E59F1C9C",
  "3z c #E59F1CD0",
  "5d c #E59F1CE5",
  "4> c #E59F1D9C",
  "3I c #E59F1EE7",
  "3p c #E59F20D0",
  "5K c #E5A01CCF",
  "4b c #E5A01DDB",
  "4u c #E5A01EDB",
  "6$ c #E5AE3BF6",
  "3S c #E5DD79FF",
  "5X c #E69D1BF0",
  "4( c #E69D1CF0",
  "5W c #E69E1BEA",
  "5: c #E6A01C9B",
  "5o c #E6A01DDA",
  "3V c #E6E08CFF",
  "6. c #E7B240F8",
  "5{ c #E8B340F7",
  "3k c #E8DD6EFF",
  "3D c #E8DF7DFF",
  "3s c #E9E186FF",
  "2T c #E9E304FF",
  "4: c #EAB33EF0",
  "5s c #EAB43DF0",
  "59 c #EAB43EF0",
  "3B c #EAE399FF",
  "3{ c #EBB545F0",
  "5V c #ECB741F1",
  "3L c #ECB943F1",
  "3c c #EDBA50F1",
  "3F c #EDE387FF",
  "5r c #EDE497FF",
  "2F c #EEE904FF",
  "5T c #EFE58EFF",
  "3N c #EFE8AAFF",
  "5Z c #F0E793FF",
  "6% c #F1D16CFE",
  "5_ c #F1D16EFD",
  "3l c #F1D371FC",
  "57 c #F2D26DFE",
  "5L c #F2D36EFC",
  "5> c #F2D372FE",
  "3+ c #F2EF05FF",
  "4t c #F3D36FFE",
  "4, c #F3D582FE",
  "3a c #F3D789FC",
  "4_ c #F4EA95FF",
  "3% c #F5DD76F9",
  "31 c #F5DD7CFA",
  "5Q c #F5DE82FF",
  "5. c #F5E66CFF",
  "v] c #F5E775FF",
  "3G c #F5ED9CFF",
  "4$ c #F5F1D2FF",
  "2Y c #F5F205FF",
  "6& c #F6E38CFF",
  "4v c #F6E48DFF",
  "5} c #F6E48EFF",
  "5- c #F6E76AFF",
  "4/ c #F6E76BFF",
  "^3 c #F6E76CFF",
  "5I c #F6E76DFF",
  "5~ c #F6E86EFF",
  "5J c #F6E86FFF",
  "4K c #F6E870FF",
  "5U c #F6E871FF",
  "5C c #F6E873FF",
  "4J c #F6E874FF",
  "4x c #F6E977FF",
  "4e c #F6E978FF",
  "4- c #F6E979FF",
  "5O c #F7E497FF",
  "5N c #F7E68EFF",
  "5f c #F7E68FFF",
  "3' c #F7E690FF",
  "4i c #F7E7A2FF",
  "5; c #F7E977FF",
  "4c c #F7E978FF",
  "5M c #F7E979FF",
  "4^ c #F7E97CFF",
  "50 c #F7EA7EFF",
  "4H c #F7EA80FF",
  "4} c #F7EA81FF",
  "5g c #F7EA82FF",
  "5R c #F7EB81FF",
  "4z c #F7EB82FF",
  "3_ c #F7EB84FF",
  "3J c #F7EB85FF",
  "54 c #F7EB86FF",
  "3` c #F7EB87FF",
  "5y c #F7EB8CFF",
  "5h c #F7EC8BFF",
  "5Y c #F7EC8DFF",
  "52 c #F7EEA1FF",
  "2^ c #F7F605FF",
  "6* c #F8EA99FF",
  "4r c #F8EB88FF",
  "4L c #F8EB9BFF",
  "^( c #F8EC86FF",
  "5| c #F8EC87FF",
  "4G c #F8EC8BFF",
  "3H c #F8EC8EFF",
  "5+ c #F8ED8FFF",
  "3) c #F8ED90FF",
  "4= c #F8ED91FF",
  "4U c #F8ED94FF",
  "5P c #F8EE93FF",
  "4{ c #F8EE95FF",
  "4F c #F8EE96FF",
  "7h c #F8EE97FF",
  "77 c #F8EE9AFF",
  "8r c #F8EE9CFF",
  "4M c #F8EF9CFF",
  "3M c #F8F4C8FF",
  "4# c #F8F6EAFF",
  "3& c #F9E99DFB",
  "3U c #F9EBAEFF",
  "4) c #F9EDA8FF",
  "5! c #F9EE95FF",
  "5, c #F9EE96FF",
  "4m c #F9EEAEFF",
  "5a c #F9EF99FF",
  "4; c #F9EF9BFF",
  "7g c #F9EF9CFF",
  "5t c #F9EF9DFF",
  "4Y c #F9EF9EFF",
  "4[ c #F9EF9FFF",
  "8% c #F9EFA1FF",
  "8e c #F9EFA3FF",
  "53 c #F9F0A2FF",
  "4N c #F9F0A3FF",
  "3K c #F9F0A4FF",
  "4~ c #F9F0A6FF",
  "3( c #F9F1A8FF",
  "8w c #F9F1A9FF",
  "7i c #F9F1AAFF",
  "3| c #F9F1ABFF",
  "4S c #F9F2B6FF",
  "4g c #F9F4CFFF",
  "2G c #F9F705FF",
  "3< c #FAECA5FB",
  "4p c #FAF0A5FF",
  "4D c #FAF1ACFF",
  "5$ c #FAF1AEFF",
  "7m c #FAF2AEFF",
  "7n c #FAF2B0FF",
  "5& c #FAF2B1FF",
  "4T c #FAF2B2FF",
  "3Y c #FAF2B3FF",
  "8p c #FAF2B4FF",
  "3b c #FAF2B5FF",
  "5% c #FAF3B4FF",
  "4* c #FAF3B5FF",
  "4< c #FAF3B6FF",
  "8o c #FAF3B7FF",
  "88 c #FAF3B8FF",
  "4B c #FAF3B9FF",
  "4R c #FAF4BBFF",
  "4C c #FAF6D7FF",
  "4] c #FBF4BCFF",
  "3} c #FBF4BDFF",
  "4' c #FBF4BEFF",
  "3n c #FBF4BFFF",
  "7T c #FBF4C0FF",
  "4& c #FBF5C0FF",
  "4A c #FBF5C1FF",
  "3* c #FBF5C2FF",
  "3T c #FBF5C3FF",
  "4. c #FBF5C4FF",
  "3v c #FBF6C5FF",
  "4! c #FBF6C7FF",
  "4E c #FBF6C9FF",
  "3m c #FBF6CAFF",
  "87 c #FBF6CBFF",
  "4% c #FBF6CCFF",
  "4W c #FBF6CDFF",
  "4X c #FBF6CFFF",
  "2I c #FBF906FF",
  "3, c #FCF5C5FF",
  "4Q c #FCF7CEFF",
  "3R c #FCF7CFFF",
  "4Z c #FCF7D2FF",
  "4V c #FCF8D4FF",
  "3/ c #FCF8D7FF",
  "3E c #FCF9DAFF",
  "4f c #FCF9DBFF",
  "4o c #FCF9DCFF",
  "3= c #FDFADCFF",
  "3^ c #FDFAE2FF",
  "7b c #FDFAE4FF",
  "3W c #FDFAE5FF",
  "4O c #FDFBE9FF",
  "3~ c #FDFCECFF",
  "3> c #FEFBDEFF",
  "3Q c #FEFCEFFF",
  "3- c #FEFDE9FF",
  "3: c #FEFDECFF",
  "3! c #FEFDF2FF",
  "4+ c #FEFDF5FF",
  "2U c #FEFE06FF",
  "3; c #FEFEF2FF",
  "4@ c #FEFEFCFF",
  "3P c #FF800004",
  "2H c #FFFE06FF",
  "v4 c #FFFF0001",
  "2J c #FFFF06FF",
  "   c none",
  
  // Image data
  "              qX2v2b2n2m2M2M2N2B2V2B2N2M2M2m2n2b2vqX            ",
  "            2C2Z2A2S2D2F2G2H2J2J2J2J2J2H2G2F2D2S2A2Z2C          ",
  "          2K2L2P2I2U2Y2T2R2E2S2W2Q2W2S2E2R2T2Y2U2I2P2L2K        ",
  "          2!2~2^2/2(2M2)2_2`2'2]2[2{2}2|3.3X2M2(2/2^2~3o        ",
  "          3O3+3@2M3#3$3%3&3*3=3-3;3:3>3,3<3132332M3@3+34        ",
  "          352~2^2/2(2M36373839303q3w393837362M2(2/2^2~3e        ",
  "          2K3r2P2I2U2Y2T2R2E2S2W2Q2W2S2E2R2T2Y2U2I2P3t2K        ",
  "            3y3u2A2S2D2F2G2H2J2J2J2J2J2H2G2F2D2S2A3i3y          ",
  "          v43p3a3s3d3f3g2M2M2N2B2V2B2N2M2M3g3h3j3k3l3zv4        ",
  "          3x3c3v3b3n3m3M3N3B3V3C3Z3A3S3D3F3G773H3J3K3L3x        ",
  "        3P3I3U3Y8o3T3R3E3W3Q3!3~3^3/873n8p3(7g3)3_3`3'3]3P      ",
  "        3[3{3}3|8o4.4X4o4O4+4@4#7b4$4%4&4*8w8r4=3J4-4;4:3[      ",
  "        4>4,7n7i4<3*4142434445463^474849404q4w3)3_4e4r4t4y      ",
  "        4u4i4p3(3Y3n3m4a4s:T4d3^4f4g4h4j4k4l773H4z4x4c4v4b      ",
  "        4n4m4M4N7m4B3T4%4V4C3E3/4Z3m4A4S4D8%4F4G4H4J4K4L4P      ",
  "        4I3b4U4Y3(4T4R3T4E4W4Q4%4!4A4B7n4~7g4=3`4^4K4/3K4I      ",
  "        4(4)4=4_4`7i4T884'4A3*7T4]8o7n3(4[4{4G4}4|5.4K4L5X      ",
  "        5o5O3)5+5@5#3(5$4T4*4<5%5&4D4~4[7h3H3J5*5=5-5;4v5o      ",
  "        5:5>5,3`3)5<51524~8w8w3(4~537g4F3H545556^35-^(575:      ",
  "        58598%50543)5q5w5e5r5t7g774F4=5y5u5i5pv]5-5-5a5s58      ",
  "        3P5d5f5g4^5g5h5j5k&%5l5z5x5c5v5b5n5mv]5-5-5M5N5d3P      ",
  "          5B5V7g5C4x4^4H5Z5A5S5D>':d5F5G5H5J5-5-^37g5V5B        ",
  "          v45K5L5P5I5U4J4x4-3_5Y5T5y5R4K5-5-5-4/5P5L5Kv4        ",
  "            5E5W5Q5!5~5-4/^35I^34/5-5-5-5-5-5~5!5Q5^5/          ",
  "          =1:l5(5)5_5t505-5-5-5-5-5-5-5-5-505t5_5`5'[~=#=1      ",
  "        *`:l$^=e5]5[5{5}4;5|5;4K^34K5;5|4;5}6.6X6o9)Ee:5=#*T    ",
  "        *R$s6O:W&R6+6@6#6$6%6&6*8e6*6&6%6=6#6-6;,W&R1l$z$s*T    ",
  "          $a@o=@+J6:,W6>6,6<616#626364656667=q,W6:@$=@+r*`      ",
  "            *_=2[~9b@$9)T2tD*/68=r=r68,E=dT29):W9b$w$p+n        ",
  "                  *_,D=#@o$z9b*'+g+g*'=@[~&Z+>=1+n              ",
  "                                                                ",
  "                                                                "
};
