/* XPM */
const char *xpm_tango_emotes_face_monkey[] = {
  // Header (width height colors chars-per-pixel)
  "32 32 503 2",
  
  // Colors (code mode value)
  "+n c #00000001",
  "*T c #00000002",
  "*_ c #00000003",
  "*` c #00000004",
  "=1 c #00000005",
  "*R c #00000006",
  "$p c #00000007",
  ",D c #00000008",
  "1c c #00000009",
  "+> c #0000000B",
  "=2 c #0000000D",
  ":l c #0000000F",
  "$s c #00000010",
  "&Z c #00000011",
  "+r c #00000012",
  "$w c #00000013",
  "=$ c #00000015",
  "[~ c #00000017",
  ":5 c #00000018",
  "$^ c #00000019",
  "$z c #0000001A",
  "6O c #0000001B",
  "=w c #0000001C",
  "9b c #0000001E",
  "=k c #0000001F",
  "*' c #00000020",
  "+g c #00000021",
  "=e c #00000023",
  "1l c #00000024",
  ":W c #00000025",
  "@$ c #00000026",
  "+J c #00000027",
  "er c #00000028",
  "tS c #00000029",
  "=s c #0000002B",
  "eg c #0000002C",
  "a( c #0000002D",
  "=% c #0000002E",
  "&R c #0000002F",
  "6: c #00000030",
  "T2 c #00000032",
  "=d c #00000037",
  ",W c #00000039",
  "%J c #000000FF",
  "Cr c #0D0A034D",
  "NB c #0D0A06FF",
  "NV c #0D0A07FF",
  "C5 c #0F0B0445",
  "C4 c #170E0359",
  "C& c #1A100350",
  "Ce c #2A1A0887",
  "C6 c #2B1B0882",
  "Nt c #2D2115FF",
  "Ny c #2D2116FF",
  "Np c #2D2216FF",
  "C% c #32210793",
  "V{ c #3422078D",
  "C3 c #382508C3",
  "C* c #392508BF",
  "Cw c #392508C2",
  "BM c #392B0E12",
  "M2 c #3B27140D",
  "V[ c #3C2709AB",
  "C7 c #3C2809E4",
  "Cq c #3C2809E5",
  "VT c #3D2709A8",
  "mi c #3D270B2E",
  "C9 c #3D280AFC",
  "N} c #3D280AFF",
  "mr c #3D2A0B79",
  "me c #3D2B0C2A",
  "C8 c #3E2809F6",
  "C0 c #3E2809F7",
  "mW c #3E280B2D",
  "VO c #3E2909F7",
  "C= c #3E290AF9",
  "mu c #3E290AFA",
  "BB c #3E290AFB",
  "NE c #3E290BFF",
  "Vx c #3E2C091D",
  "MK c #3F260A49",
  "VA c #3F270975",
  "VY c #3F270976",
  "M4 c #3F2909F6",
  "M5 c #3F290AF9",
  "B^ c #3F2A0AEE",
  "mx c #40290A6B",
  "Ve c #402A0993",
  "V> c #402A09E2",
  "BV c #402A0AFE",
  "h< c #40400004",
  "Bo c #412A0A4F",
  "M3 c #412A0A9D",
  "Vc c #412A0AEE",
  "mp c #412B09C3",
  "my c #412B0AEA",
  "M6 c #412B0BC0",
  "V} c #412B0BF7",
  "BN c #422A0BA9",
  "mD c #422B0978",
  "MX c #432A0AD6",
  "mz c #432B09C3",
  "mt c #432C09CD",
  "B0 c #432C0BCD",
  "Mg c #442C0AC4",
  "N5 c #442C0BE9",
  "Nk c #442C0BEA",
  "mS c #463011F5",
  "M} c #472E0BC2",
  "NP c #472F0CC5",
  "M. c #472F0CF0",
  "mc c #483213F5",
  "Bb c #492E0BFF",
  "mQ c #49300EF0",
  "Be c #4A2F0DFF",
  "VR c #4A310FF5",
  "Mf c #4B300CF1",
  "VS c #4C310DF3",
  "ml c #4C3415F4",
  "M7 c #4D3310F1",
  "ma c #4D3516F5",
  "Ml c #4E320CFD",
  "MG c #4F330CFD",
  "mE c #4F3514F4",
  "C- c #513612F6",
  "C2 c #513612F7",
  "M' c #523611FF",
  "B6 c #523714FF",
  "mF c #523918F4",
  "ML c #56370CF0",
  "NG c #583C16FF",
  "BO c #59390DF0",
  "B$ c #593D1AFF",
  "MY c #5A3B15FF",
  "MI c #5B3D13FF",
  "Mh c #5C3C0CF7",
  "V| c #5D3F14FB",
  "Nv c #5D421DFF",
  "Bn c #5E3E10FF",
  "C$ c #5F4015FB",
  "Vr c #603E12FA",
  "Vz c #603F11FA",
  "N. c #604115FF",
  "M[ c #604116FF",
  "Bw c #614010FF",
  "Bq c #623E0CF8",
  "N4 c #624318FF",
  "NU c #634216FF",
  "C; c #644215FF",
  "B@ c #644316FF",
  "C1 c #654316FF",
  "B5 c #674519FF",
  "BX c #67461BFF",
  "B% c #6A4B20FF",
  "B8 c #6C491CFF",
  "MF c #6D4A1CFF",
  "Mz c #6E4D20FF",
  "MH c #6F4710FF",
  "B~ c #6F4815FF",
  "BP c #6F5638FF",
  "BC c #704B1AFF",
  "C: c #714A19FF",
  "C< c #714B19FF",
  "Nf c #714E20FF",
  "Mk c #72490FFF",
  "BL c #72583AFF",
  "Nq c #735023FF",
  "BI c #745B3CFF",
  "B9 c #754D14FF",
  "VE c #764F1BFF",
  "V, c #77511DFF",
  "Bm c #784D0FFF",
  "Vw c #78501CFF",
  "C> c #78511CFF",
  "CX c #794E14FF",
  "N1 c #795224FF",
  "NO c #795326FF",
  "C. c #7A511CFF",
  "BK c #7A6042FF",
  "B+ c #7B4F13FF",
  "VW c #7B4F14FF",
  "C# c #7B511CFF",
  "C, c #7B521CFF",
  "C@ c #7C5015FF",
  "m( c #7C5114FF",
  "C+ c #7C5115FF",
  "Vv c #7C531EFF",
  "VD c #7C541DFF",
  "mk c #7C5A2EF9",
  "ms c #7C5A2FF9",
  "m/ c #7D5115FF",
  "B( c #7D5216FF",
  "Vt c #7D5219FF",
  "VZ c #7D541EFF",
  "VU c #7D551DFF",
  "Nl c #7E500FFF",
  "MJ c #7E5010FF",
  "M{ c #7E5114FF",
  "m[ c #7E5115FF",
  "Co c #7E5116FF",
  "VF c #7E5216FF",
  "VQ c #7E5218FF",
  "Vb c #7E5317FF",
  "M` c #7E5828FF",
  "N^ c #7E6246FF",
  "N_ c #7E6348FF",
  "N/ c #7E644AFF",
  "NL c #7F500FFF",
  "VC c #7F5317FF",
  "CO c #7F5318FF",
  "Vl c #7F531AFF",
  "NQ c #7F551BFF",
  "N+ c #7F5B2CFF",
  "N6 c #805210FF",
  "M+ c #805517FF",
  "N[ c #80571EFF",
  "MT c #805B2CFF",
  "N* c #805B36FF",
  "N: c #805C37FF",
  "Nj c #815210FF",
  "MP c #815312FF",
  "M, c #815418FF",
  "V< c #815419FF",
  "Vq c #81551AFF",
  "Vo c #815620FF",
  "B/ c #815823FF",
  "Mj c #825310FF",
  "Mt c #825921FF",
  "M9 c #835416FF",
  "BZ c #83561AFF",
  "V: c #835922FF",
  "V+ c #835A25FF",
  "NI c #845310FF",
  "B! c #84571BFF",
  "M| c #85540FFF",
  "m^ c #855413FF",
  "m) c #855616FF",
  "BU c #856A4BFF",
  "m{ c #865413FF",
  "N@ c #87581CFF",
  "B& c #875C21FF",
  "N< c #88591DFF",
  "MR c #885A1DFF",
  "B4 c #895D22FF",
  "M_ c #8A5B1FFF",
  "Nd c #8A5C20FF",
  "N7 c #8A6332FF",
  "Br c #8C6129FF",
  "Bv c #8D6128FF",
  "M1 c #8D632FFF",
  "mv c #8D6B3FFD",
  "BJ c #8D7050FF",
  "M* c #8E550DFF",
  "Nb c #8E6229FF",
  "Nz c #8E6432FF",
  "Mo c #8E6735FF",
  "mA c #8E6B3DFD",
  "m_ c #8F5207FF",
  "M= c #8F550DFF",
  "M& c #8F652BFF",
  "Ng c #8F6535FF",
  "N0 c #8F6739FF",
  "MU c #906633FF",
  "NF c #91652CFF",
  "Nh c #916C3DFF",
  "m] c #925307FF",
  "Mx c #92652AFF",
  "M] c #926B3AFF",
  "mK c #945101FF",
  "mJ c #945307FF",
  "m~ c #95601EFF",
  "MO c #956225FF",
  "Bt c #956A32FF",
  "NK c #956F40FF",
  "mL c #975201FF",
  "mY c #975608FF",
  "MD c #97672EFF",
  "Bc c #976E39FF",
  "Mc c #986A30FF",
  "mP c #995301FF",
  "M< c #99682AFF",
  "m} c #9A6323FF",
  "B* c #9A723DFF",
  "B3 c #9A7544FF",
  "mI c #9B5401FF",
  "mN c #9B5605FF",
  "BY c #9B7D5CFF",
  "mU c #9C5401FF",
  "mM c #9C5B0EFF",
  "MS c #9C6F35FF",
  "NW c #9C713DFF",
  "m` c #9D5501FF",
  "N{ c #9D723DFF",
  "Vy c #9E733CFF",
  "m' c #9F5601FF",
  "mB c #9F5C0FFF",
  "Vk c #A07640FF",
  "mj c #A07848FF",
  "md c #A07949FF",
  "mm c #A1651EFF",
  "V! c #A17944FF",
  "BH c #A1815EFF",
  "VG c #A27A45FF",
  "mV c #A3661EFF",
  "V] c #A37C4AFF",
  "B7 c #A4733AFF",
  "mH c #A57134FF",
  "VI c #A57E4CFF",
  "Bz c #A6835BFF",
  "B# c #A77945FF",
  "Nn c #A87C45FF",
  "mT c #A97538FF",
  "m! c #A98150FF",
  "M8 c #AA7F4BFF",
  "m| c #AA814DFF",
  "mR c #AA8250FF",
  "mG c #AA8453FF",
  "mn c #AB7639FF",
  "ND c #AB824EFF",
  "mC c #AD783AFF",
  "Md c #AD814DFF",
  "Bu c #AE875DFF",
  "mh c #B18654FF",
  "mf c #B18755FF",
  "Bl c #B28C64FF",
  "BT c #B2916EFF",
  "NH c #B48452FF",
  "Nc c #B58856FF",
  "mb c #B58B59FF",
  "mZ c #B78C5AFF",
  "BG c #B7936EFF",
  "Bi c #B89065FF",
  "mg c #BA905EFF",
  "Vn c #BA9160FF",
  "VV c #BC9769FF",
  "M@ c #BD915BFF",
  "M> c #BE9561FF",
  "ME c #BF9059FF",
  "Nw c #C1925BFF",
  "M) c #C2945EFF",
  "Bk c #C39D75FF",
  "Bp c #C59E74FF",
  "Ns c #C69B68FF",
  "N& c #C78E52FF",
  "N> c #C78F54FF",
  "N= c #C89056FF",
  "N; c #C89156FF",
  "N# c #C99960FF",
  "N, c #CC9E68FF",
  "BR c #CCA57FFF",
  "V~ c #CDA980FF",
  "BF c #CEA57CFF",
  "M0 c #CFA16CFF",
  "V' c #CFAD86FF",
  "Ms c #D1A571FF",
  "M% c #D1A774FF",
  "M- c #D1A776FF",
  "Bj c #D3AD87FF",
  "By c #D3AE88FF",
  "Bx c #D3B290FF",
  "MV c #D4A673FF",
  "Ba c #D4AD83FF",
  "NX c #D59E60FF",
  "N| c #D5A06AFF",
  "NR c #D5A571FF",
  "BA c #D7AD81FF",
  "V1 c #D8B085FF",
  "NY c #DA9853FF",
  "V0 c #DAB790FF",
  "MB c #DBAB77FF",
  "BQ c #DBB68EFF",
  "N3 c #DDAB72FF",
  "Bh c #DEB994FF",
  "Bs c #DFB891FF",
  "B. c #E0A667FF",
  "M/ c #E19D56FF",
  "NJ c #E19D57FF",
  "M^ c #E19E57FF",
  "N9 c #E19E58FF",
  "M~ c #E19F59FF",
  "N% c #E19F5AFF",
  "Nx c #E2A05BFF",
  "M! c #E2A05CFF",
  "No c #E2A15DFF",
  "MQ c #E2A25EFF",
  "N$ c #E3A361FF",
  "Nr c #E3A362FF",
  "MZ c #E3A460FF",
  "N8 c #E3A461FF",
  "MM c #E3A462FF",
  "N- c #E3A463FF",
  "Mm c #E3A563FF",
  "Ne c #E3A666FF",
  "N! c #E3B98DFF",
  "V^ c #E3C3A0FF",
  "Mn c #E4A765FF",
  "NT c #E4A769FF",
  "N2 c #E4A867FF",
  "Mb c #E4A869FF",
  "Mr c #E4B480FF",
  "My c #E4B581FF",
  "V` c #E4C5A4FF",
  "MN c #E5A969FF",
  "MC c #E5A96BFF",
  "Na c #E5A96CFF",
  "NM c #E5AA6DFF",
  "Mi c #E5AB6CFF",
  "MW c #E5AB6EFF",
  "Nu c #E5AB6FFF",
  "Ni c #E5AB70FF",
  "Me c #E5AC6DFF",
  "M( c #E5AC6FFF",
  "NN c #E5AC71FF",
  "BD c #E5B586FF",
  "BE c #E5B88DFF",
  "Mp c #E6AE70FF",
  "NA c #E6AE75FF",
  "Mw c #E6AF72FF",
  "Mu c #E6AF73FF",
  "N~ c #E6B17AFF",
  "M# c #E6BB89FF",
  "M: c #E6BD8DFF",
  "VH c #E6C4A1FF",
  "Nm c #E7B179FF",
  "NC c #E7B27CFF",
  "NZ c #E7B37DFF",
  "N' c #E7B47FFF",
  "N] c #E7C29BFF",
  "N` c #E8B581FF",
  "B- c #E8B683FF",
  "B) c #E8C199FF",
  "VP c #E8CBABFF",
  "NS c #E9B682FF",
  "Mv c #E9B781FF",
  "MA c #E9B884FF",
  "B; c #E9B887FF",
  "Mq c #E9B984FF",
  "B_ c #E9B988FF",
  "N( c #E9B989FF",
  "M$ c #E9BF8FFF",
  "B= c #E9C299FF",
  "Bd c #E9C39DFF",
  "V@ c #E9C49DFF",
  "Bg c #E9C49FFF",
  "Ma c #EABA85FF",
  "N) c #EABA89FF",
  "BS c #EABB8BFF",
  "B: c #EABB8CFF",
  "B` c #EABC8EFF",
  "V. c #EABD90FF",
  "M; c #EAC091FF",
  "V2 c #EBBD90FF",
  "B> c #EBBE91FF",
  "B, c #EBC094FF",
  "BW c #ECC094FF",
  "Vi c #ECC095FF",
  "B< c #ECC196FF",
  "B1 c #ECC197FF",
  "V3 c #ECC299FF",
  "V# c #ECC39AFF",
  "B2 c #ECC8A5FF",
  "VX c #ECCBAAFF",
  "V; c #ECCCABFF",
  "Vh c #EDC299FF",
  "Vg c #EDC59DFF",
  "Vp c #EDC59EFF",
  "B' c #EDC69FFF",
  "VK c #EDC6A0FF",
  "VL c #EDC7A1FF",
  "V9 c #EEC59EFF",
  "VN c #EEC7A1FF",
  "V4 c #EEC7A2FF",
  "V$ c #EEC8A2FF",
  "Bf c #EEC8A3FF",
  "Va c #EEC9A5FF",
  "V/ c #EED0B3FF",
  "V_ c #EED3B6FF",
  "Vu c #EFCAA6FF",
  "B] c #EFCAA7FF",
  "VM c #EFCBA8FF",
  "V5 c #EFCCABFF",
  "Vm c #EFCDAAFF",
  "V% c #EFCDABFF",
  "Vs c #F0CDACFF",
  "VJ c #F0CEACFF",
  "B[ c #F0CFAFFF",
  "V6 c #F1D1B3FF",
  "Vj c #F1D2B2FF",
  "V& c #F1D2B4FF",
  "B{ c #F1D3B6FF",
  "Vd c #F1D3B7FF",
  "VB c #F2D3B5FF",
  "Vf c #F2D5B9FF",
  "B} c #F2D6BBFF",
  "V* c #F2D6BDFF",
  "V( c #F2D7BAFF",
  "V) c #F2D7BBFF",
  "B| c #F3D7BDFF",
  "V7 c #F3DAC3FF",
  "V= c #F4DBC5FF",
  "V8 c #F4DCC6FF",
  "V- c #F5DECAFF",
  "   c none",
  
  // Image data
  "                                                                ",
  "                                                                ",
  "                                                                ",
  "                      memrmtmymumumymtmrme                      ",
  "                  mimpmamsmdmfmgmgmhmjmkmlmzmi                  ",
  "                mxmcmvmbmnmmmMmNmNmBmVmCmZmAmSmx                ",
  "              mDmFmGmHmJmKmLmPmImUmImPmLmYmTmRmEmD              ",
  "            mWmQm!m~m^m/m(m)m_m`m'm]m)m(m[m{m}m|M.mW            ",
  "            MXMoMOM+M@M#M$M%M&M*M=M&M-M;M:M>M,M<M1MX            ",
  "  M2M3M4M5M6M7M8M9M0MqMwMeMwMrMtMtMyMuMiMpMaMsM9MdMfM6M5M4M3M2  ",
  "  MgMhMjMkMlMzMxMcMvMbMnMmMMMNMBMVMCMZMMMmMnMAMSMDMFMGMHMJMhMg  ",
  "MKMLMPMIMUMYMTMRMEMWMQM!M~M^M/M!M!M/M/M^M~M!M(M)M_M`M'M]M[M{MLMK",
  "M}M|N.NXNoNON+N@N#N$M/N%N&N*N=MMN-N;N:N>NoN%MMN,N<M`N1N2N3N4M|M}",
  "N5N6N7N8N9N0NqMRNwNeNrNeNt%JNyNuNiNp%JNtMbNeNaNsNdNfNgMQMwNhNjN5",
  "NkNlNzNxMMNcNvNbNnNmNMNNNB%JNVNCNZNV%JNVNANNNSNDNFNGNHNJMiNKNLNk",
  "NPNINUNYNTNRNENWNQN!N~NZN^NVN/N(N)N/NVN_N`N'N]N[N{N}N|M~B.BXNINP",
  "BoBOB+B@B#B$B%B&B*B=B-B;B:B>B,B<B1B<B,B>B:N(B2B3B4B5B6B7B8B9BOBo",
  "  B0BqNlBwBeBrBtByBuBiBpBaBsBdBfBfBgBhBjBkBlBzBxBcBvBbBnBmBqB0  ",
  "  BMBNBBBVBCBZBABSBDBFBGBHBJBKBLBPBIBUBYBTBRBEBWBQB!B~BVBBBNBM  ",
  "      h<B^B/B(B)B_B`B1B'B]B[B{B}B|B}B{B[B]B'B1V.VXB(VoB^h<      ",
  "        VOV+m/V@BSB>V#V$V%V&V*V=V-V=V*V&V%V$V#BWV;m/V:VO        ",
  "        V>V,V<V1B,V2V3V4V5V6B}V7V8V7B}V6V5V4V3V9V0VqVwV>        ",
  "        VeVrVtVyVuB>ViVpVaVsV6VdVfVdV6VsVaVgVhVjVkVlVzVe        ",
  "        VxVcVvVbVnVmVhB1VgBfVMV%VsV%VMBfVgVNVBVVVCVZVcVx        ",
  "          VAVSVDVFVGVHVJBfVKVpB'B'VLBfVMVjVPVIVFVUVSVY          ",
  "        =1=2VTVRVEVWVQV!V~V^V/V(V)V_V`V'V]VQVWVEVRV[[~:l,D      ",
  "      ,D$s$^+gV{V}V|C.CXCoCOC+C@C@C+COB(CXC#C$V}C%eg1l=w$w+>+n  ",
  "      1c+r6O=eegC&C*C=C-C;C:C>C,C,C>C<C1C2muC3C4=d=%@$9b=$+>    ",
  "      +n,D+r$z+gtS6:C5C6C*C7C8C9C9C0CqCwCeCr,WT2=s1l=w$w$p      ",
  "            *_1c&Z$^=k=e+J=sa(=%&R&R=%eger:W*':5$s,D*T          ",
  "                      +n*_*`=1*R$p*R*R*`*_+n                    ",
  "                                                                "
};
