/* XPM */
const char *xpm_tango_emotes_face_sad[] = {
  // Header (width height colors chars-per-pixel)
  "32 32 674 2",
  
  // Colors (code mode value)
  "+n c #00000001",
  "*T c #00000002",
  "*_ c #00000003",
  "*` c #00000004",
  "*R c #00000006",
  "$p c #00000007",
  ",D c #00000008",
  "1c c #00000009",
  "$a c #0000000A",
  "+> c #0000000B",
  ",q c #0000000C",
  "=2 c #0000000D",
  "=# c #0000000E",
  "$s c #00000010",
  "&Z c #00000011",
  "+r c #00000012",
  "@o c #00000014",
  "=$ c #00000015",
  "+k c #00000016",
  "[~ c #00000017",
  "6O c #0000001B",
  "=w c #0000001C",
  "=@ c #0000001D",
  "*' c #00000020",
  "+g c #00000021",
  "Ee c #00000022",
  ":W c #00000025",
  "+J c #00000027",
  "=s c #0000002B",
  "eg c #0000002C",
  "a( c #0000002D",
  "&R c #0000002F",
  "=l c #00000035",
  "=d c #00000037",
  ",W c #00000039",
  "*/ c #0000003C",
  "[G c #00000044",
  "=f c #00000046",
  "=0 c #00000048",
  "!O c #00000051",
  "*5 c #00000052",
  "eh c #00000056",
  "&+ c #0000005B",
  "&E c #0000005E",
  "kA c #00000062",
  "ej c #00000064",
  "Dy c #00000067",
  "&W c #0000006B",
  "ew c #0000006F",
  "&~ c #0000007A",
  "eq c #0000007D",
  "%J c #000000FF",
  "ek c #0202006A",
  "Fl c #020202FF",
  "Af c #030301FF",
  "Ar c #080704FF",
  "e- c #09070570",
  "w' c #0A060350",
  "ee c #0B09048C",
  "Aj c #0C0B06FF",
  "ef c #0E090594",
  "Ay c #14120BFF",
  "e; c #1510089E",
  "e0 c #171109A7",
  "Am c #181309FF",
  "Ac c #1B1405FF",
  "w` c #24190E47",
  "Av c #27200DFF",
  "er c #2B2010BA",
  "ed c #2C2010BE",
  "wU c #30251030",
  "A2 c #35301DFF",
  "An c #373016FF",
  "wI c #3B2C1434",
  "AV c #3F3A30FF",
  "e= c #412E16DC",
  "AA c #413F38FF",
  "et c #453217E2",
  "w] c #453218D2",
  "es c #463217E4",
  "e9 c #463217E7",
  "e: c #463218E2",
  "A3 c #46422AFF",
  "wm c #472B1C12",
  "Au c #4B4222FF",
  ":- c #4C4C4CFF",
  "ey c #4D3719F2",
  "ea c #4E381AF2",
  "wM c #4E391C24",
  "w_ c #4F381BE8",
  "eu c #4F391CFB",
  "ep c #503A1CFB",
  "ei c #503A1EFE",
  "wP c #513A1DF1",
  "ql c #53380BFF",
  "e> c #533B1DFC",
  "e* c #533D1DFB",
  "wn c #543C1CE3",
  "w& c #5540223C",
  "Ae c #55451EFF",
  "wr c #573E1DB6",
  "e8 c #574023FC",
  "w[ c #583F1DFC",
  "qk c #5A3C0BFF",
  "wY c #5B411FDE",
  "qz c #5C3E0CFF",
  "qQ c #5D421FD3",
  "wt c #5D46170B",
  "w% c #5E421EF4",
  "qN c #5E43212E",
  "qe c #5F462383",
  "wN c #614623EC",
  "AC c #625530FF",
  "q@ c #664923DA",
  "wy c #674923D8",
  "qM c #674923F2",
  "03 c #684C261B",
  "0U c #694A25F4",
  "q! c #694E272E",
  "e, c #6A4A21FA",
  "AZ c #6A5E31FF",
  "wT c #6B481BFA",
  "w* c #6B4D25A5",
  "0k c #6B4D26FA",
  "0l c #6D492407",
  "q~ c #6E4E25F5",
  "9/ c #71551C09",
  "qB c #725127C2",
  "9^ c #725228F9",
  "w) c #734E21FB",
  "qr c #7352291F",
  "02 c #755228F2",
  "9m c #755429F7",
  "qt c #76542BF5",
  "we c #774D1AF7",
  "w= c #77521EF6",
  "qj c #784F0EFF",
  "q# c #78562B71",
  "e7 c #785830FB",
  "97 c #7A5629DF",
  "qG c #7C4C0DFF",
  "x| c #7C5319FB",
  "0Y c #7C572BCA",
  "9X c #7C582B8E",
  "w{ c #7D521BFE",
  "8P c #7D582E37",
  "AK c #7D7A70FF",
  "AG c #7D7A71FF",
  "0z c #7E5B2DE8",
  "x~ c #7F551BFB",
  "04 c #815D2FF9",
  "qx c #825610FF",
  "qU c #825A20FF",
  "9) c #846031F7",
  "8d c #855E2DE1",
  "8: c #855F304B",
  "qY c #86540EFF",
  "wL c #86581CFD",
  "q$ c #885F29F6",
  "9M c #886231FA",
  "wb c #89591AFD",
  "9( c #8B5D2E0B",
  "qV c #8B5F21FD",
  "98 c #8B6431EB",
  "qw c #8D5F28F9",
  "7~ c #8D6330C9",
  "7B c #8E68391B",
  "e< c #8F6228FF",
  "8L c #8F6533F2",
  "9o c #8F6631D0",
  "7N c #8F6633ED",
  "e& c #90632BFE",
  "7r c #90663337",
  "8I c #9168367B",
  "8; c #92662EF3",
  "7& c #936C3634",
  "6( c #936C3B1A",
  "7e c #946B37F4",
  "qH c #966520FF",
  "8f c #96693427",
  "7% c #986E39EC",
  "8> c #996D34D2",
  "7^ c #996F373C",
  "qW c #9A6322FE",
  "8g c #9A6F38F3",
  "AL c #9A834DFF",
  "e6 c #9C7138FF",
  "6/ c #9E723CCB",
  "7/ c #9F7035F4",
  "7V c #9F7036B8",
  "6F c #9F794650",
  "AF c #9F854BFF",
  "A$ c #9F9262FF",
  "0T c #A06F2FFF",
  "6) c #A0773B2B",
  "7y c #A17338E7",
  "7t c #A1793613",
  "A% c #A1976BFF",
  "wR c #A2671CFF",
  "6_ c #A27439E7",
  "7* c #A2743A2C",
  "7= c #A2753BF2",
  "q^ c #A3691EFF",
  "qJ c #A47739FF",
  "6c c #A4783E46",
  "6H c #A5763BC1",
  "6G c #A6734014",
  "6D c #A67B41E0",
  "e1 c #A77636FF",
  "6v c #A77A3FD9",
  "6p c #A8824D35",
  "x^ c #AA6917FF",
  "ZQ c #AA6B1AFF",
  "xL c #AA6C1DFF",
  "6J c #AB7D3FF3",
  "Ad c #AB7F26FF",
  "qI c #AB7F3FFF",
  "6a c #AB834B8C",
  "6l c #AB854D95",
  "6^ c #AC8046F3",
  "w} c #AD7329FF",
  "qy c #AD7429FF",
  "e5 c #AE7D41FF",
  "qh c #AF7113FF",
  "6s c #AF854BDE",
  "6d c #AF8951F6",
  "6k c #B0894EE1",
  "6z c #B08A583D",
  "Ak c #B1954BFF",
  "0x c #B27A35FF",
  "8U c #B27A3DF8",
  "6j c #B28B54F7",
  "6f c #B28E58FC",
  "wE c #B46F1CFF",
  "qC c #B46F1EFF",
  "w( c #B47224FF",
  "q+ c #B47732FF",
  "6b c #B48A50F4",
  "6h c #B4915BFC",
  "e2 c #B5803DFF",
  "ZT c #B66305FF",
  "w| c #B67322FF",
  "ZW c #B76304FF",
  "A} c #B7670DFF",
  "ZA c #B76910FF",
  "q% c #B77323FF",
  "e% c #B8792CFF",
  "6g c #B8965EF7",
  "wW c #B96403FF",
  "e. c #B96D16FF",
  "9. c #B97C3DFC",
  "e4 c #B98441FF",
  "6S c #B9915AF4",
  "qu c #BA6505FF",
  "qK c #BA9258FF",
  "wK c #BB701CFF",
  "w$ c #BB7423FF",
  "eX c #BC6607FF",
  "e$ c #BC721BFF",
  "w/ c #BD6E14FF",
  "e3 c #BD8540FF",
  "wv c #BE701AFF",
  "eo c #BF6501FF",
  "e# c #BF6B0DFF",
  "0R c #BF7016FF",
  "7! c #BF8036FB",
  "A4 c #BFAA63FF",
  "e@ c #C06603FF",
  "ww c #C07522FF",
  "q{ c #C07817FF",
  "qc c #C07E17FF",
  "eO c #C16500FF",
  "e+ c #C16601FF",
  "q} c #C17712FF",
  "7C c #C17E33F9",
  "05 c #C1853EFF",
  "Zz c #C26500FF",
  "A| c #C26600FF",
  "wQ c #C36500FF",
  "w^ c #C36702FF",
  "A( c #C4720DFF",
  "wJ c #C56C0BFF",
  "A_ c #C5700DFF",
  "0c c #C66C0CFF",
  "9O c #C68945FF",
  "q& c #C76700FF",
  "ZS c #C86700FF",
  "q[ c #C87E1DFF",
  "qm c #C8802FFF",
  "6` c #C88F44F9",
  "6e c #C8AA792A",
  "A] c #C96800FF",
  "wO c #C97612FF",
  "ZR c #CA6700FF",
  "wc c #CA6903FF",
  "9_ c #CA8C46FF",
  "qE c #CB7920FF",
  "wq c #CC6A04FF",
  "q| c #CC8017FF",
  "w! c #CD6800FF",
  "A) c #CD6E06FF",
  "w# c #CD700FFF",
  "w6 c #CD7A0BFF",
  "0I c #CD873CFF",
  "99 c #CD8E48FF",
  "7$ c #CD984FFA",
  "06 c #CE6B05FF",
  "9N c #CF8E48FF",
  "wA c #D06900FF",
  "w5 c #D0790BFF",
  "wH c #D16A00FF",
  "qq c #D17E26FF",
  "8, c #D28B42FF",
  "ha c #D36A00FF",
  "q] c #D3851FFF",
  "qP c #D3A663FF",
  "qL c #D3AD76FF",
  "A1 c #D3B35EFF",
  "0E c #D46B00FF",
  "w4 c #D47A0BFF",
  "w7 c #D47E0EFF",
  "9` c #D56B00FF",
  "qn c #D56D04FF",
  "w3 c #D57A0AFF",
  "8s c #D5954DFF",
  "AH c #D6AF45FF",
  "w2 c #D77B0BFF",
  "96 c #D8924CFF",
  "7u c #D89C55FE",
  "wx c #D96C00FF",
  "A[ c #D96F01FF",
  "w1 c #D97B0AFF",
  "Zx c #DA6D00FF",
  "qO c #DA7816FF",
  "q' c #DA871EFF",
  "w~ c #DB6D00FF",
  "Z/ c #DBA460FE",
  "7M c #DBA55FFE",
  "6n c #DBB882FB",
  "qR c #DC6D00FF",
  "9B c #DC7006FF",
  "0j c #DC9347FF",
  "h> c #DD6D00FF",
  "wG c #DD6F00FF",
  "A' c #DD7A09FF",
  "w+ c #DD7B0AFF",
  "wj c #DD7C08FF",
  "AJ c #DDBE51FF",
  "j. c #DE6E00FF",
  "wk c #DE7C08FF",
  "w8 c #DE820DFF",
  "qT c #DE8711FF",
  "qg c #DE8C15FF",
  "w. c #DE8F24FF",
  "6w c #DEDEA617",
  "w@ c #DF6E00FF",
  "A{ c #DF7403FF",
  "wf c #DF7504FF",
  "wh c #DF7B08FF",
  "7w c #DFAC6BFE",
  "0v c #E06E00FF",
  "6A c #E0C28FFD",
  "q0 c #E16F00FF",
  "wS c #E17001FF",
  "wz c #E17101FF",
  "wF c #E17102FF",
  "07 c #E17201FF",
  "Zr c #E17202FF",
  "qb c #E17302FF",
  "0h c #E17405FF",
  "A` c #E17503FF",
  "wl c #E17A07FF",
  "wD c #E27302FF",
  "0W c #E27303FF",
  "9' c #E27403FF",
  "0< c #E27504FF",
  "0P c #E2750AFF",
  "9V c #E27705FF",
  "0b c #E37705FF",
  "0L c #E37805FF",
  "9q c #E37806FF",
  "9@ c #E37906FF",
  "9! c #E37908FF",
  "90 c #E37911FF",
  "8T c #E37A07FF",
  "08 c #E37B07FF",
  "01 c #E3984DFF",
  "0g c #E47B08FF",
  "qo c #E47C08FF",
  "w0 c #E47D08FF",
  "wg c #E47D09FF",
  "9] c #E47E09FF",
  "0, c #E47E0AFF",
  "A^ c #E47F0AFF",
  "8j c #E47F11FF",
  "w9 c #E4800AFF",
  "q9 c #E57F0AFF",
  "9C c #E5800BFF",
  "9b c #E58014FF",
  "9Q c #E5810BFF",
  "9w c #E5820CFF",
  "9v c #E5830CFF",
  "9# c #E5830DFF",
  "81 c #E5830EFF",
  "9+ c #E58525FF",
  "wo c #E59229FF",
  "Ax c #E59D22FF",
  "6K c #E5BC7EFF",
  "8k c #E6840DFF",
  "8} c #E6850DFF",
  "A/ c #E6860FFF",
  "9[ c #E6870FFF",
  "9n c #E69B52FF",
  "AM c #E6B64DFF",
  "0> c #E7880FFF",
  "8J c #E78816FF",
  "Z* c #E78910FF",
  "9Z c #E78A11FF",
  "9e c #E78C12FF",
  "95 c #E78D2BFF",
  "wX c #E7972DFF",
  "Z: c #E88C12FF",
  "9c c #E88C13FF",
  "9$ c #E88D13FF",
  "8R c #E88E13FF",
  "8l c #E88E14FF",
  "8H c #E88E15FF",
  "8p c #E88F17FF",
  "qv c #E8961AFF",
  "q2 c #E8A322FF",
  "AS c #E8A92BFF",
  "9{ c #E99015FF",
  "0: c #E99115FF",
  "Z- c #E99116FF",
  "A9 c #E9911CFF",
  "9A c #E99317FF",
  "9W c #E99417FF",
  "A: c #E99424FF",
  "8Y c #E99745FF",
  "9~ c #E99E54FF",
  "AB c #E9A529FF",
  "hs c #EA9418FF",
  "ZO c #EA9518FF",
  "9r c #EA9618FF",
  "9x c #EA9619FF",
  "9% c #EA9719FF",
  "8{ c #EA981AFF",
  "8E c #EA981BFF",
  "8z c #EA9A1FFF",
  "7) c #EA9C3EFF",
  "6~ c #EAC691FF",
  "Z= c #EB991AFF",
  "9} c #EB991BFF",
  "0; c #EB9A1BFF",
  "Z; c #EB9B1CFF",
  "Ao c #EB9B35FF",
  "As c #EB9F2AFF",
  "8| c #EBA04DFF",
  "6r c #EBD69919",
  "9E c #EC9D1DFF",
  "Z+ c #EC9E1EFF",
  "q, c #EC9F1EFF",
  "9z c #ECA01FFF",
  "0( c #ECA11FFF",
  "8< c #ECA557FF",
  "8h c #ECA661FF",
  "7( c #ECAB64FF",
  "AI c #EDA022FF",
  "hj c #EDA120FF",
  "94 c #EDA121FF",
  "hA c #EDA220FF",
  "q< c #EDA321FF",
  "q1 c #EDA422FF",
  "8= c #EDA443FF",
  "AN c #EDA526FF",
  "A0 c #EDA536FF",
  "A8 c #EDA538FF",
  "8x c #EDA627FF",
  "A; c #EDA947FF",
  "q4 c #EEA522FF",
  "0) c #EEA623FF",
  "q3 c #EEA723FF",
  "hh c #EEA824FF",
  "AD c #EEA82EFF",
  "8a c #EEAD5EFF",
  "AP c #EFA927FF",
  "0_ c #EFAA26FF",
  "0] c #EFAB26FF",
  "AQ c #EFAB27FF",
  "0V c #EFAD27FF",
  "Az c #EFB03CFF",
  "8K c #EFB26FFF",
  "0` c #F0AE28FF",
  "0' c #F0AF29FF",
  "Aq c #F0B041FF",
  "AU c #F0B138FF",
  "Aw c #F0B843FF",
  "8- c #F0B875FF",
  "Z] c #F0BA65FF",
  "AY c #F0BE52FF",
  "AE c #F0C24DFF",
  "0C c #F1B22AFF",
  "0S c #F1B22BFF",
  "A! c #F1B32CFF",
  "0e c #F1B42CFF",
  "0Z c #F1B62DFF",
  "AW c #F1B63CFF",
  "A> c #F1B85BFF",
  "0A c #F2B72EFF",
  "0r c #F2B930FF",
  "0i c #F2BA30FF",
  "0o c #F2BB30FF",
  "7Z c #F2BE82FF",
  "Aa c #F2C05FFF",
  "A- c #F2C069FF",
  "AO c #F2C16EFF",
  "Z' c #F2C285FF",
  "Ag c #F2DE80FF",
  "A~ c #F3BB32FF",
  "AT c #F3BC3AFF",
  "0t c #F3BD33FF",
  "AX c #F3BD6BFF",
  "0u c #F3BE33FF",
  "9H c #F3C239FF",
  "A7 c #F3C46CFF",
  "0y c #F4C034FF",
  "0O c #F4C137FF",
  "0% c #F4C236FF",
  "AR c #F4C53FFF",
  "A< c #F4C565FF",
  "7Q c #F4C890FF",
  "Z) c #F4CA87FF",
  "6m c #F4DDB7FF",
  "0$ c #F5C63AFF",
  "0+ c #F5C63BFF",
  "A, c #F5CA76FF",
  "7m c #F5CB91FF",
  "Z[ c #F5D28EFF",
  "6' c #F5D2A0FF",
  "0# c #F6C93CFF",
  "0@ c #F6CA3BFF",
  "9I c #F6CA3FFF",
  "9J c #F6CA41FF",
  "9i c #F6CA45FF",
  "A. c #F6CE89FF",
  "Z_ c #F6D18DFF",
  "6[ c #F6D599FF",
  "Z( c #F6D5A6FF",
  "A@ c #F6D691FF",
  "6Z c #F6E4C2FF",
  "At c #F6E695FF",
  "9= c #F7D356FF",
  "9p c #F7D450FF",
  "9g c #F7D451FF",
  "Al c #F7D47EFF",
  "A= c #F7D58AFF",
  "70 c #F7D59EFF",
  "A# c #F7D887FF",
  "A6 c #F7D88CFF",
  "Z{ c #F7DC9FFF",
  "9P c #F8D045FF",
  "9K c #F8D146FF",
  "A* c #F8DA8FFF",
  "A+ c #F8DA97FF",
  "Ab c #F8DC6DFF",
  "Z| c #F8DCA1FF",
  "79 c #F8DCA5FF",
  "6] c #F8DCB0FF",
  "Ai c #F8DD89FF",
  "9< c #F8DE61FF",
  "7q c #F8DEB7FF",
  "A& c #F8DF93FF",
  "7# c #F8DFB7FF",
  "Z} c #F8E0A5FF",
  "Z` c #F8E0ADFF",
  "9L c #F9D449FF",
  "9f c #F9DB57FF",
  "A5 c #F9DB89FF",
  "9a c #F9DC5AFF",
  "Ap c #F9DD8FFF",
  "9- c #F9DE67FF",
  "7+ c #F9E3B6FF",
  "6{ c #F9E5B8FF",
  "7c c #F9E7B2FF",
  "Ah c #F9EB90FF",
  "7} c #F9EEA1FF",
  "8_ c #FAE67AFF",
  "6P c #FAE7C3FF",
  "7@ c #FAE7C4FF",
  "8~ c #FAE882FF",
  "78 c #FAE9C1FF",
  "6I c #FAE9C2FF",
  "6L c #FAE9CDFF",
  "9d c #FBDF5EFF",
  "9s c #FBE05FFF",
  "9, c #FBE670FF",
  "9; c #FBE774FF",
  "7f c #FBEAB7FF",
  "7< c #FBECC5FF",
  "8) c #FBEF8CFF",
  "8m c #FBEF9BFF",
  "7J c #FBEFB0FF",
  "7O c #FBEFCEFF",
  "6Q c #FBEFD4FF",
  "6M c #FBEFD8FF",
  "7x c #FBF0C3FF",
  "8e c #FBF1A3FF",
  "8+ c #FBF4AEFF",
  "7U c #FBF5BAFF",
  "8w c #FBF8B5FF",
  "89 c #FBFABBFF",
  "8O c #FBFABEFF",
  "7I c #FBFBC6FF",
  "9> c #FCEC79FF",
  "9: c #FCEC7BFF",
  "6U c #FCEECCFF",
  "8^ c #FCF092FF",
  "6W c #FCF0D2FF",
  "6! c #FCF0DBFF",
  "6} c #FCF1D3FF",
  "7g c #FCF3C8FF",
  "77 c #FCF3D4FF",
  "6E c #FCF3DAFF",
  "6C c #FCF3DFFF",
  "71 c #FCF4D7FF",
  "6Y c #FCF4D8FF",
  "8V c #FCF5A4FF",
  "8M c #FCF6AAFF",
  "7| c #FCF7B8FF",
  "3R c #FCF7CFFF",
  "O~ c #FCF8C1FF",
  "8. c #FCFCC2FF",
  "7K c #FCFCCAFF",
  "8X c #FCFDC7FF",
  "7P c #FCFDCCFF",
  "8( c #FDF597FF",
  "8/ c #FDF599FF",
  "6T c #FDF6DFFF",
  "6R c #FDF6E1FF",
  "7o c #FDF7E1FF",
  "76 c #FDF8DFFF",
  "6| c #FDF8E3FF",
  "6N c #FDF8EBFF",
  "8B c #FDF9AFFF",
  "8N c #FDF9B0FF",
  "7h c #FDF9D3FF",
  "72 c #FDF9E1FF",
  "8q c #FDFBBEFF",
  "7z c #FDFBD7FF",
  "75 c #FDFBE6FF",
  "80 c #FDFCC0FF",
  "7j c #FDFCD9FF",
  "8o c #FDFDC6FF",
  "7L c #FDFDCEFF",
  "7l c #FDFDDAFF",
  "7k c #FDFDDBFF",
  "ky c #FDFDE9FF",
  "6V c #FEF9F0FF",
  "7. c #FEFBEDFF",
  "6B c #FEFBF5FF",
  "73 c #FEFCE7FF",
  "7X c #FEFCF1FF",
  "74 c #FEFDEAFF",
  "6x c #FFCC9905",
  "6i c #FFFFAA03",
  "69 c #FFFFBF04",
  "60 c #FFFFBF08",
  "6t c #FFFFC80E",
  "6y c #FFFFCC0A",
  "6u c #FFFFD506",
  "6q c #FFFFD50C",
  "3N c #FFFFFF01",
  ":C c #FFFFFF02",
  "   c none",
  
  // Image data
  "                  3N:C69606q6w6e6r6t6y6u6i3N                    ",
  "                3N:C6p6a6s6d6f6g6h6j6k6l6z6x3N                  ",
  "                6c6v6b6n6m6M6N6B6V6C6Z6A6S6D6F3N                ",
  "            6G6H6J6K6L6P6I6U6Y6T6R6E6W6Q6!6~6^6/6(              ",
  "          6)6_6`6'6]6[6{6}6|7.7X7X7.7o7O7+7@7#7$7%7&            ",
  "        7*7=Z/Z(Z)Z_Z`7<71727374ky7576777879707q7w7e7r          ",
  "      7t7y7uZ'Z]Z[Z{Z}7f7g7h7j7k7l7z3R7x7cZ|A.AX7m7M7N7B        ",
  "      7V7C7ZAoAOA+A@A#A$7JO~7K7L7P7I7UA%A&A*A=A-A;7Q7!7~        ",
  "    7^7/7(7)A:A>A,A<A1A27}7|8.8X8o8O8+A3A4A5A6A7A88=8-8;8:      ",
  "    8>8,8<81A9A0AqAwAeArAt8+89808q8w8eAyAuAiApAaAs8p8a8s8d+n    ",
  "  8f8g8h8j8k8l8z8xAd%JAfAg8m8M8N8B8VAhAjFlAkAlAz8z8H8J8K8L8P    ",
  "  8I8U8Y8T8k8R8EAxAc%JAvAb8~8^8/8(8)8_An%JAmAMAN8{8l8}8|9.9X    ",
  "  9o9O9+9@9#9$9%ABAV:-AC9=9-9;9:9>9,9<AZ:-AAAS948{8R8k959697    ",
  "  9899909q9w9e9rADAFAGAH9i9p9a9s9d9f9gAJAKALAP9z9x9c9v9b9n9m    ",
  "  9M9N9B9V9C9Z9AAIAUAYAT9H9J9K9L9L9P9IARAEAWq39E9W9Z9Q9!9~9^9/  ",
  "9(9)9_9`9'9]9[9{9}hAAQA!0o0O0+0@0#0$0%A~A!0]q<0;0:0>0,0<010203  ",
  "  04050607088k9$ZOZ+0)0V0e0r0t0y0y0u0i0e0`0)Z+9x9$8k0g0h0j0k0l  ",
  "  0z0x0c0v0b9CZ*0:Z=9zq30V0C0Z0A0A0Z0S0Vhh0(9}Z-Z*9Q0L0P0I0U    ",
  "  0Y0T0R0E0Wqo8k9e9A0;0(0)0_0`0'0'0`0]0)hjZ;9WZ:8}qo9'qOq+q@    ",
  "  q#q$q%q&q00bA^A/9$9W0;q,q<q1q2q3q4q<q,0;hs8R9[q90Lq0qqqwqe    ",
  "  qrqtqyquhaZr8T9Q9[9$qgqhqjqkqlqzqxqcqv9A8R0>9Q8TqbqnqmqMqN    ",
  "    qBqVqCZzZx9'8T9QA(qGqHqJqKqLqPqIqUqYqT9[9Q089'qRqEqWqQ      ",
  "    q!q~q^ZAZSj.9'A)A_q'q]q[q{q}q|w.wXwowOw+8T9'w@w#w$w%w&      ",
  "      w*w=xLZTZRh>A`A'w1w2w3w4w5w6w7w8w9w09q0Ww@wqwwwewr        ",
  "      wtwyx~x^ZWA]A[A{wf9q08w0wgwhwjwkwl0<wzwxwcwvwbwnwm+n+n    ",
  "    +n*_wMwNx|ZQA}A|wAqRwSwD9'0<0<9'qbwFwGwHwJwKwLwPwI$a*`+n    ",
  "  +n*_$p=#wUwYwTwRwEwWwQw!0Ewxw~w~wx0Ew!w^w/w(w)w_w`6O&Z1c*_+n  ",
  "  +n*_1c+rEew'w]w[w{w}w|e.eXeoeOe+e@e#e$e%e&e*e=e-=d+g=$+>*`+n  ",
  "  +n*_,D$s=w=d&We;e:e>e,e<e1e2e3e4e5e6e7e8e9e0eq!Oa(=@+r,D*_+n  ",
  "    +n*`$a&Z=@=l*5eweeereteyeueiepeaesedef&~kA=feg=@+r$a*`+n    ",
  "    +n+n*`$p,q@o*'&R*/=0eh&EejekDykA&+!O[G,W=s=@@o=2,D*_+n+n    ",
  "        +n*T*`*R$a=2&Z[~=@Ee:W+J+J:W*'6O+k&Z=#$a*R*`*T+n        "
};
