/* XPM */
const char *xpm_tango_emotes_face_smile_big[] = {
  // Header (width height colors chars-per-pixel)
  "32 32 691 2",
  
  // Colors (code mode value)
  "+n c #00000001",
  "*T c #00000002",
  "*_ c #00000003",
  "*` c #00000004",
  "*R c #00000006",
  "$p c #00000007",
  ",D c #00000008",
  "1c c #00000009",
  "$a c #0000000A",
  "+> c #0000000B",
  ",q c #0000000C",
  "=2 c #0000000D",
  "=# c #0000000E",
  "$s c #00000010",
  "&Z c #00000011",
  "+r c #00000012",
  "@o c #00000014",
  "=$ c #00000015",
  "+k c #00000016",
  "[~ c #00000017",
  "6O c #0000001B",
  "=w c #0000001C",
  "=@ c #0000001D",
  "*' c #00000020",
  "+g c #00000021",
  "Ee c #00000022",
  ":W c #00000025",
  "+J c #00000027",
  "=s c #0000002B",
  "eg c #0000002C",
  "a( c #0000002D",
  "&R c #0000002F",
  "=l c #00000035",
  "=d c #00000037",
  ",W c #00000039",
  "*/ c #0000003C",
  "[G c #00000044",
  "=f c #00000046",
  "=0 c #00000048",
  "!O c #00000051",
  "*5 c #00000052",
  "eh c #00000056",
  "&+ c #0000005B",
  "&E c #0000005E",
  "kA c #00000062",
  "ej c #00000064",
  "Dy c #00000067",
  "&W c #0000006B",
  "ew c #0000006F",
  "&~ c #0000007A",
  "eq c #0000007D",
  "ek c #0202006A",
  "e- c #09070570",
  "w' c #0A060350",
  "ee c #0B09048C",
  "ef c #0E090594",
  "lz c #0E0A03FF",
  "lD c #130F06FF",
  "e; c #1510089E",
  "lm c #160F06FF",
  "e0 c #171109A7",
  "lM c #181004FF",
  "ll c #211606FF",
  "lL c #231F0FFF",
  "w` c #24190E47",
  "er c #2B2010BA",
  "ed c #2C2010BE",
  "wU c #30251030",
  "lU c #3B2708FF",
  "wI c #3B2C1434",
  "e= c #412E16DC",
  "et c #453217E2",
  "w] c #453218D2",
  "es c #463217E4",
  "e9 c #463217E7",
  "e: c #463218E2",
  "wm c #472B1C12",
  "ey c #4D3719F2",
  "ea c #4E381AF2",
  "wM c #4E391C24",
  "w_ c #4F381BE8",
  "eu c #4F391CFB",
  "ep c #503A1CFB",
  "ei c #503A1EFE",
  "wP c #513A1DF1",
  "e> c #533B1DFC",
  "e* c #533D1DFB",
  "wn c #543C1CE3",
  "w& c #5540223C",
  "lZ c #573C0DFF",
  "wr c #573E1DB6",
  "e8 c #574023FC",
  "w[ c #583F1DFC",
  "wY c #5B411FDE",
  "qQ c #5D421FD3",
  "wt c #5D46170B",
  "w% c #5E421EF4",
  "qN c #5E43212E",
  "qe c #5F462383",
  "wN c #614623EC",
  "q@ c #664923DA",
  "wy c #674923D8",
  "qM c #674923F2",
  "03 c #684C261B",
  "0U c #694A25F4",
  "q! c #694E272E",
  "e, c #6A4A21FA",
  "wT c #6B481BFA",
  "w* c #6B4D25A5",
  "0k c #6B4D26FA",
  "0l c #6D492407",
  "q~ c #6E4E25F5",
  "9/ c #71551C09",
  "qB c #725127C2",
  "9^ c #725228F9",
  "w) c #734E21FB",
  "qr c #7352291F",
  "02 c #755228F2",
  "9m c #755429F7",
  "qt c #76542BF5",
  "we c #774D1AF7",
  "w= c #77521EF6",
  "q# c #78562B71",
  "e7 c #785830FB",
  "97 c #7A5629DF",
  "x| c #7C5319FB",
  "0Y c #7C572BCA",
  "9X c #7C582B8E",
  "w{ c #7D521BFE",
  "8P c #7D582E37",
  "0z c #7E5B2DE8",
  "x~ c #7F551BFB",
  "04 c #815D2FF9",
  "9) c #846031F7",
  "lx c #855D22FF",
  "8d c #855E2DE1",
  "8: c #855F304B",
  "wL c #86581CFD",
  "q$ c #885F29F6",
  "9M c #886231FA",
  "lA c #886B24FF",
  "wb c #89591AFD",
  "9( c #8B5D2E0B",
  "qV c #8B5F21FD",
  "98 c #8B6431EB",
  "qw c #8D5F28F9",
  "7~ c #8D6330C9",
  "7B c #8E68391B",
  "e< c #8F6228FF",
  "8L c #8F6533F2",
  "9o c #8F6631D0",
  "7N c #8F6633ED",
  "e& c #90632BFE",
  "7r c #90663337",
  "8I c #9168367B",
  "8; c #92662EF3",
  "7& c #936C3634",
  "6( c #936C3B1A",
  "7e c #946B37F4",
  "8f c #96693427",
  "7% c #986E39EC",
  "8> c #996D34D2",
  "7^ c #996F373C",
  "qW c #9A6322FE",
  "SB c #9A6A6AFF",
  "8g c #9A6F38F3",
  "SA c #9B9090FF",
  "e6 c #9C7138FF",
  "Sg c #9C7979FF",
  "Sh c #9D6B6BFF",
  "6/ c #9E723CCB",
  "ln c #9E7B3BFF",
  "7/ c #9F7035F4",
  "7V c #9F7036B8",
  "6F c #9F794650",
  "0T c #A06F2FFF",
  "6) c #A0773B2B",
  "7y c #A17338E7",
  "7t c #A1793613",
  "SL c #A2221EFF",
  "wR c #A2671CFF",
  "6_ c #A27439E7",
  "7* c #A2743A2C",
  "7= c #A2753BF2",
  "q^ c #A3691EFF",
  "6c c #A4783E46",
  "SZ c #A51D19FF",
  "6H c #A5763BC1",
  "lI c #A58733FF",
  "D# c #A60200FF",
  "S5 c #A60300FF",
  "Sp c #A60301FF",
  "Sa c #A60401FF",
  "S4 c #A60501FF",
  "6G c #A6734014",
  "6D c #A67B41E0",
  "SN c #A67D7DFF",
  "SK c #A69E9EFF",
  "lN c #A76C17FF",
  "e1 c #A77636FF",
  "6v c #A77A3FD9",
  "SW c #A80601FF",
  "Sj c #A85050FF",
  "6p c #A8824D35",
  "SV c #AA0B02FF",
  "Si c #AA0F03FF",
  "x^ c #AA6917FF",
  "ZQ c #AA6B1AFF",
  "xL c #AA6C1DFF",
  "S( c #AB0601FF",
  "SU c #AB0901FF",
  "S6 c #AB0F03FF",
  "Sc c #AB120AFF",
  "Sx c #AB150DFF",
  "Sk c #AB2E2EFF",
  "6J c #AB7D3FF3",
  "6a c #AB834B8C",
  "6l c #AB854D95",
  "S[ c #AC0601FF",
  "Sf c #AC1304FF",
  "Sl c #AC2120FF",
  "6^ c #AC8046F3",
  "w} c #AD7329FF",
  "qy c #AD7429FF",
  "<v c #ADADADFF",
  "e5 c #AE7D41FF",
  "Sz c #AF1E19FF",
  "6s c #AF854BDE",
  "6d c #AF8951F6",
  "6k c #B0894EE1",
  "6z c #B08A583D",
  "D$ c #B11305FF",
  "D@ c #B11505FF",
  "Su c #B22108FF",
  "0x c #B27A35FF",
  "8U c #B27A3DF8",
  "6j c #B28B54F7",
  "6f c #B28E58FC",
  "S7 c #B32207FF",
  "Sv c #B42C25FF",
  "wE c #B46F1CFF",
  "qC c #B46F1EFF",
  "w( c #B47224FF",
  "q+ c #B47732FF",
  "6b c #B48A50F4",
  "6h c #B4915BFC",
  "e2 c #B5803DFF",
  "ZT c #B66305FF",
  "Z! c #B6670DFF",
  "w| c #B67322FF",
  "ZW c #B76304FF",
  "ZA c #B76910FF",
  "q% c #B77323FF",
  "e% c #B8792CFF",
  "6g c #B8965EF7",
  "S{ c #B9280AFF",
  "wW c #B96403FF",
  "e. c #B96D16FF",
  "9. c #B97C3DFC",
  "SM c #B97C7CFF",
  "e4 c #B98441FF",
  "6S c #B9915AF4",
  "qu c #BA6505FF",
  "Sy c #BB370DFF",
  "wK c #BB701CFF",
  "w$ c #BB7423FF",
  "lP c #BBA34BFF",
  "SY c #BC0401FF",
  "S) c #BC0601FF",
  "eX c #BC6607FF",
  "e$ c #BC721BFF",
  "SE c #BD0301FF",
  "S/ c #BD2D0AFF",
  "e3 c #BD8540FF",
  "S] c #BE0601FF",
  "S8 c #BE3A0DFF",
  "Sb c #BE4643FF",
  "Z^ c #BE6E14FF",
  "wv c #BE701AFF",
  "lk c #BE7D1CFF",
  "D% c #BF3710FF",
  "eo c #BF6501FF",
  "e# c #BF6B0DFF",
  "0R c #BF7016FF",
  "7! c #BF8036FB",
  "D+ c #C03810FF",
  "e@ c #C06603FF",
  "ww c #C07522FF",
  "eO c #C16500FF",
  "e+ c #C16601FF",
  "7C c #C17E33F9",
  "05 c #C1853EFF",
  "Zz c #C26500FF",
  "wQ c #C36500FF",
  "Z~ c #C46702FF",
  "Sm c #C47373FF",
  "wJ c #C56C0BFF",
  "SJ c #C5C0C0FF",
  "SS c #C5C4C4FF",
  "0c c #C66C0CFF",
  "9O c #C68945FF",
  "St c #C75416FF",
  "Sn c #C76161FF",
  "q& c #C76700FF",
  "ZS c #C86700FF",
  "qm c #C8802FFF",
  "6` c #C88F44F9",
  "6e c #C8AA792A",
  "S9 c #CA5916FF",
  "ZR c #CA6700FF",
  "wc c #CA6903FF",
  "9_ c #CA8C46FF",
  "qE c #CB7920FF",
  "oG c #CC0000FF",
  "wq c #CC6A04FF",
  "w! c #CD6800FF",
  "w# c #CD700FFF",
  "0I c #CD873CFF",
  "99 c #CD8E48FF",
  "7$ c #CD984FFA",
  "DO c #CE5F1FFF",
  "D& c #CE6022FF",
  "06 c #CE6B05FF",
  "lS c #CEAD47FF",
  "SQ c #CF5B11FF",
  "9N c #CF8E48FF",
  "wA c #D06900FF",
  "wH c #D16A00FF",
  "Sr c #D16E1DFF",
  "qq c #D17E26FF",
  "8, c #D28B42FF",
  "SI c #D3610FFF",
  "ha c #D36A00FF",
  "ST c #D40000FF",
  "0E c #D46B00FF",
  "S0 c #D4721EFF",
  "SR c #D50000FF",
  "9` c #D56B00FF",
  "qn c #D56D04FF",
  "8s c #D5954DFF",
  "SP c #D6670DFF",
  "96 c #D8924CFF",
  "7u c #D89C55FE",
  "wx c #D96C00FF",
  "S_ c #DA0000FF",
  "SC c #DA6B0BFF",
  "Zx c #DA6D00FF",
  "qO c #DA7816FF",
  "Se c #DA8424FF",
  "S' c #DB0000FF",
  "w~ c #DB6D00FF",
  "7- c #DBA35FFE",
  "7M c #DBA55FFE",
  "6n c #DBB882FB",
  "qR c #DC6D00FF",
  "9B c #DC7006FF",
  "0j c #DC9347FF",
  "5Z c #DCDBDBFF",
  "h> c #DD6D00FF",
  "D* c #DD8436FF",
  "Sq c #DD8A25FF",
  "l] c #DDA42AFF",
  "j. c #DE6E00FF",
  "Do c #DE8333FF",
  "SO c #DEBC4CFF",
  "6w c #DEDEA617",
  "w@ c #DF6E00FF",
  "7w c #DFAC6BFE",
  "0v c #E06E00FF",
  "6A c #E0C28FFD",
  "q0 c #E16F00FF",
  "wS c #E17001FF",
  "wz c #E17101FF",
  "07 c #E17201FF",
  "Zr c #E17202FF",
  "qb c #E17302FF",
  "0h c #E17405FF",
  "Ss c #E17D11FF",
  "wD c #E27302FF",
  "0W c #E27303FF",
  "9' c #E27403FF",
  "he c #E27503FF",
  "0< c #E27504FF",
  "0P c #E2750AFF",
  "9V c #E27705FF",
  "Sw c #E29729FF",
  "0b c #E37705FF",
  "0L c #E37805FF",
  "9q c #E37806FF",
  "9@ c #E37906FF",
  "9! c #E37908FF",
  "90 c #E37911FF",
  "8T c #E37A07FF",
  "08 c #E37B07FF",
  "S^ c #E38926FF",
  "01 c #E3984DFF",
  "lE c #E3A326FF",
  "S$ c #E3C858FF",
  "SH c #E3DFDFFF",
  "0g c #E47B08FF",
  "qo c #E47C08FF",
  "w0 c #E47D08FF",
  "wg c #E47D09FF",
  "9] c #E47E09FF",
  "0, c #E47E0AFF",
  "Sd c #E47E0BFF",
  "8j c #E47F11FF",
  "jM c #E4800BFF",
  "jj c #E4830FFF",
  "S} c #E48C2CFF",
  "q9 c #E57F0AFF",
  "hN c #E5800AFF",
  "9C c #E5800BFF",
  "9b c #E58014FF",
  "9Q c #E5810BFF",
  "S3 c #E5810DFF",
  "9w c #E5820CFF",
  "9v c #E5830CFF",
  "9# c #E5830DFF",
  "81 c #E5830EFF",
  "9+ c #E58525FF",
  "6K c #E5BC7EFF",
  "S` c #E60000FF",
  "8k c #E6840DFF",
  "D. c #E68412FF",
  "8} c #E6850DFF",
  "ZE c #E6850EFF",
  "hH c #E6860EFF",
  "9[ c #E6870FFF",
  "S~ c #E68716FF",
  "S! c #E68812FF",
  "9n c #E69B52FF",
  "0> c #E7880FFF",
  "8J c #E78816FF",
  "9Z c #E78A11FF",
  "Zy c #E78B17FF",
  "9e c #E78C12FF",
  "95 c #E78D2BFF",
  "9c c #E88C13FF",
  "D- c #E88C1DFF",
  "9$ c #E88D13FF",
  "8R c #E88E13FF",
  "8l c #E88E14FF",
  "8H c #E88E15FF",
  "S1 c #E88F15FF",
  "8p c #E88F17FF",
  "7_ c #E8911FFF",
  "S| c #E98F1EFF",
  "82 c #E9901AFF",
  "0: c #E99115FF",
  "D3 c #E99122FF",
  "9A c #E99317FF",
  "9W c #E99417FF",
  "8Y c #E99745FF",
  "9~ c #E99E54FF",
  "9r c #EA9618FF",
  "9x c #EA9619FF",
  "9% c #EA9719FF",
  "7A c #EA972EFF",
  "8{ c #EA981AFF",
  "8E c #EA981BFF",
  "D; c #EA9830FF",
  "S2 c #EA991BFF",
  "8G c #EA991EFF",
  "DX c #EA9935FF",
  "8z c #EA9A1FFF",
  "D2 c #EA9C34FF",
  "7) c #EA9C3EFF",
  "lW c #EAB334FF",
  "6~ c #EAC691FF",
  "9} c #EB991BFF",
  "83 c #EB9E28FF",
  "D= c #EBA03CFF",
  "8| c #EBA04DFF",
  "6r c #EBD69919",
  "9E c #EC9D1DFF",
  "lR c #EC9F1FFF",
  "9z c #ECA01FFF",
  "l{ c #ECA020FF",
  "D: c #ECA342FF",
  "8< c #ECA557FF",
  "8h c #ECA661FF",
  "7( c #ECAB64FF",
  "hA c #EDA220FF",
  "q< c #EDA321FF",
  "lV c #EDA324FF",
  "8* c #EDA437FF",
  "8= c #EDA443FF",
  "7` c #EDA539FF",
  "D1 c #EDA647FF",
  "7S c #EDA946FF",
  "7p c #EDAA4AFF",
  "lt c #EDC25FFF",
  "lT c #EE9E1EFF",
  "lj c #EEA123FF",
  "S; c #EEA624FF",
  "q3 c #EEA723FF",
  "l} c #EEAA26FF",
  "D> c #EEAD56FF",
  "8a c #EEAD5EFF",
  "lC c #EF9A1BFF",
  "CQ c #EFA926FF",
  "0] c #EFAB26FF",
  "AQ c #EFAB27FF",
  "lh c #EFAE3EFF",
  "lw c #EFAF40FF",
  "D< c #EFAF59FF",
  "8K c #EFB26FFF",
  "C' c #F0AF2AFF",
  "S: c #F0B02AFF",
  "D, c #F0B564FF",
  "8- c #F0B875FF",
  "S% c #F0C23EFF",
  "l[ c #F1A422FF",
  "A! c #F1B32CFF",
  "CW c #F1B42DFF",
  "l| c #F1B42EFF",
  "lq c #F1B654FF",
  "7W c #F1BB61FF",
  "7D c #F1BC62FF",
  "le c #F1BE58FF",
  "ld c #F1C155FF",
  "lY c #F29718FF",
  "lB c #F29F21FF",
  "S> c #F2B831FF",
  "0r c #F2B930FF",
  "0o c #F2BB30FF",
  "7a c #F2BD6AFF",
  "7Z c #F2BE82FF",
  "l> c #F2BF66FF",
  "7i c #F2C082FF",
  "A~ c #F3BB32FF",
  "lr c #F3BC4BFF",
  "7n c #F3BD6AFF",
  "S- c #F3BF37FF",
  "S& c #F3BF39FF",
  "9H c #F3C239FF",
  "7: c #F3C580FF",
  "+: c #F3F2F2FF",
  "0O c #F4C137FF",
  "0% c #F4C236FF",
  "S< c #F4C238FF",
  "7Q c #F4C890FF",
  "ls c #F4D271FF",
  "6m c #F4DDB7FF",
  "0$ c #F5C63AFF",
  "0+ c #F5C63BFF",
  "lQ c #F5C646FF",
  "7m c #F5CB91FF",
  "7> c #F5CD88FF",
  "6' c #F5D2A0FF",
  "lF c #F6AE40FF",
  "0# c #F6C93CFF",
  "S= c #F6C941FF",
  "0@ c #F6CA3BFF",
  "S, c #F6CA3EFF",
  "9J c #F6CA41FF",
  "9i c #F6CA45FF",
  "lf c #F6CB6FFF",
  "lg c #F6CC78FF",
  "l: c #F6CE81FF",
  "7b c #F6CE88FF",
  "7s c #F6D18CFF",
  "7; c #F6D3A4FF",
  "l+ c #F6D491FF",
  "6[ c #F6D599FF",
  "6Z c #F6E4C2FF",
  "l` c #F7D151FF",
  "S* c #F7D34EFF",
  "9p c #F7D450FF",
  "70 c #F7D59EFF",
  "lc c #F8C564FF",
  "S+ c #F8CA53FF",
  "9P c #F8D045FF",
  "9K c #F8D146FF",
  "l, c #F8DA9CFF",
  "l0 c #F8DA9FFF",
  "7v c #F8DCA0FF",
  "79 c #F8DCA5FF",
  "6] c #F8DCB0FF",
  "7d c #F8DEA2FF",
  "7q c #F8DEB7FF",
  "7, c #F8DFACFF",
  "7# c #F8DFB7FF",
  "So c #F9CF67FF",
  "9L c #F9D449FF",
  "9f c #F9DB57FF",
  "9a c #F9DC5AFF",
  "7+ c #F9E3B6FF",
  "6{ c #F9E5B8FF",
  "7c c #F9E7B2FF",
  "S# c #FADD66FF",
  "ly c #FADF95FF",
  "S@ c #FAE26FFF",
  "lb c #FAE28AFF",
  "l; c #FAE2AEFF",
  "l@ c #FAE6B4FF",
  "6P c #FAE7C3FF",
  "7@ c #FAE7C4FF",
  "78 c #FAE9C1FF",
  "6I c #FAE9C2FF",
  "6L c #FAE9CDFF",
  "S. c #FBD874FF",
  "9d c #FBDF5EFF",
  "9s c #FBE05FFF",
  "7f c #FBEAB7FF",
  "l< c #FBEABDFF",
  "7< c #FBECC5FF",
  "la c #FBEDA5FF",
  "lv c #FBEE9FFF",
  "l- c #FBEEC4FF",
  "7O c #FBEFCEFF",
  "6Q c #FBEFD4FF",
  "6M c #FBEFD8FF",
  "7x c #FBF0C3FF",
  "lp c #FBF9BEFF",
  "li c #FBFBC2FF",
  "l& c #FBFBC8FF",
  "9> c #FCEC79FF",
  "9: c #FCEC7BFF",
  "6U c #FCEECCFF",
  "l9 c #FCEFD0FF",
  "l# c #FCF0C9FF",
  "6W c #FCF0D2FF",
  "6! c #FCF0DBFF",
  "6} c #FCF1D3FF",
  "7g c #FCF3C8FF",
  "l= c #FCF3CAFF",
  "77 c #FCF3D4FF",
  "6E c #FCF3DAFF",
  "6C c #FCF3DFFF",
  "71 c #FCF4D7FF",
  "6Y c #FCF4D8FF",
  "lu c #FCF6C7FF",
  "l7 c #FCF6D1FF",
  "l* c #FCF7CBFF",
  "3R c #FCF7CFFF",
  "l% c #FCF9CAFF",
  "l5 c #FCFBCCFF",
  "l4 c #FCFCC8FF",
  "7K c #FCFCCAFF",
  "8X c #FCFDC7FF",
  "7P c #FCFDCCFF",
  "SX c #FDF395FF",
  "8/ c #FDF599FF",
  "l$ c #FDF5CFFF",
  "l1 c #FDF6DEFF",
  "6T c #FDF6DFFF",
  "6R c #FDF6E1FF",
  "7o c #FDF7E1FF",
  "l8 c #FDF7E4FF",
  "76 c #FDF8DFFF",
  "6| c #FDF8E3FF",
  "6N c #FDF8EBFF",
  "8B c #FDF9AFFF",
  "8N c #FDF9B0FF",
  "7h c #FDF9D3FF",
  "l6 c #FDF9D4FF",
  "72 c #FDF9E1FF",
  "SG c #FDFAFAFF",
  "8q c #FDFBBEFF",
  "7z c #FDFBD7FF",
  "l3 c #FDFBDBFF",
  "75 c #FDFBE6FF",
  "80 c #FDFCC0FF",
  "7j c #FDFCD9FF",
  "8o c #FDFDC6FF",
  "7L c #FDFDCEFF",
  "7l c #FDFDDAFF",
  "7k c #FDFDDBFF",
  "ky c #FDFDE9FF",
  "6V c #FEF9F0FF",
  "l2 c #FEFBE8FF",
  "7. c #FEFBEDFF",
  "6B c #FEFBF5FF",
  "SF c #FEFBFBFF",
  "73 c #FEFCE7FF",
  "7X c #FEFCF1FF",
  "SD c #FEFCFCFF",
  "74 c #FEFDEAFF",
  "6x c #FFCC9905",
  "6i c #FFFFAA03",
  "69 c #FFFFBF04",
  "60 c #FFFFBF08",
  "6t c #FFFFC80E",
  "6y c #FFFFCC0A",
  "6u c #FFFFD506",
  "6q c #FFFFD50C",
  "3N c #FFFFFF01",
  ":C c #FFFFFF02",
  "   c none",
  
  // Image data
  "                  3N:C69606q6w6e6r6t6y6u6i3N                    ",
  "                3N:C6p6a6s6d6f6g6h6j6k6l6z6x3N                  ",
  "                6c6v6b6n6m6M6N6B6V6C6Z6A6S6D6F3N                ",
  "            6G6H6J6K6L6P6I6U6Y6T6R6E6W6Q6!6~6^6/6(              ",
  "          6)6_6`6'6]6[6{6}6|7.7X7X7.7o7O7+7@7#7$7%7&            ",
  "        7*7=7-7;7:7>7,7<71727374ky7576777879707q7w7e7r          ",
  "      7t7y7u7i7p7a7s7d7f7g7h7j7k7l7z3R7x7c7v7b7n7m7M7N7B        ",
  "      7V7C7Z7A7S7Dl+l@l#l$l%7K7L7Pl&l*l=l-l;l:7W7S7Q7!7~        ",
  "    7^7/7(7)7_7`l>l,l<l1l2l3l48X8ol5l6l7l8l9l0lq8*8=8-8;8:      ",
  "    8>8,8<818283lwlelrltlyluli808qlplalsldlflglh838p8a8s8d+n    ",
  "  8f8g8h8j8k8l8zljlklllzlxlclv8N8BlblnlmlMlNlBlV8G8H8J8K8L8P    ",
  "  8I8U8Y8T8k8R8ElClZlAlSlDlFS.8/SXSolLlPlIlUlYlT8{8l8}8|9.9X    ",
  "  9o9O9+9@9#9$9%lRlElWlQSOS+S@9:9>S#S$l`S%l]l[l{8{8R8k959697    ",
  "  9899909q9w9e9rlRl}l|S&9i9p9a9s9d9fS*S=S-CWCQ9z9x9c9v9b9n9m    ",
  "  9M9N9B9V9C9Z9A9ES;S:S>9H9J9K9L9L9PS,S<0rC'q39E9W9Z9Q9!9~9^9/  ",
  "9(9)9_9`9'9]9[S19}hAAQA!0o0O0+0@0#0$0%A~A!0]q<S20:0>0,0<010203  ",
  "  0405060708S3S4S5S6S7S8S9S0SqSwSeSrStSySuSiSpSaSs8k0g0h0j0k0l  ",
  "  0z0x0c0v0bSdSfSgShSjSkSlSzSxScSvSbSnSmSMSNSBSVjj9Q0L0P0I0U    ",
  "  0Y0T0R0E0WqoSCSZSA<vSS5Z+:SDSDSFSGSGSHSJSKSLSP8}qo9'qOq+q@    ",
  "  q#q$q%q&q00bjMSISUSYSTSRSRSRSRSRSRSRSTSESWSQS!q90Lq0qqqwqe    ",
  "  qrqtqyquhaZr8TS~S^S/S(S)oGS_S`S'oGS]S[S{S}S|9Q8TqbqnqmqMqN    ",
  "    qBqVqCZzZx9'8TD.DXDoDOD+D@D#D$D%D&D*D=Zy9Q089'qRqEqWqQ      ",
  "    q!q~q^ZAZSj.9'8Tq9D-D;D:D>D,D<D1D2D38khN8T9'w@w#w$w%w&      ",
  "      w*w=xLZTZRh>wD9qqo9C9vZEhHhHZE9v9Cw09q0Ww@wqwwwewr        ",
  "      wtwyx~x^ZWZSwxwzhe9q08w0wgwgw0089q0<wzwxwcwvwbwnwm+n+n    ",
  "    +n*_wMwNx|ZQZ!ZzwAqRwSwD9'0<0<9'wDwSh>wHwJwKwLwPwI$a*`+n    ",
  "  +n*_$p=#wUwYwTwRwEwWwQw!0Ewxw~w~wx0Ew!Z~Z^w(w)w_w`6O&Z1c*_+n  ",
  "  +n*_1c+rEew'w]w[w{w}w|e.eXeoeOe+e@e#e$e%e&e*e=e-=d+g=$+>*`+n  ",
  "  +n*_,D$s=w=d&We;e:e>e,e<e1e2e3e4e5e6e7e8e9e0eq!Oa(=@+r,D*_+n  ",
  "    +n*`$a&Z=@=l*5eweeereteyeueiepeaesedef&~kA=feg=@+r$a*`+n    ",
  "    +n+n*`$p,q@o*'&R*/=0eh&EejekDykA&+!O[G,W=s=@@o=2,D*_+n+n    ",
  "        +n*T*`*R$a=2&Z[~=@Ee:W+J+J:W*'6O+k&Z=#$a*R*`*T+n        "
};
