/* XPM */
const char *xpm_tango_emotes_face_devilish[] = {
  // Header (width height colors chars-per-pixel)
  "32 32 756 2",
  
  // Colors (code mode value)
  "+n c #00000001",
  "*T c #00000002",
  "*_ c #00000003",
  "*` c #00000004",
  "=1 c #00000005",
  "*R c #00000006",
  "$p c #00000007",
  ",D c #00000008",
  "1c c #00000009",
  "$a c #0000000A",
  "+> c #0000000B",
  ",q c #0000000C",
  "=2 c #0000000D",
  "=# c #0000000E",
  "$s c #00000010",
  "&Z c #00000011",
  "+r c #00000012",
  "@o c #00000014",
  "=$ c #00000015",
  "+k c #00000016",
  "[~ c #00000017",
  "6O c #0000001B",
  "=w c #0000001C",
  "=@ c #0000001D",
  "*' c #00000020",
  "+g c #00000021",
  "Ee c #00000022",
  "=e c #00000023",
  ":W c #00000025",
  "+J c #00000027",
  "=s c #0000002B",
  "eg c #0000002C",
  "a( c #0000002D",
  "&R c #0000002F",
  "6: c #00000030",
  "=l c #00000035",
  "=d c #00000037",
  ",W c #00000039",
  "*/ c #0000003C",
  "[G c #00000044",
  "=f c #00000046",
  "=0 c #00000048",
  "!O c #00000051",
  "*5 c #00000052",
  "eh c #00000056",
  "&+ c #0000005B",
  "&E c #0000005E",
  "kA c #00000062",
  "ej c #00000064",
  "Dy c #00000067",
  "&W c #0000006B",
  "ew c #0000006F",
  "&~ c #0000007A",
  "eq c #0000007D",
  "eI c #000000C8",
  "%J c #000000FF",
  "eV c #010101D8",
  "sX c #0200006A",
  "e[ c #02020299",
  "e{ c #030303F4",
  "JU c #050505FF",
  "t` c #060301FF",
  "y. c #060502FF",
  "r3 c #0900001C",
  "yX c #090707FF",
  "t' c #090807FF",
  "J! c #090909FF",
  "yq c #0B0602FF",
  "y4 c #0C0803FF",
  "=h c #0D000050",
  "eU c #0D0D0CF9",
  "aK c #0E000070",
  "y3 c #0F0602FF",
  "a) c #1000008C",
  "y0 c #100C05FF",
  "rh c #120C0CFE",
  "t* c #120E07FF",
  "s. c #13000094",
  "t< c #130F07FF",
  "r2 c #131313F6",
  "e| c #140C0CFF",
  "Ft c #141414FF",
  "eY c #1515159C",
  "e} c #1A000014",
  "aL c #1D02029E",
  "r1 c #1F00004B",
  "a/ c #200202A7",
  "rk c #22140FFF",
  "r4 c #230C0C16",
  "tZ c #241308FF",
  "pq c #250402FF",
  "gg c #252525FF",
  "rl c #27070027",
  "ph c #270801FF",
  "tJ c #282411FF",
  "yN c #2D160AFF",
  "yz c #2E1106FF",
  "rT c #2F1713FF",
  "yx c #2F1C0DFF",
  "rv c #2F2726FF",
  "r. c #2F2F2FF9",
  "r5 c #311413FF",
  "yM c #33200CFF",
  "rx c #350D0CFF",
  "ac c #36040447",
  "rX c #36272763",
  "rz c #390D0AE0",
  "aq c #3A000030",
  "r7 c #3C3B3BFF",
  "a_ c #3E0303BA",
  "ag c #3E3E3EFF",
  "a| c #3F0303BE",
  "r6 c #3F3434FF",
  "tK c #413529FF",
  "rK c #413532FF",
  "tA c #433D2EFF",
  "rL c #461E0FF6",
  "tu c #462912FF",
  "t6 c #471F1BFF",
  "t@ c #480B08FF",
  "r} c #483F3CFF",
  "rj c #484848FF",
  "rY c #492120FF",
  "tg c #4B341AFF",
  "r| c #4D2920FF",
  "tf c #4D4723FF",
  "ti c #4F4624FF",
  "rJ c #524340FF",
  "a0 c #53050534",
  "rU c #531E1BFF",
  "y~ c #562C16FF",
  "yU c #562C17FF",
  "t5 c #571B0FFF",
  "u# c #574632FF",
  "u; c #574832FF",
  "yY c #583319FF",
  "av c #590202D2",
  "aJ c #590303DC",
  "rc c #594D4DFF",
  "a@ c #5C000024",
  "y! c #5D3C1DFF",
  "aP c #5E0303E2",
  "a` c #5F0303E2",
  "a} c #610303E4",
  "a^ c #610303E7",
  "iU c #610902FF",
  "rI c #610E0CEF",
  "a+ c #63000012",
  "iN c #631710FF",
  "ij c #670B09FF",
  "i/ c #681207FF",
  "p+ c #684140FF",
  "t. c #69180DF7",
  "a' c #6A0303F2",
  "r8 c #6A1A16FB",
  "a{ c #6B0303F2",
  "p& c #6B1205FF",
  "p* c #6C1304FF",
  "uQ c #6D000007",
  "aw c #6E0303DE",
  "p= c #6E1304FF",
  "ax c #6F0303E8",
  "p, c #6F2F24FF",
  "p% c #701408FF",
  "u7 c #71000009",
  "um c #7100001B",
  "a] c #710404FB",
  "ab c #710404FC",
  "iF c #7300001F",
  "t9 c #7304043C",
  "iD c #73040483",
  "ya c #7304048E",
  "a# c #730404EC",
  "a9 c #730404F1",
  "y[ c #730404FA",
  "a[ c #730404FE",
  "ia c #73050571",
  "aH c #730606FB",
  "ae c #730707FA",
  "u8 c #7400000B",
  "tv c #7403034B",
  "pc c #740303A5",
  "aO c #740303E3",
  "yG c #740303EB",
  "y= c #7404047B",
  "pT c #740404B6",
  "i} c #740404C2",
  "i= c #740404CA",
  "ys c #740404D0",
  "p5 c #740404D3",
  "ip c #740404DA",
  "i* c #740404F4",
  "y] c #740404F7",
  "uM c #740404F9",
  "uW c #740404FA",
  "y* c #74050537",
  "i{ c #7406062E",
  "yF c #750303DF",
  "u! c #750303E8",
  "tb c #750404D2",
  "pR c #750404D8",
  "px c #750404F4",
  "p6 c #750404F5",
  "u6 c #750404F9",
  "u9 c #750505F7",
  "iG c #750606F5",
  "pv c #750909F6",
  "tE c #760303E1",
  "to c #760404B8",
  "t8 c #760404C9",
  "tW c #76070727",
  "i[ c #760707F2",
  "a~ c #760C0CFC",
  "t0 c #770404F4",
  "a$ c #770E0EFB",
  "iY c #771004FF",
  "aI c #771111FA",
  "ro c #780505C1",
  "un c #780606F2",
  "eT c #780B0746",
  "an c #781111FE",
  "i^ c #781405FF",
  "iI c #785756FF",
  "rP c #79000013",
  "tQ c #790909F3",
  "pY c #790A0AF7",
  "pE c #790F0FFB",
  "r{ c #79442EFF",
  "p- c #7A1B0DFF",
  "r< c #7B0906CC",
  "az c #7B1212FB",
  "is c #7B1414F6",
  "tc c #7C0606F3",
  "e] c #7C0D0A50",
  "i| c #7C1616FD",
  "i( c #7C5550FF",
  "eR c #7D0D08D9",
  "i> c #7E0000FF",
  "y& c #7E0F0FF2",
  "e' c #7E120AE1",
  "ao c #7E1313FD",
  "a8 c #7F1515FD",
  "i$ c #810100FF",
  "uT c #810101FF",
  "pQ c #820707FF",
  "pn c #820808FF",
  "rO c #820F0AF3",
  "iS c #821A1AF9",
  "eC c #82221335",
  "a! c #822323FB",
  "iJ c #830909FF",
  "eZ c #831B0F8C",
  "ay c #840907FF",
  "pW c #841B1BFF",
  "ar c #841E1EFF",
  "p7 c #841F1FFF",
  "pX c #850303FF",
  "a& c #851110FF",
  "a% c #851D1DFF",
  "eK c #85221395",
  "p8 c #861313FF",
  "t7 c #861C19FC",
  "eA c #861F11DE",
  "pb c #862020FF",
  "aU c #862222FF",
  "if c #870303FF",
  "a* c #870503FF",
  "iT c #871405FF",
  "p4 c #871B1BFE",
  "ie c #87230BFF",
  "i- c #872525FF",
  "p9 c #880303FF",
  "aV c #880A04FF",
  "aB c #880F0BFF",
  "[5 c #888887FF",
  "ir c #890400FF",
  "pM c #890702FF",
  "au c #890703FF",
  "pw c #890B02FF",
  "aZ c #890B05FF",
  "aA c #890C07FF",
  "iM c #891206FF",
  "pO c #891413FF",
  "r, c #891B11F3",
  "aG c #892424FE",
  "eS c #892715F6",
  "pm c #8A0403FF",
  "p! c #8A0503FF",
  "aC c #8A0904FF",
  "p. c #8A2121FF",
  "eJ c #8A2514E1",
  "eL c #8A26153D",
  "rg c #8A2D24FB",
  "p< c #8A3124FF",
  "u/ c #8B0202FF",
  "uB c #8B0808FF",
  "aj c #8B0D06FF",
  "u^ c #8B1010FF",
  "i; c #8B1A1AFF",
  "at c #8B1F1FFF",
  "p$ c #8B2214FF",
  "eH c #8B2C19F7",
  "iH c #8B2C2CFF",
  "t+ c #8B4D4DFF",
  "uv c #8C0101FF",
  "uq c #8C0303FF",
  "aS c #8C1510FF",
  "tX c #8C19081F",
  "aN c #8C1B19FF",
  "y- c #8C2424F8",
  "id c #8D2525FF",
  "eE c #8D271CF4",
  "am c #8D2B2BFF",
  "ih c #8D2F2FFF",
  "a. c #8E0E07FF",
  "a6 c #8E140DFF",
  "tO c #8E1818F9",
  "ak c #8E1A16FF",
  "aX c #8E1E1CFF",
  "a7 c #8E201DFF",
  "aM c #8E2625FF",
  "eD c #8E311AFC",
  "po c #8F0202FF",
  "a= c #8F0A04FF",
  "ai c #8F0B03FF",
  "pI c #8F0E08FF",
  "aD c #8F201DFF",
  "al c #8F2726FF",
  "eG c #8F351DFC",
  "u( c #900101FF",
  "i: c #900202FF",
  "i' c #900A08FF",
  "pz c #902524FF",
  "y} c #910909FF",
  "ah c #911104FF",
  "pl c #911611FF",
  "u~ c #913333FF",
  "aY c #913535FF",
  "ig c #920202FF",
  "p0 c #920302FF",
  "a5 c #921104FF",
  "ik c #92210BFF",
  "pU c #922523FF",
  "aQ c #923333FF",
  "iZ c #930402FF",
  "p~ c #930903FF",
  "ii c #932D2DFF",
  "uV c #940202FF",
  "p2 c #940A03FF",
  "ap c #941104FF",
  "aF c #94302EFF",
  "i% c #950C0CFF",
  "af c #951603FF",
  "i~ c #951C07FF",
  "e` c #953524F4",
  "eF c #953C22F7",
  "iK c #960202FF",
  "uR c #960505FF",
  "p3 c #962422FF",
  "a- c #970F03FF",
  "p| c #971304FF",
  "yJ c #971313FF",
  "aa c #971503FF",
  "iu c #971919FF",
  "yp c #972D2DFC",
  "p; c #973021FF",
  "i, c #980200FF",
  "uw c #980202FF",
  "iy c #980302FF",
  "pk c #980F03FF",
  "ad c #981903FF",
  "pP c #991304FF",
  "a4 c #991904FF",
  "iA c #992929FF",
  "i] c #993332FF",
  "aW c #993F3FFF",
  "aT c #99403FFF",
  "as c #9A1A04FF",
  "uY c #9B0100FF",
  "y| c #9B0101FF",
  "u4 c #9B0404FF",
  "i` c #9B0B03FF",
  "p^ c #9B1004FF",
  "iR c #9B1B07FF",
  "uN c #9B3F3FFF",
  "aE c #9B4241FF",
  "uc c #9C0000FF",
  "i# c #9C1405FF",
  "aR c #9C4241FF",
  "iB c #9C524CFF",
  "yK c #9D0101FF",
  "pL c #9D1D04FF",
  "yd c #9D3D3DFF",
  "yg c #9E0101FF",
  "pN c #9E0D03FF",
  "a; c #9E1704FF",
  "y: c #9F0101FF",
  "a3 c #9F2104FF",
  "tn c #9F3535FF",
  "iC c #A00802FF",
  "p} c #A02005FF",
  "uC c #A10101FF",
  "p1 c #A11103FF",
  "pj c #A11904FF",
  "t# c #A13918FF",
  "i& c #A13C3CFF",
  "yf c #A22727FF",
  "u0 c #A24848FF",
  "t~ c #A30B0BFF",
  "y` c #A30F0FFF",
  "a: c #A31F04FF",
  "a2 c #A32A05FF",
  "yH c #A34747FF",
  "R7 c #A40000FF",
  "it c #A40400FF",
  "p/ c #A41904FF",
  "il c #A5260BFF",
  "p# c #A52A1CFF",
  "y{ c #A54A4AFF",
  "u) c #A60000FF",
  "pB c #A61503FF",
  "a> c #A62705FF",
  "a1 c #A62F05FF",
  "u. c #A70000FF",
  "i_ c #A71003FF",
  "iw c #A7290FFF",
  "p{ c #A72A05FF",
  "u3 c #A80000FF",
  "iq c #A81A09FF",
  "i! c #A82109FF",
  "pg c #A82505FF",
  "a, c #A82C05FF",
  "a< c #A82F06FF",
  "iz c #A91F09FF",
  "qO c #AA0000FF",
  "p( c #AA2205FF",
  "uE c #AA4949FF",
  "eb c #AA67372A",
  "yh c #AB0000FF",
  "pK c #AB2906FF",
  "p[ c #AB3306FF",
  "yD c #AB4747FF",
  "yA c #AC0000FF",
  "yu c #AC0100FF",
  "iV c #AC0C03FF",
  "y> c #AD0100FF",
  "pe c #AD1203FF",
  "i< c #AD1506FF",
  "iQ c #AD220AFF",
  "yS c #AD2626FF",
  "p) c #AD2905FF",
  "t^ c #AE0401FF",
  "ue c #AE0501FF",
  "tM c #AE0502FF",
  "u_ c #AE0702FF",
  "pV c #AE1B04FF",
  "p] c #AE3705FF",
  "tR c #AE4141FF",
  "t& c #AE7034FF",
  "y$ c #AF0A09FF",
  "y; c #AF4646FF",
  "ub c #AF4F4FFF",
  "iL c #AF7372FF",
  "uX c #B00802FF",
  "u2 c #B00902FF",
  "p' c #B03906FF",
  "p: c #B04433FF",
  "yL c #B10B03FF",
  "y_ c #B10C03FF",
  "te c #B1200CFF",
  "pJ c #B13005FF",
  "i2 c #B1300FFF",
  "p_ c #B13506FF",
  "p` c #B13805FF",
  "tz c #B13C31FF",
  "t1 c #B17D3CFF",
  "yj c #B20C03FF",
  "yZ c #B20D04FF",
  "yy c #B21005FF",
  "u` c #B21707FF",
  "ix c #B22109FF",
  "iE c #B22209FF",
  "i1 c #B22D0EFF",
  "pG c #B23305FF",
  "y' c #B25151FF",
  "u5 c #B25454FF",
  "y, c #B31004FF",
  "uU c #B31105FF",
  "im c #B31D09FF",
  "pC c #B32104FF",
  "iO c #B3210AFF",
  "i3 c #B3290CFF",
  "pF c #B33106FF",
  "pH c #B33205FF",
  "ur c #B41105FF",
  "ux c #B41205FF",
  "pf c #B42905FF",
  "pD c #B43307FF",
  "y# c #B51406FF",
  "pZ c #B52605FF",
  "p@ c #B5261BFF",
  "uo c #B61506FF",
  "u1 c #B61606FF",
  "tY c #B61808FF",
  "iW c #B6250AFF",
  "pS c #B6350DFF",
  "tw c #B63533FF",
  "t/ c #B71807FF",
  "y) c #B71907FF",
  "i+ c #B72F10FF",
  "pA c #B7310DFF",
  "yk c #B81A07FF",
  "yC c #B81B07FF",
  "pr c #B82613FF",
  "u' c #B82B0DFF",
  "9m c #B8B8B8FF",
  "y< c #B91E09FF",
  "i4 c #B92A0BFF",
  "t= c #B9A351FF",
  "ut c #BA1D08FF",
  "uz c #BA1E09FF",
  "yt c #BB2009FF",
  "tN c #BB230AFF",
  "ic c #BB280BFF",
  "uI c #BB2B0DFF",
  "u] c #BB3510FF",
  "yi c #BB4949FF",
  "t! c #BB6262FF",
  "i) c #BB9895FF",
  "t, c #BBAD57FF",
  "uO c #BC2209FF",
  "u< c #BC230AFF",
  "i0 c #BC260BFF",
  "uZ c #BC2A0DFF",
  "yP c #BD260AFF",
  "uP c #BD2A0CFF",
  "u[ c #BD310FFF",
  "pd c #BD3F21FF",
  "y( c #BE260BFF",
  "in c #BE270BFF",
  "pt c #BE3C28FF",
  "tm c #BE5454FF",
  "t( c #BF290CFF",
  "ul c #BF2A0DFF",
  "h4 c #BFBFBF04",
  "ib c #C02B0CFF",
  "y@ c #C02B0EFF",
  "yr c #C02C0DFF",
  "io c #C02E0DFF",
  "eW c #C0715EFC",
  "y1 c #C12C0DFF",
  "p> c #C14F3CFF",
  "tq c #C16161FF",
  "u, c #C22F0DFF",
  "i9 c #C2300DFF",
  "t) c #C23310FF",
  "u{ c #C2350FFF",
  "i@ c #C24115FF",
  "iv c #C3310EFF",
  "y+ c #C33310FF",
  "i5 c #C3350FFF",
  "uA c #C33C15FF",
  "y/ c #C4340FFF",
  "uk c #C4360FFF",
  "uS c #C43F15FF",
  "i8 c #C5360FFF",
  "yl c #C53A12FF",
  "uy c #C5411FFF",
  "yV c #C63911FF",
  "tU c #C63A15FF",
  "ye c #C63D13FF",
  "iX c #C73910FF",
  "tB c #C73915FF",
  "i6 c #C73A10FF",
  "uL c #C73A11FF",
  "tl c #C74019FF",
  "py c #C75441FF",
  "i7 c #C83C11FF",
  "u> c #C83C12FF",
  "tV c #C83F17FF",
  "y2 c #C84015FF",
  "yI c #C8411AFF",
  "yO c #C84216FF",
  "t_ c #C84819FF",
  "tT c #C85655FF",
  "y% c #C86C6CFF",
  "tI c #C94318FF",
  "r+ c #C97364FF",
  "e_ c #C98169FD",
  "u} c #CA4012FF",
  "ps c #CA634AFF",
  "y^ c #CB4314FF",
  "u: c #CB6B38FF",
  "tx c #CB6D6CFF",
  "u| c #CC4513FF",
  "uK c #CC4819FF",
  "tP c #CC4C1CFF",
  "tC c #CC5120FF",
  "en c #CCAD5C19",
  "eP c #CCCC6605",
  "i. c #CD4714FF",
  "tr c #CD471BFF",
  "yB c #CD4A17FF",
  "u+ c #CD552EFF",
  "pu c #CD6754FF",
  "pi c #CD6E5AFF",
  "pp c #CD715DFF",
  "uD c #CE4B16FF",
  "yo c #CE5921FF",
  "yw c #CF531CFF",
  "u$ c #CF773CFF",
  "uJ c #D0511AFF",
  "uj c #D05928FF",
  "uF c #D15017FF",
  "uH c #D15117FF",
  "tt c #D15422FF",
  "pa c #D17461FF",
  "uG c #D25318FF",
  "tk c #D25522FF",
  "ty c #D26228FF",
  "tj c #D35E26FF",
  "r> c #D38774FF",
  "ev c #D3B15917",
  "ua c #D45619FF",
  "rR c #D4612DFF",
  "tL c #D46527FF",
  "up c #D5622BFF",
  "us c #D75E1BFF",
  "t4 c #D75F29FF",
  "t$ c #D7652DFF",
  ",M c #D7D7D7FF",
  "ud c #D8611CFF",
  "u% c #D86620FF",
  "th c #D87230FF",
  "rb c #D87859FF",
  "uu c #D97F4EFF",
  "u@ c #D9A16EFF",
  "t% c #DB7736FF",
  "uf c #DC6F2EFF",
  "u& c #DC7024FF",
  "t3 c #DC7233FF",
  "rn c #DE7739FF",
  "yT c #DE7A2BFF",
  "r[ c #DF7939FF",
  "ui c #DF8D57FF",
  "rQ c #DFB057FF",
  "u- c #DFB173FF",
  "u* c #E07427FF",
  "rE c #E0813CFF",
  "t2 c #E0853EFF",
  "rq c #E18B4DFF",
  "r9 c #E19D92FF",
  "uh c #E29359FF",
  "r` c #E2BE5FFF",
  "yR c #E38831FF",
  "u= c #E3883FFF",
  "rH c #E39167FF",
  "ug c #E39758FF",
  "iP c #E3E2E2FF",
  "eQ c #E4B5A1FF",
  "yQ c #E58E38FF",
  "yc c #E5953BFF",
  "rG c #E69047FF",
  "r] c #E69246FF",
  "rW c #E69D4CFF",
  "o_ c #E6E5E5FF",
  "eM c #E6FF800A",
  "yW c #E78E35FF",
  "yE c #E78F34FF",
  "rm c #E89A4CFF",
  "r0 c #E8AB94FF",
  "yv c #E9A644FF",
  "rw c #E9A655FF",
  "rf c #E9B3A3FF",
  "e) c #E9C1ABFF",
  "t] c #E9C75EFF",
  "rs c #EAA05AFF",
  "ym c #EAA240FF",
  "r' c #EAAE56FF",
  "y5 c #EBB14EFF",
  "rF c #EDAD58FF",
  "yn c #EDAE48FF",
  "yb c #EDB048FF",
  "r$ c #EDBA84FF",
  "r# c #EDC1A4FF",
  "em c #EDFF800E",
  "rM c #EEB85DFF",
  "rd c #EEBCA0FF",
  "y9 c #EEBF55FF",
  "ra c #EFB960FF",
  "y6 c #EFC458FF",
  "r% c #F0C175FF",
  "re c #F0C264FF",
  "rD c #F0C866FF",
  "r@ c #F0CCC0FF",
  "t| c #F0D665FF",
  "z_ c #F1C88CFF",
  "r! c #F1D66CFF",
  "tS c #F1DD6CFF",
  "r& c #F2CA71FF",
  "r- c #F2CC7DFF",
  "r; c #F2CEAFFF",
  "r* c #F2CF6CFF",
  "rp c #F2D06CFF",
  "rN c #F2D26CFF",
  "t[ c #F2DC6AFF",
  "tp c #F2E873FF",
  "y8 c #F3CD5DFF",
  "y7 c #F3CE5DFF",
  "rr c #F3D76FFF",
  "e! c #F3D9C9FF",
  "r_ c #F3E172FF",
  "tH c #F3E772FF",
  "r~ c #F3EA76FF",
  "t- c #F3EB76FF",
  "r= c #F4D174FF",
  "rS c #F4DC71FF",
  "t} c #F4E26EFF",
  "rB c #F4E375FF",
  "t{ c #F4E46EFF",
  "rA c #F4EA78FF",
  "tD c #F4EC75FF",
  "t> c #F4F27BFF",
  "r: c #F5D9CCFF",
  "ri c #F5DF74FF",
  "e( c #F5E0D0FF",
  "rt c #F5E376FF",
  "rV c #F5EE7AFF",
  "td c #F5EF78FF",
  "tG c #F5F078FF",
  "r) c #F5F07AFF",
  "tF c #F5F27AFF",
  "ru c #F6E778FF",
  "ry c #F6E878FF",
  "rZ c #F6F17BFF",
  "rC c #F6F27CFF",
  "r^ c #F6F47DFF",
  "ta c #F6F57CFF",
  "r( c #F6F77EFF",
  "ts c #F6F97FFF",
  "r/ c #F7F880FF",
  "t: c #F7F97FFF",
  "t; c #F7FA80FF",
  "e~ c #FAECE2FF",
  "e/ c #FBF0E7FF",
  "e^ c #FCF5EEFF",
  "v4 c #FFFF0001",
  "eB c #FFFF5503",
  "el c #FFFF8002",
  "ez c #FFFF8004",
  "eN c #FFFF8006",
  "ex c #FFFF8008",
  "ec c #FFFF800C",
  "6i c #FFFFAA03",
  "3N c #FFFFFF01",
  "   c none",
  
  // Image data
  "        *R        v4elezexecevebenemeMeNeB3N        =1          ",
  "        eV=e    v4eleCeZeAeSeDeFeGeHeJeKeLeP3N    6:eI          ",
  "      h4eUeY    eTeReEeWeQe!e~e^e/e(e)e_e`e'e]v4  e[e{          ",
  "      e}e|r.rXrorOr+r@r#r$r%r&r*r=r-z_r;r:r>r,r<r1r2J!r3        ",
  "      r4r5r6r7r8r9r0rqrwrerrrtryrurirprarsrdrfrgrhrjrkrl        ",
  "      6irzrxrcrvrbrnrmrMrNrBrVrCrZrArSrDrFrGrHrJagrKrL+n        ",
  "      rPrIrUrYrTrRrErWrQr!r~r^r/r(r)r_r`r'r]r[r{r}r|t.tX        ",
  "      totOt+t@t#t$t%t&t*t=t-r(t;t:t>t,t<t1t2t3t4t5t6t7t8        ",
  "    t9t0tqtwtetrtttytu[5titptatsr(tdtf[5tgthtjtktltztxtctv      ",
  "    tbtntmtMtNtBtVtCtZggtAtStDtFtGtHtJggtKtLtPtItUtYtTtRtE+n    ",
  "  tWtQt!t~t^t/t(t)t_t`JUt't]t[t{t}t|y.JUyXyoyOy+y@y#y$y%y&y*    ",
  "  y=y-y;y:y>y,y<y1y2y3%Jy4y5y6y7y8y9y0%Jyqywyeyrytyyyuyiypya    ",
  "  ysydyfygyhyjykt(ylyz%JyxycyvybynymyM%JyNyByVt(yCyZyAySyDyF    ",
  "  yGyHyJyKqOyLt/yPyIyUFtyYyTyRyEyWyQy!Fty~y^y/y(y)y_qOy`y'y]    ",
  "  y[y{y}y|u.uXuouOu+u@u#u$u%u&u*u*u=u-u;u:u>u,u<u1u2u3u4u5u6u7  ",
  "u8u9u0uquwR7ueurutuyuuuiupuausududufuguhujukuluzuxueucuvubunum  ",
  "  uMuNuBuVuCyAyjt/uZuAuSy^uDuFuGuGuHuJuKuLuPuIuZuUuYuTuRuEuWuQ  ",
  "  u!u~u^u/u(u)u_u`u'u]u[u{u}u|i.i.u|u}iXioiOi+i@i#i$yKi%i&i*    ",
  "  i=i-i;uqi:i>i,i<i1i2i3i4i5i6i7i7i6i8i9i0iqiwieiritiyiuiiip    ",
  "  iaisidifigy|ihijikilizixicu,ivivu,ibinimiMiNiBiViCiZiAiSiD    ",
  "  iFiGiHiJuqiKiLiPiIiUiYiTiRiEiWiQi!i~i^i/i(o_i)i_i`i'i]i[i{    ",
  "    i}i|p.pXpopO,Mp+p@p#p$p%p&p*p=p-p;p:p>p,9mp<p1p2p3p4p5      ",
  "    i{p6p7p8p9p0pqpwpeprptpypupipppapspdpfpgphpjpkplpzpxt9      ",
  "      pcpvpbpnpmpMpNpBpVpCpZpApSpDpFpGpHpJpKpLpPpIpUpYpT        ",
  "      u8pRpEpWpQp!p~p^p/p(p)pJp_p`p'p]p[p{p}p|a.aXaoaOa++n+n    ",
  "    +n*_a@a#a$a%a&a*a=a-a;a:a>a,a<a1a2a3a4a5a6a7a8a9a0$a*`+n    ",
  "  +n*_$p=#aqawaearatayauaiapaaa4asadafahajakalazaxac6O&Z1c*_+n  ",
  "  +n*_1c+rEe=havabanamaMaNaBaVaCaZaAaSaDaFaGaHaJaK=d+g=$+>*`+n  ",
  "  +n*_,D$s=w=d&WaLaPabaIaUaYaTaRaEaWaQa!a~a^a/eq!Oa(=@+r,D*_+n  ",
  "    +n*`$a&Z=@=l*5ewa)a_a`a'a]a[a]a{a}a|s.&~kA=feg=@+r$a*`+n    ",
  "    +n+n*`$p,q@o*'&R*/=0eh&EejsXDykA&+!O[G,W=s=@@o=2,D*_+n+n    ",
  "        +n*T*`*R$a=2&Z[~=@Ee:W+J+J:W*'6O+k&Z=#$a*R*`*T+n        "
};
