/* XPM */
const char *xpm_tango_emotes_face_plain[] = {
  // Header (width height colors chars-per-pixel)
  "32 32 670 2",
  
  // Colors (code mode value)
  "+n c #00000001",
  "*T c #00000002",
  "*_ c #00000003",
  "*` c #00000004",
  "*R c #00000006",
  "$p c #00000007",
  ",D c #00000008",
  "1c c #00000009",
  "$a c #0000000A",
  "+> c #0000000B",
  ",q c #0000000C",
  "=2 c #0000000D",
  "=# c #0000000E",
  "$s c #00000010",
  "&Z c #00000011",
  "+r c #00000012",
  "@o c #00000014",
  "=$ c #00000015",
  "+k c #00000016",
  "[~ c #00000017",
  "6O c #0000001B",
  "=w c #0000001C",
  "=@ c #0000001D",
  "*' c #00000020",
  "+g c #00000021",
  "Ee c #00000022",
  ":W c #00000025",
  "+J c #00000027",
  "=s c #0000002B",
  "eg c #0000002C",
  "a( c #0000002D",
  "&R c #0000002F",
  "=l c #00000035",
  "=d c #00000037",
  ",W c #00000039",
  "*/ c #0000003C",
  "[G c #00000044",
  "=f c #00000046",
  "=0 c #00000048",
  "!O c #00000051",
  "*5 c #00000052",
  "eh c #00000056",
  "&+ c #0000005B",
  "&E c #0000005E",
  "kA c #00000062",
  "ej c #00000064",
  "Dy c #00000067",
  "&W c #0000006B",
  "ew c #0000006F",
  "&~ c #0000007A",
  "eq c #0000007D",
  "%J c #000000FF",
  "ek c #0202006A",
  "JU c #050505FF",
  "Cv c #070502FF",
  "Cm c #070604FF",
  "e- c #09070570",
  "t' c #090807FF",
  "r4 c #090908FF",
  "w' c #0A060350",
  "ee c #0B09048C",
  "CA c #0D0A04FF",
  "CC c #0D0B06FF",
  "ef c #0E090594",
  "CV c #110D05FF",
  "CZ c #121009FF",
  "Ci c #14120CFF",
  "Cs c #14120DFF",
  "Ft c #141414FF",
  "e; c #1510089E",
  "e0 c #171109A7",
  "w` c #24190E47",
  "gg c #252525FF",
  "Ck c #29220FFF",
  "Cz c #2A291BFF",
  "er c #2B2010BA",
  "ed c #2C2010BE",
  "wU c #30251030",
  "CK c #342A10FF",
  "CH c #342D14FF",
  "CG c #36290CFF",
  "CJ c #383116FF",
  "wI c #3B2C1434",
  "e= c #412E16DC",
  "et c #453217E2",
  "w] c #453218D2",
  "Cx c #45402FFF",
  "Cl c #454337FF",
  "es c #463217E4",
  "e9 c #463217E7",
  "e: c #463218E2",
  "wm c #472B1C12",
  "ey c #4D3719F2",
  "ea c #4E381AF2",
  "wM c #4E391C24",
  "w_ c #4F381BE8",
  "eu c #4F391CFB",
  "Cf c #4F4221FF",
  "ep c #503A1CFB",
  "ei c #503A1EFE",
  "wP c #513A1DF1",
  "Ch c #514E38FF",
  "Cj c #52492AFF",
  "e> c #533B1DFC",
  "e* c #533D1DFB",
  "Cg c #535038FF",
  "wn c #543C1CE3",
  "w& c #5540223C",
  "wr c #573E1DB6",
  "e8 c #574023FC",
  "w[ c #583F1DFC",
  "wY c #5B411FDE",
  "C^ c #5B5435FF",
  "C_ c #5C5536FF",
  "qQ c #5D421FD3",
  "wt c #5D46170B",
  "w% c #5E421EF4",
  "qN c #5E43212E",
  "qe c #5F462383",
  "wN c #614623EC",
  "CE c #61501FFF",
  "CY c #625324FF",
  "CU c #634F1FFF",
  "CR c #645929FF",
  "q@ c #664923DA",
  "wy c #674923D8",
  "qM c #674923F2",
  "03 c #684C261B",
  "0U c #694A25F4",
  "q! c #694E272E",
  "e, c #6A4A21FA",
  "wT c #6B481BFA",
  "w* c #6B4D25A5",
  "0k c #6B4D26FA",
  "0l c #6D492407",
  "q~ c #6E4E25F5",
  "9/ c #71551C09",
  "qB c #725127C2",
  "9^ c #725228F9",
  "w) c #734E21FB",
  "qr c #7352291F",
  "02 c #755228F2",
  "9m c #755429F7",
  "qt c #76542BF5",
  "we c #774D1AF7",
  "w= c #77521EF6",
  "q# c #78562B71",
  "e7 c #785830FB",
  "97 c #7A5629DF",
  "x| c #7C5319FB",
  "0Y c #7C572BCA",
  "9X c #7C582B8E",
  "w{ c #7D521BFE",
  "8P c #7D582E37",
  "0z c #7E5B2DE8",
  "x~ c #7F551BFB",
  "04 c #815D2FF9",
  "9) c #846031F7",
  "8d c #855E2DE1",
  "8: c #855F304B",
  "wL c #86581CFD",
  "Z8 c #865D15FF",
  "q$ c #885F29F6",
  "9M c #886231FA",
  "[5 c #888887FF",
  "wb c #89591AFD",
  "Z9 c #8A5F13FF",
  "Z7 c #8A6217FF",
  "9( c #8B5D2E0B",
  "qV c #8B5F21FD",
  "98 c #8B6431EB",
  "qw c #8D5F28F9",
  "7~ c #8D6330C9",
  "7B c #8E68391B",
  "e< c #8F6228FF",
  "8L c #8F6533F2",
  "9o c #8F6631D0",
  "7N c #8F6633ED",
  "e& c #90632BFE",
  "7r c #90663337",
  "8I c #9168367B",
  "8; c #92662EF3",
  "7& c #936C3634",
  "6( c #936C3B1A",
  "Z0 c #946413FF",
  "7e c #946B37F4",
  "Z6 c #956A1AFF",
  "8f c #96693427",
  "7% c #986E39EC",
  "8> c #996D34D2",
  "7^ c #996F373C",
  "qW c #9A6322FE",
  "8g c #9A6F38F3",
  "e6 c #9C7138FF",
  "6/ c #9E723CCB",
  "7/ c #9F7035F4",
  "7V c #9F7036B8",
  "6F c #9F794650",
  "0T c #A06F2FFF",
  "6) c #A0773B2B",
  "Zq c #A16A13FF",
  "7y c #A17338E7",
  "7t c #A1793613",
  "wR c #A2671CFF",
  "6_ c #A27439E7",
  "7* c #A2743A2C",
  "7= c #A2753BF2",
  "q^ c #A3691EFF",
  "Z5 c #A3731EFF",
  "6c c #A4783E46",
  "6H c #A5763BC1",
  "6G c #A6734014",
  "6D c #A67B41E0",
  "e1 c #A77636FF",
  "6v c #A77A3FD9",
  "6p c #A8824D35",
  "x^ c #AA6917FF",
  "ZQ c #AA6B1AFF",
  "xL c #AA6C1DFF",
  "6J c #AB7D3FF3",
  "6a c #AB834B8C",
  "6l c #AB854D95",
  "6^ c #AC8046F3",
  "w} c #AD7329FF",
  "qy c #AD7429FF",
  "e5 c #AE7D41FF",
  "6s c #AF854BDE",
  "6d c #AF8951F6",
  "Z4 c #B07C22FF",
  "6k c #B0894EE1",
  "6z c #B08A583D",
  "ZL c #B26907FF",
  "ZK c #B26A07FF",
  "Zw c #B27114FF",
  "0x c #B27A35FF",
  "8U c #B27A3DF8",
  "6j c #B28B54F7",
  "6f c #B28E58FC",
  "wE c #B46F1CFF",
  "qC c #B46F1EFF",
  "w( c #B47224FF",
  "q+ c #B47732FF",
  "6b c #B48A50F4",
  "6h c #B4915BFC",
  "e2 c #B5803DFF",
  "ZT c #B66305FF",
  "Z! c #B6670DFF",
  "w| c #B67322FF",
  "ZW c #B76304FF",
  "ZA c #B76910FF",
  "q% c #B77323FF",
  "ZP c #B86E0AFF",
  "e% c #B8792CFF",
  "6g c #B8965EF7",
  "wW c #B96403FF",
  "e. c #B96D16FF",
  "ZJ c #B96E09FF",
  "9. c #B97C3DFC",
  "e4 c #B98441FF",
  "6S c #B9915AF4",
  "qu c #BA6505FF",
  "wK c #BB701CFF",
  "w$ c #BB7423FF",
  "eX c #BC6607FF",
  "e$ c #BC721BFF",
  "Z3 c #BC8222FF",
  "e3 c #BD8540FF",
  "Z^ c #BE6E14FF",
  "wv c #BE701AFF",
  "eo c #BF6501FF",
  "e# c #BF6B0DFF",
  "0R c #BF7016FF",
  "7! c #BF8036FB",
  "Cu c #BFA567FF",
  "e@ c #C06603FF",
  "ZH c #C0730BFF",
  "ww c #C07522FF",
  "Cd c #C0AC71FF",
  "eO c #C16500FF",
  "e+ c #C16601FF",
  "ZI c #C1750CFF",
  "7C c #C17E33F9",
  "05 c #C1853EFF",
  "Zz c #C26500FF",
  "Cp c #C2B988FF",
  "Ca c #C2BD90FF",
  "wQ c #C36500FF",
  "Z~ c #C46702FF",
  "wJ c #C56C0BFF",
  "Z2 c #C58520FF",
  "0c c #C66C0CFF",
  "9O c #C68945FF",
  "q& c #C76700FF",
  "ZS c #C86700FF",
  "qm c #C8802FFF",
  "6` c #C88F44F9",
  "6e c #C8AA792A",
  "ZR c #CA6700FF",
  "wc c #CA6903FF",
  "9_ c #CA8C46FF",
  "ZG c #CB770CFF",
  "qE c #CB7920FF",
  "wq c #CC6A04FF",
  "w! c #CD6800FF",
  "w# c #CD700FFF",
  "0I c #CD873CFF",
  "99 c #CD8E48FF",
  "7$ c #CD984FFA",
  "06 c #CE6B05FF",
  "ZU c #CE7D0EFF",
  "Z1 c #CF871DFF",
  "9N c #CF8E48FF",
  "wA c #D06900FF",
  "wH c #D16A00FF",
  "qq c #D17E26FF",
  "8, c #D28B42FF",
  "ha c #D36A00FF",
  "0E c #D46B00FF",
  "w4 c #D47A0BFF",
  "9` c #D56B00FF",
  "qn c #D56D04FF",
  "Ze c #D58312FF",
  "8s c #D5954DFF",
  "ZY c #D6800FFF",
  "Z< c #D68517FF",
  "96 c #D8924CFF",
  "7u c #D89C55FE",
  "wx c #D96C00FF",
  "Zx c #DA6D00FF",
  "qO c #DA7816FF",
  "w~ c #DB6D00FF",
  "ZF c #DB7A09FF",
  "7- c #DBA35FFE",
  "7M c #DBA55FFE",
  "6n c #DBB882FB",
  "qR c #DC6D00FF",
  "9B c #DC7006FF",
  "0j c #DC9347FF",
  "h> c #DD6D00FF",
  "Z, c #DD810EFF",
  "j. c #DE6E00FF",
  "6w c #DEDEA617",
  "w@ c #DF6E00FF",
  "ZD c #DF7505FF",
  "7w c #DFAC6BFE",
  "0v c #E06E00FF",
  "6A c #E0C28FFD",
  "q0 c #E16F00FF",
  "wS c #E17001FF",
  "wz c #E17101FF",
  "07 c #E17201FF",
  "Zr c #E17202FF",
  "qb c #E17302FF",
  "0h c #E17405FF",
  "Z> c #E17E0AFF",
  "jH c #E1800BFF",
  "wD c #E27302FF",
  "0W c #E27303FF",
  "9' c #E27403FF",
  "he c #E27503FF",
  "0< c #E27504FF",
  "0P c #E2750AFF",
  "9V c #E27705FF",
  "Zc c #E27A07FF",
  "jG c #E27B08FF",
  "0b c #E37705FF",
  "0L c #E37805FF",
  "9q c #E37806FF",
  "9@ c #E37906FF",
  "9! c #E37908FF",
  "90 c #E37911FF",
  "8T c #E37A07FF",
  "08 c #E37B07FF",
  "01 c #E3984DFF",
  "0g c #E47B08FF",
  "qo c #E47C08FF",
  "w0 c #E47D08FF",
  "wg c #E47D09FF",
  "9] c #E47E09FF",
  "0, c #E47E0AFF",
  "8j c #E47F11FF",
  "q9 c #E57F0AFF",
  "9C c #E5800BFF",
  "9b c #E58014FF",
  "9Q c #E5810BFF",
  "Zt c #E5810CFF",
  "9w c #E5820CFF",
  "9v c #E5830CFF",
  "9# c #E5830DFF",
  "81 c #E5830EFF",
  "Zv c #E5850FFF",
  "9+ c #E58525FF",
  "6K c #E5BC7EFF",
  "8k c #E6840DFF",
  "8} c #E6850DFF",
  "ZE c #E6850EFF",
  "hH c #E6860EFF",
  "9[ c #E6870FFF",
  "9n c #E69B52FF",
  "C` c #E6BC4BFF",
  "C/ c #E6C351FF",
  "0> c #E7880FFF",
  "h_ c #E78810FF",
  "8J c #E78816FF",
  "Z* c #E78910FF",
  "9Z c #E78A11FF",
  "Zb c #E78B12FF",
  "Zy c #E78B17FF",
  "9e c #E78C12FF",
  "95 c #E78D2BFF",
  "Z: c #E88C12FF",
  "9c c #E88C13FF",
  "9$ c #E88D13FF",
  "8R c #E88E13FF",
  "8l c #E88E14FF",
  "8H c #E88E15FF",
  "8p c #E88F17FF",
  "Zn c #E89015FF",
  "7_ c #E8911FFF",
  "ZZ c #E89219FF",
  "9{ c #E99015FF",
  "82 c #E9901AFF",
  "0: c #E99115FF",
  "Z- c #E99116FF",
  "9A c #E99317FF",
  "9W c #E99417FF",
  "Zl c #E99420FF",
  "8Y c #E99745FF",
  "9~ c #E99E54FF",
  "C~ c #E9CF78FF",
  "ZO c #EA9518FF",
  "9r c #EA9618FF",
  "9x c #EA9619FF",
  "9% c #EA9719FF",
  "7A c #EA972EFF",
  "8{ c #EA981AFF",
  "8E c #EA981BFF",
  "ZC c #EA9821FF",
  "Zm c #EA9822FF",
  "8G c #EA991EFF",
  "Zu c #EA992CFF",
  "8z c #EA9A1FFF",
  "7) c #EA9C3EFF",
  "6~ c #EAC691FF",
  "Z= c #EB991AFF",
  "9} c #EB991BFF",
  "0; c #EB9A1BFF",
  "Z; c #EB9B1CFF",
  "ZV c #EB9C26FF",
  "83 c #EB9E28FF",
  "8| c #EBA04DFF",
  "6r c #EBD69919",
  "C) c #EBDA80FF",
  "9E c #EC9D1DFF",
  "Z+ c #EC9E1EFF",
  "lR c #EC9F1FFF",
  "ZB c #EC9F2EFF",
  "9z c #ECA01FFF",
  "0( c #ECA11FFF",
  "ZM c #ECA131FF",
  "CD c #ECA221FF",
  "ZN c #ECA233FF",
  "Zk c #ECA339FF",
  "8< c #ECA557FF",
  "8h c #ECA661FF",
  "7( c #ECAB64FF",
  "hj c #EDA120FF",
  "94 c #EDA121FF",
  "q< c #EDA321FF",
  "8[ c #EDA322FF",
  "CN c #EDA323FF",
  "8F c #EDA425FF",
  "8* c #EDA437FF",
  "8= c #EDA443FF",
  "7` c #EDA539FF",
  "8x c #EDA627FF",
  "7S c #EDA946FF",
  "7p c #EDAA4AFF",
  "Ct c #EDDDADFF",
  "Cy c #EDE3B8FF",
  "0) c #EEA623FF",
  "q3 c #EEA723FF",
  "hh c #EEA824FF",
  "84 c #EEA931FF",
  "8i c #EEA933FF",
  "Zi c #EEA946FF",
  "8a c #EEAD5EFF",
  "Zj c #EEB154FF",
  "CQ c #EFA926FF",
  "Z@ c #EFA928FF",
  "0_ c #EFAA26FF",
  "0] c #EFAB26FF",
  "CP c #EFAC28FF",
  "0V c #EFAD27FF",
  "CF c #EFAD2AFF",
  "C] c #EFAD31FF",
  "Z# c #EFAF2CFF",
  "CI c #EFAF30FF",
  "Cc c #EFB135FF",
  "8K c #EFB26FFF",
  "CM c #EFBB40FF",
  "0` c #F0AE28FF",
  "Z& c #F0AE29FF",
  "0' c #F0AF29FF",
  "C' c #F0AF2AFF",
  "8] c #F0AF2CFF",
  "CB c #F0B02FFF",
  "8D c #F0B030FF",
  "7' c #F0B34AFF",
  "8& c #F0B34CFF",
  "85 c #F0B63FFF",
  "Zp c #F0B75FFF",
  "8- c #F0B875FF",
  "0C c #F1B22AFF",
  "0S c #F1B22BFF",
  "CW c #F1B42DFF",
  "8u c #F1B43AFF",
  "0Z c #F1B62DFF",
  "Z% c #F1B631FF",
  "C! c #F1B640FF",
  "7W c #F1BB61FF",
  "7D c #F1BC62FF",
  "0A c #F2B72EFF",
  "CL c #F2B832FF",
  "0r c #F2B930FF",
  "Z$ c #F2BC34FF",
  "Zo c #F2BC3EFF",
  "Zh c #F2BC66FF",
  "8% c #F2BD54FF",
  "7a c #F2BD6AFF",
  "7] c #F2BE54FF",
  "7Z c #F2BE82FF",
  "7i c #F2C082FF",
  "CS c #F3BC39FF",
  "0t c #F3BD33FF",
  "7n c #F3BD6AFF",
  "0u c #F3BE33FF",
  "Za c #F3C173FF",
  "C} c #F3C342FF",
  "8y c #F3C34AFF",
  "Zg c #F3C376FF",
  "7: c #F3C580FF",
  "0y c #F4C034FF",
  "0O c #F4C137FF",
  "Zs c #F4C881FF",
  "7Q c #F4C890FF",
  "7F c #F4C976FF",
  "C[ c #F4CA60FF",
  "Zf c #F4CA83FF",
  "6m c #F4DDB7FF",
  "0+ c #F5C63BFF",
  "8$ c #F5C85EFF",
  "7E c #F5C975FF",
  "7m c #F5CB91FF",
  "7> c #F5CD88FF",
  "Zd c #F5CD89FF",
  "6' c #F5D2A0FF",
  "0# c #F6C93CFF",
  "0@ c #F6CA3BFF",
  "9J c #F6CA41FF",
  "C| c #F6CC48FF",
  "7b c #F6CE88FF",
  "7s c #F6D18CFF",
  "7; c #F6D3A4FF",
  "6[ c #F6D599FF",
  "6Z c #F6E4C2FF",
  "Cb c #F6EA98FF",
  "C{ c #F7D166FF",
  "7R c #F7D382FF",
  "9p c #F7D450FF",
  "70 c #F7D59EFF",
  "Z. c #F7D869FF",
  "9K c #F8D146FF",
  "ZX c #F8D56AFF",
  "7v c #F8DCA0FF",
  "79 c #F8DCA5FF",
  "6] c #F8DCB0FF",
  "7d c #F8DEA2FF",
  "7q c #F8DEB7FF",
  "7, c #F8DFACFF",
  "7# c #F8DFB7FF",
  "9L c #F9D449FF",
  "C( c #F9D85BFF",
  "9a c #F9DC5AFF",
  "CT c #F9DD5EFF",
  "9- c #F9DE67FF",
  "7+ c #F9E3B6FF",
  "6{ c #F9E5B8FF",
  "7c c #F9E7B2FF",
  "6P c #FAE7C3FF",
  "7@ c #FAE7C4FF",
  "8~ c #FAE882FF",
  "78 c #FAE9C1FF",
  "6I c #FAE9C2FF",
  "6L c #FAE9CDFF",
  "9d c #FBDF5EFF",
  "9s c #FBE05FFF",
  "9, c #FBE670FF",
  "9; c #FBE774FF",
  "7< c #FBECC5FF",
  "8) c #FBEF8CFF",
  "7O c #FBEFCEFF",
  "6Q c #FBEFD4FF",
  "6M c #FBEFD8FF",
  "Cn c #FBF4A3FF",
  "8+ c #FBF4AEFF",
  "8w c #FBF8B5FF",
  "89 c #FBFABBFF",
  "8O c #FBFABEFF",
  "7I c #FBFBC6FF",
  "9> c #FCEC79FF",
  "9: c #FCEC7BFF",
  "6U c #FCEECCFF",
  "8^ c #FCF092FF",
  "6W c #FCF0D2FF",
  "6! c #FCF0DBFF",
  "6} c #FCF1D3FF",
  "7g c #FCF3C8FF",
  "77 c #FCF3D4FF",
  "6E c #FCF3DAFF",
  "6C c #FCF3DFFF",
  "71 c #FCF4D7FF",
  "6Y c #FCF4D8FF",
  "8M c #FCF6AAFF",
  "7| c #FCF7B8FF",
  "3R c #FCF7CFFF",
  "O~ c #FCF8C1FF",
  "8. c #FCFCC2FF",
  "7K c #FCFCCAFF",
  "8X c #FCFDC7FF",
  "7P c #FCFDCCFF",
  "8( c #FDF597FF",
  "8/ c #FDF599FF",
  "6T c #FDF6DFFF",
  "6R c #FDF6E1FF",
  "7o c #FDF7E1FF",
  "76 c #FDF8DFFF",
  "6| c #FDF8E3FF",
  "6N c #FDF8EBFF",
  "8B c #FDF9AFFF",
  "8N c #FDF9B0FF",
  "7h c #FDF9D3FF",
  "72 c #FDF9E1FF",
  "8q c #FDFBBEFF",
  "7z c #FDFBD7FF",
  "75 c #FDFBE6FF",
  "80 c #FDFCC0FF",
  "7j c #FDFCD9FF",
  "8o c #FDFDC6FF",
  "7L c #FDFDCEFF",
  "7l c #FDFDDAFF",
  "7k c #FDFDDBFF",
  "ky c #FDFDE9FF",
  "6V c #FEF9F0FF",
  "7. c #FEFBEDFF",
  "6B c #FEFBF5FF",
  "73 c #FEFCE7FF",
  "7X c #FEFCF1FF",
  "74 c #FEFDEAFF",
  "6x c #FFCC9905",
  "6i c #FFFFAA03",
  "69 c #FFFFBF04",
  "60 c #FFFFBF08",
  "6t c #FFFFC80E",
  "6y c #FFFFCC0A",
  "6u c #FFFFD506",
  "6q c #FFFFD50C",
  "3N c #FFFFFF01",
  ":C c #FFFFFF02",
  "   c none",
  
  // Image data
  "                  3N:C69606q6w6e6r6t6y6u6i3N                    ",
  "                3N:C6p6a6s6d6f6g6h6j6k6l6z6x3N                  ",
  "                6c6v6b6n6m6M6N6B6V6C6Z6A6S6D6F3N                ",
  "            6G6H6J6K6L6P6I6U6Y6T6R6E6W6Q6!6~6^6/6(              ",
  "          6)6_6`6'6]6[6{6}6|7.7X7X7.7o7O7+7@7#7$7%7&            ",
  "        7*7=7-7;7:7>7,7<71727374ky7576777879707q7w7e7r          ",
  "      7t7y7u7i7p7a7s7dCt7g7h7j7k7l7z3RCy7c7v7b7n7m7M7N7B        ",
  "      7V7C7Z7A7S7D7FCuCiCpO~7K7L7P7ICaCsCd7R7E7W7S7Q7!7~        ",
  "    7^7/7(7)7_7`7'7]Cf[5Cg7|8.8X8o8OCh[5Cj8$8%8&8*8=8-8;8:      ",
  "    8>8,8<8182838485CkggCl8+89808q8wCzggCx8y8u8i838p8a8s8d+n    ",
  "  8f8g8h8j8k8l8z8xCcCvJUr4Cb8M8N8BCnCmJUt'CM8D8F8G8H8J8K8L8P    ",
  "  8I8U8Y8T8k8R8ECNCBCV%JCC8~8^8/8(8)CZ%JCACS8]8[8{8l8}8|9.9X    ",
  "  9o9O9+9@9#9$9%CDCFCG%JCH9-9;9:9>9,CJ%JCKCLCP948{8R8k959697    ",
  "  9899909q9w9e9rlRCICUFtCY9p9a9s9dCTCRFtCECWCQ9z9x9c9v9b9n9m    ",
  "  9M9N9B9V9C9Z9A9EC!C~C^C/9J9K9L9LC(C)C_C`C'q39E9W9Z9Q9!9~9^9/  ",
  "9(9)9_9`9'9]9[9{9}C]C[C{C}0O0+0@0#C|Z.ZXZo0]q<0;0:0>0,0<010203  ",
  "  04050607088k9$ZOZ+Z@Z#CW0r0t0y0y0uZ$Z%Z&0)Z+9x9$8k0g0h0j0k0l  ",
  "  0z0x0c0v0b9CZ*0:Z=9zq30V0C0Z0A0A0Z0S0Vhh0(9}Z-Z*9Q0L0P0I0U    ",
  "  0Y0T0R0E0Wqo8k9e9A0;0(0)0_0`0'0'0`0]0)hjZ;9WZ:8}qo9'qOq+q@    ",
  "  q#q$q%q&q00bZ>Z,Z<Z1Z2Z3Z4Z5Z6Z7Z8Z9Z0ZqZwZe9[q90Lq0qqqwqe    ",
  "  qrqtqyquhaZr8TZtZyZuZiZpZaZsZdZfZgZhZjZkZlh_9Q8TqbqnqmqMqN    ",
  "    qBqVqCZzZx9'Zc9CZvZbZnZmZMZNZBZVZCZZ9e9[9Q089'qRqEqWqQ      ",
  "    q!q~q^ZAZSj.ZDZFw4ZGZHZJZKZLZPZIZUZYZ,jHjG9'w@w#w$w%w&      ",
  "      w*w=xLZTZRh>wD9qqo9C9vZEhHhHZE9v9Cw09q0Ww@wqwwwewr        ",
  "      wtwyx~x^ZWZSwxwzhe9q08w0wgwgw0089q0<wzwxwcwvwbwnwm+n+n    ",
  "    +n*_wMwNx|ZQZ!ZzwAqRwSwD9'0<0<9'wDwSh>wHwJwKwLwPwI$a*`+n    ",
  "  +n*_$p=#wUwYwTwRwEwWwQw!0Ewxw~w~wx0Ew!Z~Z^w(w)w_w`6O&Z1c*_+n  ",
  "  +n*_1c+rEew'w]w[w{w}w|e.eXeoeOe+e@e#e$e%e&e*e=e-=d+g=$+>*`+n  ",
  "  +n*_,D$s=w=d&We;e:e>e,e<e1e2e3e4e5e6e7e8e9e0eq!Oa(=@+r,D*_+n  ",
  "    +n*`$a&Z=@=l*5eweeereteyeueiepeaesedef&~kA=feg=@+r$a*`+n    ",
  "    +n+n*`$p,q@o*'&R*/=0eh&EejekDykA&+!O[G,W=s=@@o=2,D*_+n+n    ",
  "        +n*T*`*R$a=2&Z[~=@Ee:W+J+J:W*'6O+k&Z=#$a*R*`*T+n        "
};
