/* XPM */
const char *xpm_tango_emotes_face_kiss[] = {
  // Header (width height colors chars-per-pixel)
  "32 32 425 2",
  
  // Colors (code mode value)
  "+n c #00000001",
  "*T c #00000002",
  "*_ c #00000003",
  "*` c #00000004",
  "=1 c #00000005",
  "*R c #00000006",
  "$p c #00000007",
  ",D c #00000008",
  "$a c #0000000A",
  "+> c #0000000B",
  ",q c #0000000C",
  "=2 c #0000000D",
  "=# c #0000000E",
  ":l c #0000000F",
  "$s c #00000010",
  "&Z c #00000011",
  "+r c #00000012",
  "$w c #00000013",
  "+k c #00000016",
  "[~ c #00000017",
  ":5 c #00000018",
  "$^ c #00000019",
  "=w c #0000001C",
  "9b c #0000001E",
  "=k c #0000001F",
  "*' c #00000020",
  "+g c #00000021",
  "%h c #0E0E0024",
  "m- c #0F0F0021",
  "mw c #1812002A",
  "m4 c #1B140026",
  "m= c #554C0536",
  "vs c #5B5C55FF",
  "vy c #5B5D57FF",
  "vA c #5C5D55FF",
  "m@ c #5E530531",
  "vb c #5F6059FF",
  "vd c #626357FF",
  "vt c #65665CFF",
  "vf c #676857FF",
  "vr c #67685DFF",
  "vw c #6B6B5BFF",
  "mq c #6E630864",
  "vh c #6F6B54FF",
  "m5 c #70650862",
  "vS c #727157FF",
  "vv c #727361FF",
  "va c #7A7963FF",
  "vu c #7B7B6CFF",
  "m+ c #7D6D083F",
  "vM c #7F7F70FF",
  "cz c #80800004",
  "m3 c #81740880",
  "n| c #8473093C",
  "m; c #8576087D",
  "vB c #87866EFF",
  "n} c #9180091E",
  "m0 c #92810CB0",
  "vZ c #929066FF",
  "m6 c #94820CAE",
  "vn c #95947DFF",
  "cZ c #9988091E",
  "cd c #9A8C0B47",
  "bj c #9C8C0AFF",
  "m9 c #9D8C0AFD",
  "m* c #9D8C0DDD",
  "cj c #9D8D0BFD",
  "cY c #9E8A0A32",
  "vK c #9E8B0B44",
  "m7 c #9E8B0CE2",
  "m8 c #9E8C0CF3",
  "m# c #9E8C0DDC",
  "m: c #9E8C0DF1",
  "vz c #9E8D0C57",
  "cx c #9E8D0C69",
  "v9 c #9E900C57",
  "m. c #9F8E0EF0",
  "bh c #A08E0CEF",
  "b7 c #A08F0DEF",
  "cC c #A08F0EEE",
  "ch c #A08F0EF0",
  "cc c #A0900FEE",
  "c` c #A18E091B",
  "b$ c #A18F0D9B",
  "cU c #A1900DD8",
  "c_ c #A1900FEE",
  "v_ c #A1910F9B",
  "cA c #A1910FD8",
  "cT c #A19210EE",
  "n{ c #A28E0FEB",
  "cl c #A28F0E9F",
  "nQ c #A28F0FEA",
  "v& c #A2900FEA",
  "cf c #A290109F",
  "vx c #A2910EE6",
  "c' c #A29211EA",
  "vJ c #A38F0CE6",
  "v8 c #A38F0DD0",
  "b6 c #A38F0DDA",
  "b~ c #A3900EDA",
  "b% c #A3900FDA",
  "ck c #A39210DB",
  "v* c #A39211D0",
  "cg c #A39310DB",
  "R7 c #A40000FF",
  "b[ c #A60303FF",
  "b| c #A70101FF",
  "nz c #A80803FF",
  "nB c #A90B04FF",
  "nU c #AA0F05FF",
  "cs c #AA800006",
  "nZ c #AB0803FF",
  "n= c #AB0905FF",
  "bu c #AB110AFF",
  "bL c #AC0B06FF",
  "nY c #AC1307FF",
  "y> c #AD0100FF",
  "nI c #AE1B09FF",
  "bR c #AF0A05FF",
  "ne c #AF1A0CFF",
  "np c #B01009FF",
  "by c #B01C13FF",
  "vg c #B1A65DFF",
  "bv c #B21410FF",
  "nT c #B32B0EFF",
  "b} c #B4100FFF",
  "ve c #B6B07FFF",
  "nV c #B70301FF",
  "bP c #B70505FF",
  "b' c #B70807FF",
  "vV c #B8B380FF",
  "8w c #B90000FF",
  "nl c #B90402FF",
  "bV c #B9371DFF",
  "n2 c #BA3816FF",
  "bY c #BB0808FF",
  "m> c #BBA43AF5",
  "be c #BC412FFF",
  "nP c #BC4A19FF",
  "vL c #BCAE3FF1",
  "v2 c #BCB364FF",
  "v) c #BDA638F1",
  "n6 c #BDA739F1",
  "cV c #BDAD41F2",
  "cv c #BDB044F2",
  "vm c #BDBBA0FF",
  "nC c #BE0000FF",
  "bT c #BE0101FF",
  "b{ c #BE2323FF",
  "0) c #BF0000FF",
  "b] c #C01B1BFF",
  "n1 c #C11E1DFF",
  "m$ c #C1A941F7",
  "cS c #C1B44FF5",
  "cI c #C2B047F5",
  "v0 c #C2B346F2",
  "v: c #C2BD86FF",
  "8G c #C30000FF",
  "nk c #C35724FF",
  "nb c #C3A83AF2",
  "vl c #C3A93AF2",
  "bU c #C40F0FFF",
  "b` c #C4572CFF",
  "9f c #C50000FF",
  "9d c #C60000FF",
  "bt c #C65D3FFF",
  "98 c #C70000FF",
  "bI c #C70F0FFF",
  "nA c #C75A1DFF",
  "bB c #CB3D3CFF",
  "nR c #CB6F22FF",
  "oG c #CC0000FF",
  "y+ c #CC0202FF",
  "bw c #CD7052FF",
  "bc c #CD714AFF",
  "br c #CD7450FF",
  "bm c #CE5050FF",
  "t[ c #D01313FF",
  "bE c #D17935FF",
  "v; c #D1CA86FF",
  "bn c #D24E4EFF",
  "bM c #D25B5BFF",
  "v3 c #D2C05FFF",
  "bb c #D64444FF",
  "bK c #D78F53FF",
  "n` c #D79C2FFF",
  "vc c #D7CF87FF",
  "n- c #D83232FF",
  "vD c #D8C15AFF",
  "nr c #DA3939FF",
  "ni c #DB3E3EFF",
  "nL c #DB9B36FF",
  "n* c #DB9B4AFF",
  "n' c #DB9D2FFF",
  "bN c #DF6A6AFF",
  "na c #DF9135FF",
  "n_ c #DFA332FF",
  "vi c #E0DBAAFF",
  "nt c #E15656FF",
  "cB c #E1D484FE",
  "cb c #E1D88CFE",
  "nu c #E25959FF",
  "v` c #E2D381FE",
  "cR c #E2D98FFD",
  "c) c #E3CF81FD",
  "v= c #E3D98AFC",
  "n; c #E46262FF",
  "ny c #E46363FF",
  "n] c #E4A431FF",
  "nN c #E4AE42FF",
  "m, c #E4C674FE",
  "n@ c #E4C976FE",
  "n< c #E56464FF",
  "n. c #E59D3DFF",
  "v5 c #E5C557FF",
  "b# c #E5C672FE",
  "mX c #E5C879FD",
  "v- c #E5DA85FF",
  "n: c #E67F7FFF",
  "nG c #E6C674FC",
  "v7 c #E6C977FC",
  "vp c #E8E19EFF",
  "n) c #EBAC36FF",
  "n& c #EBC65AFF",
  "n> c #ED9E9EFF",
  "bi c #EDCE6CFF",
  "c] c #EDE5A5FF",
  "b_ c #EECF61FF",
  "v% c #EED894FF",
  "n% c #EFC958FF",
  "n! c #F0D28DFF",
  "n, c #F19494FF",
  "nE c #F1AD34FF",
  "vC c #F2E88FFF",
  "b& c #F3E6ABFF",
  "cN c #F3EBB1FF",
  "9W c #F3ECB7FF",
  "b^ c #F4DFA4FF",
  "cP c #F4E7AEFF",
  "0T c #F4EDAEFF",
  "e7 c #F4EDBAFF",
  "n[ c #F5B035FF",
  "nx c #F5B73EFF",
  "nw c #F5DE62FF",
  "b5 c #F6DA9DFF",
  "m< c #F6DA9FFF",
  "m% c #F6DBA1FF",
  "b< c #F6E265FF",
  "bO c #F6E467FF",
  "v@ c #F6E568FF",
  "bz c #F6E669FF",
  "4/ c #F6E76BFF",
  "^3 c #F6E76CFF",
  "5I c #F6E76DFF",
  "4K c #F6E870FF",
  "b, c #F6E872FF",
  "5C c #F6E873FF",
  "bo c #F6E975FF",
  "c^ c #F6E976FF",
  "vq c #F6EB86FF",
  ":W c #F6F1C6FF",
  "nK c #F7BF42FF",
  "bl c #F7DD62FF",
  "bp c #F7DF62FF",
  "bJ c #F7E062FF",
  "b) c #F7E164FF",
  "b* c #F7E87DFF",
  "5; c #F7E977FF",
  "4c c #F7E978FF",
  "5M c #F7E979FF",
  "v1 c #F7EA7AFF",
  "b0 c #F7EA7DFF",
  "c~ c #F7EA7FFF",
  "4H c #F7EA80FF",
  "v! c #F7EA84FF",
  "5R c #F7EB81FF",
  "4z c #F7EB82FF",
  "bX c #F7EB83FF",
  "cJ c #F7EB88FF",
  "nj c #F8D457FF",
  "b1 c #F8D85AFF",
  "nv c #F8D899FF",
  "b( c #F8D95BFF",
  "vH c #F8D99AFF",
  "v~ c #F8DA5CFF",
  "bH c #F8DA64FF",
  "bC c #F8DB5DFF",
  "nq c #F8DC5EFF",
  "v# c #F8DC63FF",
  "b9 c #F8E36DFF",
  "cH c #F8EB84FF",
  "^( c #F8EC86FF",
  "5| c #F8EC87FF",
  "c! c #F8EC88FF",
  "v+ c #F8EC8AFF",
  "cG c #F8EC8DFF",
  "bx c #F8ED8CFF",
  "b> c #F8ED8DFF",
  "5+ c #F8ED8FFF",
  "3) c #F8ED90FF",
  "c{ c #F8EE91FF",
  "cM c #F8F2C3FF",
  "cn c #F8F3C6FF",
  "n( c #F9B538FF",
  "n3 c #F9C448FF",
  "vj c #F9CD54FF",
  "n$ c #F9D153FF",
  "nh c #F9D253FF",
  "ba c #F9D557FF",
  "n0 c #F9D658FF",
  "c/ c #F9E683FF",
  "b8 c #F9ECBBFF",
  "b. c #F9EE91FF",
  "cQ c #F9EE93FF",
  "cW c #F9EE94FF",
  "5! c #F9EE95FF",
  "v' c #F9EE99FF",
  "c} c #F9EF96FF",
  "vI c #F9EF97FF",
  "cF c #F9EF98FF",
  "cK c #F9EF9AFF",
  "vO c #F9F09CFF",
  "vQ c #F9F0A0FF",
  "bW c #FACC4DFF",
  "ng c #FACD4EFF",
  "b2 c #FACD4FFF",
  "vF c #FACF50FF",
  "v^ c #FACF51FF",
  "n9 c #FAD052FF",
  "bZ c #FAD153FF",
  "bG c #FAE9B8FF",
  "c| c #FAF09DFF",
  "7Z c #FAF09EFF",
  "v| c #FAF09FFF",
  "cE c #FAF0A3FF",
  "vo c #FAF1A1FF",
  "v. c #FAF1A2FF",
  "vX c #FAF1A3FF",
  "vU c #FAF1A5FF",
  "bq c #FAF1A9FF",
  "b: c #FAF2A7FF",
  "v< c #FAF2A8FF",
  "cD c #FAF2ACFF",
  "4B c #FAF3B9FF",
  "bA c #FBC748FF",
  "n8 c #FBC94AFF",
  "bs c #FBCB4CFF",
  "b/ c #FBD76BFF",
  "bg c #FBE1AFFF",
  "m1 c #FBE1B0FF",
  "cL c #FBF1B9FF",
  "v> c #FBF2AAFF",
  "b= c #FBF2ABFF",
  "v} c #FBF3ADFF",
  "7M c #FBF3AFFF",
  "8@ c #FBF3B0FF",
  "v, c #FBF4B2FF",
  ",< c #FBF4B3FF",
  "vY c #FBF4B4FF",
  "b- c #FBF4B6FF",
  "vP c #FBF4B9FF",
  "c[ c #FBF5BEFF",
  "3* c #FBF5C2FF",
  "vT c #FBF6C2FF",
  "4! c #FBF6C7FF",
  "cm c #FBF7D0FF",
  "nS c #FCB637FF",
  "bQ c #FCC243FF",
  "b3 c #FCC343FF",
  "nM c #FCC344FF",
  "b+ c #FCC445FF",
  "v/ c #FCC545FF",
  "nX c #FCC647FF",
  "n# c #FCDA83FF",
  "v6 c #FCE29EFF",
  "v$ c #FCE7A5FF",
  "bk c #FCF0C7FF",
  "vN c #FCF5BBFF",
  "vW c #FCF6BEFF",
  "v] c #FCF6BFFF",
  "b; c #FCF6C0FF",
  "l* c #FCF7CBFF",
  "bS c #FDBD3DFF",
  "no c #FDBD3EFF",
  "bd c #FDC041FF",
  "nm c #FDC043FF",
  "ns c #FDC142FF",
  "nf c #FDCC62FF",
  "vG c #FDCE65FF",
  "c( c #FDEEBAFF",
  "v{ c #FDF7C7FF",
  "w0 c #FDF8CBFF",
  "v[ c #FDF9CFFF",
  "n4 c #FEB737FF",
  "n/ c #FEB838FF",
  "b! c #FEB939FF",
  "nJ c #FEBA3BFF",
  "b4 c #FEC255FF",
  "b@ c #FECF78FF",
  "n7 c #FEE2A6FF",
  "vk c #FEE4ACFF",
  "m2 c #FEE7BCFF",
  "bF c #FEE8BEFF",
  "vR c #FEF9D2FF",
  "vE c #FEFBDBFF",
  "nO c #FFB737FF",
  "nW c #FFB839FF",
  "bD c #FFB83AFF",
  "nD c #FFB93CFF",
  "n^ c #FFBA3EFF",
  "bf c #FFBC44FF",
  "n+ c #FFC154FF",
  "nc c #FFC35AFF",
  "mO c #FFC762FF",
  "n5 c #FFCE77FF",
  "nH c #FFD894FF",
  "n~ c #FFD997FF",
  "nd c #FFDDA1FF",
  "v( c #FFDFA2FF",
  "m& c #FFDFA5FF",
  "nF c #FFDFA6FF",
  "nn c #FFE0A7FF",
  "mo c #FFE1ACFF",
  "v4 c #FFFF0001",
  "   c none",
  
  // Image data
  "                                                                ",
  "                                                                ",
  "                                                                ",
  "                      cscdcfcgchcjchckclcdcs                    ",
  "                  czcxcccvcb9WcncmcMcNcBcVcCcxcz                ",
  "                cZcAcSe74!cDcFcG4zcHcJcKcLcPcIcUcZ              ",
  "              cYcTcRl*cE3)cW5!cQ5+c!c~c^4/c/c(c)c_cY            ",
  "            c`c'c]c[c{c}c|v.vXvovOcWv+c~5Cv@v#v$v%v&c`          ",
  "          v4v*v=4Bv-v;v:v>8@v,7Mv<7ZcQ5|v1v2v3v5v6v7v8v4        ",
  "          v9v03*vqvwvevrvtvyvuvi,<vpvavsvdvfvgvhvjvkvlvz        ",
  "        czvx0T5+5|vcvvvbvn:WvmvMvNvBvVvCvZvAvSvDvFvGvHvJcz      ",
  "        vKvLvP5Mc!vIvUvYvTvRvEl*vW7MvQcQv!c^v@v~v^v/v(v)vK      ",
  "        v_v`v'4c^(5!vXv,v]w0v[v{vNv}v|b.bXbobOv~vFb+b@b#b$      ",
  "        b%b&b*bobXb.7Zb=b-vWb;vNv,b:cKb>4Hb,b<b1b2b3b4b5b6      ",
  "        b7b8b94Kb0v+c}vobqbwR7bebrbtbybubi5Ibpbabsbdbfbgbh      ",
  "        bjbkblbzbo5Rbx5!bcbvbbbnbmbMbNbBbVbObCbZbAbSbDbFbj      ",
  "        b7bGbHbJ^35;5RbKbL0)8wbPbIbUbYbTbRbEbabWbQb!bfbgbh      ",
  "        b~b^b/b(b)b_b`R7R7y>b'b]R7b[b{b}b|R7n.nXnonOn+b5b6      ",
  "        b$n@n#n$b(n%n&n*n=y+n-n;n:n>n,n<n1n2n3bdn4nOn5b#b$      ",
  "        vKn6n7n8n9n0nqnwne9ft[nrntnynuninpnansb!nOnOndv)vK      ",
  "        czvJvHnfbAngnhnjnknloGoGoGoGoG98nznxb!nOnOncnvvJcz      ",
  "          vznbnnnmnMbAbsnNnBnV8G9d9fnCnZnAnSnOnOnDnFnbvz        ",
  "          v4v8nGnHnJbSbdnKnLnPnInUnYnTnRnEnOnOnWnHnGv8v4        ",
  "            c`nQn!n~n^nOn/n(n)n_n`n'n]n[nOnOn^n~n!n{n}          ",
  "          *T$pn|m.mXmomOnOnOnOnOnOnOnOnOnOmOmomXm.m++>$p*T      ",
  "        *T$p,q&Zm@m#m$m%m&n5n+bfnWbfn+n5m&m%m$m*m=+k&Z,q$p+n    ",
  "        *_,D=2+r[~m-m;m:m>m,m<m1m2m1m<m,m>m:m3%h=w[~+r=2,D+n    ",
  "          =1$a:l$w:5=wm4m5m6m7m8m9m8m7m0mqmw+g=w:5$w=#$a*T      ",
  "            *T*R+>:l$w+k$^=w9b=k*'*'=k9b=w$^+k$w:l$a*`          ",
  "                  +n*`$p$a=2:l$s$s$s$s:l+>,D=1*T                ",
  "                                                                ",
  "                                                                "
};
