/* XPM */
const char *xpm_tango_emotes_face_crying[] = {
  // Header (width height colors chars-per-pixel)
  "32 32 715 2",
  
  // Colors (code mode value)
  "+n c #00000001",
  "*T c #00000002",
  "*_ c #00000003",
  "*` c #00000004",
  "*R c #00000006",
  "$p c #00000007",
  ",D c #00000008",
  "1c c #00000009",
  "$a c #0000000A",
  "+> c #0000000B",
  ",q c #0000000C",
  "=2 c #0000000D",
  "=# c #0000000E",
  "$s c #00000010",
  "&Z c #00000011",
  "+r c #00000012",
  "@o c #00000014",
  "=$ c #00000015",
  "+k c #00000016",
  "[~ c #00000017",
  "6O c #0000001B",
  "=w c #0000001C",
  "=@ c #0000001D",
  "*' c #00000020",
  "+g c #00000021",
  "Ee c #00000022",
  ":W c #00000025",
  "+J c #00000027",
  "=s c #0000002B",
  "eg c #0000002C",
  "rF c #0000002D",
  "&R c #0000002F",
  "=l c #00000035",
  "=d c #00000037",
  ",W c #00000039",
  "*/ c #0000003C",
  "[G c #00000044",
  "=f c #00000046",
  "=0 c #00000048",
  "!O c #00000051",
  "*5 c #00000052",
  "eh c #00000056",
  "&+ c #0000005B",
  "&E c #0000005E",
  "kA c #00000062",
  "ej c #00000064",
  "Dy c #00000067",
  "&W c #0000006B",
  "ew c #0000006F",
  "&~ c #0000007A",
  "eq c #0000007D",
  "%J c #000000FF",
  "ek c #0202006A",
  "c> c #040404FF",
  "e- c #09070570",
  "w' c #0A060350",
  "ee c #0B09048C",
  "ef c #0E090594",
  "8` c #100F09FF",
  "8b c #141209FF",
  "e; c #1510089E",
  "e0 c #171109A7",
  "8Z c #201E11FF",
  "w` c #24190E47",
  "er c #2B2010BA",
  "ed c #2C2010BE",
  "q/ c #2D5083FF",
  "q. c #2D5185FF",
  "q7 c #2F5284FF",
  "wU c #30251030",
  "wi c #305589FF",
  "`{ c #313131FF",
  "q` c #34507CFF",
  "0{ c #34598AFF",
  "q6 c #355482FF",
  "92 c #383939FF",
  "wI c #3B2C1434",
  "w< c #3B5277FF",
  "w- c #3B557CFF",
  "0J c #3B577EFF",
  "qF c #3E5374FF",
  "e= c #412E16DC",
  "qZ c #415476FF",
  "ws c #445F88FF",
  "et c #453217E2",
  "w] c #453218D2",
  "es c #463217E4",
  "e9 c #463217E7",
  "e: c #463218E2",
  "wm c #472B1C12",
  "9* c #484538FF",
  ":- c #4C4C4CFF",
  "ey c #4D3719F2",
  "ea c #4E381AF2",
  "wM c #4E391C24",
  "wC c #4E566AFF",
  "w_ c #4F381BE8",
  "eu c #4F391CFB",
  "wp c #4F79AFFF",
  "ep c #503A1CFB",
  "ei c #503A1EFE",
  "wP c #513A1DF1",
  "91 c #524E33FF",
  "0/ c #525F6FFF",
  "ql c #53380BFF",
  "e> c #533B1DFC",
  "e* c #533D1DFB",
  "wn c #543C1CE3",
  "q= c #545B6EFF",
  "qp c #5476A7FF",
  "w& c #5540223C",
  "qf c #555D6BFF",
  "wr c #573E1DB6",
  "e8 c #574023FC",
  "w[ c #583F1DFC",
  "qk c #5A3C0BFF",
  "q> c #5A6168FF",
  "wY c #5B411FDE",
  "qz c #5C3E0CFF",
  "0~ c #5C7CA7FF",
  "qQ c #5D421FD3",
  "wt c #5D46170B",
  "0= c #5D85B6FF",
  "wa c #5D89BCFF",
  "w% c #5E421EF4",
  "qN c #5E43212E",
  "qe c #5F462383",
  "wu c #5F5141FC",
  "0d c #607AA1FF",
  "0F c #6089BCFF",
  "wN c #614623EC",
  "wV c #615C5AFF",
  "0p c #636F73FF",
  "0N c #64727FFF",
  "00 c #647484FF",
  "q- c #6585B2FF",
  "q@ c #664923DA",
  "8A c #665626FF",
  "wy c #674923D8",
  "qM c #674923F2",
  "wB c #675133FC",
  "03 c #684C261B",
  "0U c #694A25F4",
  "q! c #694E272E",
  "e, c #6A4A21FA",
  "wT c #6B481BFA",
  "w* c #6B4D25A5",
  "0k c #6B4D26FA",
  "0D c #6C706AFF",
  "0l c #6D492407",
  "0} c #6D98C9FF",
  "q~ c #6E4E25F5",
  "0M c #6E92C0FF",
  "0. c #6E99CBFF",
  "9T c #6F93B8FF",
  "9k c #70818DFF",
  "0q c #708EAFFF",
  "9/ c #71551C09",
  "qB c #725127C2",
  "9^ c #725228F9",
  "0| c #729BCBFF",
  "w) c #734E21FB",
  "qr c #7352291F",
  "8Q c #736030FF",
  "0! c #73675BFF",
  "w; c #749BCAFF",
  "02 c #755228F2",
  "9m c #755429F7",
  "qt c #76542BF5",
  "8v c #765F25FF",
  "w, c #76A1CEFF",
  "we c #774D1AF7",
  "w= c #77521EF6",
  "qj c #784F0EFF",
  "q# c #78562B71",
  "e7 c #785830FB",
  "qi c #785C4AFF",
  "0m c #796F60FF",
  "97 c #7A5629DF",
  "0* c #7A9FCDFF",
  "qG c #7C4C0DFF",
  "0Y c #7C572BCA",
  "9X c #7C582B8E",
  "8' c #7C652BFF",
  "w{ c #7D521BFE",
  "8P c #7D582E37",
  "87 c #7D6F3CFF",
  "0a c #7DA0CCFF",
  "0z c #7E5B2DE8",
  "9j c #808587FF",
  "q: c #80A2CDFF",
  "04 c #815D2FF9",
  "wd c #816045FF",
  "qx c #825610FF",
  "qU c #825A20FF",
  "wZ c #825C35FF",
  "8r c #837847FF",
  "9Y c #83A9CEFF",
  "9) c #846031F7",
  "8d c #855E2DE1",
  "8: c #855F304B",
  "9y c #858474FF",
  "qY c #86540EFF",
  "wL c #86581CFD",
  "9| c #868472FF",
  "*. c #868783FF",
  "qd c #86A6D1FF",
  "0& c #87876DFF",
  "q$ c #885F29F6",
  "9M c #886231FA",
  "wb c #89591AFD",
  "9( c #8B5D2E0B",
  "qV c #8B5F21FD",
  "98 c #8B6431EB",
  "qw c #8D5F28F9",
  "7~ c #8D6330C9",
  "7B c #8E68391B",
  "e< c #8F6228FF",
  "8L c #8F6533F2",
  "9o c #8F6631D0",
  "7N c #8F6633ED",
  "e& c #90632BFE",
  "7r c #90663337",
  "8I c #9168367B",
  "8; c #92662EF3",
  "7& c #936C3634",
  "6( c #936C3B1A",
  "9F c #93B1C8FF",
  "7e c #946B37F4",
  "qD c #94B1DAFF",
  "0^ c #95B4DDFF",
  "qH c #966520FF",
  "8f c #96693427",
  "0X c #968B62FF",
  "q_ c #96B6DEFF",
  "7% c #986E39EC",
  "9u c #989674FF",
  "8> c #996D34D2",
  "7^ c #996F373C",
  "9G c #999675FF",
  "qW c #9A6322FE",
  "8g c #9A6F38F3",
  "9D c #9B9A84FF",
  "e6 c #9C7138FF",
  "6/ c #9E723CCB",
  "7/ c #9F7035F4",
  "7V c #9F7036B8",
  "6F c #9F794650",
  "0T c #A06F2FFF",
  "6) c #A0773B2B",
  "7y c #A17338E7",
  "7t c #A1793613",
  "wR c #A2671CFF",
  "6_ c #A27439E7",
  "7* c #A2743A2C",
  "7= c #A2753BF2",
  "q^ c #A3691EFF",
  "qJ c #A47739FF",
  "6c c #A4783E46",
  "0- c #A48446FF",
  "6H c #A5763BC1",
  "6G c #A6734014",
  "6D c #A67B41E0",
  "e1 c #A77636FF",
  "6v c #A77A3FD9",
  "q5 c #A8803FFF",
  "6p c #A8824D35",
  "q8 c #AB7534FF",
  "6J c #AB7D3FF3",
  "qI c #AB7F3FFF",
  "6a c #AB834B8C",
  "6l c #AB854D95",
  "6^ c #AC8046F3",
  "w} c #AD7329FF",
  "qy c #AD7429FF",
  "0w c #AD8E46FF",
  "e5 c #AE7D41FF",
  "qA c #AEC2DFFF",
  "w> c #AEC6E8FF",
  "qh c #AF7113FF",
  "6s c #AF854BDE",
  "6d c #AF8951F6",
  "9U c #AFA66DFF",
  "6k c #B0894EE1",
  "6z c #B08A583D",
  "0x c #B27A35FF",
  "8U c #B27A3DF8",
  "6j c #B28B54F7",
  "6f c #B28E58FC",
  "0H c #B2C6E5FF",
  "0s c #B3C9E7FF",
  "wE c #B46F1CFF",
  "qC c #B46F1EFF",
  "w( c #B47224FF",
  "q+ c #B47732FF",
  "6b c #B48A50F4",
  "6h c #B4915BFC",
  "e2 c #B5803DFF",
  "q; c #B5CAEBFF",
  "w| c #B67322FF",
  "q% c #B77323FF",
  "w: c #B7CDEAFF",
  "e% c #B8792CFF",
  "6g c #B8965EF7",
  "wW c #B96403FF",
  "e. c #B96D16FF",
  "9. c #B97C3DFC",
  "e4 c #B98441FF",
  "6S c #B9915AF4",
  "qu c #BA6505FF",
  "qK c #BA9258FF",
  "wK c #BB701CFF",
  "w$ c #BB7423FF",
  "eX c #BC6607FF",
  "e$ c #BC721BFF",
  "w/ c #BD6E14FF",
  "e3 c #BD8540FF",
  "9h c #BDB06BFF",
  "wv c #BE701AFF",
  "9& c #BE984CFF",
  "qs c #BED1EEFF",
  "eo c #BF6501FF",
  "e# c #BF6B0DFF",
  "0R c #BF7016FF",
  "7! c #BF8036FB",
  "q( c #BFD3ECFF",
  "e@ c #C06603FF",
  "ww c #C07522FF",
  "q{ c #C07817FF",
  "qc c #C07E17FF",
  "eO c #C16500FF",
  "e+ c #C16601FF",
  "q} c #C17712FF",
  "7C c #C17E33F9",
  "05 c #C1853EFF",
  "wQ c #C36500FF",
  "w^ c #C36702FF",
  "wJ c #C56C0BFF",
  "0c c #C66C0CFF",
  "9O c #C68945FF",
  "0[ c #C69436FF",
  "q& c #C76700FF",
  "0f c #C7892DFF",
  "q[ c #C87E1DFF",
  "qm c #C8802FFF",
  "6` c #C88F44F9",
  "6e c #C8AA792A",
  "wO c #C97612FF",
  "wc c #CA6903FF",
  "9_ c #CA8C46FF",
  "qE c #CB7920FF",
  "93 c #CBA042FF",
  "wq c #CC6A04FF",
  "q| c #CC8017FF",
  "qa c #CCD9F3FF",
  "w! c #CD6800FF",
  "w# c #CD700FFF",
  "w6 c #CD7A0BFF",
  "0I c #CD873CFF",
  "99 c #CD8E48FF",
  "7$ c #CD984FFA",
  "06 c #CE6B05FF",
  "9N c #CF8E48FF",
  "wA c #D06900FF",
  "w5 c #D0790BFF",
  "9R c #D09A32FF",
  "wH c #D16A00FF",
  "qq c #D17E26FF",
  "0G c #D1DEF6FF",
  "8, c #D28B42FF",
  "q] c #D3851FFF",
  "0B c #D39B30FF",
  "qP c #D3A663FF",
  "qL c #D3AD76FF",
  "0E c #D46B00FF",
  "w4 c #D47A0BFF",
  "w7 c #D47E0EFF",
  "9` c #D56B00FF",
  "qn c #D56D04FF",
  "w3 c #D57A0AFF",
  "8s c #D5954DFF",
  "w2 c #D77B0BFF",
  "96 c #D8924CFF",
  "7u c #D89C55FE",
  "wx c #D96C00FF",
  "w1 c #D97B0AFF",
  "qO c #DA7816FF",
  "q' c #DA871EFF",
  "w~ c #DB6D00FF",
  "7- c #DBA35FFE",
  "7M c #DBA55FFE",
  "6n c #DBB882FB",
  "qR c #DC6D00FF",
  "9B c #DC7006FF",
  "0j c #DC9347FF",
  "wG c #DD6F00FF",
  "w+ c #DD7B0AFF",
  "wj c #DD7C08FF",
  "q* c #DE6E03FF",
  "wk c #DE7C08FF",
  "w8 c #DE820DFF",
  "qT c #DE8711FF",
  "qg c #DE8C15FF",
  "w. c #DE8F24FF",
  "6w c #DEDEA617",
  "w@ c #DF6E00FF",
  "wf c #DF7504FF",
  "wh c #DF7B08FF",
  "7w c #DFAC6BFE",
  "0v c #E06E00FF",
  "0Q c #E07B0BFF",
  "9l c #E0A535FF",
  "6A c #E0C28FFD",
  "q0 c #E16F00FF",
  "wS c #E17001FF",
  "wz c #E17101FF",
  "wF c #E17102FF",
  "07 c #E17201FF",
  "qb c #E17302FF",
  "0h c #E17405FF",
  "wl c #E17A07FF",
  "09 c #E1921DFF",
  "wD c #E27302FF",
  "0W c #E27303FF",
  "9' c #E27403FF",
  "0< c #E27504FF",
  "0P c #E2750AFF",
  "9V c #E27705FF",
  "0b c #E37705FF",
  "0L c #E37805FF",
  "9q c #E37806FF",
  "9@ c #E37906FF",
  "9! c #E37908FF",
  "90 c #E37911FF",
  "8T c #E37A07FF",
  "08 c #E37B07FF",
  "qX c #E3840FFF",
  "0K c #E38713FF",
  "01 c #E3984DFF",
  "0g c #E47B08FF",
  "qo c #E47C08FF",
  "w0 c #E47D08FF",
  "wg c #E47D09FF",
  "9] c #E47E09FF",
  "0, c #E47E0AFF",
  "8j c #E47F11FF",
  "w9 c #E4800AFF",
  "q9 c #E57F0AFF",
  "9C c #E5800BFF",
  "9b c #E58014FF",
  "9Q c #E5810BFF",
  "9w c #E5820CFF",
  "9v c #E5830CFF",
  "9# c #E5830DFF",
  "81 c #E5830EFF",
  "9+ c #E58525FF",
  "wo c #E59229FF",
  "6K c #E5BC7EFF",
  "8k c #E6840DFF",
  "8} c #E6850DFF",
  "9[ c #E6870FFF",
  "0n c #E68810FF",
  "9n c #E69B52FF",
  "9t c #E6A734FF",
  "0> c #E7880FFF",
  "8J c #E78816FF",
  "9Z c #E78A11FF",
  "9e c #E78C12FF",
  "95 c #E78D2BFF",
  "wX c #E7972DFF",
  "qS c #E7EDF9FF",
  "q) c #E7EEF9FF",
  "9c c #E88C13FF",
  "9$ c #E88D13FF",
  "8R c #E88E13FF",
  "8l c #E88E14FF",
  "8H c #E88E15FF",
  "8p c #E88F17FF",
  "7_ c #E8911FFF",
  "qv c #E8961AFF",
  "8W c #E8A227FF",
  "q2 c #E8A322FF",
  "9{ c #E99015FF",
  "82 c #E9901AFF",
  "0: c #E99115FF",
  "9A c #E99317FF",
  "9W c #E99417FF",
  "8Y c #E99745FF",
  "9~ c #E99E54FF",
  "9r c #EA9618FF",
  "9x c #EA9619FF",
  "9% c #EA9719FF",
  "7A c #EA972EFF",
  "8{ c #EA981AFF",
  "8E c #EA981BFF",
  "8G c #EA991EFF",
  "8z c #EA9A1FFF",
  "7) c #EA9C3EFF",
  "6~ c #EAC691FF",
  "8t c #EACA63FF",
  "9} c #EB991BFF",
  "0; c #EB9A1BFF",
  "83 c #EB9E28FF",
  "8| c #EBA04DFF",
  "6r c #EBD69919",
  "9E c #EC9D1DFF",
  "q, c #EC9F1EFF",
  "9S c #EC9F22FF",
  "9z c #ECA01FFF",
  "0( c #ECA11FFF",
  "8< c #ECA557FF",
  "8h c #ECA661FF",
  "7( c #ECAB64FF",
  "94 c #EDA121FF",
  "q< c #EDA321FF",
  "8[ c #EDA322FF",
  "q1 c #EDA422FF",
  "8F c #EDA425FF",
  "8* c #EDA437FF",
  "8= c #EDA443FF",
  "7` c #EDA539FF",
  "8x c #EDA627FF",
  "7S c #EDA946FF",
  "7p c #EDAA4AFF",
  "86 c #EDC255FF",
  "q4 c #EEA522FF",
  "0) c #EEA623FF",
  "q3 c #EEA723FF",
  "84 c #EEA931FF",
  "8i c #EEA933FF",
  "8a c #EEAD5EFF",
  "0_ c #EFAA26FF",
  "0] c #EFAB26FF",
  "0V c #EFAD27FF",
  "8K c #EFB26FFF",
  "0` c #F0AE28FF",
  "0' c #F0AF29FF",
  "8] c #F0AF2CFF",
  "8D c #F0B030FF",
  "8c c #F0B235FF",
  "7' c #F0B34AFF",
  "8& c #F0B34CFF",
  "85 c #F0B63FFF",
  "8- c #F0B875FF",
  "0C c #F1B22AFF",
  "0S c #F1B22BFF",
  "0e c #F1B42CFF",
  "8u c #F1B43AFF",
  "0Z c #F1B62DFF",
  "7W c #F1BB61FF",
  "7D c #F1BC62FF",
  "0A c #F2B72EFF",
  "0r c #F2B930FF",
  "0i c #F2BA30FF",
  "0o c #F2BB30FF",
  "8% c #F2BD54FF",
  "7a c #F2BD6AFF",
  "7] c #F2BE54FF",
  "7Z c #F2BE82FF",
  "7i c #F2C082FF",
  "8! c #F2D76AFF",
  "0t c #F3BD33FF",
  "7n c #F3BD6AFF",
  "0u c #F3BE33FF",
  "9H c #F3C239FF",
  "8y c #F3C34AFF",
  "7: c #F3C580FF",
  "8S c #F4BF41FF",
  "0y c #F4C034FF",
  "0O c #F4C137FF",
  "0% c #F4C236FF",
  "7Q c #F4C890FF",
  "7F c #F4C976FF",
  "6m c #F4DDB7FF",
  "0$ c #F5C63AFF",
  "0+ c #F5C63BFF",
  "8$ c #F5C85EFF",
  "7E c #F5C975FF",
  "7m c #F5CB91FF",
  "7> c #F5CD88FF",
  "7[ c #F5CE66FF",
  "6' c #F5D2A0FF",
  "0# c #F6C93CFF",
  "0@ c #F6CA3BFF",
  "9I c #F6CA3FFF",
  "9J c #F6CA41FF",
  "9i c #F6CA45FF",
  "7b c #F6CE88FF",
  "7s c #F6D18CFF",
  "7; c #F6D3A4FF",
  "6[ c #F6D599FF",
  "8# c #F6D876FF",
  "6Z c #F6E4C2FF",
  "9= c #F7D356FF",
  "7R c #F7D382FF",
  "9p c #F7D450FF",
  "9g c #F7D451FF",
  "70 c #F7D59EFF",
  "7G c #F7D685FF",
  "8n c #F7E283FF",
  "9P c #F8D045FF",
  "9K c #F8D146FF",
  "7v c #F8DCA0FF",
  "79 c #F8DCA5FF",
  "6] c #F8DCB0FF",
  "9< c #F8DE61FF",
  "7d c #F8DEA2FF",
  "7q c #F8DEB7FF",
  "7{ c #F8DF85FF",
  "7T c #F8DF92FF",
  "7, c #F8DFACFF",
  "7# c #F8DFB7FF",
  "9L c #F9D449FF",
  "9f c #F9DB57FF",
  "9a c #F9DC5AFF",
  "9- c #F9DE67FF",
  "7+ c #F9E3B6FF",
  "7H c #F9E49AFF",
  "6{ c #F9E5B8FF",
  "7c c #F9E7B2FF",
  "8@ c #F9E994FF",
  "7} c #F9EEA1FF",
  "8_ c #FAE67AFF",
  "6P c #FAE7C3FF",
  "7@ c #FAE7C4FF",
  "8~ c #FAE882FF",
  "78 c #FAE9C1FF",
  "6I c #FAE9C2FF",
  "6L c #FAE9CDFF",
  "88 c #FAEA97FF",
  "7Y c #FAEBA6FF",
  "8C c #FAEC91FF",
  "9d c #FBDF5EFF",
  "9s c #FBE05FFF",
  "9, c #FBE670FF",
  "9; c #FBE774FF",
  "7f c #FBEAB7FF",
  "7< c #FBECC5FF",
  "8) c #FBEF8CFF",
  "8m c #FBEF9BFF",
  "7J c #FBEFB0FF",
  "7O c #FBEFCEFF",
  "6Q c #FBEFD4FF",
  "6M c #FBEFD8FF",
  "7x c #FBF0C3FF",
  "8e c #FBF1A3FF",
  "8+ c #FBF4AEFF",
  "7U c #FBF5BAFF",
  "8w c #FBF8B5FF",
  "89 c #FBFABBFF",
  "8O c #FBFABEFF",
  "7I c #FBFBC6FF",
  "9> c #FCEC79FF",
  "9: c #FCEC7BFF",
  "6U c #FCEECCFF",
  "8^ c #FCF092FF",
  "6W c #FCF0D2FF",
  "6! c #FCF0DBFF",
  "6} c #FCF1D3FF",
  "7g c #FCF3C8FF",
  "77 c #FCF3D4FF",
  "6E c #FCF3DAFF",
  "6C c #FCF3DFFF",
  "71 c #FCF4D7FF",
  "6Y c #FCF4D8FF",
  "8V c #FCF5A4FF",
  "8M c #FCF6AAFF",
  "7| c #FCF7B8FF",
  "3R c #FCF7CFFF",
  "O~ c #FCF8C1FF",
  "8. c #FCFCC2FF",
  "7K c #FCFCCAFF",
  "8X c #FCFDC7FF",
  "7P c #FCFDCCFF",
  "8( c #FDF597FF",
  "8/ c #FDF599FF",
  "6T c #FDF6DFFF",
  "6R c #FDF6E1FF",
  "7o c #FDF7E1FF",
  "76 c #FDF8DFFF",
  "6| c #FDF8E3FF",
  "6N c #FDF8EBFF",
  "8B c #FDF9AFFF",
  "8N c #FDF9B0FF",
  "7h c #FDF9D3FF",
  "72 c #FDF9E1FF",
  "8q c #FDFBBEFF",
  "7z c #FDFBD7FF",
  "75 c #FDFBE6FF",
  "80 c #FDFCC0FF",
  "7j c #FDFCD9FF",
  "8o c #FDFDC6FF",
  "7L c #FDFDCEFF",
  "7l c #FDFDDAFF",
  "7k c #FDFDDBFF",
  "ky c #FDFDE9FF",
  "6V c #FEF9F0FF",
  "7. c #FEFBEDFF",
  "6B c #FEFBF5FF",
  "73 c #FEFCE7FF",
  "7X c #FEFCF1FF",
  "74 c #FEFDEAFF",
  "H- c #FEFFFFFF",
  "6x c #FFCC9905",
  "6i c #FFFFAA03",
  "69 c #FFFFBF04",
  "60 c #FFFFBF08",
  "6t c #FFFFC80E",
  "6y c #FFFFCC0A",
  "6u c #FFFFD506",
  "6q c #FFFFD50C",
  "3N c #FFFFFF01",
  ":C c #FFFFFF02",
  "1U c #FFFFFFFF",
  "   c none",
  
  // Image data
  "                  3N:C69606q6w6e6r6t6y6u6i3N                    ",
  "                3N:C6p6a6s6d6f6g6h6j6k6l6z6x3N                  ",
  "                6c6v6b6n6m6M6N6B6V6C6Z6A6S6D6F3N                ",
  "            6G6H6J6K6L6P6I6U6Y6T6R6E6W6Q6!6~6^6/6(              ",
  "          6)6_6`6'6]6[6{6}6|7.7X7X7.7o7O7+7@7#7$7%7&            ",
  "        7*7=7-7;7:7>7,7<71727374ky7576777879707q7w7e7r          ",
  "      7t7y7u7i7p7a7s7d7f7g7h7j7k7l7z3R7x7c7v7b7n7m7M7N7B        ",
  "      7V7C7Z7A7S7D7F7G7H7JO~7K7L7P7I7U7Y7T7R7E7W7S7Q7!7~        ",
  "    7^7/7(7)7_7`7'7]7[7{7}7|8.8X8o8O8+8@8#8$8%8&8*8=8-8;8:      ",
  "    8>8,8<81828384858687888+89808q8w8e8r8t8y8u8i838p8a8s8d+n    ",
  "  8f8g8h8j8k8l8z8x8c8v8b8n8m8M8N8B8V8C8Z8A8S8D8F8G8H8J8K8L8P    ",
  "  8I8U8Y8T8k8R8E8W8Q%Jc>8!8~8^8/8(8)8_8`%J8'8]8[8{8l8}8|9.9X    ",
  "  9o9O9+9@9#9$9%9&`{:-9*9=9-9;9:9>9,9<91:-9293948{8R8k959697    ",
  "  9899909q9w9e9r9t9y*.9u9i9p9a9s9d9f9g9h9j9k9l9z9x9c9v9b9n9m    ",
  "  9M9N9B9V9C9Z9A9S9D9F9G9H9J9K9L9L9P9I9U9Y9T9R9E9W9Z9Q9!9~9^9/  ",
  "9(9)9_9`9'9]9[9{9}9|0.0X0o0O0+0@0#0$0%0&0*0=0-0;0:0>0,0<010203  ",
  "  04050607088k9$09000q0w0e0r0t0y0y0u0i0p0a0s0d0f9$8k0g0h0j0k0l  ",
  "  0z0x0c0v0b9C0n0m0M0N0B0V0C0Z0A0A0Z0S0D0F0G0H0J0K9Q0L0P0I0U    ",
  "  0Y0T0R0E0W0Q0!0~0^0/0(0)0_0`0'0'0`0]0[0{0}0|q.qXqo9'qOq+q@    ",
  "  q#q$q%q&q*q=q-q;q:q>0;q,q<q1q2q3q4q<q,q5q6q7q8q90Lq0qqqwqe    ",
  "  qrqtqyquqiqpqaqsqdqfqgqhqjqkqlqzqxqcqv9A8R0>9Q8TqbqnqmqMqN    ",
  "    qBqVqCqZqAH-qSqDqFqGqHqJqKqLqPqIqUqYqT9[9Q089'qRqEqWqQ      ",
  "    q!q~q^q/q(1Uq)q_q`q'q]q[q{q}q|w.wXwowOw+8T9'w@w#w$w%w&      ",
  "      w*w=w-w;w:w>w,w<w1w2w3w4w5w6w7w8w9w09q0Ww@wqwwwewr        ",
  "      wtwywuwiwpwawswdwf9q08w0wgwhwjwkwl0<wzwxwcwvwbwnwm+n+n    ",
  "    +n*_wMwNwBwVwCwZwAqRwSwD9'0<0<9'qbwFwGwHwJwKwLwPwI$a*`+n    ",
  "  +n*_$p=#wUwYwTwRwEwWwQw!0Ewxw~w~wx0Ew!w^w/w(w)w_w`6O&Z1c*_+n  ",
  "  +n*_1c+rEew'w]w[w{w}w|e.eXeoeOe+e@e#e$e%e&e*e=e-=d+g=$+>*`+n  ",
  "  +n*_,D$s=w=d&We;e:e>e,e<e1e2e3e4e5e6e7e8e9e0eq!OrF=@+r,D*_+n  ",
  "    +n*`$a&Z=@=l*5eweeereteyeueiepeaesedef&~kA=feg=@+r$a*`+n    ",
  "    +n+n*`$p,q@o*'&R*/=0eh&EejekDykA&+!O[G,W=s=@@o=2,D*_+n+n    ",
  "        +n*T*`*R$a=2&Z[~=@Ee:W+J+J:W*'6O+k&Z=#$a*R*`*T+n        "
};
