/* XPM */
const char *xpm_tango_emblems_emblem_readonly[] = {
  // Header (width height colors chars-per-pixel)
  "32 32 114 2",
  
  // Colors (code mode value)
  "+n c #00000001",
  "*` c #00000004",
  "*R c #00000006",
  "$p c #00000007",
  "$a c #0000000A",
  "+> c #0000000B",
  ",q c #0000000C",
  "=2 c #0000000D",
  "=# c #0000000E",
  "$s c #00000010",
  "&Z c #00000011",
  "+k c #00000016",
  "*' c #00000020",
  "+g c #00000021",
  "+J c #00000027",
  "rn c #0000002A",
  "=s c #0000002B",
  "rF c #0000002D",
  ":d c #00000030",
  ":s c #00000031",
  "<. c #22222235",
  "<o c #28282847",
  "+l c #37373733",
  ",J c #3C3C3C1E",
  "<X c #8A8A8ABE",
  "+z c #8F8F8FB8",
  ",{ c #939393A6",
  "JA c #9595950C",
  "+j c #9B9B9BEB",
  "+x c #9B9B9BF6",
  "<= c #9B9B9BFF",
  "JB c #9C9C9C12",
  ",] c #9C9C9C9D",
  ",} c #9D9D9DE9",
  ",' c #9D9D9DF3",
  "+c c #9D9D9DF6",
  "JJ c #9E9E9EF2",
  ",Q c #9F9F9FA4",
  "JZ c #9F9F9FE4",
  "JG c #A0A0A099",
  "1< c #A6A7A4FF",
  ",^ c #A7A7A5FF",
  "L` c #A7A8A5FF",
  "LR c #A8A9A6FF",
  "2u c #A9AAA7FF",
  "4Q c #AAABA8FF",
  "]i c #ABACA9FF",
  "(s c #ABACAAFF",
  ",) c #ACACAAFF",
  "qV c #ACADABFF",
  "hi c #AEAFADFF",
  "hp c #AFB0AEFF",
  "j9 c #B0B1AFFF",
  "t= c #B6B7B4FF",
  ",~ c #B7B8B6FF",
  ",/ c #B8B8B6FF",
  "|; c #BBBCBAFF",
  "Bv c #BDBDBBFF",
  "32 c #BEBFBDFF",
  ",` c #C8C9C7FF",
  "ks c #C9CAC8FF",
  "6H c #CACAC9FF",
  "tX c #CACBC9FF",
  "3; c #CBCBCAFF",
  "B< c #CCCDCCFF",
  ",( c #CECECDFF",
  ",! c #D3D3D3F9",
  "JC c #D4D4D4FB",
  "#0 c #D5D5D4FF",
  "K. c #D6D6D6FA",
  "6f c #D7D7D6FF",
  ",[ c #D7D7D7FA",
  ",M c #D7D7D7FF",
  "K@ c #D8D8D8FC",
  ",B c #D8D8D8FF",
  "%! c #D9D9D8FF",
  ",| c #D9D9D9FC",
  "t5 c #DBDBDAFF",
  ",_ c #DCDCDCFF",
  "rH c #DFDFDEFF",
  "={ c #DFDFDFFF",
  "yy c #DFE0DFFF",
  "+A c #E2E2E2FF",
  "+S c #E3E3E3FF",
  "&I c #E4E4E4FF",
  ";3 c #E5E5E5FF",
  ";b c #E6E6E6FF",
  ";G c #E7E7E7FF",
  "Ba c #E7E8E7FF",
  ":# c #E8E8E8FF",
  ":2 c #E9E9E9FF",
  ",$ c #EAEAEAFF",
  ":, c #EBEBEBFF",
  ":> c #ECECECFF",
  ";9 c #EDEDEDFF",
  ":< c #EEEEEEFF",
  ";A c #EFEFEFFF",
  ";T c #F0F0F0FF",
  ";` c #F1F1F1FF",
  ";' c #F2F2F2FF",
  ":O c #F3F3F3FF",
  ":3 c #F4F4F4FF",
  "=a c #F5F5F5FF",
  "+W c #F6F6F6FF",
  ":9 c #F7F7F7FF",
  ";R c #F8F8F8FF",
  ":v c #F9F9F9FF",
  ":5 c #FAFAFAFF",
  ";Q c #FBFBFBFF",
  ";7 c #FCFCFCFF",
  "=q c #FDFDFDFF",
  "=w c #FEFEFEFF",
  "1U c #FFFFFFFF",
  "   c none",
  
  // Image data
  "                                                                ",
  "                                                                ",
  "      JB,QJJ<=<=<=<=<=<=<=<=<=<=<=<=<=<=<=<=<=<=<=<=JJ,QJB      ",
  "    JAJZJC:v1U1U1U1U1U1U1U1U1U1U1U1U1U1U1U1U1U1U1U1U:vJCJZJA    ",
  "    JG,!:v;G+A+A+S+S&I&I&I&I;3;3;3;3;3&I&I&I&I+S+S+A:#:v,!JG    ",
  "    JJ:v;G+A+S+S&I&I;3;3;b;b;b;b;b;b;b;b;b;3;3&I&I+S+S;G:vJJ    ",
  "    <=1U+S+S&I;3;3;b;b;b;G;G;G;G;G;G;G;G;G;b;b;b;3;3&I+S1U<=    ",
  "    <=1U&I;3;3;b;b;G;G:#:#:#:#:2:2:2:#:#:#:#;G;G;b;b;3;31U<=    ",
  "    <=1U;3;b;b;G;G:#:#:2BaB<,~(s,^hi,/,(Ba:2:#:#;G;G;b;b1U<=    ",
  "    <=1U;b;G;G:#:2:2,$:2|;1<1<hpt=j91<1<Bv:2,$:2:2:#;G;G1U<=    ",
  "    <=1U;G:#:#:2,$,$:,%!1<,),_:>:>:>rHqV1<,B:,,$,$:2:#:#1U<=    ",
  "    <=1U:#:2:2,$:,:,:>ksL`,`;9:<:<:<;93;L`6H:>:,:,,$:2:21U<=    ",
  "    <=1U:2,$,$:,:>;9;9,`L`#0;A;A;A;A;A,ML`,`;9;9:>:,,$,$1U<=    ",
  "    <=1U,$:,:,:>;9:<:<ksL`6f;T;T;T;T;Tt5L`ks:<:<;9:>:,:,1U<=    ",
  "    <=1U,$:,:>;9:<;Ayy32L`,`%!%!%!%!%!tXL`32={;A:<;9:>:,1U<=    ",
  "    <=1U:,:>;9:<;A;T2uLRLRLRLRLRLRLRLRLRLRLR2u;T;A:<;9:>1U<=    ",
  "    <=1U:>;9:<;A;T;`LRLRLRLR2u2u2u2u2uLRLRLRLR;`;T;A:<;91U<=    ",
  "    <=1U;9:<;A;T;`;'LRLR2u2u2u2u2u2u2u2u2uLRLR;';`;T;A:<1U<=    ",
  "    <=1U;9:<;T;`;':OLR2u2u2u2u2u4Q2u2u2u2u2uLR:O;';`;T:<1U<=    ",
  "    <=1U:<;A;T;`;':O2u2u2u4Q4Q4Q4Q4Q4Q4Q2u2u2u:O;';`;T;A1U<=    ",
  "    <=1U:<;T;`;':O:32u2u4Q4Q4Q4Q4Q4Q4Q4Q4Q2u2u:3:O;';`;T1U<=    ",
  "    <=1U;A;T;`;':3=a2u4Q4Q4Q4Q4Q4Q4Q4Q4Q4Q4Q2u=a:3;';`;T1U<=    ",
  "    <=1U;A;T;`:O:3=at=4Q4Q4Q]i]i]i]i]i4Q4Q4Qt==a:3:O;`;T1U<=    ",
  "    <=1U;A;T;':O:3=a:9;R:v:5;Q;7=q;7;Q:5:v;R:9=a:3:O;';T1U<=    ",
  "    <=1U;A;`;':O:3+W:9;R:v;Q;7=q=w=q;7;Q:v;R:9+W:3:O;';`1U<=    ",
  "    <=1U;A;`;':O:3+W:9;R:v;Q;7=q=w=q;7;Q:v;R:9+W:3:O;';`1U<=    ",
  "    JJ;Q;';T;':O:3=a:9;R:v:5;Q;7;7;7;Q:5:v;R:9=a:3:O;':O;Q,'    ",
  "    ,]K.;7:O;`:O:3=a+W:9;R:v:5;Q;Q;Q:5:v;R:9+W=a:3:O:3;7,[,{=2  ",
  "    ,J,}K@;Q1U1U1U1U1U1U1U1U1U1U1U1U1U1U1U1U1U1U1U1U;Q,|+j<.+k  ",
  "    $s+l+z+x<=<=<=<=<=<=<=<=<=<=<=<=<=<=<=<=<=<=<=<=+c<X<o+J=#  ",
  "    +n&Z*'rn:d:s:s:s:s:s:s:s:s:s:s:s:s:s:s:s:s:s:s:srF=s+g,q    ",
  "        +n*R$a+>+>+>+>+>+>+>+>+>+>+>+>+>+>+>+>+>+>+>$p*`        "
};
