/* XPM */
const char *xpm_tango_emblems_emblem_symbolic_link[] = {
  // Header (width height colors chars-per-pixel)
  "32 32 116 2",
  
  // Colors (code mode value)
  "+n c #00000001",
  "*` c #00000004",
  "*R c #00000006",
  "$p c #00000007",
  "$a c #0000000A",
  "+> c #0000000B",
  ",q c #0000000C",
  "=2 c #0000000D",
  "=# c #0000000E",
  "$s c #00000010",
  "&Z c #00000011",
  "+k c #00000016",
  "*' c #00000020",
  "+g c #00000021",
  "+J c #00000027",
  "rn c #0000002A",
  "=s c #0000002B",
  "rF c #0000002D",
  ":d c #00000030",
  ":s c #00000031",
  "<. c #22222235",
  "<o c #28282847",
  "+l c #37373733",
  ",J c #3C3C3C1E",
  "<X c #8A8A8ABE",
  "+z c #8F8F8FB8",
  ",{ c #939393A6",
  "JA c #9595950C",
  "+j c #9B9B9BEB",
  "+x c #9B9B9BF6",
  "<= c #9B9B9BFF",
  "JB c #9C9C9C12",
  ",] c #9C9C9C9D",
  ",} c #9D9D9DE9",
  ",' c #9D9D9DF3",
  "+c c #9D9D9DF6",
  "JJ c #9E9E9EF2",
  ",Q c #9F9F9FA4",
  "JZ c #9F9F9FE4",
  "JG c #A0A0A099",
  "1< c #A6A7A4FF",
  "L` c #A7A8A5FF",
  "LR c #A8A9A6FF",
  "4} c #A9A9A7FF",
  "2u c #A9AAA7FF",
  "4Q c #AAABA8FF",
  "'{ c #ABABA9FF",
  "]i c #ABACA9FF",
  ",) c #ACACAAFF",
  "2t c #AEAFACFF",
  "<O c #B0B0AEFF",
  "<+ c #B1B2B0FF",
  "]a c #B2B3B0FF",
  "<$ c #B2B3B1FF",
  "<# c #B3B4B2FF",
  "<@ c #B4B5B3FF",
  "[. c #B5B6B4FF",
  "t< c #B8B9B6FF",
  "5( c #C0C1BFFF",
  "6a c #C1C1BFFF",
  "|= c #C1C2C0FF",
  "lp c #C7C7C6FF",
  ",` c #C8C9C7FF",
  "$! c #C9C9C8FF",
  "tX c #CACBC9FF",
  "B6 c #CBCCCAFF",
  "TJ c #CCCDCBFF",
  "5y c #CDCDCCFF",
  "#= c #D0D0CFFF",
  ",! c #D3D3D3F9",
  "JC c #D4D4D4FB",
  "K. c #D6D6D6FA",
  "6f c #D7D7D6FF",
  ",[ c #D7D7D7FA",
  "K@ c #D8D8D8FC",
  "%! c #D9D9D8FF",
  ",| c #D9D9D9FC",
  "6s c #DDDDDCFF",
  "=b c #DDDDDDFF",
  "]Y c #DEDFDEFF",
  "&_ c #E0E0E0FF",
  "+A c #E2E2E2FF",
  "+S c #E3E3E3FF",
  "jp c #E3E4E3FF",
  "&I c #E4E4E4FF",
  ";3 c #E5E5E5FF",
  ";b c #E6E6E6FF",
  ">5 c #E6E7E6FF",
  ";G c #E7E7E7FF",
  ":# c #E8E8E8FF",
  ":2 c #E9E9E9FF",
  ",$ c #EAEAEAFF",
  "6d c #EBEBEAFF",
  ":, c #EBEBEBFF",
  ":> c #ECECECFF",
  ";9 c #EDEDEDFF",
  "5] c #EEEEEDFF",
  ":< c #EEEEEEFF",
  ";A c #EFEFEFFF",
  ";T c #F0F0F0FF",
  ";` c #F1F1F1FF",
  ";' c #F2F2F2FF",
  ":O c #F3F3F3FF",
  ":3 c #F4F4F4FF",
  "=a c #F5F5F5FF",
  "+W c #F6F6F6FF",
  ":9 c #F7F7F7FF",
  ";R c #F8F8F8FF",
  ":v c #F9F9F9FF",
  ":5 c #FAFAFAFF",
  ";Q c #FBFBFBFF",
  ";7 c #FCFCFCFF",
  "=q c #FDFDFDFF",
  "=w c #FEFEFEFF",
  "1U c #FFFFFFFF",
  "   c none",
  
  // Image data
  "                                                                ",
  "                                                                ",
  "      JB,QJJ<=<=<=<=<=<=<=<=<=<=<=<=<=<=<=<=<=<=<=<=JJ,QJB      ",
  "    JAJZJC:v1U1U1U1U1U1U1U1U1U1U1U1U1U1U1U1U1U1U1U1U:vJCJZJA    ",
  "    JG,!:v;G+A+A+S+S&I&I&I&I;3;3;3;3;3&I&I&I&I+S+S+A:#:v,!JG    ",
  "    JJ:v;G+A+S+S&I&I;3;3;b;b;b;b;b;b;b;b;b;3;3&I&I+S+S;G:vJJ    ",
  "    <=1U+S+S&I;3;3;b;b;b;G;G;G;G;G;G;G;G;G;b;b;b;3;3&I+S1U<=    ",
  "    <=1U&I;3;3;b;b;G;G:#:#:#:#:2:2:2:#:#:#:#;G;G;b;b;3;31U<=    ",
  "    <=1U;3;b;b;G;G:#:#:2:2:2,$,$,$,$,$:2:2:2:#:#;G;G;b;b1U<=    ",
  "    <=1U;b;G;G:#:2:2,$,$,$:,:,:,:,:,:,:,,$,$,$:2:2:#;G;G1U<=    ",
  "    <=1U;G:#:#:2,$,$:,:,:>:>:>:>:>:>:>:>:>:,:,,$,$:2:#:#1U<=    ",
  "    <=1U:#:2:2,$:,:,:>:>&_6a2tLR<O|==b;9;9:>:>:,B6,$:2:21U<=    ",
  "    <=1U:2,$,$:,:>;9;95y4}L`L`L`L`L`L`5(6d:<;9$!1<:,,$,$1U<=    ",
  "    <=1U,$:,:,:>;9:<TJL`L`L`L`L`L`L`L`L`]a;blpL`L`:>:,:,1U<=    ",
  "    <=1U,$:,:>;9:<]YLRL`]i<+2uLRLRLRLRLRL`'{L`L`L`;9:>:,1U<=    ",
  "    <=1U:,:>;9:<;At<2t%!;T;';9#=,)LRLRLRLRLRL`L`L`:<;9:>1U<=    ",
  "    <=1U:>;9:<;Ajp2t:#;':O:O:3:3>5]a2uLRLRLRLRLRL`;A:<;91U<=    ",
  "    <=1U;9:<;A;T,`6s:O:O:3:3=a=a=a5]2t2u2uLRLRLRLR;T;A:<1U<=    ",
  "    <=1U;9:<;T;`tX:O:O:3=a+W+W+W+WtX2u2u2u2uLRLRLR;`;T:<1U<=    ",
  "    <=1U:<;A;T;`=b:O:3=a+W:9:9:9B64Q4Q4Q2u2u2uLRLR;`;T;A1U<=    ",
  "    <=1U:<;T;`;`;`:3=a+W:9;R;R6f[.[.<@<@<@<#<#<#<$;';`;T1U<=    ",
  "    <=1U;A;T;`;':3=a+W:9;R:v:5:5:5:5:5:v;R:9+W=a:3;';`;T1U<=    ",
  "    <=1U;A;T;`:O:3=a+W;R:v:5;Q;Q;7;Q;Q:5:v;R+W=a:3:O;`;T1U<=    ",
  "    <=1U;A;T;':O:3=a:9;R:v:5;Q;7=q;7;Q:5:v;R:9=a:3:O;';T1U<=    ",
  "    <=1U;A;`;':O:3+W:9;R:v;Q;7=q=w=q;7;Q:v;R:9+W:3:O;';`1U<=    ",
  "    <=1U;A;`;':O:3+W:9;R:v;Q;7=q=w=q;7;Q:v;R:9+W:3:O;';`1U<=    ",
  "    JJ;Q;';T;':O:3=a:9;R:v:5;Q;7;7;7;Q:5:v;R:9=a:3:O;':O;Q,'    ",
  "    ,]K.;7:O;`:O:3=a+W:9;R:v:5;Q;Q;Q:5:v;R:9+W=a:3:O:3;7,[,{=2  ",
  "    ,J,}K@;Q1U1U1U1U1U1U1U1U1U1U1U1U1U1U1U1U1U1U1U1U;Q,|+j<.+k  ",
  "    $s+l+z+x<=<=<=<=<=<=<=<=<=<=<=<=<=<=<=<=<=<=<=<=+c<X<o+J=#  ",
  "    +n&Z*'rn:d:s:s:s:s:s:s:s:s:s:s:s:s:s:s:s:s:s:s:srF=s+g,q    ",
  "        +n*R$a+>+>+>+>+>+>+>+>+>+>+>+>+>+>+>+>+>+>+>$p*`        "
};
