/* XPM */
const char *xpm_tango_emblems_emblem_unreadable[] = {
  // Header (width height colors chars-per-pixel)
  "32 32 160 2",
  
  // Colors (code mode value)
  "+n c #00000001",
  "*T c #00000002",
  "*R c #00000006",
  "1c c #00000009",
  "$a c #0000000A",
  ",q c #0000000C",
  "=# c #0000000E",
  "$s c #00000010",
  "$z c #0000001A",
  "5U c #0000001B",
  "=w c #0000001C",
  "=@ c #0000001D",
  "9b c #0000001E",
  "=e c #00000023",
  "1l c #00000024",
  "@$ c #00000026",
  "=% c #0000002E",
  "2c c #2828284C",
  "2k c #2B2B2B47",
  "2l c #3C3C3C33",
  "os c #4E4E4E27",
  "V3 c #8A8A8ABB",
  "2z c #8F8F8FB4",
  "2f c #919191B2",
  "2s c #9B9B9BA7",
  "2j c #9B9B9BF1",
  "<= c #9B9B9BFF",
  "2g c #9C9C9CEE",
  "2x c #9C9C9CF0",
  "1A c #9D9D9DEB",
  "1Z c #9E9E9EEB",
  "2a c #9E9E9EED",
  "Jm c #A0A0A0A1",
  "1C c #A1A1A113",
  "1S c #CCCCCCFB",
  "2d c #D0D0D0FB",
  "2h c #D0D0D0FC",
  "2i c #D40909FF",
  "2u c #D40A0AFF",
  "2y c #D50A0AFF",
  "2e c #D50B0BFF",
  "2w c #D60B0BFF",
  "20 c #D60C0CFF",
  "29 c #D70C0CFF",
  "28 c #D70D0DFF",
  "26 c #D80E0EFF",
  "25 c #D80F0FFF",
  "24 c #D90F0FFF",
  "23 c #D91010FF",
  "22 c #DA1010FF",
  "21 c #DA1111FF",
  "2: c #DB1111FF",
  "2; c #DB1212FF",
  "2< c #DC1212FF",
  "2# c #DC1313FF",
  "yo c #DC2E2EFF",
  "27 c #DD1313FF",
  "2& c #DD1414FF",
  "2% c #DD1515FF",
  "u7 c #DD2F2FFF",
  "2o c #DE1515FF",
  "y; c #DE2E2EFF",
  "2@ c #DE2F2FFF",
  "2r c #DE3131FF",
  "2X c #DF1616FF",
  "1} c #DF1717FF",
  "2q c #DF3131FF",
  "1{ c #E01717FF",
  "1[ c #E01818FF",
  "y: c #E03030FF",
  "1' c #E11818FF",
  "1` c #E11919FF",
  "<u c #E21A1AFF",
  "t) c #E23333FF",
  "2* c #E25857FF",
  "+A c #E2E2E2FF",
  "<y c #E31B1BFF",
  "y~ c #E33434FF",
  "+S c #E3E3E3FF",
  "<M c #E41C1CFF",
  "1( c #E41D1DFF",
  "1) c #E43535FF",
  "&I c #E4E4E4FF",
  "<P c #E51D1DFF",
  "<m c #E51E1EFF",
  "y` c #E53636FF",
  ";3 c #E5E5E5FF",
  "<n c #E61E1EFF",
  "<b c #E61F1FFF",
  "1/ c #E63838FF",
  "1D c #E6A8A8FF",
  ";b c #E6E6E6FF",
  "1^ c #E71F1FFF",
  "<v c #E72020FF",
  "8h c #E73838FF",
  "2> c #E7A7A6FF",
  "1G c #E7A9A9FF",
  ";G c #E7E7E7FF",
  "1Q c #E82020FF",
  "<A c #E82121FF",
  "1! c #E83A3AFF",
  ":# c #E8E8E8FF",
  "<I c #E92222FF",
  "81 c #E93B3BFF",
  "1| c #E9A8A7FF",
  "2- c #E9B8B7FF",
  ":2 c #E9E9E9FF",
  "<U c #EA2323FF",
  "1Y c #EA2424FF",
  "1R c #EA3C3CFF",
  "2t c #EAACACFF",
  "2. c #EAB9B8FF",
  ",$ c #EAEAEAFF",
  "<` c #EB2424FF",
  "<W c #EB2525FF",
  "2p c #EBACACFF",
  "2= c #EBC6C4FF",
  "2$ c #EBC7C5FF",
  "2, c #EBD1CFFF",
  ":, c #EBEBEBFF",
  "<Q c #EC2525FF",
  "<' c #EC2626FF",
  "1L c #EC3D3DFF",
  "1F c #EC4242FF",
  "1H c #EC6463FF",
  "1W c #ECACABFF",
  "2O c #ECD2D0FF",
  "2+ c #ECD3D1FF",
  "1_ c #ECD4D2FF",
  ":> c #ECECECFF",
  "1+ c #ED2626FF",
  "<] c #ED2727FF",
  "1K c #EDADACFF",
  "1E c #EDBCBBFF",
  "1P c #EDBDBCFF",
  "1I c #EDC9C7FF",
  "1J c #EDD4D2FF",
  "1T c #EDD5D3FF",
  "1] c #EDD7D5FF",
  "1~ c #EDD8D6FF",
  ";9 c #EDEDEDFF",
  "E* c #EE2727FF",
  "RD c #EE2828FF",
  "#& c #EEEEECFF",
  ":< c #EEEEEEFF",
  ";A c #EFEFEFFF",
  ";T c #F0F0F0FF",
  ";` c #F1F1F1FF",
  ":O c #F3F3F3FF",
  ":3 c #F4F4F4FF",
  "=a c #F5F5F5FF",
  "+W c #F6F6F6FF",
  ":9 c #F7F7F7FF",
  ";R c #F8F8F8FF",
  ":v c #F9F9F9FF",
  ":5 c #FAFAFAFF",
  ";Q c #FBFBFBFF",
  "=q c #FDFDFDFF",
  "1U c #FFFFFFFF",
  "   c none",
  
  // Image data
  "                                                                ",
  "                                                                ",
  "      1CJm1Z<=<=<=<=<=<=<=<=<=<=<=<=<=<=<=<=<=<=<=<=1ZJm1C      ",
  "    1C1A1S:O1U1U1U1U1U1U1U1U1U1U1U1U1U1U1U1U1U1U1U1U:O1S1A1C    ",
  "    Jm1S;Q:>+S+A+S+S&I&I&I&I;3;3;3;3;3&I&I&I&I+S+S+S;9;Q1SJm    ",
  "    1Z:O;91D1FRDRDRDRDRDRDRDRDRDRDRDRDRDRDRDRDRDRD1F1G;9:O1Z    ",
  "    <=1U&I1FRDRDRDRDRDRDRDRDRDRDRDRDRDRDRDRDRDRDRDRD1F&I1U<=    ",
  "    <=1U&IRDRDRDRDRDRDRDRDRDRDRDRDRDRDRDRDRDRDRDRDRDRD;31U<=    ",
  "    <=1U;3RDRDRDRDRDRDRDRDRDE*E*E*E*E*RDRDRDRDRDRDRDRD;b1U<=    ",
  "    <=1U;bRDRDRD<]<]<]1+<'<'<'<'<'<'<'<'<'1+<]<]<]RDRD;G1U<=    ",
  "    <=1U;G<]<]<'<'<Q1H1J1K1L<`<`<`<`1L1P1I1H<W<Q<'<'<]:#1U<=    ",
  "    <=1U:#<'<Q<W<`1Y1I#&#&1T1R<I<I1R1T#&#&1J<U1Y<`<`<Q:21U<=    ",
  "    <=1U:2<`<U<U<I<I1E#&#&#&1T81811T#&#&#&1W<I<I<I<U<U:21U<=    ",
  "    <=1U,$<I<I<A<A1Q1!1T#&#&#&1~1~#&#&#&1T1!<v1Q<A<A<I,$1U<=    ",
  "    <=1U,$<A<v<v1^<b<n8h1T#&#&#&#&#&#&1T1/<n<n<b1^<v<v:,1U<=    ",
  "    <=1U:,1^<b<n<m<P1(<My`1~#&#&#&#&1~y`<M<M1(<P<m<n<b:>1U<=    ",
  "    <=1U:><m<P1(<M<M<y<y1)1~#&#&#&#&1~1)<u<y<y<M<M1(<P;91U<=    ",
  "    <=1U;91(<M<y<y<u<uy~1_#&#&#&#&#&#&1_y~1`<u<u<y<y<M:<1U<=    ",
  "    <=1U;9<y<u<u1`1't)1_#&#&#&1]1]#&#&#&1_t)1[1'1`<u<u:<1U<=    ",
  "    <=1U:<<u1`1'1{1}1|#&#&#&1_y:y:1_#&#&#&2.2X1{1[1'1`;A1U<=    ",
  "    <=1U:<1'1[1}2X2o2O#&#&2+2@2#2#2@2+#&#&2$2o2o2X1}1[;A1U<=    ",
  "    <=1U;A1{2X2o2%2&2*2=2-y;2;2:2:2:y;2>2,2*2#2&2%2o2X;T1U<=    ",
  "    <=1U;A2X2o2&2#2<2;2:2122222323232322212:2;2<2#2&2o;T1U<=    ",
  "    <=1U;A2%2&2#2;2122232425262626262625242322212;2#2&;T1U<=    ",
  "    <=1U;A272<2:22232426282828292020282828262423222:2<;`1U<=    ",
  "    <=1U;T2q2:2224262828202w2e2e2e2e2e2w2028282624222r;`1U<=    ",
  "    1Z+W=a2tu7242628202e2y2u2i2i2i2i2i2u2y2e202826yo2p+W+W2a1c  ",
  "    2s2d=q+W;`:O:3=a+W:9;R:v:5;Q;Q;Q:5:v;R:9+W=a:3:O+W=q2d2f=w*R",
  "  +nos2g2d:91U1U1U1U1U1U1U1U1U1U1U1U1U1U1U1U1U1U1U1U:92h2j2k=e,q",
  "    $s2l2z2x<=<=<=<=<=<=<=<=<=<=<=<=<=<=<=<=<=<=<=<=2xV32c=%5U*T",
  "      $a$z1l5U5U5U5U5U5U5U5U5U5U5U5U5U5U5U5U5U5U5U5U9b@$=@=#*T  ",
  "          +n                                        +n+n        "
};
