/* XPM */
const char *xpm_tango_emblems_emblem_photos[] = {
  // Header (width height colors chars-per-pixel)
  "32 32 357 2",
  
  // Colors (code mode value)
  "+n c #00000001",
  "*T c #00000002",
  "=1 c #00000005",
  "*R c #00000006",
  "$p c #00000007",
  ",D c #00000008",
  "$a c #0000000A",
  ",q c #0000000C",
  "=# c #0000000E",
  "$s c #00000010",
  "&Z c #00000011",
  "$w c #00000013",
  "@o c #00000014",
  "=$ c #00000015",
  "[~ c #00000017",
  ":5 c #00000018",
  "$^ c #00000019",
  "$z c #0000001A",
  "5U c #0000001B",
  "Ee c #00000022",
  "=e c #00000023",
  ",W c #00000024",
  "+J c #00000027",
  "er c #00000028",
  "=s c #0000002B",
  "&R c #0000002F",
  "T2 c #00000032",
  ":4 c #00000033",
  ",T c #00000036",
  "tD c #00000038",
  ",E c #0000003B",
  "*/ c #0000003C",
  "=q c #00000041",
  ",R c #00000042",
  "[G c #00000044",
  "=3 c #00000045",
  ":T c #0F0F0DFF",
  ",o c #10100031",
  "DK c #111111FF",
  "J_ c #161616FF",
  ",z c #19190034",
  "U# c #1C1C1C09",
  ",F c #1D1A0046",
  "J~ c #1E1E1EFF",
  ">/ c #2121002F",
  ":! c #212121FF",
  ":S c #222221F4",
  ":j c #2222224B",
  ":Z c #22222288",
  ":M c #22222289",
  ":m c #222222F5",
  "J) c #222222FF",
  ":G c #232220FF",
  ":V c #232323CD",
  "JY c #232323FF",
  ":N c #24231CFF",
  "20 c #24242407",
  "`c c #242424FF",
  ":C c #262413FD",
  ":x c #262626FE",
  "F3 c #262626FF",
  ":K c #272514FF",
  ":' c #27261FFF",
  "`A c #272727FF",
  ",Y c #2823006D",
  "%H c #282828FF",
  ":R c #292500FF",
  ":c c #2929298E",
  "LM c #292929E0",
  ":A c #2A270DF9",
  ":n c #2A2A2AF3",
  ":B c #2A2A2AF5",
  "JE c #2A2A2AFF",
  ",A c #2B26006C",
  ":U c #2B2703FF",
  "3% c #2B2B2B06",
  ":k c #2B2B2B8E",
  "ai c #2B2B2BFF",
  ":D c #2D2906F7",
  "IF c #2D2D2DF6",
  "`! c #2D2D2DFF",
  ">I c #2E2E0021",
  "as c #2E2E2EFF",
  ":H c #2F2B04F6",
  ":L c #2F2B05F7",
  "cd c #30302FFF",
  "JI c #303030FF",
  ":J c #313130FF",
  ":v c #3131311F",
  ",w c #322E003D",
  "ap c #323232FF",
  "af c #333333FF",
  "k{ c #343434FF",
  ":z c #353535FF",
  "%{ c #363636FF",
  ",0 c #3732006B",
  "JQ c #373737FF",
  ">N c #383200FF",
  "z1 c #383838FF",
  "aa c #393939FF",
  ":b c #3A3A3AFE",
  "zd c #3A3A3AFF",
  ":^ c #3B3500FF",
  "': c #3B3B3BFF",
  "J{ c #3C3C3CFF",
  ":I c #3D3D3CFF",
  ":6 c #3D3D3D3B",
  ":w c #3D3D3DF5",
  "JR c #3D3D3DFF",
  ":7 c #3E3E3E67",
  ":8 c #3E3E3E95",
  ":e c #3E3E3EB6",
  ":9 c #3E3E3EC4",
  ":q c #3E3E3EEA",
  "ag c #3E3E3EFF",
  ":a c #3F3F3F75",
  ":0 c #3F3F3FDC",
  ":r c #3F3F3FF7",
  "gh c #3F3F3FFF",
  ":f c #40404010",
  "JW c #404040FF",
  ":E c #413B05F7",
  "ad c #414141FF",
  ":h c #424242F0",
  "no c #424242FF",
  ":g c #434343F0",
  ":i c #434343F5",
  "nO c #434343FF",
  "n+ c #444444FF",
  ",l c #453E008C",
  ",- c #453E00FF",
  ":t c #454545F0",
  "z[ c #454545FF",
  ">$ c #464537FF",
  ":l c #464646F2",
  ":s c #464646F3",
  "G8 c #464646FF",
  ":y c #474747F5",
  "G9 c #474747FF",
  "GJ c #484848FD",
  ":p c #484848FE",
  "ru c #484848FF",
  ">f c #494100FF",
  ">* c #49420CFF",
  "JL c #494949FF",
  "ry c #4A4A4AFF",
  "kv c #4B4B4BFF",
  ">{ c #4C4300FF",
  ":- c #4C4C4CFF",
  "kc c #4D4D4DFF",
  ",G c #4E450090",
  ">H c #4E4500FF",
  ",* c #4E4607FF",
  ":+ c #4E4E4EFF",
  ":{ c #4F4600FF",
  ";] c #505050FF",
  ">F c #514907FF",
  ">% c #514D2AFF",
  "kx c #525252FF",
  ",U c #534A00AD",
  "># c #535249FF",
  ";D c #535353FF",
  ">q c #544B00FF",
  ":/ c #544B05F7",
  "6[ c #555555FF",
  ">g c #574D00FF",
  ":F c #575757FF",
  ">^ c #584F00FF",
  ",O c #5850005D",
  ":d c #5A5A5AFF",
  ">} c #5B5200FF",
  "5| c #5B5B5BFF",
  "5{ c #5C5C5CFF",
  "5[ c #5D5D5DFF",
  ":~ c #5E5E54FF",
  ":P c #5F5E56FF",
  "l< c #5F5F5FFF",
  ">J c #606060FF",
  ":u c #616161FF",
  ",x c #625904AE",
  "Q% c #626262FF",
  "rr c #636363FF",
  ">! c #645900FF",
  ">; c #655A00FA",
  ">: c #664D000A",
  ">[ c #665B09FF",
  ">r c #6666000F",
  ">L c #666666FF",
  ":} c #675D05F7",
  ",7 c #675E12FF",
  "4Y c #676767FF",
  ">B c #685C00FF",
  ":; c #686868FF",
  ",Z c #695D01D9",
  ">d c #695E09FF",
  ">@ c #69664FFF",
  "6/ c #696969FF",
  ">& c #6A611BFF",
  ">v c #6B5F00FF",
  ",H c #6B6004D0",
  ":@ c #6B6B6BFF",
  ",: c #6C6100DD",
  ">( c #6C6C6CFF",
  ",I c #6D6000DF",
  "t: c #6D6D6DFF",
  ",L c #6E6200FE",
  ">t c #6E6200FF",
  ";[ c #6E6E6EFF",
  ",X c #6F6200FC",
  ">V c #6F6301FD",
  ",P c #6F6400F5",
  ">P c #706400FA",
  "6^ c #707070FF",
  ">e c #716400F8",
  ",K c #716401FA",
  ",e c #716507E8",
  "mT c #717171FF",
  ",J c #726402F0",
  ">> c #726404F9",
  ":` c #72726FFF",
  ",k c #736604F9",
  ",C c #736707FC",
  ",> c #736709DC",
  ">U c #736807F1",
  ">) c #73680BBC",
  ",c c #737373FF",
  ",9 c #746804F8",
  ";F c #757575FF",
  ">c c #796C00FF",
  ",j c #797979FF",
  ">x c #7B6F0AFF",
  ":] c #7D7C7AFF",
  ":Q c #7E7B60FF",
  "=< c #7E7E7EFF",
  "=, c #7F7F7FFF",
  "mk c #808080FF",
  ">2 c #837C3FFF",
  ">s c #847A2DFF",
  ">M c #85780BFF",
  ">+ c #878253FF",
  "-K c #878787FF",
  ">. c #888253FF",
  "-v c #8A8A8AFF",
  "mV c #8B8B8BFF",
  ";* c #8C8C8CFF",
  ">8 c #8E7E00FF",
  ",+ c #8E822AF5",
  "2+ c #909090FF",
  ",5 c #918100FF",
  ",= c #938300FF",
  ">~ c #988700FF",
  "2# c #999999FF",
  ">6 c #9B8B0DFF",
  "2$ c #9D9D9DFF",
  ">7 c #9F8E00FF",
  ">1 c #9F9754FF",
  ":_ c #A6A06DFF",
  ",g c #A6A073FF",
  ",v c #A79B3AF9",
  ":Y c #A7A48BFF",
  ",r c #A99F45FA",
  ">Q c #AF9D0FFF",
  ",V c #B0A132FD",
  ">a c #B0A441FF",
  ">O c #B3A95AFF",
  "=p c #B6B6B6FF",
  ">W c #B7A834FF",
  ">3 c #B7AA42FF",
  ">A c #B7AB4FFF",
  ",S c #B7B7B7FF",
  ">' c #B8AF5EFF",
  ",; c #B9B37FFF",
  ",% c #BAAD43FF",
  ",6 c #BDA800FF",
  ">G c #C1AB00FF",
  ">T c #C1BA77FF",
  ",h c #C3BD8DFF",
  ",$ c #C4B853FF",
  ">n c #C6BC62FF",
  ",, c #CAC172FD",
  ">j c #CDC375FF",
  ",3 c #CEBE38FF",
  ";_ c #CECECEFF",
  ",4 c #CFBA11FF",
  ">X c #CFC567FF",
  "+c c #CFCFCFFF",
  "+b c #D1D1D1FF",
  ">E c #D3C448FF",
  ">S c #D4C449FF",
  ",B c #D5C756FF",
  ">_ c #D5CC8BFE",
  ",8 c #D5D2C2FF",
  ",. c #D5D4D2FF",
  ":[ c #D6D4C9FF",
  ",b c #D7CC6AFF",
  ">- c #D7D6CEFF",
  ",& c #D8C638FF",
  ">b c #D8CE7AFF",
  ".4 c #D8D8D2FF",
  "|~ c #D8D8D3FF",
  ">0 c #D9C100FF",
  ">K c #DAC200FF",
  "6k c #DADAD9FF",
  ",m c #DADADAFF",
  ">h c #DBC300FF",
  ">Z c #DBD06BFF",
  ">= c #DEDCCEFF",
  ">9 c #DFC700FF",
  ">4 c #DFCD3AFF",
  "={ c #DFDFDFFF",
  ">] c #E1D25CFF",
  ":) c #E2D780FF",
  ",d c #E4D029FF",
  ",f c #E5D551FF",
  ">w c #E5E4D9FF",
  ";3 c #E5E5E5FF",
  ">| c #E6E6E0FF",
  ";G c #E7E7E7FF",
  ",s c #E8CF10FF",
  ">o c #E8DA65FF",
  ">p c #E9DA5FFF",
  ",N c #EADC6FFF",
  ",2 c #EBDA4EFF",
  ">` c #EBE39EFF",
  ",a c #ECD202FF",
  ",n c #ECE07FFF",
  ",p c #EED718FF",
  ">D c #EFDC3CFF",
  ",# c #EFE479FF",
  ">5 c #F0DA28FF",
  ";T c #F0F0F0FF",
  ",i c #F1DD37FF",
  ">z c #F2DE3CFF",
  ">R c #F2E675FF",
  ",M c #F2E684FF",
  ">C c #F2E788FF",
  ">m c #F3E362FF",
  ">< c #F3E887FF",
  ",t c #F3EAA1FF",
  ">l c #F4E250FF",
  "/W c #F4E77CFF",
  ">Y c #F4EFBDFF",
  ",u c #F5E564FF",
  ">k c #F6E663FF",
  ":W c #F6F1C6FF",
  ",1 c #F7EA79FF",
  ">i c #F8EB77FF",
  ",y c #F8ED92FF",
  ":( c #F9F4C9FF",
  ":| c #F9F4CAFF",
  ">u c #FAEE8AFF",
  ">, c #FAF6CBFF",
  ",< c #FBF4B3FF",
  ",@ c #FDF6BFFF",
  "wb c #FDF8CCFF",
  ">y c #FEF9CEFF",
  "   c none",
  
  // Image data
  "                                                                ",
  "                          3%:6:7:8:9:0:q:wJR                    ",
  "                      :6:e:r:t:yru:ukc=<kxJR                    ",
  "                  +n:8:i:p>JG8=pry;3:+,S;DJR                    ",
  "                  :a:s6[kv2$G82#rymV:+:d;DJR                    ",
  "                :f:gnO;FG9>JG8rury:-:-GJ:hJR                    ",
  "            3%:j:k:lag:-:z`!`A`A%HF3:xLM:c:v                    ",
  "            *T`cno:bas%HJ{>(6^:@:@>(rrJQ:n:m:M20                ",
  "              :N%{z1J{nO:@J~F3%{z[;DQ%6/z['::B:VU#              ",
  "              :CJIz[JWG9:;J_F3%{z[;D:u;[n+JLnoIF:Z              ",
  "              :AJEghG8rumTl<zdaaG85{6/n+zdnOJLJR:S              ",
  "              :DJYJ{ruz[>Jt:;[;[:;:Fk{aiz1ghryag:G              ",
  "              :H:JasG8JLag:-:F;DJLJRapk{zdn+G9cd:K              ",
  "              :L:PJLG8G9JLJWzdJQ%{JQz1JRz[G9n+:I:U              ",
  "              :L:Y;]6/>(5|kcryryG9rury:+5|4Yad:T:R              ",
  "              :E:W:Q>L,c,j=,-K;*2+-vmkt:ry:!DK:~:^              ",
  "              :/:(:):_:`>L5[6[:-n+':afJEJ):':]:[:{              ",
  "              :}:|>.>X>o>O>+>@>#n+>$>%>&>*>=+b>->;>:            ",
  "              >>>,><>1>2>3>4>5>6>7>8>9>0>q>w+c.4>e>r            ",
  "              >t>y>u>i>p>a>s>5>d>f>g>h>0>q>w+c.4>e>r            ",
  "              >t>y>j>i>k>l>z>5>x>c>v>9>0>q>w+c.4>e>r            ",
  "              >t>y>b>n>m>l>z>5>M>N>B>9>0>q>w+c|~>e>r            ",
  "              >Vwb>C>Z>A>S>D>5>F>G>H>K>0>q>w;_6k>P>I            ",
  "              >U>Y>T>R>m>E>W>5>Q>!>~>9>0>^>w;_,m>P>/$p          ",
  "              >)>_>`>'>]>l>z>5>[>N>{>9>0>}>|+b,.,X,o$s          ",
  "            +n,O,+,@,#,$,%,&>5,*,=,->K>0>};G={,;,:&R$w          ",
  "              :5,>,,,<,1,2,3>5,4,5,6>9>0,7;T,8,9,0=s,q          ",
  "              =#,w,e,r,t,y,u,i,p,a,s,d,f,g,h,k,ltDEe*T          ",
  "                =$,z,x,k,v,b,n,M/W,N,B,V,C,Z,A*/er,D            ",
  "                +n=$+J,F,G,H,J,K,L,P,I,U,Y=3,T=e*R              ",
  "                    ,D$zer:4*/,R[G[G=q,ET2,W=#+n                ",
  "                        *T$a&Z[~5U$^@o,q=1                      "
};
