/* XPM */
const char *xpm_tango_emblems_emblem_system[] = {
  // Header (width height colors chars-per-pixel)
  "32 32 297 2",
  
  // Colors (code mode value)
  "+n c #00000001",
  "*T c #00000002",
  "*_ c #00000003",
  "*` c #00000004",
  "*R c #00000006",
  ",D c #00000008",
  "1c c #00000009",
  "$a c #0000000A",
  "+> c #0000000B",
  "=2 c #0000000D",
  ":l c #0000000F",
  "$s c #00000010",
  "&Z c #00000011",
  "$w c #00000013",
  "=$ c #00000015",
  "+k c #00000016",
  "[~ c #00000017",
  "$^ c #00000019",
  "$z c #0000001A",
  "=w c #0000001C",
  "=@ c #0000001D",
  "=k c #0000001F",
  "+g c #00000021",
  "Ee c #00000022",
  "=e c #00000023",
  "1l c #00000024",
  ":W c #00000025",
  "@$ c #00000026",
  "+J c #00000027",
  "er c #00000028",
  "rn c #0000002A",
  "=s c #0000002B",
  "rF c #0000002D",
  "=% c #0000002E",
  ":s c #00000031",
  ":4 c #00000033",
  "=l c #00000035",
  "=d c #00000037",
  "tD c #00000038",
  ",W c #00000039",
  "*/ c #0000003C",
  "1t c #1A1A1A31",
  "1p c #1B1B1B39",
  "1g c #26262622",
  "1M c #2A2A2A43",
  "1z c #41414137",
  "1b c #4B4B4B77",
  "yc c #5959594D",
  "1i c #5E5E5E7A",
  "1x c #6262624E",
  "1y c #6363637E",
  "1k c #64646499",
  "1a c #67676766",
  "1N c #6B6B6B62",
  "5O c #6E6E6E80",
  "1n c #717171A2",
  "1d c #7777775E",
  "1s c #77777774",
  "19 c #7A7A7AAC",
  "1q c #7B7B7B55",
  "1f c #7B7B7B9D",
  "1u c #7C7C7CC6",
  "1v c #7C7C7CD2",
  "b) c #7E7E7ECD",
  "<W c #80808006",
  "e_ c #8080800A",
  "t@ c #8080800C",
  "<7 c #8080800E",
  "`n c #80808014",
  "V# c #8080801E",
  "1; c #80808024",
  "`$ c #80808026",
  "<[ c #80808034",
  "<> c #8080803C",
  "<; c #8080804E",
  "<C c #80808054",
  "<B c #8080805E",
  "#M c #80808060",
  "<n c #80808062",
  "<] c #80808068",
  "<q c #8080806E",
  "<3 c #80808074",
  "1V c #808080F1",
  "1B c #808080FB",
  "]D c #808080FD",
  "mk c #808080FF",
  "1. c #8181814B",
  "1* c #8181815B",
  "_) c #8181815D",
  "V& c #8181815F",
  "<6 c #8181816F",
  "1- c #818181B2",
  "]7 c #818181E9",
  "<r c #818181F2",
  "<5 c #818181F3",
  "<U c #818181F4",
  "1= c #818181F9",
  "<Y c #818181FC",
  "H4 c #818181FE",
  "<V c #8282822D",
  "<- c #82828231",
  "Vt c #82828233",
  "<p c #8282825A",
  "<, c #82828262",
  "<a c #8282826C",
  "<d c #82828270",
  "<2 c #82828272",
  "<< c #82828276",
  "<c c #82828299",
  "<z c #828282B1",
  "<F c #828282E4",
  "<= c #828282E5",
  "1h c #828282F0",
  "@2 c #828282F1",
  "<E c #828282F3",
  "Vm c #828282FC",
  "]Y c #828282FD",
  "<0 c #83838379",
  "<' c #83838396",
  "13 c #838383A6",
  "<% c #838383CE",
  "<v c #838383F2",
  "<t c #838383F4",
  "B| c #838383F6",
  "|7 c #838383F7",
  "EL c #838383F8",
  "<w c #838383FC",
  "{r c #8484841D",
  "<& c #8484841F",
  "17 c #8484845B",
  "<D c #84848495",
  "1o c #848484B4",
  "<f c #848484C5",
  "<{ c #848484D0",
  "1r c #848484E7",
  "<b c #848484F1",
  "<k c #848484F4",
  "<1 c #848484F7",
  "<* c #848484FA",
  "g| c #85858519",
  "<` c #858585C7",
  "1< c #858585C8",
  "<_ c #858585CD",
  "Vl c #858585F0",
  "Vh c #858585F4",
  "1: c #858585F6",
  "10 c #858585F7",
  "VO c #858585FA",
  "A- c #86868613",
  "<Z c #86868696",
  "<S c #868686CD",
  "<| c #868686D0",
  "<l c #868686E7",
  "<M c #868686EA",
  "|. c #868686F8",
  "1w c #868686F9",
  "<j c #878787AC",
  "11 c #878787D8",
  "</ c #878787E9",
  "Gr c #878787F8",
  "<R c #888888F4",
  "<s c #888888FB",
  "<8 c #898989B7",
  "<^ c #898989BA",
  "<T c #898989F4",
  "ig c #898989F6",
  "i8 c #898989F8",
  "`& c #8A8A8AFB",
  "{& c #8B8B8B0B",
  "1# c #8B8B8BF3",
  "<( c #8C8C8CFB",
  "hD c #8D8D8DF6",
  "15 c #8D8D8DFA",
  "<! c #8E8E8EF2",
  "<A c #8E8E8EF4",
  "k| c #8F8F8FF4",
  "<Q c #909090F2",
  "{$ c #919191F6",
  "Yw c #919191F8",
  "<G c #92929207",
  "1& c #929292F6",
  "<e c #929292F7",
  "<9 c #929292F8",
  "14 c #929292FC",
  "<x c #949494FB",
  "C; c #959595F5",
  "1e c #959595FC",
  "<I c #969696FA",
  "oi c #979797F2",
  "rZ c #99999905",
  "1@ c #999999F2",
  "18 c #999999F7",
  "<: c #9A9A9AF6",
  "16 c #9B9B9BFB",
  "aj c #9E9E9EF6",
  "vD c #9F9F9FF7",
  "<H c #A0A0A0F7",
  "~9 c #A0A0A0FD",
  "<~ c #A1A1A1F9",
  "1X c #A2A2A2F6",
  "1O c #A3A3A3F6",
  "<y c #A3A3A3F9",
  "1j c #A5A5A5FD",
  "<} c #A6A6A6F6",
  "<N c #A8A8A8F7",
  "<u c #A9A9A9F8",
  "<m c #AAAAAAF7",
  "<4 c #ABABABFB",
  "<h c #ACACACFA",
  "1, c #AFAFAFFD",
  ">F c #B0B0B0FF",
  "<# c #B2B2B2FF",
  "<g c #B3B3B3FC",
  "1m c #B3B3B3FE",
  "Q> c #B3B3B3FF",
  "<L c #B4B4B4F8",
  "'D c #B4B4B4FD",
  "6{ c #B5B5B5FF",
  "<P c #B6B6B6FE",
  "=p c #B6B6B6FF",
  ",S c #B7B7B7FF",
  "<i c #B8B8B8FC",
  "<J c #B8B8B8FD",
  "9m c #B8B8B8FF",
  "<K c #B9B9B9F8",
  "5X c #B9B9B9FF",
  ",G c #BABABAFF",
  "5> c #BBBBBBFF",
  ",A c #BCBCBCFF",
  "1> c #BDBDBDFF",
  "1% c #BEBEBEFF",
  ";= c #BFBFBFFF",
  "1$ c #C1C1C1FE",
  ";U c #C1C1C1FF",
  ";Z c #C2C2C2FF",
  "12 c #C3C3C3FE",
  ":* c #C3C3C3FF",
  "}[ c #C4C4C4FE",
  ":6 c #C4C4C4FF",
  ";Y c #C5C5C5FF",
  "1+ c #C6C6C6FE",
  "Qj c #C6C6C6FF",
  ",1 c #C7C7C7FF",
  ":7 c #C8C8C8FF",
  ">x c #C9C9C9FF",
  ",< c #CACACAFF",
  "+a c #CBCBCBFF",
  "#+ c #CCCCCCFF",
  "<) c #CDCDCDFE",
  ",2 c #CDCDCDFF",
  ";_ c #CECECEFF",
  "+c c #CFCFCFFF",
  "+v c #D0D0D0FF",
  "+b c #D1D1D1FF",
  ",V c #D2D2D2FF",
  ",, c #D3D3D3FF",
  ",n c #D4D4D4FF",
  ":o c #D5D5D5FF",
  ",N c #D6D6D6FF",
  ",M c #D7D7D7FF",
  ",B c #D8D8D8FF",
  ",b c #D9D9D9FF",
  ",m c #DADADAFF",
  ",v c #DBDBDBFF",
  ",_ c #DCDCDCFF",
  "=b c #DDDDDDFF",
  "=[ c #DEDEDEFF",
  "={ c #DFDFDFFF",
  "&_ c #E0E0E0FF",
  "+Z c #E1E1E1FF",
  "+A c #E2E2E2FF",
  "+S c #E3E3E3FF",
  "&I c #E4E4E4FF",
  ";3 c #E5E5E5FF",
  ";b c #E6E6E6FF",
  ";G c #E7E7E7FF",
  ":# c #E8E8E8FF",
  ":2 c #E9E9E9FF",
  ",$ c #EAEAEAFF",
  ":, c #EBEBEBFF",
  ":> c #ECECECFF",
  ";9 c #EDEDEDFF",
  ":< c #EEEEEEFF",
  ";A c #EFEFEFFF",
  ";T c #F0F0F0FF",
  ";` c #F1F1F1FF",
  ";' c #F2F2F2FF",
  ":O c #F3F3F3FF",
  ":3 c #F4F4F4FF",
  "=a c #F5F5F5FF",
  "+W c #F6F6F6FF",
  ":9 c #F7F7F7FF",
  ";R c #F8F8F8FF",
  ":v c #F9F9F9FF",
  ":5 c #FAFAFAFF",
  "3N c #FFFFFF01",
  "   c none",
  
  // Image data
  "                          ]7mk|7mk<%                            ",
  "                          EL+Z,$+ZVh                            ",
  "                        <&Gr;3,n:,<*A-                          ",
  "          V&<=<-        <;<:+Z:o:#C;<>        _)mk<,            ",
  "        <<ig<#<1<23NA-<3]D'D&_,m:#<4<5<6<7`n<8<9+bhD<0          ",
  "      <q<w=b&I,v<e<r<t<y,2;9+Z&_:#;`,,<u|7mk<i+W+W:>]Y<p        ",
  "      <a`&;G>x+c&I:6=[:#+A={+Z;3:2;9:O:v:,+S:9;T;T:O<s<d        ",
  "      3N<f<g,m+a+b+A=b,m=[+A;b,$:<;'=a=a=a:3;T:<:3<h<j          ",
  "        g|<k,n,N,n,B,_&_&I;G:,;A:O+W=a:O;`;A;9;';_<lt@          ",
  "          <z~9:#,b=b+Z;3:2;9;T=a+W:3;';T;A;9:,+W<x<c            ",
  "        <7<v,v+A=[+A;b,$;`;R;R:,+W;R;':<:>,$:#;9={<bt@          ",
  "        <nvD;9&_&I:#:,:O;`<m|7<M|7<N;A;T,$:#;b&I;`aj<B          ",
  "  <G<V<C]D,<:2;3:2;9;':9k|<Ze_  e_<Z<A;':2;3&I+A;G+cmk<S<D#M{r  ",
  "<FH4hD<H<J;`:#,$:<;':5<K<Z          <Z<L;T+S+Z=[,v;9&I;_<P<I<U  ",
  "<Y;G:>:2:2,$:>;A:O+W:5<TV#          V#<R:O+Z=b,B,n+v,2+c,N=b<E  ",
  "mk;`;3;3:2;9;`=a+W:3:5Vm<W          <WVm:O,v,M,,+c+a>x,<,V+AH4  ",
  "mk:7+S:O=a+W+W=a:O;`;R<QVt          Vt<!:<,N+b,2>x;3,v,1Q><~mk  ",
  "<a<^</Vm<(:3=a:O;`;A:O<)<SrZ      rZ<_}[+Z+v#+:7+a,mmk<`<'<]<[  ",
  "      e_<{;_=a;T:<:>:>=a<}<|1.`$1.<{1X:>+b+aQj;Z+b9m1o          ",
  "        <n1O:9:<:>,$:#:2:31+1@1#oi1$:,,V>x;Y;U1%={1&1*          ",
  "        {&Vl+Z;T:2:#;b&I+S:2;9;9:2=[;_:7:6;=5>,1+v1=<W          ",
  "          1-~9=a;G;3+S+A={,v,M,,;_,<Qj;Z1%,G=p1%>xmk{r          ",
  "        1;1:&_,$;3+S+Z=b,b:o+b,2>x;Y;U1>5X6{>F>F+a1,1<3N        ",
  "      <W1112:<&I;3:<;3,b,n+v#+,1:*;=5>9m;Y={,,=p6{,bYw<6        ",
  "      1314=a+S:2;b<P,B:,=[,VQj;Z1%;U#+,m,<1516,B:*,n;Zmk        ",
  "      17VO;3:O+a|.b)@2181%&_={,A;=+Z,S{$<55O19i8;_,M101q        ",
  "        <31w1e1ryc=e1t1y1umk&_,S;Z5X]D1i1p=s@$1aB|mk1s$a*`      ",
  "        *R1d1f1g+g+JrF:4,W1h,VQ>Qj1j1k*/=d:srn1l1z1x&Z$a*_      ",
  "        *T1c$s+k=@1l=s:stD1v;Z;Z,n<91b*/=l=%er+g$z$w=2*R        ",
  "            *R=2$w$^=k:Wrn1n1m+Z,_<w1MrFerEe=w+k$s$a*_          ",
  "                *_,D=2&Z=$1Nmkmk1B1V$z[~$w:l+>*R                ",
  "                            *T*_*_*T+n                          "
};
