/* XPM */
const char *xpm_tango_emblems_emblem_important[] = {
  // Header (width height colors chars-per-pixel)
  "32 32 312 2",
  
  // Colors (code mode value)
  "+n c #00000001",
  "*T c #00000002",
  "*` c #00000004",
  "=1 c #00000005",
  "*R c #00000006",
  "$p c #00000007",
  ":E c #00000008",
  "=a c #00000009",
  "$a c #0000000A",
  "+> c #0000000B",
  "=2 c #0000000D",
  "=# c #0000000E",
  ":l c #0000000F",
  "$s c #00000010",
  "&Z c #00000011",
  "+r c #00000012",
  "$w c #00000013",
  "@o c #00000014",
  "=$ c #00000015",
  "[~ c #00000017",
  ":5 c #00000018",
  "$^ c #00000019",
  "$z c #0000001A",
  "5U c #0000001B",
  "=w c #0000001C",
  "=@ c #0000001D",
  "9b c #0000001E",
  "=k c #0000001F",
  "*' c #00000020",
  "Ee c #00000022",
  "=e c #00000023",
  ":Q c #00000024",
  ":W c #00000025",
  "@$ c #00000026",
  "+J c #00000027",
  "er c #00000028",
  "tS c #00000029",
  "rn c #0000002A",
  "=s c #0000002B",
  "9) c #0000002C",
  "rF c #0000002D",
  "=% c #0000002E",
  ":d c #00000030",
  ":s c #00000031",
  "T2 c #00000032",
  ":4 c #00000033",
  "=& c #00000034",
  "=l c #00000035",
  "=d c #00000037",
  ",W c #00000039",
  ":h c #0000003B",
  "*/ c #0000003C",
  "3& c #0000003E",
  "=q c #00000041",
  "=j c #00000043",
  "=3 c #00000045",
  "!$ c #00000047",
  "=0 c #00000048",
  "=g c #00000049",
  ":g c #0000004A",
  ";[ c #160F0023",
  ";R c #18100020",
  ":3 c #23100050",
  ":= c #2410004E",
  ":* c #45230051",
  ";{ c #4724004F",
  ":2 c #6031008D",
  ":- c #6132008B",
  ";T c #622D0022",
  ";G c #6B31001F",
  "-# c #80400004",
  "+! c #80550006",
  ":; c #894400CE",
  ":1 c #894400CF",
  ";] c #8B4500A9",
  ";E c #8C4600A8",
  ";} c #8C4600C8",
  "=} c #8E470012",
  "-1 c #8F470019",
  "-d c #90490057",
  "=x c #9049005E",
  ":< c #914800EA",
  ":, c #914A00FD",
  ":: c #924800E9",
  ":> c #924A00F6",
  "=n c #934A01FC",
  "=z c #94430013",
  "=N c #944A0026",
  "-P c #944C00F6",
  ";H c #954B00D3",
  "-Z c #964B00F0",
  ";| c #964B00F7",
  "-[ c #964B01F1",
  ":& c #964C00F8",
  "-Q c #964C01F7",
  "=b c #964C02F3",
  "=m c #964D02F3",
  "=^ c #97460016",
  "=K c #974C009B",
  "-- c #974C00CC",
  "-$ c #974C01CC",
  "-L c #974C01F1",
  "={ c #974D00D1",
  ";W c #974D00F6",
  "=/ c #974D01D1",
  "-@ c #974D01E5",
  ";B c #984B00E3",
  "=~ c #984C009A",
  "=J c #984C00B8",
  ";F c #984C00E4",
  "=| c #984C01E4",
  "-; c #984D008B",
  ";v c #984D00CB",
  ";' c #984E01F6",
  "=V c #984E03F7",
  "-t c #9944000F",
  "=M c #994D00B9",
  ";5 c #994D00F1",
  "=B c #994D01B9",
  "=v c #994D02E0",
  "-y c #994E01F2",
  "-8 c #994F00A8",
  ";q c #994F01F3",
  "=! c #994F03F6",
  "=L c #994F04F6",
  "-m c #9A4D00DB",
  "=c c #9A4D01B9",
  "-l c #9A4E00B4",
  "-s c #9A5002F3",
  ";i c #9E4F00EC",
  "-2 c #9E5103ED",
  ";j c #9F5002EE",
  "-7 c #9F5102EF",
  ":. c #B56108F9",
  ":% c #B66209FA",
  ";J c #B76207F8",
  ";Y c #B8650BFA",
  "=( c #B96B18FA",
  "=C c #B96B1AFA",
  "=[ c #B96C17FB",
  "=H c #B96C1AFA",
  ";< c #BA6207F6",
  "-k c #BA680FF9",
  ";k c #BB6407F6",
  ";c c #BB670CF9",
  "-f c #BB6712F7",
  ";4 c #BB680CF8",
  "-: c #BB6C18F9",
  "-< c #BC6D15FA",
  ";V c #CC7211FD",
  ";D c #CD7716FD",
  "-. c #CD812CFE",
  ";Q c #CE7613FE",
  "-+ c #CE822BFE",
  ";b c #CF7510FB",
  ";` c #CF7918FE",
  "=P c #CF8531FE",
  ";N c #D07A18FD",
  "-% c #D0822BFD",
  "-= c #D18528FD",
  "=Q c #D18730FE",
  ";w c #D67912FE",
  ";u c #D7801AFE",
  "-9 c #D7872DFE",
  "-r c #D98829FE",
  ":X c #DA831CFF",
  ":$ c #DB851EFF",
  ";$ c #DC841DFF",
  "-z c #DC8E32FF",
  "=Z c #DC9440FF",
  "=G c #DC9540FF",
  ";, c #DD8A23FF",
  "-n c #DD902FFF",
  ":# c #EA982CFF",
  ":o c #EB962CFF",
  "=A c #EBAA54FF",
  ";# c #EC9C34FF",
  "-{ c #EC9F3EFF",
  "-C c #ECA240FF",
  "-M c #ECA347FF",
  "z, c #F57900FF",
  ";z c #F57A00FF",
  ";X c #F57A01FF",
  ";7 c #F57A02FF",
  ";g c #F57B02FF",
  ";m c #F57B03FF",
  "-_ c #F57B04FF",
  ";= c #F57C06FF",
  "-/ c #F57C08FF",
  "-T c #F57D08FF",
  ";+ c #F57E09FF",
  ";t c #F57F0BFF",
  ":O c #F5A636FF",
  ":@ c #F5A637FF",
  ";P c #F67C03FF",
  ";A c #F67C04FF",
  ";/ c #F67E06FF",
  ";^ c #F67F06FF",
  ";a c #F67F07FF",
  ";> c #F68007FF",
  ";Z c #F68008FF",
  "-Y c #F68212FF",
  ";. c #F68213FF",
  ";2 c #F68414FF",
  ";( c #F6860FFF",
  ";* c #F6861AFF",
  ";@ c #F6871BFF",
  "-R c #F6871DFF",
  "-G c #F6881DFF",
  "-^ c #F6881EFF",
  "-F c #F6891FFF",
  "-H c #F68921FF",
  "-` c #F68A20FF",
  ";K c #F6A334FF",
  ";U c #F6A433FF",
  "=F c #F6B45CFF",
  "=S c #F6B55DFF",
  ";y c #F78811FF",
  ";~ c #F78913FF",
  "-| c #F78E28FF",
  ";& c #F78F29FF",
  "-J c #F78F2CFF",
  "-~ c #F79232FF",
  "-E c #F79334FF",
  "-' c #F79436FF",
  "=T c #F79537FF",
  "=` c #F79638FF",
  "-U c #F7993FFF",
  "-D c #F79E45FF",
  "=] c #F7B15BFF",
  "=) c #F7B55CFF",
  ";I c #F8901AFF",
  ";3 c #F8901BFF",
  ";L c #F89520FF",
  "-o c #F8973AFF",
  "-b c #F8993BFF",
  "-N c #F8993CFF",
  "-} c #F89A3CFF",
  "=R c #F89A3DFF",
  ";% c #F89B37FF",
  ";- c #F89C43FF",
  "=Y c #F89D40FF",
  ";: c #F89D44FF",
  "-e c #F89E41FF",
  "-S c #F8A14EFF",
  ";; c #F8A655FF",
  "-] c #F8AA43FF",
  "-K c #F8AB48FF",
  ";e c #F9911CFF",
  ";) c #F99723FF",
  ";M c #F99823FF",
  ";1 c #F99A26FF",
  "-x c #F9A044FF",
  "=' c #F9A145FF",
  ";h c #F9A230FF",
  ";p c #F9A331FF",
  ";_ c #F9A635FF",
  ";! c #F9A736FF",
  "-B c #F9A95DFF",
  "-V c #F9AB61FF",
  "-6 c #F9AF53FF",
  "-! c #F9B153FF",
  "-A c #F9B459FF",
  "=I c #F9B75EFF",
  ";x c #FA9C29FF",
  ";S c #FA9F2CFF",
  ";n c #FAA02CFF",
  ";0 c #FAA02EFF",
  "=_ c #FAA54AFF",
  ";6 c #FAA634FF",
  "=E c #FAA74CFF",
  "-* c #FAA84DFF",
  "=U c #FAAA4FFF",
  "-, c #FAAC52FF",
  "-g c #FAAD52FF",
  "-O c #FAAE54FF",
  "-& c #FAB055FF",
  "-c c #FAB06CFF",
  "-v c #FAB36FFF",
  "=W c #FAB45CFF",
  "-h c #FAB87AFF",
  ";s c #FABB7DFF",
  "-j c #FABB80FF",
  "-i c #FAC089FF",
  "-p c #FAC28EFF",
  ";l c #FBA432FF",
  ";C c #FBA533FF",
  ":+ c #FBAB39FF",
  "-W c #FBAB45FF",
  "-a c #FBAE50FF",
  "-X c #FBB35AFF",
  "-> c #FBB45BFF",
  "-u c #FBB860FF",
  ";f c #FBC591FF",
  "-0 c #FBC898FF",
  "-3 c #FBC99AFF",
  "-w c #FBCA9CFF",
  "-5 c #FBCB9FFF",
  ";8 c #FBCC9EFF",
  "=D c #FCB75EFF",
  "-I c #FCB85CFF",
  ";9 c #FCD7B3FF",
  ";o c #FEF1E5FF",
  ";O c #FEF4EAFF",
  ";d c #FEF6EEFF",
  "-4 c #FEF7F2FF",
  ";r c #FFFAF6FF",
  "-( c #FFFBF7FF",
  "-) c #FFFDFCFF",
  "-q c #FFFEFFFF",
  "1U c #FFFFFFFF",
  "   c none",
  
  // Image data
  "                      =z=x=c=v=b=n=m=v=M=x=z                    ",
  "                  =N=B=V=C=Z=A=S=D=F=A=G=H=V=J=N                ",
  "              +!=K=L=P=I=U=Y=T=T=T=T=T=R=E=W=Q=!=~+!            ",
  "            =^=/=(=)=_=`=T=T=T=T=T=T=T=T=T=T='=]=[={=^          ",
  "          =}=|-.-X-o=T=T=T=T=T=T=T=T=T=T=T=T=T=`-O-+-@=}        ",
  "        -#-$-%-&=`=T=T=T=T=T=T=T=T=T=T=T=T=T=T=T=T-*-=---#      ",
  "        -;-:->=`=T=T=T=T=T=T=T=T=T=T=T=T=T=T=T=T=T=T-,-<-;      ",
  "      -1-2=W-o=T=T=T=T=T=T=T-3-4-4-4-5=T=T=T=T=T=T=T=`-6-7-1    ",
  "      -8-9=_=T=T=T=T=T=T=T=T-0-q-q-q-w=T=T=T=T=T=T=T=T-e-r-8    ",
  "    -t-y-u=`=T=T=T=T=T=T=T=T-i-q-q-q-p=T=T=T=T=T=T=T=T=T-a-s-t  ",
  "    -d-f-g=T=T=T=T=T=T=T=T=T-h-q-q-q-j=T=T=T=T=T=T=T=T=T=_-k-d  ",
  "    -l-z-x=T=T=T=T=T=T=T=T=T-c-q-q-q-v=T=T=T=T=T=T=T=T=T-b-n-l  ",
  "    -m-M-N=T=T=T=T=T=T=T=T=T-B-q-q-q-V=T=T=T=T=T=T=T=T=T=T-C-m  ",
  "    -Z-A=`=T=T=T=T=T=T=T=T=T-S-q-q-q-D-F-G-H-J=T=T=T=T=T=T-K-L  ",
  "    -P-I=T=T=T=T=T=T=T=T=T=T-U-q1U1U-Yz,z,z,z,-T-R-E=T=T=T-W-Q  ",
  "    -Z-!=`=T=T=T=T=T=T=T-~-^-/-(1U-)z,z,z,z,z,z,z,-_-`-'=T-]-[  ",
  "    -m-{-}=T=T=T=T=T-|;.;Xz,z,;o1U;Oz,z,z,z,z,z,z,z,z,;+;@;#-m  ",
  "    -l;$;%=T-E;&;*;=z,z,z,z,z,;-;;;:z,z,z,z,z,z,z,z,z,z,;>;,-l  ",
  "    -d;<;1z,z,z,z,z,z,z,z,z,z,z,;2z,z,z,z,z,z,z,z,z,z,z,;3;4-d  ",
  "    -t;5;6;7z,z,z,z,z,z,z,z,z,;81U;9z,z,z,z,z,z,z,z,z,z,;0;q-t  ",
  "      -8;w;ez,z,z,z,z,z,z,z,z,;r1U1U;tz,z,z,z,z,z,z,z,;y;u-8    ",
  "      -1;i;p;az,z,z,z,z,z,z,z,;s;d;fz,z,z,z,z,z,z,z,;g;h;j-1    ",
  "        -;;k;l;gz,z,z,z,z,z,z,z,z,z,z,z,z,z,z,z,z,;z;x;c-;      ",
  "        -#;v;b;n;mz,z,z,z,z,z,z,z,z,z,z,z,z,z,z,;X;M;N;v-#      ",
  "          =};B;V;C;Zz,z,z,z,z,z,z,z,z,z,z,z,z,;A;S;D;F=}        ",
  "          *`;G;H;J;K;L;Pz,z,z,z,z,z,z,z,z,;X;I;U;Y;H;T$p+n      ",
  "        $p=#=$;R;E;W;Q;!;1;~;^;Xz,z,;/;(;);_;`;';];[[~&Z$a*T    ",
  "      =1=2@o5UEetS;{;};|:.:X:o:O:+:@:#:$:%:&;}:*9):W9b[~:l:E    ",
  "      *R=2@o=w=ern:s,W:=:-:;:::>:,:>:<:1:2:3:h=&rF@$9b[~$s:E    ",
  "      +n=a$s[~=@:Q=s:s=d*/=q=3=0:g=g!$=j3&,W:4rF+J*'$^+r+>+n    ",
  "          *R=2$w$^9b=eer9):dT2=&=l=l:4:s=%rn:W*'5U=$=#=1        ",
  "              *T:E=#$w[~$z=w9b*'*'*'=k=@5U:5@o=2$p*T            "
};
