/* XPM */
const char *xpm_tango_emblems_emblem_favorite[] = {
  // Header (width height colors chars-per-pixel)
  "32 32 377 2",
  
  // Colors (code mode value)
  "+n c #00000001",
  "*T c #00000002",
  "*_ c #00000003",
  "*` c #00000004",
  "=1 c #00000005",
  "*R c #00000006",
  "$p c #00000007",
  ":E c #00000008",
  "=a c #00000009",
  "$a c #0000000A",
  "+> c #0000000B",
  ":k c #0000000C",
  "=2 c #0000000D",
  "=# c #0000000E",
  ":l c #0000000F",
  "$s c #00000010",
  "+r c #00000012",
  "$w c #00000013",
  "@o c #00000014",
  "=$ c #00000015",
  "+k c #00000016",
  "[~ c #00000017",
  "=N c #00000018",
  "$^ c #00000019",
  "$z c #0000001A",
  "5U c #0000001B",
  "=w c #0000001C",
  "=@ c #0000001D",
  "9b c #0000001E",
  "=k c #0000001F",
  "*' c #00000020",
  "+g c #00000021",
  "Ee c #00000022",
  "=e c #00000023",
  ":Q c #00000024",
  ":W c #00000025",
  "@$ c #00000026",
  "+J c #00000027",
  "er c #00000028",
  "tS c #00000029",
  "rn c #0000002A",
  "=s c #0000002B",
  "9) c #0000002C",
  "rF c #0000002D",
  "=% c #0000002E",
  ":d c #00000030",
  ":s c #00000031",
  "T2 c #00000032",
  "=( c #00000033",
  "=& c #00000034",
  "=l c #00000035",
  "=< c #00000036",
  "=d c #00000037",
  "tD c #00000038",
  ",W c #00000039",
  "9c c #0000003A",
  ":h c #0000003B",
  "B% c #0000003D",
  "3& c #0000003E",
  "9] c #0000003F",
  "=r c #00000040",
  "=q c #00000041",
  "=p c #00000042",
  "=j c #00000043",
  "=3 c #00000045",
  "=f c #00000046",
  "!$ c #00000047",
  "=0 c #00000048",
  "=g c #00000049",
  ":g c #0000004A",
  "jU c #0000004E",
  "=i c #00000050",
  "=t c #00000055",
  "kM c #00000057",
  "=4 c #0300004D",
  "=+ c #07000027",
  "=h c #0D000050",
  "=* c #17000042",
  "*) c #24000015",
  "*] c #4100003F",
  "=u c #4900008F",
  "=y c #4A00008E",
  "=9 c #55000096",
  "=5 c #650200A9",
  "=, c #6902009C",
  "*E c #6E000048",
  "=O c #760200A4",
  "== c #780100C5",
  "*% c #80000008",
  "*s c #8000000E",
  "%@ c #80000012",
  "*$ c #80000014",
  "%E c #80000024",
  "$/ c #81000049",
  "${ c #82000039",
  "%> c #82000056",
  "*G c #82000062",
  "%d c #820000FF",
  "*( c #820100B1",
  "*[ c #820101DF",
  "$] c #83000065",
  "&' c #83000075",
  "&k c #830000FC",
  "&r c #830100FB",
  "&] c #83030361",
  "%9 c #8400005F",
  "*W c #840101F1",
  "&l c #840101FA",
  "*3 c #84020072",
  "*B c #8500008C",
  "*U c #850100BE",
  "*N c #850100CF",
  "&C c #850100F2",
  "*a c #850101DA",
  "%O c #8502007B",
  "*r c #85020098",
  "%| c #85020099",
  "%: c #850201EF",
  "%8 c #850201F3",
  "=8 c #850302F9",
  "%+ c #86000015",
  "*x c #860100AB",
  "*d c #860100B3",
  "*e c #860100BC",
  "&U c #860100D5",
  "*z c #860101D4",
  "&; c #8602008B",
  "%b c #860200A4",
  "$} c #860200A8",
  "%q c #860201D5",
  "&: c #860201E6",
  "%X c #860201F0",
  "%. c #860201F2",
  "*H c #860202F5",
  "&Z c #860301ED",
  "$_ c #860302F4",
  "=6 c #860403F9",
  "%} c #87000011",
  "%v c #8700008E",
  "%< c #870100B2",
  "%# c #870100B4",
  "$( c #870100B7",
  "$' c #870100C2",
  "&e c #870100E5",
  "*F c #870101C7",
  "%R c #8702006A",
  "$| c #870201E3",
  "*& c #870301EB",
  "$) c #870302EA",
  "%, c #8800000F",
  "%o c #880100D0",
  "$` c #880302ED",
  "%{ c #880502F0",
  "=> c #880504F8",
  "%W c #890503F4",
  "&Y c #890703C1",
  "*V c #8A0504F5",
  "%1 c #8A0704F5",
  "$[ c #8B00000B",
  "%s c #8B0806F6",
  "=o c #8C0907F7",
  "*4 c #8D0704F4",
  "%$ c #8D0906F5",
  "*Y c #8E000009",
  "=- c #8F0B09F8",
  "%c c #900B07F5",
  "*c c #910B08F6",
  "%T c #910E08F5",
  "%0 c #92000007",
  "*/ c #920F0BF6",
  "*2 c #930F0BF5",
  "*t c #960E09F5",
  "*f c #960F0AF5",
  "*I c #981512F7",
  "%; c #9A1A13F6",
  "*D c #9E1C18F8",
  "*{ c #9F1B16F9",
  "&[ c #9F1C10F6",
  "*M c #A1201CF8",
  "*w c #A2201BF8",
  "&` c #A31B15F8",
  "%7 c #A32318F9",
  "*l c #A3231EFA",
  "%f c #A5291EFA",
  "%n c #A62317F8",
  "*p c #A72822FA",
  "&- c #A81D14F9",
  "%w c #A8291AFB",
  "y@ c #AA000003",
  "*Q c #B02F28FD",
  "&. c #B0321FFC",
  "%2 c #B63D2CFE",
  "=7 c #B63D36FF",
  "%% c #BB4833FF",
  "&T c #BD3E27FF",
  "%D c #BE4D39FF",
  "*J c #C04239FF",
  "%- c #C2543EFF",
  "&I c #C34238FF",
  "&g c #C71807FF",
  "&L c #C71907FF",
  "&N c #C71C09FF",
  "&0 c #C81B09FF",
  "*L c #C81C0BFF",
  "*0 c #C81D0CFF",
  "&h c #C81D0DFF",
  "*+ c #C81E0AFF",
  "&w c #C84136FF",
  "&f c #C91D0AFF",
  "*< c #C91E0EFF",
  "*j c #C91F0FFF",
  "&B c #C92010FF",
  "*9 c #C9210BFF",
  "*n c #C92111FF",
  "** c #C94C33FF",
  "%6 c #C95D44FF",
  "&9 c #CA230EFF",
  "*u c #CA2313FF",
  "*~ c #CA2414FF",
  "*A c #CA2515FF",
  "%a c #CA6045FF",
  "*, c #CB250CFF",
  "*h c #CB2617FF",
  "&q c #CB2819FF",
  "&8 c #CB2A12FF",
  "*@ c #CB2A1AFF",
  "*C c #CB4F44FF",
  "&) c #CC270EFF",
  "*8 c #CC2A0EFF",
  "&P c #CC2C1CFF",
  "&K c #CC3014FF",
  "*7 c #CD3011FF",
  "*b c #CD3020FF",
  "*| c #CD3021FF",
  "&7 c #CD3217FF",
  "&> c #CD5B3CFF",
  "=: c #CD5C53FF",
  "&d c #CE3417FF",
  "*> c #CE3513FF",
  "=. c #CE3728FF",
  "*# c #CE564CFF",
  "%x c #CE664CFF",
  "*O c #CF3515FF",
  "&A c #CF593AFF",
  "*: c #D03815FF",
  "*; c #D03916FF",
  "*- c #D03A17FF",
  "&6 c #D03B1DFF",
  "*6 c #D03C1CFF",
  "*Z c #D03C2EFF",
  "&M c #D03D1CFF",
  "*v c #D05146FF",
  "&V c #D0554AFF",
  "*o c #D13C19FF",
  "*X c #D13D19FF",
  "*. c #D13E19FF",
  "&| c #D13F19FF",
  "&} c #D13F1AFF",
  "&( c #D1401AFF",
  "&/ c #D2411BFF",
  "&^ c #D2411CFF",
  "&~ c #D2421DFF",
  "&! c #D2431DFF",
  "&Q c #D2431EFF",
  "*y c #D24A3DFF",
  "*g c #D24E41FF",
  "&W c #D3441EFF",
  "&E c #D3441FFF",
  "&J c #D3451FFF",
  "&H c #D34620FF",
  "&G c #D34721FF",
  "&F c #D34821FF",
  "&D c #D34922FF",
  "*= c #D34927FF",
  "&_ c #D3493CFF",
  "*5 c #D3583FFF",
  "=X c #D36258FF",
  "&5 c #D44725FF",
  "&S c #D44922FF",
  "&m c #D44B23FF",
  "&n c #D44C24FF",
  "&b c #D44C25FF",
  "&s c #D44C26FF",
  "*K c #D44D40FF",
  "&v c #D54D26FF",
  "&c c #D54E27FF",
  "&a c #D54F28FF",
  "&p c #D55029FF",
  "&i c #D5512AFF",
  "&x c #D5532DFF",
  "&j c #D5594DFF",
  "*^ c #D5655BFF",
  "%3 c #D57357FF",
  "&R c #D6512EFF",
  "&u c #D6522BFF",
  "&4 c #D6532CFF",
  "&3 c #D6542DFF",
  "&* c #D6552EFF",
  "&2 c #D6562EFF",
  "&1 c #D7552FFF",
  "&& c #D7562FFF",
  "&% c #D75730FF",
  "&$ c #D75831FF",
  "&# c #D75932FF",
  "*q c #D7594DFF",
  "&@ c #D75A33FF",
  "*i c #D75B4FFF",
  "&y c #D85933FF",
  "&< c #D85B34FF",
  "&{ c #D85B3AFF",
  "&+ c #D85C34FF",
  "%' c #D85C35FF",
  "%` c #D85E36FF",
  "%_ c #D85E37FF",
  "*! c #D85E52FF",
  "*1 c #D85E54FF",
  "%) c #D85F38FF",
  "*k c #D85F53FF",
  "*m c #D86156FF",
  "&z c #D86443FF",
  "*P c #D8665CFF",
  "%[ c #D87155FF",
  "%( c #D96039FF",
  "%/ c #D9613AFF",
  "&O c #D9613BFF",
  "&, c #D9623BFF",
  "%^ c #D9623DFF",
  "&o c #D9633BFF",
  "=; c #D96358FF",
  "%P c #D9643CFF",
  "&= c #D96448FF",
  "*S c #D9645AFF",
  "%I c #D9653DFF",
  "&t c #D96645FF",
  "*} c #D9675DFF",
  "%& c #D97859FF",
  "%L c #DA653DFF",
  "%K c #DA653EFF",
  "%J c #DA663FFF",
  "%H c #DA6740FF",
  "%! c #DA6941FF",
  "%G c #DB6A44FF",
  "%Z c #DB6B44FF",
  "%C c #DB6C45FF",
  "%V c #DB6D45FF",
  "%B c #DB6D46FF",
  "%N c #DB6E48FF",
  "%k c #DB6F47FF",
  "%S c #DB7656FF",
  "%Y c #DB795BFF",
  "%] c #DC6B48FF",
  "&X c #DC6D48FF",
  "%A c #DC704BFF",
  "%l c #DC714BFF",
  "%j c #DC724DFF",
  "%M c #DD724DFF",
  "%~ c #DD724EFF",
  "%U c #DD734FFF",
  "%Q c #DD7350FF",
  "%u c #DD744EFF",
  "%y c #DD754FFF",
  "%= c #DD7D5DFF",
  "%g c #DD7D5EFF",
  "%t c #DE7652FF",
  "%i c #DE7753FF",
  "%m c #DE7956FF",
  "%h c #DE7A56FF",
  "%F c #DE7B57FF",
  "%e c #DE7C59FF",
  "%r c #E07C58FF",
  "%p c #E07D59FF",
  "%5 c #E08262FF",
  "%z c #E18261FF",
  "%* c #E18461FF",
  "%4 c #E28665FF",
  "Rr c #FF000001",
  "   c none",
  
  // Image data
  "                                                                ",
  "                                                                ",
  "                                                                ",
  "              $/$($)$_$`$'$]$[      ${$}$|%.%X%o%O%+            ",
  "          %@%#%$%%%&%*%=%-%;%:%>%,%<%1%2%3%4%5%6%7%8%9          ",
  "        %0%q%w%e%r%t%y%u%i%p%a%s%d%f%g%h%j%k%l%i%z%x%c%v        ",
  "        %b%n%m%M%N%N%B%V%C%Z%A%S%D%F%G%H%J%K%L%P%I%U%Y%T%R      ",
  "      %E%W%Q%B%!%H%H%J%K%L%P%P%J%~%^%/%/%(%(%)%_%`%'%]%[%{%}    ",
  "      %|&.&X&o&O%/%/%(%(%)%_%`%'%'&+&@&@&#&#&$&$&%&&&*&=&-&;    ",
  "      &:&>&,%'&+&<&@&#&#&$&$&%&&&1&2&*&3&4&5&6&7&8&9&0&q&w&e    ",
  "      &r&t&y&1&2&*&3&3&4&u&u&i&i&p&a&s&d&f&g&g&g&g&g&g&h&j&k    ",
  "      &l&z&x&p&a&a&c&c&v&b&b&n&n&m&M&N&g&g&g&g&g&g&g&g&B&V&C    ",
  "      &Z&A&i&m&m&S&D&F&F&G&H&J&J&K&L&g&g&g&g&g&g&g&g&g&P&I&U    ",
  "      &Y&T&R&E&W&Q&!&~&^&^&/&(&)&g&g&g&g&g&g&g&g&g&g&g&_&`&'    ",
  "      &]&[&{&(&}&|*.*X*X*o*O*+&g&g&g&g&g&g&g&g&g&g&g*@*#%8*$    ",
  "      *%*&***=*-*;*;*:*>*,&L&g&g&g&g&g&g&g&g&g&g&g*<*1*2*3      ",
  "        %>*4*5*6*7*8*9&L&g&g&g&g&g&g&g&g&g&g&g&g*0*q*w*ey@      ",
  "          *r*t*y*u&g&g&g&g&g&g&g&g&g&g&g&g&g&g&h*i*p*a*s        ",
  "          y@*d*f*g*h&g&g&g&g&g&g&g&g&g&g&g&g*j*k*l*z%}          ",
  "            y@*x*c*v*b&g&g&g&g&g&g&g&g&g&g*n*m*M*N*s            ",
  "              Rr*B*V*C*Z&g&g&g&g&g&g&g&g*A*S*D*F$[              ",
  "                  *G*H*J*K*L&g&g&g&g&g*@*P*I*U*Y                ",
  "              *T*R+>*E*W*Q*!*~&g&g&g*b*^*/*(*):k:E*_            ",
  "          *`$a$s+k5U*'*]*[*{*}*|&g=.=X=o=O=++g=@[~+r:k*R        ",
  "        $p=#=$5UEeer=%=&=*===-=X=;=:=>=,:h=<:drn:Q9b[~$s$a*T    ",
  "      =1=2@o5UEetS:dtD3&=3=4=5=6=7=8=9jU=0=q9c=(9):W9b+k:l:E    ",
  "      *R=2@o=w=ernT2,W=r!$jU=t=y%d=ukM=i:g=p:h=&rF@$9b[~$s:E    ",
  "      *T=a$s[~9b:Q=s:s=dB%=p=f=g=h=g!$=j9],W=(rF+J*'$^+r+>+n    ",
  "          *R=2$w$^=k:QerrF:d=(=&=l=l=(:s=%rn:W*'5U=$=#=1        ",
  "              *_:E=#$w[~$z=@=k*'*'*'=k=@5U=N=$=#$p*T            ",
  "                      +n*_*`=1*R$p*R*R*`*T+n                    ",
  "                                                                "
};
