/* XPM */
const char *xpm_tango_apps_accessories_calculator[] = {
  // Header (width height colors chars-per-pixel)
  "32 32 250 2",
  
  // Colors (code mode value)
  "+j c #00000001",
  "@N c #00000005",
  "*! c #00000008",
  "+> c #0000000B",
  "@m c #00000013",
  "+k c #00000016",
  "*k c #00000017",
  "@n c #00000019",
  "+| c #0000001B",
  "*Q c #0000001D",
  "&V c #0000001F",
  "@6 c #00000020",
  "xi c #05050536",
  "xw c #0A0A0A19",
  "xy c #0A0A0A4B",
  "xu c #0B0B0B46",
  "xt c #0B0B0B47",
  "xr c #0C0C0C42",
  "xe c #0F0F0F34",
  "xq c #2B2B2B82",
  "l* c #2E3436FF",
  "lS c #2F3537FF",
  "l& c #303638FF",
  "lV c #323839FF",
  "lv c #33393AFF",
  "x6 c #34343470",
  "x7 c #343434F9",
  "x0 c #343434FA",
  "k{ c #343434FF",
  "lc c #343A3CFF",
  "x- c #353535F4",
  "x5 c #353535F5",
  "x8 c #353636FA",
  "x9 c #353636FB",
  "k| c #36363651",
  "lB c #363C3EFF",
  "lw c #37382BFF",
  "l> c #373D3EFF",
  "l= c #373D3FFF",
  "z1 c #383838FF",
  "zD c #383938FF",
  "k] c #39393955",
  "l. c #393939F0",
  "k} c #393939F1",
  "k[ c #393939F2",
  "aa c #393939FF",
  "z| c #393A39FF",
  "lt c #393B2DFF",
  "lL c #393E41FF",
  "l$ c #3A3A3AEE",
  "zd c #3A3A3AFF",
  "lu c #3A3C2EFF",
  "zQ c #434444FF",
  "zk c #434445FF",
  "lK c #43474AFF",
  "z= c #444546FF",
  "z[ c #454545FF",
  "z] c #454645FF",
  "z9 c #454646FF",
  "z* c #464748FF",
  "ly c #464938FF",
  "z& c #474849FF",
  "z% c #48494AFF",
  "ry c #4A4A4AFF",
  "z$ c #4A4A4BFF",
  "z0 c #4A4B4AFF",
  "z# c #4B4C4DFF",
  "l2 c #4B4D3BFF",
  "zV c #4B4E4FFF",
  "lD c #4C5153FF",
  "z- c #4D4F51FF",
  "lP c #505457FF",
  "z} c #525555FF",
  "zs c #545657FF",
  "l5 c #555843FF",
  "l7 c #575A45FF",
  "z^ c #585C5DFF",
  "z~ c #585C5EFF",
  "z! c #595C5EFF",
  "zC c #595D5FFF",
  "le c #5A5D47FF",
  "zG c #5A5D5FFF",
  "zz c #5A5D60FF",
  "zl c #5A5E60FF",
  "x= c #5B5E5FFF",
  "zx c #5B5E60FF",
  "zO c #5B5E61FF",
  "zn c #5B5F60FF",
  "z2 c #5D6062FF",
  "zo c #5D6063FF",
  "x@ c #5E6261FF",
  "x. c #5F605EFF",
  "xo c #5F6262FF",
  "zX c #5F6265FF",
  "x$ c #5F6462FF",
  "x+ c #5F6463FF",
  "zU c #606263FF",
  "zP c #606364FF",
  "z. c #606366FF",
  "zT c #606464FF",
  "zf c #616260FF",
  "zY c #616464FF",
  "zi c #616465FF",
  "zB c #616565FF",
  "ze c #626466FF",
  "zN c #626565FF",
  "za c #626566FF",
  "l| c #626568FF",
  "zu c #626666FF",
  "z< c #636567FF",
  "zt c #636667FF",
  "z5 c #636669FF",
  "z, c #646668FF",
  "l} c #64676AFF",
  "lI c #65676AFF",
  "l{ c #66696CFF",
  "l6 c #676A51FF",
  "xX c #686B6AFF",
  "l[ c #686B6EFF",
  "lg c #686C52FF",
  "zJ c #686C6BFF",
  "lA c #686C6EFF",
  "zg c #696C6CFF",
  "l] c #696C6FFF",
  "ls c #696D53FF",
  "z7 c #696D6DFF",
  "z{ c #696E6BFF",
  "z_ c #696E6CFF",
  "l4 c #6A6E54FF",
  "z) c #6A6E6CFF",
  "zH c #6A6E6DFF",
  "zS c #6A6F6DFF",
  "lb c #6A706EFF",
  "zR c #6B6E6DFF",
  "z> c #6B6E6FFF",
  "l' c #6B6E71FF",
  "lr c #6B6F55FF",
  "zA c #6B6F6DFF",
  "zq c #6C6F6FFF",
  "z6 c #6C706EFF",
  "l` c #6D7073FF",
  "l3 c #6E7157FF",
  "z: c #6E7174FF",
  "lJ c #6E7275FF",
  "l_ c #6F7275FF",
  "lf c #707459FF",
  "l) c #717376FF",
  ";W c #727272FF",
  "x% c #727571FF",
  "l( c #727578FF",
  "ld c #72765AFF",
  "x* c #727673FF",
  "lN c #727875FF",
  "zc c #737673FF",
  "lq c #73775BFF",
  "zb c #747675FF",
  "l/ c #74777AFF",
  "l^ c #76797CFF",
  "la c #767A5DFF",
  "l1 c #777B5EFF",
  "x# c #787B78FF",
  "l~ c #787B7EFF",
  "l% c #787C7FFF",
  "xO c #797B78FF",
  "zI c #797B79FF",
  "x& c #797C78FF",
  "zp c #797C79FF",
  "zv c #7A7C78FF",
  "zy c #7A7C79FF",
  "zr c #7A7C7AFF",
  "l! c #7A7C7FFF",
  "lQ c #7B7E81FF",
  "x4 c #7D7F80FF",
  "lW c #7D8083FF",
  "=, c #7F7F7FFF",
  "lE c #7F8285FF",
  ";@ c #818181FF",
  "lR c #818386FF",
  "x; c #818485FF",
  ",x c #828282FF",
  "lT c #838588FF",
  "l- c #898D89FF",
  "mV c #8B8B8BFF",
  "-i c #8D8D8DFF",
  "lH c #8D9093FF",
  "ln c #949993FF",
  ",F c #979797FF",
  "z` c #97999AFF",
  "lM c #979B96FF",
  "z( c #989A9BFF",
  "x3 c #989B9BFF",
  "zE c #999B9CFF",
  "zK c #999C9DFF",
  "x2 c #9A9C9DFF",
  "x1 c #9A9D9DFF",
  "l0 c #9A9E8CFF",
  "zF c #9B9D9EFF",
  "zm c #9B9E9FFF",
  ",J c #9C9C9CFF",
  "x< c #9C9E9EFF",
  "x, c #9C9F9FFF",
  "zh c #9D9EA0FF",
  "x> c #9D9FA0FF",
  "zw c #9D9FA1FF",
  "x: c #9DA0A0FF",
  "lk c #9DA19BFF",
  "z8 c #9EA0A1FF",
  "z3 c #9FA0A2FF",
  "z; c #9FA1A3FF",
  "z' c #9FA2A2FF",
  "l< c #9FA392FF",
  "z+ c #A0A2A3FF",
  "z/ c #A1A2A3FF",
  "zW c #A1A4A5FF",
  "zL c #A2A4A5FF",
  "zZ c #A3A5A6FF",
  "ll c #A3A6A0FF",
  "zM c #A4A6A7FF",
  "zj c #A5A7A8FF",
  "lU c #A6A7A9FF",
  "li c #A6A99CFF",
  "5G c #A6A9A4FF",
  "lm c #A7ABA5FF",
  "lF c #ABADAFFF",
  "l8 c #ABAEA2FF",
  "z4 c #ACADAFFF",
  "lC c #B2B3B5FF",
  "z@ c #B8BABBFF",
  "lz c #B8BABCFF",
  "l; c #B9BCB5FF",
  "l# c #BABBBDFF",
  "l: c #BABDB6FF",
  "lX c #BDBEC1FF",
  "lY c #BDBFC1FF",
  "lh c #BFC0C2FF",
  "lG c #C4C5C6FF",
  "lp c #C5C6C8FF",
  "lZ c #C9CBCDFF",
  "l9 c #CBCDCEFF",
  "lx c #D0D1D2FF",
  "l, c #D1D2D4FF",
  "lj c #D5D6D7FF",
  "u- c #D7D8DAFF",
  "l@ c #D7D9DAFF",
  "8{ c #D8D9DAFF",
  "l+ c #D8D9DBFF",
  "8j c #D9DADBFF",
  "lO c #D9DADCFF",
  "lo c #DADBDCFF",
  "   c none",
  
  // Image data
  "                                                                ",
  "      k]k[k{k{k{k{k{k{k{k{k{k{k{k{k{k{k{k{k{k{k{k{k{k{k{k}k|    ",
  "      l.lXlololololololololOlOlOlOlOlO8jl+l+l+l+8{8{l@l@l#l$    ",
  "      k{lol%l&l*l*l*l*l*l*l*l*l*l*l*l*l*l*l*l*l*l*l*l&l%u-k{    ",
  "      k{lol=l-l;l:l:l:l:l:l:l:l:l:l:l:l:l:l:l:l:l:l;l-l>l,k{    ",
  "      k{lol*l;l<l1l1l1l1l1l1l1l1l1l1l2l3l4l5l6l7l1l8l;l*l9k{    ",
  "      k{lol*l:l0l1l1l1l1l1l1l1l1l1lqlwlelrltlylul1lil:l*lpk{    ",
  "      k{lol*l:l<l1l1l1l1l1l1l1l1l1lalsldlflgl1lfl1l8l:l*lhk{    ",
  "      k{ljl*lkl:l:l:l:l:l:l:l:l:l:l:l:l:l:l:l:l:l:l:lll*lzk{    ",
  "      k{lxlclvlbln5Glmlmlmlmlmlmlmlmlmlmlmlmlm5GlMlNlBlVlCk{    ",
  "      k{lZlAlSl*l*l*l*l*l*l*l*l*l*l*l*l*l*l*l*l*l*l*l*lDlFk{    ",
  "      k{lGlHlJlKlSl*l*l*l*l*l*l*l*l*l*l*l*l*l*l*lSlLlPlIlUk{    ",
  "      k{lYlTlRlElWlQl!l~l^l/l(l)l_l`l'l]l[l{l}l|z.zXzozOz+k{    ",
  "      k{z@l~z#k{k{z$l_z%k{k{z&l{z*k{k{z=zoz-aak{k{aaz-zOz;k{    ",
  "      k{lCz:k{,x,xk{z>k{,x,xk{z,k{,x,xk{z<z1=,-i-i=,aaz2z3k{    ",
  "      k{z4z5k{;W;Wk{z6k{;W;Wk{z6k{;W;Wk{z6k{-i,F,F-ik{z7z8k{    ",
  "      k{lUzOz9k{k{z0z6z9k{k{z0z6z9k{k{z0z6aa=,-i-i=,aazqzwk{    ",
  "      k{lUzOzezrzrzrztzezyzrzyzuzizpzrzyzazszdk{k{zdzfzgzhk{    ",
  "      k{zjzOzkk{k{zkzlzkk{k{zkzzzkk{k{zkzzzxzczvzrzyzbznzmk{    ",
  "      k{zMzlk{,x,xk{zak{,x,xk{zNk{,x,xk{zBzVaak{k{aazVzCzmk{    ",
  "      k{zZzzk{;W;Wk{zAk{;W;Wk{zSk{;W;Wk{zSz1;@-i-i;@zDzxzFk{    ",
  "      k{zZzGz9k{k{z0zSz9k{k{z0zSz9k{k{z0zHk{-i-i-i-ik{zJzKk{    ",
  "      k{zLzCzPzIzrzpzBzUzIzyzIzYzUzIzyzIzTk{-i,J,J-ik{zRzEk{    ",
  "      k{zWzCzQk{k{zQz!zQk{k{zQz~zQk{k{zQz^k{-i,J,J-ik{zRzEk{    ",
  "      k{z/z!k{,x,xk{zTk{,x,xk{zTk{,x,xk{zTk{-i-i-i-ik{zHz(k{    ",
  "      k{z+z~k{;W;Wk{z)k{;W;Wk{z)k{;W;Wk{z_z1=,mVmV=,aaz)z`k{    ",
  "      k{z'z^z]k{k{ryz)z[k{k{ryz_z[k{k{ryz{z}z|k{k{z|x.xXz`k{    ",
  "      k{z3z!xoxOzIzIx+x@x#zIxOx$x@x#zIxOx$z^x%x&zIx&x*x=z`k{*!  ",
  "      x-x;x:x>x>x,x,x<x<zFzFx1x1x2x2zEzEx3x3z(z`z`z`z`z`x4x5*k+j",
  "      x6x7x8x8x8x9x9x9x9x9x9x9x9x9x9x9x9x9x9x9x9x9x9x8x9x0xq@n  ",
  "        xwxexrxtxyxyxyxyxyxyxyxyxyxyxyxyxyxyxyxyxyxyxuxtxi@6@N  ",
  "          *!@m*Q&V&V&V&V&V&V&V&V&V&V&V&V&V&V&V&V&V&V+|+k+>+j    "
};
