/* XPM */
const char *xpm_tango_apps_accessories_text_editor[] = {
  // Header (width height colors chars-per-pixel)
  "32 32 309 2",
  
  // Colors (code mode value)
  "+j c #00000001",
  "@M c #00000002",
  "@. c #00000003",
  "@X c #00000004",
  "@C c #00000007",
  "*! c #00000008",
  "*7 c #00000009",
  "@B c #0000000A",
  "@2 c #0000000E",
  "@m c #00000013",
  "*' c #00000015",
  "@n c #00000019",
  "+| c #0000001B",
  "&V c #0000001F",
  "*` c #00000024",
  "*~ c #00000025",
  "rE c #00000029",
  "rn c #0000002A",
  "=( c #00000033",
  "no c #424242FF",
  "nO c #434343FF",
  "nX c #444444FC",
  "n+ c #444444FF",
  "n# c #454545A7",
  "n@ c #474747FD",
  "n. c #48484899",
  "b} c #484848FC",
  "b| c #4E4E4EFD",
  "rt c #4F4F4FFF",
  "v' c #55390009",
  "b% c #55470E12",
  "6[ c #555555FF",
  "b[ c #5B5B5BF7",
  "j: c #5C410CFF",
  "vg c #5C410D27",
  "vA c #5F420CFA",
  "b{ c #5F5F5FFA",
  "v_ c #60420CF7",
  "v` c #60450E94",
  "vd c #61450FF5",
  "bP c #624611FF",
  "vs c #63460DB2",
  "bI c #634712FF",
  "b# c #634814FE",
  "vT c #64460DAB",
  "vf c #64460FDB",
  "bD c #644813FF",
  "bL c #644915FF",
  "vv c #65470ECF",
  "bq c #664B14FF",
  "vl c #674B17FF",
  "b' c #686868EA",
  "b$ c #695428A1",
  "bb c #6A4D16FF",
  "bV c #6A4F1AFF",
  "bp c #6A5120FF",
  "bi c #6B4E15FF",
  "vM c #6B4F19FF",
  "b] c #6B6B6BED",
  "b4 c #6C511FFF",
  "bk c #6D5119FF",
  "vH c #6D511AFF",
  "v| c #6D5525FF",
  "bU c #6E5524FF",
  "v! c #70541CFF",
  "b_ c #707070DC",
  "b- c #725A29FF",
  "b3 c #735519FF",
  "bF c #735D32FF",
  "b` c #767676DD",
  "b; c #77591FFF",
  "b@ c #785819FF",
  "b( c #797979CA",
  "vQ c #7B6334FF",
  "bn c #7C6435FF",
  "b) c #7E7E7ECD",
  "vG c #7F683BFF",
  "bY c #806E47FF",
  "<F c #80808006",
  "bE c #818181B6",
  "v) c #82562BFD",
  "vm c #836D42FF",
  "vY c #844411FB",
  "bS c #86611AFF",
  "b/ c #868686B9",
  "bB c #877B62FF",
  "bJ c #878787A0",
  "c_ c #886F00FF",
  "cE c #887001FF",
  "b0 c #887C63FF",
  "vO c #896F01FF",
  "vo c #897001FF",
  "bN c #89898986",
  "vk c #8A754BFF",
  "v+ c #8A8C88FF",
  "bv c #8B6417FF",
  "cY c #8B7302F4",
  "v1 c #8B7408FF",
  "va c #8B867CF2",
  "v> c #8C7408FF",
  "v= c #8C7409FF",
  "bR c #8C8C8CA4",
  "ba c #8D836FFF",
  "v5 c #8E813DFF",
  "v4 c #8F823EFF",
  "vR c #8F8F8F29",
  "bg c #8F8F8F72",
  "v3 c #90823EFF",
  "bH c #9090908A",
  "c! c #909190FF",
  "bu c #916717FF",
  "cU c #91790594",
  "v2 c #91843FFF",
  "cQ c #919190FF",
  "v] c #9191913C",
  "b& c #9191914F",
  "b7 c #91919151",
  "c} c #91919174",
  "v< c #928540FF",
  "1m c #9292920E",
  "c/ c #9292925E",
  "c{ c #92929262",
  "v, c #938641FF",
  "v} c #938A79FF",
  "bW c #93908AFF",
  "b8 c #93939361",
  "bf c #93939363",
  "v$ c #93939378",
  "v: c #948742FF",
  "v; c #958843FF",
  "v- c #958844FF",
  "bG c #958E82FF",
  "ys c #959594FF",
  "vS c #95959518",
  "v% c #95959589",
  "cR c #959695FF",
  "bK c #96886BFF",
  "v* c #968944FF",
  "b2 c #976C18FF",
  "v7 c #97979790",
  "c~ c #979797DF",
  "vp c #979797EC",
  "vh c #979797F9",
  "vw c #989898A6",
  "cT c #989898DD",
  "c^ c #9999990F",
  "v8 c #999999A3",
  "vu c #999999DD",
  "vi c #999999E0",
  "vb c #999999FC",
  "ve c #9A9A9AB9",
  "vt c #9A9A9ACD",
  "vy c #9A9A9ACF",
  "vr c #9B9B9BBD",
  "bQ c #9C9078FF",
  "b+ c #9D7019FF",
  "b! c #9E9380FF",
  "vD c #9F9F9FF7",
  "[l c #A0A19DFF",
  "vX c #A0A29DFF",
  "v@ c #A3A5A1FF",
  "=C c #A4A4A4FF",
  "=W c #A5A5A5FF",
  "-6 c #A6A6A6FF",
  "-V c #A7A7A7FF",
  "vJ c #A98541FF",
  "vE c #A9A9A9F2",
  "-` c #A9A9A9FF",
  "c[ c #A9AAA7FB",
  ",C c #AAAAAAFF",
  "b~ c #ABA59BFF",
  "6' c #ABABABFF",
  "v~ c #AC8844FF",
  "bj c #ACA087FF",
  "bT c #ACA79EFF",
  "v{ c #ACACABFF",
  "<b c #ACACACFF",
  "<v c #ADADADFF",
  ",Z c #AEAEAEFF",
  "vz c #AF875FFE",
  "tz c #AFAFAFFF",
  "vN c #B09773FF",
  "b5 c #B0A48CFF",
  "b^ c #B0AEABFF",
  ">F c #B0B0B0FF",
  "b. c #B18D48FF",
  "v[ c #B1B1B1F1",
  ":& c #B1B1B1FF",
  "rV c #B1B3AEFF",
  "<# c #B2B2B2FF",
  "v# c #B2B3B1FE",
  "b6 c #B3B2AFF3",
  "<s c #B3B3B3FF",
  "v. c #B4B5B1FF",
  "v6 c #B4B5B4FF",
  "b: c #B5904CFF",
  "c( c #B7B8B6FA",
  "v( c #B98771FF",
  "bw c #B99550FF",
  "b* c #B9B9B9F3",
  ",G c #BABABAFF",
  "vc c #BC7857FF",
  "bc c #BC851FFF",
  "c] c #BDBEBBFF",
  "c' c #BDBFBCFF",
  "b= c #BFB6A5FF",
  "bm c #BFB7A7FF",
  "by c #C08920FF",
  "bd c #C0C0C0F6",
  "b9 c #C2C2C2F5",
  ":* c #C3C3C3FF",
  "c| c #C3C4C2FD",
  "vW c #C4BCADFF",
  ":6 c #C4C4C4FF",
  "b1 c #C58B21FF",
  "v& c #C5C7C5FF",
  ":= c #C6C6C6FF",
  "hj c #C78D21FF",
  "bA c #C7B178FF",
  "bM c #C8C8C8FB",
  "v/ c #C98F22FF",
  "vF c #C9C1B3FF",
  "bh c #C9C9C9FB",
  "c) c #CACBC8FF",
  "tX c #CACBC9FF",
  "+a c #CBCBCBFF",
  "bt c #CC9225FF",
  "bx c #CC9227FF",
  "b< c #CC9328FF",
  "bC c #CCB172FF",
  "#+ c #CCCCCCFF",
  "bO c #CD942AFF",
  "hV c #CD952CFF",
  "vn c #CDC7BAFF",
  ",2 c #CDCDCDFF",
  ";_ c #CECECEFF",
  "+v c #D0D0D0FF",
  "+b c #D1D1D1FF",
  "bl c #D2C28DFF",
  ",V c #D2D2D2FF",
  "br c #D4A246FF",
  "b, c #D4A44AFF",
  "vj c #D4CFC4FF",
  "bo c #D5A64EFF",
  ":o c #D5D5D5FF",
  "h~ c #D6A852FF",
  "bZ c #D6C186FF",
  ",N c #D6D6D6FF",
  "6f c #D7D7D6FF",
  ",M c #D7D7D7FF",
  "jL c #D7D8D7FF",
  "vL c #D8AA58FF",
  ",B c #D8D8D8FF",
  ",b c #D9D9D9FF",
  "vI c #DBB0B0FF",
  "v^ c #DBB56EFF",
  "vK c #DBB66FFF",
  ",v c #DBDBDBFF",
  "b> c #DCB46DFF",
  "be c #DCB56BFF",
  "bX c #DCB76EFF",
  ",^ c #DCDCDCFF",
  "=[ c #DEDEDEFF",
  "vU c #DF1E17FF",
  "+Z c #E1E1E1FF",
  "+A c #E2E2E2FF",
  "+S c #E3E3E3FF",
  "bz c #E4D6A4FF",
  "&I c #E4E4E4FF",
  "vP c #E5CBC6FF",
  ";3 c #E5E5E5FF",
  ";b c #E6E6E6FF",
  "bs c #E7E6E5FF",
  ";G c #E7E7E7FF",
  ":# c #E8E8E8FF",
  ":2 c #E9E9E9FF",
  "vB c #EAE8E4FF",
  ",$ c #EAEAEAFF",
  ":, c #EBEBEBFF",
  ":> c #ECECECFF",
  ";9 c #EDEDEDFF",
  ":< c #EEEEEEFF",
  ";A c #EFEFEFFF",
  "cW c #F0DC47FF",
  ";T c #F0F0F0FF",
  ";` c #F1F1F1FF",
  "vq c #F1F2F1FF",
  ";' c #F2F2F2FF",
  "#6 c #F2F3F2FF",
  "vx c #F3BAB6FF",
  "55 c #F3F3F2FF",
  ":O c #F3F3F3FF",
  ":3 c #F4F4F4FF",
  "=a c #F5F5F5FF",
  ">A c #F5F6F5FF",
  "v0 c #F6F6F5FF",
  "+W c #F6F6F6FF",
  "vV c #F7B8B7FF",
  "v9 c #F7F7F6FF",
  ":9 c #F7F7F7FF",
  "vZ c #F83E3CFF",
  ";R c #F8F8F8FF",
  ";S c #F9F9F9FF",
  ":5 c #FAFAFAFF",
  ";Q c #FBFBFBFF",
  "c` c #FCE94FFF",
  ";7 c #FCFCFCFF",
  "vC c #FF6666FF",
  "   c none",
  
  // Image data
  "                                                                ",
  "                                                                ",
  "            cUcYcUcUcYcUcUcYcUcUcYcUcUcYcUcUcYcU                ",
  "    1mcTcRyscEcWcEcEcWcEcEcWcEcEcWcEcEcWcEcEcWcEcQc!c~c^        ",
  "    c/c(tXc)c_c`c_c_c`c_c_c`c_c_c`c_c_c`c_c_c`c_c'c]c[c{        ",
  "    c}c|v.vXvocWvovocWvovOcWvovOcWvovOcWvOvOcWvOv+v@v#v$        ",
  "    v%v&rVvXv*v=v-v;v=v:v:v>v,v<v1v2v2v1v3v4v1v5v+[lv6v7        ",
  "    v8jL;Rv9v0>A>A=a=a:3:3:3:3:3:O:O5555#6vq;`;`;`;'6fvw        ",
  "    ve;b;7;Q;Q;Q;Q;Q:5:5:5:5:5;S;S;S;S;R;R;R;R;R:9;R+Svr        ",
  "    vt:,:5<s<s<s<s<s<s<s<s<#<#<#<#<#:&:&:&:&:&:&:&:9:2vy        ",
  "    vu;A;S;S;S;R;R;R;R;R:9:9:9:9:9+W+W+W+W=a=a=a=a+W;9vi        ",
  "    vp:3;R<#:&:&:&:&:&:&:&:&:&>F>F>F>F>Ftztztztztz:O;`vavsvdvfvg",
  "    vh;R+W+W+W+W+W=a=a=a=a=a:3:3:3:3:3:O:O:O:O;';'vjvkvlvzvxvcvv",
  "  <Fvb;S=a>F>F>Ftztztztztz,Z:O:O:O;';';';';';`vnvmvMvNvBvVvCvZvA",
  "  vSvD;R:3:3:3:O:O:O:O;';';';';';`;`;`;`;`vFvGvHvJvKvLvPvIvUvYvT",
  "  vRvE:9:O;';';';';';`;`;`;`;`;T;T;T;AvWvQv!v~v^h~hVv/v(v)v_v`v'",
  "  v]v[+W;`<v<v<v<v<b<b<b<b<b<b<bv{v}v|v!b.bXbobOhjb+b@b#b$b%    ",
  "  b&b*:3;T;T;T;A;A;A;A;A:<:<:<b=b-b;b:b>b,b<b1b2b3b4b5b6b7      ",
  "  b8b9:O;A<b6'6'6'6'6',C,C,Cb0bqbwbebrbtbybubibpbabs;Tbdbf      ",
  "  bgbh;':<;9;9;9;9:>:>:>:>bjbkblbzbxbcbvbbbnbm:#:2:2:<bMc}      ",
  "  bN,2;T:>-`-`-`-`-`-`-`bBbVbCbZbAbSbDbFbG-V-6-6-6:#;9#+bH      ",
  "  bJ,V:<:,:,:,,$,$;b=[bKj:bLbPbIbUbYbT:6+a+b,b+A;G;b,$+vbR      ",
  "  bE,N;9,$-V-V-V-V=CbWbQb!b~b^,Z-`<b<s,G:*+a,N+Z;3;3:2:ob/      ",
  "  b(,v:,:#:#:#:#:#;G;G;3+Z,^,B,N:o,M,B,^+Z+S;3&I&I&I;G,bb)      ",
  "  b_+Z:#;G;G;G;b;b;b;b;b;3;3;3;3;3&I&I&I&I+S+S+S+S+S;3=[b`      ",
  "  b';b;G;b;b;3;3;3;3;3&I&I&I&I+S+S+S+S+S+A+A+A+A+A+Z+S+Sb]      ",
  "  b[+W;R;R;R;R;R;R;R;R;R;R;R:9:9:9:9:9:9:9:9:9:9:9:9:9=ab{*'@C  ",
  "*7rt;_=C=C=C=C=C=C=C=C=C=C=C=C=C=C=C=C=C=C=C=C=C=C=C=W;_6[rn@n@X",
  "@2b}+a#+#+#+#+#+#+#+#+#+#+#+#+#+#+#+#+#+#+#+#+#+#+#+#+:=b|=(&V*!",
  "@Cn.nXnonononononononononononononononOnOnOnOnOn+n+n+n+n@n#rE*'+j",
  "  @X@m&V*`rErErErErErErErErErErErErErErErErErErErErE*~*`+|@B    ",
  "        @M@.@.@.@.@.@.@.@.@.@.@.@.@.@.@.@.@.@.@.@.@.@M+j        "
};
