/* XPM */
const char *xpm_tango_apps_accessories_character_map[] = {
  // Header (width height colors chars-per-pixel)
  "32 32 204 2",
  
  // Colors (code mode value)
  "+j c #00000001",
  "@M c #00000002",
  "@X c #00000004",
  "@N c #00000005",
  "&^ c #00000006",
  "*! c #00000008",
  "@B c #0000000A",
  "+> c #0000000B",
  ":k c #0000000C",
  "@V c #00000011",
  "@o c #00000014",
  "@n c #00000019",
  "@5 c #0000001A",
  "@= c #0000001C",
  "&V c #0000001F",
  "*. c #00000022",
  "+/ c #00000023",
  "+J c #00000027",
  "er c #00000028",
  "rE c #00000029",
  "rn c #0000002A",
  "*F c #0000002B",
  "%J c #000000FF",
  "c> c #040404FF",
  "c5 c #050605FF",
  "c. c #060606FF",
  "cv c #070807FF",
  "ch c #0E0E0EFF",
  "cy c #0F0F0FFF",
  "x| c #181918FF",
  "cq c #1E1E1DFF",
  "c* c #1F1F1EFF",
  "c4 c #242423FF",
  "cs c #252625FF",
  "cc c #2B2C2BFF",
  "cn c #2F2F2EFF",
  "cd c #30302FFF",
  "c= c #343534FF",
  "cX c #383837FF",
  "z| c #393A39FF",
  "x( c #414240FF",
  "c$ c #414241FF",
  "c3 c #474846FF",
  "xQ c #484A48FF",
  "cH c #4A4A475A",
  "cI c #51534F6B",
  "c0 c #525352FF",
  "cD c #5757544C",
  "cJ c #585B5662",
  "x} c #595B59FF",
  "x! c #676966FF",
  "ci c #757774FF",
  "cu c #7D7F7DFF",
  "c: c #848783FF",
  "cP c #868883DE",
  "ce c #868986FF",
  "cK c #878884DD",
  "cS c #878984D3",
  "kd c #878985FF",
  "xj c #8888882F",
  "cL c #888A85FB",
  "eB c #888A85FF",
  "xs c #898B86F9",
  "cb c #898B88FF",
  "xp c #8A8A863D",
  "cA c #8A8B85CF",
  "xv c #8A8C87F8",
  "c2 c #8A8C89FF",
  "rC c #8B8B852E",
  "xa c #8E8F8ACF",
  "xd c #8E8F8BCF",
  "cg c #8E8F8CFF",
  "xk c #8E918CC7",
  "xc c #8F908AC8",
  "xh c #8F918CF3",
  "5k c #90928FFF",
  "c% c #90938FFF",
  "cG c #93948EF7",
  "cF c #959793F6",
  "xf c #979995F3",
  "x/ c #989B97FF",
  "c& c #9DA09CFF",
  "c# c #B1B4B0FF",
  "cf c #B3B6B3FF",
  "cw c #B7BAB6FF",
  "cx c #B9BCB9FF",
  "co c #C2C5C0FF",
  "xY c #CCCFCAFF",
  "}F c #CFD1CCFF",
  "XF c #D0D3CDFF",
  "x{ c #D2D6D0FF",
  "xz c #D3D7CFFF",
  "xm c #D4D8D0FF",
  "xl c #D5D8D1FF",
  "xb c #D6D9D2FF",
  "xT c #D6DAD3FF",
  "c6 c #D8DCD7FF",
  "cr c #D9DCD8FF",
  "x' c #D9DDD7FF",
  "cp c #D9DDD8FF",
  "xN c #D9DED7FF",
  "cj c #DADDD8FF",
  "xA c #DADED8FF",
  "xB c #DADFD8FF",
  "cC c #DBDED8FF",
  "xM c #DBDFD8FF",
  "xV c #DBDFD9FF",
  "xH c #DBDFDAFF",
  "xC c #DBE0D9FF",
  "cZ c #DCDFD9FF",
  "e# c #DCE0D9FF",
  "xS c #DCE0DAFF",
  "xD c #DCE1DAFF",
  "kl c #DDE0DBFF",
  "xJ c #DDE1DAFF",
  "xF c #DDE1DBFF",
  "xG c #DDE2DBFF",
  "xR c #DEE2DBFF",
  "xK c #DEE2DCFF",
  "xL c #DEE3DCFF",
  "|V c #DFE0DCFF",
  "xI c #DFE3DCFF",
  "xP c #DFE3DDFF",
  "|2 c #E0E1DEFF",
  "xx c #E0E3DEFF",
  "xU c #E0E4DEFF",
  "}| c #E1E2DFFF",
  "hc c #E1E4DFFF",
  "x~ c #E1E5DEFF",
  "xE c #E1E5DFFF",
  "57 c #E2E3E0FF",
  ">1 c #E2E5E0FF",
  "xW c #E2E6E0FF",
  ".: c #E3E4DFFF",
  ">< c #E3E6E1FF",
  "x^ c #E3E7E1FF",
  "c1 c #E3E7E2FF",
  "xn c #E4E6E1FF",
  "x) c #E4E8E2FF",
  "x_ c #E4E8E3FF",
  ">{ c #E5E7E3FF",
  "x` c #E5E8E3FF",
  "x] c #E5E9E3FF",
  "c7 c #E5E9E4FF",
  "xg c #E6E8E3FF",
  "r6 c #E6E8E4FF",
  ";A c #E6E9E4FF",
  "x[ c #E6EAE4FF",
  "cO c #E6EAE5FF",
  "xZ c #E7E8E3FF",
  ";C c #E7EAE5FF",
  "c+ c #E7EBE5FF",
  "c@ c #E7EBE6FF",
  "}I c #E8EAE6FF",
  "c- c #E8EBE6FF",
  "c; c #E8ECE7FF",
  ":U c #E9EBE7FF",
  "1_ c #E9ECE7FF",
  ">, c #E9ECE8FF",
  "c8 c #E9EDE8FF",
  "%q c #EAEAE8FF",
  ",. c #EAEBE8FF",
  "c, c #EAEDE8FF",
  "c< c #EAEEE9FF",
  ">. c #EBEDEAFF",
  "ck c #EBEEE9FF",
  ";L c #EBEEEAFF",
  "cM c #EBEFEAFF",
  "#A c #ECECEAFF",
  "}l c #ECEDEAFF",
  "3f c #ECEDEBFF",
  "c9 c #ECEFEAFF",
  "ct c #ECEFEBFF",
  "cV c #ECF0EBFF",
  "}w c #EDEEEBFF",
  "cN c #EDF0EBFF",
  ":Y c #EDF0ECFF",
  "cm c #EDF1ECFF",
  "#& c #EEEEECFF",
  "3B c #EEEFECFF",
  ";p c #EEF0EDFF",
  "cl c #EEF1ECFF",
  "ca c #EEF1EDFF",
  "lt c #EFEFEEFF",
  "k7 c #EFF1EEFF",
  "cz c #EFF2EEFF",
  "#` c #F1F1EFFF",
  "f8 c #F1F2F0FF",
  "#Z c #F2F2F0FF",
  "55 c #F3F3F2FF",
  "cB c #F3F5F2FF",
  "hE c #F4F4F3FF",
  "c` c #F5F5F4FF",
  "3] c #F5F6F4FF",
  "c~ c #F7F7F6FF",
  ",3 c #F8F8F7FF",
  "lP c #F9F9F8FF",
  ";N c #F9FAF9FF",
  ":5 c #FAFAFAFF",
  "}1 c #FBFBFAFF",
  "}y c #FCFCFBFF",
  "}u c #FDFDFCFF",
  ">X c #FFFFFFFF",
  "   c none",
  
  // Image data
  "                                                                ",
  "                                                                ",
  "        xpxaxseBeBeBeBeBeBeBeBeBeBeBeBeBeBeBeBeBeBxsxdxp        ",
  "      rCxf}Fxg:U:U:U:U:U:U:U:U:U:U:U:U:U:U:U:U:U:Uxg}Fxhxj      ",
  "      xkXF;Nxlxzxzxzxzxzxzxzxzxzxzxzxzxzxzxzxzxzxzxlxx%qxc      ",
  "      xv>{xb3]xn#A#&#&#&#&#&#&#&#&#&#&#&#&#&#&}lxnxmf8r6xv      ",
  "      eB:Uxz.:>{xMxNxBxMxVxCe#e#e#e#e#xCxVxMxBxV>{xZxz:UeB      ",
  "      eB:Uxz}lxVxAxMxCxSxDxFxFxFxGxFxFxFxDxSxCxMxH}lxz:UeB      ",
  "      eB:Uxz#&xBxCxSxJxGxKxKxLxPxPxPxLxKxKxGxJxSxC#&xz:UeB      ",
  "      eB:Uxz#&e#xDxGxKxIxPxUxUxUxUxUxUxYkdxTxKxGxD#&xz:UeB      ",
  "      eB:Uxz#&xJxRxLxPxUxExExExWxWxWxExQx!xUxPxLxR#&xz:UeB      ",
  "      eB:UxzltxKxPxUx~xExWxWx^x^x^x^x/x(xPxEx~xUxPltxz:UeB      ",
  "      eB:Uxz#`xPxUxExW><x^x)x)x_x`x_x'xxx^><xWxExU#`xz:UeB      ",
  "      eB:Uxz#ZxUxExWx^x)x`x];Ax[x{x}x|c.cXcox^xWxE#Zxz:UeB      ",
  "      eB:Uxz55xExWx^x)x];AcOc+c@c#c$c%c&c*c=x)x^xW55xz:UeB      ",
  "      eB:UxzhExEx^x)x]x[c+c-c;1_x`1_c;c-c:c>hcx)x^hExz:UeB      ",
  "      eB:Uxzc`xWx^x`x[c+c;1_c,c<c1c2c3c4c5%Jc6x`x^c`xz:UeB      ",
  "      eB:Uxzc~><x)c7;Cc-c8c<;Lc9c0cq5kcwce%Jcrc7x)c~xz:UeB      ",
  "      eB:Uxz,3x^x_x[c@1_c,;Lct:Ycycuct;Lci%Jcpx[x_,3xz:UeB      ",
  "      eB:UxzlPx^x`x[c->,c<c9:Ycacscdcfcgch%Jcjx[x`lPxz:UeB      ",
  "      eB:Uxz:5c1x]cOc-c8ckctclczcxcccvz|cbcnklcOx]:5xz:UeB      ",
  "      eB:Uxz}yc1x]cOc-c8ckctcmczczczcmctckc8c-cOx]}yxz:UeB      ",
  "      eB:Uxz}1x]x`x[c@1_c<cMcNclcaclcNcMc<1_c@x[;C}1xz:UeB      ",
  "      eB:Uxz>.cBx[;A;Cc;c8ckc9ctcVctc9ckc8c;;Cc-cB3fxz:UeB      ",
  "      eB:UcC}I;p}u>X>X>X>X>X>X>X>X>X>X>X>X>X>X}u;pc-cZ:UeB      ",
  "    +jxv}w,.>1xzxzxzxzxzxzxzxzxzxzxzxzxzxzxzxzxzxz>1,.3Bxs@V    ",
  "    +>cA}|k7cZxzxzxzxzxzxzxzxzxzxzxzxzxzxzxzxzxzxzcCk7|2cS@=@X  ",
  "    :kcDcF57r6:U:U:U:U:U:U:U:U:U:U:U:U:U:U:U:U:U:Ur6|VcGcH&V@X  ",
  "    &^@5cJcKcLeBeBeBeBeBeBeBeBeBeBeBeBeBeBeBeBeBeBcLcPcIrn@o    ",
  "      *!@n+/rE*F*F*F*F*F*F*F*F*F*F*F*F*F*F*F*F*F*F+Jer*.@V+j    ",
  "          @N+>+>+>+>+>+>+>+>+>+>+>+>+>+>+>+>+>+>+>@B&^@M        ",
  "                                                                "
};
