/* XPM */
const char *xpm_tango_apps_help_browser[] = {
  // Header (width height colors chars-per-pixel)
  "32 32 459 2",
  
  // Colors (code mode value)
  "@M c #00000002",
  "@. c #00000003",
  "@X c #00000004",
  "@C c #00000007",
  "*! c #00000008",
  "*7 c #00000009",
  "@B c #0000000A",
  "+> c #0000000B",
  "@b c #0000000D",
  "@: c #00000010",
  "@V c #00000011",
  "@m c #00000013",
  "@o c #00000014",
  "Bi c #00000017",
  "=N c #00000018",
  "@n c #00000019",
  "+| c #0000001B",
  "*Q c #0000001D",
  "&V c #0000001F",
  "@6 c #00000020",
  "+g c #00000021",
  "+/ c #00000023",
  "*~ c #00000025",
  "+N c #00000026",
  "er c #00000028",
  "rE c #00000029",
  "rn c #0000002A",
  "rF c #0000002D",
  "*8 c #00000036",
  "NE c #0000FF01",
  "Bu c #04040842",
  "B8 c #05050A33",
  "B7 c #07101A4E",
  "BX c #0912241C",
  "B& c #0916233B",
  "By c #12284974",
  "B9 c #132B4F6B",
  "B6 c #1A3E6CAE",
  "B% c #1B39688E",
  "Bo c #1B3F7282",
  "m* c #1B518613",
  "NW c #1C397109",
  "Bt c #1C3F71B5",
  "B* c #1C4073A4",
  "7$ c #1C478E12",
  "B0 c #1D4174B0",
  "ni c #1F4A88AD",
  "n$ c #1F4B8541",
  "nu c #20408008",
  "n8 c #2048866E",
  "nv c #204A87D0",
  "MX c #204A87E6",
  "My c #204A87F9",
  "ny c #204A896E",
  "n% c #204B8696",
  "mr c #204B879D",
  "mW c #204B87B5",
  "n* c #204B87E7",
  "n= c #204B87F6",
  "M< c #204B87F9",
  "nc c #204B89AD",
  "n; c #20508010",
  "n: c #2149878C",
  "B. c #214A82B7",
  "n^ c #214A8775",
  "MV c #214A87E6",
  "n> c #214A87F1",
  "mC c #214A8856",
  "NQ c #214B85B0",
  "B= c #214B86F4",
  "nJ c #214B87B1",
  "n& c #214B87D3",
  "%; c #214B87F8",
  "Mh c #214B87F9",
  "nH c #214B88D0",
  "M, c #214B88E6",
  "MB c #214B88F9",
  "n~ c #214C87B1",
  "Bq c #224A82DF",
  "Br c #224A82E1",
  "Bw c #224A85EE",
  "Be c #224B85EF",
  "n- c #224B8696",
  "B5 c #224B86F5",
  "n9 c #224B87F1",
  "MT c #224B88E6",
  "N4 c #224B899C",
  "MR c #224B89B5",
  "mg c #224C889D",
  "NH c #224C88CC",
  "M. c #224C89B5",
  "m& c #234C8975",
  "NC c #234C89B1",
  "BO c #234D86F3",
  "M' c #234D8AB5",
  "B$ c #244C87F4",
  "Ny c #244D899C",
  "NG c #244E8AB1",
  "NR c #244E8ACC",
  "mj c #254F89F3",
  "N+ c #264F8BF3",
  "mV c #26508BF3",
  "m= c #27508BED",
  "N3 c #27508BF3",
  "Nu c #29518CEC",
  "me c #29518CED",
  "mh c #2B40800C",
  "Nk c #2B538EEC",
  "7r c #2B558006",
  "n_ c #396299FF",
  "nN c #3A6299FF",
  "mS c #3B639AFF",
  "mu c #3B649AFF",
  "nU c #3C649BFF",
  "nB c #3C659BFF",
  "nI c #3D659AFF",
  "mz c #3D659CFF",
  "n` c #3E669CFF",
  "m: c #3E679DFF",
  "nV c #3F679DFF",
  "Ct c #40408004",
  "nC c #40689EFF",
  "nS c #41699EFF",
  "n' c #41699FFF",
  "ng c #42699FFF",
  "8^ c #426A9FFF",
  "nh c #436A9FFF",
  "nZ c #436AA0FF",
  "nA c #436BA0FF",
  "m~ c #446CA1FF",
  "n, c #45689CF1",
  "nY c #456CA1FF",
  "n] c #456DA1FF",
  "nQ c #456DA2FF",
  "n7 c #466A9DF1",
  "m@ c #466EA2FF",
  "8| c #476EA2FF",
  "m> c #476EA3FF",
  "nW c #476FA3FF",
  "Mu c #486EA2FF",
  "nT c #486FA3FF",
  "m9 c #4870A4FF",
  "nR c #4970A4FF",
  "nE c #4971A4FF",
  "np c #4A6D9FF4",
  "m^ c #4A71A5FF",
  "n[ c #4B72A5FF",
  "ms c #4B73A5FF",
  "m+ c #4C73A6FF",
  "B- c #4D6E9FF5",
  "nx c #4D6FA1F4",
  "n{ c #4D74A7FF",
  "B4 c #4E70A0F6",
  "mO c #4E74A7FF",
  "n} c #4E75A8FF",
  "MZ c #4F75A8FF",
  "mo c #4F76A8FF",
  "n| c #4F76A9FF",
  "N! c #5071A1F5",
  "mX c #5076A9FF",
  "m. c #5077A9FF",
  "mD c #5177AAFF",
  "ma c #5178AAFF",
  "m8 c #5278AAFF",
  "%q c #5279ABFF",
  "N| c #5375A4F6",
  "mM c #5379ABFF",
  "Na c #537AABFF",
  "nf c #5478A7FF",
  "Mk c #547AACFF",
  "M2 c #5578A8FF",
  "mp c #557BACFF",
  "mx c #557BADFF",
  "MA c #557CADFF",
  "mF c #567CADFF",
  "nj c #577AA8FF",
  "Mj c #577AAAFF",
  "mm c #577DAEFF",
  "mT c #587EAEFF",
  "Mw c #587EAFFF",
  "Mo c #597FAFFF",
  "n/ c #5A7AA7F5",
  "Ns c #5A7FB0FF",
  "mn c #5A80B0FF",
  "Ml c #5B80B0FF",
  "M: c #5B81B1FF",
  "mY c #5C82B1FF",
  "Mg c #5D81B0FF",
  "MW c #5D82B2FF",
  "Mm c #5D83B2FF",
  "m% c #5E7DA9F5",
  "m7 c #5E81B0FF",
  "Nc c #5E83B2FF",
  "MO c #5E84B3FF",
  "Nl c #5F7EABF5",
  "m/ c #5F84B3FF",
  "M) c #5F85B4FF",
  "mZ c #607FAAF5",
  "mU c #6085B4FF",
  "M; c #6086B4FF",
  "ml c #6181ADFF",
  "m{ c #6186B5FF",
  "M3 c #6287B5FF",
  "N7 c #6287B6FF",
  "M] c #6381ADF5",
  "MS c #6388B6FF",
  "NV c #6483AEF5",
  "M+ c #6488B7FF",
  "Mq c #6489B7FF",
  "mE c #6583ADF5",
  "m[ c #658AB8FF",
  "Ne c #668AB8FF",
  "M( c #668BB8FF",
  "NX c #668BB9FF",
  "nd c #6786B1FF",
  "Me c #6789B4FF",
  "mK c #678CB9FF",
  "NO c #6886B0F5",
  "m( c #688CB9FF",
  "M@ c #688DBAFF",
  "N8 c #698DBAFF",
  "MD c #698EBBFF",
  "n0 c #6A86AFFA",
  "nk c #6A89B3FF",
  "mL c #6A8DBAFF",
  "M0 c #6A8EBBFF",
  "M- c #6A8FBBFF",
  "MC c #6B8BB4FF",
  "MM c #6B8DB8FF",
  "NS c #6B8FBBFF",
  "m) c #6B8FBCFF",
  "NM c #6B90BCFF",
  "mi c #6C8DB6FF",
  "f9 c #6C90BCFF",
  "N, c #6C91BDFF",
  "nt c #6D89B1FA",
  "M# c #6D91BDFF",
  "nM c #6E8CB4FF",
  "N# c #6E8EB7FF",
  "m_ c #6E92BEFF",
  "mN c #6F8FB7FF",
  "N_ c #6F93BDFF",
  "M9 c #6F93BEFF",
  "m` c #6F93BFFF",
  "nb c #708BB3F9",
  "nK c #708CB3F8",
  "Mn c #7094BFFF",
  "NI c #7094C0FF",
  "N` c #7194BEFF",
  "M$ c #7194C0FF",
  "Mi c #7195C0FF",
  "M4 c #7295C0FF",
  "MI c #7296C1FF",
  "Mf c #7396C1FF",
  "N> c #7397C1FF",
  "nG c #748EB5F9",
  "p. c #7494BDFF",
  "M% c #7497C2FF",
  "Mz c #7498C2FF",
  "n! c #7590B6F8",
  "nD c #7592B9FF",
  "Nf c #7598C2FF",
  "N9 c #7599C3FF",
  "B+ c #7690B7FB",
  "M> c #7695BBFF",
  "M& c #7699C3FF",
  "Mp c #769AC4FF",
  "MF c #779AC4FF",
  "N$ c #779BC4FF",
  "NZ c #7893B8F8",
  "NJ c #7893B8F9",
  "Md c #789BC5FF",
  "m, c #7996BAFF",
  "MP c #799CC5FF",
  "jc c #799CC6FF",
  "B# c #7A95BAFB",
  "M5 c #7A9DC6FF",
  "M/ c #7A9DC7FF",
  "Ma c #7B9EC7FF",
  "N) c #7C9BC3FF",
  "N0 c #7C9EC7FF",
  "Mb c #7C9FC8FF",
  "MU c #7D9BC0FF",
  "MG c #7DA0C8FF",
  "Nm c #7DA0C9FF",
  "NF c #7E98BCF8",
  "NT c #7E99BCF9",
  "Nw c #7EA0C9FF",
  "N% c #7EA1C9FF",
  "mJ c #7F9DC3FF",
  "MQ c #7FA1C9FF",
  "=8 c #7FA2CAFF",
  "N< c #809EC3FF",
  "N' c #80A0C6FF",
  "N: c #80A3CBFF",
  "M^ c #81A3CBFF",
  "Mv c #82A4CBFF",
  "m' c #83A2C7FF",
  "Nd c #83A5CDFF",
  "Nq c #83A6CDFF",
  "mt c #849CBDFC",
  "ML c #85A7CEFF",
  "M[ c #86A8CEFF",
  "n< c #879DBFFE",
  "N; c #87A9CFFF",
  "M~ c #88AAD0FF",
  "n6 c #899FC0FE",
  "N( c #89A6C8FF",
  "N5 c #8AA2C1FC",
  "n) c #8AA2C2FF",
  "NP c #8AA5C7FF",
  "mf c #8BA2C1FC",
  "MK c #8BACD2FF",
  "m! c #8CA4C4FF",
  "=` c #8CADD3FF",
  "M{ c #8DAED3FF",
  "M! c #8EAFD4FF",
  "N] c #8FAACDFF",
  "N. c #8FB0D5FF",
  "Nt c #92A8C6FC",
  "m# c #92A9C8FF",
  "M8 c #92ADCEFF",
  "N- c #92B2D7FF",
  "M} c #93B4D8FF",
  "B; c #95ABC9FE",
  "NU c #95AFCFFF",
  "M| c #96B6D9FF",
  "ns c #98ADCAFF",
  "B3 c #98AECBFE",
  "m} c #98AECCFF",
  "gt c #98B7D9FF",
  "-@ c #99BADCFF",
  "Nx c #9AB1CEFF",
  "nl c #9BAFCCFF",
  "m; c #9EB1CCFF",
  "M_ c #9FB5D1FF",
  "mQ c #A4B5CFFF",
  "m6 c #A5B8D1FF",
  "m0 c #A5B8D2FF",
  "m< c #A6B8D0FF",
  "ME c #A6B8D1FF",
  "NN c #A6BBD6FF",
  "nP c #A7B8D1FF",
  "Np c #A9BCD5FF",
  "Ms c #A9BFD8FF",
  "m| c #AABBD3FF",
  "Mx c #AABFD9FF",
  "Mc c #AAC1DBFF",
  "&u c #ACBDD5FF",
  "M` c #ADBED5FF",
  "mP c #ADC1D9FF",
  "N/ c #AEC1D9FF",
  "Ng c #B3C5DCFF",
  "N[ c #B3C5DDFF",
  "NA c #B5C6DBFF",
  "M6 c #B5C8DEFF",
  "mH c #B9C8DBFF",
  "Oo c #BACCE0FF",
  "n1 c #BCC9DCFF",
  "MJ c #BCCEE3FF",
  "n5 c #BDCADCFF",
  "ND c #BDCDE1FF",
  "M* c #C0CFE2FF",
  "mb c #C1CEDDFF",
  "B: c #C8D4E4FF",
  "mA c #C9D4E3FF",
  "B2 c #CAD6E5FF",
  "my c #CBD6E4FF",
  "na c #CDD7E5FF",
  "mR c #CED9E7FF",
  "m1 c #CFD8E4FF",
  "nz c #D0D9E6FF",
  "md c #D0DAE7FF",
  "N6 c #D0DAE8FF",
  "M= c #D1DAE5FF",
  "nq c #D1DAE7FF",
  "nm c #D2DBE8FF",
  "nr c #D3DCE8FF",
  "No c #D3DDEAFF",
  "n2 c #D4DDE9FF",
  "n4 c #D5DDE9FF",
  "N~ c #D5DEEAFF",
  "MY c #D6DEEAFF",
  "Nr c #D6DFECFF",
  "m5 c #D7DEE8FF",
  "N} c #D8E1ECFF",
  "m- c #D9E1EBFF",
  "B@ c #D9E2ECFF",
  "NL c #DAE2EDFF",
  "mw c #DCE3EDFF",
  "N^ c #DCE4EEFF",
  "Ni c #DDE4EEFF",
  "B> c #DDE5EEFF",
  "B1 c #DEE5EFFF",
  "*w c #DEE6F0FF",
  "N{ c #DFE6F0FF",
  "Nv c #E0E2E5FF",
  "Nb c #E1E4E6FF",
  "MH c #E1E6ECFF",
  "Nj c #E1E7F0FF",
  "Nn c #E2E4E6FF",
  "*k c #E3E8EDFF",
  "N& c #E5E7EAFF",
  "m2 c #E5E9EEFF",
  "mk c #E5EAF2FF",
  "N* c #E6E8EBFF",
  "M1 c #E6EBF2FF",
  "n3 c #E7EBF2FF",
  "N@ c #E7ECF3FF",
  ":# c #E8E8E8FF",
  "N= c #E8EAECFF",
  "mB c #E8ECF3FF",
  ":2 c #E9E9E9FF",
  "Mt c #E9EDF4FF",
  "MN c #E9EEF4FF",
  ",$ c #EAEAEAFF",
  "N2 c #EAEEF5FF",
  ":, c #EBEBEBFF",
  "mI c #EBEDF0FF",
  ":> c #ECECECFF",
  "mG c #ECEDEEFF",
  "B, c #ECF0F6FF",
  "B< c #ECF1F6FF",
  "m] c #EDEFF0FF",
  "m4 c #EEF0F3FF",
  "nn c #EEF2F6FF",
  ";A c #EFEFEFFF",
  "nF c #EFF3F7FF",
  ";T c #F0F0F0FF",
  ";` c #F1F1F1FF",
  "mc c #F1F3F5FF",
  "NK c #F1F4F8FF",
  ";' c #F2F2F2FF",
  "M7 c #F2F3F3FF",
  "n( c #F2F4F8FF",
  "NY c #F2F5F9FF",
  ":O c #F3F3F3FF",
  "mv c #F3F5F7FF",
  "m$ c #F3F5F9FF",
  "Nz c #F3F6F9FF",
  ":3 c #F4F4F4FF",
  "=a c #F5F5F5FF",
  "m3 c #F5F6F7FF",
  "NB c #F5F7FAFF",
  "+W c #F6F6F6FF",
  "nL c #F6F8FAFF",
  ":9 c #F7F7F7FF",
  "nw c #F7F8FBFF",
  "ne c #F7F9FBFF",
  ";R c #F8F8F8FF",
  "mq c #F8F9FBFF",
  "N1 c #F8F9FCFF",
  "Mr c #F8FAFCFF",
  ";S c #F9F9F9FF",
  "Nh c #F9FAFCFF",
  ":5 c #FAFAFAFF",
  ";Q c #FBFBFBFF",
  ";7 c #FCFCFCFF",
  "   c none",
  
  // Image data
  "                                                                ",
  "                    Ctn$n%n&n*n=n=n*n&n-n$Ct                    ",
  "                n;n:n>n,n<n1n2n3n3n4n5n6n7n>n:n;                ",
  "              n8n9n0nqnwnenenenenenenenenenrntn9ny              ",
  "          nuninpnanwnenrnsndnfngnhnjnknln4nenenznxncnu          ",
  "        7rnvnbnnnwnmnMnNnBnVnC8^nZnAnA8^nSnDn2nenFnGnH7r        ",
  "      NEnJnKnLnenPnInUnV8^nY8|nTnRnEnEnRnWnQ8|&unenwn!n~NE      ",
  "      n^n/n(nen)n_n`n'n]nTn[n{n}n|m.mXmomOm+nRm@m#nem$m%m&      ",
  "    m*m=m-nwm;nNm:nAm>n[m,m<m1m2m3m4m5m6m7m8mom+m9m0mqmwmem*    ",
  "    mrmtnwmymun`nAnTm+m.;A;'=a:9;S:5;S:9*kmimpmamOmsmdmqmfmg    ",
  "  mhmjmknLmlmz8^nWm+mamx;T:O=amcmv;7;Q;R=ambmnmmmMn}mNnemBmVmh  ",
  "  mCmZnwmAmSnSm@m+mDmFmnmGmHmJmKmLmP;7;S+WmImUmYmTmMmOmRmqmEmC  ",
  "  mWmQnem!n`m~m^n|mpmnm/p.m(m)m_m`m';Q;S+Wm]m[m{mYmmm8m}mqm|M.  ",
  "  MXnznendnSm>n{mMMoMOM+M@M#M$M%M&M*:5;R=aM=M-m[M;M:mxM>mqn2M,  ",
  "  M<M1neM2nAm^m.mFmYM3m(M#M4M&M5M6;S;S:9M7M8M9M0MqMOMwMeMrMtM<  ",
  "  MyneneMunQm+%qMom/m[m)MiMpMaOo:9;R:9:3MsMdMfM#mKm{M:MgMrmqMh  ",
  "  M<M1neMjm>mOMkMlm{m(m_MzM5Mx:3=a+W:3McMvMbMpMnM0MqMmMMMrMNMB  ",
  "  MVnqneMCnTMZMAmYMSMDMnMFMGMH;':O:3MJMKML=8MPMIf9m[m/MUMrMYMT  ",
  "  MRMEnem#nRn|mFMWMqM-MiMdMQ;A;`;';'gtM!M~M^M/M%M#M(M)M_MrM`M'  ",
  "  mCM]nenanRmXmFMmMqm)MiMd=8M[M{M}-@M|N.M~MvMaM%M#NXmUNoMrNOmC  ",
  "  mhN+N@neN#momFMWMSM0M$N$N%N&N*N=N=N-M{N;N:M5N>N,M(N<N1N2N3mh  ",
  "    N4N5mqN6m.mpM:N7N8m`N9N0,$:,:>:>=`M~NqNwMdMim)NeNrMrNtNy    ",
  "    7$NuNimqNpNaNsmUNXM#MIMd:#:2,$,$M[Nd=8M5NfM9N8NgNhNjNk7$    ",
  "      m&NlNzmqNxmmNcM+MDM9M%NvNbNbNn=8NmM5M&MiNMNNNhNBNVm&      ",
  "      NENCNZneMrNANcmUNeNSm`N>MpMPM5jcN$NfMim`NDNhMrNFNGNE      ",
  "        7rNHNJNKMrNLNPm{M(M0m_NIMIN>MfMiM9NU*wNhNYNTNR7r        ",
  "          NWNQN!N~MrMrN^N/N(N)N_N`N'N]N[N{NhNhN}N|B.BX*7        ",
  "          @B=NBoBOB+B@MrNhNhNhNhNhNhNhNhNhN^B#B$B%rF@6@m@M      ",
  "          @C@o+gB&B*B=B-B;B:B>B,B<B1B2B3B4B5B6B7*8rE*Q+>        ",
  "            @M@b+|+NB8B9B0BqBw%;%;BeBrBtByBu*8rF+g@V@X          ",
  "                  @.*!@:Bi&V+/errner*~&V@n@V@B@X                ",
  "                                                                "
};
