/* XPM */
const char *xpm_tango_apps_internet_news_reader[] = {
  // Header (width height colors chars-per-pixel)
  "32 32 192 2",
  
  // Colors (code mode value)
  "+j c #00000001",
  "@. c #00000003",
  "@X c #00000004",
  "@N c #00000005",
  "&^ c #00000006",
  "*! c #00000008",
  "*7 c #00000009",
  ":k c #0000000C",
  "@b c #0000000D",
  "@V c #00000011",
  "Bi c #00000017",
  "@5 c #0000001A",
  "+J c #00000027",
  "er c #00000028",
  "&R c #0000002F",
  ":d c #00000030",
  ":s c #00000031",
  "*l c #00000035",
  ">@ c #27272721",
  ":$ c #32323224",
  ">J c #606060FF",
  ":@ c #6B6B6BFF",
  "B} c #6C6C6CF8",
  "B[ c #6D6D6DF7",
  "VX c #6F6F6FF7",
  "mT c #717171FF",
  "B{ c #727272F7",
  "Vo c #787878F7",
  "0O c #797979F7",
  ",j c #797979FF",
  "Vb c #7A7A7AC2",
  "B` c #7B7B7BF7",
  "Vv c #7C7C7CA4",
  "Vz c #7D7D7DAB",
  "@> c #80808002",
  "<F c #80808006",
  "V# c #8080801E",
  "V> c #80808028",
  "B' c #808080F6",
  "mk c #808080FF",
  "V& c #8181815F",
  ";@ c #818181FF",
  "Vt c #82828233",
  "Vp c #8282823F",
  "V4 c #8282825E",
  "V. c #828282F6",
  "Vn c #828282FA",
  "Vm c #828282FC",
  ",x c #828282FF",
  "V* c #83838354",
  "Vy c #83838367",
  "V1 c #8383836B",
  "B| c #838383F6",
  "V+ c #838383FE",
  "t2 c #838383FF",
  "V9 c #84848434",
  "Vw c #84848478",
  "Vd c #84848485",
  "Vk c #848484F2",
  "B] c #848484F6",
  "Vl c #858585F0",
  "Vh c #858585F4",
  "VO c #858585FA",
  "t< c #858585FF",
  "Vj c #868686F2",
  "B_ c #868686F3",
  "Bc c #868686F6",
  ",! c #868686FF",
  "pI c #8787878E",
  "V6 c #87878799",
  "V5 c #878787F5",
  "V, c #878787F7",
  "Ve c #878787F9",
  "Vr c #888888C8",
  "V; c #888888EE",
  "Va c #898989A6",
  "V@ c #898989C3",
  "Vg c #898989D4",
  "Vf c #898989DF",
  "i8 c #898989F8",
  "-Y c #898989FF",
  "B) c #8A8A8A9F",
  "V3 c #8A8A8ABB",
  "pJ c #8A8A8ACC",
  "V0 c #8A8A8AD7",
  "k` c #8B8B8BAD",
  "mV c #8B8B8BFF",
  ",Q c #909090FF",
  "V$ c #919191F7",
  "<G c #92929207",
  "<' c #959595FF",
  "<I c #969696FF",
  ",F c #979797FF",
  "rZ c #99999905",
  "V: c #9B9B9BF5",
  ",J c #9C9C9CFF",
  "Vc c #9D9D9DF9",
  ">P c #9E9E9EFF",
  "V2 c #A0A0A0F5",
  "5, c #A0A0A0FF",
  "V8 c #A1A1A1F4",
  "0+ c #A2A2A2F3",
  ";I c #A2A2A2FF",
  "6| c #A3A3A3FF",
  "=C c #A4A4A4FF",
  "Vi c #A5A5A5F2",
  "=W c #A5A5A5FF",
  "-V c #A7A7A7FF",
  "Vx c #A8A8A8FA",
  "<Q c #A8A8A8FF",
  "-` c #A9A9A9FF",
  "6' c #ABABABFF",
  "<b c #ACACACFF",
  ",Z c #AEAEAEFF",
  ">F c #B0B0B0FF",
  "<# c #B2B2B2FF",
  "<s c #B3B3B3FF",
  ";8 c #B4B4B4FF",
  "V% c #B5B5B5F5",
  "6{ c #B5B5B5FF",
  "=p c #B6B6B6FF",
  ",S c #B7B7B7FF",
  "9m c #B8B8B8FF",
  "5X c #B9B9B9FF",
  ",A c #BCBCBCFF",
  ";= c #BFBFBFFF",
  ";U c #C1C1C1FF",
  "Vu c #C2C2C2F8",
  ";Z c #C2C2C2FF",
  "V= c #C3C3C3F6",
  ":6 c #C4C4C4FF",
  "V< c #C5C5C5F8",
  ";Y c #C5C5C5FF",
  ":= c #C6C6C6FF",
  "Vq c #C7C7C7FA",
  "Vs c #C7C7C7FC",
  ",1 c #C7C7C7FF",
  ":7 c #C8C8C8FF",
  ">x c #C9C9C9FF",
  ",< c #CACACAFF",
  "+a c #CBCBCBFF",
  "#+ c #CCCCCCFF",
  ";_ c #CECECEFF",
  "+c c #CFCFCFFF",
  "+v c #D0D0D0FF",
  "+b c #D1D1D1FF",
  ",V c #D2D2D2FF",
  ",, c #D3D3D3FF",
  ",n c #D4D4D4FF",
  ":o c #D5D5D5FF",
  ",N c #D6D6D6FF",
  ",M c #D7D7D7FF",
  ",B c #D8D8D8FF",
  ",b c #D9D9D9FF",
  ",m c #DADADAFF",
  ",v c #DBDBDBFF",
  ",^ c #DCDCDCFF",
  "=b c #DDDDDDFF",
  "V7 c #DEDEDEFE",
  "=[ c #DEDEDEFF",
  "={ c #DFDFDFFF",
  "V- c #E0E0E0FE",
  "+Z c #E1E1E1FF",
  "+A c #E2E2E2FF",
  "+S c #E3E3E3FF",
  "&I c #E4E4E4FF",
  ";3 c #E5E5E5FF",
  ";b c #E6E6E6FF",
  ";G c #E7E7E7FF",
  ":2 c #E9E9E9FF",
  ",$ c #EAEAEAFF",
  ":, c #EBEBEBFF",
  ":> c #ECECECFF",
  ";9 c #EDEDEDFF",
  ":< c #EEEEEEFF",
  ";A c #EFEFEFFF",
  ";T c #F0F0F0FF",
  ";` c #F1F1F1FF",
  ";' c #F2F2F2FF",
  ":O c #F3F3F3FF",
  ":3 c #F4F4F4FF",
  "=a c #F5F5F5FF",
  "+W c #F6F6F6FF",
  ":9 c #F7F7F7FF",
  ";R c #F8F8F8FF",
  ";S c #F9F9F9FF",
  ":5 c #FAFAFAFF",
  ";Q c #FBFBFBFF",
  ";7 c #FCFCFCFF",
  "=q c #FDFDFDFF",
  "=w c #FEFEFEFF",
  "   c none",
  
  // Image data
  "                                                                ",
  "                                                                ",
  "                                                                ",
  "                                                                ",
  "                                                                ",
  "                                                                ",
  "        B)B_B`B'B]B[B{B}B{B|V.0OVXVoBcBcBcVO,x,x,xV+V@<F        ",
  "      V#V$;7;7;R=w;R:3;S;T;R:3:O;T;A;Q=q=q=q=w=w=q=qV%V&        ",
  "      V*V=;Q<#-Y,V5,mT,Fmk=pt2<#>J5X+W+W+W+W+W+W+W;S&Ik`        ",
  "      pIV-;R,Z:2:@,Q<s,MmV-V,!;8+A<'6'={>x>x>x>x,n=a:9V;        ",
  "      pJ;';At<:>;@,x,!t2;Z<I,A-V,j<I<#;3:7:7:7:7#+:O:5V:V>      ",
  "    @>V,;7;`;`;`;`;`;`;`;`;`;`;`;`;`;`,$:=:=:=:=:=;9+WV<V1      ",
  "    V>V2;Q;T;T;T;T;T;T;T;T;T;T;T;T;T;T;T;T;T;T;T;T;T:O+SV3      ",
  "    V4V=:9:<:<:<:<:<:<:<:<:<:<:<:<:<:<:<:<:<:<:<:<:<;A:3V5@>    ",
  "    V6V7:O>F>P>P>P>P>P>P>P>P>P;9,b,N,N,N,N,N,N,N,N,N,B=aV8V9    ",
  "    V0;A;A=C:=+a+a+a+a+a+a+a>P:>:>:>:>:>:>:>:>:>:>:>:>;'VqVw    ",
  "  rZVe;R+A6|;=;=;=;=;=;=;=;=>P,$#+:=:=:=:=:=:=:=:=:=:=,m+ZVr    ",
  "  Vt0++W+v<Q;8;8;8;8;8;8;8;8>P:2:2:2:2:2:2:2:2:2:2:2:2:2;`i8<G  ",
  "  VyVu;`,A=C<Q<Q<Q<Q<Q<Q<Q<Q>P;G>x:6:6:6:6:6:6:6:6:6:6;Y;9ViVp  ",
  "  Va,m;9-`,J,J,J,J,J,J,J,J,J>P;b;b;b;b;b;b;b;b;b;b;b;b;b:,VsVd  ",
  "  Vf:<;A6|;I6|6|6|6|6|6|6|6|=W;A+v,<,<,<,<,<,<,<,<,<,<,<=b+SVg  ",
  "  Vh:O;T,S;Y;Y;Y;Y;Y;Y;Y;Y;U5X+A+A+A+A+A+A+A+A+A+A+A+A+A+A:2Vj  ",
  "  Vk&I:o6{,S9m9m9m9m9m9m9m9m<b:76{>F>F>F>F>F>F>F>F>F>F>F,1,NVl  ",
  "&^VzVx,b=[=[=b,^,v,m,m,b,B,M,M,M,N:o,n,n,,,,,V+b+v+v+c;_:7VcVv@X",
  "@N:$VbVn,x,x,x,x,x,x,x,x,x,x,x,x,x,x,x,x,x,x,x,x,x,x,x,xVmVb>@+j",
  "  *!@5+J&R*l*l*l*l*l*l*l*l*l*l*l*l*l*l*l*l*l*l*l*l*l:s:derBi@.  ",
  "      &^:k@V@V@V@V@V@V@V@V@V@V@V@V@V@V@V@V@V@V@V@V@V@b*7@.      ",
  "                                                                ",
  "                                                                ",
  "                                                                ",
  "                                                                ",
  "                                                                "
};
