/* XPM */
const char *xpm_tango_apps_internet_mail[] = {
  // Header (width height colors chars-per-pixel)
  "32 32 216 2",
  
  // Colors (code mode value)
  "@M c #00000002",
  "@N c #00000005",
  "&^ c #00000006",
  "@C c #00000007",
  "@B c #0000000A",
  ":k c #0000000C",
  "@b c #0000000D",
  "@2 c #0000000E",
  ":l c #0000000F",
  "@V c #00000011",
  "@m c #00000013",
  "@n c #00000019",
  "@5 c #0000001A",
  "@6 c #00000020",
  "rE c #00000029",
  "T2 c #00000032",
  "*8 c #00000036",
  "9c c #0000003A",
  ":h c #0000003B",
  "B% c #0000003D",
  "*6 c #00000040",
  "v> c #61616115",
  "@v c #656460FF",
  "BW c #6A6A6324",
  "@- c #6C6B67EF",
  "@4 c #6D6C69F1",
  "BR c #6E6B6743",
  "@$ c #6E6D68ED",
  "@c c #6E6D6AF4",
  "@x c #706F6CF4",
  "+U c #716F6CE7",
  "B/ c #71706DE6",
  "B( c #72716DE7",
  "@z c #72716DF4",
  "BY c #72726F57",
  "B^ c #73736F87",
  "@l c #73736FF4",
  "@k c #757471F4",
  "O@ c #76766F27",
  "BI c #76767054",
  "B! c #767673D1",
  "@j c #777672F4",
  "BK c #77777049",
  "BP c #79767350",
  "@h c #797873F4",
  "@g c #7A7A75F4",
  "BQ c #7C7A77E3",
  "@f c #7C7B77F4",
  "@d c #7E7D79F4",
  "<4 c #80808004",
  "@s c #81807AF4",
  "OO c #81807CED",
  "@a c #82817CF4",
  "O+ c #83837EC9",
  "@p c #84837DF4",
  "Oo c #84837EED",
  "o[ c #8484841B",
  "OX c #858480ED",
  "@i c #868580F4",
  "BE c #868582EC",
  "O. c #888681ED",
  "@u c #888781F4",
  "@y c #898883F4",
  "o| c #8A8983ED",
  "o} c #8B8A84EE",
  "@t c #8B8A85F4",
  "O- c #8D88843A",
  "@r c #8D8C87F4",
  "O5 c #8D8D8543",
  "@e c #8E8E88F4",
  "BJ c #8F8D89EE",
  "Oi c #8F8F884B",
  "@w c #908F89F4",
  "o{ c #908F8BB8",
  "@q c #92918BF4",
  "BT c #92918FF1",
  "O_ c #9292891C",
  "OY c #93938E2D",
  "@0 c #94938DF4",
  "@9 c #95958EF4",
  "OA c #96928B44",
  "Ox c #96938C50",
  "O; c #969590E9",
  "@7 c #97968FFF",
  "@8 c #989791F3",
  "+o c #9999990A",
  "@3 c #9A9993F1",
  "BU c #9A9997F2",
  "BL c #9C9A96F1",
  "+T c #9C9B94EF",
  "+s c #9D9C95EF",
  "+q c #9E9C96EE",
  "+( c #9EA59EFF",
  "+) c #9EA69EFF",
  "+O c #9F9D98D9",
  "+_ c #9FA69FFF",
  "+> c #A09F9A9C",
  "O` c #A2A19AE6",
  "O6 c #A2A29EEE",
  "+` c #A3A9A3FF",
  "OT c #A7A6A0EC",
  "Op c #A8A6A1EF",
  "+[ c #AAB1AAFF",
  "+^ c #ABB1ABFF",
  "OS c #ACACA5EF",
  "+! c #ACB1ACFF",
  "Oc c #ADADA8EF",
  "+' c #AEB4AEFF",
  "+E c #B0B6B0FF",
  "@X c #B2B8B2FF",
  ";8 c #B4B4B4FF",
  "=p c #B6B6B6FF",
  "+R c #B7BCB7FF",
  ",G c #BABABAFF",
  "5> c #BBBBBBFF",
  ",A c #BCBCBCFF",
  "+} c #BCC1BCFF",
  "@@ c #BCC2BCFF",
  "<W c #BDBDBDFF",
  "<1 c #BEBEBEFF",
  "@O c #BFC4BFFF",
  ";g c #C0C0C0FF",
  ";U c #C1C1C1FF",
  "+/ c #C1C4C1FF",
  ";Z c #C2C2C2FF",
  ":* c #C3C3C3FF",
  "+] c #C3C6C3FF",
  ":6 c #C4C4C4FF",
  ";Y c #C5C5C5FF",
  ":= c #C6C6C6FF",
  ",1 c #C7C7C7FF",
  ":7 c #C8C8C8FF",
  "+~ c #C8CCC8FF",
  "B~ c #C9C9C8FB",
  "@* c #C9CDC9FF",
  ",< c #CACACAFF",
  "+H c #CACECAFF",
  "+Y c #CBCECBFF",
  "#+ c #CCCCCCFF",
  "+| c #CCD0CCFF",
  ",2 c #CDCDCDFF",
  ";_ c #CECECEFF",
  "+c c #CFCFCFFF",
  "+v c #D0D0D0FF",
  "@& c #D0D4D0FF",
  "+b c #D1D1D1FF",
  ",V c #D2D2D2FF",
  ",, c #D3D3D3FF",
  "@= c #D3D5D3FF",
  ",n c #D4D4D4FF",
  "@# c #D4D6D4FF",
  ":o c #D5D5D5FF",
  "@> c #D5D7D5FF",
  ",N c #D6D6D6FF",
  "@, c #D6D8D6FF",
  ",M c #D7D7D7FF",
  "@. c #D7D9D7FF",
  "+Q c #D7DAD7FF",
  ",B c #D8D8D8FF",
  "@o c #D8DAD8FF",
  ",b c #D9D9D9FF",
  ",m c #DADADAFF",
  ",v c #DBDBDBFF",
  ",^ c #DCDCDCFF",
  "@% c #DCDDDCFF",
  "+{ c #DCDEDCFF",
  "@; c #DCDFDCFF",
  ",I c #DDDDDDFE",
  "=b c #DDDDDDFF",
  "=[ c #DEDEDEFF",
  "]Y c #DEDFDEFF",
  "+n c #DEE0DEFF",
  "={ c #DFDFDFFF",
  "&_ c #E0E0E0FF",
  "+Z c #E1E1E1FF",
  "eU c #E1E2E1FF",
  "+A c #E2E2E2FF",
  "hJ c #E2E3E2FF",
  "+S c #E3E3E3FF",
  "&I c #E4E4E4FF",
  ";3 c #E5E5E5FF",
  ";b c #E6E6E6FF",
  "+, c #E7E7E6FD",
  ";G c #E7E7E7FF",
  "@: c #E7E9E7FF",
  ":# c #E8E8E8FF",
  ":2 c #E9E9E9FF",
  "@1 c #E9EAE9FF",
  ",$ c #EAEAEAFF",
  "@+ c #EAECEAFF",
  ":, c #EBEBEBFF",
  ":> c #ECECECFF",
  ";9 c #EDEDEDFF",
  ":< c #EEEEEEFF",
  ";A c #EFEFEFFF",
  "fn c #EFF0EFFF",
  ";T c #F0F0F0FF",
  ";` c #F1F1F1FF",
  ";' c #F2F2F2FF",
  "55 c #F3F3F2FF",
  ":O c #F3F3F3FF",
  "@< c #F3F4F3FF",
  ":3 c #F4F4F4FF",
  "++ c #F5F4F4FF",
  "=a c #F5F5F5FF",
  "+W c #F6F6F6FF",
  ":9 c #F7F7F7FF",
  ";R c #F8F8F8FF",
  ";S c #F9F9F9FF",
  ":5 c #FAFAFAFF",
  ";Q c #FBFBFBFF",
  ";7 c #FCFCFCFF",
  "=q c #FDFDFDFF",
  "=w c #FEFEFEFF",
  ">X c #FFFFFFFF",
  "   c none",
  
  // Image data
  "                                                                ",
  "                      o[o{o}o|O.OXOoOOO+O@                      ",
  "                    O-O;;`=q=q;7;7;7;755BJBK                    ",
  "                  O5O6:5+W;9:,:2:#;b;3;`;RBLBP                  ",
  "                OiOp;Q:O:,:2:#;b;3+S+Z&_:2:9BLBI                ",
  "              OxOc;Q;`,$:#;b;3+S+A&_=[=b,v;3=aBUBY              ",
  "            OAOS;Q;T:#;G;3+S+A&_={=b,v,m,B,M+A;`BTBR            ",
  "          OYOT:5;A;G;3&I+A&_={=b,^,m,B,M:o,n,V={:>BEBW          ",
  "        O_O`;S;`;b&I+A+Z={=[,^,m,b,M,N,n,V+b+c;_&_;3BQv>        ",
  "      +o+O++;'&I+S+Z={=[,^,v,b,M,N,n,,+b+c#+<W=p:6+A,IB!<4      ",
  "      +>+,+W+S+Z&_=[,^,v,b,B,N,n,,+v,1;8:=+S;R=w<1:7:#B~B^      ",
  "      +q;7+S&_=[=b,v,b,B,N:o#+,G;g,v:3=w=q;Q;S;S:>;U,2:,B/      ",
  "      +s=q+A=b,v,m,B,n;Z5>,n:<=q=w;7:5:9+W+W=a:3;S,A,<:<B(      ",
  "      +s=w+n,^#+,A;_:#;Q>X=q:5:9+W=a:3:3:O:O;';`;':#:o;TB(      ",
  "      +s=w=a+H:3>X=w;Q;R=a:3:3:O;';';`;`;T;A;A:<;9+v,$;A+U      ",
  "      +s=w:O;`+Y;':3:O;';';`;`;T;A;A:<;9;9:>:>,$,1&I,$;9+U      ",
  "      +T=w;';',$+R;9;T;A;A:<;9;9:>:>:,,$,$:2:2;Y,v:2:2:>+U      ",
  "      +T=q;`;T;ThJ+E;G:2:#:2:#:2:2:#:#;G;G;b;Y,V:#:#;G:>+U      ",
  "      +T=q;A;A:<:<+Q+!,v,v,^,v,v,v,v,^,v,v:*:=;G;G;b;b:>+U      ",
  "      +T=q:<:<;9;9:>+~+^+/+(+(+(+(+)+_+)+`,G;b;b;3;3&I:>+U      ",
  "      +T=q;9:>:>:,:,,$+E+'fn;Q+W;`:,&I={+]+[+{&I&I&I+S:>+U      ",
  "      +T;Q:,:,,$,$:#+}+|;R:,;G;G;b;b;3;3;3@.@X@o+S+A+A:,+U      ",
  "      +T;S,$,$:2hJ@O@+;';G;b;b;3;3;3&I&I+S+S]Y@@@#+Z+Z:,@$      ",
  "      +T;S:2:#@%@&:9,$;b;3;3;3&I&I+S+S+A+A+Z+Z+Z@*@=+Z:,@-      ",
  "      +T;R;G@;@::O;b;3;3&I&I+S+S+A+A+Z+Z+Z+Z+Z+Z+Z@>@,:,@-      ",
  "      +T:9eU@<:,;3&I&I+S+S+A+A+Z+Z+Z+Z+Z+Z+Z+Z+Z+Z+Z@%@1@-      ",
  "    @2@3;S+W:3:O;';`;`;T;A:<;9:>:>:,:,:,:,:,:,:,:,:,:,;9@4@5@2  ",
  "  @2@6@7@8@9@0@q@w@e@r@t@y@u@i@p@a@s@d@f@g@h@j@k@l@z@x@c@vT2@6@b",
  "  &^@nrE*8:h*6*6*6*6*6*6*6*6*6*6*6*6*6*6*6*6*6*6*6*69cB%*8rE@m@M",
  "      @N@B:l@V@V@V@V@V@V@V@V@V@V@V@V@V@V@V@V@V@V@V@V:l:k@C@M    ",
  "                                                                ",
  "                                                                "
};
