/* XPM */
const char *xpm_tango_apps_internet_group_chat[] = {
  // Header (width height colors chars-per-pixel)
  "32 32 83 2",
  
  // Colors (code mode value)
  "+j c #00000001",
  "@M c #00000002",
  "@. c #00000003",
  "@X c #00000004",
  "@N c #00000005",
  "&^ c #00000006",
  "@C c #00000007",
  "*! c #00000008",
  "*7 c #00000009",
  "@B c #0000000A",
  "+> c #0000000B",
  "@b c #0000000D",
  "@2 c #0000000E",
  "@: c #00000010",
  "@V c #00000011",
  "+r c #00000012",
  "@o c #00000014",
  "*' c #00000015",
  "Bi c #00000017",
  "=N c #00000018",
  "@5 c #0000001A",
  "*Q c #0000001D",
  "&V c #0000001F",
  "@6 c #00000020",
  "+g c #00000021",
  "+/ c #00000023",
  ";y c #07070726",
  "a3 c #0D0D0D13",
  "BD c #10101010",
  "Bm c #5A5A5A25",
  "Bb c #5C5C5C3D",
  "BC c #64646473",
  "Bj c #6B6B6B6B",
  "BB c #6B6B6B6E",
  "BA c #6C6C6C5A",
  "BM c #6D6D6D4D",
  "Bv c #71717156",
  ":u c #7676761C",
  "Bk c #767676C4",
  "BZ c #777777C3",
  "BG c #78787846",
  "Bx c #78787895",
  ";v c #787878FF",
  "BS c #79797994",
  "W# c #797979EC",
  "Bn c #797979ED",
  "BF c #7A7A7A2E",
  "Ba c #7A7A7AF6",
  "BH c #7B7B7B1B",
  "BN c #7B7B7BF4",
  "Bs c #7B7B7BF5",
  "Bg c #7C7C7CF2",
  "eE c #7C7C7CF3",
  "Bf c #7C7C7CF5",
  "Bp c #7D7D7D5E",
  "Bd c #7D7D7DF3",
  "=, c #7F7F7FFF",
  ",x c #828282FF",
  "Bc c #868686F6",
  "-O c #888888FF",
  "Bz c #929292E9",
  "Bl c #BCBCBCF9",
  "Bh c #BEBEBEFB",
  "BV c #BFBFBFFB",
  ":6 c #C4C4C4FF",
  ":# c #E8E8E8FF",
  ":2 c #E9E9E9FF",
  ",$ c #EAEAEAFF",
  ":, c #EBEBEBFF",
  ":> c #ECECECFF",
  ";9 c #EDEDEDFF",
  ":< c #EEEEEEFF",
  ";A c #EFEFEFFF",
  ";T c #F0F0F0FF",
  ";` c #F1F1F1FF",
  ";' c #F2F2F2FF",
  ":O c #F3F3F3FF",
  ":3 c #F4F4F4FF",
  "=a c #F5F5F5FF",
  "=q c #FDFDFDFF",
  "=w c #FEFEFEFF",
  ">X c #FFFFFFFF",
  "   c none",
  
  // Image data
  "                                                                ",
  "                                                                ",
  "                                                                ",
  "                                                                ",
  "                      BpBa;v;v;v;v;v;v;v;v;v;v;v;v;v;vBsBp      ",
  "                      Bd=a>X>X>X>X>X>X>X>X>X>X>X>X>X>X;'eE      ",
  "                      ;v>X=a=a=a=a=a:3:O;';`;T;T;A:<;9=w;v      ",
  "                      ;v>X=a=a=a=a:3:O;';`;T;T;A:<;9:>>X;v      ",
  "                      ;v>X=a=a=a:3:O;';`;`;T;A:<;9:>:,>X;v      ",
  "                      ;v>X=a=a:3:O;';';`;T;A:<;9:>:>:,>X;v      ",
  "        BpBf;v;v;v;v;v;v;v;v;v;v;v;v;v;v=,:6;9:>:>:,,$>X;v      ",
  "        Bg:3>X>X>X>X>X>X>X>X>X>X>X>X>X>X:3,x;9:>:,,$:2>X;v      ",
  "        ;v>X=a=a=a=a=a=a=a=a:3:3:O;';';`>X;v:>:,,$:2:#>X;v      ",
  "        ;v>X=a=a=a=a=a=a=a:3:O:O;';`;`;T>X;v:,,$:2:2:#>X;v      ",
  "        ;v>X=a=a=a=a=a:3:3:O;';';`;T;T;A>X;v,$:2:2:#:#>X;v      ",
  "        ;v>X=a=a=a:3:3:O;';';`;`;T;A;A:<>X;v:,:2,$,$,$=w;v@M    ",
  "        ;v>X=a=a:3:O:O;';`;`;T;A;A:<;9;9>X;v>X:>>X=q=q;9Bs@.    ",
  "        ;v>X:3:3:O;';';`;T;T;A:<:<;9:>:>>X;vBh=q>X;v;vBaBj      ",
  "        ;v>X:O;';';`;`;T;A;A:<;9;9:>:,:,>X;vBkBl>XBz+g@V+j      ",
  "        ;v>X;';`;`;T;A;A:<;9;9:>:>:,,$,$>X;va3BxBc-OBv&^@.+j    ",
  "        ;v>X;`;T;T;A:<:<;9:>:>:,,$,$:2:2>X;vBi*'BbBn;vBm@C@X+j  ",
  "      @M;v>X;';T;T:<:<:<;9:>:>:,,$,$,$,$=w;v@5+r@:@2BmBM&^@M    ",
  "      *7BN;A=w=w>X;T>X=w=w=w=w=w=q=q=q=q;9Bf=N@B*!@N@.+j        ",
  "      *!BBBs;v;v>X=qBV;v;v;v;v;v;v;v;v;vBaBC@B                  ",
  "      +j+r*Q+/Bz>XBlBZ;y+/+/+/+/+/+/+/&V@6@o+j                  ",
  "        +j*!BA-OBcBSBD@b@b@b@b@b@b@b@b+>@C+j                    ",
  "          :u;vW#BF                                              ",
  "          BGBH                                                  ",
  "                                                                ",
  "                                                                ",
  "                                                                ",
  "                                                                "
};
