/* XPM */
const char *xpm_tango_apps_internet_web_browser[] = {
  // Header (width height colors chars-per-pixel)
  "32 32 559 2",
  
  // Colors (code mode value)
  "+j c #00000001",
  "@M c #00000002",
  "@. c #00000003",
  "@X c #00000004",
  "&^ c #00000006",
  "@C c #00000007",
  "*! c #00000008",
  "*7 c #00000009",
  "@B c #0000000A",
  "+> c #0000000B",
  ":k c #0000000C",
  "@b c #0000000D",
  "@2 c #0000000E",
  ":l c #0000000F",
  "@: c #00000010",
  "@V c #00000011",
  "+r c #00000012",
  "@o c #00000014",
  "@n c #00000019",
  "@5 c #0000001A",
  "+| c #0000001B",
  "@= c #0000001C",
  "9b c #0000001E",
  "*. c #00000022",
  "+/ c #00000023",
  "*` c #00000024",
  "*~ c #00000025",
  "+N c #00000026",
  "9) c #0000002C",
  "*^ c #0000002E",
  "&R c #0000002F",
  ":d c #00000030",
  ":s c #00000031",
  "T2 c #00000032",
  "*l c #00000035",
  "*8 c #00000036",
  "*G c #00000037",
  "rD c #00000038",
  ":h c #0000003B",
  "*/ c #0000003C",
  "B% c #0000003D",
  "3& c #0000003E",
  "9] c #0000003F",
  "*6 c #00000040",
  "*o c #00000041",
  "*) c #00000048",
  "*_ c #00000049",
  ":g c #0000004A",
  "jY c #0000004B",
  "D3 c #0000004C",
  "jU c #0000004E",
  "&o c #0000004F",
  "*5 c #00000052",
  "km c #00000053",
  "kD c #00000054",
  "kN c #0000005A",
  "kB c #0000005C",
  "kS c #0000005D",
  "&O c #00000063",
  "Dy c #00000067",
  "Du c #00000068",
  "Dt c #0000006A",
  "Dr c #0404087C",
  "D4 c #05050B6F",
  "D2 c #08080E7D",
  "D@ c #0A0A116B",
  "De c #1B1B35AA",
  "D5 c #1D1D37A1",
  "D+ c #1D1D389F",
  "S/ c #20204090",
  "D1 c #292A4DC9",
  "D# c #2A2B50C2",
  "S^ c #2A2B51B0",
  "Sh c #2B2B5264",
  "SD c #2C2D569D",
  "Dw c #2E2F56D8",
  "SF c #2E3058A6",
  "D6 c #2F3057D5",
  "Sj c #2F335E92",
  "S8 c #32326256",
  "AG c #325784FF",
  "VM c #3333660A",
  "Dq c #343664EF",
  "D7 c #353765EE",
  "D0 c #363768F9",
  "D8 c #363969F8",
  "ZM c #37396BDF",
  "SK c #375A82FF",
  "Z. c #38386C4E",
  "DO c #38396BF9",
  "Au c #383A6EDA",
  "D9 c #39396AFE",
  "VN c #39396B51",
  "Z} c #39396DFB",
  "Cb c #39397109",
  "S7 c #393B6DEA",
  "CW c #393B6E7D",
  "ZU c #393B6EEF",
  "C= c #393B6F81",
  "VE c #393B6F8E",
  "V] c #393C6E51",
  "Cv c #3A3A6D4B",
  "ZY c #3A3A6EFB",
  "D< c #3A3B6BFB",
  "VZ c #3A3B6CFC",
  "An c #3A3B6DA8",
  "S( c #3A3B6DF9",
  "D$ c #3A3B6DFA",
  "Zu c #3A3D6FA8",
  "S# c #3B3B6B7E",
  "VW c #3B3B6D52",
  "A^ c #3B3C6EF2",
  "Ce c #3B3D7079",
  "VG c #3B3D718E",
  "SE c #3B6599FF",
  "Z| c #3C3D70EF",
  "C| c #3C3E6EF5",
  "VA c #3C3E71EF",
  "AK c #3C3E71F2",
  "Ai c #3C3F71A9",
  "S$ c #3C3F72E9",
  "VD c #3C3F73A9",
  "A, c #3C3F73DA",
  "SR c #3C699FFF",
  "Cr c #3D3D6D4B",
  "V[ c #3D3D7181",
  "V' c #3D3E70F1",
  "VC c #3D3E71EF",
  "A/ c #3D3F6F7E",
  "CF c #3D3F71ED",
  "C- c #3D3F7279",
  "SV c #3D699EFF",
  "ST c #3D6CA4FF",
  "SB c #3D6DA5FF",
  "VR c #3E3F71F6",
  "VS c #3E4074DA",
  "Z< c #3E4173A8",
  "VB c #3E4174A9",
  "S{ c #3E6BA0FF",
  "SY c #3E6FA9FF",
  "SN c #3E71ABFF",
  "SU c #3E72ACFF",
  "ZN c #3F4072F2",
  "CG c #3F41717E",
  "VQ c #3F4172F1",
  "VV c #3F4275DA",
  "Sg c #3F4371F5",
  "S~ c #3F4371F9",
  "VF c #40407010",
  "SI c #4074AEFF",
  "Zi c #414476DE",
  "Sa c #4174AFFF",
  "SM c #4175AFFF",
  "CQ c #424475F4",
  "At c #426083FF",
  "SP c #4275AFFF",
  "VH c #434475F7",
  "SL c #4376B0FF",
  "SG c #444977F8",
  "A! c #446897FF",
  "S} c #446EA0FF",
  "Cn c #454677EC",
  "SS c #464B78F8",
  "S[ c #4672A6FF",
  "Sm c #4678B1FF",
  "S9 c #474B7CF5",
  "Ax c #475566FF",
  "Sp c #4779B2FF",
  "Sr c #48627EFF",
  "SW c #496D9BFF",
  "Sn c #497BB3FF",
  "C* c #4B4E7CF8",
  "D, c #4B517CFB",
  "S2 c #4B7DB5FF",
  "Cc c #4C4E7AF8",
  "S5 c #4C5E75FF",
  "S| c #4C71A1FF",
  "Sb c #4C7DB5FF",
  "Si c #4C7EB5FF",
  "AJ c #4E5682F2",
  "Sk c #4E5785F7",
  "S] c #4E79ACFF",
  "Sv c #4E7FB6FF",
  "Sc c #4F80B7FF",
  "D% c #505985FA",
  "Su c #5181B8FF",
  "S@ c #525E89F6",
  "S1 c #5282B8FF",
  "Z[ c #535F6DFF",
  "A: c #546F90FF",
  "Sy c #5584BAFF",
  "SX c #5585BAFF",
  "Do c #565E87FC",
  "S< c #5886BBFF",
  "NI c #5887BCFF",
  "V{ c #595B86F9",
  "Ss c #597DA6FF",
  "Ct c #5A5D88F8",
  "St c #5A89BDFF",
  "S. c #5C8ABEFF",
  "Cw c #5D6188FB",
  "S, c #5D8ABEFF",
  "D. c #5E7EA6FF",
  "Ac c #5E80A9FF",
  "S* c #5F88B6FF",
  "AE c #5F8DC0FF",
  "S; c #6089B7FF",
  "S> c #618EC0FF",
  "Z, c #626487FC",
  "A| c #638FC1FF",
  "Am c #646F99F2",
  "S' c #648AB7FF",
  "S: c #6490C2FF",
  "A] c #6589B1FF",
  "D> c #66759AFF",
  "AR c #6792C4FF",
  "Sx c #687685FF",
  "Av c #68789FFE",
  "A_ c #6892C2FF",
  "A} c #6893C4FF",
  "AS c #6994C5FF",
  "VT c #6B739BF3",
  "A( c #6B7BA5F7",
  "AU c #6C7C90FF",
  "S+ c #6C84A5FF",
  "A{ c #6C97C7FF",
  "S! c #6D788EFF",
  "D& c #6D7FA6FF",
  "AT c #6D98C7FF",
  "S) c #6E718EFE",
  "Sq c #6E96C4FF",
  "A[ c #709AC9FF",
  "AA c #719AC9FF",
  "S6 c #7385A5FF",
  "Al c #739CCAFF",
  "C; c #74779CFA",
  "AM c #749DCBFF",
  "#e c #758DAFFF",
  "C' c #768697FF",
  "AH c #7691B3FF",
  "AP c #779ECAFF",
  "AZ c #78A0CDFF",
  "Zn c #79899CFF",
  "Sf c #798BA8FF",
  "D: c #798CACFF",
  "Aj c #799DC5FF",
  "Ak c #79A0CCFF",
  "V` c #7A86ABF9",
  "SA c #7B8392FF",
  "Ay c #7C90B1FF",
  "A~ c #7C92B1FF",
  "AY c #7CA3CFFF",
  "CE c #7D819AFE",
  "SQ c #7D8899FF",
  "AX c #7D9AB9FF",
  "DX c #7E91B0FF",
  "D* c #7E93B6FF",
  "As c #7EA5D0FF",
  "S& c #80A3CCFF",
  "Za c #818B96FF",
  "Z: c #819CB9FF",
  "S` c #81A0C4FF",
  "D; c #8297B6FF",
  "AC c #83A9D3FF",
  "VJ c #8588A7FA",
  "ZX c #8689A7FA",
  "S_ c #8697ADFF",
  "D= c #869BBBFF",
  "Z; c #869DB7FF",
  "A2 c #86ABD4FF",
  "S3 c #889AAFFF",
  "A> c #889EBDFF",
  "Zs c #88A2BEFF",
  "B_ c #88ADD6FF",
  "Sd c #898B8FFF",
  "Z4 c #899CB0FF",
  "B) c #89AED6FF",
  "CO c #8A9095FF",
  "D- c #8AA1BEFF",
  "Z{ c #8CA1BBFF",
  "AW c #8DA1B8FF",
  "A3 c #8DA2B8FF",
  "ZI c #8E9CAEFF",
  "SJ c #8F949AFF",
  "]* c #8FB2DAFF",
  "SO c #909295FF",
  "A1 c #90B2D7FF",
  "A0 c #91AFCFFF",
  "ZP c #92A1B2FF",
  "So c #92A7BEFF",
  "AQ c #93969AFF",
  "Cz c #939BA4FF",
  "Zd c #93A8C0FF",
  "'K c #93B6DCFF",
  "Aw c #949AA1FF",
  "V( c #959BA2FF",
  "ZV c #95A9C0FF",
  "Z' c #969FA9FF",
  "Ap c #96A7C6FF",
  "Ah c #97B9DEFF",
  "S4 c #989A9CFF",
  "AV c #98B1CEFF",
  "A9 c #99BBE0FF",
  "Zy c #9A9BABFF",
  "S% c #9BB2D0FF",
  "Ag c #9BBCE0FF",
  "Sl c #9CB5D3FF",
  "AI c #9DAEC0FF",
  "Aa c #9DB9DAFF",
  "ZW c #9DBCDFFF",
  "Se c #9EA3A8FF",
  "A) c #9EBAD9FF",
  "Ae c #9FA6ADFF",
  "C~ c #9FABB6FF",
  "A8 c #9FBFE3FF",
  "V! c #A0A6C0FB",
  "Z> c #A1AAB4FF",
  "S0 c #A1B9D5FF",
  "AF c #A2A5A8FF",
  "Ao c #A2ACB8FF",
  "C! c #A3A6A8FF",
  "Zm c #A3A7B2FF",
  "A7 c #A3C2E5FF",
  "SC c #A4A5A7FF",
  "C< c #A4B0BCFF",
  "VY c #A4B2CDFF",
  "CH c #A5A8C0FD",
  "A6 c #A5C4E6FF",
  "AO c #A6B7CBFF",
  "A= c #A7C5E6FF",
  "Sz c #A8B3C0FF",
  "C] c #A9B1BAFF",
  "Cl c #A9B6C4FF",
  "ZZ c #A9C7E8FF",
  "C3 c #AAB7C6FF",
  "ZQ c #AAC8E9FF",
  "C+ c #ABBAC9FF",
  "Z- c #ABBED4FF",
  "SZ c #ACADADFF",
  "C2 c #ACAEB1FF",
  "C# c #ACC4E1FF",
  "A* c #ACC9EAFF",
  "CK c #ADB7C2FF",
  "CN c #AFB5BDFF",
  "AD c #AFB9C5FF",
  "A& c #AFCCEBFF",
  ">F c #B0B0B0FF",
  "Zc c #B0B5BAFF",
  "A$ c #B0CDECFF",
  "A; c #B1B5BAFF",
  "4p c #B1C8E1FF",
  "Z! c #B1CEEDFF",
  "Z] c #B2B7BCFF",
  "Af c #B2C3D4FF",
  "AL c #B2C6DFFF",
  "ZC c #B2C8E0FF",
  "A% c #B2CEEDFF",
  "ZA c #B2CFEDFF",
  "Ar c #B3B5B6FF",
  "Sw c #B3BAC2FF",
  "S- c #B4B8BBFF",
  "SH c #B4B9C4FF",
  "C: c #B4BBC3FF",
  "ZO c #B4C5D6FF",
  "HU c #B4CBE6FF",
  "C0 c #B5BDC5FF",
  "C5 c #B5C1CEFF",
  "C6 c #B6CAE0FF",
  "Zf c #B6D0EBFF",
  "9m c #B8B8B8FF",
  "A5 c #B8C9DCFF",
  "Z~ c #B8D3F0FF",
  "A< c #B9C8DEFF",
  "C7 c #B9CFE9FF",
  "Aq c #BABEC3FF",
  "5> c #BBBBBBFF",
  "Zo c #BBBDC0FF",
  "ZS c #BBD6F2FF",
  ",A c #BCBCBCFF",
  "Z& c #BCC6D2FF",
  "C@ c #BCD2EAFF",
  "Z^ c #BCD6F3FF",
  "C> c #BEC9D5FF",
  "VK c #BFC4D6FF",
  "CA c #BFCEDFFF",
  "g= c #BFD4EAFF",
  "A` c #C0C4C9FF",
  "V) c #C0D3E8FF",
  "Z/ c #C0D9F4FF",
  "Cu c #C1CAD4FF",
  "Ad c #C1D2E4FF",
  "C[ c #C2C5CAFF",
  "C. c #C2CAD3FF",
  "Ck c #C2CEDBFF",
  "ZD c #C2DCF6FF",
  ":* c #C3C3C3FF",
  "CM c #C3C4C6FF",
  "Zv c #C3C7CBFF",
  "CS c #C3C9CFFF",
  "A# c #C3D4E7FF",
  "C, c #C4CDD7FF",
  "Z_ c #C4DBF2FF",
  "Zg c #C4DDF7FF",
  ";Y c #C5C5C5FF",
  "Co c #C5C7C8FF",
  "Z( c #C5DCF4FF",
  "Z* c #C6CBD1FF",
  "C& c #C6CCD8FF",
  "VU c #C6D2E4FF",
  "V_ c #C6D5E7FF",
  "Ab c #C6D7EAFF",
  "ZE c #C7CCD1FF",
  "Z) c #C7DDF4FF",
  "C` c #C8CACDFF",
  "ZK c #C8DDF3FF",
  "Z` c #C9DCF2FF",
  "V| c #CACED3FF",
  "Ci c #CAE0F6FF",
  "+a c #CBCBCBFF",
  "A@ c #CBD4DDFF",
  "Cj c #CBDEF1FF",
  "#+ c #CCCCCCFF",
  "Z2 c #CCCED0FF",
  "A. c #CCD9EAFF",
  "ZF c #CCE2F9FF",
  "Z5 c #CCE2FBFF",
  ",2 c #CDCDCDFF",
  "Z1 c #CDCEDAFF",
  "Z3 c #CDCFD1FF",
  "C9 c #CDD0D3FF",
  "CL c #CDDAE6FF",
  "Ch c #CDE0F3FF",
  ";_ c #CECECEFF",
  "S= c #CED0D2FF",
  "A' c #CED0D3FF",
  "CY c #CEDFF3FF",
  "ZJ c #CEE2F7FF",
  "+c c #CFCFCFFF",
  "Zb c #CFD0D0FF",
  "Zz c #CFE3F7FF",
  "Cd c #D0DDEBFF",
  "C4 c #D0E1F4FF",
  "CZ c #D0E2F5FF",
  "Z% c #D0E3F6FF",
  "Zh c #D0E6FCFF",
  "&c c #D1D1D2FF",
  "CU c #D1E4F6FF",
  "C) c #D1E4F7FF",
  "CJ c #D2D3D5FF",
  ",, c #D3D3D3FF",
  "Zr c #D3D3D4FF",
  "CD c #D3D3D8FF",
  "ZH c #D3E6FAFF",
  "Zt c #D4D5D5FF",
  "A- c #D4D8DCFF",
  "C^ c #D5E5F4FF",
  "Cg c #D5E5F7FF",
  "Z8 c #D5E7FAFF",
  "ZG c #D5E8FBFF",
  ",N c #D6D6D6FF",
  "AN c #D6DDE4FF",
  "V^ c #D6DDE5FF",
  "Z= c #D6DEE7FF",
  ",M c #D7D7D7FF",
  "C1 c #D7E5F2FF",
  "Zl c #D7E8FBFF",
  "Ca c #D8E7F4FF",
  "CC c #D8E8F9FF",
  ",b c #D9D9D9FF",
  "V/ c #D9DDE2FF",
  "Z$ c #D9EAFBFF",
  "Zw c #DADFE5FF",
  "CX c #DAE8F6FF",
  "Cf c #DAEAFAFF",
  "CI c #DAEAFBFF",
  ",v c #DBDBDBFF",
  "C( c #DBEBFCFF",
  "C} c #DCDCDDFF",
  "Zk c #DCEDFEFF",
  "Z6 c #DCEDFFFF",
  "=b c #DDDDDDFF",
  "Z7 c #DDEDFEFF",
  "Zj c #DDEEFFFF",
  "=[ c #DEDEDEFF",
  "C$ c #DEE5EDFF",
  "Z+ c #DEEEFFFF",
  "C8 c #DFE6EDFF",
  "CV c #DFEDFCFF",
  "Z@ c #DFEEFFFF",
  "Z# c #DFEFFFFF",
  "&_ c #E0E0E0FF",
  "ZT c #E0E3E8FF",
  "VI c #E0E6EFFF",
  "Cs c #E0EFFEFF",
  "C/ c #E0EFFFFF",
  "A+ c #E1E8F0FF",
  "CP c #E1F0FFFF",
  "+A c #E2E2E2FF",
  "Cp c #E2E3E5FF",
  "CB c #E2F0FFFF",
  "+S c #E3E3E3FF",
  "C{ c #E3E4E5FF",
  "Ze c #E3E6E9FF",
  "VL c #E3E7EEFF",
  "Zx c #E3E9F0FF",
  ";3 c #E5E5E5FF",
  "u3 c #E5E6E8FF",
  "Cx c #E5EAEEFF",
  ";b c #E6E6E6FF",
  ";G c #E7E7E7FF",
  "%z c #E7E7E9FF",
  ":# c #E8E8E8FF",
  "Cq c #E8E9ECFF",
  "AB c #E8EAEDFF",
  "f- c #E8EBEEFF",
  ":2 c #E9E9E9FF",
  ",$ c #EAEAEAFF",
  "V} c #EAECF0FF",
  "C_ c #EAEDF1FF",
  "V~ c #EAEEF2FF",
  ":, c #EBEBEBFF",
  "Az c #EBEDEEFF",
  ":> c #ECECECFF",
  "Cm c #ECECEDFF",
  "ZR c #ECEDEFFF",
  ":< c #EEEEEEFF",
  ";A c #EFEFEFFF",
  "Zp c #EFEFF3FF",
  "C% c #EFF0F2FF",
  "Z9 c #EFF2F4FF",
  "Z0 c #F0F1F2FF",
  "CT c #F0F1F3FF",
  ";` c #F1F1F1FF",
  "+E c #F1F2F3FF",
  "pd c #F1F2F4FF",
  "VP c #F1F2F5FF",
  ";' c #F2F2F2FF",
  "A4 c #F3F3F4FF",
  "Zq c #F3F5F6FF",
  ":3 c #F4F4F4FF",
  "CR c #F4F5F5FF",
  "=a c #F5F5F5FF",
  "+W c #F6F6F6FF",
  "ft c #F6F7F9FF",
  ":9 c #F7F7F7FF",
  "ZL c #F7F8F8FF",
  "ZB c #F8F8FAFF",
  "3y c #F8F9F9FF",
  ";S c #F9F9F9FF",
  ":5 c #FAFAFAFF",
  ";Q c #FBFBFBFF",
  "Cy c #FBFBFCFF",
  "s` c #FBFCFCFF",
  ";7 c #FCFCFCFF",
  "dV c #FCFDFDFF",
  "=q c #FDFDFDFF",
  "=w c #FEFEFEFF",
  ">X c #FFFFFFFF",
  "   c none",
  
  // Image data
  "                                                                ",
  "                                                                ",
  "                      VMVNVBVVVCVZVAVSVDVNVM                    ",
  "                  VFVGVHVJVKVLVPftVIVUVYVTVRVEVF                ",
  "                VWVQV!V~V^V/=w=w=wV(g=V)AbV_V`V'V]              ",
  "              V[V{V}f-V|C.CX=qCoCOC+C@HUC#C$C%C&C*C=            ",
  "            C-C;pdC:C>C,C<C1C2C3C4C5C6C7C8C9C0u3CqCwCe          ",
  "          CrCtCyCuCidVCpCaCsCdCfCgChCjCkClCzCx:9:<%zCcCv        ",
  "        CbCnVP=w=w+ECmCMCNCBCBCVCCCZCACS;7=w=w;7;A:2CDCFCb      ",
  "        CGCH>X=w=w=wCJCKCLCPCPCPCICUCYCTCR3y=w=w;';3;bCECW      ",
  "      CbCQCy=w=w=qC!C~C^C/C/C/C/C(C)C_C`C'C]C[C{:3;G=bC}C|Cb    ",
  "      Z.ZX>X=w=wZoZOZ+Z@Z#Z#Z#Z#Z$Z%Z&Z*Z=Z-Z;Z:Z>:#,v&_Z,Z.    ",
  "      Z<Z1;7Z2Z3Z4Z5Z6Z+Z+Z+Z+Z7Z8Z%Z9=w=wZ0ZqZwZe;GZrZtZyZu    ",
  "      ZiZpZaZsZdZfZgZhZjZjZjZkZlZzZx=w=w=w=w=w=wZcZvZbZnZmZM    ",
  "      ZNZBZVZCZZZAZSZDZFZGZGZHZJZKZL=w=w=w=w=w;7CmZP,N+aZIZU    ",
  "      ZYZTZRZEZWZQZ!Z~Z^Z/Z(Z)Z_Z`=w=w=w=w=w=w:9:,Z'Z]Z[Z{Z}    ",
  "      Z|A.AXAoAOA+A@A#A$A%Z!A&A*A=A-=w=w=w=w;7;`;3&cA;A:A>ZU    ",
  "      A,A<A1A2A3=w=wA4A5A6A6A7A8A9A0AqAwAe;S=a,$=[,,ArAtAyAu    ",
  "      AiApAaAsAd=w=w=w;QAfAgAh'K]*B)AjAkAlAz:>+A,M#+AxAcAvAn    ",
  "      Z.Am4pAMAN=w=w=w=w=wABAVB_ACAsAZAAASAD+S,b;_AFAGAHAJZ.    ",
  "      CbAKALAPAI:5=w=w=w=ws`AUAYAZAlATARAEAW,b+c;YAQA!A~A^Cb    ",
  "        A/A(A)A_A`;'+W;S:5A'A]A[A{A}A|S.SXSo;_;Y,ASOS+S@S#      ",
  "        CbS$S%S&S*S=:#:,:>S-S;S:S>S,S<S1S2S3:*5>S4S5S6S7Cb      ",
  "          S8S9S0SqSw,v=bSeSrStNISySuSiSpSaSs9m>FSdSfSgSh@V      ",
  "        @B@=SjSkSlSz,2+cSxScSvSbSnSmSMSNSBSVSCSZSASSSD:s9b@B    ",
  "        @:+/*8SFSGSH,NSJSKSLSPSISUSYSTSRSESWSQS!S~S^jYrD*~+r    ",
  "        :l*.*l*)S/S(S)S_S`S'S]S[S{S}S|D.#eDXDoDOD+kS:g*G*~@2    ",
  "        @C@59)3&&oD@D#D$D%D&D*D=D-D;D:D>D,D<D1D2&O*5*6*^+|@M    ",
  "          *7@=9)*/D3kND4D5D6D7D8D9D0DqDwDeDrDtkBjU3&*^+|@.      ",
  "            @.@o+/:dB%*_kmkB&ODyDtDtDu&OkSkD:g9]T2+/:k+j        ",
  "                @M+>@n+N*^*8:h9]*o*o9]*/*8&R*`@o@C              ",
  "                        @M&^@B:k@2@b+>*!@X+j                    "
};
