/* XPM */
const char *xpm_tango_apps_office_calendar[] = {
  // Header (width height colors chars-per-pixel)
  "32 32 233 2",
  
  // Colors (code mode value)
  "+j c #00000001",
  "@M c #00000002",
  "@. c #00000003",
  "@N c #00000005",
  "&^ c #00000006",
  "@C c #00000007",
  "@b c #0000000D",
  "+| c #0000001B",
  "&V c #0000001F",
  "+/ c #00000023",
  "*~ c #00000025",
  "rE c #00000029",
  "%J c #000000FF",
  "Fl c #020202FF",
  "D) c #0A0A0AFF",
  "D' c #0B0B0BFF",
  "D( c #0D0D0DFF",
  "ch c #0E0E0EFF",
  "F9 c #0F1010FF",
  "F2 c #101111FF",
  "DK c #111111FF",
  "Ft c #141414FF",
  "F8 c #1A1B1BFF",
  "DJ c #1D1D1DFF",
  "F+ c #212222FF",
  "Fy c #242525FF",
  "F3 c #262626FF",
  "FO c #2B2C2CFF",
  "Fw c #2D2E2EFF",
  "DL c #2E2F2FFF",
  "af c #333333FF",
  "D] c #353636FF",
  "DT c #3E3F3FFF",
  "F% c #424343FF",
  "zQ c #434444FF",
  "Fi c #494A4AFF",
  "DH c #4E5050FF",
  "F| c #5E5E5E62",
  "D[ c #5F6060FF",
  "1x c #60606008",
  "Go c #60606087",
  "DS c #6262620D",
  "F' c #6363639D",
  "F, c #636565FF",
  "<5 c #64646417",
  "FV c #64646429",
  "DW c #64646442",
  "F) c #6464644A",
  "F. c #64646463",
  "Fs c #6565653F",
  "6( c #656565FF",
  "F~ c #6666660A",
  "F^ c #66666675",
  "Fv c #6666667D",
  "FX c #66666687",
  "F} c #666666FA",
  "GX c #666666FC",
  "Fz c #666767FF",
  "FW c #6767673E",
  "F[ c #676767E7",
  "F{ c #676767EF",
  "D~ c #676969FF",
  "4B c #68686836",
  "F] c #686868E6",
  "G. c #686868F1",
  "Di c #6969693D",
  "53 c #6969697C",
  "Dv c #696969AD",
  "F_ c #696969B1",
  "F- c #696969BD",
  "FC c #696969C5",
  "F; c #696969CC",
  "Dl c #696969D1",
  "<L c #696969FD",
  "6/ c #696969FF",
  "FI c #6A6A6A0C",
  "FK c #6A6A6A24",
  "FP c #6A6A6A3C",
  "Dj c #6A6A6AC7",
  "Dp c #6A6A6AF0",
  "Nv c #6A6A6AFF",
  "Fn c #6A6B6BFF",
  "Dk c #6B6B6B9D",
  "Dg c #6B6B6BEB",
  "Df c #6B6B6BF3",
  "Dh c #6B6B6BF9",
  "F! c #6B6B6BFA",
  ":@ c #6B6B6BFF",
  "Ds c #6C6C6CCF",
  "Da c #6C6C6CED",
  "Dd c #6D6D6DC4",
  "t: c #6D6D6DFF",
  "Fc c #6E6E6EDD",
  "Db c #6E6E6EF5",
  "t1 c #6F6F6FFF",
  "F5 c #707070F5",
  "DD c #707070FE",
  "F/ c #707171FF",
  "DA c #717171EF",
  "FU c #717171FD",
  "Fe c #717171FE",
  "FE c #727272A6",
  ";W c #727272FF",
  "Fd c #747474FE",
  "DY c #747676FF",
  ";F c #757575FF",
  "FQ c #767676FD",
  ",h c #7A7A7AFF",
  "=1 c #7B7B7BFF",
  "FJ c #7E7E7EEB",
  "=< c #7E7E7EFF",
  "@> c #80808002",
  "t2 c #838383FF",
  "FM c #838585FF",
  "F( c #848484F3",
  "-^ c #848484FF",
  "DR c #848585FF",
  "D` c #868989FF",
  "-K c #878787FF",
  "FB c #898989FE",
  "D/ c #8D8F8FFF",
  "Fg c #8E9090FF",
  "D| c #8F8F8FFE",
  "-, c #8F8F8FFF",
  "F0 c #8F9292FF",
  "=L c #939393FF",
  "Fk c #939696FF",
  "FR c #949494FD",
  "=v c #949494FF",
  "Fo c #949595FF",
  "<I c #969696FF",
  ",F c #979797FF",
  "Fa c #989898FE",
  ":^ c #9A9A9AFF",
  ",D c #9B9B9BFF",
  "D^ c #9EA1A1FF",
  "F` c #9F9F9FFD",
  ",H c #9F9F9FFF",
  "DP c #A1A4A4FF",
  "6| c #A3A3A3FF",
  "FN c #A4A6A6FF",
  "=W c #A5A5A5FF",
  "-6 c #A6A6A6FF",
  "DU c #A9ACACFF",
  ";8 c #B4B4B4FF",
  "6{ c #B5B5B5FF",
  "FZ c #B7B8B8FF",
  "5X c #B9B9B9FF",
  ",G c #BABABAFF",
  ",A c #BCBCBCFF",
  "<W c #BDBDBDFF",
  "<1 c #BEBEBEFF",
  "F: c #BEBFBFFF",
  ";= c #BFBFBFFF",
  "F< c #BFC3C3FF",
  "Fx c #C0C2C2FF",
  "Fb c #C0C3C3FF",
  "Dc c #C1C2C2FF",
  "Dz c #C4C5C5FF",
  ";Y c #C5C5C5FF",
  "F= c #C6C7C7FF",
  "D! c #CBCECEFF",
  "#+ c #CCCCCCFF",
  "FA c #CFD3D3FF",
  "FF c #D0D3D3FF",
  "Fh c #D0D4D4FF",
  "Ff c #D4D8D8FF",
  "Fj c #D8DBDBFF",
  "F@ c #D9DDDDFF",
  ",m c #DADADAFF",
  "F$ c #DADEDEFF",
  "DI c #DBDFDFFF",
  "Fp c #DDDFDFFF",
  "F6 c #DEDFDFFF",
  "DG c #DFE3E3FF",
  "+Z c #E1E1E1FF",
  "Fr c #E1E4E4FF",
  "+A c #E2E2E2FF",
  "@K c #E2E3E3FF",
  "FD c #E2E5E5FF",
  "F# c #E2E6E6FF",
  "FS c #E4E8E8FF",
  "FG c #E5E7E7FF",
  "D_ c #E5E9E9FF",
  "DM c #E6EAEAFF",
  "Dm c #E7EAEAFF",
  "F1 c #E7EBEBFF",
  "DQ c #E8EAEAFF",
  "DN c #E8EBEBFF",
  "Fq c #E8ECECFF",
  "DZ c #E9EAEAFF",
  "Fm c #E9ECECFF",
  "Fu c #E9EDEDFF",
  "DB c #EAECECFF",
  "jK c #EAEDEDFF",
  "DV c #EBEEEEFF",
  ":> c #ECECECFF",
  "DF c #ECEEEEFF",
  "D{ c #ECEFEFFF",
  "F& c #EDEFEFFF",
  "DC c #EDF0F0FF",
  "D} c #EEF0F0FF",
  "FY c #EEF1F1FF",
  ";A c #EFEFEFFF",
  "F* c #EFF1F1FF",
  "FL c #EFF2F2FF",
  "Dn c #F0F2F2FF",
  "F7 c #F1F2F2FF",
  "DE c #F1F3F3FF",
  "F4 c #F2F4F4FF",
  ":O c #F3F3F3FF",
  "&p c #F3F4F4FF",
  "dG c #F3F5F5FF",
  "CR c #F4F5F5FF",
  "3S c #F5F6F6FF",
  "F> c #F5F7F7FF",
  "+W c #F6F6F6FF",
  "f6 c #F6F7F7FF",
  ":9 c #F7F7F7FF",
  "ZL c #F7F8F8FF",
  "FT c #F7F9F9FF",
  "3y c #F8F9F9FF",
  "FH c #F9FAFAFF",
  ":5 c #FAFAFAFF",
  "sC c #FAFBFBFF",
  ";Q c #FBFBFBFF",
  "s` c #FBFCFCFF",
  ";7 c #FCFCFCFF",
  "=q c #FDFDFDFF",
  "Dx c #FDFEFEFF",
  "=w c #FEFEFEFF",
  ">X c #FFFFFFFF",
  "   c none",
  
  // Image data
  "                                                                ",
  "                                                                ",
  "                                                                ",
  "                                                                ",
  "          DiDp6/6/6/6/6/6/6/6/6/6/6/6/6/6/6/6/6/6/Da4B          ",
  "          Ds-6#+,H;=;=;=;=;=;=;=;=;=;=;=;=;=;=;=;=,DDd          ",
  "          Df:^-6,D,D,D,D,D,D,D,D,D,D,D,D,D,D,D,D,D=vDg          ",
  "        @><L,F,D,D,D,D,D,D,D,D,D,D,D,D,D,D,D,D,D,D<IDh          ",
  "          DjNv6/6/6/6/6/6/6/6/6/6/6/6/6/6/6/6/6/6/NvDk          ",
  "          DlDz>X>X>X>X>X>X>X>X>X>X>X>X>XDxDx=w=w>XDcDv          ",
  "          Db@KDnDmDMDMDMDMDMDMDMDMDMDMDMDNDBDVDCf6DZDA          ",
  "        DSDD+WDFDMDMDGDHDJDKDLDPDMDIDUDYDTDRDVDCDE;7t:1x        ",
  "        DW;W=wDQDMDMD!D~D^D/D(D)D_D`D'D]%JD[D{D}DnDxD|F.        ",
  "        FXFosCDMDMDMDMDMDMD_FOF+DMF@F#F$%JF%F&F*DEsCF=F-        ",
  "        F;F:F>DMDMDMDMD`F,afDTF<DMDMDMF1F2F3D}DnF43y:>F5        ",
  "        DfF6F7DMDMDMDMF,zQF8F9F0DMDMDMFqFwD)F*DEdGf6=qt1<5      ",
  "      DSFe&pDVDMDMDMDMDMDMFrFtFyDMDMF1FuFi%JFpF4CRf6=wFa53      ",
  "      FsFdDxDmDMDMFfFgFhFjFkFlF,DMDMFqjKFz%JFxdG3SZL;7+AFc      ",
  "      Fv-,sCDMDMDMFbD)%J%JchFnFrDMF1FmDVFM%JFNCRf63ysCDxFBFV    ",
  "      FCFZF>DMDMDMDMFrD!FAFSDMDMDMDNjKD{FDFFFG3SZLFHs`=w:9FJFK  ",
  "      Dp,mDnDMDMDMDMDMDMDMDMDMDMDmFmDVDCFLDEdGf63ysC;7=w>X>Xt1FP",
  "    FIFUF7DVDMDMDMDMDMDMDMDMDMDMDNjKD{FYDn&pF>FT;Q=q=w>X;AFRFE+j",
  "    FWFQ>X>X>X>X>X>X>X>X>X>X>X>X>X>X>X>X>X=w=q:5:O+Z5X=<,hF!F~  ",
  "    F^6/6/6/6/6/6/6/6/6/6/6/6/6/6/6/6/6/NvF/;F=1-K=L=W=W=1F(F)  ",
  "    F_6|:@<W;Y;Y;Y;Y;Y;Y;Y;Y;Y;Y;Y;Y;Y;Y;Y;Y;Y;Y;Y;Y;Y,ANvF`F'  ",
  "    F];8t2:@6/6/6/6/6/6/6/6/6/6/6/6/6/6/6/6/6/6/6/6/6/:@-^6{F[&^",
  "  @MF{6{<1,A,A,A,A,A,A,A,A,A,A,A,A,A,A,A,A,A,A,A,A,A,A,A;=,GF}@C",
  "    F|G.6(6(6(6(6(6(6(6(6(6(6(6(6(6(6(6(6(6(6(6(6(6(6(6(6(GXGo+j",
  "      @b+|+/rErErErErErErErErErErErErErErErErErErErE*~*~&V@b+j  ",
  "          @.&^&^&^&^&^&^&^&^&^&^&^&^&^&^&^&^&^&^&^&^@N@M        ",
  "                                                                ",
  "                                                                "
};
