/* XPM */
const char *xpm_tango_apps_preferences_system_windows[] = {
  // Header (width height colors chars-per-pixel)
  "32 32 76 2",
  
  // Colors (code mode value)
  "+j c #00000001",
  "@M c #00000002",
  "&^ c #00000006",
  "@C c #00000007",
  "*! c #00000008",
  "@B c #0000000A",
  "@b c #0000000D",
  "@2 c #0000000E",
  "@: c #00000010",
  "+r c #00000012",
  "@m c #00000013",
  "*' c #00000015",
  "@n c #00000019",
  "@5 c #0000001A",
  "@= c #0000001C",
  "+g c #00000021",
  "+/ c #00000023",
  "9) c #0000002C",
  "&R c #0000002F",
  ":d c #00000030",
  ":s c #00000031",
  "=( c #00000033",
  "rD c #00000038",
  ",W c #00000039",
  ":h c #0000003B",
  "{, c #1C1C1C37",
  "{> c #2F2F2F2B",
  "k+ c #3B6096FF",
  "{* c #43669AFF",
  "{: c #6B6B6B13",
  "{- c #7590B5FF",
  "{= c #7A94B7FF",
  "{1 c #7D7D7DBB",
  "c! c #8888880F",
  "{; c #898989A8",
  "{< c #8A8A8AA6",
  "{& c #8B8B8B0B",
  "jE c #8D8D8DFE",
  "-i c #8D8D8DFF",
  "D| c #8F8F8FFE",
  "-, c #8F8F8FFF",
  "{$ c #919191F6",
  "pb c #919191FF",
  "=v c #949494FF",
  "{# c #95959597",
  "<' c #959595FF",
  "{% c #96969699",
  ",G c #BABABAFF",
  "={ c #DFDFDFFF",
  "&_ c #E0E0E0FF",
  "+A c #E2E2E2FF",
  "+S c #E3E3E3FF",
  ";3 c #E5E5E5FF",
  ";b c #E6E6E6FF",
  ":# c #E8E8E8FF",
  ":2 c #E9E9E9FF",
  ",$ c #EAEAEAFF",
  ":, c #EBEBEBFF",
  ";9 c #EDEDEDFF",
  ":< c #EEEEEEFF",
  ";T c #F0F0F0FF",
  ";` c #F1F1F1FF",
  ";' c #F2F2F2FF",
  ":O c #F3F3F3FF",
  ":3 c #F4F4F4FF",
  "=a c #F5F5F5FF",
  "+W c #F6F6F6FF",
  ":9 c #F7F7F7FF",
  ";R c #F8F8F8FF",
  ";S c #F9F9F9FF",
  ":5 c #FAFAFAFF",
  ";Q c #FBFBFBFF",
  ";7 c #FCFCFCFF",
  "=w c #FEFEFEFF",
  ">X c #FFFFFFFF",
  "   c none",
  
  // Image data
  "                                                                ",
  "  {#{${${${${${${${${${${${${${${${${${${${%                    ",
  "  D|;Q>X>X>X>X>X>X>X>X>X>X>X>X>X>X>X>X>X;QD|{&                  ",
  "  pb;7{*k+k+k+k+k+k+k+k+k+k+k+k+k+k+k+{*;7pbc!                  ",
  "  pb;7{={-{-{-{-{-{-{-{-{-{-{-{-{-{-{-{=;7pbc!                  ",
  "  pb;Q=w=w=w=w=w=w=w=w=w=w=w=w=w=w=w=w=w;Qpbc!                  ",
  "  pb:5;Q;Q;Q;Q;Q;Q;Q;Q;Q;Q;Q;Q;Q;Q;Q;Q;Q:5pbc!                  ",
  "  pb;S;R;R;R;R;R;R;R;R;R;R;R;R;R;R;R;R;R;Spbc!                  ",
  "  pb;R+W+W+W+W+W+W+W+W+W+W+W+W+W+W+W+W+W;Rpbc!                  ",
  "  pb:9:O:O:O:O:O:O:O:O:O:O:O:O:O:O:O:O:O:9pbc!                  ",
  "  pb=a;T;T;T;T;T;T,G=v=v=v=v=v=v=v=v=v=v<'pb{${${${${${${${%    ",
  "  pb:3:<;9;9;9;9;9-,;Q>X>X>X>X>X>X>X>X>X>X>X>X>X>X>X>X>X;QD|{&  ",
  "  pb:O:,,$,$,$,$,$pb;7{*k+k+k+k+k+k+k+k+k+k+k+k+k+k+k+{*;7pbc!  ",
  "  pb;':2:#:#:#:#:#pb;7{={-{-{-{-{-{-{-{-{-{-{-{-{-{-{-{=;7pbc!  ",
  "  pb;`;b;3;3;3;3;3pb;Q=w=w=w=w=w=w=w=w=w=w=w=w=w=w=w=w=w;Qpbc!  ",
  "  pb;T+S+A+A+A+A+Apb:5;Q;Q;Q;Q;Q;Q;Q;Q;Q;Q;Q;Q;Q;Q;Q;Q;Q:5pbc!  ",
  "@Mpb:<&_={={={={={pb;S;R;R;R;R;R;R;R;R;R;R;R;R;R;R;R;R;R;Spbc!  ",
  "@BD|:<;T;T;T;T;T;Tpb;R+W+W+W+W+W+W+W+W+W+W+W+W+W+W+W+W+W;Rpbc!  ",
  "@C{;jE-i-i-i-i-i-ipb:9:O:O:O:O:O:O:O:O:O:O:O:O:O:O:O:O:O:9pbc!  ",
  "  @2+g9):d:d:d:d:dpb=a;T;T;T;T;T;T;T;T;T;T;T;T;T;T;T;T;T=apbc!  ",
  "    @M*!@B@B@B@B@Bpb:3:<;9;9;9;9;9;9;9;9;9;9;9;9;9;9;9:<:3pbc!  ",
  "                  pb:O:,,$,$,$,$,$,$,$,$,$,$,$,$,$,$,$:,:Opbc!  ",
  "                  pb;':2:#:#:#:#:#:#:#:#:#:#:#:#:#:#:#:2;'pbc!  ",
  "                  pb;`;b;3;3;3;3;3;3;3;3;3;3;3;3;3;3;3;b;`pbc!  ",
  "                  pb;T+S+A+A+A+A+A+A+A+A+A+A+A+A+A+A+A+S;Tpb{:  ",
  "                  pb:<&_={={={={={={={={={={={={={={={&_:<pb{>@C",
  "                  D|:<;T;T;T;T;T;T;T;T;T;T;T;T;T;T;T;T;T:<D|{,*'",
  "                  {<jE-i-i-i-i-i-i-i-i-i-i-i-i-i-i-i-i-ijE{1&R@:",
  "                  @b+/=(:h:h:h:h:h:h:h:h:h:h:h:h:h:h:h,WrD:s@=+j",
  "                    &^+r@5@5@5@5@5@5@5@5@5@5@5@5@5@5@5@n@m@B    ",
  "                                                                ",
  "                                                                "
};
