/* XPM */
const char *xpm_tango_apps_preferences_desktop_keyboard_shortcuts[] = {
  // Header (width height colors chars-per-pixel)
  "32 32 213 2",
  
  // Colors (code mode value)
  "2d c #00808002",
  "L< c #191A19FF",
  "%9 c #1C1C1CFF",
  "7S c #1C558E09",
  "7l c #1F478519",
  "KK c #1F498731",
  "7z c #1F4A8672",
  "K_ c #1F4A87FB",
  "L- c #1F4A885A",
  "Lo c #1F4B8782",
  "K2 c #20498799",
  "KH c #2049888F",
  "KU c #204988CD",
  "KL c #204A86ED",
  "K) c #204A87A6",
  "KJ c #204A87D1",
  "MX c #204A87E6",
  "K; c #204A87EE",
  "K4 c #204A87F0",
  "LX c #204A87FA",
  "KE c #204A87FE",
  "p- c #204A87FF",
  "%U c #204A8889",
  "KW c #204A88EF",
  "n% c #204B8696",
  "KR c #21498746",
  "KY c #224A8934",
  "K- c #2449800E",
  "cc c #2B2C2BFF",
  "7r c #2B558006",
  "L; c #2D2E2CFF",
  "Ki c #323332FF",
  "K| c #343533FF",
  "L= c #353634FF",
  "L2 c #353635FF",
  "L5 c #363735FF",
  "L4 c #373836FF",
  "Kj c #3B3B3AFF",
  "Kq c #424342FF",
  "K9 c #434442FF",
  "Lq c #444443FF",
  "Ke c #454644FF",
  "Kn c #474847FF",
  "L# c #474947FF",
  "Ks c #484847FF",
  "L7 c #494A48FF",
  "L0 c #4A4B49FF",
  "Kg c #4B4C4BFF",
  "LO c #535452FF",
  "Kc c #565756FF",
  "Kd c #585A58FF",
  "L8 c #5B5D5BFF",
  "K] c #5B5E5BFF",
  "Kx c #5C5E5CFF",
  "6X c #5E605DFF",
  "Ka c #5F615FFF",
  "Kk c #60615FFF",
  "x! c #676966FF",
  "Kh c #696A68FF",
  "Kt c #6A6C69FF",
  "Kv c #6D6F6CFF",
  "k8 c #717370FF",
  "BB c #727471FF",
  "BM c #737571FF",
  "Bk c #737572FF",
  "Kw c #787A78FF",
  "zy c #7A7C79FF",
  "Kb c #7E807EFF",
  "eB c #888A85FF",
  "xp c #8A8A863D",
  "KA c #8A8C88E7",
  "K, c #8A8C88F8",
  "K: c #8B8B8742",
  "KG c #8B8D88E6",
  "K< c #8B8D88F7",
  "K1 c #8B8D89F8",
  "K3 c #8C8E89E9",
  "K> c #8C8E89EC",
  "L& c #969894FF",
  "K0 c #969995FF",
  "L> c #979A96FF",
  "L% c #9DA09BFF",
  "L+ c #9FA29DFF",
  "j5 c #A4A6A2FF",
  "L9 c #A4A6A3FF",
  "KI c #A4ADB6FF",
  "47 c #A5A8A3FF",
  "Lr c #A7B0B8FF",
  "Le c #A8B1B9FF",
  "KF c #AFB7BCFF",
  "L1 c #B4B7B2FF",
  "KP c #B4BCC7FF",
  "L6 c #B7BAB5FF",
  "L* c #B8BCB7FF",
  "KV c #B9BDB6FF",
  "Km c #BBBDBAFF",
  "K[ c #BCBFBAFF",
  "K5 c #BCC3CAFF",
  "K6 c #BFC5CDFF",
  "Kp c #C2C5C1FF",
  "K{ c #C2C6C0FF",
  "K} c #C6CAC5FF",
  "KS c #C7C9C4FF",
  "L$ c #C7CBC6FF",
  "eO c #C8CAC7FF",
  "Ku c #C9CCC7FF",
  "L3 c #C9CDC7FF",
  "L@ c #CED2CDFF",
  "Kz c #CFD2CEFF",
  "K' c #D0D5CDFF",
  "KB c #D2D4D0FF",
  "x{ c #D2D6D0FF",
  "KQ c #D4D9D2FF",
  "Xp c #D5D9D2FF",
  "K` c #D5DAD2FF",
  "Bl c #D6D7D5FF",
  "KC c #D6D9D5FF",
  "K( c #D6DAD4FF",
  "K! c #D6DBD3FF",
  "KT c #D7DAD5FF",
  "L. c #D7DCD4FF",
  "K~ c #D7DCD5FF",
  "BC c #D9DAD8FF",
  "K^ c #D9DDD6FF",
  "xN c #D9DED7FF",
  "K/ c #DADED7FF",
  "xB c #DADFD8FF",
  "K7 c #DADFD9FF",
  "Kl c #DBDDDAFF",
  "xM c #DBDFD8FF",
  "xV c #DBDFD9FF",
  "xC c #DBE0D9FF",
  "r9 c #DCDEDAFF",
  "e# c #DCE0D9FF",
  "xS c #DCE0DAFF",
  "|1 c #DDDFDBFF",
  "xJ c #DDE1DAFF",
  "xF c #DDE1DBFF",
  "KZ c #DEE0DDFF",
  "xR c #DEE2DBFF",
  "xK c #DEE2DCFF",
  "KN c #DFE1DEFF",
  "KD c #DFE2DEFF",
  "xI c #DFE3DCFF",
  "xP c #DFE3DDFF",
  "L: c #DFE3DEFF",
  "Ky c #E0E2DFFF",
  "xU c #E0E4DEFF",
  "}| c #E1E2DFFF",
  "Lw c #E1E2E0FF",
  "Xv c #E1E3E0FF",
  "hc c #E1E4DFFF",
  "L, c #E1E4E0FF",
  "xE c #E1E5DFFF",
  "r7 c #E2E5E1FF",
  "xW c #E2E6E0FF",
  "Kr c #E2E6E1FF",
  "X} c #E3E5E2FF",
  "x^ c #E3E7E1FF",
  "c1 c #E3E7E2FF",
  "K8 c #E4E6E3FF",
  "x) c #E4E8E2FF",
  "x` c #E5E8E3FF",
  "x] c #E5E9E3FF",
  "c7 c #E5E9E4FF",
  ":y c #E6E7E4FF",
  ";A c #E6E9E4FF",
  ";C c #E7EAE5FF",
  "c+ c #E7EBE5FF",
  "c@ c #E7EBE6FF",
  "%w c #E8E8E6FF",
  "|X c #E8E9E6FF",
  "1W c #E8E9E7FF",
  "c- c #E8EBE6FF",
  "Kf c #E8ECE6FF",
  "59 c #E9EAE8FF",
  "1_ c #E9ECE7FF",
  ">, c #E9ECE8FF",
  "c8 c #E9EDE8FF",
  ",. c #EAEBE8FF",
  "X| c #EAEBE9FF",
  "c, c #EAEDE8FF",
  "c< c #EAEEE9FF",
  "ck c #EBEEE9FF",
  "3f c #ECEDEBFF",
  "#i c #EDEDEBFF",
  ";t c #EDEEEDFF",
  "cN c #EDF0EBFF",
  ":Y c #EDF0ECFF",
  "#& c #EEEEECFF",
  ">2 c #EEEFEDFF",
  "fn c #EFF0EFFF",
  "cz c #EFF2EEFF",
  "KM c #EFF3EEFF",
  "#u c #F0F0EEFF",
  "l8 c #F0F0EFFF",
  "4[ c #F0F1EFFF",
  "c} c #F2F2F1FF",
  "#6 c #F2F3F2FF",
  "#_ c #F3F3F1FF",
  "55 c #F3F3F2FF",
  ":3 c #F4F4F4FF",
  ">r c #F4F5F4FF",
  "v0 c #F6F6F5FF",
  "+W c #F6F6F6FF",
  ";R c #F8F8F8FF",
  "lP c #F9F9F8FF",
  ";S c #F9F9F9FF",
  ":5 c #FAFAFAFF",
  "}1 c #FBFBFAFF",
  ";7 c #FCFCFCFF",
  "=w c #FEFEFEFF",
  "   c none",
  
  // Image data
  "                                K-n%K;p-p-p-p-p-p-p-p-p-p-K;n%K-",
  "  K:K>K,K<K<K<K<K<K<K<K<K1K>K:  K2p-p-p-p-p-p-p-p-p-p-p-p-p-p-K2",
  "  K3Bll8#6>r+W;R;S;R+W>rc}BCK3  K4p-K5l8#6>r+W;R;S;R+W>rc}K6p-K4",
  "  eB;t|X#&#&#&#&#&#&#&#&,.fneB  p-p-;t|X#&#&#&#&#&#&#&#&,.fnp-p-",
  "  eB3f#iK7xMxSxJxFxJxSe##i;teB  p-p-3f#iK7xMxSxJxFxJxSe##i;tp-p-",
  "  eB59#&xSxKxPxUxUxUxPxK#&X|eB  p-p-59#&xSxKxPxUxUxUxPxK#&X|p-p-",
  "  eBK8#uxPxExWK9K0c147Kq#u:yeB  p-p-K8#uxPxExWKwKeKrx!Kt#u:yp-p-",
  "  eBKy#_xEc1c7Kuccr7KiKp#_XveB  p-p-Ky#_xEc1c7;CKaKsKdKr#_Xvp-p-",
  "  eBr9v0x^;AKfc,BkKgBB;Av0|1eB  p-p-r9v0x^;AKfc,KhKjKkx`v0|1p-p-",
  "  eBKllPx)c+c,cNKz%9hcc+lPKleB  p-p-KllPx)c+c,BkKxcNKcKvlPKlp-p-",
  "  eBKl:5;Ac@c<KbKnKmc<>,:5KleB  p-p-Kl:5;Ac@c<:YKM:Yc<>,:5Klp-p-",
  "  eBKlXv;7=w=w=w=w=w=w;7}|KleB  p-p-KlXv;7=w=w=w=w=w=w;7}|Klp-p-",
  "  eBKNKBKVKVKVKVKVKVKVKVKCKZeB  p-p-KNKBKVKVKVKVKVKVKVKVKCKZp-p-",
  "  KAKSKDKlKlKlKlKlKlKlKlXvKSKA  K4p-KFKDKlKlKlKlKlKlKlKlXvKFp-K4",
  "  xpKGeBeBeBeBeBeBeBeBeBeBKGxp  K2p-p-p-p-p-p-p-p-p-p-p-p-p-p-K2",
  "7S%UMXp-p-p-p-p-p-p-p-p-p-p-p-p-p-p-p-p-p-p-p-p-p-p-p-p-p-K;n%K-",
  "KHp-p-p-p-p-p-p-p-p-p-p-p-p-p-p-p-p-p-p-p-p-p-p-KH    KJp-KK    ",
  "KLp-KPl8#6>r+W;R;S;R+W:3#64[>23fX|1W:yX}XvKZKIp-KL    KUp-KY    ",
  "p-p-;t%w#&#&#&#&#&#&#&#&#&#&#&#&#&#&#&#&#iKTr9p-p-  KRKEKW7r    ",
  "p-p-3f#iXpKQK!K~K^K/xBxMxCxCxMxBK/K^K~K!K(#ir9p-p-K)K_p-7z      ",
  "p-p-59#&K`K'BMK]6XK[K{K}xIxIxKxRK|xCxBK^L.#&Klp-p-p-LXLo2d      ",
  "p-p-K8#uK~LOL+xJxKL@L#KkL$L%L&L*L=xKxJxVxN#uKlp-p-L-7l          ",
  "p-p-Ky55xNL;xFxPxEL:k8L>L,L<L1x{L2xExPxFxC55Klp-p-              ",
  "p-p-r9v0xBK|L3xEx^x]zyj51_L4c-;CL5x^xExPxJv0Klp-p-              ",
  "p-p-KllPxCL6L7L8KkK}L9L0eOLqckc8Kqx`KrxUxKlPKlp-p-              ",
  "p-p-Kl}1xRxKxEx^;Ac-c<cNczczcNc<c-;Ax^xExU}1Klp-p-              ",
  "p-p-KlLw;7=w=w=w=w=w=w=w=w=w=w=w=w=w=w=w;7KyKlp-p-              ",
  "p-p-KNKBKVKVKVKVKVKVKVKVKVKVKVKVKVKVKVKVKVKCKZp-p-              ",
  "KLp-LeKDKlKlKlKlKlKlKlKlKlKlKlKlKlKlKlKlKlXvLrp-KL              ",
  "KHp-p-p-p-p-p-p-p-p-p-p-p-p-p-p-p-p-p-p-p-p-p-p-KH              ",
  "7S%UMXp-p-p-p-p-p-p-p-p-p-p-p-p-p-p-p-p-p-p-MX%U7S              ",
  "                                                                "
};
