/* XPM */
const char *xpm_tango_apps_preferences_desktop_wallpaper[] = {
  // Header (width height colors chars-per-pixel)
  "32 32 498 2",
  
  // Colors (code mode value)
  "+j c #00000001",
  "@M c #00000002",
  "@. c #00000003",
  "@X c #00000004",
  "@N c #00000005",
  "&^ c #00000006",
  "@C c #00000007",
  "*! c #00000008",
  "@B c #0000000A",
  "+> c #0000000B",
  ":k c #0000000C",
  "@b c #0000000D",
  "@2 c #0000000E",
  ":l c #0000000F",
  "@: c #00000010",
  "+r c #00000012",
  "@m c #00000013",
  "@o c #00000014",
  "*' c #00000015",
  "+k c #00000016",
  "Bi c #00000017",
  "=N c #00000018",
  "@n c #00000019",
  "@5 c #0000001A",
  "+| c #0000001B",
  "@= c #0000001C",
  "*Q c #0000001D",
  "9b c #0000001E",
  "&V c #0000001F",
  "@6 c #00000020",
  "*. c #00000022",
  "+/ c #00000023",
  "*~ c #00000025",
  "+N c #00000026",
  "rE c #00000029",
  "rn c #0000002A",
  "9) c #0000002C",
  "rF c #0000002D",
  "*^ c #0000002E",
  ":s c #00000031",
  "T2 c #00000032",
  "&W c #00000034",
  "*l c #00000035",
  "9c c #0000003A",
  "*/ c #0000003C",
  "*z c #00000043",
  "*_ c #00000049",
  "*W c #0000004D",
  "*D c #00000050",
  "_P c #04000039",
  "rm c #06060629",
  "_N c #0606062E",
  "__ c #1111115B",
  "(X c #163763FF",
  "(, c #193E70FF",
  "r] c #1A1A1A44",
  "(o c #1B3B65FF",
  "/| c #1B3B66FF",
  "(r c #1C457EFF",
  "(e c #1E467FFF",
  "_D c #1F1B1041",
  "85 c #1F4A87FF",
  "_) c #20202069",
  "(Y c #204A85FF",
  "(E c #204A86FF",
  "(R c #214982FF",
  "(T c #214A84FF",
  "(; c #224473FF",
  "(U c #23477AFF",
  "(I c #254777FF",
  "ra c #27272741",
  "r[ c #2727275C",
  "(P c #274671FF",
  "_( c #2A2C2A74",
  "rW c #2B2B2853",
  ")> c #2B64B8FF",
  "): c #2C63B6FF",
  "(L c #2D4A72FF",
  "), c #2D5CA0FF",
  ")1 c #2D5DA4FF",
  ")< c #2D60ABFF",
  "_/ c #2F2F2F71",
  ")2 c #2F5893FF",
  ")4 c #324E76FF",
  ")3 c #334A6AFF",
  "(W c #335584FF",
  ")p c #335D98FF",
  "(' c #354864FF",
  "(` c #354965FF",
  "([ c #354966FF",
  "(. c #355072FF",
  "(] c #36455DFF",
  "(0 c #365885FF",
  ")i c #36609EFF",
  "({ c #374252FF",
  "(| c #374356FF",
  ")o c #38404BFF",
  "(# c #39392F31",
  ")f c #393A38FF",
  ")X c #393B3DFF",
  ")s c #393C3EFF",
  "(} c #393C40FF",
  "). c #393E46FF",
  "(4 c #3A352D3E",
  "(u c #3A362C4B",
  ")P c #3A3730FF",
  ")Z c #3A3832FF",
  ")g c #3A3934FF",
  ")d c #3A3A36FF",
  "zd c #3A3A3AFF",
  ")a c #3A3B3AFF",
  ")5 c #3A4656FF",
  "(Z c #3B362D67",
  "(! c #3B372C74",
  ")+ c #3B372D81",
  "/D c #3B372DFF",
  ")h c #3B3830FF",
  ")I c #3B3935FF",
  ")j c #3B3A36FF",
  "(x c #3C362D5A",
  "rG c #3C3E3C7F",
  "(B c #3C5980FF",
  "/F c #3D392FFC",
  "_0 c #3D3930FB",
  "); c #3D4651FF",
  "/' c #3E373025",
  "(< c #3E587AFF",
  "(> c #3F5E88FF",
  "/L c #40333314",
  "_& c #403C32F3",
  "_z c #403C33F2",
  "_a c #413D33F1",
  ")8 c #413E3395",
  "_x c #423F3355",
  "_. c #433F36E9",
  ")K c #44423FFF",
  ")` c #454137DF",
  "/K c #454138F7",
  ")~ c #454238D3",
  "Ke c #454644FF",
  "_^ c #4640308B",
  ")x c #464138A5",
  "/G c #46413998",
  ")D c #464238B5",
  "(w c #466693FF",
  "(f c #466793FF",
  "/S c #484337FF",
  ")T c #484439C4",
  "rQ c #494A46B3",
  ")L c #4A453CFF",
  ")u c #4A4A48FF",
  "(J c #4A6891FF",
  ")V c #4B545DFF",
  ")A c #4C4C4BFF",
  "/R c #4C5D72FF",
  "(m c #4C6B93FF",
  "rs c #4D504CDA",
  "/T c #4D5D73FF",
  "/Y c #4D5E73FF",
  "(h c #4D709FFF",
  "/E c #4E5F73FF",
  ")C c #4F4A3EFF",
  "rl c #4F504EDF",
  "r! c #50524FED",
  "/^ c #506072FF",
  "// c #506073FF",
  "(j c #50627AFF",
  "/! c #516173FF",
  "/Q c #516274FF",
  "rM c #525451FA",
  "/~ c #526274FF",
  "/W c #536274FF",
  "rd c #565855F4",
  ")k c #575856FF",
  "_Q c #575953F9",
  "rH c #595A57F8",
  "/A c #5A5445FF",
  "/` c #5A574FF3",
  "r~ c #5A5C58F9",
  "() c #5A7192FF",
  ")B c #5C5D5AFF",
  "_E c #5D5841AD",
  "(_ c #5D5E5DFF",
  "x. c #5F605EFF",
  "(d c #5F7697FF",
  ")* c #5F7795FF",
  ")t c #5F7895FF",
  ")M c #5F7BA0FF",
  "_! c #605C4AF4",
  "(: c #61738DFF",
  "_W c #626460F7",
  "r^ c #646763F7",
  "_~ c #676047DE",
  "/P c #67605325",
  "(@ c #67655DF2",
  "(( c #677D99FF",
  "/] c #68635331",
  "t% c #686A67FF",
  "(5 c #6963524B",
  "(i c #6963525A",
  "(A c #6A635174",
  "(c c #6A635267",
  "/Z c #6A6352FF",
  "Kt c #6A6C69FF",
  "(n c #6A7E99FF",
  "(~ c #6B635181",
  "($ c #6B63523E",
  "/C c #6B6453FC",
  "r/ c #6B6E6AF8",
  "_* c #6C6553FB",
  "/H c #6D615515",
  "_X c #6D6756F3",
  "_d c #6E6756F2",
  "_q c #6E6857F1",
  "/( c #6E757CFF",
  ")@ c #6F685995",
  "_s c #6F695755",
  "(k c #6F716EFF",
  "_o c #6F726CFF",
  ")' c #706A59E9",
  ")^ c #706B5ADF",
  "(g c #708199FF",
  "(H c #71849AFF",
  "/J c #726B5CF6",
  ")9 c #726C5BA5",
  ")R c #726C5CD3",
  ")c c #726C5DB5",
  "/V c #726D5B9F",
  "_f c #736A50FF",
  ")F c #746D5CC4",
  "(3 c #75746AF2",
  ")- c #757675FF",
  "ci c #757774FF",
  "(V c #767874FF",
  "rf c #777A76FB",
  "(l c #787A76FF",
  ":, c #7B7E79FF",
  "hH c #7C7E7AFF",
  "(O c #7D8389FF",
  "(2 c #7E807CFF",
  "_l c #7F744DFF",
  "_L c #7F764DFF",
  "gZ c #7F807DFF",
  "5D c #7F817DFF",
  "_M c #80754BFA",
  ")Q c #80754BFF",
  ")W c #80754CFF",
  "_c c #807C66FF",
  "(t c #80878BFF",
  "(K c #808EA1FF",
  "_S c #81764DFF",
  "_$ c #81764EFF",
  "lW c #81837FFF",
  "_O c #82774EFF",
  "(y c #828079F3",
  "/I c #837D6FF3",
  "gv c #838481FF",
  "rz c #838581FD",
  "/_ c #848682FF",
  "_B c #858168FF",
  "/) c #858783FF",
  "B0 c #868785FF",
  "gQ c #868883FF",
  "_< c #877C52FF",
  "g, c #878984FF",
  "rJ c #878A85FE",
  "_7 c #897E55FF",
  "v+ c #8A8C88FF",
  "l~ c #8B8E89FF",
  "(q c #8B949EFF",
  "/U c #8C8D8AFF",
  "Bj c #8C8D8BFF",
  "f7 c #8C8F89FF",
  "_r c #8D8052FF",
  "(z c #8D8D86F4",
  "3V c #8D8F8AFF",
  ")v c #8D908BFF",
  "(M c #8D949EFF",
  "_U c #8E8561FF",
  "/[ c #8E887AF2",
  "(1 c #8E8F8DFF",
  "fO c #8E908BFF",
  "(D c #8E918BFF",
  "lK c #8E918CFF",
  "_R c #8F845EFF",
  "(+ c #8F8F8EFF",
  ")% c #8F9AA6FF",
  "WZ c #92958FFF",
  "_2 c #948A5EFF",
  "_% c #949790FF",
  ")N c #949792FF",
  ")J c #949997FF",
  "_g c #958652FF",
  "_1 c #968B5EFF",
  "_6 c #978D60FF",
  "(% c #979487F2",
  "(N c #98ABC4FF",
  ")y c #999C97FF",
  ")| c #999D98FF",
  "(C c #9A9992F7",
  "_u c #9B8A4BFF",
  "_F c #9B9984FF",
  "fK c #9B9E98FF",
  "f5 c #9B9E99FF",
  "rN c #9B9E9AFF",
  "_5 c #9C8F5CFF",
  ")H c #9DA09AFF",
  "x: c #9DA0A0FF",
  "(Q c #A1A19AFB",
  ")E c #A1A49EFF",
  "(6 c #A29E93F3",
  ")m c #A2A5A1FF",
  ")_ c #A2A6A0FF",
  "<S c #A3A4A2FF",
  "<: c #A4A4A3FF",
  ")= c #A5A6A3FF",
  "(* c #A5A6A4FF",
  "(7 c #A5A8A2FF",
  "hX c #A6A8A4FF",
  "E) c #A7A8A6FF",
  "3A c #A7A9A4FF",
  "/z c #A7A9A6FF",
  "(8 c #A7A9A7FF",
  ")/ c #A7AAA4FF",
  "_v c #A89966FF",
  ")& c #A8AAA7FF",
  ")r c #A9ABA8FF",
  "lR c #A9ABA9FF",
  "(b c #AAABA9FF",
  "Wv c #AAADA7FF",
  ")e c #AAADA9FF",
  ")O c #ABAAA5FF",
  "]i c #ABACA9FF",
  "(s c #ABACAAFF",
  ")$ c #ABADAAFF",
  ")n c #ABAEAAFF",
  "(p c #ACA99FF4",
  "qV c #ACADABFF",
  "(9 c #ACADACFF",
  "(G c #ACAEABFF",
  "rx c #ACAFA9FF",
  "_G c #ADA279FF",
  "(/ c #ADAEABFF",
  "(- c #ADAEACFF",
  "(a c #ADAEADFF",
  "0m c #ADAFACFF",
  "rc c #ADB0AAFF",
  ")w c #ADB0ACFF",
  ")] c #ADB1AAFF",
  "_i c #AEA990FF",
  "hi c #AEAFADFF",
  "(F c #AEB0ADFF",
  "rC c #AEB1ABFF",
  "/} c #AFAFAEFF",
  "(= c #AFB0AFFF",
  ")G c #AFB1ACFF",
  "5i c #AFB1ADFF",
  ")q c #AFB1AEFF",
  "rB c #AFB2ACFF",
  "_8 c #B0AD98FF",
  ")b c #B0B2AFFF",
  "_k c #B19E59FF",
  ")7 c #B1B1ABFF",
  "yA c #B1B1B0FF",
  "rV c #B1B3AEFF",
  "(& c #B1B4ADFF",
  "q& c #B2B4B0FF",
  ")U c #B3B6B0FF",
  "(v c #B5B3A9F7",
  "_Y c #B6AC86FF",
  "_, c #B6B3A0FF",
  ")z c #B7B8B2FF",
  "q* c #B7B8B7FF",
  "_V c #B8AB7CFF",
  "qB c #B8BBB6FF",
  ")S c #BBBEB7FF",
  "_t c #BCA348FF",
  "_y c #BCA349FF",
  "/{ c #BCBFB7FF",
  "_3 c #BDA64FFF",
  "_4 c #BDA74FFF",
  "(S c #BDBBB2FB",
  "Jy c #BDBFB9FF",
  "_p c #BEC0BBFF",
  "rK c #BFC0BDFF",
  "hx c #BFC1BCFF",
  ")l c #C1C5BFFF",
  "0M c #C2C3C2FF",
  ")Y c #C3C4BFFF",
  "(^ c #C5C3BBFF",
  "_j c #C6AF5BFF",
  "_I c #C6C8C4FF",
  "_h c #C7B05EFF",
  ".3 c #C7C9C2FF",
  ")! c #C9CAC6FF",
  "rL c #C9CBC8FF",
  ")6 c #C9CDC5FF",
  "_e c #CBCABCFF",
  ")# c #CBCBC3FF",
  "e[ c #CBCFC8FF",
  "_T c #CCC09AFF",
  "_9 c #CCD0CAFF",
  "_m c #CDBB7CFF",
  "QS c #CDD1CAFF",
  "eY c #CDD1CBFF",
  "yD c #CECFCAFF",
  "rP c #CED0CDFF",
  "_n c #CFB96BFF",
  "}G c #CFD1CDFF",
  "XJ c #CFD2CCFF",
  "q) c #D0D4CDFF",
  "eq c #D1D5CFFF",
  ")0 c #D2D0CAFF",
  "yF c #D2D4CFFF",
  "qp c #D2D5CEFF",
  "_b c #D3BE77FF",
  "_w c #D3D5CEFF",
  "}$ c #D3D6CFFF",
  "eo c #D4D6D0FF",
  "X) c #D4D6D1FF",
  "09 c #D4D7D0FF",
  "XK c #D4D7D1FF",
  "}J c #D5D7D2FF",
  "_> c #D5D8D2FF",
  "w! c #D5D9D3FF",
  "X_ c #D6D8D4FF",
  "_: c #D6D9D3FF",
  "xT c #D6DAD3FF",
  "|! c #D7D7D1FF",
  "eW c #D7DAD2FF",
  "_; c #D7DAD4FF",
  "_- c #D7DBD4FF",
  "wA c #D8DBD5FF",
  "_= c #D8DBD6FF",
  "eV c #D9DCD5FF",
  "yC c #DADCD8FF",
  "XL c #DBDDD8FF",
  "et c #DBDED6FF",
  ".% c #DCDCD7FF",
  "r9 c #DCDEDAFF",
  "e# c #DCE0D9FF",
  "|1 c #DDDFDBFF",
  "_K c #DED2A9FF",
  ":f c #DEE0DCFF",
  "4M c #DEE1DCFF",
  "5_ c #DFE1DCFF",
  "r8 c #DFE2DDFF",
  "|A c #E0E0DBFF",
  "6O c #E0E2DDFF",
  "_A c #E1D2A0FF",
  "wG c #E1E4DEFF",
  "_+ c #E2D29AFF",
  "_# c #E3D49DFF",
  ">[ c #E3E4E0FF",
  "wl c #E3E6E0FF",
  "3} c #E4E6E2FF",
  "w3 c #E5E7E2FF",
  ">{ c #E5E7E3FF",
  ",% c #E6E7E3FF",
  "r6 c #E6E8E4FF",
  ":T c #E6E8E5FF",
  ")) c #E7E5DFFF",
  "q[ c #E7E9E4FF",
  ";Z c #E7E9E5FF",
  "_@ c #E8DAA5FF",
  ")( c #E8E1C7FF",
  "qD c #E8EAE5FF",
  "}I c #E8EAE6FF",
  "_J c #E9DBAAFF",
  "_Z c #E9DEB6FF",
  "|y c #E9EAE7FF",
  ":U c #E9EBE7FF",
  ",. c #EAEBE8FF",
  "qg c #EAECE7FF",
  ":Q c #EAECE8FF",
  "|r c #EBECE9FF",
  ")[ c #ECE5C7FF",
  ")} c #ECE5C8FF",
  "q> c #ECEDE9FF",
  "}l c #ECEDEAFF",
  "_H c #EEE4C1FF",
  "0) c #EEEFEBFF",
  ";p c #EEF0EDFF",
  "}# c #EFF0EDFF",
  "o$ c #F0F1EEFF",
  "0r c #F0F2EEFF",
  "){ c #F1F0EDFF",
  "0@ c #F2F3F0FF",
  "}8 c #F2F3F1FF",
  ";k c #F2F4F1FF",
  "Xg c #F3F4F1FF",
  "}, c #F3F4F2FF",
  "_C c #F4EFDCFF",
  "$< c #F4F4F2FF",
  "0o c #F4F5F2FF",
  ";~ c #F4F5F3FF",
  "0X c #F5F6F3FF",
  "   c none",
  
  // Image data
  "                                                                ",
  "                                                                ",
  "      /V/C/Z/Z/Z/Z/Z/Z/Z/Z/Z/Z/Z/Z/Z/Z/Z/Z/Z/Z/Z/A/S/D/F/G      ",
  "    /H/Jo$0X0X0X0X0X0X;~;~;~;~0o0o$<$<},},},XgXgXg;k}8}l/K/L    ",
  "    /P/I0@.3gZ/U/U/Y/T/R/E/W/Q/!/~/!/!/^///(/)/_gvgQ09;p/`/'    ",
  "    /]/[0r/{<SyA/}/|(./|(X(X(X(X(X(X(X(X(X(o(O(+Bj5D0m0M(@(#    ",
  "    ($(%}#(&(*(=(-(;(:(>(,(,(,(,(,(,(,(,(,(,(<(1Bj(2}$:Q(3(4    ",
  "    (5(60)(7(8hi(9(0(q(w(e(r(r(r(r(r(r(r(r(r(r(tB0:,q&q*(y(u    ",
  "    (i(pq>f5lR(a(s(dE)(f(g(h858585858585858585(j(k(lqp>{(z(x    ",
  "    (c(vqgWZ(a(9(b(nE)(m(M(N858585858585858585(Bci(VqBqV(C(Z    ",
  "    (A(SqD(D(F(G]i(HE)(Jx:(K(L(P(I(U(Y(T(R(E(R(WhH(Vq)6O(Q(!    ",
  "    (~(^q[f7hi(/]i((/z()(_zd(`('(]([({(}(|).)X)ox.(Vhx<:)O)+    ",
  "    )@)#w33V(F(/)$)%)&)*)=)-);):)>)>),)<)1)2)3)4)5t%)6XL)7)8    ",
  "    )9)0wlfO)q)w(G)e)r)t)ylK)u)i)p)a)s)d)f)g)g)h)j)k)lwA)z)x    ",
  "    )c|!wG)v)b5i0m)n)m)M)N)N)B)V)C/D/D/D/D/D/D/D)Z)A)Sw!Jy)D    ",
  "    )F.%5_(Dq&)G3A)HfK)JfKfKKt)K)L)P)P)P)P)P)P)P)IKe)Ueo)Y)T    ",
  "    )R|Ae#v+(7)E)E)E)E)E)E)E)W)Q)Q)Q)Q)Q)Q)Q)Q)Q)Q)WWveq)!)~    ",
  "    )^>[etg,)/)/)/)/)/)/)/)/)W)()))))))))))))))))()W)_XJyD)`    ",
  "    )',%eVg,)])])])])])])])])W)[){){){){){){){){)})W)|eYyF_.    ",
  "    _X|yeW_of7f7f7f7f7f7f7f7_O_+_@_@_@_@_@_@_@_@_#_$_%e[X__&    ",
  "    _*:Q_=_-_;xT_:_:_>}JXKX)_,_<_1_2_2_3_4_5_2_6_7_8_9QSyC_0    ",
  "    _q_w|r|r:Q,.:U}I}I;Z:Tr6>{w33}_e_r_t_y_u_ir84M:f|1r9_p_a    ",
  "    _s_d/Z/Z/Z/Z/Z/Z/Z/Z/Z/Z/Z/Z/Z_f_g_h_j_k_l/Z/A/S/D/D_z_x    ",
  "            *!+r@=rarsrdrflWlWlWlW_c_v_b_n_m_M_N*.=N@2@.        ",
  "          @.@2@n+/rlrzrxrcl~l~l~l~_B_V_C_Z_A_S_Drn@6*'@B        ",
  "          @N@:+|rmrMrNrBrVrBrCrcrc_F_G_H_J_K_L_PrF*.Bi:k        ",
  "          @M@b=N*.rGrHrJhXrKrLrP}G_I_U_Y_T_R_E&WrE&V@o&^        ",
  "            &^@:@5+/rWrQr!r~r^r/r/_W_Q_!_~_^*z9crF@6:l          ",
  "              @.@2+k9b*~9)r]r[_/_(_)__*W*D*D*_*/*^@=:l@C        ",
  "                  @.+>@m=N*Q@6*.+N9)T2&W*l:srn@6Bi@2&^          ",
  "                        +j@.@N&^@C&^@N@X@.@M@M+j                ",
  "                                                                "
};
