/* XPM */
const char *xpm_tango_apps_preferences_system_session[] = {
  // Header (width height colors chars-per-pixel)
  "32 32 279 2",
  
  // Colors (code mode value)
  "+j c #00000001",
  "@. c #00000003",
  "@N c #00000005",
  "&^ c #00000006",
  "@C c #00000007",
  "*7 c #00000009",
  "@B c #0000000A",
  "+> c #0000000B",
  "@2 c #0000000E",
  "@: c #00000010",
  "@o c #00000014",
  "+k c #00000016",
  "[~ c #00000017",
  "@5 c #0000001A",
  "9b c #0000001E",
  "&V c #0000001F",
  "+/ c #00000023",
  "*~ c #00000025",
  "er c #00000028",
  "rE c #00000029",
  "9) c #0000002C",
  ":s c #00000031",
  "[U c #08182C40",
  "1[ c #0F0F0F11",
  "]d c #1339681B",
  "{X c #14141427",
  "]h c #173764FF",
  "]g c #173865FC",
  "[T c #173865FD",
  "[m c #173965FC",
  "]j c #193B69BF",
  "]f c #1A3A68C7",
  "[R c #1B3963FF",
  "[Y c #1C3A65D4",
  "[D c #1D3B66CA",
  "(E c #204A86FF",
  "p- c #204A87FF",
  "]~ c #214A88FF",
  "]C c #214C88FF",
  "s' c #224B87FF",
  "]J c #224B88FF",
  "]I c #224D88FF",
  "]b c #234570FF",
  "]v c #244571FF",
  "]S c #254E8AFF",
  "]{ c #30435EFF",
  "]N c #345F9AFF",
  "g9 c #3768A7FF",
  "]K c #39649EFF",
  "]M c #3A6BA9FF",
  "]V c #3D6DABFF",
  "]) c #3E68A0FF",
  "]A c #4070ADFF",
  "{@ c #42423F69",
  "[0 c #42556DFF",
  "]F c #4373AFFF",
  "[9 c #456EA5FF",
  "]H c #4675B1FF",
  "]P c #4978B3FF",
  "cH c #4A4A475A",
  "]c c #4A6B97FF",
  "]Y c #4C7BB5FF",
  "{o c #4E4F4CA4",
  "]R c #4E7EB7FF",
  "]W c #5180B9FF",
  "[` c #5355536C",
  "[_ c #54575452",
  "]! c #5483BBFF",
  "<$ c #555753FF",
  "[n c #565854FB",
  "B7 c #565854FF",
  "[L c #565855FF",
  "[% c #575854F3",
  "[: c #57595461",
  "<8 c #575955FF",
  "[j c #575A56F2",
  "[r c #575B57FF",
  "]( c #5786BDFF",
  "[@ c #58585560",
  "{O c #585956F1",
  "<f c #585A56FF",
  "[W c #585B59FF",
  "[F c #587BA5FD",
  "<n c #595B57FF",
  "[{ c #595B58CC",
  "[+ c #595C5BFF",
  "[P c #595D5AFF",
  "[S c #5A5B57EF",
  "[y c #5A5B58E0",
  "[6 c #5A5C58B9",
  "<J c #5A5C58FF",
  "[E c #5A5E5BFF",
  "][ c #5A5F60FF",
  "]| c #5A89BFFF",
  "{+ c #5B5D59E0",
  "y! c #5B5D59FF",
  "]' c #5B5D5AFF",
  "[h c #5B6262FF",
  "[x c #5B6266FF",
  "[I c #5C5E5ADC",
  "]n c #5C84B7FF",
  "[! c #5D5E5BAD",
  "^; c #5D8BC1FF",
  "[^ c #5E605BE5",
  "Bu c #5E605CFF",
  "[A c #5E6366FF",
  "[b c #5E686CFF",
  "]m c #5E86B9FF",
  "[[ c #5F605DE7",
  "[Q c #5F6363FF",
  "[$ c #60615EFF",
  "Bi c #60625EFF",
  "[e c #606768FF",
  "[* c #608EC3FF",
  "[f c #617C98FF",
  "]B c #6188BAFF",
  "DS c #6262620D",
  "]] c #626460FF",
  "[/ c #636561FA",
  "[c c #637B91FF",
  "[p c #6382A3FF",
  "]Z c #638ABCFF",
  "[, c #6391C5FF",
  "[a c #646866FF",
  "<, c #66666605",
  "]D c #668DBEFF",
  "[8 c #6694C7FF",
  "t% c #686A67FF",
  "[d c #686C6CFF",
  "]G c #688EBFFF",
  "[z c #6890BAFF",
  "[g c #6895C7FF",
  "[3 c #696A67FF",
  "[i c #6996C9FF",
  "[C c #6A8EB5FF",
  "{. c #6B6C69F5",
  "[Z c #6B90B9FF",
  "]L c #6B91C1FF",
  "[v c #6B96C5FF",
  "[l c #6C99CBFF",
  "[; c #6D6E6CF3",
  "]U c #6D93C3FF",
  "t- c #6E706DFF",
  "[V c #6E99C9FF",
  "]T c #6F96C4FF",
  "[B c #6F9CCDFF",
  "4| c #70716EFF",
  "[X c #70716FFF",
  "]E c #7197C6FF",
  "[N c #719DCEFF",
  "t= c #747673FF",
  "]Q c #749AC8FF",
  "[} c #767875F7",
  "]/ c #769CC9FF",
  "[1 c #777875FF",
  "BK c #777975FF",
  "]} c #789FCBFF",
  "]_ c #7991B4FF",
  "[O c #7A7A79FF",
  "[q c #7B7D7CFF",
  "[# c #7BA0CCFF",
  "[= c #7C7E7BFF",
  "[o c #7D7E7DFF",
  "[& c #7DA3CEFF",
  "5D c #7F817DFF",
  "B1 c #80817EFF",
  "[> c #80A5D0FF",
  "[- c #828281FF",
  "[4 c #828382FF",
  "[7 c #82A8D1FF",
  "[K c #838584FF",
  "[H c #83A3C3FF",
  "[' c #848683F4",
  "[u c #85A9D3FF",
  "[) c #878885F2",
  "[M c #87ABD4FF",
  "[k c #87ACD5FF",
  "[5 c #888887FF",
  "[G c #8AAED5FF",
  "[J c #8C908EFF",
  "=; c #8CB1D8FF",
  "[( c #919190F9",
  "pb c #919191FF",
  "<' c #959595FF",
  "<d c #999999FF",
  "[] c #9A9B99FF",
  ",D c #9B9B9BFF",
  "[t c #9C9C9BFF",
  "<A c #9D9E9CFF",
  "5, c #A0A0A0FF",
  "6} c #A1A1A1FF",
  "]k c #A1B2CBFE",
  ";I c #A2A2A2FF",
  "6| c #A3A3A3FF",
  "<: c #A4A4A3FF",
  "=C c #A4A4A4FF",
  "]z c #A4B1C2FF",
  "[| c #A5A6A5FF",
  "E) c #A7A8A6FF",
  "/z c #A7A9A6FF",
  "<Q c #A8A8A8FF",
  "-` c #A9A9A9FF",
  "[2 c #ABABAAFF",
  "6' c #ABABABFF",
  "(9 c #ACADACFF",
  "<v c #ADADADFF",
  "(- c #ADAEACFF",
  "tz c #AFAFAFFF",
  ">F c #B0B0B0FF",
  ":& c #B1B1B1FF",
  "<# c #B2B2B2FF",
  "[w c #B2B4B3FF",
  "4U c #B3B3B2FF",
  ";8 c #B4B4B4FF",
  "<k c #B5B5B4FF",
  "[. c #B5B6B4FF",
  "9m c #B8B8B8FF",
  "5X c #B9B9B9FF",
  ",G c #BABABAFF",
  "5> c #BBBBBBFF",
  ";g c #C0C0C0FF",
  "]` c #C1C2C1FF",
  "lI c #C4C5C4FF",
  ";Y c #C5C5C5FF",
  "[s c #C5C7C6FF",
  ":= c #C6C6C6FF",
  ":7 c #C8C8C8FF",
  ",< c #CACACAFF",
  "B< c #CCCDCCFF",
  "B: c #CDCECDFF",
  "+c c #CFCFCFFF",
  "+v c #D0D0D0FF",
  "y5 c #D1D1D0FF",
  "+b c #D1D1D1FF",
  ",V c #D2D2D2FF",
  "k@ c #D2D3D2FF",
  ",, c #D3D3D3FF",
  ",n c #D4D4D4FF",
  ",M c #D7D7D7FF",
  "[< c #D8DADCFF",
  ",^ c #DCDCDCFF",
  "]^ c #DCDCDEFF",
  "={ c #DFDFDFFF",
  "+Z c #E1E1E1FF",
  "eU c #E1E2E1FF",
  "+S c #E3E3E3FF",
  "&I c #E4E4E4FF",
  ";b c #E6E6E6FF",
  ";G c #E7E7E7FF",
  "]l c #E7E7E8FF",
  ":# c #E8E8E8FF",
  ":2 c #E9E9E9FF",
  ":, c #EBEBEBFF",
  ":> c #ECECECFF",
  ";9 c #EDEDEDFF",
  ":< c #EEEEEEFF",
  ";A c #EFEFEFFF",
  ";T c #F0F0F0FF",
  ";` c #F1F1F1FF",
  ";' c #F2F2F2FF",
  ":O c #F3F3F3FF",
  ":3 c #F4F4F4FF",
  "=a c #F5F5F5FF",
  "+W c #F6F6F6FF",
  "]x c #F6F6F7FF",
  "nL c #F6F8FAFF",
  ":9 c #F7F7F7FF",
  "ne c #F7F9FBFF",
  ";S c #F9F9F9FF",
  "Nh c #F9FAFCFF",
  ":5 c #FAFAFAFF",
  ";Q c #FBFBFBFF",
  "Cy c #FBFBFCFF",
  ";7 c #FCFCFCFF",
  "E_ c #FCFCFDFF",
  "=q c #FDFDFDFF",
  "=w c #FEFEFEFF",
  ">X c #FFFFFFFF",
  "   c none",
  
  // Image data
  "  ]d]f]g]h]h]h]h]h]h]h]h]h]h]h]h]h]h]h]h]h]h]h]h]h]h]g]f]d      ",
  "  ]j]k]l;b;b;b+W:>;b;b;A>X>X>X>X>X>X>X>X>X>X>X>X>X>XE_]k]j      ",
  "  ]gnL-`6|6|6|,ntz6|6|5X>X>X>X>X>X>X>X>X>X>X>X>X>X>X>XnL]g      ",
  "  ]h]z]x;S;S;S=q;Q;S;S;Q>X>X>X>X>X>X>X>X>X>X>X>X>X>XCy]z]h      ",
  "  ]h]c]v]b]b]b]b]b]b]b]b]b]b]b]b]b]b]b]b]b]b]b]b]b]b]v]c]h      ",
  "  ]h]ng9g9g9g9g9g9g9g9g9g9g9g9g9g9g9g9g9g9g9g9g9g9g9g9]n]h      ",
  "  ]h]m]M]Ns'p-p-p-p-p-p-p-p-s']N]M]M]M]M]M]M]M]M]M]M]M]m]h      ",
  "  ]h]B]V]CNh>X>X>X>X>X>X>X>XNh]C]V]V]V]V]V]V]V]V]V]V]V]B]h      ",
  "  ]h]Z]Ap->X]Sp-p-p-p-p-p-]S>Xp-]A]A]A]A]A]A]A]A]A]A]A]Z]h      ",
  "  ]h]D]Fp-;7;7;7;7;7;7;7;7;7;7p-]F]F]F]F]F]F]F]F]F]F]F]D]h      ",
  "  ]h]G]Hp-:9:9:9:9:9:9:9:9:9:9p-p-p-p-p-]J]K]H]H]H]H]H]G]h      ",
  "  ]h]L]Pp-;';';';';';';';';';'p->X>X>X>Xne]I]P]P]P]P]P]L]h      ",
  "  ]h]U]Yp-:<:<:<:<:<:<:<:<:<:<p-p-p-p-]S>Xp-]Y]Y]Y]Y]Y]U]h      ",
  "  ]h]T]Rp-:2:2:2:2:2:2:2:2:2:2p-=q=q=q=q=qp-]R]R]R]R]R]T]h      ",
  "  ]h]E]Wp-&I&I&I&I&I&I&I&I&I&Ip-;S;S;S;S;Sp-]W]W]W]W]W]E]h      ",
  "  ]h]Q]!]~]^={={={={={={={={]^]J:3:3:3:3:3p-]!]!]!]!]!]Q]h      ",
  "  ]h]/](])]~p-p-p-p-p-p-p-p-]J]_;T;T]`t=]'<n<ny!]]Bu<$][]{      ",
  "  ]h]}]|]|]|]|]|]|]|p-:>:>:>:>:>:>,<t-:,;Q;7>X>X[.[X[o[O[+[@    ",
  "  ]h[#^;^;^;^;^;^;^;p-;G(-<$Bi5DB1BK;`;7;S;S=w/z<$t%4|<$[$[%DS  ",
  "  ]h[&[*[*[*[*[*[*[*p-+S+S<k<fk@>X>X=q;A;A+W>X>X>X;b[=B7[-[;[:  ",
  "  ]h[>[,[,[,[,[,[,[,]I[<={={y5[1[2;7;T:#:#;9:5;QE)[3[4pb<'[5[6  ",
  "  ]h[7[8[8[8[8[8[8[8[9s'p-p-p-(E[0[q+W=a:O:5[w[e[r6},D<d,D[t[y  ",
  "  ]h[u[i[i[i[i[i[i[i[i[i[i[i[i[i[i[p[aeU[s[d[f[g[h<:6|5,;I6'[j  ",
  "  ]h[k[l[l[l[l[l[l[l[l[l[l[l[l[l[l[l[z[x[c[v[l[l[b=C<v<Q<Q5X[n  ",
  "@:[m[M[N[B[B[B[B[B[B[B[B[B[B[B[V[C[C[C[C[C[C[C[Z[A4U;8>F:&5>[S  ",
  "@5[D[F[G=;=;=;=;=;=;=;=;=;=;=;[H<$[J[J[J[J[J[K[L[P;Y5>9m5>,G[I  ",
  "+k[U[Y[T]h]h]h]h]h]h]h]h]h]h]h[R[E;Q:9=a=a=a;S[W[Q+v;g;g:=(9[!  ",
  "@N[~+/9):s:s:s:s:s:s:s:s:s:s:s:s[^;G;9;G;G;G+W[/[(+b:7:7,V[)[_  ",
  "    @.&^+>+>+>+>+>+>+>+>+>+>+>+>[`['+Z,M,V,V,^[]<A+b+c,,B<[[<,  ",
  "                              @N1[[{[}[2<#<#:&=C<J[|B:lI{.cH@B  ",
  "                              *7@o{X{o{O<8<8<8<8<$<$<${+{@@5+>  ",
  "                                +j@C@2[~9b+/rEer*~&V[~@2@C+j    "
};
