/* XPM */
const char *xpm_tango_apps_preferences_system_network_proxy[] = {
  // Header (width height colors chars-per-pixel)
  "32 32 562 2",
  
  // Colors (code mode value)
  "+j c #00000001",
  "@M c #00000002",
  "@. c #00000003",
  "@X c #00000004",
  "&^ c #00000006",
  "@C c #00000007",
  "*! c #00000008",
  "@B c #0000000A",
  "+> c #0000000B",
  ":k c #0000000C",
  "@b c #0000000D",
  "@2 c #0000000E",
  "@: c #00000010",
  "@V c #00000011",
  "@o c #00000014",
  "@n c #00000019",
  "@5 c #0000001A",
  "+| c #0000001B",
  "@= c #0000001C",
  "*Q c #0000001D",
  "9b c #0000001E",
  "*. c #00000022",
  "+/ c #00000023",
  "*` c #00000024",
  "*~ c #00000025",
  "+N c #00000026",
  "9) c #0000002C",
  "rF c #0000002D",
  "*^ c #0000002E",
  "&R c #0000002F",
  ":d c #00000030",
  ":s c #00000031",
  "T2 c #00000032",
  "*8 c #00000036",
  "*G c #00000037",
  "rD c #00000038",
  ":h c #0000003B",
  "B% c #0000003D",
  "3& c #0000003E",
  "9] c #0000003F",
  "*o c #00000041",
  "*) c #00000048",
  "*_ c #00000049",
  ":g c #0000004A",
  "D3 c #0000004C",
  "*W c #0000004D",
  "*D c #00000050",
  "!O c #00000051",
  "km c #00000053",
  "kD c #00000054",
  "&+ c #0000005B",
  "kB c #0000005C",
  "kA c #00000062",
  "&O c #00000063",
  "Dy c #00000067",
  "Du c #00000068",
  "Dt c #0000006A",
  "]s c #0404087B",
  "]e c #06060C7B",
  "]r c #07070B70",
  "]1 c #0909136D",
  "`y c #1A1A1DFF",
  "]a c #1A1A32A7",
  "`t c #1B1B1EFF",
  "%9 c #1C1C1CFF",
  "]< c #1C1C3599",
  "`r c #1D1D24FF",
  "`p c #1E1E21FF",
  "]t c #1E1E39A2",
  "%d c #1F1F1FFF",
  "`h c #202020FF",
  "`g c #212124FF",
  "]# c #21224194",
  "JY c #232323FF",
  "`c c #242424FF",
  "`x c #252528FF",
  "F3 c #262626FF",
  "`A c #272727FF",
  "'T c #28284D59",
  "]w c #28294AC7",
  "`Z c #29292CFF",
  "]@ c #29294EAA",
  "JE c #2A2A2AFF",
  "ai c #2B2B2BFF",
  "`I c #2B2B2EFF",
  "'' c #2B2B5194",
  "`e c #2B2B8006",
  "]2 c #2B2C52C4",
  "]p c #2C2D54D7",
  "`! c #2D2D2DFF",
  "as c #2E2E2EFF",
  "]y c #2E3059D6",
  "'] c #2E3159AC",
  "`Q c #2F2F32FF",
  "`{ c #313131FF",
  "'R c #31355F9B",
  "ap c #323232FF",
  "`[ c #333336FF",
  "`f c #33336605",
  "E( c #3333660F",
  "Rx c #33336614",
  "]i c #333564EF",
  "k{ c #343434FF",
  "Dq c #343664EF",
  "Q* c #345A87FF",
  "'D c #3535615C",
  "%{ c #363636FF",
  "'o c #363639FF",
  "]u c #363869F8",
  "D8 c #363969F8",
  "'| c #365B86FF",
  "`z c #37376B45",
  "_[ c #37376D0E",
  "`G c #373A6BD7",
  "z1 c #383838FF",
  "W% c #38386B56",
  "`< c #38386C40",
  "Qj c #383B6CE7",
  "`@ c #383B6F7A",
  "aa c #393939FF",
  "D9 c #39396AFE",
  "Cb c #39397109",
  "], c #393A6BF8",
  "]q c #393A6BFB",
  "`^ c #393A6EF6",
  "`= c #393B6D70",
  "`i c #393B6E74",
  "'% c #393B6E9C",
  "`Y c #393B6EE8",
  "`n c #393C6E9D",
  "`. c #393C6F4C",
  "'O c #393C6FD1",
  "'$ c #3A3A3DFF",
  "Rp c #3A3A6B4F",
  "Rw c #3A3A6D54",
  "`T c #3A3A6DFF",
  "Eu c #3A3A6F53",
  "D$ c #3A3B6DFA",
  "Ry c #3A3B6DFC",
  "]3 c #3A3B6EFB",
  "Qt c #3A3C6D73",
  "Q5 c #3A3C6FF0",
  "'q c #3A3E7188",
  "': c #3B3B3BFF",
  "EB c #3B3B760D",
  "`k c #3B3C6CFF",
  "`/ c #3B3C6EF5",
  "_] c #3B3D6F8A",
  "_| c #3B3D71F2",
  "`w c #3B3E70EA",
  "SE c #3B6599FF",
  "'; c #3C3C3FFF",
  "`3 c #3C3C6DFF",
  "RL c #3C3C6F5A",
  "`7 c #3C3D6DFF",
  "`d c #3C3D6FF4",
  "Ru c #3C3E70EF",
  "_' c #3C3E70F5",
  "`| c #3C3E72E2",
  "'j c #3C3F72EB",
  "'+ c #3C3F73B2",
  "SR c #3C699FFF",
  "JR c #3D3D3DFF",
  "`2 c #3D3D6DFF",
  "`6 c #3D3E6EFF",
  "`5 c #3D3E6FFF",
  "Rt c #3D3E71F0",
  "Ri c #3D4072A8",
  "ST c #3D6CA4FF",
  "'^ c #3D6DA4FF",
  "'0 c #3E3E6BFF",
  "`9 c #3E3E6EFF",
  "`4 c #3E3E6FFF",
  "`H c #3E3F71F7",
  "R[ c #3E40708B",
  "Rc c #3E407294",
  "'> c #3E4073F2",
  "VS c #3E4074DA",
  "]+ c #3E4170F9",
  "'/ c #3E699FFF",
  "S{ c #3E6BA0FF",
  "]. c #3E6FA8FF",
  "SN c #3E71ABFF",
  "SU c #3E72ACFF",
  "`8 c #3F3F6FFF",
  "'7 c #3F4031FF",
  "'h c #3F4068FF",
  "E> c #3F417385",
  "Re c #3F4173AD",
  "'Y c #3F4271F5",
  "W7 c #3F4375B3",
  "Rq c #40406A0C",
  "'2 c #40406FFF",
  "'- c #404070FF",
  "EU c #40427288",
  "Rr c #404273DB",
  "SI c #4074AEFF",
  "'t c #41416DFF",
  "'L c #41425FFF",
  "'A c #414265FF",
  "RP c #414273F3",
  "`m c #414476E6",
  "QX c #415063FF",
  "SM c #4175AFFF",
  "'c c #42426BFF",
  "'6 c #424334FF",
  "'P c #424360FF",
  "SP c #4275AFFF",
  "SL c #4376B0FF",
  "Rv c #444575F8",
  "'5 c #454637FF",
  "'` c #454975F8",
  "W' c #456387FF",
  "]- c #456EA1FF",
  "]= c #4571A6FF",
  "'~ c #4578B1FF",
  "'4 c #464738FF",
  "'3 c #46473BFF",
  "EV c #464778EE",
  "'[ c #464B7BF8",
  "E) c #474878F5",
  "'F c #474C7CF5",
  "`, c #484A78F8",
  "`+ c #494B7BF7",
  "Q3 c #496E9DFF",
  "Sn c #497BB3FF",
  "ry c #4A4A4AFF",
  "'d c #4B5020FF",
  "]0 c #4B517CFA",
  "]X c #4C6F9CFF",
  "]; c #4C71A0FF",
  "Sb c #4C7DB5FF",
  "'s c #4D5222FF",
  "Q- c #4D5380F0",
  "S] c #4E79ACFF",
  "Sv c #4E7FB6FF",
  "Sc c #4F80B7FF",
  "'a c #505525FF",
  "'E c #505988F8",
  "Qr c #505B85F4",
  "Qg c #50637AFF",
  "'p c #525727FF",
  "]4 c #525B86FA",
  "'8 c #535448FF",
  "'i c #545929FF",
  "WV c #54606FFF",
  "]> c #555E85FC",
  "WH c #557295FF",
  "'u c #565B2BFF",
  "'y c #565B2DFF",
  "`* c #595D85FA",
  "'I c #5B5B7AFF",
  "'V c #5B6314FF",
  "`l c #5C5E83FB",
  "5[ c #5D5D5DFF",
  "'B c #5D6516FF",
  ":0 c #5E5E5EFF",
  "'N c #5E6617FF",
  "D. c #5E7EA6FF",
  "Ei c #5F628BF8",
  "'z c #5F87B4FF",
  "R{ c #60628CF9",
  "'M c #606819FF",
  ":8 c #616161FF",
  "'m c #61691AFF",
  "Qo c #6182ABFF",
  "'n c #626A1BFF",
  "'! c #627182FF",
  "rr c #636363FF",
  "'b c #636B1CFF",
  "]* c #638AB7FF",
  "'v c #646C1EFF",
  "]9 c #647398FF",
  "QO c #64749BFE",
  "6( c #656565FF",
  ">L c #666666FF",
  "'f c #676B47FF",
  "'r c #6993C2FF",
  "Nv c #6A6A6AFF",
  "_` c #6A729BF3",
  ":@ c #6B6B6BFF",
  "'K c #6B6B8BFF",
  "'& c #6B759EF4",
  "]O c #6B778DFF",
  "'H c #6B94C3FF",
  "]5 c #6D80A7FF",
  ";[ c #6E6E6EFF",
  "]$ c #6E718DFE",
  "6^ c #707070FF",
  "Qe c #7089AAFF",
  "`1 c #717191FF",
  "Qh c #7183A4FF",
  "'w c #7183ABF8",
  ";W c #727272FF",
  "AM c #749DCBFF",
  ";F c #757575FF",
  "`0 c #757596FF",
  ";% c #758EAFFF",
  "'< c #759DCAFF",
  ",l c #767676FF",
  "`u c #767995FD",
  ",k c #777777FF",
  "]8 c #778AABFF",
  ";v c #787878FF",
  "Qb c #788AA6FF",
  ",j c #797979FF",
  "_} c #7984A9F7",
  "W] c #798CAEFF",
  "Q= c #7993B5FF",
  ",h c #7A7A7AFF",
  "E, c #7A7C9EFB",
  "'_ c #7A8291FF",
  "`N c #7A8692FF",
  "`D c #7A8A9DFF",
  "Q4 c #7A90AFFF",
  "`) c #7A98B8FF",
  "=1 c #7B7B7BFF",
  "'C c #7C814AFF",
  "]: c #7C8FADFF",
  "'l c #7CA2CBFF",
  "]o c #7D8999FF",
  "D* c #7E93B6FF",
  "'# c #7EA5D1FF",
  "=, c #7F7F7FFF",
  "mk c #808080FF",
  "]& c #809FC4FF",
  ";@ c #818181FF",
  ",x c #828282FF",
  "]7 c #8296B5FF",
  "W1 c #829BB9FF",
  "t2 c #838383FF",
  "-^ c #848484FF",
  "`} c #849ABAFF",
  "'U c #85898DFF",
  ",! c #868686FF",
  "D= c #869BBBFF",
  "A2 c #86ABD4FF",
  "-K c #878787FF",
  "]% c #8798B0FF",
  "Rb c #888BAAFA",
  "EO c #888E93FF",
  "-Y c #898989FF",
  "Qw c #898C90FF",
  "Q2 c #898D92FF",
  "`~ c #899DB8FF",
  "-v c #8A8A8AFF",
  "]6 c #8AA0BEFF",
  "`B c #8AA4C1FF",
  "'} c #8B9197FF",
  ";* c #8C8C8CFF",
  "`U c #8C98ABFF",
  "-i c #8D8D8DFF",
  "9M c #8E8E8EFF",
  "W& c #8E91AEFC",
  "-> c #8EB0D6FF",
  "-, c #8F8F8FFF",
  "Wq c #8FA2B7FF",
  ",Q c #909090FF",
  "'X c #90A4B9FF",
  "pb c #919191FF",
  ">G c #929292FF",
  "RR c #9299A0FF",
  "WN c #929CA7FF",
  "`V c #92A6BDFF",
  "`b c #9395A7FF",
  "Wx c #93A1B2FF",
  "=v c #949494FF",
  "<' c #959595FF",
  "'S c #95979AFF",
  "`; c #959DA6FF",
  "'9 c #969692FF",
  "<I c #969696FF",
  "`K c #96ABC4FF",
  ",F c #979797FF",
  ";f c #989898FF",
  "<d c #999999FF",
  "^7 c #99B8D9FF",
  ":^ c #9A9A9AFF",
  "Q& c #9A9DA1FF",
  ",D c #9B9B9BFF",
  "'@ c #9BACCAFF",
  ",J c #9C9C9CFF",
  "`F c #9CA0ADFF",
  "'e c #9CB8D8FF",
  ">K c #9D9D9DFF",
  ">P c #9E9E9EFF",
  "'W c #9EB6D4FF",
  "`W c #9EBEE0FF",
  ",H c #9F9F9FFF",
  "E` c #9FA2A5FF",
  "'k c #9FB5D3FF",
  "6} c #A1A1A1FF",
  "'1 c #A1B0C0FF",
  ";I c #A2A2A2FF",
  "`a c #A2A2A3FF",
  "RB c #A2B0CCFE",
  "=C c #A4A4A4FF",
  "`_ c #A4AEB8FF",
  "'G c #A4BBD7FF",
  "E5 c #A5A8AAFF",
  "RI c #A5ABC3FB",
  "-6 c #A6A6A6FF",
  "W2 c #A7AFB8FF",
  "E3 c #A7B4C1FF",
  "'g c #A8A89EFF",
  "<Q c #A8A8A8FF",
  "'( c #A8A8A9FF",
  "`` c #A8BBCFFF",
  "-` c #A9A9A9FF",
  "'Q c #A9B4BFFF",
  "ZZ c #A9C7E8FF",
  ",C c #AAAAAAFF",
  "El c #AAB7C4FF",
  "ZQ c #AAC8E9FF",
  "`S c #ABB0B7FF",
  "<b c #ACACACFF",
  "`X c #ACC6E2FF",
  "W` c #ADAFB1FF",
  "') c #AEAFAFFF",
  "E6 c #AEBBC9FF",
  "'* c #AEC5E0FF",
  "tz c #AFAFAFFF",
  "`j c #AFAFB0FF",
  "EY c #AFB1C6FE",
  "E+ c #B0BECCFF",
  "`L c #B1C6DEFF",
  "E< c #B2BBC3FF",
  "A% c #B2CEEDFF",
  "W* c #B3B5B8FF",
  "WG c #B3B6BBFF",
  "E7 c #B3BFCBFF",
  "', c #B3C8E0FF",
  "g+ c #B3CBE6FF",
  "`P c #B3CFEEFF",
  "=p c #B6B6B6FF",
  "WB c #B7BABFFF",
  "'Z c #B8BAACFF",
  "W= c #B8CADBFF",
  "Hx c #B8CCE2FF",
  "E8 c #B8CFE8FF",
  "5X c #B9B9B9FF",
  "'J c #B9BEC5FF",
  "'{ c #B9BEC7FF",
  "`C c #B9D4F1FF",
  ",G c #BABABAFF",
  "5> c #BBBBBBFF",
  "ZS c #BBD6F2FF",
  ",A c #BCBCBCFF",
  "E@ c #BCD1EAFF",
  "`$ c #BDC3CBFF",
  "Ep c #BEC9D4FF",
  "'. c #BECDE2FF",
  ";= c #BFBFBFFF",
  "Do c #BFD3EAFF",
  "Rn c #C0C6D8FF",
  "E1 c #C0CBD6FF",
  "*P c #C0D4E9FF",
  ";Z c #C2C2C2FF",
  "`O c #C2C9D5FF",
  "C. c #C2CAD3FF",
  "E2 c #C2CBD5FF",
  "Zv c #C3C7CBFF",
  "_{ c #C3D2E5FF",
  ":6 c #C4C4C4FF",
  "Eo c #C4C6C8FF",
  "ED c #C4CAD0FF",
  "Ek c #C4D0DFFF",
  "oD c #C4D3E4FF",
  "Zg c #C4DDF7FF",
  ";Y c #C5C5C5FF",
  "`- c #C5DAEFFF",
  "Wh c #C6C9CCFF",
  "VU c #C6D2E4FF",
  "Ab c #C6D7EAFF",
  ",1 c #C7C7C7FF",
  "W0 c #C7C9CBFF",
  "W9 c #C9CCCEFF",
  ",< c #CACACAFF",
  "Wj c #CACCCDFF",
  "+a c #CBCBCBFF",
  "E. c #CBCFD4FF",
  "`] c #CBD4DEFF",
  "Ww c #CCE3FBFF",
  ",2 c #CDCDCDFF",
  "Ej c #CDDFF3FF",
  "Ea c #CDE1F6FF",
  ";_ c #CECECEFF",
  "`q c #CECFD5FF",
  "+c c #CFCFCFFF",
  "Zb c #CFD0D0FF",
  "`( c #CFDCECFF",
  "C4 c #D0E1F4FF",
  "Wa c #D1D2D2FF",
  "Ef c #D1DEECFF",
  ",V c #D2D2D2FF",
  "'x c #D2D4D6FF",
  "RY c #D4DCE5FF",
  "Eh c #D4E5F7FF",
  ":o c #D5D5D5FF",
  "W8 c #D5D6E0FF",
  ",N c #D6D6D6FF",
  "`v c #D6D6D7FF",
  ",B c #D8D8D8FF",
  "E4 c #D8E5F2FF",
  "`s c #D9D9DCFF",
  "Wi c #D9DFE5FF",
  ",m c #DADADAFF",
  "RT c #DADDE2FF",
  "'= c #DAE0E6FF",
  "Eg c #DAEAF9FF",
  "Ed c #DBE8F7FF",
  "EX c #DCE9F7FF",
  "=b c #DDDDDDFF",
  "=[ c #DEDEDEFF",
  "Es c #DFE0E2FF",
  "RN c #DFE6EEFF",
  "@G c #E0E7EEFF",
  "Cs c #E0EFFEFF",
  "+Z c #E1E1E1FF",
  "`R c #E2E6EAFF",
  "Rm c #E3E7EFFF",
  "`# c #E3E8EEFF",
  "&I c #E4E4E4FF",
  "`' c #E4EAF1FF",
  ";3 c #E5E5E5FF",
  "Wp c #E5E8EAFF",
  "`> c #E6E6E9FF",
  "WO c #E6E7E8FF",
  "`% c #E6E8E8FF",
  "R| c #E6E9EDFF",
  ";G c #E7E7E7FF",
  "`& c #E7E7EBFF",
  "`: c #E8EBEFFF",
  ":2 c #E9E9E9FF",
  ",$ c #EAEAEAFF",
  "RU c #EBEEF3FF",
  "Cm c #ECECEDFF",
  "R} c #ECEEF1FF",
  "`E c #EDEEF0FF",
  ":< c #EEEEEEFF",
  "`o c #EEEFF1FF",
  ";A c #EFEFEFFF",
  ";T c #F0F0F0FF",
  "+E c #F1F2F3FF",
  "pd c #F1F2F4FF",
  "RM c #F1F3F6FF",
  ";' c #F2F2F2FF",
  "`M c #F2F2F5FF",
  ":3 c #F4F4F4FF",
  "EC c #F4F5F7FF",
  "+W c #F6F6F6FF",
  "ft c #F6F7F9FF",
  "`J c #F9F9FAFF",
  ":5 c #FAFAFAFF",
  ";Q c #FBFBFBFF",
  ";7 c #FCFCFCFF",
  "E_ c #FCFCFDFF",
  "=q c #FDFDFDFF",
  "GP c #FDFDFEFF",
  "=w c #FEFEFEFF",
  ">X c #FFFFFFFF",
  "   c none",
  
  // Image data
  "                                                                ",
  "                                                                ",
  "                      RqRwReRrRtRyRuVSRiRpCb                    ",
  "                  RxRcRvRbRnRmRMftRNVURB_`_'_]_[                ",
  "                RLRPRIRURYRT=w=w=wRRDo*PAb_{_}_|`.              ",
  "            +jR[R{R}R|E.C.EX=qEoEOE+E@g+`X@G`o`O`+`@            ",
  "            E>E,pdE<E1E2E3E4E5E6C4E7HxE8`#Wh`$`%`&`*`=          ",
  "          EuEi;7EpEaGPEsEdCsEfEgEhEj`-EkEl`;`:+W:<`>`,`<        ",
  "        EBEVEC=w=w+E`1`2`3`4`4`4`5`6`7`2`8`9`0;Q;A:2`q`w`e      ",
  "        EUEY>X=w=w=w`2`r`t`y:0:0rr:@;F,x,Q,J`9=w;';3;G`u`i      ",
  "      E(E)E_=w=wE_E``3`p%9%96^5[:8>L;[,kt2`a`2WO:3;G=b`s`d`f    ",
  "      W%W&>X=w=wW*W=`4`g`h%dmk6(Nv6^;v;@9M`j`kW1W2;G,m+Z`l`z    ",
  "      W7W8;7W9W0WqWw`4`x`cJY-,;W;F,ht2-i:^5X`9WiWp;GWa`v`b`n    ",
  "      `m`M`N`B`V`CZg`4`Z`AF3,D;*=1,x-v>G,J,A`8=w`SWhWj`D`F`G    ",
  "      `H`J`K`LZZ`PZS`5`IaiJE>P=,-,-^;*<',H;Z`8;QCmWx:o+a`U`Y    ",
  "    +j`T`R`EED`WZQA%`5`Qas`!,H,l,x-K-,,F,H:6`8+W,$WNWBWV`~`^    ",
  "      `/`(`)`_```'`]`5`[ap`{6},j;@-Ypb<d;I,1`9;T&IZbWGWH`}`Y    ",
  "      `|'.->A2'X=w=w`8'o%{k{;I=1t2;*=v,J=C,1`9:2=[,VW`W'W]'O    ",
  "      '+'@^7'#oD=w=w`8'$aaz1;I,Q-K9M<I>P-6,1`9+Z,N,<QXQoQO'%    ",
  "      W%'&'*AM'==w=w'-';JR':ry,!<Q>K;f6}-`,1`9,B;_Q&Q*Q=Q-`z    ",
  "      E('>','<'1:5=w'2'3'4'5'6'7'8'9=p<b,C,1'0+c;YQ2Q3Q4Q5`f    ",
  "        'q'w'e'rZv;''t'y'u'i'p'a's'd'f'g;=,1'h;Y5>QwQeQrQt      ",
  "        EB'j'k'l'z'x'c'v'b'n'm'M'N'B'V'V'C'Z'A,G'SQgQhQj`e      ",
  "          'D'F'G'H'J'K'L'L'L'L'L'L'L'L'L'L'P'Itz'UQb'Y'T@:      ",
  "        @B*Q'R'E'W'Q,2+c'!ScSvSbSn'~SMSN'^'/'(')'_'`'':d9b@B    ",
  "        @V*`*G']'['{,N'}'|SLSPSISU].STSRSE]X]o]O]+]@:grD*~@V    ",
  "        @:+/*8*)]#D$]$]%]&]*S]]=S{]-];D.;%]:]>],]<kB:g*G*`:k    ",
  "        *!@59)3&*D]1]2]3]4]5D*D=]6]7]8]9]0]q]w]ekA!O9]*^+|@M    ",
  "          @B@=rFB%D3&+]r]t]yDqD8D9]u]i]p]a]sDtkB*W3&*^@5@.      ",
  "            @.@o+/:sB%*_kmkB&ODyDtDtDu&OkBkD:g3&T2*.:k          ",
  "                @M+>@n+N&R*8:h9]*o*o9]:h*8&R*`@o@C              ",
  "                        @M&^@B:k@2@b+>*!@X+j                    "
};
