/* XPM */
const char *xpm_tango_apps_preferences_desktop_remote_desktop[] = {
  // Header (width height colors chars-per-pixel)
  "32 32 581 2",
  
  // Colors (code mode value)
  "+j c #00000001",
  "@M c #00000002",
  "@. c #00000003",
  "*! c #00000008",
  "+> c #0000000B",
  ":k c #0000000C",
  ":l c #0000000F",
  "@o c #00000014",
  "+k c #00000016",
  "@5 c #0000001A",
  "+| c #0000001B",
  "*Q c #0000001D",
  "9b c #0000001E",
  "&V c #0000001F",
  "*^ c #0000002E",
  ":d c #00000030",
  "=( c #00000033",
  "rD c #00000038",
  "9c c #0000003A",
  "3& c #0000003E",
  "9] c #0000003F",
  "*6 c #00000040",
  "*o c #00000041",
  "*z c #00000043",
  "[G c #00000044",
  "*9 c #00000046",
  "!$ c #00000047",
  "*) c #00000048",
  "*_ c #00000049",
  "!O c #00000051",
  "p- c #204A87FF",
  "E( c #3333660F",
  "Rx c #33336614",
  "Q* c #345A87FF",
  "2} c #3465A4FF",
  "Wn c #3667A5FF",
  "<~ c #3767A5FF",
  "W% c #38386B56",
  "Qj c #383B6CE7",
  "Rp c #3A3A6B4F",
  "Rw c #3A3A6D54",
  "Eu c #3A3A6F53",
  "!= c #3A3B3A9B",
  "Ry c #3A3B6DFC",
  "Qt c #3A3C6D73",
  "Q5 c #3A3C6FF0",
  "$Z c #3A69A6FF",
  "W( c #3A6AA6FF",
  "EB c #3B3B760D",
  "Q8 c #3B6AA6FF",
  "jP c #3B6BA6FF",
  "RL c #3C3C6F5A",
  "Ru c #3C3E70EF",
  "Wm c #3C6BA7FF",
  "Rt c #3D3E71F0",
  "Ri c #3D4072A8",
  "R[ c #3E40708B",
  "Rc c #3E407294",
  "VS c #3E4074DA",
  "-6 c #3E6CA8FF",
  "E> c #3F417385",
  "Re c #3F4173AD",
  "W7 c #3F4375B3",
  "Rq c #40406A0C",
  "EU c #40427288",
  "Rr c #404273DB",
  "RP c #414273F3",
  "QX c #415063FF",
  "WU c #4370AAFF",
  "gg c #4371AAFF",
  "EK c #443763EC",
  "Rv c #444575F8",
  "Q! c #45484567",
  "W' c #456387FF",
  "EV c #464778EE",
  "E) c #474878F5",
  "ru c #484848FF",
  "!* c #494949FC",
  "Q3 c #496E9DFF",
  "r4 c #4A4A4AFB",
  "ry c #4A4A4AFF",
  ":- c #4C4C4CFF",
  "kc c #4D4D4DFF",
  "Q- c #4D5380F0",
  ":+ c #4E4E4EFF",
  "Qn c #4E5176F7",
  ";] c #505050FF",
  "Q; c #50507559",
  "Qr c #505B85F4",
  "Qg c #50637AFF",
  "kx c #525252FF",
  "Q+ c #525275B1",
  ";D c #535353FF",
  "QW c #5454514C",
  ":e c #545454FF",
  "WV c #54606FFF",
  "Ra c #552B550C",
  "WH c #557295FF",
  "6] c #565656FF",
  ">' c #595959FF",
  "5| c #5B5B5BFF",
  "5{ c #5C5C5CFF",
  "5[ c #5D5D5DFF",
  "l< c #5F5F5FFF",
  "Ei c #5F628BF8",
  "R{ c #60628CF9",
  ":8 c #616161FF",
  "Qo c #6182ABFF",
  "Q% c #626262FF",
  "rr c #636363FF",
  "QO c #64749BFE",
  "6( c #656565FF",
  "4Y c #676767FF",
  ":; c #686868FF",
  "6/ c #696969FF",
  "W[ c #696A7CEA",
  ":@ c #6B6B6BFF",
  ">( c #6C6C6CFF",
  "RV c #6D6F98F3",
  ";[ c #6E6E6EFF",
  "!% c #6F6F6F7C",
  "E~ c #707386FD",
  "Qe c #7089AAFF",
  "Qh c #7183A4FF",
  "!& c #727271FB",
  "'~ c #729FCFFF",
  ",c c #737373FF",
  "'! c #73A0CFFF",
  "QD c #747680FD",
  "QA c #75A1D1FF",
  "-# c #76A2D0FF",
  "23 c #76A2D1FF",
  "!+ c #777777F8",
  ";v c #787878FF",
  "QE c #787A76B4",
  "Qm c #787A7CC2",
  "Qb c #788AA6FF",
  "2A c #78A3D1FF",
  "W. c #79889AFF",
  "W] c #798CAEFF",
  "Q= c #7993B5FF",
  ",h c #7A7A7AFF",
  "E, c #7A7C9EFB",
  "Q4 c #7A90AFFF",
  "=1 c #7B7B7BFF",
  "QQ c #7B7C78D4",
  ">_ c #7C7C7CFF",
  "Wk c #7D8A98FF",
  "QZ c #7DA6D3FF",
  "=< c #7E7E7EFF",
  "=, c #7F7F7FFF",
  "@> c #80808002",
  "Qa c #80A8D4FF",
  ";@ c #818181FF",
  "No c #81A9D3FF",
  "W1 c #829BB9FF",
  "QC c #82AAD5FF",
  "t2 c #838383FF",
  "WK c #838584FE",
  "Qk c #8386864C",
  "Q6 c #83878048",
  "-^ c #848484FF",
  "QY c #848682B3",
  "QJ c #848E841B",
  "t< c #858585FF",
  "WJ c #8599B6FF",
  "ri c #86868615",
  "E: c #868B8637",
  "W< c #869FB9FF",
  "Qv c #86ACD6FF",
  "-K c #878787FF",
  "En c #878A8564",
  "EL c #878A86CC",
  "R) c #878A8746",
  "Wb c #878B8451",
  "Qi c #878B8693",
  "R] c #878C8733",
  "Wf c #8889868F",
  "W6 c #888A8481",
  "Rz c #888A8485",
  "R0 c #888A856B",
  "R7 c #888A858E",
  "Qy c #888A85A3",
  "E- c #888A85C8",
  "R9 c #888A85CD",
  "R_ c #888A85D6",
  "R8 c #888A85DC",
  "Ql c #888A85FD",
  "eB c #888A85FF",
  "EN c #888B84D0",
  "Er c #888B85F3",
  "Rb c #888BAAFA",
  "EO c #888E93FF",
  "h_ c #88AED7FF",
  "WI c #89898434",
  "y^ c #8989890D",
  "r$ c #8989891A",
  "-Y c #898989FF",
  "W$ c #898A86A8",
  "EI c #898B846E",
  "E/ c #898B86F6",
  "WS c #898C86C9",
  "Wc c #898C89FF",
  "Qw c #898C90FF",
  "Q2 c #898D92FF",
  "Ez c #899199FF",
  "WC c #8995A1FF",
  "Qc c #8A8A8532",
  "-v c #8A8A8AFF",
  "RK c #8A8B86F1",
  "QV c #8A8B87B0",
  "QM c #8A8C86FC",
  "QH c #8A8C89DE",
  "Ey c #8A8D87FE",
  "=: c #8AAFD7FF",
  "mV c #8B8B8BFF",
  "Q@ c #8B8C87CC",
  "Q7 c #8B8D88CA",
  "2a c #8BB0D7FF",
  "Qp c #8CB0D8FF",
  "-i c #8D8D8DFF",
  "QR c #8D8F89FC",
  "r# c #8E8E8E09",
  "fo c #8E8F8BFF",
  "W& c #8E91AEFC",
  "2O c #8EB2D9FF",
  "r/ c #8F8F8010",
  "Wz c #8F8F8FFD",
  "-, c #8F8F8FFF",
  ":m c #8F928DFF",
  "Wq c #8FA2B7FF",
  "=o c #8FB2D9FF",
  "Rh c #907D77E9",
  "Q> c #90928EE8",
  "], c #90B3DAFF",
  "V$ c #919191F7",
  "0j c #919396FF",
  "RH c #91948EFF",
  "R' c #91948FFF",
  "<G c #92929207",
  "WZ c #92958FFF",
  "RR c #9299A0FF",
  "WN c #929CA7FF",
  "*' c #92B4DAFF",
  "E; c #93958FFF",
  "Wx c #93A1B2FF",
  "Rl c #949791FF",
  "1) c #94B6DBFF",
  "Wg c #95959389",
  "RJ c #959892FF",
  "*E c #95B6DBFF",
  "Qu c #969892FF",
  "1( c #96B7DCFF",
  "WP c #979A94FF",
  "1/ c #97B8DCFF",
  "Em c #989A94FF",
  "*L c #98B8DCFF",
  "gy c #98B9DCFF",
  "1C c #99B9DDFF",
  "EP c #9A9C96FF",
  "Q& c #9A9DA1FF",
  "1^ c #9ABADDFF",
  "Qx c #9B9D97FF",
  "Ws c #9B9D98FF",
  "2> c #9BBBDDFF",
  "1L c #9CBBDEFF",
  "S1 c #9DBCDEFF",
  "4* c #9EA09AFF",
  "Fu c #9EBCDDFF",
  "'c c #9EBCDEFF",
  "Rj c #9FA29CFF",
  "E` c #9FA2A5FF",
  "W/ c #9FBDDFFF",
  "W4 c #A0A29CFF",
  "W^ c #A0BEDFFF",
  "W~ c #A1BFDFFF",
  "QF c #A2A59EFF",
  "W5 c #A2A59FFF",
  "RB c #A2B0CCFE",
  "W} c #A2BEDEFF",
  "W! c #A2BFE0FF",
  "RC c #A31423FC",
  "E' c #A3AEBAFF",
  "*g c #A3C0E0FF",
  "Q1 c #A4A5A2FF",
  "QU c #A4A6A0FF",
  "E# c #A4BAD4FF",
  "WQ c #A4C1E0FF",
  "E5 c #A5A8AAFF",
  "RI c #A5ABC3FB",
  "WW c #A5C1E1FF",
  "W# c #A6A9A2FF",
  "WE c #A6C2E1FF",
  "Wd c #A7A9A3FF",
  "QN c #A7AAA3FF",
  "W2 c #A7AFB8FF",
  "E3 c #A7B4C1FF",
  "]o c #A7C3E1FF",
  "QG c #A8ABA5FF",
  "WX c #A8AFB9FF",
  "W, c #A8BCD2FF",
  "WR c #A8C3E2FF",
  "E0 c #A9A3A6FF",
  "QT c #A9ABA4FF",
  "WY c #A9C3E0FF",
  "2X c #A9C4E2FF",
  "Wv c #AAADA7FF",
  "El c #AAB7C4FF",
  "gX c #AAC5E2FF",
  "WL c #ABAEA7FF",
  "WT c #ABC5E3FF",
  "rx c #ACAFA9FF",
  "*v c #ACC6E3FF",
  "RG c #ADA8A2FF",
  "QB c #ADAFA9FF",
  "W` c #ADAFB1FF",
  "Qz c #ADB1A9FF",
  "W@ c #AEAFAEFF",
  "W{ c #AEB0AAFF",
  "ER c #AEB8C3FF",
  "E6 c #AEBBC9FF",
  "EM c #AFB1ABFF",
  "EY c #AFB1C6FE",
  "rB c #AFB2ACFF",
  "WA c #B0B2ACFF",
  "R` c #B0B4ADFF",
  "E+ c #B0BECCFF",
  "QK c #B0C6DDFF",
  "Rk c #B2B5AEFF",
  "E< c #B2BBC3FF",
  "yf c #B3B4B3FF",
  "Q: c #B3B5AEFF",
  "W* c #B3B5B8FF",
  "r* c #B3B6AFFF",
  "WG c #B3B6BBFF",
  "EA c #B3BAC3FF",
  "E7 c #B3BFCBFF",
  "g+ c #B3CBE6FF",
  "Ex c #B4A1A4FF",
  "Q. c #B4B6B2FF",
  "Wl c #B4B7B0FF",
  "QL c #B4C9DFFF",
  "W3 c #B5B6B3FF",
  "WF c #B5B7B3FF",
  "E^ c #B5B8B1FF",
  "QI c #B6B9B2FF",
  "R( c #B7302FF8",
  "Et c #B7BAB3FF",
  "WB c #B7BABFFF",
  "Je c #B8BAB4FF",
  "W= c #B8CADBFF",
  "Hx c #B8CCE2FF",
  "E8 c #B8CFE8FF",
  "E! c #B9A9A9FF",
  "Eb c #BB0A0FB8",
  "ES c #BBCADCFF",
  "!X c #BCC0B8FF",
  "!. c #BCC0B9FF",
  "W: c #BCC6D1FF",
  "E@ c #BCD1EAFF",
  "Q| c #BDC1B9FF",
  "Q} c #BDC1BAFF",
  "Q{ c #BEC1BBFF",
  "!o c #BEC2BCFF",
  "Ep c #BEC9D4FF",
  "EF c #BF9393FF",
  "&H c #BFC1BBFF",
  "Q[ c #BFC2BCFF",
  "Do c #BFD3EAFF",
  ";g c #C0C0C0FF",
  "%k c #C0C2BCFF",
  "Q] c #C0C3BDFF",
  "Rn c #C0C6D8FF",
  "E1 c #C0CBD6FF",
  "*P c #C0D4E9FF",
  "EZ c #C1C3C4FF",
  "Q' c #C1C4BDFF",
  "oM c #C1C4BEFF",
  "Q` c #C1C5BEFF",
  "Q_ c #C2C5BFFF",
  "Q) c #C2C6BFFF",
  "Wo c #C2C6CAFF",
  "C. c #C2CAD3FF",
  "E2 c #C2CBD5FF",
  "Eq c #C31616FF",
  "RE c #C37F8AFF",
  "Q( c #C3C6C0FF",
  "E| c #C3C6C9FF",
  "Q/ c #C3C7C0FF",
  "EW c #C47C7CFF",
  "Eo c #C4C6C8FF",
  "Q^ c #C4C7C1FF",
  "ED c #C4CAD0FF",
  "Ek c #C4D0DFFF",
  "oh c #C5C8C1FF",
  "WD c #C5CBC8FF",
  "Wh c #C6C9CCFF",
  "W> c #C6CCD2FF",
  "VU c #C6D2E4FF",
  "W0 c #C7C9CBFF",
  "Q< c #C7CAC4FF",
  "Q~ c #C7CBC3FF",
  "RF c #C81A19FF",
  "W| c #C8CEC8FF",
  "Rg c #C90C0CC3",
  "EJ c #C91414FF",
  "E$ c #C93637FF",
  "W9 c #C9CCCEFF",
  "Ec c #CA0E0EFF",
  ",< c #CACACAFF",
  "Wj c #CACCCDFF",
  "oi c #CACDC8FF",
  "W) c #CACFCDFF",
  "EQ c #CB0B0BFF",
  "+a c #CBCBCBFF",
  "e[ c #CBCFC8FF",
  "E. c #CBCFD4FF",
  "Cj c #CBDEF1FF",
  "EG c #CC0B0BFF",
  "W+ c #CCCACAFF",
  "r@ c #CCCFC8FF",
  "QP c #CCD0C9FF",
  "Ww c #CCE3FBFF",
  "Rd c #CD0202EB",
  "Ee c #CD0202F0",
  "E= c #CD0202F4",
  "ro c #CDD1C9FF",
  "QS c #CDD1CAFF",
  "CL c #CDDAE6FF",
  "Ej c #CDDFF3FF",
  "Ea c #CDE1F6FF",
  "Rs c #CE020272",
  "Rf c #CE0303F4",
  "RW c #CE0909FF",
  "rX c #CED1CAFF",
  "Qf c #CED2CBFF",
  "EE c #CEE0F3FF",
  "Zb c #CFD0D0FF",
  "Qd c #CFD3CBFF",
  "Qq c #CFD3CCFF",
  "WM c #CFD5CFFF",
  "ET c #D0D1D3FF",
  "Q0 c #D0D3CCFF",
  "C4 c #D0E1F4FF",
  "CZ c #D0E2F5FF",
  "W; c #D0E2F6FF",
  "Wa c #D1D2D2FF",
  "Q$ c #D1D4CDFF",
  "Q# c #D1D5CDFF",
  "Ef c #D1DEECFF",
  "Wt c #D1E2F6FF",
  "E{ c #D1E3F7FF",
  "CU c #D1E4F6FF",
  ",V c #D2D2D2FF",
  "W_ c #D2D6CEFF",
  "RZ c #D42021FA",
  "09 c #D4D7D0FF",
  "RY c #D4DCE5FF",
  "Eh c #D4E5F7FF",
  ":o c #D5D5D5FF",
  "W8 c #D5D6E0FF",
  "Wr c #D5E6FAFF",
  "EH c #D61010FF",
  "Z= c #D6DEE7FF",
  "Ev c #D71314FF",
  "E] c #D7E7F6FF",
  "R/ c #D81313FD",
  "E4 c #D8E5F2FF",
  "CC c #D8E8F9FF",
  "Wi c #D9DFE5FF",
  "W- c #D9E9FBFF",
  ",m c #DADADAFF",
  "RT c #DADDE2FF",
  "Eg c #DAEAF9FF",
  "CI c #DAEAFBFF",
  "E[ c #DAEBFCFF",
  "Ed c #DBE8F7FF",
  "r9 c #DCDEDAFF",
  "!# c #DCDFDAFF",
  "EX c #DCE9F7FF",
  "|1 c #DDDFDBFF",
  "Z7 c #DDEDFEFF",
  "We c #DDEDFFFF",
  "RD c #DE2B2BFE",
  "oq c #DEDFDBFF",
  ":f c #DEE0DCFF",
  "4M c #DEE1DCFF",
  "Z+ c #DEEEFFFF",
  "Es c #DFE0E2FF",
  "r8 c #DFE2DDFF",
  "RN c #DFE6EEFF",
  "CV c #DFEDFCFF",
  "Z@ c #DFEEFFFF",
  "Z# c #DFEFFFFF",
  "E% c #E04343FF",
  ",& c #E0E2DEFF",
  "xx c #E0E3DEFF",
  "E9 c #E0E5EBFF",
  "Cs c #E0EFFEFF",
  "C/ c #E0EFFFFF",
  "+Z c #E1E1E1FF",
  ">} c #E1E3DFFF",
  "CP c #E1F0FFFF",
  "!@ c #E2E4DFFF",
  ":j c #E2E4E0FF",
  "r7 c #E2E5E1FF",
  "CB c #E2F0FFFF",
  ">< c #E3E6E1FF",
  "Rm c #E3E7EFFF",
  "3} c #E4E6E2FF",
  "6P c #E54B4BFF",
  ">{ c #E5E7E3FF",
  ",@ c #E5E7E4FF",
  "Wp c #E5E8EAFF",
  ";b c #E6E6E6FF",
  ":y c #E6E7E4FF",
  "WO c #E6E7E8FF",
  ":T c #E6E8E5FF",
  "R| c #E6E9EDFF",
  "8h c #E73838FF",
  ";G c #E7E7E7FF",
  ";Z c #E7E9E5FF",
  "g! c #E7E9E6FF",
  "Qs c #E7E9EAFF",
  "}I c #E8EAE6FF",
  "Q9 c #E8EAEBFF",
  "DZ c #E9EAEAFF",
  ":U c #E9EBE7FF",
  "Q, c #E9EBEBFF",
  ":Q c #EAECE8FF",
  "<` c #EB2424FF",
  "|r c #EBECE9FF",
  "|- c #EBEDE9FF",
  "E} c #EBEDF1FF",
  "RU c #EBEEF3FF",
  ";r c #ECEEEAFF",
  ";P c #ECEEEBFF",
  "R} c #ECEEF1FF",
  ";9 c #EDEDEDFF",
  "E* c #EE2727FF",
  "R^ c #EE5151FF",
  "#& c #EEEEECFF",
  "3B c #EEEFECFF",
  "Wu c #EEEFF0FF",
  "R# c #EF2929FF",
  "Ew c #EF2E2EFF",
  "R! c #EF2F2FFF",
  "RA c #EF5F5FFF",
  "R~ c #EF7C7BFF",
  "}# c #EFF0EDFF",
  "{T c #EFF0EEFF",
  "RS c #F06A6AFF",
  ";z c #F0F2EFFF",
  "E& c #F14747FF",
  "f8 c #F1F2F0FF",
  "+E c #F1F2F3FF",
  "pd c #F1F2F4FF",
  ";E c #F1F3F0FF",
  "RM c #F1F3F6FF",
  "0@ c #F2F3F0FF",
  "}8 c #F2F3F1FF",
  "Wy c #F2F4F6FF",
  "Xg c #F3F4F1FF",
  "}, c #F3F4F2FF",
  "RQ c #F47D7DFF",
  "$< c #F4F4F2FF",
  "0o c #F4F5F2FF",
  ";~ c #F4F5F3FF",
  "CR c #F4F5F5FF",
  "EC c #F4F5F7FF",
  "0X c #F5F6F3FF",
  "ft c #F6F7F9FF",
  ";R c #F8F8F8FF",
  ";7 c #FCFCFCFF",
  "E_ c #FCFCFDFF",
  "=q c #FDFDFDFF",
  "GP c #FDFDFEFF",
  "=w c #FEFEFEFF",
  "3N c #FFFFFF01",
  ">X c #FFFFFFFF",
  "   c none",
  
  // Image data
  "                                                  riR7R8R9R03N  ",
  "                    RqRwReRrRtRyRuVSRiRpRaRsRdRfRgRhRjRkoqRlRz  ",
  "                RxRcRvRbRnRmRMftRNVURBRVRCRZRARSRDRFRGRHRJr*RK<G",
  "              RLRPRIRURYRT=w=w=wRRDo*PRERWRQR!R~R^R/R(R)R_R`R'R]",
  "          +jR[R{R}R|E.C.EX=qEoEOE+E@g+E#E$E%E&R#R#E*E=  E-rBE;E:",
  "          E>E,pdE<E1E2E3E4E5E6C4E7HxE8E9E0Eq6PEwR#<`Eer#ErEtEyy^",
  "        EuEi;7EpEaGPEsEdCsEfEgEhEjCjEkElEzExEc8hR#EvEbEnEmEMEN  ",
  "      EBEVEC=w=w+EDZEZEACBCBCVCCCZESED=q=w+ZEFEGEHEJEKELrxEPEI  ",
  "      EUEY>X=w=w=wETERCLCPCPCPCICUEEpdCR;R=w;bEWEQE!E~:mE^E/r/  ",
  "    E(E)E_=w=wE_E`E'E]C/C/C/C/E[E{E}E|W.WXWoWO;9W+;gW@4*W#W$    ",
  "    W%W&>X=w=wW*W=Z+Z@Z#Z#Z#Z#W-W;W:W>Z=W,W<W1W2;G,mW3W4W5W6    ",
  "    W7W8;7W9W0WqWwWeZ+Z+Z+Z+Z7WrWtWy=w=wWuECWiWp;GWayfWsWdWf    ",
  "WgV$-,-,-,-,-,-,-,-,-,-imV-Y-Kt<t2;@=,>_,h;v=10jWhWjWkfoWlR8@>  ",
  "Wz|r0X0X0X0X0X0X;~;~;~0o0o$<},},},XgXgXg}8}8;Z,cWx:o+aWcWvEmWb  ",
  "-,0X2}2}2}2}2}2}2}2}2}2}2}WnWmWmWmWmWm2}WM09}8;[WNWBWVWCWZWAWS  ",
  "-,0Xgg#&#&#&#&#&#&#&#&#&#&#&#&#&#&#&#&<~WDWF;E:@ZbWGWHWJWKWLWPWI",
  "-,0XWUWY*vWTgX2XWR]oWEWWWQ*gW!W~W^W/'cW(W)W_f8:;,VW`W'W]W[RlW{Wf",
  "-,0XWUW}WEWWWQ*gW!W~W^W/'cS11L2>1^*E2a<~W|Q.{T6(,<QXQoQOQ+eBJeQ@",
  "-,;~-6FuW^W/'cS11L2>p-p-p-p-p-p-2A'~'~2}Q#Q$3BQ%Q&Q*Q=Q-Q;eBQ:Q>",
  "-,;~jPgy1^1C*L1/1(*EQ,#&#&#&#&#&'~'~'~2}Q<Q1;Pl<Q2Q3Q4Q5Q6eBJeQ7",
  "-i;~Q8*'1)p-p-p-],=oQ9#&#&#&#&#&'~'~'~2}Q0Qq|r5{QwQeQrQtQyQuWAQi",
  "-v0oQ8Qp2O#&#&#&=:QaQs#&#&#&#&#&'~'~'~2}QdQf:U>'QgQhQjQkQlQzQxQc",
  "-K0oQ8Qvh_#&#&#&-#'~Qs#&#&#&#&#&'~'~'~2}QfrXg!6]QbQnQmQMQNQBQV  ",
  "-^},$ZNoQCQZQA'~'~'~Qs#&#&#&#&#&'~'~'~2}rXQS,@;DQDfoQFE^QGQHQJ  ",
  ";@0@2}23'!'~'~'~'~'~QKQLQLQLQLQL'~'~'~2}roQP3};]QFQIQU:mQYr$    ",
  "=<;z2}'~'~'~'~'~'~'~'~'~'~'~'~'~'~'~'~2}QPr@:jkcQTQRQEQW:k      ",
  "=1}#2}2}2}2}2}2}2}2}2}2}2}2}2}2}2}2}2}2}e[e[,&ryQQQ!*^+|@M      ",
  ";v;rQ~ohQ^Q/Q(Q)Q_Q`oMQ'Q]%kQ[&HQ{Q}Q|!.!X!o|1ru!O=(@5@.        ",
  "!+r9|-|r:Q:U:U}I;Z:T:y>{3}><r7!@>}xxr84M:f!#oir4!$&V            ",
  "!%!&;[>(6/4Y6(rr:8l<5[5|>'6]:ekx;]:+:-ryruru!*!=*^@o            ",
  "*!*Q*^rD3&3&3&3&3&3&3&*6*z*9!$*_*)*9[G*o9]rD9c:d9b@.            ",
  "  @.:l@5&V&V&V&V&V&V&V&V&V&V&V&V&V&V&V&V&V@5+k+>+j              "
};
