/* XPM */
const char *xpm_tango_apps_preferences_desktop_assistive_technology[] = {
  // Header (width height colors chars-per-pixel)
  "32 32 355 2",
  
  // Colors (code mode value)
  "@M c #00000002",
  "@. c #00000003",
  "@X c #00000004",
  "@N c #00000005",
  "@C c #00000007",
  "*! c #00000008",
  "*7 c #00000009",
  "@V c #00000011",
  "+r c #00000012",
  "Bi c #00000017",
  "=N c #00000018",
  "&V c #0000001F",
  "*. c #00000022",
  "*` c #00000024",
  "+J c #00000027",
  "er c #00000028",
  "rn c #0000002A",
  ":d c #00000030",
  "J; c #14314E1A",
  "J4 c #1729462C",
  "JX c #1B2F5126",
  "V8 c #2B6AAA0C",
  "J5 c #325E96B3",
  "G$ c #3365A4E4",
  "A( c #3366A21E",
  "gZ c #3366A42D",
  "G# c #3463A3B6",
  "GO c #3463A4A2",
  "G: c #3464A399",
  "G4 c #3464A3C5",
  "G@ c #3464A3F7",
  "G; c #3465A4F1",
  "2} c #3465A4FF",
  "Jo c #3564A09E",
  "G+ c #3564A3F2",
  "J: c #3565A3E8",
  "fc c #3565A62B",
  "J6 c #3665A3F5",
  "H` c #3666A4F2",
  "'l c #3868A720",
  "F, c #3963AA12",
  "nB c #3C659BFF",
  "Jb c #3D608BFF",
  "Jn c #3E608AFB",
  "Jv c #3E618CFA",
  "G1 c #3E669DFF",
  "m: c #3E679DFF",
  "nC c #40689EFF",
  "n' c #41699FFF",
  "G< c #42699EFF",
  "8^ c #426A9FFF",
  "nA c #436BA0FF",
  "Gq c #446B9FFF",
  "G7 c #446BA0FF",
  "G8 c #446CA0FF",
  "m~ c #446CA1FF",
  "nY c #456CA1FF",
  "n] c #456DA1FF",
  "nQ c #456DA2FF",
  "Gw c #466DA2FF",
  "m@ c #466EA2FF",
  "8| c #476EA2FF",
  "m> c #476EA3FF",
  "nW c #476FA3FF",
  "nT c #486FA3FF",
  "m9 c #4870A4FF",
  "nR c #4970A4FF",
  "nE c #4971A4FF",
  "Gh c #4A71A4FF",
  "m^ c #4A71A5FF",
  "2J c #4A72A5FF",
  "n[ c #4B72A5FF",
  "Gf c #4B73A6FF",
  "m+ c #4C73A6FF",
  "n{ c #4D74A7FF",
  "mO c #4E74A7FF",
  "Ge c #4E75A7FF",
  "n} c #4E75A8FF",
  "MZ c #4F75A8FF",
  "mo c #4F76A8FF",
  "n| c #4F76A9FF",
  "mX c #5076A9FF",
  "m. c #5077A9FF",
  "Ga c #5177A9FF",
  "ma c #5178AAFF",
  "Gr c #517AAFF2",
  "m8 c #5278AAFF",
  "Gp c #5279AAFF",
  "mM c #5379ABFF",
  "Na c #537AABFF",
  "Gn c #547AABFF",
  "Mk c #547AACFF",
  "Gi c #547BABFF",
  "mp c #557BACFF",
  "mx c #557BADFF",
  "G9 c #5679A9FF",
  "mF c #567CADFF",
  "GC c #567DADFF",
  "Gk c #577DADFF",
  "mm c #577DAEFF",
  "Mw c #587EAFFF",
  "Gm c #597EAFFF",
  "Mo c #597FAFFF",
  "G^ c #597FB0FF",
  "Ns c #5A7FB0FF",
  "mn c #5A80B0FF",
  "Ju c #5B7797F6",
  "Gt c #5B7FAEFF",
  "Ml c #5B80B0FF",
  "M: c #5B81B1FF",
  "Gd c #5B82B4F2",
  "G] c #5C81B1FF",
  "mY c #5C82B1FF",
  "GF c #5C82B2FF",
  "Gj c #5C82B4F2",
  "Gz c #5C83B5F2",
  "MW c #5D82B2FF",
  "Mm c #5D83B2FF",
  "Gb c #5D83B5F2",
  "GG c #5D84B5F2",
  "Gc c #5E83B3FF",
  "MO c #5E84B3FF",
  "GU c #5E84B6F2",
  "G' c #5E85B6F2",
  "m/ c #5F84B3FF",
  "M) c #5F85B4FF",
  "mU c #6085B4FF",
  "M; c #6086B4FF",
  "G> c #6184B3F9",
  "m{ c #6186B5FF",
  "M3 c #6287B5FF",
  "N7 c #6287B6FF",
  "MS c #6388B6FF",
  "G` c #6388B7FF",
  "Mq c #6489B7FF",
  "Hl c #658AB7FF",
  "m[ c #658AB8FF",
  "Jq c #66809EFF",
  "Ne c #668AB8FF",
  "M( c #668BB8FF",
  "NX c #668BB9FF",
  "mK c #678CB9FF",
  "m( c #688CB9FF",
  "GS c #688CBAFF",
  "M@ c #688DBAFF",
  "GV c #698CB9FF",
  "N8 c #698DBAFF",
  "G_ c #698EBAFF",
  "MD c #698EBBFF",
  "M0 c #6A8EBBFF",
  "M- c #6A8FBBFF",
  "G2 c #6B89B3FF",
  "G% c #6B8DB9FA",
  "NS c #6B8FBBFF",
  "m) c #6B8FBCFF",
  "NM c #6B90BCFF",
  "f9 c #6C90BCFF",
  "H: c #6C90BDFF",
  "N, c #6C91BDFF",
  "Jg c #6D86A2FF",
  "M# c #6D91BDFF",
  "Js c #6E8090FF",
  "G[ c #6E92BDFF",
  "m_ c #6E92BEFF",
  "G6 c #6F8DB5FF",
  "jB c #6F92BDFF",
  "M9 c #6F93BEFF",
  "m` c #6F93BFFF",
  "Ja c #7088A3FF",
  "Jk c #7089A4FF",
  "GM c #7091BCFF",
  "Mn c #7094BFFF",
  "JO c #7194BEFA",
  "Mi c #7195C0FF",
  "M4 c #7295C0FF",
  "J@ c #7296BFFF",
  "MI c #7296C1FF",
  "Jf c #738CA6FF",
  "GD c #7395BFFF",
  "Mf c #7396C1FF",
  "N> c #7397C1FF",
  "M% c #7497C2FF",
  "Mz c #7498C2FF",
  "G} c #7598C3FF",
  "G) c #7599C2FF",
  "N9 c #7599C3FF",
  "Jp c #768490FF",
  "G, c #7691B8FF",
  "M& c #7699C3FF",
  "Jl c #77838CFF",
  "MF c #779AC4FF",
  "N$ c #779BC4FF",
  "Md c #789BC5FF",
  "jc c #799CC6FF",
  "J> c #7A99C2FB",
  "M5 c #7A9DC6FF",
  "Ma c #7B9EC7FF",
  "N0 c #7C9EC7FF",
  "Mb c #7C9FC8FF",
  "Jx c #7D95AEFF",
  "MG c #7DA0C8FF",
  "G3 c #7E9BC0FE",
  "Nw c #7EA0C9FF",
  "N% c #7EA1C9FF",
  "HX c #7FA0C8FF",
  "H] c #7FA1CAFF",
  "=8 c #7FA2CAFF",
  "GY c #809FC5FF",
  "H% c #80A0C7FF",
  "Hp c #80A1CAFF",
  "*] c #80A2CAFF",
  "G- c #819CC1FC",
  "M^ c #81A3CBFF",
  "J# c #81A4CBFF",
  "H9 c #83A5CCFF",
  "Hq c #84A6CDFF",
  "H4 c #85A6CBFF",
  "ML c #85A7CEFF",
  "Jz c #868A87FF",
  "J0 c #869AAEFF",
  "Hz c #86A6CBFF",
  "Ha c #86A8CFFF",
  "Jc c #878A87FF",
  "Jt c #878B87FF",
  "Ji c #878B88FF",
  "Jd c #878B8BFF",
  "G/ c #87A5C9FF",
  "N; c #87A9CFFF",
  "eB c #888A85FF",
  "H. c #88A7CCFF",
  "M~ c #88AAD0FF",
  "HQ c #89AAD0FF",
  "Hs c #89ABD1FF",
  "Hc c #8AABD1FF",
  "Jj c #8B959AFF",
  "HA c #8BACD1FF",
  "MK c #8BACD2FF",
  "3, c #8C8E89FF",
  "Jh c #8C8F8CFF",
  "=` c #8CADD3FF",
  "H! c #8CAED3FF",
  "M{ c #8DAED3FF",
  "Hv c #8DAFD4FF",
  "H< c #8EACCFFF",
  "M! c #8EAFD4FF",
  "H[ c #8EB0D4FF",
  "H' c #8FAACBFF",
  "7s c #90ABCDFF",
  "HS c #90B1D5FF",
  "H~ c #90B1D6FF",
  "H{ c #92B3D7FF",
  "H0 c #93B1D3FF",
  "H^ c #94B5D8FF",
  "Hd c #95B3D5FF",
  "Jw c #96A7B7FF",
  "g3 c #96B5D8FF",
  "Jr c #979993FF",
  "J+ c #97B1D0FF",
  "F2 c #98B8DBFF",
  "Ho c #9AB4D3FF",
  "H& c #9CB6D5FF",
  "H$ c #A0B8D5FF",
  "31 c #A2A3A0FF",
  "H3 c #A2BBD9FF",
  "=U c #A2BFDFFF",
  "Gu c #A3B8D2FF",
  "G! c #AABFD8FF",
  "G| c #ADC2DCFF",
  "Gx c #AFC2D9FF",
  "Hu c #B1C5DDFF",
  "H@ c #B3C6DDFF",
  "Gy c #B4C4DAFF",
  "HO c #B6C9DFFF",
  "GQ c #B7C9DFFF",
  "HC c #B7CAE1FF",
  "Je c #B8BAB4FF",
  "Hx c #B8CCE2FF",
  "GA c #B9CADFFF",
  "HZ c #B9CDE3FF",
  "HP c #BACDE3FF",
  "Jy c #BDBFB9FF",
  "H, c #BECFE3FF",
  "H2 c #BED0E4FF",
  "G( c #BFCFE3FF",
  "H5 c #BFD0E4FF",
  "6> c #C0C0BEFF",
  "HE c #C1D3E7FF",
  "Gg c #C5D2E3FF",
  "GW c #C5D3E5FF",
  "r; c #C7CAC3FF",
  "H8 c #C7D5E6FF",
  "B` c #C7D8ECFF",
  "HD c #CBDBECFF",
  "BH c #CCCCCBFF",
  "G5 c #CED8E6FF",
  "Gl c #D0DBE8FF",
  "Hb c #D0DEEDFF",
  "G& c #D1DBE7FF",
  "G{ c #D1DDEBFF",
  "GN c #D2DDEAFF",
  "xz c #D3D7CFFF",
  "No c #D3DDEAFF",
  "GT c #D3DEEBFF",
  "H+ c #D3DEECFF",
  "GK c #D4DFECFF",
  "GB c #D7E1ECFF",
  "jA c #D7E3F0FF",
  "jm c #D8E4F1FF",
  "H1 c #D9E3EFFF",
  "BR c #D9E4F1FF",
  "G= c #DAE1ECFF",
  "J, c #DCE4EFFF",
  "Ni c #DDE4EEFF",
  "3( c #DDE6F0FF",
  "Gs c #DEE5EEFF",
  "=* c #DFE6EFFF",
  "4o c #DFE9F4FF",
  "Gv c #E0E7F0FF",
  "A+ c #E1E8F0FF",
  "GE c #E1E8F1FF",
  "GI c #E2E8F1FF",
  "G~ c #E2E9F1FF",
  "H; c #E2EAF3FF",
  "H# c #E3E9F2FF",
  "H> c #E3EAF2FF",
  "H7 c #E4EAF2FF",
  "3/ c #E4EBF3FF",
  "M1 c #E6EBF2FF",
  "N@ c #E7ECF3FF",
  "GH c #E7EDF4FF",
  "H* c #E9EFF6FF",
  "B< c #ECF1F6FF",
  "G0 c #EDF1F6FF",
  "#& c #EEEEECFF",
  "GJ c #EEF2F7FF",
  "NK c #F1F4F8FF",
  "GL c #F1F4F9FF",
  "HI c #F1F5FAFF",
  "Hi c #F4F7FAFF",
  "HU c #F6F9FCFF",
  "mq c #F8F9FBFF",
  "Mr c #F8FAFCFF",
  "Nh c #F9FAFCFF",
  "GZ c #FAFBFDFF",
  "HY c #FAFCFDFF",
  "G* c #FBFCFDFF",
  "GR c #FCFCFEFF",
  "HN c #FCFDFEFF",
  "GP c #FDFDFEFF",
  "Dx c #FDFEFEFF",
  "=w c #FEFEFEFF",
  "H= c #FEFEFFFF",
  "H- c #FEFFFFFF",
  ">X c #FFFFFFFF",
  "   c none",
  
  // Image data
  "                                                                ",
  "                                                                ",
  "      F,GOG+2}2}2}2}2}2}2}2}2}2}2}2}2}2}2}2}2}2}2}2}G@G#'l      ",
  "    V8G$G%G&mq>X>X>X>X>X>X>X>X>X>X>X>X>X>X>X>X>X>XG*G=G-G;A(    ",
  "    G:G>N@G,G<nBG1nCn'8^nAm~nYn]nQnQn]nYm~nA8^n'nC8^G2NiG3G4    ",
  "    G+G5G6nBm:nC8^G7n]m@nWm9nRnEm^m^nEnRm9nT8|n]G88^nCG9G0G@F,  ",
  "    2}NhGqnC8^m~GwnTnR2Jm+m+n{mOGeGeGen{n{m+n[nEnTm@m~8^M1Grfc  ",
  "    2}>Xn'nAGwnTm^m+n{n}GtGyNoGuGiGpm8maGamXMZn{m+m^nTGwGsGdgZ  ",
  "    2}>Xm~m>nEGfmOn|mamMGg>X>X>XGumFmFmFmpMkmMmamXGem+Gh=*GjgZ  ",
  "    2}>XnTm^n{momaNampGkNK>X>X>XGlMlmnmnMoMwmmmxNam8n|n{=*GzgZ  ",
  "    2}>Xn[Gem.mMmpmmMoMlGl>X>X>XGxm/m/GcMmmYMlMommmxmMGaGvGbgZ  ",
  "    2}>Xn}maGnmFGmMlMWMOGMGN>XGBGVMSMSN7m{mUm/MWM:MoGCMkGvGbgZ  ",
  "    2}>XmaMkmmNsmYMOM;N7MqNXGZGAmKmKmKGSGDMqMSm{m/GFmnmmA+GGgZ  ",
  "    2}>XMkmmmnMWmUM3MqM(GSMDGHGJGK3/GL=wGPMDNXMqN7mUMmmnGIGUgZ  ",
  "    2}>XmmmnMmmUMSm[GSGY7sM#GTGRGEGKGWGQG!jBM-M@NeMSM;MmG~GUgZ  ",
  "    2}>XG^MWmUMSM(N8G/MrGQMiG(G*G)MzM%MfM4Mnm_f9G_NXG`M;G~G'gZ  ",
  "    2}>XG]M)MSM(G_G[B<G{G}N9G|>XH.MdHXHoHOH+H@m`N,MDNXMSH#G'gZ  ",
  "    2}>XMOM3m[N8f9H$GZH%MFjcH&>XGLH*H=>XH->XH;MIm`H:G_NeH>G'gZ  ",
  "    2}>XmUMqm(m)M9H,3(MdMaMGH<>X>XH1H2H3H4H5DxeBeBeBf9M@H7G'gZ  ",
  "    2}>XM3M(M0M#MiH8H1MaN%M^H9H0MLMLHqJ0eBeBBHeB#&eBJqeBeBG'gZ  ",
  "    2}>XG`mKNMm`N>HuHiHpM^HqHaM~HsHsHdeB#&6>eB31xz31eB6>#&eBgZ  ",
  "    2}>XHlN8M#MiG}HzGZHxHqN;Hc=`HvHvHbeB6>xzxzxzxzxzxzxz6>eBgZ  ",
  "    2}>XNeM0m_MIM&M5HCHNHZHAM{HSg3HD>XJweBxzJe3,JrJtJyxzeBJugZ  ",
  "    2}>XM(M-M9MfMFMa=8HPG*HIBR4oHUHYeBeB31xzJiJpJaJsJdxz31eBeB  ",
  "    2}>XNXm)M9N>N$N0*]HqHdHEjAjmB`=UeB#&xzxzJrJfMbJgJrxzxz#&eB  ",
  "    2}GZNSNSM9N>MFMa*]HqM~H!H~H^F2F2eBeB31xzJhJjJkJlJzxz31eBeB  ",
  "    H`GBH'M-m_MfMFMaH]H9N;MKH[H{H^H^H{JxeB#&JeJhJrJcr;xzeBJvJX@X",
  "    JoJOB<J+J@M4M&M5NwJ#MLHQ=`M!HSHSH[eB6>xzxzxzxzxzxzxz6>eB*`@V",
  "    J;J:J>J,GZ>X>X>X>X>X>X>X>X>X>X>X>XeB#&6>eB31xz31eB6>#&eBer+r",
  "    *7J4J5J62}2}2}2}2}2}2}2}2}2}2}2}2}2}eBeBJbeB#&eBJneBeB:d&V@N",
  "      *!=N*.errnrnrnrnrnrnrnrnrnrnrnrnrnrnrnrneBeBeBer+J*`Bi@X  ",
  "          @.@C*!*!*!*!*!*!*!*!*!*!*!*!*!*!*!*!*!*!*!*!@N@M      "
};
