/* XPM */
const char *xpm_tango_apps_preferences_desktop_font[] = {
  // Header (width height colors chars-per-pixel)
  "32 32 179 2",
  
  // Colors (code mode value)
  "+j c #00000001",
  "@M c #00000002",
  "@. c #00000003",
  "@X c #00000004",
  "@C c #00000007",
  "+> c #0000000B",
  ":l c #0000000F",
  "+r c #00000012",
  "*' c #00000015",
  "+k c #00000016",
  "@5 c #0000001A",
  "*Q c #0000001D",
  "@6 c #00000020",
  "+g c #00000021",
  "*. c #00000022",
  "+/ c #00000023",
  "+J c #00000027",
  "rn c #0000002A",
  "%J c #000000FF",
  "Fl c #020202FF",
  "J' c #030303FF",
  "c> c #040404FF",
  "JU c #050505FF",
  "c. c #060606FF",
  "J! c #090909FF",
  "D) c #0A0A0AFF",
  "D' c #0B0B0BFF",
  "JK c #0C0C0CFF",
  "ch c #0E0E0EFF",
  "cy c #0F0F0FFF",
  "%K c #101010FF",
  "J^ c #121212FF",
  "Ft c #141414FF",
  "J[ c #151515FF",
  "J_ c #161616FF",
  "J( c #181818FF",
  "JT c #191919FF",
  "JP c #1A1A1AFF",
  "K$ c #1B1B1B43",
  "%L c #1B1B1BFF",
  "J~ c #1E1E1EFF",
  "%d c #1F1F1FFF",
  "J) c #222222FF",
  "JY c #232323FF",
  "K= c #26262643",
  "%H c #282828FF",
  "au c #292929FF",
  "JE c #2A2A2AFF",
  "J/ c #2C2C2CFF",
  "J` c #2F2F2FFF",
  "JI c #303030FF",
  "JQ c #373737FF",
  "Ko c #3A3A3A1F",
  "am c #3B3B3B2B",
  "J{ c #3C3C3CFF",
  "JR c #3D3D3DFF",
  "ag c #3E3E3EFF",
  "JW c #404040FF",
  "no c #424242FF",
  "nO c #434343FF",
  "z[ c #454545FF",
  "JL c #494949FF",
  "kc c #4D4D4DFF",
  ":+ c #4E4E4EFF",
  ";] c #505050FF",
  ";D c #535353FF",
  "6[ c #555555FF",
  "6] c #565656FF",
  "5| c #5B5B5BFF",
  "5[ c #5D5D5DFF",
  ":8 c #616161FF",
  "4Y c #676767FF",
  "6/ c #696969FF",
  "Nv c #6A6A6AFF",
  ":@ c #6B6B6BFF",
  "t1 c #6F6F6FFF",
  "mT c #717171FF",
  ";W c #727272FF",
  ",c c #737373FF",
  "t4 c #747474FF",
  ";F c #757575FF",
  ",h c #7A7A7AFF",
  "=1 c #7B7B7BFF",
  "=< c #7E7E7EFF",
  "=, c #7F7F7FFF",
  "mk c #808080FF",
  ";@ c #818181FF",
  "-^ c #848484FF",
  "-K c #878787FF",
  "y` c #8A8A8AB2",
  "-v c #8A8A8AFF",
  "K* c #8E8E8EB6",
  "9M c #8E8E8EFF",
  "pb c #919191FF",
  "K% c #929292B1",
  "JA c #9595950C",
  "<' c #959595FF",
  "a8 c #96969611",
  "J| c #9797979F",
  ";f c #989898FF",
  "K# c #999999EC",
  ",D c #9B9B9BFF",
  "JB c #9C9C9C12",
  "K& c #9C9C9CF4",
  "J} c #9C9C9CF5",
  ",J c #9C9C9CFF",
  "JN c #9D9D9DA2",
  "KO c #9D9D9DE7",
  "JH c #9D9D9DF1",
  "J] c #9D9D9DF2",
  "JV c #9E9E9EE3",
  "JM c #9E9E9EF1",
  "JJ c #9E9E9EF2",
  "JS c #9F9F9F98",
  "JZ c #9F9F9FE4",
  ",H c #9F9F9FFF",
  "JG c #A0A0A099",
  "Jm c #A0A0A0A1",
  "6} c #A1A1A1FF",
  "3Y c #A2A2A20B",
  ",C c #AAAAAAFF",
  "6' c #ABABABFF",
  "<# c #B2B2B2FF",
  "5X c #B9B9B9FF",
  ",A c #BCBCBCFF",
  "<W c #BDBDBDFF",
  "<1 c #BEBEBEFF",
  ";U c #C1C1C1FF",
  ":* c #C3C3C3FF",
  ":= c #C6C6C6FF",
  ",1 c #C7C7C7FF",
  ">x c #C9C9C9FF",
  "#+ c #CCCCCCFF",
  "+c c #CFCFCFFF",
  "JD c #D1D1D1FA",
  "+b c #D1D1D1FF",
  "JF c #D3D3D3FA",
  "JC c #D4D4D4FB",
  ",n c #D4D4D4FF",
  "K. c #D6D6D6FA",
  "KX c #D6D6D6FB",
  "K+ c #D7D7D7FB",
  ",M c #D7D7D7FF",
  "K@ c #D8D8D8FC",
  ",b c #D9D9D9FF",
  ",m c #DADADAFF",
  "=b c #DDDDDDFF",
  "=[ c #DEDEDEFF",
  "={ c #DFDFDFFF",
  "&_ c #E0E0E0FF",
  "+A c #E2E2E2FF",
  "+S c #E3E3E3FF",
  "&I c #E4E4E4FF",
  ";3 c #E5E5E5FF",
  ";b c #E6E6E6FF",
  ";G c #E7E7E7FF",
  ":# c #E8E8E8FF",
  ":2 c #E9E9E9FF",
  ",$ c #EAEAEAFF",
  ":, c #EBEBEBFF",
  ":> c #ECECECFF",
  ";9 c #EDEDEDFF",
  ":< c #EEEEEEFF",
  ";A c #EFEFEFFF",
  ";T c #F0F0F0FF",
  ";` c #F1F1F1FF",
  ";' c #F2F2F2FF",
  ":O c #F3F3F3FF",
  ":3 c #F4F4F4FF",
  "=a c #F5F5F5FF",
  "+W c #F6F6F6FF",
  ":9 c #F7F7F7FF",
  ";R c #F8F8F8FF",
  ";S c #F9F9F9FF",
  ":5 c #FAFAFAFF",
  ";Q c #FBFBFBFF",
  ";7 c #FCFCFCFF",
  ">X c #FFFFFFFF",
  "   c none",
  
  // Image data
  "                                                                ",
  "                                                                ",
  "      a8JmJM,D,D,D,D,D,D,D,D,D,D,D,D,D,D,D,D,D,D,D,DJMJNJB      ",
  "    3YJVJC;S>X>X>X>X>X>X>X>X>X>X>X>X>X>X>X>X>X>X>X>X;SJCJZJA    ",
  "    JSJD;S;G+A+A+S+S&I&I&I&I;3;3;3;3;3&I&I&I&I+S+S+A:#;SJFJG    ",
  "    JH;S;G+A+S+S,1,C=[<#,b;b;b;b;b;b;b;b;3;3;3&I&I+S+S;G;SJJ    ",
  "    ,D>X+S+S&It4=,,16[JK+A;G;G;G;G;G;G;G;G;b;b;3;3;3&I+S>X,D    ",
  "    ,D>X&I&ImTt1;b;G;]JL:#:#:#:2:2:2:#:#:#;WchcyJP6';3&I>X,D    ",
  "    ,D>X;35X%L&_;G:#JI9M:2:2,$,$,$,$,$:2:2JUJY>x%Jno;b;b>X,D    ",
  "    ,D>X;b;D:@:#:2;UFl+b,$:,:,:,:,:,:,:,,$%Jau+c%Kno;G;G>X,D    ",
  "    ,D>X;GJT,J:2;GJRau:,:>:>:>:>:>:>:>:>:>%Jau,$,$:2:#:#>X,D    ",
  "    ,D>X:#D)-^,m,hnO6/6}:>;9;9:<:<:<;9;9;9%JJE;3,A:=:2:2>X,D    ",
  "    ,D>X:2,cD)6]=b:+JW,n:<<1pb,$;A;A;A:<:<%JJE+b%JJQ,$,$>X,D    ",
  "    ,D>X,$,$:,:>;9:<:<;A;AJT%J;f;T;T;T;T;AJ!J~:*%Jz[:,:,>X,D    ",
  "    ,D>X,$:,:>;9:<;A;A;T;T%J%Jmk;`;`;`;`;T<'%dc.JI<W:>:,>X,D    ",
  "    ,D>X:,:>;9:<;A;T;T;`;'%J%J;@:O:O;';';';`;T;T;A:<;9:>>X,D    ",
  "    ,D>X:>;9:<;A;T;`;';':O%J%J;@;9,HmT=1,A;';';`;T;A:<;9>X,D    ",
  "    ,D>X;9:<;A;T;`;':O:O:3%J%J:8%H%J%J%J%J5|;T;';`;T;A:<>X,D    ",
  "    ,D>X;9:<;T;`;':O:O:3=a%J%J%JJ^=<pbJ/%J%J-v:O;';`;T:<>X,D    ",
  "    ,D>X:<;A;T;`;':O:3=a+W%J%JFl:=;R:9:#J(%JJ):O;';`;T;A>X,D    ",
  "    ,D>X:<;T;`;':O:3=a+W:9%J%Jag;S;S;R;R:@%J%J&_:O;';`;T>X,D    ",
  "    ,D>X;A;T;`;':3=a+W:9;R%J%J:8:5:5:5;S-K%J%J#+:3;';`;T>X,D    ",
  "    ,D>X;A;T;`:O:3=a+W;R;S%J%J;];7;Q;Q:5;F%J%J,M:3:O;`;T>X,D    ",
  "    ,D>X;A;T;':O:3=a:9;R;S%J%JJ_;';7;Q;SJ`%Jcy:O:3:O;';T>X,D    ",
  "    ,D>X;A;`;':O:3+W:9;R;S%J%J%Jkc,M+SNv%J%J4Y+W:3:O;';`>X,D    ",
  "    ,D>X;A;`;':O:3+W:9;R;Sc>%JnOJ'%J%J%J%J%d&I+W:3:O;';`>X,D+r+j",
  "    J];Q;';T;':O:3=a:9;R;S;DJ[+c5XJ{D'Ft5[={:9=a:3:O;':O;QJ}+g:l",
  "  @MJ|K.;7:O;`:O:3=a+W:9;R;S:5;Q;Q;Q:5;S;R:9+W=a:3:O:3;7KXy`rn*'",
  "  +jKoKOK+;Q>X>X>X>X>X>X>X>X>X>X>X>X>X>X>X>X>X>X>X>X;QK@K#K$+J+r",
  "    +>amK%K&,D,D,D,D,D,D,D,D,D,D,D,D,D,D,D,D,D,D,D,DK&K*K=rn@5@.",
  "      @C+k*Q+/+/+/+/+/+/+/+/+/+/+/+/+/+/+/+/+/+/+/+/*.@6*Q:l@M  ",
  "          +j@X@X@X@X@X@X@X@X@X@X@X@X@X@X@X@X@X@X@X@X@X@M+j      "
};
