/* XPM */
const char *xpm_tango_apps_preferences_desktop_multimedia[] = {
  // Header (width height colors chars-per-pixel)
  "32 32 467 2",
  
  // Colors (code mode value)
  "+j c #00000001",
  "@M c #00000002",
  "@. c #00000003",
  "@X c #00000004",
  "@N c #00000005",
  "&^ c #00000006",
  "@C c #00000007",
  "*! c #00000008",
  "*7 c #00000009",
  "+> c #0000000B",
  ":k c #0000000C",
  "@b c #0000000D",
  "@2 c #0000000E",
  ":l c #0000000F",
  "+r c #00000012",
  "@m c #00000013",
  "@o c #00000014",
  "*' c #00000015",
  "+k c #00000016",
  "Bi c #00000017",
  "=N c #00000018",
  "@n c #00000019",
  "+| c #0000001B",
  "@= c #0000001C",
  "*Q c #0000001D",
  "9b c #0000001E",
  "&V c #0000001F",
  "@6 c #00000020",
  "+/ c #00000023",
  "*` c #00000024",
  "*~ c #00000025",
  "+N c #00000026",
  "er c #00000028",
  "rn c #0000002A",
  "*F c #0000002B",
  "9) c #0000002C",
  ":d c #00000030",
  ":s c #00000031",
  "*l c #00000035",
  "*8 c #00000036",
  "*G c #00000037",
  ",W c #00000039",
  "B% c #0000003D",
  "h* c #00FFFF01",
  "T{ c #05050530",
  "R& c #0808081F",
  "TB c #18181820",
  "T( c #1D1D1D47",
  "Yy c #1F201EFF",
  "Y< c #212320FF",
  "Yu c #222321FF",
  "TK c #2525254C",
  "TS c #2828233A",
  "TE c #292C2957",
  "Yi c #2A2C29FF",
  "Ym c #2C2E2BFF",
  "Yn c #31342FFF",
  "Y, c #333730FF",
  "L= c #353634FF",
  "Yp c #363834FF",
  "YM c #3D3F3CFF",
  "Yt c #4C5346FF",
  "YI c #4D4F4CFF",
  "Y1 c #5B6354FF",
  "Yb c #5E6757FF",
  "YZ c #6080BF08",
  "R* c #62625F4E",
  ",+ c #626561FF",
  "YR c #629DC40D",
  "Y> c #666F5DFF",
  "U! c #6699CC05",
  "U) c #6699CC0F",
  "YV c #6996C311",
  "YC c #6A9CCD24",
  "U` c #6A9ECA1D",
  "T} c #6B6D6983",
  "UH c #6BA1C913",
  "R; c #6C706950",
  "YS c #6C99CC28",
  "4E c #6D6D6D07",
  "U( c #6D98CE2A",
  "UC c #6F99CC1E",
  "YT c #6F9BCD2E",
  "Yl c #6F9ECD5C",
  "p# c #709DCD60",
  "iY c #709DCE6D",
  "YA c #709ECD42",
  "UJ c #709FCF10",
  "U_ c #709FCF8F",
  "R= c #71736F6A",
  "Y` c #719CC612",
  "Yk c #719CCB36",
  "U[ c #719CCD24",
  "Y% c #719CCD4D",
  "Y+ c #719CD036",
  "UR c #719DCE34",
  "Yh c #719DCE63",
  "Yj c #719DD056",
  "UL c #719ECD71",
  "Y# c #719ECE44",
  "U] c #719ECE8C",
  "i5 c #719ECE93",
  "Y& c #719ECF99",
  "UK c #719ED066",
  "Yg c #719ED071",
  "UP c #719ED222",
  "UE c #719FCD3D",
  "U' c #719FD087",
  "UZ c #729DCC41",
  "UW c #729DCE2F",
  "Y8 c #729ECE96",
  "UQ c #729ECE9B",
  "Y$ c #729ECEB8",
  "Y7 c #729ECF84",
  "Y0 c #729FCF4A",
  "p4 c #729FCF55",
  "Y6 c #729FCFDE",
  "Y* c #72A0CE43",
  "UA c #739ECE2A",
  "Y@ c #739FCB45",
  "Y9 c #739FCF85",
  "Ub c #769DC40D",
  "R- c #77797574",
  "<t c #78787824",
  "Yr c #7A866EFF",
  "Yv c #7B866FFF",
  "Yc c #7B876FFF",
  "T_ c #7C7E7A82",
  "@> c #80808002",
  "<F c #80808006",
  "r} c #80808008",
  "Y. c #808B76FF",
  "rj c #8092800E",
  "Y5 c #809FBF08",
  "YX c #818C76FF",
  "T) c #82837ED2",
  "l^ c #828580FF",
  "Y: c #828E77FF",
  "YH c #838E77FF",
  "YB c #838F9A44",
  "R: c #8486808B",
  "Tj c #858F8519",
  "YG c #85917BFF",
  "TW c #868883E7",
  "Tm c #868983A4",
  "Tt c #87878711",
  "r! c #87878722",
  "TD c #878A85E4",
  "Uv c #878B8344",
  "Uj c #878D8731",
  "Yx c #87927DFF",
  "r5 c #8888843A",
  "R2 c #8888843C",
  "3Z c #88888547",
  "c! c #8888880F",
  "Y' c #888A855E",
  "TV c #888A85CF",
  "eB c #888A85FF",
  "T9 c #888A8674",
  "R6 c #888B8558",
  "T| c #888B85F2",
  "T+ c #89898436",
  "Y} c #89898541",
  "Un c #89898545",
  "Yq c #89898654",
  "Y| c #89898661",
  "r$ c #8989891A",
  "TL c #898A86E9",
  "TN c #898B85FB",
  "Tx c #898B866E",
  "T/ c #898B86FB",
  "Tz c #898B8784",
  "YD c #898B87F0",
  "YE c #8A8A8530",
  "T4 c #8A8A8753",
  "UT c #8A8B868B",
  "Uk c #8A8C8885",
  "TA c #8A8D87F5",
  "T* c #8A8D88CB",
  "T3 c #8A8D88DD",
  "T& c #8B8C87A0",
  "Yf c #8B8D8784",
  "Y_ c #8B8D8896",
  "T0 c #8B8D889A",
  "Y4 c #8B8D88CE",
  "T] c #8B8D88F8",
  "TR c #8B8D89C2",
  "Ux c #8B8E87EA",
  "R% c #8B8E89EC",
  "Tn c #8B8F89DA",
  "T, c #8C8C841F",
  "Ts c #8C8D8892",
  "Ty c #8C8D88D7",
  "Uz c #8C8D88E6",
  "Uc c #8C8E88D2",
  "UI c #8C8E89CE",
  "YY c #8C8E89E0",
  "K> c #8C8E89EC",
  "YO c #8C8F88F2",
  "UG c #8C8F8ACC",
  "R1 c #8D8D885E",
  "U~ c #8D8F8AC2",
  "T` c #8D8F8ADD",
  "TO c #8D8F8AE9",
  "T^ c #8D8F8AFA",
  "T[ c #8E8E8012",
  "R3 c #8E8F8BB2",
  "Ul c #8E908AC4",
  "R> c #8E908AF5",
  "Um c #8E908CD4",
  "Tr c #8E908CF2",
  "T< c #8E908CF3",
  "R4 c #8F908BE5",
  "US c #8F908CA6",
  "UV c #8F908DF1",
  "Y= c #8F918CDA",
  "YP c #8F938CFF",
  "Td c #90928DF4",
  "Y2 c #909B86FF",
  "R5 c #91928DD3",
  "Th c #91938DF7",
  "Yo c #919A87FF",
  "3> c #92948FFF",
  "U| c #929C89FF",
  "R< c #939591F4",
  "YU c #939692FF",
  "R@ c #949691F2",
  "R. c #949691F3",
  "YJ c #949E8AFF",
  "UM c #959793F3",
  "T> c #969893F6",
  "ry c #969994F4",
  "RO c #989995F2",
  "Tk c #989A94F7",
  "Y{ c #989A95F6",
  "rZ c #99999905",
  "U/ c #9A9B97F6",
  "YW c #9A9D98F2",
  "Ye c #9AA390FF",
  "T5 c #9B9D98F6",
  "Y! c #9BA492FF",
  "T@ c #9C9E99F7",
  "5$ c #A2A3A0F7",
  "Ya c #A3AA9EFF",
  "Tc c #A5A6A2F6",
  "YK c #A5AE9DFF",
  "Y~ c #A6AF9EFF",
  "YN c #A9ABA7F8",
  "cW c #AAAAAA03",
  "Y3 c #AAB1A3FE",
  "R# c #ACAFAAF4",
  "T8 c #AEAEAAF6",
  "Y] c #B1B2AFF5",
  "UY c #B1B3AEF7",
  "T. c #B1B3AFF6",
  "RX c #B2B3B0F6",
  "U} c #B2B8ABFF",
  "YL c #B2B8ACFF",
  "Yw c #B3B4B1F5",
  "Tq c #B4B5B2F8",
  "TM c #B4B6B2F8",
  "R+ c #B5B6B4F7",
  "27 c #B7B8B5F7",
  "Y) c #B7B9B6F8",
  "Y^ c #B7BEB1FF",
  "TT c #B8B9B5FD",
  "U^ c #B8BAB6FA",
  "Tl c #B9BBB7F8",
  "YQ c #B9BFB4FF",
  "Ro c #BABBB9F8",
  "TQ c #BABDB9FC",
  "T% c #BCBDB9F9",
  "Y; c #BDC2B7FF",
  "UN c #C0C2BEFB",
  "Ta c #C1C2BEFA",
  "R, c #C1C2BFFE",
  "TC c #C3C5C1FB",
  "Yd c #C3C6BFFB",
  "Yz c #C3C6BFFF",
  "T6 c #C5C9C4FF",
  "Ys c #C5CBC0FF",
  "T= c #C6C8C5FD",
  "r> c #C6C9C3FF",
  "T# c #C6CAC4FF",
  "TF c #C7C9C5FD",
  "TP c #C7C9C6FE",
  "Y/ c #C8CEC4FF",
  "UU c #C9CAC4FF",
  "UF c #C9CAC7FC",
  "Ku c #C9CCC7FF",
  "|( c #CACBC6FF",
  "TY c #CACBC7FF",
  "Tv c #CACDC7FF",
  "oi c #CACDC8FF",
  "Tg c #CACEC8FF",
  ".X c #CBCCC7FF",
  "Tu c #CBCDCAFD",
  "Tp c #CBCEC8FF",
  ".u c #CCCDC8FF",
  "TJ c #CCCDCBFF",
  "5: c #CCCEC9FF",
  "xY c #CCCFCAFF",
  "gF c #CDCECBFF",
  "oC c #CDCFC9FF",
  "rO c #CDD0C9FF",
  "T1 c #CED0CBFF",
  "}F c #CFD1CCFF",
  "}G c #CFD1CDFF",
  "Ti c #CFD2CDFF",
  "T' c #D0D0CDFF",
  "UD c #D0D1CCFF",
  "oV c #D0D2CCFF",
  "}H c #D0D2CDFF",
  "To c #D1D2CDFF",
  "T2 c #D1D3CFFE",
  "T- c #D1D4CFFF",
  "Tw c #D2D3CFFF",
  "yF c #D2D4CFFF",
  "T! c #D3D3CFFF",
  "TX c #D3D5D1FF",
  "T7 c #D3D6D2FF",
  "yG c #D4D5D1FF",
  ".Y c #D4D6D2FF",
  "TH c #D5D5D1FF",
  "}} c #D5D6D2FF",
  "UB c #D5D6D3FF",
  "Tb c #D5D7D4FF",
  "X( c #D6D7D3FF",
  "X_ c #D6D8D4FF",
  "TU c #D7D7D3FF",
  "|I c #D7D8D4FF",
  ".r c #D7D9D5FF",
  "Tf c #D7D9D6FF",
  "T$ c #D7DAD6FF",
  "T: c #D8D9D5FF",
  "5# c #D8DAD7FF",
  "Y( c #D8DCD5FF",
  "o@ c #D9DAD6FF",
  "r3 c #D9DBD7FF",
  "cr c #D9DCD8FF",
  "K^ c #D9DDD6FF",
  "U{ c #DADAD6FF",
  "|< c #DADBD7FF",
  "3t c #DADCD9FF",
  "TG c #DADDD9FF",
  "rg c #DBDBD8FF",
  "%~ c #DBDBD9FF",
  "|& c #DBDCD8FF",
  "g^ c #DBDCD9FF",
  "0I c #DBDDD9FF",
  "}^ c #DCDDD9FF",
  "r9 c #DCDEDAFF",
  "T; c #DCDEDBFF",
  "T~ c #DDDDDAFF",
  "%I c #DDDDDBFF",
  "XT c #DDDEDAFF",
  "|w c #DDDEDBFF",
  "ra c #DDDEDCFF",
  "|1 c #DDDFDBFF",
  "XR c #DDDFDCFF",
  "Y- c #DEDEDBFF",
  "&v c #DEDEDDFF",
  "oq c #DEDFDBFF",
  "yZ c #DEDFDCFF",
  "R$ c #DEDFDDFF",
  "KZ c #DEE0DDFF",
  "xK c #DEE2DCFF",
  "Te c #DFDFDCFF",
  "|V c #DFE0DCFF",
  "fp c #DFE0DDFF",
  "xP c #DFE3DDFF",
  "}v c #E0E1DDFF",
  "TI c #E0E1DFFF",
  "Ky c #E0E2DFFF",
  "Y[ c #E0E3DDFF",
  "|N c #E1E1DEFF",
  "|q c #E1E2DEFF",
  "}| c #E1E2DFFF",
  "Xv c #E1E3E0FF",
  "v; c #E2E2DFFF",
  "XE c #E2E3DFFF",
  "57 c #E2E3E0FF",
  "}g c #E2E3E1FF",
  ":j c #E2E4E0FF",
  "TZ c #E2E4E1FF",
  "%e c #E3E3E1FF",
  ">[ c #E3E4E0FF",
  "|h c #E3E4E1FF",
  "rt c #E4E4E3FF",
  "|3 c #E4E5E2FF",
  "%h c #E5E5E3FF",
  "|. c #E5E6E3FF",
  "3: c #E5E6E4FF",
  "YF c #E5E6E5FF",
  "c7 c #E5E9E4FF",
  ":y c #E6E7E4FF",
  ":T c #E6E8E5FF",
  ";V c #E6E9E5FF",
  "%g c #E7E7E5FF",
  "}K c #E7E8E5FF",
  ",- c #E7E8E6FF",
  ";C c #E7EAE5FF",
  "%w c #E8E8E6FF",
  "$` c #E9E9E7FF",
  "59 c #E9EAE8FF",
  "lb c #EAEAE9FF",
  ",. c #EAEBE8FF",
  "X| c #EAEBE9FF",
  ":Q c #EAECE8FF",
  "#p c #EBEBE9FF",
  "6d c #EBEBEAFF",
  "5; c #EBECEAFF",
  "Wt c #EBECEBFF",
  "3f c #ECEDEBFF",
  "#i c #EDEDEBFF",
  "ld c #EDEDECFF",
  "o. c #EDEEECFF",
  ";x c #EDEFECFF",
  "#& c #EEEEECFF",
  "5] c #EEEEEDFF",
  ">2 c #EEEFEDFF",
  ";p c #EEF0EDFF",
  "#' c #EFEFEDFF",
  "lt c #EFEFEEFF",
  "{T c #EFF0EEFF",
  "#u c #F0F0EEFF",
  "l8 c #F0F0EFFF",
  "4[ c #F0F1EFFF",
  "46 c #F0F1F0FF",
  "#` c #F1F1EFFF",
  ",0 c #F1F1F0FF",
  "f8 c #F1F2F0FF",
  "c} c #F2F2F1FF",
  "}8 c #F2F3F1FF",
  "#6 c #F2F3F2FF",
  "55 c #F3F3F2FF",
  "}, c #F3F4F2FF",
  "@< c #F3F4F3FF",
  "hE c #F4F4F3FF",
  ":3 c #F4F4F4FF",
  ">r c #F4F5F4FF",
  "c` c #F5F5F4FF",
  "=a c #F5F5F5FF",
  "3] c #F5F6F4FF",
  ">A c #F5F6F5FF",
  "v0 c #F6F6F5FF",
  "+W c #F6F6F6FF",
  ";K c #F6F7F5FF",
  ">s c #F6F7F6FF",
  "v9 c #F7F7F6FF",
  ":9 c #F7F7F7FF",
  "}/ c #F7F8F7FF",
  ";R c #F8F8F8FF",
  "37 c #F8F9F8FF",
  "lP c #F9F9F8FF",
  ";S c #F9F9F9FF",
  ";N c #F9FAF9FF",
  "g~ c #FAFAF9FF",
  ":5 c #FAFAFAFF",
  "3C c #FAFBFAFF",
  "}1 c #FBFBFAFF",
  ";Q c #FBFBFBFF",
  ";7 c #FCFCFCFF",
  "=q c #FDFDFDFF",
  "=w c #FEFEFEFF",
  ">X c #FFFFFFFF",
  "   c none",
  
  // Image data
  "                                                                ",
  "            UjUkUlUzUxUcUv                      Ub              ",
  "        UnUmUMUNUB|wr9gFUVr$                  UCUZUA            ",
  "    r}USry&v>A#&XE.rUD|<UFUGcW            UHh*UJUKULUP          ",
  "  c!UI27;Q}1}13f|V|I}FUU|wUYUT          URp#UE  UWUQiYU!        ",
  "cWU~U^#`3]=q}1lt|3XT}}oC|(fpU/3Z    U(@>U)i5U_U`  U'U]U[        ",
  "r53>c}U{#p}/;7hE,.XTU}U|Y.YXYoYOr$Y+i5Y@  Y#Y$Y%  Y+Y&Y*        ",
  "  Y=6dY-g^#&;N:9Y;Y:Y>Y,Y<Y1Y2Y3Y4Y5Y6Y7    Y8p4    Y9Y0        ",
  "  YqYw;KUDyZ>[YeYrYtYyYuYiYpYaYsYdYfYgYh    YjYk    YlUE        ",
  "  @>K>5],.YzYxYcYvYbYnYmL=YMl^xKc7YNYBYV    YCYZ    YAYS        ",
  "    YDYF:QYGYcYHYJYKYLYP,+YIYU;x3]l8YYr}            YTYR        ",
  "  YEYW>2:jYQY!Y~Y^Y/Y(xP;V;p>A=q>X=wY)Y_            Y`          ",
  "  Y'Y]KyKy#6o.rOK^Y[;C;p;K=q>X>X>X=qv;Y{Y}                      ",
  "  Y|T..rTX3:}/:yTo|q}8;7;7=q=w=q>rrgyFX(TOrj                    ",
  "  T+T@KZT#T$X|;7oq}}%h>rlP,05957|<yF.X0IT%T&                    ",
  "  cWT*T=T-oiT;46+WX(o@$`lPv9{T,-}vT:}H.u}|T>r5                  ",
  "    T,T<5#Ku}GXv:9},X(XTld;7c`o.3:oqX(T1}}T2T3rZ                ",
  "      T4T5XRT6T7,-;QhE5;,-,03C555;|h}^yG5:|qT8T9                ",
  "        T0Tqr3r>5#Wt=q#`#u3fc`37,059}||<TwToTeTrTt              ",
  "        <FTyTuTiTp|1f8;S3fl8>2;S>slt}KfpT:}Hg^TaTs              ",
  "          r!TdTfTgTi57v0c`%glt4[;7c`ld|.|wX(oV%eThTj            ",
  "            UvTk|wKu.Y:T;Nlt|.5]@<:555#p|h0IyGyZTlTz            ",
  "              TxTc|wTvr35;;7%w|35]v9;R,0$`}||<|&TbTn            ",
  "          @X*!+>TmTMcrxYXRl8=aTe|h#'g~+W#'}KfpyZ|hTN            ",
  "      &^+>:l@o=NTBTVTCr3T-TZ>r5]UB}gl8;7:3#i|.|.|NTA            ",
  "  @M*!@2@m@n9b+/erTSTDTFTGX_,-;SrtTH|hc}:5}8#pl8TJeB<t          ",
  "  &^:k+r=N9b*`rn:d*8TKTLTPTI3t3f:5rgTU:y+W;Rv0%hTYTTTR@.        ",
  "  @C@b@m@n&V*~*F:s*GB%TETWTQ,-3:46c}T!T~46=qlbT^eByGT/4E        ",
  "  @X*7:l*'+|@6+N*F:d*l,WT(T)5$ra#6:5c`$`$`%IeBT_T`T'T]T[        ",
  "    @M*!@b+rBi@=@6*`errn9)T{T}T|R.RXRoROeB%~R+R@R#R$R%          ",
  "        +j@N:k:l@m+k@n+|@=*Q*QR&R*R=R-R;R:R>R,3:%~R<R1          ",
  "                @M@.&^@C*7*7*7*7@C&^@X@M  R2R3R4R5R6            "
};
