/* XPM */
const char *xpm_tango_apps_preferences_desktop_screensaver[] = {
  // Header (width height colors chars-per-pixel)
  "32 32 587 2",
  
  // Colors (code mode value)
  "+j c #00000001",
  "@M c #00000002",
  "@. c #00000003",
  "@X c #00000004",
  "@N c #00000005",
  "&^ c #00000006",
  "@C c #00000007",
  "*! c #00000008",
  "@B c #0000000A",
  "+> c #0000000B",
  ":k c #0000000C",
  "@b c #0000000D",
  "@2 c #0000000E",
  "@: c #00000010",
  "+r c #00000012",
  "@m c #00000013",
  "@o c #00000014",
  "*' c #00000015",
  "+k c #00000016",
  "Bi c #00000017",
  "=N c #00000018",
  "@n c #00000019",
  "@5 c #0000001A",
  "+| c #0000001B",
  "@= c #0000001C",
  "*Q c #0000001D",
  "9b c #0000001E",
  "&V c #0000001F",
  "@6 c #00000020",
  "*. c #00000022",
  "+/ c #00000023",
  "*~ c #00000025",
  "rE c #00000029",
  "rn c #0000002A",
  "9) c #0000002C",
  "rF c #0000002D",
  ":d c #00000030",
  "T2 c #00000032",
  "&W c #00000034",
  "*l c #00000035",
  "rD c #00000038",
  "rm c #06060629",
  "t. c #1818184A",
  "r] c #1A1A1A44",
  "rk c #1B1B1B4B",
  "eQ c #202184FF",
  "r' c #2224225B",
  "qu c #242450FF",
  "r| c #2626265E",
  "ra c #27272741",
  "r[ c #2727275C",
  "qM c #282855FF",
  "qy c #292954FF",
  "!d c #2A2A56FF",
  "!n c #2A2A58FF",
  "rW c #2B2B2853",
  "!m c #2B2B59FF",
  "!b c #2C2C59FF",
  "q/ c #2C2C5BFF",
  "!G c #2D2D5CFF",
  "w, c #2D2D7BFF",
  "!H c #2E2E5DFF",
  "wf c #2E2E7AFF",
  "r} c #2E302E6F",
  "!J c #2F2F5EFF",
  "r{ c #30303070",
  "wC c #303078FF",
  "q( c #30317CFF",
  "!F c #31315FFF",
  "!W c #313160FF",
  "!Q c #313161FF",
  "wW c #313179FF",
  "!! c #323262FF",
  "e. c #323277FF",
  "!~ c #333363FF",
  "qN c #34357EFF",
  "!| c #353566FF",
  "~. c #353567FF",
  "~X c #363667FF",
  "~o c #363668FF",
  "e9 c #36367BFF",
  "~* c #373769FF",
  "rR c #37383783",
  "qi c #373880FF",
  "e' c #373889FF",
  "eC c #383987FF",
  "!E c #393967FF",
  "~& c #39396BFF",
  "~5 c #3B3B6DFF",
  "~6 c #3B3B6EFF",
  "e^ c #3B3B88FF",
  "e! c #3B3C87FF",
  "e~ c #3B3C88FF",
  "e/ c #3B3C89FF",
  "~7 c #3C3C6EFF",
  "wR c #3C3C6FFF",
  "ey c #3C3C88FF",
  "e( c #3C3C89FF",
  "e) c #3C3C8AFF",
  "e_ c #3C3D8AFF",
  "rG c #3C3E3C7F",
  "e& c #3D3D71FF",
  "en c #3D3D7EFF",
  "e` c #3D3D8AFF",
  "!s c #3E3E66FF",
  "e* c #3E3E72FF",
  "0$ c #3E3F8EFF",
  "!} c #3F3E60FF",
  "!v c #3F3F69FF",
  "~y c #3F3F73FF",
  "q% c #3F4084FF",
  "e% c #404072FF",
  "w} c #404074FF",
  "w| c #404075FF",
  "!] c #41416EFF",
  "eu c #414176FF",
  "e$ c #41418BFF",
  "ei c #424276FF",
  "ep c #424277FF",
  "~h c #434378FF",
  "w_ c #444474FF",
  "e6 c #444479FF",
  "e7 c #44447AFF",
  "e8 c #45457AFF",
  "eZ c #45457BFF",
  "eI c #454583FF",
  "r` c #454644B5",
  "0! c #454688FF",
  "~4 c #464469FF",
  "~% c #464674FF",
  "eA c #46467CFF",
  "eS c #46467DFF",
  "!I c #474454FF",
  "!D c #474770FF",
  "eD c #47477DFF",
  "eF c #47477EFF",
  "ru c #484848FF",
  "ec c #48487EFF",
  "ev c #48487FFF",
  "w( c #48498EFF",
  "eb c #49497FFF",
  "eG c #494980FF",
  "rQ c #494A46B3",
  "0n c #494A8BFF",
  "~u c #4A486EFF",
  "~g c #4A4976FF",
  "r4 c #4A4A4AFB",
  "ry c #4A4A4AFF",
  "!g c #4B4646FF",
  "w) c #4B4B7AFF",
  "eJ c #4B4B82FF",
  "eK c #4B4B83FF",
  "~= c #4C495EFF",
  ":- c #4C4C4CFF",
  "eL c #4C4C84FF",
  "wH c #4C4D90FF",
  "rj c #4C4E4BDA",
  "~n c #4D4C7FFF",
  "rq c #4D4D4CF1",
  "ri c #4D4D4DF2",
  "e{ c #4D4D4DF3",
  "kc c #4D4D4DFF",
  "!R c #4D4D76FF",
  "~b c #4D4D7AFF",
  "eP c #4D4D85FF",
  "rs c #4D504CDA",
  "rp c #4E4E4E55",
  "wP c #4E4E7BFF",
  "rb c #4E504DDC",
  "~j c #4F4D74FF",
  "rt c #4F4F4FFF",
  "!' c #4F4F79FF",
  "rl c #4F504EDF",
  "rS c #4F524EF8",
  "wK c #50507CFF",
  "0: c #50508FFF",
  "wz c #505192FF",
  "r_ c #50524EEC",
  "r! c #50524FED",
  ";E c #515151FF",
  "wJ c #51517CFF",
  "02 c #51518BFF",
  "0> c #51518EFF",
  "0; c #51518FFF",
  "0= c #515190FF",
  "eR c #525252E9",
  "wv c #52527BFF",
  "01 c #52528BFF",
  "0- c #52528FFF",
  "0* c #525290FF",
  "0< c #52538DFF",
  "w4 c #525393FF",
  "rM c #525451FA",
  ";D c #535353FF",
  "q$ c #535375FF",
  "03 c #53538DFF",
  "0, c #53548DFF",
  "0& c #535491FF",
  "08 c #535494FF",
  "q{ c #535595FF",
  "!c c #545479FF",
  "wc c #54547CFF",
  "wx c #54547DFF",
  "07 c #54548DFF",
  "05 c #54548EFF",
  "0% c #545592FF",
  "rh c #545753F5",
  "6[ c #555555FF",
  "!S c #55557CFF",
  "06 c #55558EFF",
  "04 c #55568EFF",
  "6] c #565656FF",
  "!a c #565679FF",
  "w8 c #56567DFF",
  "rd c #565855F4",
  "rT c #565855F8",
  "eN c #575756DF",
  "qF c #575998FF",
  ":i c #585858FF",
  "!x c #58587CFF",
  "!C c #58587DFF",
  "w5 c #58587FFF",
  "ee c #585958D3",
  "!V c #59597DFF",
  "w. c #59597EFF",
  "rH c #595A57F8",
  "r) c #595B57F9",
  ":q c #5A5A5AFF",
  "r~ c #5A5C58F9",
  "~M c #5B5975FF",
  "qc c #5B5B7DFF",
  "q| c #5B5B7FFF",
  "5{ c #5C5C5CFF",
  "qx c #5C5C7EFF",
  "q} c #5C5C7FFF",
  "w1 c #5D5D5D81",
  "qz c #5D5D7FFF",
  "!j c #5D5D80FF",
  "!U c #5D5D82FF",
  "e+ c #5E5E5CC4",
  "wj c #5E5E5E95",
  "w~ c #5E5E5EB5",
  ":0 c #5E5E5EFF",
  "!y c #5E5E7EFF",
  "~m c #5F5B70FF",
  "q` c #5F5F5F74",
  "l< c #5F5F5FFF",
  "q# c #5F5F7EFF",
  "q@ c #5F5F7FFF",
  "qH c #5F5F80FF",
  "wD c #606060A5",
  "q0 c #60607FFF",
  "q9 c #606080FF",
  "qG c #606081FF",
  "!z c #606082FF",
  ":8 c #616161FF",
  "!9 c #616180FF",
  "q8 c #616181FF",
  "!B c #616184FF",
  "qh c #61639DFF",
  "~$ c #625C51FF",
  "0Q c #626280FF",
  "qs c #6363635A",
  "qZ c #63636367",
  "rr c #636363FF",
  "0W c #636380FF",
  "!t c #636381FF",
  "!h c #636384FF",
  "!8 c #646481FF",
  "0E c #646482FF",
  "qj c #646483FF",
  "q< c #646486FF",
  "r( c #646662F7",
  "r^ c #646763F7",
  "6( c #656565FF",
  "0R c #656582FF",
  "!r c #656583FF",
  "!2 c #656588FF",
  "~O c #66604DFF",
  "q- c #6666664B",
  "0T c #666683FF",
  "e] c #66689FFF",
  "!` c #676578FF",
  "4Y c #676767FF",
  "!1 c #676783FF",
  "0A c #67678CFF",
  ":; c #686868FF",
  "!< c #686884FF",
  "0b c #696985FF",
  "q1 c #696986FF",
  "!0 c #6A6877FF",
  "Nv c #6A6A6AFF",
  "0v c #6A6A85FF",
  "0y c #6A6A91FF",
  "!) c #6B6347FF",
  "0^ c #6B6B6B3E",
  "0c c #6B6B86FF",
  "r/ c #6B6E6AF8",
  ">( c #6C6C6CFF",
  "!i c #6D6543FF",
  "0B c #6D6D6D31",
  "0x c #6D6D88FF",
  "0q c #6E6E6E25",
  ";[ c #6E6E6EFF",
  "0' c #6E6E89FF",
  "0z c #6F6F8AFF",
  "!Z c #707087FF",
  "!: c #70708BFF",
  "eU c #7073A3FF",
  "!; c #71718BFF",
  "q, c #7173A4FF",
  "![ c #726A43FF",
  "5+ c #73737314",
  "0G c #73738DFF",
  "re c #747474F2",
  "0F c #74748DFF",
  "!, c #74748EFF",
  "rw c #75757555",
  "0D c #75758FFF",
  "0S c #767690FF",
  "rg c #767874FA",
  "9} c #777777FC",
  "0d c #777790FF",
  "rf c #777A76FB",
  "r5 c #787878F1",
  "e} c #787878FB",
  "0O c #797979F7",
  ",j c #797979FF",
  "0s c #797992FF",
  "~> c #7A7146FF",
  "!_ c #7A788AFF",
  "0a c #7A7A93FF",
  "=1 c #7B7B7BFF",
  "9| c #7C7C7C98",
  "eE c #7C7C7CF3",
  "0p c #7C7C94FF",
  "!k c #7C7C98FF",
  ",z c #7D7D7DFF",
  "0i c #7D7D95FF",
  "=< c #7E7E7EFF",
  "0u c #7E7E96FF",
  "~: c #807642FF",
  "mk c #808080FF",
  "eB c #808180E9",
  "!M c #817632FF",
  "rv c #81837EFD",
  "lW c #81837FFF",
  "em c #8183AAFF",
  ",x c #828282FF",
  "0_ c #8284ADFF",
  "rz c #838581FD",
  "-^ c #848484FF",
  "!- c #84849AFF",
  "er c #848584DF",
  "00 c #858685F3",
  "!q c #86827EFF",
  ",! c #868686FF",
  "e@ c #878787D3",
  "-K c #878787FF",
  "rJ c #878A85FE",
  "!p c #888696FF",
  "-Y c #898989FF",
  "w^ c #8A8A89C4",
  "mV c #8B8B8BFF",
  "l~ c #8B8E89FF",
  "!{ c #8C8035FF",
  "q' c #8C8C8C81",
  "rY c #8C8E8AFE",
  "0w c #8D8D8D31",
  "wF c #8D8D8DB5",
  "-i c #8D8D8DFF",
  "0N c #8D8E8DF2",
  "wk c #8E8E8DA5",
  "q; c #8E8E8E5A",
  "w2 c #8E8E8E95",
  "0/ c #8F8F8F4B",
  "qA c #8F8F8F74",
  "-, c #8F8F8FFF",
  "!K c #90832FFF",
  "0V c #9090903E",
  "qd c #90909067",
  "9{ c #909090FC",
  ">q c #91919125",
  "e0 c #9193B1FF",
  ">i c #92929215",
  "!> c #9494A4FF",
  "9[ c #9495949F",
  "0. c #959595F6",
  "0~ c #959695F2",
  "rA c #959993FF",
  "0Z c #9697B8FF",
  "!6 c #9B99A0FF",
  "q= c #9B9C9BF3",
  "rN c #9B9E9AFF",
  "!T c #9D988CFF",
  "!Y c #9D9BA3FF",
  "~v c #9F913EFF",
  "eX c #A0A3B9FF",
  "!l c #A19D94FF",
  "0+ c #A2A2A2F3",
  "!A c #A49C7AFF",
  "<: c #A4A4A3FF",
  "qa c #A4A5A3F4",
  "!3 c #A5A3A5FF",
  "hX c #A6A8A4FF",
  "~t c #A79832FF",
  "0t c #A7AAC0FF",
  "rU c #A8ABA6FF",
  "~k c #A99B34FF",
  "rZ c #A9ABA6FF",
  "0e c #AAAAA9F2",
  "~, c #AC9C2BFF",
  "!e c #ACA274FF",
  "qC c #ACADABF7",
  "qV c #ACADABFF",
  "rx c #ACAFA9FF",
  "0m c #ADAFACFF",
  "rc c #ADB0AAFF",
  "wQ c #ADB0BDFF",
  "~; c #AE9E29FF",
  "r& c #AEB0ABFF",
  "rC c #AEB1ABFF",
  "0C c #AFB0AFF2",
  "rB c #AFB2ACFF",
  "q_ c #B0B1AFFB",
  "rV c #B1B3AEFF",
  "!7 c #B2AB8FFF",
  "q& c #B2B4B0FF",
  "~8 c #B3A229FF",
  "r* c #B3B6AFFF",
  "w< c #B6B7B5FF",
  "!u c #B7A624FF",
  "q* c #B7B8B7FF",
  "0( c #B8B8B7F3",
  "qB c #B8BBB6FF",
  "wZ c #B8BCC3FF",
  "0# c #B9BBC8FF",
  "wh c #BBBCB9FF",
  "!f c #BEAB15FF",
  "rI c #BEC1BEFF",
  "q: c #BFBFBEF4",
  "rK c #BFC0BDFF",
  "hx c #BFC1BCFF",
  "wS c #C0C1BEFF",
  "r0 c #C0C2BEFF",
  "!N c #C1AE1AFF",
  "!^ c #C2B01CFF",
  "0M c #C2C3C2FF",
  ".o c #C4C6C2FF",
  "r1 c #C4C8C2FF",
  "qf c #C5C5C3F7",
  "r< c #C5C8C2FF",
  "r2 c #C5C9C2FF",
  "r, c #C5C9C3FF",
  "wg c #C5C9C7FF",
  "!5 c #C6BF9FFF",
  "r> c #C6C9C3FF",
  "r: c #C6CAC3FF",
  "r; c #C7CAC3FF",
  "r- c #C7CBC4FF",
  "eO c #C8CAC7FF",
  "oj c #C8CBC4FF",
  "r= c #C8CCC4FF",
  "rL c #C9CBC8FF",
  "on c #C9CCC5FF",
  "qS c #CACBC9FB",
  "r% c #CACEC6FF",
  "r$ c #CBCEC7FF",
  "r# c #CBCFC7FF",
  "e[ c #CBCFC8FF",
  "~f c #CCB81BFF",
  "ew c #CCCECBFF",
  "r@ c #CCCFC8FF",
  "r+ c #CCD0C8FF",
  "rO c #CDD0C9FF",
  "ro c #CDD1C9FF",
  "eY c #CDD1CBFF",
  "rP c #CED0CDFF",
  "rX c #CED1CAFF",
  "r. c #CED2CAFF",
  "q] c #CFD0CDFF",
  "}G c #CFD1CDFF",
  "XJ c #CFD2CCFF",
  "q) c #D0D4CDFF",
  "eM c #D1D2CFFF",
  "e| c #D1D4CEFF",
  "eq c #D1D5CFFF",
  "qp c #D2D5CEFF",
  "0K c #D3D5D2FF",
  "}$ c #D3D6CFFF",
  "eT c #D3D6D1FF",
  "eo c #D4D6D0FF",
  ".Y c #D4D6D2FF",
  "09 c #D4D7D0FF",
  "w! c #D5D9D3FF",
  "~i c #D7C213FF",
  ".r c #D7D9D5FF",
  "eW c #D7DAD2FF",
  "%| c #D8D8D6FF",
  "wA c #D8DBD5FF",
  "r3 c #D9DBD7FF",
  "eV c #D9DCD5FF",
  "XL c #DBDDD8FF",
  "et c #DBDED6FF",
  "o# c #DCDDDAFF",
  "r9 c #DCDEDAFF",
  "e# c #DCE0D9FF",
  "|1 c #DDDFDBFF",
  ":f c #DEE0DCFF",
  "4M c #DEE1DCFF",
  "w/ c #DFE0DEFF",
  "5_ c #DFE1DCFF",
  "r8 c #DFE2DDFF",
  "6O c #E0E2DDFF",
  ",& c #E0E2DEFF",
  ">} c #E1E3DFFF",
  "wG c #E1E4DEFF",
  ":j c #E2E4E0FF",
  "r7 c #E2E5E1FF",
  "%e c #E3E3E1FF",
  "wl c #E3E6E0FF",
  ">< c #E3E6E1FF",
  "~c c #E4CC0BFF",
  "~# c #E4CE14FF",
  "3} c #E4E6E2FF",
  "!P c #E5CE0AFF",
  "~x c #E5CE0FFF",
  "~z c #E5CF0FFF",
  "!( c #E5D019FF",
  "|. c #E5E6E3FF",
  "w3 c #E5E7E2FF",
  ">{ c #E5E7E3FF",
  "~+ c #E6CE0CFF",
  "!w c #E6DDA9FF",
  "r6 c #E6E8E4FF",
  ":T c #E6E8E5FF",
  "~3 c #E7CF07FF",
  "q[ c #E7E9E4FF",
  ";Z c #E7E9E5FF",
  "g! c #E7E9E6FF",
  "~l c #E8D006FF",
  "~< c #E8D008FF",
  "!4 c #E8E4CCFF",
  "qD c #E8EAE5FF",
  "}I c #E8EAE6FF",
  ":U c #E9EBE7FF",
  "~- c #EAD104FF",
  ",. c #EAEBE8FF",
  "qg c #EAECE7FF",
  ":Q c #EAECE8FF",
  "3u c #EAECE9FF",
  "~d c #EBD41BFF",
  "~w c #EBD624FF",
  "|r c #EBECE9FF",
  "~r c #ECD620FF",
  "~q c #ECD723FF",
  "q> c #ECEDE9FF",
  "b1 c #EDD400FF",
  "bz c #EDD509FF",
  "}w c #EDEEEBFF",
  "~p c #EED821FF",
  "0) c #EEEFEBFF",
  ";p c #EEF0EDFF",
  "~9 c #EFD81EFF",
  "}# c #EFF0EDFF",
  "0r c #F0F2EEFF",
  "|j c #F1F2EFFF",
  "0@ c #F2F3F0FF",
  "}8 c #F2F3F1FF",
  ";k c #F2F4F1FF",
  "~e c #F3DD2DFF",
  "Xg c #F3F4F1FF",
  "}, c #F3F4F2FF",
  "!L c #F4DD27FF",
  "$< c #F4F4F2FF",
  "0o c #F4F5F2FF",
  ";~ c #F4F5F3FF",
  "0X c #F5F6F3FF",
  "~0 c #F6E031FF",
  "!/ c #F8E238FF",
  "~1 c #FAE540FF",
  "~s c #FAE644FF",
  "~a c #FAE748FF",
  "~2 c #FBE849FF",
  "~@ c #FCE94EFF",
  "c` c #FCE94FFF",
  "   c none",
  
  // Image data
  "                                                                ",
  "                                                                ",
  "      9[9{-,-,-,-,-,-,-,-,-,-,-imV-Y-K,!-^,xmk=<,z=1,j9}9|      ",
  "    >i0.|j0X0X0X0X0X0X;~;~;~;~0o0o$<$<},},},XgXgXg;k}8}w0O5+    ",
  "    >q0+0@0#0$0%0%0&0*0=0-0;0:0>0,0<010203040506070809;p000q    ",
  "    0w0e0r0t0y0u0i!-0a0s0d0S0D0F0G!;!:0z0x0x0c0v0b0n0m0M0N0B    ",
  "    0V0C}#0Z0A0S0D!>0G!;!:0'!,0x0c0v!<!10T0R0E0W0Q0!}$:Q0~0^    ",
  "    0/0(0)0_!20p!3!4!50a0c0b!6!7!<!8!80Q!9!0q@q#q$q%q&q*q=q-    ",
  "    q;q:q>q,q<q1!q!w!e!rqj!tq1q8q9q0q@!yqc!u!iqyquqiqp>{qaqs    ",
  "    qdqfqgqhq<qjqj!p0Qq8q8q9qzqzqxqc!a!s!d!fb1!gqMqNqBqVqCqZ    ",
  "    qAqSqDqFq8qGqH!hq}!j!k!l!z!x!c!v!b!n!m!Mbz!Nq/q(q)6Oq_q`    ",
  "    q'q]q[q{q}q|!Bw.!V!C!Z!A!S!D!F!G!H!H!J!K!L!P!Iw,hx<:w<w1    ",
  "    w20Kw3w4w5!U!Y!Tw5wcw8!R!E!W!Q!Q!!!!!~!^!/!(!)wfwgXLwhwj    ",
  "    wk%|wlwzwxwc!_!`wv!'!]![!{!}!|~.~X~o~O~+~@~#~$wCwZwAwSwD    ",
  "    wFo#wGwHwJwKwJwP~%~&~*~=b1~-~;~:~>~,~<~1~2~3~4wWwQw!.ow~    ",
  "    w^w/5_w(wPw)w_wR~5~6~7wR~8~9~0~q~w~e~2c`~r~tw|e.eXeoeOe+    ",
  "    e@%ee#e$e%e&e*e*~y~yw}w}~u~i~p~ac`c`~s~d~f~ge8e9e0eqewee    ",
  "    er|.eteyeueiepep~h~he6e6e7~j~k~l~z~x~c~v~bevebenemXJeMeN    ",
  "    eBg!eVeCeZeAeAeSeDeFecevebeGeG~n~m~MeJeKeLeLePeIeUeYeTeR    ",
  "    eE,.eWeQe!e~e^e^e~e/e(e(e(e/e/e(e)e_e_e_e`e_e_e'e]e[.re{    ",
  "    e}3ue|r.rXrorOrOr+r@r#r$r%r&r*onr=ojr-r;r:r>r,r<r1r2r3r4    ",
  "    r5.Y|r|r:Q,.:U}I}I;Z:Tr6>{w33}><r7:j>}>},&r84M:f|1r9r0rq    ",
  "    rwre;[>(Nv:;4Y6(rr:8l<:05{:q:i6]6[;D;Ertkc:-ryrurururirp    ",
  "            *!+r@=rarsrdrflWlWlWlWlWlWrgrhrjrk9)*.=N@2@.        ",
  "          @.@2@n+/rlrzrxrcl~l~l~l~l~l~rcrcrvrb*lrn@6*'@B        ",
  "          @N@:+|rmrMrNrBrVrBrCrcrcrCrCrcrZrArSrDrF*.Bi:k        ",
  "          @M@b=N*.rGrHrJhXrKrLrP}GeOrIrUrYrTrR&WrE&V@o&^        ",
  "            &^@:@5+/rWrQr!r~r^r/r/r(r)r_r`r'T2rn@6Bi@B          ",
  "              @.@2+k9b*~9)r]r[r{r}r|t.&W:drn+/+|+r@N            ",
  "                  @.+>@m=N*Q@6*.+/+/*.&V+|*':k@X                ",
  "                        +j@.@N&^@C&^@N@.+j                      ",
  "                                                                "
};
