/* XPM */
const char *xpm_tango_apps_preferences_desktop_theme[] = {
  // Header (width height colors chars-per-pixel)
  "32 32 306 2",
  
  // Colors (code mode value)
  "+j c #00000001",
  "@M c #00000002",
  "@. c #00000003",
  "@X c #00000004",
  "@N c #00000005",
  "&^ c #00000006",
  "*! c #00000008",
  "@B c #0000000A",
  "@b c #0000000D",
  ":l c #0000000F",
  "@o c #00000014",
  "@n c #00000019",
  "+| c #0000001B",
  "@= c #0000001C",
  "*Q c #0000001D",
  "@6 c #00000020",
  "*. c #00000022",
  "+N c #00000026",
  "rE c #00000029",
  "*^ c #0000002E",
  "T2 c #00000032",
  "*l c #00000035",
  "rD c #00000038",
  ":h c #0000003B",
  "~W c #15325CFF",
  "~Q c #15325DFF",
  "~! c #15335EFF",
  "~[ c #193A6BFF",
  "~{ c #193C6EFF",
  "~} c #193D70FF",
  "/N c #20232358",
  "/s c #2312231D",
  "/B c #23282A6D",
  ",c c #2B2B2B0C",
  "l* c #2E3436FF",
  "lS c #2F3537FF",
  "2} c #3465A4FF",
  "/u c #351E3C66",
  "~C c #3565A4FF",
  "Wn c #3667A5FF",
  "~V c #3767A4FF",
  "^O c #3867A5FF",
  "1f c #3868A5FF",
  "/: c #393F3FFF",
  "^z c #3968A7FF",
  "/v c #3A4040FF",
  "^f c #3A6AA7FF",
  "^w c #3B66A3FF",
  "^9 c #3B69A8FF",
  "/* c #3C4042FF",
  "/> c #3C4141FF",
  "/n c #3C4143FF",
  "Wm c #3C6BA7FF",
  "^d c #3C6CA9FF",
  "^X c #3D6DAAFF",
  "/i c #3F244679",
  "/% c #3F4344FF",
  "~~ c #3F5D86FF",
  "/0 c #405690FF",
  "^l c #406BA6FF",
  "/r c #41558EFF",
  "^g c #4166A2FF",
  "/5 c #434849FF",
  "^- c #4373AEFF",
  "/2 c #44494BFF",
  "/t c #456A99DF",
  "W= c #4572ABFF",
  "~Z c #4770A3F5",
  "^Z c #4976AFFF",
  "^A c #4977AFFF",
  "^y c #4977B0FF",
  "^4 c #4A7BB5FF",
  "~T c #4B73A6F4",
  "^m c #4B79B2FF",
  "~| c #4C6D97FF",
  "~I c #4D74A2E7",
  "/3 c #4E514EFF",
  "/4 c #4E524EFF",
  "/& c #4F5351FF",
  "~B c #4F75A5ED",
  "^[ c #4F78ADFF",
  "~` c #4F7BB3FF",
  "^n c #4F7DB5FF",
  "^e c #505A91FF",
  "/o c #5079AEFF",
  "^5 c #507FB6FF",
  "j~ c #517BB0FF",
  "~P c #5180B7FF",
  "^~ c #527CB0FF",
  "^! c #537DB1FF",
  ":8 c #545753FF",
  "~E c #546B8BFF",
  "^Q c #547EB2FF",
  "^= c #5587BFFF",
  "^W c #567FB3FF",
  "^` c #5680B4FF",
  "~/ c #57779FBC",
  "~Y c #5777A1BB",
  "^: c #5782B7FF",
  "^_ c #5882B5FF",
  "^D c #5983B6FF",
  "^k c #5A3C6DFF",
  "~S c #5A7AA4C7",
  "^S c #5A84B7FF",
  "^) c #5A84B8FF",
  "/8 c #5B5E5AFF",
  "^u c #5B88BDFF",
  "P+ c #5C3566FF",
  "^' c #5C3666FF",
  "/9 c #5C5F5BFF",
  "^r c #5C88BDFF",
  "^E c #5D3E70FF",
  "^U c #5D4071FF",
  "^C c #5D5C8DFF",
  "^I c #5D87BAFF",
  "^; c #5D8BC1FF",
  "/q c #5E3C6CFF",
  "^h c #5E3F70FF",
  "^P c #5E89BBFF",
  "^M c #5F5B8DFF",
  "^c c #5F8ABCFF",
  "^L c #5F8ABDFF",
  "/e c #603E6EFF",
  "~A c #60799F28",
  "~U c #607B9B38",
  "/X c #607FA8FF",
  "^x c #608BBEFF",
  "^N c #623C6CFF",
  "^V c #633E6CFF",
  "^q c #638CBEFF",
  "^. c #6392C5FF",
  "~( c #647D9B3D",
  "^3 c #6494C8FF",
  "~) c #658DBEFF",
  "^i c #6591C3FF",
  "^B c #66406EFF",
  "/y c #666964FF",
  "~N c #66809914",
  "^o c #668FBFFF",
  "~D c #678BBAFF",
  "AR c #6792C4FF",
  "~^ c #6794C7FF",
  "^t c #6797CAFF",
  "^j c #6B4572FF",
  "^6 c #6C98C9FF",
  "^8 c #6C9ACBFF",
  "5l c #6D6F6BFF",
  "^s c #6D9ACAFF",
  "/a c #6F736DFF",
  "^Y c #714B78FF",
  "^R c #714C78FF",
  "/m c #717373FF",
  "'~ c #729FCFFF",
  "^% c #7392BAFF",
  "^+ c #7397C4FF",
  "/c c #747677FF",
  "^] c #754F7BFF",
  "^T c #75507BFF",
  "/1 c #76517CFF",
  "^$ c #7794BCFF",
  "^2 c #77A1CFFF",
  "/d c #797D76FF",
  "^# c #7995BAFF",
  "^& c #7998BEFF",
  "~L c #79A2CFFF",
  "^1 c #7A9FCBFF",
  "/O c #7B5881FF",
  "/f c #7B7F78FF",
  "/k c #7C8079FF",
  "~] c #7D95B4FF",
  "/; c #7F8081FF",
  "/p c #7F827DFF",
  "/, c #808384FF",
  "~_ c #81A6CFFF",
  "B* c #828381FF",
  "Fg c #82A6CFFF",
  "^< c #83A5CFFF",
  "^* c #83A8D2FF",
  "Ve c #83AAD5FF",
  "/+ c #846389FF",
  "/. c #84909DFF",
  "/b c #868A88FF",
  "7N c #86A2C7FF",
  "~' c #87A7CDFF",
  "^^ c #88A4C8FF",
  "~K c #88ACD3FF",
  "^, c #89ADD4FF",
  "^F c #8CA9CCFF",
  "^0 c #8CAED5FF",
  "^> c #8CAFD5FF",
  "/@ c #8D6F92FF",
  "/M c #919191DE",
  "pb c #919191FF",
  "RH c #91948EFF",
  "^v c #91ADD0FF",
  "~R c #91AED1FF",
  "^{ c #92929238",
  ">G c #929292FF",
  "^K c #93ACC9FF",
  "/w c #947999FF",
  "/x c #949494D4",
  "=v c #949494FF",
  "^J c #949598FF",
  "^@ c #94ADCCFF",
  "<' c #959595FF",
  "^p c #95B3D4FF",
  "^} c #969696BB",
  "<I c #969696FF",
  "~J c #96B5D7FF",
  "/# c #977B9BFF",
  ",F c #979797FF",
  "^( c #979A9DFF",
  "^b c #97B6D7FF",
  ";f c #989898FF",
  "^G c #99999914",
  "^| c #999A9CFF",
  "^7 c #99B8D9FF",
  "^/ c #9A9A9AC7",
  "^H c #9A9A9AED",
  ":^ c #9A9A9AFF",
  "4q c #9AB8D9FF",
  ",D c #9B9B9BFF",
  "f5 c #9B9E99FF",
  "^a c #9BBADBFF",
  "K& c #9C9C9CF4",
  ",J c #9C9C9CFF",
  ">P c #9E9E9EFF",
  "/= c #9E9E9FFF",
  "Fu c #9EBCDDFF",
  "'j c #9EBDDEFF",
  "/$ c #A086A4FF",
  "6} c #A1A1A1FF",
  ";I c #A2A2A2FF",
  "6| c #A3A3A3FF",
  "=C c #A4A4A4FF",
  "/g c #A4A7A2FF",
  "/l c #A4A8A4FF",
  "~H c #A4BEDBFF",
  "/z c #A7A9A6FF",
  "/6 c #A891ABFF",
  "<Q c #A8A8A8FF",
  "/- c #A992ADFF",
  "<b c #ACACACFF",
  "<v c #ADADADFF",
  "/h c #ADAFABFF",
  "/< c #B29EB5FF",
  "~G c #B2C7DFFF",
  ";8 c #B4B4B4FF",
  "/7 c #B5A2B9FF",
  "6{ c #B5B5B5FF",
  "/j c #B5B8B4FF",
  ",S c #B7B7B7FF",
  "~F c #B8CAE0FF",
  "0L c #B9BBB7FF",
  ",G c #BABABAFF",
  "5> c #BBBBBBFF",
  "<W c #BDBDBDFF",
  "H, c #BECFE3FF",
  ";= c #BFBFBFFF",
  ";g c #C0C0C0FF",
  ";U c #C1C1C1FF",
  ";Z c #C2C2C2FF",
  ":6 c #C4C4C4FF",
  ":7 c #C8C8C8FF",
  ">x c #C9C9C9FF",
  "+a c #CBCBCBFF",
  "#+ c #CCCCCCFF",
  ";_ c #CECECEFF",
  "+v c #D0D0D0FF",
  "+b c #D1D1D1FF",
  ",, c #D3D3D3FF",
  ",n c #D4D4D4FF",
  ":o c #D5D5D5FF",
  ",N c #D6D6D6FF",
  ",M c #D7D7D7FF",
  ",B c #D8D8D8FF",
  ",b c #D9D9D9FF",
  ",m c #DADADAFF",
  ",v c #DBDBDBFF",
  ",^ c #DCDCDCFF",
  "=b c #DDDDDDFF",
  "=[ c #DEDEDEFF",
  "&_ c #E0E0E0FF",
  "+Z c #E1E1E1FF",
  "+A c #E2E2E2FF",
  "+S c #E3E3E3FF",
  "&I c #E4E4E4FF",
  ";b c #E6E6E6FF",
  ";G c #E7E7E7FF",
  ":# c #E8E8E8FF",
  ":2 c #E9E9E9FF",
  ",$ c #EAEAEAFF",
  ":, c #EBEBEBFF",
  ":> c #ECECECFF",
  ";A c #EFEFEFFF",
  ";T c #F0F0F0FF",
  ";` c #F1F1F1FF",
  ";' c #F2F2F2FF",
  ":O c #F3F3F3FF",
  ":3 c #F4F4F4FF",
  "=a c #F5F5F5FF",
  "+W c #F6F6F6FF",
  ":9 c #F7F7F7FF",
  ";R c #F8F8F8FF",
  ";S c #F9F9F9FF",
  "   c none",
  
  // Image data
  "                                                                ",
  "                                ~N~B~V2}2}2}2}2}~C~Z~A          ",
  "                                ~S~D~FH,~G~H~J~K~L~P~I          ",
  "                          ~U~Y~TWm~R~E~W~Q~!~!~Q~~~^Wn~T~/~(    ",
  "                          1f~)~_~`~'~]~[~{~}~}~{~|^.^XFg^o^O    ",
  "                          2}'jVe~P^+4q^@^#^$^%^&^*^=^-VeFu2}    ",
  "                          2}'j'~^;^:^>^,^<j~^1^2^3^4^5^6^72}    ",
  "                          2}'j'~^8^9^0^q^w^e^w^r^t^y^u^i^p2}    ",
  "                          2}^a^s^6^d^f^g^h^j^k^lW=^z^x^c^v2}    ",
  "                          2}^bAR^i^n^m^M^N^B^V^C^Z^A^S^D^F2}    ",
  "        ^G^H<'=v=v=v=v=v<'^J^K^x^L^P^I^U^Y^T^R^E^W^Q^!^~^^2}    ",
  "        ^/6{:2:>:#&I&_,^,M;8^(^)^D^_^`^'^]^T^TP+^[^[^[^[7N2}    ",
  "  ^{^}K&:^,n;U6|;I6}6};I<W;_<I^|/./X/oP+/O^T/OP+^[^[^[^[7N2}    ",
  "  <'>x;G<v+b:o:^;f,F,F;f;U#+>P;G+a<'^[P+/+^T/+P+^[^[^[^[7N2}    ",
  "  =v;S:O,G:7+S;b,,+b+b,^;G;Z<Q:O;S=v^[P+/@^T/@P+^[^[^[^[7N2}    ",
  "  =v;S;A+v,S&_=[,^6{,b=b+b;8;=,$:9=v^[P+/#^T/#P+^[^[^[^[7N2}    ",
  "  =v;S;A;G,D;G:6pbB*>G;g,N<b:o;b=a=v^[P+/$^T/$P+^[^[^[^[7N2}    ",
  "  =v;R:,,$6},J=v/%/&/*/==C:^+A+Z:O=v^[P+/-^T/-P+^[^[^[^[7N2}@.  ",
  "  =v+W;G;b;U5>/;/:/>/>/,5><W=b=b;'=v^[P+/</1/<P+^[^[^[^[7N2}+|  ",
  "  =v:3+A+Z+Z&_/2/3:8/4/5,v,m,b,B;T=v7NP+/6/7/-P+7N7N7N7N7N~CrE@N",
  "  =v;'=[=b,^,vlS/8/9/9l*,N,N,N,N;A=v2}/0/q/w/e/r2}2}2}2}2}/trE@.",
  "  =v;`,b,B,M,Ml*5l/y5ll*,N,N,N,N;A=vrDrD/uP+/irDrDrDrDrD*l*^:l  ",
  "  =v;A,N,N,N,Nl*/p/a/pl*,N,N,N,N;A=v@o@o@o/s@o@o@o@o@o@o:l&^    ",
  "  =v;A,N,N,N,Nl*RH/dRHl*,N,N,N,N;A=v                            ",
  "  =v;A,N,N,N,Nl*f5/ff5l*,N,N,N,N;A=v                            ",
  "  =v;A,N,N,N,Nl*/g/f/gl*,N,N,N,N;A=v                            ",
  "  =v;A,N,N,N,Nl*/h/f/hl*,N,N,N,N;A=v@=@X                        ",
  "*!=v;A,N,N,N,Nl*/j/k/jl*,N,N,N,N;A=vT2@o                        ",
  "@b=v;A;A;A;A;Al*/l0L/zl*;A;A;A;A;A=v:h@n                        ",
  "@N/x=v=v=v=v=v/c/v/b/n/m=v=v=v=v=v/M*^*!                        ",
  "  @B*Q+N+N+N+N+N/Nl*/B+N+N+N+N+N*.@6@B                          ",
  "      @M@M@M@M@M@M,c@M@M@M@M@M@M+j                              "
};
