/* XPM */
const char *xpm_tango_apps_preferences_desktop_locale[] = {
  // Header (width height colors chars-per-pixel)
  "32 32 306 2",
  
  // Colors (code mode value)
  "+j c #00000001",
  "@M c #00000002",
  "@. c #00000003",
  "@X c #00000004",
  "@N c #00000005",
  "@C c #00000007",
  "@B c #0000000A",
  ":k c #0000000C",
  "@: c #00000010",
  "*' c #00000015",
  "Bi c #00000017",
  "=N c #00000018",
  "@n c #00000019",
  "@5 c #0000001A",
  "@= c #0000001C",
  "*Q c #0000001D",
  "9b c #0000001E",
  "rE c #00000029",
  "rn c #0000002A",
  "9) c #0000002C",
  "Uh c #0008001E",
  "Ug c #0A0A0019",
  "Ue c #1A30003A",
  "U* c #1B360354",
  "U& c #264C0264",
  "U= c #284D0265",
  "U- c #3163047B",
  "U% c #3466047A",
  "Ur c #3568055F",
  "U; c #3A730590",
  "IA c #3D224542",
  "Ut c #3F7E0585",
  "Ct c #40408004",
  "U$ c #417E079A",
  "IV c #45274D8E",
  "U: c #468307AB",
  "Uw c #478A0748",
  "Ua c #4E9906FF",
  "P! c #4E9A06FF",
  "Uq c #4F9A05AD",
  "PQ c #4F9B074A",
  "PR c #50970820",
  "PE c #50990723",
  "PW c #509C0536",
  "Us c #509C07FC",
  "P2 c #513755FF",
  "Uy c #519309B8",
  "Up c #519B07FC",
  "U< c #519B08F8",
  "Uf c #529606BB",
  "PL c #529B0AFF",
  "U1 c #529C0CFD",
  "U> c #53950DCB",
  "Pj c #539B0CFF",
  "Ui c #539C07F7",
  "IC c #552B6A0C",
  "Pc c #55742CFF",
  "U# c #559E09EF",
  "Pv c #566639FF",
  "U, c #569B0CE4",
  "Ud c #569D09EA",
  "Ph c #569D0FFF",
  "Pe c #573B5BFF",
  "Uu c #579D0AE5",
  "PT c #584B50FF",
  "Px c #588223FF",
  "Pk c #589B13FF",
  "LP c #5A376433",
  "I% c #5AA30CFA",
  "IZ c #5B346599",
  "Lj c #5B346754",
  "LJ c #5B35675C",
  "LI c #5B376646",
  "P1 c #5B405FFF",
  "Pb c #5B5A4CFF",
  "U@ c #5BA40DFC",
  "LK c #5C346745",
  "Lh c #5C35667E",
  "P+ c #5C3566FF",
  "LD c #5C3666FC",
  "IM c #5C3666FE",
  "LL c #5C36672F",
  "Pr c #5C3E61FF",
  "P3 c #5C4160FF",
  "Pz c #5C901EFF",
  "PP c #5C9718FF",
  "Pl c #5C981BFF",
  "PK c #5CA114FF",
  "I$ c #5CA411FB",
  "LU c #5D346558",
  "Lp c #5D3667FD",
  "Li c #5D3768FC",
  "Lk c #5D386429",
  "LH c #5D39687D",
  "PM c #5D9B18FF",
  "Lz c #5E386974",
  "Lt c #5F36675D",
  "Ik c #5F3969FC",
  "LY c #60306010",
  "P@ c #603969FC",
  "LF c #603B69EA",
  "I/ c #60A61BFC",
  "I& c #60A90DFA",
  "Lx c #613B6BF2",
  "La c #613B6BF7",
  "Pt c #614266FF",
  "Lg c #623D6BA2",
  "IB c #623E6BE4",
  "PI c #62862FFF",
  "PN c #62A718FF",
  "LG c #633F6BBE",
  "Ls c #633F6DEB",
  "Ld c #643F6EDA",
  "Lf c #64406CC1",
  "Pn c #644E61FF",
  "IN c #65406EFC",
  "Lu c #65406FE7",
  "Pg c #659B23FF",
  "I# c #66A91DFF",
  "I7 c #66BA15FF",
  "Ii c #66BB15FF",
  "Ly c #67426FBE",
  "LS c #67456FFA",
  "Py c #67466CFF",
  "P< c #674A6CFF",
  "IE c #67BA16FF",
  "PU c #68714DFF",
  "U2 c #68A923FC",
  "I( c #68AD23FC",
  "Po c #694472FB",
  "I8 c #6ABD1CFF",
  "Ip c #6AC018FF",
  "PO c #6B4674FB",
  "PX c #6B4874FA",
  "I^ c #6BAD24FC",
  "Pu c #6C4972FF",
  "P4 c #6C5171FF",
  "I6 c #6CC01BFF",
  "Lc c #6D4B76FD",
  "Ia c #6FC51BFF",
  "P. c #704F79FC",
  "I@ c #70B127FF",
  "Pi c #714D77FF",
  "PY c #716F5FFF",
  "Pf c #729343FF",
  "P, c #735578FF",
  "PJ c #73B231FF",
  "I5 c #73C622FF",
  "Is c #73CA1EFF",
  "I~ c #74B72EFD",
  "I+ c #74B92EFF",
  "L| c #76577DFD",
  "U3 c #76B733FE",
  "Pp c #77517DFF",
  "L} c #77587EFF",
  "Id c #77CF22FF",
  "P5 c #785E7CFF",
  "I9 c #78C62EFF",
  "LA c #795B80FC",
  "I) c #79B936FD",
  "IR c #79C52FFF",
  "I4 c #7ACC29FF",
  "U0 c #7AD225FF",
  "Pm c #7B7C66FF",
  "Uo c #7BD029FF",
  "If c #7BD325FF",
  "Pa c #7C5482FF",
  "UO c #7CD327FF",
  "UX c #7DCE2FFF",
  "U4 c #7EC13EFF",
  "P> c #7F5F84FF",
  "P6 c #7F6383FF",
  "Ig c #7FD828FF",
  "Ll c #80008002",
  "Pw c #805B86FF",
  "Ij c #805C86FF",
  "P7 c #806285FF",
  "I3 c #80D32FFF",
  "Iz c #815C87FF",
  "P$ c #815D87FF",
  "P8 c #816187FF",
  "L{ c #816686FF",
  "IO c #81C341FF",
  "P0 c #825C88FF",
  "P9 c #826088FF",
  "Pq c #835B8AFF",
  "I0 c #83CD3BFF",
  "Iu c #83DC2AFF",
  "IS c #83DC2BFF",
  "Ih c #83DD2BFF",
  "I! c #84C542FF",
  "ID c #84DC2CFF",
  "I- c #84DC2DFF",
  "U+ c #84DD2DFF",
  "U. c #85CE3EFF",
  "U9 c #85DA33FF",
  "I_ c #86C348FF",
  "I2 c #87D936FF",
  "It c #87DE32FF",
  "Iy c #87E22FFF",
  "In c #886A8FFF",
  "U5 c #88CC47FF",
  "Iq c #88D240FF",
  "Iw c #88D53EFF",
  "Ie c #88D73BFF",
  "Ir c #88DA37FF",
  "P% c #89648FFF",
  "PB c #89CC4AFF",
  "I; c #89E033FF",
  "Pd c #8A8679FF",
  "PH c #8AC351FF",
  "P~ c #8AD046FF",
  "IT c #8BD049FF",
  "P: c #8C6A91FF",
  "Ix c #8C6B91FF",
  "LZ c #8C7391FF",
  "LT c #8D6E92FF",
  "U6 c #8DD34AFF",
  "U8 c #8DDC3FFF",
  "I1 c #8DDF3CFF",
  "U7 c #8ED745FF",
  "L[ c #8F7993FF",
  "I| c #8FCF51FF",
  "IF c #8FDF3FFF",
  "I: c #8FE53BFF",
  "Lv c #917498FF",
  "P& c #926D98FF",
  "Io c #92CC5AFF",
  "I` c #92CC5CFF",
  "I< c #94E543FF",
  "I> c #96E943FF",
  "Ib c #977B9CFF",
  "P' c #97E24EFF",
  "P; c #98759DFF",
  "L) c #98829CFF",
  "P] c #98DE53FF",
  "L( c #997F9DFF",
  "LC c #99829EFF",
  "IQ c #99D958FF",
  "P[ c #99DB59FF",
  "P` c #99E64BFF",
  "P( c #99E74EFF",
  "P* c #9A75A0FF",
  "PG c #9ACE67FF",
  "IY c #9AD85DFF",
  "P) c #9AEA4BFF",
  "I, c #9BEC4AFF",
  "LW c #9C7BA2FF",
  "L/ c #9C7FA0FF",
  "L_ c #9C899FFF",
  "P_ c #9CEC4CFF",
  "Iv c #9D82A1FF",
  "I} c #9DD36AFF",
  "P{ c #9DD962FF",
  "LQ c #9E7BA4FF",
  "I* c #9E84A2FF",
  "LE c #9F81A4FF",
  "Ps c #9F84A3FF",
  "P# c #9F85A3FF",
  "L` c #9F90A2FF",
  "P/ c #9FE559FF",
  "Ic c #A083A5FF",
  "L] c #A08EA2FF",
  "I' c #A0D36FFF",
  "IW c #A0E25FFF",
  "IG c #A0E65BFF",
  "L^ c #A181A6FF",
  "PV c #A1DC68FF",
  "Im c #A1E361FF",
  "L' c #A295A5FF",
  "Il c #A2E362FF",
  "I= c #A2E363FF",
  "P= c #A37EA9FF",
  "PF c #A3D672FF",
  "P} c #A3D96EFF",
  "L! c #A47FAAFF",
  "P- c #A480AAFF",
  "LV c #A48FA9FF",
  "LR c #A58BAAFF",
  "IX c #A5D675FF",
  "IU c #A5E06CFF",
  "P^ c #A7E669FF",
  "L~ c #A885AEFF",
  "Lb c #A88EADFF",
  "P| c #A8D978FF",
  "I. c #ACD980FF",
  "I] c #ACD981FF",
  "PD c #ACDC7EFF",
  "IH c #AFEC73FF",
  "LB c #B09BB3FF",
  "I{ c #B0DB86FF",
  "I[ c #B0DB87FF",
  "II c #B0E67CFF",
  "PS c #B4E386FF",
  "PC c #B6EB83FF",
  "IP c #B9EB87FF",
  "IJ c #B9F082FF",
  "Ln c #BCA4C0FF",
  "LN c #BCA7C0FF",
  "PA c #BCEA8FFF",
  "IL c #C0EF91FF",
  "IK c #C1F390FF",
  "PZ c #C3F195FF",
  "LM c #C6B2CAFF",
  "Lm c #CAB5CDFF",
  "   c none",
  
  // Image data
  "                                                                ",
  "              +j+j                                              ",
  "      CtLtLyLuLiLpLaLsLdLfLgLhLjLkCt                            ",
  "  LlLzLxLcLvLbLnLmLMLNLBLVLCLZLALSLDLFLGLHLJLKLLLPLILU          ",
  "  LYLpLTLRLELWLQL!L~L^L/L(L)L_L`L'L]L[L{L}L|P.PXPoPOP+          ",
  "  LYP@P#P$P%P&P*P=P-P;P:P>P,P<P1P2P3P4P5P6P7P8P9P0PqP+          ",
  "  LYP@P#PwP%P&P*P=P-P;P:P>P,P<P1P2PePrPtPyPuPiPpPaPqP+          ",
  "  LYP@P#PwP%P&P*P=P-P;P:P>P,P<P1P2PePrPtPyPuPiPpPaPqP+          ",
  "  LYP@P#PwP%P&P*P=P-P;P:P>P,P<P1P2PePrPtPyPuPiPpPaPqP+          ",
  "  LYP@PsPwP%P&P*PdPfPgPhPjPkPlPzPxPcPvPbPnPuPiPpPaPqP+          ",
  "  LYP@PsPwP%PmPMPNPBPVPCPZPAPSPDPFPGPHPJPKPLPPPIPUPYPTPRPEPWPQ  ",
  "  LYP@PsPwP%P!P~P^P/P(P)P_P`P'P]P[P{P}P|I.IXIoIOI+I@I#I$I%I&P!  ",
  "  LYP@I*PwP%P!I=I-I;I:I>I,I<I1I2I3I4I5I6I7I8I9I0IqIwIeIrItIyP!  ",
  "  LYP@I*PwP%P!I=IuI;I:I>I,I<I1I2I3I4I5I6I7IiIpIaIsIdIfIgIhIyP!  ",
  "  LYP@I*IjP%P!I=IuI;I:I>I,I<I1I2I3I4I5I6I7IiIpIaIsIdIfIgIhIyP!  ",
  "  LYP@I*IjP%P!I=IuI;I:I>I,I<I1I2I3I4I5I6I7IiIpIaIsIdIfIgIhIyP!  ",
  "  LYIkI*IjP%P!IlIuI;I:I>I,I<I1I2I3I4I5I6I7IiIpIaIsIdIfIgIhIyP!  ",
  "  LYIkI*IzP%P!IlIuI;I:I>I,I<I1I2I3I4I5I6I7IiIpIaIsIdIfIgIhIyP!  ",
  "  LYIkI*IxIcP!IlIuI;I:I>I,I<I1I2I3I4I5I6I7IiIpIaIsIdIfIgIhIyP!  ",
  "  LYIkIvIbInP!ImIuI;I:I>I,I<I1I2I3I4I5I6I7IiIpIaIsIdIfIgIhIyP!  ",
  "  LYIMINIBIVP!ImIuI;I:I>I,I<I1I2I3I4I5I6I7IiIpIaIsIdIfIgIhIyP!  ",
  "  ICIZIArE9)P!ImISI;I:I>I,I<I1I2I3I4I5I6I7IiIpIaIsIdIfIgIhIyP!  ",
  "      @BBi@5P!ImISI;I:I>I,I<I1I2I3I4I5I6I7IiIpIaIsIdIfIgIhIyP!@.",
  "        @M@NP!ImISI;I:I>I,I<I1I2I3I4I5I6I7IiIpIaIsIdIfIgIhIyP!@:",
  "            P!ImIDI;I:I>I,I<I1I2I3I4I5I6I7IiIpIaIsIdIfIgIhIyP!@5",
  "            P!ImIFIGIHIJIKILIPIIIUIYITIRIEIiIpIaIsIdIfIgIhIyP!9b",
  "            P!IWIQI!I~I^I/I(I)I_I`I'I]I[I{I}I|U.UXUoUOIgU+IyP!*Q",
  "            P!U@U#U$U%U&U*U=U-U;U:U>U,U<U1U2U3U4U5U6U7U8U9U0P!*'",
  "            UqUw@=rnrnrnrnrnrnrnrnrnrnrnUeUrUtUyUuUiUpUaUsUdUf@X",
  "                :k=N=NBiBiBiBiBiBiBiBiBiBiBiBiBiBiBiBiUgUh@n@C  ",
  "                  @.@X@.@.@.@.@.@.@.@.@.@.@.@.@.@.@.@.@.@N+j    ",
  "                                                                "
};
