/* XPM */
const char *xpm_tango_apps_system_software_update[] = {
  // Header (width height colors chars-per-pixel)
  "32 32 500 2",
  
  // Colors (code mode value)
  "+j c #00000001",
  "@M c #00000002",
  "@X c #00000004",
  "&^ c #00000006",
  "*! c #00000008",
  "@b c #0000000D",
  "@2 c #0000000E",
  "@V c #00000011",
  "*' c #00000015",
  "=N c #00000018",
  "9b c #0000001E",
  "+/ c #00000023",
  "+N c #00000026",
  "rn c #0000002A",
  "rF c #0000002D",
  "=( c #00000033",
  "9c c #0000003A",
  "B% c #0000003D",
  "*( c #00000042",
  "*z c #00000043",
  "*9 c #00000046",
  "+1 c #00005503",
  ".F c #00008002",
  "NE c #0000FF01",
  ".' c #002B5506",
  "O: c #00404004",
  "O< c #00555503",
  "X| c #0D406614",
  "X, c #0F3C6911",
  "OB c #1039693F",
  "o} c #103A6530",
  "O> c #103A6860",
  "X* c #103A6B1F",
  ".I c #10406010",
  "oU c #11396667",
  "om c #11396693",
  "O, c #113A645C",
  "Xa c #113C654C",
  ".b c #113C661E",
  "O. c #12376445",
  "ON c #1237672A",
  "op c #12376D0E",
  "oX c #123A66C1",
  "o. c #123A66C6",
  "XT c #123A66CF",
  "X; c #123A66FA",
  "._ c #123A66FE",
  "o2 c #123A67B8",
  "Xi c #123A67EC",
  "ou c #123B66AA",
  "XV c #123B66AD",
  "X> c #123B66D4",
  "XC c #123B66DE",
  "Ou c #123B6757",
  ".H c #123B6763",
  "XY c #123B67CC",
  ".M c #123D672A",
  "OU c #13396028",
  "o| c #13396579",
  "oT c #13396628",
  "oM c #133A6696",
  "X: c #133A66F5",
  "oi c #133A67A4",
  ".` c #133A67B3",
  "XZ c #133A67BA",
  ".m c #133A687B",
  "oY c #133B6687",
  ".) c #133B66E5",
  "X= c #133B6792",
  ".J c #133B67A1",
  ".( c #133B67A3",
  ".K c #133B67DF",
  "Xp c #133B67E7",
  "X- c #133B67F4",
  ".L c #133B67FF",
  ".n c #133C685D",
  "Xu c #14396574",
  "XR c #14396667",
  "O} c #143B620D",
  "o1 c #143B621A",
  ".P c #143B68B6",
  "oo c #143C6433",
  "-= c #15356018",
  "Oi c #15376725",
  ".G c #15396A24",
  "D( c #173A5D16",
  "NW c #1C397109",
  "+s c #29294F44",
  "+Q c #353535AA",
  "+r c #36366234",
  "X< c #38386B83",
  "Xe c #38386B8C",
  "+3 c #38386BBE",
  "./ c #38386C49",
  "O( c #38386C7B",
  "O* c #38386C95",
  "Xm c #38386D4D",
  ".N c #39396B43",
  "O| c #39396B70",
  "Op c #39396BC5",
  "oe c #39396BD8",
  ".D c #39396C47",
  "X$ c #39396C8B",
  ".S c #39396C99",
  "+8 c #39396CC2",
  "oR c #39396CCB",
  "XA c #39396CCE",
  ".Y c #39396CCF",
  ".V c #39396CD4",
  ".A c #39396CD5",
  "oN c #39396CE8",
  "oa c #39396CE9",
  ".C c #39396CEF",
  ".Z c #39396CF0",
  "O1 c #3A3A6B39",
  "+* c #3A3A6B77",
  "Oe c #3A3A6C42",
  ".] c #3A3A6C84",
  "oO c #3A3A6C92",
  "Ov c #3A3A6CCC",
  ".U c #3A3A6D46",
  "OY c #3A3A6D73",
  ".B c #3A3A6D96",
  "o: c #3A3A6D9B",
  "oc c #3A3A6DF2",
  "+l c #3B3B3B98",
  "+2 c #3B3B6C34",
  "+9 c #3B3B6D38",
  "XE c #3B3B6E41",
  "SB c #3D6DA5FF",
  "+t c #3E3E58FF",
  "O! c #3E72ADFF",
  "+h c #41414189",
  "+i c #42426EFF",
  "++ c #42679DFF",
  "+O c #426BA1FF",
  "nO c #434343FF",
  "OJ c #434373FE",
  "+k c #444444FB",
  "nX c #444444FC",
  "+E c #444444FD",
  "n+ c #444444FF",
  "OQ c #4477B1FF",
  "+U c #45454568",
  "+& c #454574FD",
  "OV c #454575FC",
  "+R c #4646468E",
  "+T c #464646F7",
  "+z c #4747476B",
  "+x c #474747D0",
  "+Y c #474747D1",
  "+c c #474747FF",
  "Sp c #4779B2FF",
  "+a c #48486FFF",
  "+u c #484874FF",
  "+v c #494949A1",
  "SW c #496D9BFF",
  "Sn c #497BB3FF",
  "<+ c #4A4A4A18",
  "+y c #4A4A70FF",
  "Xn c #4B4B78FF",
  "O/ c #4B4B79FF",
  "+@ c #4B6898FF",
  "S2 c #4B7DB5FF",
  "Ow c #4C4C7AFF",
  "X# c #4D4D7BFF",
  "OW c #4D75A2FF",
  "2t c #4E4E4E0D",
  "+4 c #4E4E7CFF",
  "o` c #4E698EFF",
  "+o c #4E70A2FF",
  "OT c #4F4F7CFF",
  "Sc c #4F80B7FF",
  "Xs c #52527EFE",
  "O2 c #53537FFF",
  "+d c #55000006",
  "#P c #55555503",
  "SX c #5585BAFF",
  "Ok c #5685BBFF",
  "X] c #57577EFF",
  ".[ c #585884FE",
  "St c #5A89BDFF",
  "O% c #5C719BFF",
  "OD c #5C89BBFF",
  ".^ c #5D5D87FF",
  "oJ c #5D7590FF",
  "Xw c #5E5E83FF",
  "+# c #5E6F98FF",
  "Oj c #5F8CBFFF",
  "Ox c #616C87FF",
  "OF c #627E9DFF",
  "O0 c #647489FF",
  "OZ c #647FADFF",
  "^i c #6591C3FF",
  "XW c #66668DFF",
  "+X c #667AA4FF",
  "Oh c #6692C3FF",
  ":; c #686868FF",
  "Nv c #6A6A6AFF",
  "O& c #6B6B91FF",
  "Og c #6C96C6FF",
  "t: c #6D6D6DFF",
  "X1 c #6D6D91FF",
  "t1 c #6F6F6FFF",
  "O8 c #6F99C8FF",
  "Oc c #717196FF",
  "Of c #7190B1FF",
  ".T c #727295FF",
  "+% c #727297FF",
  "Os c #7386ADFF",
  "Al c #739CCAFF",
  "+J c #767676EE",
  "+K c #777777EC",
  "Oq c #777C9EFF",
  "O4 c #7799BEFF",
  "O7 c #779FCCFF",
  "O$ c #798594FF",
  ",h c #7A7A7AFF",
  "=1 c #7B7B7BFF",
  ">_ c #7C7C7CFF",
  "+7 c #7C7C9EFF",
  "+$ c #7C7FA0FF",
  "O6 c #7DA4D0FF",
  "OH c #7E7E9FFF",
  "As c #7EA5D0FF",
  "T^ c #80000002",
  "oW c #809BC3FF",
  "+H c #818181D1",
  "+5 c #8181A2FF",
  "Od c #8197B1FF",
  "O^ c #82829AFF",
  "+L c #838383CC",
  "OX c #8383A3FF",
  "o' c #8484A3FF",
  "t< c #858585FF",
  "Oo c #8596B9FF",
  ",! c #868686FF",
  "Oa c #8787A6FF",
  "OS c #8794A4FF",
  "[k c #87ACD5FF",
  "+6 c #8989A7FF",
  "OG c #898D93FF",
  "-v c #8A8A8AFF",
  ";* c #8C8C8CFF",
  ".~ c #8C8CAAFF",
  "-i c #8D8D8DFF",
  "oQ c #8DADD1FF",
  "O~ c #8E9098FF",
  "o) c #8E9FB3FF",
  "2O c #8EB2D9FF",
  "oK c #8F8FACFF",
  "Ol c #909EADFF",
  "+. c #9194A8FF",
  "O5 c #91A1B3FF",
  "oV c #91A3BAFF",
  ">G c #929292FF",
  "+G c #939393AD",
  "ox c #9393ACFF",
  "=v c #949494FF",
  "o; c #9494A1FF",
  "!> c #9494A4FF",
  "O9 c #94A4B5FF",
  "OR c #9696B2FF",
  "o/ c #97B7DCFF",
  "oq c #99A1ABFF",
  "O@ c #99B1CAFF",
  "+P c #9A9A9AA2",
  "OC c #9A9AB5FF",
  "of c #9CB7D4FF",
  "O3 c #9DA0BAFF",
  "OO c #9DB3CBFF",
  "o5 c #9FB7CEFF",
  "o^ c #9FBFE2FF",
  "+D c #A0A0A04B",
  "o4 c #A1AAB8FF",
  "o( c #A2AFBEFF",
  "+F c #A3A3A37F",
  "ow c #A3A3AEFF",
  "ol c #A3ACB6FF",
  "aw c #A4A4A40E",
  "=C c #A4A4A4FF",
  "o~ c #A4C3E5FF",
  "X) c #A5AFBAFF",
  "A6 c #A5C4E6FF",
  "XO c #A7B4CEFF",
  "X@ c #A8A8BDFF",
  "oE c #A8A8BEFF",
  "o@ c #A8B2BEFF",
  "Oz c #A9ABADFF",
  ",* c #AAAAAA18",
  "oC c #AAB6C3FF",
  "o= c #AABACBFF",
  "+I c #ABABAB76",
  "X_ c #ACB6C2FF",
  "XL c #AFAFB8FF",
  "A$ c #B0CDECFF",
  ".R c #B1B1C1FF",
  "o- c #B2BBC6FF",
  "Xo c #B2C5DDFF",
  "oS c #B2CDEAFF",
  "<s c #B3B3B3FF",
  "XX c #B3B8BDFF",
  "X+ c #B4B7CBFF",
  "X7 c #B4BECBFF",
  ".! c #B5B5C8FF",
  "X! c #B5BEC5FF",
  "oA c #B5C3D2FF",
  "X0 c #B5C8DBFF",
  "o6 c #B5CFEAFF",
  "oz c #B6B8BAFF",
  "Xc c #B6BEC7FF",
  "X4 c #B6C1CCFF",
  "oF c #B6D0EDFF",
  "oD c #B7D3F0FF",
  "9m c #B8B8B8FF",
  "lz c #B8BABCFF",
  "Xx c #B8C3D0FF",
  "Z~ c #B8D3F0FF",
  "o+ c #B9B9C7FF",
  "o* c #B9C2CBFF",
  "oZ c #BAC6D4FF",
  "o! c #BBC2CBFF",
  ".| c #BBC2D2FF",
  "Xf c #BCC2CBFF",
  "X9 c #BCD1E7FF",
  "Z^ c #BCD6F3FF",
  "oB c #BDBDCEFF",
  "X3 c #BDC2CCFF",
  "O# c #BDC4CCFF",
  "oG c #BDC5CEFF",
  "od c #BEC6CFFF",
  "X[ c #BF404004",
  "oH c #BFC2C5FF",
  "XD c #BFC3C8FF",
  "X8 c #BFCCDCFF",
  ";Z c #C2C2C2FF",
  ":* c #C3C3C3FF",
  "XJ c #C3D2E3FF",
  "X5 c #C4D0DEFF",
  "Xz c #C5D2E1FF",
  ":= c #C6C6C6FF",
  "o% c #C6CDD4FF",
  "og c #C7DFF8FF",
  ":7 c #C8C8C8FF",
  ">x c #C9C9C9FF",
  ".{ c #C9C9D5FF",
  "OE c #C9CACBFF",
  "o9 c #C9D4E0FF",
  "+p c #CACACBFF",
  "o0 c #CBCFD3FF",
  "o7 c #CBE1FAFF",
  "Xq c #CCD0D4FF",
  "oj c #CDE1F7FF",
  "+S c #CECECE2A",
  "pb c #CECECEF8",
  "+n c #D0D0D077",
  "X6 c #D0D3D5FF",
  "ok c #D1D5DAFF",
  "&Z c #D1D6DCFF",
  "Xl c #D1E2F5FF",
  "XS c #D2D2DAFF",
  ".E c #D2D2DCFF",
  "XF c #D2DEEAFF",
  "+b c #D3D3D317",
  "CD c #D3D3D8FF",
  "X` c #D3D6D9FF",
  "ZH c #D3E6FAFF",
  "oh c #D3E6FBFF",
  "o$ c #D4E6F9FF",
  "+B c #D5D5D5ED",
  "XH c #D5E6F8FF",
  ",N c #D6D6D6FF",
  "O+ c #D6DADDFF",
  "X( c #D6DADEFF",
  "+V c #D7D7D7EB",
  ",M c #D7D7D7FF",
  "X/ c #D7E7FAFF",
  "X& c #D827270D",
  "Xb c #D8D8DAFF",
  "OA c #D8D9D9FF",
  "o8 c #D8EAFCFF",
  "XN c #D92B2B36",
  ".Q c #D9D9E0FF",
  "8j c #D9DADBFF",
  "X~ c #D9E8F7FF",
  "o# c #D9EBFEFF",
  "ov c #DA2B2B30",
  "Xk c #DAE9F9FF",
  "XB c #DB2A2A2B",
  "Xg c #DBDDDFFF",
  "Xh c #DBE9F7FF",
  "on c #DC292976",
  "o< c #DC2B2B24",
  "Xr c #DC2C2C1D",
  ",^ c #DCDCDCFF",
  "Xj c #DCE9F9FF",
  "Z6 c #DCEDFFFF",
  "oL c #DD28282D",
  "X{ c #DD282859",
  "+0 c #DD292969",
  "O= c #DD2A2A62",
  "+e c #DD2B2B35",
  "o, c #DD2B2B71",
  "+q c #DD2B2BD5",
  "Zj c #DDEEFFFF",
  "XU c #DE29291F",
  "o] c #DE2A2A3D",
  "X} c #DE2A2A56",
  "ob c #DE2A2A8C",
  "oI c #DE2A2A91",
  "oP c #DE2A2A99",
  "Ot c #DE2A2AC2",
  "On c #DE2A2AC8",
  "O' c #DE2A2AEB",
  "+: c #DE2A2AF1",
  "O] c #DE2A2AF2",
  "+f c #DE2B2B36",
  "XI c #DE2B2B4E",
  "Oy c #DE2B2B8A",
  "Om c #DE2B2BD0",
  "O[ c #DE2B2BD1",
  "O` c #DE2B2BE3",
  "+; c #DE2B2BE9",
  "Ob c #DE2C2C2E",
  "OM c #DE2C2C5D",
  "X' c #DEDEDFFF",
  "Z+ c #DEEEFFFF",
  "Xt c #DF282820",
  "o{ c #DF2929A0",
  "or c #DF2A2A37",
  "+, c #DF2A2A79",
  "OK c #DF2A2A9D",
  "Or c #DF2A2A9E",
  "O; c #DF2A2A9F",
  "O- c #DF2A2AB5",
  "+= c #DF2B2B48",
  "O) c #DF2B2B5F",
  "O{ c #DF2B2B60",
  "ot c #DF2B2B7E",
  "o[ c #DF2B2BA7",
  "+> c #DF2B2BB8",
  "OL c #DF2B2BD6",
  "O_ c #DF2B2BDC",
  "OP c #DF2B2BDD",
  "+- c #DF2B2BDF",
  "+m c #DFDFDFBD",
  "={ c #DFDFDFFF",
  "XG c #DFEEFEFF",
  "Z# c #DFEFFFFF",
  "oy c #E0292951",
  "o> c #E02A2A49",
  "+M c #E0E0E0DF",
  "C/ c #E0EFFFFF",
  "XP c #E1262622",
  "OI c #E129295D",
  "+g c #E12A2A2B",
  "+w c #E12A2A6E",
  "+< c #E12B2B3B",
  "+Z c #E1E1E1FF",
  "o3 c #E1E1E6FF",
  "X^ c #E1EFFFFF",
  ".} c #E2E3E8FF",
  "CB c #E2F0FFFF",
  "+C c #E3E3E3DB",
  "os c #E4E4E8FF",
  ";3 c #E5E5E5FF",
  ".W c #E5E5EAFF",
  "+A c #E6E6E6BF",
  ";b c #E6E6E6FF",
  ";G c #E7E7E7FF",
  "o& c #E7E8EAFF",
  "X% c #E817170B",
  "o_ c #E9EBEDFF",
  "X. c #EAEBECFF",
  ":, c #EBEBEBFF",
  "XK c #EBECEDFF",
  ":< c #EEEEEEFF",
  ";A c #EFEFEFFF",
  "|s c #EFEFF0FF",
  "X2 c #F0F0F2FF",
  ";' c #F2F2F2FF",
  "XQ c #F2F2F3FF",
  ":O c #F3F3F3FF",
  ":3 c #F4F4F4FF",
  "Xd c #F4F4F6FF",
  "Xv c #F4F5F6FF",
  "=a c #F5F5F5FF",
  "+W c #F6F6F6FF",
  ";R c #F8F8F8FF",
  "3y c #F8F9F9FF",
  ":5 c #FAFAFAFF",
  "sC c #FAFBFBFF",
  ";7 c #FCFCFCFF",
  "E_ c #FCFCFDFF",
  "=q c #FDFDFDFF",
  "=w c #FEFEFEFF",
  "Rr c #FF000001",
  "Xy c #FF000002",
  "XM c #FF333305",
  "   c none",
  
  // Image data
  "                                                                ",
  "                                                                ",
  "                                                                ",
  "            .b.n.m.M  +j.N.B.V.C.Z.A.S.D.F                      ",
  "    .G.H.J.K.L.P.I  .U.Y.T.R.E.W.Q.!.~.^.A./                    ",
  ".(.).L.L.L._.`.'+j.].[.{.}.|X.=wXXXoXOX+X@X#X$#PX%X&Rr          ",
  "X*X=X-X;X:X>X,  X<X1X2X3X4X5X6X7X8X9X0XqX.CDXwXeRrXrXtXy        ",
  "    XuXiXpXa  .NXsXdXf&ZXgXhXjXkXlXzXxXcXv;AXbXnXmXMXNXB        ",
  "    XVXCXZ+j+jXAXS=w=q:5XDXFCBXGXHXJXK=w=w:3;GXL.A.FXPXIXU      ",
  "  .FXYXTXR  XEXWsC=wXQX!X~C/X^X^X/X(X)X_X`;R;3X'X]./X[X{X}T^    ",
  "  X|o.oXoo  oOo+=wE_o@o#Z+Z#Z#Z#o$o%o&o*o=o-;b,^o;o:  o>o,o<    ",
  "  o1o2.`-=  XAo3o4o5o6o7Z6ZjZ+o8o9=w=w=w=wo08joqowoe  orotoy    ",
  "  .Iouoiop  oaosodofA$Z^ogohZHojok=w=w=w=w|solozoxoc  ovobon    ",
  "  NEomoMo1  oNoBoVoCoZoAoSoDZ~oFoG=w=w=w;7:,oHoJoK.Z  oLoPoI    ",
  "    oUoYoT  oRoEoWoQ3y=wo!A6o~o^o/o(o)o_;'+Z+po`o'.A  o]o[o{    ",
  "    o}o|O.  XeOXOoOO=w=w=wO+O@2O[kAsAlO#;3,NO$O%O&O*  O=O-O;    ",
  "    O:O>O,O<O1O2O3O4+W=w=w=wO5O6O7O8^iO9,M>xO0OqOwOe  OrOtOy    ",
  "      .bOuOi  OpOaOsOd:<:O=aOfOgOhOjOkOl:7OzOxOcOv+jObOnOmOM    ",
  "        ONOBNWO1OVOCOZOA={OSODStSXScSpOF9mOGOHOJXERrOKOLOPOIRr  ",
  "        +j.bOUO<OYOTOROElzOWS2SnOQO!SBSWO~O^O/O(  O)O_O`O'O]O[O{",
  "            O}D(O:O|OV!>+.+X+o+O+++@+#+$+%+&+*  +=+-+;+:O'+>+,+<",
  "              +j+1+j+2+3+4O&+5+6Oa+7XWOw+8+9T^+0+qo[+w+eX[      ",
  "                        +r+t+y+u+i+a+t+s@2+d+f+gXy              ",
  "                  &^+h+knOnO-i=v,h,hnOnO+k+l+N*'@M              ",
  "        #P+z+x+c+c+cn+,!=C;*-v-v-v-v-v-vt<n++c+c+c+c+c+v<+      ",
  "        +b+n+m+M+BpbnO;Z;A:*;G;A;A;A;A;G<snO:=:7pb+V+C+A+S      ",
  "        aw+D+F+G+H+JnO>_>G>_=1=1=1=1=1=1=1nO:;t1+K+L+P+I,*      ",
  "          +U+Y+c+c+cn+Nvt:t:t:t:t:t:t:t:Nvn++c+c+c+c+T+R2t      ",
  "                &^9b+lnXnOnOnOnOnOnOnOnO+E+Q*zrF@b              ",
  "                    @X@V+/=(B%*z*9*9*(9crn=N*!                  ",
  "                            +j@M@M@M+j                          ",
  "                                                                "
};
