/* XPM */
const char *xpm_tango_apps_system_installer[] = {
  // Header (width height colors chars-per-pixel)
  "32 32 323 2",
  
  // Colors (code mode value)
  "+j c #00000001",
  "@M c #00000002",
  "@X c #00000004",
  "@N c #00000005",
  "&^ c #00000006",
  "@C c #00000007",
  "+> c #0000000B",
  "@2 c #0000000E",
  ":l c #0000000F",
  "@V c #00000011",
  "+r c #00000012",
  "@m c #00000013",
  "+k c #00000016",
  "@n c #00000019",
  "+| c #0000001B",
  "@= c #0000001C",
  "+g c #00000021",
  "*~ c #00000025",
  "er c #00000028",
  "rE c #00000029",
  "9) c #0000002C",
  "*^ c #0000002E",
  "*l c #00000035",
  ":h c #0000003B",
  "B% c #0000003D",
  ".j c #2A2A2A6D",
  ".y c #2B2B2B65",
  ".t c #3F3F3F6D",
  ".v c #44444475",
  ".k c #4B4B4B69",
  ".4 c #4C4C4C2F",
  "#P c #55555503",
  ".5 c #5C5C5C9B",
  "}e c #5F5F5FFC",
  "}a c #606060C8",
  "}p c #606060DC",
  "}t c #606060E5",
  ">J c #606060FF",
  ".# c #616161FC",
  "}j c #626262BC",
  "}z c #626262FC",
  "}w c #63636324",
  ".6 c #636363FC",
  "}r c #6464641C",
  "}l c #656565E1",
  "6( c #656565FF",
  "F~ c #6666660A",
  "2F c #6666660F",
  "}k c #666666D1",
  ">L c #666666FF",
  "4Y c #676767FF",
  ":; c #686868FF",
  "6/ c #696969FF",
  "}f c #6B6C69FF",
  "}d c #6E6F6DFF",
  ".c c #6F6F6FBD",
  "}g c #71726FFF",
  ".l c #727272B7",
  ".h c #787878E2",
  "}i c #7B7B7AFB",
  "W9 c #7B7B7BDD",
  "}h c #7E807EF8",
  "=, c #7F7F7FFF",
  "}m c #8080801C",
  "}x c #80808036",
  "mk c #808080FF",
  ".x c #818181ED",
  ".r c #818182FC",
  "|+ c #827E7EFF",
  "}y c #828281FD",
  "Vn c #828282FA",
  "|, c #837D7EFF",
  "|j c #837F7FFF",
  ".z c #838383EC",
  "|7 c #838383F7",
  "}s c #838482F9",
  "|1 c #847D7EFF",
  "|e c #847E7EFF",
  ".@ c #848484C1",
  ".3 c #848485F3",
  "|n c #858585E4",
  "|- c #867F7FFF",
  "|L c #8686869A",
  "|= c #868686E4",
  ",! c #868686FF",
  "}b c #887E7EFF",
  "}{ c #8888889A",
  "}D c #888888BD",
  "}n c #888888F0",
  "-Y c #898989FF",
  "}} c #8B7777FF",
  "|a c #8B7878FF",
  ".g c #8B8C8CFB",
  ".& c #8D8888FF",
  "}N c #8F6161FF",
  "|) c #909193F6",
  "}W c #914E4EFF",
  "|_ c #916464FF",
  "|m c #924F4FFF",
  ">G c #929292FF",
  "}E c #969696F6",
  "}G c #979292FF",
  ",F c #979797FF",
  "}u c #989896FF",
  "<q c #989997FF",
  ".u c #99999AFB",
  "<0 c #999A98FF",
  "|P c #9A9494FF",
  ",D c #9B9B9BFF",
  "|< c #9C1D1DFF",
  "}F c #9D1919FF",
  ">K c #9D9D9DFF",
  "<A c #9D9E9CFF",
  ">P c #9E9E9EFF",
  "}v c #A10E0EFF",
  "6} c #A1A1A1FF",
  "|t c #A2AAB5FF",
  "6| c #A3A3A3FF",
  "R7 c #A40000FF",
  "}M c #A40101FF",
  "}~ c #A5A7AAFF",
  "|D c #A5A89DFF",
  "|3 c #A5ADBBFF",
  "}c c #A60C0CFF",
  ".e c #A6A9A8FF",
  "|O c #A8ADADFF",
  "|z c #A9AFB1FF",
  ".+ c #AAAFB5FF",
  "|h c #ABB1B5FF",
  "}L c #ACADB0FF",
  "|@ c #ADB2B3FF",
  ",Z c #AEAEAEFF",
  "}K c #AEAFB1FF",
  "}P c #AFB1B4FF",
  "|W c #AFB2A9FF",
  "|k c #AFB3AFFF",
  ".f c #B0B3B5FF",
  ".2 c #B0B4B6FF",
  "|E c #B0B5B5FF",
  "|K c #B2B5BBFE",
  "WG c #B3B6BBFF",
  "|Q c #B4B5A4FF",
  "}J c #B4B5B6FF",
  "|$ c #B4B9C2FF",
  "=p c #B6B6B6FF",
  "|! c #B6B7A4FF",
  "|X c #B6B8BBFF",
  ".o c #B6B9B3FF",
  "|F c #B6BAB4FF",
  ".X c #B7B9A9FF",
  "|q c #B7BBC2FF",
  "|/ c #B7BEC2FF",
  "|y c #B7C1D0FF",
  "|^ c #B8BCB8FF",
  "|o c #B8BDBEFF",
  "|x c #B8BFC7FF",
  "|H c #B8C0C9FF",
  "|c c #B8C2D1FF",
  "|~ c #B9BBAFFF",
  ".1 c #B9BDB7FF",
  "|G c #B9BFC0FF",
  "}B c #BABABBFF",
  ".< c #BABCB0FF",
  "}^ c #BABEBEFF",
  "}H c #BBBBBCFF",
  ".O c #BBC1C3FF",
  "|l c #BBC3BEFF",
  ",A c #BCBCBCFF",
  "|2 c #BCC8D1FF",
  "<W c #BDBDBDFF",
  "|# c #BDC5CCFF",
  "|( c #BDC6D4FF",
  "}! c #BEBFC1FF",
  "|J c #BEC8D7FF",
  ";= c #BFBFBFFF",
  "|g c #BFC9D2FF",
  ";g c #C0C0C0FF",
  "}V c #C0C0C1FF",
  "|f c #C0C5CEFF",
  "|u c #C0C8D4FF",
  "|w c #C1CACFFF",
  "|r c #C1CCCCFF",
  ".. c #C2C1AAFF",
  ";Z c #C2C2C2FF",
  "|4 c #C2C8D3FF",
  "., c #C3C4B5FF",
  ".w c #C3C7C2FF",
  "|S c #C3C8B8FF",
  "}[ c #C4C4C4FE",
  ":6 c #C4C4C4FF",
  "|| c #C4C5B4FF",
  ".d c #C4CACEFF",
  "|> c #C4CCCDFF",
  ";Y c #C5C5C5FF",
  "}C c #C5C5C6FF",
  "|v c #C5CBD7FF",
  "|R c #C5CDD5FF",
  "|Z c #C5CFC8FF",
  "|C c #C5CFD4FF",
  ":= c #C6C6C6FF",
  ".> c #C6C9BEFF",
  "T# c #C6CAC4FF",
  ",1 c #C7C7C7FF",
  "|} c #C7CAC1FF",
  "|{ c #C7CDCDFF",
  ":7 c #C8C8C8FF",
  "}Q c #C8C8C9FF",
  ".i c #C8CACEFF",
  ".q c #C8CDCAFF",
  ">x c #C9C9C9FF",
  "@* c #C9CDC9FF",
  "}/ c #C9D0CDFF",
  "}( c #C9D0CEFF",
  "|A c #C9D1C3FF",
  ",< c #CACACAFF",
  "+p c #CACACBFF",
  ".0 c #CAD0D3FF",
  ".: c #CAD1D5FF",
  "|V c #CAD2E1FF",
  "+a c #CBCBCBFF",
  "|b c #CBCED4FF",
  "|5 c #CBCFD7FF",
  "|i c #CBD0D8FF",
  "#+ c #CCCCCCFF",
  "|% c #CCCFD6FF",
  "}) c #CCD1D2FF",
  ".s c #CCD4DEFF",
  "%x c #CCD5E1FF",
  ",2 c #CDCDCDFF",
  "|. c #CDCDCFFF",
  "}I c #CDCFD2FF",
  "|[ c #CDD5DEFF",
  ";_ c #CECECEFF",
  "}_ c #CED1D7FF",
  "+c c #CFCFCFFF",
  ".% c #D09292FF",
  "+v c #D0D0D0FF",
  "+b c #D1D1D1FF",
  ".a c #D1DAE9FF",
  ",V c #D2D2D2FF",
  "|: c #D2D3D6FF",
  ",, c #D3D3D3FF",
  ".9 c #D3DBEAFF",
  ",n c #D4D4D4FF",
  "|& c #D4D6DAFF",
  "|6 c #D4D6DBFF",
  ":o c #D5D5D5FF",
  "}| c #D5D5D6FF",
  ".p c #D5DAE3FF",
  ",N c #D6D6D6FF",
  "}' c #D6D8DBFF",
  "|0 c #D6D8DCFF",
  "}` c #D6D8DDFF",
  "|T c #D6E0EFFF",
  ",M c #D7D7D7FF",
  ",B c #D8D8D8FF",
  "}Z c #D8D8D9FF",
  ".$ c #D99494FF",
  ",b c #D9D9D9FF",
  "|p c #D9DBDFFF",
  ",m c #DADADAFF",
  "lo c #DADBDCFF",
  "}] c #DADBDDFF",
  ",v c #DBDBDBFF",
  "|; c #DBDBDCFF",
  "|d c #DBDDE2FF",
  "|] c #DBE4F2FF",
  ",^ c #DCDCDCFF",
  "C} c #DCDCDDFF",
  "|* c #DCDDE0FF",
  "=b c #DDDDDDFF",
  "}U c #DDDEE1FF",
  "|B c #DDE2ECFF",
  "=[ c #DEDEDEFF",
  "={ c #DFDFDFFF",
  "Es c #DFE0E2FF",
  "&_ c #E0E0E0FF",
  "|9 c #E0E0E2FF",
  "+Z c #E1E1E1FF",
  ".; c #E1E9F5FF",
  "}A c #E2E2E3FF",
  "+S c #E3E3E3FF",
  "}Y c #E3E4E6FF",
  "|Y c #E3E8F2FF",
  "&I c #E4E4E4FF",
  "&5 c #E4E4E5FF",
  ";3 c #E5E5E5FF",
  "}R c #E5E5E6FF",
  "u3 c #E5E6E8FF",
  "|N c #E5E8EDFF",
  ";b c #E6E6E6FF",
  "}S c #E6E6E7FF",
  ".8 c #E6EBF5FF",
  ";G c #E7E7E7FF",
  ":# c #E8E8E8FF",
  "|8 c #E8E8E9FF",
  "}T c #E8E9EAFF",
  "|' c #E8EDF6FF",
  ",$ c #EAEAEAFF",
  ":, c #EBEBEBFF",
  "|M c #EBECEEFF",
  ":> c #ECECECFF",
  ".* c #ECEDEDFF",
  ";9 c #EDEDEDFF",
  ".- c #EDF1F8FF",
  ":< c #EEEEEEFF",
  "|U c #EEF1F6FF",
  ";A c #EFEFEFFF",
  "|s c #EFEFF0FF",
  ";T c #F0F0F0FF",
  ";` c #F1F1F1FF",
  "|` c #F1F3F8FF",
  ";' c #F2F2F2FF",
  ":O c #F3F3F3FF",
  ".7 c #F3F6FBFF",
  "|I c #F5F6F8FF",
  "]x c #F6F6F7FF",
  ":9 c #F7F7F7FF",
  ".= c #F7F8FCFF",
  ";S c #F9F9F9FF",
  "GZ c #FAFBFDFF",
  "Cy c #FBFBFCFF",
  "   c none",
  
  // Image data
  "                                                                ",
  "                                                                ",
  "                                                                ",
  "            }w>J>J>J>J>J>J>J>J>J>J>J>J>J>J>J>J}e}r              ",
  "          2F}t}y}u}u}u}u}u}u}u}u}u}u<q<q<q<q<q}i}pF~            ",
  "        #P}a}s<0}d}f}f}f}f}f}f}f}f}f}f}f}f}f}g<A}h}j#P          ",
  "        }kmk6}>L>J>J>J>J>J>J>J>J>J>J>J>J>J>J>J6/6|=,}l          ",
  "        }z;A+Z={={={6/;T;T;T;T;T;T;T;T;T;T;T;T;T;`:9}z          ",
  "        >J:O={=[=[=b,n;T;T;T;T;T;T;T;T;T;T;T;T;T;T;S>J          ",
  "        >J:O=b=b,^,^6/;T;T;T;T;T;T;T;T;T;T;T;T;T;T;S>J          ",
  "        >J;',^,v,v,v+b;T;T;T;T;T;T;T;T;T;T;T;T;T;T;S>J          ",
  "        >J;`,m,m,m,b:;;T;T;T;T;T;T;T;T;T;T;T;T;T;T;S>J          ",
  "        >J;`,b,B,B,B+c;T;T;T;T;T;T:o,Z>G,!,!>G,Z:o;S>J          ",
  "        >J;T,M,M,M,N:;;T;T;T;T+Z,D,F;g,b&I;b={+c>P>K6(          ",
  "        >J;T,N,N:o:o,2;A;T;T,B-Y<W,v+b,2;_,,,v:>;`,,,!}x        ",
  "        >J;A:o,n,n,,:;}cR7}v}b,2;_,A;=:6>x;_,B;3:#;`&I}n}m      ",
  "        >J;A,,,,,V,V,<}MR7}N:6,M,A=p}B}V}C+p}Z}A}S:,:O,,}D      ",
  "        >J:<,V+b+b+b:;R7}F}G&I+a;Z}H}J}K}L}P}I}U}Y}T}R:,}E}x    ",
  "        >J:<+v+v+v+c,1R7}W>x={+v}Q}!}~}^}/}(})}_}`}'}]&5}[}{    ",
  "        >J;9+c+c;_;_:;R7}}+S&_}||.|X|o|O|+|+|@|#|$|%|&|*C}|=    ",
  "        >J;9,2,2,2#+:6R7|-:<&I|;|:WG|>|,|<|<|1|2|3|4|5|6Es|7    ",
  "        >J:>#+#++a+a:;R7|-;`|8|9|0|q|w|,|<|<|e|r|t|y|u|i|p|7    ",
  "        >J:,+a,<,<,<;ZR7|a:,|su3|d|f|g|h|j|j|k|l|z|x|c|v|b|n    ",
  "        >J:,>x>x:7:74YR7|m+b]x|M|N|B|V|C|Z|A|S|D|F|G|H|J|K|L    ",
  "      +j>J,$:7,1,1,1;=R7}F|PCy|I|U|Y|T|R|E|W|Q|!|~|^|/|(|)}x    ",
  "      +r>J,$:=:=:=;Y4YR7R7|_=[GZ|`|'|]|[|{|}||...X.o.O.+.@      ",
  "    +j@n.#+S;G;G;b;b=b.$.$.%.&.*.=.-.;%x.:@*.>.,.<.1.2.3.4      ",
  "      @m.5.64Y4Y4Y4Y4Y4Y4Y4Y4Y,!lo.7.8.9|[.0.qT#.w.e.r.t@=+j    ",
  "      +j@m+ger9)9)9)9)9)9)*^B%.yW9.u.i.p.a.s.d.f.g.h.j*l+|@M    ",
  "          +j@X@N@N@N@N@N@N@N@C+krE.k.l.zVnVn.x.c.v:h*~:l+j      ",
  "                                  @M@C+>:l@V@2+>&^+j            ",
  "                                                                "
};
