/* XPM */
const char *xpm_tango_apps_system_users[] = {
  // Header (width height colors chars-per-pixel)
  "32 32 496 2",
  
  // Colors (code mode value)
  "+j c #00000001",
  "&j c #00000002",
  "&T c #00000003",
  "%. c #00000004",
  "&0 c #00000005",
  "&^ c #00000006",
  "*! c #00000008",
  "*7 c #00000009",
  "+> c #0000000B",
  ":k c #0000000C",
  "&; c #0000000D",
  "%H c #0000000E",
  ":l c #0000000F",
  "&Z c #00000011",
  "+r c #00000012",
  "+k c #00000016",
  "=N c #00000018",
  "&_ c #0000001B",
  "&) c #0000001C",
  "&A c #00000020",
  "+g c #00000021",
  "&Y c #00000023",
  "*` c #00000024",
  "+N c #00000026",
  "*^ c #0000002E",
  ",W c #00000039",
  "B% c #0000003D",
  "9] c #0000003F",
  "*6 c #00000040",
  "&R c #0000004F",
  "kD c #00000054",
  "&E c #0000005E",
  "kA c #00000062",
  "&W c #0000006B",
  "&( c #0000006E",
  "&Q c #00000074",
  "&/ c #00000076",
  "&! c #00000079",
  "&~ c #0000007A",
  "%_ c #0055AA03",
  "%] c #07070024",
  "%h c #0E0E0024",
  "&U c #1022407F",
  "&S c #1124435B",
  "&C c #1A3E6EAE",
  "&k c #1B3C6D7C",
  "&I c #1B3D6FCD",
  "&D c #1B3F71BB",
  "&q c #1C3C6F37",
  "&h c #1C3F756D",
  "&: c #1D447CCA",
  "&P c #1F4780F2",
  "&F c #1F4781ED",
  "$l c #1F488451",
  "&L c #1F4884FB",
  "&K c #1F4983FD",
  "&H c #1F4984FB",
  "&J c #1F4984FC",
  "&G c #204984F8",
  "&- c #204A87F8",
  "%' c #204B86F5",
  "$L c #214A865D",
  "&X c #214B83FC",
  "%Y c #214B85FF",
  "&9 c #214B87D7",
  "%G c #214B88C9",
  "%5 c #214B88E1",
  "7. c #214C8936",
  "%g c #214D895D",
  "%J c #22260443",
  "&l c #224982F7",
  "%[ c #2328035F",
  "&g c #234A83F5",
  "&V c #234B85F8",
  "&w c #234C88F6",
  "$| c #254E8AF2",
  "$J c #254F8BF4",
  "%m c #284F7EFF",
  "%& c #285083FF",
  "&< c #2A5388FF",
  "&O c #2B558AFF",
  "D2 c #2C5890FF",
  "%( c #2D5991FF",
  "%f c #2E5892F3",
  "&6 c #2E5B93FF",
  "&p c #2F5C96FF",
  "&5 c #2F5D97FF",
  "&i c #2F5D98FF",
  "&a c #305D95FF",
  "&4 c #305E99FF",
  "&y c #305E9AFF",
  "&& c #305F9BFF",
  "%{ c #3136039C",
  "&1 c #31609DFF",
  "%D c #31619EFF",
  "%E c #31629FFF",
  "&* c #325A8EFF",
  "&t c #325F9AFF",
  "&2 c #32629FFF",
  "%W c #3262A0FF",
  "%S c #3263A1FF",
  "&. c #333903C9",
  "&+ c #3362A1FF",
  "%s c #33639FFF",
  "&% c #3363A2FF",
  "%3 c #3364A3FF",
  "8I c #3364A4FF",
  "%/ c #3365A4FF",
  "%A c #3365A5FF",
  "%} c #343903B7",
  "%| c #343A03C5",
  "$W c #345B8FFF",
  "$N c #345C8FFF",
  "%R c #3464A2FF",
  "&@ c #3465A6FF",
  "%v c #3466A7FF",
  "%N c #3467A8FF",
  "%Q c #3567A9FF",
  "%r c #3568AAFF",
  "%p c #3568ABFF",
  "%Z c #3569ABFF",
  "%) c #36629BFF",
  "%! c #366AABFF",
  "%B c #366AADFF",
  "%l c #366AAEFF",
  "%- c #366BAEFF",
  "&s c #376197FF",
  "&o c #3766A1FF",
  "%a c #376AABFF",
  "%V c #376BB0FF",
  "%z c #376CB1FF",
  "&7 c #38557DFF",
  "$~ c #3869A7FF",
  "%; c #386DB2FF",
  "%q c #395653FF",
  "&u c #39649DFF",
  "%> c #39679EFF",
  "%6 c #3A3F0395",
  "g> c #3A6AA8FF",
  "%y c #3A6FB7FF",
  "%t c #3A70B4FF",
  "$M c #3B595AFF",
  "%j c #3D4204E9",
  "$% c #3E440352",
  "%= c #3E6FAFFF",
  "%K c #3F4303DC",
  "%< c #3F618EFF",
  "&B c #3F6599FE",
  "%2 c #3F70ADFF",
  "$! c #3F70B1FF",
  "%F c #406CA2FF",
  "&z c #41679AFE",
  "%w c #416B9EFF",
  "#d c #42470532",
  "$q c #424904C4",
  "&> c #42699EFE",
  "%X c #434806E7",
  "#~ c #434A05D5",
  "$a c #435E4BFF",
  "&f c #436085FF",
  "&8 c #436899FF",
  "&r c #43699AFF",
  "#Z c #44440822",
  "#f c #444907F1",
  "$E c #455F42FF",
  "#A c #464C0AF1",
  "$z c #464C0BF4",
  "$P c #474D0DFC",
  "#] c #474E05FF",
  "$H c #476894FF",
  "&, c #476EA0FF",
  "&$ c #4771A9FF",
  "#2 c #48480020",
  "&d c #486E9EFF",
  "Mu c #486EA2FF",
  "%L c #494F0CF5",
  "$[ c #4974ABFF",
  "#' c #4A5206FF",
  "2J c #4A72A5FF",
  "%4 c #4A74ABFF",
  "%e c #4A77B0FF",
  "&e c #4B6B95FF",
  "$] c #4B719DFF",
  "%1 c #4C75A6FF",
  "%O c #50580BFF",
  "&N c #5074A1FF",
  "&x c #5376A4FF",
  "$U c #545C06FF",
  "#[ c #545E0DFF",
  "&= c #5478A5FF",
  "%` c #5478A8FF",
  "%d c #547AADFF",
  "$} c #557AADFF",
  "%M c #557CAFFF",
  "%7 c #565C1EF9",
  "#F c #565E08FF",
  "mF c #567CADFF",
  "%: c #5684BBFF",
  "&c c #597BA9FF",
  "%* c #5981B6FF",
  "$& c #5A601EF1",
  "$> c #5A6306FF",
  "%% c #5A6814FF",
  "&M c #5A7BA6FF",
  "&m c #5A7CA8FF",
  "&n c #5A7DA9FF",
  "&b c #5A7DAAFF",
  "&v c #5A7EAAFF",
  "$v c #5B6407FF",
  "$: c #5B6507FF",
  "$Q c #5B84B8FF",
  "%P c #5C621BFC",
  "$Y c #5C6507FF",
  "%T c #5C81B2FF",
  "$B c #5C82B5FF",
  "%0 c #5D6607FF",
  "%9 c #5D660AFF",
  "#_ c #5D680BFF",
  "%+ c #5E6707FF",
  "$c c #5E6807FF",
  "%C c #5E88BEFF",
  "%@ c #5F6807FF",
  "%# c #606907FF",
  "%$ c #606A07FF",
  "$, c #606C09FF",
  "$T c #616A07FF",
  "#g c #626321FC",
  "%I c #626820FF",
  "$r c #626C07FF",
  "#) c #626D07FF",
  "%k c #636825FD",
  "${ c #636D07FF",
  "$' c #636F75FF",
  "#G c #64580EFF",
  "$= c #646E07FF",
  "$R c #646F07FF",
  "%U c #656B22FF",
  "$b c #656F07FF",
  "$e c #656F0EFF",
  "$t c #657007FF",
  "#( c #677108FF",
  "$y c #677208FF",
  "$n c #687208FF",
  "$m c #687308FF",
  ",- c #687309FF",
  "$- c #687408FF",
  "#3 c #694709F7",
  "$K c #697408FF",
  "$; c #69740CFF",
  "%8 c #6A712AFF",
  "%^ c #6A8CB9FF",
  "#K c #6B4C0CFF",
  "$u c #6B7608FF",
  "$p c #6B7609FF",
  "%n c #6C7420FF",
  "$i c #6C7708FF",
  "#` c #6C791BFF",
  "@$ c #6D460862",
  "#H c #6D4E0CFF",
  "%b c #6D7522FF",
  "#J c #6E470AFF",
  ",O c #6E480AFF",
  "$^ c #6E7F8AFF",
  "@i c #6F4709F8",
  "#h c #6F4D0EFF",
  "+~ c #70470970",
  "+( c #70470A19",
  "%c c #707827FF",
  "&3 c #708CB0FF",
  "+) c #714709DA",
  "+^ c #71490AD4",
  "+} c #72490AD3",
  "+/ c #724A0CF9",
  "#^ c #737A2FFD",
  "#/ c #737C1FFF",
  "#D c #757E25FF",
  "$w c #767C35FF",
  "#S c #767E32FF",
  "$k c #785F39FB",
  "%o c #787F3AFF",
  "$* c #788029FF",
  "$< c #79770BFF",
  "$I c #798034FF",
  "$x c #7A8035FF",
  "$s c #7B6845FF",
  "%x c #7B8237FF",
  "#j c #7D5616FF",
  "#. c #7E5514F4",
  "+! c #80550006",
  "+{ c #805719F5",
  "9/ c #80800002",
  "@< c #815616F2",
  "+_ c #825A1AF5",
  "@% c #835718F2",
  "@q c #88570BDE",
  "#4 c #895F1DFF",
  "@# c #8D6321FC",
  "$V c #8E7951FF",
  "$G c #907646FF",
  "+| c #926626FC",
  "#k c #966C27FF",
  "@T c #976B27FF",
  "@0 c #986C28FF",
  "$/ c #997942FF",
  "#8 c #9A671AFF",
  "#9 c #9A691EFF",
  "+[ c #9B712FFF",
  "S% c #9BB2D0FF",
  "$` c #9C783AFF",
  "#7 c #9D691CFF",
  "@j c #9E6B1DFF",
  "#6 c #9E6D22FF",
  "@9 c #9F6E22FF",
  "@1 c #9F7330FF",
  "&# c #A0AFC3FF",
  "%u c #A0B6D4FF",
  "@, c #A1732CFF",
  "#5 c #A1742EFF",
  "#l c #A17430FF",
  "+` c #A17733FF",
  "## c #A26F20FF",
  "#X c #A47630FF",
  "$0 c #A56E0F33",
  "#{ c #A57B14FF",
  "#o c #A67224FF",
  "@@ c #A67730FF",
  "@> c #A77425FF",
  "@~ c #A9721DFF",
  "@R c #A9772BFF",
  "@N c #A97C37FF",
  "@M c #AA550003",
  "#@ c #AA7627FF",
  "+] c #AA7D38FF",
  "@S c #AB7728FF",
  "@+ c #AB782BFF",
  "#O c #AC7728FF",
  "@p c #AC7E39FF",
  "+' c #AD7E3AFF",
  "#+ c #AE792AFF",
  "@8 c #AE7A2AFF",
  "@h c #AF7B2CFF",
  "@! c #B07C2CFF",
  "@B c #B07C2EFF",
  "@O c #B27D2EFF",
  "@D c #B37516FF",
  "@E c #B37E2FFF",
  "@& c #B3843CFF",
  "@a c #B48031FF",
  "@2 c #B48135FF",
  "@. c #B4843CFF",
  "%, c #B4B8BEFF",
  "#$ c #B57714FF",
  "@k c #B67B1EFF",
  "@o c #B68131FF",
  "@: c #B68132FF",
  "@X c #B68234FF",
  "@* c #B98435FF",
  "5X c #B9B9B9FF",
  "#L c #BB7B12FF",
  "@Q c #BB8536FF",
  "@A c #BC8636FF",
  "$_ c #BD801FFF",
  "@W c #BD8737FF",
  "$1 c #BE8018FF",
  "$( c #BE8120FF",
  "$) c #BF7E17FF",
  "$F c #BF801BFF",
  "@7 c #BF8A3AFF",
  "@r c #C07D11FC",
  "#z c #C07D12FF",
  "$$ c #C17C13B1",
  "#C c #C17D11FE",
  "#0 c #C17E14FF",
  "@l c #C18019FF",
  "$C c #C1811CFF",
  "@g c #C18C3BFF",
  "@u c #C27D103F",
  "#! c #C27E11F0",
  "@t c #C27E12EF",
  "$9 c #C28018F5",
  "@; c #C28C3CFF",
  "@| c #C37D0F33",
  "@e c #C37D12EE",
  "@Y c #C37E129A",
  "@m c #C37F11A1",
  "#s c #C37F11F1",
  "@^ c #C38119FF",
  "@3 c #C38D3DFF",
  "@w c #C47E13B0",
  "@y c #C47E13B2",
  "#1 c #C48012B4",
  "$j c #C48625FF",
  "@= c #C48E3EFF",
  "$d c #C58726FF",
  "@} c #C68318F0",
  "@n c #C6831AF4",
  "@s c #C6903FFF",
  "@- c #C89241FF",
  "@F c #CA8A26FF",
  "@Z c #CA9343FF",
  "@U c #CC8B23F5",
  "@V c #CC9645FF",
  "@6 c #CF9948FF",
  "%i c #D0D7E2FF",
  "@C c #D19B4AFF",
  "%~ c #D1D4D9FF",
  "@4 c #D39C4BFF",
  "$Z c #D69837FF",
  "$D c #D69936FF",
  "@d c #D7A04FFF",
  "#} c #D89937FF",
  "#< c #D99A37FF",
  "@b c #D99A38FE",
  "$# c #D99B36FE",
  "@z c #D99F40FE",
  "#% c #DA9E40FF",
  "@5 c #DAA251FF",
  "$g c #DF9727FF",
  "#V c #DF992BFF",
  "#W c #E0992AFF",
  "$7 c #E09A2CFF",
  "$+ c #E09A2DFF",
  "$8 c #E09B2EFF",
  "$A c #E0A648FF",
  "#p c #E19C31FF",
  "$@ c #E2A038FF",
  "$6 c #E2A039FF",
  "$3 c #E2A13AFF",
  "#E c #E2A13CFF",
  "#, c #E2A23BFF",
  "$4 c #E2A23EFF",
  "#Q c #E2A749FF",
  "#a c #E2A74AFF",
  "@[ c #E3A440FF",
  "$O c #E3A442FF",
  "$5 c #E3A543FF",
  "#> c #E3A544FF",
  "#B c #E3A645FF",
  "$f c #E3A84BFF",
  "$h c #E3A94BFF",
  "@I c #E3A94DFF",
  "#P c #E3AA50FF",
  "@v c #E3AB53FF",
  "@f c #E3AB59FF",
  "#| c #E4A747FF",
  "#i c #E4A748FF",
  "$. c #E4A849FF",
  "$2 c #E4A84BFF",
  "@{ c #E4A94BFF",
  "$S c #E4A94EFF",
  "#q c #E4AD58FF",
  "@x c #E4AE5AFF",
  "#I c #E5A84BFF",
  "@P c #E5AA4FFF",
  "@] c #E5AB4FFF",
  "@L c #E5AB50FF",
  "#c c #E5AB52FF",
  "$o c #E5AC52FF",
  "#R c #E6AD54FF",
  "@K c #E6AE57FF",
  "$X c #E6AF58FF",
  "#x c #E6B15DFF",
  "@G c #E6B363FF",
  "#w c #E7AF58FF",
  "@J c #E7B05CFF",
  "#U c #E7B15DFF",
  "#& c #E7B15EFF",
  "@c c #E7B25FFF",
  "@( c #E7B260FF",
  "@/ c #E7B463FF",
  "#N c #E8B260FF",
  "@H c #E8B362FF",
  "@' c #E8B463FF",
  "#u c #E8B464FF",
  "#* c #E9B669FF",
  "@) c #E9B76AFF",
  "#v c #E9B86CFF",
  "#e c #EABA70FF",
  "@` c #EABA71FF",
  "@_ c #EABB73FF",
  ",$ c #EAEAEAFF",
  "#: c #EBBD76FF",
  "#T c #EBBD78FF",
  "#M c #EBBE7AFF",
  ":, c #EBEBEBFF",
  "#Y c #ECBF7BFF",
  "#= c #ECC180FF",
  "#b c #EDC384FF",
  "#; c #EEC68AFF",
  "#r c #EEC78CFF",
  "#- c #EFC88FFF",
  "#m c #EFC990FF",
  "#n c #F0CC96FF",
  "#y c #F0CE9BFF",
  "#t c #F2D3A7FF",
  "   c none",
  
  // Image data
  "                                                                ",
  "                                                                ",
  "                +!+~+^+/+/+^+~+!                                ",
  "              +(+)+_+`+'+]+[+{+)+(                              ",
  "            9/+}+|@.@X@o@O@+@@@#+}9/                            ",
  "            @$@%@&@*@=@-@;@:@>@,@<@$                            ",
  "            +}@1@2@3@4@5@6@7@8@9@0@q@w@e@r@t@y@u                ",
  "            @i@p@a@s@d@f@4@g@h@j@k@l@z@x@c@v@b@n@m@M            ",
  "            @i@N@B@7@V@C@Z@A@S@D@F@G@H@J@K@L@P@I@U@Y            ",
  "            +}@T@R@E@W@7@Q@!@~@^@/@(@)@_@`@'@]@[@{@}@|          ",
  "            @$#.#X#o#O#+#@###$#%#&#*#=#-#;#:#&#>#,#<#1          ",
  "            #2#3#4#5#6#7#8#9#0#q#w#e#r#t#y#=#u#i#p#a#s          ",
  "          #d#f#g#h#j#k#l#l#k#z#x#c#v#b#n#m#M#N#B#V@L#C          ",
  "        #Z#A#S#D#F#G#H,O#J#K#L#P#I#U#e#Y#T#*#R#E#W#Q#!          ",
  "      +j#~#^#/#(#)#_#`#'#]#[#{#}#|$.$X@c#U$o$O$+$@$#$$          ",
  "      $%$&$*$=#($K$-$;$:$>$,$<$1$2$3$4$5$O$6$7$8@{$9$0          ",
  "      $q$w$e$r$t$y$K$u$i$i$p$a$s$d$f$3$7$g#W$3$h$j$k$l          ",
  "      $z$x$c$v${$b#($n$m,-$M$N$B$V$C$Z$A$S$A$D$F$G$H$J$L        ",
  "      $P$I$U$Y$T$r${$=$R$E$W$Q$!$~$^$/$($)$_$`$'$]$[$}$|7.      ",
  "    %.%X%o%O$Y%+%@%#%$%%%&%*%=%-%;%:%>%,5X5X%<%1%2%3%42J%5%_    ",
  "    *!%6%7%8%9$v$:$Y%0%q%w%e%r%l%z%t%y%u,$%i%p%a%v%3%s%d%f%g    ",
  "    %.%h%j%k%x%c%b%n%n%m%Mg>%N%v%B%V%z%C:,S%%Z%N%A%S%D%FMu%G    ",
  "      %H%J%K%L%P%I%U%U%Y%T%R%E%W%Q%r%Z%!%~%^%v%/%S%D%(%)%`%'    ",
  "        +>%]%[%{%}%|&.&XmF&o&O&+8I%A&@&@&#&$&%%W%D&&D2&*&=&-    ",
  "          +j&;+g*^,W*6&:&>&,&<&1%D&2%W%W&3%D&1&&&4&5&6&7&8&9    ",
  "                +j&0*7&q&w&e&r%)&t&y&y&y&u&4&i&p&a&s&d&f&g&h&j  ",
  "                      %H&k&l&z&x&c&v&v&v&v&b&n&m&M&N&B&V&C*^&Z  ",
  "                      &^&A&S&D&F&G&H&J&K&K&K&K&J&L&P&I&U9]&Y&T  ",
  "                        +j:l+NB%&R&E&W&Q&!&~&/&(kAkD9]*`:k      ",
  "                                &0:k+r=N&)&_+k&Z+>&T            ",
  "                                                                ",
  "                                                                "
};
