/* XPM */
const char *xpm_tango_apps_system_file_manager[] = {
  // Header (width height colors chars-per-pixel)
  "32 32 131 2",
  
  // Colors (code mode value)
  "+j c #00000001",
  "@M c #00000002",
  "@. c #00000003",
  "@X c #00000004",
  "*7 c #00000009",
  "@B c #0000000A",
  "@b c #0000000D",
  "+r c #00000012",
  "[~ c #00000017",
  "=N c #00000018",
  "@n c #00000019",
  "+| c #0000001B",
  "@= c #0000001C",
  "*Q c #0000001D",
  "9b c #0000001E",
  "&V c #0000001F",
  "+g c #00000021",
  "+N c #00000026",
  "+J c #00000027",
  "rE c #00000029",
  "rF c #0000002D",
  "T2 c #00000032",
  "*8 c #00000036",
  ",W c #00000039",
  "B% c #0000003D",
  "3& c #0000003E",
  "9] c #0000003F",
  "*6 c #00000040",
  "*. c #00000045",
  "{m c #444329FF",
  "{n c #48462775",
  "{7 c #48462971",
  "{5 c #48462BFF",
  "{j c #4946277B",
  "{h c #49462874",
  "{2 c #4A45276F",
  "{6 c #4A452872",
  "{3 c #4A482CFF",
  "{4 c #4F4B2DFF",
  "{b c #645B3AF6",
  "{k c #675E3DF5",
  "{g c #685F3DF7",
  "{8 c #716442F7",
  "{F c #7B500BFF",
  "{J c #7C500BFF",
  "{D c #94600DFF",
  "{~ c #A26400FF",
  "{K c #B57610FF",
  "{L c #B67610FF",
  "{Z c #C17D11FF",
  "}q c #D2A152FF",
  "}0 c #D3A255FF",
  "}* c #D3A458FF",
  "}9 c #D4A55BFF",
  "}8 c #D5A65DFF",
  "}% c #D5A75EFF",
  "}7 c #D5A85FFF",
  "}6 c #D6A962FF",
  "}# c #D6AA63FF",
  "}5 c #D7AB65FF",
  "}4 c #D8AC68FF",
  "}+ c #D8AD69FF",
  "}3 c #D8AE6BFF",
  "}2 c #D9AF6DFF",
  "}o c #DAB06FFF",
  "}1 c #DAB170FF",
  "}< c #DBB373FF",
  "}. c #DBB475FF",
  "}, c #DBB476FF",
  "}> c #DCB679FF",
  "{} c #DCB77AFF",
  "}: c #DDB77BFF",
  "}; c #DDB97EFF",
  "{[ c #DEBA80FF",
  "}- c #DEBA81FF",
  "}= c #DFBC84FF",
  "{' c #DFBD86FF",
  "}& c #E0BF89FF",
  "{_ c #E1C08CFF",
  "}$ c #E2C28FFF",
  "{( c #E3C392FF",
  "}@ c #E3C595FF",
  "{^ c #E4C697FF",
  "}O c #E5C89BFF",
  "{Q c #E5C99DFF",
  "}X c #E6CCA1FF",
  "{E c #E7CDA3FF",
  "{| c #E8CFA6FF",
  "{x c #E9B96EFF",
  "{T c #E9D0A9FF",
  "{{ c #E9D2ACFF",
  "{U c #EAD3AFFF",
  "{] c #EBD5B2FF",
  "{P c #ECD6B4FF",
  "{` c #EDD8B8FF",
  "{G c #EDD9BAFF",
  "{) c #EEDBBEFF",
  "{A c #EEDCC0FF",
  "{/ c #EFDEC3FF",
  "{B c #F1D3A3FF",
  "{! c #F1E1C9FF",
  "{c c #F2D4A6FF",
  "{V c #F2E2C8FF",
  "{W c #F2E4CEFF",
  "{N c #F3DAB3FF",
  "{z c #F4DAB3FF",
  "{v c #F4E3C8FF",
  "{R c #F4E8D5FF",
  "{Y c #F6EBDBFF",
  "{I c #F7EEE0FF",
  "{f c #F8ECDBFF",
  "{H c #F8F1E6FF",
  "{l c #F9F0E2FF",
  "{M c #FAF3E9FF",
  "{S c #FAF4EBFF",
  "{d c #FCF4E8FF",
  "{s c #FCF5EAFF",
  "{a c #FCF6ECFF",
  "{p c #FCF6EDFF",
  "{C c #FCF8F2FF",
  "{i c #FDF7EFFF",
  "{u c #FDF8F1FF",
  "{y c #FDF9F2FF",
  "{9 c #FDF9F3FF",
  "{t c #FDFAF4FF",
  "{r c #FEFAF5FF",
  "{e c #FEFBF7FF",
  "{w c #FEFCF9FF",
  "{q c #FEFDFAFF",
  "{0 c #FFFEFCFF",
  "   c none",
  
  // Image data
  "                                                                ",
  "                                                                ",
  "                                                                ",
  "                                                                ",
  "                {2{3{4{4{4{4{4{4{4{4{4{4{4{4{4{5{6              ",
  "              {7{8{9{0{q{w{e{r{t{y{u{i{p{a{s{d{f{g{h            ",
  "            {j{k{l{z{x{x{x{x{x{x{x{x{x{x{x{x{x{c{v{b{n          ",
  "            {m{M{N{x{x{x{x{x{x{x{x{x{x{x{x{x{x{x{B{V{m          ",
  "            {m{C{Z{Z{Z{Z{Z{Z{Z{Z{Z{Z{Z{Z{Z{Z{Z{Z{Z{A{m          ",
  "            {m{S{Z{D{F{F{F{F{F{F{F{F{F{F{F{F{F{D{Z{G{m          ",
  "            {m{H{Z{J{K{L{L{L{L{L{L{L{L{L{L{L{K{J{Z{P{m          ",
  "            {m{I{Z{F{L{L{L{L{L{L{L{L{L{L{L{L{L{F{Z{U{m          ",
  "            {m{Y{Z{F{L{L{L{L{L{L{L{L{L{L{L{L{L{F{Z{T{m          ",
  "            {m{R{Z{F{L{L{L{L{L{L{L{L{L{L{L{L{L{F{Z{E{m          ",
  "            {m{W{Z{F{L{L{L{L{F{F{F{F{F{L{L{L{L{F{Z{Q{m          ",
  "            {m{!{Z{J{K{L{L{L{F{~{~{~{F{L{L{L{K{J{Z{^{m          ",
  "            {m{/{Z{D{F{F{F{F{F{F{F{F{F{F{F{F{F{D{Z{({m          ",
  "            {m{){Z{Z{Z{Z{Z{Z{Z{Z{Z{Z{Z{Z{Z{Z{Z{Z{Z{_{m          ",
  "            {m{`{Z{D{F{F{F{F{F{F{F{F{F{F{F{F{F{D{Z{'{m          ",
  "            {m{]{Z{J{K{L{L{L{L{L{L{L{L{L{L{L{K{J{Z{[{m          ",
  "            {m{{{Z{F{L{L{L{L{L{L{L{L{L{L{L{L{L{F{Z{}{m          ",
  "            {m{|{Z{F{L{L{L{L{L{L{L{L{L{L{L{L{L{F{Z}.{m          ",
  "            {m}X{Z{F{L{L{L{L{L{L{L{L{L{L{L{L{L{F{Z}o{m          ",
  "            {m}O{Z{F{L{L{L{L{F{F{F{F{F{L{L{L{L{F{Z}+{m          ",
  "            {m}@{Z{J{K{L{L{L{F{~{~{~{F{L{L{L{K{J{Z}#{m          ",
  "            {m}${Z{D{F{F{F{F{F{F{F{F{F{F{F{F{F{D{Z}%{m*7        ",
  "          @B{m}&{Z{Z{Z{Z{Z{Z{Z{Z{Z{Z{Z{Z{Z{Z{Z{Z{Z}*{m+J[~@.    ",
  "        +j@n{m}=}-};}:}>},}<}1}2}3}4}5}6}7}8}9}*}0}q{m9]rE+r    ",
  "        @X@={m{m{m{m{m{m{m{m{m{m{m{m{m{m{m{m{m{m{m{m{m*.rF+r    ",
  "          +r+N*83&*6*6*6*6*6*6*6*6*6*6*6*6*6*6*6*6,WB%T29b@M    ",
  "            @B=N&V+g+g+g+g+g+g+g+g+g+g+g+g+g+g+g+g*Q+|@b+j      ",
  "                                                                "
};
