/* XPM */
const char *xpm_tango_apps_utilities_terminal[] = {
  // Header (width height colors chars-per-pixel)
  "32 32 515 2",
  
  // Colors (code mode value)
  "+j c #00000001",
  "&T c #00000003",
  "&^ c #00000006",
  "@C c #00000007",
  "*7 c #00000009",
  "@B c #0000000A",
  "&; c #0000000D",
  "%H c #0000000E",
  "@m c #00000013",
  "[~ c #00000017",
  "@n c #00000019",
  "@5 c #0000001A",
  "&_ c #0000001B",
  "er c #00000028",
  "*F c #0000002B",
  ":s c #00000031",
  "&W c #00000034",
  "*8 c #00000036",
  "*G c #00000037",
  "1W c #080B06FF",
  "1| c #090B06FF",
  "1' c #090C06FF",
  "1J c #0A0D07FF",
  "1} c #0A0D08FF",
  "2. c #0B0D09FF",
  "1b c #0B0E07FF",
  "1D c #0C0F08FF",
  "1i c #0D1109FF",
  "12 c #0E1109FF",
  "1k c #0E1209FF",
  "1r c #0F120AFF",
  "<[ c #11160BFF",
  "<n c #14190DFF",
  "1. c #151910FF",
  "<U c #151A0DFF",
  "<E c #171B13FF",
  "<* c #171D0EFF",
  "<t c #181D0FFF",
  ",N c #1A2010FF",
  "<V c #1B2016FF",
  ",^ c #1B2111FF",
  "1Q c #1C2414FF",
  "1! c #1C2514FF",
  "<a c #1D2118FF",
  "1~ c #1D2514FF",
  "1) c #1F2614FF",
  "1_ c #1F2714FF",
  "1` c #1F2715FF",
  "<> c #22261CFF",
  ",_ c #23271DFF",
  "1K c #242E18FF",
  "1L c #242F18FF",
  "1P c #242F19FF",
  "1n c #252E18FF",
  "1m c #252E19FF",
  "1M c #252F19FF",
  "1A c #26311AFF",
  ",A c #272C20FF",
  "1S c #27311AFF",
  "1T c #27321AFF",
  ",q c #282C22FF",
  ",6 c #282D1FFF",
  ">} c #292E21FF",
  "2z c #2B2D2865",
  ">s c #2C3123FF",
  ",X c #2C3125FF",
  ">L c #2C3126FF",
  "2f c #2D2D2950",
  ">G c #2D3224FF",
  "13 c #2D381DFF",
  "18 c #2D391DFF",
  "17 c #2D3A1DFF",
  "19 c #2D3A1EFF",
  ">a c #2E3326FF",
  ">p c #2E3426FF",
  "10 c #2E3A1EFF",
  ">i c #2F3427FF",
  "1q c #2F3A1EFF",
  "1w c #2F3B1EFF",
  "1e c #2F3B1FFF",
  "1s c #2F3C1FFF",
  ">9 c #303428FF",
  ">u c #303529FF",
  "1d c #303D1FFF",
  "1f c #303E20FF",
  "1a c #303F20FF",
  ">j c #31352AFF",
  ">y c #31362AFF",
  "1g c #313E20FF",
  "1h c #313F20FF",
  ">t c #32362AFF",
  ">r c #32362BFF",
  ">e c #32372BFF",
  ">w c #32372CFF",
  "1j c #323F20FF",
  ">q c #33372CFF",
  ">0 c #33382DFF",
  "<_ c #364323FF",
  "<` c #364423FF",
  "16 c #364E29FF",
  "<] c #374523FF",
  "<) c #384826FF",
  "1p c #39542CFF",
  "1$ c #3A4A26FF",
  "1% c #3B4A26FF",
  "1& c #3B4B26FF",
  "2g c #3C403948",
  "1* c #3C4B26FF",
  "1= c #3C4C26FF",
  "1- c #3C4C27FF",
  "1; c #3D4D27FF",
  "1# c #3E542AFF",
  "<v c #3F4E28FF",
  "<b c #3F4F28FF",
  "<c c #41512AFF",
  "<K c #46582CFF",
  "<L c #46592DFF",
  "<% c #47582CFF",
  "<& c #47582DFF",
  "<P c #47592DFF",
  "<I c #475A2DFF",
  "<$ c #48592DFF",
  "28 c #4A504A30",
  "1X c #4B5839FF",
  "<J c #4D5E33FF",
  "2l c #4F524BD9",
  "<W c #505B40FF",
  "2h c #51554ED2",
  "<x c #515E3DFF",
  "<w c #516633FF",
  "<e c #526633FF",
  "<r c #526733FF",
  "<q c #526734FF",
  "27 c #535650CA",
  "<; c #53574FFF",
  "2j c #535750F9",
  "2k c #535750FA",
  "2< c #545850F8",
  "2d c #555851F6",
  "<# c #55653DFF",
  ",( c #575B52FF",
  ",M c #586A3AFF",
  "<( c #59744DFF",
  "29 c #5A5E57F4",
  ",V c #5B5F57FF",
  "<z c #5B6849FF",
  "1N c #5B7E55FF",
  "1^ c #5C7D57FF",
  ",! c #5D743AFF",
  ",~ c #5D753AFF",
  "<0 c #5E7143FF",
  "<Q c #5E7552FF",
  "21 c #5F625AC3",
  ",8 c #5F635BFF",
  ">J c #606060FF",
  ",m c #607244FF",
  "1Z c #60825AFF",
  ":8 c #616161FF",
  ">3 c #616261FF",
  ">8 c #626361FF",
  "2& c #62665EF8",
  "<d c #626E51FF",
  "<f c #626F51FF",
  "1( c #62825CFF",
  "rr c #636363FF",
  ">h c #636462FF",
  ",. c #63675FFF",
  "<Z c #63714EFF",
  "<A c #63724FFF",
  "<C c #637250FF",
  ",0 c #646462FF",
  "<s c #647053FF",
  "6( c #656565FF",
  "2o c #656961FF",
  ",Q c #657B44FF",
  "<g c #657B58FF",
  ",Z c #666765FF",
  "<S c #667E54FF",
  "2: c #676863FF",
  ">K c #676B63FF",
  "<@ c #677452FF",
  ":; c #686868FF",
  "Kh c #696A68FF",
  "1[ c #696D65FF",
  "Nv c #6A6A6AFF",
  ",n c #6A7B51FF",
  ">f c #6B6F67FF",
  "<+ c #6B7857FF",
  ">( c #6C6C6CFF",
  "<: c #6C6D6BFF",
  "<O c #6C7A59FF",
  "1@ c #6C8D60FF",
  "1R c #6D7169FF",
  "<o c #6D7A5AFF",
  "<9 c #6D7E55FF",
  ";[ c #6E6E6EFF",
  "<X c #6E7C5BFF",
  "<p c #6F6F6EFF",
  "<. c #6F7C5CFF",
  "6^ c #707070FF",
  "<B c #707170FF",
  "<8 c #708059FF",
  "1G c #71756DFF",
  ">6 c #71756EF8",
  ",| c #717E5EFF",
  "<7 c #718159FF",
  ";W c #727272FF",
  "<6 c #72855CFF",
  ",W c #728654FF",
  "<R c #737472FF",
  ",b c #73835DFF",
  "24 c #747570FF",
  ",} c #748562FF",
  ";F c #757575FF",
  "1x c #757971FF",
  "<| c #767675FF",
  ",` c #768364FF",
  ",k c #777777FF",
  "1l c #777873FF",
  "26 c #777974FE",
  "<, c #778762FF",
  "2s c #787974FE",
  "2= c #787974FF",
  "11 c #787978FF",
  ">- c #7979732A",
  ",j c #797979FF",
  "1t c #797A75FF",
  "1y c #797D75FF",
  ",v c #798763FF",
  ",c c #798864FF",
  "2> c #7A7B76FF",
  ">< c #7A7E76C3",
  "14 c #7A9C73FF",
  "1u c #7B7B7AFF",
  "=1 c #7B7B7BFF",
  ",l c #7B8966FF",
  ",h c #7C8A66FF",
  ",z c #7D7D7DFF",
  "1, c #7D8179FF",
  ",g c #7D8B68FF",
  ",f c #7D8B69FF",
  ",E c #7D9061FF",
  "1v c #7E7E7DFF",
  ",d c #7E8C6AFF",
  "15 c #7E9D77FF",
  "=, c #7F7F7FFF",
  "1H c #7F807FFF",
  "1: c #7F817CFF",
  ",s c #7F8D6BFF",
  ">@ c #80847B34",
  ",a c #808D6CFF",
  ",R c #809266FF",
  "<< c #80996FFF",
  "2O c #81827DFF",
  "Bn c #81827FFF",
  ",p c #818E6EFF",
  ",T c #819267FF",
  "[- c #828281FF",
  ",x c #828282FF",
  ">= c #82857CF2",
  "<} c #82867DFF",
  ",i c #828F6EFF",
  ",Y c #829368FF",
  "1B c #82A37DFF",
  "1V c #82A47DFF",
  "1C c #82A47EFF",
  "2* c #838480FF",
  ",u c #839070FF",
  ",U c #839469FF",
  "1I c #83A47EFF",
  ">O c #848880F7",
  ",y c #849071FF",
  ",I c #84946BFF",
  ",P c #84956BFF",
  "<5 c #849F73FF",
  "5' c #858584FF",
  ">+ c #858980C9",
  ">o c #858980FF",
  ",t c #859272FF",
  ",L c #85966DFF",
  "1{ c #868686FF",
  "*. c #868783FF",
  "<T c #868A81FF",
  ",r c #869374FF",
  ">{ c #86956FFF",
  ",K c #86976EFF",
  "2% c #878785FF",
  "g, c #878984FF",
  ">X c #878B82FF",
  ">[ c #879671FF",
  ",J c #87986FFF",
  ",w c #889475FF",
  ",H c #889970FF",
  "25 c #898985FF",
  ">. c #898D84FF",
  ">] c #899773FF",
  ">' c #899873FF",
  "5I c #8A8A89FF",
  "<M c #8A8E85FF",
  "1/ c #8AAA87FF",
  ":| c #8B8F87FF",
  ">` c #8B9975FF",
  ">_ c #8B9A76FF",
  ",S c #8B9B74FF",
  ",e c #8BA07CFF",
  ",G c #8BA176FF",
  "<H c #8BAD81FF",
  ";* c #8C8C8CFF",
  "2, c #8C8D89FF",
  "1Y c #8CAD88FF",
  "<Y c #8D8E8AFF",
  ">) c #8D9B77FF",
  ">/ c #8D9B78FF",
  ",5 c #8DA070FF",
  "fo c #8E8F8BFF",
  ":} c #8E9289FF",
  ">^ c #8E9D7AFF",
  ",4 c #8EA171FF",
  "-, c #8F8F8FFF",
  ">~ c #8F9D7BFF",
  ",3 c #8FA272FF",
  "<D c #8FAD85FF",
  "<l c #8FAE88FF",
  "2+ c #909090FF",
  ":{ c #90948BFF",
  ">! c #909E7CFF",
  ",2 c #90A274FF",
  ",1 c #90A374FF",
  ",< c #90A375FF",
  "<h c #90AC88FF",
  "23 c #90D04FFF",
  ">Q c #919E7DFF",
  ",7 c #929292FF",
  ":[ c #92968DFF",
  ">W c #929F7EFF",
  ",, c #92A477FF",
  ",> c #92A577FF",
  "1o c #92B38CFF",
  "ka c #939490FF",
  ">2 c #939590FF",
  ">E c #93A07FFF",
  ",: c #93A579FF",
  "=v c #949494FF",
  "jC c #949591FF",
  ":] c #94988FFF",
  ">R c #94A180FF",
  ",; c #94A57AFF",
  ",{ c #94AD8AFF",
  "<! c #94B08EFF",
  "<' c #959595FF",
  ">T c #95A281FF",
  ",- c #95A67BFF",
  ",= c #95A77BFF",
  "2@ c #969696FF",
  "2X c #969793FF",
  ",) c #969A91FF",
  ">Y c #96A283FF",
  ",* c #96A87DFF",
  ":' c #979B92FF",
  ">U c #97A383FF",
  ",& c #97A87DFF",
  "2; c #97D359FF",
  ";f c #989898FF",
  ">I c #98A485FF",
  ",% c #98A97FFF",
  "2a c #999996FF",
  "2# c #999999FF",
  "1] c #999A96FF",
  "1c c #999B97FF",
  ":` c #999D94FF",
  ">P c #99A586FF",
  ",$ c #99A980FF",
  "t, c #9A9C98FF",
  ",C c #9A9E95FF",
  ",# c #9AAA81FF",
  ",@ c #9AAB82FF",
  "<= c #9B9B9BFF",
  "2p c #9B9C98FF",
  ":_ c #9B9F96FF",
  ",+ c #9BAB84FF",
  "[t c #9C9C9BFF",
  "5s c #9C9D99FF",
  ",O c #9CAC84FF",
  "2$ c #9D9D9DFF",
  ":) c #9DA198FF",
  ",o c #9DAD86FF",
  "<y c #9E9E9EFF",
  "hO c #9E9F9BFF",
  ",9 c #9EA299FF",
  ">F c #9EB281FF",
  "<m c #9F9F9FFF",
  "*{ c #9FA19EFF",
  ">D c #9FB282FF",
  "1F c #A0A09DFF",
  ":( c #A0A49BFF",
  ">S c #A0B384FF",
  "2i c #A1A19EFF",
  "<- c #A1A29EFF",
  ":/ c #A1A59CFF",
  ">1 c #A1A79CF8",
  ">A c #A1B384FF",
  ">Z c #A1B485FF",
  "1z c #A2A39FFF",
  ":^ c #A2A69DF7",
  ":! c #A2A79D34",
  ">C c #A2B486FF",
  "h5 c #A3A4A1FF",
  ">V c #A3B587FF",
  ">B c #A3B588FF",
  "># c #A4A49E2A",
  "22 c #A4A5A1FE",
  ":~ c #A4A79FC9",
  ">N c #A4B689FF",
  "20 c #A5A5A2FE",
  ")= c #A5A6A3FF",
  ">; c #A5A7A0C3",
  ">M c #A5B78AFF",
  "1< c #A6A7A4FF",
  ">$ c #A6AAA1F2",
  ">m c #A6B78CFF",
  ">n c #A7B88EFF",
  ",/ c #A8A9A5FF",
  "34 c #A8AAA6FF",
  ">b c #A8B98FFF",
  "2u c #A9AAA7FF",
  ">v c #A9B990FF",
  "<1 c #A9C4A0FF",
  ">c c #AABA91FF",
  ">x c #AABB92FF",
  ">z c #ABBB93FF",
  ",' c #ABC6A5FF",
  "2y c #ACACA9FF",
  "(G c #ACAEABFF",
  ">l c #ACBC95FF",
  "1> c #ADADAAFF",
  ">k c #ADBC95FF",
  "2t c #AEAFACFF",
  ",B c #AEB0ACFF",
  ",D c #AECAA5FF",
  "</ c #AFC9ABFF",
  "2r c #B1B2AFFF",
  ",F c #B1CAA7FF",
  "q& c #B2B4B0FF",
  "<{ c #B3B4B1FF",
  "gs c #B4B5B2FF",
  "WF c #B5B7B3FF",
  "2e c #B7B8B5FF",
  "<N c #B8BAB6FF",
  "BF c #BABAB8FF",
  "2w c #BCBDBAFF",
  ">| c #BCBEBAFF",
  "<i c #BEC0BDFF",
  "<4 c #BED6B9FF",
  "6, c #BFBFBDFF",
  "6a c #C1C1BFFF",
  "<F c #C1DDBFFF",
  "2q c #C2C2C0FF",
  ">H c #C2C4C1FF",
  "<j c #C2DCC0FF",
  ">g c #C4C6C3FF",
  "1+ c #C4DCC3FF",
  "6i c #C5C5C3FF",
  "2- c #C5E6A3FF",
  "<u c #C6C7C5FF",
  ">7 c #C7C9C6FF",
  "6- c #C8C8C6FF",
  "5v c #C9C9C7FF",
  ">, c #C9CAC7FE",
  "rL c #C9CBC8FF",
  "tX c #CACBC9FF",
  ">> c #CACCC9FF",
  "TJ c #CCCDCBFF",
  "6= c #CDCDCBFF",
  ">4 c #CDCFCCFF",
  ">* c #CDD0CCFE",
  "rP c #CED0CDFF",
  "6* c #D0D0CEFF",
  "5u c #D2D2D0FF",
  ",[ c #D3E5D1FF",
  "<~ c #D5E6D4FF",
  "&* c #D6D6D4FF",
  ">: c #D6D8D5FE",
  "Bp c #D7D8D6FF",
  ">% c #D8DAD7FE",
  "lw c #DCDCDBFF",
  "<2 c #DCECDAFF",
  "<G c #DCF1DDFF",
  "<k c #DEF2DEFF",
  "=f c #E0E1E0FF",
  "Lw c #E1E2E0FF",
  "hJ c #E2E3E2FF",
  "&3 c #E3E3E2FF",
  "1E c #E4E5E4FF",
  "#* c #E5E5E4FF",
  "6A c #E6E6E5FF",
  "51 c #E6E7E5FF",
  ">5 c #E6E7E6FF",
  "6$ c #E8E8E7FF",
  "lC c #E9E9E8FF",
  ":2 c #E9E9E9FF",
  ">d c #EAEBEAFF",
  "6d c #EBEBEAFF",
  "<^ c #EBF9ECFF",
  "4M c #ECEDECFF",
  "<3 c #EDF9EEFF",
  ":< c #EEEEEEFF",
  ">& c #EEEFEEFF",
  "l8 c #F0F0EFFF",
  "46 c #F0F1F0FF",
  "vq c #F1F2F1FF",
  "#6 c #F2F3F2FF",
  "1O c #F4FBF4FF",
  ",] c #F5FBF6FF",
  "1U c #FFFFFFFF",
  "   c none",
  
  // Image data
  "                                                                ",
  "                                                                ",
  "  :!:~:^:/:/:/:/:/:/:/:/:/:/:(:):_:`:':]:[:{:}:|>.>X>o>O>+>@    ",
  ">#>$>%>&#6#6#6#6#6#6#6#6#6#6#6#6#6#6#6#6#6#6#6#6#6vq46>d>*>=>-  ",
  ">;>:51rP>>>>>>>>>>>>>>>>>>>>>>>>>>>>>>>>>>>>>>>>>>>>>>rPhJ>,><  ",
  ">1>&rP>2>3>J>J>J>J>J:8rr6(:;Nv>(;[6^;W;F,k,j=1,z=,,x5'34>4>5>6  ",
  ":/#6>7>8>9>0>q>q>q>w>e>r>r>t>y>y>y>u>u>u>9>i>p>p>a>a>s5IrLlC>f  ",
  ":/#6>g>h>j>k>l>z>x>c>v>b>b>n>m>m>M>N>B>V>C>Z>A>S>D>F>G;*>H#*>K  ",
  ":/#6>g>h>L>P>I>U>Y>T>R>E>W>Q>!>~>^>/>)>_>`>'>]>[>[>{>}-,>|=f,.  ",
  ":/#6>g>h,X,o,O,+,@,#,$,%,&,*,=,-,;,:,>,,,<,1,2,3,4,5,6,7WFlw,8  ",
  ",9#6>g,0,q,w,e,r,t,y,u,i,p,a,s,d,f,g,h,l,c,v,b,n,m,M,N<',BBp,V  ",
  ",C#6>g,Z,A,S,D,F,G,H,J,K,L,P,I,U,Y,T,R,E,W,Q,!,!,!,~,^;f,/5u,(  ",
  ",)#6>gKh,_,`,',],[,{,},|<.<X<o<O<+<@<#<$<%<%<&<$<$<$<*<=<-TJ<;  ",
  ":[#6>g<:<><,<<<1<2<3<4<5<6<7<8<9<0<q<w<w<e<e<r<r<q<q<t<yt,<u<;  ",
  ":}vq<i<p<a<s<d<f<g<h<j<k<l<z<x<c<v<v<v<v<b<b<b<b<b<b<n<mjC6a<;  ",
  "<Ml8<N<B<V<C<Z<A<S<D<F<G<H<J<K<K<K<K<L<P<P<P<P<P<I<I<U<m<YBF<;  ",
  "<T:<q&<R<E<W<Q<!<~<^</<(<)<_<_<_<`<`<`<`<`<`<]<]<]<]<[<m*.<{<;  ",
  "<}4M(G<|1.1X1o1O1+1@1#1$1%1%1%1&1&1&1*1*1=1=1-1-1-1;<[<m1:1><;  ",
  "1,6d1<1112131415161718181817191010101010101q1q1q1w1e1r<m1t)=<;  ",
  "1y:2*{1u1i1e1p1a1s1s1s1d1d1d1d1d1f1f1g1g1g1g1h1h1j1j1k<m1l1z<;  ",
  "1x6$1c1v1b1n1n1m1m1M1M1N1B1B1B1V1V1V1C1Z1A1S1S1S1S1S1D<m1l1F<;  ",
  "1G6AjC1H1J1K1K1K1L1P1P1I1U1U1U1U1U1U1U1Y1A1A1A1A1T1T1b<m1l5s<;  ",
  "1R1Efo[-1W1Q1!1~1~1~1~1^1/1/1/1/1/1/1/1(1)1)1_1`1`1`1'<m1l1]<;  ",
  "1[&3g,1{1}1|1|1|1|1|1|1|1|1|1|1|1|1|1|1|1|1|1|1|1|1|2.[t1l2X<;  ",
  "2oLw2OBn;*2+,7=v2@2#<=2$<m<m<m<m<m<m<m<m<m<m<m<m<m<m[t2%1lka<;  ",
  "2&&*2*2=1l1l1l1l1l1l1l1l1l1l1l1l1l1l1l1l1l2-2;1l2:2:2:1l2>2,2<  ",
  "2122BF2O1l1l1l1l1l1l1l1l1l1l1l1l1l1l1l1l1l23231l2:242*2>252627%H",
  "2829205v6*6=tX6-6i2q6,2wBF2egs2r2t2y2u1<h52ihO2p2a2Xka2,2s2d2f@5",
  "&^2g2h2j<;<;<;<;<;<;<;<;<;<;<;<;<;<;<;<;<;<;<;<;<;<;<;2k2l2z*F@n",
  "  *7&_er:s*8*G*G*G*G*G*G*G*G*G*G*G*G*G*G*G*G*G*G*G*G*8&W:ser[~&T",
  "    +j@C&;@m@m@m@m@m@m@m@m@m@m@m@m@m@m@m@m@m@m@m@m@m@m%H@B&T    ",
  "                                                                "
};
