/* XPM */
const char *xpm_tango_apps_utilities_system_monitor[] = {
  // Header (width height colors chars-per-pixel)
  "32 32 580 2",
  
  // Colors (code mode value)
  "+j c #00000001",
  "&j c #00000002",
  "&T c #00000003",
  "&0 c #00000005",
  ":E c #00000008",
  "@: c #00000010",
  "&Z c #00000011",
  "+k c #00000016",
  "&) c #0000001C",
  "&V c #0000001F",
  "&A c #00000020",
  "&Y c #00000023",
  ":Q c #00000024",
  ":W c #00000025",
  "+J c #00000027",
  "*7 c #173562FF",
  ";8 c #183662FF",
  "*8 c #183663FF",
  "*9 c #193763FF",
  "*6 c #1A3764FF",
  "*e c #1A3864FF",
  ":% c #1A3964FF",
  ":7 c #1A3965FF",
  ":3 c #1B3966FF",
  "-0 c #1C3A64FF",
  ";o c #1D3B64FF",
  ":6 c #213F66FF",
  "=P c #295493FF",
  "=L c #2A5596FF",
  "-X c #2B5697FF",
  "-o c #2B5798FF",
  "-. c #2C589AFF",
  "-O c #2D599BFF",
  "=K c #2E5999FF",
  "=| c #2E5A9CFF",
  ")2 c #2F5893FF",
  "-+ c #2F5B9EFF",
  "=} c #2F5C9EFF",
  "-b c #304F6AFF",
  "={ c #305EA1FF",
  ";X c #314F6AFF",
  "=[ c #325FA2FF",
  ":& c #3260A3FF",
  ";9 c #3361A5FF",
  "=U c #345D99FF",
  ";k c #3462A6FF",
  ":2 c #3463A6FF",
  ";S c #3463A7FF",
  ";7 c #3563A7FF",
  ";E c #3563A8FF",
  ";0 c #3564A9FF",
  "*b c #36588CFF",
  ";l c #3665AAFF",
  ":* c #3666ABFF",
  ";6 c #3766AAFF",
  ";D c #3766ABFF",
  ";W c #3766ACFF",
  ";q c #3767ACFF",
  "-7 c #38639AFF",
  "-q c #38649AFF",
  "=] c #3865A7FF",
  "-: c #3868ACFF",
  ";z c #3868AEFF",
  "-P c #39596CFF",
  "-w c #39669DFF",
  "-> c #3968ACFF",
  ";5 c #3969ADFF",
  ";F c #3969AFFF",
  ";! c #3969B0FF",
  ";w c #396AB0FF",
  "-n c #3B5A6DFF",
  "*r c #3B5D90FF",
  "-e c #3B68A0FF",
  ";4 c #3B6BB1FF",
  ";x c #3B6BB2FF",
  ":1 c #3B6CB2FF",
  ";G c #3B6CB3FF",
  "-I c #3C5B6EFF",
  ";e c #3C6CB3FF",
  ";~ c #3C6CB4FF",
  ":K c #3D3D3A53",
  ";3 c #3D6EB4FF",
  ";c c #3D6EB6FF",
  ":= c #3D6FB6FF",
  "=J c #3E67A2FF",
  "-6 c #3E689EFF",
  ";r c #3E6FB7FF",
  ";^ c #3E6FB8FF",
  "-@ c #3F6BA0FF",
  ";v c #3F71B9FF",
  ";j c #3F71BAFF",
  "-5 c #406CA0FF",
  ";O c #406DA2FF",
  ";+ c #406EA6FF",
  ";2 c #4070B6FF",
  ";H c #4072BBFF",
  ";/ c #4073BCFF",
  "=' c #416CABFF",
  ";@ c #416FA9FF",
  ";h c #4174BDFF",
  "-4 c #426EA3FF",
  "4% c #4271ACFF",
  ";1 c #4274B9FF",
  ":- c #4274BEFF",
  ";J c #4275BFFF",
  "=Y c #4369A3FF",
  "-3 c #4370A5FF",
  ";g c #4376C0FF",
  ";# c #4473AFFF",
  "-f c #4474AFFF",
  ";< c #4476BBFF",
  ":< c #4477C2FF",
  ";R c #4478C2FF",
  ":R c #45454264",
  "-2 c #4573A7FF",
  ":# c #4578C3FF",
  ";f c #4579C2FF",
  ";{ c #4579C3FF",
  ";A c #4579C4FF",
  "-1 c #4674A8FF",
  ";$ c #4676B2FF",
  ";b c #4679BBFF",
  ":, c #467AC5FF",
  "-< c #4775A9FF",
  ";Z c #477BC6FF",
  ":@ c #477BC7FF",
  ";[ c #477CC7FF",
  "=5 c #486A9EFF",
  "=z c #486CA2FF",
  "-, c #4875AAFF",
  ":> c #487CC8FF",
  ";N c #487DC9FF",
  "=` c #4972AFFF",
  ":; c #497CC0FF",
  ";T c #497DCAFF",
  ";C c #497EC9FF",
  ":+ c #497ECBFF",
  "*v c #4A6999FF",
  "=o c #4A6B9DFF",
  "-* c #4A77A9FF",
  ";p c #4A7DC2FF",
  ":X c #4A7FCAFF",
  ";] c #4A7FCBFF",
  ";I c #4A80CDFF",
  "*T c #4B6B9BFF",
  ":o c #4B81CEFF",
  "*c c #4C6B9BFF",
  "=T c #4C72A9FF",
  ";U c #4C81CFFF",
  ";` c #4C82CFFF",
  "*x c #4D6C9DFF",
  "*z c #4D6E9EFF",
  "=H c #4D73ABFF",
  ";Y c #4D81CFFF",
  ":O c #4D83D1FF",
  "*l c #4E6E9FFF",
  ";t c #4E80B7FF",
  ";' c #4E85D3FF",
  "=x c #4F72A5FF",
  ";B c #4F83C7FF",
  "*k c #5070A0FF",
  "=_ c #5078B3FF",
  ";_ c #5085C9FF",
  "*t c #516F9DFF",
  "*j c #5171A1FF",
  "*h c #5171A2FF",
  "=6 c #5172A4FF",
  "*y c #52709DFF",
  "*g c #5273A2FF",
  "*u c #53719FFF",
  "*f c #5373A3FF",
  "*i c #5472A0FF",
  "*s c #5473A2FF",
  "*p c #5474A1FF",
  "*R c #5474A2FF",
  "*d c #5474A3FF",
  ";| c #5485BFFF",
  ";- c #5586BBFF",
  "*m c #5774A1FF",
  "=) c #577EB6FF",
  "=R c #587CAEFF",
  ";, c #5A89BAFF",
  "=G c #5B7FB3FF",
  ";d c #5B8CBFFF",
  ":: c #5B8DBFFF",
  "=l c #5C7DAEFF",
  ";P c #5D8FC5FF",
  ";V c #5D90C2FF",
  "*a c #5E7CA4FF",
  "-g c #5E8AAEFF",
  "-r c #5F89A6FF",
  "=k c #6181B1FF",
  "=F c #6284B6FF",
  "=4 c #6381AEFF",
  "=D c #6386B7FF",
  "=3 c #6483B0FF",
  "=j c #6484B3FF",
  "-p c #6490AFFF",
  "=h c #6585B5FF",
  "=S c #6586B9FF",
  "=( c #658BB8FF",
  "=2 c #6684B1FF",
  "=A c #6688BAFF",
  "=X c #6783AEFF",
  "=g c #6787B6FF",
  "=Z c #6789BAFF",
  "*n c #686964FF",
  "=1 c #6886B3FF",
  "=f c #6888B8FF",
  "=~ c #688ABAFF",
  ";% c #6894B2FF",
  "*- c #696D693D",
  "=. c #6985AFFF",
  "=< c #6987B4FF",
  "=d c #6989B8FF",
  "=C c #698CBAFF",
  "*, c #6A6A6530",
  "*| c #6A87B1FF",
  "=, c #6A88B6FF",
  "=s c #6A8AB9FF",
  "=N c #6A8CBAFF",
  ";a c #6A9BBEFF",
  "*q c #6B6B66F9",
  ":Z c #6B6C67D2",
  "=c c #6B89B4FF",
  "=v c #6B89B6FF",
  "=a c #6B8BB9FF",
  "-; c #6B97ABFF",
  ":Y c #6C6D69DC",
  "*Y c #6C86AFFF",
  "*} c #6C88B2FF",
  "=> c #6C8AB7FF",
  "=p c #6C8BBAFF",
  "=: c #6D8BB8FF",
  "*U c #6E88B0FF",
  "*{ c #6E8AB5FF",
  "=; c #6E8CB8FF",
  "=y c #6E8CBAFF",
  ";( c #6E9DBBFF",
  ":J c #6F706CF6",
  "*> c #6F706DF3",
  "*I c #6F8AB2FF",
  "=7 c #6F8CB5FF",
  "*[ c #6F8CB6FF",
  "=9 c #6F8CB7FF",
  "*3 c #70716BC9",
  ":U c #70716CFB",
  "=8 c #708CB6FF",
  "=- c #708DB9FF",
  "=u c #708FBAFF",
  "** c #71726DF9",
  "*& c #71726DFF",
  "*P c #718BB3FF",
  "*] c #718CB7FF",
  "*' c #718EB8FF",
  "== c #718EBAFF",
  "*= c #72736FCE",
  "*L c #728DB4FF",
  "=& c #728FBAFF",
  "=* c #7290BBFF",
  "*% c #73746FFF",
  "*K c #738EB5FF",
  "*` c #738EB8FF",
  "=+ c #748EB7FF",
  "=@ c #748FB8FF",
  "*_ c #7490B9FF",
  "*$ c #757672FF",
  "=O c #758FB6FF",
  "*J c #758FB7FF",
  "*H c #7590B8FF",
  "*) c #7590B9FF",
  "*( c #7590BAFF",
  ";. c #759DA5FF",
  "=# c #7690B8FF",
  "*/ c #7691BAFF",
  "66 c #777874FF",
  "*G c #7791B8FF",
  "=0 c #7794B8FF",
  "=B c #7797BBFF",
  "-| c #77A1A9FF",
  "-G c #77A2B1FF",
  ";M c #77A5BCFF",
  "*0 c #78889AFF",
  "*F c #7892B9FF",
  "=i c #7896BAFF",
  "*# c #797A76FF",
  "*W c #7992B7FF",
  "*Q c #7992B8FF",
  "*D c #7993B9FF",
  "*^ c #7993BAFF",
  "^# c #7995BAFF",
  "*E c #7A92B7FF",
  "*S c #7A93BAFF",
  "*A c #7A94BAFF",
  "-^ c #7AA6B4FF",
  "*@ c #7B7C78FF",
  "*Z c #7B95BAFF",
  "-} c #7BA3ACFF",
  "-{ c #7BA5AEFF",
  "*C c #7C95BAFF",
  "*+ c #7D7E7BFF",
  "*5 c #7D8DA3FF",
  "*N c #7D95B9FF",
  "-[ c #7DA6AFFF",
  "-] c #7DA7B0FF",
  "*M c #7E95B8FF",
  "-' c #7EA7B2FF",
  ":. c #7EA9BCFF",
  "-W c #7FA9B0FF",
  "-` c #7FA9B3FF",
  "*O c #80817DFF",
  "=t c #819EBDFF",
  "*o c #82837FFF",
  ":L c #83838052",
  "*B c #839BBAFF",
  "*X c #848581FF",
  ";K c #84AFB8FF",
  "*. c #868783FF",
  "=b c #86A3BBFF",
  "&| c #888986FF",
  "&} c #8A8B88FF",
  ":8 c #8A98A7FF",
  ":5 c #8A9AAEFF",
  "-E c #8AB1B0FF",
  "=^ c #8BACBBFF",
  "/U c #8C8D8AFF",
  "*! c #8CA5BBFF",
  ":A c #8D8D883A",
  "cg c #8E8F8CFF",
  "-A c #8FB6B3FF",
  "5a c #91928EFF",
  "*V c #91AABDFF",
  "=M c #91AEBEFF",
  "=V c #92B1BDFF",
  "=E c #92B2BAFF",
  "&{ c #939491FF",
  "f; c #959693FF",
  ";i c #95BDBBFF",
  "-= c #96BCB2FF",
  "&[ c #979895FF",
  "k> c #999A97FF",
  "B& c #9B9C9AFF",
  "t$ c #9B9D99FF",
  ":g c #9C9E9AFF",
  ";s c #9CC4B9FF",
  "Bq c #9D9E9BFF",
  "<A c #9D9E9CFF",
  ":i c #9D9F9BFF",
  ";; c #9DC5B8FF",
  "gE c #9EA09CFF",
  "=! c #9EBBC0FF",
  "B- c #9FA09EFF",
  ":M c #9FA19DFF",
  ":B c #9FA29EFF",
  ";) c #9FC8B8FF",
  "vX c #A0A29DFF",
  ":u c #A0A29EFF",
  "-v c #A0C4AAFF",
  "t- c #A1A39FFF",
  "-Z c #A1C5B3FF",
  ":P c #A2A39FD8",
  "31 c #A2A3A0FF",
  ";> c #A2C6BCFF",
  ":I c #A3A4A1FB",
  "&] c #A3A5A1F8",
  "=$ c #A4BDC0FF",
  "-& c #A5C6B8FF",
  ";n c #A5C9BAFF",
  "5G c #A6A9A4FF",
  ":k c #A6A9A5FF",
  "*~ c #A6BEC2FF",
  "-# c #A6C7B6FF",
  "-d c #A6C9B6FF",
  "&` c #A7A7A33D",
  "3: c #A7A9A5FF",
  ")/ c #A7AAA4FF",
  "*; c #A8A8A82F",
  "*w c #A8A9A7FF",
  ":S c #A8A9A8F5",
  "34 c #A8AAA6FF",
  "&' c #A8AAA7CE",
  ":n c #A8ABA7FF",
  ":C c #A8ACA5FF",
  "-h c #A8CAB7FF",
  "-m c #A8CBAFFF",
  "-_ c #A9CCBBFF",
  "*: c #AAABA9F3",
  "*4 c #AAABA9F8",
  "jz c #AAACA8FF",
  "-D c #AACCB5FF",
  "-C c #AACCB7FF",
  "35 c #ABADA9FF",
  ":c c #ACADAACA",
  "*< c #ADAFACC8",
  "(F c #AEB0ADFF",
  "-c c #AECDB7FF",
  "-x c #AECDB9FF",
  "-z c #AECFBBFF",
  "-l c #AFD0BBFF",
  "-k c #AFD0BCFF",
  "-M c #B0D0B6FF",
  "-N c #B0D0B7FF",
  "-j c #B0D0BDFF",
  ":N c #B1B4AEFF",
  "-U c #B1D2B2FF",
  "-! c #B1D3BDFF",
  ":d c #B2B4AFFF",
  "q& c #B2B4B0FF",
  ":p c #B2B5AFFF",
  ":m c #B2B6B0FF",
  "-B c #B3D2B8FF",
  ":x c #B4B7B1FF",
  "-H c #B5D7BCFF",
  ":r c #B7BBB5FF",
  "=/ c #B7D2C1FF",
  "Je c #B8BAB4FF",
  ":e c #B9BCB6FF",
  ";= c #BAD9BFFF",
  "-R c #BADABAFF",
  ")S c #BBBEB7FF",
  "-Y c #BBD8BAFF",
  "-T c #BBDABAFF",
  "!. c #BCC0B9FF",
  ":a c #BCC0BBFF",
  "c] c #BDBEBBFF",
  "*2 c #BDBFBBFF",
  "Q} c #BDC1BAFF",
  "qX c #BDC1BBFF",
  "Q{ c #BEC1BBFF",
  "-i c #BEDDBEFF",
  "Q[ c #BFC2BCFF",
  "=% c #BFD5C8FF",
  "=e c #BFD6C8FF",
  ";y c #BFDFBEFF",
  "ov c #C0C3BCFF",
  ":t c #C0C4BDFF",
  ":h c #C0C4BEFF",
  "-a c #C0DFBEFF",
  "-u c #C0DFBFFF",
  "Q` c #C1C5BEFF",
  ")l c #C1C5BFFF",
  ";L c #C1E1C1FF",
  "Q) c #C2C6BFFF",
  "-y c #C2E0C0FF",
  "Q/ c #C3C7C0FF",
  ".o c #C4C6C2FF",
  ":V c #C4C8C1FF",
  "r< c #C5C8C2FF",
  "r2 c #C5C9C2FF",
  "-( c #C5E4BFFF",
  "r: c #C6CAC3FF",
  "-t c #C6E2C1FF",
  "Q< c #C7CAC4FF",
  ":G c #C7CAC5FF",
  "r- c #C7CBC4FF",
  ":H c #C7CBC5FF",
  ":z c #C8C9C6FF",
  ":q c #C8CCC6FF",
  ":l c #C9CBC7FF",
  "L3 c #C9CDC7FF",
  "4{ c #CACCC8FF",
  "Tv c #CACDC7FF",
  "Tg c #CACEC8FF",
  "e[ c #CBCFC8FF",
  ":s c #CBCFC9FF",
  ":4 c #CCCFC9FF",
  "-/ c #CCE8C0FF",
  "eY c #CDD1CBFF",
  "T1 c #CED0CBFF",
  "XG c #CED1CBFF",
  "XJ c #CFD2CCFF",
  "Ti c #CFD2CDFF",
  ":b c #CFD3CDFF",
  "-~ c #CFE9C4FF",
  "XF c #D0D3CDFF",
  "XB c #D0D3CEFF",
  "-F c #D0ECC2FF",
  "e| c #D1D4CEFF",
  "=r c #D1E6D0FF",
  ";& c #D1EDC4FF",
  "o0 c #D2D5D0FF",
  "-% c #D2ECC5FF",
  "-L c #D2EFBDFF",
  "eT c #D3D6D1FF",
  "-$ c #D3EDC5FF",
  "XK c #D4D7D1FF",
  "XN c #D4D7D2FF",
  "=n c #D4E9D0FF",
  "-- c #D4EEC4FF",
  "XC c #D5D8D3FF",
  "}M c #D6D8D3FF",
  "X_ c #D6D8D4FF",
  "=I c #D6D9D4FF",
  ".r c #D7D9D5FF",
  "KT c #D7DAD5FF",
  "-S c #D7F1C6FF",
  ";m c #D7F2C7FF",
  "XV c #D8DAD6FF",
  "-8 c #D8DBD7FF",
  ";* c #D8F1C7FF",
  "r3 c #D9DBD7FF",
  "-s c #D9F3C5FF",
  "yC c #DADCD8FF",
  "3t c #DADCD9FF",
  "cj c #DADDD8FF",
  "0I c #DBDDD9FF",
  ",X c #DBDED9FF",
  ":9 c #DBDEDAFF",
  ";: c #DBF4C8FF",
  "r9 c #DCDEDAFF",
  "-9 c #DCDFDBFF",
  "-) c #DCF6C9FF",
  "|1 c #DDDFDBFF",
  "XR c #DDDFDCFF",
  "=m c #DDF1D4FF",
  "-Q c #DDF6C8FF",
  "yZ c #DEDFDCFF",
  "R$ c #DEDFDDFF",
  ":f c #DEE0DCFF",
  "KZ c #DEE0DDFF",
  ":0 c #DEE1DDFF",
  "XM c #DFE1DDFF",
  "KN c #DFE1DEFF",
  "KD c #DFE2DEFF",
  "-V c #DFF6CAFF",
  "TI c #E0E1DFFF",
  ",& c #E0E2DEFF",
  "Ky c #E0E2DFFF",
  ":y c #E0E3DFFF",
  ">} c #E1E3DFFF",
  "Xv c #E1E3E0FF",
  "L, c #E1E4E0FF",
  "57 c #E2E3E0FF",
  ":j c #E2E4E0FF",
  "TZ c #E2E4E1FF",
  "=W c #E2F6D4FF",
  ";u c #E2F9C9FF",
  ":w c #E3E5E1FF",
  "X} c #E3E5E2FF",
  "3} c #E4E6E2FF",
  "K8 c #E4E6E3FF",
  "-J c #E4FBCEFF",
  "#* c #E5E5E4FF",
  "|. c #E5E6E3FF",
  ",@ c #E5E7E4FF",
  "=Q c #E5F8D4FF",
  ":F c #E6E7E4FF",
  "r6 c #E6E8E4FF",
  ":T c #E6E8E5FF",
  "-K c #E6FBD0FF",
  ",- c #E7E8E6FF",
  "g! c #E7E9E6FF",
  "|X c #E8E9E6FF",
  "1W c #E8E9E7FF",
  "1` c #E8EAE7FF",
  "59 c #E9EAE8FF",
  "fG c #E9EBE8FF",
  "3u c #EAECE9FF",
  "5; c #EBECEAFF",
  ">. c #EBEDEAFF",
  "*1 c #EBEDEBFF",
  "3f c #ECEDEBFF",
  ";} c #ECEEEBFF",
  ":$ c #ECEEECFF",
  "o. c #EDEEECFF",
  "{T c #EFF0EEFF",
  "vq c #F1F2F1FF",
  ">r c #F4F5F4FF",
  ">s c #F6F7F6FF",
  "}/ c #F7F8F7FF",
  "lP c #F9F9F8FF",
  ":v c #F9F9F9FF",
  ":D c #F9FAF9FF",
  "3C c #FAFBFAFF",
  "}1 c #FBFBFAFF",
  ";Q c #FBFBFBFF",
  "=q c #FDFDFDFF",
  "=w c #FEFEFEFF",
  ">X c #FFFFFFFF",
  "   c none",
  
  // Image data
  "  &`&'&]B-<AB&k>&[f;&{5acg/U&}&|*.*X*o*O*+*@*#66*$*%*&***=*-    ",
  "*;*:#*;Q>X>X>X>X>X>X>X>X>X>X>X>X>X>X>X>X>X>X=w=q;QlP>s3f.o*>*,  ",
  "*<X}3C*1g!g!g!g!g!g!g!g!g!g!1`1`1`59fGfG1WK8>}yZyC.rXN}M,@*2*3  ",
  "*4}1>.*5*6*7*7*7*7*7*8*7*7*7*7*7*7*7*7*7*7*7*7*7*7*7*9*0eT57*q  ",
  "*w>Xg!*e*r*t*y*u*i*p*a*s*d*f*d*f*g*g*h*j*k*l*z*x*c*v*b*6e||X*n  ",
  "*w>Xg!*7*m*M*M*N*N*B*V*C*Z*A*S*D*F*G*H*J*K*L*P*I*U*Y*T*7o0:T*n  ",
  "*w>Xg!*7*R*E*W*Q*D*!*~*^*/*/*(*)*_*`*'*]*[*{*}*|=.=X=o*7eT|.*n  ",
  "*w>Xg!*7*f=O=+=@=#=$=%^#=&=&=*===-=;=:=>=,=<=1=2=3=4=5*7XNX}*n  ",
  "*w>Xg!*7=6=7=8=9=0=e=r=t=y=u=i=p=a=s=d=f=g=h=j=k=l=z)2*7XCXv*n  ",
  "*w>Xg!*7=x=c=v=>=b=n=m=M=N=B=V=C=Z=A=S=D=F=G=H=J=K=L=P*7=I,&*n  ",
  "*w>X1`*7=U=Y=T=R=E=W=Q=!=~=^=/=(=)=_=`='=]=[={=}=|-.-X*7XV:f*n  ",
  "*w>X1`*7-o-O-+-@-#-$-%-&-*-=---;-:->-,-<-1-2-3-4-5-6-7*7-8-9*n  ",
  "*w>X59-0-q-w-e-r-t-y-u-i-p-a-s-d-f-g-h-j-k-l-z-x-x-c-v-byC0I*n  ",
  "*w>XfG-n-m-M-N-B-V-C-Z-%-A-S-D-F-G-H-J-K-K-K-K-K-K-K-L-P0Ir3*n  ",
  "*w>XfG-I-U-Y-T-R-T-E-W-Q-!-~-^-/-(-)-_-`-'-]-[-{-}-|;.;Xr9KT*n  ",
  "*w>X3u;o;O;+;@4%;#;$;%;&;*;=;-;;;:;>;,;<;1;2;3;4;5;6;7;8|1X_*n  ",
  "*w>X3u*7;9;0;q;w;e;r;t;y;u;i;p;a;s;d;f;g;h;j;r;e;w;q;0*7KZXN*n  ",
  "*w>X5;*7;k;l;z;x;c;v;b;n;m;M;N;B;V;C;Z;A;g;h;v;c;x;z;l*7KNo0*n  ",
  "*w>X>.*7;S;D;F;G;r;H;J;K;L;P;I;U;Y;I;T;Z;R;J;H;r;G;F;D*7Kye|*n  ",
  "*w>X3f*7;E;W;!;~;^;/;g;(;);_;`;';';`;];[;{;g;/;^;~;!;W*7:jTi*n  ",
  "*w>X;}*7;E;D;F;e;r;H;J;|:.:X:o:O:O:o:+:@:#;J;H;r;e;F;D*7:weY*n  ",
  "*w>X:$:%:&:*;F;G:=;j:-:;:::>:+;I;I:+:>:,:<:-;j;c:1;F:2:3X}:4*n  ",
  "*w>X3f:5:%*7*7*7*7*7*7;8:6*7*7*7*7*7*7*7*7*7*7*7*7*7:7:8XRTv*n  ",
  "*w>X1`o.>.1`r6X}>}XM-9cjyC0I:9r9|1:f:0KN,&>}:jTZX}3}K8XM:q:q*n  ",
  "*w>Xg!K8KD,X.ro0XGL3r2Q)Q)Q)Q}JeQ`Q))l:e)SQ)Q)Q{:r:tQ)Q)Q)Q<*n  ",
  "*w>X,@:yr9XVeTXJTgr:Q)Q)Q)qX:ujzt$Q`3::i31:pQ[vX35t$:aQ)Q)r2*n  ",
  "*43C,-|1-8XNXF:sr-Q/Q)Q)Q):dq&XR:g:h:k:l:z5G:x(FKNBq!.Q)Q/ov*q+j",
  ":cTI:vL,XVXK:be[Q<r2r2r2r<:h:u:u:nQ/:m:MgE:N:tt-:B34)lQ/:V:C:Z&Z",
  ":A:SR$>s:D}/>rvq{T;}3u1`:FX}3tT1yC0I-84{:GXBXF:Hc]r<Q<:h)/:J:K+k",
  "&0:L:P:IB-<AB&k>&[f;&{5acg/U&}&|*.*X*o*O*+*@*#66*$*%*&:U:Y:R&A:E",
  "  &j@:&)&Y+J+J+J+J+J+J+J+J+J+J+J+J+J+J+J+J+J+J+J+J+J:W:Q&V@:&T  ",
  "        +j&j&j&j&j&j&j&j&j&j&j&j&j&j&j&j&j&j&j&j&j&j&j+j        "
};
