/* XPM */
const char *xpm_tango_actions_address_book_new[] = {
  // Header (width height colors chars-per-pixel)
  "32 32 471 2",
  
  // Colors (code mode value)
  "+j c #00000001",
  "O` c #00000002",
  "@. c #00000003",
  "@X c #00000004",
  "+e c #00000005",
  "@* c #00000007",
  "+( c #0000000A",
  "+> c #0000000B",
  "+h c #0000000D",
  "+: c #0000000E",
  "@: c #00000010",
  "+B c #00000011",
  "+r c #00000012",
  "+K c #00000013",
  "@o c #00000014",
  "+k c #00000016",
  "+w c #00000019",
  "@; c #0000001A",
  "+| c #0000001B",
  "@= c #0000001C",
  "@- c #00000020",
  "+g c #00000021",
  "+/ c #00000023",
  "+N c #00000026",
  "+J c #00000027",
  "+M c #1F2B456B",
  "+) c #222D4B44",
  "@O c #232D4949",
  "+H c #2431517E",
  "@& c #2734544F",
  "+^ c #2B395F8E",
  "+} c #2F3E6799",
  "o_ c #3547787D",
  "o2 c #3549774D",
  "@+ c #364574CA",
  "os c #3647775A",
  "oN c #36487767",
  "@$ c #364878F7",
  "@# c #364878F8",
  ".- c #364878FF",
  "oL c #36487972",
  "+t c #364978F4",
  "+V c #364978FD",
  "@% c #374878EC",
  "@@ c #374878F7",
  "+l c #374878FA",
  "+L c #374975D5",
  "+, c #374978EC",
  ".= c #374978FC",
  "O' c #374979E2",
  ".* c #374979F6",
  "O% c #3848798D",
  "+q c #384A79F6",
  "O4 c #384A7A9F",
  "Oi c #384B7AAE",
  ".; c #394A79A9",
  "OU c #394A79D5",
  "Ob c #394B79BB",
  "+; c #394B79E5",
  "+f c #394B79FC",
  "OD c #394B7AC9",
  "+m c #3B4D7BF5",
  "+_ c #3E517EF5",
  "+G c #3F517DF6",
  ".s c #3F517EF0",
  ".& c #425273F6",
  "+~ c #445783FA",
  "+{ c #475885FF",
  "ob c #495A78FF",
  "ou c #4A5C6CFF",
  "oF c #4C5983FF",
  ".m c #516188FF",
  "O/ c #543C61FF",
  "o> c #546664FF",
  "XH c #55643EFF",
  "+[ c #596992FF",
  "+] c #5B6A94FF",
  "+d c #5B6B94FF",
  "o~ c #5E6C93FF",
  "+F c #5E6D96FF",
  "+' c #5E6E95FF",
  "+0 c #5F6E96FF",
  ".K c #617294FF",
  ".% c #646E61F8",
  "+I c #68789DFF",
  "+u c #69799EFF",
  "+3 c #6A799DFF",
  "+! c #6B799EFF",
  "+9 c #6D7B9FFF",
  "oM c #717D0B5A",
  "X{ c #727E0AFC",
  "+4 c #727F9FFF",
  "oa c #7280093A",
  "o3 c #72819FF5",
  "X] c #738183FF",
  "OL c #746182FF",
  "XJ c #74800BFF",
  "OO c #757FA0FF",
  "XK c #75810B8C",
  "o1 c #76800A1A",
  "+5 c #7682A1FF",
  ".$ c #788055F9",
  "+6 c #7984A3FF",
  ".{ c #7985A0FF",
  "od c #7987AAF6",
  "+2 c #7A8AABFF",
  "o< c #7B8717F6",
  "+U c #7C89A9FF",
  "+` c #7C8BADFE",
  ".# c #828951F8",
  "+s c #828DA7FF",
  "oB c #8391B2F8",
  "+8 c #848FA9FF",
  "+7 c #858FAAFF",
  ".@ c #868B4FDC",
  "OC c #873B55FF",
  "O, c #8790ADFF",
  "op c #879329F1",
  "X4 c #8895AEFF",
  "oP c #8A99B6FB",
  "+i c #8C95ACFF",
  "o` c #929FBCFF",
  "om c #95A13DF4",
  "XA c #95AFCEFF",
  "XS c #95B0CEFF",
  ".] c #95B0CFFF",
  ".v c #95B1CEFF",
  ".b c #95B1CFFF",
  "X| c #969B4166",
  "Oe c #96A0BCFF",
  "or c #96AECCFF",
  "Xf c #96AECDFF",
  "XV c #96AFCDFF",
  "o| c #96AFCEFF",
  "Xh c #97A5BAFF",
  "o- c #97ACCBFF",
  ".^ c #97ACCCFF",
  "X! c #97ADCCFF",
  "Xa c #97AECDFF",
  "ot c #97B2D0FF",
  "XC c #98A9C9FF",
  "Ow c #98AAC9FF",
  "ol c #98AACAFF",
  "oz c #98ACCAFF",
  "X2 c #98ACCBFF",
  "XQ c #99AAC9FF",
  "Od c #99B4D1FF",
  "Oj c #9AA6C6FF",
  "Xp c #9AA7C8FF",
  "O& c #9AA8C2FF",
  "OB c #9AA8C8FF",
  "O8 c #9AB0CFFF",
  "O~ c #9AB5D1FF",
  "o. c #9BA266F7",
  "oq c #9BA4C5FF",
  "XZ c #9BA5C6FF",
  "OX c #9BA5C7FF",
  "O! c #9BB5D2FF",
  "o; c #9BB6D2FF",
  "X) c #9CA1C3FF",
  ".' c #9CA2C4FF",
  "ox c #9CA3C4FF",
  "Oz c #9D374CFF",
  "O0 c #9DA0C1FF",
  "X> c #9DA0C2FF",
  "o& c #9DA1C2FF",
  ".J c #9DB6C0FF",
  "X, c #9E9EC1FF",
  "Of c #9F9BBFFF",
  "oS c #9F9EC0FF",
  "ok c #9FA4C5FF",
  "X: c #A099BCFF",
  "./ c #A09ABDFF",
  "oE c #A09BBDFF",
  "oZ c #A0A2C3FF",
  "X` c #A0B9D4FF",
  "X= c #A198BCFF",
  "oe c #A296BAFF",
  "XD c #A297BBFF",
  "o9 c #A29FC1FF",
  "O5 c #A2AFC7FF",
  "XG c #A2B0C7FF",
  "+P c #A2B0C9FF",
  "o= c #A393B8FF",
  "X< c #A395B9FF",
  "Ol c #A3B0C8FF",
  "X* c #A3B9B4FF",
  "X/ c #A490B5FF",
  "oR c #A492B6FF",
  ".` c #A492B7FF",
  "oT c #A496BAFF",
  ".~ c #A4BAB3FF",
  ".( c #A58EB4FF",
  "Xs c #A58FB5FF",
  "X( c #A590B5FF",
  "o! c #A590B6FF",
  "o$ c #A591B5FF",
  "XF c #A5BDD6FF",
  "Oh c #A68EB4FF",
  "O: c #A690B5FF",
  "o# c #A690B6FF",
  "O; c #A6BED7FF",
  "._ c #A78BB1FF",
  "X~ c #A78CB1FF",
  "X; c #A78CB2FF",
  "O. c #A78DB3FF",
  "o{ c #A7AECBFF",
  "OQ c #A7BFD7FF",
  "XB c #A888AEFF",
  "Xd c #A888AFFF",
  ".) c #A889B0FF",
  "o% c #A88AB1FF",
  "O9 c #A986ADFF",
  "Xi c #A988AFFF",
  "X_ c #AA84ACFF",
  "oc c #AA84ADFF",
  "oW c #AA86ADFF",
  "ow c #AA87AEFF",
  "oY c #AA99BBFF",
  "Xj c #AAA670FF",
  "Op c #AAB8CEFF",
  "Xg c #AAC0D8FF",
  "Oq c #AB83AAFF",
  "Og c #AB83ABFF",
  "X1 c #AB84ABFF",
  "oj c #AB8BB0FF",
  "o8 c #AB91B5FF",
  "Xu c #AB96AAFF",
  "Ok c #ABC1D9FF",
  "X^ c #AC80A8FF",
  "X- c #AC81A9FF",
  "o} c #AC81AAFF",
  "oQ c #AC82AAFF",
  "oC c #AC8CB2FF",
  "o@ c #ACA2B9FF",
  ".6 c #ACC2D9FF",
  "o* c #AD7FA8FF",
  "oA c #AD7FA9FF",
  "o0 c #AD80A9FF",
  "X' c #AEBCD1FF",
  ".7 c #AEC3DAFF",
  "O| c #AEC4DBFF",
  "OV c #AFBDD3FF",
  "X3 c #AFC4DBFF",
  "Or c #B03444FF",
  ".8 c #B0C5DBFF",
  "XW c #B187A3FF",
  "+. c #B1C5DCFF",
  "., c #B2B23BDD",
  "On c #B2BFD4FF",
  ".9 c #B2C6DCFF",
  ".5 c #B3C6CBFF",
  ".[ c #B3C7DDFF",
  "o7 c #B3C8DEFF",
  ".0 c #B4C8DDFF",
  "OW c #B4C9DEFF",
  ".c c #B5C69AFF",
  "O> c #B5C8DDFF",
  "+X c #B5C9DEFF",
  ".q c #B6C9DEFF",
  "O} c #B7CADFFF",
  "+z c #B8C5D9FF",
  "OF c #B8C6D9FF",
  "+o c #B8CADFFF",
  ".w c #B8CBDFFF",
  "X5 c #B9B161FF",
  "OR c #B9C6D3FF",
  "OH c #BAC7D4FF",
  "o: c #BAC8DAFF",
  ".n c #BACCDFFF",
  "Oo c #BACCE0FF",
  ".e c #BACDE0FF",
  "OK c #BBC8DBFF",
  "OM c #BBC9D6FF",
  "+O c #BCCDE1FF",
  "on c #BDCA6FFF",
  ".r c #BDCEE1FF",
  "+Q c #BEC3D3FF",
  "Oa c #BECCDAFF",
  "++ c #BECFE1FF",
  "XN c #BFB586FF",
  ".t c #BFD0E2FF",
  "O< c #C0313EFF",
  ".a c #C0CDDEFF",
  "OY c #C0CEDEFF",
  "+@ c #C0D1E2FF",
  "O{ c #C0D1E4FF",
  "O6 c #C1CEDCFF",
  ".y c #C1D1E3FF",
  "+n c #C2C4CAFF",
  "+# c #C2D2E3FF",
  "OE c #C2D3E6FF",
  ".} c #C3B751FF",
  "XI c #C3C243FA",
  "oi c #C3CE7BFF",
  "O= c #C3D1DFFF",
  ".u c #C3D3E4FF",
  "OJ c #C3D4E6FF",
  "oK c #C400000D",
  ".P c #C4A00074",
  ".M c #C4A201E7",
  ".H c #C4CF7EFF",
  "oD c #C4D3E4FF",
  "+$ c #C4D4E4FF",
  "ON c #C4D5E7FF",
  "oy c #C5D1E1FF",
  "o] c #C5D3E2FF",
  "ov c #C5D3E3FF",
  ".i c #C5D4E5FF",
  "Os c #C5D6E7FF",
  "oJ c #C60D03E7",
  ".N c #C6A1001B",
  "Xk c #C6A200EA",
  "O^ c #C6D2E3FF",
  "+1 c #C6D3E2FF",
  "+% c #C6D5E5FF",
  ".| c #C7A400A0",
  "X6 c #C7A400C9",
  "+x c #C7C8CBFF",
  "X[ c #C7D288FF",
  "o+ c #C7D3A6FF",
  "O] c #C7D3E3FF",
  "og c #C7D5E4FF",
  ".p c #C7D6E6FF",
  "O7 c #C7D7E8FF",
  "XE c #C8CD87FF",
  "Xy c #C8D178FF",
  "+& c #C8D7E6FF",
  "O- c #C8D7E8FF",
  "o, c #C9D389FF",
  "o6 c #C9D6DEFF",
  "+* c #C9D7E6FF",
  "oh c #C9D7E7FF",
  "oV c #C9D8E8FF",
  "o[ c #C9D8E9FF",
  ".+ c #CAC72456",
  "+p c #CACACBFF",
  "oU c #CAD9E9FF",
  "O( c #CB0000FF",
  "+a c #CBCBCBFF",
  "o5 c #CBD8D4FF",
  "+= c #CBD9E8FF",
  "O$ c #CC000077",
  "OI c #CC0000FE",
  "oG c #CC0000FF",
  "oH c #CC0100FF",
  "o) c #CD000056",
  "O) c #CD0000FD",
  ".L c #CDB632FB",
  "+C c #CDCFD6FF",
  ".! c #CDD470FF",
  ".4 c #CDD69CFF",
  "OS c #CE0101F3",
  "O_ c #CE0303A0",
  "Ov c #CE0303DC",
  ".< c #CECD4CFF",
  "X& c #CED56EFF",
  "O3 c #CF02029B",
  "Ou c #CF0303C0",
  "+c c #CFCFCFFF",
  "+- c #CFDBE9FF",
  "+< c #CFDBEAFF",
  "+v c #D0D0D0FF",
  "+y c #D0DCEAFF",
  "+b c #D1D1D1FF",
  "O+ c #D22E35FF",
  "O[ c #D3E0EDFF",
  ".x c #D5DA70FF",
  "XP c #D6D12590",
  "+Y c #D6DAE1FF",
  "OT c #D6E2EFFF",
  "OG c #D6E3EFFF",
  "Om c #D7E4F0FF",
  ".h c #D8D22FFC",
  "O* c #D8E4F0FF",
  "o' c #D9E5F1FF",
  "o( c #DA2726F6",
  "+D c #DADBDEFF",
  "oI c #DAE5F1FF",
  "of c #DAE6F1FF",
  "XM c #DBDD64FF",
  "oO c #DDE18AFF",
  "o4 c #DDE7E1FF",
  ".3 c #DEE37CFF",
  "XR c #DFE269FF",
  "+Z c #E1E1E1FF",
  "oo c #E1E482FF",
  "+A c #E2E2E2FF",
  "+S c #E3E3E3FF",
  "O# c #E44646FB",
  ".G c #E4E352FF",
  "Xt c #E8E64BFF",
  ".2 c #E8E765FF",
  "O2 c #E95757FF",
  "oX c #EAEC8FFF",
  "o^ c #EB8C8FFF",
  "Xc c #EBE32CFD",
  ".z c #EBE94DFF",
  "+T c #EBECEFFF",
  ".Z c #ECE646FF",
  "+R c #ECEDF0FF",
  "Oy c #ED6767FF",
  ".Q c #EDE941FF",
  ".1 c #EDEA5CFF",
  "Xx c #EEE61FB7",
  "XT c #EEEA53FF",
  "X% c #EFEA3FFF",
  "OZ c #F03434FF",
  "X0 c #F0EA55FE",
  ".Y c #F0EB6AFF",
  "Ox c #F14040FF",
  "Oc c #F17575FF",
  "Xm c #F1EC40FF",
  "+E c #F1F2F3FF",
  "Ot c #F24B4BFF",
  "O1 c #F25757FF",
  "XO c #F2EC71FE",
  "XY c #F2EE4AFF",
  "O@ c #F36363FF",
  "OA c #F48686FF",
  "XU c #F5F054FF",
  "OP c #F69191FF",
  "+W c #F6F6F6FF",
  "o/ c #F79191FF",
  ".l c #F7F034FF",
  ".F c #F7F042FF",
  "Xr c #F8F24FFF",
  ".W c #F8F360FF",
  ".j c #F9F13DFF",
  "Xn c #F9F24AFF",
  "X$ c #F9F365FF",
  "X9 c #FAF01FD7",
  ".k c #FAF246FF",
  "Xb c #FAF45CFF",
  ".D c #FAF56DFF",
  "Xe c #FBF680FF",
  "Xv c #FCF553FF",
  ".A c #FCF679FF",
  ".S c #FCF785FF",
  ".E c #FCF79CFF",
  "Xw c #FCF89DFF",
  "X# c #FCF8A7FF",
  "Xo c #FDF425E5",
  "Xq c #FDF88DFF",
  ".T c #FDFAAFFF",
  ".U c #FEF41FE4",
  "X+ c #FEFABBFF",
  ".R c #FEFBCAFF",
  "X@ c #FEFCE3FF",
  ".X c #FFED000E",
  "Xl c #FFF10725",
  ".B c #FFF10937",
  "XL c #FFF2093B",
  "X. c #FFF20A4D",
  ".: c #FFF30629",
  "X7 c #FFF3083F",
  "Xz c #FFF30F69",
  ".V c #FFF31280",
  "XX c #FFF3169A",
  ".d c #FFF40018",
  ".f c #FFF40B5A",
  ".> c #FFF40E5D",
  "X8 c #FFF4128A",
  ".I c #FFF50A4A",
  ".g c #FFF51496",
  ".C c #FFF51BC5",
  ".O c #FFF7001E",
  "X} c #FFFF0002",
  ".o c #FFFF0005",
  ".. c #FFFF0009",
  "   c none",
  
  // Image data
  "          ...X.o                                                ",
  "      .O.+.@.#.$.%.&.*.*.*.*.*.=.-.-.-.-.-.-.-.-.-.-.;          ",
  "    .:.>.,.<.1.2.3.4.5.6.7.8.9.0.q.w.e.r.t.y.u.i.p.a.s          ",
  "  .d.f.g.h.j.k.l.z.x.c.v.b.b.b.b.b.b.b.b.b.b.b.b.b.n.m.M.N      ",
  "  .B.V.C.Z.A.S.D.F.G.H.J.b.b.b.b.b.b.b.b.b.b.b.b.b.w.K.L.P      ",
  "  .I.g.U.Y.T.R.E.W.Q.!.~.b.^./.(.)._.`.'.].b.b.b.b.[.{.}.|      ",
  "  X.XXXoXOX+X@X#X$X%X&X*X=X-X;X:X>X,X<X1X;X2.b.b.bX3X4X5X6      ",
  "  X7X8X9X0XqXwXeXrXtXyXuXiXp.b.b.b.b.bXaXsXdXf.b.bXgXhXjXk      ",
  "  XlXzXxXcXvXbXnXmXMXNXBXV.b.vXCXZXAXf.^XS.)XD.b.bXFXGXHXJXK    ",
  "    XLXPXIXUXYXTXRXEXWXQ.bX!X~X^X1X1X/X(.bX)X_.b.bX`X'X]X[X{    ",
  "    X}X|o.oXoooOo+o@o#.b.bo$o%.^.bo&o*o=.bo-o*.^.bo;o:o>o,o<o1  ",
  "      o2o3o4o5o6o7o8o9.bXAo0oq.b.b.bowoe.boro*X!.botoyouoiopoa  ",
  "      osodofogoho7ojok.bolo*oz.b.b.bXi./.boxoc.b.b.bovobonomoM  ",
  "      oNoBofogoVo7oCoZ.bXfoA.'.b.bXQX^oSXAo%X:.b.b.boDoFoGoHoJoK",
  "      oLoPoIogoUo7oYoT.b.boRX1oEoEoWoQo!Xdo!.].b.b.b.to~o^o/o(o)",
  "      o_o`o'o]o[o7o{o}o-.bo|X:O.X/OXX/.`ox.b.b.b.b.bOoOOO+O@O#O$",
  "      O%O&O*O=O-o7O;O:o%Xf.b.b.b.b.b.bo|.b.b.b.b.b.bO>O,O<O1O2O3",
  "      O4O5O*O6O7o7O;O8X~O9O0XV.b.bolX=OqOw.b.b.b.b.bX3OeOrOtOyOu",
  "      OiOpO*OaOso7O;OdXSOfO9X^X_Ogo0OhOj.b.b.b.b.b.bOkOlOzOxOcOv",
  "      ObOnOmOMONo7O;Od.b.b.bolXZOBo|.b.b.b.b.b.b.b.bXFOVOCOZOAOS",
  "      ODOFOGOHOJo7O;Od.b.b.b.b.b.b.b.b.b.b.b.b.b.b.bX`OKOLo/OPOI",
  "      OUOYOTOROEOWOQO!ot.b.b.b.b.b.b.b.b.b.b.b.b.b.bO~O^O/O(O)O_",
  "    O`O'O]ofO[oUO{O}O|.7+..[+X+oOo+O+++@+#+$+%+&+%+*+=+-+;+:    ",
  "    +>+,+<+1+2+3+4+5+6+6+6+6+6+6+6+6+6+6+6+6+6+6+7+8+9+0+q+w+e  ",
  "    +r+t+y+u+i+p+a+a+a+a+a+a+a+a+a+a+a+a+a+a+a+a+a+s+d+f.-+g+h  ",
  "  +j+k+l+z+d+x+c+c+c+c+c+c+c+v+v+v+v+v+v+v+v+b+b+n+d+d+m+M+N+B  ",
  "  +j+k+VOV+d+C+Z+A+A+A+A+A+A+A+A+S+S+S+S+S+S+S+S+D+F+d+G+H+J+B  ",
  "    +K+L+P+I+U+Y+T+T+T+T+T+T+T+T+T+R+R+E+W+W+W+W+W+Q+!+~+^+/+(  ",
  "    +h+)+_+`+'+d+d+d+d+d+d+]+[+[+[+[+[+[+[+[+[+[+[+[+[+{+}+|@.  ",
  "    @X@o@O@+@@.-.-.-.-.-.-+V@#@#@#@#@#@#@@@$@$@$@$@$@$@%@&+h    ",
  "      @*@o@=+g+g+g+g+g+g+g+g+g+g+g+g+g+g+g+g+g+g+g@-@=@;+:      ",
  "        @.+(+B+B+B+B+B+B+B+B+B+B+B+B+B+B+B+B+B+B+B@:+>+e        "
};
