/* XPM */
const char *xpm_tango_actions_appointment_new[] = {
  // Header (width height colors chars-per-pixel)
  "32 32 550 2",
  
  // Colors (code mode value)
  "+j c #00000001",
  "O` c #00000002",
  "@X c #00000004",
  "+e c #00000005",
  "&h c #00000006",
  "@* c #00000007",
  "*! c #00000008",
  "*7 c #00000009",
  "+( c #0000000A",
  "+h c #0000000D",
  "+: c #0000000E",
  "@: c #00000010",
  "+B c #00000011",
  "+K c #00000013",
  "@o c #00000014",
  "*' c #00000015",
  "+k c #00000016",
  "*k c #00000017",
  "*] c #00000018",
  "@; c #0000001A",
  "+| c #0000001B",
  "*Q c #0000001D",
  "&V c #0000001F",
  "+g c #00000021",
  "&E c #00000022",
  "+/ c #00000023",
  "*` c #00000024",
  "*~ c #00000025",
  "+N c #00000026",
  "*F c #0000002B",
  "*^ c #0000002E",
  "&R c #0000002F",
  "*X c #00000033",
  "&W c #00000034",
  "*l c #00000035",
  "*8 c #00000036",
  "*G c #00000037",
  "*/ c #0000003C",
  "*6 c #00000040",
  "*o c #00000041",
  "*( c #00000042",
  "*z c #00000043",
  "*. c #00000045",
  "*9 c #00000046",
  "*) c #00000048",
  "*_ c #00000049",
  "*W c #0000004D",
  "*D c #00000050",
  "*5 c #00000052",
  "*j c #00000055",
  "%J c #000000FF",
  "*H c #0303034E",
  "*E c #03030357",
  "*S c #08080A63",
  "*x c #09090C56",
  "%K c #101010FF",
  "%N c #131313FF",
  "%% c #151209FF",
  "%7 c #19170CFF",
  "%8 c #19170DFF",
  "&g c #1A1A1A0A",
  "$/ c #1B180DFF",
  "%L c #1B1B1BFF",
  "%9 c #1C1C1CFF",
  "%d c #1F1F1FFF",
  "$A c #252215FF",
  "%} c #282827FF",
  "%H c #282828FF",
  "*R c #2A263181",
  "*J c #2C28347A",
  "*h c #332E3E95",
  "$p c #333021FF",
  "&& c #363635FF",
  "%{ c #363636FF",
  "*0 c #3732438A",
  "*A c #403A4DAF",
  "&B c #423D5060",
  "*c c #433D52A8",
  "$& c #453D18FF",
  "&% c #454544FF",
  "*4 c #474055B4",
  "*T c #494056BA",
  "*K c #4A4358B7",
  "*O c #4A4459AC",
  "&T c #4C455A9E",
  "&j c #4C465B54",
  "&C c #504A6295",
  "&| c #524A63C7",
  "$i c #534C2EFF",
  "#P c #55555503",
  "@7 c #55557109",
  "&Q c #564E66C1",
  "*Y c #574F68E4",
  "*L c #59506AE3",
  "*g c #5C546EF4",
  "*Z c #5C546FF6",
  "*q c #5D546EF3",
  "*v c #5D546FF6",
  "*U c #5D556FF7",
  "*P c #5D5570F6",
  "&f c #5E5570E4",
  "&t c #5F557166",
  "&8 c #5F557366",
  "*I c #5F5672FC",
  "%X c #5F577289",
  "%i c #5F5772F1",
  "%` c #5F577389",
  "&7 c #5F5773EB",
  "*C c #5F5873F9",
  "%_ c #605671D2",
  "%1 c #605672D2",
  "$M c #60577335",
  "&y c #605773E2",
  "@a c #605773EF",
  "%v c #605773FA",
  "%S c #605873F1",
  "%2 c #615873F1",
  "@4 c #615873FA",
  "@, c #61587437",
  "&> c #615874EB",
  "@3 c #615874FA",
  "$R c #61597389",
  "%R c #615973D2",
  "@9 c #615974EF",
  "@2 c #615974F1",
  "*b c #615974F8",
  "%x c #615974FF",
  "@8 c #61597576",
  "*3 c #615975F9",
  "@G c #61597686",
  "%Z c #615A73FF",
  "&N c #615B75F6",
  "@6 c #6257748D",
  "$+ c #62587366",
  "%o c #625975D2",
  "$q c #625975EB",
  "#l c #625A7444",
  "#5 c #625A747D",
  "*+ c #625A76F9",
  "$T c #63557136",
  "@g c #63597650",
  "@5 c #635A75D1",
  "@1 c #635A76D1",
  "#I c #635A76E1",
  "@h c #645B76EB",
  "@< c #645B778F",
  "@{ c #645B77AB",
  "*u c #645D77FF",
  "&k c #645D78F5",
  "*y c #645E79FF",
  "&Y c #645F79F8",
  "&} c #655E7AF9",
  "%Y c #655F78FF",
  "&5 c #66617BFF",
  "&w c #675D76FF",
  "*f c #67607AFA",
  "%y c #67607AFF",
  "&Z c #67637CF8",
  "&: c #685F7BF1",
  "&! c #68627CF8",
  "&r c #68627DF5",
  "&m c #69627CFF",
  "*i c #69637CFF",
  "&- c #6A627AFF",
  "*w c #6A627CFA",
  "&+ c #6A627FF1",
  "&] c #6A637AFF",
  "*t c #6A657FFF",
  "*, c #6B637AFF",
  "%( c #6B647FFF",
  "&I c #6B6680FF",
  "%, c #6D6783FF",
  "&9 c #6D6883F5",
  "*< c #6E6883FF",
  "@p c #6E6984F3",
  "*V c #6E6986FE",
  "$Z c #6E6A5AFF",
  "*p c #6E6A84FF",
  "*% c #6F6880FF",
  "#z c #6F6983F4",
  "*n c #706B88FE",
  "&/ c #716A81FF",
  "@H c #716A85F6",
  "*r c #716C87FF",
  "&0 c #726E85FF",
  "&s c #726E89FF",
  "*$ c #726F8AFF",
  "$N c #746F89F2",
  "&z c #746F8AFF",
  "&S c #74708BFF",
  "&O c #75708BFD",
  "&[ c #76728DFF",
  "&# c #77738BFF",
  "&< c #77748FFF",
  "&o c #777590FF",
  "$% c #786202FF",
  "@0 c #78728BF5",
  "%. c #787591FD",
  "%n c #7B7894FF",
  "&u c #7B7994FF",
  "#6 c #7C7993F6",
  "&^ c #7C7994FF",
  "*B c #7C7A95FF",
  "*a c #7C7B96FF",
  "%p c #7D7A95FF",
  "@! c #7D7B93FF",
  "&d c #7E7C96FF",
  "*2 c #7E7D98FF",
  "@} c #7F7B95F7",
  "%' c #7F7B97FD",
  "%W c #7F7E98FF",
  "@> c #80808002",
  "@V c #817A86F8",
  "$| c #817E8AFF",
  "*@ c #81809CFF",
  "*N c #81819CFF",
  "$@ c #827D97F6",
  "*d c #82809CFF",
  "*m c #82819CFF",
  "@b c #82829CFF",
  "%) c #82829DFF",
  "&6 c #83829DFF",
  "$^ c #848171FF",
  "@~ c #848194FF",
  "%4 c #84829CFF",
  "*e c #84829EFF",
  "@v c #84839FFF",
  "&e c #8484A0FF",
  "%< c #85849FFF",
  "$V c #86859EFF",
  "@n c #86859FFF",
  "$Y c #878167F4",
  "&i c #888395FF",
  "@i c #8887A0FD",
  "*M c #8887A3FF",
  "@m c #8888A2FF",
  "&M c #8889A4FF",
  "&; c #8889A5FF",
  "@j c #89859EF8",
  "%] c #8988A2FF",
  "&{ c #8989A4FF",
  "$# c #898AA3FF",
  "&, c #898AA4FF",
  "%T c #898AA5FF",
  "*1 c #898AA6FF",
  "&a c #8A8396FF",
  "&D c #8A8598FF",
  "%u c #8A8AA6FF",
  "@C c #8B8257F0",
  "&~ c #8B8BA7FF",
  "&l c #8B8CA7FF",
  "*# c #8B8CA8FF",
  "&U c #8B8DA8FF",
  "&P c #8C8697FF",
  "%+ c #8C8AA5FF",
  "@c c #8D8DA8FF",
  "*s c #8D8DA9FF",
  "&A c #8D8EAAFF",
  "@P c #8E8FA8FF",
  "%A c #8E90ABFF",
  "$E c #8F8DA7FD",
  "$Q c #8F8F9FFF",
  "$e c #8F8FAAFF",
  "%c c #8F91ACFF",
  "%[ c #908D9CFF",
  "%E c #9090AAFF",
  "&@ c #9293AEFF",
  "#X c #9294ADFF",
  "@Q c #9391A0FF",
  "@M c #9393ABFF",
  "#T c #9495A8FF",
  "@x c #9496AFFF",
  "@I c #9596A5FF",
  "@q c #9695ADFD",
  "#9 c #9899ADFF",
  "@B c #9899B3FF",
  "&x c #9995A3FF",
  "%D c #999BB4FF",
  "#c c #9A9AB4FF",
  "#v c #9A9CABFF",
  "%$ c #9B988CFF",
  "$W c #9B9BB4FF",
  "@u c #9B9CB5FF",
  "@L c #9B9EB7FF",
  "$r c #9C9CA6FF",
  "*& c #9D99A7FF",
  "@N c #9D9EB7FF",
  "#8 c #9D9EB8FF",
  "#Y c #9E9FB8FF",
  "%@ c #9F9FA5FF",
  "%O c #9FA0B7FF",
  "&X c #A09BAAFF",
  "#o c #A0A0A9FF",
  "&n c #A29CABFF",
  "@U c #A2A2A8FF",
  "%b c #A2A4BDFF",
  "@Y c #A3A3A6FF",
  "%3 c #A3A5BDFF",
  "%& c #A48F31FF",
  "&1 c #A4A2ACFF",
  "@z c #A5A7BDFF",
  "%5 c #A6A6A8FF",
  "@y c #A6A7BEFF",
  "#. c #A6A8C0FF",
  "@T c #A7A7A9FF",
  "@W c #A8A8ADFF",
  "@w c #A8AAC0FF",
  "@R c #A9A9ABFF",
  "#O c #AAAAACFF",
  "@E c #AAAAADFF",
  "%Q c #ABAAB0FF",
  "$C c #ABABADFF",
  "$w c #ACAEC4FF",
  "%6 c #ADACA5FF",
  "#U c #ADACC3FF",
  "%P c #ADADABFF",
  "%m c #ADADAFFF",
  "$B c #ADAEC5FF",
  "@e c #ADAFC5FF",
  "$} c #AFAB89FF",
  "%F c #AFAEB1FF",
  "#b c #AFAFB1FF",
  "@t c #AFB1C7FF",
  "#R c #B0B0B1FF",
  "$n c #B1A841F5",
  "%0 c #B1B1AFFF",
  "@^ c #B2AF82FF",
  "@r c #B2B3C9FF",
  "@J c #B3B4CAFF",
  "#: c #B5AE57FF",
  "#; c #B5B292FF",
  "$( c #B6A249FF",
  "@k c #B6B7CCFF",
  "@l c #B7B7CDFF",
  "@K c #B8BACFFF",
  "#x c #B9BACFFF",
  "&( c #BAB8C1FF",
  "#- c #BABABCFF",
  "$U c #BCB864FF",
  "#7 c #BCBDD2FF",
  "@| c #BDBFD2FF",
  "&4 c #BEBAC4FF",
  "#t c #BEBCA2FF",
  "&$ c #BEBEC0FF",
  "&H c #BFC1BBFF",
  "$I c #C0B745FF",
  "%V c #C0C2BBFF",
  "%k c #C0C2BCFF",
  "#C c #C1C0ACFF",
  "%j c #C1C3BCFF",
  "%M c #C2C4BEFF",
  "&q c #C3C2C4FF",
  "%a c #C3C5BEFF",
  "%s c #C3C5BFFF",
  "$S c #C4B263FF",
  "#y c #C4C6C0FF",
  "@/ c #C6C15EFF",
  "&' c #C6C3CAFF",
  "#e c #C8A614FF",
  "$! c #C9C9C8FF",
  "#W c #CBAC23FF",
  "#M c #CBAD23FF",
  "@Z c #CCC03096",
  "#+ c #CCCCCCFF",
  "&p c #CCCCCEFF",
  "%> c #CDCCD1FF",
  "#w c #CEB133FF",
  "@( c #CEC439FC",
  "%* c #CFB235FF",
  "#= c #D0D0CFFF",
  "#m c #D1B844FF",
  "&c c #D1D1D2FF",
  "$_ c #D2B844FF",
  "$a c #D2C37FFF",
  "** c #D3D1D6FF",
  "$) c #D4BB4CFF",
  "#r c #D4BD55FF",
  "%B c #D4D5D4FF",
  "#Q c #D5BD53FF",
  "#0 c #D5D5D4FF",
  "&F c #D5D5D7FF",
  "$G c #D6BF55FF",
  "&* c #D6D6D4FF",
  "%f c #D6D7D6FF",
  "#> c #D8D040FF",
  "%/ c #D8D6DCFF",
  "%| c #D8D8D6FF",
  "$t c #D8D8D7FF",
  "$F c #D9C25CFF",
  "*> c #D9D7DCFF",
  "&2 c #D9D9D7FF",
  "%! c #D9D9D8FF",
  "$g c #DAC566FF",
  "&J c #DADAD8FF",
  "$D c #DBC565FF",
  "$f c #DBC76BFF",
  "$b c #DBD343FF",
  "%~ c #DBDBD9FF",
  "$u c #DCCE8CFF",
  "$* c #DCD099FF",
  "%G c #DCDCDAFF",
  "#N c #DDCA78FF",
  "$> c #DDCC7CFF",
  "#$ c #DDCD86FF",
  "%I c #DDDDDBFF",
  "$d c #DECB74FF",
  "&G c #DEDDDCFF",
  "&) c #DEDDDFFF",
  "%l c #DEDEDCFF",
  "&v c #DEDEDDFF",
  "$: c #DFCD7CFF",
  "%r c #DFDFDDFF",
  "$s c #E0CE7DFF",
  "%^ c #E0E0DEFF",
  "&_ c #E0E0E0FF",
  "$; c #E1D083FF",
  "#/ c #E1D18AFF",
  "#( c #E1D28DFF",
  "#@ c #E1DCC4FF",
  "%: c #E1E1DFFF",
  "#^ c #E2D490FF",
  "#q c #E2D59BFF",
  "## c #E2D69FFF",
  "%; c #E2E2E0FF",
  "%# c #E2E2E1FF",
  "%t c #E2E2E4FF",
  "$- c #E3D38BFF",
  "$= c #E3D594FF",
  "#V c #E3D699FF",
  "#B c #E3D79EFF",
  "#s c #E3DD61FF",
  "%e c #E3E3E1FF",
  "&3 c #E3E3E2FF",
  "#~ c #E4D697FF",
  "#a c #E4E1A2FF",
  "%- c #E4E4E2FF",
  "&K c #E4E4E4FF",
  "#! c #E5D89DFF",
  "$8 c #E5DA27CD",
  "*= c #E5E4E6FF",
  "%h c #E5E5E3FF",
  "#* c #E5E5E4FF",
  "%= c #E6E6E4FF",
  "%g c #E7E7E5FF",
  "&. c #E7E7E6FF",
  "%z c #E7E7E9FF",
  "${ c #E8E4A2FF",
  "$' c #E8E8DEFF",
  "%w c #E8E8E6FF",
  "&= c #E8E8EAFF",
  "$v c #E9DF2DFF",
  "#n c #E9E6D5FF",
  "$] c #E9E8C0FF",
  "$` c #E9E9E7FF",
  "#% c #EAE5D0FF",
  "$[ c #EAE8A7FF",
  "%C c #EAE9EBFF",
  "*: c #EAE9ECFF",
  "%q c #EAEAE8FF",
  "@) c #EBE127E6",
  "$H c #EBEACFFF",
  "$$ c #EBEAE3FF",
  "%U c #EBEAECFF",
  "#p c #EBEBE9FF",
  "&b c #EBEBECFF",
  "#E c #ECE9DAFF",
  "$j c #ECEBDBFF",
  "&` c #ECEBEDFF",
  "#A c #ECECEAFF",
  "#d c #EDE431FF",
  "*- c #EDECEEFF",
  "#i c #EDEDEBFF",
  "&L c #EDEDEEFF",
  "#& c #EEEEECFF",
  "$P c #EFE862FF",
  "$J c #EFEB9FFF",
  "$1 c #EFEDBBFF",
  "*; c #EFEEF0FF",
  "#' c #EFEFEDFF",
  "$7 c #F0E631FE",
  "$k c #F0ECA1FF",
  "#S c #F0ECA4FF",
  "#u c #F0F0EEFF",
  "$K c #F1EC7EFF",
  "#] c #F1EEABFF",
  "#` c #F1F1EFFF",
  "$y c #F2F2EFFF",
  "#Z c #F2F2F0FF",
  "#, c #F3EA36FF",
  "$X c #F3EC52FC",
  "#< c #F3EC53FE",
  "$L c #F3ED6AFF",
  "#_ c #F3F3F1FF",
  "#f c #F4ED5EFF",
  "$l c #F4EE71FF",
  "$2 c #F4EF80FF",
  "$< c #F4F4F2FF",
  "$5 c #F5ED72FF",
  "$6 c #F5EE5FFF",
  "#D c #F5EE66FF",
  "#[ c #F5EF6DFF",
  "#) c #F5F5F3FF",
  "#1 c #F6EF5DF8",
  "$, c #F6F6F4FF",
  "$c c #F7ED35FF",
  "$h c #F7F7F5FF",
  "$z c #F8F04DFF",
  "#G c #F8F175FF",
  "$. c #F8F393FF",
  "#K c #F8F4A5FF",
  "$~ c #F8F8F6FF",
  "#F c #F9F037FF",
  "$3 c #F9F14DFF",
  "$m c #F9F20628",
  "#g c #F9F493FF",
  "#| c #F9F4A2FF",
  "#h c #F9F4A5FF",
  "#j c #FAF484F7",
  "#H c #FAF7BBFF",
  "$x c #FBF137FF",
  "#L c #FBF35BF0",
  "#} c #FBF56BFF",
  "#{ c #FCF238FF",
  "$4 c #FCF448FF",
  "$o c #FEF21CCB",
  "#J c #FEFDEFFF",
  "#4 c #FFE6000A",
  "#k c #FFEE091E",
  "Xl c #FFF10725",
  ".B c #FFF10937",
  "@f c #FFF30015",
  "@] c #FFF30E6D",
  "$9 c #FFF30F66",
  "@S c #FFF31185",
  "@d c #FFF4062E",
  ".> c #FFF40E5D",
  "@D c #FFF41179",
  "@' c #FFF4169F",
  "@_ c #FFF41DD2",
  "@[ c #FFF50531",
  "@s c #FFF50532",
  "@F c #FFF50533",
  "$O c #FFF50A1A",
  "@A c #FFF5107E",
  "@` c #FFF51BC3",
  "#3 c #FFF51FDB",
  "#2 c #FFF646E7",
  ".O c #FFF7001E",
  "$0 c #FFFF0006",
  "   c none",
  
  // Image data
  "                    @>@,@<@1@2@3@4@2@5@6@,@>                    ",
  "                @7@8@9@0@q@w@e@r@t@y@u@i@p@a@8@7.O@s.B@d@f      ",
  "              @g@h@j@k@l@z@x@c@v@b@n@m@M@N@B@V@C@Z@A@S@D.>@F    ",
  "          +j@G@H@J@K@L@P@I@U@Y@T@R@E@W@Q@!@~@^@/@(@)@_@`@'@]@[  ",
  "        +j@{@}@|#.#X#o#O#+#@###$#%#&#*#=#-#;#:#>#,#<#1#2#3@'.>#4",
  "        #5#6#7#8#9@T#0#q#w#e#r#t#y#u#&#i#p#a#s#d#f#g#h#j#2@`@D#k",
  "      #l#z#x#c#v#b#n#m#M#N#B#V#C#y#Z#u#&#A#S#D#F#G#H#J#K#L@_@SXl",
  "    #P#I#U#Y#T#R#E#W#Q#!#~#^#/#(#)#_#`#'#i#]#[#{#}#|#H$.$X$o@A$O",
  "    $+$@@e$#@T$$$%$&$*$=$-$;$:$>$,$<#Z#'#i$1$2$3$4#}$5$6$7$8$9$0",
  "  +j$q$w$e$r$t$y$u$i$p$a$s$d$f$g$h#)#Z#u#&$j$k$l$z$x$c$v$b$n$m  ",
  "  $M$N$B$V$C#'#Z$<#)$Z$A$S$D$F$G$h#)#Z#u#&#p$H$J$K$L$P$I$U$Y$T  ",
  "  $R$E$W$Q$!#'#Z$<$,$~$^$/$($)$_$,$<#Z#u#i#p$`$'$]$[${$}$|%.%X  ",
  "  %o%O%+%@%##'#`#_#)$h$~%$%%%&%*#)#_#`#'#i#p$`%=%-%;%:%>%,%<%1  ",
  "  %2%3%4%5#A#&#u#Z#_#)$,$h%6%7%8%9%0#u#&#A%q%w%=%e%:%r%t%y%u%i  ",
  "  @4#.%p#O#p%a%s#u#Z#_$<#)#)%d%f%f%d#'#i#p$`%g%h%j%k%l%z%x%c%v  ",
  "  @4%b%n%m$`%M%a#&#u#`#Z#Z%;%N%B%f%d#i#A%q%w%=%-%k%V%l%C%Z%A%v  ",
  "  %S%D%p%F%w%q#p#i#&#'#u%G%H%J%K%L%P#A%q%w%g%h%e%:%r%I%U%Y%T%i  ",
  "  %R%E%W%Q%:%w%q#p#A#i%!%H%J%H%~#A#p%q%w%g%h%e%;%^%l%:%/%(%)%_  ",
  "  %`%'%]%[#=%=%w$`%q#p%{%J%}%|#p%q$`%w%g%h%-%;%^%l%I&.&X&o&O%X  ",
  "  $M&+&@&#&$%h%=%g%w%w&%&&&*$`$`%w%g%=%h%e%;%^%r%I%~&=&-&;&:$M  ",
  "  +j&>&,&<&1&2%-%h%=%=%g%g%g%g%=%=%h%-%e%;%^%r%I%G&3&4&5&6&7+j  ",
  "    &8&9&;&0&q%:%e%e%-%h%h%h%h%-%e%e%;%:%^%l%I%G%G%C&w&e&r&t    ",
  "    #P&y&6&u&i&p%^%:%;%;%;%;%;%;%:%:%^%r%l%I%~%~%C&a&s&d&f&g    ",
  "    &h&j&k&l&z&x&c&v%^%^%^%^%^%V%V%r%l%I%G%~%G&b&n&m&M&N&B+k@X  ",
  "    +:&V&C&Z&A&S&D&F&G%l%l%l%l&H&H%G%G%~&J&K&L&P&I&U&Y&T&R&V+h  ",
  "    +B&E&W&Q&!&~&^&/&(&)&_%r%~%~%~&J%r&.&`&'&]&[&{&}&|*.*X&E@:  ",
  "    +:&V&R*o*O*+*@*#*$*%*&***=*-*;*:*>&X*,*<*1*2*3*4*5*6&R&V*7  ",
  "    +e+k+N*8*9*0*q*w*e&A*2*r*t*y*u*i*p*a*s*d*f*g*h*j*9*8+N+K    ",
  "      &h*k+N*l*z*x*c*v*b*n*a*m*M*M*N*B*V*C*Z*A*S*D*z*l+N+K+j    ",
  "        O`+B&V*F*G*z*H*J*K*L*P*I*I*U*Y*T*R*E*W*z*G*F*Q*!        ",
  "            O`+h+|*~*^*8*/*(*.*)*_*)*.*(*/*8*^*`@o&h            ",
  "                  O`@*+h*'@;&V&E+/+g*Q*]+B+(@X                  "
};
