/* XPM */
const char *xpm_tango_actions_bookmark_new[] = {
  // Header (width height colors chars-per-pixel)
  "32 32 355 2",
  
  // Colors (code mode value)
  "+j c #00000001",
  "O` c #00000002",
  "@* c #00000007",
  "*! c #00000008",
  ":k c #0000000C",
  "+h c #0000000D",
  "+: c #0000000E",
  ":l c #0000000F",
  "@o c #00000014",
  "+k c #00000016",
  "*k c #00000017",
  "*] c #00000018",
  "+| c #0000001B",
  "*Q c #0000001D",
  "+/ c #00000023",
  ":j c #00000029",
  ":d c #00000030",
  ":s c #00000031",
  ":h c #0000003B",
  "*6 c #00000040",
  "*( c #00000042",
  "*9 c #00000046",
  ":f c #00000047",
  ":g c #0000004A",
  ":a c #33333381",
  "=; c #334471FF",
  "=X c #34497749",
  "-5 c #364777FF",
  ".- c #364878FF",
  "=# c #364978FB",
  ":y c #37373778",
  "-n c #384978FF",
  "=. c #384D7A9F",
  "*[ c #394A7C90",
  "=m c #3A4C7BFF",
  "-< c #3B4C7AFF",
  "=U c #3B4C7BFF",
  "=r c #3B4D7BFF",
  "*| c #3C4F7CFD",
  "*{ c #3D4F7EF5",
  "*} c #425380FF",
  "=- c #4A5983FF",
  ":- c #4C4C4CFF",
  ":+ c #4E4E4EFF",
  ";{ c #4F628AFF",
  ";] c #505050FF",
  ";E c #515151FF",
  ":t c #525252F2",
  ":r c #535353F1",
  ";D c #535353FF",
  ":X c #53648DFF",
  ":e c #545454FF",
  ";/ c #56648AFF",
  ":u c #575757F6",
  ":w c #575757FF",
  ":p c #585858F7",
  ":i c #585858FF",
  "-d c #58718FFF",
  "=B c #58759CFF",
  "-3 c #597293FF",
  "=R c #59769AFF",
  "=N c #59769DFF",
  ":q c #5A5A5AFF",
  ";~ c #5A688CFF",
  "-s c #5A7390FF",
  "-X c #5A7496FF",
  ";! c #5B6E94FF",
  "-2 c #5B7494FF",
  "=T c #5B789BFF",
  "-. c #5C7697FF",
  ";c c #5D5C51FF",
  "-N c #5D7593FF",
  ":0 c #5E5E5EFF",
  ";( c #5E7096FF",
  "-M c #5F7794FF",
  ":8 c #616161FF",
  ":4 c #646464FF",
  ";K c #65789CFF",
  "-I c #657E9CFF",
  "-P c #67809DFF",
  ":; c #686868FF",
  "=M c #6882A5FF",
  "== c #697289FF",
  "=V c #6983A6FF",
  ":@ c #6B6B6BFF",
  "=o c #6B799AF4",
  ";L c #6C7EA1FF",
  ":. c #6D7898FF",
  ";} c #6D7998FF",
  "-) c #6D85A5FF",
  ";[ c #6E6E6EFF",
  "=u c #6E88A9FF",
  "-( c #6F86A6FF",
  "=y c #6F88A9FF",
  ";W c #727272FF",
  "=i c #728AABFF",
  "=Y c #738BAAFF",
  "=t c #738CACFF",
  ";F c #757575FF",
  "=E c #758DABFF",
  ";% c #758EAFFF",
  "-a c #768BA3FF",
  "-1 c #778BA6FF",
  "=| c #778DA9FF",
  ";$ c #778FB0FF",
  ";v c #787878FF",
  "-f c #788CA5FF",
  "-4 c #798DA8FF",
  ":% c #7A829AFF",
  "-m c #7A8EA6FF",
  "-o c #7A8FAAFF",
  "=1 c #7B7B7BFF",
  ";6 c #7B94B4FF",
  "-B c #7C90A8FF",
  ";5 c #7D95B5FF",
  "=< c #7E7E7EFF",
  ";s c #7E97B7FF",
  "=, c #7F7F7FFF",
  ";i c #8098B8FF",
  ";@ c #818181FF",
  "-L c #8195AEFF",
  ";p c #8199B9FF",
  "-U c #8397AFFF",
  "=2 c #84836CFF",
  "-^ c #848484FF",
  ";V c #859DBCFF",
  "-K c #878787FF",
  "-/ c #879BB5FF",
  ";m c #879EBDFF",
  "-O c #888888FF",
  "-Y c #898989FF",
  ":$ c #8991A9FF",
  "-_ c #899CB6FF",
  "-v c #8A8A8AFF",
  ";* c #8C8C8CFF",
  "-i c #8D8D8DFF",
  "=> c #8DA1BBFF",
  ";N c #8EA1BDFF",
  ";# c #8EA2BDFF",
  ";a c #8EA4C0FF",
  "-, c #8F8F8FFF",
  "=: c #90A4BDFF",
  ";& c #90A4BEFF",
  ";y c #918D3CFF",
  "=[ c #919191FF",
  "=L c #939393FF",
  ";4 c #93A7C2FF",
  "=v c #949494FF",
  ";7 c #94A9C2FF",
  "=3 c #95925BFF",
  "=& c #95959552",
  ";u c #95AAC4FF",
  "=O c #96A1AFFF",
  ";B c #96ABC5FF",
  ";d c #97ABC5FF",
  ";M c #97ACC6FF",
  "=0 c #989898EF",
  ";f c #989898FF",
  "=@ c #99ABC2FF",
  ";n c #99ACC6FF",
  ";P c #99ADC6FF",
  "=* c #9A9A9AF2",
  ";) c #9AADC6FF",
  ";C c #9AAEC7FF",
  ";J c #9BAEC8FF",
  ";H c #9CB0C9FF",
  "=+ c #A0B0C6FF",
  "=4 c #A19D4DFF",
  ";I c #A2A2A2FF",
  "=C c #A4A4A4FF",
  "=W c #A5A5A5FF",
  "-6 c #A6A6A6FF",
  ":: c #A6ACBCFF",
  "-V c #A7A7A7FF",
  "-` c #A9A9A9FF",
  "=8 c #AAA540F8",
  "=5 c #ABA644FF",
  "=7 c #ADA83DFF",
  "=6 c #AFAA3FFF",
  ":& c #B1B1B1FF",
  ":1 c #B3B9C9FF",
  ";8 c #B4B4B4FF",
  ";^ c #B4B6BDFF",
  ";< c #B6B032FF",
  "=p c #B6B6B6FF",
  "=z c #BCB635F8",
  ";= c #BFBFBFFF",
  ";g c #C0C0C0FF",
  ";h c #C1C1BEFF",
  ";U c #C1C1C1FF",
  "=9 c #C2BB2B8E",
  ";Z c #C2C2C2FF",
  ":* c #C3C3C3FF",
  ":6 c #C4C4C4FF",
  ";- c #C5C4AFFF",
  ";Y c #C5C5C5FF",
  ";j c #C6C5B0FF",
  ":= c #C6C6C6FF",
  "-+ c #C7C596FF",
  "-T c #C7C5A7FF",
  ":7 c #C8C8C8FF",
  "-g c #CBC892FF",
  ";| c #CCCCCDFF",
  ";_ c #CECECEFF",
  ";k c #CFCEA2FF",
  ";; c #D1CE8DFF",
  "=n c #D4D5D8FF",
  "-R c #D5D180FF",
  ":o c #D5D5D5FF",
  "=I c #D5D6D9FF",
  "=} c #D6D7DAFF",
  ";o c #D7CF2AFF",
  "-p c #D7D8DBFF",
  "=K c #D8D02BFF",
  "-@ c #D9D472FF",
  ";: c #DAD573FF",
  "-h c #DDD86DFF",
  "=b c #DDDDDDFF",
  "=P c #DEDEDEFF",
  "-b c #DEDFE0FF",
  "={ c #DFDFDFFF",
  "=Z c #E0E0DAFF",
  "&_ c #E0E0E0FF",
  "+Z c #E1E1E1FF",
  "+A c #E2E2E2FF",
  "-E c #E3DD5FFF",
  "=Q c #E3E1C4FF",
  "+S c #E3E3E3FF",
  "&K c #E4E4E4FF",
  ";3 c #E5E5E5FF",
  ";b c #E6E6E6FF",
  ";G c #E7E7E7FF",
  "-# c #E8E150FF",
  ":# c #E8E8E8FF",
  "-7 c #E9E6B0FF",
  ":2 c #E9E9E9FF",
  "=A c #EAE7B0FF",
  ";> c #EBE452FF",
  "-' c #EBEBE4FF",
  ":, c #EBEBEBFF",
  "-j c #ECE44AFF",
  ":> c #ECECECFF",
  "-C c #EDEBBBFF",
  ";9 c #EDEDEDFF",
  "=) c #EEE532FF",
  "=! c #EEEA99FF",
  ";0 c #EEEDDAFF",
  ":< c #EEEEEEFF",
  ";A c #EFEFEFFF",
  "-W c #F0E842FF",
  "=S c #F0EB89FF",
  "-] c #F0EDB6FF",
  ";T c #F0F0F0FF",
  "-- c #F1EA52FF",
  ";q c #F1EEB7FF",
  ";` c #F1F1F1FF",
  "-e c #F2EC66FF",
  "-8 c #F2ED82FF",
  "-Z c #F2ED8BFF",
  ";l c #F2EFB8FF",
  ";z c #F2F0BEFF",
  ";' c #F2F2F2FF",
  "=e c #F2F3F6FF",
  ";w c #F3EF9EFF",
  ":O c #F3F3F3FF",
  "=D c #F4ED66FF",
  "=~ c #F4EE70FF",
  "-[ c #F4EF8DFF",
  ":3 c #F4F4F4FF",
  ";r c #F5F085FF",
  ";e c #F5F08EFF",
  "=a c #F5F5F5FF",
  "+W c #F6F6F6FF",
  "-$ c #F7ED32FF",
  "-A c #F7F05EFF",
  "-{ c #F7F068FF",
  ":9 c #F7F7F7FF",
  "-k c #F8EF3CFF",
  "-9 c #F8F056FF",
  ";R c #F8F8F8FF",
  "=F c #F9F14CFF",
  ";, c #F9F157FF",
  "-% c #F9F25BFF",
  ";S c #F9F9F9FF",
  "-} c #FAF24CFF",
  "-Q c #FAF35CFF",
  "-l c #FAF46EFF",
  ";x c #FAF9D7FF",
  ":5 c #FAFAFAFF",
  "-& c #FBF585FF",
  "=s c #FBFAE3FF",
  ";Q c #FBFBFBFF",
  "=G c #FCF237FF",
  "=H c #FCF340FF",
  ";t c #FCF795FF",
  "-z c #FCF7A2FF",
  "=d c #FCF9B9FF",
  ";2 c #FCFCFCFF",
  "-| c #FDF338FF",
  ";. c #FDF441FF",
  "=k c #FDF55BFF",
  "=^ c #FDF65EFF",
  "-S c #FDF65FFF",
  "=h c #FDF665FF",
  "=l c #FDF666FF",
  "=/ c #FDF771FF",
  "=g c #FDF77AFF",
  "=f c #FDF896FF",
  "=q c #FDFDFDFF",
  ";X c #FEF439FF",
  "=J c #FEF43AFF",
  "=j c #FEF65CFF",
  "=( c #FEF75FFF",
  "-! c #FEF760FF",
  "-D c #FEF888FF",
  "-* c #FEF9A3FF",
  "-0 c #FEF9A4FF",
  "-q c #FEFCD5FF",
  "-x c #FEFCD6FF",
  "=w c #FEFEFEFF",
  "-~ c #FFE8000B",
  "=% c #FFEF0820",
  "-u c #FFF2093A",
  "XL c #FFF2093B",
  "@f c #FFF30015",
  "X7 c #FFF3083F",
  "=] c #FFF30C16",
  "=' c #FFF30C58",
  "@] c #FFF30E6D",
  ";O c #FFF3159B",
  "XX c #FFF3169A",
  "-> c #FFF4062D",
  "=x c #FFF40745",
  ";+ c #FFF40B30",
  "-y c #FFF40F77",
  "=` c #FFF4148E",
  "-: c #FFF417A6",
  "-H c #FFF417A7",
  "-t c #FFF41AB4",
  "=_ c #FFF41CC2",
  "-; c #FFF41FDF",
  "-G c #FFF41FE0",
  "@s c #FFF50532",
  "-c c #FFF50A35",
  "-r c #FFF52DE4",
  "-J c #FFF80723",
  "-= c #FFF988FF",
  "-F c #FFF989FF",
  "-w c #FFFAA4FF",
  "X} c #FFFF0002",
  ";1 c #FFFF0003",
  "$0 c #FFFF0006",
  "=$ c #FFFF0007",
  "=c c #FFFF0012",
  "   c none",
  
  // Image data
  "              *[*{*}*}*}*}*}*}*|=.                              ",
  "            =X=o=O=+=+=+=+=+=+=@=#        =$=%@sXLXL@s=%$0      ",
  "        =&=*===-=;=:=:=:=:=:=:=>.-=,=<=1=2=3=4=5=6=7=8=9XL@f    ",
  "        =0=q=w=e=r=t=y=u=u=u=u=i.-=p=a=s=d=f=g=h=j=k=l=z@]=x=c  ",
  "        =v=w=b=n=m=M=N=B=B=B=B=V.-=C=Z=A=S=D=F=G=H=H=J=KXX@]XLX}",
  "        =L=w=P=I=U=Y=T=R=R=R=R=E.-=W=Q=!=~=F=H=^=/=/=(=)=_=`='=]",
  "        =[=w={=}=r=|-.-X-X-X-X-o.--O-+-@-#-$-%-&-*-*-=---;-:@]->",
  "        -,=w&_=}-<-1-2-3-3-3-3-4-5-6-7-8-9=H=/-0-q-q-w-e-r-t-y-u",
  "        -i=q&_-p-<-a-s-d-d-d-d-f-5-O-g-h-j-k-l-z-x-q-w-e-r-t-y-c",
  "        -v=q+Z-b-n-m-M-N-N-N-N-B-5-V-C-Z-A=G-S-D-0-0-F---G-H@]-J",
  "        -K=q+A+S.--L-P-I-I-I-I-U.--Y-T-R-E-W-k-Q=/=/-!=)=_=`='-~",
  "        -^=q+S+S.--/-(-)-)-)-)-_.--`-'-]-[-{-}-|;.;.;X;o;O@];+  ",
  "        ;@=q+S&K.-;#;$;%;%;%;%;&.-;*;=;-;;;:-E;>;,;,=h;<@]X7;1  ",
  "        =<;2&K;3.-;4;5;6;6;6;6;7.-;8;9;9;0;q;w;e;r;r;t;y;+;1    ",
  "        =1;2&K;3.-;u;i;p;a;i;s;d.-;f;g;g;g;h;j;k;l;z;x;c        ",
  "        ;v;2;3;b.-;n;m;M;N;B;V;C.-;Z;A;A;A;A;A;A;A;A;S;D        ",
  "        ;F;2;b;G.-;H;J;K.-;L;P;H.-;I;U;U;U;U;U;Y;T;T;R;E        ",
  "        ;W;Q;b;G.-;P;!;~;^;/;(;).-;_;T;`;`;';';`;`;`;R;]        ",
  "        ;[;Q;b;G.-;{;};|=P-b:.:X.-:o;`;';':O:O;';';';R:+        ",
  "        :@;Q;G:#.-:$=P;U;g;g;g:%.-:&;Z:*:*:*:*:=:O:O;R:-        ",
  "        :;;Q;G:#:::>:,:>;9:<;T;`:1:2:O:3:3=a=a=a:3:O;R:-        ",
  "        :4:5;G:#;3:<:>:*;g;U;U;Z;Z:*:*:*:*:6:6:7=a:3;R:-        ",
  "        :8:5:#:2;3;A:>;9:<;A;T;`:O:3=a+W+W:9:9:9+W=a;R:-        ",
  "        :0:5:#:2;3;A:>:*;g;U;Z;Z:*:*:*:6:6;Y;Y:7:9=a;R:-        ",
  "        :q;S:#:2;3;A:>;9:<;T;`;':O:3=a:9;R;S;S;R:9+W;R:-        ",
  "        :w;S:#:2;3;A:>:*;g;U;Z;Z:*:*:*:7;R;S;S;R:9+W;R:-        ",
  "        :e;S:#:2;3;A:>;9:<;T;`;':O:3=a+W:9;R;R;R:9+W;R:-        ",
  "        ;E;S:#:2;3;A:>;9:<;A;T;':O:3=a+W:9:9:9:9+W=a;R:-        ",
  "      +::r;R+W:9:3;R:9:9:9:9:9:9:9:9:9:9:9:9:9:9:9:9;R:t*]@*    ",
  "    +h+/:y:u:i:i:i:i:i:i:i:i:i:i:i:i:i:i:i:i:i:i:i:i:p:a:s+|O`  ",
  "    @**Q:d*6:f:g:g:g:g:g:g:g:g:g:g:g:g:g:g:g:g:g:g*(*9:h:j:k    ",
  "        @*:l+k*k*k*k*k*k*k*k*k*k*k*k*k*k*k*k*k*k*k@o:l*!+j      "
};
