/* XPM */
const char *xpm_tango_actions_contact_new[] = {
  // Header (width height colors chars-per-pixel)
  "32 32 299 2",
  
  // Colors (code mode value)
  "+j c #00000001",
  "@. c #00000003",
  "@* c #00000007",
  "*7 c #00000009",
  "+( c #0000000A",
  ":k c #0000000C",
  "+h c #0000000D",
  "+: c #0000000E",
  "@: c #00000010",
  "+r c #00000012",
  "+K c #00000013",
  "*' c #00000015",
  "+g c #00000021",
  "+J c #00000027",
  "*F c #0000002B",
  "*8 c #00000036",
  ",W c #00000039",
  "*o c #00000041",
  "*( c #00000042",
  "*z c #00000043",
  "*) c #00000048",
  ",s c #404604FF",
  ",d c #404605FF",
  ",a c #414704FF",
  ",4 c #424807FF",
  ",E c #46464654",
  ",@ c #535717FF",
  ",u c #53581BFF",
  ",% c #53591BFF",
  ",. c #555B18FF",
  ">' c #595959FF",
  ",f c #595E23FF",
  ",> c #5B6026FF",
  ",w c #5B611FFF",
  ",Y c #5C5C5C40",
  ",p c #5C6228FF",
  ",q c #5E632AFF",
  ",y c #5E6520FF",
  ">J c #606060FF",
  ">L c #666666FF",
  ",7 c #677209FF",
  ",+ c #685417FF",
  ",- c #687309FF",
  ",6 c #697311FF",
  ">( c #6C6C6CFF",
  ",= c #6C770AFF",
  ",O c #6E480AFF",
  ",o c #704B0CFF",
  ";W c #727272FF",
  ",c c #737373FF",
  ">H c #747474FF",
  ";F c #757575FF",
  ",l c #767676FF",
  ",* c #768020FF",
  ",k c #777777FF",
  ">D c #785317FF",
  ";v c #787878FF",
  ">h c #795318FF",
  ",X c #796521FF",
  ",j c #797979FF",
  ",: c #798135FF",
  ">, c #7A5419FF",
  ",h c #7A7A7AFF",
  ",& c #7A8236FF",
  "=1 c #7B7B7BFF",
  ",5 c #7B823EFF",
  ">_ c #7C7C7CFF",
  ",z c #7D7D7DFF",
  ">[ c #7E7D5FFF",
  "=< c #7E7E7EFF",
  ">^ c #815D22FF",
  ">! c #825F22FF",
  ",x c #828282FF",
  ",e c #828A42FF",
  ",t c #838B42FF",
  "-^ c #848484FF",
  ",8 c #848C3EFF",
  ">} c #858470FF",
  ">` c #858585FF",
  ">Q c #867240FF",
  "-K c #878787FF",
  ",9 c #878D4EFF",
  ",r c #878F47FF",
  "-O c #888888FF",
  ">/ c #897547FF",
  ",; c #8A923FFF",
  ">w c #8B662BFF",
  "-i c #8D8D8DFF",
  ",R c #8F8F8FE2",
  ">I c #92918AFF",
  ">G c #929292FF",
  ":Q c #93939328",
  ",T c #939393DE",
  ">; c #939393FD",
  ",K c #939393FE",
  "=L c #939393FF",
  ">c c #949154FF",
  ",U c #959595D6",
  ">U c #97945BFF",
  ":~ c #979797FD",
  ",F c #979797FF",
  ",L c #989898D3",
  ":! c #999999D7",
  ":| c #999999D8",
  ">{ c #9A9878FF",
  ":^ c #9A9A9AFF",
  ",D c #9B9B9BFF",
  ">] c #9C9B8DFF",
  ",J c #9C9C9CFF",
  ">V c #9D9C86FF",
  ">K c #9D9D9DFF",
  ">P c #9E9E9EFF",
  ",H c #9F9F9FFF",
  ";I c #A2A2A2FF",
  "=C c #A4A4A4FF",
  "=W c #A5A5A5FF",
  "-V c #A7A7A7FF",
  ">E c #A9A438FF",
  ",C c #AAAAAAFF",
  ",Z c #AEAEAEFF",
  ">> c #AF9875FF",
  ">) c #AFAFAFFF",
  ">F c #B0B0B0FF",
  ":& c #B1B1B1FF",
  ">T c #B3AE3EFF",
  ":/ c #B5B272FF",
  ">q c #B7A181FF",
  ",S c #B7B7B7FF",
  ">| c #B8BBA2FF",
  ">g c #BAB664FF",
  ",G c #BABABAFF",
  ">Y c #BBB65CFF",
  ",A c #BCBCBCFF",
  ">~ c #BD9A64FF",
  ">S c #BE9A64FF",
  ">C c #BE9B64FF",
  ">z c #BF9B64FF",
  ">j c #BF9B65FF",
  ">r c #C09C66FF",
  ">e c #C09D66FF",
  ":6 c #C4C4C4FF",
  ",# c #C4C6B3FF",
  ":= c #C6C6C6FF",
  ",1 c #C7C7C7FF",
  ">9 c #C8C354FE",
  ">v c #C8C355FF",
  ":7 c #C8C8C8FF",
  ">x c #C9C9C9FF",
  ",< c #CACACAFF",
  "+a c #CBCBCBFF",
  ">R c #CCC650FF",
  "#+ c #CCCCCCFF",
  ",2 c #CDCDCDFF",
  ">A c #CE9D51FF",
  ",g c #CECFC2FF",
  ">Z c #CF9D52FF",
  "+b c #D1D1D1FF",
  ">l c #D2A054FF",
  ",V c #D2D2D2FF",
  ">k c #D3A055FF",
  ">= c #D3CC4CED",
  ":( c #D3CD4DFF",
  ",, c #D3D3D3FF",
  ",n c #D4D4D4FF",
  ":o c #D5D5D5FF",
  ",N c #D6D6D6FF",
  ",M c #D7D7D7FF",
  ",B c #D8D8D8FF",
  ",b c #D9D9D9FF",
  ",i c #D9DACFFF",
  ",m c #DADADAFF",
  ",v c #DBDBDBFF",
  ",I c #DDDDDDFE",
  "=b c #DDDDDDFF",
  "=P c #DEDEDEFF",
  "={ c #DFDFDFFF",
  "&_ c #E0E0E0FF",
  "+Z c #E1E1E1FF",
  ",P c #E2E2E2FE",
  "+A c #E2E2E2FF",
  "+S c #E3E3E3FF",
  "&K c #E4E4E4FF",
  ";3 c #E5E5E5FF",
  ";b c #E6E6E6FF",
  ";G c #E7E7E7FF",
  ">. c #E8E8E8FE",
  ":# c #E8E8E8FF",
  ":2 c #E9E9E9FF",
  "%q c #EAEAE8FF",
  ",$ c #EAEAEAFF",
  "#p c #EBEBE9FF",
  ":, c #EBEBEBFF",
  ":{ c #ECE332F7",
  ":> c #ECECECFF",
  ";9 c #EDEDEDFF",
  ":< c #EEEEEEFF",
  ":} c #EFE52294",
  ";A c #EFEFEFFF",
  ";T c #F0F0F0FF",
  ":) c #F1E830FF",
  ",0 c #F1F1F0FF",
  ";` c #F1F1F1FF",
  ";' c #F2F2F2FF",
  ";w c #F3EF9EFF",
  ":O c #F3F3F3FF",
  ":3 c #F4F4F4FF",
  "=a c #F5F5F5FF",
  ":[ c #F6EF57FF",
  "+W c #F6F6F6FF",
  ":_ c #F7F065FF",
  ">t c #F7F5D1FF",
  ":9 c #F7F7F7FF",
  ",3 c #F8F8F7FF",
  ";R c #F8F8F8FF",
  ">N c #F9F267FF",
  ">y c #F9F492FF",
  ":] c #F9F494FF",
  ">< c #F9F6BBFF",
  ";S c #F9F9F9FF",
  ">* c #FAF13FFF",
  ">b c #FAF360FF",
  ":` c #FAF5A0FF",
  ":5 c #FAFAFAFF",
  ">M c #FBF34DFF",
  ">u c #FBF35CFF",
  ">1 c #FBF579FF",
  ":' c #FBF8BBFF",
  ";Q c #FBFBFBFF",
  ">m c #FCF342FF",
  ">n c #FCF34AFF",
  ";2 c #FCFCFCFF",
  ">d c #FDF43CFF",
  ">2 c #FDF442FF",
  ">: c #FDFCFBFF",
  "=q c #FDFDFDFF",
  ">i c #FEF53CFF",
  ">s c #FEF657FF",
  ">7 c #FEF658FF",
  ">p c #FEF75DFF",
  ">3 c #FEF764FF",
  ">a c #FEF768FF",
  ">6 c #FEF88CFF",
  ">4 c #FEF995FF",
  ">5 c #FEFAAAFF",
  "=w c #FEFEFEFF",
  ":z c #FFEE000F",
  "Xl c #FFF10725",
  ":W c #FFF10E12",
  ">- c #FFF20727",
  ":c c #FFF20A4E",
  ":C c #FFF20A4F",
  ":n c #FFF20A50",
  ":b c #FFF3062C",
  ":H c #FFF30842",
  ":E c #FFF30F68",
  ";O c #FFF3159B",
  ">0 c #FFF40017",
  ":J c #FFF40530",
  ":B c #FFF40746",
  ":v c #FFF40844",
  ":x c #FFF40B47",
  ":N c #FFF41071",
  ":K c #FFF41178",
  "@D c #FFF41179",
  ":Z c #FFF4128B",
  ":M c #FFF4148F",
  ":G c #FFF41AB3",
  ":L c #FFF41ABB",
  ":A c #FFF41ABC",
  ":F c #FFF41FD9",
  ":S c #FFF41FDE",
  "@s c #FFF50532",
  "@A c #FFF5107E",
  ":m c #FFF51594",
  ":R c #FFF518AD",
  ":D c #FFF526E3",
  ":T c #FFF529E4",
  ":P c #FFF535E5",
  ">+ c #FFF63AFF",
  ".O c #FFF7001E",
  ">8 c #FFF74FFF",
  ":Y c #FFF75CEA",
  ":U c #FFF771ED",
  ":I c #FFF863EB",
  ">& c #FFF86BFF",
  ">f c #FFF86CFF",
  ">O c #FFF874FF",
  ">@ c #FFF97AFF",
  ">B c #FFFA97FF",
  ">% c #FFFBAEFF",
  "># c #FFFBBDFF",
  ">o c #FFFCB8FF",
  ">W c #FFFEE9FF",
  ">$ c #FFFEF1FF",
  ";1 c #FFFF0003",
  ".o c #FFFF0005",
  ":V c #FFFF000B",
  ">X c #FFFFFFFF",
  "   c none",
  
  // Image data
  "                                                                ",
  "                                              :z@s:x:c:v:b.o    ",
  "                                            .O:n@D:m;O:M:N:B:V  ",
  "                                          :z:C:Z:A:S:D:F:G@A:H  ",
  "                                          :J:K:L:P:I:U:Y:T:R:E:W",
  "  :Q:!:~:^:^:^:^:^:^:^:^:^:^:^:^:^:^:^:^:^:/:(:):_:`:':]:[:{:}Xl",
  "  :|>.>X>X>X>X>X>X>X>X>X>X>X>X>X>X>X>X>X>X>o>O>+>@>#>$>%>&>*>=>-",
  "  >;>X>X>X>:>>>,>,>>>:>X=w=q=q;2;Q:5;S;R:9><>1>2>3>4>5>6>7>8>9>0",
  "  =L>X>X>X>q>w>e>r>w>q=w=q;2;Q:5;S;S;R:9+W>t>y>u>i>p>a>s>d>f>g;1",
  "  =L>X>X>X>h>j>k>l>z>h;2;Q>x=b;S>x>x+W=a:3%q>c>v>b>n>m>M>N>B>V  ",
  "  =L>X>X>X>h>C>Z>A>S>D;Q:5>F>G>H-O>J>K>L>P&K>I>U>Y>T>R>E;w>W=L  ",
  "  =L>X>X>X>Q>!>~>~>^>/;S;R>(>)>_>`:&-O;I-K&K>'>H>]>[>{>}#p>X=L  ",
  "  =L>X>X>|,.,X,o,O,+,@,#:9+W=a:3:O;';';`;T;A:<;9:>:>:,,$:2>X=L  ",
  "  =L>X=q,%,&,*,=,-,;,:,>=a,,+a+a,<,<>x:7:7:7,1,2:,,$:2:#:#>X=L  ",
  "  =L>X,3,4,5,6,7,7,8,9,4,0:O;';`;T;A;A:<;9:>:,,$,$:2:#;G;b>X=L  ",
  "  =L>X:5,q,w,e,r,r,t,y,u;'+b,<>x:7:7,1,1:=#+,$:2:#;G;b;3&K>X=L  ",
  "  =L>X;R,i,p,a,s,s,d,f,g;`;T;A:<;9:>:>:,,$:2:#;G;b;b;3&K+S>X=L  ",
  "  =L>X:9+W=a:3:O:O;';`;T;A:<:<;9:>:,,$:2:#:#;G;b;3&K+S+A+A>X=L  ",
  "  =L>X=a=<:3-^>_;`=1;A=1,h;9,j:,;v:2:2,k;G,l,l&K;F;F+A>H&_>X=L  ",
  "  =L>X:3,z;',x>_;T=1:<,h,j:,;v,$;v:#;G,l;3;F;F+S>H>H&_,c=P>X=L  ",
  "  =L>X;'>_;`,x=1:<,h:>,j,j,$;v:#,k;b;b,l&K;F>H+Z,c,c={;W=b>X=L  ",
  "  =L>X;`=1;A,v,b+S:o+A:o:o,n,m,,,M,N,n,B,b,V:o,n>x,n=b;W=b>X=L  ",
  "  =L>X;A=1:<>)>F=W,C:6=C,Z,A,V,Z,S,D>K,1-V-i,F,G,H,J=b;W=b>X=L  ",
  "  >;=w;T;9:>:,,$,$:2:#;G;b;3&K&K+S+A+Z&_={=P=P=b=b=b=b=b&_=q,K  ",
  "  ,L,P=w>X>X>X>X>X>X>X>X>X>X>X>X>X>X>X>X>X>X>X>X>X>X>X>X=q,I,U+:",
  "+(,Y,T,K=L=L=L=L=L=L=L=L=L=L=L=L=L=L=L=L=L=L=L=L=L=L=L=L,K,R,E+g",
  "@.*'+J*8*o*)*)*)*)*)*)*)*)*)*)*)*)*)*)*)*)*)*)*)*)*)*)*(*z,W*F+r",
  "    @.*7+h+K+K+K+K+K+K+K+K+K+K+K+K+K+K+K+K+K+K+K+K+K+K@::k@*+j  ",
  "                                                                ",
  "                                                                ",
  "                                                                ",
  "                                                                "
};
