/* XPM */
const char *xpm_tango_actions_document_properties[] = {
  // Header (width height colors chars-per-pixel)
  "32 32 177 2",
  
  // Colors (code mode value)
  "+j c #00000001",
  "O` c #00000002",
  "@* c #00000007",
  "*! c #00000008",
  ":k c #0000000C",
  "+h c #0000000D",
  "+: c #0000000E",
  ":l c #0000000F",
  "@o c #00000014",
  "+k c #00000016",
  "*k c #00000017",
  "*] c #00000018",
  "+| c #0000001B",
  "*Q c #0000001D",
  "+/ c #00000023",
  ":j c #00000029",
  ":d c #00000030",
  ":s c #00000031",
  ":h c #0000003B",
  "*6 c #00000040",
  "*( c #00000042",
  "*9 c #00000046",
  ":f c #00000047",
  ":g c #0000004A",
  ":a c #33333381",
  ":y c #37373778",
  ":- c #4C4C4CFF",
  ":+ c #4E4E4EFF",
  ";] c #505050FF",
  ";E c #515151FF",
  ":t c #525252F2",
  ":r c #535353F1",
  ";D c #535353FF",
  ":e c #545454FF",
  "6[ c #555555FF",
  "6] c #565656FF",
  ":u c #575757F6",
  ":w c #575757FF",
  ":p c #585858F7",
  ":i c #585858FF",
  ">' c #595959FF",
  ":q c #5A5A5AFF",
  "5| c #5B5B5BFF",
  "5{ c #5C5C5CFF",
  "5[ c #5D5D5DFF",
  ":0 c #5E5E5EFF",
  "6_ c #60606052",
  ":8 c #616161FF",
  "6` c #636363EF",
  ":4 c #646464FF",
  "6( c #656565FF",
  "6) c #666666F2",
  ":; c #686868FF",
  "6/ c #696969FF",
  ":@ c #6B6B6BFF",
  ">( c #6C6C6CFF",
  ";[ c #6E6E6EFF",
  "6^ c #707070FF",
  ";W c #727272FF",
  ">H c #747474FF",
  ";F c #757575FF",
  ",k c #777777FF",
  ";v c #787878FF",
  "=1 c #7B7B7BFF",
  "=< c #7E7E7EFF",
  ";@ c #818181FF",
  ",x c #828282FF",
  "-^ c #848484FF",
  ",! c #868686FF",
  "-K c #878787FF",
  "-Y c #898989FF",
  "-v c #8A8A8AFF",
  "-i c #8D8D8DFF",
  "-, c #8F8F8FFF",
  ",Q c #909090FF",
  "=[ c #919191FF",
  "=L c #939393FF",
  "=v c #949494FF",
  "=& c #95959552",
  ",F c #979797FF",
  "=0 c #989898EF",
  ";f c #989898FF",
  "<d c #999999FF",
  "=* c #9A9A9AF2",
  ":^ c #9A9A9AFF",
  ",D c #9B9B9BFF",
  ",J c #9C9C9CFF",
  ">K c #9D9D9DFF",
  ">P c #9E9E9EFF",
  ",H c #9F9F9FFF",
  "5, c #A0A0A0FF",
  "6} c #A1A1A1FF",
  ";I c #A2A2A2FF",
  "6| c #A3A3A3FF",
  "=C c #A4A4A4FF",
  "=W c #A5A5A5FF",
  "-6 c #A6A6A6FF",
  "-V c #A7A7A7FF",
  "<Q c #A8A8A8FF",
  "-` c #A9A9A9FF",
  ",C c #AAAAAAFF",
  "6' c #ABABABFF",
  "<b c #ACACACFF",
  "<v c #ADADADFF",
  ",Z c #AEAEAEFF",
  ">) c #AFAFAFFF",
  ">F c #B0B0B0FF",
  ":& c #B1B1B1FF",
  "<# c #B2B2B2FF",
  "<s c #B3B3B3FF",
  ";8 c #B4B4B4FF",
  "6{ c #B5B5B5FF",
  "=p c #B6B6B6FF",
  "5X c #B9B9B9FF",
  ",G c #BABABAFF",
  "5> c #BBBBBBFF",
  ",A c #BCBCBCFF",
  "<W c #BDBDBDFF",
  "<1 c #BEBEBEFF",
  ";= c #BFBFBFFF",
  ";g c #C0C0C0FF",
  ";U c #C1C1C1FF",
  ";Z c #C2C2C2FF",
  ":* c #C3C3C3FF",
  ":6 c #C4C4C4FF",
  ";Y c #C5C5C5FF",
  ":= c #C6C6C6FF",
  ",1 c #C7C7C7FF",
  ":7 c #C8C8C8FF",
  "+a c #CBCBCBFF",
  ";_ c #CECECEFF",
  "+c c #CFCFCFFF",
  "+v c #D0D0D0FF",
  "+b c #D1D1D1FF",
  ",V c #D2D2D2FF",
  ":o c #D5D5D5FF",
  ",M c #D7D7D7FF",
  ",B c #D8D8D8FF",
  ",b c #D9D9D9FF",
  ",m c #DADADAFF",
  ",v c #DBDBDBFF",
  ",^ c #DCDCDCFF",
  "=b c #DDDDDDFF",
  "=P c #DEDEDEFF",
  "={ c #DFDFDFFF",
  "&_ c #E0E0E0FF",
  "+Z c #E1E1E1FF",
  "+A c #E2E2E2FF",
  "+S c #E3E3E3FF",
  "&K c #E4E4E4FF",
  ";3 c #E5E5E5FF",
  ";b c #E6E6E6FF",
  ";G c #E7E7E7FF",
  ":# c #E8E8E8FF",
  ":2 c #E9E9E9FF",
  ",$ c #EAEAEAFF",
  ":, c #EBEBEBFF",
  ":> c #ECECECFF",
  ";9 c #EDEDEDFF",
  ":< c #EEEEEEFF",
  ";A c #EFEFEFFF",
  ";T c #F0F0F0FF",
  ";` c #F1F1F1FF",
  ";' c #F2F2F2FF",
  ":O c #F3F3F3FF",
  ":3 c #F4F4F4FF",
  "=a c #F5F5F5FF",
  "+W c #F6F6F6FF",
  ":9 c #F7F7F7FF",
  ";R c #F8F8F8FF",
  ";S c #F9F9F9FF",
  ":5 c #FAFAFAFF",
  ";Q c #FBFBFBFF",
  ";2 c #FCFCFCFF",
  "=q c #FDFDFDFF",
  "=w c #FEFEFEFF",
  "   c none",
  
  // Image data
  "                                                                ",
  "                                                                ",
  "        =&=*,D>K,H>K,D,F=v,Q-i-Y,!,x=<=1,k>H6^>(6/6(6)6_        ",
  "        =0=q=w=w:5=w=w=q=q=q=q;2;2;2;Q;Q;Q;Q:5:5:5;S;S6`        ",
  "        =v=w=b=P,v;b&_+Z+Z+A+A+S+S+S+S&K&K&K&K&K&K+S;S:0        ",
  "        =L=w=P={,^;b+Z+A+A+S+S&K&K&K&K;3;3;3;3;3;3;3;S:0        ",
  "        =[=w={&_,^;G+A<15>,A,A,A,A,A<W<W<W<W<W;g;b;b;S:0        ",
  "        -,=w&_&_=b:#+S+S&K;3;3;b;b;b;G;G;G;G;G;G;G;G;S5[        ",
  "        -i=q&_+Z=P:2&K;=,A,A<W<W<W<W<1<1<1<1<1;U:#:#;S5{        ",
  "        -v=q+Z+A={,$&K;3;b;b;G,M6'-`;8+c:#:2:2:2:2:2;S5|        ",
  "        -K=q+A+S&_,$;3;g<W<W<1,G;I>P,H5,6'<1;=;Z,$,$;S:q        ",
  "        -^=q+S:&+Z,$;b;G:#:#:2:2+Z<Q,H;I-6,V:,:,:,:,;S>'        ",
  "        ;@=q+S;G+Z:,;G;U<1<1;=;=;=5>,D>K,H-V;=:*:>:>;S:i        ",
  "        =<;2&K;3+Z:>:#;G:2,$,$:,:>:>>K>K;I<Q;9;9;9;9;S6]        ",
  "        =1;2&K;3+Z:>=P-`,G;=;=;=;g;=,J,D>P5,;g:6:<:<;S6[        ",
  "        ;v;2;3;b+A;9,V<v<v={:>;9:2<Q=v,D5,6{;A;A;A;A;S;D        ",
  "        ;F;2;b;G+S;9,m=C6}6}-V,C5,,F<d,D>P=W;=;Y;T;T;R;E        ",
  "        ;W;Q;b;G+S;9:#6{,C=W6},J<d;f:^5,=C6',A;9;`;`;R;]        ",
  "        ;[;Q;b;G&K:<,$,B<b-V6|5,>P>P5,6|<Q<v<s:=;`;';R:+        ",
  "        :@;Q;G:#&K:<:,:*=p=C6},H,H5,6}6}6|=W-V,C+v;';R:-        ",
  "        :;;Q;G<#;b:<:,:>;9,$,m+b,B:<&K:&>F6{5X<1;Z,b;R:-        ",
  "        :4:5;G:,;3:<:>:*;g;U;U;Z;Z:*:*<W<Q<Q6',Z:=+a;R:-        ",
  "        :8:5:#:2;3;A:>;9:<;A;T;`:O:3=a+W;b;=;Z,1+a;_;R:-        ",
  "        :0:5:#:2;3;A:>:*;g;U;Z;Z:*:*:*:6:6<W>)<#;_+b;R:-        ",
  "        :q;S:#:2;3;A:>;9:<;T;`;':O:3=a:9;R;S:2+c+b:o;R:-        ",
  "        :w;S:#:2;3;A:>:*;g;U;Z;Z:*:*:*:7;R;S;S:2:o,b;R:-        ",
  "        :e;S:#:2;3;A:>;9:<;T;`;':O:3=a+W:9;R;R;R,$,^;R:-        ",
  "        ;E;S:#:2;3;A:>;9:<;A;T;':O:3=a+W:9:9:9:9+W,$;R:-        ",
  "      +::r;R+W:9:3;R:9:9:9:9:9:9:9:9:9:9:9:9:9:9:9:9;R:t*]@*    ",
  "    +h+/:y:u:i:i:i:i:i:i:i:i:i:i:i:i:i:i:i:i:i:i:i:i:p:a:s+|O`  ",
  "    @**Q:d*6:f:g:g:g:g:g:g:g:g:g:g:g:g:g:g:g:g:g:g*(*9:h:j:k    ",
  "        @*:l+k*k*k*k*k*k*k*k*k*k*k*k*k*k*k*k*k*k*k@o:l*!+j      "
};
