/* XPM */
const char *xpm_tango_actions_document_print_preview[] = {
  // Header (width height colors chars-per-pixel)
  "32 32 420 2",
  
  // Colors (code mode value)
  "+j c #00000001",
  "O` c #00000002",
  "@X c #00000004",
  "+e c #00000005",
  "@* c #00000007",
  "*! c #00000008",
  "+> c #0000000B",
  ":k c #0000000C",
  ":l c #0000000F",
  "@: c #00000010",
  "+B c #00000011",
  "+r c #00000012",
  "+k c #00000016",
  "*k c #00000017",
  "@; c #0000001A",
  "*` c #00000024",
  "*~ c #00000025",
  "+N c #00000026",
  ":j c #00000029",
  "*F c #0000002B",
  ":s c #00000031",
  "*X c #00000033",
  "&W c #00000034",
  "*8 c #00000036",
  "*G c #00000037",
  ",W c #00000039",
  "5& c #3466A4FF",
  "3p c #3566A4FF",
  "4: c #3969A4FF",
  "4' c #406DA6FF",
  "3M c #416FA8FF",
  "4% c #4271ACFF",
  "4a c #4371ACFF",
  "4L c #4673AAFF",
  "6N c #47474696",
  "40 c #4872A7FF",
  "4^ c #4874ABFF",
  "3I c #4876AEFF",
  "6C c #494949A8",
  "3x c #4B77AFFF",
  "5* c #4C77ADFF",
  "4A c #4C77AEFF",
  "3| c #4F77ABFF",
  "3a c #4F7AB0FF",
  "3D c #4F7AB1FF",
  "45 c #4F7BB1FF",
  "5% c #577EB0FF",
  ":i c #585858FF",
  "4m c #5881B3FF",
  "6M c #5959599B",
  "6V c #595959FC",
  ">' c #595959FF",
  "6B c #5A5A5AFB",
  ":q c #5A5A5AFF",
  "6@ c #5A5C59FF",
  "5} c #5B5A5AFF",
  "5| c #5B5B5BFF",
  "6. c #5B5C5AFF",
  "65 c #5B5D59FF",
  "3i c #5B83B5FF",
  "5{ c #5C5C5CFF",
  "5[ c #5D5D5DFF",
  "5` c #5D5F5BFF",
  "4/ c #5D82B0FF",
  ":0 c #5E5E5EFF",
  "6X c #5E605DFF",
  "6m c #5F5F5F8F",
  ">J c #606060FF",
  ":8 c #616161FF",
  "4R c #6565652B",
  "4Y c #676767FF",
  "4B c #68686836",
  "6n c #686868FC",
  ":; c #686868FF",
  "53 c #6969697C",
  "6h c #696969F9",
  "4j c #6991C0FF",
  "5t c #6A6A69F4",
  ":@ c #6B6B6BFF",
  "4T c #6C6B6BE8",
  "54 c #6C6C6CEF",
  "3' c #6C8FBBFF",
  "4E c #6D6D6D07",
  "5l c #6D6F6BFF",
  "5O c #6E6E6E80",
  "5o c #6E6E6EDA",
  "5/ c #6E6F6CFF",
  "4` c #6F8DB1FF",
  "5< c #70716DFF",
  "4| c #70716EFF",
  "4W c #717171E4",
  "4V c #727372F1",
  "64 c #737371FF",
  "4I c #737570FF",
  "66 c #777874FF",
  "5q c #777974FF",
  "51 c #797A78FF",
  "3Q c #7A9EC8FF",
  "4S c #7D9CC1FF",
  "5D c #7F817DFF",
  "3c c #7FA0C6FF",
  "3` c #7FA2C8FF",
  "<4 c #80808004",
  "5e c #80817FFF",
  "4N c #81837EFF",
  "5g c #82847FFF",
  "3e c #848C841F",
  "5' c #858584FF",
  ">` c #858585FF",
  "4( c #859DB8FF",
  "5H c #878784FF",
  "4f c #878984A8",
  "3k c #878984C3",
  "4- c #878984F0",
  "48 c #878985E3",
  "5r c #878986FF",
  "3R c #878A83A3",
  "3m c #87A6C9FF",
  "3Z c #88888547",
  "3{ c #888984DE",
  "3r c #888985FF",
  "33 c #898988FF",
  "3= c #898989FD",
  "-Y c #898989FF",
  "5S c #898A86FF",
  "5I c #8A8A89FF",
  "3- c #8A8A8AFD",
  "5@ c #8A8C87FF",
  "3[ c #8B8E88FF",
  "3, c #8C8E89FF",
  "4h c #8CA1BAFF",
  "3V c #8D8F8AFF",
  "3q c #8E908CFF",
  "5. c #8F908FFF",
  "3* c #90909097",
  "3< c #90928EFF",
  "5k c #90928FFF",
  "4n c #90ABCAFF",
  "5a c #91928EFF",
  "4_ c #91A3B7FF",
  ">G c #929292FF",
  "3> c #92948FFF",
  "5= c #92A9C6FF",
  "5h c #949692FF",
  "3g c #959792FF",
  "4) c #96A8BAFF",
  "6# c #979795FF",
  "5p c #979894FF",
  "4d c #979994FF",
  "3s c #98B0CCFF",
  "3W c #9AADC3FF",
  "4K c #9AAFC5FF",
  "4q c #9AB8D9FF",
  "4D c #9BB1C9FF",
  "5s c #9C9D99FF",
  "5^ c #9D9D9BFF",
  "5w c #9E9F9CFF",
  "4* c #9EA09AFF",
  ",H c #9F9F9FFF",
  "5, c #A0A0A0FF",
  "X` c #A0B9D4FF",
  ";I c #A2A2A2FF",
  "31 c #A2A3A0FF",
  "4k c #A2BBD4FF",
  "4C c #A3A6A1FF",
  "4F c #A3B5C8FF",
  "<: c #A4A4A3FF",
  "=C c #A4A4A4FF",
  "4$ c #A4C0DEFF",
  "47 c #A5A8A3FF",
  "-6 c #A6A6A6FF",
  "5G c #A6A9A4FF",
  "3A c #A7A9A4FF",
  "3: c #A7A9A5FF",
  "44 c #A7BDD5FF",
  "34 c #A8AAA6FF",
  "5$ c #A8BACDFF",
  "4} c #A9A9A7FF",
  "56 c #A9ABA7FF",
  "4Q c #AAABA8FF",
  "4G c #AAB8C7FF",
  "4. c #AAC4DFFF",
  "35 c #ABADA9FF",
  "6+ c #ABAEA9FF",
  "4J c #ABB9C8FF",
  "3F c #ABC3DDFF",
  "3P c #ACC5DEFF",
  "<v c #ADADADFF",
  ",Z c #AEAEAEFF",
  "3u c #AEBFD3FF",
  "3T c #AFB0ADFF",
  "5i c #AFB1ADFF",
  "4l c #AFC2D8FF",
  "3_ c #AFC4DCFF",
  "4H c #B0BBC7FF",
  "4b c #B1C3D5FF",
  "4p c #B1C8E1FF",
  "4# c #B1C9E2FF",
  "3w c #B2B2B1FF",
  "4> c #B2CAE3FF",
  "4U c #B3B3B2FF",
  "6o c #B3B5B2FF",
  "67 c #B4B4B1FF",
  ";8 c #B4B4B4FF",
  "=p c #B6B6B6FF",
  "4z c #B6C6D8FF",
  ",S c #B7B7B7FF",
  "5F c #B8B8B7FF",
  "5X c #B9B9B9FF",
  "5j c #B9BAB9FF",
  "50 c #B9BBB6FF",
  "4x c #B9C6D5FF",
  ",G c #BABABAFF",
  "5d c #BABBB7FF",
  "4v c #BAC8D6FF",
  "4i c #BACEE2FF",
  "5> c #BBBBBBFF",
  "5L c #BCBBB9FF",
  "68 c #BDBCBAFF",
  "32 c #BEBFBDFF",
  "30 c #BEC1BCFF",
  "4c c #BECAD6FF",
  "43 c #BECEDFFF",
  "3n c #BED0E3FF",
  "6< c #BFBEBCFF",
  "6, c #BFBFBDFF",
  "61 c #C0BFBDFF",
  "6> c #C0C0BEFF",
  "5( c #C0C1BFFF",
  "3v c #C0D0E3FF",
  "62 c #C1C0BEFF",
  "6a c #C1C1BFFF",
  "52 c #C1C1C1FA",
  "4] c #C1CCD9FF",
  "63 c #C2C1BFFF",
  "4u c #C2D3E4FF",
  "6: c #C3C2C0FF",
  ":* c #C3C3C3FF",
  "3C c #C3C4C3FF",
  "6p c #C4C3C1FF",
  "5K c #C4C4C3FF",
  "6i c #C5C5C3FF",
  "<c c #C5C5C4FF",
  "3h c #C5C6C4FF",
  "6; c #C6C6C4FF",
  ":= c #C6C6C6FF",
  "4P c #C6CFD6FF",
  "6u c #C7C6C4FF",
  "6y c #C8C7C5FF",
  "6- c #C8C8C6FF",
  "5v c #C9C9C7FF",
  "4{ c #CACCC8FF",
  "6t c #CBCAC8FF",
  "3; c #CBCBCAFF",
  "+a c #CBCBCBFF",
  "3Y c #CBCDC9FF",
  "4s c #CBD2D5FF",
  "3N c #CBD5E0FF",
  "6r c #CCCBC9FF",
  "5: c #CCCEC9FF",
  "6b c #CDCCCBFF",
  "6= c #CDCDCBFF",
  "5y c #CDCDCCFF",
  "46 c #CDD5DAFF",
  "4w c #CDDCECFF",
  "6v c #CECDCBFF",
  "5c c #CECDCCFF",
  "6e c #CECECCFF",
  "5+ c #CECECEFA",
  "5z c #CECFCDFF",
  "6c c #CFCECDFF",
  "4y c #CFDCEAFF",
  "3b c #CFDDEAFF",
  "6w c #D0CFCDFF",
  "6x c #D0CFCEFF",
  "6* c #D0D0CEFF",
  "+v c #D0D0D0FF",
  "4g c #D0D2CEFF",
  "6q c #D1D1CFFF",
  "6g c #D2D1D0FF",
  "5u c #D2D2D0FF",
  "5! c #D3D2D1FF",
  "6& c #D3D3D2FF",
  ",, c #D3D3D3FF",
  "3) c #D3DFECFF",
  "5Q c #D4D3D2FF",
  "60 c #D4D4D2FF",
  "4, c #D4E1F0FF",
  "6z c #D5D4D3FF",
  "5b c #D5D5D3FF",
  "#0 c #D5D5D4FF",
  "4e c #D5E1EEFF",
  "5W c #D6D5D4FF",
  "&* c #D6D6D4FF",
  "5f c #D6D6D5FF",
  "4< c #D6E1EDFF",
  "3L c #D6E2F0FF",
  "5~ c #D7D6D5FF",
  "6% c #D7D7D5FF",
  "6f c #D7D7D6FF",
  ",M c #D7D7D7FF",
  "4! c #D7D8D5FF",
  "5) c #D7DAD3FF",
  "6l c #D8D7D6FF",
  "%| c #D8D8D6FF",
  "$t c #D8D8D7FF",
  "3l c #D8D9D6FF",
  "5# c #D8DAD7FF",
  "5E c #D9D8D7FF",
  "&2 c #D9D9D7FF",
  "49 c #D9DCD6FF",
  "42 c #D9E3ECFF",
  "4X c #D9E5F2FF",
  "5A c #DAD9D8FF",
  "&J c #DADAD8FF",
  "6k c #DADAD9FF",
  "3E c #DADBD8FF",
  "3t c #DADCD9FF",
  "%~ c #DBDBD9FF",
  ",v c #DBDBDBFF",
  "4= c #DBDCDBFF",
  "41 c #DBE4EEFF",
  "4r c #DBE6F0FF",
  "4@ c #DBE6F2FF",
  "5x c #DCDBD9FF",
  "5R c #DCDBDAFF",
  "5Z c #DCDBDBFF",
  ",^ c #DCDCDCFF",
  "4t c #DCE6F0FF",
  "3! c #DCE7F2FF",
  "5Y c #DDDCDAFF",
  "5C c #DDDCDCFF",
  "%I c #DDDDDBFF",
  "6s c #DDDDDCFF",
  "=b c #DDDDDDFF",
  "3( c #DDE6F0FF",
  "5V c #DEDCDCFF",
  "4; c #DEE0DBFF",
  "4M c #DEE1DCFF",
  "3K c #DEE8F3FF",
  "%r c #DFDFDDFF",
  "5_ c #DFE1DCFF",
  "4o c #DFE9F4FF",
  "5B c #E0DFDEFF",
  "%^ c #E0E0DEFF",
  "6j c #E0E0DFFF",
  "&_ c #E0E0E0FF",
  "6O c #E0E2DDFF",
  "+Z c #E1E1E1FF",
  "3~ c #E1EAF2FF",
  "4+ c #E1EAF4FF",
  "5N c #E2E1E1FF",
  "%; c #E2E2E0FF",
  "57 c #E2E3E0FF",
  "3U c #E2E7EBFF",
  "69 c #E3E2E1FF",
  "%e c #E3E3E1FF",
  "36 c #E3E4E2FF",
  "5T c #E4E3E2FF",
  "5M c #E4E3E3FF",
  "%- c #E4E4E2FF",
  "&K c #E4E4E4FF",
  "3} c #E4E6E2FF",
  "3/ c #E4EBF3FF",
  "3G c #E4ECF5FF",
  "4O c #E4EDF5FF",
  "5U c #E6E5E4FF",
  "3J c #E6EDF5FF",
  "5m c #E7E6E6FF",
  ";G c #E7E7E7FF",
  "4~ c #E7EBEDFF",
  "3^ c #E7EEF5FF",
  "6$ c #E8E8E7FF",
  "3z c #E8ECEEFF",
  "$` c #E9E9E7FF",
  ":2 c #E9E9E9FF",
  "59 c #E9EAE8FF",
  "39 c #EAECE9FF",
  "4& c #EAEDEEFF",
  "3H c #EAF0F7FF",
  "6d c #EBEBEAFF",
  ":, c #EBEBEBFF",
  "5; c #EBECEAFF",
  "4Z c #EBEDECFF",
  "3f c #ECEDEBFF",
  ";9 c #EDEDEDFF",
  "5J c #EEEDECFF",
  "5] c #EEEEEDFF",
  ":< c #EEEEEEFF",
  "3B c #EEEFECFF",
  "5- c #EEF1F2FF",
  ";A c #EFEFEFFF",
  "3d c #EFF1F3FF",
  "5n c #F0EFEFFF",
  "4[ c #F0F1EFFF",
  ",0 c #F1F1F0FF",
  ";` c #F1F1F1FF",
  ";' c #F2F2F2FF",
  "55 c #F3F3F2FF",
  ":O c #F3F3F3FF",
  "5P c #F4F3F3FF",
  ":3 c #F4F4F4FF",
  "=a c #F5F5F5FF",
  "3] c #F5F6F4FF",
  "3S c #F5F6F6FF",
  ":9 c #F7F7F7FF",
  ",3 c #F8F8F7FF",
  ";R c #F8F8F8FF",
  "37 c #F8F9F8FF",
  "3y c #F8F9F9FF",
  ";S c #F9F9F9FF",
  ":5 c #FAFAFAFF",
  "38 c #FAFBFAFF",
  ";Q c #FBFBFBFF",
  ";2 c #FCFCFCFF",
  "=q c #FDFDFDFF",
  "58 c #FDFEFDFF",
  "=w c #FEFEFEFF",
  "3j c #FFFFFF01",
  "   c none",
  
  // Image data
  "                                                                ",
  "                                                                ",
  "            3*3=-Y-Y-Y-Y-Y-Y-Y-Y-Y-Y-Y-Y-Y-Y-Y-Y3=3*            ",
  "            3-;R;R;R;R;R;R;R;R;R;R;R;R;R;R;R;R;R;R3-            ",
  "            -Y;R3;3:3>3,3<3132=b&_&_&_&_&_&_&_&_;R-Y            ",
  "            3334353637=w3839303q3w:*:*:*:*:*&_&_;R-Y            ",
  "          3e3r3t3y3u3i3p3a3s3d3f3g3h&K&K&K&K&K&K;R-Y            ",
  "        3j3k3l3z3x3c3v3b3n3m3M3N3B3V3C+a+a+a:2:2;R-Y            ",
  "        3Z3A3S3D3F3G3H3J3K3L3P3I3U3Y3T:<:<:<:<;9;R-Y            ",
  "        3R3E3W3Q3!3~3^3/3(3)3_3`3'3]3[+v,,,,;';';R-Y            ",
  "        3{3}3|4.4X4o3G4O4+4@4#4$4%4&4*4=:9:9:9:9;R-Y            ",
  "        4-4;4:4>4,4<4141424344X`454647$t;2;2;2;2;R-Y            ",
  "        4849404q4w4e4r4t4y4u4i4p4a4s4d$t:O:3:3:3;R-Y            ",
  "        4f4g4h4j4k4l4z4x4c4v4b4n4m4M4N,M,v,v,^,^;'-Y            ",
  "      4B4V4C4Z4A4S4D4F4G4H4J4K4L4P304I4U:=:=:=:=&_-Y4Y4T4R      ",
  "    4E4W:,4Q4!4~4^4/4(4)4_4`4'4]4[4{4}4|5.<v,Z,Z5X>`;`+Z5o<4    ",
  "    5O5+;Q;A5@5#3y5$5%5&5*5=5-5;5:5>5,=C5<51;I;I;I>G;G;95253    ",
  "    54=q=w=w55565657,358:559505q5w,G=p,H=C5e5r=a=q=q=q=q;25t    ",
  "    4Y;2%-$`5y#05u5i5p3V5a5s5d5f5g5h5j;85,-65k5l5z5x5c5v:54Y    ",
  "    4Y;S5b5n<c5x5m5M5N5B5V5C5Z5C5A5S5D,S;8=C5F5G5H5J5K5L5P4Y    ",
  "    4Y=a5I5U5A5Y5T5B5R5E5W5Q5!5Q5~5A5^5/3w5(5)5_5`5J5'5L5]4Y    ",
  "    4Y:O<::;:8>J:05[5{5}:q>':i>':q5|5{6.6X6o6O6+6@:@6#5L6$4Y    ",
  "    4Y,0&J&26%6&6*6=6-6;6:6>6,6<616>62633T646566676<685L694Y    ",
  "    4Y5]&J&2%|&*5b605u6q6w6e6=6r6t5v6y6u6i6p6:6a616<685L6s4Y    ",
  "    4Y6d&J&2%|&*5b605u6q6w6e6=6r6t5v6y6u6i6p6:6a616<685L6f4Y    ",
  "    4Y6$&J&2%|&*5b605u6q6w6e6=6r6t5v6y6u6i6p6:6a616<685L6g4Y    ",
  "  @*6h%~%-%e%;6j%^%r6s%I5R6k&J5E6l6%5W6z605!6g6q6x6c6v6b6p6n+rO`",
  "O`+k6m:;4Y4Y4Y4Y4Y4Y4Y4Y4Y4Y4Y4Y4Y4Y4Y4Y4Y4Y4Y4Y4Y4Y4Y4Y:;6M*`+B",
  "@X*k*F6N6B>'>'>'>'>'>'>'>'>'>'>'>'>'>'>'>'>'>'>'>'>'>'6V6C,W+N:l",
  "  *!@;:j*X*G,W,W,W,W,W,W,W,W,W,W,W,W,W,W,W,W,W,W,W,W&W*8:s*~@:+j",
  "      +e+>+r+r+r+r+r+r+r+r+r+r+r+r+r+r+r+r+r+r+r+r+r:l:k@*+j    ",
  "                                                                "
};
