/* XPM */
const char *xpm_tango_actions_document_save[] = {
  // Header (width height colors chars-per-pixel)
  "32 32 363 2",
  
  // Colors (code mode value)
  "+j c #00000001",
  "O` c #00000002",
  "&h c #00000006",
  "*! c #00000008",
  ":k c #0000000C",
  "+: c #0000000E",
  "+r c #00000012",
  "*k c #00000017",
  "@; c #0000001A",
  "+| c #0000001B",
  "9b c #0000001E",
  "&V c #0000001F",
  "&E c #00000022",
  "9x c #0000002C",
  "9c c #0000003A",
  "9v c #0000003F",
  "*6 c #00000040",
  "*( c #00000042",
  "*. c #00000045",
  "81 c #16438517",
  "71 c #1B49891C",
  "7$ c #1C478E12",
  "7e c #1C4A882D",
  "7< c #1C4C841B",
  "7S c #1C558E09",
  "8$ c #1D488735",
  "7_ c #1D49857B",
  "7G c #1D4B863D",
  "7R c #1E4A8545",
  "7T c #1E4A86A9",
  "8% c #1F468321",
  "7l c #1F478519",
  "7Y c #1F488639",
  "7b c #1F498742",
  "7t c #1F4987C6",
  "7D c #1F4987C7",
  "7) c #1F4A8453",
  "7z c #1F4A8672",
  "7( c #1F4A878E",
  "85 c #1F4A87FF",
  "7X c #1F4B8A92",
  "7v c #1F4C879B",
  "7, c #1F4C89C5",
  "7H c #20488858",
  "7# c #20498938",
  "7@ c #204A888E",
  "7E c #204A8AA5",
  "7n c #204B8847",
  "7% c #204B88B8",
  "72 c #204B88DE",
  "7A c #204B8BAD",
  "7m c #214C88AB",
  "7. c #214C8936",
  "7o c #214C89D0",
  "7O c #214C8AD6",
  "7+ c #214D8ACB",
  "7k c #214D8AE9",
  "7F c #224C88F3",
  "7w c #234E89F0",
  "86 c #234E89FF",
  "8O c #284E83FF",
  "8, c #2A528DFF",
  "9q c #2B538CFF",
  "9e c #2B548DFF",
  "7r c #2B558006",
  "7& c #2B558FF2",
  "7c c #2D558FEA",
  "8T c #2D568FFF",
  "91 c #2F578EFF",
  "7U c #305991F1",
  "7M c #315891F6",
  "8= c #315891FF",
  "8_ c #315992FF",
  "7x c #325A91D7",
  "7J c #325C93F3",
  "8I c #3364A4FF",
  "8C c #345A90FF",
  "7> c #355D95F5",
  "8P c #3666A5FF",
  "8y c #385E95FF",
  "9% c #395E93FF",
  "8N c #3969A7FF",
  "9z c #3A3A3A5D",
  "8x c #3A6198FF",
  "8/ c #3A69A7FF",
  "95 c #3C6093FF",
  "9O c #3C6298FF",
  "9= c #3D6CA9FF",
  "8] c #40404004",
  "7i c #41669CE1",
  "8L c #416EAAFF",
  "9X c #416FAAFF",
  "8G c #42699CFF",
  "8^ c #426A9FFF",
  "8M c #4370ABFF",
  "7{ c #446798FF",
  "7p c #446BA0EF",
  "8| c #476EA2FF",
  "9j c #48484858",
  "8} c #486A9AFF",
  "8h c #486A9BFF",
  "8# c #49494907",
  "9; c #4A70A2FF",
  "8K c #4A76AEFF",
  "7[ c #4D5766FF",
  "82 c #4D66660A",
  "9w c #4D72A6FF",
  "8( c #4D78B0FF",
  "8W c #4E4E4E17",
  "98 c #4E4E4E1A",
  "8m c #4E79B0FF",
  "9l c #505050E3",
  "9> c #51515148",
  "9h c #515151D6",
  "9k c #515151E3",
  "9# c #5252524E",
  "9u c #52525279",
  "9g c #525252DF",
  "8S c #53535322",
  "8r c #53535359",
  "8< c #53535375",
  "8' c #53535378",
  "9p c #5353537E",
  "8@ c #535353A9",
  "8A c #535353AA",
  "9, c #535353B3",
  "8& c #535353B6",
  "8l c #535353BC",
  "9a c #535353D3",
  "8e c #535353D9",
  "9@ c #535353DE",
  "9d c #535353F8",
  "9f c #535353FD",
  ";D c #535353FF",
  "73 c #5377A7D0",
  "8k c #54545443",
  "8Q c #54545486",
  "97 c #545454AE",
  "7' c #545454BD",
  "83 c #545454ED",
  "9y c #5555551B",
  "7` c #55555524",
  "8[ c #555555E5",
  "6[ c #555555FF",
  "9& c #557AACFF",
  "9s c #575757DB",
  "8+ c #585858FC",
  "9: c #58769FFF",
  "8n c #5880B4FF",
  "8J c #5881B5FF",
  "7] c #595959FD",
  "94 c #597CADFF",
  "8b c #5981B5FF",
  "8~ c #5A78A3FF",
  "8v c #5A82B5FF",
  "5| c #5B5B5BFF",
  "7y c #5B7CAAAD",
  "7u c #5B7CABC9",
  "7* c #5B80AFFD",
  "8s c #5B82B6FF",
  "5{ c #5C5C5CFF",
  "8U c #5C83B6FF",
  "8a c #5D84B7FF",
  "92 c #5E82B1FF",
  "8E c #5F5F5FF9",
  "8p c #5F85B8FF",
  "8g c #6182B0FF",
  "7/ c #6183B1FC",
  "80 c #6187B8FF",
  "9t c #626262FB",
  "7a c #6283B2FD",
  "89 c #6388B9FF",
  "7Z c #6587B3FD",
  "88 c #658ABAFF",
  "99 c #676767FB",
  "8V c #6889B6FF",
  "8D c #696969FE",
  "7: c #698AB5FD",
  "8; c #698DBCFF",
  "7W c #6A8BB7FC",
  "8: c #6A8EBDFF",
  "8- c #6B8FBDFF",
  "8F c #6C87ACFF",
  "7q c #6C8CB6FC",
  "8B c #6C8FBEFF",
  "8. c #6D90BEFF",
  "8w c #6F89ADFF",
  "9. c #6F92BFFF",
  "9* c #7092BFFF",
  "7| c #7193BFFF",
  "7~ c #7395C1FF",
  "8Y c #7493BEFF",
  "7! c #7697C2FF",
  "8X c #7797C2FF",
  "7= c #7998C0FF",
  "8u c #7A99C2FF",
  "7P c #7A9AC3FF",
  "8c c #7B9AC3FF",
  "8H c #7B9BC3FF",
  "7L c #7B9BC4FF",
  "7j c #7C99C1FF",
  "8) c #7D9CC4FF",
  "=< c #7E7E7EFF",
  "9+ c #7E93B1FF",
  "9- c #7E9DC6FF",
  "=, c #7F7F7FFF",
  "8o c #7F9DC4FF",
  "7K c #7F9EC6FF",
  "@> c #80808002",
  "7C c #809FC6FF",
  "9o c #82A0C7FF",
  "7Q c #83A1C8FF",
  "-^ c #848484FF",
  "7V c #84A1C8FF",
  "7; c #85A2C6FF",
  "8z c #869BB9FF",
  "7N c #86A2C7FF",
  "7^ c #86A3C9FF",
  "-K c #878787FF",
  "93 c #89A5CAFF",
  "7} c #89A5CBFF",
  "7- c #89A6C9FF",
  "-v c #8A8A8AFF",
  "74 c #8AA5CAE1",
  "7g c #8AA6CBFF",
  "75 c #8BA7CBFF",
  ";* c #8C8C8CFF",
  "7f c #8CA7CCFF",
  "87 c #8CA8CCFF",
  "8i c #8DA8CCFF",
  "7B c #8DA9CCFF",
  "9M c #8E8E8EFF",
  "8> c #8EA9CCFF",
  "-, c #8F8F8FFF",
  ",Q c #909090FF",
  "7s c #90ABCDFF",
  "76 c #90ABCEFF",
  "=[ c #919191FF",
  "7I c #91ACCEFF",
  ">G c #929292FF",
  "=L c #939393FF",
  "77 c #93ADCEFF",
  "7d c #93ADCFFF",
  "=v c #949494FF",
  "7h c #94ADCFFF",
  "8d c #94AFCFFF",
  "<' c #959595FF",
  "8q c #95AECFFF",
  "<I c #969696FF",
  "78 c #96AFD0FF",
  ",F c #979797FF",
  "8f c #97B0D0FF",
  ";f c #989898FF",
  "79 c #98B1D1FF",
  "<d c #999999FF",
  "70 c #99B2D1FF",
  "8t c #9CADC3FF",
  ">K c #9D9D9DFF",
  ">P c #9E9E9EFF",
  ",H c #9F9F9FFF",
  "5, c #A0A0A0FF",
  "6} c #A1A1A1FF",
  ";I c #A2A2A2FF",
  "9i c #A2ABB8FF",
  "8` c #A2B0C2FF",
  "6| c #A3A3A3FF",
  "=C c #A4A4A4FF",
  "=W c #A5A5A5FF",
  "-6 c #A6A6A6FF",
  "-V c #A7A7A7FF",
  "<Q c #A8A8A8FF",
  "-` c #A9A9A9FF",
  ",C c #AAAAAAFF",
  "6' c #ABABABFF",
  "<b c #ACACACFF",
  "<v c #ADADADFF",
  ",Z c #AEAEAEFF",
  "90 c #AEB4BDFF",
  ">) c #AFAFAFFF",
  "84 c #AFBCCEFF",
  ">F c #B0B0B0FF",
  "9r c #B0B5BBFF",
  ":& c #B1B1B1FF",
  "<# c #B2B2B2FF",
  "<s c #B3B3B3FF",
  ";8 c #B4B4B4FF",
  "6{ c #B5B5B5FF",
  "=p c #B6B6B6FF",
  ",S c #B7B7B7FF",
  "9m c #B8B8B8FF",
  "5X c #B9B9B9FF",
  ",G c #BABABAFF",
  "9< c #BABFC6FF",
  "5> c #BBBBBBFF",
  "8R c #BBC3CEFF",
  "<W c #BDBDBDFF",
  ";= c #BFBFBFFF",
  ";g c #C0C0C0FF",
  ";U c #C1C1C1FF",
  "96 c #C1C3C5FF",
  ";Z c #C2C2C2FF",
  ":* c #C3C3C3FF",
  ":6 c #C4C4C4FF",
  ";Y c #C5C5C5FF",
  ":= c #C6C6C6FF",
  ",1 c #C7C7C7FF",
  ":7 c #C8C8C8FF",
  ">x c #C9C9C9FF",
  ",< c #CACACAFF",
  "8Z c #CACDD2FF",
  "+a c #CBCBCBFF",
  "#+ c #CCCCCCFF",
  "9$ c #CCCED2FF",
  ",2 c #CDCDCDFF",
  "9n c #CDD0D5FF",
  ";_ c #CECECEFF",
  "+c c #CFCFCFFF",
  "+v c #D0D0D0FF",
  "+b c #D1D1D1FF",
  ",V c #D2D2D2FF",
  ",, c #D3D3D3FF",
  ",n c #D4D4D4FF",
  ":o c #D5D5D5FF",
  ",N c #D6D6D6FF",
  ",M c #D7D7D7FF",
  ",B c #D8D8D8FF",
  "8{ c #D8D9DAFF",
  ",b c #D9D9D9FF",
  "8j c #D9DADBFF",
  ",m c #DADADAFF",
  ",v c #DBDBDBFF",
  ",^ c #DCDCDCFF",
  "=b c #DDDDDDFF",
  "=P c #DEDEDEFF",
  "={ c #DFDFDFFF",
  "&_ c #E0E0E0FF",
  "8! c #E0E1E2FF",
  "+Z c #E1E1E1FF",
  "+A c #E2E2E2FF",
  "+S c #E3E3E3FF",
  "&K c #E4E4E4FF",
  ";3 c #E5E5E5FF",
  ";G c #E7E7E7FF",
  ":# c #E8E8E8FF",
  ":2 c #E9E9E9FF",
  ",$ c #EAEAEAFF",
  ":, c #EBEBEBFF",
  ":> c #ECECECFF",
  ";9 c #EDEDEDFF",
  ";T c #F0F0F0FF",
  "8* c #F0F2F5FF",
  ";' c #F2F2F2FF",
  ":O c #F3F3F3FF",
  ":3 c #F4F4F4FF",
  "=a c #F5F5F5FF",
  "+W c #F6F6F6FF",
  ":9 c #F7F7F7FF",
  ";R c #F8F8F8FF",
  ":5 c #FAFAFAFF",
  ";2 c #FCFCFCFF",
  "=q c #FDFDFDFF",
  "=w c #FEFEFEFF",
  "   c none",
  
  // Image data
  "                                                                ",
  "                7.7X7o7O7+7@7#                                  ",
  "            7$7%7&7*7=7-7;7:7>7,7<                              ",
  "          717273747576777879707q7w7e                            ",
  "        7r7t7y7u7i7p7a7s7d7f7g7h7j7k7l                          ",
  "        7z7x7c7v7b7n7m7M7N7B7V7C7s7Z7A                          ",
  "      7S7D7F7G        7H7J7s7K7L7P7I7U7e                        ",
  "      7Y7T7R            7E7W7Q7!7~7^7/7(                        ",
  "      7)7_7`7'7]5{5{5{5{7[7{7}7|8.8X8o8O5{5|5|5|8+8@8#          ",
  "      8$8%8&>);2=w=q=q;28*8=758-8;8:8>8,+W=a:3:O;'<'8<          ",
  "      818283=a84858585858586878889808q85858585858w=P8e+j        ",
  "        8r,F;R;38t8y8u7Q7^7g8i8p8a8s8d8f70798g8h8j;9=<8k        ",
  "        8l={:>&_+S8z8x8c888s8v8b8n8m8M8N8B8V8C8Z,M+A:*8A        ",
  "      8S8D:5+Z&K;G;G8F8G8H8J8K8L8P8I8I8U8Y8T8R,^,b,b:28E8W      ",
  "      8Q<W;T+Z;3;3&K8!8~8^8:8/8I8I8I8(8)8_8`,^,v,m,B&K;I8'      ",
  "    8]8[;T&K;3&K+A&_=b8{8}8|9.8N8I9X9o9O9+,B,b,m,m,m,m,B9@@>    ",
  "    9#=[=a,^;G&_,^,b,N,N9$9%9&9*9=9-9;9:+v+b,V,n,N=P,n;3=,9>    ",
  "    9,,B;G,^+S={,N:o:o,n+b9<919293949596,<#+,2+v,B,v,V,v<W97    ",
  "  9899=a,^,b,M={={,M,n+b;_:7909q9w9e9r:6:=,<,2,B,b,2+v,,&_9t9y  ",
  "  9u=p:,=b,m,B,N,m+A=P,M+c+a:79i859i:=,<+v,M,m,V;_+c,V,B=b>K9p  ",
  "  9a:2+Z:9;G,m,b,N:o,N,b,^,^,v,m9n,b,v,b,M+v;_+c+b,,+A+W,m,,9s  ",
  "  9d+W,^=b,v,^,^,^,^,v,b,B,M,N,n,n,n:o,N,M,M,B,B,B,M,N,M:o:#6[  ",
  "  ;D;T&_+Z+Z&_&_={={=P=b=b=b,^,^,v,v,m,m,m,b,B,M,M,N,N:o:o+v;D  ",
  "  ;D:>,G,G5X9m,S6{;8<s<#:&>),Z<v<b6',C<Q-V-6=W=C;I6}5,,H,H5X;D  ",
  "  ;D,$,G,G-^-v>G<d>P6|-V,C<b<v,Z6',C;f;Y,F:*=v;Z>G;U,Q;=,H,S;D  ",
  "  ;D:2,G5X-K-v>G<d>P6|-V,C6'<v<v6',C;f;Y<I:*=v;Z=[;g-,;=,H;8;D  ",
  "  ;D;G,G5X9M;*>G<d>P6|-V,C6'<v<b,C-`;f;Y<I:*=L;U=[;g-,;=,H<#;D  ",
  "  ;D&K,G9m9m6{5X<s>F>)<b<v,C<b<b,C-`,F:6<':*=L;U,Q;=-,;=5,,Z9f  ",
  "  9g;Y+Z&_=P,^,v,b,M:o,,+b+c,2+a>x,1:6;Z;=<W5>5X=p;8<#:&>)<'9h*!",
  "  9j9k;D;D;D;D;D;D;D;D;D;D;D;D;D;D;D;D;D;D;D;D;D;D;D;D;D;D9l9z+:",
  "  *!+|9x9c*6*.*.*.*.*.*.*.*.*.*.*.*.*.*.*.*.*.*.*.*.9v*(9c9x*kO`",
  "    +j:k*k&V&E&E&E&E&E&E&E&E&E&E&E&E&E&E&E&E&E&E&E&E9b@;+r&h    "
};
