/* XPM */
const char *xpm_tango_actions_document_print[] = {
  // Header (width height colors chars-per-pixel)
  "32 32 204 2",
  
  // Colors (code mode value)
  "+j c #00000001",
  "O` c #00000002",
  "@X c #00000004",
  "+e c #00000005",
  "@* c #00000007",
  "*! c #00000008",
  "+> c #0000000B",
  ":k c #0000000C",
  ":l c #0000000F",
  "@: c #00000010",
  "+B c #00000011",
  "+r c #00000012",
  "+k c #00000016",
  "*k c #00000017",
  "@; c #0000001A",
  "*` c #00000024",
  "*~ c #00000025",
  "+N c #00000026",
  ":j c #00000029",
  "*F c #0000002B",
  ":s c #00000031",
  "*X c #00000033",
  "&W c #00000034",
  "*8 c #00000036",
  "*G c #00000037",
  ",W c #00000039",
  "6N c #47474696",
  "6C c #494949A8",
  "6M c #5959599B",
  "6V c #595959FC",
  ">' c #595959FF",
  "6B c #5A5A5AFB",
  "6m c #5F5F5F8F",
  "4R c #6565652B",
  ">L c #666666FF",
  "6~ c #676666FF",
  "4Y c #676767FF",
  "4B c #68686836",
  "6n c #686868FC",
  ":; c #686868FF",
  "53 c #6969697C",
  "6h c #696969F9",
  "5t c #6A6A69F4",
  "6Z c #6B6B6BEC",
  ":@ c #6B6B6BFF",
  "4T c #6C6B6BE8",
  "54 c #6C6C6CEF",
  "4E c #6D6D6D07",
  "5O c #6E6E6E80",
  "5o c #6E6E6EDA",
  "4W c #717171E4",
  "<4 c #80808004",
  "5' c #858584FF",
  ">` c #858585FF",
  "3= c #898989FD",
  "-Y c #898989FF",
  "3- c #8A8A8AFD",
  "6E c #8D8D8CFF",
  "3* c #90909097",
  ">G c #929292FF",
  "6# c #979795FF",
  ",D c #9B9B9BFF",
  ";I c #A2A2A2FF",
  "6! c #A7A7A6FF",
  "-V c #A7A7A7FF",
  "-` c #A9A9A9FF",
  "<b c #ACACACFF",
  "<v c #ADADADFF",
  ",Z c #AEAEAEFF",
  "<# c #B2B2B2FF",
  "5X c #B9B9B9FF",
  "5L c #BCBBB9FF",
  "68 c #BDBCBAFF",
  "<1 c #BEBEBEFF",
  "6< c #BFBEBCFF",
  ";= c #BFBFBFFF",
  "61 c #C0BFBDFF",
  "6a c #C1C1BFFF",
  "52 c #C1C1C1FA",
  ";Z c #C2C2C2FF",
  "6: c #C3C2C0FF",
  ":* c #C3C3C3FF",
  "6p c #C4C3C1FF",
  "5K c #C4C4C3FF",
  ":6 c #C4C4C4FF",
  "6i c #C5C5C3FF",
  ";Y c #C5C5C5FF",
  ":= c #C6C6C6FF",
  "6u c #C7C6C4FF",
  "6y c #C8C7C5FF",
  "5v c #C9C9C7FF",
  "6H c #CACAC9FF",
  "6t c #CBCAC8FF",
  "+a c #CBCBCBFF",
  "6r c #CCCBC9FF",
  "#+ c #CCCCCCFF",
  "6b c #CDCCCBFF",
  "6= c #CDCDCBFF",
  "5y c #CDCDCCFF",
  "6v c #CECDCBFF",
  "5c c #CECDCCFF",
  "6e c #CECECCFF",
  "5+ c #CECECEFA",
  "6c c #CFCECDFF",
  "6w c #D0CFCDFF",
  "6x c #D0CFCEFF",
  "6q c #D1D1CFFF",
  "+b c #D1D1D1FF",
  "6g c #D2D1D0FF",
  "5u c #D2D2D0FF",
  "5! c #D3D2D1FF",
  ",, c #D3D3D3FF",
  "60 c #D4D4D2FF",
  ",n c #D4D4D4FF",
  "6z c #D5D4D3FF",
  "5b c #D5D5D3FF",
  "#0 c #D5D5D4FF",
  "5W c #D6D5D4FF",
  "&* c #D6D6D4FF",
  "6% c #D7D7D5FF",
  "6f c #D7D7D6FF",
  ",M c #D7D7D7FF",
  "6l c #D8D7D6FF",
  "%| c #D8D8D6FF",
  ",B c #D8D8D8FF",
  "5E c #D9D8D7FF",
  "&2 c #D9D9D7FF",
  ",b c #D9D9D9FF",
  "&J c #DADAD8FF",
  "6k c #DADAD9FF",
  ",m c #DADADAFF",
  "%~ c #DBDBD9FF",
  ",v c #DBDBDBFF",
  "5x c #DCDBD9FF",
  "5R c #DCDBDAFF",
  "%G c #DCDCDAFF",
  ",^ c #DCDCDCFF",
  "%I c #DDDDDBFF",
  "6s c #DDDDDCFF",
  "6F c #DEDDDDFF",
  "&v c #DEDEDDFF",
  "%r c #DFDFDDFF",
  "5B c #E0DFDEFF",
  "%^ c #E0E0DEFF",
  "6j c #E0E0DFFF",
  "&_ c #E0E0E0FF",
  "6D c #E1E1E0FF",
  "+Z c #E1E1E1FF",
  "5N c #E2E1E1FF",
  "%; c #E2E2E0FF",
  "+A c #E2E2E2FF",
  "69 c #E3E2E1FF",
  "%e c #E3E3E1FF",
  "&3 c #E3E3E2FF",
  "6J c #E4E3E1FF",
  "%- c #E4E4E2FF",
  "&K c #E4E4E4FF",
  "6S c #E5E4E3FF",
  "#* c #E5E5E4FF",
  ";3 c #E5E5E5FF",
  "5U c #E6E5E4FF",
  "6A c #E6E6E5FF",
  "&. c #E7E7E6FF",
  ";G c #E7E7E7FF",
  "6$ c #E8E8E7FF",
  "$` c #E9E9E7FF",
  ":2 c #E9E9E9FF",
  ",$ c #EAEAEAFF",
  "6d c #EBEBEAFF",
  ":, c #EBEBEBFF",
  "6W c #ECEBE9FF",
  ";9 c #EDEDEDFF",
  "5J c #EEEDECFF",
  "6R c #EEEDEDFF",
  "5] c #EEEEEDFF",
  ":< c #EEEEEEFF",
  "6T c #EFEDEDFF",
  "6Y c #EFEEEDFF",
  "6U c #EFEEEEFF",
  ";A c #EFEFEFFF",
  "6I c #F0EFEEFF",
  "5n c #F0EFEFFF",
  ";T c #F0F0F0FF",
  "6P c #F1EFEFFF",
  "6L c #F1F0EFFF",
  "6K c #F1F0F0FF",
  ",0 c #F1F1F0FF",
  ";` c #F1F1F1FF",
  "6G c #F2F1F1FF",
  ";' c #F2F2F2FF",
  ":O c #F3F3F3FF",
  "5P c #F4F3F3FF",
  ":3 c #F4F4F4FF",
  "+W c #F6F6F6FF",
  "6Q c #F7F6F5FF",
  ":9 c #F7F7F7FF",
  ";R c #F8F8F8FF",
  ";S c #F9F9F9FF",
  ":5 c #FAFAFAFF",
  ";Q c #FBFBFBFF",
  ";2 c #FCFCFCFF",
  "=q c #FDFDFDFF",
  "=w c #FEFEFEFF",
  "   c none",
  
  // Image data
  "                                                                ",
  "                                                                ",
  "            3*3=-Y-Y-Y-Y-Y-Y-Y-Y-Y-Y-Y-Y-Y-Y-Y-Y3=3*            ",
  "            3-;R;R;R;R;R;R;R;R;R;R;R;R;R;R;R;R;R;R3-            ",
  "            -Y;R&_&_&_&_&_&_&_&_&_&_&_&_&_&_&_&_;R-Y            ",
  "            -Y;R&_:*:*:*:*:*:*;=,Z;Z:*:*:*:*&_&_;R-Y            ",
  "            -Y;R;3;3;3;3;3;3+Z<#-V<1&K&K&K&K&K&K;R-Y            ",
  "            -Y;R,$#+#++a+a+a<#-V-V-V<1+a+a+a:2:2;R-Y            ",
  "            -Y;R:<:<:<:<:<:=-V-V-V-V-`+A:<:<:<;9;R-Y            ",
  "            -Y;R:O,n,n,n:*-V-V-V-V-V-V,Z+b,,;';';R-Y            ",
  "            -Y;R;R;R;R&K-`-V-V-V-V-V-V-V:*:9:9:9;R-Y            ",
  "            -Y;R=q,^,^,^,v,v-V-V-V-V-V:9;2;2;2;2;R-Y            ",
  "            -Y;R;A;T;T;T;`;`-V-V-V-V-V;A:O:3:3:3;R-Y            ",
  "            -Y;',M,M,B,B,B,b,b,b,m,m,m,v,v,v,^,^;'-Y            ",
  "      4B6Z4Y-Y&_:*:*:*:6:6:6:6:6;Y;Y;Y;Y:=:=:=:=&_-Y4Y4T4R      ",
  "    4E4W:,;Q-Y5X<b<b<v<v<v<b<b<b<b<b<v<v<v<v,Z,Z5X>`;`+Z5o<4    ",
  "    5O5+;Q;Q,D;I;I;I;I;I;I;I;I;I;I;I;I;I;I;I;I;I;I>G;G;95253    ",
  "    54=q=w=w=w=w=w=w=w=w=w=w=q=q=q=q=q=q=q=q=q=q=q=q=q=q;25t    ",
  "    4Y;2%-$`5y#0&.6A;3#*6S&3%e5N6D6D%^5B&v6F6s6s%G5x5c5v:54Y    ",
  "    4Y;S5b6G6H6J6K6K6K6L6P5n5n5n6I6I6U6U6U6Y6T6R6R5J5K5L5P4Y    ",
  "    4Y+W6E5J5U6W6Q6Q6Q6Q6Q6Q6Q6Q6Q6Q6Q6Q6Q6Q6Q6Q6Q5J5'5L5]4Y    ",
  "    4Y:O6!:@>L>L>L>L6~6~>L>L>L>L>L>L>L>L>L>L>L>L>L:@6#5L6$4Y    ",
  "    4Y,0&J&2%|&*5b605u6q6w6e6=6r6t5v6y6u6i6p6:6a616<685L694Y    ",
  "    4Y5]&J&2%|&*5b605u6q6w6e6=6r6t5v6y6u6i6p6:6a616<685L6s4Y    ",
  "    4Y6d&J&2%|&*5b605u6q6w6e6=6r6t5v6y6u6i6p6:6a616<685L6f4Y    ",
  "    4Y6$&J&2%|&*5b605u6q6w6e6=6r6t5v6y6u6i6p6:6a616<685L6g4Y    ",
  "  @*6h%~%-%e%;6j%^%r6s%I5R6k&J5E6l6%5W6z605!6g6q6x6c6v6b6p6n+rO`",
  "O`+k6m:;4Y4Y4Y4Y4Y4Y4Y4Y4Y4Y4Y4Y4Y4Y4Y4Y4Y4Y4Y4Y4Y4Y4Y4Y:;6M*`+B",
  "@X*k*F6N6B>'>'>'>'>'>'>'>'>'>'>'>'>'>'>'>'>'>'>'>'>'>'6V6C,W+N:l",
  "  *!@;:j*X*G,W,W,W,W,W,W,W,W,W,W,W,W,W,W,W,W,W,W,W,W&W*8:s*~@:+j",
  "      +e+>+r+r+r+r+r+r+r+r+r+r+r+r+r+r+r+r+r+r+r+r+r:l:k@*+j    ",
  "                                                                "
};
