/* XPM */
const char *xpm_tango_actions_document_open[] = {
  // Header (width height colors chars-per-pixel)
  "32 32 357 2",
  
  // Colors (code mode value)
  "+j c #00000001",
  "O` c #00000002",
  "@X c #00000004",
  "&h c #00000006",
  "*! c #00000008",
  "+( c #0000000A",
  "+> c #0000000B",
  ":k c #0000000C",
  "+h c #0000000D",
  ":l c #0000000F",
  "+B c #00000011",
  "+k c #00000016",
  "*~ c #00000025",
  "*^ c #0000002E",
  "3& c #0000003E",
  "2d c #00808002",
  "3% c #030A114C",
  "3O c #04070745",
  "3$ c #070A104E",
  "3# c #0A0D134F",
  "3@ c #0C0F1554",
  "3+ c #0C0F1653",
  "3o c #14243C4D",
  "2[ c #2121216C",
  "3X c #325F99E1",
  "1{ c #3264A33D",
  "2] c #33639E9B",
  "28 c #3366A614",
  "2= c #3366A628",
  "1n c #3464A37A",
  "2} c #3465A4FF",
  "2s c #3466A4FD",
  "</ c #3565A3FF",
  "1F c #3565A465",
  "2| c #3566A4FD",
  "<) c #3566A5FB",
  "1R c #3665A451",
  "3. c #3666A4FD",
  "<^ c #3666A4FF",
  "2m c #3667A6F3",
  "<~ c #3767A5FF",
  "1a c #3767A794",
  "1f c #3868A5FF",
  "<( c #3868A6FF",
  "<_ c #3869A69E",
  "1O c #3869A7DA",
  "2G c #3869A7E4",
  "2R c #3968A8D2",
  "19 c #3969A8AF",
  "11 c #396AA7C6",
  "2Q c #3A68A4FF",
  "27 c #3A6AA7F8",
  "2{ c #3C5678FC",
  "1w c #3D6BA6FF",
  "2E c #3F3F3F8D",
  "13 c #446FA5FF",
  "2H c #45454590",
  "2* c #4572ACF4",
  "1B c #4672ABFF",
  "2M c #4747479B",
  "2' c #4775AFFC",
  "2f c #494949A4",
  "2J c #4A72A5FF",
  "29 c #4B4B4BAE",
  "2- c #4E4E4EB8",
  "2N c #4F73A0FF",
  "1# c #4F75A7FF",
  "1} c #505050C0",
  "1E c #525252C9",
  "<] c #5476A1FF",
  "1[ c #547EB5F1",
  "#P c #55555503",
  "<; c #55555509",
  "<* c #5555550C",
  "1G c #555555D1",
  "<< c #555753FE",
  "<$ c #555753FF",
  "1J c #557DB2FF",
  "1m c #575757D8",
  "<i c #57595572",
  "<K c #575955FB",
  "<D c #575955FC",
  "<% c #575955FD",
  "<8 c #575955FF",
  "<M c #585A56FD",
  "<f c #585A56FF",
  "<n c #595B57FF",
  "2! c #5986B8FF",
  "1s c #5A5A5ADF",
  "<J c #5A5C58FF",
  "<- c #5A5D59D1",
  "<> c #5B5D59C8",
  "<3 c #5B5D5ABE",
  "<r c #5B5E5AB3",
  "2~ c #5B88BAFF",
  "2^ c #5C89BAFF",
  "2/ c #5C8ABBFF",
  "<& c #5D5E5AB5",
  "2g c #5D7CA3FF",
  "2( c #5D8BBCFF",
  "10 c #5E5E5EE5",
  "2) c #5E8CBDFF",
  "2` c #5E8CBEFF",
  "12 c #5F5F5FEC",
  "2q c #5F7899FF",
  "2h c #5F8CC0FF",
  "2_ c #5F8DBEFF",
  "<N c #60606008",
  "1Q c #6188B7FF",
  "1+ c #626262F1",
  "1T c #648BBCF3",
  "<` c #656565F6",
  "<, c #66666605",
  "<E c #666666FB",
  "2w c #668FC2FF",
  "2j c #6797CCFF",
  "2k c #6797CDFF",
  "2l c #6798CDFF",
  "2z c #6898CDFF",
  "<L c #696969FD",
  "<l c #696B66EF",
  "2B c #6995C7FF",
  "2x c #6998CDFF",
  "2c c #6999CDFF",
  "2. c #6A8FBDFF",
  "2T c #6A94C5FF",
  "2v c #6A99CDFF",
  "2b c #6C9BCEFF",
  "<B c #6D6D6D0E",
  "<z c #6D6D6D15",
  "2e c #6D9CCEFF",
  "2: c #6E93C2FF",
  "2r c #6E9CCEFF",
  "2t c #6E9CCFFF",
  "<G c #6F6F6FFB",
  "1| c #6F7F94FF",
  "2y c #6F9DCFFF",
  "2W c #707478FF",
  "2u c #709DCFFF",
  "2i c #709ECFFF",
  "2; c #7186A0FF",
  "1D c #7196C3F7",
  "2p c #719ECFFF",
  "<p c #7272721D",
  "2F c #729DCCFF",
  "<V c #737373F8",
  "<! c #738AA6FF",
  "2K c #759DC8FF",
  "<7 c #767676FB",
  "2n c #76A1CFFF",
  "22 c #76A1D1FF",
  "23 c #76A2D1FF",
  "<6 c #777777FB",
  "21 c #77A1D1FF",
  "2C c #77A2D1FF",
  "24 c #77A2D2FF",
  "2Z c #77A3D1FF",
  "25 c #77A3D2FF",
  "<t c #78787824",
  "2A c #78A3D1FF",
  "26 c #78A3D2FF",
  "2V c #78A4D2FF",
  "2S c #79A4D2FF",
  "<5 c #7A7A7AC1",
  "<x c #7A7A7AF5",
  "2D c #7BA5D3FF",
  "1b c #7C9FCAFD",
  "2< c #7CA6D3FF",
  "=< c #7E7E7EFF",
  "2$ c #7FA8D4FF",
  "2% c #7FA8D5FF",
  "@> c #80808002",
  "<4 c #80808004",
  "<F c #80808006",
  "<y c #808080F5",
  "1H c #808892FF",
  "2# c #80A7D4FF",
  "2@ c #80A8D5FF",
  "1c c #80A9D5FF",
  "<a c #818181F4",
  "1W c #838F9FFF",
  "2L c #83A8D0FF",
  "2P c #84A9D1FF",
  "2Y c #84AAD2FF",
  "2+ c #84ABD6FF",
  "1A c #84ACD6FF",
  "1p c #85A7CFFF",
  "2I c #85AAD2FF",
  "2, c #85ACD6FF",
  "2U c #86ABD3FF",
  "1u c #86ADD7FF",
  "20 c #878786FF",
  "-K c #878787FF",
  "1x c #87AED7FF",
  "1U c #88AED8FF",
  "1Z c #88AFD7FF",
  "1' c #89AED8FF",
  "1` c #89AFD8FF",
  "<= c #8A8B89FE",
  "1I c #8AAFD9FF",
  "2a c #8BB0D7FF",
  "<u c #8C8D8BFC",
  "1d c #8E8E8FFF",
  "18 c #8EAFD3FF",
  "2O c #8EB2D9FF",
  "1* c #8EB3D9FF",
  "1& c #8EB3DAFF",
  "<m c #8F918EFF",
  "1= c #8FB3D9FF",
  "16 c #8FB3DAFF",
  "1- c #8FB4D9FF",
  "1; c #8FB4DAFF",
  "1: c #8FB5DAFF",
  ",Q c #909090FF",
  "1> c #90B5DAFF",
  "=[ c #919191FF",
  "1_ c #91B4DAFF",
  ">G c #929292FF",
  "1y c #92B5DBFF",
  "1t c #92B6DBFF",
  "2o c #93B5DBFF",
  "17 c #93B6DBFF",
  "=v c #949494FF",
  "1) c #94B6DBFF",
  "1z c #94B6DCFF",
  "<' c #959595FF",
  "1l c #95B7DCFF",
  "1k c #95B8DCFF",
  "<I c #969696FF",
  "1< c #96B6D7FF",
  "1( c #96B7DCFF",
  "1j c #96B8DCFF",
  ",F c #979797FF",
  "1N c #979BA0FF",
  "1/ c #97B8DCFF",
  "1h c #97B9DCFF",
  ";f c #989898FF",
  "<q c #989997FF",
  "1r c #98B9DDFF",
  "1i c #98BADDFF",
  "<d c #999999FF",
  "<0 c #999A98FF",
  "1C c #99B9DDFF",
  "1~ c #99BADDFF",
  "15 c #99BBDDFF",
  ":^ c #9A9A9AFF",
  "<[ c #9AB8D8FF",
  "1^ c #9ABADDFF",
  "<9 c #9B9C9BFF",
  "2> c #9BBBDDFF",
  "1P c #9BBBDEFF",
  ",J c #9C9C9CFF",
  "<w c #9C9D9BFF",
  "1L c #9CBBDEFF",
  "1, c #9CBCDEFF",
  ">K c #9D9D9DFF",
  "<A c #9D9E9CFF",
  "<h c #9D9E9DFF",
  "1% c #9DBDDEFF",
  ">P c #9E9E9EFF",
  "<Z c #9E9F9DFF",
  ",H c #9F9F9FFF",
  "1v c #9FBEDFFF",
  "<e c #A0A19FFE",
  "<g c #A0A19FFF",
  "<C c #A0A1A0FF",
  "1o c #A0BDDCFF",
  "<2 c #A1A2A0FE",
  ";I c #A2A2A2FF",
  "<T c #A2A3A2FF",
  "<j c #A3A3A2FF",
  "<S c #A3A4A2FF",
  "<Y c #A3A4A3FF",
  "<: c #A4A4A3FF",
  "2& c #A4C1E1FF",
  "1M c #A5A5A4FF",
  "=W c #A5A5A5FF",
  "<U c #A6A7A5FF",
  "-V c #A7A7A7FF",
  "1$ c #A7C1DEFF",
  "1S c #A7C4E2FF",
  "<R c #A8A8A7FF",
  "<Q c #A8A8A8FF",
  "-` c #A9A9A9FF",
  "2X c #A9C4E2FF",
  ",C c #AAAAAAFF",
  "<b c #ACACACFF",
  "1q c #ADADACFF",
  "<v c #ADADADFF",
  "1] c #ADC6E4FF",
  "1Y c #ADC7E4FF",
  ",Z c #AEAEAEFF",
  "<P c #B0B0AFFF",
  ">F c #B0B0B0FF",
  ":& c #B1B1B1FF",
  "<s c #B3B3B3FF",
  "14 c #B3CAE4FF",
  "<k c #B5B5B4FF",
  "1! c #B5CDE7FF",
  "1@ c #B6B6B5FF",
  "1X c #BBD1E8FF",
  ",A c #BCBCBCFF",
  "1. c #BCD1E8FF",
  "<| c #BCD2E9FF",
  "<W c #BDBDBDFF",
  "1e c #BDD1E8FF",
  "<} c #BDD2E9FF",
  "<1 c #BEBEBEFF",
  "<{ c #BED3E9FF",
  ";= c #BFBFBFFF",
  "1K c #C0D4EAFF",
  ";U c #C1C1C1FF",
  "<H c #C2C2C1FF",
  ":* c #C3C3C3FF",
  ":6 c #C4C4C4FF",
  "<c c #C5C5C4FF",
  "1V c #C5D8ECFF",
  "1g c #C6D8ECFF",
  ",1 c #C7C7C7FF",
  ":7 c #C8C8C8FF",
  "#+ c #CCCCCCFF",
  ",2 c #CDCDCDFF",
  ";_ c #CECECEFF",
  "+c c #CFCFCFFF",
  "#= c #D0D0CFFF",
  "+b c #D1D1D1FF",
  ",V c #D2D2D2FF",
  ",, c #D3D3D3FF",
  ",n c #D4D4D4FF",
  ":o c #D5D5D5FF",
  ",N c #D6D6D6FF",
  ",M c #D7D7D7FF",
  ",B c #D8D8D8FF",
  ",b c #D9D9D9FF",
  ",m c #DADADAFF",
  ",v c #DBDBDBFF",
  ",^ c #DCDCDCFF",
  "=b c #DDDDDDFF",
  "&v c #DEDEDDFF",
  "=P c #DEDEDEFF",
  "&_ c #E0E0E0FF",
  "+Z c #E1E1E1FF",
  "+A c #E2E2E2FF",
  "+S c #E3E3E3FF",
  "&K c #E4E4E4FF",
  ";3 c #E5E5E5FF",
  ";b c #E6E6E6FF",
  ";G c #E7E7E7FF",
  ":# c #E8E8E8FF",
  ",$ c #EAEAEAFF",
  ":, c #EBEBEBFF",
  ";' c #F2F2F2FF",
  ":O c #F3F3F3FF",
  ";S c #F9F9F9FF",
  "=q c #FDFDFDFF",
  "=w c #FEFEFEFF",
  "   c none",
  
  // Image data
  "                                                                ",
  "                  <$<$<$<$<$<$<$<$<$<$<$<%<&<*                  ",
  "                +j<$;'=w=w=w=w=w=w=w=q=q,$<=<-<;                ",
  "                @><$,M,M,M,M,N:o,,+b,2:7;=,A<:<><,              ",
  "                #P<<,b,b,b,B,B,B,M,n,V;_,1<1;'<2<3#P            ",
  "  <4<5<6<6<6<6<6<7<8,^,v,v,v<9<0<0<0<q<w+b;U;S:O<e<r@>          ",
  "  <t<y,2:6:*:*;U<1<8=P=P=P=b,v,v,m,m,m,b,M+c-V-V,A<u<i          ",
  "  <p<a<s,H>P>K,J<d<f+Z,b&_&_<g<h<h<h<h<j=P,m+b#+:7<k<l+j        ",
  "  <z<x<c>F,Z<v<b-`<n+S<m#=+A&v=P=P=b=b=b&_&_=b,m:o;_<M<N        ",
  "  <B<V:&,J:^<d,F=v<f;b;3:#;3<C<Z<Z<Z<Z<Z<Z<Z<A<S=b,b<D<N        ",
  "  <F<G<H<b,C-`-V;I<J:#:#:#:#;G;G;G;b;b;b;b;3;3;3&K+Z<K<N        ",
  "    <L<P;f<I<I=v,Q<J:,:,,$,$<U<Y<T<T<T<T<T<T<T<R;G;G<K<N        ",
  "    <E<W<Q<!<~<~<^</<(<(<(<(<(<(<(<(<(<(<(<(<(<(<(<(</<)<)<_    ",
  "    <`,C<'<]<[<{<{<{<}<}<|<|<|<|<|<|<|1.1.1.1.1.1X1X1X1X1o1O    ",
  "    1+1@=W1#1$1%1&1*1=1=1=1=1=1-1-1-1-1-1-1;1;1;1:1:1>1,1<11    ",
  "    12=W>G1314151;1616161616161616161616161=1=1=1=1=1*171819    ",
  "    101q;I1w1e1r17171717171t1t1t1y1y1y1y1y1y1y1y1y1y1u1i1p1a    ",
  "    1s,H1d1f1g1h1j1j1k1k1k1k1k1k1k1k1k1k1k1l1l1l1z1x1c1v1b1n    ",
  "    1m1M1N1B1V1C1C1C1C1C1C1C1C1C1C1C1C1r1r1r1r1k1Z1A1A1S1D1F    ",
  "    1G;f1H1J1K1,1,1,1L1L1L1L1L1L1P1P1P1P1P1P1z1I1U1U1U1Y1T1R    ",
  "    1E,J1W1Q1!1C1C1C1C1~1~1^1^1C1/1(1)1_161`1U1U1U1U1'1]1[1{    ",
  "    1},Q1|2.2X1y2o1y2O1`2+2@2#2$2$2$2%2%2%2@2@2@2@1c1c2&2*2=    ",
  "    2-=[2;2:2>2,2<2122232323232424242424252526262626261~2728    ",
  "    29202q2w2<2e2e2e2r2r2t2t2t2t2y2y2y2y2y2y2u2u2u2i2p2a2s2d    ",
  "    2f-K2g2h2r2j2j2k2l2z2z2z2z2z2z2x2x2x2c2c2c2v2v2v2b2n2m      ",
  "    2M=<2N2B2V23232323232C2C2C2Z2Z2Z2A2A2A2A2A2A2S2S2D2F2G      ",
  "    2H=<2J2K2L2L2L2L2L2P2P2P2P2P2P2P2P2I2I2I2I2U2U2U2Y2T2R      ",
  "  &h2E2W2Q2!2~2^2^2^2^2^2/2/2/2/2(2(2(2(2)2)2)2)2_2_2`2'2]@X    ",
  "O`+k2[2{2}<^<^<^<^<^<^<^<^<^<^<^<^<^<^<^<^<^<^<^<^2|3.3X3o+BO`  ",
  "+j:l*^3O3+3@3@3@3@3@3@3@3@3@3@3@3@3@3@3@3@3@3@3@3#3$3%3&*~+(+j  ",
  "  O`*!+>:k+h+h+h+h+h+h+h+h+h+h+h+h+h+h+h+h+h+h+h+h+h:k+>&hO`    ",
  "                                                                "
};
