/* XPM */
const char *xpm_tango_actions_document_new[] = {
  // Header (width height colors chars-per-pixel)
  "32 32 228 2",
  
  // Colors (code mode value)
  "+j c #00000001",
  "O` c #00000002",
  "@* c #00000007",
  "*! c #00000008",
  ":k c #0000000C",
  "+h c #0000000D",
  "+: c #0000000E",
  ":l c #0000000F",
  "@o c #00000014",
  "+k c #00000016",
  "*k c #00000017",
  "*] c #00000018",
  "+| c #0000001B",
  "*Q c #0000001D",
  "+/ c #00000023",
  ":j c #00000029",
  ":d c #00000030",
  ":s c #00000031",
  ":h c #0000003B",
  "*6 c #00000040",
  "*( c #00000042",
  "*9 c #00000046",
  ":f c #00000047",
  ":g c #0000004A",
  ":a c #33333381",
  ":y c #37373778",
  ":- c #4C4C4CFF",
  ":+ c #4E4E4EFF",
  ";] c #505050FF",
  ";E c #515151FF",
  ":t c #525252F2",
  ":r c #535353F1",
  ";D c #535353FF",
  ":e c #545454FF",
  ":u c #575757F6",
  ":w c #575757FF",
  ":p c #585858F7",
  ":i c #585858FF",
  ":q c #5A5A5AFF",
  ";c c #5D5C51FF",
  ":0 c #5E5E5EFF",
  ":8 c #616161FF",
  ":4 c #646464FF",
  ":; c #686868FF",
  ":@ c #6B6B6BFF",
  ";[ c #6E6E6EFF",
  ";W c #727272FF",
  ";F c #757575FF",
  ";v c #787878FF",
  "=1 c #7B7B7BFF",
  "=< c #7E7E7EFF",
  ";@ c #818181FF",
  ",x c #828282FF",
  "=2 c #84836CFF",
  "-^ c #848484FF",
  ",! c #868686FF",
  "-K c #878787FF",
  "-Y c #898989FF",
  "-v c #8A8A8AFF",
  "-i c #8D8D8DFF",
  "-, c #8F8F8FFF",
  ",Q c #909090FF",
  ";y c #918D3CFF",
  "=[ c #919191FF",
  "=L c #939393FF",
  "=v c #949494FF",
  "=3 c #95925BFF",
  "=& c #95959552",
  ",F c #979797FF",
  "=0 c #989898EF",
  "=* c #9A9A9AF2",
  ",D c #9B9B9BFF",
  ">K c #9D9D9DFF",
  ",H c #9F9F9FFF",
  "=4 c #A19D4DFF",
  "=8 c #AAA540F8",
  "=5 c #ABA644FF",
  "=7 c #ADA83DFF",
  "=6 c #AFAA3FFF",
  ":& c #B1B1B1FF",
  "<# c #B2B2B2FF",
  ";< c #B6B032FF",
  "=z c #BCB635F8",
  "=9 c #C2BB2B8E",
  ";o c #D7CF2AFF",
  "=K c #D8D02BFF",
  ",v c #DBDBDBFF",
  ",^ c #DCDCDCFF",
  "=b c #DDDDDDFF",
  "=P c #DEDEDEFF",
  "={ c #DFDFDFFF",
  "&_ c #E0E0E0FF",
  "+Z c #E1E1E1FF",
  "+A c #E2E2E2FF",
  "+S c #E3E3E3FF",
  ",~ c #E4E4DDFF",
  "&K c #E4E4E4FF",
  ";3 c #E5E5E5FF",
  ";b c #E6E6E6FF",
  ",/ c #E7E5C7FF",
  ";G c #E7E7E7FF",
  ":# c #E8E8E8FF",
  ":2 c #E9E9E9FF",
  "=A c #EAE7B0FF",
  ",$ c #EAEAEAFF",
  ",( c #EBE9B9FF",
  "-' c #EBEBE4FF",
  ":, c #EBEBEBFF",
  ":> c #ECECECFF",
  ",' c #EDEAB3FF",
  "-C c #EDEBBBFF",
  ",[ c #EDEBCDFF",
  ";9 c #EDEDEDFF",
  "=) c #EEE532FF",
  "=! c #EEEA99FF",
  ",| c #EEEDD8FF",
  ";0 c #EEEDDAFF",
  "<O c #EEEEEBFF",
  ":< c #EEEEEEFF",
  ";A c #EFEFEFFF",
  "=S c #F0EB89FF",
  "-] c #F0EDB6FF",
  "<+ c #F0EFDAFF",
  ";T c #F0F0F0FF",
  "-- c #F1EA52FF",
  ",) c #F1EC8AFF",
  ",{ c #F1ED9CFF",
  "<. c #F1EEADFF",
  ";q c #F1EEB7FF",
  "<@ c #F1F0C4FF",
  ";` c #F1F1F1FF",
  "-e c #F2EC66FF",
  "-8 c #F2ED82FF",
  "-Z c #F2ED8BFF",
  ";l c #F2EFB8FF",
  ";z c #F2F0BEFF",
  ";' c #F2F2F2FF",
  ",] c #F3EE83FF",
  ";w c #F3EF9EFF",
  ":O c #F3F3F3FF",
  "=D c #F4ED66FF",
  "=~ c #F4EE70FF",
  "-[ c #F4EF8DFF",
  ":3 c #F4F4F4FF",
  ";r c #F5F085FF",
  ";e c #F5F08EFF",
  "=a c #F5F5F5FF",
  ",_ c #F6EF5EFF",
  ",} c #F6F072FF",
  "+W c #F6F6F6FF",
  "-A c #F7F05EFF",
  "-{ c #F7F068FF",
  "<X c #F7F173FF",
  ":9 c #F7F7F7FF",
  "-9 c #F8F056FF",
  ";R c #F8F8F8FF",
  "=F c #F9F14CFF",
  ";, c #F9F157FF",
  "<o c #F9F260FF",
  ";S c #F9F9F9FF",
  "-} c #FAF24CFF",
  ";x c #FAF9D7FF",
  ":5 c #FAFAFAFF",
  "=s c #FBFAE3FF",
  ";Q c #FBFBFBFF",
  "=G c #FCF237FF",
  "=H c #FCF340FF",
  ";t c #FCF795FF",
  "=d c #FCF9B9FF",
  ";2 c #FCFCFCFF",
  "-| c #FDF338FF",
  ";. c #FDF441FF",
  "=k c #FDF55BFF",
  "=^ c #FDF65EFF",
  "-S c #FDF65FFF",
  "=h c #FDF665FF",
  "=l c #FDF666FF",
  "=/ c #FDF771FF",
  "=g c #FDF77AFF",
  ",` c #FDF787FF",
  "=f c #FDF896FF",
  "=q c #FDFDFDFF",
  ";X c #FEF439FF",
  "=J c #FEF43AFF",
  "=j c #FEF65CFF",
  "=( c #FEF75FFF",
  "-! c #FEF760FF",
  "-D c #FEF888FF",
  "-* c #FEF9A3FF",
  "-0 c #FEF9A4FF",
  "-q c #FEFCD5FF",
  "-x c #FEFCD6FF",
  "=w c #FEFEFEFF",
  "-~ c #FFE8000B",
  "=% c #FFEF0820",
  "-u c #FFF2093A",
  "XL c #FFF2093B",
  "@f c #FFF30015",
  "X7 c #FFF3083F",
  "=] c #FFF30C16",
  "=' c #FFF30C58",
  "@] c #FFF30E6D",
  ";O c #FFF3159B",
  "XX c #FFF3169A",
  "-> c #FFF4062D",
  "=x c #FFF40745",
  ";+ c #FFF40B30",
  "-y c #FFF40F77",
  "=` c #FFF4148E",
  "-: c #FFF417A6",
  "-H c #FFF417A7",
  "-t c #FFF41AB4",
  "=_ c #FFF41CC2",
  "-; c #FFF41FDF",
  "-G c #FFF41FE0",
  "@s c #FFF50532",
  "-c c #FFF50A35",
  "-r c #FFF52DE4",
  "-J c #FFF80723",
  "-= c #FFF988FF",
  "-F c #FFF989FF",
  "-w c #FFFAA4FF",
  "X} c #FFFF0002",
  ";1 c #FFFF0003",
  "$0 c #FFFF0006",
  "=$ c #FFFF0007",
  "=c c #FFFF0012",
  "   c none",
  
  // Image data
  "                                                                ",
  "                                          =$=%@sXLXL@s=%$0      ",
  "        =&=*,D>K,H>K,D,F=v,Q-i-Y,!,x=<=1=2=3=4=5=6=7=8=9XL@f    ",
  "        =0=q=w=w:5=w=w=q=q=q=q;2;2;2;Q=s=d=f=g=h=j=k=l=z@]=x=c  ",
  "        =v=w=b=P,v;b&_+Z+Z+A+A+S+S+S,~=A=S=D=F=G=H=H=J=KXX@]XLX}",
  "        =L=w=P={,^;b+Z+A+A+S+S&K&K&K,/=!=~=F=H=^=/=/=(=)=_=`='=]",
  "        =[=w={&_,^;G+A+A+S&K&K;3;3;3,(,),_=G-S,`-*-*-=---;-:@]->",
  "        -,=w&_&_=b:#+S+S&K;3;3;b;b;b,'-8-9=H=/-0-q-q-w-e-r-t-y-u",
  "        -i=q&_+Z=P:2&K&K;3;3;b;G;G;G,',]-9;.=/-0-x-q-w-e-r-t-y-c",
  "        -v=q+Z+A={,$&K;3;b;b;G;G:#:#-C-Z-A=G-S-D-0-0-F---G-H@]-J",
  "        -K=q+A+S&_,$;3;b;G;G:#:#:2:2,[,{,}-};.-S=/=/-!=)=_=`='-~",
  "        -^=q+S:&+Z,$;b;G:#:#:2:2,$,$-'-]-[-{-}-|;.;.;X;o;O@];+  ",
  "        ;@=q+S;G+Z:,;G:#:#:2,$,$:,:,:>,|<.-[<X<o;,;,=h;<@]X7;1  ",
  "        =<;2&K;3+Z:>:#:#:2,$,$:,:>:>;9;9;0;q;w;e;r;r;t;y;+;1    ",
  "        =1;2&K;3+Z:>:#:2,$,$:,:>;9;9:<:<:<<O<+<@;l;z;x;c        ",
  "        ;v;2;3;b+A;9:2,$,$:,:>;9;9:<;A;A;A;A;A;A;A;A;S;D        ",
  "        ;F;2;b;G+S;9,$,$:,:>;9:<:<;A;T;T;T;T;T;T;T;T;R;E        ",
  "        ;W;Q;b;G+S;9,$:,:>;9:<:<;A;T;T;`;`;';';`;`;`;R;]        ",
  "        ;[;Q;b;G&K:<,$:,:>;9:<;A;T;`;`;';':O:O;';';';R:+        ",
  "        :@;Q;G:#&K:<:,:>;9:<;A;T;`;';':O:O:3:3:O:O:O;R:-        ",
  "        :;;Q;G<#;b:<:,:>;9:<;T;`;`;':O:3:3=a=a=a:3:O;R:-        ",
  "        :4:5;G:,;3:<:>;9:<;A;T;`;':O:3=a=a+W+W+W=a:3;R:-        ",
  "        :8:5:#:2;3;A:>;9:<;A;T;`:O:3=a+W+W:9:9:9+W=a;R:-        ",
  "        :0:5:#:2;3;A:>;9:<;T;`;':O:3=a+W:9;R;R:9:9=a;R:-        ",
  "        :q;S:#:2;3;A:>;9:<;T;`;':O:3=a:9;R;S;S;R:9+W;R:-        ",
  "        :w;S:#:2;3;A:>;9:<;T;`;':O:3=a:9;R;S;S;R:9+W;R:-        ",
  "        :e;S:#:2;3;A:>;9:<;T;`;':O:3=a+W:9;R;R;R:9+W;R:-        ",
  "        ;E;S:#:2;3;A:>;9:<;A;T;':O:3=a+W:9:9:9:9+W=a;R:-        ",
  "      +::r;R+W:9:3;R:9:9:9:9:9:9:9:9:9:9:9:9:9:9:9:9;R:t*]@*    ",
  "    +h+/:y:u:i:i:i:i:i:i:i:i:i:i:i:i:i:i:i:i:i:i:i:i:p:a:s+|O`  ",
  "    @**Q:d*6:f:g:g:g:g:g:g:g:g:g:g:g:g:g:g:g:g:g:g*(*9:h:j:k    ",
  "        @*:l+k*k*k*k*k*k*k*k*k*k*k*k*k*k*k*k*k*k*k@o:l*!+j      "
};
