/* XPM */
const char *xpm_tango_actions_edit_paste[] = {
  // Header (width height colors chars-per-pixel)
  "32 32 180 2",
  
  // Colors (code mode value)
  "O` c #00000002",
  "@. c #00000003",
  "+e c #00000005",
  "&h c #00000006",
  "*7 c #00000009",
  "*k c #00000017",
  "@= c #0000001C",
  "+g c #00000021",
  "*F c #0000002B",
  ":s c #00000031",
  "*X c #00000033",
  "*G c #00000037",
  "kL c #5C5C5CDB",
  "kY c #5C5C5CFC",
  "5{ c #5C5C5CFF",
  "k! c #5D5D5CFF",
  ":0 c #5E5E5EFF",
  "l< c #5F5F5FFF",
  "zX c #604113A4",
  "kU c #60605E8A",
  "l| c #69461499",
  "k( c #704B16FF",
  "z. c #714C15FC",
  "kQ c #714C16FF",
  "l{ c #714D16FD",
  "k) c #724C15FB",
  "kW c #724D15FB",
  "k` c #724D16FC",
  "k_ c #754D168B",
  "kE c #774F168B",
  "kR c #7F7F71FF",
  "l/ c #80807DFF",
  "4N c #81837EFF",
  "lW c #81837FFF",
  "lU c #828480FF",
  "l^ c #828580FF",
  "eR c #868A84FF",
  "g, c #878984FF",
  "eY c #878A84FF",
  "l' c #878A85FF",
  "e! c #878B85FF",
  "lE c #878B86FF",
  "l] c #888A84FF",
  "eB c #888A85FF",
  "lS c #89601FFF",
  "kT c #8A8A7DFF",
  "lZ c #8B611FFF",
  "l~ c #8B8E89FF",
  "l[ c #8C8678FF",
  "lH c #8C8F8AFF",
  "lB c #8D621FFF",
  "lT c #8D918BFF",
  "lM c #8E631FFF",
  "lQ c #8E8E8BFF",
  "lK c #8E918CFF",
  "ln c #906520FF",
  "l` c #908979FF",
  "l> c #918A79FF",
  "l( c #91918DFF",
  "lc c #926620FF",
  "lz c #936720FF",
  "lk c #956820FF",
  "l+ c #968D7AFF",
  "lh c #976920FF",
  "k/ c #97978AFF",
  "lf c #986A21FF",
  "l9 c #989897FF",
  "kP c #99998DFF",
  "ls c #9A6B21FF",
  "kI c #9B9B8EFF",
  "lu c #9C6C21FF",
  "ly c #9D6D21FF",
  "le c #9F6E21FF",
  "l0 c #A16F22FF",
  "k~ c #A1A195FF",
  "l7 c #A27122FF",
  "l_ c #A37122FF",
  "l) c #A3A3A0FF",
  "<j c #A3A3A2FF",
  "l, c #A47222FF",
  "k^ c #A4A499FF",
  "l6 c #A4A49AFF",
  "lY c #A67322FF",
  "lL c #A87423FF",
  "l1 c #A8A89DFF",
  "lJ c #A97523FF",
  "lR c #A9ABA9FF",
  "l5 c #AAAAA0FF",
  "l4 c #AAAAA1FF",
  "lG c #AB7623FF",
  "k{ c #ABABA0FF",
  "l3 c #ABABA2FF",
  "k} c #ACACA1FF",
  "l2 c #ACACA2FF",
  "lD c #AD7723FF",
  "k| c #ADADA2FF",
  "lA c #AE7823FF",
  "l. c #AEAEA3FF",
  "lV c #B07924FF",
  "lN c #B27B24FF",
  "lm c #B37C24FF",
  "lv c #B57D24FF",
  "l; c #B6B6ACFF",
  "l- c #B6B6ADFF",
  "lx c #B77E25FF",
  "l= c #B7B7ADFF",
  "l* c #B7B7AEFF",
  "ll c #B87F25FF",
  "l& c #B8B8AEFF",
  "l% c #B8B8AFFF",
  "l$ c #B9B9AFFF",
  "l# c #B9B9B0FF",
  "lj c #BA8025FF",
  "k[ c #BABAB1FF",
  "lg c #BC8125FF",
  "lX c #BCBCB3FF",
  "lo c #BD8225FF",
  "l} c #BD8226FF",
  "li c #BF8326FF",
  "lO c #C18426FF",
  "lr c #C28526FF",
  ":* c #C3C3C3FF",
  "lq c #C48726FF",
  "5K c #C4C4C3FF",
  ":6 c #C4C4C4FF",
  "lI c #C4C5C4FF",
  "k' c #C58727FF",
  "<c c #C5C5C4FF",
  ";Y c #C5C5C5FF",
  "k] c #C68827FF",
  "l: c #C6C6BEFF",
  "la c #C6C6C5FF",
  ":= c #C6C6C6FF",
  "lp c #C7C7C6FF",
  "fM c #C8C8C7FF",
  "l@ c #C9C9C2FF",
  "#= c #D0D0CFFF",
  "+v c #D0D0D0FF",
  ",n c #D4D4D4FF",
  ":o c #D5D5D5FF",
  "l! c #D5D6D4FF",
  ",N c #D6D6D6FF",
  ",B c #D8D8D8FF",
  "lF c #D9DBD9FF",
  "lw c #DCDCDBFF",
  "=P c #DEDEDEFF",
  "&3 c #E3E3E2FF",
  "6A c #E6E6E5FF",
  ":# c #E8E8E8FF",
  "lC c #E9E9E8FF",
  ":2 c #E9E9E9FF",
  "lb c #EAEAE9FF",
  ",$ c #EAEAEAFF",
  "6d c #EBEBEAFF",
  ":, c #EBEBEBFF",
  "j# c #ECECEBFF",
  ":> c #ECECECFF",
  "ld c #EDEDECFF",
  ";9 c #EDEDEDFF",
  "5] c #EEEEEDFF",
  ":< c #EEEEEEFF",
  "lt c #EFEFEEFF",
  ";A c #EFEFEFFF",
  "l8 c #F0F0EFFF",
  ";T c #F0F0F0FF",
  ";` c #F1F1F1FF",
  ";' c #F2F2F2FF",
  ":O c #F3F3F3FF",
  ":3 c #F4F4F4FF",
  "+W c #F6F6F6FF",
  ":9 c #F7F7F7FF",
  ";R c #F8F8F8FF",
  "lP c #F9F9F8FF",
  ";S c #F9F9F9FF",
  ":5 c #FAFAFAFF",
  ";Q c #FBFBFBFF",
  "=q c #FDFDFDFF",
  "=w c #FEFEFEFF",
  ">X c #FFFFFFFF",
  "   c none",
  
  // Image data
  "                        kL5{5{5{5{5{5{kL                        ",
  "                        5{kPkIkIkIkIkP5{                        ",
  "                  kUkY5{5{kTkRkRkRkRkT5{5{kYkU                  ",
  "    kEkWkQkQkQkQkQk!k~k^k^k^k/k/k/k/k^k^k^k~k!k(kQkQkQkQk)k_    ",
  "    k`k'k]k]k]k]k]5{k[k{k}k}k}k}k|k|k|k|l.lX5{lok]k]k]k]lOk`    ",
  "    kQk]k]l+eBeBeB5{l@l#l$l%l&l&l*l=l-l;l;l:5{4NeBeBl>l,k]kQ    ",
  "    kQk]k]eB>X>X>Xl<l1l2l2l3l3l3l4l4l4l5l5l6l<;'>X>XeBl7k]kQ    ",
  "    kQk]k]eB>Xl8l8<j:05{5{5{5{5{5{5{5{5{5{:0l96Al8>XeBl0k]kQ    ",
  "    kQk]lqeB>Xl8l8l8&3,B,B,B,B,B,B,B,B,B,B,Blw5]l8>XeBlek]kQ    ",
  "    kQk]lreB>Xl8l8l8l8l8l8l8l8l8l8l8l8l8l8l8l8ltlt>XeBlyk]kQ    ",
  "    kQk]lOeB>Xl8l8l8l8l8l8l8l8l8l8l8l8l8l8ltltlt5]>XeBluk]kQ    ",
  "    kQk]lieB>Xl8l8fMfMfMfMfMfMfMfMfMfMlplplpla5];9>XeBlsk]kQ    ",
  "    kQk]loeB>Xl8l8l8l8l8l8l8l8l8l8l8ltlt5]5]5]ldld>XeBlfk]kQ    ",
  "    kQk]lgeB>Xl8l8l8l8l8l8l8l8l8ltlt:<5]5];9ld:>j#>XeBlhk]kQ    ",
  "    kQk]ljeB>Xl8l8fMfMfMfMfMlplplplala;Y<c<c=Pj#:,>XeBlkk]kQ    ",
  "    kQk]lleB>Xl8l8l8l8l8l8ltlt5]5];9ldld:>j#:,:,6d>XeBlzk]kQ    ",
  "    kQk]lxeB>Xl8l8l8l8ltlt5]5]5]ldld:>j#:,:,6d,$,$>XeBlck]kQ    ",
  "    kQk]lveB>Xl8l8lplp:=lala;Y<c:65K5K:*:*,$,$lb:2=qeBlnk]kQ    ",
  "    kQk]lmeB>Xltltlt5]5];9ldld:>j#:,6d,$,$lb:2:2:#;QeBlMk]kQ    ",
  "    kQk]lNeB>Xlt5]5];9ldld:>j#:,:,6d,$lb:2:2:#:#:#;SeBlBk]kQ    ",
  "    kQk]lVeB>X5]5]<c<c:65K:*:*:*:*+v:2:2lC:#:#:2:>;SeBlZk]kQ    ",
  "    kQk]lAeB>X;9ld:>j#j#:,6d,$,$lb:2:2:#:#:#:,:<;`:5eBlSk]kQ    ",
  "    kQk]lDeB=wld:>j#:,6d,$,$lb:2:2:#:#:#,$;9;T:3;TlFeYlSk]kQ    ",
  "    kQk]lGeB=qj#:,:,6d,$lb:2:2lC:#:#:2;9eReReReRlHeRe!lSk]kQ    ",
  "    kQk]lJeB;Q:,6d,$,$:2:2lC:#:#:2:>;A;'e!:o,N,N#=lKeBlSk]kQ    ",
  "    kQk]lLeBlP,$,$lb:2:2:#:#:#:,:<;`:3:9eR,N,NlIlHlUeBlSk]kQ    ",
  "    kQk]lYeB+Wlb:2:2:#:#:#,$;9;T:3:9:5:3lT,nlRlElWlQg,lSk]kQ    ",
  "    kQk]l,eB:3:O;';`;`;`;':3+W;R:5=q=ql!eRl~l^l/l(l)g,lSk]kQ    ",
  "    kQk]l_l`eBeBeBeBeBeBeBeBeBeBeBeBeBl'eYl]eBeBg,g,l[lSk]kQ    ",
  "  O`l{lOk]k]k]k]k]k]k]k]k]k]k]k]k]k]k]k]k]k]k]k]k]k]k]k]l}l{*k@.",
  "  *7l|z.kQkQkQkQkQkQkQkQkQkQkQkQkQkQkQkQkQkQkQkQkQkQkQkQz.zX+g&h",
  "    *7@=*F:s*G*G*G*G*G*G*G*G*G*G*G*G*G*G*G*G*G*G*G*G:s*X*F*k+e  "
};
