/* XPM */
const char *xpm_tango_actions_edit_undo[] = {
  // Header (width height colors chars-per-pixel)
  "32 32 298 2",
  
  // Colors (code mode value)
  "+j c #00000001",
  "O` c #00000002",
  "@. c #00000003",
  "@X c #00000004",
  "+e c #00000005",
  "&h c #00000006",
  "@* c #00000007",
  "*! c #00000008",
  "*7 c #00000009",
  "+( c #0000000A",
  "+> c #0000000B",
  ":k c #0000000C",
  "+h c #0000000D",
  "+: c #0000000E",
  ":l c #0000000F",
  "@: c #00000010",
  "+B c #00000011",
  "+r c #00000012",
  "+K c #00000013",
  "@o c #00000014",
  "*' c #00000015",
  "+k c #00000016",
  "*k c #00000017",
  "*] c #00000018",
  "+w c #00000019",
  "@; c #0000001A",
  "+| c #0000001B",
  "@= c #0000001C",
  "*Q c #0000001D",
  "9b c #0000001E",
  "@- c #00000020",
  "+g c #00000021",
  "&E c #00000022",
  "+/ c #00000023",
  "n' c #0C0C0015",
  "nm c #0E0E0012",
  "n! c #19190014",
  "n] c #1F1F0019",
  "nY c #231C0024",
  "mo c #32280019",
  "nj c #3333000F",
  "n~ c #342E0027",
  "nM c #36280013",
  "nH c #3B3B000D",
  "nU c #3D310015",
  "n[ c #4139001F",
  "n` c #65510026",
  "n{ c #6D5A002A",
  "mX c #6E540027",
  "n^ c #7160003A",
  "nl c #7460001A",
  "n} c #81720033",
  "m. c #86720033",
  "n| c #8B740037",
  "na c #937B0015",
  "nJ c #9C810053",
  "nT c #A0840064",
  "n/ c #A188005D",
  "ni c #A37A0013",
  "nQ c #A4880052",
  "n_ c #A5890053",
  "nA c #A789005D",
  "05 c #AAAA0003",
  "b7 c #B6920007",
  "n) c #B69A006B",
  "vs c #B9A2000B",
  "n( c #BA9E0078",
  "nz c #BC9B0073",
  "nk c #BE9A009C",
  "nI c #BE9D0090",
  "nZ c #BF9E007A",
  "v( c #BF9F0008",
  "q> c #BF9F0010",
  "n0 c #C1A20021",
  "v/ c #C29E0015",
  "nG c #C2A1009E",
  "nR c #C2A40098",
  "ns c #C39F0065",
  "v8 c #C3A10026",
  "b' c #C3A1006F",
  "b$ c #C49D000D",
  "0~ c #C49F004A",
  "nh c #C4A00079",
  "04 c #C4A000FF",
  "bs c #C4A10049",
  "b/ c #C4A1005F",
  "b# c #C4A3005B",
  "nK c #C4A502B7",
  "nW c #C4A60096",
  "vN c #C59E0042",
  "bn c #C59F0035",
  "v5 c #C5A00083",
  "n@ c #C5A00084",
  "qW c #C5A1005C",
  "vL c #C5A10072",
  "nb c #C5A102F4",
  "bL c #C5A20016",
  "bm c #C5A2002C",
  "b| c #C5A20089",
  "v) c #C5A200A8",
  "n9 c #C5A200EF",
  "vH c #C5A200F6",
  "bM c #C5A203EA",
  "n- c #C5A303F8",
  "vt c #C5A304F8",
  "vl c #C5A305F8",
  "nn c #C69C0012",
  "n1 c #C69E003A",
  "qk c #C69F0028",
  "vy c #C6A1007D",
  "np c #C6A100C5",
  "n. c #C6A20087",
  "ba c #C6A2008E",
  "vd c #C6A200B3",
  "b% c #C6A200D2",
  "bK c #C6A200DF",
  "v9 c #C6A201E1",
  "ne c #C6A202F9",
  "b8 c #C6A3006F",
  "v7 c #C6A300BC",
  "nu c #C6A300C5",
  "bP c #C6A300D3",
  "n4 c #C6A300D8",
  "nN c #C6A300DB",
  "n< c #C6A300DC",
  "nq c #C6A300E0",
  "b] c #C6A300E5",
  "vJ c #C6A300E6",
  "n2 c #C6A301F0",
  "vx c #C6A302DB",
  "vq c #C6A304F9",
  "vK c #C6A400C6",
  "vG c #C6A406FB",
  "n# c #C6A407F7",
  "vz c #C79F0020",
  "v^ c #C7A300B1",
  "n& c #C7A300B7",
  "b6 c #C7A400BE",
  "vw c #C7A50BF4",
  "n* c #C8A305F5",
  "0^ c #C8A4000E",
  "v~ c #C8A506F5",
  "vB c #C8A60DF1",
  "bd c #C8A70EF4",
  "bT c #C9A80CFB",
  "b@ c #C9A812F3",
  "nX c #CBAA10F6",
  "bR c #CBAA11F5",
  "v6 c #CC99000F",
  "vu c #CCAE20F7",
  "b9 c #CDAE20F6",
  "bb c #CDAF23F7",
  "nE c #CDB20091",
  "vP c #CEAF24F7",
  "n; c #CFAF0CF5",
  "nP c #D0B202BB",
  "nS c #D1B005D5",
  "nC c #D2B108EE",
  "bE c #D2B41BF2",
  "b( c #D2B420F6",
  "b5 c #D2B629F7",
  "b[ c #D3B511F5",
  "b^ c #D4B71FF4",
  "qX c #D5AA0006",
  "nx c #D5B713F6",
  "nF c #D6B90AD7",
  "ng c #D6B910F8",
  "nd c #D6B911F5",
  "v_ c #D7BD43F7",
  "vf c #D8BD42F7",
  "nw c #D9BD1DFA",
  "bp c #D9BF31F8",
  "nr c #DABE1AF9",
  "nL c #DAC208AD",
  "bW c #DCC331F9",
  "v! c #DDC436F9",
  "bI c #DDC543F9",
  "b& c #E0CA5CF9",
  "n3 c #E2CA31FD",
  "b} c #E2CB3CFE",
  "b+ c #E2CB49FB",
  "v0 c #E2CD58FA",
  "ny c #E4CB20FF",
  "n5 c #E4CD2EFE",
  "vc c #E4D26CFA",
  "nB c #E5CB16EF",
  "n% c #E7D240FF",
  "bN c #E9D76DFC",
  "nD c #EAD314C7",
  "nv c #EAD31FFF",
  "n= c #EAD649FF",
  "n, c #EBD740FF",
  "vQ c #EBD857FF",
  "bJ c #EBD962FE",
  "bQ c #EBDA5DFF",
  "n8 c #ECD835FF",
  "ve c #ECDD7BFE",
  "b1 c #EDD400FF",
  "bx c #EDD401FF",
  "b~ c #EDD402FF",
  "bG c #EDD403FF",
  "n> c #EDD506FF",
  "bz c #EDD509FF",
  "bZ c #EDD50AFF",
  "by c #EDD60EFF",
  "n$ c #EDDA4AFF",
  "n7 c #EED610FF",
  "b2 c #EED611FF",
  "bc c #EED713FF",
  "b< c #EED715FF",
  "nV c #EED71BEC",
  "bu c #EED81AFF",
  "n6 c #EED81CFF",
  "nc c #EFD81DFF",
  "bU c #EFD920FF",
  "nf c #EFD921FF",
  "nt c #EFD922FF",
  "bX c #EFDA26FF",
  "bF c #EFDA29FF",
  "b. c #EFDC33FF",
  "no c #EFDE62FF",
  "vV c #EFE191FE",
  "bf c #EFE287FE",
  "bH c #F0DB2DFF",
  "bo c #F0DC32FF",
  "b_ c #F0DC34FF",
  "b! c #F0DC35FF",
  "bC c #F1DE40FF",
  "nO c #F1DF44FF",
  "b{ c #F1DF5DFF",
  "b4 c #F1E277FF",
  "vW c #F1E47AFF",
  "b3 c #F2DF47FF",
  "v| c #F2E04BFF",
  "bl c #F2E04CFF",
  "n: c #F2E04DFF",
  "bt c #F2E150FF",
  "bv c #F2E572FF",
  "vi c #F2E897FF",
  "b, c #F3E255FF",
  "bD c #F3E256FF",
  "v} c #F3E25AFF",
  "bk c #F3E35AFF",
  "vj c #F3E35BFF",
  "bj c #F3E35CFF",
  "bV c #F3E35EFF",
  "vm c #F3E45FFF",
  "bh c #F3E460FF",
  "vD c #F3E461FF",
  "br c #F3E462FF",
  "bw c #F3E463FF",
  "b) c #F3E574FF",
  "b0 c #F3E99AFF",
  "be c #F4E464FF",
  "vn c #F4E565FF",
  "b> c #F4E566FF",
  "vS c #F4E568FF",
  "b: c #F4E56AFF",
  "b- c #F4E66BFF",
  "v{ c #F4E66CFF",
  "b; c #F4E66DFF",
  "n+ c #F4E66EFF",
  "vA c #F4E66FFF",
  "bS c #F4E670FF",
  "v[ c #F4E771FF",
  "bi c #F4E775FF",
  "b= c #F4E777FF",
  "bO c #F4E778FF",
  "vI c #F4EAA6FF",
  "v] c #F5E775FF",
  "vT c #F5E776FF",
  "bA c #F5E779FF",
  "b` c #F5E878FF",
  "vb c #F5E87BFF",
  "vZ c #F5E87CFF",
  "vY c #F5E87DFF",
  "bY c #F5E97DFF",
  "vh c #F5E97FFF",
  "vE c #F5EA8DFF",
  "vp c #F6EA87FF",
  "bq c #F6EB8BFF",
  "v' c #F6EB8DFF",
  "vg c #F6EEA9FF",
  "bg c #F7EC95FF",
  "bB c #F7EE9CFF",
  "v` c #F7EEACFF",
  "vR c #F8EE9DFF",
  "vU c #F8EFA3FF",
  "vr c #F8EFA5FF",
  "va c #F8EFA6FF",
  "vk c #F8F0A8FF",
  "vM c #F8F0A9FF",
  "vF c #F8F0AAFF",
  "b* c #F8F0ABFF",
  "vv c #F8F0AFFF",
  "vC c #F8F1AEFF",
  "v4 c #FFFF0001",
  "   c none",
  
  // Image data
  "                                                                ",
  "                            v4v5v6                              ",
  "                          0^v704q>                              ",
  "                        v8v9v0vqq>                              ",
  "                      0~vwvevrvtq>                              ",
  "                    vyvuvivpvavtq>                              ",
  "                vsvdvfvgvhvjvkvlq>                              ",
  "              vzvxvcvvvbvnvmvMvlq>                              ",
  "            vNvBvVvCvZvAvSvDvFvGvHvJvKvLqk                      ",
  "          vLvPvIvUvYvTvAvSvDvFvRvEvWvQv!v~v^v/                  ",
  "      v(v)v_v`v'v]v]v[v{vnvmv}v|b.bXbovjbOb+b@b#                ",
  "    b$b%b&b*b=b-b;b;b:b>vDb,b<b1b1b1b1b1b2b3b4b5b6b7            ",
  "      b8b9b0bqbwbebebrvmbtbyb1b1b1b1b1b1b1b1bubibpba            ",
  "        bsbdbfbgbhbjbkblbzb1bxb1b1b1b1b1b1b1b1bcbvbbbn          ",
  "          bmbMbNbBbVbCbZb1b1vZbAbSvSbDbFbGb1b1b1bHbJbKqX        ",
  "            bLbPbIb=bUb1b1b1bYbTbRbEbWbQv[b!b1b1b~vDb^b/        ",
  "              v(v^b(b)b_b1b1b`vtbn0~b'b]b[b{bCb~b1bHb}b|        ",
  "                v4n.nXnonOb~n+vtq>    b7n@n#n$bHb1bun%n&        ",
  "                    qWn*n=blbwn-q>        vLn;n:n>byn,n<        ",
  "                      n1n2n3bkn-q>        05n4n5n6n7n8n9        ",
  "                        n0nqnwneq>          vLnrntbunynu        ",
  "                  +jO`@.@.ninp04na@X@X@X@.O`nsndbUnfngnh        ",
  "          +jO`@X+e&h*!*7*7+(njnknl+>+(+(*7*!nznxncnvnbnn        ",
  "      +j@.+e@**!+(:k+h+::l@:+B+Bnm+B+B@::lnMnNnBnVnCnZ@XO`      ",
  "    O`@X&h*!+(:k+:@:+r+K*'+k*k*]*]*k*k+k@onAnSnDnFnGnH@*+e@.+j  ",
  "  +j@X&h*!+(+h:l+B+K*'*]@;+|*Q9b9b9b@=@;nJnKnLnPnInU+>*7@*+eO`  ",
  "  O`@X&h*7+>+h@:+r@o*k+w+|9b@-&E+/+gnYnTnRnEnWnQn!+::k+(@*+e@.  ",
  "  +j@.&h*!+(:k:l+B+K*'*k+w@;@=*Qn~n^n/n(n)n_n`+r@:+h+>*7@*@X+j  ",
  "    +j@.&h*!+(:k+h:l+B+rn'n]n[n{n}n|m.mXmo+r@:+::k+>*7&h@X+j    ",
  "        O`@X&h@**7+>:k+h+::l@:@:@:@::l:l+:+h+>+(*!@*+e+j        ",
  "              +j@.+e&h@**!*7*7*7+(*7*7*!*!@*+e@.+j              ",
  "                        +j+j+jO`+j+j+j+j                        "
};
