/* XPM */
const char *xpm_tango_actions_edit_redo[] = {
  // Header (width height colors chars-per-pixel)
  "32 32 289 2",
  
  // Colors (code mode value)
  "+j c #00000001",
  "O` c #00000002",
  "@. c #00000003",
  "@X c #00000004",
  "+e c #00000005",
  "&h c #00000006",
  "@* c #00000007",
  "*! c #00000008",
  "*7 c #00000009",
  "+( c #0000000A",
  "+> c #0000000B",
  ":k c #0000000C",
  "+h c #0000000D",
  "+: c #0000000E",
  ":l c #0000000F",
  "@: c #00000010",
  "+B c #00000011",
  "+r c #00000012",
  "+K c #00000013",
  "@o c #00000014",
  "*' c #00000015",
  "+k c #00000016",
  "*k c #00000017",
  "*] c #00000018",
  "+w c #00000019",
  "@; c #0000001A",
  "+| c #0000001B",
  "@= c #0000001C",
  "*Q c #0000001D",
  "9b c #0000001E",
  "&V c #0000001F",
  "@- c #00000020",
  "+g c #00000021",
  "&E c #00000022",
  "+/ c #00000023",
  "cT c #05090017",
  "cL c #050A0114",
  "cD c #0B0D001F",
  "cl c #0C160014",
  "cV c #1217001E",
  "cF c #13230318",
  "cz c #1419000B",
  "cn c #151D0018",
  "cK c #182C0421",
  "cP c #1E37051A",
  "cd c #23460214",
  "cY c #2443071F",
  "cI c #315A0923",
  "cU c #345F0926",
  "ca c #3C670216",
  "cr c #3E7B0413",
  "cw c #498F0410",
  "cC c #4B84122E",
  "cs c #4C9605B0",
  "cS c #4E8C0D44",
  "zO c #4E9A0602",
  "zF c #4E9A0605",
  "zG c #4E9A0606",
  "z# c #4E9A0609",
  "zi c #4E9A060A",
  "z) c #4E9A060D",
  "x& c #4E9A060E",
  "z* c #4E9A0614",
  "c7 c #4E9A0616",
  "z_ c #4E9A0618",
  "c. c #4E9A061B",
  "c> c #4E9A061E",
  "c4 c #4E9A0620",
  "z: c #4E9A0623",
  "c@ c #4E9A0628",
  "xP c #4E9A0634",
  "z2 c #4E9A0635",
  "x^ c #4E9A0639",
  "zc c #4E9A0640",
  "x7 c #4E9A0643",
  "z9 c #4E9A064C",
  "xS c #4E9A064F",
  "zp c #4E9A0650",
  "xL c #4E9A065B",
  "xk c #4E9A065F",
  "xl c #4E9A0662",
  "zo c #4E9A0690",
  "z+ c #4E9A06FA",
  "z$ c #4E9A06FB",
  "zu c #4E9B0668",
  "xr c #4E9B0672",
  "xD c #4E9B068D",
  "cJ c #4F8A1540",
  "z3 c #4F9A07FB",
  "c= c #4F9B067F",
  "xK c #4F9B069C",
  "x6 c #4F9C0686",
  "zx c #4F9C068A",
  "zH c #4F9C0692",
  "za c #4F9C06A8",
  "zD c #4F9C06A9",
  "z( c #4F9C06C4",
  "ce c #4F9C06CD",
  "x% c #4F9C06D8",
  "c6 c #4F9C06D9",
  "z` c #4F9C06DB",
  "c: c #4F9C06E3",
  "xt c #4F9C06E4",
  "z; c #4F9C06E5",
  "zv c #4F9C06EB",
  "c# c #4F9C06EC",
  "zd c #4F9C06F2",
  "c+ c #4F9C07EB",
  "x` c #4F9C07F0",
  "z1 c #4F9C08EF",
  "z0 c #509B08FB",
  "x| c #509B09F6",
  "xI c #509B09FC",
  "xE c #509C08F4",
  "x* c #509D06B2",
  "z@ c #509D06BB",
  "z& c #509D06D2",
  "x' c #509D07D8",
  "zs c #509D07DC",
  "xW c #509E07B6",
  "zf c #519B0AFF",
  "z8 c #519C0AF4",
  "c, c #519D06C0",
  "xA c #519D0AF5",
  "xj c #539F0BF5",
  "cG c #558C1E37",
  "zy c #55A00EF5",
  "ck c #57870456",
  "c8 c #58950462",
  "x5 c #59A311F4",
  "cq c #5AA013F1",
  "cB c #5B8A0853",
  "zz c #5BA414F4",
  "xN c #5CA21AFD",
  "xJ c #5CA417F6",
  "zS c #5EA917F4",
  "zJ c #5FA51EF6",
  "c3 c #5FA61DF5",
  "ct c #61900310",
  "cf c #6494064E",
  "cH c #65AC2159",
  "cm c #66B0145A",
  "z/ c #66B11FF5",
  "cb c #68A50B9E",
  "cy c #69A710C8",
  "zb c #69AF25F2",
  "cp c #6BA71CE0",
  "x8 c #6BAD2DF7",
  "c5 c #6BB623F9",
  "cx c #6CA7116B",
  "xM c #6CAF2DF3",
  "x$ c #6CB725F8",
  "xz c #71B531F6",
  "x+ c #73D216FF",
  "c; c #74BD2CFB",
  "xY c #74D217FF",
  "x( c #75D219FF",
  "cA c #79C52F8F",
  "z! c #79D420FF",
  "x@ c #7AD422FF",
  "cO c #7CC336FC",
  "xO c #7CD526FF",
  "z% c #7DBD40F9",
  "z~ c #7DD528FF",
  "c* c #7FBE44F6",
  "xm c #80BD43F5",
  "x_ c #80C83AFD",
  "cj c #81C532F2",
  "cN c #82C934BC",
  "c9 c #83C43BFA",
  "cZ c #84CA4189",
  "xR c #84CC3FFF",
  "x3 c #85D835FF",
  "cg c #86CA36F5",
  "z' c #87C14EF8",
  "x= c #87C54BFC",
  "xw c #87D838FF",
  "z- c #88C74BFC",
  "xZ c #88CF42FF",
  "xU c #88D93AFF",
  "cM c #8AD242C1",
  "xg c #8AD93CFF",
  "xh c #8BD246FF",
  "xC c #8CDA40FF",
  "xT c #8DDA42FF",
  "xe c #8ED549FF",
  "cc c #8FD445EF",
  "x2 c #8FDB45FF",
  "zn c #90CE55FE",
  "x4 c #90D74CFF",
  "x) c #90DB46FF",
  "co c #91DB48FF",
  "xf c #91DB49FF",
  "z< c #92CE56FD",
  "cv c #92D84BF4",
  "xF c #93CD5BFE",
  "c- c #93DB4DFF",
  "zQ c #93DC4CFF",
  "z^ c #94DB4FFF",
  "c< c #95D45AFF",
  "x# c #95DC50FF",
  "cX c #97DC55FF",
  "zC c #97DD53FF",
  "x~ c #98CF63FC",
  "zj c #99DE55FF",
  "z7 c #9AD55FFF",
  "ze c #9BDE58FF",
  "zW c #9BDF59FF",
  "xn c #9CD169FE",
  "xo c #9CDF5AFF",
  "z5 c #9CDF5BFF",
  "ch c #9DDF5CFF",
  "zw c #9DDF5DFF",
  "zE c #9EE05FFF",
  "cu c #9FDE60FF",
  "zZ c #9FDF5FFF",
  "zh c #9FE060FF",
  "zt c #A0DA67FF",
  "x1 c #A0E060FF",
  "xV c #A0E061FF",
  "xH c #A1D76CFF",
  "zV c #A1E062FF",
  "c1 c #A1E063FF",
  "c% c #A1E064FF",
  "zR c #A1E163FF",
  "x/ c #A2DF68FF",
  "c0 c #A2E064FF",
  "xX c #A2E164FF",
  "x< c #A2E165FF",
  "ci c #A2E166FF",
  "zm c #A3DB6CFF",
  "zA c #A3DF69FF",
  "x[ c #A3E167FF",
  "zk c #A4E168FF",
  "zT c #A4E269FF",
  "xQ c #A5D874FF",
  "zK c #A5DA71FF",
  "zl c #A5DD6CFF",
  "x. c #A5E26AFF",
  "c$ c #A6DE70FF",
  "x, c #A6E26AFF",
  "xG c #A7E26CFF",
  "x{ c #A7E36DFF",
  "z| c #A8E36FFF",
  "x! c #A8E370FF",
  "zr c #A9E370FF",
  "x] c #AADD79FF",
  "zY c #AAE372FF",
  "xc c #ABE474FF",
  "z6 c #ACE475FF",
  "c2 c #ADE476FF",
  "xv c #ADE478FF",
  "x} c #AEE17DFF",
  "c& c #AEE478FF",
  "xi c #AEE578FF",
  "z} c #AEE579FF",
  "xy c #AFDE82FF",
  "zM c #AFE27DFF",
  "z, c #AFE47AFF",
  "x> c #AFE57AFF",
  "zU c #AFE57BFF",
  "xp c #B0E57CFF",
  "xq c #B1E67EFF",
  "xa c #B2E57FFF",
  "z= c #B2E582FF",
  "z{ c #B2E67FFF",
  "xu c #B2E680FF",
  "z> c #B4E685FF",
  "x0 c #B4E782FF",
  "zI c #B4E783FF",
  "x; c #B5E785FF",
  "z4 c #B6E689FF",
  "x: c #B7E787FF",
  "zq c #B8E78BFF",
  "zg c #B9E78DFF",
  "zN c #B9E88BFF",
  "xB c #BAE88FFF",
  "xx c #BAE98DFF",
  "zP c #BBE88EFF",
  "zB c #BBE98FFF",
  "xs c #BCE990FF",
  "xd c #BCE991FF",
  "z[ c #BDE992FF",
  "x9 c #BDE993FF",
  "xb c #C0E898FF",
  "z] c #C0E999FF",
  "x- c #C2EB9AFF",
  "zL c #C4EC9EFF",
  "   c none",
  
  // Image data
  "                                                                ",
  "                                zozO                            ",
  "                                z+z@z#                          ",
  "                                z$z%z&z*                        ",
  "                                z$z=z-z;z:                      ",
  "                                z$z>z,z<z1z2                    ",
  "                                z3z4z5z6z7z8z9                  ",
  "                                z0zqzwzezrztzyzu                ",
  "                      zizpzazszdzfzgzhz5zjzkzlzzzx              ",
  "                    zczvzbznzmzMzNzBzVzwzezCzZzAzSzDzF          ",
  "                zGzHzJzKzLzPzIzUzYzTzRzEzWzQz!z~z^z/z(z)        ",
  "              z_z`z'z]z[zIz{z}z6z|x.xXzhxoxOx+x+x@x#x$x%x&      ",
  "              x*x=x-x;x:x;z{x>z6zrx,x<x1x2x+x+x+x3x4x5x6        ",
  "            x7x8x9z{z{zIx0xqz}z6z|x.xXzhz!x+x+xwxezyxr          ",
  "          zGxtxyxuxixpxqxazNxsxsxsxdzRxfx+x+xgxhxjxk            ",
  "          xlxzxxzrxcxvzBxbxnxmxMxNxBxVxOx+xCxZxAxS              ",
  "          xDxFz}xGzYzBxHxJxKxLxPxIzgxUxYxTxRxEzc                ",
  "          xWxQx!zkx:x~xtx^      z0x/x(x)x_x`xP                  ",
  "          x'x]x[x{x}x|c.        z$cXcocOc+c@                    ",
  "          c#c$c%c&c*c=          z$c-c;c:c>                      ",
  "          c,c<c1c2c3c4          z$c5c6c7                        ",
  "          c8c9c0x!cqcwO`@.@X@X@Xz$cecr@X@.@.O`+j                ",
  "          ctcycucicpca*!*7+(+(+>cscd+>+(*7*7@*&h+e@XO`+j        ",
  "        O`@Xcfcgchcjck+::l@:+B+Bcl+B+B@::l+:+h:k+(*!@*+e@.+j    ",
  "    +j@.+e@*czcxcccvcbcn@o+k*k*k*]*]*k+k*'+K+r@:+::k+(*!&h@XO`  ",
  "    O`+e@**7:k+:cmcMcNcBcV+|@=9b9b9b*Q+|+w*k*'+K+B:l+h+(*!&h@X+j",
  "  +j@.+e*!+(:k:l+BcCcZcAcScD&V+g+/&E@-9b+|+w*k@o+r@:+h+>*7&h@X+j",
  "    O`@X@**7+>+h@:+rcFcGcHcJcK@=*Q*Q@=@;+w*k*'+K+B+::k+(*!&h@.  ",
  "      O`+e@**7+>+h+:@:+rcLcPcIcUcYcT+k*'@o+r+B:l+h:k+(*!&hO`    ",
  "        +j@.+e@**!+(+>+h+::l:l@:@:@:@::l+:+h:k+>*7@*&h@.        ",
  "              +jO`@X&h@**!*!*7*7+(*7*7*7*!@*&h@XO`+j            ",
  "                          +j+j+jO`+j+j+j                        "
};
