/* XPM */
const char *xpm_tango_actions_edit_select_all[] = {
  // Header (width height colors chars-per-pixel)
  "32 32 89 2",
  
  // Colors (code mode value)
  "O` c #00000002",
  "@* c #00000007",
  "*! c #00000008",
  "*7 c #00000009",
  "+: c #0000000E",
  ":l c #0000000F",
  "*' c #00000015",
  "+| c #0000001B",
  "*Q c #0000001D",
  "&E c #00000022",
  "+/ c #00000023",
  "+J c #00000027",
  "eg c #0000002A",
  "*F c #0000002B",
  "&R c #0000002F",
  "%J c #000000FF",
  "v3 c #09090939",
  "v< c #24242438",
  "v> c #61616115",
  "c] c #859CB4FF",
  "v2 c #878985EC",
  "v1 c #878A85E0",
  "c! c #8888880F",
  "eB c #888A85FF",
  "rf c #8B8D88F9",
  "v, c #8B8D88FA",
  "cE c #8B8D89E5",
  "c^ c #8C8E88F9",
  "cQ c #8C8E89F9",
  "cR c #8D8F8BD9",
  "cW c #AAAAAA03",
  "v& c #ACC3DAFF",
  "v$ c #ACC3DBFF",
  "v# c #ADC4DCFF",
  "fS c #AEC5DCFF",
  "v@ c #AEC5DDFF",
  "v% c #AFC6DDFF",
  "vO c #AFC6DEFF",
  "v+ c #B0C7DEFF",
  "vo c #B0C7DFFF",
  "vX c #B1C8DFFF",
  "v. c #B1C8E0FF",
  "c| c #B2C9E0FF",
  "c{ c #B2C9E1FF",
  "c[ c #B3CAE1FF",
  "c' c #B3CAE2FF",
  "c_ c #B4CBE2FF",
  "c) c #B4CBE3FF",
  "c( c #B5CCE3FF",
  "v: c #E2E2DEFF",
  "v; c #E2E2DFFF",
  "v- c #E3E3DFFF",
  "v= c #E3E3E0FF",
  "%e c #E3E3E1FF",
  "v* c #E4E4E1FF",
  "%- c #E4E4E2FF",
  "%h c #E5E5E3FF",
  "#* c #E5E5E4FF",
  "%= c #E6E6E4FF",
  "6A c #E6E6E5FF",
  ";b c #E6E6E6FF",
  "&. c #E7E7E6FF",
  ";G c #E7E7E7FF",
  ":# c #E8E8E8FF",
  ":2 c #E9E9E9FF",
  ",$ c #EAEAEAFF",
  "6d c #EBEBEAFF",
  ":, c #EBEBEBFF",
  "j# c #ECECEBFF",
  ":> c #ECECECFF",
  "ld c #EDEDECFF",
  ";9 c #EDEDEDFF",
  "5] c #EEEEEDFF",
  ":< c #EEEEEEFF",
  "lt c #EFEFEEFF",
  ";A c #EFEFEFFF",
  "l8 c #F0F0EFFF",
  ";T c #F0F0F0FF",
  ",0 c #F1F1F0FF",
  ";` c #F1F1F1FF",
  "c} c #F2F2F1FF",
  "55 c #F3F3F2FF",
  "hE c #F4F4F3FF",
  "c` c #F5F5F4FF",
  "c/ c #F6F6F5FF",
  "c~ c #F7F7F6FF",
  ",3 c #F8F8F7FF",
  ">X c #FFFFFFFF",
  "   c none",
  
  // Image data
  "                                                                ",
  "      cReBeBeBeBeBeBeBeBeBeBeBeBeBeBeBeBeBeBeBeBeBeBeBeBcEcW    ",
  "      eB>X>X>X>X>X>X>X>X>X>X>X>X>X>X>X>X>X>X>X>X>X>X>X>XcQc!    ",
  "      eB>X,3,3,3,3,3,3,3,3,3,3,3,3,3,3,3,3,3,3,3,3,3c~>Xc^c!    ",
  "      eB>X,3,3,3,3,3,3,3,3,3,3,3,3,3,3,3,3,3,3,3,3c~c/>Xrfc!    ",
  "      eB>X,3c(c(c(c(c(c(c(c(c(c(c(c(c(c(c(c(c(c)c)c_c`>Xrfc!    ",
  "      eB>X,3c(c(c(c(c(c(c(c(c(c(c(c(c(c(c(c(c)c_c'c'hE>Xrfc!    ",
  "      eB>X,3c(c]c]c]c]c]c]c]c(c]c]c]c]c]c]c]c]c]c'c[55>Xrfc!    ",
  "      eB>X,3c(c]c]c]c]c]c]c]c(c(c(c(c)c)c_c'c'c[c{c{c}>Xrfc!    ",
  "      eB>X,3c(c]c]c]c]c]c]c]c(c(c(c)c_c_c'c'c[c{c{c|,0>Xrfc!    ",
  "      eB>X,3c(c]c]c]c]c]c]c]c(c)c)c_c'c'c[c{c{c|v.,0l8>Xrfc!    ",
  "      eB>X,3c(c]c]c]c]c]c]c]c)c]c]c]c]c]c]c]c]v.v.;Alt>Xrfc!    ",
  "      eB>X,3c(c]c]c]c]c]c]c]c_c'c'c[c{c{c|v.v.vXvo:<5]>Xrfc!    ",
  "      eB>X,3c(c(c(c(c(c)c_c_c'c[c{c{c|v.v.v.vovovo;9ld>Xrfc!    ",
  "      eB>X,3c(c(c(c)c)c_c'c'c[c{c{c|v.v.vXvovo5];9:>j#>Xrfc!    ",
  "      eB>X,3c(c]c]c]c]c]c]c]c]c]c]c]c]c]c]vovOld:>:,6d>Xrfc!    ",
  "      eB>X,3c)c)c_c'c'c[c{c{c|v.v.vXvovov+vOvOj#:,,$:2>Xrfc!    ",
  "      eB>Xc~c_c'c'c[c{c{c|v.v.vXvovov+vOvOvOv@v@v@v#:#>Xrfc!    ",
  "      eB>Xc/c'c'c[c{c{c|v.v.vXvovovOvOvOv@v@v@v#v#v#;G>Xrfc!    ",
  "      eB>Xc`c[c]c]c]c]c]c]c]c]c]c]c]c]c]c]c]c]c]v#v$&.>Xrfc!    ",
  "      eB>XhEc{c{c|v.v.vovovovOvOvOv@v@v@v#v#v#v$v$v$6A>Xrfc!    ",
  "      eB>X55c|v.v.vXvovov+vOvOv%v@v@fSv#%Jv#%Jv$v$v&%=>Xrfc!    ",
  "      eB>X;`v.v.vovovovOvOvOv@v@v@v#v#v#v$%J&.6A6A#*%h>Xrfc!    ",
  "      eB>X;TvXc]c]c]c]c]c]c]c]c]c]c]c]v$v$%J6A%=#*%h%->Xrfc!    ",
  "      eB>X;AvovovOvOvOv@v@v@v#v#v#v$v$v$v&%J#*%h%h%-v*>Xrfc!    ",
  "      eB>X:<v+vOvOv%v@v@v#v#v#v$v$v$v&v&v&%J%h%-%-v*v=>Xrfc!    ",
  "      eB>X;9ld:>:,,$,$:2:#:#;G&.;b6A%=#*%J%h%Jv*%ev=v->Xrfc!    ",
  "      eB>X:>:,:,,$:2:2:#;G;G&.6A6A#*%h%h%-%-v*v=v=v;v:>Xrfc!    ",
  "      eB>X:,,$,$:2:#:#;G&.;b6A%=#*%h%h%-v*%ev=v-v;v:v:>Xrfv>    ",
  "  *7+|eB>X>X>X>X>X>X>X>X>X>X>X>X>X>X>X>X>X>X>X>X>X>X>X>Xv,v<+|*!",
  "  :l+/v1eBeBeBeBeBeBeBeBeBeBeBeBeBeBeBeBeBeBeBeBeBeBeBeBv2v3+/*!",
  "    @**'&E*F&R&R&R&R&R&R&R&R&R&R&R&R&R&R&R&R&R&R&R&Reg+J*Q+:O`  "
};
