/* XPM */
const char *xpm_tango_actions_edit_find[] = {
  // Header (width height colors chars-per-pixel)
  "32 32 375 2",
  
  // Colors (code mode value)
  "O` c #00000002",
  "@. c #00000003",
  "@* c #00000007",
  "+> c #0000000B",
  "+h c #0000000D",
  "+: c #0000000E",
  ":l c #0000000F",
  "*' c #00000015",
  "+k c #00000016",
  "*k c #00000017",
  "*] c #00000018",
  "@; c #0000001A",
  "@= c #0000001C",
  "*Q c #0000001D",
  "&V c #0000001F",
  "&E c #00000022",
  "+/ c #00000023",
  "*` c #00000024",
  "+N c #00000026",
  ":d c #00000030",
  "*6 c #00000040",
  ":f c #00000047",
  ":g c #0000004A",
  "*W c #0000004D",
  "*D c #00000050",
  "km c #00000053",
  "kD c #00000054",
  "*j c #00000055",
  "kM c #00000057",
  "kN c #0000005A",
  "kB c #0000005C",
  "kS c #0000005D",
  "kV c #0000005F",
  "kC c #00000060",
  "kZ c #00000061",
  "kA c #00000062",
  "kF c #21232174",
  "kw c #3467A5FF",
  "3p c #3566A4FF",
  ":y c #37373778",
  "jP c #3B6BA6FF",
  "jJ c #4171ABFF",
  "k5 c #426FA8FF",
  "jy c #4371ABFF",
  "j` c #4372ACFF",
  "jj c #4472AAFF",
  "kK c #48504820",
  "k, c #4975ACFF",
  "j! c #4A76ACFF",
  "f4 c #4A77ACFF",
  "kv c #4B4B4BFF",
  "j0 c #4B78AFFF",
  ":- c #4C4C4CFF",
  "kc c #4D4D4DFF",
  "kG c #4D4E4CCD",
  "d| c #4D78AEFF",
  "k# c #4D78AFFF",
  "k; c #4D79B0FF",
  ":+ c #4E4E4EFF",
  "45 c #4F7BB1FF",
  ";] c #505050FF",
  ";E c #515151FF",
  "kr c #515250FF",
  "j~ c #517BB0FF",
  "kx c #525252FF",
  "kJ c #52544FB7",
  "kg c #525C5219",
  ":r c #535353F1",
  ";D c #535353FF",
  "kn c #535652B5",
  ":e c #545454FF",
  "kH c #545652F5",
  "<* c #5555550C",
  "6[ c #555555FF",
  "kj c #555753AD",
  "ku c #555753B2",
  "kf c #555753D2",
  "kz c #555753F1",
  "6] c #565656FF",
  "k+ c #567EB1FF",
  ":u c #575757F6",
  ":w c #575757FF",
  "jZ c #577FB3FF",
  ":i c #585858FF",
  "f. c #5880B2FF",
  ">' c #595959FF",
  ":q c #5A5A5AFF",
  "5| c #5B5B5BFF",
  "5{ c #5C5C5CFF",
  "f[ c #5C84B6FF",
  "5[ c #5D5D5DFF",
  ":0 c #5E5E5EFF",
  "6X c #5E605DFF",
  "6_ c #60606052",
  "j] c #6088B7FF",
  ":8 c #616161FF",
  "k< c #6288B5FF",
  "6` c #636363EF",
  ":4 c #646464FF",
  "6( c #656565FF",
  "6) c #666666F2",
  ":; c #686868FF",
  "6/ c #696969FF",
  ":@ c #6B6B6BFF",
  ">( c #6C6C6CFF",
  ";[ c #6E6E6EFF",
  "5/ c #6E6F6CFF",
  "jB c #6F92BDFF",
  "6^ c #707070FF",
  "5< c #70716DFF",
  "k8 c #717370FF",
  ";W c #727272FF",
  "4I c #737570FF",
  ">H c #747474FF",
  ";F c #757575FF",
  ",k c #777777FF",
  "5q c #777974FF",
  ";v c #787878FF",
  "k4 c #7897BAFF",
  "jc c #799CC6FF",
  "=1 c #7B7B7BFF",
  "=< c #7E7E7EFF",
  "5D c #7F817DFF",
  "@> c #80808002",
  "5e c #80817FFF",
  ";@ c #818181FF",
  ",x c #828282FF",
  "5g c #82847FFF",
  "jq c #83A4CBFF",
  "-^ c #848484FF",
  ",! c #868686FF",
  "-K c #878787FF",
  "kd c #878985FF",
  "kO c #87A2C2FF",
  "jN c #87AAD0FF",
  "-Y c #898989FF",
  "-v c #8A8A8AFF",
  "5@ c #8A8C87FF",
  "k$ c #8BABCFFF",
  "j2 c #8C8E8AFF",
  "-i c #8D8D8DFF",
  "3V c #8D8F8AFF",
  "jV c #8D908AFF",
  "jt c #8DABCFFF",
  "fo c #8E8F8BFF",
  "fO c #8E908BFF",
  "-, c #8F8F8FFF",
  "ji c #8F918CFF",
  ",Q c #909090FF",
  "kh c #90918EFF",
  "5k c #90928FFF",
  "k1 c #90A8C3FF",
  "=[ c #919191FF",
  "h@ c #929490FF",
  "j' c #92A8C0FF",
  "=L c #939393FF",
  "ka c #939490FF",
  "=v c #949494FF",
  "jC c #949591FF",
  "j8 c #949691FF",
  "5h c #949692FF",
  "j7 c #94ACC9FF",
  "=& c #95959552",
  "k0 c #969893FF",
  "jQ c #96AFCAFF",
  ",F c #979797FF",
  "4d c #979994FF",
  "ky c #979995FF",
  "j^ c #97B6D5FF",
  "=0 c #989898EF",
  "j3 c #989996FF",
  "k> c #999A97FF",
  "ke c #99B0CDFF",
  "=* c #9A9A9AF2",
  "kp c #9A9B97FF",
  "j[ c #9AB2CCFF",
  ",D c #9B9B9BFF",
  "t$ c #9B9D99FF",
  "4D c #9BB1C9FF",
  ">K c #9D9D9DFF",
  "5w c #9E9F9CFF",
  "4* c #9EA09AFF",
  "gE c #9EA09CFF",
  "k3 c #9EB0C4FF",
  ",H c #9F9F9FFF",
  "5, c #A0A0A0FF",
  "kk c #A1A2A0FF",
  "31 c #A2A3A0FF",
  "jh c #A2BBD5FF",
  "4C c #A3A6A1FF",
  "k2 c #A3B5C6FF",
  "ko c #A3B5C7FF",
  "jH c #A3BFDDFF",
  "=C c #A4A4A4FF",
  "j5 c #A4A6A2FF",
  "ja c #A4BBD6FF",
  "47 c #A5A8A3FF",
  "jx c #A5B8CDFF",
  "jI c #A5BCD5FF",
  "-6 c #A6A6A6FF",
  "5G c #A6A9A4FF",
  "j{ c #A6BACFFF",
  "3A c #A7A9A4FF",
  "f} c #A8C2DCFF",
  "4} c #A9A9A7FF",
  "j4 c #A9AAA8FF",
  "56 c #A9ABA7FF",
  "4Q c #AAABA8FF",
  "jz c #AAACA8FF",
  "kX c #AAB8C6FF",
  "j} c #AABACCFF",
  "fX c #AABCD0FF",
  "kb c #ABADA8FF",
  "35 c #ABADA9FF",
  "j| c #ABB9C7FF",
  "k. c #AEBAC6FF",
  "kq c #AEC0D3FF",
  "jG c #AEC7E0FF",
  "jl c #B0B1AEFF",
  "j9 c #B0B1AFFF",
  ":& c #B1B1B1FF",
  "3w c #B2B2B1FF",
  "<# c #B2B2B2FF",
  "j_ c #B2C9E2FF",
  "6o c #B3B5B2FF",
  "k% c #B3C9E1FF",
  ";8 c #B4B4B4FF",
  "ki c #B4B6B3FF",
  "jW c #B4C4D5FF",
  "k- c #B5CBE0FF",
  "=p c #B6B6B6FF",
  "jM c #B6CCE4FF",
  ",S c #B7B7B7FF",
  "5F c #B8B8B7FF",
  "5j c #B9BAB9FF",
  "50 c #B9BBB6FF",
  ",G c #BABABAFF",
  "j6 c #BABBBAFF",
  "kt c #BBBBBAFF",
  "5> c #BBBBBBFF",
  ",A c #BCBCBCFF",
  "j) c #BCD0E4FF",
  "<W c #BDBDBDFF",
  "<1 c #BEBEBEFF",
  "k9 c #BEBFBEFF",
  "30 c #BEC1BCFF",
  ";= c #BFBFBFFF",
  ";g c #C0C0C0FF",
  "5( c #C0C1BFFF",
  "k& c #C0D2E5FF",
  ";U c #C1C1C1FF",
  "k6 c #C1CDDAFF",
  ";Z c #C2C2C2FF",
  ":* c #C3C3C3FF",
  "j( c #C4D5E6FF",
  "jw c #C4D6E8FF",
  "jr c #C4D6E9FF",
  "k: c #C7D0D7FF",
  "ks c #C9CAC8FF",
  "4{ c #CACCC8FF",
  "jU c #CAD7E6FF",
  "3Y c #CBCDC9FF",
  "4s c #CBD2D5FF",
  "+= c #CBD9E8FF",
  "5: c #CCCEC9FF",
  "g1 c #CCD4DAFF",
  "ju c #CCD6E1FF",
  "4w c #CDDCECFF",
  "k= c #CEDCEBFF",
  "t# c #CFCFCEFF",
  "#= c #D0D0CFFF",
  "4g c #D0D2CEFF",
  "jg c #D0DDEAFF",
  "jY c #D1DCE8FF",
  "g> c #D2D2D1FF",
  "k@ c #D2D3D2FF",
  "jE c #D3DCE6FF",
  "je c #D4E1EEFF",
  "jR c #D5DEE8FF",
  "jT c #D5DEE9FF",
  "k* c #D5E0ECFF",
  "4e c #D5E1EEFF",
  "hu c #D6DAD2FF",
  "4! c #D7D8D5FF",
  "jL c #D7D8D7FF",
  "jA c #D7E3F0FF",
  "$t c #D8D8D7FF",
  "3l c #D8D9D6FF",
  "5# c #D8DAD7FF",
  "jm c #D8E4F1FF",
  "%! c #D9D9D8FF",
  "49 c #D9DCD6FF",
  "6k c #DADAD9FF",
  "3E c #DADBD8FF",
  "3t c #DADCD9FF",
  "jf c #DAE4EEFF",
  "jF c #DAE5F0FF",
  ",v c #DBDBDBFF",
  "4r c #DBE6F0FF",
  "4@ c #DBE6F2FF",
  ",^ c #DCDCDCFF",
  "=b c #DDDDDDFF",
  "kl c #DDE0DBFF",
  "j/ c #DDE6F1FF",
  "&v c #DEDEDDFF",
  "=P c #DEDEDEFF",
  "4; c #DEE0DBFF",
  "4M c #DEE1DCFF",
  "3K c #DEE8F3FF",
  "={ c #DFDFDFFF",
  "&_ c #E0E0E0FF",
  "6O c #E0E2DDFF",
  "jk c #E0E6EAFF",
  "fh c #E0E8F1FF",
  "jD c #E0E9F2FF",
  "jn c #E0E9F3FF",
  "+Z c #E1E1E1FF",
  "+A c #E2E2E2FF",
  "57 c #E2E3E0FF",
  "jd c #E2EAF2FF",
  "+S c #E3E3E3FF",
  "36 c #E3E4E2FF",
  "jp c #E3E4E3FF",
  "jS c #E3ECF4FF",
  "jv c #E3ECF5FF",
  "&K c #E4E4E4FF",
  "3} c #E4E6E2FF",
  ";3 c #E5E5E5FF",
  ";b c #E6E6E6FF",
  "js c #E6EDF4FF",
  ";G c #E7E7E7FF",
  "4~ c #E7EBEDFF",
  "jb c #E7EEF6FF",
  ":# c #E8E8E8FF",
  "f- c #E8EBEEFF",
  ":2 c #E9E9E9FF",
  "59 c #E9EAE8FF",
  "fq c #E9F0F7FF",
  ",$ c #EAEAEAFF",
  "39 c #EAECE9FF",
  "jK c #EAEDEDFF",
  ":, c #EBEBEBFF",
  "5; c #EBECEAFF",
  "4Z c #EBEDECFF",
  ":> c #ECECECFF",
  "3f c #ECEDEBFF",
  ";9 c #EDEDEDFF",
  ":< c #EEEEEEFF",
  "3B c #EEEFECFF",
  "d{ c #EEF1F3FF",
  ";A c #EFEFEFFF",
  "k7 c #EFF1EEFF",
  ";T c #F0F0F0FF",
  ";` c #F1F1F1FF",
  ";' c #F2F2F2FF",
  ":O c #F3F3F3FF",
  ":3 c #F4F4F4FF",
  "=a c #F5F5F5FF",
  "3] c #F5F6F4FF",
  "3S c #F5F6F6FF",
  "+W c #F6F6F6FF",
  ":9 c #F7F7F7FF",
  ",3 c #F8F8F7FF",
  ";R c #F8F8F8FF",
  "37 c #F8F9F8FF",
  "3y c #F8F9F9FF",
  ";S c #F9F9F9FF",
  ":5 c #FAFAFAFF",
  "38 c #FAFBFAFF",
  ";Q c #FBFBFBFF",
  ";2 c #FCFCFCFF",
  "=q c #FDFDFDFF",
  "58 c #FDFEFDFF",
  "=w c #FEFEFEFF",
  "   c none",
  
  // Image data
  "                                                                ",
  "                                                                ",
  "        =&=*,D>K,H>K,D,F=v,Q-i-Y,!,x=<=1,k>H6^>(6/6(6)6_        ",
  "        =0=q=w=w:5=w=w=q=q=q=q;2;2;2;Q;Q;Q;Q:5:5:5;S;S6`        ",
  "        =v=w=b=P,v;b&_+Z+Z+A+A+S+S+S+S&K&K&K&K&K&K+S;S:0        ",
  "        =L=w=P={,^;b+Z+A+A+S+S&K&K&K&K;3;3;3;3;3;3;3;S:0        ",
  "        =[=w={&_,^;G+A<15>,A,A,A,A,A<W<W<W<W<W;g;b;b;S:0        ",
  "        -,=w&_&_=b:#+S+S&K;3;3;b;b;b;G;G;G;G;G;G;G;G;S5[        ",
  "        -i=q&_+Z=P:2&K;=,A,A<W<W<W<W<1<1<1<1<1;U:#:#;S5{        ",
  "        -v=q+Z+A={,$&K;3;b;b;G;G:#:#:2:2:2:2:2:2:2:2;S5|        ",
  "        -K=q+A+S&_,$;3;g<W<W<1<1<1<1;=;=;=;=;=;Z,$,$;S:q        ",
  "        -^=q+S:&+Z,$;b;G:#:#:2:2,$,$,$:,:,:,:,:,:,:,;S>'        ",
  "        ;@=q+S;G+Z:,;G;U<1<13wt$fO5@j2j3j4<W;=:*:>:>;S:i        ",
  "        =<;2&K;3+Z:>:#:#&vj5353637=w383930h@#=;9;9;9;S6]        ",
  "        =1;2&K;3+Z:>:#j6fo3t3yfXf.3pd|j7d{3fj8j9:<:<;S6[        ",
  "        ;v;2;3;b+A;9:2gE3lf-j0jqjwjejrjtjyju3Bjijp;A;S;D        ",
  "        ;F;2;b;G+S;9t#3A3Sf4jafhjsjdjfjgjhjjjk3Yjl;T;R;E        ",
  "        ;W;Q;b;G+S;9jz3Ejxjc4@jvfqjbjnjmjMjNjB3]jV:>;R;]        ",
  "        ;[;Q;b;G&K:<jC3}jZf}jA3KjSjSjDjFjGjHjJjK4*jL;R:+        ",
  "        :@;Q;G:#&K:<3V4;jPjIjUjYjTjRjEjW4DjQj!g147g>;R:-        ",
  "        :;;Q;G<#;b:<h@49j~j^4w4e4rj/jgj(j)j_j`4s4d$t;R:-        ",
  "        :4:5;G:,;3:<4Q4gj'j]j[j{j}j|k.kXkokOk+4M5g;A;R:-        ",
  "        :8:5:#:2;3;Ak@4C4Zk#k$k%k&+=k*k=k-k;k:304I%!;R:-        ",
  "        :0:5:#:2;3;A:>k>4!4~k,k<k1k2k3k4k5k6k74{4}k8k9:-        ",
  "        :q;S:#:2;3;A:>+Sk05#3ykqf[kw45ked{5;5:5>5,=C5<kr@>      ",
  "        :w;S:#:2;3;A:>:*ktky5657,358:559505q5w,G=p,H=C5eku<*    ",
  "        :e;S:#:2;3;A:>;9:<;T6kkikpfOka31ks;Akd5h5j;85,-65kkfkg  ",
  "        ;E;S:#:2;3;A:>;9:<;A;T;':O:O;':O:O:O:<kh5D,S;8=C5F5Gkj  ",
  "      +::r;R+W:9:3;R:9:9=a;`:<:>:2:#;b&K&K+S&K&Kkk5/3w5(huklkz  ",
  "    +h+/:y:u:i:i:i:i:i6]6[:ekx;E;]:+kc:-:-kv:-kc:+kr6X6o6Okbkn@.",
  "    @**Q:d*6:f:g:g:g:g*W*Dkm*jkMkNkBkVkCkZkAkZkVkSkDkFkGkHkJkK  ",
  "        @*:l+k*k*k*k*k*k*k*]@;@=&V&E*`+N+N+N+N*`&E@=*'+>O`      "
};
