/* XPM */
const char *xpm_tango_actions_edit_clear[] = {
  // Header (width height colors chars-per-pixel)
  "32 32 404 2",
  
  // Colors (code mode value)
  "+j c #00000001",
  "O` c #00000002",
  "@. c #00000003",
  "@X c #00000004",
  "+e c #00000005",
  "&h c #00000006",
  "@* c #00000007",
  "*! c #00000008",
  "*7 c #00000009",
  "+( c #0000000A",
  "+> c #0000000B",
  ":k c #0000000C",
  "+h c #0000000D",
  "+: c #0000000E",
  ":l c #0000000F",
  "@: c #00000010",
  "+B c #00000011",
  "+r c #00000012",
  "+K c #00000013",
  "@o c #00000014",
  "*' c #00000015",
  "+k c #00000016",
  "*k c #00000017",
  "*] c #00000018",
  "+w c #00000019",
  "+| c #0000001B",
  "@= c #0000001C",
  "*Q c #0000001D",
  "9b c #0000001E",
  "&V c #0000001F",
  "@- c #00000020",
  "+g c #00000021",
  "&E c #00000022",
  "*~ c #00000025",
  "+N c #00000026",
  "er c #00000028",
  ":j c #00000029",
  "eg c #0000002A",
  "*F c #0000002B",
  "9x c #0000002C",
  "ee c #0000002D",
  "*^ c #0000002E",
  "&R c #0000002F",
  "*X c #00000033",
  "*G c #00000037",
  "ew c #00000038",
  "9c c #0000003A",
  "e< c #0909001B",
  "ex c #0B05002F",
  "w~ c #10100010",
  "e, c #2823003A",
  "wS c #2B2B0006",
  "ef c #53450059",
  "eq c #5847005D",
  "qe c #67000025",
  "q, c #6700004A",
  "0M c #69000011",
  "0J c #6B000043",
  "0h c #6B000051",
  "0m c #6D0000F2",
  "qo c #6E0000E0",
  "q< c #6E0100F5",
  "q1 c #6F0600FE",
  "0g c #700501EB",
  "0W c #720803FF",
  "0/ c #730A00F6",
  "0H c #750303F4",
  "0U c #750903FF",
  "q# c #750E02FF",
  "et c #7561003F",
  "0v c #79130DFF",
  "ez c #8069005C",
  "9/ c #80800002",
  "0' c #81110AFF",
  "eo c #836A0054",
  "0A c #842411FF",
  "0] c #86280BFE",
  "0S c #881610FF",
  "q@ c #890802FF",
  "06 c #8D58001D",
  "0- c #8D580031",
  "9K c #8E550009",
  "9[ c #8E5A034F",
  "0Q c #8F3C02FC",
  "0y c #90570355",
  "07 c #905B03F2",
  "9{ c #915A0033",
  "9E c #915A02F3",
  "9R c #915A0366",
  "9J c #915A03DD",
  "9C c #915A03EB",
  "0@ c #915B027B",
  "9V c #915B03EF",
  "9N c #92490007",
  "9A c #92550015",
  "9Z c #925A02A1",
  "0; c #925A03C9",
  "9B c #925B03A6",
  "9^ c #925B03E5",
  "0+ c #925C03CB",
  "0I c #934117FF",
  "9( c #935A03BA",
  "9S c #935B0486",
  "9L c #935C03E4",
  "9} c #945E08F5",
  "0= c #945E08F6",
  "0( c #950300FF",
  "0u c #955F08F4",
  "eh c #957B0059",
  "02 c #966001AF",
  "0f c #974B11F9",
  "9U c #976412FF",
  "0b c #991C18FF",
  "9! c #9A6819FF",
  "9I c #9D6916FF",
  "9` c #9E6812FF",
  "9_ c #9E6D1EFF",
  "q2 c #A0590CFE",
  "9] c #A06C19F4",
  "9Q c #A07328FF",
  "0# c #A47221F5",
  "9Y c #A7792FFF",
  "eO c #A888006F",
  "ed c #A88900AD",
  "qO c #AA0000FF",
  "05 c #AAAA0003",
  "9T c #AB7C2EF7",
  "01 c #AD7620FC",
  "0Y c #AE1110FF",
  "9D c #B08132F8",
  "el c #B08F00A2",
  "0n c #B21A1AFF",
  "e0 c #B29300C9",
  "e> c #B39300BF",
  "wD c #B594004C",
  "q+ c #B70000FF",
  "00 c #B77A16FF",
  "w! c #B7960099",
  "0: c #BA8A3BFB",
  "qr c #BA8E00A7",
  "0q c #BD8F18FF",
  "0k c #BD9601E9",
  "0i c #BE8E22FF",
  "0) c #BF0000FF",
  "0E c #BF3130FF",
  "0X c #BF7B0FFF",
  "0, c #BF7C10FF",
  "9H c #BF9551FB",
  "ek c #BF9D00DA",
  "wA c #BF9E0090",
  "q> c #BF9F0010",
  "0` c #C01F1FFF",
  "09 c #C1892EFF",
  "q$ c #C1924EFF",
  "e1 c #C19D00D9",
  "08 c #C29242FF",
  "ej c #C29E00DC",
  "es c #C29F01F8",
  "0K c #C2A2003F",
  "0& c #C38219FF",
  "0w c #C39F05FF",
  "qQ c #C3A0005E",
  "wg c #C3A00066",
  "0N c #C3A00073",
  "eX c #C3A000ED",
  "qA c #C3A20037",
  "0c c #C49351FF",
  "0O c #C4954BFF",
  "0~ c #C49F004A",
  "wO c #C4A0002B",
  "0L c #C4A000FA",
  "04 c #C4A000FF",
  "ey c #C4A001F5",
  "w^ c #C4A100E5",
  "0B c #C4A102FF",
  "0% c #C58621FF",
  "0t c #C59C001F",
  "qS c #C59F0080",
  "0p c #C59F09FF",
  "w4 c #C5A00053",
  "e9 c #C5A003FE",
  "qW c #C5A1005C",
  "ql c #C5A1009B",
  "0! c #C5A102D3",
  "0P c #C5A11BF8",
  "w6 c #C5A200F3",
  "wh c #C5A300AB",
  "0. c #C6923FFF",
  "qk c #C69F0028",
  ".N c #C6A1001B",
  "wX c #C6A2009C",
  "q. c #C6A200A1",
  "e: c #C6A205FA",
  "wQ c #C6A207F8",
  "0j c #C6A30024",
  "q: c #C6A300C8",
  "qw c #C6A303DD",
  "w[ c #C6A402FF",
  "wo c #C6AA0009",
  "0< c #C79039FF",
  "9) c #C7A05EFE",
  "03 c #C7A50793",
  "qj c #C7A60BEA",
  "0r c #C7A60CFC",
  "e6 c #C7A60CFF",
  "wf c #C7A60FFF",
  "0^ c #C8A4000E",
  "wT c #C8A503FF",
  "e% c #C8A508FF",
  "0l c #C8A510FF",
  "w3 c #C8A60CEB",
  "we c #C9A606FF",
  "w+ c #C9A90DF2",
  "wC c #C9AA16FF",
  "wm c #CAA70CFF",
  "qZ c #CAA814F1",
  "ea c #CAA916F8",
  "w| c #CBA913FF",
  "wK c #CCAA09FF",
  "w, c #CCAC07FF",
  "wF c #CCAE15F2",
  "0_ c #CD1010FF",
  "9~ c #CDA76BFF",
  "wb c #CDAB07FF",
  "wp c #CDAD0EFF",
  "wI c #CDAD13FF",
  "e+ c #CDAF1AF5",
  "q{ c #CEAF04FF",
  "0| c #CEAF20F5",
  "qE c #CEAF25F5",
  "wZ c #D0B22BF9",
  "qY c #D0B303FF",
  "0o c #D1A051FF",
  "9W c #D1B07AFF",
  "w` c #D1B107FF",
  "wH c #D1B406FF",
  "e# c #D1B40EFF",
  "wa c #D1B41FFF",
  "e. c #D1B626F9",
  "0G c #D22B2BFF",
  "0a c #D2B226FF",
  "wy c #D2B401FF",
  "w; c #D2B408FF",
  "q! c #D2B624F5",
  "0* c #D4A962FF",
  "0Z c #D4AF4DFF",
  "wt c #D4B823FF",
  "qB c #D4B906FF",
  "0> c #D5A75DFF",
  "qX c #D5AA0006",
  "wM c #D5BB02FF",
  "w. c #D5BC42F7",
  "w_ c #D6BC28FF",
  "e- c #D6BC3DFF",
  "e= c #D6BE39FF",
  "q_ c #D7B714FF",
  "w= c #D7B913FF",
  "w) c #D7BE07FF",
  "0V c #D7BE29FC",
  "ei c #D7BF51FF",
  "q' c #D8BB16FF",
  "q; c #D8BF3EF7",
  "w( c #D8C03DFF",
  "w< c #D8C131FF",
  "wV c #D9C03CFF",
  "w0 c #DABD14FF",
  "wU c #DAC01CFF",
  "e& c #DAC118FF",
  "wx c #DBBD12FF",
  "9G c #DBBE8FFF",
  "w8 c #DBC21BFF",
  "wR c #DBC41CFF",
  "0[ c #DCBD71FF",
  "wl c #DCC10BFF",
  "wz c #DCC113FF",
  "w: c #DCC413FF",
  "qD c #DCC439FD",
  "0e c #DCC442F9",
  "ep c #DCC547FD",
  "wj c #DCC740FF",
  "q[ c #DDC830FF",
  "wk c #DDC838FF",
  "q} c #DDC83BFF",
  "e2 c #DDC842FD",
  "wY c #DDC842FF",
  "w} c #DDC952FF",
  "e8 c #DDC955FC",
  "9| c #DEC090FF",
  "9P c #DEC193FF",
  "qf c #DEC614FF",
  "wu c #DEC921FF",
  "qq c #DECC59FA",
  "0D c #DF4545FF",
  "qU c #DFC828FF",
  "q] c #DFC913FF",
  "e; c #DFCB57FD",
  "eu c #DFCB5CFF",
  "w% c #E0C31BFF",
  "w> c #E0CC3EFF",
  "e4 c #E0CC44FF",
  "wN c #E0CD33FF",
  "e$ c #E0CD3AFF",
  "0$ c #E1C18DFF",
  "wJ c #E1C819FF",
  "qz c #E1CD48FF",
  "qT c #E1CE48FF",
  "e3 c #E1CF75FF",
  "w2 c #E1D170F9",
  "w# c #E2C715FF",
  "w* c #E2C721FF",
  "9F c #E2C79DFF",
  "w- c #E2C931FF",
  "wi c #E2D047FF",
  "qV c #E2D14AFF",
  "0T c #E33333FF",
  "9' c #E3C697FF",
  "wv c #E3CA3BFF",
  "w] c #E3CF48FF",
  "w{ c #E3D147FF",
  "w/ c #E3D157FF",
  "qP c #E4C820FF",
  "qI c #E4CB1AFF",
  "e5 c #E4D161FF",
  "qg c #E4D350FF",
  "wB c #E4D450FF",
  "wr c #E5CD2AFF",
  "qN c #E5CE23FF",
  "qt c #E5CF4DFF",
  "wn c #E5D142FF",
  "wW c #E5D56CFF",
  "wG c #E6D564FF",
  "qh c #E6D573FD",
  "qK c #E7CB30FF",
  "wL c #E7CD1AFF",
  "e@ c #E7D677FF",
  "w7 c #E7D864FF",
  "e7 c #E7D878FF",
  "w9 c #E8CF19FF",
  "w' c #E8D540FF",
  "e* c #E8D960FF",
  "qn c #E9CF37FF",
  "qC c #E9DC85FE",
  "qM c #EAD023FF",
  "q0 c #EADB63FF",
  "w@ c #EBDD6FFF",
  "qL c #ECD12DFF",
  "q9 c #ECD52AFF",
  "qR c #ECE091FF",
  "q^ c #EDD423FF",
  "0z c #EDDA64FF",
  "0} c #EDDB6EFF",
  "0C c #EDDC5DFF",
  "q~ c #EDDC61FF",
  "0F c #EE4747FF",
  "wq c #EED425FF",
  "q( c #EED42FFF",
  "w$ c #EED625FF",
  "q` c #EED62FFF",
  "qd c #EED725FF",
  "wE c #EEE289FF",
  "ws c #EEE395FF",
  "wd c #EEE39EFF",
  "q| c #EEE49AFF",
  "#& c #EEEEECFF",
  "wP c #EFDE5DFF",
  "w1 c #EFE497FF",
  "qH c #F0D734FF",
  "q/ c #F0D82BFF",
  "wc c #F0DB35FF",
  "qp c #F0DB53FF",
  "qF c #F1E05AFF",
  "q- c #F1E278FF",
  "qv c #F3DC46FF",
  "ww c #F3DF41FF",
  "0R c #F44B4BFF",
  "qs c #F4DB33FF",
  "qm c #F4DC37FF",
  "0s c #F4E583FF",
  "0d c #F4E595FF",
  "qx c #F6E55AFF",
  "q) c #F7DF3CFF",
  "qb c #F7E154FF",
  "qa c #F7E34EFF",
  "q= c #F7E44DFF",
  "qG c #F8E031FF",
  "qJ c #F8E248FF",
  "q3 c #F8E88EFF",
  "q8 c #F9E335FF",
  "q6 c #F9E564FF",
  "qi c #F9E65FFF",
  "w& c #FAE336FF",
  "qc c #FCE43EFF",
  "qu c #FCE64EFF",
  "q7 c #FCE650FF",
  "qy c #FCEA65FF",
  "0x c #FCEF8EFF",
  "q* c #FDE748FF",
  "q5 c #FDED7AFF",
  "q& c #FDEE7AFF",
  "0{ c #FDF091FF",
  "q4 c #FEEF89FF",
  "q% c #FEF5B4FF",
  "w5 c #FF800002",
  "   c none",
  
  // Image data
  "      9N9B9V9C9Z9A                                              ",
  "      9S9D9F9G9H9J9K                                            ",
  "      9L9P9I9U9Y9T9R                                            ",
  "      9E9W9Q#&9!9~9^9/                                          ",
  "      9(9)9_9!9`9'9]9[                                          ",
  "      9{9}9|0.0X0o0O0+                                          ",
  "        0@0#0$0%0&0*0=0-                                        ",
  "        9/0;0:0>0,0<0102030405                                  ",
  "          06070809000q0w0e0r0t                                  ",
  "            0y0u0i0p0a0s0d0f0g0h                                ",
  "            0j0k0l0z0x0c0v0b0n0m0M                              ",
  "          0N0B0V0C0Z0A0S0D0F0G0H0J                              ",
  "          0K0L0P0I0U0Y0T0R0E0W0Q0!0~                            ",
  "            0^0/0(0)0_0`0'0]0[0{0}0|q.qX                        ",
  "              qoqOq+q@q#q$q%q&q*q=q-q;q:q>                      ",
  "              q,q<q1q2q3q4q5q6q7q8q9q0qqqw.N                    ",
  "                qeqrqtqyquqiqpqaqsqdqfqgqhqjqk                  ",
  "                  qlqzqxqcqvqbqnqmqMqNqBqVqCqZqA                ",
  "                  qSqDqFqGqHqJqKqLqPqIqUqYqTqRqEqW              ",
  "                  qQq!q~q^q/q(q)q_q`q'q]q[q{q}q|w.wXwo          ",
  "                  wOw+w@w#w$w%w&w*w=w-w;w:w>w,w<w1w2w3w4        ",
  "                  w5w6w7w8w9w0wqwwwewrwtwywuwiwpwawswdwfwg      ",
  "                    whwjwkwlwzwxwcwvwbwnwmwMwNwBwVwCwZwAwS+j    ",
  "                  @XwDwFwGwHwJwKwLwPwIwUwYwTwRwEwWwQw!+K:l+(&h+j",
  "                +e+(w~w^w/w(w)w_w`w'w]w[w{w}w|e.eXeo@-+|+k+B:k@*",
  "              @.*7+:+KeOe+e@e#e$e%e&e*e=e-e;e:e>e,*F+N+g+|+k+B+>",
  "              @X+(:l*'e<e1e2e3e4e5e6e7e8e9e0eqew*Xeeer&E*Q*k+r:k",
  "              @.*!+h+K*]eteyeueiepeaesedef9c*G*X&Reg*~@-+|*'@:+>",
  "                @X*7+:+K*kehejekelezex*^*^ee9x:j+N&E9b+w*'@:+>@X",
  "                  +j&h+>:l+K+k+w@=9b@-+g+g@-&V*Q+|*]@o+B+h@*+j  ",
  "                        @.@*+>+h@:+B+K+K+K+K+r+B:l+>&h@.        ",
  "                                +jO`O`@.@.O`O`+j                "
};
