/* XPM */
const char *xpm_tango_actions_edit_copy[] = {
  // Header (width height colors chars-per-pixel)
  "32 32 87 2",
  
  // Colors (code mode value)
  "e_ c #8080800A",
  "ro c #848B844D",
  "eR c #868A84FF",
  "ev c #87898580",
  "eY c #878A84FF",
  "e! c #878B85FF",
  "eB c #888A85FF",
  "e' c #888B85EE",
  "e^ c #888B86A5",
  "rX c #888D87E8",
  "e} c #898C88BE",
  "e/ c #898D87FF",
  "e{ c #898D88FE",
  "e) c #898E88F0",
  "eE c #8C908AFF",
  "r. c #8D8E89D4",
  "eT c #8D8F8A69",
  "eb c #8D8F8A6B",
  "eV c #8D8F8AD2",
  "ec c #8F8F8A69",
  "e| c #8F9F8F10",
  "e` c #929491FF",
  "eW c #929590FF",
  "e~ c #959794FF",
  "eQ c #959893FF",
  "eN c #969994EA",
  "e( c #989A97FF",
  "e[ c #A2A3A1FF",
  ":& c #B1B1B1FF",
  "e] c #B2B8B22B",
  ",A c #BCBCBCFF",
  "<W c #BDBDBDFF",
  ";g c #C0C0C0FF",
  ";U c #C1C1C1FF",
  ";Z c #C2C2C2FF",
  "eS c #C3C3C380",
  ":* c #C3C3C3FF",
  ":6 c #C4C4C4FF",
  "eZ c #C5C5C580",
  ";Y c #C5C5C5FF",
  ":= c #C6C6C6FF",
  "eC c #C7C7C780",
  ",1 c #C7C7C7FF",
  ",2 c #CDCDCDFF",
  ";_ c #CECECEFF",
  "+v c #D0D0D0FF",
  "eU c #E1E2E1FF",
  "eJ c #E7E7E780",
  ";G c #E7E7E7FF",
  ":# c #E8E8E8FF",
  "eD c #E9E9E980",
  ":2 c #E9E9E9FF",
  ",$ c #EAEAEAFF",
  "eA c #EBEBEB80",
  ":, c #EBEBEBFF",
  ":> c #ECECECFF",
  "eM c #EDEDED80",
  ";9 c #EDEDEDFF",
  ":< c #EEEEEEFF",
  "em c #EFEFEF80",
  ";A c #EFEFEFFF",
  ";T c #F0F0F0FF",
  "eI c #F1F1F180",
  ";` c #F1F1F1FF",
  ";' c #F2F2F2FF",
  "55 c #F3F3F2FF",
  "eP c #F3F3F380",
  ":O c #F3F3F3FF",
  ":3 c #F4F4F4FF",
  "eL c #F5F5F580",
  "=a c #F5F5F5FF",
  "+W c #F6F6F6FF",
  "eK c #F7F7F780",
  ":9 c #F7F7F7FF",
  ";R c #F8F8F8FF",
  "eH c #F9F9F980",
  ";S c #F9F9F9FF",
  ":5 c #FAFAFAFF",
  "eG c #FBFBFB80",
  ";Q c #FBFBFBFF",
  ";2 c #FCFCFCFF",
  "eF c #FDFDFD80",
  "=q c #FDFDFDFF",
  "=w c #FEFEFEFF",
  "en c #FFFFFF80",
  ">X c #FFFFFFFF",
  "   c none",
  
  // Image data
  "                                                                ",
  "  eceveveveveveveveveveveveveveveveveveveveveb                  ",
  "  evenenenenenenenenenenenenenenenenenenenenev                  ",
  "  evenememememememememememememememememememenev                  ",
  "  evenememememememememememememememememememenev                  ",
  "  evenememememememememememememememememeMeMenev                  ",
  "  evenememememememeNeBeBeBeBeBeBeBeBeBeBeBeBeBeBeBeBeBeBeBeBeV  ",
  "  evenememeCeCeCeCeB>X>X>X>X>X>X>X>X>X>X>X>X>X>X>X>X>X>X>X>XeB  ",
  "  evenememememememeB>X;A;A;A;A;A;A;A;A;A;A;A;A;A;A;A;A;A;T>XeB  ",
  "  evenememememememeB>X;A;A;A;A;A;A;A;A;A;A;A;A;A;A;A;A;A;T>XeB  ",
  "  evenememeCeCeCeCeB>X;A;A;A;A;A;A;A;A;A;A;A;A;A;A;A;A:<;A>XeB  ",
  "  evenememememememeB>X;A;A;A;A;A;A;A;A;A;A;A;A;A;A:<:<:<:<>XeB  ",
  "  evenememememeMeMeB>X;A;A,1,1,1,1,1,1,1,1,1,1,1:=:=;Y,$:<>XeB  ",
  "  evenememeCeZeZeZeB>X;A;A;A;A;A;A;A;A;A;A;A:<:<:<;9;9:>;9>XeB  ",
  "  evenemeMeMeMeMeMeB>X;A;A;A;A;A;A;A;A;A:<:<:<;9;9:>:>:>:>>XeB  ",
  "  evenemeMeMeMeAeAeB>X;A;A,1,1,1,1,1,1:=:=;Y;Y;Y:6:6:,:,:,>XeB  ",
  "  eveneMeMeZeSeSeSeB>X;A;A;A;A;A;A:<:<:<;9;9:>:>:,:,:,,$:,>XeB  ",
  "  eveneMeAeAeAeAeAeB>X;A;A;A;A:<:<:<;9;9:>:>:>:,:,,$,$,$,$>XeB  ",
  "  eveneMeAeAeAeDeDeB>X;A;A,1:=:=;Y;Y;Y:6:6:*:*:*:*,$:2:2:2=weB  ",
  "  eveFeAeAeDeDeDeDeB>X;A:<:<:<;9;9:>:>:,:,:,,$,$:2:2:2:#:2;2eB  ",
  "  eveGeAeDeDeDeDeDeB>X:<:<;9;9:>:>:>:,:,,$,$,$:2:2:#:#;G:#:5eB  ",
  "  eveHeAeDeDeDeJeJeB>X;9;9;Y:6:6:*:*:*:*:*;Z;Z;U;U;U;g;G:2;SeB  ",
  "  eveKeDeDeJeJeJeJeB>X;9:>:>:,:,:,,$,$:2:2:2:#:#;G;G;G,$:<;SeB  ",
  "  eveLeDeJeJeJeJeJeB>X:>:>:,:,,$,$,$:2:2:#:#;G;G;G:2:>;A:O;QeB  ",
  "  evePeIeIememeIeIeB=w:,:,,$,$,$:2:2:#:#:#;G;G:#:,:<;'=a;ReUeY  ",
  "  eTeveveveveveveveB;2:,,$,$:2:2:2:#:#;G;G;G,$:,eReEeEeWeEeQe!  ",
  "                  eB:5,$,$:2:2:#:#;G;G;G:2:>;A:OeR+v;_,2;Ye~e^  ",
  "                  eB;R:2:2:#:#:#;G;G:#:,:<;'=a;Re/;_<W,Ae(e)e_  ",
  "                  eB+W:2:#:#;G;G;G,$;9;`:3:9:5=we!:6:&e`e'e]    ",
  "                  eB:O;';`;T;T;`;':3+W;R:5=q;255e!e[e{e}e|      ",
  "                  r.eBeBeBeBeBeBeBeBeBeBeBeBeBeYeRrXro          ",
  "                                                                "
};
