/* XPM */
const char *xpm_tango_actions_edit_cut[] = {
  // Header (width height colors chars-per-pixel)
  "32 32 400 2",
  
  // Colors (code mode value)
  "+j c #00000001",
  "O` c #00000002",
  "@. c #00000003",
  "@X c #00000004",
  "+e c #00000005",
  "@* c #00000007",
  "*! c #00000008",
  "*7 c #00000009",
  "+( c #0000000A",
  ":k c #0000000C",
  "+h c #0000000D",
  "+: c #0000000E",
  ":l c #0000000F",
  "+B c #00000011",
  "+r c #00000012",
  "+K c #00000013",
  "@o c #00000014",
  "*' c #00000015",
  "*k c #00000017",
  "&E c #00000022",
  "*~ c #00000025",
  "+N c #00000026",
  "er c #00000028",
  "eg c #0000002A",
  "*F c #0000002B",
  "9x c #0000002C",
  "ee c #0000002D",
  "*^ c #0000002E",
  "*X c #00000033",
  "*G c #00000037",
  ":h c #0000003B",
  "9v c #0000003F",
  "*( c #00000042",
  "uV c #3D000032",
  "uB c #4100002F",
  "u: c #5B00000E",
  "uO c #6D00000E",
  "uk c #7A020277",
  "uj c #7D020274",
  "r} c #80808008",
  "e_ c #8080800A",
  "r+ c #8080800C",
  "rj c #8092800E",
  "ub c #8200002F",
  "ri c #86868615",
  "rd c #868A863B",
  "r1 c #868C8628",
  "rQ c #87878720",
  "r! c #87878722",
  "r= c #8888822D",
  "r5 c #8888843A",
  "eB c #888A85FF",
  "re c #888A8669",
  "rF c #888B844F",
  "t+ c #888B854B",
  "rm c #888C843E",
  "ua c #89000029",
  "uF c #89000034",
  "rD c #89898650",
  "r$ c #8989891A",
  "ru c #898C875B",
  "t2 c #898C876A",
  "tO c #8A8A863F",
  "rR c #8A8A8760",
  "r9 c #8A8C8766",
  "t> c #8B8B8016",
  "rE c #8B8B8321",
  "rC c #8B8B852E",
  "rx c #8B8C88AD",
  "rf c #8B8D88F9",
  "rc c #8B8D8988",
  "r% c #8B8E89F5",
  "rh c #8C8D89EE",
  "r_ c #8C8E8885",
  "r^ c #8C8E88F1",
  "rp c #8C8E89F2",
  "r: c #8C8E8A7C",
  "r' c #8C8E8ABD",
  "rB c #8C8E8AE9",
  "rN c #8C8E8AEB",
  "t: c #8C8E8AF2",
  "rL c #8D8D897D",
  "r* c #8D8F898D",
  "r@ c #8D8F898F",
  "r| c #8D8F89E8",
  "rW c #8D8F89F5",
  "r~ c #8D8F8AF5",
  "r< c #8D8F8AF6",
  "rn c #8D8F8B96",
  "r- c #8D8F8BF6",
  "rU c #8D908ABE",
  "r# c #8E8E8E09",
  "rY c #8E8F8BBF",
  "r> c #8E8F8BC0",
  "r2 c #8E8F8BD0",
  "rA c #8E8F8BE0",
  "rs c #8E8F8BE6",
  "rK c #8E908BCF",
  "r{ c #8E908BE1",
  "rO c #8E908C83",
  "t& c #8E918BAB",
  "t* c #8E918CBC",
  "r8 c #8E918CC9",
  "un c #8F000030",
  "r/ c #8F8F8010",
  "rk c #8F908CA8",
  "rw c #8F908CB1",
  "r( c #8F908CBF",
  "r4 c #8F908CF3",
  "rV c #8F918BF5",
  "t. c #8F918CFE",
  "u0 c #9004048E",
  "rM c #90928DF5",
  "t7 c #916963F4",
  "to c #91938EF4",
  "t< c #91938EFF",
  "u* c #92030365",
  "y0 c #9212000E",
  "t3 c #92655EDE",
  "uC c #9302028E",
  "u9 c #9304048E",
  "r6 c #939590F3",
  "u& c #94030364",
  "rG c #949591F4",
  "t@ c #949691F4",
  "rS c #949692F4",
  "uN c #9502028C",
  "y# c #9515000C",
  "tq c #958681FF",
  "r] c #959893F4",
  "ry c #969994F4",
  "t9 c #980A0034",
  "ti c #99000005",
  "yY c #9900000A",
  "u; c #9900005A",
  "t8 c #99333305",
  "rZ c #99999905",
  "ty c #9A0C00FF",
  "tu c #9A191083",
  "t, c #9A9C98FF",
  "tk c #9B09001C",
  "tN c #9B0C02A5",
  "r0 c #9B9C98F3",
  "t$ c #9B9D99FF",
  "u+ c #9C00005A",
  "tj c #9D0C01F5",
  "tW c #9D0D01AF",
  "tp c #9D0D01DB",
  "tt c #9D1207FF",
  "t0 c #9D160AFF",
  "t1 c #9D9F9AF4",
  "r; c #9D9F9BF8",
  "y$ c #9E0E02CE",
  "tR c #9E0E03B5",
  "tB c #9F0F03F5",
  "r& c #9FA09CF8",
  "yq c #A00B02FD",
  "y' c #A1000013",
  "y6 c #A1020075",
  "tA c #A10C03EC",
  "t- c #A1A39FFF",
  "y} c #A3000045",
  "y4 c #A3000050",
  "y) c #A400003B",
  "yG c #A4000057",
  "yy c #A400006B",
  "yU c #A400006D",
  "u> c #A4020278",
  "ys c #A4030357",
  "tr c #A4251BFF",
  "rP c #A4A6A1F4",
  "tl c #A5000011",
  "yr c #A500004A",
  "tJ c #A5000055",
  "yZ c #A500005D",
  "uo c #A5000069",
  "yc c #A50101FA",
  "yv c #A50201FA",
  "y! c #A502027A",
  "tz c #A502027C",
  "u- c #A50202E9",
  "ym c #A6000017",
  "t' c #A6000056",
  "y/ c #A60101F6",
  "yV c #A6020276",
  "yL c #A6020278",
  "tG c #A602027E",
  "tc c #A60202F2",
  "ul c #A60202F4",
  "y9 c #A60202F6",
  "u. c #A60202F7",
  "ut c #A60202F8",
  "u@ c #A60303E8",
  "t` c #A60303F2",
  "uh c #A60303F4",
  "um c #A60404BD",
  "uD c #A60505C0",
  "yt c #A700001A",
  "yl c #A7000020",
  "t] c #A7020274",
  "yW c #A702027C",
  "yM c #A70202D1",
  "y3 c #A70202E2",
  "yQ c #A70202E4",
  "yC c #A70202E9",
  "yu c #A70202EE",
  "yH c #A70202F0",
  "yf c #A70202F1",
  "u1 c #A70202F5",
  "y. c #A70202F6",
  "tv c #A70302F8",
  "yj c #A70303BF",
  "y{ c #A70303C5",
  "us c #A70303F1",
  "uA c #A70303F4",
  "u5 c #A70303F7",
  "y, c #A7040477",
  "uM c #A70505DC",
  "uZ c #A70606DB",
  "y+ c #A70704E8",
  "yT c #A80303E7",
  "tS c #A80303F1",
  "uS c #A80303F2",
  "tD c #A80303F3",
  "yn c #A80303F5",
  "y_ c #A80404C4",
  "uv c #A80404F0",
  "t4 c #A8A49FFF",
  "u2 c #A90404AF",
  "yP c #A90404D5",
  "tx c #A90404D6",
  "y< c #A90404F5",
  "yS c #A90505D9",
  "t[ c #A90505F4",
  "yz c #A90505F6",
  "up c #A90606B7",
  "tb c #A90705FC",
  "rv c #A9AAA7F5",
  "y@ c #AA000003",
  "tE c #AA000006",
  "y5 c #AA000009",
  "yd c #AA00000F",
  "tH c #AA000012",
  "y= c #AA0505F2",
  "yX c #AA0505FB",
  "tF c #AA0606D6",
  "uy c #AA0606F6",
  "rz c #AAACA7F6",
  "tY c #AB0505FF",
  "y^ c #AB0606D7",
  "ya c #AB0606F4",
  "uq c #AB0606F5",
  "y> c #AB0707F4",
  "y* c #AC0707F1",
  "u% c #AC0707F4",
  "u8 c #AC0707F5",
  "t^ c #AC150CFF",
  "tM c #AD170FF6",
  "te c #AD4F46FF",
  "ye c #AE0808F1",
  "rr c #AEAFACF6",
  "y( c #B00A0AEF",
  "rb c #B0B1ADF6",
  "tw c #B1B0ADFF",
  "y7 c #B20C0CFF",
  "td c #B25F5DFF",
  "ur c #B30D0DF2",
  "tT c #B3160EF7",
  "t| c #B40D0DF0",
  "yF c #B50D0DF1",
  "y| c #B50E0EEF",
  "u6 c #B50F0FF2",
  "tQ c #B51910F8",
  "r` c #B5B7B4F7",
  "yk c #B6000007",
  "t= c #B6B7B4FF",
  "t6 c #B7ADAAFF",
  "rl c #B7B8B5F8",
  "t; c #B8B9B7FF",
  "yA c #B91111F1",
  "y2 c #B91111F5",
  "t% c #B9BAB7F9",
  "y[ c #BA1212F7",
  "tK c #BB1212F6",
  "yh c #BB1313F5",
  "u= c #BB1313F6",
  "yI c #BB1414F5",
  "uX c #BC1313F2",
  "y- c #BD1313F3",
  "tf c #BE1B15FF",
  "tZ c #BF1C17FB",
  "uz c #C01818F7",
  "rI c #C0C0BEFB",
  "u, c #C11818F4",
  "u# c #C11818F5",
  "t_ c #C11818F6",
  "yi c #C11818F7",
  "yN c #C11818F8",
  "y% c #C11D18FD",
  "rT c #C1C2BFFB",
  "yE c #C21919F7",
  "r, c #C2C3C0FB",
  "yK c #C31919F6",
  "r) c #C3C4C2FB",
  "rq c #C5C6C2FD",
  "r7 c #C6C6C3FD",
  "r3 c #C7C8C6FD",
  "yw c #C8221EFF",
  "6H c #CACAC9FF",
  "tX c #CACBC9FF",
  "rJ c #CBCBC9FD",
  "t! c #CC1D1DFF",
  "tU c #CD2121FF",
  "y& c #CE2522FF",
  "ud c #CF2323FD",
  "u3 c #CF2323FE",
  "ta c #CF2523FE",
  "t# c #CFCFCEFF",
  "tV c #D12020FF",
  "t} c #D22424FF",
  "yO c #D22525FF",
  "5u c #D2D2D0FF",
  "yb c #D32D29FF",
  "ts c #D34343FF",
  "r[ c #D3D4D1FF",
  "tn c #D52626FF",
  "ue c #D52828FF",
  "tL c #D62828FF",
  "tC c #D72727FF",
  "t{ c #D72828FF",
  "yg c #D72929FF",
  "6% c #D7D7D5FF",
  "t~ c #D82727FF",
  ",B c #D8D8D8FF",
  "uc c #D92B2BFD",
  "tg c #DA2828FF",
  "th c #DA2A28FF",
  ",m c #DADADAFF",
  "y] c #DB2C2CFF",
  "rg c #DBDBD8FF",
  "t5 c #DBDBDAFF",
  ",v c #DBDBDBFF",
  "y1 c #DC2D2DFF",
  "yo c #DC2E2EFF",
  ",^ c #DCDCDCFF",
  "uw c #DD2D2DFF",
  "ui c #DD2F2FFE",
  "u7 c #DD2F2FFF",
  "6s c #DDDDDCFF",
  "=b c #DDDDDDFF",
  "ra c #DDDEDCFF",
  "y; c #DE2E2EFF",
  "yD c #DE3030FF",
  "&v c #DEDEDDFF",
  "=P c #DEDEDEFF",
  "yR c #DF3030FF",
  "rH c #DFDFDEFF",
  "={ c #DFDFDFFF",
  "tm c #E02F2FFF",
  "y: c #E03030FF",
  "yB c #E03131FF",
  "6j c #E0E0DFFF",
  "&_ c #E0E0E0FF",
  "yJ c #E13131FF",
  "u4 c #E13232FF",
  "+Z c #E1E1E1FF",
  "eU c #E1E2E1FF",
  "t) c #E23333FF",
  "%; c #E2E2E0FF",
  "+A c #E2E2E2FF",
  "0T c #E33333FF",
  "y~ c #E33434FF",
  "&3 c #E3E3E2FF",
  "+S c #E3E3E3FF",
  "36 c #E3E4E2FF",
  "tI c #E43333FF",
  "%- c #E4E4E2FF",
  "rt c #E4E4E3FF",
  "&K c #E4E4E4FF",
  "tP c #E53333FF",
  "yp c #E53535FF",
  "y` c #E53636FF",
  "%h c #E5E5E3FF",
  "#* c #E5E5E4FF",
  ";3 c #E5E5E5FF",
  "6A c #E6E6E5FF",
  ";b c #E6E6E6FF",
  "&. c #E7E7E6FF",
  "y8 c #E93838FF",
  "uf c #EC3B3BFF",
  "u$ c #EC3C3CFF",
  "yx c #ED3C3CFF",
  "uu c #ED3D3DFF",
  "ug c #F13F3FFF",
  "t/ c #F24141FF",
  "t( c #F34141FF",
  "ux c #F44242FF",
  "u< c #F44343FF",
  "3j c #FFFFFF01",
  "   c none",
  
  // Image data
  "              rOeBr+                        r@eBr#              ",
  "            r$r%r&r*                      r=r-r;r:              ",
  "            r>r,%-r<r1                  3jr2r3&3r4r1            ",
  "          r5r6&.+Sr7r8                  r9r06A+Zrqrw            ",
  "          rerrrt+A6Aryru              rirp6s&_&_rars            ",
  "          rdrf36+A+Zrgrhrj            rkrl+Z={+Arzrx            ",
  "            rcrv&K&_&3rbrn          rmrMrt=P={6%rNr+            ",
  "            e_rB6%+Z&_%hrVrC      rZrA5u={=P#*rSrD              ",
  "              rFrG&.={rHrJrK3j    rLrP+A=b={rIrU                ",
  "                rYrT&_=P&Kr0rR  rErW+A,^,^%;r%rQ                ",
  "                r!r~&K=b=b&vr^r/r(r)=b,v+SrPrL                  ",
  "                  r_rv&3,^={r`r'r]+S,v,^r[r{rZ                  ",
  "                  r}r|6%,^,vrtt.tX,m,m;btotO                    ",
  "                    t+t@;b,m,vt#t$,B=Pt%t&                      ",
  "                      t*r,=Pt=6jt-t;eUt:t>                      ",
  "                      rEr~;3t,6H6jt<t1t2                        ",
  "                        t3t4+S,Bt5t6t7t8                        ",
  "                      t9t0tqtwtetrtttytu                        ",
  "                    titptatstdtytftgthtjtk                      ",
  "            tltztxtctvtbtntmtMtNtBtVtCtZtAtStDtFtGtH            ",
  "          tJtctKtLtPtItUtYtTtRtEtWtQt!t~t^t/t(t)t_t`t'          ",
  "        t]t[t{t}t|y.yXyoyOy+y@  y#y$y%t!y&y*y=y-y;y:y>y,        ",
  "      t'y<y1y2y3y4y5y6y7y8y9      y0yqywyeyrytyyyuyiypyays      ",
  "    ydyfygyhyjyk    ylyzyxyc        yvybynym    ydyMyNyBtStH    ",
  "    yVyhygyCyk      yZyAyByS        ySyDyFyG      ydyHyJyKyL    ",
  "    yPt{yIyU      yYyTyRyEyW        yWyitnyQyY      y!yEy~y^    ",
  "    y/0Ty(y)    yYy_t_y`t`y'        tHtcy]y[y{yY    y}y|t/u.    ",
  "    tc0TuXuouOu+u@u#u$u%u&+r+K@o@o@o+Ku*yay:u=u-u;u:u>u,u<u1    ",
  "    u2u3u4yau5u6u7ypu8u9+Nereg*F*F*Fegeru0uquwueurutuyuuuiup@.  ",
  "  @Xuausudufug0TyEuhuj*^*X*G:h9v*(9v:h*G*Xukuluzu4uxuxucuvub*!@.",
  "    O`unumt`uhuMuNuB&E*~er*F9xee*^ee9x*Fer*~uVuCuZuAuSuDuF+e+j  ",
  "          +jO`@X@*+(+h:l+B+K*'*k*k*'@o+r+B+::k*7+e@.+j          "
};
