/* XPM */
const char *xpm_tango_actions_edit_find_replace[] = {
  // Header (width height colors chars-per-pixel)
  "32 32 494 2",
  
  // Colors (code mode value)
  "+j c #00000001",
  "O` c #00000002",
  "@* c #00000007",
  "*! c #00000008",
  ":k c #0000000C",
  "+h c #0000000D",
  "+: c #0000000E",
  ":l c #0000000F",
  "@o c #00000014",
  "+k c #00000016",
  "*k c #00000017",
  "*] c #00000018",
  "+| c #0000001B",
  "*Q c #0000001D",
  "+/ c #00000023",
  ":j c #00000029",
  ":d c #00000030",
  ":s c #00000031",
  ":h c #0000003B",
  "*6 c #00000040",
  "*( c #00000042",
  "*9 c #00000046",
  ":f c #00000047",
  ":g c #0000004A",
  ":a c #33333381",
  "5& c #3466A4FF",
  "3p c #3566A4FF",
  ":y c #37373778",
  "fF c #406EA9FF",
  "ff c #4170ABFF",
  "fP c #4270ABFF",
  "gg c #4371AAFF",
  "f@ c #4674ACFF",
  "g9 c #4873AAFF",
  "3I c #4876AEFF",
  "8K c #4A76AEFF",
  "f4 c #4A77ACFF",
  "f= c #4B77AEFF",
  ":- c #4C4C4CFF",
  "f: c #4C79B0FF",
  "f~ c #4D76ABFF",
  "d| c #4D78AEFF",
  "fV c #4E7AB1FF",
  ";E c #515151FF",
  ":t c #525252F2",
  ":r c #535353F1",
  ":e c #545454FF",
  "gT c #5540150C",
  ":u c #575757F6",
  ":w c #575757FF",
  ":p c #585858F7",
  ":i c #585858FF",
  "f. c #5880B2FF",
  "h< c #594B33FF",
  ">' c #595959FF",
  "gS c #5980B2FF",
  "fb c #5981B2FF",
  ":q c #5A5A5AFF",
  "5| c #5B5B5BFF",
  "j: c #5C410CFF",
  "5{ c #5C5C5CFF",
  "f[ c #5C84B6FF",
  "5[ c #5D5D5DFF",
  ":0 c #5E5E5EFF",
  "6_ c #60606052",
  "f/ c #61625FFF",
  "fH c #61635FFF",
  "f' c #63470E24",
  "6` c #636363EF",
  "f) c #655027FF",
  "6( c #656565FF",
  "gG c #656763FF",
  "6) c #666666F2",
  "fu c #678FBEFF",
  "g} c #684A0D9B",
  "6/ c #696969FF",
  "h$ c #696B67FF",
  "gY c #6A490FC1",
  "gC c #6B4B0EB8",
  ">( c #6C6C6CFF",
  "fm c #6C6D6AFF",
  "f9 c #6C90BCFF",
  "f* c #6E94C0FF",
  "f` c #6F4F14D6",
  "6^ c #707070FF",
  "g: c #714E10CB",
  "h% c #71736FFF",
  ">H c #747474FF",
  "j+ c #755A26FF",
  "h# c #757773FF",
  "g@ c #7698C3FF",
  "gz c #7699C2FF",
  "gi c #774A0FE7",
  "hM c #775B25FF",
  ",k c #777777FF",
  ";v c #787878FF",
  "he c #795D26FF",
  "h{ c #7A5D25FF",
  "gq c #7A7D77FF",
  "h7 c #7B6233FF",
  "=1 c #7B7B7BFF",
  "gh c #7B9DC6FF",
  "f_ c #7C5A21E5",
  "h( c #7C5C1FFF",
  "hQ c #7C5F26FF",
  "hl c #7C622FFF",
  "hH c #7C7E7AFF",
  "ge c #7D6130FF",
  "hd c #7D6330FF",
  "hA c #7D6536FF",
  "h, c #7E5F23FF",
  "gn c #7E612AFF",
  "j* c #7E622CFF",
  "j$ c #7E6533FF",
  "j> c #7E6536FF",
  "=< c #7E7E7EFF",
  "f3 c #7EA0C5FF",
  "gZ c #7F807DFF",
  "9/ c #80800002",
  "@> c #80808002",
  "r+ c #8080800C",
  "fv c #80A0C2FF",
  ";@ c #818181FF",
  "gK c #826428FF",
  "hL c #826429FF",
  ",x c #828282FF",
  "g( c #828380FF",
  "gv c #838481FF",
  "g* c #846B3AFF",
  "-^ c #848484FF",
  "f{ c #84A7CDFF",
  "g{ c #855C34FF",
  "g| c #85858519",
  ",! c #868686FF",
  "gQ c #868883FF",
  "g# c #869EB9FF",
  "hT c #876420FF",
  "-K c #878787FF",
  "ht c #878884F1",
  "h. c #878984D2",
  "hG c #878984F2",
  "g, c #878984FF",
  "hF c #878A84B0",
  "gR c #878A84B2",
  "f! c #87A2C0FF",
  "h1 c #888985AD",
  "g/ c #888A87FF",
  "g8 c #88A0BDFF",
  "g2 c #88A6C7FF",
  "hD c #8989801C",
  "-Y c #898989FF",
  "g% c #898A88FF",
  "-v c #8A8A8AFF",
  "h_ c #8C7547FF",
  "3, c #8C8E89FF",
  "f7 c #8C8F89FF",
  "hZ c #8D651BFF",
  "-i c #8D8D8DFF",
  "fo c #8E8F8BFF",
  "fO c #8E908BFF",
  "-, c #8F8F8FFF",
  "ga c #8F908DFF",
  "j. c #907132FF",
  ",Q c #909090FF",
  "hb c #90928DFF",
  "3< c #90928EFF",
  "=[ c #919191FF",
  "d] c #91938FFF",
  "ha c #919490FF",
  "g_ c #927030FF",
  "3> c #92948FFF",
  "h@ c #929490FF",
  "fc c #92ACC7FF",
  "=L c #939393FF",
  "h* c #947F56FF",
  "=v c #949494FF",
  "d} c #94ACC8FF",
  "=& c #95959552",
  "<' c #959595FF",
  "f; c #959693FF",
  "h& c #959694FF",
  "3g c #959792FF",
  "hk c #966B1AFF",
  ",F c #979797FF",
  "g3 c #97AEC7FF",
  "hR c #98845DFF",
  "=0 c #989898EF",
  "h) c #998B6DFF",
  "j; c #9A8968FF",
  "=* c #9A9A9AF2",
  ":^ c #9A9A9AFF",
  "h4 c #9A9D99FF",
  "f# c #9AB5D4FF",
  ",D c #9B9B9BFF",
  "fK c #9B9E98FF",
  "f5 c #9B9E99FF",
  "gU c #9D4B23FB",
  ">K c #9D9D9DFF",
  "fs c #9D9F99FF",
  "gJ c #9E927BFF",
  "hO c #9E9F9BFF",
  "gE c #9EA09CFF",
  "g4 c #9EB1C5FF",
  ",H c #9F9F9FFF",
  "fQ c #9FB2C6FF",
  "hm c #A09A8EFF",
  "hw c #A1721AFF",
  "h= c #A17E39FF",
  "j& c #A17F3AFF",
  "fD c #A1BBD8FF",
  "fy c #A1BDDAFF",
  "31 c #A2A3A0FF",
  "d[ c #A2A4A0FF",
  "fW c #A2B3C5FF",
  "ho c #A3A4A0FF",
  "h5 c #A3A4A1FF",
  "fN c #A4A6A1FF",
  "h[ c #A5751BFF",
  "j= c #A59371FF",
  "j< c #A59679FF",
  "1M c #A5A5A4FF",
  "g5 c #A5B5C5FF",
  "-6 c #A6A6A6FF",
  "hX c #A6A8A4FF",
  "g) c #A79777FF",
  "h| c #A7A091FF",
  "f6 c #A7A8A7FF",
  "34 c #A8AAA6FF",
  "gD c #A8BACEFF",
  "f} c #A8C2DCFF",
  "-` c #A9A9A9FF",
  "gW c #A9AAA6FF",
  "gj c #A9C0DAFF",
  ",C c #AAAAAAFF",
  "4Q c #AAABA8FF",
  "fX c #AABCD0FF",
  "6' c #ABABABFF",
  "35 c #ABADA9FF",
  "g6 c #ABB7C3FF",
  "fE c #ABBACAFF",
  "h> c #AC7A1DFF",
  "jO c #AC8C44FF",
  "g7 c #ACB8C4FF",
  "<v c #ADADADFF",
  ",Z c #AEAEAEFF",
  "hi c #AEAFADFF",
  "fi c #AEBFD2FF",
  "fS c #AEC5DCFF",
  "f0 c #AEC5DEFF",
  "f& c #AEC5DFFF",
  "h/ c #AF7C1DFF",
  ">) c #AFAFAFFF",
  "hp c #AFB0AEFF",
  "gl c #AFC3DAFF",
  "h8 c #B08B43FF",
  "<P c #B0B0AFFF",
  ">F c #B0B0B0FF",
  ":& c #B1B1B1FF",
  "<s c #B3B3B3FF",
  "gV c #B43915FE",
  "h6 c #B4B3B0FF",
  ";8 c #B4B4B4FF",
  "gs c #B4B5B2FF",
  "g$ c #B4B8B3FF",
  "j, c #B5AA97FF",
  "hW c #B5B1ABFF",
  "j@ c #B6B1A7FF",
  "=p c #B6B6B6FF",
  "gH c #B6B7B6FF",
  "f| c #B6CBE0FF",
  ",S c #B7B7B7FF",
  "9m c #B8B8B8FF",
  "h3 c #B9BAB8FF",
  "50 c #B9BBB6FF",
  "fI c #B9CEE4FF",
  "hY c #BA841FFF",
  "h2 c #BABCB7FF",
  "fA c #BACDE1FF",
  "g[ c #BB7F29FF",
  "g. c #BBCDE0FF",
  "hK c #BCB2A1FF",
  "fx c #BCCCDCFF",
  "gk c #BCCDE0FF",
  "f2 c #BCCEE0FF",
  "<W c #BDBDBDFF",
  "hn c #BDBEBCFF",
  "<1 c #BEBEBEFF",
  "32 c #BEBFBDFF",
  "hv c #BEC0BCFF",
  "30 c #BEC1BCFF",
  "j% c #BFB090FF",
  ";= c #BFBFBFFF",
  "h+ c #BFC0BEFF",
  "hx c #BFC1BCFF",
  "gc c #BFC1BEFF",
  "hf c #C09951FF",
  "gN c #C0B6B6FF",
  ";g c #C0C0C0FF",
  "5( c #C0C1BFFF",
  "gX c #C0CFE0FF",
  "g+ c #C0D0E2FF",
  "hC c #C18920FF",
  ";U c #C1C1C1FF",
  "gM c #C2C0C0FF",
  ";Z c #C2C2C2FF",
  ":* c #C3C3C3FF",
  "f$ c #C3D5E7FF",
  ":6 c #C4C4C4FF",
  "g< c #C4C7C2FF",
  "fR c #C4CFDBFF",
  ";Y c #C5C5C5FF",
  "fB c #C5CFD5FF",
  "gf c #C5D0DCFF",
  "gr c #C6AC9BFF",
  "f% c #C6D7E8FF",
  "hj c #C78D21FF",
  "f1 c #C7D6E5FF",
  "fM c #C8C8C7FF",
  ":7 c #C8C8C8FF",
  "g= c #C99D7AFF",
  "fL c #C9D1D2FF",
  "go c #C9D6E3FF",
  "gO c #C9D6E4FF",
  "+* c #C9D7E6FF",
  "ft c #C9D9EAFF",
  "hq c #CA8F22FF",
  "h` c #CAB579FF",
  "h} c #CAC2AFFF",
  "gb c #CAC3B5FF",
  "h: c #CB9022FF",
  "h^ c #CB9023FF",
  "g] c #CB9124FF",
  "3; c #CBCBCAFF",
  "+a c #CBCBCBFF",
  "fa c #CBCCCBFF",
  "3Y c #CBCDC9FF",
  "f+ c #CBD5E1FF",
  "hU c #CC9226FF",
  "hN c #CCA45DFF",
  "#+ c #CCCCCCFF",
  "g1 c #CCD4DAFF",
  "fz c #CCD8E4FF",
  "fU c #CCD9E7FF",
  "hV c #CD952CFF",
  "gm c #CDB7A0FF",
  "5y c #CDCDCCFF",
  "gF c #CDCECBFF",
  "gd c #CDCFCAFF",
  "gA c #CDCFCBFF",
  "fY c #CDD9E5FF",
  "4w c #CDDCECFF",
  "hs c #CECBC4FF",
  ";_ c #CECECEFF",
  "fJ c #CECFCEFF",
  "fT c #CED8E4FF",
  "hh c #CF9934FF",
  "t# c #CFCFCEFF",
  "+c c #CFCFCFFF",
  "gp c #D0D1CFFF",
  "f< c #D0DDE9FF",
  "hr c #D1C9BBFF",
  "+b c #D1D1D1FF",
  "fg c #D1DEEDFF",
  "fr c #D1DFEDFF",
  "gI c #D2946DFF",
  "h0 c #D29E3EFF",
  "g> c #D2D2D1FF",
  ",V c #D2D2D2FF",
  ",, c #D3D3D3FF",
  "fl c #D3DEE9FF",
  "h; c #D4A449FF",
  "h] c #D4AB52FF",
  "hP c #D4AE67FF",
  ",n c #D4D4D4FF",
  "h~ c #D6A852FF",
  ",N c #D6D6D6FF",
  "%f c #D6D7D6FF",
  "hu c #D6DAD2FF",
  "4< c #D6E1EDFF",
  "g' c #D7A954FF",
  "gL c #D7B06AFF",
  ",M c #D7D7D7FF",
  "4! c #D7D8D5FF",
  "f^ c #D7D9D3FF",
  "$t c #D8D8D7FF",
  ",B c #D8D8D8FF",
  "f, c #D8E3EDFF",
  "hI c #D9AD5CFF",
  "gP c #D9AE5FFF",
  "gw c #D9D5CDFF",
  ",b c #D9D9D9FF",
  "gx c #D9DFE2FF",
  "fe c #D9E4F0FF",
  "h! c #DAB76FFF",
  ",m c #DADADAFF",
  "3t c #DADCD9FF",
  "oI c #DAE5F1FF",
  "hB c #DBB265FF",
  "t5 c #DBDBDAFF",
  ",v c #DBDBDBFF",
  "g^ c #DBDCD9FF",
  "fk c #DBE4EDFF",
  "fZ c #DBE5EFFF",
  "hg c #DCB56CFF",
  "g` c #DCB771FF",
  ",^ c #DCDCDCFF",
  "g0 c #DCE0DEFF",
  "4t c #DCE6F0FF",
  "fC c #DCE7F1FF",
  "h9 c #DDB770FF",
  "=b c #DDDDDDFF",
  "h- c #DEB873FF",
  "j1 c #DEDAD2FF",
  "=P c #DEDEDEFF",
  "f> c #DEE7F0FF",
  "hz c #DFDBD4FF",
  "={ c #DFDFDFFF",
  "fp c #DFE0DDFF",
  "fj c #DFE8F0FF",
  "&_ c #E0E0E0FF",
  "fh c #E0E8F1FF",
  "jX c #E1CF95FF",
  "jo c #E1D198FF",
  "g& c #E1DEDAFF",
  "+Z c #E1E1E1FF",
  "hy c #E1E3DEFF",
  "hc c #E1E4DFFF",
  "fw c #E1EAF3FF",
  "+A c #E2E2E2FF",
  "hJ c #E2E3E2FF",
  "f] c #E2E5DFFF",
  "3U c #E2E7EBFF",
  "+S c #E3E3E3FF",
  "36 c #E3E4E2FF",
  "fd c #E3E7E8FF",
  "&K c #E4E4E4FF",
  ";3 c #E5E5E5FF",
  ";b c #E6E6E6FF",
  "h' c #E7E1B7FF",
  ";G c #E7E7E7FF",
  "g! c #E7E9E6FF",
  ":# c #E8E8E8FF",
  "f- c #E8EBEEFF",
  "j- c #E9E7E3FF",
  ":2 c #E9E9E9FF",
  "fG c #E9EBE8FF",
  "fq c #E9F0F7FF",
  ",$ c #EAEAEAFF",
  "39 c #EAECE9FF",
  "3H c #EAF0F7FF",
  "g; c #EB7A6AFF",
  ":, c #EBEBEBFF",
  "5; c #EBECEAFF",
  "hS c #ECEAE7FF",
  "j# c #ECECEBFF",
  ":> c #ECECECFF",
  "3f c #ECEDEBFF",
  ";9 c #EDEDEDFF",
  ":< c #EEEEEEFF",
  "3B c #EEEFECFF",
  "5- c #EEF1F2FF",
  "d{ c #EEF1F3FF",
  "6Y c #EFEEEDFF",
  ";A c #EFEFEFFF",
  "fn c #EFF0EFFF",
  ";T c #F0F0F0FF",
  ";` c #F1F1F1FF",
  "f8 c #F1F2F0FF",
  "f( c #F3F2F0FF",
  ":O c #F3F3F3FF",
  "gt c #F4ACACFF",
  "hE c #F4F4F3FF",
  ":3 c #F4F4F4FF",
  "=a c #F5F5F5FF",
  "3S c #F5F6F6FF",
  "+W c #F6F6F6FF",
  ":9 c #F7F7F7FF",
  ";R c #F8F8F8FF",
  "37 c #F8F9F8FF",
  "3y c #F8F9F9FF",
  ";S c #F9F9F9FF",
  "g~ c #FAFAF9FF",
  ":5 c #FAFAFAFF",
  "38 c #FAFBFAFF",
  "gB c #FB2929FF",
  ";Q c #FBFBFBFF",
  ";2 c #FCFCFCFF",
  "=q c #FDFDFDFF",
  "58 c #FDFEFDFF",
  "=w c #FEFEFEFF",
  "gu c #FF3232FF",
  "gy c #FF6D6DFF",
  "g- c #FFB8B8FF",
  "   c none",
  
  // Image data
  "                                                                ",
  "                                                                ",
  "        =&=*,D>K,H>K,D,F=v,Q-i-Y,!,x=<=1,k>H6^>(6/6(6)6_        ",
  "        =0=q=w=w:5=w=w=q=q=q=q;2;2;2;Q;Q;Q;Q:5:5:5;S;S6`        ",
  "        =v=w=b=P,v;b=b32313<3,3>345y+S&K&K&K&K&K&K+S;S:0        ",
  "        =L=w=P={,^3;d]303938=w373635d[t5;3;3;3;3;3;3;S:0        ",
  "        =[=w={&_5(3g3fd{d}d|3pf.fX3y3tfo=p<W<W;g;b;b;S:0        ",
  "        -,=w&_%ffO3Bf+f@f#f$f%f&f*f=f-4!f;;b;G;G;G;G;S5[        ",
  "        -i=q&_4Q3Y3Uf:+*f>f,f<f1f2f3f43Sf5f6<1;U:#:#;S5{        ",
  "        -v=q=bf7f8f9f03Hfqfwfefrftfyfufifpf;:2:2:2:2;S5|        ",
  "        -K=qfafsfdfffgfhfjfkflfzfxfcfvfbfnfm;=;Z,$,$;S:q        ",
  "        -^=qfMfNfBfV4woIfC4tfZ4<fAfSfDfFfGfH:,:,:,:,;S>'        ",
  "        ;@=qfJfKfLfPfIfUfYfTfRfEfWfQf!f~f^f/;=:*:>:>f(f)f_f`f'  ",
  "        =<;2+Zfof]f[f{f}f|g.gXgogOg+g@g#g$g%;9;9;9g&g*g=g-g;g:  ",
  "        =1;2g>g,g<g13Ig2g3g4g5g6g7g8g9g0gq1M;g:6gwgegrgtgygugi  ",
  "        ;vgpgagsgdf8gfggghgjgkglgz8Kgxgcgv;A;AgbgngmgMgNgBgVgC  ",
  "      @>gZ3g<P,D:^gA5;5-d}d|5&gSgD37gFgGgH;UgJgKgLgPgI=pgUgYgT  ",
  "    r+gRgE>F=[,!6'gWgQ50g!g~58:9g^g/g(+A;`g)g_g`g'g]g[g{g}9/    ",
  "  g|h.hX<v-v-i,ZhohO+Zh+h@h#h$h%h&t#;`6Yh*h=h-h;h:h>h,h<        ",
  "  h1h2h3-^<'>)h4h5,m,b;8>F:&<s;8,S9mh6h7h8h9h0hqhwhehr:-        ",
  "  hthyhuhihphah&5y+b#++a+a#++b,N,Bhshdhfhghhhjhkhlhz;R:-        ",
  "  gRhxhchvhbhn,M;_,,+c,C-6-`,C<vhmhMhNhBhVhChZhAhS:3;R:-        ",
  "  hDhFhGhHhJ+S+Z,m+A=b=b=P&_+ShKhLhPhIhUhYhThRhE+W=a;R:-        ",
  "        :0:5:#:2;3;A:>:*;g;UhWhQh!h~h^h/h(h);Y:7:9=a;R:-        ",
  "        :q;S:#:2;3;A:>;9:<;Th_h`h'h]h[h{h};S;S;R:9+W;R:-        ",
  "        :w;S:#:2;3;A:>:*;gh|j.jXjojOj+j@;R;S;S;R:9+W;R:-        ",
  "        :e;S:#:2;3;A:>;9j#j$j%j&j*j=j-+W:9;R;R;R:9+W;R:-        ",
  "        ;E;S:#:2;3;A:>;9j;j:j>j,$t,N,,,V,n,M,^+Z;b,$:3:-        ",
  "      +::r;R+W:9:3;R:9hEj<j1:O;T:>:2;G;G:#:2:>;T:O+W;R:t*]@*    ",
  "    +h+/:y:u:i:i:i:i:i:i:i:i:i:i:i:i:i:i:i:i:i:i:i:i:p:a:s+|O`  ",
  "    @**Q:d*6:f:g:g:g:g:g:g:g:g:g:g:g:g:g:g:g:g:g:g*(*9:h:j:k    ",
  "        @*:l+k*k*k*k*k*k*k*k*k*k*k*k*k*k*k*k*k*k*k@o:l*!+j      "
};
