/* XPM */
const char *xpm_tango_actions_edit_delete[] = {
  // Header (width height colors chars-per-pixel)
  "32 32 536 2",
  
  // Colors (code mode value)
  "+j c #00000001",
  "O` c #00000002",
  "@. c #00000003",
  "@* c #00000007",
  "*7 c #00000009",
  "+> c #0000000B",
  "+h c #0000000D",
  "+B c #00000011",
  "+K c #00000013",
  "+k c #00000016",
  "*k c #00000017",
  "*] c #00000018",
  "@= c #0000001C",
  "9b c #0000001E",
  "+/ c #00000023",
  "*` c #00000024",
  "ee c #0000002D",
  "&W c #00000034",
  "d^ c #1010104F",
  "p; c #204986AE",
  "p= c #204A85E2",
  "i- c #204A8704",
  "uU c #204A8705",
  "uK c #204A8707",
  "u] c #204A870F",
  "uL c #204A8717",
  "iH c #204A8718",
  "u~ c #204A871A",
  "uI c #204A871F",
  "i; c #204A872F",
  "p* c #204A8730",
  "iQ c #204A8734",
  "ih c #204A8758",
  "u[ c #204A8776",
  "p- c #204A87FF",
  "uT c #204B88FB",
  "io c #214B8875",
  "i! c #214B88CD",
  "u' c #214C89F5",
  "u! c #224C8965",
  "uY c #224C897C",
  "ij c #224C8992",
  "uQ c #224C89EF",
  "u^ c #224C89F7",
  "i= c #224C8AEB",
  "iJ c #224D8ADB",
  "d/ c #23272341",
  "iG c #234D89F7",
  "im c #234D8AD7",
  "iO c #234D8ADF",
  "uR c #234D8AF6",
  "d' c #24272461",
  "i1 c #243953FF",
  "i2 c #243954FF",
  "iM c #244E8CCE",
  "uW c #244E8CF4",
  "dx c #25252528",
  "i3 c #263B56FF",
  "i4 c #263B57FF",
  "i5 c #273D59FF",
  "i6 c #273E5AFF",
  "i7 c #283E5BFF",
  "i8 c #283F5DFF",
  "i: c #28528EF3",
  "i9 c #29405EFF",
  "i0 c #29415FFF",
  "p& c #29518CF3",
  "iq c #2A4261FF",
  "iw c #2B4362FF",
  "ie c #2B4463FF",
  "ig c #2B5793F3",
  "ir c #2C4565FF",
  "it c #2D4666FF",
  "iy c #2D4768FF",
  "iu c #2E4869FF",
  "ii c #2E496AFF",
  "ip c #2F4A6CFF",
  "iW c #2F5892F0",
  "ia c #304B6DFF",
  "iX c #325F9CF5",
  "dG c #33333063",
  "i* c #395983FF",
  "u{ c #3965A2F5",
  "i< c #3B5D88FF",
  "is c #3C5074FF",
  "i@ c #406492FF",
  "d` c #4145418C",
  "d( c #42444286",
  "d) c #4546439B",
  "d_ c #45474499",
  "dH c #48494688",
  "iR c #4877B3FF",
  "iI c #4878B5FF",
  "8# c #49494907",
  "iU c #4976B2FF",
  "iP c #4978B5FF",
  "dz c #4A4C4760",
  "d4 c #4B514B29",
  "u` c #4C7DBCFF",
  "a/ c #50505010",
  "ik c #5179B1FB",
  "aM c #52525219",
  "8S c #53535322",
  "d@ c #53585337",
  "d- c #5359532E",
  "s} c #54585440",
  "in c #5477AEFF",
  "u/ c #5485C5FF",
  "pK c #55555033",
  "pd c #5555513C",
  "#P c #55555503",
  "<* c #5555550C",
  "aX c #5555552A",
  "iL c #5581BAFF",
  "sL c #585C584B",
  "i~ c #587BABFE",
  "iV c #588ACAFF",
  "p: c #59594D14",
  "u( c #598BCBFF",
  "aN c #5A5D5871",
  "i, c #5A8BCBFF",
  "i+ c #5B86C1FF",
  "d+ c #5C5E5A6C",
  "sg c #5C5F5956",
  "a( c #5C5F5A69",
  "id c #5C85C2FF",
  "d= c #5D5F5A63",
  "s> c #5D605A60",
  "d3 c #5E5E585A",
  "if c #5E8ECCFF",
  "d~ c #5F5F5DB2",
  "iz c #5F81BCFF",
  "u} c #6090CDFF",
  "aq c #6365617D",
  "s{ c #64666378",
  "i# c #646763FF",
  "iC c #667AB0FF",
  "iE c #668DC1FF",
  "iB c #6794CEFF",
  "ao c #686A668C",
  "i% c #6A6B67FF",
  "p% c #6A8CB7FF",
  "iT c #6B5178FF",
  "i$ c #6B6D69FF",
  "dc c #6B6D6BA0",
  "p$ c #6C8EB9FF",
  "i& c #6D6E6AFF",
  "p# c #6D8FBAFF",
  "p@ c #6E8FBAFF",
  "iY c #704D72FF",
  "p+ c #7091BBFF",
  "pO c #7191BBFF",
  "po c #7192BBFF",
  "pL c #72737197",
  "i. c #727470FF",
  "u| c #727676FF",
  "pX c #7393BCFF",
  "il c #739DD3FF",
  "p. c #7494BDFF",
  "iN c #7499C8FF",
  "iF c #758BBCFF",
  "i| c #7595BDFF",
  "sK c #76777487",
  "i> c #769FD4FF",
  "i} c #7796BEFF",
  "pi c #787A76AE",
  "i{ c #7897BEFF",
  "i[ c #7998BFFF",
  "i] c #7A98C0FF",
  "iK c #7A9AC5FF",
  "pF c #7C7D7AAF",
  "i' c #7C9AC0FF",
  "i` c #7C9AC1FF",
  "u_ c #7D7F7AFF",
  "pf c #7D7F7C9D",
  "u) c #7D8181FF",
  "i_ c #7E9BC1FF",
  "i) c #7F9DC2FF",
  "i^ c #809DC2FF",
  "i( c #809DC3FF",
  "i/ c #819EC3FF",
  "sf c #83848092",
  "p1 c #838581A9",
  "pj c #848581AB",
  "uE c #868A88FE",
  "ib c #884B67FF",
  "ph c #888985AC",
  "eB c #888A85FF",
  "ix c #89425DFF",
  "p> c #898A89A2",
  "pU c #898B86A5",
  "uH c #8B8D88E5",
  "uP c #8B8D88F2",
  "p< c #8B8D89A8",
  "uG c #8D8E89D0",
  "a@ c #8D8F8A9F",
  "uJ c #8D8F8AF1",
  "pI c #8E908AA6",
  "a7 c #8F918C9E",
  "s: c #90928F9B",
  "ar c #92938E99",
  "a+ c #92948FA0",
  "a} c #92949091",
  "aC c #92949095",
  "s3 c #9597928D",
  "sE c #96979493",
  "s) c #9799958F",
  "av c #98999496",
  "sz c #9899958C",
  "ae c #999A939A",
  "s! c #999A9694",
  "d5 c #999A96A6",
  "si c #9A9B968F",
  "s_ c #9A9C978B",
  "s~ c #9B9D988B",
  "sD c #9D9E998A",
  "pp c #9D9E9BBA",
  ">P c #9E9E9EFF",
  "aQ c #9EA09B93",
  "aV c #9EA09C96",
  ",H c #9F9F9FFF",
  "sR c #9FA09B8B",
  "sY c #9FA19C89",
  "aG c #A0A09DAE",
  "s( c #A0A29D89",
  "sn c #A0A29D8B",
  "s= c #A0A29E93",
  "a^ c #A1A29EA2",
  "s^ c #A2A39E88",
  "sF c #A2A39F9B",
  "sk c #A2A4A09A",
  "a' c #A3A4A1A5",
  "sU c #A3A5A088",
  "pn c #A4A4A3D2",
  "=C c #A4A4A4FF",
  "-6 c #A6A6A6FF",
  "s` c #A6A7A287",
  "p~ c #A6A7A5CF",
  "a_ c #A7A9A397",
  "pG c #A9AAA6C1",
  "p8 c #A9AAA8D7",
  "s< c #A9ABA79B",
  "s& c #AAABA8A9",
  "d; c #AAADA9A9",
  "ic c #AB1213FF",
  "iv c #AB1314FF",
  "py c #ABACAADC",
  "s/ c #ABADA785",
  "am c #ABADA9AC",
  "pS c #ADADACDC",
  "pw c #ADADACDD",
  "d8 c #ADAFABA9",
  "a` c #AEAEACAC",
  "d9 c #AEAFABA9",
  "sv c #AEAFACA7",
  "sT c #AEB0AA84",
  "d, c #AEB0AA88",
  "sV c #AEB0ACA1",
  "d0 c #AEB0ACA9",
  "sa c #AFB0AEA7",
  "a; c #AFB0AECD",
  "s7 c #AFB1AB83",
  "de c #AFB1ADAA",
  "p6 c #B0B0AFDC",
  "dq c #B0B1ACA9",
  "dr c #B0B1AEAB",
  "p9 c #B0B1B0DD",
  "dw c #B0B2ACAA",
  "dt c #B0B2AEAB",
  "pV c #B1B1B0DC",
  "pB c #B1B1B0DD",
  "dy c #B1B2ADAB",
  "p[ c #B1B2B1D8",
  "pq c #B1B2B1E0",
  "du c #B1B3AFAC",
  "di c #B2B3AEAC",
  "da c #B2B3AFAD",
  "aE c #B2B3B0BA",
  "p_ c #B2B3B1D9",
  "pm c #B2B3B2DF",
  "s' c #B2B4AE82",
  "d7 c #B2B4AFA4",
  "dp c #B2B4AFAD",
  "dJ c #B3B3B0CA",
  "ds c #B3B4B1AD",
  "p4 c #B3B4B3DF",
  "sQ c #B3B5AF82",
  "df c #B4B5B0AE",
  "dd c #B4B5B1AD",
  "dh c #B4B5B2AF",
  "p) c #B4B5B3DB",
  "pA c #B4B5B3E1",
  "p^ c #B4B5B4DC",
  "px c #B4B5B4E0",
  "d> c #B4B6B084",
  "d# c #B5B5B4B1",
  "pu c #B5B5B4E3",
  "dg c #B5B6B1AE",
  "sG c #B5B6B293",
  "sb c #B5B7B181",
  "a0 c #B5B7B3B5",
  "ac c #B6B6B5CB",
  "=p c #B6B6B6FF",
  "pt c #B6B7B5E4",
  "pE c #B6B7B6DE",
  "a5 c #B7B7B6D5",
  "a1 c #B7B7B6D6",
  ",S c #B7B7B7FF",
  "iD c #B84C52FF",
  "9m c #B8B8B8FF",
  "p} c #B8B9B5BD",
  "p, c #B8B9B6D1",
  "pg c #B8B9B6D7",
  "a: c #B8B9B8D8",
  "p] c #B8B9B8DF",
  "pD c #B9B9B8E6",
  "dX c #B9BBB580",
  "p{ c #BABAB9E1",
  ",G c #BABABAFF",
  "sB c #BABBB8B0",
  "sj c #BABCB69C",
  "pl c #BBBBBBE5",
  "s| c #BBBCB9B9",
  "a< c #BBBCBAD8",
  "sW c #BBBDB77F",
  "a. c #BCBDBAC0",
  "dF c #BCBDBACD",
  "pz c #BCBDBCE7",
  "pT c #BDBDBCE4",
  "a& c #BDBEBCDB",
  "a6 c #BDBEBDDC",
  "p3 c #BDBEBDE7",
  "pe c #BDBEBDEA",
  "sI c #BDBFBCA2",
  "iZ c #BE4E52FF",
  "a= c #BEBEBDE1",
  "pQ c #BEBEBDE5",
  "pP c #BEBFBCD8",
  "ad c #BEBFBDD1",
  "pR c #BEBFBEE5",
  "dj c #BEC0BCB9",
  "pW c #BFBFBEE7",
  "pv c #BFBFBEE8",
  "a8 c #BFC0BCBB",
  "pa c #BFC0BDD0",
  "aa c #BFC0BED7",
  "pc c #BFC0BFEA",
  "pJ c #C0C1BECC",
  "a4 c #C0C1C0DE",
  "pk c #C0C1C0EB",
  ";U c #C1C1C1FF",
  "sP c #C1C2BEBF",
  "aj c #C1C2C0D4",
  "p` c #C1C2C1E9",
  "d. c #C1C3BEA7",
  "af c #C2C2C1D5",
  "d! c #C2C2C1D6",
  "p5 c #C2C2C2EB",
  "pC c #C2C2C2ED",
  ";Z c #C2C2C2FF",
  "a* c #C3C3C2E3",
  "pY c #C3C3C3EB",
  ":* c #C3C3C3FF",
  "ak c #C3C4C2D7",
  "ps c #C3C4C3D1",
  "s8 c #C4C4C2B9",
  "a$ c #C4C4C3E3",
  "d$ c #C4C5C0AD",
  "aO c #C4C5C2D9",
  "a% c #C4C5C4E3",
  "p0 c #C4C5C4EF",
  "dA c #C5C5C2D2",
  "d6 c #C5C5C3C6",
  "dZ c #C5C5C3D2",
  "dC c #C5C6C3D2",
  "a2 c #C5C6C5E4",
  "dV c #C6C6C3D2",
  "dS c #C6C6C4D3",
  "p2 c #C6C6C5EF",
  "pN c #C6C6C6F0",
  "sh c #C6C7C4C5",
  "dB c #C6C7C4D2",
  "dN c #C6C7C4D3",
  "d< c #C6C8C2A4",
  "dM c #C7C7C4D3",
  "dm c #C7C7C5D3",
  "ai c #C7C7C6DA",
  "d: c #C7C8C4B2",
  "dn c #C7C8C5D3",
  "p/ c #C7C8C7EF",
  "ab c #C8C8C4BA",
  "pH c #C8C8C6D7",
  "pM c #C8C8C7F2",
  ":7 c #C8C8C8FF",
  "s] c #C8C9C391",
  "aw c #C8C9C7DA",
  "aW c #C9C9C8D2",
  "p( c #C9C9C8F0",
  "p7 c #C9C9C9F3",
  ">x c #C9C9C9FF",
  "au c #C9CAC9DE",
  "s, c #CACAC8CB",
  "al c #CACAC9DE",
  ",< c #CACACAFF",
  "a) c #CACBC8D2",
  "aI c #CBCBCAD2",
  "aK c #CBCBCAD3",
  "+a c #CBCBCBFF",
  "a# c #CBCCCBEB",
  "do c #CBCDC795",
  "#+ c #CCCCCCFF",
  "a! c #CCCDC9B7",
  "db c #CCCDCAD2",
  "aB c #CCCDCAD9",
  "se c #CDCDCCC1",
  "aA c #CDCDCCD5",
  "ap c #CDCDCCE3",
  "a> c #CDCDCCEC",
  "pZ c #CDCDCDF7",
  ",2 c #CDCDCDFF",
  "d% c #CDCEC899",
  "pb c #CECECEF8",
  "pr c #CECECEF9",
  ";_ c #CECECEFF",
  "aJ c #CFCFCED6",
  "aY c #CFCFCED9",
  "p' c #CFCFCFF8",
  "ag c #D0D0CFE5",
  "a, c #D1D1D1F2",
  "s- c #D1D2CEB3",
  "sw c #D1D2D0C6",
  "aU c #D1D2D1DB",
  "aD c #D2D2D1DA",
  "ax c #D2D2D2E6",
  "p! c #D2D2D2FB",
  "p| c #D2D3D0D5",
  "sc c #D2D3D1CC",
  "s6 c #D3D3D2C8",
  "sM c #D3D3D2D2",
  "a- c #D3D3D3FC",
  "dk c #D3D4D1C6",
  "s+ c #D3D4D2D0",
  "ss c #D4D5D1B0",
  "s# c #D4D5D4D4",
  "sX c #D5D5D4D2",
  "sC c #D5D5D4D3",
  "sZ c #D5D5D4D4",
  "dv c #D5D5D4DF",
  "aL c #D6D6D5E0",
  "a3 c #D6D6D6F9",
  "sH c #D7D8D3AF",
  "dO c #D7D8D4B0",
  "st c #D7D8D7D0",
  "aS c #D8D8D7E2",
  "dl c #D8D9D5D3",
  "a9 c #D8D9D6D5",
  "s0 c #D9D9D8CF",
  "at c #D9D9D9F1",
  "d& c #D9DAD6B4",
  "d1 c #DADAD6B8",
  "sO c #DADAD9DA",
  "dD c #DBDBD9DD",
  "as c #DBDBDBFA",
  "s@ c #DCDCDCDF",
  "dQ c #DCDDDAE5",
  "dK c #DCDDDBE4",
  "s1 c #DCDDDCD7",
  "dL c #DDDDDBE5",
  "dP c #DDDDDCE5",
  "ay c #DDDDDDF5",
  "=b c #DDDDDDFF",
  "so c #DDDEDDDF",
  "dI c #DDDEDDE5",
  "an c #DEDEDCD5",
  "dY c #DEDEDCE6",
  "sN c #DEDEDDDC",
  "a| c #DEDEDDE4",
  "dU c #DEDEDDE6",
  "=P c #DEDEDEFF",
  "dT c #DEDFDDE6",
  "dR c #DFDFDDE6",
  "dE c #DFDFDEE6",
  "dW c #DFDFDEE7",
  "ah c #DFDFDFF8",
  "sl c #E0E0DFE0",
  "aP c #E0E0DFEB",
  "s. c #E0E0E0E2",
  "az c #E0E0E0F9",
  "&_ c #E0E0E0FF",
  "iS c #E17E7EFF",
  "iA c #E18080FF",
  "+Z c #E1E1E1FF",
  "sx c #E1E2E1E1",
  "sA c #E1E2E1E4",
  "+A c #E2E2E2FF",
  "a~ c #E2E3E0D6",
  "sS c #E2E3E2E5",
  "aF c #E3E3E3F5",
  "aH c #E3E3E3FA",
  "+S c #E3E3E3FF",
  "d2 c #E3E4E1D4",
  "a[ c #E3E4E3E7",
  "s* c #E4E4E3EA",
  "aT c #E4E4E4F2",
  "&K c #E4E4E4FF",
  "aR c #E5E5E5F2",
  ";3 c #E5E5E5FF",
  "s$ c #E6E6E6EA",
  ";b c #E6E6E6FF",
  "s; c #E7E7E5D6",
  "a] c #E7E7E6E9",
  "sq c #E7E7E7E6",
  "sr c #E7E7E7EA",
  "sm c #E7E7E7F4",
  "d* c #E8E8E6DA",
  "a{ c #E8E8E8F1",
  "s9 c #E9E9E9F0",
  "aZ c #EAEAEAFB",
  "sd c #EBEBE9D7",
  "sJ c #EBEBE9DB",
  "sy c #EBEBEAEA",
  "s[ c #EBECEADF",
  "s4 c #EDEDECEA",
  "sp c #EEEEEDF5",
  "s5 c #EFEFEEED",
  "su c #F0F0F0F1",
  ";` c #F1F1F1FF",
  "s% c #F2F2F2FA",
  ";' c #F2F2F2FF",
  ":O c #F3F3F3FF",
  ":3 c #F4F4F4FF",
  "=a c #F5F5F5FF",
  "+W c #F6F6F6FF",
  ":9 c #F7F7F7FF",
  "s2 c #F8F8F8FB",
  "   c none",
  
  // Image data
  "                                                                ",
  "            uGeBeBeBeBeBeBeBeBeBeBeBeBeBeBeBeBeBeBuH            ",
  "            uJ:O:9+W+W+W+W+W+W+W+W+W+W+W+W=a=a=a=aeB            ",
  "        uKuLuP;';b;3&K&K+S+S+S+S+S+A+A+A+A+Z+A+S:3eBuIuU        ",
  "      uYuTuRuE;`+S,<:*:*;Z;Z;Z;Z;Z;Z;Z;Z;U;U:7&_:OeBuWuQu!      ",
  "    u~u^u/u(u)=b;_,2#++a+a+a+a,<+a#+#++a+a+a+a,<=Pu_u(u`u'u]    ",
  "    u[u{u}u(u|>x,G-6,H,H,H,H>P>P=C9m,S,S,S,S,S=p,<i.u(u(iXio    ",
  "    iOi+u}i@i#i$i%i%i%i%i%i%i%i%i%i%i%i%i%i%i%i%i&i%i*u(u`i=i-  ",
  "  i;i:i>i,i<i1i2i3i4i5i6i7i8i9i0iqiwieiritiyiuiiipiaisidifigih  ",
  "  ijikilu(u(u(u(u(u(u(u(u(u(u(u(u(u(u(u(u(u(u(u(izixicivibinim  ",
  "  iMiNiBiViViViViViViViViViViViViViViViViViViViViCiZiAiSiDiFiGiH",
  "  iJiKiLiPiPiPiPiPiPiPiPiPiIiIiIiIiIiIiIiIiIiIiIiIiUiYiTiRiEiWiQ",
  "  i!i~i^i/i/i/i/i/i/i/i(i)i_i`i'i]i[i{i}i|p.pXpopOp+p@p#p$p%p&p*",
  "  p*p=p-p-p-p-p-p-p-p-p-p-p-p-p-p-p-p-p-p-p-p-p-p-p-p-p-p-p-p;  ",
  "    p:p>p,p<p1p2p3p3p4p5p6p7p8p9p0p7pqpwpeprptpypupipppapspd    ",
  "    <*pfpgphpjpkplpzpxpcpvpbpnpmpMpNpBpVpCpZpApSpDpFpGpHpJpK    ",
  "    #PpLpPpIpUpYpTpRpEpWpQp!p~p^p/p(p)p_p`p'p]p[p{pUp}p|a.aX    ",
  "      aoaOa+a@a#a$a%a&a*a=a-a;a:a>a,a<a1a2a3a4a5a6a7a8a9a08S    ",
  "      aqawaearatayauaiapaaasadafagahajakalazaxacafavabanamaM    ",
  "      aNaBaVaCaZaAaSaDaFaGaHaJaKaLaPaIaUaYaTaRaEaWaQa!a~a^a/    ",
  "      a(a)a_a`+Wa'a]a[a{a}a|s.sXsosOs+s@s#s$s%s&s*s=s-s;s:8#    ",
  "      s>s,s<s1s2s3s4s5s6s7s8s9s0sqswsesrstsysusispsasssdsf      ",
  "      sgshsjskslszsxscsvsbsnsmsMsNsBsVsCsZsAsSsDsFsGsHsJsK      ",
  "      sLsPsIsUsYsTsRsEs7sWsQs3s!s~s^s/s(s)szs_s`s's]sHs[s{      ",
  "      s}s|d.sWsWsWsWsWsWsWsWsWsWdXsWsWsWsWsWsWsWsWdodOs[d+      ",
  "      d@d#d$sWsWsWsWsWsWsWsWsWsWsWsWsWsWsWsWsWsWsWd%d&d*d=      ",
  "      d-d;d:d>d,d,d,d,d,d,d,d,d,d,d,d,d,d,d,d,d,d,d<d1d2d3      ",
  "      d4d5d6d7d8d9d0dqdwdedrdtdydudidpdadsdddfdgdhdjdkdldz+h    ",
  "    @.dxdcdvdbdndndmdmdMdNdNdNdBdVdVdCdCdCdCdZdZdAdSdDdFdG*`+B  ",
  "    *79bdHdJdKdLdLdPdPdIdUdYdYdYdUdUdTdTdTdRdRdEdWdQd!d~d^ee*]  ",
  "    O`+kd/d(d)d_d_d_d_d_d_d_d_d_d_d_d_d_d_d_d_d_d_d_d`d'&W+/@*  ",
  "      +j*7+k*]+K+K+K+K+K+K+K+K+K+K+K+K+K+K+K+K+K+K+K@=*k+>O`    "
};
