/* XPM */
const char *xpm_tango_actions_folder_new[] = {
  // Header (width height colors chars-per-pixel)
  "32 32 373 2",
  
  // Colors (code mode value)
  "+j c #00000001",
  "@. c #00000003",
  "*! c #00000008",
  "*7 c #00000009",
  ":k c #0000000C",
  "@: c #00000010",
  "+B c #00000011",
  "*' c #00000015",
  "+k c #00000016",
  "*Q c #0000001D",
  "*F c #0000002B",
  "ee c #0000002D",
  "*8 c #00000036",
  "ew c #00000038",
  "B% c #0000003D",
  "NE c #0000FF01",
  "B$ c #1D3A5E4F",
  "B+ c #25252530",
  "Ns c #3366A350",
  "Ne c #3465A462",
  "2} c #3465A4FF",
  "N2 c #3466A476",
  "2s c #3466A4FD",
  "B# c #3564A2EC",
  "Nx c #3565A33A",
  "NN c #3665A126",
  "BO c #3665A1D0",
  "NJ c #366BA113",
  "N& c #3766A591",
  "N[ c #3766A5F3",
  "M} c #376AA7AB",
  "B@ c #395B88FB",
  "N. c #3968A3FF",
  "N- c #3968A4FF",
  "NH c #3968A7F7",
  "ME c #3A6AA8C2",
  "N{ c #3B3B3B67",
  "MS c #3B6AA6D7",
  "N| c #3D69A0FF",
  "MQ c #3E69A1FF",
  "NW c #4040406B",
  "m] c #406D9AFF",
  "NM c #4070ACF2",
  "NK c #4141416A",
  "NB c #42424278",
  "N5 c #4472A9FF",
  "Nc c #46464679",
  "MF c #466EA0FF",
  "Nd c #48484887",
  "Mz c #4A6D9AFF",
  "Nz c #4B78B1F1",
  "Nr c #4E4E4E8F",
  "NP c #506B8CFF",
  "N! c #507098FF",
  "Ny c #5079ADFF",
  "N3 c #5151519D",
  "Bo c #5183BDFF",
  "N~ c #5586BDFF",
  "N* c #565656A3",
  "Mq c #56759BFF",
  "M| c #575757B0",
  "Mk c #577F8EEB",
  "Ng c #5780B3FF",
  "B. c #578AC2FF",
  "NI c #5887BCFF",
  "M= c #597191FF",
  "Nn c #5982B4FF",
  "N} c #5A5B5DF6",
  "Nb c #5A6C82FF",
  "Na c #5A84B7F2",
  "NZ c #5A85B9FF",
  "MW c #5C5C5CB6",
  "NC c #5D728EFF",
  "MD c #5F5F5FC2",
  "NQ c #616161F4",
  "BX c #6194CBFF",
  "Ml c #626262C6",
  "M0 c #636363D1",
  "NL c #636363F9",
  "N] c #6394CAFF",
  "N' c #6597CCFF",
  "Nt c #666F7AFF",
  "N` c #6696CCFF",
  "N_ c #6697CBFF",
  "N) c #6697CCFF",
  "N( c #6698CCFF",
  "N/ c #6798CCFF",
  "M* c #686868D5",
  "NV c #686868F8",
  "N^ c #6899CDFF",
  "m` c #696969DF",
  "Nw c #698FC0F6",
  "NT c #6999CCFF",
  "2c c #6999CDFF",
  "Nv c #6A6A6AFF",
  "Nf c #6A7788FF",
  "NR c #6A99CCFF",
  "2v c #6A99CDFF",
  "NY c #6A9ACDFF",
  "NU c #6B9ACDFF",
  "mY c #6D6D6DE3",
  "2r c #6E9CCEFF",
  "mB c #6F6F6FEC",
  "mr c #6F6F6FF6",
  "m[ c #6F8F77FF",
  "NF c #6F9DCEFF",
  "mt c #707070F6",
  "m' c #708298FF",
  "ND c #709DCEFF",
  "NS c #709ECEFF",
  "mT c #717171FF",
  "N# c #719ECEFF",
  "2p c #719ECFFF",
  "m6 c #72727293",
  ";W c #727272FF",
  "N= c #727374FF",
  "Nk c #729ECEFF",
  "Nq c #729FCEFF",
  "mj c #737373EE",
  "me c #737373F4",
  ",c c #737373FF",
  "N, c #739FCFFF",
  "m> c #74747444",
  "mw c #747474F6",
  ">H c #747474FF",
  ";F c #757575FF",
  "M9 c #759274F9",
  "N1 c #759AC6FC",
  "Ni c #75A1CFFF",
  "Nj c #75A1D0FF",
  ",l c #767676FF",
  "N0 c #76A1D0FF",
  "23 c #76A2D1FF",
  ",k c #777777FF",
  "m4 c #787878F8",
  "N9 c #78A3D0FF",
  "m$ c #797979BB",
  ",j c #797979FF",
  "N4 c #797E83FF",
  "N@ c #79A3CEFF",
  "N> c #79A4D1FF",
  "m# c #7A7A7ABC",
  ",h c #7A7A7AFF",
  "N8 c #7AA4D1FF",
  "=1 c #7B7B7BFF",
  "mR c #7C7B68FF",
  "N7 c #7CA5D2FF",
  "NA c #7CA6D2FF",
  ",z c #7D7D7DFF",
  "N: c #7DA6D2FF",
  "=< c #7E7E7EFF",
  "M] c #7EA6BCFF",
  "Mr c #7EA7D2FF",
  "=, c #7F7F7FFF",
  "M^ c #7FA7D1FF",
  "Mv c #7FA8D0FF",
  "@> c #80808002",
  "mk c #808080FF",
  "N+ c #80A8CDFF",
  "NO c #80A8CFFF",
  ";@ c #818181FF",
  "N% c #81A3CCFF",
  "No c #81A9D3FF",
  ",x c #828282FF",
  "M- c #82A4CCFF",
  "MJ c #82A9CCFF",
  "M% c #839D6BF5",
  "-^ c #848484FF",
  "NG c #84ABD5FF",
  ">` c #858585FF",
  "Nm c #85ACD5FF",
  ",! c #868686FF",
  "M~ c #86ACD5FF",
  "-K c #878787FF",
  "-O c #888888FF",
  "my c #89875EF8",
  "m: c #898989F2",
  "-Y c #898989FF",
  "-v c #8A8A8AFF",
  "M[ c #8AAFD6FF",
  "mV c #8B8B8BFF",
  "M{ c #8BABD1FF",
  ";* c #8C8C8CFF",
  "M/ c #8CAFBCFF",
  "MH c #8CB1D7FF",
  "-i c #8D8D8DFF",
  "Mw c #8DADD2FF",
  "9M c #8E8E8EFF",
  "mC c #8F8E7EFF",
  "Mt c #8FB1B7FF",
  "N$ c #8FB3D8FF",
  ",Q c #909090FF",
  "=[ c #919191FF",
  "Mc c #91B3D9FF",
  "Nl c #91B4D9FF",
  ">G c #929292FF",
  "m5 c #939393FC",
  "=L c #939393FF",
  "=v c #949494FF",
  "Np c #94B6DAFF",
  "<' c #959595FF",
  "N< c #95B6DAFF",
  "<I c #969696FF",
  "MR c #96B3D3FF",
  "Me c #96B7DBFF",
  "Mx c #97B5D7FF",
  "Nh c #97B8DBFF",
  ";f c #989898FF",
  "M' c #98B6A1FF",
  "Mb c #98B7A8FF",
  ":^ c #9A9A9AFF",
  ",D c #9B9B9BFF",
  "M( c #9BB8A4FF",
  ">P c #9E9E9EFF",
  "m{ c #9EAF57FF",
  "mE c #9F9B52FF",
  "MT c #9FBBA8FF",
  "ml c #A0A09AFF",
  "6} c #A1A1A1FF",
  "Nu c #A1BFDEFF",
  "MG c #A2BDDCFF",
  "6| c #A3A3A3FF",
  "M) c #A3BE98FF",
  "=C c #A4A4A4FF",
  "M` c #A5BE95FF",
  "M_ c #A6BF93FF",
  "mu c #A7A249F9",
  "-V c #A7A7A7FF",
  "MK c #AAC18EFF",
  "My c #AAC18FFF",
  "6' c #ABABABFF",
  "M! c #ABC4E1FF",
  "mZ c #ACA861FF",
  "MY c #ACC185FF",
  "N6 c #ACC7E2FF",
  "<v c #ADADADFF",
  "M$ c #AFBB4EFF",
  "Mn c #AFC387FF",
  "<# c #B2B2B2FF",
  "MA c #B4C8A8FF",
  "NX c #B4CBE5FF",
  "mz c #B7B479FF",
  ",S c #B7B7B7FF",
  "9m c #B8B8B8FF",
  "ML c #B8CA7AFF",
  "5X c #B9B9B9FF",
  "N; c #B9CFE6FF",
  ",G c #BABABAFF",
  "MZ c #BACB7FFF",
  "M; c #BAD0E7FF",
  ",A c #BCBCBCFF",
  "MU c #BCCC76FF",
  ";= c #BFBFBFFF",
  "mW c #C0BA3EFF",
  ";U c #C1C1C1FF",
  "MP c #C1CF6DFF",
  ";Z c #C2C2C2FF",
  ":* c #C3C3C3FF",
  "Mu c #C3D06BFF",
  "mi c #C4BE39FB",
  "MI c #C5D269FF",
  "mA c #C8C249FF",
  "MC c #C9D463FF",
  "M: c #CAD8B4FF",
  "Mj c #CCD789FF",
  "mx c #CDC85BFF",
  "m} c #CDD13DFF",
  ";_ c #CECECEFF",
  "Mh c #D0D862FF",
  "Mm c #D4DB56FF",
  "MV c #D9DD51FF",
  "M> c #D9E086FF",
  "Mi c #DADE4EFF",
  "M8 c #DCE177FF",
  "M# c #DDDC35FF",
  "mp c #DFD72EFD",
  "MM c #DFE148FF",
  "MB c #E1E346FF",
  "mQ c #E2D92FFF",
  "Mg c #E2E345FF",
  "mc c #E3DB42FF",
  "mS c #E4DC35FF",
  "MN c #E4E442FF",
  "M, c #E8E85DFF",
  "m| c #EAE741FF",
  "M7 c #ECEA4FFF",
  "M@ c #EDE951FF",
  "Mp c #EEE937FF",
  "ma c #F0E731FE",
  "M. c #F0EE70FF",
  "Mf c #F1ED39FF",
  "M+ c #F1EF81FF",
  "m! c #F2EA47FF",
  "Ma c #F2EE45FF",
  "ms c #F3EB4CFE",
  "md c #F3EC58FE",
  "Md c #F3EF4BFF",
  "Ms c #F3EF50FF",
  "mD c #F4EC44FF",
  "mv c #F5EC34FF",
  "MX c #F5F29CFF",
  "M< c #F6EF3AFF",
  "m~ c #F6F07EFF",
  "MO c #F6F4AAFF",
  "mb c #F7F05DFF",
  "mF c #F7F077FF",
  "M6 c #F7F13EFF",
  "mM c #F7F187FE",
  "mf c #F8F051F5",
  "Mo c #F8F6B8FF",
  "M1 c #F9F357FF",
  "mn c #F9F381FF",
  "M5 c #F9F463FF",
  "mJ c #F9F5B6FF",
  "M2 c #FAF575FF",
  "M4 c #FAF57DFF",
  "mm c #FAF593FF",
  "M3 c #FAF685FF",
  "mG c #FAF6A8FF",
  "m^ c #FAF6B6FF",
  "m( c #FBF8CAFF",
  "mH c #FCF9CBFF",
  "m/ c #FEFDF0FF",
  ":z c #FFEE000F",
  "M& c #FFEF0010",
  "=% c #FFEF0820",
  "mO c #FFF00723",
  "m+ c #FFF20726",
  "m3 c #FFF20951",
  ":c c #FFF20A4E",
  "m= c #FFF20D62",
  "m* c #FFF20F65",
  "@f c #FFF30015",
  ".: c #FFF30629",
  "m; c #FFF3083E",
  "m7 c #FFF30840",
  "m- c #FFF30C55",
  ":E c #FFF30F68",
  "@S c #FFF31185",
  "m9 c #FFF31699",
  "XX c #FFF3169A",
  ":v c #FFF40844",
  "m& c #FFF40E5E",
  "m2 c #FFF40F74",
  "m8 c #FFF4106F",
  "m1 c #FFF4148D",
  "=` c #FFF4148E",
  "m, c #FFF416A2",
  "m< c #FFF4179D",
  "mI c #FFF4179E",
  "-: c #FFF417A6",
  ":L c #FFF41ABB",
  "m0 c #FFF41DD3",
  "mh c #FFF41ED4",
  "mP c #FFF41EDA",
  ":F c #FFF41FD9",
  ":S c #FFF41FDE",
  "m@ c #FFF5001A",
  "m% c #FFF50535",
  "mU c #FFF50A19",
  "@A c #FFF5107E",
  ".C c #FFF51BC5",
  "mq c #FFF6091B",
  "mg c #FFF637E5",
  "mL c #FFF750E9",
  "m_ c #FFF757EA",
  "mN c #FFF865EB",
  "mK c #FFF988F0",
  "m) c #FFFA92F1",
  "X} c #FFFF0002",
  ";1 c #FFFF0003",
  "$0 c #FFFF0006",
  "   c none",
  
  // Image data
  "                                                                ",
  "                                                                ",
  "                                          @fmO.:m+m@$0          ",
  "    m#,l,l,l,l,l,l,l,l,l,lm$@>        @fm%:cm&m*m=m-m;=%        ",
  "    ,l;_:*;U;=,A,G5X9m,S,Sm:m>      m@:v:E@SXXm,m<m1m2m3.:      ",
  "    m4<#;f<I>G,Q9M;*-v-Y-Om5m6    :zm7m8m9:Lm0:S:F.C-:@Am3mq    ",
  "    mw;Z-V=C6}>P,D;f<I<'=L=vmemrmtmymumimpmamsmdmfmgmh-:m2m;X}  ",
  "    mj6',Q-i-Y-K-^,xmk=,,z,z,z=[mlmzmxmcmvmbmnmmmMmNmg.C=`m-:z  ",
  "    mB,S>P:^<I=L,Q-imV-Y-K-K,!,!mCmZmAmSmDmFmGmHmJmKmLmPmIm=mU  ",
  "    mY6|-O>`;@=<=1,j,k>H,c;WmTmTmRmEmWmQm!m~m^m/m(m)m_:Sm,m*mU  ",
  "    m`<v<Im'2}2}2}2}2}2}2}2}2}2}m]m[m{m}m|M.MXMoMOM+M@M#M$M%M&  ",
  "    M*:^;@M=M-M;M;M;M;M;M;M;M;M;M;M:M>M,M<M1M2M3M4M5M6M7M8M9;1  ",
  "    M06}9MMqMwMeMrMrMrMrMrMrMrMrMrMtMyMuMiMpMaMsMdMfMgMhMjMk    ",
  "    Ml>G,hMzMxMcMrMrMrMrMrMrMrMrMrMvMbMnMuMmMMMNMBMVMCMZMAMS    ",
  "    MD<'-OMFMGMHMrMrMrMrMrMrMrMrMrMrMJMbMKMLMPMIMuMUMYMTMRME    ",
  "    MW-K,kMQM!M~MrMrMrMrMrMrMrMrMrMrMrM^M/M(M)M_M`M'M]M[M{M}    ",
  "    M|-v-^N.NXNoMrMrMrMrMrMrMrMrMrMrMrMrMrMrNON+N@N#N#N$N%N&    ",
  "    N*=,N=N-N;MrMrMrMrMrMrMrMrMrMrMrMrMrMrN:N>N,N#N#N#N<N1N2    ",
  "    N3=<N4N5N6MrMrMrMrMrMrMrN:N7N8N8N>N9N0NqN#N#N#N#N#MeNwNe    ",
  "    Nr;FNtNyNuMrMrN:N8N9NiNqN#N#N#N#N#N#N#N#N#N#N#N#N#NpNaNs    ",
  "    Nd,cNfNgNhN8NjNkN#N#N#N#N#N#N#N#N#N#N#N#N#N#N#N#N#NlNzNx    ",
  "    NcNvNbNnNmN#N#N#N#N#N#N#N#N#N#N#N#N#N#N#N#N#N#N#N#MHNMNN    ",
  "    NBNVNCNZNANSNDNDNDNDNFNFNFNFNFNFNFNFNF2r2r2r2r2r2rNGNHNJ    ",
  "    NKNLNPNI2pNUNUNUNYNYNYNYNYNYNY2v2v2c2c2c2c2cNTNTNR232sNE    ",
  "    NWNQN!N~N^N/N/N(N(N(N)N)N)N)N_N)N)N)N)N)N)N)N)N`N'N]N[      ",
  "    N{N}N|B.BXBXBXBXBXBXBXBXBXBXBXBXBXBXBXBXBXBXBXBXBXBoBO@:    ",
  "    B+B@2}2}2}2}2}2}2}2}2}2}2}2}2}2}2}2}2}2}2}2}2}2}2}B#B$@:    ",
  "    *7*Qee*8B%B%B%B%B%B%B%B%B%B%B%B%B%B%B%B%B%B%B%ew*8*F*'+j    ",
  "      +j*!+B+k+k+k+k+k+k+k+k+k+k+k+k+k+k+k+k+k+k+k+B:k@.        ",
  "                                                                ",
  "                                                                ",
  "                                                                "
};
