/* XPM */
const char *xpm_tango_actions_format_justify_center[] = {
  // Header (width height colors chars-per-pixel)
  "32 32 80 2",
  
  // Colors (code mode value)
  "O` c #00000002",
  "@* c #00000007",
  "*! c #00000008",
  "*7 c #00000009",
  "+: c #0000000E",
  ":l c #0000000F",
  "*' c #00000015",
  "+| c #0000001B",
  "*Q c #0000001D",
  "&E c #00000022",
  "+/ c #00000023",
  "+J c #00000027",
  "eg c #0000002A",
  "*F c #0000002B",
  "&R c #0000002F",
  "v3 c #09090939",
  "v< c #24242438",
  "v> c #61616115",
  "v2 c #878985EC",
  "v1 c #878A85E0",
  "c! c #8888880F",
  "eB c #888A85FF",
  "rf c #8B8D88F9",
  "v, c #8B8D88FA",
  "cE c #8B8D89E5",
  "c^ c #8C8E88F9",
  "cQ c #8C8E89F9",
  "cR c #8D8F8BD9",
  "<d c #999999FF",
  ">P c #9E9E9EFF",
  ",H c #9F9F9FFF",
  "cW c #AAAAAA03",
  "v: c #E2E2DEFF",
  "v; c #E2E2DFFF",
  "+A c #E2E2E2FF",
  "v- c #E3E3DFFF",
  "v= c #E3E3E0FF",
  "%e c #E3E3E1FF",
  "v* c #E4E4E1FF",
  "%- c #E4E4E2FF",
  "%h c #E5E5E3FF",
  "#* c #E5E5E4FF",
  "%= c #E6E6E4FF",
  "6A c #E6E6E5FF",
  ";b c #E6E6E6FF",
  "&. c #E7E7E6FF",
  ";G c #E7E7E7FF",
  ":# c #E8E8E8FF",
  "lC c #E9E9E8FF",
  ":2 c #E9E9E9FF",
  "lb c #EAEAE9FF",
  ",$ c #EAEAEAFF",
  "6d c #EBEBEAFF",
  ":, c #EBEBEBFF",
  "j# c #ECECEBFF",
  ":> c #ECECECFF",
  "ld c #EDEDECFF",
  ";9 c #EDEDEDFF",
  "5] c #EEEEEDFF",
  ":< c #EEEEEEFF",
  "lt c #EFEFEEFF",
  ";A c #EFEFEFFF",
  "l8 c #F0F0EFFF",
  ";T c #F0F0F0FF",
  ",0 c #F1F1F0FF",
  ";` c #F1F1F1FF",
  "c} c #F2F2F1FF",
  ";' c #F2F2F2FF",
  "55 c #F3F3F2FF",
  ":O c #F3F3F3FF",
  "hE c #F4F4F3FF",
  ":3 c #F4F4F4FF",
  "c` c #F5F5F4FF",
  "=a c #F5F5F5FF",
  "c/ c #F6F6F5FF",
  "+W c #F6F6F6FF",
  "c~ c #F7F7F6FF",
  ",3 c #F8F8F7FF",
  ">X c #FFFFFFFF",
  "   c none",
  
  // Image data
  "                                                                ",
  "      cReBeBeBeBeBeBeBeBeBeBeBeBeBeBeBeBeBeBeBeBeBeBeBeBcEcW    ",
  "      eB>X>X>X>X>X>X>X>X>X>X>X>X>X>X>X>X>X>X>X>X>X>X>X>XcQc!    ",
  "      eB>X,3,3,3,3,3,3,3,3,3,3,3,3,3,3,3,3,3,3,3,3,3c~>Xc^c!    ",
  "      eB>X,3,3,3,3,3,3,3,3,3,3,3,3,3,3,3,3,3,3,3,3c~c/>Xrfc!    ",
  "      eB>X,3,3,3,3,3,3,3,3,3,3,3,3,3,3,3,3,3,3c~c~c/c`>Xrfc!    ",
  "      eB>X,3,3,3,3,3,3,3,3,3,3,3,3,3,3,3,3,3c~c/=ac`hE>Xrfc!    ",
  "      eB>X,3,3,H<d<d<d<d<d<d<d<d<d<d<d<d<d<d<d<d<dlt55>Xrfc!    ",
  "      eB>X,3,3,3,3,3,3,3,3,3,3,3,3,3c~c~c/=ac`hE:O55c}>Xrfc!    ",
  "      eB>X,3,3,3,3,3,3,3,3,3,3,3,3c~c/c/c`:3hE55;'c},0>Xrfc!    ",
  "      eB>X,3,3,3,3,3,3,3,3,3,3c~c~c/c`c`hE:O55c};`,0l8>Xrfc!    ",
  "      eB>X,3,3,3,H<d<d<d<d<d<d<d<d<d<d<d<d<d<d<d;T;Alt>Xrfc!    ",
  "      eB>X,3,3,3,3,3,3,3c~c~c/c`c`hE5555c};`;Tl8;A:<5]>Xrfc!    ",
  "      eB>X,3,3,3,3,3,3c~c/c/c`hE:O55c};`,0;T;Alt:<;9ld>Xrfc!    ",
  "      eB>X,3,3,3,3c~c~c/c`:3hE55;'c},0;Tl8;A:<5];9:>j#>Xrfc!    ",
  "      eB>X,3,3,3c~>P<d<d<d<d<d<d<d<d<d<d<d<d<dld:>:,6d>Xrfc!    ",
  "      eB>X,3c~+Wc/c`:3hE55;'c},0;Tl8lt:<5];9:>j#:,,$:2>Xrfc!    ",
  "      eB>Xc~c/=ac`hE:O55c};`,0l8;Alt5];9ld:>:,,$,$:2:#>Xrfc!    ",
  "      eB>Xc/c`:3hE55;'c},0;Tl8lt:<;9ld:>:,:,,$:2:2:#;G>Xrfc!    ",
  "      eB>Xc`hE>P<d<d<d<d<d<d<d<d<d<d<d<d<d<d<d<d<d+A&.>Xrfc!    ",
  "      eB>XhE55;'c},0;T;Alt:<;9ld:>:,6d,$:2:2:#;G;G&.6A>Xrfc!    ",
  "      eB>X55c};`;Tl8;A:<5];9:>j#:,,$lb:2:#:#;G&.;b6A%=>Xrfc!    ",
  "      eB>X;`,0;T;Alt:<;9ld:>:,6d,$:2lC:#;G;G&.6A6A#*%h>Xrfc!    ",
  "      eB>X;Tl8;A:<5]>P<d<d<d<d<d<d<d<d<d<d<d6A%=#*%h%->Xrfc!    ",
  "      eB>X;Alt:<;9ld:>:,6d,$:2:#:#;G&.;b6A6A#*%h%h%-v*>Xrfc!    ",
  "      eB>X:<5];9:>j#:,,$:2:2:#;G;G&.6A6A%=#*%h%-%-v*v=>Xrfc!    ",
  "      eB>X;9ld:>:,,$,$:2:#:#;G&.;b6A%=#*%h%h%-v*%ev=v->Xrfc!    ",
  "      eB>X:>:,:,,$:2:2:#;G;G&.6A6A#*%h%h%-%-v*v=v=v;v:>Xrfc!    ",
  "      eB>X:,,$,$:2:#:#;G&.;b6A%=#*%h%h%-v*%ev=v-v;v:v:>Xrfv>    ",
  "  *7+|eB>X>X>X>X>X>X>X>X>X>X>X>X>X>X>X>X>X>X>X>X>X>X>X>Xv,v<+|*!",
  "  :l+/v1eBeBeBeBeBeBeBeBeBeBeBeBeBeBeBeBeBeBeBeBeBeBeBeBv2v3+/*!",
  "    @**'&E*F&R&R&R&R&R&R&R&R&R&R&R&R&R&R&R&R&R&R&R&Reg+J*Q+:O`  "
};
