/* XPM */
const char *xpm_tango_actions_format_indent_more[] = {
  // Header (width height colors chars-per-pixel)
  "32 32 129 2",
  
  // Colors (code mode value)
  "O` c #00000002",
  "@* c #00000007",
  "*! c #00000008",
  "*7 c #00000009",
  "+: c #0000000E",
  ":l c #0000000F",
  "*' c #00000015",
  "+| c #0000001B",
  "*Q c #0000001D",
  "&E c #00000022",
  "+/ c #00000023",
  "+J c #00000027",
  "eg c #0000002A",
  "*F c #0000002B",
  "&R c #0000002F",
  "v3 c #09090939",
  "v< c #24242438",
  "<$ c #555753FF",
  "B7 c #565854FF",
  "<f c #585A56FF",
  "65 c #5B5D59FF",
  "5` c #5D5F5BFF",
  "BJ c #5E605BFF",
  "Bu c #5E605CFF",
  "Bd c #5F615DFF",
  "Bi c #60625EFF",
  "v> c #61616115",
  "Bs c #666764FF",
  "BG c #686A66FF",
  "fm c #6C6D6AFF",
  "BB c #727471FF",
  "BM c #737571FF",
  "Bk c #737572FF",
  "BV c #767875FF",
  "BK c #777975FF",
  "hH c #7C7E7AFF",
  "Bn c #81827FFF",
  "v2 c #878985EC",
  "v1 c #878A85E0",
  "c! c #8888880F",
  "eB c #888A85FF",
  "BA c #8A8B89FF",
  "Bb c #8B8C8AFF",
  "rf c #8B8D88F9",
  "v, c #8B8D88FA",
  "cE c #8B8D89E5",
  "BS c #8B8D8AFF",
  "Bj c #8C8D8BFF",
  "c^ c #8C8E88F9",
  "cQ c #8C8E89F9",
  "cR c #8D8F8BD9",
  "f; c #959693FF",
  "Bx c #979896FF",
  "<d c #999999FF",
  "By c #9C9D9AFF",
  "kk c #A1A2A0FF",
  "e[ c #A2A3A1FF",
  "h5 c #A3A4A1FF",
  "<S c #A3A4A2FF",
  "Bh c #A4A5A3FF",
  "cW c #AAAAAA03",
  "hp c #AFB0AEFF",
  "BF c #BABAB8FF",
  "BZ c #BBBBB9FF",
  "kt c #BBBBBAFF",
  "Bm c #BCBCBAFF",
  "Bv c #BDBDBBFF",
  "Bz c #BDBDBCFF",
  "Bg c #BEBEBCFF",
  "Bf c #C5C6C5FF",
  "BH c #CCCCCBFF",
  "BD c #D1D2D1FF",
  "k@ c #D2D3D2FF",
  "BN c #D3D4D3FF",
  "%B c #D4D5D4FF",
  "Bc c #D5D6D5FF",
  "Bl c #D6D7D5FF",
  "Bp c #D7D8D6FF",
  "%! c #D9D9D8FF",
  "BC c #D9DAD8FF",
  "={ c #DFDFDFFF",
  "v: c #E2E2DEFF",
  "v; c #E2E2DFFF",
  "%# c #E2E2E1FF",
  "v- c #E3E3DFFF",
  "v= c #E3E3E0FF",
  "%e c #E3E3E1FF",
  "v* c #E4E4E1FF",
  "%- c #E4E4E2FF",
  "%h c #E5E5E3FF",
  "#* c #E5E5E4FF",
  "%= c #E6E6E4FF",
  "6A c #E6E6E5FF",
  ";b c #E6E6E6FF",
  "&. c #E7E7E6FF",
  ";G c #E7E7E7FF",
  "Ba c #E7E8E7FF",
  ":# c #E8E8E8FF",
  ":2 c #E9E9E9FF",
  "%q c #EAEAE8FF",
  ",$ c #EAEAEAFF",
  "6d c #EBEBEAFF",
  ":, c #EBEBEBFF",
  "j# c #ECECEBFF",
  ":> c #ECECECFF",
  "ld c #EDEDECFF",
  ";9 c #EDEDEDFF",
  "5] c #EEEEEDFF",
  ":< c #EEEEEEFF",
  "lt c #EFEFEEFF",
  ";A c #EFEFEFFF",
  "l8 c #F0F0EFFF",
  ";T c #F0F0F0FF",
  ",0 c #F1F1F0FF",
  ";` c #F1F1F1FF",
  "c} c #F2F2F1FF",
  ";' c #F2F2F2FF",
  "55 c #F3F3F2FF",
  ":O c #F3F3F3FF",
  "hE c #F4F4F3FF",
  ":3 c #F4F4F4FF",
  "c` c #F5F5F4FF",
  "=a c #F5F5F5FF",
  "c/ c #F6F6F5FF",
  "+W c #F6F6F6FF",
  "c~ c #F7F7F6FF",
  ",3 c #F8F8F7FF",
  ">X c #FFFFFFFF",
  "   c none",
  
  // Image data
  "                                                                ",
  "      cReBeBeBeBeBeBeBeBeBeBeBeBeBeBeBeBeBeBeBeBeBeBeBeBcEcW    ",
  "      eB>X>X>X>X>X>X>X>X>X>X>X>X>X>X>X>X>X>X>X>X>X>X>X>XcQc!    ",
  "      eB>X,3,3,3,3,3,3,3,3,3,3,3,3,3,3,3,3,3,3,3,3,3c~>Xc^c!    ",
  "      eB>X,3,3,3,3,3,3,3,3,3,3,3,3,3,3,3,3,3,3,3,3c~c/>Xrfc!    ",
  "      eB>X,3,3,3,3,3,3,3,3,3,3,3,3<d<d<d<d<d<d<d<d<dc`>Xrfc!    ",
  "      eB>X,3,3,3,3,3,3,3,3,3,3,3,3,3,3,3,3,3c~c/=ac`hE>Xrfc!    ",
  "      eB>X,3,3,3,3,3,3,3,3,3,3,3,3,3,3,3c~+Wc/c`:3hE55>Xrfc!    ",
  "      eB>X,3,3,3,3,3,3,3,3,3,3,3,3<d<d<d<d<d<d<d<d<dc}>Xrfc!    ",
  "      eB>X,3,3,3,3,3,3,3,3,3,3,3,3c~c/c/c`:3hE55;'c},0>Xrfc!    ",
  "      eB>X,3,3,3,3,3,3,3,3,3,3c~c~c/c`c`hE:O55c};`,0l8>Xrfc!    ",
  "      eB>X,3,3,3,3,3,3,3,3,3c~c/c/<d<d<d<d<d<d<d<d;Alt>Xrfc!    ",
  "      eB>X,3,3,3,3,3,3,3c~c~c/c`c`hE5555c};`;Tl8;A:<5]>Xrfc!    ",
  "      eB>X,3,3,3,3,3,3c~c/c/c`hE:O55c};`,0;T;Alt:<;9ld>Xrfc!    ",
  "      eB>X,3,3,3,3c~c~c/c`:3hEBy:<c},0;Tl8;A:<5];9:>j#>Xrfc!    ",
  "      eB>X,3,3,3c~c/=ac`hE:O55BuhH6Al8;Alt:<;9ld:>:,6d>Xrfc!    ",
  "      eB>X,3c~+Wc/c`:3hE55;'c}Bi<$fmBp:<5];9:>j#:,,$:2>Xrfc!    ",
  "      eB>Xc~c/=a55l8:<ld%qBa&.Bs<$<$BdBfld:>:,,$,$:2:#>Xrfc!    ",
  "      eB>Xc/c`;ABpBgBhBjBk65<$<$<$<$<$<fhp:,,$:2:2:#;G>Xrfc!    ",
  "      eB>Xc`hE:<BlBzBhBjBk65<$<$<$<$<$<$<$Bx;G:#:#;G&.>Xrfc!    ",
  "      eB>XhE55;9BcBv<SBbBk65<$<$<$<$<$<$<$<$Bn={;G&.6A>Xrfc!    ",
  "      eB>X55c}:>%BBm<SBbBM65<$<$<$<$<$<$<$<$<$Bn;b6A%=>Xrfc!    ",
  "      eB>X;`,0:,BNkte[BbBB65<$<$<$<$<$<$<$<$BVBC6A#*%h>Xrfc!    ",
  "      eB>X;Tl8,$k@BZe[BABB65<$<$<$<$<$<$<$BS%#%=#*%h%->Xrfc!    ",
  "      eB>X;Alt:2BDBFkkBABB65<$<$<$<$<$B7h56A#*%h%h%-v*>Xrfc!    ",
  "      eB>X:<5];9:>j#:,,$:2:2:#Bu<$<$5`BZ%=#*%h%-%-v*v=>Xrfc!    ",
  "      eB>X;9ld:>:,,$,$:2:#:#;GBu<$BGBH#*%h%h%-v*%ev=v->Xrfc!    ",
  "      eB>X:>:,:,,$:2:2:#;G;G&.BJBK%!%h%h%-%-v*v=v=v;v:>Xrfc!    ",
  "      eB>X:,,$,$:2:#:#;G&.;b6Af;%#%h%h%-v*%ev=v-v;v:v:>Xrfv>    ",
  "  *7+|eB>X>X>X>X>X>X>X>X>X>X>X>X>X>X>X>X>X>X>X>X>X>X>X>Xv,v<+|*!",
  "  :l+/v1eBeBeBeBeBeBeBeBeBeBeBeBeBeBeBeBeBeBeBeBeBeBeBeBv2v3+/*!",
  "    @**'&E*F&R&R&R&R&R&R&R&R&R&R&R&R&R&R&R&R&R&R&R&Reg+J*Q+:O`  "
};
