/* XPM */
const char *xpm_tango_actions_format_text_italic[] = {
  // Header (width height colors chars-per-pixel)
  "32 32 312 2",
  
  // Colors (code mode value)
  "+j c #00000001",
  "O` c #00000002",
  "@. c #00000003",
  "@X c #00000004",
  "+e c #00000005",
  "&h c #00000006",
  "@* c #00000007",
  "*! c #00000008",
  "*7 c #00000009",
  "+( c #0000000A",
  "+> c #0000000B",
  ":k c #0000000C",
  "+h c #0000000D",
  "+: c #0000000E",
  ":l c #0000000F",
  "@: c #00000010",
  "+B c #00000011",
  "+r c #00000012",
  "+K c #00000013",
  "@o c #00000014",
  "*' c #00000015",
  "+k c #00000016",
  "*k c #00000017",
  "*] c #00000018",
  "+w c #00000019",
  "@; c #0000001A",
  "+| c #0000001B",
  "*Q c #0000001D",
  "9b c #0000001E",
  "&V c #0000001F",
  "@- c #00000020",
  "&E c #00000022",
  "*` c #00000024",
  "F& c #00000D13",
  "NE c #0000FF01",
  "F* c #0F273E21",
  "Fo c #112B441E",
  "D( c #173A5D16",
  "DF c #2255880F",
  "DS c #28558C33",
  "DN c #28578D26",
  "F$ c #2950856F",
  "Aq c #295387FF",
  "D] c #295388FF",
  "DE c #2A5489FF",
  "ZP c #2A558BFF",
  "DU c #2A588943",
  "FX c #2B538696",
  "7r c #2B558006",
  "DJ c #2B558E12",
  "DM c #2B568DFF",
  "Ds c #2B578EFF",
  "CB c #2B5C9524",
  "FO c #2C5588FF",
  "F% c #2C5589CD",
  "Dk c #2C578DFF",
  "Dd c #2C578E46",
  "D2 c #2C5890FF",
  "D$ c #2C5991FF",
  "D/ c #2D538766",
  "D) c #2D568AFF",
  "Dl c #2D5990F7",
  "DD c #2D5A8711",
  "CI c #2D5A93FF",
  "SU c #2D5B94FF",
  "DY c #2E578BFF",
  "D[ c #2E588CA6",
  "DG c #2E588DFF",
  "DW c #2E598FCC",
  "SI c #2E5B921C",
  "CY c #2E5C95F7",
  "SS c #2E5C96FF",
  "Sb c #2E5C97FF",
  "S= c #2E619E37",
  "S^ c #2F5C94F6",
  "Sg c #2F5D99FF",
  "Se c #2F5E9BFF",
  "Dc c #305A8FFF",
  "S4 c #305F9CFF",
  "SE c #30608F10",
  "S- c #30609EFF",
  "DK c #315B8FE4",
  "D3 c #315B9273",
  "SN c #315E9644",
  "S` c #315F96CC",
  "SX c #31619FFF",
  "A| c #31639C1F",
  "Dx c #325A90FB",
  "D% c #325F97A4",
  "A) c #3262A1FF",
  "S@ c #32639C24",
  "AT c #3263A2FF",
  "Ak c #3263A324",
  "Sf c #3355990F",
  "Dz c #335D93F7",
  "Sv c #33629CC3",
  "8I c #3364A4FF",
  "S. c #3366990F",
  "A( c #3366A21E",
  "An c #3366AA0F",
  "S/ c #346097FF",
  "Sk c #34619C71",
  "Sw c #34629D7F",
  "Su c #34629DA2",
  "Aa c #3465A5FA",
  "A` c #3562A144",
  "S3 c #35649F52",
  "As c #3567A443",
  "Sd c #36639EA5",
  "SA c #36649CDD",
  "S7 c #3665A2CA",
  "Ap c #3667A6F6",
  "Dv c #375F93FF",
  "DA c #376095E9",
  "SW c #376399E3",
  "AY c #3767A5D7",
  "A/ c #3867A4DE",
  "DB c #396397ED",
  "AW c #3966A470",
  "Ai c #3967A86F",
  "A} c #3968A3E9",
  "AL c #3A68A59F",
  "S, c #3B67A1E2",
  "AS c #3C6CA8C8",
  "SP c #3E6A9FE9",
  "S* c #3E6DA6EE",
  "DI c #3F6699EF",
  "SH c #3F6A9FEC",
  "Ct c #40408004",
  "Am c #406EABE0",
  "S~ c #436B9EFF",
  "S# c #4571A9EB",
  "Df c #476FA1EF",
  "D^ c #4870A0F1",
  "Al c #4A76B1EB",
  "S2 c #4C76ADEE",
  "D` c #4E83C6FF",
  "Z4 c #4F84C7FF",
  "SB c #5078AAF0",
  "Dn c #5084C7FF",
  "Z2 c #5286C8FF",
  "AB c #5481B7FF",
  "Z+ c #5487C9FF",
  "AA c #5555AA03",
  "F. c #567CABF5",
  "Zy c #5689C9FF",
  "Z< c #578AC9FF",
  "A' c #5880B1F0",
  "D< c #5889C9FF",
  "Ad c #5982B6F1",
  "Z, c #598BCAFF",
  "AH c #5A85BBF5",
  "Zr c #5B8CCAFF",
  "D4 c #5C81AFF2",
  "Sq c #5D84B6F2",
  "D, c #5D8DCBFF",
  "D@ c #6291CDFF",
  "Z- c #6493CDFF",
  "D{ c #6689B5F6",
  "Sl c #6689B7F3",
  "S) c #6694CEFF",
  "D> c #6795CEFF",
  "D: c #6996CEFF",
  "ST c #6996CFFF",
  "D; c #6A97CFFF",
  "D= c #6A98CEFF",
  "AU c #6B92C4FB",
  "C) c #6C99CFFF",
  "SF c #6D99D0FF",
  "D- c #6E9AD0FF",
  "AQ c #7194C1F3",
  "Sm c #719CD1FF",
  "D& c #7494BDF7",
  "Sj c #749ED1FF",
  "DC c #759ED0FF",
  "D' c #769AC8FF",
  "D! c #769DCFFF",
  "Ss c #7799C4F7",
  "DQ c #789AC2FC",
  "F# c #789BC9FF",
  "St c #78A1D3FF",
  "F+ c #799DCBFF",
  "DR c #7A9DCAFF",
  "F@ c #7A9ECDFF",
  "A^ c #7AA1CEFE",
  "Dh c #7AA2D2FF",
  "D_ c #7C9FCCFF",
  "DH c #7D9FCCFF",
  "Vx c #7DA4D4FF",
  "DT c #7EA1CCFF",
  "AJ c #7FA6D2FF",
  "Dm c #80A1CDFF",
  "Si c #819FC6F8",
  "A4 c #81A3CEFF",
  "S: c #81A8D6FF",
  "Da c #83A4CEFF",
  "SO c #83A7D4FF",
  "AV c #83A9D3FF",
  "AR c #84A9D5FF",
  "DL c #86A6CCFF",
  "D~ c #86A8D3FF",
  "Vh c #86ABD6FF",
  "Dj c #87A6CCFF",
  "Db c #87A6CFFF",
  "S] c #87ABD6FF",
  "D1 c #88A7D0FF",
  "B_ c #88ADD6FF",
  "A{ c #89ABD3FF",
  "AG c #89ADD6FF",
  "SK c #89ADD7FF",
  "V< c #8AAED7FF",
  "S' c #8BA8CBFC",
  "DZ c #8BAAD1FF",
  "DP c #8BABD2FF",
  "Dp c #8BABD4FF",
  "A_ c #8BADD7FF",
  "Ac c #8BAED7FF",
  "Ax c #8BAFD6FF",
  "B( c #8BAFD7FF",
  "D# c #8CAAD0FF",
  "Di c #8CACD4FF",
  "D* c #8CAED6FF",
  "A~ c #8CAFD7FF",
  "A[ c #8CB0D7FF",
  "Du c #8DADD5FF",
  "AP c #8EACCFF8",
  "DV c #8FADD2FF",
  "Dy c #8FAED5FF",
  "AC c #8FB1D8FF",
  "S% c #8FB1D9FF",
  "D| c #90AED4FF",
  "Dt c #90AED5FF",
  "Dr c #90AFD5FF",
  "SC c #90B1D9FF",
  "D} c #91AFD4FF",
  "S_ c #92AFD3FF",
  "Sc c #92B0D2FB",
  "De c #92B0D5FF",
  "Av c #92B4D9FF",
  "Dg c #93B0D5FF",
  "Dw c #93B1D6FF",
  "D5 c #93B1D8FF",
  "Dq c #94B2D6FF",
  "S& c #94B4D8FF",
  "So c #94B4DAFF",
  "SR c #96B3D5FF",
  "D0 c #96B3D6FF",
  "D9 c #97B4D7FF",
  "Sx c #97B7DBFF",
  "SQ c #98B4D4FF",
  "S9 c #98B7DBFF",
  "Az c #99B9DCFF",
  "S8 c #9AB3D3FC",
  "SG c #9AB5D7FF",
  "D8 c #9AB6D7FF",
  "S; c #9DBBDDFF",
  "S1 c #9DBCDEFF",
  "SM c #9EB9D8FF",
  "D7 c #9FB9DAFF",
  "AN c #9FBDDDFF",
  "Sp c #A0BCDDFF",
  "Sa c #A0BDDFFF",
  "D6 c #A1BADAFF",
  "SJ c #A1BBDAFF",
  "S0 c #A2BEDFFF",
  "Zc c #A4BCDAFF",
  "AD c #A6BEDCFD",
  "SV c #A6BFDDFF",
  "Sz c #A6BFDFFF",
  "S5 c #A6C1E0FF",
  "AF c #A8C3E1FF",
  "S< c #A9C0DDFF",
  "Sy c #AAC1DEFF",
  "SZ c #AAC2DEFE",
  "S6 c #ADC3DFFF",
  "Sr c #B0C7E4FF",
  "S> c #B1C7E1FF",
  "AI c #B2CAE4FF",
  "SL c #B3C8E3FF",
  "S! c #B3C9E4FF",
  "S+ c #B5C9E2FF",
  "S$ c #B6CBE3FF",
  "AM c #B7CCE3FF",
  "A! c #B8CDE5FF",
  "Sh c #B9CEE7FF",
  "S[ c #B9CEE8FF",
  "B[ c #BACDE4FF",
  "A] c #BACEE6FF",
  "D. c #BACEE8FF",
  "S| c #BACFE7FF",
  "V! c #BBCFE7FF",
  "S} c #BCD0E8FF",
  "D+ c #BCD0EAFF",
  "S( c #BDD0E9FF",
  "DX c #BDD1EAFF",
  "AE c #BED1E6FF",
  "SY c #BED1E9FF",
  "DO c #BED2EAFF",
  "Zo c #BFD2EAFF",
  "Do c #BFD3EAFF",
  "SD c #C0D2EAFF",
  "VN c #C1D3E8FF",
  "Sn c #C1D3EAFF",
  "AK c #C2D4E8FF",
  "S{ c #C3D5EBFF",
  "AZ c #C5D6EAFF",
  "Ab c #C6D7EAFF",
  "Aj c #CAD9EBFF",
  "Af c #CEDDEDFF",
  "Ah c #CFDDEEFF",
  "Ag c #CFDEEEFF",
  "   c none",
  
  // Image data
  "                                                                ",
  "                                                                ",
  "                                                                ",
  "                                            Ai8IApApApAa8I      ",
  "                                          AsAdAfAgAgAhAj8I      ",
  "                                        AkAlVNAzAxAcAvAb8I      ",
  "                                      AnAmAMANB(ABAVACAZ8I      ",
  "                                    AAASADAFAGAH8IAJB(AK8I      ",
  "                                    ALAPAIV<AUAYATARB_AEAT      ",
  "                                  AWAQA!A~A^A/A(A)A_VhB[A)      ",
  "                                A`A'A]A[A{A}A|S.SXSoSOS+SX      ",
  "                              S@S#S$S%S&S*S=  S.S-S;S:S>S-      ",
  "                            S.S,S<AvS1S2S3    S.S4S5VxS6S4      ",
  "                          AAS7S8S9S0SqSw      S.SeSrStSySe      ",
  "                          SuSiSpSaSsSd        SfSgShSjZcSg      ",
  "                        SkSlSzSxScSvAA        SfSbSnSmSMSb      ",
  "                      SNSBSVSCSZSASf          SfSSSDSFSGSS      ",
  "                    CBSHSJSKSLSPSI            SfSUSYSTSRSU      ",
  "                  SESWSQVhS!S~CIS^S^CYCICICICICIS/S(S)S_CI      ",
  "                CtS`S'S]S[S{S}V!S|ShD.DXDoZoDODXDXD+D@D#D$      ",
  "                D%D&D*D=D-C)D;D:D>S)Z-D,ZrZ,Z<ZyZ+Z2D<D1D2      ",
  "              D3D4D5SOD6D7D8D9D0DqDwDeDrDtDyDuDiDpDiZ+DaDs      ",
  "            DdDfDgDhDjDkDlDzDzDxDcDcDcDcDcDcDcDcDvDbDnDmDM      ",
  "          DNDBDVDCDZDADSDDDDDDNE              DFDGA4Z4DHZP      ",
  "        DJDKDLDCDPDIDU                        DFDYDTZ4DRDE      ",
  "      7rDWDQD!D~D^D/*7+(+>:k:k:k:k:k:k+>+(*7*!D(D)D_D`D'D]      ",
  "    +jD[D{D}D|F.FX@:+r@o+k*k*]+w+w*]*]*k*'+K+rFoFOF+F@F#Aq@.    ",
  "  +jF$AqAqAqAqF%F&@o+k+w+|9b@-&E*`&E&V*Q@;*]+kF*AqAqAqAqAq+eO`  ",
  "      O`+e@**7:k+::l+B+K*'+k*k*k*k*k+k*'@o+r+B:l+h+>*7&hO`+j    ",
  "            +j+j@.@X+e@**!*7+(+(+(+(*7*!@*&h@X@.+j+j            ",
  "                                                                ",
  "                                                                "
};
