/* XPM */
const char *xpm_tango_actions_format_text_bold[] = {
  // Header (width height colors chars-per-pixel)
  "32 32 379 2",
  
  // Colors (code mode value)
  "+j c #00000001",
  "O` c #00000002",
  "@. c #00000003",
  "@X c #00000004",
  "&h c #00000006",
  "@* c #00000007",
  "*! c #00000008",
  "*7 c #00000009",
  "+( c #0000000A",
  "+> c #0000000B",
  ":k c #0000000C",
  "+h c #0000000D",
  "+: c #0000000E",
  ":l c #0000000F",
  "@: c #00000010",
  "+B c #00000011",
  "+r c #00000012",
  "+K c #00000013",
  "*' c #00000015",
  "+k c #00000016",
  "*k c #00000017",
  "*] c #00000018",
  "+w c #00000019",
  "@; c #0000001A",
  "+| c #0000001B",
  "@= c #0000001C",
  "*Q c #0000001D",
  "9b c #0000001E",
  "&V c #0000001F",
  "@- c #00000020",
  "+g c #00000021",
  "&E c #00000022",
  "*~ c #00000025",
  "+N c #00000026",
  "er c #00000028",
  ":j c #00000029",
  "*F c #0000002B",
  "9x c #0000002C",
  "&R c #0000002F",
  ":d c #00000030",
  ":s c #00000031",
  "Ao c #0012120E",
  "AO c #0F0F1E11",
  "At c #18345440",
  "Ar c #1931523E",
  "A9 c #274E801A",
  "A2 c #284F819A",
  "A1 c #28518198",
  "Z( c #28548A46",
  "A0 c #29518571",
  "A* c #29528519",
  "Aq c #295387FF",
  "Z) c #2955884B",
  "ZW c #2A548A3D",
  "ZP c #2A558BFF",
  "Z8 c #2B55950C",
  "Ay c #2B568BF1",
  "ZI c #2B578DF7",
  "ZE c #2B588EE0",
  "CB c #2B5C9524",
  "Cx c #2B5C9753",
  "V8 c #2B6AAA0C",
  "Au c #2C568BF0",
  "A& c #2C568DB5",
  "A+ c #2C578BEE",
  "C^ c #2C578F29",
  "Zf c #2C578F69",
  "VY c #2C619E1D",
  "AX c #2D578BED",
  "Ae c #2D578BF0",
  "CI c #2D5A93FF",
  "Z7 c #2D5B949D",
  "Aw c #2E578BF0",
  "Z[ c #2E578EB5",
  "ZF c #2E598FE0",
  "CY c #2E5C95F7",
  "CU c #2F5C95F7",
  "C* c #2F5D9852",
  "C~ c #2F5E97CE",
  "Zd c #305B93F0",
  "Z$ c #315D949D",
  "VK c #315F9C3E",
  "C5 c #31609BED",
  "VO c #3161A42A",
  "A8 c #325B8FF1",
  "Cr c #325F9984",
  "C< c #325F9B84",
  "Cd c #32609890",
  "Vm c #3264A06B",
  "C+ c #335C9919",
  "CG c #335F97CE",
  "C7 c #33609AED",
  "Cz c #33619AEB",
  "8I c #3364A4FF",
  "C6 c #33669905",
  "A= c #345E8FF1",
  "Z9 c #345E95F0",
  "Cy c #34629AEB",
  "CO c #34639FB7",
  "Vs c #3464A06B",
  "V[ c #3563A0C6",
  "V] c #3564A0C6",
  "VJ c #3564A1E1",
  "VZ c #3565A286",
  "Vl c #3565A2EB",
  "V^ c #36649FB7",
  "VM c #3665A1E1",
  "Vk c #3665A2EB",
  "BW c #3767A454",
  "V7 c #3768A69D",
  "BL c #3868A780",
  "BE c #3869A7EC",
  "V: c #396AA69D",
  "BU c #396AA7EC",
  "Vo c #396AA8CF",
  "V9 c #3A68A7F0",
  "B] c #3A6AA8CF",
  "BP c #3A6BA8EF",
  "Va c #3C69A6F0",
  "VU c #3C6AA3F1",
  "C, c #3D6AA2F1",
  "VT c #3D6BA4F1",
  "CN c #3E6AA0F0",
  "C@ c #3E6BA3F1",
  "Vr c #3E6BA8FC",
  "Ct c #40408004",
  "Z] c #40699CF0",
  "Z# c #40699EF0",
  "BI c #4080BF04",
  "CV c #416CA2F0",
  "C/ c #446DA0F0",
  "ZA c #487FC6FF",
  "ZQ c #49709FF0",
  "Z_ c #4972A4F1",
  "ZZ c #497FC6FF",
  "Zp c #4C82C7FF",
  "Zi c #4D83C7FF",
  "Z4 c #4F84C7FF",
  "Z/ c #5076A7F0",
  "V+ c #507BB3F0",
  "V; c #507CB3F1",
  "A# c #5185C7FF",
  "Z3 c #5185C8FF",
  "Z2 c #5286C8FF",
  "Za c #5386C8FF",
  "Z+ c #5487C9FF",
  "Zu c #5488C9FF",
  "ZO c #5588C9FF",
  "Z1 c #5589C9FF",
  "ZD c #567CAFF6",
  "Zy c #5689C9FF",
  "CW c #5789C9FF",
  "Z< c #578AC9FF",
  "Zt c #578ACAFF",
  "CE c #588BCAFF",
  "V~ c #5982B4F0",
  "C& c #5982B4F2",
  "Z, c #598BCAFF",
  "CF c #5A81B2F3",
  "C= c #5A82B4F2",
  "CS c #5A8CCAFF",
  "ZT c #5B8BCAFF",
  "Zr c #5B8CCAFF",
  "VL c #5C84B5F0",
  "CA c #5C8DCBFF",
  "A3 c #5D83B3FD",
  "Z| c #5D8ECBFF",
  "Z> c #5E8FCBFF",
  "Cj c #5F8FCBFF",
  "Z: c #5F90CCFF",
  "Ch c #6090CCFF",
  "CZ c #6191CCFF",
  "A$ c #628FCAFF",
  "Cq c #6291CCFF",
  "Z~ c #6391CCFF",
  "Z; c #6392CCFF",
  "ZJ c #6392CDFF",
  "C0 c #6393CDFF",
  "Z- c #6493CDFF",
  "Cc c #6589B6F3",
  "A% c #658CBCFF",
  "ZY c #6592CCFF",
  "Ze c #6593CDFF",
  "Zj c #6594CDFF",
  "Z= c #6694CDFF",
  "Zw c #6695CDFF",
  "C: c #6795CDFF",
  "Zg c #688AB5F6",
  "Zk c #6895CEFF",
  "C; c #6896CEFF",
  "A< c #698BB8FD",
  "VA c #6990C1FA",
  "Z* c #6997CEFF",
  "C. c #6A97CEFF",
  "VC c #6B92C2FA",
  "V| c #6B98CFFF",
  "C_ c #6C98CEFF",
  "C) c #6C99CFFF",
  "Z6 c #6D91C0FE",
  "VQ c #6E99CFFF",
  "Ck c #6E99D0FF",
  "VW c #6E9ACFFF",
  "CK c #709BD0FF",
  "ZU c #7194C3FF",
  "Cn c #719CD0FF",
  "BQ c #7297C3F3",
  "CQ c #729BCFFF",
  "VF c #729DD0FF",
  "C9 c #729DD1FF",
  "VE c #729ED1FF",
  "V2 c #739AC9FF",
  "Cp c #739DD0FF",
  "Cb c #739ED0FF",
  "VD c #739ED1FF",
  "B' c #7498C4F3",
  "V1 c #749AC9FF",
  "Zq c #749DD0FF",
  "Ci c #749FD1FF",
  "Z5 c #759DCFFF",
  "Vv c #759FD1FF",
  "Vc c #76A0D1FF",
  "Cm c #76A0D2FF",
  "Ce c #7799C2FB",
  "C$ c #77A1D2FF",
  "ZS c #789ECFFF",
  "Cf c #799CC8FC",
  "ZH c #79A0D1FF",
  "Vu c #79A2D2FF",
  "ZR c #7A9CC9FF",
  "V_ c #7AA3D2FF",
  "Z` c #7BA0CFFF",
  "Vy c #7BA4D3FF",
  "Cs c #7C9FC7FC",
  "A@ c #7C9FCBFF",
  "ZK c #7CA2D2FF",
  "V) c #7CA4D3FF",
  "Z{ c #7D9DC4FF",
  "Z' c #7DA0CEFF",
  "Z} c #7DA2D1FF",
  "Vx c #7DA4D4FF",
  "V4 c #7DA5D3FF",
  "Vn c #7E9FC8F7",
  "A7 c #7EA0CDFF",
  "V3 c #7EA6D3FF",
  "A6 c #7FA1CDFF",
  "VV c #7FA6D4FF",
  "A5 c #80A2CEFF",
  "VP c #80A6D4FF",
  "2# c #80A7D4FF",
  "ZL c #81A0C7FF",
  "Vd c #81A0C8F7",
  "A4 c #81A3CEFF",
  "V} c #81A7D6FF",
  "V* c #81A8D4FF",
  "CR c #81A8D7FF",
  "Vg c #82A8D4FF",
  "V= c #82A8D5FF",
  "V& c #83A9D5FF",
  "Vi c #83A9D6FF",
  "Ve c #83AAD5FF",
  "C3 c #84A9D6FF",
  "B| c #84AAD5FF",
  "Z% c #85A2C8FE",
  "C1 c #85A4C8FB",
  "Vw c #85ABD5FF",
  "V{ c #86A7D1FF",
  "B} c #86ABD5FF",
  "Vh c #86ABD6FF",
  "M~ c #86ACD5FF",
  "V% c #87ABD5FF",
  "B_ c #88ADD6FF",
  "C! c #89A7CFFF",
  "VS c #89ADD8FF",
  "V$ c #89AED5FF",
  "B) c #89AED6FF",
  "V# c #8AAED6FF",
  "V< c #8AAED7FF",
  "V' c #8BABD3FF",
  "Vz c #8BAED5FF",
  "B( c #8BAFD7FF",
  "Vt c #8BAFD8FF",
  "VG c #8BAFD9FF",
  "Zs c #8CABD3FF",
  "B/ c #8DB0D7FF",
  "B^ c #8EB1D7FF",
  "CJ c #8FB0D8FF",
  "B~ c #8FB2D8FF",
  "Vj c #90B0D7FF",
  "V` c #90B2DAFF",
  "A. c #91AED2FF",
  "Z^ c #91AFD5FF",
  "CX c #91B2DAFF",
  "Mc c #91B3D9FF",
  "Cg c #92B3DCFF",
  "Vq c #93B4DAFF",
  "ZC c #94B0D5FF",
  "ZV c #95B1D5FF",
  "Cw c #95B4DAFF",
  "A, c #96B2D5FF",
  "Z& c #96B4DAFF",
  "ZG c #97B1D2FF",
  "ZB c #97B2D6FF",
  "Co c #97B3D5FF",
  "A> c #98B3D5FF",
  "ZN c #98B3D6FF",
  "Z@ c #98B4D8FF",
  "CD c #98B6DAFF",
  "CL c #98B8DDFF",
  "VR c #99B8DDFF",
  "ZM c #9AB4D7FF",
  "Zh c #9AB7DAFF",
  "C- c #9AB8DEFF",
  "A; c #9BB5D6FF",
  "A: c #9BB5D7FF",
  "Zm c #9BB6D7FF",
  "V6 c #9CB6D7FE",
  "A- c #9DB6D6FF",
  "Zn c #9DB7D7FF",
  "VB c #9DBCDDFF",
  "Z! c #9EB9DAFF",
  "V> c #9FB8D8FE",
  "CT c #9FB9DCFF",
  "CH c #A0B9D8FF",
  "Zb c #A0B9D9FF",
  "Zv c #A1BAD9FF",
  "Cl c #A3BDDBFF",
  "CP c #A3BDDDFF",
  "C8 c #A3BDE0FF",
  "VI c #A3BEE0FF",
  "V. c #A3BFE0FF",
  "Zc c #A4BCDAFF",
  "Ca c #A4C0E1FF",
  "Zx c #A5BDDBFF",
  "V/ c #A6BDDBFF",
  "Zz c #A7BEDBFF",
  "V( c #A7C2E1FF",
  "Zl c #A8BFDBFF",
  "C% c #A8C2E2FF",
  "C4 c #AAC3E1FF",
  "Z0 c #ACC3DEFF",
  "V5 c #ACC5E3FF",
  "B{ c #ADC6E2FF",
  "C2 c #AEC6E3FF",
  "Cv c #B4CAE3FF",
  "CC c #B4CBE7FF",
  "C( c #B6CAE2FF",
  "VH c #B6CBE4FF",
  "C> c #B7CAE3FF",
  "VX c #B7CCE4FF",
  "V, c #B7CDE6FF",
  "Vb c #B7CDE7FF",
  "B[ c #BACDE4FF",
  "Cu c #BACEE4FF",
  "V! c #BBCFE7FF",
  "Zo c #BFD2EAFF",
  "VN c #C1D3E8FF",
  "CM c #C2D4EBFF",
  "Vf c #C2D5EAFF",
  "B` c #C7D8ECFF",
  "C# c #CBDAEBFF",
  "ZX c #CBDBEEFF",
  "Z. c #CCDBEFFF",
  "Vp c #CDDCEEFF",
  "C| c #CDDCEFFF",
  "C} c #CEDCEFFF",
  "B! c #CEDDEEFF",
  "C{ c #CEDDEFFF",
  "C[ c #CFDDEFFF",
  "C] c #CFDEEFFF",
  "C' c #D0DEF0FF",
  "V- c #D0DFEFFF",
  "C` c #D1DFF0FF",
  "V0 c #D2E0EFFF",
  "V@ c #D6E2F1FF",
  "jm c #D8E4F1FF",
  "BR c #D9E4F1FF",
  "BT c #DCE7F3FF",
  "BY c #DDE7F3FF",
  "   c none",
  
  // Image data
  "                                                                ",
  "                                                                ",
  "                                                                ",
  "                      BL8IBPBPBPBPBPBP8IBL                      ",
  "                    BIBUjmBYBYBYBTBTBTBRBEBI                    ",
  "                    BWBQB!B~B^B/B(B)B_B`B'BW                    ",
  "                    B]B[B{B/B(B)B_B}B|V.VXVo                    ",
  "                  VOV+V@B~V#B_V$V%V&V*V=V-V;VO                  ",
  "                  V:V>V,B_M~V<V1V2B|V3V4V5V6V7                  ",
  "                V8V9V0VqVwVeMcVrVrVtVyVuViVpVaV8                ",
  "                VsVdVfB|VgVhVjVkVlVzVxVcVvVbVnVm                ",
  "                VMVNVB2#VVVqVCVZVZVAVSVDVFVGVHVJ                ",
  "              VKVLB!VPV4VVVIVUVYVYVTVRVEVWVQV!V~VK              ",
  "              V^V/V(V)V_V`V'V]    V[V{V}V|C.CXCoCO              ",
  "            C+C@C#V*VuC$C%C&C*    C*C=C-C;C:C.C>C,C+            ",
  "            C<C1C2C$VcC3C4C5C6    C6C7C8C9C0CqCwCeCr            ",
  "          CtCyCuV%CiCpCaCsCd        CdCfCgChCjCkClCzCt          ",
  "          CxCcCvCbCnCmCMCNCB        CBCVCCCZCACSCDCFCx          ",
  "          CGCHCJCKVWCLCPCICUCUCUCYCYCYCICTCRCECWCQC!C~          ",
  "        C^C/C(CnC)C_C`C`C'C'C]C[C{C}C|Z.ZXZoZOZ+Z+Z@Z#C^        ",
  "        Z$Z%Z&V|Z*C;Z=Z-Z;CZZ:Z>CACSZ,Z<Z1Z+Z2Z3Z4Z5Z6Z7        ",
  "      Z8Z9Z0ZqC;ZwZeZ;CZChZ>CAZrZ,ZtZyZuZ2Z3Z4ZiZpZaZsZdZ8      ",
  "      ZfZgZhZwZjZkZlZzZxZcZvZvZbZnZmZMZNZBZVZCZ4ZZZAZSZDZf      ",
  "      ZFZGZHZJCqZKZLZPZIZIZIZIZIZIZIZIZIZIZPZUZYZAZAZTZRZE      ",
  "    ZWZQZ!Z~ChCjZ^Z/Z(                    Z)Z_Z`ZAZAZAZ'Z]ZW    ",
  "    Z[Z{Z}CjZ|ZeA.AXAo+::l@:+B+B+B+B+B@::lAOA+A@A#ZAZAA$A%A&    ",
  "  A*A=A-A;A:A>A,A<A1+w@=9b@-+g&E&E&E+g&V*Q+|A2A3A4A5A5A6A7A8A9  ",
  "  A0AqAwAeAeAeAeAqAr&V&E+N:j9x:d:s&R*Fer*~+gAtAqAyAuAuAuAuAqA0  ",
  "      @.@*+(+h@:+K+k*]@;@=9b@-@-+g@-&V9b@=@;*k*'+r:l:k*!@X+j    ",
  "            +jO`@X&h*!*7+(:k+h+::l+h+h+>+(*7&h@XO`+j            ",
  "                                                                ",
  "                                                                "
};
