/* XPM */
const char *xpm_tango_actions_format_text_strikethrough[] = {
  // Header (width height colors chars-per-pixel)
  "32 32 311 2",
  
  // Colors (code mode value)
  "+j c #00000001",
  "O` c #00000002",
  "@. c #00000003",
  "@X c #00000004",
  "+e c #00000005",
  "&h c #00000006",
  "@* c #00000007",
  "*! c #00000008",
  "*7 c #00000009",
  "+( c #0000000A",
  "+> c #0000000B",
  ":k c #0000000C",
  "+h c #0000000D",
  "+: c #0000000E",
  ":l c #0000000F",
  "@: c #00000010",
  "+B c #00000011",
  "+r c #00000012",
  "+K c #00000013",
  "@o c #00000014",
  "*' c #00000015",
  "+k c #00000016",
  "*k c #00000017",
  "*] c #00000018",
  "+w c #00000019",
  "@; c #0000001A",
  "+| c #0000001B",
  "*Q c #0000001D",
  "9b c #0000001E",
  "&V c #0000001F",
  "@- c #00000020",
  "&E c #00000022",
  "*` c #00000024",
  "HB c #000C0C15",
  "HN c #000D0D14",
  "2d c #00808002",
  "7S c #1C558E09",
  "Hc c #254A775A",
  "Hx c #254A7859",
  "HV c #284C7D39",
  "Hu c #2853895F",
  "Ga c #285E9413",
  "Aq c #295387FF",
  "HM c #2A4F8237",
  "Hw c #2A538731",
  "Hf c #2B558BCE",
  "Hm c #2B568AD8",
  "H7 c #2B578C90",
  "H3 c #2B578EB2",
  "FJ c #2B639C12",
  "Hk c #2C568BD8",
  "Hy c #2C578BF2",
  "H: c #2C578E90",
  "H% c #2C5890F7",
  "H+ c #2D538F22",
  "Hd c #2D558CCE",
  "H8 c #2D578CF2",
  "H$ c #2D588EFF",
  "H2 c #2D588FB1",
  "HO c #2D5992C0",
  "DD c #2D5A8711",
  "GU c #2D5A914A",
  "CI c #2D5A93FF",
  "Gc c #2D5B9576",
  "G~ c #2E5A92C0",
  "GI c #2E5B93E8",
  "Gj c #2E5B9638",
  "FU c #2E64A221",
  "GM c #2F5B94F6",
  "GC c #2F5C93E8",
  "S^ c #2F5C94F6",
  "G7 c #2F5E9AFF",
  "Ge c #305C9874",
  "F[ c #305F9C3B",
  "SE c #30608F10",
  "FZ c #30609F20",
  "Gp c #315E9BA8",
  "GX c #3162A0FF",
  "F] c #325C9C24",
  "Gr c #325E99A8",
  "F( c #3262A08F",
  "Fs c #3263A348",
  "F= c #3264A533",
  "H* c #335C91FF",
  "H& c #335C93F7",
  "FQ c #3362A091",
  "Fm c #3362A172",
  "8I c #3364A4FF",
  "He c #345E93F5",
  "G8 c #34609BA8",
  "Gs c #346198F6",
  "Gx c #346199F6",
  "FY c #3464A08F",
  "FG c #3464A1F4",
  "F! c #3465A1AB",
  "F8 c #3466A676",
  "Hq c #355F92F4",
  "H@ c #356094F6",
  "G. c #35629FF2",
  "Fn c #3562A265",
  "F) c #35639FF2",
  "FK c #3565A1F6",
  "H; c #365F94F6",
  "FC c #3666A3C0",
  "8P c #3666A5FF",
  "Fj c #3667A5E2",
  "Gh c #37649AF6",
  "Fi c #3767A6FF",
  "Fh c #3768A5DB",
  "Ft c #3768A7E7",
  "F- c #3769A6A7",
  "Fx c #3866A3C0",
  "FH c #3955AA09",
  "F, c #3963AA12",
  "F< c #3B6AA8F6",
  "F' c #3C69A4F6",
  "F7 c #3C6BA9F6",
  "FA c #3F6BA7F7",
  "FI c #406CA7F7",
  "Hv c #41699AF4",
  "Hz c #416A9AF4",
  "Gk c #416DA2F4",
  "F{ c #416EA7F4",
  "G! c #4971A3F4",
  "Hj c #4B71A3F5",
  "GY c #4B71A4F3",
  "Hi c #4F75A3F5",
  "Z3 c #5185C8FF",
  "H= c #5788C9FF",
  "CW c #5789C9FF",
  "Fb c #5881B6F3",
  "Fd c #5982B6F4",
  "FM c #5983B9F6",
  "Z, c #598BCAFF",
  "Fz c #5B83B7F4",
  "GW c #5B8CCBFF",
  "Z| c #5D8ECBFF",
  "GE c #5E8FCCFF",
  "H6 c #5F84B5FB",
  "Ch c #6090CCFF",
  "H4 c #6188B7FD",
  "CZ c #6191CCFF",
  "GV c #6287B7F7",
  "D@ c #6291CDFF",
  "Fe c #648EC0FE",
  "Hh c #6491CCFF",
  "Z- c #6493CDFF",
  "S) c #6694CEFF",
  "Gv c #678CB8F7",
  "Fw c #678FC1FD",
  "iB c #6794CEFF",
  "D> c #6795CEFF",
  "H> c #698BB7FB",
  "D: c #6996CEFF",
  "GT c #6B97CEFF",
  "GR c #6B97CFFF",
  "H1 c #6C90BBFD",
  "Hg c #6C90BFFF",
  "C) c #6C99CFFF",
  "VQ c #6E99CFFF",
  "D- c #6E9AD0FF",
  "H5 c #7099CEFF",
  "FW c #7296C4FA",
  "Cp c #739DD0FF",
  "Hs c #7496C2FF",
  "Gw c #7597C0F7",
  "Ho c #7598C4FE",
  "F~ c #759AC8FD",
  "Ha c #779FD1FF",
  "ZS c #789ECFFF",
  "Hn c #799AC4FF",
  "F9 c #7A9DC7F7",
  "Gi c #7D9EC8FD",
  "GB c #7FA5D6FF",
  "7C c #809FC6FF",
  "GA c #80A5D4FF",
  "F} c #80A6D5FF",
  "F/ c #81A2CAFB",
  "Gt c #81A2CAFE",
  "Gf c #81A8D5FF",
  "G^ c #82A2C7FE",
  "Ht c #82A4CEFF",
  "Fg c #82A6CFFF",
  "Fk c #82A6D0FF",
  "Vg c #82A8D4FF",
  "FT c #83A4C9FB",
  "AR c #84A9D5FF",
  "G9 c #85A3C9FD",
  "Hb c #85A7D2FF",
  "H< c #86A8D4FF",
  "HX c #86A9D5FF",
  "Hr c #87A8D3FF",
  "H, c #88ABD5FF",
  "Gu c #88ABD7FF",
  "F4 c #88ACD5FF",
  "AG c #89ADD6FF",
  "Hp c #8AABD4FF",
  "F3 c #8AADD5FF",
  "A_ c #8BADD7FF",
  "Di c #8CACD4FF",
  "H- c #8CACD5FF",
  "A[ c #8CB0D7FF",
  "Gm c #8EABCDFF",
  "FD c #8EB2D8FF",
  "DV c #8FADD2FF",
  "GQ c #8FAFD7FF",
  "H9 c #90AED1FF",
  "Ff c #90B2D9FF",
  "Fq c #90B3D9FF",
  "F^ c #91B3DBFF",
  "Hl c #92AFD4FF",
  "F5 c #92B3D9FF",
  "Dg c #93B0D5FF",
  "Fp c #94B4DBFF",
  "Fa c #95B5DBFF",
  "FN c #95B6DCFF",
  "F; c #96B2D5FD",
  "H0 c #96B2D6FF",
  "G| c #96B3D9FF",
  "G} c #97B4D9FF",
  "G{ c #97B5DAFF",
  "Sx c #97B7DBFF",
  "F> c #98B3D6FD",
  "H# c #98B3D7FF",
  "Gy c #98B6DEFF",
  "Gn c #98B7DDFF",
  "F2 c #98B8DBFF",
  "H. c #99B5D9FF",
  "G[ c #99B5DAFF",
  "G0 c #99B7DBFF",
  "FL c #99B8DBFF",
  "GZ c #9AB4D5FF",
  "GN c #9AB6D9FF",
  "G] c #9AB6DAFF",
  "Zh c #9AB7DAFF",
  "G' c #9BB7DAFF",
  "FF c #9CBADBFF",
  "FB c #9CBADDFF",
  "FE c #9CBADEFF",
  "G` c #9DB8DBFF",
  "Go c #9DBADEFF",
  "S; c #9DBBDDFF",
  "GO c #9DBBDEFF",
  "G+ c #9DBBDFFF",
  "FV c #9EB8D9FE",
  "SM c #9EB9D8FF",
  "Gb c #9EBADDFF",
  "G@ c #9EBBDFFF",
  "G# c #9EBBE0FF",
  "Fu c #9EBCDDFF",
  "G$ c #9FBCE0FF",
  "G% c #A0BCE0FF",
  "G& c #A0BDE0FF",
  "Fc c #A1BAD9FE",
  "G* c #A1BEE1FF",
  "G_ c #A2BCDBFF",
  "G= c #A2BEE1FF",
  "Gz c #A3BCDCFF",
  "G) c #A3BDDCFF",
  "CP c #A3BDDDFF",
  "V. c #A3BFE0FF",
  "G- c #A3BFE1FF",
  "G( c #A4BDDDFF",
  "G; c #A4C0E2FF",
  "G/ c #A5BEDDFF",
  "G: c #A5C0E3FF",
  "Fv c #A6C2E0FF",
  "G> c #A7C1E3FF",
  "G, c #A7C2E4FF",
  "C% c #A8C2E2FF",
  "G< c #A9C3E4FF",
  "Gq c #AAC4E3FF",
  "G1 c #ABC4E5FF",
  "F` c #AEC6E4FF",
  "G2 c #AEC6E6FF",
  "FR c #AFC8E4FF",
  "Gd c #B0C6E0FF",
  "G3 c #B1C8E7FF",
  "GP c #B1C9E6FF",
  "G4 c #B4CAE8FF",
  "GK c #B5CBE7FF",
  "F| c #B6CAE4FF",
  "S$ c #B6CBE3FF",
  "GJ c #B6CCE7FF",
  "G5 c #B6CCE8FF",
  "Fr c #B6CDE6FF",
  "GH c #B7CCE7FF",
  "Fy c #B8CCE4FF",
  "GG c #B8CDE7FF",
  "Gl c #B8CDE8FF",
  "GF c #B9CDE7FF",
  "Sh c #B9CEE7FF",
  "G6 c #B9CEE9FF",
  "GD c #BACEE7FF",
  "F_ c #BBCEE5FF",
  "V! c #BBCFE7FF",
  "S} c #BCD0E8FF",
  "GL c #BCD0E9FF",
  "D+ c #BCD0EAFF",
  "F0 c #BDD2E8FF",
  "Gg c #BED1E8FF",
  "Fl c #BED2E9FF",
  "FP c #C0D3EAFF",
  "Vf c #C2D5EAFF",
  "GS c #C4D6ECFF",
  "F6 c #C6D7EBFF",
  "FS c #C7D8EBFF",
  "F1 c #C9D9EBFF",
  "F: c #D1DFEFFF",
  "V0 c #D2E0EFFF",
  "   c none",
  
  // Image data
  "                                                                ",
  "                                                                ",
  "                                                                ",
  "                        F=8I8I8I8I8I8IF=                        ",
  "                        F-F;V0V0F:F:F>F-                        ",
  "                      F,F<F1F2F3F4F5F6F7F,                      ",
  "                      F8F9F0FqFwFeA[FrF9F8                      ",
  "                    2dFtFyFuSxFi8PFpFaS$Ft2d                    ",
  "                    FsFdF6FfFgFhFjFkAGFlFzFs                    ",
  "                    FxFcFvS;FbFnFmFMFNFBFVFC                    ",
  "                  FZFAFSFDFFFGFHFJFKFLVgFPFIFU                  ",
  "                  FYFTFRFEFWFQ    F!F~F^V.F/F(                  ",
  "                FHF)F_FfF`F'F]    F[F{C%F}F|G.FH                ",
  "    8I8I8I8I8I8I8I8I8I8I8I8I8I8I8I8I8I8I8I8I8I8I8I8I8I8I8I8I    ",
  "    GXGoGOG+G@G+G#G$G%G&G*G=G-G;G:G>G,G<G1G2G3G4G5G6D+D+D+GX    ",
  "    G7G7G7G7G7G7G7G7G7G7G7G7G7G7G7G7G7G7G7G7G7G7G7G7G7G7G7G7    ",
  "              G8G9G0GqGwGe            GrGtGyGuGiGp              ",
  "            GaGsGdGfGgGhSE            GjGkGlS)GzGxGa            ",
  "            GcGvGbGnGmCIS^S^S^S^S^S^GMGMCIGNGBA_GVGc            ",
  "          2dGCGZGAGSVfS}V!GDShGFGGGGGHGJGKGLGPiBDVGI2d          ",
  "          GUGYCPGTD-C)GRD:D>S)Z-D@CZChGEZ|GWZ,Z3GQG!GU          ",
  "          G~G^ARZhG/G(G)GzG_G`G'G]G]G[G{G}G|H.HXGRHoHO          ",
  "        H+H@SMCpH#H$H%H%H%H%H&H&H&H&H&H&H&H&H*DiH=H-H;H+        ",
  "        H:H>H,H<H1H2DDDDDDDDDDDDDDDDDDDDDDDDH3H4H5H5H6H7        ",
  "      7SH8H9VQH0HqHw                        HwHeHrCWHtHy7S      ",
  "      HuHiHpHaHsHd@**7+(+>:k:k:k:k:k:k+>+(*7*!HfHgHhZSHjHu      ",
  "    +jHk7CDgHlHzHx@:+r@o+k*k*]+w+w*]*]*k*'+K+rHcHvHbHbHnHm@.    ",
  "  +jHMAqAqAqAqAqHN@o+k+w+|9b@-&E*`&E&V*Q@;*]+kHBAqAqAqAqAqHVO`  ",
  "      O`+e@**7:k+::l+B+K*'+k*k*k*k*k+k*'@o+r+B:l+h+>*7&hO`+j    ",
  "            +j+j@.@X+e@**!*7+(+(+(+(*7*!@*&h@X@.+j+j            ",
  "                                                                ",
  "                                                                "
};
