/* XPM */
const char *xpm_tango_actions_format_indent_less[] = {
  // Header (width height colors chars-per-pixel)
  "32 32 134 2",
  
  // Colors (code mode value)
  "O` c #00000002",
  "@* c #00000007",
  "*! c #00000008",
  "*7 c #00000009",
  "+: c #0000000E",
  ":l c #0000000F",
  "*' c #00000015",
  "+| c #0000001B",
  "*Q c #0000001D",
  "&E c #00000022",
  "+/ c #00000023",
  "+J c #00000027",
  "eg c #0000002A",
  "*F c #0000002B",
  "&R c #0000002F",
  "v3 c #09090939",
  "v< c #24242438",
  "<$ c #555753FF",
  "B7 c #565854FF",
  "<f c #585A56FF",
  "<n c #595B57FF",
  "<J c #5A5C58FF",
  "v> c #61616115",
  "fH c #61635FFF",
  "Br c #636561FF",
  "B= c #6F716DFF",
  "B9 c #70726EFF",
  "B> c #70726FFF",
  "h% c #71736FFF",
  "B1 c #80817EFF",
  "Bt c #818380FF",
  "B* c #828381FF",
  "B0 c #868785FF",
  "B3 c #878886FF",
  "v2 c #878985EC",
  "v1 c #878A85E0",
  "c! c #8888880F",
  "B, c #888987FF",
  "eB c #888A85FF",
  "g% c #898A88FF",
  "B4 c #8B8C89FF",
  "rf c #8B8D88F9",
  "v, c #8B8D88FA",
  "cE c #8B8D89E5",
  "c^ c #8C8E88F9",
  "cQ c #8C8E89F9",
  "cR c #8D8F8BD9",
  "B2 c #90918FFF",
  "f; c #959693FF",
  "<d c #999999FF",
  "k> c #999A97FF",
  "B& c #9B9C9AFF",
  "Bq c #9D9E9BFF",
  "<A c #9D9E9CFF",
  "<Z c #9E9F9DFF",
  "B- c #9FA09EFF",
  "e[ c #A2A3A1FF",
  "cW c #AAAAAA03",
  "Bw c #B4B4B2FF",
  "B5 c #B4B4B3FF",
  "gs c #B4B5B2FF",
  "<k c #B5B5B4FF",
  "1@ c #B6B6B5FF",
  "B; c #B7B7B6FF",
  "B8 c #B8B9B8FF",
  "ks c #C9CAC8FF",
  "tX c #CACBC9FF",
  "Be c #CACBCAFF",
  "B6 c #CBCCCAFF",
  "fa c #CBCCCBFF",
  "B< c #CCCDCCFF",
  "B: c #CDCECDFF",
  ",B c #D8D8D8FF",
  "%l c #DEDEDCFF",
  "&v c #DEDEDDFF",
  "=P c #DEDEDEFF",
  "%r c #DFDFDDFF",
  "6j c #E0E0DFFF",
  "&_ c #E0E0E0FF",
  "%: c #E1E1DFFF",
  "v: c #E2E2DEFF",
  "v; c #E2E2DFFF",
  "%# c #E2E2E1FF",
  "v- c #E3E3DFFF",
  "v= c #E3E3E0FF",
  "%e c #E3E3E1FF",
  "&3 c #E3E3E2FF",
  "+S c #E3E3E3FF",
  "v* c #E4E4E1FF",
  "%- c #E4E4E2FF",
  "rt c #E4E4E3FF",
  "&K c #E4E4E4FF",
  "%h c #E5E5E3FF",
  "#* c #E5E5E4FF",
  ";3 c #E5E5E5FF",
  "%= c #E6E6E4FF",
  "6A c #E6E6E5FF",
  ";b c #E6E6E6FF",
  "&. c #E7E7E6FF",
  ";G c #E7E7E7FF",
  "6$ c #E8E8E7FF",
  ":# c #E8E8E8FF",
  "lC c #E9E9E8FF",
  ":2 c #E9E9E9FF",
  "lb c #EAEAE9FF",
  ",$ c #EAEAEAFF",
  "6d c #EBEBEAFF",
  ":, c #EBEBEBFF",
  "j# c #ECECEBFF",
  ":> c #ECECECFF",
  "ld c #EDEDECFF",
  ";9 c #EDEDEDFF",
  "5] c #EEEEEDFF",
  ":< c #EEEEEEFF",
  "lt c #EFEFEEFF",
  ";A c #EFEFEFFF",
  "l8 c #F0F0EFFF",
  ";T c #F0F0F0FF",
  ",0 c #F1F1F0FF",
  ";` c #F1F1F1FF",
  "c} c #F2F2F1FF",
  ";' c #F2F2F2FF",
  "55 c #F3F3F2FF",
  ":O c #F3F3F3FF",
  "hE c #F4F4F3FF",
  ":3 c #F4F4F4FF",
  "c` c #F5F5F4FF",
  "=a c #F5F5F5FF",
  "c/ c #F6F6F5FF",
  "+W c #F6F6F6FF",
  "c~ c #F7F7F6FF",
  ",3 c #F8F8F7FF",
  ">X c #FFFFFFFF",
  "   c none",
  
  // Image data
  "                                                                ",
  "      cReBeBeBeBeBeBeBeBeBeBeBeBeBeBeBeBeBeBeBeBeBeBeBeBcEcW    ",
  "      eB>X>X>X>X>X>X>X>X>X>X>X>X>X>X>X>X>X>X>X>X>X>X>X>XcQc!    ",
  "      eB>X,3,3,3,3,3,3,3,3,3,3,3,3,3,3,3,3,3,3,3,3,3c~>Xc^c!    ",
  "      eB>X,3,3,3,3,3,3,3,3,3,3,3,3,3,3,3,3,3,3,3,3c~c/>Xrfc!    ",
  "      eB>X,3,3<d<d<d<d<d<d<d<d<d<d<d<d,3,3,3,3c~c~c/c`>Xrfc!    ",
  "      eB>X,3,3,3,3,3,3,3,3,3,3,3,3,3,3,3,3,3c~c/=ac`hE>Xrfc!    ",
  "      eB>X,3,3,3,3,3,3,3,3,3,3,3,3,3,3,3c~+Wc/c`:3hE55>Xrfc!    ",
  "      eB>X,3,3<d<d<d<d<d<d<d<d<d<d<dc~c~c/=ac`hE:O55c}>Xrfc!    ",
  "      eB>X,3,3,3,3,3,3,3,3,3,3,3,3c~c/c/c`:3hE55;'c},0>Xrfc!    ",
  "      eB>X,3,3,3,3,3,3,3,3,3,3c~c~c/c`c`hE:O55c};`,0l8>Xrfc!    ",
  "      eB>X,3,3<d<d<d<d<d<d<d<d<d<dc`hEhE55;'c},0;T;Alt>Xrfc!    ",
  "      eB>X,3,3,3,3,3,3,3c~c~c/c`c`hE5555c};`;Tl8;A:<5]>Xrfc!    ",
  "      eB>X,3,3,3,3,3,3c~c/c/c`hE:O55c};`,0;T;Alt:<;9ld>Xrfc!    ",
  "      eB>X,3,3,3,3c~c~c/c`;'B&lb;'c},0;Tl8;A:<5];9:>j#>Xrfc!    ",
  "      eB>X,3,3,3c~c/=ac`6dB*<$lC;`,0l8;Alt:<;9ld:>:,6d>Xrfc!    ",
  "      eB>X,3c~+Wc/c`:3%rB=<$<$6$;Tl8lt:<5];9:>j#:,,$:2>Xrfc!    ",
  "      eB>Xc~c/=ac`hEfafH<$<$<$&.;Alt5];9ld:>:,,$,$:2:#>Xrfc!    ",
  "      eB>Xc/c`:3hEgs<f<$<$<$<$<$<$<Jh%g%B-B;B:;b:2:#;G>Xrfc!    ",
  "      eB>Xc`hE;`k><$<$<$<$<$<$<$<$<nB>B,B-1@B<;3:#;G&.>Xrfc!    ",
  "      eB>XhElCB1<$<$<$<$<$<$<$<$<$<nB>B,<Z1@fa&K;G&.6A>Xrfc!    ",
  "      eB>X55B2<$<$<$<$<$<$<$<$<$<$<nB>B3<Z<kfart;b6A%=>Xrfc!    ",
  "      eB>X;`j#B4<$<$<$<$<$<$<$<$<$<nB>B3<AB5B6+S6A#*%h>Xrfc!    ",
  "      eB>X;Tl8:<e[B7<$<$<$<$<$<$<$<nB>B3<AB5tX&3#*%h%->Xrfc!    ",
  "      eB>X;Alt:<;9B8<n<$<$<$<$<$<$<nB9B0BqBwks%e%h%-v*>Xrfc!    ",
  "      eB>X:<5];9:>j#BeBr<$<$<f=P=P%l&v6j%:%#%e%-%-v*v=>Xrfc!    ",
  "      eB>X;9ld:>:,,$,$,BB=<$<$&.;b6A%=#*%h%h%-v*%ev=v->Xrfc!    ",
  "      eB>X:>:,:,,$:2:2:#&_Bt<$6A6A#*%h%h%-%-v*v=v=v;v:>Xrfc!    ",
  "      eB>X:,,$,$:2:#:#;G&.&Kf;%=#*%h%h%-v*%ev=v-v;v:v:>Xrfv>    ",
  "  *7+|eB>X>X>X>X>X>X>X>X>X>X>X>X>X>X>X>X>X>X>X>X>X>X>X>Xv,v<+|*!",
  "  :l+/v1eBeBeBeBeBeBeBeBeBeBeBeBeBeBeBeBeBeBeBeBeBeBeBeBv2v3+/*!",
  "    @**'&E*F&R&R&R&R&R&R&R&R&R&R&R&R&R&R&R&R&R&R&R&Reg+J*Q+:O`  "
};
