/* XPM */
const char *xpm_tango_actions_go_bottom[] = {
  // Header (width height colors chars-per-pixel)
  "32 32 301 2",
  
  // Colors (code mode value)
  "+j c #00000001",
  "O` c #00000002",
  "@. c #00000003",
  "@X c #00000004",
  "+e c #00000005",
  "&h c #00000006",
  "@* c #00000007",
  "*! c #00000008",
  "+( c #0000000A",
  "+> c #0000000B",
  ":k c #0000000C",
  "+h c #0000000D",
  "+: c #0000000E",
  ":l c #0000000F",
  "@: c #00000010",
  "+r c #00000012",
  "+K c #00000013",
  "*' c #00000015",
  "*] c #00000018",
  "+| c #0000001B",
  "9b c #0000001E",
  "@- c #00000020",
  "+g c #00000021",
  "&E c #00000022",
  "L0 c #2B800006",
  "KD c #3377000F",
  "Kx c #3380000A",
  "KF c #3971001B",
  "KE c #39780024",
  "K{ c #39780355",
  "K$ c #3B740267",
  "L& c #3B750271",
  "J~ c #3B7502F9",
  "J@ c #3B7502FF",
  "La c #3B77002B",
  "J^ c #3B770356",
  "KW c #3C730033",
  "Lj c #3C740440",
  "K[ c #3C740444",
  "Kq c #3C760291",
  "Lk c #3C7602F7",
  "K% c #3C770283",
  "Kc c #3C7702D4",
  "Ll c #3C7702F7",
  "Lp c #3C780011",
  "Lv c #3C7802F7",
  "KS c #3D7702E1",
  "Ls c #3D7703F7",
  "Kw c #3D7801B1",
  "Kl c #3D7801BF",
  "Lc c #3D7802F7",
  "L9 c #3D7804CE",
  "Lq c #3D7804D4",
  "Li c #3D790015",
  "L2 c #3D7901AF",
  "L* c #3D790281",
  "L1 c #3D7902A4",
  "Lu c #3E7A04EA",
  "KG c #3F7A06EC",
  "J< c #407909FF",
  "KR c #417A07F2",
  "Lh c #417A09FD",
  "KQ c #478011F5",
  "K] c #498112F6",
  "K} c #4C8416F6",
  "JA c #4E9905FF",
  "Jv c #4F9906FF",
  "K# c #50851CFA",
  "Lx c #518C16FC",
  "zf c #519B0AFF",
  "JQ c #519E06FF",
  "JW c #529F06FF",
  "Jd c #549D0EFF",
  "L[ c #549F0AFF",
  "JE c #54A009FF",
  "Kz c #55550003",
  "L] c #55A10AFF",
  "K. c #55A408FF",
  "J/ c #568A24F7",
  "Ja c #569D10FF",
  "JZ c #569E11FF",
  "L' c #56A20BFF",
  "J| c #56A508FF",
  "K7 c #56A608FF",
  "L% c #578F21F5",
  "L` c #57A50CFF",
  "L_ c #58A50BFF",
  "K6 c #58A809FF",
  "K< c #59A80AFF",
  "K5 c #59A909FF",
  "K1 c #59AA09FF",
  "K4 c #59AA0AFF",
  "K2 c #59AB0AFF",
  "L= c #5A9224F5",
  "L) c #5AA90EFF",
  "K3 c #5AAB0AFF",
  "J0 c #5BA118FF",
  "K8 c #5BA712FF",
  "Kg c #5BAD0AFF",
  "Kp c #5BAE0BFF",
  "Jc c #5CA119FF",
  "L( c #5CAB0EFF",
  "Kh c #5CAC0DFF",
  "Kf c #5CAF0BFF",
  "Jp c #5DA21BFF",
  "Ka c #5DAF0BFF",
  "Ks c #5DB00BFF",
  "Kd c #5DB10BFF",
  "JL c #5EA21CFF",
  "Ki c #5EAB12FF",
  "L/ c #5EAF10FF",
  "KK c #5EB10BFF",
  "J} c #5FA917FF",
  "KC c #5FB20CFF",
  "KM c #5FB30CFF",
  "K0 c #60942EF6",
  "Km c #60AC13FF",
  "L^ c #60B012FF",
  "KV c #60B40CFF",
  "KN c #60B50DFF",
  "JC c #61A420FF",
  "KB c #61B60DFF",
  "Jj c #62A521FF",
  "J9 c #62A522FF",
  "KL c #62B80DFF",
  "K^ c #62B80EFF",
  "Ji c #63A522FF",
  "JR c #63A81EFF",
  "L~ c #63B415FF",
  "KU c #63BA0EFF",
  "L! c #64B615FF",
  "KP c #64BA0EFF",
  "LX c #64BB0EFF",
  "KI c #65BC0FFF",
  "JK c #66A726FF",
  "JV c #66A727FF",
  "K, c #66AE1EFF",
  "Jx c #67A728FF",
  "J8 c #67A828FF",
  "LQ c #67B817FF",
  "K/ c #67BF10FF",
  "Lo c #67C010FF",
  "Ju c #68A829FF",
  "LI c #68B320FF",
  "K_ c #68C110FF",
  "K& c #69993BF6",
  "K( c #69C110FF",
  "K) c #69C210FF",
  "JJ c #6AA92DFF",
  "LW c #6AB91AFF",
  "LO c #6AC411FF",
  "L< c #6BA236F7",
  "JB c #6BAA2EFF",
  "LU c #6BB523FF",
  "Lr c #6BC412FF",
  "Jz c #6CAA2FFF",
  "JT c #6CAD2CFF",
  "LY c #6CB722FF",
  "LE c #6CBA1DFF",
  "L+ c #6CC712FF",
  "L3 c #6DA339F7",
  "J7 c #6DAB30FF",
  "LR c #6DBB1FFF",
  "L5 c #6DC417FF",
  "L@ c #6DC812FF",
  "J{ c #6EB12DFF",
  "LT c #6EBB21FF",
  "JH c #6FAC34FF",
  "L; c #6FC11FFF",
  "L: c #6FCB13FF",
  "JN c #70AD35FF",
  "JY c #70AF33FF",
  "L6 c #70CB14FF",
  "Jh c #71AD37FF",
  "J6 c #72AE36FF",
  "Jy c #72AE38FF",
  "L. c #73BF29FF",
  "Kk c #74A644F9",
  "JG c #74AF3BFF",
  "JU c #74B139FF",
  "J[ c #75B439FF",
  "L> c #75CF1AFF",
  "JM c #76B03DFF",
  "Jl c #76B03EFF",
  "J5 c #76B13EFF",
  "L# c #76CA23FF",
  "Jt c #77B13FFF",
  "JI c #78B240FF",
  "Ku c #78B739FF",
  "K> c #78B73AFF",
  "JF c #79B242FF",
  "J] c #79B43EFF",
  "Jm c #7AB344FF",
  "K~ c #7ABE37FF",
  "J4 c #7BB345FF",
  "K: c #7BB741FF",
  "K` c #7BC82FFF",
  "Jg c #7CB346FF",
  "Kn c #7CB93FFF",
  "Jr c #7DB447FF",
  "Ky c #7DB943FF",
  "Ke c #7EA953F8",
  "K; c #7EB646FF",
  "K- c #7FB64BFF",
  "J3 c #80B54CFF",
  "Lw c #82B74FFB",
  "Kt c #82B94BFF",
  "L8 c #82B94CFB",
  "JP c #83B750FF",
  "J' c #83B94EFF",
  "KY c #83C640FF",
  "JD c #85B953FF",
  "Jn c #86B955FF",
  "Jk c #87BA56FF",
  "Je c #88BB58FF",
  "KA c #89B959FE",
  "K= c #8ABB5AFF",
  "J2 c #8CBD5EFF",
  "KZ c #8DC753FF",
  "KJ c #90C55BFF",
  "Kv c #92B969FC",
  "Ld c #93C461FE",
  "Lt c #94D653FF",
  "Kj c #96C864FF",
  "Ly c #96CA61FE",
  "KT c #99C86AFF",
  "K9 c #9BC76FFF",
  "Le c #9BD562FF",
  "K! c #9DC970FF",
  "Js c #9FC777FF",
  "J! c #A0CA77FF",
  "Lg c #A0D170FF",
  "KH c #A1C87CFE",
  "K@ c #A2C87DFF",
  "Jq c #A2C97CFF",
  "L4 c #A2D76EFF",
  "L7 c #A2DF67FF",
  "J> c #A3CA7DFF",
  "J, c #A3CA7EFF",
  "L} c #A3CB7EFF",
  "K+ c #A4CB7EFF",
  "P# c #A4CC7EFF",
  "K| c #A4D177FF",
  "L| c #A5CC7EFF",
  "L{ c #A5CC7FFF",
  "KO c #A5CD7EFF",
  "P@ c #A5CE7FFF",
  "K' c #A5D476FF",
  "J: c #A6CB81FF",
  "Ko c #A6CE7FFF",
  "KX c #A6CF7FFF",
  "L- c #A6D676FF",
  "P. c #A7CF7FFF",
  "LL c #A7CF81FF",
  "Lz c #A7D877FF",
  "Kb c #A8D082FF",
  "PX c #A8D17FFF",
  "J; c #A9CE85FF",
  "LK c #A9D182FF",
  "Po c #A9D280FF",
  "PO c #A9D380FF",
  "LP c #AACE88FF",
  "P+ c #AAD480FF",
  "L, c #AADF74FF",
  "L$ c #ABDC7AFF",
  "J- c #ACCF89FF",
  "LJ c #ACD384FF",
  "Lb c #ADD08DFF",
  "LH c #ADD684FF",
  "Lf c #ADDD7FFF",
  "J= c #AED08DFF",
  "Ln c #AED28DFF",
  "LG c #AFD886FF",
  "Lm c #B0D38DFF",
  "LF c #B0D987FF",
  "J* c #B1D291FF",
  "LM c #B1D58DFF",
  "Kr c #B2D393FF",
  "LN c #B2D78DFF",
  "LB c #B2D98CFF",
  "LD c #B2DA88FF",
  "LS c #B2DB8AFF",
  "LV c #B3DA8DFF",
  "LA c #B3DC8BFF",
  "LC c #B3DC8CFF",
  "J& c #B4D495FF",
  "LZ c #B4DC8CFF",
  "J% c #B7D599FF",
  "JS c #B7D69AFF",
  "Jb c #B9D69BFF",
  "Jf c #BAD79DFF",
  "Jw c #BAD79EFF",
  "K* c #BBD79EFF",
  "J1 c #BBD89FFF",
  "J` c #BDD9A1FF",
  "J$ c #BDD9A2FF",
  "J_ c #BEDAA4FF",
  "J( c #C0DAA7FF",
  "J# c #C0DBA6FF",
  "J) c #C2DCA9FF",
  "   c none",
  
  // Image data
  "                                                                ",
  "                                                                ",
  "                                                                ",
  "                  J@J@J@J@J@J@J@J@J@J@J@J@J@                    ",
  "                  J@J#J$J%J&J*J=J-J;J:J>J,J<                    ",
  "                  J@J1J2J3J4J5J6J7J8J9J0JqJ<                    ",
  "                  J@JwJeJrJtJyJ7JuJiJpJaJsJ<                    ",
  "                  J@JwJeJrJtJyJ7JuJiJpJdJsJ<                    ",
  "                  J@JfJeJgJtJhJ7JuJjJpzfJsJ<                    ",
  "                  J@JfJkJ4JlJhJzJxJjJcJvJsJ<                    ",
  "                  J@JbJnJmJMJNJBJVJCJZJAJsJ<                    ",
  "                  J@JSJDJFJGJHJJJKJLJvJAJsJ<                    ",
  "        J@J@J@J@J@J@J%JPJIJUJYJTJRJEJWJQJ!J<J@J@J~J@J@          ",
  "        J^J/J(J)J#J_J`J'J]J[J{J}J|J|J|K.KXKoKOK+K@K#K$          ",
  "          K%K&K*K=K-K;K:K>K,K<K1K2K3K4K5K6K7K8K9K0Kq            ",
  "          +jKwKeKrKtKyKuKiK3KpKaKsKdKsKfKgKhKjKkKlKz            ",
  "            KxKcKvKbKnKmKgKsKMKNKBKBKBKVKCKZKAKSKD              ",
  "              KFKGKHKJKgKKKVKLKPKIKIKIKUKYKTKRKE                ",
  "                KWKQK!K~KVK^KIK/K(K)K_K`K'K]K[                  ",
  "                  K{K}K|L.LXLoLOL+L@L#L$L%L&                    ",
  "                    L*L=L-L;K)L+L:L>L,L<L1                      ",
  "                    +jL2L3L4L5L+L6L7L8L9L0                      ",
  "                      KxLqLwLeLrLtLyLuLi                        ",
  "        KxLpLpLpLpLpLpLpLaLsLdLfLgLhLjLpLpLpLpLpLpLpKx          ",
  "        J@LkLkLlLlLlLlLlLlJ@J<LzLxJ@LcLcLvLlLlLlLlLlJ@          ",
  "        J@J=J=LbLnLmLMLNLBLVLCLZLALALSLDLFLGLHLJLKLLJ@          ",
  "        J@LPLILULYLTLRLELWLQL!L~L^L/L(L)L_L`L'L]L[L{J@          ",
  "        J@J,J,J,J,L}L|KoP.PXPoPOPOP+POPoPoPXKXP@P#J,J@@X        ",
  "        J@J@J@J@J@J@J@J@J@J@J@J@J@J@J@J@J@J@J@J@J@J@J@&h+j      ",
  "          O`@*+>+:+r*'*]+|9b@-+g&E+g@-9b+|*]*'+r+:+>+e+j        ",
  "              +j@.&h+(+h:l@:+r+r+K+r+r@::l:k*!@XO`              ",
  "                            +j+j+j+j                            "
};
