/* XPM */
const char *xpm_tango_actions_go_down[] = {
  // Header (width height colors chars-per-pixel)
  "32 32 262 2",
  
  // Colors (code mode value)
  "+j c #00000001",
  "O` c #00000002",
  "@. c #00000003",
  "@X c #00000004",
  "+e c #00000005",
  "&h c #00000006",
  "@* c #00000007",
  "*7 c #00000009",
  "+( c #0000000A",
  "+> c #0000000B",
  ":k c #0000000C",
  "+h c #0000000D",
  "+: c #0000000E",
  ":l c #0000000F",
  "@: c #00000010",
  "+B c #00000011",
  "+r c #00000012",
  "+K c #00000013",
  "@o c #00000014",
  "*' c #00000015",
  "+k c #00000016",
  "*] c #00000018",
  "+w c #00000019",
  "@; c #0000001A",
  "+| c #0000001B",
  "@= c #0000001C",
  "9b c #0000001E",
  "&V c #0000001F",
  "&E c #00000022",
  "+/ c #00000023",
  "*~ c #00000025",
  "+N c #00000026",
  "er c #00000028",
  ":j c #00000029",
  "I~ c #0612002A",
  "I! c #08170022",
  "I) c #172E0042",
  "I_ c #1935003E",
  "I` c #274E035C",
  "L0 c #2B800006",
  "PE c #33660005",
  "KD c #3377000F",
  "IJ c #376D0570",
  "IV c #3774062E",
  "IT c #386F03AE",
  "I% c #39710536",
  "IC c #3972043A",
  "I, c #39730447",
  "Pl c #3A720569",
  "I$ c #3A73001F",
  "IY c #3A73039F",
  "P$ c #3A7304FF",
  "I^ c #3A7305DB",
  "P[ c #3A740016",
  "Py c #3A7404F6",
  "Pk c #3A7404FA",
  "Pu c #3B7304FC",
  "I< c #3B730564",
  "PZ c #3B740570",
  "PA c #3B750397",
  "Iw c #3B75039F",
  "P] c #3B7504D7",
  "Iq c #3B770481",
  "IQ c #3C7405D5",
  "PR c #3C7503A5",
  "If c #3C7604CF",
  "Ix c #3C7704E5",
  "Id c #3C7705BC",
  "Ic c #3D700019",
  "IH c #3D74035C",
  "P& c #3D7508FF",
  "I( c #3D7608F2",
  "P% c #3E7609FF",
  "I# c #3E7708F1",
  "Pj c #3F770BFF",
  "PW c #3F7808CC",
  "P4 c #40780BF8",
  "Iv c #40790AEC",
  "P* c #40800008",
  "P2 c #41780BF9",
  "IB c #417B0CF5",
  "P{ c #457C12ED",
  "IZ c #487E14F6",
  "I> c #497E15F6",
  "JA c #4E9905FF",
  "PC c #4F841EF9",
  "Jv c #4F9906FF",
  "Ph c #4F9B05FF",
  "Pt c #509A08FF",
  "IG c #51881DF5",
  "zf c #519B0AFF",
  "PB c #52A007FF",
  "I& c #538623F7",
  "PN c #53A107FF",
  "Jd c #549D0EFF",
  "Pg c #549E0BFF",
  "PI c #54A207FF",
  "PM c #55A20AFF",
  "PU c #55A20CFF",
  "K. c #55A408FF",
  "IK c #568B22F6",
  "Ja c #569D10FF",
  "JZ c #569E11FF",
  "K7 c #56A608FF",
  "PP c #57A709FF",
  "Pq c #589F13FF",
  "K< c #59A80AFF",
  "K5 c #59A909FF",
  "K1 c #59AA09FF",
  "K4 c #59AA0AFF",
  "K3 c #5AAB0AFF",
  "P_ c #5AAC0AFF",
  "P) c #5BAC0AFF",
  "Kg c #5BAD0AFF",
  "I0 c #5C9228F5",
  "IO c #5CAE0BFF",
  "Kf c #5CAF0BFF",
  "P7 c #5DA11AFF",
  "Jp c #5DA21BFF",
  "PL c #5DA912FF",
  "Ks c #5DB00BFF",
  "KK c #5EB10BFF",
  "I= c #5EB10CFF",
  "Io c #5EB20CFF",
  "Pr c #5FA31EFF",
  "KV c #60B40CFF",
  "JC c #61A420FF",
  "KB c #61B60DFF",
  "Jj c #62A521FF",
  "It c #62B611FF",
  "I- c #62B70DFF",
  "KL c #62B80DFF",
  "Ji c #63A522FF",
  "I4 c #63B90EFF",
  "PT c #659835F7",
  "Pf c #65A822FF",
  "Pm c #65AA20FF",
  "I3 c #65B218FF",
  "I5 c #65BB0EFF",
  "KI c #65BC0FFF",
  "I7 c #65BD0FFF",
  "JK c #66A726FF",
  "JV c #66A727FF",
  "I6 c #66BD0FFF",
  "I1 c #67963AF6",
  "Jx c #67A728FF",
  "P( c #67AE20FF",
  "IU c #689F35F7",
  "Ju c #68A829FF",
  "IX c #68B022FF",
  "Iy c #68C010FF",
  "K) c #69C210FF",
  "Iu c #69C311FF",
  "JJ c #6AA92DFF",
  "Ip c #6AC212FF",
  "Ii c #6AC311FF",
  "I/ c #6B9E3AFD",
  "Pd c #6BAB2CFF",
  "I8 c #6BBE19FF",
  "Ij c #6BC511FF",
  "IR c #6CA039F8",
  "Jz c #6CAA2FFF",
  "L+ c #6CC712FF",
  "J7 c #6DAB30FF",
  "L@ c #6DC812FF",
  "Ik c #6DC912FF",
  "Ie c #6E9F3FF7",
  "JH c #6FAC34FF",
  "Ps c #6FAD33FF",
  "PK c #6FB12EFF",
  "Im c #6FCC13FF",
  "Pz c #719C4AFB",
  "P0 c #71AD36FF",
  "Jh c #71AD37FF",
  "Pn c #71B032FF",
  "I; c #71BC28FF",
  "Jy c #72AE38FF",
  "Pa c #73AF3AFF",
  "JG c #74AF3BFF",
  "Pb c #74B138FF",
  "JM c #76B03DFF",
  "Jl c #76B03EFF",
  "Is c #77AB43FA",
  "Jt c #77B13FFF",
  "Pp c #78B140FF",
  "Pv c #78B33EFF",
  "PJ c #78B43CFF",
  "JF c #79B242FF",
  "IP c #79CA28FF",
  "Jm c #7AB344FF",
  "J4 c #7BB345FF",
  "PH c #7BB542FF",
  "P/ c #7BB73FFF",
  "ID c #7BCF26FF",
  "Jg c #7CB346FF",
  "I. c #7CB941FF",
  "Jr c #7DB447FF",
  "PG c #7DB547FF",
  "P^ c #7DB744FF",
  "I+ c #7DBE3EFF",
  "IS c #7DCA30FF",
  "P' c #7EAF51FD",
  "Pe c #7EB549FF",
  "P9 c #7FB54BFF",
  "P~ c #7FB649FF",
  "P6 c #81B64DFF",
  "P3 c #81B74EFF",
  "I* c #82BD48FF",
  "IW c #83B74FFB",
  "Ig c #85B456FC",
  "PF c #85B952FF",
  "In c #87CB43FF",
  "IM c #88D63BFF",
  "P` c #8BC156FF",
  "PS c #8FB36CF9",
  "Iz c #92C65EFE",
  "Ih c #92CD57FF",
  "I@ c #94C367FF",
  "Il c #94D652FF",
  "PY c #96C46AFF",
  "P| c #96C568FF",
  "Ib c #98C769FF",
  "Ir c #9BCE68FF",
  "Js c #9FC777FF",
  "Ia c #9FD768FF",
  "PQ c #A1C281FC",
  "K@ c #A2C87DFF",
  "I: c #A2CF75FF",
  "PV c #A3C97EFF",
  "J, c #A3CA7EFF",
  "I2 c #A3CF79FF",
  "P! c #A4CB7FFF",
  "P# c #A4CC7EFF",
  "KO c #A5CD7EFF",
  "IA c #A5D477FF",
  "I9 c #A5D674FF",
  "IN c #A5D774FF",
  "P1 c #A8CD84FF",
  "IL c #A9DA78FF",
  "II c #A9DD74FF",
  "P< c #ABCE88FF",
  "IF c #ADE07BFF",
  "P} c #AECD8FFE",
  "P, c #AED08CFF",
  "P> c #B0D190FF",
  "IE c #B0DD83FF",
  "PD c #B2D292FF",
  "P: c #B3D393FF",
  "J& c #B4D495FF",
  "P; c #B5D597FF",
  "P- c #B8D69BFF",
  "J1 c #BBD89FFF",
  "J$ c #BDD9A2FF",
  "P= c #BED9A3FF",
  "Pi c #BEDAA3FF",
  "Pw c #BFDAA4FF",
  "P8 c #BFDAA5FF",
  "Pc c #C0DAA6FF",
  "Px c #C0DAA8FF",
  "J# c #C0DBA6FF",
  "P5 c #C1DBA7FF",
  "   c none",
  
  // Image data
  "                                                                ",
  "                                                                ",
  "                                                                ",
  "                  P$P%P%P&P$P$P$P$P$P$P$P$P$P*                  ",
  "                  P$J#P=J1P-P;P:P>P,P<P1J,P2KD                  ",
  "                  P$J#P3JgJtJyJ7JuJjJpJZJsP4KD                  ",
  "                  P$P5P3JrJtJyJ7JuJiJpJaJsP4KD                  ",
  "                  P$P5P3JrJtJyJ7JuJiJpJdJsP4KD                  ",
  "                  P$J#P3JgJtJyJ7JuJjJpzfJsP4KD                  ",
  "                  P$J#P6J4JlJhJzJxJjP7JvJsP4KD                  ",
  "                  P$P8P9JmJMP0JzJVJCPqJAJsP4KD                  ",
  "                  P$PwPeJFJGJHJJJKPrPtJAJsP4KD                  ",
  "        P$P$PyPyPuP$PiJrPpPaPsPdPfPgPhPhJsPjPkPyPyP$P$          ",
  "        PlPzPxPcPwJ$J$JmPvPbPnPmPMPNPNPBKOP#J,PVK@PCPZ          ",
  "          PAPSPDPFP6PGPHPJPKPLK7PPPPPPK7K.PIPUPYPTPR            ",
  "          PEPWPQP!P~P^P/P(K<K1K3P)KgP_K3K5PPP`P'P]P*            ",
  "            P[P{P}P|I.IXK1KgKfKKIoIoIoKsIOI+I@I#I$              ",
  "              I%I&J&I*K4IOI=KVKBKLKLI-KBI;I:I>I,                ",
  "                I<I1I2I3IoKBI4I5I6I6I7I8I9I0Iq                  ",
  "                  IwIeIrItI4I6IyIuIiIpIaIsId+j                  ",
  "                  L0IfIgIhKIIyIjL@IkIlIzIxKD                    ",
  "                    IcIvIbInK)L+ImIMINIBIV                      ",
  "                      ICIZIAISL+IDIFIGIH                        ",
  "                O`+e@*+(IJIKILIPIIIUIY+h+>+(@*+eO`              ",
  "          O`+e*7:k@:+K+k+wITIRIEIWIQI!+|+w+k+K@::k*7+eO`        ",
  "        O`&h+(+:+r+k@;9b&EI~I^I/I(I):j*~&E9b@;+k+r+:+(&h+j      ",
  "        +j+e*7+h+B*'*]@=&V+/I_P$I`er+N+/&V@=*]*'+B+h*7@.        ",
  "            O`+e*7:k:l+r@o+k*]+w+w+w*]+k@o+r:l+>@*@.+j          ",
  "                    +jO`@.@X+e&h&h&h+e@X@.O`                    ",
  "                                                                ",
  "                                                                ",
  "                                                                "
};
