/* XPM */
const char *xpm_tango_actions_go_first[] = {
  // Header (width height colors chars-per-pixel)
  "32 32 335 2",
  
  // Colors (code mode value)
  "+j c #00000001",
  "O` c #00000002",
  "@. c #00000003",
  "@X c #00000004",
  "&h c #00000006",
  "@* c #00000007",
  "*! c #00000008",
  "*7 c #00000009",
  "+( c #0000000A",
  "+> c #0000000B",
  ":k c #0000000C",
  "+h c #0000000D",
  "+: c #0000000E",
  ":l c #0000000F",
  "@: c #00000010",
  "+B c #00000011",
  "+r c #00000012",
  "+K c #00000013",
  "@o c #00000014",
  "*' c #00000015",
  "+k c #00000016",
  "*k c #00000017",
  "*] c #00000018",
  "+w c #00000019",
  "@; c #0000001A",
  "+| c #0000001B",
  "@= c #0000001C",
  "*Q c #0000001D",
  "9b c #0000001E",
  "&V c #0000001F",
  "@- c #00000020",
  "+g c #00000021",
  "&E c #00000022",
  "+/ c #00000023",
  "*` c #00000024",
  "*~ c #00000025",
  "+N c #00000026",
  "+J c #00000027",
  ":j c #00000029",
  "*F c #0000002B",
  "9x c #0000002C",
  "&R c #0000002F",
  ":d c #00000030",
  "T2 c #00000032",
  "*l c #00000035",
  "ew c #00000038",
  "9c c #0000003A",
  "B% c #0000003D",
  "T1 c #0A17004E",
  "T8 c #0A180049",
  "T0 c #0B10002F",
  "Tr c #0C1B0041",
  "Tp c #0E200037",
  "Tf c #1127002E",
  "Th c #1223001D",
  "T3 c #12240038",
  "T* c #1B40001C",
  "T+ c #1C42001B",
  "T= c #1F3A0442",
  "T9 c #1F470019",
  "Y_ c #204A0018",
  "Tt c #23510016",
  "YW c #24550015",
  "T@ c #2A51034F",
  "Tg c #2F5C0356",
  "Ta c #30700010",
  "Ts c #31600478",
  "Y` c #32640361",
  "KD c #3377000F",
  "Ty c #3469039C",
  "UZ c #36790013",
  "U: c #3776001C",
  "YQ c #386E047B",
  "Tq c #396D04BD",
  "U9 c #39710009",
  "T4 c #397204D5",
  "U^ c #3A7304FE",
  "P$ c #3A7304FF",
  "UO c #3A74039A",
  "UA c #3A74039E",
  "U% c #3A7404BD",
  "U/ c #3A7404CE",
  "Py c #3A7404F6",
  "Pk c #3A7404FA",
  "U> c #3A7504DA",
  "YK c #3A7504F9",
  "I' c #3B730349",
  "T- c #3B7303E7",
  "Ud c #3B740475",
  "I} c #3B7404F8",
  "YL c #3B7405A9",
  "T< c #3B7405FA",
  "T# c #3B7505F2",
  "Te c #3B7505F9",
  "Uq c #3B76034E",
  "U3 c #3C730533",
  "I| c #3C75056F",
  "U4 c #3D7606ED",
  "P% c #3E7609FF",
  "Up c #3E7709F6",
  "U$ c #406A000C",
  "Y' c #40780AF6",
  "Ua c #40780CF6",
  "P* c #40800008",
  "Ui c #41780DFF",
  "Uw c #42790EF4",
  "U@ c #437A10FF",
  "U8 c #437B10FB",
  "Y! c #457C11F6",
  "Td c #457D11F6",
  "U. c #4A8017F6",
  "Uf c #4C8119F6",
  "Tu c #4C8418F7",
  "YP c #4D841AF5",
  "JA c #4E9905FF",
  "JW c #529F06FF",
  "Yx c #549C0DFF",
  "YG c #54A307FF",
  "Kz c #55550003",
  "YY c #55A508FF",
  "YS c #568B24F7",
  "K7 c #56A608FF",
  "U+ c #578A27F6",
  "US c #588B28F6",
  "Tw c #588E22F7",
  "K6 c #58A809FF",
  "K5 c #59A909FF",
  "YC c #5AAB0BFF",
  "Y/ c #5AAB0CFF",
  "P_ c #5AAC0AFF",
  "Kg c #5BAD0AFF",
  "IO c #5CAE0BFF",
  "Kf c #5CAF0BFF",
  "Ka c #5DAF0BFF",
  "Ks c #5DB00BFF",
  "Yg c #5EB00CFF",
  "KK c #5EB10BFF",
  "I= c #5EB10CFF",
  "Yf c #5EB10DFF",
  "Io c #5EB20CFF",
  "YV c #5FAB15FF",
  "Yh c #5FB110FF",
  "KC c #5FB20CFF",
  "KM c #5FB30CFF",
  "YZ c #5FB40CFF",
  "KV c #60B40CFF",
  "KN c #60B50DFF",
  "Yj c #61B114FF",
  "Y{ c #61B211FF",
  "Yd c #61B213FF",
  "YT c #61B50DFF",
  "KB c #61B60DFF",
  "YH c #61B70DFF",
  "Yk c #62B016FF",
  "I- c #62B70DFF",
  "KL c #62B80DFF",
  "YR c #63B80EFF",
  "I4 c #63B90EFF",
  "T5 c #649A30F8",
  "YB c #64AC1EFF",
  "Yl c #64B019FF",
  "Ys c #64B217FF",
  "KP c #64BA0EFF",
  "LX c #64BB0EFF",
  "I5 c #65BB0EFF",
  "KI c #65BC0FFF",
  "I6 c #66BD0FFF",
  "Y( c #66BE0FFF",
  "YN c #67AB24FF",
  "T, c #67BE0FFF",
  "K/ c #67BF10FF",
  "Lo c #67C010FF",
  "Y0 c #68A82AFF",
  "YM c #68AA28FF",
  "Y8 c #68AF21FF",
  "T& c #68B919FF",
  "U& c #69983BF6",
  "U( c #699A3BF7",
  "Ym c #69A92BFF",
  "Y# c #69AE25FF",
  "UQ c #6AAC28FF",
  "Ya c #6AB321FF",
  "Y7 c #6CB226FF",
  "Y% c #6DAB31FF",
  "YF c #6DAC2FFF",
  "Y@ c #6DB12AFF",
  "UW c #6EB02EFF",
  "Y6 c #6EB529FF",
  "Ye c #6FAC33FF",
  "Y+ c #6FB32DFF",
  "Yr c #70AE34FF",
  "Yp c #70B52CFF",
  "Jh c #71AD37FF",
  "T> c #71C023FF",
  "T; c #72A83FFA",
  "Yt c #72B136FF",
  "UE c #72B232FF",
  "Y5 c #72B72EFF",
  "YO c #73B532FF",
  "JG c #74AF3BFF",
  "Yy c #74B337FF",
  "UR c #74B436FF",
  "Y4 c #74B930FF",
  "Yu c #75B536FF",
  "JM c #76B03DFF",
  "Jl c #76B03EFF",
  "Y- c #76B13CFF",
  "Yi c #76B736FF",
  "Yo c #76B835FF",
  "Y3 c #76BA33FF",
  "Y; c #77B33DFF",
  "UT c #77B639FF",
  "Y: c #78B53CFF",
  "YX c #78B938FF",
  "Y2 c #78BB36FF",
  "Y& c #79A64FFA",
  "JF c #79B242FF",
  "Y. c #79BA3BFF",
  "Y1 c #79BB38FF",
  "U` c #7AB243FF",
  "U' c #7AB443FF",
  "UY c #7AB83DFF",
  "Y> c #7AB93CFF",
  "Y, c #7ABA3BFF",
  "Y< c #7ABB39FF",
  "Yv c #7BAF4AFF",
  "Yn c #7BB344FF",
  "U] c #7BB643FF",
  "YU c #7BB740FF",
  "U| c #7BBA3DFF",
  "T7 c #7BC72FFF",
  "U{ c #7CB841FF",
  "UU c #7CB940FF",
  "I. c #7CB941FF",
  "U} c #7CBA3FFF",
  "U, c #7DA853FA",
  "U0 c #7DB448FF",
  "U[ c #7DB743FF",
  "UI c #7DB942FF",
  "UP c #7EB944FF",
  "UG c #7FB54AFF",
  "UH c #7FB64AFF",
  "UK c #7FB847FF",
  "UJ c #7FB849FF",
  "UL c #7FB946FF",
  "T$ c #80B24EFE",
  "P6 c #81B64DFF",
  "Y= c #81B64EFF",
  "Ul c #81B94CFF",
  "Uk c #82B84EFF",
  "JP c #83B750FF",
  "U; c #83B850FF",
  "Uy c #84B851FF",
  "Uj c #85B853FF",
  "U# c #86B954FF",
  "UX c #88BB57FF",
  "Y^ c #88C050FF",
  "U7 c #89BB58FF",
  "Y] c #8BBB5CFF",
  "Ut c #8CBD5CFF",
  "U_ c #8DBE5FFF",
  "U5 c #91B86BFD",
  "Yq c #92BF67FF",
  "U6 c #92C066FF",
  "Y~ c #93C066FF",
  "Y[ c #93C95FFF",
  "YI c #99C46FFF",
  "YD c #9AC472FF",
  "U< c #9AC570FF",
  "UF c #9BC572FF",
  "T% c #9DD06BFF",
  "Ue c #A0C57DFE",
  "J, c #A3CA7EFF",
  "T: c #A5D574FF",
  "Uh c #A8CD85FF",
  "T6 c #A8D878FF",
  "Yc c #A9CE87FF",
  "YA c #AAD381FF",
  "YJ c #AAD580FF",
  "Ug c #ABCC8AFF",
  "YE c #ABD681FF",
  "Yb c #ACD08BFF",
  "Y) c #ACD781FF",
  "TO c #ADD881FF",
  "Yz c #AED488FF",
  "Y9 c #AED48AFF",
  "Ti c #AED983FF",
  "To c #AEDA82FF",
  "Y* c #AFD08DFF",
  "UN c #AFD18EFF",
  "UB c #AFD18FFF",
  "U! c #AFD28DFF",
  "Y$ c #AFD38CFF",
  "TX c #AFDC83FF",
  "IE c #B0DD83FF",
  "T. c #B0DE83FF",
  "UD c #B1D191FF",
  "Y} c #B1DF83FF",
  "U) c #B2D293FF",
  "Yw c #B2D391FF",
  "Kr c #B2D393FF",
  "Y| c #B2E084FF",
  "Ur c #B4D394FF",
  "UM c #B4D494FF",
  "U~ c #B4D496FF",
  "Um c #B5D596FF",
  "UV c #B6D599FF",
  "Un c #B7D698FF",
  "Us c #B8D69CFF",
  "UC c #B9D69CFF",
  "Ub c #B9D79BFF",
  "Jw c #BAD79EFF",
  "Uv c #BAD89DFF",
  "J1 c #BBD89FFF",
  "Uc c #BBD99FFF",
  "Uu c #BCD8A0FF",
  "U2 c #BCD8A1FF",
  "J$ c #BDD9A2FF",
  "U- c #BDD9A3FF",
  "Ux c #BDDAA0FF",
  "U* c #BED9A4FF",
  "J_ c #BEDAA4FF",
  "Uz c #BEDBA1FF",
  "P8 c #BFDAA5FF",
  "U1 c #C0DAA5FF",
  "Pc c #C0DAA6FF",
  "Px c #C0DAA8FF",
  "J# c #C0DBA6FF",
  "I] c #C0DBA7FF",
  "P5 c #C1DBA7FF",
  "I[ c #C2DCAAFF",
  "Uo c #C3DCABFF",
  "I{ c #C4DDACFF",
  "U= c #C4DDADFF",
  "   c none",
  
  // Image data
  "                                                                ",
  "                                                                ",
  "                                                                ",
  "                                                                ",
  "  P$P$P$P$P$P*                  I'P$                            ",
  "  P$I]I[I{I}KD                I|U.P%                            ",
  "  P$PcUXUoI}KD            KzUOU+PxU@                            ",
  "  P$J_U#I[I}KD          U$U%U&U*U=U@                            ",
  "  P$U-U;P5I}KD        U:U>U,J#U<U1U@                            ",
  "  P$U2P6P8I}KD      U3U4U5J1U6U7J$U8U9                          ",
  "  P$JwU0J$I}KD    UqUwUeUrUtU#UyUuUiPkPyPyPyPyPyUpUaP$          ",
  "  P$UsJFJ1I}KD  UdUfUgUhUjJPUkUlUzUxUcUvUbUnUmUMUNUBP$          ",
  "  P$UVJMUCI}UZUAUSUDUFUGUHUJUKULUPUIUUUYUTURUEUWUQU!P$          ",
  "  P$U~JhUVU^U/U(U)U_U`U'U]U[U{I.U}U|Y.YXYoYOY+Y@Y#Y$P$          ",
  "  P$KrY%U~P$Y&Y*Y=JGY-Y;Y:UYY>Y,Y<Y1Y2Y3Y4Y5Y6Y7Y8Y9P$          ",
  "  P$UNY0KrYqYwJlYeYrYtYyYuYiYpYaYsYdYfKsYgYhYjYkYlYzP$          ",
  "  P$J,YxYcYvYbYnYmYMYNYBYVYCKgKfKKKCKMKVYZKMI=KaKgYAP$          ",
  "  P$J,JAJ,P$YSYDYFJWYGK7K5KgKsKCKNKBI-KLKLYHKNKMKsYJP$          ",
  "  P$J,JAJ,YKYLYPYIYUYYK6P_KaKMYTKLKPLXKII5KPYRKBKMYEP$O`        ",
  "  P$J,JAJ,I}YWYQY!Y~Y^Y/IOIoKNYRLXY(K/LoK/Y(KII4KBY)P$@*O`      ",
  "  P$J,JAJ,I}Y_@:Y`Y'Y]Y[Y{YZI-LXIEY}Y|Y|Y|Y}T.TXToTOP$:k@*+j    ",
  "  P$J,JAJ,I}T++K*]T@T#T$T%T&I4I6Y}P$P$P$P$P$P$P$P$P$P$:l*7@.    ",
  "  P$J,JAJ,I}T*@o@;&VT=T-T;T:T>T,Y}T<T1B%ewT29x+J+g+|+k@:+(@X    ",
  "  P$J,JAJ,I}T++K+w9b*`T3T4T5T6T7Y|T<T89c*l:d*F*~@-@;*':l+(O`    ",
  "  P$J,JAJ,I}T9@:+k+|@-*~T0TqTwT6Y|TeTrT2&R*F+N+g@=*k+r+h@*      ",
  "  P$J,JAJ,I}Tt:k+B*'@;9b&E+JTyTuTiTeTp:j+N+/&V+|*k+r+h*!+j      ",
  "  P$J,J,J,I}Ta&h+>:l+K+k@;@=&VTsTdP$Tf&V*Q+|*k@o@::k&h+j        ",
  "  P$P$P$P$P$P*  O`@*+>+:@:+K*'+kTgP$Th*'+K+B:l:k&h+j            ",
  "                    +j@.&h*7+(:k:k:k:k+>*!&hO`                  ",
  "                                                                ",
  "                                                                ",
  "                                                                "
};
