/* XPM */
const char *xpm_tango_actions_go_home[] = {
  // Header (width height colors chars-per-pixel)
  "32 32 369 2",
  
  // Colors (code mode value)
  "+j c #00000001",
  "O` c #00000002",
  "@. c #00000003",
  "@X c #00000004",
  "+e c #00000005",
  "&h c #00000006",
  "@* c #00000007",
  "*! c #00000008",
  "*7 c #00000009",
  "+( c #0000000A",
  "+: c #0000000E",
  "+B c #00000011",
  "@o c #00000014",
  "+k c #00000016",
  "*k c #00000017",
  "*] c #00000018",
  "@; c #0000001A",
  "9b c #0000001E",
  "@- c #00000020",
  "*` c #00000024",
  "+J c #00000027",
  "9x c #0000002C",
  "*X c #00000033",
  "&W c #00000034",
  "*l c #00000035",
  ",W c #00000039",
  ":h c #0000003B",
  "*/ c #0000003C",
  "9v c #0000003F",
  "2} c #3465A4FF",
  "Wg c #3C3C3C73",
  "W- c #3C6BA8FF",
  "W= c #4572ABFF",
  "W* c #537DB2FF",
  "W& c #6288B9FF",
  "Ws c #6666669B",
  "8; c #698DBCFF",
  "W% c #6C8FBDFF",
  "E} c #6D90BDFF",
  "Wa c #727272CC",
  "E' c #7294C0FF",
  "Wo c #7395C0FF",
  "E{ c #7495C1FF",
  "W@ c #7496C1FF",
  ";F c #757575FF",
  "Wf c #767676F7",
  "<7 c #767676FB",
  "Wd c #767676FC",
  "Wi c #777777CF",
  "E^ c #787878F6",
  "E] c #7899C3FF",
  "W# c #797979EC",
  "We c #797A7BFF",
  "Ww c #7A7A7BFF",
  "E~ c #7A7B7CFF",
  "7P c #7A9AC3FF",
  "Wu c #7B7B7BD1",
  "W9 c #7B7B7BDD",
  "W; c #7B7B7BE6",
  "E| c #7B7B7BED",
  "E! c #7B7B7CFF",
  "W3 c #7C7C7CE1",
  "E_ c #7C7E79FF",
  "W+ c #7C9BC4FF",
  "Wr c #7D7D7DD5",
  "u_ c #7D7F7AFF",
  "E[ c #7D9DC5FF",
  "E` c #7E807BFF",
  "T^ c #80000002",
  "W. c #80827DFF",
  "WO c #809EC6FF",
  "4N c #81837EFF",
  "5g c #82847FFF",
  "Wq c #82857FFF",
  "WX c #838580FF",
  "W$ c #848681FF",
  "W: c #848781FF",
  "W1 c #858780FF",
  "W> c #858782FF",
  "W4 c #858882FF",
  "gQ c #868883FF",
  "W0 c #868983FF",
  "W, c #878778FF",
  "g, c #878984FF",
  "eY c #878A84FF",
  "W7 c #888873FF",
  "eB c #888A85FF",
  "Wp c #888B85FF",
  "W< c #8B8858FF",
  "W5 c #8C8853FF",
  "EI c #8E5555FA",
  "EQ c #969795FF",
  "Bx c #979896FF",
  "yY c #9900000A",
  "RL c #9F000008",
  "R' c #9F000010",
  "E= c #9F000018",
  "R: c #A1000026",
  "EW c #A1A1A0FF",
  "6} c #A1A1A1FF",
  "Tn c #A2000016",
  "ET c #A2000029",
  "TZ c #A3000032",
  "R] c #A400001C",
  "R7 c #A40000FF",
  "TC c #A5000036",
  "Tk c #A50101F1",
  "Tb c #A6000028",
  "TL c #A6000045",
  "ER c #A60101EE",
  "Tl c #A700001D",
  "Rt c #A703034B",
  "E( c #A70404F0",
  "E) c #A7A8A6FF",
  "E0 c #A8000023",
  "EY c #A80202EF",
  "R. c #A902026E",
  "Tj c #A9020274",
  "E- c #A90202E6",
  "EJ c #A90202E7",
  "T~ c #A9030359",
  "T/ c #A9030395",
  "EP c #A96565FD",
  "tE c #AA000006",
  "yd c #AA00000F",
  "TP c #AA03035D",
  "Tz c #AA0303A8",
  "RP c #AA0303B5",
  "E9 c #AA0303E2",
  "Tv c #AA0303E4",
  "Rx c #AA0404B2",
  "RK c #AA0404C3",
  "RX c #AA0404C4",
  "Re c #AB03039D",
  "E* c #AB0303DB",
  "Rv c #AB04047F",
  "R; c #AB040485",
  "Tm c #AB0404D1",
  "R[ c #AB0404D7",
  "TV c #AB0404E8",
  "R> c #AC0505DF",
  "Eq c #AD0505DF",
  "TK c #AD0505EB",
  "T! c #AD0606ED",
  "TA c #AD0707E5",
  "Eb c #AE0606E3",
  "E/ c #AE1A1A3C",
  "Ry c #AF0C0CEA",
  "TI c #B10C0CEC",
  "T| c #B20909ED",
  "EU c #B21111F6",
  "RV c #B21815FF",
  "0n c #B21A1AFF",
  "EL c #B30E0EF2",
  "Et c #B31818FF",
  "Ej c #B32020FF",
  "Ei c #B32323FF",
  "R- c #B40C0CEE",
  "E# c #B41817FF",
  "Rs c #B51411FF",
  "EH c #B61515FF",
  "RQ c #B62827FF",
  "ES c #B71414FF",
  "Rw c #B80F0FF1",
  "Rb c #B81818EE",
  "Rg c #B82E2AFF",
  "E1 c #B91919FF",
  "Ez c #B93535FF",
  "R^ c #BA1817FF",
  "EM c #BA3838FF",
  ",A c #BCBCBCFF",
  "Rz c #BD1212F3",
  "R6 c #BD1614FF",
  "T( c #BD1A1AEF",
  "EO c #BE4847FF",
  "Rc c #BF000004",
  "RJ c #C01515F6",
  "Tx c #C01717F0",
  "RA c #C04D49FF",
  "EV c #C15353FF",
  "RS c #C31B1AFF",
  "EC c #C31C1CFF",
  "Eo c #C31D1DFF",
  "R` c #C51818F8",
  "<c c #C5C5C4FF",
  "ED c #C66060FF",
  "R~ c #C67170FF",
  "la c #C6C6C5FF",
  "RI c #C72929F2",
  "EE c #C7626260",
  "E& c #C81A1AFB",
  ":7 c #C8C8C8FF",
  "E8 c #CA1C1CFD",
  "Em c #CA1E1EFF",
  "E2 c #CA7777FF",
  "Ed c #CB1E1EFF",
  "EG c #CB7878FF",
  "Rh c #CC1D1CFF",
  "Ex c #CC1E1EFF",
  "Rd c #CC8683FF",
  "Ev c #CD2323FF",
  "Ro c #CD2B2BF4",
  ",2 c #CDCDCDFF",
  "Es c #CE2323FF",
  ";_ c #CECECEFF",
  "Ea c #CF2424FF",
  "E@ c #CF9796FF",
  "+c c #CFCFCFFF",
  "E7 c #D02424FF",
  "+v c #D0D0D0FF",
  "RW c #D11F1FFF",
  "E6 c #D12424FF",
  "TM c #D12626F7",
  "RC c #D1ADACFF",
  "+b c #D1D1D1FF",
  "t} c #D22424FF",
  ",V c #D2D2D2FF",
  ",, c #D3D3D3FF",
  "E% c #D42424FF",
  ",n c #D4D4D4FF",
  "R_ c #D52424FF",
  "Ey c #D5A3A3FF",
  "E3 c #D5B1B1FF",
  "R) c #D62525FF",
  ",N c #D6D6D6FF",
  "R8 c #D71F1FFF",
  "RH c #D72525FF",
  "W6 c #D7C20BFF",
  ",M c #D7D7D7FF",
  "Eh c #D81F1FFF",
  "RG c #D82525FF",
  "Rf c #D8CECEFF",
  "RZ c #D8D5D5FF",
  ",B c #D8D8D8FF",
  "Rl c #D92525FF",
  "R{ c #D93F3FF9",
  "R! c #D9C8C8FF",
  ",b c #D9D9D9FF",
  "EK c #DA1E1EFF",
  "Rk c #DA2525FF",
  "Rq c #DA2626FF",
  "Eu c #DAC7C7FF",
  "6k c #DADAD9FF",
  ",m c #DADADAFF",
  "W2 c #DADBD9FF",
  "W8 c #DADBDAFF",
  "Tc c #DB2323FE",
  "R= c #DB2525FF",
  "Rj c #DB2626FF",
  ",v c #DBDBDBFF",
  "Wy c #DBDCDAFF",
  "TB c #DC2121FF",
  "TJ c #DC2222FF",
  "R0 c #DC2626FF",
  "R, c #DC3F3FFB",
  ",^ c #DCDCDCFF",
  "RB c #DD2121FF",
  "TQ c #DD2424FF",
  "T} c #DD2525FF",
  "R9 c #DD2626FF",
  "=b c #DDDDDDFF",
  "R* c #DE2626FF",
  "Ek c #DEC4C4FF",
  "E+ c #DED9D9FF",
  "=P c #DEDEDEFF",
  "E4 c #DF2121FF",
  "TS c #DF3535FD",
  "El c #DFD5D5FF",
  "={ c #DFDFDFFF",
  "R& c #E02626FF",
  "&_ c #E0E0E0FF",
  "T{ c #E12727FF",
  "+Z c #E1E1E1FF",
  "T[ c #E22727FF",
  "EB c #E2DFDFFF",
  "+A c #E2E2E2FF",
  "Er c #E32222FF",
  "TW c #E32727FF",
  "+S c #E3E3E3FF",
  "TE c #E42727FF",
  "EN c #E4D9D9FF",
  "rt c #E4E4E3FF",
  "&K c #E4E4E4FF",
  "TH c #E52727FF",
  ";3 c #E5E5E5FF",
  "Ra c #E62424FF",
  "E; c #E65454FE",
  ";b c #E6E6E6FF",
  "RF c #E72828FF",
  "&. c #E7E7E6FF",
  ";G c #E7E7E7FF",
  "Ba c #E7E8E7FF",
  "R( c #E82828FF",
  "Ru c #E85151FF",
  "EF c #E8E6E6FF",
  ":# c #E8E8E8FF",
  "R$ c #E92626FF",
  "E$ c #E92828FF",
  "TG c #E92D2DFF",
  "TR c #E92E2EFF",
  "TU c #E94343FF",
  ":2 c #E9E9E9FF",
  "TN c #EA2D2DFF",
  ",$ c #EAEAEAFF",
  "R/ c #EB2727FF",
  "E5 c #EB2828FF",
  ":, c #EBEBEBFF",
  "Wt c #EBECEBFF",
  "R5 c #EC2727FF",
  "Ep c #EC2929FF",
  ":> c #ECECECFF",
  "EZ c #ED2828FF",
  "Ec c #ED2929FF",
  ";9 c #EDEDEDFF",
  "RD c #EE2828FF",
  "R% c #EE2929FF",
  "T] c #EE2A2AFF",
  ":< c #EEEEEEFF",
  "R# c #EF2929FF",
  "RE c #EF2B2BFF",
  "RN c #EF2E2EFF",
  "T) c #EF4E4EFF",
  "Rn c #EF5F5FFF",
  ";A c #EFEFEFFF",
  "Rp c #F03232FF",
  "OZ c #F03434FF",
  "R4 c #F03636FF",
  "R@ c #F03A3AFF",
  "T' c #F03B3BFF",
  ";T c #F0F0F0FF",
  "Ox c #F14040FF",
  "TF c #F14242FF",
  "E< c #F14343FF",
  "TT c #F14545FF",
  "TD c #F14646FF",
  "TY c #F14848FF",
  "Ot c #F24B4BFF",
  "T` c #F24D4DFF",
  "T_ c #F25050FF",
  "RR c #F25151FF",
  "R+ c #F25252FF",
  "R3 c #F25454FF",
  "RO c #F25555FF",
  "EA c #F25656FF",
  "O1 c #F25757FF",
  "R2 c #F35858FF",
  "R1 c #F35B5BFF",
  "R< c #F35D5DFF",
  "Ri c #F36060FF",
  "O@ c #F36363FF",
  "RU c #F36B6BFF",
  "RM c #F46565FF",
  "En c #F46666FF",
  "Rm c #F46868FF",
  "RT c #F46A6AFF",
  "RY c #F46D6DFF",
  "EX c #F46E6EFF",
  "Eg c #F46F6FFF",
  "E. c #F47070FF",
  "E, c #F47171FF",
  "R| c #F47272FF",
  "R} c #F57373FF",
  "E> c #F57575FF",
  "E: c #F57777FF",
  "Ew c #F57878FF",
  "Ee c #F57A7AFF",
  "Ef c #F57D7DFF",
  "Rr c #FF000001",
  "   c none",
  
  // Image data
  "                                                                ",
  "                              TjTkTl                            ",
  "                          tETzTxTcTvTb                          ",
  "                        TnTmTMOxTNTBTVTC                        ",
  "                      TZTATSTDTFTGTHTJTKTL                      ",
  "                    TPTITUOtTYTTTRTETWTQT!T~                    ",
  "                T^T/T(T)T_T`OtT'T]THT[T{T}T|R.                  ",
  "              ydRXRoO1ROR+T_R@R#R$R%THR&R*R=R-R;                ",
  "            R:R>R,R<R1R2R3R4R5R6R7R8R#THR9R0RqRwReRr            ",
  "          RtRyRuO@RiR<RORpRaRsRdRfRgRhR#THRjRkRlRzRxRc          ",
  "        RvRbRnRmRMO@RORNRBRVRC,m,MRZRARSRDRFRlRGRHRJRKyY        ",
  "    RLRPRIRURYRTRmRRRERWRQR!,v,M,b,v,bR~R^R/R(RGR)R_R`TmR'      ",
  "  R]R[R{R}R|E.EXOtRDEoEOE+=b,b+Z;A;T+Z,vE@E#RaE$RHE%t}E&E*E=    ",
  "  E-E;E:E:E>E,E<R$E1E2+Z=P,^;G;A;A;A;A;b=bE30nE4E5R)E6E7E8E9E0  ",
  "  EqEwEeEeR|T'ErEtEy+A&_+Z:,;9;9;9;9:>:>:2&_EuEiR8EpRHEaEsEdTv  ",
  "  EqEeEfEgOZEhEjEk&K+Z&K:,:,:,:,:,,$,$,$,$:2+AElEzExEcRGEvEvEb  ",
  "  EqEeEnRNEmEMEN;b&K;b:2:2:2:2:2:#:#:#:#:#;G;G&KEBEVECEZRkEaEb  ",
  "  EqEAEcESEDEF;b;3;b;G;G;G;G;G;b;b;b;b;b;3;3;3;3&K+SEGEHR/R&Eb  ",
  "  EJEKELEP:2;G;b;3;3;3;3;3;3&K&K;3:2,$:2:2:2:2:2:#;3;bEIEUEKEY  ",
  "  ETEREE;F:>;3EWEQEQBxBxBxBxBx6}:#E!;F;F;F;F;F;FE~,$&KE^E/E(ET  ",
  "        ;F,$+AE)E_E_E_E_u_E`E`E);G;FE'E]E[7PE{E};F:2={E|        ",
  "        ;F:#&_<cW.4N4N5g5gWXWXla;3;FWo7PWOW+W@E};F:#,^W#        ",
  "        ;F;G=PrtW$W$W$W$W$W$W$6k+S;F8;W%W&W*W=W-;F;b,BW;        ",
  "        ;F;b,^BaW:W:W>W>W,W<W1W2+Z;F2}2}2}2}2}2};F&K,NW3        ",
  "        ;F&K,mBaW>W>W4W4W5W6W7W8&_;F2}2}2}2}2}2};F&K,,W9        ",
  "        ;F+S,M&.gQgQgQW0W0WqW0W8=PWw;F;F;F;F;F;FWe+A;_Wr        ",
  "        ;F+A,nWtW0g,g,g,g,eYeYWy,N={&_&_&_&_&_&_={,v,2Wu        ",
  "      @*;F&_,V;9eYeYeYeYeYeBeBWy+v+v+v+v+c+c+c+c+c+b:7Wi@o@X    ",
  "    &h@;<7,B={:<WpWpWpWpWpWpWpWy=b=b=b=b=b=b=b=b,^,^,AWa9x*]O`  ",
  "    +(@-WsWd;F;F;F;F;F;F;F;F;F;F;F;F;F;F;F;F;F;F;F;FWfWg&W9b@.  ",
  "    +j@o+J*l:h9v9v9v9v9v9v9v9v9v9v9v9v9v9v9v9v9v9v,W*/*X*`*!    ",
  "        +e+:+k*k*k*k*k*k*k*k*k*k*k*k*k*k*k*k*k*k*k+k+B*7+j      "
};
