/* XPM */
const char *xpm_tango_actions_go_jump[] = {
  // Header (width height colors chars-per-pixel)
  "32 32 271 2",
  
  // Colors (code mode value)
  "+j c #00000001",
  "O` c #00000002",
  "@. c #00000003",
  "@X c #00000004",
  "+e c #00000005",
  "&h c #00000006",
  "@* c #00000007",
  "*! c #00000008",
  "*7 c #00000009",
  "+( c #0000000A",
  "+> c #0000000B",
  ":k c #0000000C",
  "+h c #0000000D",
  "+: c #0000000E",
  ":l c #0000000F",
  "@: c #00000010",
  "+B c #00000011",
  "+r c #00000012",
  "+K c #00000013",
  "@o c #00000014",
  "*' c #00000015",
  "+k c #00000016",
  "*k c #00000017",
  "*] c #00000018",
  "+w c #00000019",
  "@; c #0000001A",
  "+| c #0000001B",
  "*Q c #0000001D",
  "9b c #0000001E",
  "&V c #0000001F",
  "@- c #00000020",
  "+g c #00000021",
  "!o c #00800002",
  "!L c #0D0D0014",
  "!W c #1133000F",
  "![ c #20410037",
  "!C c #264C001B",
  "!` c #29550351",
  "!{ c #2B56034D",
  "L0 c #2B800006",
  "!6 c #2E74000B",
  "!J c #31610015",
  "PE c #33660005",
  "!& c #3366000A",
  "!] c #33660269",
  "!! c #33660273",
  "Kx c #3380000A",
  "Q[ c #376D000E",
  "!l c #376D002A",
  "!) c #376F028A",
  "!P c #3771039E",
  "!h c #3773043C",
  "Qu c #37750353",
  "Qn c #38700020",
  "Q6 c #3873035F",
  "Wh c #39710012",
  "I% c #39710536",
  "QY c #39720267",
  "Qm c #3972026B",
  "Q5 c #39730350",
  "!X c #397303FA",
  "!# c #397303FF",
  "I, c #39730447",
  "!8 c #39740275",
  "!E c #397403AD",
  "!Z c #397403C6",
  "Q< c #3977035E",
  "Wj c #3A730273",
  "Wv c #3A730366",
  "IY c #3A73039F",
  "!@ c #3A7303CC",
  "QD c #3A73043E",
  "P[ c #3A740016",
  "Q` c #3A7403F3",
  "!N c #3A750023",
  "!M c #3A7503E3",
  "!z c #3A7503E4",
  "QZ c #3A750446",
  "Qx c #3A7602DF",
  "Q, c #3A7603B8",
  "!H c #3A7603CC",
  "W} c #3A7603DF",
  "Wb c #3A760488",
  "QL c #3A760491",
  "Qs c #3B710534",
  "!5 c #3B740282",
  "I} c #3B7404F8",
  "QQ c #3B7502DC",
  "!; c #3B7503A5",
  "!' c #3B7506FF",
  "W| c #3B76000D",
  "Q^ c #3B760027",
  "Qd c #3B760268",
  "WS c #3B760482",
  "!i c #3B7604F2",
  "WR c #3B7702CE",
  "QF c #3B7702D9",
  "Q4 c #3B7704AD",
  "Q7 c #3B7704CF",
  "!y c #3C750359",
  "!g c #3C7505F1",
  "!~ c #3C7706F6",
  "Wz c #3C7804E9",
  "WE c #3D6D0015",
  "!$ c #3D7608FF",
  "Wl c #3D7804E7",
  "WA c #3D7907F3",
  "Wx c #3D7A03E0",
  "Wc c #3D7A04B8",
  "Wk c #3E7A04BA",
  "WD c #3E7A05CB",
  "!9 c #3E7A08F5",
  "!t c #3F790AF5",
  "!= c #40780820",
  "Wn c #41790AF5",
  "Q. c #417C09AD",
  "!( c #427B0CF5",
  "Q{ c #427B0DF9",
  "!I c #427C0CF5",
  "Qf c #427D0CF3",
  "WW c #437C0DDE",
  "!: c #458010F5",
  "!4 c #467E12F6",
  "Qc c #48811467",
  "!- c #496D0007",
  "!_ c #4980000E",
  "Qa c #498115E8",
  "QC c #4A8513F0",
  "Q8 c #4A8614F5",
  "!7 c #4A8D0479",
  "!u c #4A930861",
  "!R c #4B8416F5",
  "!A c #4B8514F6",
  "Qy c #4C8615F2",
  "!k c #4C970536",
  "QP c #4D82182B",
  "!+ c #4D851B60",
  "!V c #4D99000A",
  "!j c #4EB1000D",
  "!* c #4F91109E",
  "!B c #4F9E091D",
  "Q/ c #50851FF3",
  "Qk c #509E06FF",
  "QB c #519E07FF",
  "!K c #51A20C16",
  "QU c #52871FB7",
  "Qj c #52A207FF",
  "Q3 c #538922F6",
  "!q c #53A00AFF",
  "!w c #53A00BFF",
  "QM c #548D20F2",
  "Q| c #54A00CFF",
  "Qe c #54A508FF",
  "!Q c #5595000C",
  "!2 c #55A10DFF",
  "Qr c #56A20FFF",
  "!x c #579220F9",
  "!s c #57A210FF",
  "!d c #58A211FF",
  "Q) c #58A312FF",
  "Qw c #58AA09FF",
  "Qb c #598C2AEE",
  "Q] c #598D28D7",
  "!O c #59971FC0",
  "!G c #5B9227F7",
  "Q@ c #5B9523EE",
  "!v c #5CA518FF",
  "Qq c #5CB00BFF",
  "Q- c #5DB30CFF",
  "!b c #5EA61AFF",
  "Q; c #5FB012FF",
  "Q' c #60932EBD",
  "WT c #609929F6",
  "Q= c #61B80DFF",
  "QH c #62A81FFF",
  "!D c #63A921FF",
  "!p c #659F2CFD",
  "!Y c #65AA24FF",
  "Q* c #65BE0FFF",
  "Q~ c #669639F5",
  "Q> c #669F32F9",
  "Q# c #66A12DF5",
  "WZ c #66A22FF7",
  "QE c #66AA25FF",
  "Qh c #66B01FFF",
  "!^ c #67A42EFF",
  "W' c #67C110FF",
  "!m c #689F37F9",
  "Q+ c #68A233F2",
  "Ql c #68AB28FF",
  "Q! c #6999406B",
  "QT c #699D37F6",
  "QI c #6A9741FE",
  "W` c #6AC611FF",
  "QK c #6BA237FD",
  "W_ c #6BC712FF",
  "WF c #6DA33BF7",
  "Wm c #6DA736F8",
  "WL c #6EC817FF",
  "!U c #6FAC36FF",
  "W{ c #70A83CFA",
  "W) c #70C919FF",
  "Qi c #719D49EF",
  "!0 c #71AB3CFF",
  "WK c #71C91BFF",
  "W] c #72C125FF",
  "WP c #72CA1DFF",
  "!/ c #75AE3FFF",
  "!f c #76AA45FE",
  "QJ c #76B33CFF",
  "!S c #77B23FFF",
  "QR c #78B440FF",
  "QA c #7AA253EF",
  "!a c #7AB542FF",
  "QS c #7BA357FE",
  "!c c #7BB543FF",
  "Q0 c #7EC43CFF",
  "WJ c #7ECE31FF",
  "Qz c #7FB44EFF",
  "!T c #7FB74CFF",
  "QW c #81B44FFF",
  "WI c #81CF35FF",
  "!r c #82B452FF",
  "Q& c #82CD39FF",
  "!e c #83BB4FFF",
  "Uy c #84B851FF",
  "Q$ c #85C14CFF",
  "W( c #85D13BFF",
  "QG c #86B858FF",
  "WC c #87C24EFF",
  "WQ c #88BA57FB",
  "WM c #88C44FFF",
  "Q( c #89BE57FF",
  "Qv c #8BB167FB",
  "!> c #8BBF5AFF",
  "QO c #8BC157FE",
  "QN c #8CBF5AFF",
  "!F c #8EC060FF",
  "QV c #8EC15FFF",
  "Q: c #8EC459FF",
  "Qt c #8FC161FF",
  "Q_ c #90C063FF",
  "!, c #90C161FF",
  "!n c #91C263FF",
  "W/ c #91D54EFF",
  "Qg c #92C660FF",
  "WH c #92D651FF",
  "!3 c #93BF68FF",
  "Q} c #93C366FF",
  "W^ c #93D652FF",
  "Q1 c #95BA72F7",
  "!< c #95C468FF",
  "!. c #95C469FF",
  "!% c #96C56AFF",
  "Q9 c #96CC61FF",
  "W~ c #96D757FF",
  "WU c #97D758FF",
  "W[ c #98CF63FF",
  "!1 c #99C76EFF",
  "WV c #9AD561FF",
  "QX c #9BC573FA",
  "Qp c #9BC671FE",
  "WY c #9CD267FF",
  "WN c #9DD665FF",
  "WB c #9FD967FF",
  "Q2 c #A0CF73FE",
  "WG c #A1D76DFF",
  "Q% c #A4DC6EFF",
  "Qo c #A7DB75FF",
  "W! c #A9DE75FF",
  "   c none",
  
  // Image data
  "                                                                ",
  "                                                                ",
  "                                                                ",
  "                    WhWjWkWlWzWxWcWvWh                          ",
  "                PEWbWnWmWMWNWBWVWCWZWAWSL0                      ",
  "              WhWDWFWGWHWJWKWLWPWIWUWYWTWRWE                    ",
  "            KxWWWQW!W~W^W/W(W)W_W`W'W]W[W{W}W|                  ",
  "            Q.QXQoQOQ+Q@Q#Q$Q%Q&Q*Q=Q-Q;Q:Q>Q,                  ",
  "          Q<Q1Q2Q3Q4Q5I%Q6Q7Q8Q9Q0QqQwQeQrQtQyQu                ",
  "        PEQiQpQaQs          QdQfQgQhQjQkQkQlQzQx+j              ",
  "        QcQvQbQn              QmQMQNQkQkQkQBQVQCQZ              ",
  "      +jQAQSQD                  QFQGQHQkQkQkQJQKQL              ",
  "      QPQIQU                    QYQTQRQkQkQkQEQWQQ              ",
  "      Q!Q~Qs                    Q^Q/Q(QkQkQkQ)Q_Q`              ",
  "      Q'Q]                      Q[Q{Q}QkQkQkQ|!.!X              ",
  "    !o!O!+        P[!@!#!#!#!#!#!#!$!%QkQkQkQ|!.!#!#!#!#!#!#!#IY",
  "    !&!*!=          !-!;!:Uy!>!,!<!1!1QkQkQk!2!1!1!1!1!1!3!4!5+j",
  "    !6!7!o              !8!9!0QJ!qQkQkQkQkQkQkQkQk!w!e!r!t!y    ",
  "    !o!u                  I,!i!p!a!sQkQkQkQkQkQk!d!>!f!g!h      ",
  "    !j!k            O`O`@.@X!l!z!x!c!vQkQkQkQk!b!n!m!M!N        ",
  "    !B!V    +j@.@X&h@**!*7+(+>!C!Z!A!SQHQkQk!D!F!G!H!J+j        ",
  "    !K  O`@.+e@**7+(:k+h:l@:+B+B!L!P!I!UQl!Y!T!R!E!W@*+e@.O`    ",
  "    !QO`@X&h*7+>+h+:@:+r@o*'+k*k*]*]!!!~!^!/!(!):l:k+(*!&h@XO`  ",
  "    !_@X&h*!+(+h:l+B+K*'*k+w+|*Q9b9b*Q!`I}!'!]+K+B:l+h+(*!&h@X+j",
  "    O`@X&h*7+>+h:l+r@o+k*]@;*Q&V+g@-&V*Q![!{+k@o+B:l+h+>*7&h@XO`",
  "    +j@.+e@*+(:k+:@:+r@o+k*k+w@;+|+|@;+w*k+k@o+r@:+::k+(@*+e@.  ",
  "      +j@.+e@**7+>:k+:@:+B+r+K@o@o@o@o+K+r+B@:+::k+>*7@*+eO`    ",
  "          +j@.+e@**!*7+>:k+h+h+:+:+:+:+h+h:k+>*7*!@*+eO`+j      ",
  "                +jO`@X+e&h@*@**!*!*!*!@*@*&h@X@.O`+j            ",
  "                                +j+j                            ",
  "                                                                ",
  "                                                                "
};
