/* XPM */
const char *xpm_tango_actions_go_last[] = {
  // Header (width height colors chars-per-pixel)
  "32 32 325 2",
  
  // Colors (code mode value)
  "+j c #00000001",
  "O` c #00000002",
  "@. c #00000003",
  "@X c #00000004",
  "+e c #00000005",
  "&h c #00000006",
  "@* c #00000007",
  "*! c #00000008",
  "*7 c #00000009",
  "+( c #0000000A",
  "+> c #0000000B",
  ":k c #0000000C",
  "+h c #0000000D",
  "+: c #0000000E",
  ":l c #0000000F",
  "@: c #00000010",
  "+B c #00000011",
  "+r c #00000012",
  "+K c #00000013",
  "@o c #00000014",
  "*' c #00000015",
  "+k c #00000016",
  "*k c #00000017",
  "*] c #00000018",
  "+w c #00000019",
  "@; c #0000001A",
  "+| c #0000001B",
  "@= c #0000001C",
  "*Q c #0000001D",
  "9b c #0000001E",
  "&V c #0000001F",
  "@- c #00000020",
  "+g c #00000021",
  "&E c #00000022",
  "+/ c #00000023",
  "*` c #00000024",
  "*~ c #00000025",
  "+N c #00000026",
  "+J c #00000027",
  "er c #00000028",
  ":j c #00000029",
  "eg c #0000002A",
  "*F c #0000002B",
  "ee c #0000002D",
  "*^ c #0000002E",
  ":d c #00000030",
  "T2 c #00000032",
  "*8 c #00000036",
  "9c c #0000003A",
  ":h c #0000003B",
  "*o c #00000041",
  "^A c #0006002E",
  "^B c #0A130035",
  "^a c #0D1B004C",
  "^p c #0E1D0047",
  "^i c #0F1F0042",
  "^u c #1121003D",
  "^e c #1224001C",
  "T3 c #12240038",
  "^y c #14280033",
  "^b c #1526003D",
  "^t c #162C002E",
  "^r c #1A330028",
  "^n c #1A3C001E",
  "^k c #1A3E001D",
  "T* c #1B40001C",
  "T+ c #1C42001B",
  "^j c #1E3F0445",
  "T9 c #1F470019",
  "^3 c #214E0017",
  "^- c #285E0013",
  "!` c #29550351",
  "^F c #2E5E0364",
  "^2 c #31650362",
  "^D c #33630486",
  "PE c #33660005",
  "KD c #3377000F",
  "^Z c #356A03A8",
  "UZ c #36790013",
  "^N c #386E05C5",
  "^= c #3870047F",
  "I% c #39710536",
  "^v c #397205DB",
  "I$ c #3A73001F",
  "P$ c #3A7304FF",
  "!} c #3A74035C",
  "^5 c #3A7404F9",
  "~q c #3A750353",
  "~# c #3A7503A3",
  "YK c #3A7504F9",
  "^4 c #3B7304F8",
  "~m c #3B7404D0",
  "^h c #3B7404EA",
  "I} c #3B7404F8",
  "!| c #3B7405FF",
  "~k c #3B7503A1",
  "~- c #3B7504C4",
  "^6 c #3B7504F9",
  "~X c #3B760479",
  "~< c #3B7605DF",
  "^# c #3C7404AB",
  "^w c #3D7606F3",
  "P% c #3E7609FF",
  "~% c #3F770BFD",
  "Pj c #3F770BFF",
  "~G c #40770CFF",
  "Y' c #40780AF6",
  "~O c #40780BF7",
  "P* c #40800008",
  "~5 c #41790CEE",
  "^* c #457D12F6",
  "^S c #457E11F7",
  "~0 c #488016F5",
  "YP c #4D841AF5",
  "^C c #4E8719F7",
  "JA c #4E9905FF",
  "~Q c #4F9A05FF",
  "~^ c #4F9A07FF",
  "Ph c #4F9B05FF",
  "^X c #509D06FF",
  "~i c #518520F6",
  "~W c #519D06FF",
  "JQ c #519E06FF",
  "PB c #52A007FF",
  "PN c #53A107FF",
  "~E c #54A10AFF",
  "PI c #54A207FF",
  "YG c #54A307FF",
  "K. c #55A408FF",
  "YY c #55A508FF",
  "^O c #568B24F8",
  "JZ c #569E11FF",
  "J| c #56A508FF",
  "~| c #57A608FF",
  "PP c #57A709FF",
  "K6 c #58A809FF",
  "~} c #58A909FF",
  "~) c #599F15FF",
  "K4 c #59AA0AFF",
  "^M c #5A9324F7",
  "~{ c #5AAA0CFF",
  "K3 c #5AAB0AFF",
  "P_ c #5AAC0AFF",
  "~. c #5B8B2EFB",
  "P) c #5BAC0AFF",
  "Kg c #5BAD0AFF",
  "Kp c #5BAE0BFF",
  "^$ c #5CAE0CFF",
  "Kf c #5CAF0BFF",
  "~j c #5D8F2FF6",
  "P7 c #5DA11AFF",
  "Ka c #5DAF0BFF",
  "Ks c #5DB00BFF",
  "JL c #5EA21CFF",
  "~R c #5EA716FF",
  "KK c #5EB10BFF",
  "I= c #5EB10CFF",
  "Io c #5EB20CFF",
  "Pr c #5FA31EFF",
  "KC c #5FB20CFF",
  "KM c #5FB30CFF",
  "YZ c #5FB40CFF",
  "~S c #60A31EFF",
  "~[ c #61AC16FF",
  "YT c #61B50DFF",
  "KB c #61B60DFF",
  "Jj c #62A521FF",
  "I- c #62B70DFF",
  "KL c #62B80DFF",
  "^, c #64B612FF",
  "KP c #64BA0EFF",
  "~p c #65A625FF",
  "~_ c #65A923FF",
  "~] c #65AE1DFF",
  "KI c #65BC0FFF",
  "JK c #66A726FF",
  "^c c #67A032F9",
  "Jx c #67A728FF",
  "^8 c #67BF0FFF",
  "~` c #68AC25FF",
  "~T c #68AD23FF",
  "~' c #68AE24FF",
  "K_ c #68C110FF",
  "Ym c #69A92BFF",
  "~n c #6A9A3EF8",
  "JJ c #6AA92DFF",
  "Ij c #6BC511FF",
  "~@ c #6C9942F7",
  "^. c #6CA535FF",
  "Jz c #6CAA2FFF",
  "J7 c #6DAB30FF",
  "^9 c #6DBE1AFF",
  "JH c #6FAC34FF",
  "~F c #71A144FA",
  "P0 c #71AD36FF",
  "Jh c #71AD37FF",
  "~Y c #71B331FF",
  "~v c #73AE39FF",
  "Pa c #73AF3AFF",
  "~A c #74B039FF",
  "~K c #74B13AFF",
  "~M c #75AF3CFF",
  "^g c #76AD40FB",
  "JM c #76B03DFF",
  "Jl c #76B03EFF",
  "^d c #76C826FF",
  "Jt c #77B13FFF",
  "~Z c #77B23CFF",
  "~L c #77B33BFF",
  "~P c #77B63CFF",
  "Pp c #78B140FF",
  "~z c #78B141FF",
  "~I c #78B63CFF",
  "~U c #78B73BFF",
  "JF c #79B242FF",
  "~N c #79B341FF",
  "J] c #79B43EFF",
  "U` c #7AB243FF",
  "Jm c #7AB344FF",
  "~B c #7AB442FF",
  "~C c #7AB540FF",
  "^+ c #7AB63FFF",
  "J4 c #7BB345FF",
  "PH c #7BB542FF",
  "~V c #7BB641FF",
  "Jg c #7CB346FF",
  "~c c #7DB446FF",
  "Jr c #7DB447FF",
  "U0 c #7DB448FF",
  "PG c #7DB547FF",
  "~x c #7DB548FF",
  "~= c #7EA857F7",
  "Pe c #7EB549FF",
  "P9 c #7FB54BFF",
  "~y c #80B64CFF",
  "P6 c #81B64DFF",
  "P3 c #81B74EFF",
  "^z c #81D132FF",
  "~b c #82B74EFF",
  "~t c #82B74FFF",
  "^q c #83B74FFE",
  "JP c #83B750FF",
  "U; c #83B850FF",
  "~d c #84B852FF",
  "~f c #85B954FF",
  "~r c #86B953FF",
  "~7 c #87BA55FF",
  "UX c #88BB57FF",
  "^% c #88C150FF",
  "~6 c #8ABB59FF",
  "~~ c #8BBB5DFF",
  "^1 c #8DBE5DFF",
  "~, c #8EB56AFB",
  "~g c #8EBE60FF",
  "~2 c #8FBE60FF",
  "~3 c #8FBF61FF",
  "^& c #94C268FF",
  "^< c #95CB5FFF",
  "^@ c #99C36FFF",
  "~: c #99C46EFF",
  "UF c #9BC572FF",
  "^o c #9BC573FF",
  "~4 c #9DC17BFE",
  "~! c #9FC878FF",
  "^0 c #9FD36BFF",
  "~D c #A1C87AFF",
  "J, c #A3CA7EFF",
  "K+ c #A4CB7EFF",
  "~/ c #A5CB80FF",
  "~( c #A5CB81FF",
  "P@ c #A5CE7FFF",
  "~9 c #A6C885FF",
  "~8 c #A7CD83FF",
  "^f c #A7DA75FF",
  "^; c #A8D07FFF",
  "~J c #A9CD86FF",
  "PO c #A9D380FF",
  "P< c #ABCE88FF",
  "~H c #ABCF89FF",
  "YE c #ABD681FF",
  "^x c #ABDE7AFF",
  "~u c #ACCD8DFF",
  "~l c #ACCF8AFF",
  "^: c #ACD881FF",
  "~a c #ADCF8BFF",
  "IF c #ADE07BFF",
  "~h c #AECF8EFF",
  "P, c #AED08CFF",
  "J= c #AED08DFF",
  "To c #AEDA82FF",
  "UN c #AFD18EFF",
  "^> c #AFDB82FF",
  "TX c #AFDC83FF",
  "~1 c #B0D18FFF",
  "P> c #B0D190FF",
  "~$ c #B1D290FF",
  "J* c #B1D291FF",
  "^7 c #B1DE83FF",
  "^V c #B1DF84FF",
  "PD c #B2D292FF",
  "^s c #B2E184FF",
  "P: c #B3D393FF",
  "~o c #B3D494FF",
  "J& c #B4D495FF",
  "U~ c #B4D496FF",
  "^l c #B4E384FF",
  "P; c #B5D597FF",
  "^m c #B5E585FF",
  "~e c #B6D598FF",
  "J% c #B7D599FF",
  "P- c #B8D69BFF",
  "UC c #B9D69CFF",
  "~w c #B9D79DFF",
  "~s c #BAD89EFF",
  "~> c #BBD79FFF",
  "J1 c #BBD89FFF",
  "J$ c #BDD9A2FF",
  "Pc c #C0DAA6FF",
  "J# c #C0DBA6FF",
  "~* c #C1DBA8FF",
  "J) c #C2DCA9FF",
  "~; c #C5DEADFF",
  "~+ c #C7DDB1FF",
  "~& c #CAE0B4FF",
  "   c none",
  
  // Image data
  "                                                                ",
  "                                                                ",
  "                                                                ",
  "                                                                ",
  "                            P$!}                  P*P$P$P$!|P$  ",
  "                            P%~.~X                KDI}P;~oJ*P$  ",
  "                            ~O~+~@~#PE            KDI}P;J7~$P$  ",
  "                            ~%~&~*~=~-KD          KDI}U~JzP>P$  ",
  "                            Pj~;~:~>~,~<I$        KDI}J&JJ~1P$  ",
  "                            PjJ)~2~3P:~4~5I%      KDI}~oYmUNP$  ",
  "          P$P$P$P$P$P$P$P$P$PjPc~6UX~7~8~9~0~q    KDI}PDJxP,P$  ",
  "          P$~w~eJ%P-UCJ1J$J$J$J#~rU;~t~yUF~u~i~X  KDI}J*~p~aP$  ",
  "          P$~sP6JP~d~f~dJPJP~tP3P6P9U0JgJF~g~h~j~kUZI}~1Jj~lP$  ",
  "          P$P-~zU`J4JrU0U0Pe~xPG~cJmJFJtJM~v~b~a~n~mP$J=PrP<P$  ",
  "          P$~ePa~MJlPp~z~N~BPH~V~CJ]~Z~AJzJK~SJJ~D~F~G~HP7~JP$  ",
  "          P$~oJHP0Jh~v~K~L~P~I~U~Y~T~R~E~W~QJAJAJZ~!~~J,~^~/P$  ",
  "          P$~(~)JLJj~_~`~'~]~[~{~}K6~|K.PNJQ~QJAJj~!^.J,JAJ,P$  ",
  "          P$J,JAJA^XPNYYK6K4P)KgKpKgK3K6J|PIJQJz^o^OP$J,JAJ,P$  ",
  "          P$J,JAPhPBK.K6P_KfKKIoKCI=KaKg~}J|^+^@YP^#YKJ,JAJ,P$  ",
  "        @.P$J,JAJQYGPPP_KsKMYTI-I-KBYZKs^$^%^&^*^=^-I}J,JAJ,P$  ",
  "      @.*!P$J,K+P@^;POYE^:To^>TXKIKPKL^,^<^1Y'^2+:^3I}J,JAJ,P$  ",
  "    +j&h:kP$^4I}I}I}I}^5^5^6P$^7K_^8^9^0^q^w!`*]+KT+I}J,JAJ,P$  ",
  "    @.*!+:^e^r^t^yT3^u^i^p^aP$^sIj^d^f^g^h^j@-+|*'^kI}J,JAJ,P$  ",
  "    @.*7+:@o@;&V*~eg:d*8:h*oP$^l^z^x^c^v^b+N+g+|*'^nI}J,JAJ,P$  ",
  "    O`@*+h+r*]*Q&EereeT2*89cP$^mIF^M^N^B:j*`&V+w@oT*I}J,JAJ,P$  ",
  "      @X+(:l@o+w9b&E+J*F*^:dP$^V^C^Z^Aer*`&V@;*'@:T9I}J,JAJ,P$  ",
  "        +e+(+:+K*k+|&V&E*`+NP$^S^D*~+/@-@=*]@o@:+>^-I}J,J,J,P$  ",
  "          O`*!:k:l+K+k+w+|@=P$^F@=+|+w*k@o@:+h*!O`P*P$P$P$P$P$  ",
  "              @.@*+(+h:l@:+r+r+r+r+B:l+h+>&hO`                  ",
  "                    +j@.@X+e&h&h+e@XO`+j                        ",
  "                                                                ",
  "                                                                "
};
