/* XPM */
const char *xpm_tango_actions_go_next[] = {
  // Header (width height colors chars-per-pixel)
  "32 32 291 2",
  
  // Colors (code mode value)
  "+j c #00000001",
  "O` c #00000002",
  "@. c #00000003",
  "@X c #00000004",
  "+e c #00000005",
  "&h c #00000006",
  "@* c #00000007",
  "*! c #00000008",
  "*7 c #00000009",
  "+( c #0000000A",
  "+> c #0000000B",
  ":k c #0000000C",
  "+h c #0000000D",
  "+: c #0000000E",
  ":l c #0000000F",
  "@: c #00000010",
  "+B c #00000011",
  "+r c #00000012",
  "+K c #00000013",
  "@o c #00000014",
  "*' c #00000015",
  "+k c #00000016",
  "*k c #00000017",
  "*] c #00000018",
  "+w c #00000019",
  "@; c #0000001A",
  "+| c #0000001B",
  "@= c #0000001C",
  "*Q c #0000001D",
  "9b c #0000001E",
  "&V c #0000001F",
  "@- c #00000020",
  "+g c #00000021",
  "+/ c #00000023",
  "*` c #00000024",
  "+N c #00000026",
  "+J c #00000027",
  "er c #00000028",
  "*F c #0000002B",
  "ee c #0000002D",
  "&R c #0000002F",
  "T2 c #00000032",
  "*G c #00000037",
  "(w c #0C0C0016",
  "(O c #0D140027",
  "(9 c #182B002A",
  "/[ c #1B36002F",
  "(4 c #21430445",
  "(< c #28510365",
  "/^ c #2C580440",
  "(= c #3362048C",
  "KD c #3377000F",
  "Kx c #3380000A",
  "/R c #376E035D",
  "(o c #376E03B5",
  "/: c #37750725",
  "U: c #3776001C",
  "(q c #386F039E",
  "(e c #396E056F",
  "^G c #39740351",
  "^` c #3A720360",
  "/] c #3A7204D6",
  "P$ c #3A7304FF",
  "(8 c #3A7305CA",
  "^~ c #3A740439",
  "Py c #3A7404F6",
  "/0 c #3B730445",
  "/m c #3B7404B5",
  "/H c #3B7404D8",
  "/~ c #3B7405ED",
  "/. c #3B750392",
  "^P c #3B7504B2",
  "/$ c #3B7504BF",
  "/g c #3B750571",
  "^J c #3C740480",
  "/P c #3C740488",
  "(+ c #3C7404F8",
  "(5 c #3C7504F7",
  "/; c #3C7505E2",
  "^T c #3C7605D8",
  "(3 c #3D7506E7",
  "(, c #41790BF4",
  "/T c #41790CF5",
  "^! c #42790DEE",
  "/9 c #427A0EF2",
  "(* c #488016F8",
  "/L c #4B8116F6",
  "/f c #4C821AF6",
  "^_ c #4D821BF6",
  "JA c #4E9905FF",
  "Ph c #4F9B05FF",
  "(0 c #50851DFA",
  "/v c #509C05FF",
  "JQ c #519E06FF",
  "/J c #529E07FF",
  "JW c #529F06FF",
  "PB c #52A007FF",
  "/E c #53A007FF",
  "PI c #54A207FF",
  "YG c #54A307FF",
  "/D c #54A308FF",
  "Kz c #55550003",
  "K. c #55A408FF",
  "J| c #56A508FF",
  "(X c #578B23F7",
  "/G c #578B25F7",
  "~| c #57A608FF",
  "PP c #57A709FF",
  "K6 c #58A809FF",
  "/c c #58A80BFF",
  "/n c #598C29F6",
  "K5 c #59A909FF",
  "K1 c #59AA09FF",
  "K4 c #59AA0AFF",
  "P_ c #5AAC0AFF",
  "^H c #5B8B2CF7",
  "/I c #5BA810FF",
  "Kg c #5BAD0AFF",
  "Kp c #5BAE0BFF",
  "/S c #5CAD0BFF",
  "IO c #5CAE0BFF",
  "Kf c #5CAF0BFF",
  "^| c #5D8D2EF7",
  "Ka c #5DAF0BFF",
  "Ks c #5DB00BFF",
  "KK c #5EB10BFF",
  "I= c #5EB10CFF",
  "Io c #5EB20CFF",
  "KC c #5FB20CFF",
  "KM c #5FB30CFF",
  "KV c #60B40CFF",
  "KN c #60B50DFF",
  "/a c #61A41FFF",
  "YT c #61B50DFF",
  "KB c #61B60DFF",
  "YH c #61B70DFF",
  "/p c #62A61FFF",
  "/x c #62AD18FF",
  "/A c #62B015FF",
  "I- c #62B70DFF",
  "I4 c #63B90EFF",
  "KU c #63BA0EFF",
  "LX c #64BB0EFF",
  "~p c #65A625FF",
  "KI c #65BC0FFF",
  "JV c #66A727FF",
  "/W c #67B31BFF",
  "K/ c #67BF10FF",
  "/' c #689C37F9",
  "/i c #68AB27FF",
  "Iy c #68C010FF",
  "Ym c #69A92BFF",
  "/Z c #69B221FF",
  "(7 c #6A9D39F8",
  "LO c #6AC411FF",
  "/) c #6CC317FF",
  "/C c #6DB328FF",
  "($ c #6DC714FF",
  "/N c #6EAE30FF",
  "/V c #6EB22CFF",
  "/B c #6FB02FFF",
  "/} c #6FC818FF",
  "JN c #70AD35FF",
  "Yp c #70B52CFF",
  "Jh c #71AD37FF",
  "/u c #71B132FF",
  "/# c #729E46F7",
  "(# c #72CB19FF",
  "/h c #73AF39FF",
  "JG c #74AF3BFF",
  "/_ c #75BE2BFF",
  "Jl c #76B03EFF",
  "^L c #77A24EF7",
  "~Z c #77B23CFF",
  "Pp c #78B140FF",
  "~z c #78B141FF",
  "/q c #79B342FF",
  "/j c #79B63EFF",
  "/! c #7AAA4AFB",
  "/7 c #7AB242FF",
  "/6 c #7AB343FF",
  "Jm c #7AB344FF",
  "(; c #7AD223FF",
  "/z c #7BBB3DFF",
  "/w c #7CB644FF",
  "U{ c #7CB841FF",
  "UU c #7CB940FF",
  "/k c #7CBA40FF",
  "Jr c #7DB447FF",
  "/5 c #7DB646FF",
  "(2 c #7EB24AFB",
  "Pe c #7EB549FF",
  "/e c #7EB745FF",
  "/l c #7EBC41FF",
  "UG c #7FB54AFF",
  "P9 c #7FB54BFF",
  "/4 c #7FB848FF",
  "UL c #7FB946FF",
  "/y c #7FBA45FF",
  "~y c #80B64CFF",
  "/t c #80BB47FF",
  "/r c #80BB48FF",
  "P6 c #81B64DFF",
  "/> c #81B74CFF",
  "/3 c #81B94AFF",
  "~t c #82B74FFF",
  "/, c #82B94DFF",
  "JP c #83B750FF",
  "/2 c #83BA4CFF",
  "/< c #83BA4DFF",
  "/= c #84B850FF",
  "Uy c #84B851FF",
  "/1 c #84BA4DFF",
  "/| c #84C93EFF",
  "/- c #85AF5DFB",
  "Uj c #85B853FF",
  "PF c #85B952FF",
  "~r c #86B953FF",
  "U# c #86B954FF",
  "/* c #86BA52FF",
  "/& c #86BA53FF",
  "UX c #88BB57FF",
  "/Y c #8AB65CFE",
  "^[ c #8BBC5BFF",
  "^] c #8CBD5DFF",
  "/+ c #8DBD5EFF",
  "^Y c #8EB469FA",
  "/U c #8FC25EFF",
  "/s c #91C064FF",
  "(> c #91C35EFE",
  "^' c #92C064FF",
  "^( c #92C065FF",
  "U6 c #92C066FF",
  "/K c #94BE6BFF",
  "(% c #94D455FF",
  "^/ c #96C36AFF",
  "/8 c #97BD70FE",
  "/Q c #9CCB6DFF",
  "(& c #9DCD6EFF",
  "^E c #9EC776FF",
  "^Q c #9FC280FD",
  "^{ c #A0C979FF",
  "/d c #A1C67DFF",
  "/F c #A2C97EFF",
  "(: c #A2DD67FF",
  "J, c #A3CA7EFF",
  "L} c #A3CB7EFF",
  "/` c #A3D075FF",
  "P# c #A4CC7EFF",
  "(. c #A4D275FF",
  "KX c #A6CF7FFF",
  "/b c #A8CB85FF",
  "// c #A8D180FF",
  "P+ c #AAD480FF",
  "Y) c #ACD781FF",
  "/M c #ADD08BFF",
  "/( c #ADD982FF",
  "^) c #AECD91FF",
  "/{ c #AEDE7DFF",
  "(@ c #AEDF7DFF",
  "(- c #AEE07EFF",
  "UN c #AFD18EFF",
  "^> c #AFDB82FF",
  "(6 c #AFDC84FF",
  "(1 c #AFE37CFF",
  "~1 c #B0D18FFF",
  "IE c #B0DD83FF",
  "^7 c #B1DE83FF",
  "PD c #B2D292FF",
  "^s c #B2E184FF",
  "J& c #B4D495FF",
  "^} c #B5D299FF",
  "/@ c #B5D498FF",
  "P; c #B5D597FF",
  "/X c #B8D59BFF",
  "/% c #B8D69AFF",
  "^W c #BBD8A0FF",
  "/o c #BDD8A2FF",
  "P= c #BED9A3FF",
  "/O c #BFD9A4FF",
  "P8 c #BFDAA5FF",
  "Pc c #C0DAA6FF",
  "J# c #C0DBA6FF",
  "J) c #C2DCA9FF",
  "I[ c #C2DCAAFF",
  "^^ c #C5DDADFF",
  "^U c #C7DEB0FF",
  "^R c #C7DFB1FF",
  "^K c #CBE0B7FF",
  "^I c #CDE2B8FF",
  "   c none",
  
  // Image data
  "                                                                ",
  "                                                                ",
  "                                                                ",
  "                                                                ",
  "                            P$^G                                ",
  "                            P$^H^J+j                            ",
  "                            P$^K^L^PKx                          ",
  "                            P$^I^U^Y^TU:                        ",
  "                            P$^R^E^W^Q^!^~                      ",
  "                            P$^^^/^(UN^)^_^`                    ",
  "          P$PyPyPyPyPyPyPyPyP$J)^'^]^[^{^}^|/.Kz                ",
  "          P$/X^W/oP=/OP8PcPcJ#I[/+UXU#PFU6/@/#/$KD              ",
  "          P$/%JrUGP6JPUyPF~r/&/&/*/=~t~yPeUj~1/-/;/:            ",
  "          P$P;~zJmJrPeP9/>/,/</1/2/3/4/5/6Pp/7L}/8/9/0          ",
  "          P$J&JGJlPp/q/w/eUL/r/t/t/yU{/u/i/p/a~p/s/d/f/g        ",
  "          P$PDJNJh/h~Z/jUU/k/l/zYp/x/cJ|PIJW/vJAJAJG/b/n/m      ",
  "          P$/MJVYm/N/B/V/C/Z/A/SKpKgP_K5~|/DJWPhJAJN/F/G/H      ",
  "          P$J,JAPhPBK.K6P_KfKKIoKCIoKsKgK4PPPI/JPe/K/L/P+j      ",
  "        O`P$J,JAJQYGPPP_KaKMYTI-I-KBKVI=IOK1/I/U/Y/T/R@X        ",
  "      +j&hP$J,Ph/EJ|K4KfKMYHKUKIKILXI4KNI=/W/Q/!/~/^+h@*+j      ",
  "      @.*!P$J,P#KX//P+Y)/(^>IE^7/)K/KII4/_/`/'/]/[*':l+(@.      ",
  "      @.*7P$P$P$P$P$P$P$P$P$P$/{/}LOIy/|(.(X(o(O+|*'@:+(@X      ",
  "      O`@*+h+K*]*Q+/ereeT2*G(+(@(#($(%(&(*(=*`&V@;@o:l*7+j      ",
  "        +e+(:l@o+w9b+/+J*F&R(+(-(;(:(>(,(<*`@-+|+k+B+>+e        ",
  "        +j&h+(:l@o*]@=@-+/+N(+^s(1(2(3(4+g*Q+w*'@::k&h          ",
  "            @X*7+h@:@o*k@;@=(5(6(7(8(9@;*]*'+B+:+(@.            ",
  "                @X*!+>+:@:+rP$(0(q(w+r@:+::k*!@.                ",
  "                    +jO`@X&hP$(e*!@*&h@.O`                      ",
  "                                                                ",
  "                                                                ",
  "                                                                ",
  "                                                                "
};
