/* XPM */
const char *xpm_tango_actions_go_previous[] = {
  // Header (width height colors chars-per-pixel)
  "32 32 304 2",
  
  // Colors (code mode value)
  "+j c #00000001",
  "O` c #00000002",
  "@. c #00000003",
  "@X c #00000004",
  "+e c #00000005",
  "&h c #00000006",
  "@* c #00000007",
  "*! c #00000008",
  "*7 c #00000009",
  "+( c #0000000A",
  "+> c #0000000B",
  ":k c #0000000C",
  "+h c #0000000D",
  "+: c #0000000E",
  ":l c #0000000F",
  "@: c #00000010",
  "+B c #00000011",
  "+r c #00000012",
  "+K c #00000013",
  "@o c #00000014",
  "*' c #00000015",
  "+k c #00000016",
  "*k c #00000017",
  "*] c #00000018",
  "+w c #00000019",
  "@; c #0000001A",
  "+| c #0000001B",
  "@= c #0000001C",
  "*Q c #0000001D",
  "9b c #0000001E",
  "&V c #0000001F",
  "&E c #00000022",
  "+/ c #00000023",
  "*~ c #00000025",
  "+N c #00000026",
  "+J c #00000027",
  "er c #00000028",
  "*F c #0000002B",
  "ee c #0000002D",
  "*^ c #0000002E",
  ":d c #00000030",
  "T2 c #00000032",
  "*8 c #00000036",
  "9c c #0000003A",
  "!o c #00800002",
  ")N c #0F170021",
  ")W c #15230024",
  ")v c #1E3D002A",
  ")Y c #213E043E",
  ")J c #2A53035C",
  ")k c #3260043D",
  ")A c #32630484",
  ")B c #376D03AF",
  ")~ c #376F048F",
  "U: c #3776001C",
  ")/ c #386F0357",
  "(r c #38740356",
  ")f c #3972035E",
  ")6 c #397403E3",
  ")Q c #3A7205C0",
  "P$ c #3A7304FF",
  "^~ c #3A740439",
  "Pk c #3A7404FA",
  "(k c #3B73035F",
  ")b c #3B7304D5",
  "(] c #3B730568",
  ")t c #3B74048F",
  "(K c #3B7404F7",
  ")T c #3B7405E2",
  "(t c #3B750485",
  "(C c #3B7504BD",
  ")l c #3B7505ED",
  "W| c #3B76000D",
  "(n c #3B76048F",
  ")& c #3B7605A9",
  "(P c #3B7705DF",
  "(L c #3C710822",
  "Lj c #3C740440",
  "(i c #3C7604B4",
  "^T c #3C7605D8",
  ")K c #3F7709F3",
  "Pj c #3F770BFF",
  "!t c #3F790AF5",
  "(Q c #42790DF1",
  "(f c #427A0EEE",
  "U@ c #437A10FF",
  "(b c #447A10FC",
  "(u c #4674000B",
  ")S c #467D13F7",
  ")y c #488014F5",
  "([ c #4E831BF6",
  ")^ c #4E841CF7",
  "Ph c #4F9B05FF",
  "(l c #50831EF5",
  "^X c #509D06FF",
  "JQ c #519E06FF",
  "PB c #52A007FF",
  "/E c #53A007FF",
  "PN c #53A107FF",
  ")V c #548920F7",
  "Jd c #549D0EFF",
  "YG c #54A307FF",
  "Kz c #55550003",
  "K. c #55A408FF",
  "J| c #56A508FF",
  "PP c #57A709FF",
  ")e c #57A809FF",
  "K6 c #58A809FF",
  ")i c #59A016FF",
  ")j c #59A410FF",
  "K1 c #59AA09FF",
  "K4 c #59AA0AFF",
  "P_ c #5AAC0AFF",
  ")* c #5B8C2CF7",
  ")d c #5BAB0DFF",
  "Kg c #5BAD0AFF",
  "Kp c #5BAE0BFF",
  "(y c #5C8D2EF7",
  ")7 c #5C902CF7",
  "IO c #5CAE0BFF",
  "Kf c #5CAF0BFF",
  "Ka c #5DAF0BFF",
  "Ks c #5DB00BFF",
  "KK c #5EB10BFF",
  "I= c #5EB10CFF",
  "Io c #5EB20CFF",
  ")s c #5FAA14FF",
  "KC c #5FB20CFF",
  "KM c #5FB30CFF",
  ")! c #60972DF7",
  ")p c #60A61BFF",
  "KV c #60B40CFF",
  "KN c #60B50DFF",
  ")w c #61B014FF",
  "YT c #61B50DFF",
  "KB c #61B60DFF",
  "YH c #61B70DFF",
  "(m c #629135F7",
  ")a c #62AA1BFF",
  "I- c #62B70DFF",
  "YR c #63B80EFF",
  "I4 c #63B90EFF",
  "KU c #63BA0EFF",
  ")n c #649731F8",
  "LX c #64BB0EFF",
  "I5 c #65BB0EFF",
  "KI c #65BC0FFF",
  ")c c #66AF1DFF",
  ")4 c #67AD22FF",
  "K/ c #67BF10FF",
  "~` c #68AC25FF",
  "Iy c #68C010FF",
  ")3 c #69B023FF",
  ")5 c #6AAB2AFF",
  "LO c #6AC411FF",
  "JB c #6BAA2EFF",
  ")G c #6BC415FF",
  "L+ c #6CC712FF",
  "J7 c #6DAB30FF",
  "Y% c #6DAB31FF",
  ")2 c #6DB32AFF",
  ")q c #6EB528FF",
  "JN c #70AD35FF",
  "P0 c #71AD36FF",
  "Jh c #71AD37FF",
  "(p c #739E48F7",
  "~v c #73AE39FF",
  "Pa c #73AF3AFF",
  "~M c #75AF3CFF",
  ")1 c #75B734FF",
  ")M c #75BB2EFF",
  ")I c #75CC1EFF",
  ")z c #76A847FB",
  ")R c #76AA42FA",
  "Jl c #76B03EFF",
  "(Z c #77A24DF7",
  "~z c #78B141FF",
  ")% c #78B340FF",
  "U` c #7AB243FF",
  "/z c #7BBB3DFF",
  "Jg c #7CB346FF",
  "PG c #7DB547FF",
  "P^ c #7DB744FF",
  "UG c #7FB54AFF",
  "P9 c #7FB54BFF",
  ")< c #7FBD43FF",
  ")$ c #80BA48FF",
  "/> c #81B74CFF",
  "(` c #81B84BFF",
  "~t c #82B74FFF",
  "U; c #83B850FF",
  ")# c #83BC4BFF",
  "Uy c #84B851FF",
  "/1 c #84BA4DFF",
  "(_ c #84BB4FFF",
  ")Z c #84C643FF",
  "PF c #85B952FF",
  ")9 c #85BD4EFF",
  "~r c #86B953FF",
  ")@ c #86BE50FF",
  ")0 c #86BF4DFF",
  ")g c #87B459FE",
  ")- c #87BB53FF",
  "() c #88BD53FF",
  "); c #88BD54FF",
  ")+ c #88BF53FF",
  "^% c #88C150FF",
  "(E c #89BB57FF",
  "): c #89BF54FF",
  "), c #89C152FF",
  "~6 c #8ABB59FF",
  ")L c #8ABC58FE",
  "(| c #8ABC5AFF",
  "(( c #8ABE57FF",
  ")O c #8AC055FF",
  ")> c #8AC154FF",
  "^[ c #8BBC5BFF",
  "). c #8BBD5AFF",
  "(R c #8CBD5BFF",
  "QN c #8CBF5AFF",
  ")o c #8CC058FF",
  ")X c #8CC05AFF",
  "(s c #8EB46AFA",
  "(I c #8EB568FA",
  "(T c #8EBE5FFF",
  "(^ c #8EBF5EFF",
  "(/ c #8EC05DFF",
  "(~ c #8FBF60FF",
  "~3 c #8FBF61FF",
  ")h c #8FC05FFF",
  "(Y c #90BF62FF",
  "/s c #91C064FF",
  "^( c #92C065FF",
  ")u c #93BE69FF",
  "(U c #93C167FF",
  "(B c #94C168FF",
  "^& c #94C268FF",
  "(c c #95C26AFF",
  ")F c #95D159FF",
  "(S c #96C36BFF",
  "(N c #97C36CFF",
  "(A c #98C46EFF",
  ")D c #98C969FF",
  "U< c #9AC570FF",
  "(x c #9BC571FF",
  "(h c #9BC673FF",
  ")x c #9CC96FFF",
  "^E c #9EC776FF",
  "(! c #9FC27DFE",
  "~! c #9FC878FF",
  ")C c #A0CE73FF",
  ")m c #A2CE77FF",
  ")P c #A2DA6BFF",
  "J, c #A3CA7EFF",
  "K+ c #A4CB7EFF",
  "P# c #A4CC7EFF",
  "(g c #A6C788FD",
  "KX c #A6CF7FFF",
  "// c #A8D180FF",
  "~J c #A9CD86FF",
  ")r c #AACE87FF",
  "YJ c #AAD580FF",
  ")E c #AADF77FF",
  "({ c #ABCB8CFF",
  "Y) c #ACD781FF",
  "(} c #ADD08CFF",
  "/( c #ADD982FF",
  ")8 c #AFD08FFF",
  "^> c #AFDB82FF",
  "IE c #B0DD83FF",
  "~$ c #B1D290FF",
  "^7 c #B1DE83FF",
  "Y} c #B1DF83FF",
  "PD c #B2D292FF",
  "(' c #B2D294FF",
  "^s c #B2E184FF",
  "(W c #B3D395FF",
  "J& c #B4D495FF",
  "U~ c #B4D496FF",
  ")H c #B4E485FF",
  "^m c #B5E585FF",
  ")U c #B5E685FF",
  "(J c #B7D699FF",
  "(z c #B9D39EFF",
  "Jb c #B9D69BFF",
  "(H c #B9D79CFF",
  ")= c #BAD6A0FF",
  "~s c #BAD89EFF",
  "U2 c #BCD8A1FF",
  "(G c #BCD9A1FF",
  "Pi c #BEDAA3FF",
  "(F c #C0DBA5FF",
  "P5 c #C1DBA7FF",
  "~* c #C1DBA8FF",
  "(M c #C2DAAAFF",
  "J) c #C2DCA9FF",
  "(V c #C3DCAAFF",
  "(a c #C3DCACFF",
  "(v c #C3DDABFF",
  "(j c #C4DDABFF",
  "U= c #C4DDADFF",
  "(D c #C5DDACFF",
  "(d c #C6DEAFFF",
  "   c none",
  
  // Image data
  "                                                                ",
  "                                                                ",
  "                                                                ",
  "                                                                ",
  "                                (rP$                            ",
  "                            +j(t(yPj                            ",
  "                          (u(i(p(aU@                            ",
  "                        U:^T(sJ)(dU@                            ",
  "                      ^~(f(gP5(h(jU@                            ",
  "                    (k(l(zU2(x(c(v(b                            ",
  "                !o(n(m(MJ&U<(N(B(VU@P$P$P$P$P$P$P$P$P$          ",
  "              W|(C(ZU=~J(A(S(B/s(D(V~*(FPi(G~s(H(JU~(K          ",
  "            (L(P(IJ)^E(B(U^((Y(T(R(E~r~tP9Jg~z~MJh(W(K          ",
  "          Lj(Q(!Jb^&~3~3(~(^(/QN((()(_(`PGU`Jl~vJN('(K          ",
  "        (]([({(}^[~6(|).QN)X)o)O)+)@)#)$P^)%PaP0Y%PDPk          ",
  "      )&)*)=~!U;UyPF)-);):)>),^%)<)1)2)3)4~`)5J7JB~$P$          ",
  "      )6)7)8/sUGP9/>/1)9)0/z)q)wKpKgP_K4)eK.PN^XJd)rP$          ",
  "      Kz)t)y)u~t)i)p)a)s)dKgKsIoKCIoKKKfP_K6K.PBPhJ,P$@.        ",
  "          )f!t)g)h)jJ|K1IOI=KVKBI-I-YTKMKaP_PPYGJQJ,P$*!@.      ",
  "        O`*!)k)l)z)x)cKgI=KNYRLXKIKIKUYHKMKfK4J|/EK+P$:k@*      ",
  "        @X+(:l)v)b)n)m)MKVI4KIK/Y}^7IE^>/(Y)YJ//KXP#P$+:*7O`    ",
  "        @X+(:l*')N)B)V)C)ZI5IyLO^sP$P$P$P$P$P$P$P$P$P$:l*7O`    ",
  "        @.*!+:+K+w9b)A)S)D)F)GL+)HP$9c*8T2eeer+/*Q*]+K+h*!      ",
  "          +e+>@:*'@;&V)J)K)L)P)I)UP$:d*^*F+J+/9b+w@o:l+(@.      ",
  "          +j&h+>:l@o*]@=)Y)T)R)E^mP$+N*~&E&V+|*k+K:l+(@.        ",
  "              @X*7+h@:@o*k)W)Q)!Y}P$@=+|+w+k+K@::k@*+j          ",
  "                  @.*!+>+h:l+r)~)^P$+r+B:l+h*7+e+j              ",
  "                        +j@.@X+e)/P$+e@XO`+j                    ",
  "                                                                ",
  "                                                                ",
  "                                                                ",
  "                                                                "
};
