/* XPM */
const char *xpm_tango_actions_go_top[] = {
  // Header (width height colors chars-per-pixel)
  "32 32 307 2",
  
  // Colors (code mode value)
  "+j c #00000001",
  "O` c #00000002",
  "@. c #00000003",
  "@X c #00000004",
  "+e c #00000005",
  "&h c #00000006",
  "@* c #00000007",
  "*! c #00000008",
  "*7 c #00000009",
  "+( c #0000000A",
  "+> c #0000000B",
  ":k c #0000000C",
  "+h c #0000000D",
  "+: c #0000000E",
  ":l c #0000000F",
  "@: c #00000010",
  "+B c #00000011",
  "+r c #00000012",
  "+K c #00000013",
  "@o c #00000014",
  "+k c #00000016",
  "*k c #00000017",
  "*] c #00000018",
  "+w c #00000019",
  "+| c #0000001B",
  "@= c #0000001C",
  "*Q c #0000001D",
  "9b c #0000001E",
  "@- c #00000020",
  "+g c #00000021",
  "&E c #00000022",
  "+/ c #00000023",
  "*` c #00000024",
  "*~ c #00000025",
  "+J c #00000027",
  "er c #00000028",
  ":j c #00000029",
  "eg c #0000002A",
  "ee c #0000002D",
  "&R c #0000002F",
  "*X c #00000033",
  "&W c #00000034",
  "ew c #00000038",
  "9c c #0000003A",
  "B% c #0000003D",
  "3& c #0000003E",
  "*6 c #00000040",
  "*o c #00000041",
  "L0 c #2B800006",
  "Kx c #3380000A",
  "U: c #3776001C",
  "_w c #3971043F",
  "_u c #39720531",
  "_q c #39750355",
  "P$ c #3A7304FF",
  "_6 c #3A73056D",
  "P[ c #3A740016",
  "_Q c #3A74034B",
  "_1 c #3A7403A2",
  "_W c #3A750476",
  "_5 c #3A750485",
  "U> c #3A7504DA",
  "_- c #3A7604CE",
  "_' c #3B72034A",
  "_c c #3B7404D1",
  "I} c #3B7404F8",
  "YL c #3B7405A9",
  "^P c #3B7504B2",
  "`o c #3B7504F8",
  "_< c #3B7604B5",
  "_d c #3B7605EC",
  "U3 c #3C730533",
  "_D c #3C74047F",
  "_i c #3C77001E",
  "Lp c #3C780011",
  "WE c #3D6D0015",
  "P& c #3D7508FF",
  "_% c #3D7706EC",
  "P% c #3E7609FF",
  "Pj c #3F770BFF",
  "_p c #3F7809F0",
  "~G c #40770CFF",
  "_$ c #40780BF0",
  "P* c #40800008",
  "_] c #41780CF7",
  "_{ c #41780CF8",
  "Ui c #41780DFF",
  "_[ c #41790CF7",
  "_y c #427A0EF5",
  "(u c #4674000B",
  "_` c #467D13F6",
  "_@ c #467D14F4",
  "_e c #477E14F4",
  "_+ c #487D16FF",
  "_! c #497F15F5",
  "_0 c #4E831CF6",
  "Ph c #4F9B05FF",
  "JQ c #519E06FF",
  "_C c #529D07FF",
  "_E c #538720F5",
  "_z c #539C0DFF",
  "PN c #53A107FF",
  "/D c #54A308FF",
  "_Z c #559D0FFF",
  "J| c #56A508FF",
  "_F c #578D28F5",
  "_Y c #57A609FF",
  "~} c #58A909FF",
  "_O c #598C28FD",
  "~) c #599F15FF",
  "K4 c #59AA0AFF",
  "_7 c #5A8C29F6",
  "P_ c #5AAC0AFF",
  "_V c #5BA414FF",
  "P) c #5BAC0AFF",
  "IO c #5CAE0BFF",
  "__ c #5DAE0FFF",
  "Ks c #5DB00BFF",
  "_T c #5EA41BFF",
  "Io c #5EB20CFF",
  ")[ c #5FA31DFF",
  ")s c #5FAA14FF",
  "KC c #5FB20CFF",
  "KM c #5FB30CFF",
  "`$ c #60B40DFF",
  "_4 c #619233F6",
  "JC c #61A420FF",
  "YT c #61B50DFF",
  "KB c #61B60DFF",
  "_S c #629530F8",
  "I- c #62B70DFF",
  "KL c #62B80DFF",
  "YR c #63B80EFF",
  "I4 c #63B90EFF",
  ")] c #64A523FF",
  "KP c #64BA0EFF",
  "LX c #64BB0EFF",
  "I5 c #65BB0EFF",
  "`. c #66B319FF",
  "I6 c #66BD0FFF",
  "Y( c #66BE0FFF",
  "`+ c #67B519FF",
  "T, c #67BE0FFF",
  "^8 c #67BF0FFF",
  "K/ c #67BF10FF",
  "Ju c #68A829FF",
  "_B c #68AC27FF",
  "Ym c #69A92BFF",
  "_U c #69AF22FF",
  "/Z c #69B221FF",
  "K) c #69C210FF",
  "Iu c #69C311FF",
  "_l c #6AAA2DFF",
  "LO c #6AC411FF",
  "JB c #6BAA2EFF",
  "_H c #6BAB2DFF",
  "`* c #6BC411FF",
  "L+ c #6CC712FF",
  "Ik c #6DC912FF",
  ")' c #6EAB32FF",
  "_k c #6EAC31FF",
  "_J c #6EAE2FFF",
  "_N c #6EAF2EFF",
  "`> c #6EC912FF",
  "`- c #6ECA13FF",
  "JH c #6FAC34FF",
  "_K c #6FB030FF",
  "_j c #70AD34FF",
  "Yr c #70AE34FF",
  "_M c #70B031FF",
  "_L c #70B230FF",
  "_) c #70B42CFF",
  "_I c #70B42EFF",
  "_| c #70B62BFF",
  "_v c #71A043F9",
  "P0 c #71AD36FF",
  "Jh c #71AD37FF",
  "_h c #71AE36FF",
  "_m c #71B133FF",
  "_P c #71B330FF",
  "`: c #71CE14FF",
  "Jy c #72AE38FF",
  "_b c #72AF35FF",
  "_n c #72B134FF",
  "_2 c #73A048F8",
  "~v c #73AE39FF",
  "Pa c #73AF3AFF",
  "YO c #73B532FF",
  "_G c #74AF3AFF",
  "JG c #74AF3BFF",
  "~M c #75AF3CFF",
  "_x c #76A647FB",
  "Jl c #76B03EFF",
  "Jt c #77B13FFF",
  "Pp c #78B140FF",
  "~z c #78B141FF",
  "_, c #7AA64FF9",
  "U` c #7AB243FF",
  "Jm c #7AB344FF",
  "J4 c #7BB345FF",
  "Jg c #7CB346FF",
  "Jr c #7DB447FF",
  "U0 c #7DB448FF",
  "Pe c #7EB549FF",
  "~y c #80B64CFF",
  "P6 c #81B64DFF",
  "_> c #81B74DFF",
  "~b c #82B74EFF",
  "_: c #83B851FF",
  "Uy c #84B851FF",
  "_3 c #85BA54FF",
  "~r c #86B953FF",
  "Jk c #87BA56FF",
  "_f c #89B461FD",
  "U7 c #89BB58FF",
  "_s c #8AB65DFE",
  "~6 c #8ABB59FF",
  "K= c #8ABB5AFF",
  "^] c #8CBD5DFF",
  "/+ c #8DBD5EFF",
  "_; c #8EB667FC",
  "~2 c #8FBE60FF",
  "~3 c #8FBF61FF",
  "(Y c #90BF62FF",
  "_= c #91B96BFE",
  "/s c #91C064FF",
  "^( c #92C065FF",
  "_A c #97C26CFF",
  "(A c #98C46EFF",
  "_R c #9AC572FF",
  "_a c #9FC47BFF",
  "_t c #A1C67CFF",
  "_g c #A1C97AFF",
  "K@ c #A2C87DFF",
  "P# c #A4CC7EFF",
  "P@ c #A5CE7FFF",
  "_& c #A6C885FE",
  "_# c #A6C886FF",
  ")` c #A6CB82FF",
  "){ c #A6CC83FF",
  "`X c #A6D27BFF",
  "_* c #A7CC82FF",
  "_o c #A7CC84FF",
  "P. c #A7CF7FFF",
  "`@ c #A7D47AFF",
  "P1 c #A8CD84FF",
  "Uh c #A8CD85FF",
  "PX c #A8D17FFF",
  "`% c #A8D67BFF",
  "Yc c #A9CE87FF",
  "`= c #A9D87BFF",
  ")r c #AACE87FF",
  "`; c #AAD97CFF",
  "_9 c #ABCD89FF",
  "P< c #ABCE88FF",
  "~H c #ABCF89FF",
  "`, c #ABD97CFF",
  "_~ c #ACCE8BFF",
  "_X c #ACCF8BFF",
  "_^ c #ACD088FF",
  "Y) c #ACD781FF",
  "Lb c #ADD08DFF",
  "_/ c #ADD28AFF",
  "TO c #ADD881FF",
  "/( c #ADD982FF",
  "`& c #AED883FF",
  "To c #AEDA82FF",
  "_r c #AFCF90FF",
  "UN c #AFD18EFF",
  "UB c #AFD18FFF",
  "`< c #AFDC82FF",
  "P> c #B0D190FF",
  "T. c #B0DE83FF",
  "~$ c #B1D290FF",
  "`# c #B1D989FF",
  "Y} c #B1DF83FF",
  "Kr c #B2D393FF",
  "`O c #B2D88DFF",
  "Y| c #B2E084FF",
  ")_ c #B3D394FF",
  "_( c #B3D691FF",
  "_} c #B3D88FFF",
  "U~ c #B4D496FF",
  "^} c #B5D299FF",
  ")) c #B5D497FF",
  "_8 c #B6D498FF",
  "J% c #B7D599FF",
  "JS c #B7D69AFF",
  "P- c #B8D69BFF",
  "Jw c #BAD79EFF",
  "^W c #BBD8A0FF",
  "U2 c #BCD8A1FF",
  "(G c #BCD9A1FF",
  "J_ c #BEDAA4FF",
  "P8 c #BFDAA5FF",
  "J# c #C0DBA6FF",
  "I] c #C0DBA7FF",
  "J) c #C2DCA9FF",
  "Uo c #C3DCABFF",
  ")( c #C3DDACFF",
  "I{ c #C4DDACFF",
  "_. c #C5DEAEFF",
  "(d c #C6DEAFFF",
  "^R c #C7DFB1FF",
  ")} c #C8DFB2FF",
  ")| c #C9E0B3FF",
  "   c none",
  
  // Image data
  "                                                                ",
  "        P$P$P$P$P$P$P$P$P$P$P$P$P$P$P$P$P$P$P$P$P$P$P$          ",
  "        P$J_I]J)Uo)(I{)(UoJ)J#J_U2JwP-)))_P>Lb~HUh)`P$          ",
  "        P$J#~6/+(Y/s^(/s~3^]U7~rP6JrPp~v)'Ym)])[~)){P$          ",
  "        P$J)I{(d^R)})|)}^R_.)(J)P8(GJwJSU~KrUB_XYc_oP$          ",
  "        P$P$P$P$P$P$P$P$P$P$_O^W_+P$P$P$P$P$P$P$P$P$P$          ",
  "                        U3_@^}Jw_#_$U:                          ",
  "                      WE_%_&_*UyP<_=U>Kx                        ",
  "                    L0_-_;~$_:P6_>UN_,_<+j                      ",
  "                    _1_2J%_3~yU0JmP6P>_4_5                      ",
  "                  _6_7_8K=PeJgU`PpJG~b_9_0_q                    ",
  "                _w_e_r(YJ4U`~zJlJGJh)'Jk_t_y_u                  ",
  "              _i_p_a(AJtJtJl~M~vP0)'JBJu~2_s_dP[                ",
  "            KxU>_f_g~vPa~vJy_h_j_k_lJuJC_z/+_x_cL0              ",
  "          +j^P_vP1~vJHYr_b_n_m_M_N_B_V_CPh_Z_A_SYL              ",
  "          _D_F)r_G_H_J_K_L_P_I_U)s_YJ|/DPNJQ_T_R_E_W            ",
  "        _Q_!_~UN_^_/_(YO_)/Z__P)P)P_K4~}PXP.P@P#K@_`_'          ",
  "        P$P&_]_[_{~G_}_|`.KsIoKCKCIoKsIO`XP%`oI}I}P$P$          ",
  "        P*LpLpLpLpP$`O`+KMYTI-YRYRI-KBKM`@PjLpLpLpLp(u          ",
  "                  P$`#`$I-LXI6T,T,I6LXKL`%Pj                    ",
  "                  P$`&I-I5K/K)LO`*IuK/I5`=Pj                    ",
  "                  P$TOI4Y(IuL+`-`-L+IuY(`;Pj                    ",
  "                  P$/(KP^8LOIk`:`:`>LOK/`,Pj                    ",
  "                +jP$TOI4Y(K)L+`-`-L+IuY(`;Pj&hO`                ",
  "          O`@*:k+BP$Y)To`<T.Y}Y|Y|Y}T.`<ToUi*k+r+:*7@X          ",
  "        @X+(@:+k+|P$P$P$P$P$P$P$P$P$P$P$P$P$+/*Q*k+r:k&h        ",
  "        +e+>+B+k@=&Eeree*XewB%*6*o3&9c&W&R:j*`9b*]+r:k+e        ",
  "          O`*!+:+K*]@=@-*`+J:jegeg:j+J*~+g*Q+w@o+:&h+j          ",
  "                +j@.&h*7:k+:@:+B+B:l+h+>*7+eO`+j                ",
  "                                                                ",
  "                                                                ",
  "                                                                "
};
