/* XPM */
const char *xpm_tango_actions_go_up[] = {
  // Header (width height colors chars-per-pixel)
  "32 32 257 2",
  
  // Colors (code mode value)
  "+j c #00000001",
  "O` c #00000002",
  "@. c #00000003",
  "@X c #00000004",
  "+e c #00000005",
  "&h c #00000006",
  "@* c #00000007",
  "*! c #00000008",
  "*7 c #00000009",
  "+> c #0000000B",
  "+h c #0000000D",
  ":l c #0000000F",
  "+r c #00000012",
  "+K c #00000013",
  "*' c #00000015",
  "*k c #00000017",
  "+w c #00000019",
  "+| c #0000001B",
  "9b c #0000001E",
  "@- c #00000020",
  "+g c #00000021",
  "+/ c #00000023",
  "*` c #00000024",
  "*~ c #00000025",
  ":j c #00000029",
  "*^ c #0000002E",
  "*X c #00000033",
  "*G c #00000037",
  "9c c #0000003A",
  "*/ c #0000003C",
  "'s c #0B17002D",
  "'a c #132C0029",
  "T9 c #1F470019",
  "L0 c #2B800006",
  "PE c #33660005",
  "KD c #3377000F",
  "Kx c #3380000A",
  "U: c #3776001C",
  "'5 c #38700820",
  "U9 c #39710009",
  "`r c #39710724",
  "'* c #39760350",
  "P$ c #3A7304FF",
  "_Q c #3A74034B",
  "`I c #3A7403E4",
  "`7 c #3A740442",
  "`_ c #3A740491",
  "', c #3A7404FF",
  "`3 c #3A74056E",
  "QZ c #3A750446",
  "`b c #3A750490",
  "`R c #3A7504C0",
  "'< c #3B7304FA",
  "Pu c #3B7304FC",
  "(] c #3B730568",
  "`n c #3B74047D",
  "'p c #3B7404FA",
  "`s c #3B7503DE",
  "`8 c #3B75043D",
  "`l c #3B7504B1",
  "'1 c #3B7504F7",
  "^6 c #3B7504F9",
  "`1 c #3B7603A0",
  "`k c #3B7604BE",
  "`d c #3B7604D9",
  "_d c #3B7605EC",
  "`H c #3B760727",
  "`C c #3C72035E",
  "'O c #3C74035A",
  "^J c #3C740480",
  "`G c #3C740537",
  "`T c #3C7504D5",
  "Lp c #3C780011",
  "`t c #3E72001D",
  "P% c #3E7609FF",
  "`e c #3E7809F0",
  "`2 c #3F760AFF",
  "~G c #40770CFF",
  "`y c #40780AF0",
  "'= c #41780CFD",
  "(, c #41790BF4",
  "`J c #417B0DF3",
  "`6 c #467D12F4",
  "_` c #467D13F6",
  "`9 c #4A8017F5",
  "`V c #4B8117F5",
  "JA c #4E9905FF",
  "Jv c #4F9906FF",
  "Ph c #4F9B05FF",
  "`Z c #50851EF5",
  "Pt c #509A08FF",
  "/v c #509C05FF",
  "zf c #519B0AFF",
  "JQ c #519E06FF",
  "'o c #538821F5",
  "`( c #539C0CFF",
  "`/ c #539E0AFF",
  "/E c #53A007FF",
  "PI c #54A207FF",
  "Kz c #55550003",
  "`| c #55A309FF",
  "K7 c #56A608FF",
  "'+ c #578A26F6",
  "`4 c #578B28F5",
  "`D c #579E12FF",
  "PP c #57A709FF",
  "~} c #58A909FF",
  "K5 c #59A909FF",
  "'. c #5AA017FF",
  "K3 c #5AAB0AFF",
  "'& c #5BAA0CFF",
  "Kg c #5BAD0AFF",
  "`v c #5C8F29F5",
  "Jc c #5CA119FF",
  "IO c #5CAE0BFF",
  "Kf c #5CAF0BFF",
  "`^ c #5DA418FF",
  "Ks c #5DB00BFF",
  "`} c #5EA915FF",
  "KC c #5FB20CFF",
  "KV c #60B40CFF",
  "KN c #60B50DFF",
  "/a c #61A41FFF",
  "JC c #61A420FF",
  "I- c #62B70DFF",
  "KL c #62B80DFF",
  "Ji c #63A522FF",
  "`~ c #63A820FF",
  "I4 c #63B90EFF",
  "`m c #649336F6",
  "`i c #64A624FF",
  "`x c #64A625FF",
  "LX c #64BB0EFF",
  "`) c #659733F8",
  "~p c #65A625FF",
  "KI c #65BC0FFF",
  "JK c #66A726FF",
  "JV c #66A727FF",
  "Y( c #66BE0FFF",
  "'> c #67B31CFF",
  "'y c #67BB15FF",
  "'w c #67BC14FF",
  "T, c #67BE0FFF",
  "^8 c #67BF0FFF",
  "/i c #68AB27FF",
  "'4 c #68B61CFF",
  "'t c #68BC15FF",
  "Iy c #68C010FF",
  "Ym c #69A92BFF",
  "'% c #69B222FF",
  "K) c #69C210FF",
  "`h c #6AA92CFF",
  "JJ c #6AA92DFF",
  "`{ c #6AAF26FF",
  "Ii c #6AC311FF",
  "LO c #6AC411FF",
  "JB c #6BAA2EFF",
  "Jz c #6CAA2FFF",
  "'0 c #6CC611FF",
  "'u c #6CC612FF",
  "'7 c #6DB823FF",
  "L@ c #6DC812FF",
  "Ik c #6DC912FF",
  "`` c #6E9D42F7",
  "`! c #6EAD2FFF",
  "`> c #6EC912FF",
  "`j c #6FA041F9",
  "`[ c #6FB230FF",
  "L: c #6FCB13FF",
  "P0 c #71AD36FF",
  "Jh c #71AD37FF",
  "`: c #71CE14FF",
  "`Q c #72AF36FF",
  "/h c #73AF39FF",
  "UR c #74B436FF",
  "JM c #76B03DFF",
  "Y- c #76B13CFF",
  "Yi c #76B736FF",
  "`Y c #78A84AFC",
  "PJ c #78B43CFF",
  "Jm c #7AB344FF",
  "Y> c #7AB93CFF",
  "`z c #7BA650F9",
  "J4 c #7BB345FF",
  "U] c #7BB643FF",
  "': c #7BBC3BFF",
  "U0 c #7DB448FF",
  "`N c #7EB548FF",
  "'$ c #7EB943FF",
  "P9 c #7FB54BFF",
  "'; c #7FBC42FF",
  "'3 c #7FBF40FF",
  "~y c #80B64CFF",
  "`] c #80B74AFF",
  "U; c #83B850FF",
  "`a c #84B159FD",
  "JD c #85B953FF",
  "`P c #88B55CFF",
  "`E c #89B160FA",
  "`S c #8BBC5CFF",
  "Ut c #8CBD5CFF",
  "^] c #8CBD5DFF",
  "`' c #8DBE5EFF",
  "`f c #8FB769FD",
  "`p c #92C166FF",
  "`F c #95BF6CFF",
  "`w c #96BE6EFF",
  "(N c #97C36CFF",
  "`L c #9AC571FF",
  "UF c #9BC572FF",
  "'X c #9CC674FF",
  "`g c #9DC775FF",
  "`u c #9EC37AFF",
  "`B c #9EC677FF",
  "`U c #9FC37CFE",
  "`c c #9FC879FF",
  "`q c #A0C878FF",
  "K@ c #A2C87DFF",
  "K+ c #A4CB7EFF",
  "KO c #A5CD7EFF",
  "`0 c #A6C983FF",
  "Ko c #A6CE7FFF",
  "P. c #A7CF7FFF",
  "`% c #A8D67BFF",
  "'r c #A8D77BFF",
  "J; c #A9CE85FF",
  "Po c #A9D280FF",
  "'q c #A9D77CFF",
  "YJ c #AAD580FF",
  "`5 c #ABCC8BFF",
  "J- c #ACCF89FF",
  "Y) c #ACD781FF",
  "`K c #ADCD8FFF",
  "/( c #ADD982FF",
  "'i c #ADDA82FF",
  "To c #AEDA82FF",
  "'e c #AEDB82FF",
  "'9 c #AFD986FF",
  "^> c #AFDB82FF",
  "`< c #AFDC82FF",
  "T. c #B0DE83FF",
  "Y} c #B1DF83FF",
  "Y| c #B2E084FF",
  "`A c #B3D295FF",
  "`M c #B4D395FF",
  "`W c #B5D496FF",
  "'8 c #B9DD96FF",
  "'# c #BBD99EFF",
  "J` c #BDD9A1FF",
  "J$ c #BDD9A2FF",
  "Uz c #BEDBA1FF",
  "'- c #BEDCA0FF",
  "'6 c #BEDE9EFF",
  "'2 c #BEDE9FFF",
  "'@ c #C2DBA9FF",
  "I[ c #C2DCAAFF",
  "   c none",
  
  // Image data
  "                                                                ",
  "                                                                ",
  "                            L0QZ                                ",
  "                            `1`2`3                              ",
  "                          (]`4`5`6`7                            ",
  "                        `8`9`0`q`w`e`r                          ",
  "                      `t`y`u^]`i`p`a`sKD                        ",
  "                    Kx`d`f`g`h~pJiUF`j`kKz                      ",
  "                  +j`l`zJ-/hJJJK/a`x`c`v`b                      ",
  "                  `n`m`M`NP0JBJV/aJcYm`B`V`C                    ",
  "                _Q`Z`A`SJMP0JzJVJCJc`DJh`F(,`G                  ",
  "              `H`J`K`LJ4JMP0JzJVJCJc`DzfU0`P_dU:                ",
  "            KD`I`UJ;~yJ4JMP0JBJV/aJc`DPtJvUt`Y`TKx              ",
  "          Kz`R`E`WJDP9JmY-`Q`!/i`~`^`/PhJA`((N`)`l+j            ",
  "          `_``J$`'U;`]U]PJUR`[`{`}`|PI/EJQ/v'.'X'o^J            ",
  "        'O'+'@I[J`'#Uz'$Y>Yi'%'&K5~}PPK7P.KoKOK+K@_`'*          ",
  "        P$P%~G~G'=~G'-';':'>IOKfKfIOKgK3Po','<'1'1P$P$          ",
  "                PEP$'2'3'4KCKVKNKNKVKCKsYJPu'5LpLpLpU9          ",
  "                  P$'6'7KNI-I4LXLXI4I-KNY)^6KD                  ",
  "                  P$'8KNI4KI^8IyIy^8KII4/(^6KD                  ",
  "                  P$'9KLKIIyLO'0'0LOIyKITo^6KD                  ",
  "                  P$'q'wT,IiL@L:L:L@IiT,'e^6KD                  ",
  "                  P$'r't^8LOIk`:`:IkLO^8^>^6KD                  ",
  "                @XP$`%'yY(K)'u`>`>'uK)Y('e^6T9*!@X              ",
  "          @.*!+h+rP$Y)'i`<T.Y}Y|Y|Y}T.`<'i'p'a*k+r+h*!@.        ",
  "        @.*7:l*'+|P$P$P$P$P$P$P$P$P$P$P$P$P$'s@-+|*':l*7O`      ",
  "        +j*!+h+K+w9b*`:j*^*X*G9c*/9c*G*X*^:j*`9b+w+K+h&h        ",
  "            O`@*+h+K*k+|9b+g+/*~*~*~+/+g9b+|*k+r+>+e+j          ",
  "                    O`@.+e&h*!*7*7*!@*&h@XO`+j                  ",
  "                                                                ",
  "                                                                ",
  "                                                                "
};
