/* XPM */
const char *xpm_tango_actions_list_remove[] = {
  // Header (width height colors chars-per-pixel)
  "32 32 67 2",
  
  // Colors (code mode value)
  "]2 c #2B55AA06",
  "'v c #2D69A511",
  "2} c #3465A4FF",
  "]3 c #3566A5FC",
  "'N c #3767A5F7",
  "'| c #6898D1FF",
  "'} c #6998D1FF",
  "'{ c #6A99D1FF",
  "'[ c #6B99D1FF",
  "'] c #6B9AD1FF",
  "'' c #6C9BD1FF",
  "'` c #6D9BD1FF",
  "'_ c #6E9CD0FF",
  "') c #6F9CD0FF",
  "'( c #6F9DD0FF",
  "'/ c #709DD0FF",
  "'^ c #719ED0FF",
  "'~ c #729FCFFF",
  "N, c #739FCFFF",
  "'! c #73A0CFFF",
  "'E c #7CA5D7FF",
  "'R c #80A8D8FF",
  "'T c #82A9D8FF",
  "'Y c #84ABD9FF",
  "1U c #88AED8FF",
  "'U c #88AEDAFF",
  "1' c #89AED8FF",
  "'I c #8BAFDAFF",
  "]$ c #8CB1D9FF",
  "]# c #8EB1D9FF",
  "'P c #8EB2DAFF",
  "]@ c #90B4DAFF",
  "'L c #91B4DBFF",
  "1y c #92B5DBFF",
  "'K c #93B6DCFF",
  "1l c #95B7DCFF",
  "1( c #96B7DCFF",
  "'J c #97B8DDFF",
  "CL c #98B8DDFF",
  "1^ c #9ABADDFF",
  "'H c #9CBBDDFF",
  "'W c #9CBBDFFF",
  "'G c #9CBCDDFF",
  "1% c #9DBDDEFF",
  "'j c #9EBDDEFF",
  "1v c #9FBEDFFF",
  "]+ c #A2C0E0FF",
  "]O c #A4C2E1FF",
  "]o c #A7C3E1FF",
  "]X c #A9C5E2FF",
  "]. c #ACC7E3FF",
  "'Q c #ADC7E3FF",
  "'F c #B3CBE5FF",
  "'D c #B4CCE6FF",
  "'S c #B5CDE6FF",
  "'A c #B8CEE7FF",
  "]8 c #B9CFE7FF",
  "'C c #BBD0E8FF",
  "]7 c #BCD2E8FF",
  "<{ c #BED3E9FF",
  "1K c #C0D4EAFF",
  "]6 c #C1D5EAFF",
  "Vf c #C2D5EAFF",
  "]5 c #C3D6EAFF",
  "]4 c #C4D7EBFF",
  "'m c #C5D7EBFF",
  "   c none",
  
  // Image data
  "                                                                ",
  "                                                                ",
  "                                                                ",
  "                                                                ",
  "                                                                ",
  "                                                                ",
  "                                                                ",
  "                                                                ",
  "                                                                ",
  "                                                                ",
  "                                                                ",
  "                                                                ",
  "                                                                ",
  "                                              ]2'v'v            ",
  "            2}2}2}2}2}2}2}2}2}2}2}2}2}2}2}2}2}]3'N2}            ",
  "            2}'m'm'm'm'm'm]4]5]61K<{]7'C]8'A'S'D'F2}            ",
  "            2}Vf'G'j'j'H1^'J1('K'L'P'I'U'Y'T'R'E'W2}            ",
  "            2}'Q'!'!N,'~'^'/'(')'_'`''']'['{'}'|1'2}            ",
  "            2}'Q'Q].]X]o]O]+1v1%1^CL1l1y]@]#]$1U1U2}            ",
  "            2}2}2}2}2}2}2}2}2}2}2}2}2}2}2}2}2}2}2}2}            ",
  "                                                                ",
  "                                                                ",
  "                                                                ",
  "                                                                ",
  "                                                                ",
  "                                                                ",
  "                                                                ",
  "                                                                ",
  "                                                                ",
  "                                                                ",
  "                                                                ",
  "                                                                "
};
