/* XPM */
const char *xpm_tango_actions_list_add[] = {
  // Header (width height colors chars-per-pixel)
  "32 32 107 2",
  
  // Colors (code mode value)
  "+j c #00000001",
  "O` c #00000002",
  "@. c #00000003",
  "@X c #00000004",
  "+e c #00000005",
  "&h c #00000006",
  "@* c #00000007",
  "*! c #00000008",
  "*7 c #00000009",
  "+( c #0000000A",
  "+> c #0000000B",
  ":k c #0000000C",
  "+h c #0000000D",
  "@: c #00000010",
  "]> c #1A33551E",
  "]1 c #1A35581D",
  "]; c #20406A18",
  "V8 c #2B6AAA0C",
  "]= c #2D5A9611",
  "'v c #2D69A511",
  "An c #3366AA0F",
  "2} c #3465A4FF",
  "'n c #3566A5FA",
  "'b c #3666A5F9",
  "]% c #3667A5F8",
  "'N c #3767A5F7",
  "<( c #3868A6FF",
  "'l c #3868A720",
  "'z c #3A68A6FC",
  "'d c #3B6AA7F8",
  "'| c #6898D1FF",
  "'} c #6998D1FF",
  "]- c #6999D1FF",
  "'{ c #6A99D1FF",
  "'[ c #6B99D1FF",
  "'] c #6B9AD1FF",
  "]& c #6C9AD1FF",
  "'' c #6C9BD1FF",
  "'` c #6D9BD1FF",
  "'_ c #6E9CD0FF",
  "') c #6F9CD0FF",
  "'( c #6F9DD0FF",
  "'/ c #709DD0FF",
  "'^ c #719ED0FF",
  "'~ c #729FCFFF",
  "N, c #739FCFFF",
  "'! c #73A0CFFF",
  "'E c #7CA5D7FF",
  "'R c #80A8D8FF",
  "'T c #82A9D8FF",
  "'Y c #84ABD9FF",
  "1U c #88AED8FF",
  "'U c #88AEDAFF",
  "1' c #89AED8FF",
  "1` c #89AFD8FF",
  "]: c #89AFD9FF",
  "'I c #8BAFDAFF",
  "]< c #8CB0DAFF",
  "]$ c #8CB1D9FF",
  "]# c #8EB1D9FF",
  "'P c #8EB2DAFF",
  "]* c #8FB2DAFF",
  "], c #90B3DAFF",
  "]@ c #90B4DAFF",
  "1_ c #91B4DAFF",
  "'L c #91B4DBFF",
  "1y c #92B5DBFF",
  "'K c #93B6DCFF",
  "1) c #94B6DBFF",
  "1l c #95B7DCFF",
  "1( c #96B7DCFF",
  "1/ c #97B8DCFF",
  "'J c #97B8DDFF",
  "1^ c #9ABADDFF",
  "'H c #9CBBDDFF",
  "'W c #9CBBDFFF",
  "'G c #9CBCDDFF",
  "1, c #9CBCDEFF",
  "'V c #9CBCDFFF",
  "'c c #9EBCDEFF",
  "'M c #9EBCDFFF",
  "'j c #9EBDDEFF",
  "'h c #9FBDDEFF",
  "'g c #9FBEDEFF",
  "1v c #9FBEDFFF",
  "]+ c #A2C0E0FF",
  "]O c #A4C2E1FF",
  "]o c #A7C3E1FF",
  "]X c #A9C5E2FF",
  "]. c #ACC7E3FF",
  "'Q c #ADC7E3FF",
  "'F c #B3CBE5FF",
  "'D c #B4CCE6FF",
  "'S c #B5CDE6FF",
  "'A c #B8CEE7FF",
  "'Z c #B9CFE8FF",
  "'C c #BBD0E8FF",
  "Fl c #BED2E9FF",
  "1K c #C0D4EAFF",
  "Vf c #C2D5EAFF",
  "'B c #C3D6EBFF",
  "'k c #C3D7EAFF",
  "'m c #C5D7EBFF",
  "1V c #C5D8ECFF",
  "'x c #C6D9ECFF",
  "'f c #C7D9ECFF",
  "   c none",
  
  // Image data
  "                                                                ",
  "                                                                ",
  "                                                                ",
  "                                                                ",
  "                                                                ",
  "                                                                ",
  "                                                                ",
  "                        An2}2}2}2}2}2}                          ",
  "                        An'd'f'f'f'f<(                          ",
  "                        An'd'f'g'g'f<(                          ",
  "                        An'd'f'g'g'f<(                          ",
  "                        An'd'f'g'g1V<(                          ",
  "                        An'd'f'h'j'k<(                          ",
  "                      V8'l'z'x'j'cVf<('v'v'v'v'v'v'v            ",
  "            2}2}2}2}2}'b'n<('m'c'M1K<('N'N'N'N'N'N2}            ",
  "            2}'m'm'm'm'm'm'B'k'M'VFl'C'Z'A'A'S'D'F2}            ",
  "            2}Vf'G'j'j'H1^'J1('K'L'P'I'U'Y'T'R'E'W2}            ",
  "            2}'Q'!'!N,'~'^'/'(')'_'`''']'['{'}'|1'2}            ",
  "            2}'Q'Q].]X]o]O]+1v'_'`'J1l1y]@]#]$1U1U2}            ",
  "            2}2}2}2}2}2}2}2}1,'`''1l2}2}2}2}2}2}2}2}            ",
  "                        An]%1^]&']1y2}                          ",
  "                        An]%1/']'{]*2}                          ",
  "                      +j]=]%1)'{]-]$2}+j                        ",
  "                O`@X&h*!];]%1_]-'|]:2}*7@*+e@.+j                ",
  "              @.+e*!+>+h]>]%],]<1`1U2}@:+h+(*!+eO`              ",
  "              O`+e*!+(+h]12}2}2}2}2}2}@:+h+>*!+e@.              ",
  "                +j@.+e@**7+(:k:k:k:k+>+(*!+e@.+j                ",
  "                          +j+j+j+j+j+j                          ",
  "                                                                ",
  "                                                                ",
  "                                                                ",
  "                                                                "
};
