/* XPM */
const char *xpm_tango_actions_mail_message_new[] = {
  // Header (width height colors chars-per-pixel)
  "32 32 323 2",
  
  // Colors (code mode value)
  "@M c #00000002",
  "@N c #00000005",
  "&h c #00000006",
  "@C c #00000007",
  "@B c #0000000A",
  ":k c #0000000C",
  "@b c #0000000D",
  "@2 c #0000000E",
  ":l c #0000000F",
  "@V c #00000011",
  "@m c #00000013",
  "@n c #00000019",
  "@5 c #0000001A",
  "@6 c #00000020",
  ":j c #00000029",
  "T2 c #00000032",
  "*8 c #00000036",
  "9c c #0000003A",
  ":h c #0000003B",
  "B% c #0000003D",
  "*6 c #00000040",
  "@v c #656460FF",
  "@- c #6C6B67EF",
  "@4 c #6D6C69F1",
  "@$ c #6E6D68ED",
  "@c c #6E6D6AF4",
  "@x c #706F6CF4",
  "+U c #716F6CE7",
  "@z c #72716DF4",
  "@l c #73736FF4",
  "@k c #757471F4",
  "O@ c #76766F27",
  "@j c #777672F4",
  "@h c #797873F4",
  "@g c #7A7A75F4",
  "@f c #7C7B77F4",
  "@d c #7E7D79F4",
  "@s c #81807AF4",
  "OO c #81807CED",
  "@a c #82817CF4",
  "O+ c #83837EC9",
  "@p c #84837DF4",
  "Oo c #84837EED",
  "o[ c #8484841B",
  "OX c #858480ED",
  "@i c #868580F4",
  "O. c #888681ED",
  "@u c #888781F4",
  "@y c #898883F4",
  "o| c #8A8983ED",
  "o} c #8B8A84EE",
  "@t c #8B8A85F4",
  "O- c #8D88843A",
  "@r c #8D8C87F4",
  "O5 c #8D8D8543",
  "@e c #8E8E88F4",
  "+G c #8F8958EC",
  "Oi c #8F8F884B",
  "@w c #908F89F4",
  "o{ c #908F8BB8",
  "@q c #92918BF4",
  "O_ c #9292891C",
  "OY c #93938E2D",
  "@0 c #94938DF4",
  "@9 c #95958EF4",
  "OA c #96928B44",
  "Ox c #96938C50",
  "O; c #969590E9",
  "@7 c #97968FFF",
  "@8 c #989791F3",
  "+o c #9999990A",
  "O: c #9A977BF0",
  "@3 c #9A9993F1",
  "+T c #9C9B94EF",
  "+s c #9D9C95EF",
  "+q c #9E9C96EE",
  "+( c #9EA59EFF",
  "+) c #9EA69EFF",
  "+O c #9F9D98D9",
  "+_ c #9FA69FFF",
  "+> c #A09F9A9C",
  "O` c #A2A19AE6",
  "O6 c #A2A29EEE",
  "+` c #A3A9A3FF",
  "OT c #A7A6A0EC",
  "Op c #A8A6A1EF",
  "+[ c #AAB1AAFF",
  "+^ c #ABB1ABFF",
  "OS c #ACACA5EF",
  "+! c #ACB1ACFF",
  "Oc c #ADADA8EF",
  "+' c #AEB4AEFF",
  "+E c #B0B6B0FF",
  "+c c #B1AA42F1",
  "@X c #B2B8B2FF",
  "+R c #B7BCB7FF",
  ",G c #BABABAFF",
  "5> c #BBBBBBFF",
  "O> c #BCB43A73",
  ",A c #BCBCBCFF",
  "+} c #BCC1BCFF",
  "@@ c #BCC2BCFF",
  "@O c #BFC4BFFF",
  ";g c #C0C0C0FF",
  "+/ c #C1C4C1FF",
  ";Z c #C2C2C2FF",
  ":* c #C3C3C3FF",
  "+] c #C3C6C3FF",
  ";Y c #C5C5C5FF",
  ":= c #C6C6C6FF",
  "O9 c #C7C060F7",
  ",1 c #C7C7C7FF",
  "+~ c #C8CCC8FF",
  "@* c #C9CDC9FF",
  "+p c #CAC235F5",
  "+H c #CACECAFF",
  "+Y c #CBCECBFF",
  "#+ c #CCCCCCFF",
  "+| c #CCD0CCFF",
  "+1 c #CEC97AFF",
  "+< c #CECCADFF",
  ";_ c #CECECEFF",
  "+v c #D0D0D0FF",
  "@& c #D0D4D0FF",
  ",V c #D2D2D2FF",
  ",, c #D3D3D3FF",
  "@= c #D3D5D3FF",
  ",n c #D4D4D4FF",
  "@# c #D4D6D4FF",
  ":o c #D5D5D5FF",
  "@> c #D5D7D5FF",
  ",N c #D6D6D6FF",
  "@, c #D6D8D6FF",
  ",M c #D7D7D7FF",
  "@. c #D7D9D7FF",
  "+Q c #D7DAD7FF",
  ",B c #D8D8D8FF",
  "@o c #D8DAD8FF",
  ",b c #D9D9D9FF",
  "+P c #DAD7A6FF",
  ",m c #DADADAFF",
  ",v c #DBDBDBFF",
  "+@ c #DCD9ABFF",
  ",^ c #DCDCDCFF",
  "@% c #DCDDDCFF",
  "+{ c #DCDEDCFF",
  "@; c #DCDFDCFF",
  "=b c #DDDDDDFF",
  "=P c #DEDEDEFF",
  "]Y c #DEDFDEFF",
  "+n c #DEE0DEFF",
  "O' c #DFDBA5FF",
  "={ c #DFDFDFFF",
  "&_ c #E0E0E0FF",
  "OR c #E1DDA7FF",
  "+Z c #E1E1E1FF",
  "eU c #E1E2E1FF",
  "OD c #E2DFB1FF",
  "Ov c #E2E0C2FF",
  "Oa c #E2E1DBFF",
  "+A c #E2E2E2FF",
  "hJ c #E2E3E2FF",
  "+S c #E3E3E3FF",
  "O0 c #E4DA25B1",
  "&K c #E4E4E4FF",
  "+# c #E5DF7DFF",
  ";3 c #E5E5E5FF",
  "+2 c #E6DF62FF",
  ";b c #E6E6E6FF",
  "+D c #E7E180FF",
  "Os c #E7E3ADFF",
  "+, c #E7E7E6FD",
  ";G c #E7E7E7FF",
  "@: c #E7E9E7FF",
  "O] c #E8E278FF",
  ":# c #E8E8E8FF",
  "Og c #E9DE41FB",
  "Ob c #E9E495FF",
  ":2 c #E9E9E9FF",
  "@1 c #E9EAE9FF",
  "OE c #EAE47AFF",
  "OF c #EAE483FF",
  ",$ c #EAEAEAFF",
  "@+ c #EAECEAFF",
  "+0 c #EBE027E1",
  "+l c #EBE348FF",
  ":, c #EBEBEBFF",
  ":> c #ECECECFF",
  "+z c #EDE555FF",
  "+I c #EDEBCBFF",
  ";9 c #EDEDEDFF",
  "+$ c #EEE656FF",
  ":< c #EEEEEEFF",
  "On c #EFE86BFF",
  "}t c #EFEFECFF",
  "#' c #EFEFEDFF",
  ";A c #EFEFEFFF",
  "fn c #EFF0EFFF",
  "+J c #F0EFD9FF",
  ";T c #F0F0F0FF",
  "OG c #F1E959FF",
  "+L c #F1EDB7FF",
  "+K c #F1EFC5FF",
  "+x c #F1F0DAFF",
  "+F c #F1F0E2FF",
  ";` c #F1F1F1FF",
  "OW c #F2EA4FFF",
  "Od c #F2EEAEFF",
  "+i c #F2F0CBFF",
  "O7 c #F2F1E6FF",
  ";' c #F2F2F2FF",
  "+C c #F3ED83FF",
  "55 c #F3F3F2FF",
  ":O c #F3F3F3FF",
  "@< c #F3F4F3FF",
  "+m c #F4F2E0FF",
  "+w c #F4F3EDFF",
  ":3 c #F4F4F4FF",
  "+; c #F5ED51FB",
  "+8 c #F5F3CCFF",
  "++ c #F5F4F4FF",
  "=a c #F5F5F5FF",
  "+N c #F6F1A2FF",
  "+M c #F6F2BCFF",
  "+W c #F6F6F6FF",
  "ON c #F7EE5EFE",
  "+B c #F7F18FFF",
  ":9 c #F7F7F7FF",
  "Oh c #F8ED22E9",
  "-k c #F8EF3CFF",
  "+3 c #F8EF4AFF",
  "+u c #F8EF4BFF",
  "+9 c #F8F161FE",
  "Om c #F8F284FF",
  "+V c #F8F288FF",
  "+f c #F8F4B5FF",
  "+- c #F8F4B6FF",
  "+= c #F8F6D2FF",
  "+d c #F8F6E2FF",
  ";R c #F8F8F8FF",
  "+% c #F9EF34FF",
  "+& c #F9F15AFF",
  "O| c #F9F49DFE",
  ";S c #F9F9F9FF",
  "OH c #FAF036FF",
  "OQ c #FAF13EFF",
  "+6 c #FAF36DFF",
  "+* c #FAF483FF",
  "+g c #FAF492FF",
  "OL c #FAF5A3FE",
  "OK c #FAF9DEFF",
  "O{ c #FAF9E4FF",
  "O} c #FAF9E8FF",
  "O8 c #FAF9EAFF",
  "O^ c #FAF9EDFF",
  ":5 c #FAFAFAFF",
  "+j c #FBF363FF",
  "OB c #FBF366F2",
  "O! c #FBF46EFF",
  "+7 c #FBF471FF",
  "+h c #FBF477FF",
  "OJ c #FBF692FF",
  "Of c #FBF9DAFF",
  ";Q c #FBFBFBFF",
  "-z c #FCF7A2FF",
  "O~ c #FCF8C1FF",
  "OM c #FCFAD1FF",
  "O/ c #FCFAD3FF",
  ";2 c #FCFCFCFF",
  ";. c #FDF441FF",
  "+k c #FDF55AFF",
  "+t c #FDF66FFF",
  "OP c #FDF89EF5",
  "O[ c #FDF8A3FF",
  "=q c #FDFDFDFF",
  "+: c #FEF21EDF",
  ";X c #FEF439FF",
  "+4 c #FEF542FF",
  "+y c #FEF550FF",
  "+. c #FEF666ED",
  "+r c #FEF896FF",
  "O( c #FEF99FF4",
  "+e c #FEFAC4FF",
  "=w c #FEFEFEFF",
  "O= c #FFCC0005",
  "O# c #FFDB0007",
  "O4 c #FFE70015",
  "-~ c #FFE8000B",
  "O) c #FFED043A",
  "O& c #FFEE043B",
  "OU c #FFEE062C",
  "O$ c #FFEF0020",
  "+a c #FFEF052F",
  "O* c #FFEF0531",
  "+b c #FFEF083E",
  "O% c #FFF00532",
  "mO c #FFF00723",
  "Oy c #FFF00844",
  "O2 c #FFF00C57",
  "Ou c #FFF10012",
  "+X c #FFF10535",
  "O, c #FFF10C58",
  "O< c #FFF10C6C",
  "O3 c #FFF2043A",
  "O1 c #FFF20F77",
  "Ot c #FFF2128D",
  "OZ c #FFF30016",
  "Oz c #FFF31499",
  "Or c #FFF316A5",
  "Oq c #FFF316A6",
  "Ol c #FFF319C0",
  "Oe c #FFF417B2",
  "Ow c #FFF417B3",
  "Ok c #FFF41EDE",
  "Oj c #FFF52BE3",
  "OC c #FFF64FE8",
  "+5 c #FFF760FF",
  "OV c #FFF766EB",
  "OI c #FFF97EEE",
  "X} c #FFFF0002",
  ";1 c #FFFF0003",
  ">X c #FFFFFFFF",
  "   c none",
  
  // Image data
  "                                                                ",
  "                      o[o{o}o|O.OXOoOOO+O@O#O$O%O&O&O*O$O=      ",
  "                    O-O;;`=q=q;2;2;2;255O:O>O,O<O1O1O<O2O3O4    ",
  "                  O5O6:5+W;9:,:2:#;b;3O7O8O9O0OqOwOeOrOtO<OyOu  ",
  "                OiOp;Q:O:,:2:#;b;3+SOaOsOdOfOgOhOjOjOkOlOzO<O3X}",
  "              OxOc;Q;`,$:#;b;3+S+A&_OvObOnOmOMONOBOVOCOjOlOtO2OZ",
  "            OAOS;Q;T:#;G;3+S+A&_={=bODOFOGOHOJOKOLOPOIOCOkOrO<OU",
  "          OYOT:5;A;G;3&K+A&_={=b,^,mOROEOWOQO!O~O^O/O(OVOjOeO1O)",
  "        O_O`;S;`;b&K+A+Z={=P,^,m,b,MO'O]OWOQO!O[O{O}O|+.OjOwO1+X",
  "      +o+O++;'&K+S+Z={=P,^,v,b,M,N,n+@+#+$+%+&+*-z+=+-+;+:OqO<mO",
  "      +>+,+W+S+Z&_=P,^,v,b,B,N,n,,+v+<+1+2+3+4+5+6+7+8+9+0OtO,-~",
  "      +q;2+S&_=P=b,v,b,B,N:o#+,G;g,v+w+e+r+t+y;X;.-k+u+i+pO<+a  ",
  "      +s=q+A=b,v,m,B,n;Z5>,n:<=q=w;2:5+d+f+g+h+j+k+l+z+x+c+b;1  ",
  "      +s=w+n,^#+,A;_:#;Q>X=q:5:9+W=a:3:3+m+M+N+B+V+C+D+F+G;1    ",
  "      +s=w=a+H:3>X=w;Q;R=a:3:3:O;';';`;`;T}t+J+K+L+P+I#'+U      ",
  "      +s=w:O;`+Y;':3:O;';';`;`;T;A;A:<;9;9:>:>,$,1&K,$;9+U      ",
  "      +T=w;';',$+R;9;T;A;A:<;9;9:>:>:,,$,$:2:2;Y,v:2:2:>+U      ",
  "      +T=q;`;T;ThJ+E;G:2:#:2:#:2:2:#:#;G;G;b;Y,V:#:#;G:>+U      ",
  "      +T=q;A;A:<:<+Q+!,v,v,^,v,v,v,v,^,v,v:*:=;G;G;b;b:>+U      ",
  "      +T=q:<:<;9;9:>+~+^+/+(+(+(+(+)+_+)+`,G;b;b;3;3&K:>+U      ",
  "      +T=q;9:>:>:,:,,$+E+'fn;Q+W;`:,&K={+]+[+{&K&K&K+S:>+U      ",
  "      +T;Q:,:,,$,$:#+}+|;R:,;G;G;b;b;3;3;3@.@X@o+S+A+A:,+U      ",
  "      +T;S,$,$:2hJ@O@+;';G;b;b;3;3;3&K&K+S+S]Y@@@#+Z+Z:,@$      ",
  "      +T;S:2:#@%@&:9,$;b;3;3;3&K&K+S+S+A+A+Z+Z+Z@*@=+Z:,@-      ",
  "      +T;R;G@;@::O;b;3;3&K&K+S+S+A+A+Z+Z+Z+Z+Z+Z+Z@>@,:,@-      ",
  "      +T:9eU@<:,;3&K&K+S+S+A+A+Z+Z+Z+Z+Z+Z+Z+Z+Z+Z+Z@%@1@-      ",
  "    @2@3;S+W:3:O;';`;`;T;A:<;9:>:>:,:,:,:,:,:,:,:,:,:,;9@4@5@2  ",
  "  @2@6@7@8@9@0@q@w@e@r@t@y@u@i@p@a@s@d@f@g@h@j@k@l@z@x@c@vT2@6@b",
  "  &h@n:j*8:h*6*6*6*6*6*6*6*6*6*6*6*6*6*6*6*6*6*6*6*69cB%*8:j@m@M",
  "      @N@B:l@V@V@V@V@V@V@V@V@V@V@V@V@V@V@V@V@V@V@V@V:l:k@C@M    ",
  "                                                                ",
  "                                                                "
};
