/* XPM */
const char *xpm_tango_actions_mail_mark_not_junk[] = {
  // Header (width height colors chars-per-pixel)
  "32 32 389 2",
  
  // Colors (code mode value)
  "+j c #00000001",
  "O` c #00000002",
  "@. c #00000003",
  "@X c #00000004",
  "+e c #00000005",
  "&h c #00000006",
  "*! c #00000008",
  "*7 c #00000009",
  "+( c #0000000A",
  "+> c #0000000B",
  "+h c #0000000D",
  "+: c #0000000E",
  ":l c #0000000F",
  "@: c #00000010",
  "+K c #00000013",
  "*' c #00000015",
  "+k c #00000016",
  "*k c #00000017",
  "*] c #00000018",
  "+w c #00000019",
  "+| c #0000001B",
  "9b c #0000001E",
  "+g c #00000021",
  "*` c #00000024",
  "*~ c #00000025",
  "+N c #00000026",
  "+J c #00000027",
  "er c #00000028",
  ":j c #00000029",
  "eg c #0000002A",
  "ee c #0000002D",
  ":s c #00000031",
  "&W c #00000034",
  "*G c #00000037",
  "ew c #00000038",
  ",W c #00000039",
  "._ c #08080822",
  "o! c #23282333",
  ".q c #24312415",
  ".F c #4A51464C",
  ".G c #4F554957",
  ".H c #5B63576A",
  ".( c #656D5E44",
  ".J c #666C607D",
  ".K c #6D74668F",
  "oT c #737A6B9F",
  "oW c #79827074",
  "oP c #7B84735D",
  "oR c #7D8475B3",
  "oQ c #88907FC3",
  ".f c #8B938093",
  ".D c #8C9584C1",
  "oE c #8E9684DF",
  "ol c #8E988768",
  "oI c #8F9986DB",
  "o_ c #92000023",
  "oN c #969E8BFF",
  "|8 c #97A08E56",
  "o, c #988B79FC",
  "|7 c #99A69328",
  "}a c #99CC9905",
  "of c #9AA08F5B",
  "oU c #9CA391F7",
  "|6 c #9CA69350",
  "oY c #9DA593FD",
  "|W c #9DA6948F",
  "oA c #9EA695FF",
  "oz c #A0A797FA",
  "|G c #A1A996A3",
  "|v c #A2AA991E",
  "o^ c #A30706D5",
  "R7 c #A40000FF",
  "o~ c #A40201FF",
  "o: c #A40202FF",
  "o> c #A41F1BFF",
  "o] c #A500001F",
  "oe c #A50000FC",
  "o; c #A50303FF",
  "og c #A5AC9DFC",
  "o' c #A60000CE",
  "o` c #A60202D3",
  "|O c #A6AC9928",
  "oD c #A6AD9CFD",
  "o) c #A70000C6",
  "o8 c #A70101C7",
  "oX c #A7AD9CC4",
  "o9 c #A7AE9EB0",
  "o< c #A8AD9F38",
  "o1 c #A9B1A2F7",
  "}= c #AAAAAA06",
  "X~ c #ABB2A46D",
  "|9 c #ABB3A046",
  "}T c #ADADA319",
  "oo c #ADB3A664",
  "X[ c #ADB3A689",
  "X^ c #ADB3A6AB",
  "}R c #ADB4A393",
  "}V c #AEB3A32F",
  "Xn c #AEB3A63C",
  "XU c #AEB4A6FF",
  "oF c #AEB4A7F7",
  "X] c #AEB4A7FD",
  "X! c #AEB5A7D7",
  "XQ c #AFB5A7FF",
  ".U c #AFB5A8FA",
  "XA c #B0B7A8A2",
  "|n c #B1B7A9F7",
  "o% c #B2B8A9F4",
  "Xm c #B3B8AAA2",
  "o- c #B42D2DFF",
  "}4 c #B5BAAE8D",
  "Xc c #B5BAAEA9",
  "}s c #B5BBACA2",
  "{^ c #B6B6B607",
  "oH c #B6BAB0F8",
  "oO c #B6BCAEF6",
  "Xx c #B7BBADA2",
  "o3 c #B83636FF",
  "Xd c #B9BEB1C8",
  "Xz c #B9BEB386",
  "Xk c #BABFB564",
  ".z c #BCC1B7F9",
  "oS c #BDC2B6F9",
  "Xt c #BDC2B7D4",
  "Xb c #BDC2B7FC",
  "Xs c #BEC2B747",
  "o2 c #BEC2B7FF",
  "}. c #BFBFAA0C",
  "{/ c #BFBFB314",
  "|5 c #BFC3B7F6",
  "{E c #BFC8B61C",
  "oc c #C0C3BBFF",
  "ov c #C0C3BCFF",
  "X8 c #C0C4B9F2",
  "oM c #C1C4BEFF",
  "oJ c #C2C4BDFC",
  "om c #C2C6BEFF",
  "X9 c #C2C7BEFF",
  "{m c #C2CCC219",
  "Xr c #C3C6BB62",
  "#y c #C4C6C0FF",
  "XZ c #C4C9BFF4",
  "X6 c #C5C5BF2C",
  "X3 c #C5C8BF58",
  "oh c #C5C8C1FF",
  "XW c #C5C9BFFF",
  "Xj c #C5CAC1F6",
  "Xa c #C5CBC1F3",
  "{_ c #C5CCBD23",
  "Xu c #C6C9C0E8",
  "or c #C6CBC1FE",
  "{C c #C6CCC2DC",
  "X/ c #C7CAC2F7",
  "o/ c #C83333FF",
  "o4 c #C83434FF",
  ".c c #C8CBC3FE",
  "oj c #C8CBC4FF",
  "op c #C8CBC5FF",
  "X5 c #C8CCC2B4",
  "{~ c #C8CCC2F6",
  "X; c #C8CCC3FF",
  "o( c #C93232FD",
  "o7 c #C93333FE",
  "on c #C9CCC5FF",
  "X0 c #CACCC47D",
  ".2 c #CACCC6FF",
  "Xi c #CACDC5FF",
  "oi c #CACDC8FF",
  "X< c #CACEC5F8",
  "}@ c #CACEC5FF",
  "{M c #CAD5CA18",
  "oZ c #CBCDC6FF",
  "ob c #CBCDC7FF",
  "oK c #CBCEC6FF",
  "XI c #CBCFC7F5",
  "XY c #CBCFC7FC",
  "oG c #CC0000FF",
  "{H c #CCCCBB0F",
  "Xq c #CCD0C791",
  "ot c #CD0404FF",
  "ow c #CD0505FF",
  "oC c #CDCFC9FF",
  "}i c #CDD1C7F7",
  "{B c #CDD2C9B9",
  "X- c #CED0C862",
  "oL c #CED0CAFF",
  "XG c #CED1CBFF",
  "XH c #CED1CCFF",
  "Xw c #CFD2CB8F",
  "XJ c #CFD2CCFF",
  "oV c #D0D2CCFF",
  "XF c #D0D3CDFF",
  "XB c #D0D3CEFF",
  "|/ c #D1D2CEFF",
  "}D c #D1D3CEFF",
  "., c #D2D3CDFF",
  "|# c #D2D4CEFF",
  "o0 c #D2D5D0FF",
  "{J c #D3D6CF45",
  "}$ c #D3D6CFFF",
  "|B c #D4D5D0FF",
  "X) c #D4D6D1FF",
  "o+ c #D4D6D3FF",
  "XK c #D4D7D1FF",
  "XN c #D4D7D2FF",
  "Xl c #D4D8D1FB",
  "{Z c #D4D9CF35",
  "{Q c #D5D5CE2A",
  ".> c #D5D5CFFF",
  "{n c #D5D5D506",
  "oB c #D5D7D1FF",
  "{[ c #D5D8CF9E",
  "XC c #D5D8D3FF",
  "Xp c #D5D9D2FF",
  "od c #D63434FF",
  ".5 c #D6D6D0FF",
  "X( c #D6D7D3FF",
  "X: c #D6D8D1D9",
  "X_ c #D6D8D4FF",
  "X> c #D6D9D2F9",
  "{A c #D6DAD282",
  "oa c #D73636FF",
  "|! c #D7D7D1FF",
  "ok c #D7D8D2FF",
  "|% c #D7D8D3FF",
  "X1 c #D7D9D3FB",
  "|g c #D7D9D4FF",
  ".r c #D7D9D5FF",
  "oy c #D83C3CFF",
  ".4 c #D8D8D2FF",
  "|~ c #D8D8D3FF",
  "X4 c #D8DAD4CA",
  "|Q c #D8DAD4FF",
  "XV c #D8DAD6FF",
  "Xe c #D8DCD5F5",
  "ou c #D94040FF",
  "|Y c #D9D9D4FF",
  "o@ c #D9DAD6FF",
  "|_ c #DADAD5FF",
  ".e c #DADBD5FF",
  "X{ c #DADBD6FF",
  "|< c #DADBD7FF",
  "o= c #DBC9C7FF",
  "|J c #DBDBD6FF",
  "t5 c #DBDBDAFF",
  "|& c #DBDCD8FF",
  "XL c #DBDDD8FF",
  "ox c #DCDCD6FF",
  "}^ c #DCDDD9FF",
  "o# c #DCDDDAFF",
  "|L c #DDDDD8FF",
  "|f c #DDDDD9FF",
  ".N c #DDDED9FF",
  "XT c #DDDEDAFF",
  "|w c #DDDEDBFF",
  "X7 c #DDDFDAF6",
  "XR c #DDDFDCFF",
  "|P c #DEDED9FF",
  "&v c #DEDEDDFF",
  "=P c #DEDEDEFF",
  "oq c #DEDFDBFF",
  "o5 c #DF6464FF",
  "|Z c #DFDFDAFF",
  "%r c #DFDFDDFF",
  "XM c #DFE1DDFF",
  "o6 c #E06666FF",
  "|A c #E0E0DBFF",
  "|M c #E0E0DCFF",
  "o* c #E0E1DCFF",
  "}v c #E0E1DDFF",
  "|2 c #E0E1DEFF",
  "{I c #E0E2DDF5",
  "Xf c #E0E2DDFA",
  "}W c #E1E1DDFF",
  "o& c #E1E2DDFF",
  "|q c #E1E2DEFF",
  "}| c #E1E2DFFF",
  "Xv c #E1E3E0FF",
  "v: c #E2E2DEFF",
  "%# c #E2E2E1FF",
  "XE c #E2E3DFFF",
  "X2 c #E2E4E0F4",
  "v- c #E3E3DFFF",
  "v= c #E3E3E0FF",
  "%e c #E3E3E1FF",
  "&3 c #E3E3E2FF",
  ".: c #E3E4DFFF",
  "|h c #E3E4E1FF",
  "}: c #E3E5E0FB",
  "X} c #E3E5E2FF",
  "X` c #E3E5E3FF",
  "}Q c #E4E4E0FF",
  "v* c #E4E4E1FF",
  "%- c #E4E4E2FF",
  "}N c #E4E5E1FF",
  "|3 c #E4E5E2FF",
  "}Z c #E5E5E1FF",
  "}6 c #E5E5E2FF",
  ";3 c #E5E5E5FF",
  "XP c #E5E6E2FF",
  "|. c #E5E6E3FF",
  "}! c #E6E6E2FF",
  "}P c #E6E6E3FF",
  "XD c #E7E7E3FF",
  "}A c #E7E7E4FF",
  "|t c #E7E8E4FF",
  "}K c #E7E8E5FF",
  "Xh c #E7E9E4FD",
  "X, c #E7E9E5F7",
  "|C c #E8E8E4FF",
  "}c c #E8E8E5FF",
  ":# c #E8E8E8FF",
  "}I c #E8EAE6FF",
  "os c #E98F8FFF",
  "}7 c #E9E9E5FF",
  "}f c #E9E9E6FF",
  "$` c #E9E9E7FF",
  ":2 c #E9E9E9FF",
  ".. c #E9EAE6FF",
  "|y c #E9EAE7FF",
  "}z c #EAEAE6FF",
  "}d c #EAEAE7FF",
  "lb c #EAEAE9FF",
  ",$ c #EAEAEAFF",
  "Xy c #EAEBE8FC",
  "X| c #EAEBE9FF",
  "}x c #EBEBE8FF",
  "#p c #EBEBE9FF",
  "6d c #EBEBEAFF",
  "}[ c #ECECE9FF",
  "#A c #ECECEAFF",
  "}l c #ECEDEAFF",
  "#i c #EDEDEBFF",
  "XS c #EDEEEAFF",
  "}w c #EDEEEBFF",
  "o. c #EDEEECFF",
  "<O c #EEEEEBFF",
  "#& c #EEEEECFF",
  "5] c #EEEEEDFF",
  ":< c #EEEEEEFF",
  "}t c #EFEFECFF",
  "#' c #EFEFEDFF",
  ";A c #EFEFEFFF",
  "}O c #EFF0EDFE",
  "}# c #EFF0EDFF",
  "{T c #EFF0EEFF",
  "}r c #F0F0EDFF",
  "#u c #F0F0EEFF",
  "l8 c #F0F0EFFF",
  "o$ c #F0F1EEFF",
  "#` c #F1F1EFFF",
  ",0 c #F1F1F0FF",
  "{P c #F1F2EFFC",
  "|j c #F1F2EFFF",
  "#Z c #F2F2F0FF",
  "c} c #F2F2F1FF",
  "}8 c #F2F3F1FF",
  "{{ c #F3F3F1FD",
  "#_ c #F3F3F1FF",
  "55 c #F3F3F2FF",
  "Xg c #F3F4F1FF",
  "$< c #F4F4F2FF",
  "hE c #F4F4F3FF",
  "#) c #F5F5F3FF",
  "c` c #F5F5F4FF",
  "3] c #F5F6F4FF",
  "$, c #F6F6F4FF",
  "c/ c #F6F6F5FF",
  "c~ c #F7F7F6FF",
  ":9 c #F7F7F7FF",
  "X' c #F7F8F6FF",
  "}/ c #F7F8F7FF",
  ",3 c #F8F8F7FF",
  ";R c #F8F8F8FF",
  "lP c #F9F9F8FF",
  ";S c #F9F9F9FF",
  "g~ c #FAFAF9FF",
  ":5 c #FAFAFAFF",
  "}1 c #FBFBFAFF",
  ";Q c #FBFBFBFF",
  "}y c #FCFCFBFF",
  ";2 c #FCFCFCFF",
  "}u c #FDFDFCFF",
  "=q c #FDFDFDFF",
  "}% c #FEFEFDFF",
  "=w c #FEFEFEFF",
  "3j c #FFFFFF01",
  ">X c #FFFFFFFF",
  "   c none",
  
  // Image data
  "                                      {n{m                      ",
  "                                {MX-{BX;{C                      ",
  "                        3j{Z{AX:X>X,,3>XX<{H                    ",
  "                      {JX1X2{P;Q>X>X>X;2{IX3                    ",
  "                      X4;R>X>X>X>X>X>Xc/{TX5                    ",
  "        {EX6        {QX7=w>X>X>X>X>X>Xl8;2{~{^                  ",
  "      {/X8X9{_X0XqXw{[{{>X>X>X>X>X>X>X:2:9XeXr                  ",
  "    }.XtXy}OXuXi}#Xp}$}%;2>X>X>X>X>X;At56d3]XaXs                ",
  "  }=XdXf;2;2}:}@>XXgXh;QhE:5>X>X>X;A&3%r&v55,3XjXk              ",
  "  }4Xl;Q}Z}c;2}8:5;S;QhE#)c~}1=w:<;3lPc/#`#p55}1{~Xz3j          ",
  "  Xx}w#A}Z,3}x}r}t:5c~g~}y;2}y:2=P,$,0,0#Z#`#'55}u}iXc}a        ",
  "  }s#i}z}7,3c`$<c~c/#'#ZhE,3,35]Xvlb:#%-%#%e%-}P}[>XXbXn        ",
  "  Xm}l}z}x}x}Z|C}r#i}t#u}fXMXNXBXVXC|hc}#`#i}f}f,0>XXZ}V        ",
  "  XAXS<O}[v-}QXD}c|2.rXFXGXHXJXK#_$<}KXLXP<O}t}u}IXIXU}T        ",
  "  }RXY}y}[}Wv-}!|C}d}[<O<O}t}r|j#'|3XT|&XRXE|y}/XWXQX!X~        ",
  "  }=X^X/}y}[v:}Q}P}c}d}[<O#&}|X(X)X_|<XR|qX`|thE;Q=qX'X]|O      ",
  "    3jX[|5g~#uv-}ZXD}7}d$`}f}D|#X_X{|w|qX}|CX|o.#`#)g~}loX      ",
  "        oooOc`$<}Q}ZXD}c|.%ev*o+o@o#}vX}}co$XS#`$<#`}7g~|5|6|7|8",
  "          |9o%}l#_v-v*}!o&.N}7v=}^o*o=o-o;R7R7R7R7R7R7R7R7o:o>o,",
  "          o<o1o2c/}Wv:}Q}^X_}Z#uv*|ho3o4o5o6o6o6o6o6o6o6o6o5o7o8",
  "      |vo9|n}N$,}6|Z|M}W}Wo0oq}P:5lPo;o5owoGoGoGoGoGoGoGoGowo5oe",
  "      |Gor$,}c|J|J|L|P|Z|A|%|%}W55#uR7o6oGotoyoGoGoGoGouotoGo6R7",
  "      |W|Q}x.5.4|Y|_|Y|/oiop}D|Z|Z|ZR7o6oGoa>XosoGoGos>XodoGo6R7",
  "      ofog..v-.5|!|~.2#yohoj|J|Jok|BR7o6oGoGos>Xosos>XosoGoGo6R7",
  "      @Xoloz.:ox.>.,ocovovobonomoMoMR7o6oGoGoGos>X>XosoGoGoGo6R7",
  "    +e+(.qoN.e|f}Q}v|<|goB|#oVoCoZohR7o6oGoGoGos>X>XosoGoGoGo6R7",
  "  @.*!+:.foA}A}PoSoDoFoH.zoJ.coKoL|gR7o6oGoGos>Xosos>XosoGoGo6R7",
  "  @.*!+hoPoIoUoY.D.F.G.H.J.KoToRoE.UR7o6oGod>XosoGoGos>XoaoGo6R7",
  "    @X*7+:+K.(oW._*~egee:s&W*Gew,WoQR7o6oGotouoGoGoGoGoyotoGo6R7",
  "      +j&h+>:l+K*k+|9b+g*`+N+Jer:jo!o~o5owoGoGoGoGoGoGoGoGowo5oe",
  "            O`&h+(+:@:+K*'+k*]*]+w*]o^o/o5o6o6o6o6o6o6o6o6o5o(o)",
  "                      +jO`@.@X@X@X@Xo_o`oeR7R7R7R7R7R7R7R7oeo'o]"
};
