/* XPM */
const char *xpm_tango_actions_mail_reply_sender[] = {
  // Header (width height colors chars-per-pixel)
  "32 32 278 2",
  
  // Colors (code mode value)
  "+j c #00000001",
  "@M c #00000002",
  "@X c #00000004",
  "&^ c #00000006",
  "@C c #00000007",
  "*! c #00000008",
  "+> c #0000000B",
  ":k c #0000000C",
  "@b c #0000000D",
  ":l c #0000000F",
  "@V c #00000011",
  "@m c #00000013",
  "@o c #00000014",
  "*' c #00000015",
  "+k c #00000016",
  "*k c #00000017",
  "@5 c #0000001A",
  "@= c #0000001C",
  "*. c #00000022",
  "+N c #00000026",
  "er c #00000028",
  "9x c #0000002C",
  "*^ c #0000002E",
  "*/ c #0000003C",
  "*o c #00000041",
  "*( c #00000042",
  "[G c #00000044",
  "&| c #00000B17",
  "3% c #030A114C",
  "&[ c #070E1C25",
  "&{ c #0819311F",
  "%s c #0F294B44",
  "&/ c #1027476F",
  "&` c #142D5033",
  "%L c #1A407663",
  "%a c #1B417598",
  "&] c #1C447AA5",
  "%M c #1D447B93",
  "&) c #1D477FD9",
  "%/ c #1D4A8034",
  "&} c #1F4882BE",
  "%p c #1F4984E0",
  "&' c #1F4986DF",
  "%i c #1F4A86F4",
  "&# c #1F4A87A2",
  "85 c #1F4A87FF",
  "%( c #1F4C88EC",
  "&X c #204A89D1",
  "&. c #204A8A18",
  "&( c #214B86F3",
  "%; c #214B87F8",
  "%u c #214B88FF",
  "%P c #214C88F5",
  "&@ c #24499207",
  "#( c #244E89FF",
  "&L c #27508BFF",
  "&g c #28518AFF",
  "%N c #28528DF6",
  "$( c #2D5792F9",
  "#! c #30588FFF",
  "&Y c #305990FF",
  "&E c #325B94FF",
  "8I c #3364A4FF",
  "#) c #345B93FF",
  "%r c #345D95F7",
  "&! c #345E98FF",
  "%- c #36609BFA",
  "8P c #3666A5FF",
  "Fi c #3767A6FF",
  "<( c #3868A6FF",
  "8N c #3969A7FF",
  "$Z c #3A69A6FF",
  "8/ c #3A69A7FF",
  "&R c #3D6398FF",
  "%) c #3D67A0FA",
  "$g c #3D6BA8FF",
  "#v c #3E6297FF",
  "$~ c #3F6DA9FF",
  "$^ c #406EAAFF",
  "$2 c #416CA5FF",
  "8M c #4370ABFF",
  "&r c #44699CFF",
  "$f c #4471ABFF",
  "&d c #45689BFF",
  "#C c #456A9DFF",
  "#V c #466A9BFF",
  "#] c #4673ACFF",
  "%% c #476EA2F9",
  "%& c #4773ADFF",
  "8} c #486A9AFF",
  "$d c #4B76AFFF",
  "&~ c #4C6890FF",
  "%= c #4C75AAFF",
  "4A c #4C77AEFF",
  "$/ c #4C77AFFF",
  "&K c #4D71A2FF",
  "&e c #4E72A2FF",
  "%I c #4E76ABFE",
  "8m c #4E79B0FF",
  "$A c #4F79B0FF",
  "&b c #5272A0FF",
  "#[ c #527CB3FF",
  "#' c #537CB2FF",
  "%V c #557EB3FF",
  "&n c #5679A8FF",
  "$1 c #577EB4FF",
  "&k c #597AA4FF",
  "&M c #5A7BAAFF",
  "%* c #5B82B5FF",
  "&s c #5C769CFF",
  "&F c #5D83B5FF",
  "8a c #5D84B7FF",
  "$Q c #5E80AFFD",
  "&V c #5F7EABFF",
  "%B c #5F84B5FF",
  "8p c #5F85B8FF",
  "W& c #6288B9FF",
  "#` c #6385B4FF",
  "89 c #6388B9FF",
  "%y c #668BBBFF",
  "$s c #678CBBFF",
  "&m c #6983A3FF",
  "8; c #698DBCFF",
  "8: c #6A8EBDFF",
  "#b c #6B8AB4FF",
  "%t c #6D8FBDFF",
  "E} c #6D90BDFF",
  "$, c #6E91BEFF",
  "&7 c #6F8AAFFF",
  "&G c #7092BDFF",
  "&x c #718CB4FF",
  "7| c #7193BFFF",
  "7~ c #7395C1FF",
  "&D c #7696C0FF",
  "7! c #7697C2FF",
  "8X c #7797C2FF",
  "$! c #7A9AC4FF",
  "i' c #7C9AC0FF",
  "E[ c #7D9DC5FF",
  "$> c #7E9DC5FF",
  "&B c #819EC4FF",
  "#m c #819FC6FF",
  "#~ c #849EC2FF",
  "&N c #84A1C5FF",
  "&i c #869CBAFF",
  "&Q c #8B939AFF",
  "]9 c #8C8E89FD",
  "&t c #8DA2BCFF",
  "8i c #8DA8CCFF",
  "fO c #8E908BFF",
  "3q c #8E908CFF",
  "3< c #90928EFF",
  "&l c #95ACCBFF",
  "&y c #97ADCBFF",
  "$C c #97B0D1FF",
  "&z c #98AFCCFF",
  "$; c #98AFCDFF",
  "$< c #99B1D1FF",
  "#/ c #9AB2D2FF",
  "]t c #9C9D9AFC",
  "#M c #9EB5D4FF",
  "]y c #9FA09DFF",
  "[l c #A0A19DFF",
  "&T c #A2B3CCFF",
  "]r c #A4A6A3F9",
  "&8 c #A4B3C8FF",
  "&w c #A4B4CCFF",
  "]e c #A5A6A3F9",
  "]0 c #A5A7A3FC",
  "]w c #A6A7A4F9",
  "[9 c #A6A8A4F9",
  "$a c #A6BBD7FF",
  "]q c #A7A8A5F9",
  "]u c #A7A9A5F8",
  "#q c #A7BCD7FF",
  "#0 c #A9BED9FF",
  "&S c #AAB6C8FF",
  "&f c #AABDD6FF",
  "#n c #AABED9FF",
  "]i c #ABACA9FF",
  "$p c #ABBED8FF",
  "$: c #ABBFDAFF",
  "]p c #ACAEAAFF",
  "&u c #ACBDD5FF",
  "#^ c #ACC1DAFF",
  "&U c #AEB9CAFF",
  "&2 c #B0BED0FF",
  "]a c #B2B3B0FF",
  ";8 c #B4B4B4FF",
  "&9 c #B5C4D8FF",
  "&0 c #B7C5D9FF",
  "5X c #B9B9B9FF",
  "&1 c #B9BABAFF",
  "&h c #BABFBAFF",
  "&a c #BEBFC0FF",
  ";g c #C0C0C0FF",
  "&J c #C1C9D4FF",
  "&W c #C1CCDCFF",
  "&4 c #C2CDD9FF",
  "&- c #C3C4C4FF",
  "&q c #C3C9D5FF",
  "&: c #C4CBD3FF",
  "&6 c #C4CCD9FF",
  ";Y c #C5C5C5FF",
  "]A c #C7CCC7FF",
  ">x c #C9C9C9FF",
  ",< c #CACACAFF",
  "&H c #CAD2DEFF",
  "&3 c #CBD3E1FF",
  "#+ c #CCCCCCFF",
  "&C c #CCD4DFFF",
  ",2 c #CDCDCDFF",
  ";_ c #CECECEFF",
  "fJ c #CECFCEFF",
  "#O c #CED2CEFF",
  "+c c #CFCFCFFF",
  "&j c #CFD2D1FF",
  "+v c #D0D0D0FF",
  "&Z c #D1D6DCFF",
  "&A c #D3D7DBFF",
  ":o c #D5D5D5FF",
  ",M c #D7D7D7FF",
  ",B c #D8D8D8FF",
  "#@ c #D8DBD8FF",
  ",b c #D9D9D9FF",
  ",^ c #DCDCDCFF",
  "&v c #DCDEE1FF",
  "&< c #DCDFE5FF",
  "]T c #DCE0DCFF",
  "&c c #DCE1E8FF",
  "]` c #DDDFDDFF",
  "]Y c #DEDFDEFF",
  "={ c #DFDFDFFF",
  "#w c #DFE0E0FF",
  "&> c #DFE3EAFF",
  "&_ c #E0E0E0FF",
  "eU c #E1E2E1FF",
  "+A c #E2E2E2FF",
  "jp c #E3E4E3FF",
  "&; c #E3E5E9FF",
  "&I c #E4E4E4FF",
  "&5 c #E4E4E5FF",
  ";3 c #E5E5E5FF",
  "&, c #E5E6E6FF",
  ";b c #E6E6E6FF",
  ";G c #E7E7E7FF",
  ":# c #E8E8E8FF",
  "&P c #E8EAEEFF",
  ":2 c #E9E9E9FF",
  ",$ c #EAEAEAFF",
  ":, c #EBEBEBFF",
  ":> c #ECECECFF",
  "&* c #ECEFF3FF",
  ";9 c #EDEDEDFF",
  "&= c #EDEFF1FF",
  ":< c #EEEEEEFF",
  ";A c #EFEFEFFF",
  "&& c #EFF0F0FF",
  ";T c #F0F0F0FF",
  ";` c #F1F1F1FF",
  "&$ c #F1F1F2FF",
  ";' c #F2F2F2FF",
  "&% c #F2F2F4FF",
  "#6 c #F2F3F2FF",
  ":O c #F3F3F3FF",
  "&p c #F3F4F4FF",
  ":3 c #F4F4F4FF",
  "=a c #F5F5F5FF",
  "+W c #F6F6F6FF",
  ":9 c #F7F7F7FF",
  ";R c #F8F8F8FF",
  ";S c #F9F9F9FF",
  ":5 c #FAFAFAFF",
  ";Q c #FBFBFBFF",
  ";2 c #FCFCFCFF",
  "=q c #FDFDFDFF",
  ">X c #FFFFFFFF",
  "   c none",
  
  // Image data
  "                                                                ",
  "                                                                ",
  "                                                                ",
  "                                                                ",
  "      ]9]0]q]q]q]q]q]q]q]q]q]q]w]w]w]w]w]w]w]e]r]r]r]r]r3q      ",
  "      ]t>X>X;2;2;2;2;2;Q:5:5:5;S;R;R;R:9+W+W+W:3:3:O:O:3]y      ",
  "      ]u+v=q;S;R;R;R:9:9:9:9+W+W+W+W=a=a=a=a:3:3:3:3:3;Y]i      ",
  "      ]u;R;_=q:9:9+W+W+W+W=a+W+W+W=a:3:3:3:O:O:O:O:3+v;`]i      ",
  "      ]u;Q,$,M;2=a=a=a=a:3:3:3:3:O:O:3=a:O;';';':3,^,b;S]p      ",
  "      ]u;Q:O&_+A:5:3:3:O:O:O:O;';';';';`&$&%:O:O:#,2:2:9]a      ",
  "      ]u;Q;';`:o:>;S;';';';';`;`;`;`;T;T;T&&&*&=&-:#:#:9]a      ",
  "      ]u:5;T;T;A+c:<;R;`;`;T;T;T;T;A;A;A;A;`&;&:&>&,;G+W]a      ",
  "      ]u:5;A:<:<:<#+:<:9;A;A;A;A:<:<&<:<;T;`&1&2&3&4&5+W]a      ",
  "      ]u:5:<;9;9:>:>,<;9:9:<:<;9;9&6&7;T;`5X;3&8&9&0&q=a]a      ",
  "      ]u;S:>:>:,:,:,,$>x,b;2;S;R&w&e&r;3;8,^;3&t&y&u&i&p]a      ",
  "      ]u;S:,:,,$,$:##O#@;9,<&a&s&d&f&g;gfJ&h&j&k&l&z&x&c]a      ",
  "      ]u;S,$:2:2jp]A#6:9:#&v&b&n#0#q85,B={#w&m&M&N&B&V&C]a      ",
  "      ]u;R:#:#]Y]T;Q:<;b&Z#v#b#n#m#M85&A&S#V#C&D&F&G#C&H]a      ",
  "      ]u;R;G]`:O+W;G;3&J#!#~#^E[7|#/#(#)&K#`E}#'#]#[&L&P]a      ",
  "      ]u:9eU=a;9&I&I&U&Y$;$:$>7~$,$<8i$>8:$18M<(8M$28}:3]a      ",
  "    @M[9>X:5:5:5;S&T&R$p$a7!$s8a#'$d$f$gFi8I8I8N8m&E&W>X]a@o+j  ",
  "    @VfO[l[l[l[l&Q85i'$C$Z8I8I8I8I8I8I8I8I8I8/$A&!&~[l[l3<+N:l  ",
  "    &^@=*^*/*([G[G&/&($Q$!$~8I8I8I8I8I8P$^$/4A$(&)3%*o*/*^@o+j  ",
  "        @X*!:k@b@b@V&`&'%%8X%&8I8P8;89%*%=%-%;&]&[+k:k&^+j      ",
  "                  @X:k&{&}%r%t$A8I%y%u%i%p%a%s@=@o:k+j          ",
  "                    @C:l&|%M%N%B%VW&859xer*.@=*'@b@M            ",
  "                      +j@C:l%L%P%I8p85@5*k@m+>@X                ",
  "                              %/%(%)%u@M+j                      ",
  "                                &.&X85                          ",
  "                                  &@&#                          ",
  "                                                                ",
  "                                                                "
};
