/* XPM */
const char *xpm_tango_actions_mail_reply_all[] = {
  // Header (width height colors chars-per-pixel)
  "32 32 431 2",
  
  // Colors (code mode value)
  "+j c #00000001",
  "@M c #00000002",
  "@X c #00000004",
  "&h c #00000006",
  "+> c #0000000B",
  ":k c #0000000C",
  "@b c #0000000D",
  ":l c #0000000F",
  "@V c #00000011",
  "+r c #00000012",
  "@m c #00000013",
  "@o c #00000014",
  "*' c #00000015",
  "*k c #00000017",
  "@5 c #0000001A",
  "@= c #0000001C",
  "&E c #00000022",
  "er c #00000028",
  "9x c #0000002C",
  "*X c #00000033",
  "&W c #00000034",
  ":f c #00000047",
  "&o c #0000004F",
  "*D c #00000050",
  "&+ c #0000005B",
  "&O c #00000063",
  "%C c #00000065",
  "NE c #0000FF01",
  "%_ c #0055AA03",
  "2d c #00808002",
  "$_ c #08172622",
  "%> c #0A14271A",
  "%| c #0A1D311A",
  "%s c #0F294B44",
  "%} c #193C6FB6",
  "%L c #1A407663",
  "%a c #1B417598",
  "71 c #1B49891C",
  "%` c #1C42769B",
  "%: c #1C457CA3",
  "%M c #1D447B93",
  "%m c #1D447CE7",
  "%/ c #1D4A8034",
  "$D c #1E4680B5",
  "$) c #1E4881D5",
  "$j c #1E488543",
  "%^ c #1F447CAF",
  "#F c #1F478532",
  "%{ c #1F4882F6",
  "%Z c #1F4884F3",
  "%p c #1F4984E0",
  "%e c #1F4A83DE",
  "%i c #1F4A86F4",
  "%] c #1F4A86FE",
  "&# c #1F4A87A2",
  "85 c #1F4A87FF",
  "%( c #1F4C88EC",
  "%' c #204983F0",
  "%K c #204983F2",
  "%[ c #204987FE",
  "#i c #204A8530",
  "p- c #204A87FF",
  "%U c #204A8889",
  "%$ c #204A88FA",
  "&X c #204A89D1",
  "&. c #204A8A18",
  "$3 c #204B88C8",
  "%; c #214B87F8",
  "%u c #214B88FF",
  "%P c #214C88F5",
  "#{ c #214C88F7",
  "#} c #2244880F",
  "%h c #234A80FF",
  "&@ c #24499207",
  "$W c #244D85FD",
  "#( c #244E89FF",
  "$h c #26528DF2",
  "%Y c #274B7EF7",
  "$| c #274F80FF",
  "%N c #28528DF6",
  "@E c #294B912C",
  "#* c #2A538CFF",
  "%~ c #2C5082FA",
  "$( c #2D5792F9",
  "#! c #30588FFF",
  "$- c #305890FF",
  "#D c #305B94E0",
  "%w c #33578BF6",
  "$S c #335E98FF",
  "8I c #3364A4FF",
  "#) c #345B93FF",
  "%r c #345D95F7",
  "%G c #3463A1FF",
  "%v c #3466A7FF",
  "%b c #35629BFF",
  "%D c #3566A6FF",
  "@] c #365C9985",
  "%# c #365D94FB",
  "%- c #36609BFA",
  "%k c #3665A2FF",
  "8P c #3666A5FF",
  "%l c #366AAEFF",
  "Fi c #3767A6FF",
  "%z c #376CB1FF",
  "<( c #3868A6FF",
  "8N c #3969A7FF",
  "%f c #3A40039F",
  "$Z c #3A69A6FF",
  "8/ c #3A69A7FF",
  "$i c #3B5E90FF",
  "%) c #3D67A0FA",
  "$g c #3D6BA8FF",
  "#| c #3E440629",
  "#v c #3E6297FF",
  "#u c #3E669ECB",
  "%H c #3E68A1FF",
  "%c c #3E70B0FF",
  "%g c #3F4603F2",
  "#> c #3F699FB2",
  "%S c #3F6CA3FF",
  "$~ c #3F6DA9FF",
  "$4 c #40400010",
  ",s c #404604FF",
  "$^ c #406EAAFF",
  "$F c #414704F1",
  "%, c #4148048D",
  "$k c #414903A1",
  "@) c #41669AFF",
  "$2 c #416CA5FF",
  "$` c #424704ED",
  "$5 c #424805EC",
  "%5 c #426BA0FF",
  "8M c #4370ABFF",
  "$f c #4471ABFF",
  "%< c #454B0DF8",
  "%4 c #45626CFF",
  "#C c #456A9DFF",
  "#% c #46699CFF",
  "#V c #466A9BFF",
  "#] c #4673ACFF",
  "%% c #476EA2F9",
  "%& c #4773ADFF",
  "%. c #4872A9FF",
  "@( c #4A6D9EFF",
  "$d c #4B76AFFF",
  "%= c #4C75AAFF",
  "4A c #4C77AEFF",
  "$/ c #4C77AFFF",
  "#_ c #4D70A2FF",
  "$. c #4E4904E8",
  "%I c #4E76ABFE",
  "8m c #4E79B0FF",
  "%7 c #4E7FBCFF",
  "#8 c #4F6F9DFF",
  "$A c #4F79B0FF",
  "$I c #505D66FF",
  "%n c #5073A1FF",
  "%A c #5074A2FF",
  "%! c #5076A5FF",
  "%0 c #507FB7FF",
  "%J c #5273A0FF",
  "%q c #5279ABFF",
  "#[ c #527CB3FF",
  "%T c #5378A9FF",
  "#' c #537CB2FF",
  "%6 c #547FB8FF",
  "%d c #55550006",
  "%V c #557EB3FF",
  "#9 c #5678A7FF",
  "$1 c #577EB4FF",
  "%j c #5980B3FF",
  "%Q c #5B80AEFF",
  "#A c #5B81B2FF",
  "%* c #5B82B5FF",
  "$} c #5D6A10FF",
  "%R c #5D81B1FF",
  "4/ c #5D82B0FF",
  "%E c #5D82B1FF",
  "8a c #5D84B7FF",
  "#$ c #5E789EFF",
  "#- c #5E7EA8FF",
  "$Q c #5E80AFFD",
  "$H c #5F690AFF",
  "%B c #5F84B5FF",
  "8p c #5F85B8FF",
  "#r c #6080AEFF",
  "%8 c #608DC7FF",
  "W& c #6288B9FF",
  "${ c #636D07FF",
  "$[ c #636D0AFF",
  "#` c #6385B4FF",
  "89 c #6388B9FF",
  "$l c #646C22F9",
  "%W c #6485B3FF",
  "#S c #6489B9EA",
  "$J c #667108FF",
  "%y c #668BBBFF",
  "$s c #678CBBFF",
  "$] c #68711AFF",
  "$K c #697408FF",
  "8; c #698DBCFF",
  "$L c #6A7508FF",
  "8: c #6A8EBDFF",
  "#b c #6B8AB4FF",
  "$n c #6C760DFF",
  "$x c #6C770CFF",
  "8F c #6C87ACFF",
  "@[ c #6D49083F",
  "$6 c #6D7427FE",
  "$' c #6D752FFF",
  "%t c #6D8FBDFF",
  "E} c #6D90BDFF",
  "#y c #6D91BDD2",
  "$, c #6E91BEFF",
  "#p c #6F4809FD",
  "#h c #70490BFF",
  "#G c #714809D7",
  "#, c #71490AD6",
  "$9 c #714A0BFF",
  "$v c #717D08FF",
  "7| c #7193BFFF",
  "@! c #734C10FF",
  "%1 c #737A30FF",
  "7~ c #7395C1FF",
  "$X c #755113FF",
  "#e c #758DAFFF",
  "%F c #7592B8FF",
  "7! c #7697C2FF",
  "#Z c #7796C1FF",
  "8X c #7797C2FF",
  "$0 c #78570EFF",
  "%9 c #789CCAFF",
  "@{ c #795418FF",
  "$8 c #7A5913FF",
  "$! c #7A9AC4FF",
  "$z c #7B842BFF",
  "@/ c #7B8BA3FF",
  "#X c #7C571CFF",
  "%2 c #7C843AFF",
  "i' c #7C9AC0FF",
  "$G c #7D8438FF",
  "#t c #7D9ABEFF",
  "E[ c #7D9DC5FF",
  "$> c #7E9DC5FF",
  "@I c #7EA0BD59",
  "%3 c #7F863CFF",
  "#: c #7F9FC4BF",
  "$b c #808E15FF",
  "$c c #818F16FF",
  "#m c #819FC6FF",
  "@~ c #84612CFF",
  "#5 c #84622DFF",
  "$q c #848029FF",
  "#~ c #849EC2FF",
  "@Q c #86632EFF",
  "$7 c #878231FF",
  "$P c #89956DFF",
  "@` c #899EBBFF",
  "%@ c #8A8F88FF",
  "#; c #8BA2C0FF",
  "]9 c #8C8E89FD",
  "8i c #8DA8CCFF",
  "3q c #8E908CFF",
  "%X c #939A9AFF",
  "#I c #956A28FF",
  "@W c #958B74FA",
  "@' c #95ADCFAF",
  "@_ c #97ABC6FF",
  "$C c #97B0D1FF",
  "$= c #98753EFF",
  "$; c #98AFCDFF",
  "$< c #99B1D1FF",
  "@U c #9AA2AFFF",
  "#B c #9AA9B8FF",
  "#/ c #9AB2D2FF",
  "$E c #9B773BFF",
  "$u c #9B978EFF",
  "@R c #9BB1D0A3",
  "]t c #9C9D9AFC",
  "#M c #9EB5D4FF",
  "]y c #9FA09DFF",
  "]r c #A4A6A3F9",
  "@T c #A4B3C6FF",
  "#P c #A57E43FF",
  "$+ c #A57F45FF",
  "]e c #A5A6A3F9",
  "]0 c #A5A7A3FC",
  "$o c #A68147FF",
  "]w c #A6A7A4F9",
  "$a c #A6BBD7FF",
  "]q c #A7A8A5F9",
  "]u c #A7A9A5F8",
  "#q c #A7BCD7FF",
  "#4 c #A88146FF",
  "#H c #A98247FF",
  "#0 c #A9BED9FF",
  "#. c #AA854AFF",
  "#n c #AABED9FF",
  "]i c #ABACA9FF",
  "#& c #ABBED6FF",
  "$p c #ABBED8FF",
  "$: c #ABBFDAFF",
  "#< c #AC8549FF",
  "]p c #ACAEAAFF",
  "#^ c #ACC1DAFF",
  "@} c #AD864CFF",
  "@J c #AEB1B7FF",
  "@Y c #AEBED3FF",
  "]a c #B2B3B0FF",
  "## c #B2B3B4FF",
  "6o c #B3B5B2FF",
  "$@ c #B47B16FF",
  "6{ c #B5B5B5FF",
  "@P c #B5BECBFF",
  "$m c #B88017FF",
  "$O c #B8935CFF",
  "9m c #B8B8B8FF",
  "@L c #BAC7DAFF",
  "#g c #BB9760FF",
  "5> c #BBBBBBFF",
  "#L c #BD904BFF",
  "<W c #BDBDBDFF",
  "$w c #BF7D12FF",
  "$U c #C08324FF",
  "%o c #C08B35FF",
  "@| c #C09B62FF",
  "#a c #C09B64FF",
  ";g c #C0C0C0FF",
  "#Q c #C0C8D3FF",
  "%+ c #C18A31FF",
  "#J c #C1934FFF",
  "#K c #C28D3EFF",
  "@H c #C2C7CCFF",
  "#l c #C38117FF",
  "#3 c #C39651FF",
  ":* c #C3C3C3FF",
  "%O c #C48219FF",
  "#f c #C48F40FF",
  "@^ c #C5B9A6FF",
  ";Y c #C5C5C5FF",
  "#N c #C6CCCEFF",
  "]A c #C7CCC7FF",
  "#U c #C88A28FF",
  "#z c #C88C30FF",
  "#k c #C99035FF",
  "#1 c #C99A55FF",
  ">x c #C9C9C9FF",
  "#E c #CA8B29FF",
  "$V c #CAAC7DFF",
  ",< c #CACACAFF",
  "#s c #CB9646FF",
  "#o c #CBC2B2FF",
  "+Y c #CBCECBFF",
  "#+ c #CCCCCCFF",
  "%x c #CCD5E1FF",
  "#2 c #CD9848FF",
  ";_ c #CECECEFF",
  "#O c #CED2CEFF",
  "+c c #CFCFCFFF",
  "#c c #CFD4DAFF",
  "+v c #D0D0D0FF",
  "#7 c #D4D6D9FF",
  ":o c #D5D5D5FF",
  "#W c #D7C09AFF",
  ",M c #D7D7D7FF",
  "#x c #D8C099FF",
  "#@ c #D8DBD8FF",
  ",b c #D9D9D9FF",
  "@A c #DBDBDDFF",
  "@F c #DBDDE1FF",
  "=b c #DDDDDDFF",
  "#= c #DDDEDFFF",
  "#w c #DFE0E0FF",
  "&_ c #E0E0E0FF",
  "@G c #E0E7EEFF",
  "#d c #E1A957FF",
  "+Z c #E1E1E1FF",
  "+A c #E2E2E2FF",
  "@K c #E2E3E3FF",
  "+S c #E3E3E3FF",
  "$Y c #E4B66CFF",
  "&K c #E4E4E4FF",
  "$R c #E5B66BFF",
  "$M c #E5B66CFF",
  "$# c #E5B973FF",
  "#Y c #E5BA76FF",
  ";3 c #E5E5E5FF",
  "#R c #E6BA75FF",
  ";b c #E6E6E6FF",
  ";G c #E7E7E7FF",
  "$* c #E8B972FF",
  ":# c #E8E8E8FF",
  "@S c #E8E9E9FF",
  "f- c #E8EBEEFF",
  "@Z c #E9E9EAFF",
  "$B c #EABB71FF",
  "#j c #EAD6B7FF",
  ",$ c #EAEAEAFF",
  "$y c #EBBD77FF",
  ":, c #EBEBEBFF",
  "$r c #ECC07FFF",
  "$N c #ECC27FFF",
  ":> c #ECECECFF",
  "$% c #EDC383FF",
  "$& c #EDC485FF",
  "$T c #EDC78BFF",
  ";9 c #EDEDEDFF",
  "$$ c #EEC78AFF",
  ":< c #EEEEEEFF",
  "$e c #EFCB94FF",
  "#T c #EFCC97FF",
  ";A c #EFEFEFFF",
  ";T c #F0F0F0FF",
  ";` c #F1F1F1FF",
  "$t c #F2D3A5FF",
  ";' c #F2F2F2FF",
  "#6 c #F2F3F2FF",
  "@D c #F2F4F7FF",
  ":O c #F3F3F3FF",
  ":3 c #F4F4F4FF",
  "=a c #F5F5F5FF",
  "+W c #F6F6F6FF",
  ":9 c #F7F7F7FF",
  ";R c #F8F8F8FF",
  ";S c #F9F9F9FF",
  ":5 c #FAFAFAFF",
  ";Q c #FBFBFBFF",
  ";2 c #FCFCFCFF",
  "=q c #FDFDFDFF",
  ">X c #FFFFFFFF",
  "   c none",
  
  // Image data
  "                                                                ",
  "                                                                ",
  "                                                                ",
  "                                                                ",
  "      ]9]0]q]q]q]q]q]q]q]q]q]q]w]w]w]w]w]w]w]e]r]r]r]r]r3q      ",
  "      ]t>X>X;2;2;2;2;2;Q:5:5:5;S;R;R;R:9+W+W+W:3:3:O:O:3]y      ",
  "      ]u+v=q;S;R;R;R:9:9:9:9+W+W+W+W=a=a=a=a:3:3:3:3:3;Y]i      ",
  "      ]u;R;_=q:9:9+W+W+W+W=a=a=a=a:3=a=a=a:3:O:O:O:3+v;`]i      ",
  "      ]u;Q,$,M;2=a=a=a=a:3:3:3:3:O:O:O:O;';':O:3=a=b,b;S]p      ",
  "      ]u;Q:O&_+A:5:3:3:O:O:O:O;';';';';`;`;`;`:O@Z@A:>:9]a      ",
  "      ]u;Q;';`:o:>;S;';';';';`;`;`;`;T;T;T;T;`:<:*@Sf-@D6o      ",
  "      ]u:5;T;T;A+c:<;R;`;`;T;T;T;T;A;A;A;A;`;A<W:#;G@F@G@H2d    ",
  "      ]u:5;A:<:<:<#+:<:9;A;A;A;A:<:<:<:<;T;`@J;G;b;b@K@L@P@INE  ",
  "      ]u:5:<;9;9:>:>,<;9:9:<:<;9;9;9;9;T;`@U8F;3;3;3&K@Y@T@R@E  ",
  "      @W@Q@!@~@^:,:,,$>x,b;2;S;R+W+W+W;3@/@(@)&K&K+S+S@_@`@'@]2d",
  "    @[@{@}@|#.#X#o:##O#@;9,<;g5>9m6{###$#%#&#*+S+A+A#=#-#;#:#>71",
  "    #,#<#1#2#3#4#5]A#6:9:#;b;b+Z&_#7#8#9#0#q85+Y+Z#w#e#r#t#y#u#i",
  "    #p#a#s#d#f#g#h#j#k#l#z#x&K&K#c#v#b#n#m#M85#N#B#V#C#Z#A#S#D#F",
  "    #G#H#J#K#L#P#I#U#Y#T#R#E#W#Q#!#~#^E[7|#/#(#)#_#`E}#'#]#[#{#}",
  "  #|$.$X$o$O$+$X$@$#$$$%$&$*$=$-$;$:$>7~$,$<8i$>8:$18M<(8M$2$3  ",
  "$4$5$6$7$8$9$0$q$w$e$r$t$y$u$i$p$a7!$s8a#'$d$f$gFi8I8I8N8m$h$j  ",
  "$k$l$z$x$c$v$b$n$m$M$N$B$V85i'$C$Z8I8I8I8I8I8I8I8I8I8/$A$S$D:l  ",
  "$F$G$H$J$K$L$K$P$I$U$Y$T$R$E$W$Q$!$~8I8I8I8I8I8P$^$/4A$($)$_+j  ",
  "$`$'$]$[${${$}$|%.%X%o%O%+%@%#%$%%8X%&8I8P8;89%*%=%-%;%:%>+>@M  ",
  "%,%<%1%2%3%3%4%5%6%7%8>X%9%0%q%w%e%r%t$A8I%y%u%i%p%a%s@=@o:k+j  ",
  "%d%f%g,s,s,s%h%j%k%l%z%x%c%v%b%n%m%M%N%B%VW&859xer&E@=*'@b@M    ",
  "    +r&W*D%C%Z%A%S%D%v%F8I%G%H%J%K:l%L%P%I8p85@5*k@m+>@X        ",
  "            %U%Y%T%R%E%W4/%Q%!%~%^    %/%(%)%u@M+j              ",
  "            %_%`%'%]p-p-p-%[%{%}%|      &.&X85                  ",
  "                @V*X&o&O&+:f&E&h          &@&#                  ",
  "                                                                ",
  "                                                                "
};
