/* XPM */
const char *xpm_tango_actions_mail_send_receive[] = {
  // Header (width height colors chars-per-pixel)
  "32 32 406 2",
  
  // Colors (code mode value)
  "+j c #00000001",
  "@. c #00000003",
  "@N c #00000005",
  "=N c #00000018",
  "@6 c #00000020",
  "+/ c #00000023",
  "=( c #00000033",
  "&W c #00000034",
  "ew c #00000038",
  "-v c #0000043A",
  "NE c #0000FF01",
  "-X c #002B2B06",
  "-A c #00336605",
  "2d c #00808002",
  "-c c #0404093A",
  "=J c #0F0F0F45",
  "=/ c #112644AF",
  "-b c #132B4FF3",
  "-r c #152B6A0C",
  "-= c #15356018",
  ";% c #1634633B",
  "-D c #1635613A",
  "-g c #1636622F",
  "-4 c #16376417",
  "-[ c #17336137",
  "*/ c #17346459",
  "*| c #173563FF",
  ";; c #17366442",
  "-T c #17376790",
  "-Z c #18356288",
  "-{ c #1835652B",
  ";+ c #1836647F",
  ";& c #183664FF",
  "-. c #183765C8",
  "=& c #18376882",
  "-^ c #1838658D",
  "-f c #183866DB",
  "-I c #183866DE",
  "-] c #183866E2",
  ";$ c #183866E5",
  ";o c #18386792",
  ";* c #19376698",
  "-U c #1A336132",
  ";= c #1A33660A",
  ";- c #1A33661E",
  "-( c #1A3767E6",
  "-3 c #1A3966CF",
  "-C c #1F385FF7",
  ";O c #20406008",
  "=2 c #213F6AB7",
  "=M c #2323233A",
  "*^ c #233F69F5",
  "-/ c #24246D07",
  "-~ c #24426EF5",
  "*o c #246DB607",
  ";X c #25436FF6",
  "-} c #274671F5",
  "DJ c #2B558E12",
  "]2 c #2B55AA06",
  "=^ c #2C4567F8",
  "-F c #2C4976F3",
  "-M c #2C5682FF",
  "-h c #3161AA15",
  "*Y c #32476D3D",
  "=% c #325079F6",
  "*= c #3264A62E",
  "C6 c #33669905",
  "-o c #3366990A",
  "=K c #3366A237",
  "-Y c #3366A364",
  "2= c #3366A628",
  "An c #3366AA0F",
  "-x c #34619CCE",
  "*O c #3463A731",
  "** c #3464A359",
  "2} c #3465A4FF",
  "-5 c #3565A27C",
  "-t c #3565A530",
  "-S c #3667A5E8",
  "-y c #3668A5EC",
  "*m c #3668A676",
  "=! c #375E85FF",
  "=) c #3764A41C",
  "*F c #3767A525",
  "*X c #3768A59F",
  "-- c #3768A6B1",
  "-j c #3768A6CB",
  "-O c #3768A7D6",
  "-H c #376DA5FF",
  "-e c #38557FFD",
  "=_ c #3868A6EE",
  "*# c #3869A585",
  "*@ c #3969A7CA",
  "-J c #396FA6FF",
  "-m c #3A6089FF",
  "$Z c #3A69A6FF",
  "*G c #3A6AA6D2",
  "*- c #3A6AA6DA",
  "*z c #3A6BA8D2",
  "-d c #3B5678F7",
  "-N c #3B6189FF",
  "*+ c #3B6BA7DC",
  "*> c #3C6BA8F8",
  "W- c #3C6BA8FF",
  "-6 c #3E6CA8FF",
  "*M c #3E6DA9F5",
  "-2 c #3F5E89F6",
  "$~ c #3F6DA9FF",
  "=L c #406EA7FF",
  "-, c #416FA9FF",
  "=n c #426FAAFF",
  "== c #4270AAFF",
  "jy c #4371ABFF",
  "*$ c #4471ABF6",
  "jj c #4472AAFF",
  "*j c #4571ABFF",
  "*2 c #4672AAFF",
  "=, c #4773ACFF",
  "-P c #48668DF6",
  "*) c #4976AEFF",
  "8K c #4A76AEFF",
  "-' c #4B6993F7",
  "*Q c #4B75AAFF",
  "3x c #4B77AFFF",
  "-0 c #4B77B0FF",
  "-W c #4B7CAFFF",
  "=| c #4D6E96F9",
  ";@ c #4E6C95FA",
  "fV c #4E7AB1FF",
  ";# c #516E96F7",
  "-q c #527397FF",
  "=+ c #537DB3FF",
  "AA c #5555AA03",
  "%V c #557EB3FF",
  "-p c #557FB3FF",
  "-k c #5582B5F6",
  "=A c #5780B6FF",
  "-R c #58779FFC",
  "=h c #59595917",
  "-V c #59728FFE",
  "8b c #5981B5FF",
  "=s c #5982B6FF",
  "*5 c #5A7EAFFE",
  "%* c #5B82B5FF",
  "=e c #606A8018",
  "=~ c #607C99FF",
  "-a c #617C9FFF",
  "=F c #6185B4FF",
  "*H c #6189BAF5",
  "=l c #6189BBFF",
  "-; c #6189BDF7",
  "-n c #637B97FF",
  "-z c #638DBFFA",
  "*} c #6486ACFF",
  "=t c #658AB9FF",
  "=Y c #658EBDFF",
  "=T c #6688B3FF",
  "*x c #688DBBFF",
  "-s c #697E96FF",
  "*T c #698AB0FE",
  "-K c #6990BBFF",
  "-u c #6B93C3FA",
  "-B c #6C85A1FF",
  "*a c #6F88A4FF",
  "-E c #6F96BFFF",
  "-* c #708FB1FF",
  "*e c #7195C2FF",
  "*; c #7295C2F6",
  "*& c #7296C1F4",
  "'~ c #729FCFFF",
  "'! c #73A0CFFF",
  "-! c #7594B7FE",
  "=y c #759AC5FF",
  "=B c #768A9FFF",
  "=} c #7698BEFF",
  "-# c #76A2D0FF",
  "-+ c #779CC8FC",
  "=' c #779CC8FF",
  "-: c #77A2D0FF",
  "=c c #7897BFFF",
  "N9 c #78A3D0FF",
  "N8 c #7AA4D1FF",
  "=v c #7B9FCAFF",
  "-8 c #7BA5D2FF",
  ";. c #7C99BBFF",
  "N: c #7DA6D2FF",
  "*1 c #7E96B4FD",
  "*u c #7E9EC7FF",
  "-7 c #7EA7D3FF",
  "=8 c #7FA2CAFF",
  "=I c #7FA8D3FF",
  "*A c #80A1C9FF",
  "*] c #80A2CAFF",
  "=C c #80A8D3FF",
  "-1 c #82A0BFFF",
  "=x c #83AAD4FF",
  "Ve c #83AAD5FF",
  "-) c #84A1C2FF",
  "-_ c #84A6C9FF",
  "-% c #84A8D0FF",
  "-w c #859FBBFF",
  "=9 c #85A1C5FF",
  "M~ c #86ACD5FF",
  "=Z c #87ACD6FF",
  "c! c #8888880F",
  "-G c #88A8C9FF",
  "-Q c #89A9CBFF",
  "B) c #89AED6FF",
  "=6 c #89AFD7FF",
  "=k c #8AA6CAFF",
  "=: c #8AAFD7FF",
  "=H c #8B8D88FF",
  "2a c #8BB0D7FF",
  "=. c #8CA6C9FF",
  "-L c #8CA9C9FF",
  "=` c #8CADD3FF",
  "=; c #8CB1D8FF",
  "=O c #8DB1D8FF",
  "-$ c #8DB2D8FF",
  "=4 c #8EAED1FF",
  "-> c #8EB0D6FF",
  "FD c #8EB2D8FF",
  "=o c #8FB2D9FF",
  "Ff c #90B2D9FF",
  "Fq c #90B3D9FF",
  "Nl c #91B4D9FF",
  "1_ c #91B4DAFF",
  "*[ c #92ACCCFF",
  "-` c #92AECDFF",
  "*' c #92B4DAFF",
  "*` c #93B5DAFF",
  "-9 c #94B5D9FF",
  "Np c #94B6DAFF",
  "-l c #95B6D9FF",
  "*E c #95B6DBFF",
  "-i c #95B7DAFF",
  "k0 c #969893FF",
  "Me c #96B7DBFF",
  "4d c #979994FF",
  "Sx c #97B7DBFF",
  "Nh c #97B8DBFF",
  "=G c #989A95FF",
  "=S c #98B0CEFF",
  "*L c #98B8DCFF",
  "*l c #999B96F9",
  "Az c #99B9DCFF",
  "-@ c #99BADCFF",
  "kp c #9A9B97FF",
  "*p c #9A9C98FD",
  "*K c #9ABADCFF",
  "*S c #9BB1CFFF",
  "=u c #9BBADCFF",
  "*C c #9BBADDFF",
  "2> c #9BBBDDFF",
  "5s c #9C9D99FF",
  "*N c #9CB7D7FE",
  "=i c #9CB9DAFF",
  "'H c #9CBBDDFF",
  "=j c #9D9F9BFF",
  "=Q c #9DA09DFF",
  "=P c #9DBADAFF",
  "VB c #9DBCDDFF",
  "hO c #9E9F9BFF",
  "*n c #9EA09CF9",
  "*U c #9EA09DFE",
  "=1 c #9EA09DFF",
  "*~ c #9EA09EFF",
  "-| c #9EB8D4FF",
  "'c c #9EBCDEFF",
  "'j c #9EBDDEFF",
  "*D c #9FA19DFA",
  "=< c #9FA19DFF",
  "*{ c #9FA19EFF",
  "'h c #9FBDDEFF",
  "=g c #A0A29DFB",
  "*c c #A0BDDEFF",
  "=X c #A0BEDEFF",
  "t- c #A1A39FFF",
  "=W c #A1ACB6FF",
  "*( c #A1B7D4FF",
  "=0 c #A2A49FFF",
  "d[ c #A2A4A0FF",
  "=U c #A2BFDFFF",
  "]+ c #A2C0E0FF",
  "=- c #A3BEDCFF",
  "*f c #A3BFDFFF",
  "*g c #A3C0E0FF",
  "j5 c #A4A6A2FF",
  "*s c #A4BCD9FF",
  "4$ c #A4C0DEFF",
  "=> c #A6C0DEFF",
  "Fv c #A6C2E0FF",
  "V( c #A7C2E1FF",
  "]o c #A7C3E1FF",
  "=V c #A8C2E0FF",
  "*q c #A9A9A8FF",
  "=E c #A9ADB2FF",
  "]X c #A9C5E2FF",
  "*i c #AABDD7FF",
  "*W c #AAC3DFFF",
  "*3 c #ABC1DDFF",
  "*_ c #ABC3DFFF",
  "=5 c #ABC6E2FF",
  "*V c #ABC6E3FF",
  "*v c #ACC6E3FF",
  "*b c #ADC4DFFF",
  "*4 c #AEC4DFFF",
  "=z c #AEC7E3FF",
  "=p c #AEC8E3FF",
  "gl c #AFC3DAFF",
  "FR c #AFC8E4FF",
  "'D c #B4CCE6FF",
  "=7 c #B5CCE6FF",
  "=# c #B7B9B7FF",
  "V, c #B7CDE6FF",
  "*Z c #B7CEE6FF",
  "9m c #B8B8B8FF",
  ",G c #BABABAFF",
  "M; c #BAD0E7FF",
  "=R c #BCBCBDFF",
  "*% c #BCCEE4FE",
  "<} c #BDD2E9FF",
  "-< c #BFCAD7FF",
  "*J c #BFD2E7FF",
  "*0 c #C0C0BFFC",
  "*! c #C0C0BFFF",
  "*9 c #C0C1BFFC",
  "5( c #C0C1BFFF",
  "*R c #C0D3E9FF",
  "*P c #C0D4E9FF",
  "*8 c #C1C2C0FC",
  "*t c #C1D4EAFF",
  "*7 c #C2C2C1FC",
  "*< c #C2C3C3FC",
  "*6 c #C3C3C2FC",
  "]5 c #C3D6EAFF",
  "jr c #C4D6E9FF",
  "*y c #C4D6EBFF",
  "*, c #C5C6C4FC",
  "AZ c #C5D6EAFF",
  "=d c #C6D2E1FF",
  ":7 c #C8C8C8FF",
  "@* c #C9CDC9FF",
  "*B c #C9D9ECFF",
  ",< c #CACACAFF",
  "*r c #CADAEBFF",
  "*h c #CBDBEDFF",
  "#+ c #CCCCCCFF",
  "*d c #CCDCEEFF",
  "=w c #CDD0CDFF",
  "=@ c #CFD8E5FF",
  "V- c #D0DFEFFF",
  "+b c #D1D1D1FF",
  "=$ c #D1D3D1FF",
  "V0 c #D2E0EFFF",
  ",, c #D3D3D3FF",
  "-& c #D3D8DFFF",
  "=D c #D3DCE7FF",
  ":o c #D5D5D5FF",
  "@> c #D5D7D5FF",
  "@, c #D6D8D6FF",
  "*: c #D6E3F0FF",
  "*I c #D7DEE7FF",
  ",B c #D8D8D8FF",
  ",b c #D9D9D9FF",
  ",m c #DADADAFF",
  "4= c #DBDCDBFF",
  "=3 c #DBDEE2FF",
  ",^ c #DCDCDCFF",
  "=b c #DDDDDDFF",
  "=[ c #DEDEDEFF",
  "*w c #DEE6F0FF",
  "={ c #DFDFDFFF",
  "=* c #DFE6EFFF",
  "&_ c #E0E0E0FF",
  "=f c #E0E1E0FF",
  "=] c #E0E2E4FF",
  "+Z c #E1E1E1FF",
  "=m c #E1E1E2FF",
  "+A c #E2E2E2FF",
  "+S c #E3E3E3FF",
  "*k c #E3E8EDFF",
  "&I c #E4E4E4FF",
  ";3 c #E5E5E5FF",
  ";b c #E6E6E6FF",
  ";G c #E7E7E7FF",
  ":# c #E8E8E8FF",
  ";A c #EFEFEFFF",
  ";T c #F0F0F0FF",
  ";` c #F1F1F1FF",
  ";' c #F2F2F2FF",
  ":O c #F3F3F3FF",
  ":3 c #F4F4F4FF",
  "=a c #F5F5F5FF",
  "+W c #F6F6F6FF",
  ":9 c #F7F7F7FF",
  ";R c #F8F8F8FF",
  ";S c #F9F9F9FF",
  ":5 c #FAFAFAFF",
  "=r c #FAFAFBFF",
  ";Q c #FBFBFBFF",
  ";2 c #FCFCFCFF",
  "=q c #FDFDFDFF",
  "3j c #FFFFFF01",
  ">X c #FFFFFFFF",
  "   c none",
  
  // Image data
  "                                      ]2*X2}*o                  ",
  "                                    *O*+$~*@                    ",
  "                                C6*#*$*%*&**                    ",
  "                              *=*-*;V0*:*>An                    ",
  "                      hO*,*<*1*2*3V-]5*4*5*6*7*7*8*9*9*9*0k03j  ",
  "                      *q*w8b*e*r*tV(*y*u*i;S;R;R:9+W=a=a:3*pc!  ",
  "                    AA*ajj*s*dFR*f*g*h*j*k=a=a:3:3:3:O:3,<*lc!  ",
  "                  2=*z*xjr<}]+*c'h*v*b%*:3:O:O:O;':O=a:7;S*nc!  ",
  "              2d*m*M*N*B*V'cVB'H*C*Z*A*S;';';`;`;`=a:o+Z;Q*Dc!  ",
  "            *F*G*H*JM;'h*C*KAz*LNh*P3x*I;T;T;T;A:3={,B:#;Q*U*Y  ",
  "        hO*,*TW-AZ*RAz*LNhMe*ENp'j*W*Q5(5(*!k0=a+S+b;G;b;Q*~*^*/",
  "        *q>X=q*(*)*_V,Nh*`*'NlFq]X*]*[=a=a:35s,m#+;b;3;3:5*{*}*|",
  "        j5,,=q;R=.W-*P=X=oFD=O=O'D=+=@:O:3,<kp=#=$&I+S+S:5*{=%=&",
  "        j5:9,b=*===-]o=;=OSx=:1_=>=,:O=a:7;S=<,m@>@*+A+Z:5=1=2+j",
  "        j5;2=38K=4=5=6B)Fv=72>2>=8=9=a:o+Z;Q=0=b+Z4==w&_:5*U=e  ",
  "        d[=r=t=yFR=6M~=u=i$~=i=p=s=d={,B:#;Qt-,^+Z+Z=f@,:5=g=h  ",
  "        =j=k=l=z2a=xFf4$*)=c===v=n=m+b;G;b;Q=0:3;Q;Q;Q;Q>X=g=M=N",
  "        =BfV=V=O=C=ZFv=A=S:9=D2}=F#+;b;3;3:5=<4d=G=G=G=G=G=H=J+/",
  "      =K=L=PNlN:=I=U=Y=T=R,G9m=E=W=$&I+S+S:5=Q=!=~=^=/ew=(&W@6@N",
  "    =)=_=`MeN8N8Az='%V=];b+S+Z=[={@>@*+A+Z:5*~=}=|-.-X@.@.+j    ",
  "  -o-O-+-@N9-#-$-%jy-&;3&I&I+S+S+A+Z4==w&_:5*{-**|-=            ",
  "NE---;2>-:'!Ve->-,-<&I+S+S+A+Z+Z+Z+Z+Z=f@,:5*{-1-2-3-4          ",
  "-5-6'H-7'~-8-9-0gl;Q;Q;Q;Q;Q;Q;Q;Q;Q;Q;Q;Q>X=1-q-w-e*|-r        ",
  "-t-y-u-i=I*E-p-a=G=G=G=G=G=G=G=G=G=G=G=G=G=G=H-s-d-f-g          ",
  "  -h-j-k-l-z-x-cewewewewewew-v-b-n-m-M-M-N-B-V-C-Z-A            ",
  "    C6*X$Z-SDJ@.@.@.@.@.@.@.-D-F-G-H-J-K-L-P-I-U                ",
  "        -Y*F                -T-R-E-W-Q-!-~-^-/                  ",
  "                            -(-)-_-`-'-]-[                      ",
  "                          -{-}-|;.;X;o;O                        ",
  "                          ;+;@;#;$;%                            ",
  "                          *|;&;*;=                              ",
  "                        ;-*|;;                                  "
};
