/* XPM */
const char *xpm_tango_actions_mail_mark_junk[] = {
  // Header (width height colors chars-per-pixel)
  "32 32 442 2",
  
  // Colors (code mode value)
  "+j c #00000001",
  "O` c #00000002",
  "@. c #00000003",
  "@X c #00000004",
  "+e c #00000005",
  "&h c #00000006",
  "*! c #00000008",
  "*7 c #00000009",
  "+( c #0000000A",
  "+> c #0000000B",
  "+h c #0000000D",
  "+: c #0000000E",
  ":l c #0000000F",
  "@: c #00000010",
  "+B c #00000011",
  "+K c #00000013",
  "@o c #00000014",
  "*' c #00000015",
  "*k c #00000017",
  "*] c #00000018",
  "+w c #00000019",
  "+| c #0000001B",
  "9b c #0000001E",
  "&V c #0000001F",
  "+g c #00000021",
  "&E c #00000022",
  "*` c #00000024",
  "*~ c #00000025",
  "+N c #00000026",
  "+J c #00000027",
  "er c #00000028",
  ":j c #00000029",
  "eg c #0000002A",
  "*^ c #0000002E",
  ":s c #00000031",
  "&W c #00000034",
  "*G c #00000037",
  "ew c #00000038",
  ",W c #00000039",
  ".{ c #0606062C",
  "._ c #08080822",
  "X+ c #22272234",
  ".q c #24312415",
  "X* c #464D4028",
  ".F c #4A51464C",
  ".G c #4F554957",
  ".[ c #59615461",
  ".H c #5B63576A",
  "X% c #636B5B43",
  ".( c #656D5E44",
  ".J c #666C607D",
  ".V c #666E5E41",
  ".K c #6D74668F",
  ".} c #70796876",
  ".L c #737B6B9F",
  "XO c #78826D62",
  ".) c #7A816F75",
  "X= c #7A857019",
  ".C c #7A85725E",
  "Xo c #7D867185",
  ".P c #7D8675B3",
  "|c c #80AA8006",
  ".d c #838D7A79",
  "XX c #848E7AAC",
  "./ c #868F79D4",
  "X$ c #87917BB4",
  ".` c #88917FC3",
  "X& c #89937DFF",
  "X. c #89937FCF",
  ".f c #8B938093",
  ".| c #8B947FE5",
  ".0 c #8B968272",
  ".D c #8C9584C1",
  ".= c #8E978258",
  ".I c #8E9785DF",
  ".E c #909985E5",
  ".Z c #909A86DB",
  ".- c #91988768",
  ".R c #919B86FF",
  "X@ c #929B88EB",
  "|E c #929B891C",
  ".^ c #929C87FF",
  "|{ c #929E8615",
  ".B c #939D87F9",
  ".* c #939D89FF",
  "|[ c #949F8AE1",
  ".] c #969F8BF7",
  "|p c #969F8BFC",
  ".s c #969F8BFE",
  ".w c #969F8BFF",
  "|8 c #97A08E56",
  "|F c #97A28B16",
  "|i c #99A28FFF",
  "|D c #99A48E2D",
  "|7 c #99A69328",
  "}a c #99CC9905",
  "X# c #9AA28FFD",
  "|x c #9AA290B3",
  "|} c #9AA38F5B",
  "|R c #9BA490EB",
  "|u c #9BA491FF",
  ".9 c #9BA591F6",
  ".A c #9CA491F7",
  "|6 c #9CA69350",
  "|z c #9DA693F8",
  ".S c #9DA693FD",
  "|W c #9DA6948F",
  "|l c #9DA694FF",
  ".g c #9EA795FF",
  ".; c #A0A897FA",
  "|G c #A1A996A3",
  "|S c #A1AA98F2",
  ".W c #A2A898F6",
  "|v c #A2AA991E",
  "|| c #A5AD9DFC",
  "|O c #A6AC9928",
  "|k c #A6AE9DFF",
  "|; c #A7AD9DC4",
  ".j c #A7AE9CFD",
  "|b c #A7AF9EB0",
  "|a c #A8B29F38",
  "|s c #A9B2A2F7",
  "cW c #AAAAAA03",
  "}= c #AAAAAA06",
  "|9 c #ABB3A046",
  "}T c #ADADA319",
  "}` c #ADB2A46D",
  "}R c #ADB4A393",
  "}' c #ADB4A6AB",
  "|: c #ADB5A664",
  "|+ c #ADB5A689",
  "}V c #AEB3A32F",
  "}Y c #AEB6A6FF",
  "}j c #AEB7A63C",
  "}_ c #AEB7A7D7",
  ".U c #AFB5A8FA",
  "|o c #AFB6A7FD",
  "}) c #AFB6A7FF",
  ".k c #B0B5A8F7",
  "|n c #B1B7A9F7",
  "}C c #B2B8AAA2",
  "|0 c #B2B9A9F4",
  "}k c #B3BAAAA2",
  "}4 c #B5BAAE8D",
  "}s c #B5BBACA2",
  "}p c #B5BBAEA9",
  "{^ c #B6B6B607",
  ".l c #B6BBB0F8",
  "|> c #B6BDAFF6",
  "}q c #B7BDAFA2",
  "}- c #B9BFB3C8",
  "}0 c #B9C0B386",
  "}3 c #BAC2B564",
  ".m c #BCC1B4FD",
  ".z c #BCC1B7F9",
  ".' c #BDC2B8FD",
  "}X c #BDC3B7D4",
  ".h c #BDC3B7F9",
  "}h c #BDC3B7FC",
  "|d c #BEC4B7FF",
  "}* c #BEC6B747",
  "}. c #BFBFAA0C",
  "{/ c #BFBFB314",
  "|5 c #BFC3B7F6",
  "|@ c #BFC5B7F6",
  "{E c #BFC8B61C",
  ".~ c #C0C4B9FF",
  "{( c #C0C5B9F2",
  "%j c #C1C3BCFF",
  ".< c #C1C3BDFF",
  "%M c #C2C4BEFF",
  ".x c #C2C5BEFC",
  "{m c #C2CCC219",
  "%a c #C3C5BEFF",
  "{| c #C3C8BB62",
  "{) c #C3C8BEFF",
  "#y c #C4C6C0FF",
  ".o c #C4C6C2FF",
  "}B c #C4CABFF4",
  "{W c #C5CBBF2C",
  "{U c #C5CBBF58",
  "}2 c #C5CBC1F6",
  "{_ c #C5CCBD23",
  ".O c #C6C7C2FF",
  ".i c #C6C8C2FF",
  "}( c #C6CABFFF",
  "}+ c #C6CAC0E8",
  "|H c #C6CCC1FE",
  "{C c #C6CCC2DC",
  "}& c #C6CCC2F3",
  ".3 c #C7C9C2FF",
  ".c c #C8CBC3FE",
  "{~ c #C8CCC2F6",
  "}] c #C8CCC2F7",
  "{R c #C8CDC2B4",
  "{V c #C8CDC3FF",
  "}9 c #C8CEC2F6",
  ".n c #C9CAC5FF",
  ".+ c #C9CBC4FF",
  "|( c #CACBC6FF",
  ".! c #CACCC4FF",
  ".Q c #CACCC5FF",
  ".2 c #CACCC6FF",
  "{` c #CACEC47D",
  "}@ c #CACEC5FF",
  "{G c #CACFC5F8",
  "}> c #CACFC5FF",
  "{M c #CAD5CA18",
  ".X c #CBCCC7FF",
  "}U c #CBD0C7F5",
  "}E c #CBD0C7FC",
  "{H c #CCCCBB0F",
  ".1 c #CCCDC7FF",
  ".u c #CCCDC8FF",
  ".v c #CCCEC8FF",
  "5: c #CCCEC9FF",
  "{' c #CCD1C891",
  ".T c #CDCFC6FF",
  "}i c #CDD1C7F7",
  "{B c #CDD2C9B9",
  ".y c #CECFCBFF",
  "{N c #CED3C862",
  ".b c #CFD0CBFF",
  "}F c #CFD1CCFF",
  "}G c #CFD1CDFF",
  ".M c #CFD2C9FF",
  "{] c #CFD4CB8F",
  "}H c #D0D2CDFF",
  "|/ c #D1D2CEFF",
  "}D c #D1D3CEFF",
  "}n c #D1D3CFFF",
  ".p c #D2D2CCFF",
  "., c #D2D3CDFF",
  "|# c #D2D4CEFF",
  ".7 c #D3D3CDFF",
  "|) c #D3D4CEFF",
  ".t c #D3D4CFFF",
  "|$ c #D3D4D0FF",
  "{J c #D3D6CF45",
  "}$ c #D3D6CFFF",
  "|] c #D3D7CEFC",
  ".$ c #D4D4CEFF",
  ".6 c #D4D4CFFF",
  "|B c #D4D5D0FF",
  ".Y c #D4D6D2FF",
  "{Z c #D4D9CF35",
  "{Q c #D5D5CE2A",
  ".> c #D5D5CFFF",
  ".# c #D5D5D0FF",
  "{n c #D5D5D506",
  ".@ c #D5D6D1FF",
  "}} c #D5D6D2FF",
  "}J c #D5D7D2FF",
  "}b c #D5D7D3FF",
  "{[ c #D5D8CF9E",
  "}5 c #D5D8D1FB",
  ".5 c #D6D6D0FF",
  "|' c #D6D6D1FF",
  "|, c #D6D7D2FF",
  "}M c #D6D8D3FF",
  "{S c #D6D9D1D9",
  "{A c #D6DAD282",
  "{D c #D6DAD2F9",
  "hu c #D6DAD2FF",
  "|! c #D7D7D1FF",
  "|` c #D7D7D2FF",
  "|% c #D7D8D3FF",
  "|I c #D7D8D4FF",
  "|g c #D7D9D4FF",
  ".r c #D7D9D5FF",
  "{K c #D7DBD3FB",
  ".4 c #D8D8D2FF",
  "|~ c #D8D8D3FF",
  "}{ c #D8D9D4FF",
  "|Q c #D8DAD4FF",
  "{Y c #D8DCD4CA",
  "{} c #D8DDD5F5",
  "|Y c #D9D9D4FF",
  "|^ c #D9D9D5FF",
  "}S c #D9DAD5FF",
  "}m c #D9DAD7FF",
  "|_ c #DADAD5FF",
  "6k c #DADAD9FF",
  ".e c #DADBD5FF",
  "|< c #DADBD7FF",
  "3E c #DADBD8FF",
  "|J c #DBDBD6FF",
  "|K c #DBDBD7FF",
  "|& c #DBDCD8FF",
  "g^ c #DBDCD9FF",
  ".% c #DCDCD7FF",
  "|U c #DCDCD8FF",
  "}L c #DCDDD8FF",
  "}^ c #DCDDD9FF",
  "|e c #DCDED9FF",
  "|L c #DDDDD8FF",
  "|f c #DDDDD9FF",
  "6s c #DDDDDCFF",
  ".N c #DDDED9FF",
  "|w c #DDDEDBFF",
  "|* c #DDDFDAFF",
  "|1 c #DDDFDBFF",
  "|P c #DEDED9FF",
  "}~ c #DEDEDAFF",
  "&v c #DEDEDDFF",
  ".a c #DEDFD9FF",
  ".8 c #DEDFDAFF",
  "{! c #DEE0DAF6",
  "4; c #DEE0DBFF",
  "|Z c #DFDFDAFF",
  "|m c #DFDFDBFF",
  "%r c #DFDFDDFF",
  "|V c #DFE0DCFF",
  "|A c #E0E0DBFF",
  "|M c #E0E0DCFF",
  "}v c #E0E1DDFF",
  "|2 c #E0E1DEFF",
  "{I c #E0E2DDF5",
  "}W c #E1E1DDFF",
  "|N c #E1E1DEFF",
  "}; c #E1E2DEFA",
  "|T c #E1E2DEFE",
  "|q c #E1E2DEFF",
  "}| c #E1E2DFFF",
  "v: c #E2E2DEFF",
  "v; c #E2E2DFFF",
  "%; c #E2E2E0FF",
  "%# c #E2E2E1FF",
  "57 c #E2E3E0FF",
  "}g c #E2E3E1FF",
  "{L c #E2E5E0F4",
  "v- c #E3E3DFFF",
  "v= c #E3E3E0FF",
  "%e c #E3E3E1FF",
  ".: c #E3E4DFFF",
  "|h c #E3E4E1FF",
  "}: c #E3E5E0FB",
  "}Q c #E4E4E0FF",
  "v* c #E4E4E1FF",
  "%- c #E4E4E2FF",
  "&K c #E4E4E4FF",
  ".& c #E4E5E0FF",
  "}N c #E4E5E1FF",
  "|3 c #E4E5E2FF",
  "|= c #E4E5E3FF",
  "}Z c #E5E5E1FF",
  "}6 c #E5E5E2FF",
  "%h c #E5E5E3FF",
  "|. c #E5E6E3FF",
  "}! c #E6E6E2FF",
  "}P c #E6E6E3FF",
  "%= c #E6E6E4FF",
  "}A c #E7E7E4FF",
  ";G c #E7E7E7FF",
  "|t c #E7E8E4FF",
  "}K c #E7E8E5FF",
  "}< c #E7EAE5FD",
  "|C c #E8E8E4FF",
  "}c c #E8E8E5FF",
  ":# c #E8E8E8FF",
  "|4 c #E8E9E5FF",
  "|X c #E8E9E6FF",
  "{F c #E8EAE5F7",
  "}I c #E8EAE6FF",
  "}7 c #E9E9E5FF",
  "}f c #E9E9E6FF",
  "$` c #E9E9E7FF",
  "lC c #E9E9E8FF",
  ":2 c #E9E9E9FF",
  ".. c #E9EAE6FF",
  "|y c #E9EAE7FF",
  "}z c #EAEAE6FF",
  "}d c #EAEAE7FF",
  "%q c #EAEAE8FF",
  "lb c #EAEAE9FF",
  "}o c #EAECE8FC",
  "}x c #EBEBE8FF",
  "#p c #EBEBE9FF",
  "|r c #EBECE9FF",
  "|- c #EBEDE9FF",
  "}[ c #ECECE9FF",
  "#A c #ECECEAFF",
  "}l c #ECEDEAFF",
  "}e c #EDEDEAFF",
  "#i c #EDEDEBFF",
  ";9 c #EDEDEDFF",
  "}w c #EDEEEBFF",
  "<O c #EEEEEBFF",
  "#& c #EEEEECFF",
  "5] c #EEEEEDFF",
  ":< c #EEEEEEFF",
  "}t c #EFEFECFF",
  "#' c #EFEFEDFF",
  "lt c #EFEFEEFF",
  ";A c #EFEFEFFF",
  "}O c #EFF0EDFE",
  "}# c #EFF0EDFF",
  "{T c #EFF0EEFF",
  "}r c #F0F0EDFF",
  "#u c #F0F0EEFF",
  "l8 c #F0F0EFFF",
  "#` c #F1F1EFFF",
  ",0 c #F1F1F0FF",
  "{P c #F1F2EFFC",
  "|j c #F1F2EFFF",
  "f8 c #F1F2F0FF",
  "#Z c #F2F2F0FF",
  "c} c #F2F2F1FF",
  ";' c #F2F2F2FF",
  "}8 c #F2F3F1FF",
  "{{ c #F3F3F1FD",
  "#_ c #F3F3F1FF",
  "55 c #F3F3F2FF",
  "}, c #F3F4F2FF",
  "$< c #F4F4F2FF",
  "hE c #F4F4F3FF",
  "#) c #F5F5F3FF",
  "c` c #F5F5F4FF",
  "3] c #F5F6F4FF",
  "$, c #F6F6F4FF",
  "c/ c #F6F6F5FF",
  "c~ c #F7F7F6FF",
  ":9 c #F7F7F7FF",
  "}/ c #F7F8F7FF",
  ",3 c #F8F8F7FF",
  ";R c #F8F8F8FF",
  "37 c #F8F9F8FF",
  "lP c #F9F9F8FF",
  ";S c #F9F9F9FF",
  "g~ c #FAFAF9FF",
  ":5 c #FAFAFAFF",
  "}1 c #FBFBFAFF",
  ";Q c #FBFBFBFF",
  "}y c #FCFCFBFF",
  ";2 c #FCFCFCFF",
  "}u c #FDFDFCFF",
  "=q c #FDFDFDFF",
  "}% c #FEFEFDFF",
  "=w c #FEFEFEFF",
  "3j c #FFFFFF01",
  ">X c #FFFFFFFF",
  "   c none",
  
  // Image data
  "                                      {n{m                      ",
  "                                {M{N{B{V{C                      ",
  "                        3j{Z{A{S{D{F,3>X{G{H                    ",
  "                      {J{K{L{P;Q>X>X>X;2{I{U                    ",
  "                      {Y37>X>X>X>X>X>Xc/{T{R                    ",
  "        {E{W        {Q{!=w>X>X>X>X>X>Xlt;2{~{^                  ",
  "      {/{({){_{`{'{]{[{{>X>X>X>X>X>X>X:2:9{}{|                  ",
  "    }.}X}o}O}+}@}#hu}$}%;2>X>X>X>X>X;A6klb3]}&}*                ",
  "  }=}-};;2;2}:}>>X},}<;QhE}1>X>X>X:<%#%r6s;',3}2}3              ",
  "  }4}5;Q}6}7;2}8:5;S;QhEc`,3}1=w;9&KlPc~,0#p55}1}9}03j          ",
  "  }q}w}e}6,3#p}r}t:5c~g~}y;2}y:#&v:2l8c}c}#Z#'55}u}i}p}a        ",
  "  }s}w}d}f,3c`$<c~c/#u#ZhE;R,3;9}glC;G%-%#%;%h%h#A>X}h}j        ",
  "  }k}l}z}x}x}6}c}r#i#'#u$`}v}b}n}m}M}Nc},0#A}f}d,0>X}B}V        ",
  "  }C}w#&#Av-}Z}A}cv;}S}D}F}G}H}J55$<}K}L}P#&}t}u}I}U}Y}T        ",
  "  }R}E}y#A}W}Q}!}c%q#A#&#&#'l8#Zlt}6}~}^4;57}d}/}(})}_}`        ",
  "  }=}'}]}y}[v;}Z}A}f}x#A<O#&%;}{}}}{g^4;}||.|XhE;Q=qc~|o|O      ",
  "    3j|+|@g~#uv-}6}A}f%q}d$`|#|$|%|&|*}||=|X#p5]f8hE;S|-|;      ",
  "        |:|>c`$<v*}6}A}c|.v*%-|,|<|1|2|3|4#`#&f855#u}f:5|5|6|7|8",
  "          |9|0}l#_v=}Z}P|q|w}f%e|e}v|3|rg~}u=qc}#&#u|t$<|y|u|i|p",
  "          |a|s|dc/}Wv-}Q|f|g}6#u%-|h|j=ql8v=}6#Ac/c}|k|l|z|i|x|c",
  "      |v|b|n}N$,}!|m|M}W|N|B|V}P:5lP;S|Cv:}W|M|Z|A#)|y|S|D|FcW  ",
  "      |G|Hc/}c|J|K|L|P|m|M|I|%}W55#u|N|M|m|Z|P|U|J|Y#u|T|R|E    ",
  "      |W|Q#p|!|~|Y|J|^|/5:|(|)|m|m|m|Z|P|f|U|K|_|Y|`|'}f|]|[|{  ",
  "      |}||..v=|'|`|~.X.o.O.+|J|K|~.@|J|K|J|_|Y|~|!.#.$.%.&.*.=  ",
  "      @X.-.;.:.%.>.,%j.<.<.1.2#y%M%a.3.#|~.4|!.5.6.7|_.8.9.0    ",
  "    &h+>.q.w.e|P}Q|N3E.r}J.t}H.y.u.i.<.<|B|A|U.6.p.p.a.s.d+>&h+j",
  "  @.*7+:.f.g}A%=.h.j.k.l.z.x.c.v.b.r.n%M|N.m.M|M|`.$.N.B.V:l+(@X",
  "  @.*!+h.C.Z.A.S.D.F.G.H.J.K.L.P.I.U.Y.t.T.R.E.W.Q.!.~.^./+:*7O`",
  "    +e+(+:+K.(.)._*~eg*^:s&W*Gew,W.`.'}S.].[.{.}.|X.XXXoXO+(@.  ",
  "      +j&h+>:l+K*k+|9b+g*`+N+Jer:jX+X@X#X$&E&V+|*]@o@:+>+e      ",
  "            O`&h+(+:+B+K*'*k*]*]+w*]X%X&X*+K+B+h*!@X+j          ",
  "                      +jO`@.@X@X+e+e@XX=O`+j                    "
};
