/* XPM */
const char *xpm_tango_actions_media_seek_forward[] = {
  // Header (width height colors chars-per-pixel)
  "32 32 199 2",
  
  // Colors (code mode value)
  "+j c #00000001",
  "@. c #00000003",
  "@X c #00000004",
  "*! c #00000008",
  "@: c #00000010",
  "+r c #00000012",
  "*k c #00000017",
  "*Q c #0000001D",
  "@6 c #00000020",
  "*` c #00000024",
  "*~ c #00000025",
  "2! c #0909091D",
  "2( c #0C0C0C16",
  "2Y c #0D0D0D28",
  ":[ c #0E0E0E24",
  "2) c #16161623",
  "2' c #18181815",
  "2] c #1D1D1D23",
  "3. c #2424240E",
  "3X c #24242423",
  "># c #2727270D",
  "2/ c #28282839",
  "3% c #2B2B2B06",
  "2| c #2C2C2C23",
  "2O c #2D2D2D22",
  "2` c #2D2D2D39",
  "3$ c #3131311A",
  "2E c #3134315E",
  "3O c #33333323",
  "2Q c #3436345E",
  "3& c #35353522",
  "3- c #3B3B3B1A",
  "2U c #3D3F3C8D",
  "3; c #3E3E3E21",
  "8] c #40404004",
  "3# c #41413D53",
  "2} c #42444083",
  "3o c #43454182",
  "3= c #44444153",
  "3< c #44494431",
  "31 c #46464621",
  ":S c #464743FF",
  "2^ c #484945B8",
  "2_ c #494947B8",
  "32 c #494E4931",
  "3q c #4B4C47FF",
  "2R c #4B4C48E4",
  "35 c #4B4C48FF",
  "3@ c #4C4E48DE",
  "3, c #4C4E49AE",
  "30 c #4E504C79",
  "3r c #50504E79",
  "34 c #50505020",
  "2{ c #50524EF4",
  "33 c #51515113",
  "3e c #535450F2",
  "39 c #545551F2",
  "1} c #565752FF",
  "1| c #575853FF",
  "3i c #5B5B5676",
  "3t c #5D5D5D21",
  "3y c #60606020",
  "3g c #61625DFF",
  "3a c #62635EFF",
  "3> c #646562F7",
  "3f c #66666278",
  "3j c #67676377",
  "3h c #676964F2",
  "3d c #686A65F2",
  "3v c #6C6D68FF",
  "<B c #6D6D6D0E",
  "3l c #6D6E69FF",
  "2~ c #6E6E6CF6",
  "3p c #7373731F",
  "3n c #73746FAD",
  "3x c #737470AD",
  ":u c #7676761C",
  "3F c #777973FF",
  "3V c #787A74FF",
  "3c c #7A807A30",
  "3m c #7D827D2F",
  "3G c #7E7E79DD",
  "3A c #7E7F79DD",
  "3S c #80807C50",
  "@> c #80808002",
  "<4 c #80808004",
  "3R c #82847EFF",
  "3H c #83837C50",
  "3K c #83857FFF",
  "3b c #858681F6",
  "3z c #858782F6",
  "3k c #8888881E",
  "3Q c #898B857F",
  "3I c #898B8580",
  "3W c #8A8C87F4",
  "3P c #8B8D88F4",
  "3) c #8E8F89FF",
  "3M c #8F8F8F10",
  "3! c #8F9089FF",
  "3` c #93958FB6",
  "3^ c #93968FB6",
  "3B c #9595951D",
  "3+ c #959692F7",
  "3* c #959693F7",
  "rZ c #99999905",
  "2Z c #999B93FF",
  "3[ c #9A9C94FF",
  "4O c #9C9D97E3",
  "3} c #9D9E98E3",
  "3D c #9E9E9E1D",
  "2W c #A1A2A0F7",
  "3| c #A1A49E57",
  "3Y c #A2A2A20B",
  ";] c #A2A2A216",
  "3/ c #A3A39E32",
  "4+ c #A3A3A056",
  "2T c #A3A4A1F6",
  "3J c #A4A4A41C",
  "2J c #A4A69EFF",
  "2P c #A5A79FFF",
  "3_ c #A6A8A3F6",
  "3' c #A7A7A131",
  "3~ c #A7A9A4F6",
  "3U c #AAAAAA1E",
  "4$ c #ABADA588",
  "3T c #ADADAD1C",
  "3Z c #B4B4B1F7",
  "1n c #B6B6B61C",
  "3( c #BDBDBD1B",
  "38 c #BEC0BEFB",
  "<| c #BFBFBF10",
  "3w c #BFC0BEFB",
  "4. c #C5C5C516",
  "3] c #C6C6C61B",
  "2[ c #C7C8C5FB",
  "3s c #C7C8C6FB",
  "4o c #CCCEC9F6",
  "3{ c #CDCECAF6",
  "4@ c #CECECE15",
  "4X c #D0D0D01B",
  "4& c #D1D1D10B",
  "{n c #D5D5D506",
  "4# c #D6D6D619",
  "4% c #DCDCDC1D",
  "3E c #DCDDDAFB",
  "3L c #DCDDDBFB",
  "4* c #E0E0E019",
  "hJ c #E2E3E2FF",
  "3: c #E5E6E4FF",
  ";A c #E6E9E4FF",
  "4= c #E8E8E80B",
  "}I c #E8EAE6FF",
  "1' c #E8EBE7FF",
  "36 c #E8EBE8FF",
  "4; c #E9E9E917",
  "4- c #EAEAEA0C",
  "X| c #EAEBE9FF",
  ">d c #EAEBEAFF",
  ":Q c #EAECE8FF",
  "3u c #EAECE9FF",
  "6d c #EBEBEAFF",
  "|- c #EBEDE9FF",
  ">. c #EBEDEAFF",
  ";r c #ECEEEAFF",
  ";P c #ECEEEBFF",
  ";x c #EDEFECFF",
  ";p c #EEF0EDFF",
  "4: c #EFEFEF10",
  ";a c #EFF1EDFF",
  "k7 c #EFF1EEFF",
  "4[ c #F0F1EFFF",
  ";z c #F0F2EFFF",
  ";E c #F1F3F0FF",
  ";l c #F1F3F1FF",
  "}8 c #F2F3F1FF",
  ";W c #F2F4F2FF",
  "}, c #F3F4F2FF",
  "@< c #F3F4F3FF",
  "4> c #F4F4F417",
  ";~ c #F4F5F3FF",
  "#) c #F5F5F3FF",
  ">A c #F5F6F5FF",
  "}/ c #F7F8F7FF",
  ",3 c #F8F8F7FF",
  "37 c #F8F9F8FF",
  "lP c #F9F9F8FF",
  ";N c #F9FAF9FF",
  "3C c #FAFBFAFF",
  ";Q c #FBFBFBFF",
  ";7 c #FCFCFCFF",
  ":1 c #FCFDFCFF",
  "}u c #FDFDFCFF",
  "=q c #FDFDFDFF",
  "=w c #FEFEFEFF",
  "3N c #FFFFFF01",
  ":C c #FFFFFF02",
  ",: c #FFFFFF0C",
  ">X c #FFFFFFFF",
  "   c none",
  
  // Image data
  "                                                                ",
  "                                                                ",
  "                                                                ",
  "                                                                ",
  "                                                                ",
  "                                                                ",
  "                                                                ",
  "                                                                ",
  "    +r@6*k@X                +r@6*k@X                            ",
  "    *`:S2U2Y@:+j            *`:S2U2Y@:+j                        ",
  "    *~:S2T2R2E*Q*!          *`:S2W2R2Q2!*!                      ",
  "    :[:S>XX|2~2^2/2(@.      2):S>X>d2~2_2`2'@.                  ",
  "    2]:S>X},;72[2{2}2|3.    3X:S>X},;72[2{3o3O>#                ",
  "    2O:S>X;P;a}/373+3@3#3$3%3&:S>X;P;a}/373*3@3=3-3%            ",
  "    3;:S>Xk74[;z#);73:3>3,3<31:S>Xk74[;z;~;73:3>3,3233@>        ",
  "    3435>X;A}I36:Q|-;~;73839303q>X;z;E}8},},37=q3w3e3r3t8]      ",
  "    3y1|>X3u>.;r>.3u1';x>XhJ1|1}>X3u>.;r>.3u1';p>XhJ1}3i<B      ",
  "    3p3a>X;l;W;W;Ek7>A}u3s3d3f3g>X;l;W;W;Ek7>A}u2[3h3j:u<4      ",
  "    3k3l>XlP;N,3,3=q6d3z3x3c3k3v>XlP;N,3,3=q6d3b3n3m3M3N        ",
  "    3B3V>X:13C:1;Q3Z3A3S;]rZ3D3F>X:13C:1;Q3Z3G3H;]rZ            ",
  "    3J3K>X;N=w3L3P3I3U3Y    3T3R>X;N=w3E3W3Q3U3Y                ",
  "    1n3!>X@<3~3^3/<|@>      3(3)>X@<3_3`3'<|@>                  ",
  "    3]3[3{3}3|4.{n          4X2Z4o4O4+4@{n                      ",
  "    4#2P4$4%4&              4*2J4$4%4=                          ",
  "    4-4;4::C                ,:4>4::C                            ",
  "                                                                ",
  "                                                                ",
  "                                                                ",
  "                                                                ",
  "                                                                ",
  "                                                                ",
  "                                                                "
};
