/* XPM */
const char *xpm_tango_actions_media_eject[] = {
  // Header (width height colors chars-per-pixel)
  "32 32 137 2",
  
  // Colors (code mode value)
  "+j c #00000001",
  "@M c #00000002",
  "@N c #00000005",
  "*7 c #00000009",
  "@2 c #0000000E",
  "+r c #00000012",
  "@o c #00000014",
  "=N c #00000018",
  "9b c #0000001E",
  "+g c #00000021",
  "*` c #00000024",
  "*~ c #00000025",
  ";y c #07070726",
  ";1 c #0C0C0C2A",
  ";f c #0D0D0D26",
  ";g c #1A1A1A1D",
  ";w c #1F1F1F3A",
  ";b c #2323231D",
  ";, c #28282446",
  ":$ c #32323224",
  ";9 c #35353265",
  ";> c #3739346B",
  ";: c #373A3566",
  ";n c #43434313",
  ";5 c #474744A5",
  ";G c #47474712",
  ";2 c #4C4D4ADE",
  ";m c #4D4D4A56",
  ";h c #4D4D4C91",
  ";< c #4E4E4BFF",
  ";e c #4E4E4CF3",
  ";v c #4F4F4D91",
  ";F c #50504D56",
  ";u c #50514DD0",
  ";d c #51514DD0",
  ";H c #5A5A5533",
  ";U c #5F5F5A33",
  ";I c #5F605DEC",
  ";J c #5F615DEC",
  "<N c #60606008",
  ";M c #666864F7",
  ";0 c #676763F7",
  ":= c #67676725",
  ";| c #676964FF",
  ";/ c #676965BE",
  ";{ c #676965FF",
  ";T c #676A65BE",
  ";q c #686865F7",
  ";D c #686966F8",
  "h$ c #696B67FF",
  ";} c #6C6E6AFF",
  ";) c #6E706C7D",
  ";' c #70726E7D",
  ":* c #737671FF",
  ":& c #737771FF",
  ":% c #747771FF",
  ":; c #777A75FF",
  ":- c #777B75FF",
  ":, c #7B7E79FF",
  ":> c #7B7F79FF",
  ":2 c #7F827DFF",
  ":< c #7F837DFF",
  "@> c #80808002",
  ";Y c #80808020",
  ":4 c #828680FF",
  ";_ c #8C8D89F6",
  ";` c #8E908CF7",
  ";j c #91938EF7",
  ";c c #939592F7",
  ";( c #9B9B9B17",
  ":: c #9F9F9F25",
  ";8 c #9FA19EF9",
  ";] c #A2A2A216",
  ";6 c #A2A3A0F9",
  ";[ c #BCBCBC22",
  ";R c #BEBFBCFB",
  "r, c #C2C3C0FB",
  ":. c #C3C3C322",
  ";s c #C9CBC8FD",
  ";i c #CBCCCAFC",
  ":X c #D5D5D512",
  ":o c #D5D5D524",
  ":O c #D6D6D625",
  ":@ c #DCDCDC24",
  ":+ c #DDDDDD25",
  ":# c #E3E3E312",
  ";4 c #E3E4E2FE",
  ";3 c #E5E6E4FE",
  ";A c #E6E9E4FF",
  ";V c #E6E9E5FF",
  ";Z c #E7E9E5FF",
  ";C c #E7EAE5FF",
  "6$ c #E8E8E7FF",
  "X| c #EAEBE9FF",
  "39 c #EAECE9FF",
  ";L c #EBEEEAFF",
  ";r c #ECEEEAFF",
  ";P c #ECEEEBFF",
  ";S c #ECEFECFF",
  ";t c #EDEEEDFF",
  ";x c #EDEFECFF",
  ";B c #EDEFEDFF",
  "3B c #EEEFECFF",
  ";p c #EEF0EDFF",
  ";a c #EFF1EDFF",
  "k7 c #EFF1EEFF",
  "l8 c #F0F0EFFF",
  "o$ c #F0F1EEFF",
  ";z c #F0F2EFFF",
  ";E c #F1F3F0FF",
  ";l c #F1F3F1FF",
  ";k c #F2F4F1FF",
  ";W c #F2F4F2FF",
  "}, c #F3F4F2FF",
  ";! c #F3F5F3FF",
  ";~ c #F4F5F3FF",
  "3] c #F5F6F4FF",
  ";K c #F6F7F5FF",
  "X' c #F7F8F6FF",
  "lP c #F9F9F8FF",
  ";N c #F9FAF9FF",
  ":5 c #FAFAFAFF",
  "38 c #FAFBFAFF",
  "}1 c #FBFBFAFF",
  ";Q c #FBFBFBFF",
  ";^ c #FBFCFBFF",
  "}y c #FCFCFBFF",
  ";7 c #FCFCFCFF",
  ":1 c #FCFDFCFF",
  "=q c #FDFDFDFF",
  "}% c #FEFEFDFF",
  "=w c #FEFEFEFF",
  ":6 c #FFFFFF12",
  ":3 c #FFFFFF24",
  ":7 c #FFFFFF25",
  ">X c #FFFFFFFF",
  "   c none",
  
  // Image data
  "                                                                ",
  "                                                                ",
  "                                                                ",
  "                                                                ",
  "                            @N9b9b@N                            ",
  "                          +j9b;:;>9b+j                          ",
  "                          @o;,;<;<;,@o                          ",
  "                        *7;1;2;3;4;2;1*7                        ",
  "                      @M+g;5;6=q;7;8;5+g@M                      ",
  "                      =N;9;0;7o$k7;Q;q;9=N                      ",
  "                    @2;w;el83];r;r},;t;e;w@2                    ",
  "                  @N;y;u;i38;p;a;a;alP;s;d;f@N                  ",
  "                  ;g;h;j=q;k;l;l;z3B;x}y;c;v;b                  ",
  "                ;n;m;M;N;B;V;C;Z;Z;V;A;S:5;D;F;G                ",
  "              <N;H;J6$;K39;L;P;x;x;x;P;L;KX|;I;U<N              ",
  "            @>;Y;T;R}y;pk7;E;W;!;~;!;W;Ek7;^r,;/;Y@>            ",
  "            ;(;);_>X>X>X>X>X>X>X>X>X>X>X>X>X>X;`;';]            ",
  "            ;[;{;}h$;{;{;{;{;{;{;{;{;{;{;|;|;|;|;|:.            ",
  "            :X:o:O:O:O:O:+:+:+:+:+:+:+:+:+:+:+:+:@:#            ",
  "            +r*`*~*~*~*~*~*~*~*~*~*~*~*~*~*~*~*~*`+r            ",
  "            :$:%:%:%:%:%:%:%:%:%:&:&:&:*:*:*:*:*:*:$            ",
  "            :=:->X>X>X>X>X>X>X>X>X>X>X>X>X>X>X>X:;:=            ",
  "            :::>}%;Pk7;l;~X';N;7=w;7;NX';~;lk7=w:,::            ",
  "            :O:<38}1;^;7:1=q=q}%=w}%=q=q:1;7;^}1:2:O            ",
  "            :3:4:4:4:4:4:4:4:4:4:4:4:4:4:4:4:4:4:4:3            ",
  "            :6:3:7:7:7:7:7:7:7:7:7:7:7:7:7:7:7:7:3:6            ",
  "                                                                ",
  "                                                                ",
  "                                                                ",
  "                                                                ",
  "                                                                ",
  "                                                                "
};
