/* XPM */
const char *xpm_tango_actions_media_record[] = {
  // Header (width height colors chars-per-pixel)
  "32 32 251 2",
  
  // Colors (code mode value)
  "+j c #00000001",
  "@M c #00000002",
  "@. c #00000003",
  "@X c #00000004",
  "@N c #00000005",
  "*! c #00000008",
  ":k c #0000000C",
  "@2 c #0000000E",
  "@: c #00000010",
  "+r c #00000012",
  "@m c #00000013",
  "*' c #00000015",
  "@= c #0000001C",
  "+g c #00000021",
  "+/ c #00000023",
  "+N c #00000026",
  ",4 c #0909091B",
  ":[ c #0E0E0E24",
  ",t c #1515150C",
  ",z c #1C1C1C24",
  ",y c #1F1F1F19",
  ",x c #20202008",
  ",H c #2929291F",
  ",c c #2B2B2B0C",
  ",~ c #39393924",
  ",^ c #3B3B3B0D",
  ",J c #3C3C3C1E",
  "8] c #40404004",
  "<+ c #4A4A4A18",
  "8S c #53535322",
  ",/ c #55555506",
  "<@ c #5A5A5A11",
  "1x c #60606008",
  "<5 c #64646417",
  "<s c #66666623",
  "<d c #6C6C6C1A",
  "<V c #71717109",
  "<B c #71717122",
  ",5 c #76070745",
  ",v c #78141440",
  "@> c #80808002",
  "<F c #80808006",
  "<D c #80808022",
  "<C c #85858517",
  "r# c #8E8E8E09",
  "<H c #8E8E8E12",
  ",u c #90090957",
  ",, c #92000062",
  "<G c #92929207",
  "1m c #9292920E",
  "<T c #93939321",
  ",( c #9D191951",
  "</ c #9D9D9D1A",
  "cW c #AAAAAA03",
  "1z c #AAAAAA0C",
  "1c c #AAAAAA12",
  "<} c #AFAFAF10",
  ":x c #B1B1B117",
  "1n c #B6B6B61C",
  "1v c #B8B8B819",
  "1% c #BBBBBB1E",
  ",< c #BD0000B1",
  "1b c #BDBDBD1F",
  "<| c #BFBFBF10",
  "<# c #C20909A8",
  "<4 c #C30909A9",
  "<( c #C336364C",
  ",6 c #C60101D6",
  ",K c #C60404C5",
  "<{ c #C73C3C4D",
  "1& c #C7535337",
  "<^ c #C80E0EA8",
  ">b c #C8C8C80E",
  ",1 c #CA0101EB",
  "<R c #CA0E0EA7",
  "<6 c #CB0303E5",
  ",3 c #CC0202FB",
  "<a c #CC0303E5",
  "<J c #CC0404E5",
  "1. c #CC0A0AC4",
  "1j c #CC1010B0",
  "1k c #CC36365F",
  "1q c #CCCCCC05",
  "1s c #CCCCCC14",
  "1l c #CCCCCC1E",
  "<f c #CD0101F6",
  "1h c #CD0101FB",
  ",2 c #CD0303FB",
  "1g c #CD0404EB",
  ",G c #CD0707F1",
  "1f c #CD1010AF",
  "10 c #CD3E3E52",
  "1* c #CE0404F0",
  "11 c #CE0505F4",
  ",b c #CE0606F0",
  "19 c #CE0606F4",
  "1e c #CE0808D5",
  ",i c #CE0909F4",
  "1$ c #CE0A0AC4",
  "1d c #CE36365E",
  "1< c #CF3D3D50",
  "1, c #CF61613A",
  "1a c #D2D2D211",
  "<O c #D31E1EF4",
  "1p c #D35C5C40",
  "<) c #D41515F3",
  ",) c #D42424F4",
  "1w c #D555553C",
  "{n c #D5D5D506",
  "1r c #D61B1BF7",
  "1i c #D71B1BF7",
  ",r c #D82F2FF8",
  ",7 c #D83131F8",
  ":n c #D9D9D914",
  "<u c #E21A1AFF",
  "<y c #E31B1BFF",
  "<L c #E31C1CFF",
  "<Z c #E31E1EFF",
  "<N c #E31F1FFF",
  "<M c #E41C1CFF",
  "<S c #E42020FF",
  "<P c #E51D1DFF",
  "<m c #E51E1EFF",
  "<_ c #E52020FF",
  "<t c #E52424FF",
  "<i c #E52A2AFF",
  "<1 c #E53D3DFF",
  "<n c #E61E1EFF",
  "<b c #E61F1FFF",
  "<K c #E62B2BFF",
  "<v c #E72020FF",
  "<[ c #E72222FF",
  "<c c #E72A2AFF",
  "<Y c #E72D2DFF",
  "<r c #E73434FF",
  "<h c #E74646FF",
  "<A c #E82121FF",
  "1; c #E82525FF",
  "<j c #E84949FF",
  "<3 c #E84E4EFF",
  "<< c #E84F4FFF",
  "<& c #E85B5BFF",
  ",Q c #E86060FF",
  "<I c #E92222FF",
  "1O c #E92323FF",
  "<x c #E93737FF",
  "<z c #E94141FF",
  "<e c #E94444FF",
  "<l c #E94747FF",
  "<k c #E94A4AFF",
  "<~ c #E94B4BFF",
  "<9 c #E95555FF",
  "<X c #E95959FF",
  "<. c #E95A5AFF",
  "<* c #E95D5DFF",
  "<U c #EA2323FF",
  "1: c #EA2727FF",
  "1X c #EA4A4AFE",
  "1# c #EA4B4BFE",
  "1t c #EA4D4DFF",
  "12 c #EA4F4FFE",
  "<0 c #EA5656FF",
  "<, c #EA5858FF",
  ",| c #EA5D5DFF",
  "<= c #EA5E5EFF",
  ",} c #EA5F5FFF",
  ",{ c #EA6161FF",
  ",W c #EA6363FF",
  ",` c #EA6464FF",
  ",E c #EA6565FF",
  ",A c #EA6A6AFF",
  ",I c #EA6B6BFF",
  ",S c #EA6C6CFF",
  ",Z c #EA6D6DFF",
  ",N c #EA7272FF",
  "<` c #EB2424FF",
  "<W c #EB2525FF",
  "R/ c #EB2727FF",
  "<E c #EB4747FF",
  "18 c #EB5050FE",
  "<w c #EB5353FF",
  "<q c #EB5858FF",
  "<> c #EB5A5AFF",
  "<: c #EB5B5BFF",
  "<; c #EB5C5CFF",
  "<- c #EB5E5EFF",
  "<8 c #EB6060FF",
  ",[ c #EB6363FF",
  ",' c #EB6464FF",
  ",] c #EB6565FF",
  ",R c #EB6767FF",
  ",T c #EB6969FF",
  ",Y c #EB6A6AFF",
  ",U c #EB6B6BFF",
  ",C c #EB6F6FFF",
  ",V c #EB7070FF",
  ",B c #EB7171FF",
  "<Q c #EC2525FF",
  "<' c #EC2626FF",
  "R5 c #EC2727FF",
  "15 c #EC3434FF",
  "<! c #EC4848FF",
  "<2 c #EC5757FF",
  "<$ c #EC6969FF",
  ",M c #EC7575FF",
  ",g c #EC7777FF",
  ",f c #EC7878FF",
  "1+ c #ED2626FF",
  "<] c #ED2727FF",
  "16 c #ED3434FF",
  ",! c #ED6A6AFE",
  ",L c #ED7070FE",
  ",e c #ED7A7AFF",
  ",h c #ED7E7EFF",
  "RD c #EE2828FF",
  ",l c #EE7878FE",
  ",8 c #EE7F7FFF",
  ",d c #EE8383FF",
  "14 c #EF4D4DFF",
  "<% c #EF7B7BFF",
  ",p c #EF7E7EFE",
  "17 c #F04E4EFF",
  "1o c #F05A5AFF",
  "1= c #F06161FF",
  "1@ c #F15B5BFF",
  "1- c #F25D5DFF",
  "1> c #F25E5EFF",
  "<p c #F26B6BFF",
  ",j c #F28F8FFF",
  ",s c #F29595FF",
  "1y c #F36C6CFF",
  ",F c #F38A8AFF",
  ",n c #F39090FF",
  "EX c #F46E6EFF",
  ",P c #F49494FF",
  "Ew c #F57878FF",
  "<7 c #F58A8AFF",
  ",D c #F59393FF",
  ",m c #F59B9BFF",
  "13 c #F67575FF",
  "1u c #F67979FF",
  "<g c #F68787FF",
  "<o c #F69494FF",
  ",w c #F6A3A3FF",
  ",_ c #F79D9DFF",
  ",9 c #F7A7A7FF",
  ",k c #F9A9A9FF",
  ",a c #F9B0B0FF",
  ",q c #F9B4B4FF",
  ",0 c #FAB5B5FF",
  "   c none",
  
  // Image data
  "                                                                ",
  "                                                                ",
  "                                                                ",
  "                                                                ",
  "                                                                ",
  "                          @.:k@:+r@2*!                          ",
  "                      *!@=+N+N+N+N+N+N+/@m@M                    ",
  "                    *'+N,,,<,1,2,3,1,<,,+N+g*!                  ",
  "                +j,4,5,6,7,8,9,0,q,w,e,r,6,5:[,t                ",
  "                ,y,u,i,p,a,s,d,f,g,h,j,k,l,i,u,z,x              ",
  "              ,c,v,b,n,m,M,N,B,V,C,Z,A,S,D,F,G,v,H+j            ",
  "              ,J,K,L,P,A,I,U,U,Y,T,R,E,W,Q,F,!,K,~,^            ",
  "            ,/,(,),_,`,W,W,',],',[,{,},|<.<X<o<O,(<+            ",
  "            <@<#<$<%<&<*<=<-<-<-<;<:<><,<<<1<2<3<48S+j          ",
  "            <5<6<7<8<9<0<,<q<q<2<w<e<r<t<y<u<i<p<a<s<F          ",
  "            <d<f<g<h<j<k<l<z<x<c<v<b<n<m<M<y<NEw<f<B<V          ",
  "            <C<fEw<Z<y<M<m<b<v<A<A<A<v<b<m<M<SEw<f<D<G          ",
  "            <H<J<p<K<L<P<b<A<I<U<U<U<I<A<b<P<Y<p<J<TcW          ",
  "            r#<R<k<E<M<n<v<I<U<W<Q<W<U<I<v<n<!<~<^</            ",
  "            +j<(<)EX<_<b<A<I<`<'<]<'<`<I<A<[EX<)<{<}            ",
  "              <|1.1X1o<b<A1O<W1+RD1+<W1O<A1@1#1$1%cW            ",
  "              @>1&1*1=1-1;<I<`<Q<'<Q<`1:1>1=1*1,>b              ",
  "                {n1<1112131415R/R5161713181910:n                ",
  "                +j1q1w1e1r1t1y1u1u1y1t1i1e1p1a+j+j              ",
  "            +j+j@M@.8]1s1d1f1g1h1h1g1j1k1l1z@.@.@M+j+j          ",
  "            +j@M@M@.@X@N1x1c1v1%1b1n:x1m@N@N@X@.@M@M+j          ",
  "              +j@M@M@.@.@X@X@N@N@N@N@N@X@X@.@.@M@M+j            ",
  "                    +j+j+j@M@M@M@M@M@M+j+j+j                    ",
  "                                                                ",
  "                                                                ",
  "                                                                ",
  "                                                                "
};
