/* XPM */
const char *xpm_tango_actions_media_skip_forward[] = {
  // Header (width height colors chars-per-pixel)
  "32 32 221 2",
  
  // Colors (code mode value)
  "+j c #00000001",
  "@M c #00000002",
  "@. c #00000003",
  "@X c #00000004",
  "@C c #00000007",
  "*! c #00000008",
  "*7 c #00000009",
  "@2 c #0000000E",
  "@: c #00000010",
  "@V c #00000011",
  "+r c #00000012",
  "@m c #00000013",
  "+k c #00000016",
  "*k c #00000017",
  "*Q c #0000001D",
  "9b c #0000001E",
  "@6 c #00000020",
  "*. c #00000022",
  "+/ c #00000023",
  "*` c #00000024",
  "*~ c #00000025",
  "5: c #07070725",
  "4, c #0C0C0C2B",
  "2Y c #0D0D0D28",
  ":[ c #0E0E0E24",
  "2X c #0F0F0F22",
  ":G c #14141432",
  "4w c #15151531",
  "56 c #181D1835",
  "54 c #191D1934",
  "2] c #1D1D1D23",
  "2- c #1F1F1F21",
  ";w c #1F1F1F3A",
  "3X c #24242423",
  ">@ c #27272721",
  "3% c #2B2B2B06",
  "2O c #2D2D2D22",
  "5< c #2F2F2C56",
  "5# c #31312F5D",
  "3$ c #3131311A",
  "3& c #35353522",
  "29 c #38383820",
  ",^ c #3B3B3B0D",
  "3- c #3B3B3B1A",
  "5- c #3C3E3A84",
  "2U c #3D3F3C8D",
  "3; c #3E3E3E21",
  ">; c #40404008",
  "59 c #40423E7B",
  "4v c #4141412F",
  ":e c #4242421F",
  "5q c #42444088",
  "5C c #44444422",
  "31 c #46464621",
  "41 c #464742F2",
  ":S c #464743FF",
  "5z c #464B4633",
  "53 c #474944AF",
  "5j c #474D4732",
  "5& c #484845B9",
  "8# c #49494907",
  "5e c #494A46F2",
  "5D c #4B4B4B22",
  "3q c #4B4C47FF",
  "2R c #4B4C48E4",
  "35 c #4B4C48FF",
  "5, c #4B4D48DF",
  "5L c #4D4D4D14",
  "5R c #4D4D4D1E",
  "5P c #4D4D4D21",
  "34 c #50505020",
  "4A c #5151512F",
  ":' c #51524EF3",
  "5= c #52534EF4",
  "50 c #53544FF3",
  "5y c #545550F2",
  "58 c #545550F3",
  "#P c #55555503",
  "5w c #555652F4",
  "1} c #565752FF",
  "1| c #575853FF",
  "5p c #5858547A",
  "2N c #5858581A",
  "2A c #58585820",
  "4L c #5959532E",
  "5s c #595B5587",
  "4| c #5B5B5B0E",
  "5( c #5E5E5E1E",
  "5t c #5F605BFF",
  "5f c #5F605CF2",
  "4E c #6060602D",
  "3g c #61625DFF",
  "5b c #62625F53",
  "3a c #62635EFF",
  "5) c #6363631F",
  "5m c #65655F53",
  "52 c #656562F7",
  "2F c #6666660F",
  "5| c #66666614",
  "5a c #676864F3",
  "5i c #686965F3",
  "2I c #6A6A6A1D",
  "5d c #6A6B65F4",
  "4c c #6A6B66F2",
  "5K c #6B6B6637",
  "3v c #6C6D68FF",
  "<B c #6D6D6D0E",
  "5} c #6D6D6D1C",
  "5` c #6D6D6D23",
  "3l c #6D6E69FF",
  "5l c #6E6F6AAE",
  "5h c #6E6F6BAE",
  "5% c #6F706DF6",
  "6. c #70707010",
  "4( c #7171712D",
  "3p c #7373731F",
  "5x c #73766FF3",
  "5] c #75757523",
  "4Z c #757771F2",
  "5O c #7777771E",
  "3F c #777973FF",
  "3V c #787A74FF",
  "5S c #7A7C7682",
  "5V c #7C7C7682",
  "5n c #7C7C77DE",
  "5[ c #7C7C7C25",
  "5v c #7C7D76DE",
  "5M c #7D7F7AF3",
  "@> c #80808002",
  "5G c #81837DF2",
  "3R c #82847EFF",
  "3K c #83857FFF",
  "5k c #848580F7",
  "5g c #858681F7",
  "5~ c #8787845B",
  "5W c #8789845B",
  "5F c #898B85F3",
  "5A c #8A8C86F4",
  "5B c #8B8D87F4",
  "5T c #8C8E87F2",
  "5U c #8D9089B7",
  "5J c #8D9189B7",
  "3) c #8E8F89FF",
  "3! c #8F9089FF",
  "5Y c #94958FF3",
  "5> c #969694F7",
  "5/ c #989991F2",
  "2Z c #999B93FF",
  "5! c #9A9B95E4",
  "3[ c #9A9C94FF",
  "5E c #9B9D96E4",
  "5_ c #9C9E968B",
  "5' c #9EA0988B",
  "5^ c #9EA099F3",
  "5$ c #A2A3A0F7",
  "5@ c #A3A4A1F7",
  "5{ c #A3A59DFF",
  "2J c #A4A69EFF",
  "2P c #A5A79FFF",
  "5I c #A6A9A3F6",
  "5H c #A7AAA4F6",
  "5c c #B3B5B1F7",
  "3Z c #B4B4B1F7",
  "57 c #C0C1BFFB",
  "rT c #C1C2BFFB",
  "5* c #C7C9C6FC",
  "5u c #C8C9C6FB",
  "5Q c #CCCECAF6",
  "3{ c #CDCECAF6",
  "5Z c #DDDEDBFB",
  "5N c #DDDEDCFB",
  "5r c #E3E4E2FF",
  "55 c #E5E7E5FF",
  "51 c #E6E7E5FF",
  ";A c #E6E9E4FF",
  "}I c #E8EAE6FF",
  "1' c #E8EBE7FF",
  "36 c #E8EBE8FF",
  ">d c #EAEBEAFF",
  ":Q c #EAECE8FF",
  "3u c #EAECE9FF",
  "5; c #EBECEAFF",
  "Wt c #EBECEBFF",
  ">. c #EBEDEAFF",
  "}l c #ECEDEAFF",
  ";r c #ECEEEAFF",
  ";P c #ECEEEBFF",
  ";x c #EDEFECFF",
  ";p c #EEF0EDFF",
  ";a c #EFF1EDFF",
  "k7 c #EFF1EEFF",
  "4[ c #F0F1EFFF",
  ";z c #F0F2EFFF",
  "f8 c #F1F2F0FF",
  ";E c #F1F3F0FF",
  ";l c #F1F3F1FF",
  "}8 c #F2F3F1FF",
  ";W c #F2F4F2FF",
  "Xg c #F3F4F1FF",
  "}, c #F3F4F2FF",
  "hE c #F4F4F3FF",
  ";~ c #F4F5F3FF",
  "#) c #F5F5F3FF",
  ">A c #F5F6F5FF",
  "X' c #F7F8F6FF",
  "}/ c #F7F8F7FF",
  ",3 c #F8F8F7FF",
  "37 c #F8F9F8FF",
  "lP c #F9F9F8FF",
  ";N c #F9FAF9FF",
  "}1 c #FBFBFAFF",
  ";Q c #FBFBFBFF",
  "}y c #FCFCFBFF",
  ";7 c #FCFCFCFF",
  ":1 c #FCFDFCFF",
  "}u c #FDFDFCFF",
  "=q c #FDFDFDFF",
  "}% c #FEFEFDFF",
  "=w c #FEFEFEFF",
  ">X c #FFFFFFFF",
  "   c none",
  
  // Image data
  "                                                                ",
  "                                                                ",
  "                                                                ",
  "                                                                ",
  "                                                                ",
  "                                                                ",
  "                                                                ",
  "                                                                ",
  "  +r@6*k@X                +r@6*k@X                @m*`*~*~*~*`@V",
  "  *`:S2U2Y@:+j            *`:S2U2Y@:+j          +j4,:S:S:S:S:S*.",
  "  *~:S5@2R5#9b*!          *~:S5$2R5#9b*!        @M:G:'>X>X>X41+/",
  "  *~:S>X>d5%5&;w+k@.      *~:S>X5;5%5&;w+k@.    @M:G:'=q>.>X41+/",
  "  *~:S>XXg;75*5=5-5:@2    *~:S>XXg;75*5=5-5:@2  @M:G:'=q>.>X41+/",
  "  *~:S>X;P;a}/375>5,5<*Q@C*~:S>X;P;aX'375>5,5<*Q*7:G:'=q>.>X41+/",
  "  *~:S>Xk74[;z#)}y51525354*`:S>Xk74[;z;~}y555253564w:'=q;p>X41*.",
  "  *`35>X;A}I36:Q3u;~;75758593q>X;z;E}8},},37=qrT505q5w=q}8>X5e2X",
  "  :[1|>X3u>.;r>.3u1';x>X5r1|1}>X3u>.;r>.3u1';p>X5r1}5t}%}l>X5y2-",
  "  2]3a>X;l;W;W;Ek7>A}u5u5i5p3g>X;l;W;W;Ek7>A}u5u5a5s5d=wf8>X5f>@",
  "  3X3l>XlP;N,3,3=qWt5g5h5j2O3v>XlP;N,3,3=qWt5k5l5z4v5x=w37>X4c29",
  "  3&3V>X:1}1;7;Q5c5v5b3$3%3&3F>X:1}1;7;Q3Z5n5m3->;4A5M>X}1>X4Z:e",
  "  3;3K>X;N=w5N5B5V5C,^    3;3R>X;N=w5Z5A5S5D,^  @>4L5F=w;~>X5G:e",
  "  313!>XhE5H5J5K5L@>      5P3)>XhE5I5U5K5L@>    @>4E5Y=w;P>X5T5R",
  "  343[3{5E5W2N8#          2A2Z5Q5!5~2N8#        @>4(5^>X>X>X5/5(",
  "  5)2P5_5`4|+j            5)2J5'5]<B+j          +j5[5{5{5{5{5{5}",
  "  2F2I5|#P                2F2I5|#P                6.3p3p3p3p5O<B",
  "                                                                ",
  "                                                                ",
  "                                                                ",
  "                                                                ",
  "                                                                ",
  "                                                                ",
  "                                                                "
};
