/* XPM */
const char *xpm_tango_actions_media_playback_start[] = {
  // Header (width height colors chars-per-pixel)
  "32 32 176 2",
  
  // Colors (code mode value)
  "+j c #00000001",
  "@. c #00000003",
  "@X c #00000004",
  "&^ c #00000006",
  "@C c #00000007",
  "@B c #0000000A",
  ":k c #0000000C",
  "@V c #00000011",
  "+k c #00000016",
  "*k c #00000017",
  "@5 c #0000001A",
  "+| c #0000001B",
  "@= c #0000001C",
  "9b c #0000001E",
  "@6 c #00000020",
  "*~ c #00000025",
  ";y c #07070726",
  ":{ c #0E0E0E12",
  ":[ c #0E0E0E24",
  ":) c #0E0E0E25",
  ":( c #1010102F",
  ":G c #14141432",
  ":W c #26262244",
  "># c #2727270D",
  ">@ c #27272721",
  ":} c #29292925",
  ":A c #2A2A2649",
  ":I c #3535325C",
  ">+ c #3C3F3C55",
  ":] c #40403E7C",
  ">; c #40404008",
  ":K c #41433F85",
  ">= c #4448443C",
  ">$ c #45454525",
  ">- c #4646461D",
  ":S c #464743FF",
  ":Z c #494B45AE",
  ":/ c #494B48A0",
  ">9 c #4A4B47FF",
  ">w c #4A4C47FF",
  ":F c #4B4C49AB",
  ":E c #4F4F4BC8",
  ":P c #4F514DE5",
  ">a c #50514DFF",
  ">* c #51514FBF",
  ":' c #51524EF3",
  ">O c #52524DDE",
  ":J c #525350F5",
  ">4 c #535450FF",
  ">5 c #5456528C",
  "#P c #55555503",
  ">l c #555652FF",
  ">0 c #5757546D",
  ">m c #5B5C57FF",
  ">y c #5E605BA0",
  ":^ c #5F5F5CF9",
  "<N c #60606008",
  ">: c #60606025",
  ">Z c #60615CFF",
  ">g c #62625FC6",
  ":D c #636360FA",
  ">x c #656662E4",
  ">t c #656761F9",
  ">J c #666762FF",
  ">N c #696B66F5",
  ">Y c #6B6C67FF",
  ">& c #6F706CFA",
  ">Q c #70726CFF",
  ">6 c #75757525",
  ">L c #767771CF",
  ">R c #777972E8",
  ":R c #787A77F9",
  ">B c #797B7781",
  ">c c #7A7A775C",
  ">D c #7B7C78A8",
  ">S c #7C7D78F9",
  ">! c #7C7E79F7",
  ">f c #7E807CFA",
  "@> c #80808002",
  ">h c #82827D3F",
  ">u c #8585802E",
  ">~ c #8989868D",
  ">q c #91919125",
  ">/ c #91938D7F",
  ">i c #92929215",
  ">E c #94969164",
  ">K c #959692FA",
  ">o c #959693FA",
  ":L c #9C9E9AFA",
  ">j c #A7A7A71D",
  ">z c #AAABA9FA",
  ">P c #ABABA846",
  ">p c #ACACAC25",
  "{^ c #B6B6B607",
  ">8 c #B7B7B6FC",
  ">T c #B8B9B6FB",
  ":` c #BABBB8FD",
  ":H c #C1C2C1FE",
  ">b c #C8C8C80E",
  ">k c #C8C8C825",
  ">v c #CBCBCB22",
  ">( c #CBCBCB36",
  ">M c #CCCCCBFD",
  ">F c #CDCDCD33",
  ">3 c #D0D1CFFE",
  ":~ c #D2D3D1FF",
  "Bp c #D7D8D6FF",
  ">V c #DEDEDE27",
  "%: c #E1E1DFFF",
  ">1 c #E2E5E0FF",
  ">n c #E3E3E325",
  ">< c #E3E6E1FF",
  ">% c #E4E6E4FF",
  ":T c #E6E8E5FF",
  ";V c #E6E9E5FF",
  ">C c #E7E7E715",
  ";Z c #E7E9E5FF",
  ">7 c #E7EAE6FF",
  "}I c #E8EAE6FF",
  ":U c #E9EBE7FF",
  ">, c #E9ECE8FF",
  ">d c #EAEBEAFF",
  ":Q c #EAECE8FF",
  ":_ c #EAEDE9FF",
  "|- c #EBEDE9FF",
  ">. c #EBEDEAFF",
  ">X c #EBEDEBFF",
  ";L c #EBEEEAFF",
  ">^ c #ECECEC29",
  ";r c #ECEEEAFF",
  ";P c #ECEEEBFF",
  ";t c #EDEEEDFF",
  ">e c #EDEFEBFF",
  ";x c #EDEFECFF",
  ":Y c #EDF0ECFF",
  "3B c #EEEFECFF",
  ">2 c #EEEFEDFF",
  ";p c #EEF0EDFF",
  ":! c #EEF0EEFF",
  "k7 c #EFF1EEFF",
  ">> c #EFF1EFFF",
  "4[ c #F0F1EFFF",
  ";z c #F0F2EFFF",
  ",0 c #F1F1F0FF",
  "f8 c #F1F2F0FF",
  ";E c #F1F3F0FF",
  ";k c #F2F4F1FF",
  "}, c #F3F4F2FF",
  ":3 c #F4F4F4FF",
  ";~ c #F4F5F3FF",
  ">r c #F4F5F4FF",
  ":| c #F4F6F4FF",
  "3] c #F5F6F4FF",
  ">A c #F5F6F5FF",
  ";K c #F6F7F5FF",
  ">s c #F6F7F6FF",
  "X' c #F7F8F6FF",
  "}/ c #F7F8F7FF",
  ";R c #F8F8F8FF",
  "37 c #F8F9F8FF",
  "lP c #F9F9F8FF",
  ";N c #F9FAF9FF",
  "38 c #FAFBFAFF",
  "58 c #FDFEFDFF",
  ":C c #FFFFFF02",
  ">` c #FFFFFF03",
  ">' c #FFFFFF05",
  ">H c #FFFFFF07",
  ">U c #FFFFFF0E",
  ">) c #FFFFFF0F",
  ">W c #FFFFFF16",
  ">G c #FFFFFF1D",
  ">I c #FFFFFF22",
  ">_ c #FFFFFF23",
  ":7 c #FFFFFF25",
  "   c none",
  
  // Image data
  "                                                                ",
  "                                                                ",
  "                                                                ",
  "                                                                ",
  "                                                                ",
  "              @59b@B                                            ",
  "              *~:Z:A+|&^                                        ",
  "              *~:S:D:F:G+k@.                                    ",
  "              *~:S38:H:J:K;y@V+j                                ",
  "              *~:S;~;L;P:L:P:I@6:k                              ",
  "              *~:S;~:U:U:Y:T:R:E:W@=@C                          ",
  "              *~:S;~:U:U:U:Q:!:~:^:/:(*k@X                      ",
  "              :):S;~:U:U:U:U:U:_k7:`:':]:[:{+j                  ",
  "              :}:S:|:_|->.>.>.>.|-3B>X>o>O>+>@>#                ",
  "              >$:S;K;x;p;p;p;p;p;p;p;pf8>%>&>*>=>->;            ",
  "              >::S}/;zf8;E;z>>;x;r>,;V><>1>2>3>4>5>:<N          ",
  "              >6:S;K>7:U:U>,:Q:Q>,:U}I;Z>,,0>8>9>0>6#P          ",
  "              >q>w}/>.>e;pk74[;z4[k7k7>rBp>t>y>u>i@>            ",
  "              >p>a37;pf8},:|;K>s>s;N>d>f>g>h>j{^                ",
  "              >k>llP4[;k3]}/3858:3>z>x>c>v>b                    ",
  "              >n>m37;pf8},X';R>M>N>B>V>C:C                      ",
  "              :7>Z}/|-;p>A%:>S>D>F>G>H                          ",
  "              :7>J;Kk7;t>K>L>P>I>U                              ",
  "              :7>Y;N>T>R>E:7>W:C                                ",
  "              :7>Q>!>~>^>G>H                                    ",
  "              :7>/>(>I>)                                        ",
  "              >_:7>W>`                                          ",
  "              >'>H                                              ",
  "                                                                ",
  "                                                                ",
  "                                                                ",
  "                                                                "
};
