/* XPM */
const char *xpm_tango_actions_media_skip_backward[] = {
  // Header (width height colors chars-per-pixel)
  "32 32 221 2",
  
  // Colors (code mode value)
  "+j c #00000001",
  "@. c #00000003",
  "@X c #00000004",
  "@C c #00000007",
  "*7 c #00000009",
  ":l c #0000000F",
  "@V c #00000011",
  "+r c #00000012",
  "*k c #00000017",
  "=N c #00000018",
  "*Q c #0000001D",
  "9b c #0000001E",
  "@6 c #00000020",
  "*. c #00000022",
  "+/ c #00000023",
  "*` c #00000024",
  "*~ c #00000025",
  ";y c #07070726",
  "._ c #08080822",
  "4, c #0C0C0C2B",
  ":[ c #0E0E0E24",
  "2X c #0F0F0F22",
  ":G c #14141432",
  "4w c #15151531",
  "4e c #1C1C1C36",
  "2] c #1D1D1D23",
  "2- c #1F1F1F21",
  "44 c #21211D3D",
  "20 c #24242407",
  "3X c #24242423",
  ">@ c #27272721",
  "2O c #2D2D2D22",
  "49 c #31312E59",
  "42 c #32322F61",
  "3& c #35353522",
  "29 c #38383820",
  "24 c #3939391B",
  ",^ c #3B3B3B0D",
  "3; c #3E3E3E21",
  "47 c #3F3F3C89",
  "4< c #3F3F3C99",
  "4v c #4141412F",
  "4a c #42423E7F",
  ":e c #4242421F",
  "4U c #42424223",
  "4i c #4545428C",
  "31 c #46464621",
  "41 c #464742F2",
  ":S c #464743FF",
  "45 c #484945BD",
  "4r c #484A45B4",
  "8# c #49494907",
  "2k c #49494915",
  "4P c #49494923",
  "4u c #494A45F4",
  "4y c #494A46FF",
  "4b c #4A4A4534",
  "2v c #4A4A4A1F",
  "4N c #4A4A4A34",
  "40 c #4A4D47E2",
  "1V c #4B4C47E8",
  "1Z c #4B4C49E7",
  "1G c #4B4D48FA",
  "2t c #4E4E4E0D",
  "1^ c #4E514BFB",
  "34 c #50505020",
  "4A c #5151512F",
  "1] c #52534EFA",
  "4p c #52534FF5",
  "4s c #53544FF5",
  "1K c #535450F5",
  "4d c #545651FF",
  "#P c #55555503",
  "4g c #555651FF",
  "1} c #565752FF",
  "1| c #575853FF",
  "2N c #5858581A",
  "2A c #58585820",
  "4z c #585A547F",
  "4L c #5959532E",
  "4j c #5A5C568B",
  "4| c #5B5B5B0E",
  "2. c #5C5E58FB",
  "4h c #5F605BF4",
  "1x c #60606008",
  "3y c #60606020",
  "4E c #6060602D",
  ">Z c #60615CFF",
  ":t c #6161611D",
  "4G c #64646157",
  "4S c #64676157",
  "4] c #6666661E",
  "2$ c #666762FB",
  "2= c #676863FA",
  "4t c #686964F7",
  "4k c #686965F5",
  "4x c #696A66F5",
  "2I c #6A6A6A1D",
  "4c c #6A6B66F2",
  ">Y c #6B6C67FF",
  "4W c #6B706B39",
  "4n c #6C6D69B4",
  "<B c #6D6D6D0E",
  "4B c #6D6F69B4",
  "4! c #70706B39",
  "4( c #7171712D",
  "2< c #71736DFA",
  "5. c #72727226",
  "23 c #72746EFA",
  "1F c #727570F5",
  "5+ c #73737314",
  "3p c #7373731F",
  ">6 c #75757525",
  "4Z c #757771F2",
  "4C c #767772FF",
  "5o c #7777770F",
  "5O c #7777771E",
  "4{ c #79797926",
  "4D c #7A7C76E1",
  "4H c #7C7D77E1",
  "28 c #7C7E78FA",
  "4I c #7D7F7787",
  "4Y c #7D7F7987",
  "2r c #7D8079FA",
  "4J c #81837CFF",
  "4K c #82837DF2",
  "4m c #868882F7",
  "4V c #878883F7",
  "2s c #878984FA",
  "2j c #888A84FA",
  "4) c #8989845D",
  "4` c #898C865D",
  "2i c #8B8E87F5",
  "4T c #8C8E87FF",
  "4R c #8D8E88F2",
  "2g c #8D8F88F5",
  "4Q c #8E9089BC",
  "4~ c #8E918ABC",
  "2c c #92938CFA",
  "2M c #92948DFA",
  "4^ c #989992FF",
  "4/ c #989A91F2",
  "2Z c #999B93FF",
  "2V c #999C94E7",
  "2D c #9A9B94FF",
  "4q c #9A9C98F7",
  "2S c #9B9D95E7",
  "43 c #9C9D9AF8",
  "1C c #9D9E9BF8",
  "5X c #9FA29A97",
  "4} c #A0A29B97",
  "4[ c #A3A59DFF",
  "2J c #A4A69EFF",
  "2P c #A5A79FFF",
  "2x c #A9ABA5F5",
  "2m c #AAACA7F5",
  "4F c #B6B8B4F7",
  "27 c #B7B8B5F7",
  "1) c #C2C4C1FC",
  "4_ c #C9CAC6F8",
  "4l c #CACAC8FC",
  "4' c #CACBC6F8",
  "2# c #CACBC8FC",
  "48 c #CBCDCAFC",
  "2p c #DFE0DEFC",
  "2h c #E0E0DEFC",
  ";V c #E6E9E5FF",
  "Ba c #E7E8E7FF",
  "@: c #E7E9E7FF",
  "6$ c #E8E8E7FF",
  "1W c #E8E9E7FF",
  "1` c #E8EAE7FF",
  "1' c #E8EBE7FF",
  ":U c #E9EBE7FF",
  "fG c #E9EBE8FF",
  "1_ c #E9ECE7FF",
  "3u c #EAECE9FF",
  "|- c #EBEDE9FF",
  ">. c #EBEDEAFF",
  ";L c #EBEEEAFF",
  "}l c #ECEDEAFF",
  "4M c #ECEDECFF",
  ";r c #ECEEEAFF",
  ";P c #ECEEEBFF",
  "4f c #ECEFECFF",
  "1Y c #EEF0ECFF",
  ";p c #EEF0EDFF",
  "k7 c #EFF1EEFF",
  "46 c #F0F1F0FF",
  ";z c #F0F2EFFF",
  ",0 c #F1F1F0FF",
  "|j c #F1F2EFFF",
  "f8 c #F1F2F0FF",
  ";E c #F1F3F0FF",
  ";l c #F1F3F1FF",
  "}8 c #F2F3F1FF",
  ";k c #F2F4F1FF",
  ";W c #F2F4F2FF",
  "}, c #F3F4F2FF",
  ";! c #F3F5F3FF",
  ";~ c #F4F5F3FF",
  ":| c #F4F6F4FF",
  "3] c #F5F6F4FF",
  "c~ c #F7F7F6FF",
  "X' c #F7F8F6FF",
  ",3 c #F8F8F7FF",
  "37 c #F8F9F8FF",
  ";S c #F9F9F9FF",
  "2a c #F9FAF8FF",
  ";N c #F9FAF9FF",
  "3C c #FAFBFAFF",
  "}1 c #FBFBFAFF",
  ";Q c #FBFBFBFF",
  ";^ c #FBFCFBFF",
  ";7 c #FCFCFCFF",
  "}u c #FDFDFCFF",
  "=q c #FDFDFDFF",
  "58 c #FDFEFDFF",
  "=w c #FEFEFEFF",
  ">X c #FFFFFFFF",
  "   c none",
  
  // Image data
  "                                                                ",
  "                                                                ",
  "                                                                ",
  "                                                                ",
  "                                                                ",
  "                                                                ",
  "                                                                ",
  "                                                                ",
  "  +r*`*~*~*~*`+r                @X=N@6@V                @X=N@6@V",
  "  *`:S:S:S:S:S4,            +j@V4,4<:S*.            +j@V4,4<:S*.",
  "  *~:S>X>X>X41:G          *79b421V43:S*~          *79b421Z1C:S*~",
  "  *~:S>X>.>X41:G      @.*k44451F46>X1G+/      @.*k44451F,0>X1G+/",
  "  *~:S>X>.>X41:G    :l;y471K48;7;~=q1G+/    :l;y471K48;7;~=q1G+/",
  "  *~:S>X}l>X41:G@C*Q49404q;SX';p1Y=q1G+/@C*Q49404q;SX';p1Y=q1G+/",
  "  *`:S>Xk7>X414w4e4r4tBa;^;~|j;zf8=q1G*`4e4r4t6$;^;~|j;zf8=q1G+/",
  "  :[4y>X;W>X4u4i4p1)=q37;W;k}8;l;E=q1^4a4s1);7},3u1_fG1`1'=q1]._",
  "  2]4d>X4f>X4g1}@:>X;L;V:U3u>.;r;P=q1}1|1W>X|-;V:U3u>.;r;P=q2.2X",
  "  3X>Z>X;W>X4h4j4k4l}u;!;Pk7;E;W;!=w2$4z4x2#}u;!;Pk7;E;W;!=w2=2-",
  "  3&>Y>X3C>X4c4v4b4n4m4M;7:|3],3;N=w2<2O4N4B4V4M;7:|3],3;N=w23>@",
  "  3;4C>X3C>X4Z4A8#244S4D4F;Q;Q37}1=w282920244G4H27;Q;Q37}1=w2r29",
  "  314J>X},>X4K4L    2t4P4I2i2p582a=w2s:e    ,^4U4Y2g2h582a=w2j:e",
  "  344T>X|->X4R4E      #P2k4W4Q2xc~>X2c2v      #P2k4!4~2mc~>X2M:e",
  "  3y4^>X>X>X4/4(          1x2N4)2V4_2Z2A          1x2N4`2S4'2D2A",
  "  4]4[4[4[4[4[>6            +j<B4{4}2J:t            +j4|5.5X2P:t",
  "  5o5O3p3p3p5O5o                #P5+2I<B                #P5+2I<B",
  "                                                                ",
  "                                                                ",
  "                                                                ",
  "                                                                ",
  "                                                                ",
  "                                                                ",
  "                                                                "
};
