/* XPM */
const char *xpm_tango_actions_media_seek_backward[] = {
  // Header (width height colors chars-per-pixel)
  "32 32 182 2",
  
  // Colors (code mode value)
  "+j c #00000001",
  "@M c #00000002",
  "@. c #00000003",
  "@X c #00000004",
  "@N c #00000005",
  "*! c #00000008",
  "*7 c #00000009",
  ":l c #0000000F",
  "@V c #00000011",
  "*' c #00000015",
  "*k c #00000017",
  "=N c #00000018",
  "*Q c #0000001D",
  "&V c #0000001F",
  "@6 c #00000020",
  "*. c #00000022",
  "+/ c #00000023",
  "*` c #00000024",
  "*~ c #00000025",
  "1H c #07070727",
  "._ c #08080822",
  "1M c #0C110C2C",
  "1[ c #0F0F0F11",
  "2X c #0F0F0F22",
  "1Q c #14141426",
  "1T c #1B1B1B38",
  "2- c #1F1F1F21",
  "1S c #2121213E",
  "20 c #24242407",
  ">@ c #27272721",
  "2O c #2D2D2D22",
  "1P c #30302D5A",
  "2o c #33333305",
  "2; c #33333314",
  "1B c #34343163",
  "29 c #38383820",
  "24 c #3939391B",
  ",^ c #3B3B3B0D",
  "1J c #3E403D8B",
  "1N c #3F403D9B",
  "1/ c #41433F81",
  ":e c #4242421F",
  "1! c #43434181",
  ":S c #464743FF",
  "2: c #47474236",
  "1D c #474844BE",
  "1R c #484945B5",
  "2d c #49494223",
  "8# c #49494907",
  "2k c #49494915",
  "2v c #4A4A4A1F",
  "1I c #4A4B48E3",
  "1V c #4B4C47E8",
  "1Z c #4B4C49E7",
  "1G c #4B4D48FA",
  "1{ c #4E4E4A83",
  "2t c #4E4E4E0D",
  "1^ c #4E514BFB",
  "2y c #50504923",
  "1] c #52534EFA",
  "1K c #535450F5",
  "1( c #545550F5",
  "#P c #55555503",
  "1} c #565752FF",
  "1| c #575853FF",
  "2N c #5858581A",
  "2A c #58585820",
  "2% c #585C5680",
  "2+ c #5A5A5680",
  "2. c #5C5E58FB",
  "1x c #60606008",
  ":t c #6161611D",
  "2q c #63636058",
  "25 c #65656358",
  "2F c #6666660F",
  "2$ c #666762FB",
  "2= c #676863FA",
  "2@ c #686964F5",
  "2& c #696A65F5",
  "1E c #696A66F6",
  "2I c #6A6A6A1D",
  "2> c #6C6E68B5",
  "21 c #6C6E6AB5",
  "<B c #6D6D6D0E",
  "<z c #6D6D6D15",
  "2l c #6E6E6A3A",
  "2b c #6E6E6E3A",
  "2< c #71736DFA",
  "23 c #72746EFA",
  "1F c #727570F5",
  "2K c #76767627",
  "26 c #7B7C76E2",
  "2G c #7C7C7C27",
  "2w c #7C7D78E2",
  "2f c #7C7E7888",
  "28 c #7C7E78FA",
  "2r c #7D8079FA",
  "2u c #7E807888",
  "2s c #878984FA",
  "2, c #888984F6",
  "2j c #888A84FA",
  "22 c #888A85F6",
  "2B c #8A8A8560",
  "2i c #8B8E87F5",
  "2z c #8C8E88BD",
  "2g c #8D8F88F5",
  "2n c #8E8F88BD",
  "2c c #92938CFA",
  "2M c #92948DFA",
  "2Z c #999B93FF",
  "2V c #999C94E7",
  "2D c #9A9B94FF",
  "1U c #9B9C99F7",
  "2S c #9B9D95E7",
  "1C c #9D9E9BF8",
  "2H c #9EA39998",
  "1A c #9FA09DF7",
  "2L c #9FA19A98",
  "2J c #A4A69EFF",
  "2P c #A5A79FFF",
  "2x c #A9ABA5F5",
  "cW c #AAAAAA03",
  "2m c #AAACA7F5",
  "27 c #B7B8B5F7",
  "2e c #B8B8B5F7",
  "1) c #C2C4C1FC",
  "1~ c #C3C4C1FC",
  "2C c #CACAC7F7",
  "2# c #CACBC8FC",
  "2* c #CACBC9FC",
  "1L c #CCCDCAFC",
  "2p c #DFE0DEFC",
  "2h c #E0E0DEFC",
  ";V c #E6E9E5FF",
  "1W c #E8E9E7FF",
  "1` c #E8EAE7FF",
  "1' c #E8EBE7FF",
  ":U c #E9EBE7FF",
  "fG c #E9EBE8FF",
  "1_ c #E9ECE7FF",
  "39 c #EAECE9FF",
  "|- c #EBEDE9FF",
  ">. c #EBEDEAFF",
  ";L c #EBEEEAFF",
  ";r c #ECEEEAFF",
  ";P c #ECEEEBFF",
  "ld c #EDEDECFF",
  "1Y c #EEF0ECFF",
  ";p c #EEF0EDFF",
  "k7 c #EFF1EEFF",
  ";z c #F0F2EFFF",
  ",0 c #F1F1F0FF",
  "|j c #F1F2EFFF",
  "f8 c #F1F2F0FF",
  ";E c #F1F3F0FF",
  ";l c #F1F3F1FF",
  "}8 c #F2F3F1FF",
  ";k c #F2F4F1FF",
  ";W c #F2F4F2FF",
  "}, c #F3F4F2FF",
  ";! c #F3F5F3FF",
  ";~ c #F4F5F3FF",
  ":| c #F4F6F4FF",
  "3] c #F5F6F4FF",
  "c~ c #F7F7F6FF",
  ":9 c #F7F7F7FF",
  "X' c #F7F8F6FF",
  ",3 c #F8F8F7FF",
  "37 c #F8F9F8FF",
  ";S c #F9F9F9FF",
  "2a c #F9FAF8FF",
  ";N c #F9FAF9FF",
  "}1 c #FBFBFAFF",
  ";Q c #FBFBFBFF",
  ";^ c #FBFCFBFF",
  ";7 c #FCFCFCFF",
  "}u c #FDFDFCFF",
  "=q c #FDFDFDFF",
  "58 c #FDFEFDFF",
  "=w c #FEFEFEFF",
  ">X c #FFFFFFFF",
  "   c none",
  
  // Image data
  "                                                                ",
  "                                                                ",
  "                                                                ",
  "                                                                ",
  "                                                                ",
  "                                                                ",
  "                                                                ",
  "                                                                ",
  "                          @X=N@6@V                @X=N@6@V      ",
  "                      +j@V1M1N:S*.            +j@V1M1N:S*.      ",
  "                    *7&V1B1V1C:S*~          *7&V1B1Z1A:S*~      ",
  "                @.*k1S1D1F,0>X1G+/      @.*k1S1D1F,0>X1G+/      ",
  "              :l1H1J1K1L;7;~=q1G+/    :l1H1J1K1L;7;~=q1G+/      ",
  "          *!*Q1P1I1U;SX';p1Y=q1G+/*!*Q1P1I1U;SX';p1Y=q1G+/      ",
  "      @M*'1T1R1E1W;^;~|j;zf8=q1G*`1T1R1E1W;^;~|j;zf8=q1G+/      ",
  "    @N1Q1!1K1~=q37;W;k}8;l;E=q1^1/1(1);7},391_fG1`1'=q1]._      ",
  "    1[1{1}1W>X;L;V:U39>.;r;P=q1}1|1W>X|-;V:U39>.;r;P=q2.2X      ",
  "    2o2O2+2@2#}u;!;Pk7;E;W;!=w2$2%2&2*}u;!;Pk7;E;W;!=w2=2-      ",
  "      @M2;2:2>2,ld;7:|3],3;N=w2<2O2:2122ld;7:|3],3;N=w23>@      ",
  "          8#24252627;Q;Q37}1=w282920242q2w2e;Q;Q37}1=w2r29      ",
  "              2t2y2u2i2p582a=w2s:e    ,^2d2f2g2h582a=w2j:e      ",
  "                #P2k2l2z2xc~>X2c2v      #P2k2b2n2m:9>X2M:e      ",
  "                    1x2N2B2V2C2Z2A          1x2N2B2S2C2D2A      ",
  "                      +j2F2G2H2J:t            +j2F2K2L2P:t      ",
  "                          cW<z2I<B                #P<z2I<B      ",
  "                                                                ",
  "                                                                ",
  "                                                                ",
  "                                                                ",
  "                                                                ",
  "                                                                ",
  "                                                                "
};
