/* XPM */
const char *xpm_tango_actions_media_playback_stop[] = {
  // Header (width height colors chars-per-pixel)
  "32 32 100 2",
  
  // Colors (code mode value)
  "@5 c #0000001A",
  "*` c #00000024",
  "*~ c #00000025",
  ":9 c #0F0F0F23",
  ":0 c #1E1E1E22",
  ":q c #2E2E2E21",
  ":e c #4242421F",
  ":8 c #545753FF",
  ":r c #5555551E",
  ">] c #585B57F9",
  ">| c #595C58FF",
  ":t c #6161611D",
  ",+ c #626561FF",
  ",$ c #6B6E6AFF",
  ",= c #747772FF",
  ":u c #7676761C",
  ":c c #7D807BFF",
  ":s c #8080801A",
  ":b c #868984FF",
  ":m c #8F928DFF",
  ":N c #989B95FF",
  ":g c #99999919",
  ",* c #AAAAAA18",
  ":x c #B1B1B117",
  ",; c #B9B9B916",
  ":v c #C2C2C215",
  "XC c #D5D8D3FF",
  ",O c #D6D8D2FF",
  ":n c #D9D9D914",
  ",o c #D9DBD5FF",
  ",# c #DADCD7FF",
  "XL c #DBDDD8FF",
  ",X c #DBDED9FF",
  "}L c #DCDDD8FF",
  "|e c #DCDED9FF",
  "|* c #DDDFDAFF",
  "4; c #DEE0DBFF",
  "5_ c #DFE1DCFF",
  "}v c #E0E1DDFF",
  ",& c #E0E2DEFF",
  "|N c #E1E1DEFF",
  ">} c #E1E3DFFF",
  "XE c #E2E3DFFF",
  ":j c #E2E4E0FF",
  ">[ c #E3E4E0FF",
  "|h c #E3E4E1FF",
  ":w c #E3E5E1FF",
  ":M c #E4E4E413",
  "}N c #E4E5E1FF",
  "|3 c #E4E5E2FF",
  "XP c #E5E6E2FF",
  "|. c #E5E6E3FF",
  ">{ c #E5E7E3FF",
  ",@ c #E5E7E4FF",
  ",% c #E6E7E3FF",
  ":y c #E6E7E4FF",
  "}K c #E7E8E5FF",
  ",- c #E7E8E6FF",
  "|X c #E8E9E6FF",
  "|y c #E9EAE7FF",
  "59 c #E9EAE8FF",
  ",. c #EAEBE8FF",
  "X| c #EAEBE9FF",
  ",> c #EBEBEB0D",
  "5; c #EBECEAFF",
  "3f c #ECEDEBFF",
  "ld c #EDEDECFF",
  "5] c #EEEEEDFF",
  "lt c #EFEFEEFF",
  ",0 c #F1F1F0FF",
  ":V c #F1F1F112",
  "}8 c #F2F3F1FF",
  "55 c #F3F3F2FF",
  "}, c #F3F4F2FF",
  "hE c #F4F4F3FF",
  ">r c #F4F5F4FF",
  "c` c #F5F5F4FF",
  "=a c #F5F5F5FF",
  "3] c #F5F6F4FF",
  ">A c #F5F6F5FF",
  "c/ c #F6F6F5FF",
  ">s c #F6F7F6FF",
  "c~ c #F7F7F6FF",
  "X' c #F7F8F6FF",
  "}/ c #F7F8F7FF",
  ",3 c #F8F8F7FF",
  ";R c #F8F8F8FF",
  "37 c #F8F9F8FF",
  "lP c #F9F9F8FF",
  ";S c #F9F9F9FF",
  ";N c #F9FAF9FF",
  "38 c #FAFBFAFF",
  ";Q c #FBFBFBFF",
  "}y c #FCFCFBFF",
  ";7 c #FCFCFCFF",
  "=q c #FDFDFDFF",
  "=w c #FEFEFEFF",
  ",: c #FFFFFF0C",
  ":6 c #FFFFFF12",
  "   c none",
  
  // Image data
  "                                                                ",
  "                                                                ",
  "                                                                ",
  "                                                                ",
  "                                                                ",
  "                                                                ",
  "                                                                ",
  "                                                                ",
  "                @5*~*~*~*~*~*~*~*~*~*~*~*~*~*~*~@5              ",
  "                *`:8>]>]>]>]>]>]>]>]>]>]>]>]>]:8*`              ",
  "                :9:8=q;Q;S;S;S;S;S;S;S;S;S;S=w:8:9              ",
  "                :0:8;7|.:w:w:w:w:w:w:w:w:w:w=q:8:0              ",
  "                :q:8;N:wXEXEXEXEXEXEXEXEXEXE}y:8:q              ",
  "                :e:837:wXEXEXEXEXEXEXEXEXEXE38:8:e              ",
  "                :r:8}/|.:w:w:w|h|h>[>[:j:jXE37:8:r              ",
  "                :t:8c~}K:y:y:y:y>{>{|.|.|.>}c~:8:t              ",
  "                :u>|c~,.|y|y|XXP:j5_,X,oXC,Oc~>|:u              ",
  "                :s,+=a,@:j|N4;4;|*|*|e}LXL,#c/,+:s              ",
  "                :g,$>s,%|3}N|h:jXE>},&}v5_4;3],$:g              ",
  "                ,*,=X'X||y|X,-}K:y|.|3:w:j>}c`,=,*              ",
  "                ,;:c;Rltld3f5;,.|y|X}K:y|.|3c`:c:x              ",
  "                :v:blP,0lt5]3f5;X|59|X}K:y|.hE:b:v              ",
  "                :n:m,3}/c~>sc/>Ac`>rhEhE},55}8:m:n              ",
  "                :M:N:N:N:N:N:N:N:N:N:N:N:N:N:N:N:M              ",
  "                ,::6:6:6:6:6:6:6:6:6:6:6:V:V:V:V,>              ",
  "                                                                ",
  "                                                                ",
  "                                                                ",
  "                                                                ",
  "                                                                ",
  "                                                                ",
  "                                                                "
};
