/* XPM */
const char *xpm_tango_actions_media_playback_pause[] = {
  // Header (width height colors chars-per-pixel)
  "32 32 63 2",
  
  // Colors (code mode value)
  "@5 c #0000001A",
  "*` c #00000024",
  "*~ c #00000025",
  ":9 c #0F0F0F23",
  ":0 c #1E1E1E22",
  ":q c #2E2E2E21",
  ":e c #4242421F",
  ":8 c #545753FF",
  ":r c #5555551E",
  ":i c #5A5D59FF",
  ":t c #6161611D",
  ":d c #626661FF",
  ":h c #6B6F6AFF",
  ":z c #747873FF",
  ":u c #7676761C",
  ":c c #7D807BFF",
  ":s c #8080801A",
  ":b c #868984FF",
  ":k c #8F8F8F19",
  ":m c #8F928DFF",
  ":N c #989B95FF",
  ":g c #99999919",
  ":l c #9F9F9F18",
  ":x c #B1B1B117",
  ":v c #C2C2C215",
  ":n c #D9D9D914",
  ":p c #D9DBD6FF",
  ":a c #DADCD6FF",
  "4; c #DEE0DBFF",
  ":f c #DEE0DCFF",
  "XE c #E2E3DFFF",
  ":j c #E2E4E0FF",
  "|h c #E3E4E1FF",
  ":w c #E3E5E1FF",
  ":M c #E4E4E413",
  "|3 c #E4E5E2FF",
  "|. c #E5E6E3FF",
  ":y c #E6E7E4FF",
  "}K c #E7E8E5FF",
  "59 c #E9EAE8FF",
  "|r c #EBECE9FF",
  "#i c #EDEDEBFF",
  ":B c #EEEEEE0F",
  ":V c #F1F1F112",
  "hE c #F4F4F3FF",
  ";~ c #F4F5F3FF",
  "c` c #F5F5F4FF",
  "3] c #F5F6F4FF",
  "c/ c #F6F6F5FF",
  "c~ c #F7F7F6FF",
  "X' c #F7F8F6FF",
  "}/ c #F7F8F7FF",
  ",3 c #F8F8F7FF",
  "37 c #F8F9F8FF",
  "lP c #F9F9F8FF",
  "g~ c #FAFAF9FF",
  ":5 c #FAFAFAFF",
  "38 c #FAFBFAFF",
  ";7 c #FCFCFCFF",
  "=q c #FDFDFDFF",
  "=w c #FEFEFEFF",
  ":C c #FFFFFF02",
  "   c none",
  
  // Image data
  "                                                                ",
  "                                                                ",
  "                                                                ",
  "                                                                ",
  "                                                                ",
  "                                                                ",
  "                                                                ",
  "                                                                ",
  "                @5*~*~*~*~*~*~@5  @5*~*~*~*~*~*~@5              ",
  "                *`:8:8:8:8:8:8*`  *`:8:8:8:8:8:8*`              ",
  "                :9:8=w3737=q:8:9  :9:8=w3737=q:8:9              ",
  "                :0:8=q|.}K=q:8:0  :0:8=q|.}K=q:8:0              ",
  "                :q:8;7XE:w:5:8:q  :q:8;7XE:w:5:8:q              ",
  "                :e:838XE:wlP:8:e  :e:838XE:wlP:8:e              ",
  "                :r:8g~:w|3,3:8:r  :r:8g~:w|3,3:8:r              ",
  "                :t:837:y|3c~:8:t  :t:837:y|3c~:8:t              ",
  "                :u:i,3:p:a3]:i:u  :u:i,3:p:a3]:i:u              ",
  "                :s:dX'4;:fc`:d:s  :s:dX'4;:fc`:d:s              ",
  "                :g:h}/|h:jc`:h:k  :g:h}/|h:jc`:h:k              ",
  "                :l:z,3}K:yc`:z:l  :l:z,3}K:yc`:z:l              ",
  "                :x:c37|r59c`:c:x  :x:c37|r59c`:c:x              ",
  "                :v:b37#i|r;~:b:v  :v:b37#i|r;~:b:v              ",
  "                :n:m}/c/c`hE:m:n  :n:m}/c/c`hE:m:n              ",
  "                :M:N:N:N:N:N:N:M  :M:N:N:N:N:N:N:M              ",
  "                :B:V:V:V:V:V:V:B  :B:V:V:V:V:V:V:B              ",
  "                  :C:C:C:C:C:C      :C:C:C:C:C:C                ",
  "                                                                ",
  "                                                                ",
  "                                                                ",
  "                                                                ",
  "                                                                ",
  "                                                                "
};
