/* XPM */
const char *xpm_tango_actions_process_stop[] = {
  // Header (width height colors chars-per-pixel)
  "32 32 426 2",
  
  // Colors (code mode value)
  "+j c #00000001",
  "@M c #00000002",
  "@. c #00000003",
  "&^ c #00000006",
  "*! c #00000008",
  "*7 c #00000009",
  "@B c #0000000A",
  "+> c #0000000B",
  "@2 c #0000000E",
  ":l c #0000000F",
  "@: c #00000010",
  "@V c #00000011",
  "+k c #00000016",
  "*k c #00000017",
  "=N c #00000018",
  "+| c #0000001B",
  "@= c #0000001C",
  "*Q c #0000001D",
  "&V c #0000001F",
  "+g c #00000021",
  "+/ c #00000023",
  "er c #00000028",
  ":j c #00000029",
  "*F c #0000002B",
  "9) c #0000002C",
  "ee c #0000002D",
  ":s c #00000031",
  "=( c #00000033",
  "*G c #00000037",
  ",W c #00000039",
  "*/ c #0000003C",
  "B% c #0000003D",
  "3& c #0000003E",
  "9] c #0000003F",
  "9' c #0D00003D",
  "9( c #14000040",
  "9U c #1F000032",
  "9D c #5500001B",
  "9_ c #7200009C",
  "9Y c #7300009F",
  "9F c #79000098",
  "9` c #7C0000C8",
  "9/ c #7D0000D0",
  "9I c #810000D5",
  "9u c #83000021",
  "9N c #8400008D",
  "6X c #85000064",
  "6o c #860000FF",
  "9S c #870000D6",
  "6, c #88000069",
  "6~ c #88000078",
  "6z c #8800007A",
  "6a c #88000081",
  "60 c #88000085",
  "8T c #88000092",
  "9l c #8900001C",
  "ua c #89000029",
  "6q c #8900006C",
  "6s c #8900006E",
  "6N c #89000073",
  "6J c #89000075",
  "9i c #8900008D",
  "92 c #8900008F",
  "6O c #89000093",
  "9m c #890000DA",
  "9y c #890000E8",
  "91 c #890101ED",
  "6+ c #8A000066",
  "6H c #8A00006F",
  "6x c #8A000071",
  "6> c #8A00008B",
  "9k c #8A0000E2",
  "9M c #8B000016",
  "9X c #8B000091",
  "6@ c #991414F6",
  "6< c #991515F6",
  "9T c #9A0C0CF8",
  "7+ c #9A0F0FF6",
  "6w c #9B1616F6",
  "9G c #9C0D0DF7",
  "6! c #9D1212F6",
  "6c c #9D1818F5",
  "9B c #9E0F0FF6",
  "9z c #9E1010F6",
  "6G c #9E1414F5",
  "6B c #9E1818F5",
  "6M c #9F1616F6",
  "9p c #A01111F6",
  "93 c #A01313F6",
  "6K c #A01919F6",
  "6^ c #A01A1AF5",
  "6l c #A21818F6",
  "6p c #A41A1AF6",
  "69 c #A51C1CF6",
  "6: c #A61F1FF6",
  "9o c #A72222F7",
  "8R c #A82323F7",
  "9^ c #B31515FA",
  "9P c #B61717FB",
  "q+ c #B70000FF",
  "8g c #B80000FF",
  "8U c #B80202FF",
  "8w c #B90000FF",
  "9> c #B90303FF",
  "9e c #B90404FF",
  "8< c #BA0000FF",
  "9g c #BA0404FF",
  "9A c #BA1818FB",
  "8q c #BB0000FF",
  "9v c #BB0505FF",
  "8$ c #BC0000FF",
  "9C c #BC0606FF",
  "9K c #BC0707FF",
  "8# c #BD0000FF",
  "8@ c #BE0000FF",
  "0) c #BF0000FF",
  "8M c #BF0707FF",
  "9q c #BF0909FF",
  "9n c #BF1A1AFB",
  "8, c #C00000FF",
  "8+ c #C00202FF",
  "8> c #C10000FF",
  "9= c #C10A0AFF",
  "9w c #C11010FF",
  "8` c #C20000FF",
  "8f c #C20707FF",
  "8G c #C30000FF",
  "9j c #C31C1CFC",
  "8F c #C40000FF",
  "80 c #C40606FF",
  "8' c #C40909FF",
  "8O c #C40B0BFF",
  "8I c #C41515FF",
  "9f c #C50000FF",
  "9d c #C60000FF",
  "8: c #C60505FF",
  "8H c #C60808FF",
  "8} c #C61B1BFF",
  "9: c #C61C1CFF",
  "98 c #C70000FF",
  "99 c #C70303FF",
  "8o c #C71616FF",
  "9t c #C71E1EFD",
  "7` c #C72828FF",
  "97 c #C80000FF",
  "8v c #C80707FF",
  "7_ c #C82929FF",
  "96 c #C90000FF",
  "9% c #C90303FF",
  "9$ c #CA0707FF",
  "9< c #CA1F1FFD",
  "7) c #CA2D2DFF",
  "8X c #CB2424FF",
  "7E c #CB3232FF",
  "7( c #CC3131FF",
  "7G c #CC3333FF",
  "7R c #CC3434FF",
  "90 c #CD1616FF",
  "9. c #CD2020FE",
  "7c c #CD3333FF",
  "7F c #CD3434FF",
  "7T c #CD3535FF",
  "9# c #CE1313FF",
  "7y c #CE3434FF",
  "7x c #CE3535FF",
  "7Y c #CE3636FF",
  "71 c #CF3535FF",
  "7z c #CF3636FF",
  "7D c #CF3737FF",
  "9J c #D01B1BFF",
  "7t c #D03636FF",
  "7l c #D03737FF",
  "7S c #D03838FF",
  "9@ c #D11B1BFF",
  "7r c #D13838FF",
  "7A c #D13939FF",
  "7X c #D23737FF",
  "9V c #D31C1CFF",
  "7. c #D33838FF",
  "8. c #D33939FF",
  "6W c #D43838FF",
  "6| c #D43939FF",
  "9c c #D51D1DFF",
  "9s c #D51E1EFF",
  "8! c #D53333FF",
  "8~ c #D53535FF",
  "6E c #D53939FF",
  "95 c #D61F1FFF",
  "8c c #D62424FF",
  "8D c #D62727FF",
  "8_ c #D62A2AFF",
  "9* c #D62D2DFF",
  "8Q c #D63232FF",
  "8V c #D63333FF",
  "od c #D63434FF",
  "6S c #D63939FF",
  "6R c #D63A3AFF",
  "8t c #D73535FF",
  "oa c #D73636FF",
  "83 c #D73737FF",
  "8& c #D73838FF",
  "7] c #D73939FF",
  "6A c #D73A3AFF",
  "6b c #D83A3AFF",
  "66 c #D83B3BFF",
  "oy c #D83C3CFF",
  "65 c #D83D3DFF",
  "64 c #D83E3EFF",
  "8| c #D92626FF",
  "63 c #D93F3FFF",
  "ou c #D94040FF",
  "6y c #D94141FF",
  "6t c #D94242FF",
  "6g c #D94343FF",
  "6h c #DA4444FF",
  "6v c #DA4545FF",
  "6C c #DA4646FF",
  "6Z c #DA4747FF",
  "9, c #DB2828FF",
  "7e c #DB3C3CFF",
  "7J c #DB4141FF",
  "7b c #DB4343FF",
  "9r c #DC2929FF",
  "9h c #DC2A2AFF",
  "77 c #DC4343FF",
  "7- c #DC4545FF",
  "6' c #DC4747FF",
  "72 c #DC4B4BFF",
  "6U c #DD4848FF",
  "7o c #DD4C4CFF",
  "9b c #DE2B2BFF",
  "9+ c #DE3C3CFF",
  "9Z c #DF2D2DFF",
  "7k c #DF4242FF",
  "7Z c #DF4646FF",
  "7U c #DF4949FF",
  "7/ c #DF4A4AFF",
  "6D c #DF4F4FFF",
  "9L c #E02E2EFF",
  "8W c #E04C4CFF",
  "6n c #E05050FF",
  "6u c #E05252FF",
  "8B c #E14E4EFF",
  "6j c #E15151FF",
  "67 c #E15252FF",
  "7# c #E45D5DFF",
  "6/ c #E45F5FFF",
  "&I c #E4E4E4FF",
  "7$ c #E54848FF",
  "6( c #E54A4AFF",
  "6P c #E54B4BFF",
  "6L c #E56262FF",
  "6V c #E56363FF",
  "7> c #E5E1E1FF",
  ";3 c #E5E5E5FF",
  "8Y c #E63434FF",
  "9~ c #E63535FF",
  "6f c #E66565FF",
  "7q c #E6D9D9FF",
  "7& c #E6DBDBFF",
  ";b c #E6E6E6FF",
  "8N c #E73636FF",
  "9! c #E73737FF",
  "8h c #E73838FF",
  "9Q c #E73939FF",
  "62 c #E76565FF",
  "6r c #E76666FF",
  ";G c #E7E7E7FF",
  "8e c #E83939FF",
  "9H c #E84646FF",
  "70 c #E8E4E4FF",
  ":# c #E8E8E8FF",
  "81 c #E93B3BFF",
  "8% c #E93D3DFF",
  "9W c #E93F3FFF",
  "<z c #E94141FF",
  "TU c #E94343FF",
  "<k c #E94A4AFF",
  "7O c #E96363FF",
  "7h c #E9DDDDFF",
  ":2 c #E9E9E9FF",
  "6] c #EA4646FF",
  "9x c #EA4E4EFF",
  "9a c #EA5252FF",
  "8* c #EA5B5BFF",
  "<= c #EA5E5EFF",
  ",$ c #EAEAEAFF",
  "6Y c #EB4444FF",
  "9E c #EB4545FF",
  "<E c #EB4747FF",
  "7; c #EB4848FF",
  "78 c #EB4B4BFF",
  ",[ c #EB6363FF",
  "7g c #EBE7E7FF",
  ":, c #EBEBEBFF",
  "9R c #EC4949FF",
  "7d c #EC4E4EFF",
  "94 c #EC5555FF",
  "6Q c #EC6868FF",
  "7V c #ECE0E0FF",
  "7B c #ECE9E9FF",
  ":> c #ECECECFF",
  "7[ c #ED5A5AFF",
  "7' c #ED5F5FFF",
  "73 c #ED6666FF",
  ";9 c #EDEDEDFF",
  "7W c #EE6565FF",
  "7H c #EE6767FF",
  "6F c #EE6C6CFF",
  "6m c #EE7070FF",
  "75 c #EEAAAAFF",
  "7* c #EEB2B2FF",
  "7p c #EEB6B6FF",
  "7P c #EEE3E3FF",
  ":< c #EEEEEEFF",
  "7v c #EF6969FF",
  "7u c #EF6B6BFF",
  "9O c #EF6E6EFF",
  "6k c #EF7474FF",
  "7, c #EF9292FF",
  "6_ c #EFA9A9FF",
  "76 c #EFB3B3FF",
  ";A c #EFEFEFFF",
  "6i c #F07878FF",
  "8E c #F07A7AFF",
  "6{ c #F08E8EFF",
  "7a c #F0B7B7FF",
  "7m c #F0BABAFF",
  "8L c #F0DFDFFF",
  "7~ c #F0E7E7FF",
  ";T c #F0F0F0FF",
  "68 c #F17C7CFF",
  "61 c #F18383FF",
  "6e c #F18484FF",
  "8( c #F1E9E9FF",
  "8l c #F1EFEFFF",
  ";` c #F1F1F1FF",
  "6} c #F24747FF",
  "7< c #F24848FF",
  "8^ c #F27E7EFF",
  "6d c #F28585FF",
  "7M c #F2BABAFF",
  "7L c #F2BFBFFF",
  "8m c #F2C6C6FF",
  "8- c #F2EFEFFF",
  ";' c #F2F2F2FF",
  "8d c #F36666FF",
  "6# c #F38989FF",
  "88 c #F3BFBFFF",
  "8s c #F3C3C3FF",
  "8{ c #F3E4E4FF",
  "85 c #F3F0F0FF",
  ":O c #F3F3F3FF",
  "8; c #F45353FF",
  "89 c #F45C5CFF",
  "R| c #F47272FF",
  "8] c #F48080FF",
  "OA c #F48686FF",
  "7! c #F4C0C0FF",
  ":3 c #F4F4F4FF",
  "6[ c #F56B6BFF",
  "8b c #F56C6CFF",
  "8J c #F57676FF",
  "6; c #F58787FF",
  "9- c #F58B8BFF",
  "8/ c #F5BBBBFF",
  "8Z c #F5BCBCFF",
  "7} c #F5CFCFFF",
  "8A c #F5ECECFF",
  "=a c #F5F5F5FF",
  "6T c #F64545FF",
  "7: c #F66C6CFF",
  "79 c #F67171FF",
  "8j c #F68989FF",
  "6- c #F68A8AFF",
  "8r c #F68B8BFF",
  "6= c #F68C8CFF",
  "82 c #F68D8DFF",
  "7@ c #F68E8EFF",
  "8[ c #F6D2D2FF",
  "86 c #F6EEEEFF",
  "7= c #F75252FF",
  "6` c #F75454FF",
  "7s c #F75858FF",
  "7Q c #F76868FF",
  "7f c #F77777FF",
  "8C c #F78383FF",
  "6* c #F78F8FFF",
  "6& c #F79090FF",
  "o/ c #F79191FF",
  "6% c #F79292FF",
  "6$ c #F79393FF",
  "87 c #F7DDDDFF",
  "8z c #F7EEEEFF",
  "8u c #F7EFEFFF",
  "7i c #F85353FF",
  "7n c #F85A5AFF",
  "7% c #F85F5FFF",
  "7K c #F86161FF",
  "7j c #F86565FF",
  "8k c #F89D9DFF",
  "8a c #F8C7C7FF",
  "8K c #F8CFCFFF",
  "6) c #F96161FF",
  "7C c #F96C6CFF",
  "7I c #F97272FF",
  "7N c #F97878FF",
  "8x c #F97F7FFF",
  "8S c #F98484FF",
  "8) c #F98B8BFF",
  "8= c #F99191FF",
  "84 c #F99595FF",
  "8y c #F99A9AFF",
  "8n c #F9CCCCFF",
  "6I c #FA4F4FFF",
  "7^ c #FA7979FF",
  "8i c #FA8181FF",
  "7{ c #FA8686FF",
  "74 c #FC4848FF",
  "8p c #FD6767FF",
  "7| c #FD7171FF",
  "9; c #FD9898FF",
  "8P c #FE8A8AFF",
  "7w c #FF4848FF",
  "9& c #FF8F8FFF",
  "   c none",
  
  // Image data
  "                  6X6o6o6o6o6o6o6o6o6o6o6o6o6O                  ",
  "                6+6@6#6$6$6$6$6$6%6&6*6=6-6;6:6>                ",
  "              6,6<6162ouououou63636465oy6667686960              ",
  "            6q6w6e6r6t6t6t6t6y6you636465oy666u6i6p6a            ",
  "          6s6w6d6f6g6g6h6h6g6g6t6you636465oy666j6k6l6z          ",
  "        6x6c6d6f6h6h6v6v6v6v6h6g6t6you6364oy666b6n6m6M6N        ",
  "      6N6B6d6V6h6v6C6Z6Z6Z6C6v6h6g6t6y636465oy6A6S6D6F6G6H      ",
  "    6J6K6d6L6g6h6v6Z6P6I6U6Z6C6v6g6t6you6Y6Toy6R6E6W6D6Q6!6,    ",
  "  6~6^6d6/6t6g6h6v6(6)6_6`6'6C6v6g6t6y6]6[6{6}6R6|7.7X7o7O7+6X  ",
  "  6o7@7#ou6y6t6h7$7%7&;37*7=7-6h6g6t7;7:7>&I7,7<6|7.7X7172736o  ",
  "  6o6%64636y6t6g7475;3;b;G767=776t787970;G;b7q7w7e7r7t717y7u6o  ",
  "  6o6%6463ou6y6t777i7p:#:2,$7a7s7d7f7g:2:#7h7j7k7r7l7z7x7c7v6o  ",
  "  6o6%656463ouou6y7b7n7m,$:,:>7M7N7B:,:,7V7C7Z7A7S7D7x7F7G7H6o  ",
  "  6oo/oy65646463ouou7J7K7L;9:<:<:<:<:<7P7I7U7A7S7D7Y7T7R7E7W6o  ",
  "  6oo/6666oy65646463637J7Q7!;A;T;T;T7~7^7/7A7S7D7Y7(7)7_7`7'6o  ",
  "  6o6&7]6b66oyoy656565657[7{;`;';';'7}7|8.8X8o8O8+0)8@8#8$8%6o  ",
  "  6o6*8&7]6b6b666666oy8*8=8-:O:O:3:3:O7!8;8:8>8,0)8@8#8$8<816o  ",
  "  6o8283838&7]7]7]6b<=8485:O=a8687:3;';`8889800)8@8#8q8<8w8e6o  ",
  "  6o8r8toa83838&8&<=8y8-:O=a8u8i8p8a=a:O;`8s8d8f8#8q8<8w8g8h6o  ",
  "  6o8jod8t8toaoa,[8k8l;'=a8z8x8c8v8b8n=a:O;T8mR|8M8<8w8gq+8N6o  ",
  "  6oOA8B8Vododod8C8Z;`:O8A8S8D8F8G8H8J8K:3;`8L8P8I8w8gq+8U8Y6o  ",
  "  8T8R8E8W8Q8Q8!8~8^8/8(8)8_8F8G8`8>8'8]8[8{6&8}8w8gq+8U8|9.6o  ",
  "    9X9o9O9+9@9#9$9%9O9&9*8F8G8`8>8,8@9=9-9;9:8w8gq+9>9,9<91ua  ",
  "      9293949596979899908F8G8`8>0)8@8#8$9q9w8w8gq+9e9r9t9y9u    ",
  "        9i9p9a9s989d9f8F8G8`8>0)8@8#8$8q8<8w8gq+9g9h9j9k9l      ",
  "          6>9z9x9c9f8F8G8`8,0)8@8#8$8q8<8w8gq+9v9b9n9m9M        ",
  "            9N9B<k9V8G8`8,0)8@8#8$8q8<8w8gq+9C9Z9A9S9D          ",
  "          +>=N9F9G9H9J8,0)8@8#8$8q8<8w8gq+9K9L9P9I9U@=:l+j      ",
  "        +j@2+|er9Y9T789R<E9ETU<z9W8%819Q9!9~9^9/9(9)&V@V+j      ",
  "          @.@V*Q:j9_6o6o6o6o6o6o6o6o6o6o6o6o9`9'9)+g@:@M        ",
  "              @.+>*k+/*F:s*G*/3&9]9]B%,W=(ee+/+k@B@M            ",
  "                      +j@.&^*!*7@B*7*!&^@.+j                    "
};
