/* XPM */
const char *xpm_tango_actions_system_log_out[] = {
  // Header (width height colors chars-per-pixel)
  "32 32 384 2",
  
  // Colors (code mode value)
  "+j c #00000001",
  "@N c #00000005",
  "*! c #00000008",
  "@: c #00000010",
  "+r c #00000012",
  "*k c #00000017",
  "@n c #00000019",
  "@5 c #0000001A",
  "@6 c #00000020",
  "*. c #00000022",
  "+N c #00000026",
  "*F c #0000002B",
  "=( c #00000033",
  "<$ c #555753FF",
  "B7 c #565854FF",
  "<8 c #575955FF",
  "<f c #585A56FF",
  "<n c #595B57FF",
  "t$ c #5A5C5885",
  "<J c #5A5C58FF",
  "y! c #5B5D59FF",
  "5{ c #5C5C5CFF",
  "yQ c #5C5E5AFF",
  "l< c #5F5F5FFF",
  "y~ c #5F615D87",
  "Bd c #5F615DFF",
  ">J c #606060FF",
  ":8 c #616161FF",
  "rr c #636363FF",
  "Br c #636561FF",
  ">L c #666666FF",
  "4Y c #676767FF",
  ":; c #686868FF",
  "t% c #686A67FF",
  "t> c #6B6B6AFF",
  ":@ c #6B6B6BFF",
  ">( c #6C6C6CFF",
  "fm c #6C6D6AFF",
  "t: c #6D6D6DFF",
  "t- c #6E706DFF",
  "t1 c #6F6F6FFF",
  "6^ c #707070FF",
  "B> c #70726FFF",
  "mT c #717171FF",
  ";W c #727272FF",
  "t4 c #747474FF",
  "t= c #747673FF",
  ";F c #757575FF",
  "h# c #757773FF",
  "t; c #75777490",
  ",l c #767676FF",
  "t& c #767774FF",
  ",k c #777777FF",
  "BK c #777975FF",
  ";v c #787878FF",
  "t* c #787976FF",
  ",j c #797979FF",
  ",h c #7A7A7AFF",
  "=1 c #7B7B7BFF",
  ",z c #7D7D7DFF",
  "yb c #7D7F7BFF",
  "=< c #7E7E7EFF",
  "=, c #7F7F7FFF",
  "mk c #808080FF",
  "yq c #80827FFF",
  ";@ c #818181FF",
  ",x c #828282FF",
  "t2 c #838383FF",
  "yu c #838582FF",
  "-^ c #848484FF",
  "t< c #858585FF",
  "yh c #858683FF",
  "yp c #861C1C55",
  ",! c #868686FF",
  "t, c #868885FF",
  "y6 c #875F5EFF",
  "-O c #888888FF",
  "-Y c #898989FF",
  "-v c #8A8A8AFF",
  "mV c #8B8B8BFF",
  ";* c #8C8C8CFF",
  "-i c #8D8D8DFF",
  "9M c #8E8E8EFF",
  "-, c #8F8F8FFF",
  "yw c #903F3F77",
  ",Q c #909090FF",
  "yc c #91918FFF",
  "=[ c #919191FF",
  "yN c #91928FFF",
  ">G c #929292FF",
  "e` c #929491FF",
  "=L c #939393FF",
  "yd c #939593FF",
  "=v c #949494FF",
  "ys c #959594FF",
  "<' c #959595FF",
  "<I c #969696FF",
  ",F c #979797FF",
  ";f c #989898FF",
  "j3 c #989996FF",
  "<q c #989997FF",
  "e( c #989A97FF",
  "<d c #999999FF",
  "<0 c #999A98FF",
  "yx c #999A99FF",
  ":^ c #9A9A9AFF",
  "t9 c #9A9B98FF",
  "tu c #9B918EFF",
  "yi c #9B9B9B3D",
  ",D c #9B9B9BFF",
  ",J c #9C9C9CFF",
  "yl c #9D070738",
  ">K c #9D9D9DFF",
  ">P c #9E9E9EFF",
  ",H c #9F9F9FFF",
  "5, c #A0A0A0FF",
  "6} c #A1A1A1FF",
  ";I c #A2A2A2FF",
  "6| c #A3A3A3FF",
  "t8 c #A4000033",
  "yz c #A400007E",
  "y4 c #A40000EC",
  "y> c #A40000FC",
  "R7 c #A40000FF",
  "ye c #A40101F5",
  "y< c #A40606FF",
  "td c #A41818FF",
  "<: c #A4A4A3FF",
  "=C c #A4A4A4FF",
  "ya c #A50000F3",
  "tw c #A50000F5",
  "oe c #A50000FC",
  "y7 c #A50202F7",
  "yt c #A50404F4",
  "y9 c #A50505F4",
  "=W c #A5A5A5FF",
  "tl c #A60000D6",
  "tk c #A60000F1",
  "-6 c #A6A6A6FF",
  "hX c #A6A8A4FF",
  "tq c #A70101CC",
  "tr c #A70303D2",
  "y3 c #A70606FA",
  "-V c #A7A7A7FF",
  "y- c #A80909FF",
  "<R c #A8A8A7FF",
  "<Q c #A8A8A8FF",
  "ti c #A90A0ADC",
  "y# c #A90B0BFF",
  "-` c #A9A9A9FF",
  "t) c #AA0B0BFF",
  ",C c #AAAAAAFF",
  "yX c #AB0C0CFF",
  "6' c #ABABABFF",
  "<v c #ADADADFF",
  "tj c #AE1818FA",
  "ty c #AE1919F8",
  "ta c #AE1A1AF8",
  ",Z c #AEAEAEFF",
  "tz c #AFAFAFFF",
  "t! c #B01D1DFF",
  "tI c #B12020FF",
  "tZ c #B12222FF",
  "%0 c #B1B1AFFF",
  "yA c #B1B1B0FF",
  "yB c #B1B2AEFF",
  "tc c #B22424FF",
  "<# c #B2B2B2FF",
  "t7 c #B329290C",
  "yf c #B3B4B3FF",
  "yS c #B3B5AFFF",
  "yJ c #B3B5B0FF",
  ";8 c #B4B4B4FF",
  "yY c #B7B9B3FF",
  "yk c #B8B8B80F",
  "9m c #B8B8B8FF",
  "5X c #B9B9B9FF",
  "yU c #B9BAB7FF",
  ",G c #BABABAFF",
  "yT c #BABCB6FF",
  "5> c #BBBBBBFF",
  "y0 c #BBBCBBFF",
  "<W c #BDBDBDFF",
  "<1 c #BEBEBEFF",
  "yR c #BEC0BAFF",
  "yH c #BFBFBEFF",
  ";= c #BFBFBFFF",
  "hx c #BFC1BCFF",
  "%k c #C0C2BCFF",
  "yW c #C0C2BDFF",
  "yr c #C11111FF",
  ".< c #C1C3BDFF",
  "%M c #C2C4BEFF",
  "yE c #C2C4BFFF",
  ":* c #C3C3C3FF",
  "%s c #C3C5BFFF",
  "y, c #C49A99FF",
  ";Y c #C5C5C5FF",
  "r< c #C5C8C2FF",
  "la c #C6C6C5FF",
  ".i c #C6C8C2FF",
  "8o c #C71616FF",
  "y1 c #C81B1BFF",
  "yK c #C8CBC6FF",
  "yI c #C9CBC6FF",
  "yL c #CACCC7FF",
  "oi c #CACDC8FF",
  "y; c #CB2121FF",
  "t~ c #CB4040FF",
  "tt c #CB5555FB",
  "+a c #CBCBCBFF",
  "yV c #CBCDC8FF",
  "yP c #CBCEC9FF",
  "oG c #CC0000FF",
  "y+ c #CC0202FF",
  "tU c #CC4949FF",
  "#+ c #CCCCCCFF",
  "5: c #CCCEC9FF",
  "y& c #CD0303FF",
  "ot c #CD0404FF",
  "ow c #CD0505FF",
  "t{ c #CD0707FF",
  "y$ c #CD2828FF",
  "tA c #CD5151FF",
  "tv c #CD5555FF",
  "tp c #CD5858FB",
  ",2 c #CDCDCDFF",
  "tf c #CE5757FC",
  ";_ c #CECECEFF",
  "yD c #CECFCAFF",
  "t} c #CF0E0EFF",
  "yo c #CF2E2EFF",
  "yv c #CFCFCDFF",
  "yM c #CFCFCEFF",
  "+c c #CFCFCFFF",
  "t[ c #D01313FF",
  "y= c #D0A2A2FF",
  "y5 c #D1D1D0FF",
  "t] c #D21D1DFF",
  "t` c #D22020FF",
  "t_ c #D23C3CFF",
  "yF c #D2D4CFFF",
  "t' c #D32424FF",
  "y8 c #D33535FF",
  "yg c #D3D4D2FF",
  "yG c #D4D5D1FF",
  "yO c #D52D2DFF",
  "y% c #D52F2FFF",
  "y2 c #D53737FF",
  "t0 c #D58B8B1A",
  "}} c #D5D6D2FF",
  "}J c #D5D7D2FF",
  "}b c #D5D7D3FF",
  "y: c #D63030FF",
  "X( c #D6D7D3FF",
  "}M c #D6D8D3FF",
  "8t c #D73535FF",
  "83 c #D73737FF",
  "7] c #D73939FF",
  ",M c #D7D7D7FF",
  "6b c #D83A3AFF",
  "66 c #D83B3BFF",
  "65 c #D83D3DFF",
  "$t c #D8D8D7FF",
  "ou c #D94040FF",
  "6t c #D94242FF",
  "6h c #DA4444FF",
  "6C c #DA4646FF",
  "6Z c #DA4747FF",
  "tT c #DA4848FF",
  "6k c #DADAD9FF",
  "yC c #DADCD8FF",
  "tR c #DB4B4BFF",
  "tE c #DB4D4DFF",
  "y* c #DC5050FF",
  "y@ c #DCACACFF",
  "o# c #DCDDDAFF",
  "@% c #DCDDDCFF",
  "tF c #DD5353FF",
  "tK c #DD5555FF",
  "tG c #DD5858FF",
  "tJ c #DD5959FF",
  "6s c #DDDDDCFF",
  "|1 c #DDDFDBFF",
  "tD c #DE5656FF",
  "tH c #DE5B5BFF",
  "yZ c #DEDFDCFF",
  "t^ c #DF6161FF",
  "|V c #DFE0DCFF",
  "yy c #DFE0DFFF",
  "tn c #E16565FF",
  "t| c #E16969FF",
  "y. c #E1ADACFF",
  "tY c #E27272FF",
  "%; c #E2E2E0FF",
  "%# c #E2E2E1FF",
  "%e c #E3E3E1FF",
  "rt c #E4E4E3FF",
  ";3 c #E5E5E5FF",
  "3: c #E5E6E4FF",
  "tS c #E68181FF",
  "t/ c #E68484FF",
  "%= c #E6E6E4FF",
  "&. c #E7E7E6FF",
  ";G c #E7E7E7FF",
  "}K c #E7E8E5FF",
  ",- c #E7E8E6FF",
  "tW c #E88E8EFF",
  "tb c #E89090FF",
  "1W c #E8E9E7FF",
  "lC c #E9E9E8FF",
  "tL c #EA9898FF",
  "tV c #EA9D9DFF",
  "te c #EAC3C33B",
  "lb c #EAEAE9FF",
  "tm c #EB9898FF",
  "tg c #EB9D9DFF",
  "tM c #EBA1A1FF",
  "tB c #EBA2A2FF",
  "tN c #EBA3A3FF",
  "t( c #EBCDCDFF",
  "6d c #EBEBEAFF",
  ":, c #EBEBEBFF",
  "Wt c #EBECEBFF",
  "th c #ECA5A5FF",
  "j# c #ECECEBFF",
  "3f c #ECEDEBFF",
  "yj c #EDEDED25",
  ";9 c #EDEDEDFF",
  "7* c #EEB2B2FF",
  "5] c #EEEEEDFF",
  ":< c #EEEEEEFF",
  ">2 c #EEEFEDFF",
  "lt c #EFEFEEFF",
  "l8 c #F0F0EFFF",
  ";T c #F0F0F0FF",
  ",0 c #F1F1F0FF",
  "c} c #F2F2F1FF",
  "#6 c #F2F3F2FF",
  "ts c #F3E7E6FF",
  "55 c #F3F3F2FF",
  "tP c #F4E4E3FF",
  "tQ c #F4E5E5FF",
  "tx c #F4E7E7FF",
  "$< c #F4F4F2FF",
  "hE c #F4F4F3FF",
  "tC c #F5E7E6FF",
  "#) c #F5F5F3FF",
  "c` c #F5F5F4FF",
  "c/ c #F6F6F5FF",
  "c~ c #F7F7F6FF",
  ":9 c #F7F7F7FF",
  "}/ c #F7F8F7FF",
  ",3 c #F8F8F7FF",
  ";R c #F8F8F8FF",
  "lP c #F9F9F8FF",
  "g~ c #FAFAF9FF",
  ":5 c #FAFAFAFF",
  "}1 c #FBFBFAFF",
  ";Q c #FBFBFBFF",
  "}y c #FCFCFBFF",
  ";7 c #FCFCFCFF",
  "}u c #FDFDFCFF",
  "3N c #FFFFFF01",
  ":C c #FFFFFF02",
  ">` c #FFFFFF03",
  "tX c #FFFFFF04",
  ">' c #FFFFFF05",
  ">H c #FFFFFF07",
  "t# c #FFFFFF08",
  "ym c #FFFFFF09",
  "to c #FFFFFF0A",
  "t@ c #FFFFFF0D",
  ">U c #FFFFFF0E",
  ">) c #FFFFFF0F",
  "t+ c #FFFFFF10",
  "tO c #FFFFFF11",
  ">W c #FFFFFF16",
  "yn c #FFFFFF1D",
  ">I c #FFFFFF22",
  "t3 c #FFFFFF2A",
  "t5 c #FFFFFF2D",
  "t6 c #FFFFFF2F",
  "   c none",
  
  // Image data
  "                          3NtXto>UtOtOtOt+t@t#>`3N              ",
  "  t$<$<$<$<$<$<$<$<$<$<$B7<fBdt%B>t&t*BKt=t-t;to>`              ",
  "  <$;8-i-^=,;v;Wt::;rrl<5{>Jt>6k$<#)c`c`hElbh#>W>H3N            ",
  "  <$9m,Q-O;@=1,l6^:@4Yrr:84Y;v%ec~,3lPlP,3c/t,>Ito:C            ",
  "  <$<1=v-it<mk,h;Ft1:@4Y>Lt:t2&.lP}1;Q;Qg~,3e`t3t@:C            ",
  "  <$;Y:^=[-vt<=<,jt46^>(:@;W-YlCg~}y;7;7;Q;Rj3t5>U:C            ",
  "  <$+a5,,F,Q-v-^=,,j,lmT6^,k9M6dg~}y}u;7;QlPe(t6>U:C            ",
  "  <$#+6|>K,F-,-Y-^mk,h,lt4=1=[j#g~;7}u;7;QlP<0t6>)t7t8          ",
  "  <$,2=C,H:^<I,Q-vt<=,=1,j=,=v;9g~;7}u;7;QlPt9t6t0tqtw          ",
  "  <$;_-65,,D,F>G9M-Y-^=,,zt2,F5]g~;7}u;7;QlPt9tetrttty          ",
  "  <$+c-V6}>K;f=v-,-v,!;@mkt<<d5]:5;7}u;7;QlPtutitp7*ta          ",
  "  <$+c<Q;I>P<d<',Q;*-i,C,H9M:^5]:5;7}u;7;Qtstdtftgthtjtktktktktl",
  "  <$+c-`=C,H,D<I=[-imVtz;8<#-6:<:5;7}u}utxtctvtbtntmtMtNtBtMtVoe",
  "  <$+c,C=W5,,J,F=L9M-v,l-^5>5X:<:5;7}utCtZtAtStDtFtGtHtHtJtKtLoe",
  "  <$+c6'-6;I>K;f=v-,mV,!:^:*=C:<:5;7tPtItUtY6Z6htTtRtEtEtRtTtWoe",
  "  <$+c6'-V6|>P:^<'=[;*=v+a-`=Llt:5tQt!t~t^838t6b65ou667]ou65t/oe",
  "  <$+c6'-`=C,H,D<I>G=[:*9m=,:^lt:5t(t)t_65t`t't]t[t{oGoGott}t|oe",
  "  <$+c6',C=W6},J;f=L,G;==<t<6}lt:5;7y.yXyoyOy+oGoGoGoGoGoGoGtKoe",
  "  <$+c6',C-6;I>K<d,H5>mV,x-i6|lt}1;7}yy@y#y$y%y&oGy+y+y+y+y+y*oe",
  "  <$+c6',C<Q6|,H:^<'=[-vmV=[=Wl8}1;7hE:,y=y-y;y:ow6bou6t6h6CtTy>",
  "  <$+c6',C-`=C5,,D,F>G9M;*>G-6lC}/;R;T&.@%y,y<y1y:y2y3R7R7R7R7y4",
  "  <$+c6',C,C-66},J;f=L,Q-,<I-`;Y;3:9,0;G6sy5y6y78oy8y9=(*F*.@n@:",
  "  <$+c6',C,C-V;I>P<d<I=v=v,J-Vy0$t55c`Wt%#,Myqywyeyryt+N@6@5+r@N",
  "  <$+c6',C,C<Q=C5,,J,D,D:^<I<Rlartc}hE#6:,yyyuyiyptwya*k+r*!+j  ",
  "  <$+c6',C,C-`-66|=C=Wysydyfyg3:3f>2>2>23f1Wyhyjykylyz+j        ",
  "  <$+c6',C6'6'6'tzyxyc%0yvo#%e%=}K}K,-}K3:%;ybynym:C            ",
  "  <$yM6'6'<v,G<:yNyByV}JyC|1yZ|V|V|V|V|V|1yCt=>W>H3N            ",
  "  <$;_,Z<WyA<qyS.iyDyFyG}J}bX(X(}MX(X(X(}}yFfmt+tX              ",
  "  <$;_yHhXyJhxr<yKyLoiyVyPyP5:5:5:yPyPyPyVyIBrto>`              ",
  "  <$yUyYyTyR%k.<%M%M%s%s%s%s%s%s%s%s%s%syEyWyQ>'3N              ",
  "  t$<$B7<8<f<n<J<Jy!y!y!y!y!y!y!yQy!y!y!y!<Jy~:C                ",
  "        3N3N:C:C>`>`>`>`>`>`>`>`>`>`>`>`>`:C3N                  "
};
