/* XPM */
const char *xpm_tango_actions_system_search[] = {
  // Header (width height colors chars-per-pixel)
  "32 32 452 2",
  
  // Colors (code mode value)
  "+j c #00000001",
  "@M c #00000002",
  "@. c #00000003",
  "@X c #00000004",
  "@N c #00000005",
  "&^ c #00000006",
  "@C c #00000007",
  "*! c #00000008",
  "*7 c #00000009",
  "@B c #0000000A",
  "+> c #0000000B",
  ":k c #0000000C",
  "@b c #0000000D",
  "@2 c #0000000E",
  ":l c #0000000F",
  "@: c #00000010",
  "@V c #00000011",
  "+r c #00000012",
  "@o c #00000014",
  "*' c #00000015",
  "+k c #00000016",
  "*k c #00000017",
  "=N c #00000018",
  "@n c #00000019",
  "@5 c #0000001A",
  "+| c #0000001B",
  "@= c #0000001C",
  "9b c #0000001E",
  "&V c #0000001F",
  "+g c #00000021",
  "+/ c #00000023",
  "*~ c #00000025",
  "2! c #0909091D",
  "a3 c #0D0D0D13",
  "a% c #15151524",
  "a< c #22222225",
  "a, c #2424242B",
  "a& c #2E2E2E37",
  "u@ c #3165A3F8",
  "u# c #3165A5F8",
  "u: c #3365A5F2",
  "u1 c #3365A5F3",
  "i& c #3365A5F8",
  "i0 c #3365A5F9",
  "i7 c #3466A4FA",
  "pz c #3567A4FD",
  "pl c #3567A5FC",
  "ub c #3568A7EA",
  "pe c #3667A5F6",
  "uG c #3668A7EB",
  "a- c #37373725",
  "pa c #3868A6F7",
  "i~ c #3869A7EE",
  "u+ c #396AA7E5",
  "p] c #3A3A3A4B",
  "i{ c #3A6AA8EE",
  "u$ c #3A6BA7E5",
  "u` c #3D6DA7EB",
  "u8 c #3E70ADDD",
  "ij c #3F6EA8EE",
  "p6 c #3F70ABD2",
  ">; c #40404008",
  "i$ c #406FA9EF",
  "p, c #4070AED8",
  "p= c #4071ADD0",
  "ua c #4073AEDA",
  "po c #4173AED8",
  "iC c #4271AAF2",
  "pW c #43434367",
  "a4 c #4343437E",
  "p} c #4444441E",
  "a2 c #4444447B",
  "a> c #45454530",
  "pV c #45454546",
  "a1 c #454545C1",
  "u7 c #4573AAD9",
  "pp c #4575B0B2",
  "pg c #46464616",
  "a7 c #46464671",
  "pR c #46464687",
  "a6 c #464646D3",
  "pm c #4747472B",
  "pF c #47474768",
  "a5 c #474747D7",
  "a* c #474747DA",
  "pn c #474747DE",
  "a= c #474747DF",
  "p{ c #474747E3",
  "Nd c #48484887",
  "pT c #4848488E",
  "pE c #484848B2",
  "pk c #4874ACF8",
  "pr c #4877B3BC",
  "px c #4975ACFA",
  "iR c #4979B4BF",
  "uu c #4A76ACDF",
  "u> c #4B7CB5D2",
  "uP c #4D7DB7D0",
  "pB c #4E4E4EF0",
  "p[ c #4F4F4FEF",
  "a; c #5353532E",
  "#P c #55555503",
  ",/ c #55555506",
  "pY c #555555AB",
  "pf c #555555C6",
  "p> c #557CAFF4",
  "pD c #575757FB",
  ":i c #585858FF",
  "pi c #5988BE81",
  "a: c #5A5A5A33",
  "pQ c #5C5C5CFA",
  "pt c #5C89C08D",
  "p7 c #5E85B5FA",
  "u; c #5F85B2D3",
  "iV c #5F8CC2A4",
  "1x c #60606008",
  "u, c #618FC3BB",
  "uO c #6286B1D0",
  "i# c #628FC5B9",
  "u2 c #6388B3D8",
  "u% c #6487B3D1",
  "6( c #656565FF",
  "up c #6A8CB6D4",
  "pu c #6A95C96C",
  "uL c #6B8BB3DE",
  "p5 c #6B97C76E",
  "py c #6B99CB70",
  "i6 c #6B9ACAA4",
  "i* c #6B9BCBB0",
  ">( c #6C6C6CFF",
  "p< c #6C96CA8B",
  "uy c #6C99CAB1",
  "if c #6C9ACB9C",
  "i[ c #6C9BCB7F",
  "pS c #6D6D6DCA",
  "u< c #6D9ACBB0",
  "p9 c #6E6E6ED0",
  "ux c #6F90B9DC",
  "p* c #6F9BCE6E",
  "uF c #6F9CCCAF",
  "i) c #6F9CCE3E",
  "i( c #6F9DCE4E",
  "p% c #6F9ECD47",
  "p& c #6F9FCF45",
  "i^ c #709BCCA0",
  "i_ c #709CCB3B",
  "i` c #709CCC4B",
  "iI c #709CCC50",
  "p3 c #709CCE5D",
  "i' c #709DCD5B",
  "p# c #709DCD60",
  "i] c #709DCD6B",
  "iY c #709DCE6D",
  "is c #709DCE7D",
  "p1 c #709ECD76",
  "p$ c #709FCD52",
  "ia c #709FCE72",
  "p+ c #709FCF7F",
  "pO c #709FD18F",
  "iP c #719DCC46",
  "u9 c #719DCCB3",
  "i+ c #719DCD95",
  "p2 c #719DCE68",
  "iN c #719DCE73",
  "iM c #719ECD66",
  "iT c #719ECE7C",
  "iB c #719ECE81",
  "i4 c #719ECE88",
  "i5 c #719ECE93",
  "u/ c #719ECEAB",
  "i@ c #719ECF9E",
  "uz c #719FCEAD",
  "p@ c #729DCD70",
  "iU c #729DCE5E",
  "i/ c #729DCE8D",
  "im c #729ECD5C",
  "id c #729ECF89",
  "p4 c #729FCF55",
  "iS c #7392B7EE",
  "un c #739ECDB1",
  "u( c #7493B9EA",
  ";F c #757575FF",
  "pw c #7694BBF9",
  "pA c #797979D2",
  ",j c #797979FF",
  "pX c #7996BBF3",
  "pU c #7A7A7A41",
  "i| c #7A7A7A4B",
  "p; c #7A7A7ADE",
  "iE c #7C9ABDF7",
  "u^ c #7CA6D1A7",
  "=< c #7E7E7EFF",
  "@> c #80808002",
  "<4 c #80808004",
  "<F c #80808006",
  "e_ c #8080800A",
  "r+ c #8080800C",
  "pj c #809DC0FC",
  "ps c #819EC5FD",
  "us c #82ABD4B3",
  "p- c #84A0C4FA",
  "iW c #8585859B",
  "pc c #85A2C5FE",
  "iD c #85ABD4A7",
  "ri c #86868615",
  "u* c #87878724",
  "pI c #8787878E",
  "c! c #8888880F",
  "iQ c #8888884D",
  "y] c #88888878",
  "y( c #888888AE",
  "y^ c #8989890D",
  "uX c #8989891C",
  "pC c #89898961",
  "y' c #89898963",
  "u5 c #89898970",
  "ui c #89898979",
  "y[ c #8989897B",
  "iA c #8989899C",
  "uK c #898989A4",
  "u) c #898989AD",
  "p0 c #898989C0",
  "pP c #898989CD",
  "ih c #898989D3",
  "u_ c #898989D6",
  "iZ c #898989D9",
  "i% c #898989DD",
  "pK c #898989E6",
  "pL c #898989E7",
  "i9 c #898989EC",
  "u4 c #898989ED",
  "y| c #898989F5",
  "ig c #898989F6",
  "i8 c #898989F8",
  "y) c #898989F9",
  "y_ c #898989FC",
  "iL c #89AED752",
  "u. c #8A8A8A23",
  "pG c #8A8A8A48",
  "uc c #8A8A8A55",
  "uJ c #8A8A8A5E",
  "y/ c #8A8A8A60",
  "pH c #8A8A8A98",
  "y` c #8A8A8AB2",
  "pN c #8A8A8ABF",
  "pJ c #8A8A8ACC",
  "ph c #8A8A8ADA",
  "pZ c #8A8A8AE0",
  "-v c #8A8A8AFF",
  "u= c #8B8B8BE3",
  "y} c #8B8B8BE5",
  "p. c #8B8B8BE9",
  "mV c #8B8B8BFF",
  "uD c #8BB1D7B7",
  "pM c #8C8C8C14",
  "y{ c #8C8C8C1F",
  ";* c #8C8C8CFF",
  "r# c #8E8E8E09",
  "9M c #8E8E8EFF",
  ",Q c #909090FF",
  "pb c #919191FF",
  "i3 c #91B5DA90",
  "ut c #91B5DABA",
  "<G c #92929207",
  "=L c #939393FF",
  "<' c #959595FF",
  "<I c #969696FF",
  ",F c #979797FF",
  ";f c #989898FF",
  ":^ c #9A9A9AFF",
  "a$ c #9B9B9B4A",
  ",D c #9B9B9BFF",
  ",J c #9C9C9CFF",
  ">K c #9D9D9DFF",
  ">P c #9E9E9EFF",
  "5, c #A0A0A0FF",
  "6} c #A1A1A1FF",
  ";I c #A2A2A2FF",
  "p! c #A3A3A32F",
  "p' c #A3A3A33A",
  "6| c #A3A3A3FF",
  "uI c #A3C2E0C3",
  "=C c #A4A4A4FF",
  "-6 c #A6A6A6FF",
  "<Q c #A8A8A8FF",
  "-` c #A9A9A9FF",
  "cW c #AAAAAA03",
  ",C c #AAAAAAFF",
  "u0 c #AAC5E1C5",
  "6' c #ABABABFF",
  "ik c #ACC7E3BE",
  "<v c #ADADADFF",
  "ul c #ADC7E3C8",
  ",Z c #AEAEAEFF",
  "iF c #AEC8E3B0",
  "tz c #AFAFAFFF",
  "ip c #AFCAE48F",
  ">F c #B0B0B0FF",
  ":& c #B1B1B1FF",
  "<# c #B2B2B2FF",
  "<s c #B3B3B3FF",
  "in c #B4CBE67A",
  "6{ c #B5B5B5FF",
  "=p c #B6B6B6FF",
  "iK c #B7D0E67C",
  "9m c #B8B8B8FF",
  "uo c #B8C2CDF2",
  "5X c #B9B9B9FF",
  ",G c #BABABAFF",
  "p| c #BCBCBC4C",
  ",A c #BCBCBCFF",
  "<W c #BDBDBDFF",
  "u& c #BDC6D1F6",
  "ur c #BDD2E8D0",
  "iO c #BED2E9B9",
  "iq c #BFD4E9CE",
  "iG c #BFD5E9B0",
  ";g c #C0C0C0FF",
  "u' c #C0D4E9D1",
  ";U c #C1C1C1FF",
  ":* c #C3C3C3FF",
  "uv c #C3CAD2F8",
  "il c #C4D8EBC4",
  "iJ c #C5D7EB9A",
  ":= c #C6C6C6FF",
  ",1 c #C7C7C7FF",
  "i= c #C7D9ECD6",
  ":7 c #C8C8C8FF",
  "i! c #C9CFD7FF",
  "iH c #C9DAECAA",
  "uS c #CBDBEDD7",
  "iz c #CCDCEEBF",
  "iw c #CCDCEECD",
  "u~ c #CCDDEECF",
  "p` c #CDCDCD5C",
  ",2 c #CDCDCDFF",
  "uq c #CDDDEDDA",
  ";_ c #CECECEFF",
  "um c #CEDDEFDA",
  "+c c #CFCFCFFF",
  "p~ c #D0D0D052",
  "+v c #D0D0D0FF",
  "+b c #D1D1D1FF",
  "ue c #D1E0EFDD",
  "i- c #D1E0F0D7",
  ",V c #D2D2D2FF",
  "ix c #D2DFEEB9",
  "uk c #D2E0F0DC",
  "ie c #D2E1F0CA",
  ",, c #D3D3D3FF",
  "=D c #D3DCE7FF",
  "uA c #D3E1F0DB",
  ",n c #D4D4D4FF",
  "uH c #D4DAE2FD",
  "i2 c #D4E1F0BE",
  "ic c #D4E3F1B3",
  "io c #D5E2F0CA",
  "u! c #D5E2F0D3",
  "u] c #D5E2F0DF",
  ",N c #D6D6D6FF",
  "u- c #D7D8DAFF",
  "i} c #D7DDE5FF",
  "ib c #D7E3F1A4",
  "i; c #D7E3F2D5",
  "ii c #D7E4F1B3",
  "ir c #D7E4F2C6",
  "uj c #D7E5F1E1",
  "a# c #D8D8D882",
  ",B c #D8D8D8FF",
  "iv c #D8E4F2AC",
  "u6 c #D9D9DAFF",
  "pv c #D9E2EDFF",
  "uw c #D9E5F1E2",
  "it c #D9E6F2C2",
  ",m c #DADADAFF",
  "uU c #DAE5F3E2",
  "i1 c #DAE6F2C2",
  "uZ c #DAE7F2DF",
  "iu c #DBE6F2B7",
  "iX c #DBE6F3CE",
  "iy c #DBE7F2BD",
  ",^ c #DCDCDCFF",
  "u[ c #DCE7F2DF",
  "i: c #DCE7F3D3",
  "a. c #DDDDDD79",
  "=b c #DDDDDDFF",
  "uQ c #DDE7F3D8",
  "=[ c #DEDEDEFF",
  "i< c #DEE8F3C7",
  "i> c #DEE8F3D0",
  "uh c #DEE9F4E6",
  "p_ c #DFDFDF79",
  "={ c #DFDFDFFF",
  "uY c #DFE9F4E7",
  "p^ c #E0E0E072",
  "&_ c #E0E0E0FF",
  "i. c #E0E9F4D4",
  "i, c #E0EAF4CC",
  "+Z c #E1E1E1FF",
  "u{ c #E1EAF5DE",
  "uW c #E1EBF5DE",
  "uC c #E1EBF5E5",
  "+A c #E2E2E2FF",
  "uM c #E2EBF5E8",
  "u| c #E3ECF6D9",
  "u} c #E3EDF6DD",
  "&I c #E4E4E4FF",
  "ug c #E4ECF5EA",
  ";3 c #E5E5E5FF",
  "u3 c #E5E6E8FF",
  "ud c #E5EEF6EA",
  ";b c #E6E6E6FF",
  "uE c #E6EEF6E4",
  "uT c #E6EFF6E8",
  "p) c #E7E7E78D",
  ";G c #E7E7E7FF",
  "uV c #E7EFF6EB",
  "uf c #E7EFF6EC",
  "uR c #E8F0F7E8",
  "uN c #E8F0F7ED",
  "p/ c #E9E9E989",
  ":2 c #E9E9E9FF",
  "p( c #EAEAEA93",
  "a@ c #EAEAEAAB",
  ",$ c #EAEAEAFF",
  ":, c #EBEBEBFF",
  "&b c #EBEBECFF",
  "aX c #ECECECA1",
  ";9 c #EDEDEDFF",
  "uB c #EDF3F9F0",
  ":< c #EEEEEEFF",
  ";A c #EFEFEFFF",
  ";T c #F0F0F0FF",
  "p: c #F0F0F1FF",
  ";` c #F1F1F1FF",
  "pd c #F1F2F4FF",
  ";' c #F2F2F2FF",
  "pq c #F2F3F5FF",
  ":O c #F3F3F3FF",
  ":3 c #F4F4F4FF",
  "p8 c #F4F4F5FF",
  "ao c #F5F5F5C5",
  "a+ c #F5F5F5CC",
  "+W c #F6F6F6FF",
  ":9 c #F7F7F7FF",
  "aO c #F9F9F9DB",
  ";S c #F9F9F9FF",
  ":5 c #FAFAFAFF",
  ";Q c #FBFBFBFF",
  ";7 c #FCFCFCFF",
  "=w c #FEFEFEFF",
  "   c none",
  
  // Image data
  "                        @>@>                                    ",
  "                y^y/y(y);*;*y_y`y'c!                            ",
  "            r#y]:^+b;T;Q=w;7+W+Z9m9My[r+                        ",
  "          y{y},B;7;T;3&_=b={&I;A;7;A:&y|u.                      ",
  "        uX=L;T:3={uouOu+u@u#u$u%u&;T:5,1mVu*                    ",
  "      <Gu=:<:<u-u;u:u>u,u<u<u,u>u1u2u3;S;Uu4e_                  ",
  "      u5+b;'u6u7u8u9u0uquwueurutuyu8uu&b;`-`ui                  ",
  "    r#<':9=[upuausueudufuguhujukuluzuaux;S,^;*r+                ",
  "    uc:=:,uvubunumuMuNuBuVuCuZuAuSuDuFuGuH;A-`uJ                ",
  "    uK=[+ZuLuPuIuUuYuTuRuEuWuQu!u~u^u/uPu(:3:*u)                ",
  "    u_&I=[u`u,u'u]u[u{u}u|i.iXioiOi+i@i#i$;`,ni%                ",
  "    y|;3,^i&i*i=i-i;i:i>i,i<i1i2i3i4i5i6i7:,=bi8                ",
  "    i9&I=bi0i*iqiwieiritiyiuiiipiaisidifi7;b,mig                ",
  "    ih+Z+Ziju,ikilizixicivibinimiMiNiBiViC;3+biZ                ",
  "    iA+v:2iSuPiDiFiGiHiJiKiLiPiIiUiYiTiRiE;3,AiW                ",
  "    iQ-`:Oi!i~i^i/isiYiUi(i)i_i`i'i]i[i{i}={>Ki|                ",
  "    <Fp.+A:OpXpopOp+p@p#p$p%p&iIiUp*p=p-:,:7p;@>                ",
  "      y'6|:Op:p>p,p<p1p2p3p4p4i'p5p6p7p8,m-vp91x                ",
  "      cWp09m:Opqpwpeprptpypupipppapspd+Z&I,1=Lpfpg              ",
  "        riph6{,$;Q=Dpjpkplpzpxpcpv;9,m+A;gpb6|,Fpnpm            ",
  "          pMpN;I+v;G;':9:5:9:O:2=[,1-v+ctz<Q,Q6}5,pBpV          ",
  "            @>pCpZ6|<W;_,N,N,25X,DpApS=L,G6'<v=L>P=CpDpF        ",
  "                <4pGpHpJpKpLpPpIpU+j,/pY=<9m,Z,Z<I,J-66(pT#P    ",
  "                    +j@M@.@.@X@X@X@X@X@XpR>(=p>F,C,D;f-6;FpE>;  ",
  "          @M@X&^@C*7+>:k@b@2@2:l:l:l:l@2@bpWpQ<#<s<Q6}<#&_,jNd  ",
  "    +j@X&^*!+>@b:l@Vp!p~p^p/p(p)p_p`p'=N*k*'p]p[,C6{<s,^+A:7p{  ",
  "  +j@X@C*7:k:l@V@op}p|a.aXaoaOa+a@a#a$a%9b@=@na&a*6},V&_;b5Xa=@M",
  "  @M@X@C@B:k:l+r@o*k@n2!a-a;a:a>a,*~+/+g&V@=@5*ka<a1;*,,;g:ia2+j",
  "    +j@X&^*7+>@b@:+r@o+k*k@n@5+|+|+|@5@n=N+k@o+r@:a3a4a5a6a7@>  ",
  "          @M@X@N*!@B+>@b@2:l:l@:@:@::l:l@2@b:k@B@C@N@.+j        ",
  "                    +j+j@M@M@M@.@.@M@M@M+j+j                    ",
  "                                                                "
};
