/* XPM */
const char *xpm_tango_actions_system_lock_screen[] = {
  // Header (width height colors chars-per-pixel)
  "32 32 584 2",
  
  // Colors (code mode value)
  "+j c #00000001",
  "@M c #00000002",
  "@. c #00000003",
  "@X c #00000004",
  "@N c #00000005",
  "&^ c #00000006",
  "@C c #00000007",
  "*! c #00000008",
  "@B c #0000000A",
  "+> c #0000000B",
  ":k c #0000000C",
  "@b c #0000000D",
  "@2 c #0000000E",
  "@: c #00000010",
  "+r c #00000012",
  "@m c #00000013",
  "@o c #00000014",
  "*' c #00000015",
  "+k c #00000016",
  "*k c #00000017",
  "=N c #00000018",
  "@n c #00000019",
  "@5 c #0000001A",
  "+| c #0000001B",
  "@= c #0000001C",
  "*Q c #0000001D",
  "9b c #0000001E",
  "&V c #0000001F",
  "@6 c #00000020",
  "*. c #00000022",
  "+/ c #00000023",
  "*~ c #00000025",
  "rE c #00000029",
  "rn c #0000002A",
  "9) c #0000002C",
  "rF c #0000002D",
  ":d c #00000030",
  "T2 c #00000032",
  "&W c #00000034",
  "*l c #00000035",
  "rD c #00000038",
  "rm c #06060629",
  "t. c #1818184A",
  "r] c #1A1A1A44",
  "rk c #1B1B1B4B",
  "eQ c #202184FF",
  "r' c #2224225B",
  "qu c #242450FF",
  "r| c #2626265E",
  "ra c #27272741",
  "r[ c #2727275C",
  "qm c #272754FF",
  "qM c #282855FF",
  "qy c #292954FF",
  "rW c #2B2B2853",
  "q~ c #2B2B5AFF",
  "q^ c #2C2C5AFF",
  "q/ c #2C2C5BFF",
  "w, c #2D2D7BFF",
  "wf c #2E2E7AFF",
  "r} c #2E302E6F",
  "w; c #2F2F5FFF",
  "r{ c #30303070",
  "w: c #30305FFF",
  "w> c #303060FF",
  "wC c #303078FF",
  "q( c #30317CFF",
  "wW c #313179FF",
  "e. c #323277FF",
  "ws c #333364FF",
  "wd c #343465FF",
  "qN c #34357EFF",
  "qt c #36365FFF",
  "e9 c #36367BFF",
  "rR c #37383783",
  "qi c #373880FF",
  "e' c #373889FF",
  "wB c #383869FF",
  "wV c #38386AFF",
  "eC c #383987FF",
  "e^ c #3B3B88FF",
  "e! c #3B3C87FF",
  "e~ c #3B3C88FF",
  "e/ c #3B3C89FF",
  "wR c #3C3C6FFF",
  "wE c #3C3C70FF",
  "ey c #3C3C88FF",
  "e( c #3C3C89FF",
  "e) c #3C3C8AFF",
  "e_ c #3C3D8AFF",
  "rG c #3C3E3C7F",
  "e& c #3D3D71FF",
  "en c #3D3D7EFF",
  "e` c #3D3D8AFF",
  "e* c #3E3E72FF",
  "0$ c #3E3F8EFF",
  "qn c #3F3F5DFF",
  "q% c #3F4084FF",
  "e% c #404072FF",
  "w} c #404074FF",
  "w| c #404075FF",
  "q! c #413B44FF",
  "eu c #414176FF",
  "e$ c #41418BFF",
  "ei c #424276FF",
  "ep c #424277FF",
  "w_ c #444474FF",
  "e6 c #444479FF",
  "e7 c #44447AFF",
  "e8 c #45457AFF",
  "eZ c #45457BFF",
  "eI c #454583FF",
  "r` c #454644B5",
  "0! c #454688FF",
  "eA c #46467CFF",
  "eS c #46467DFF",
  "eD c #47477DFF",
  "eF c #47477EFF",
  "ru c #484848FF",
  "ec c #48487EFF",
  "ev c #48487FFF",
  "w( c #48498EFF",
  "qr c #49496EFF",
  "eb c #49497FFF",
  "eG c #494980FF",
  "rQ c #494A46B3",
  "0n c #494A8BFF",
  "r4 c #4A4A4AFB",
  "ry c #4A4A4AFF",
  "eH c #4A4A81FF",
  "w) c #4B4B7AFF",
  "eJ c #4B4B82FF",
  "eK c #4B4B83FF",
  ":- c #4C4C4CFF",
  "eL c #4C4C84FF",
  "wH c #4C4D90FF",
  "rj c #4C4E4BDA",
  "rq c #4D4D4CF1",
  "ri c #4D4D4DF2",
  "e{ c #4D4D4DF3",
  "kc c #4D4D4DFF",
  "eP c #4D4D85FF",
  "rs c #4D504CDA",
  "rp c #4E4E4E55",
  "wP c #4E4E7BFF",
  "rb c #4E504DDC",
  "rt c #4F4F4FFF",
  "rl c #4F504EDF",
  "rS c #4F524EF8",
  "wL c #50507BFF",
  "wK c #50507CFF",
  "0: c #50508FFF",
  "wz c #505192FF",
  "r_ c #50524EEC",
  "r! c #50524FED",
  ";E c #515151FF",
  "wJ c #51517CFF",
  "02 c #51518BFF",
  "0> c #51518EFF",
  "0; c #51518FFF",
  "0= c #515190FF",
  "eR c #525252E9",
  "wv c #52527BFF",
  "01 c #52528BFF",
  "0- c #52528FFF",
  "0* c #525290FF",
  "0< c #52538DFF",
  "w4 c #525393FF",
  "rM c #525451FA",
  ";D c #535353FF",
  "q$ c #535375FF",
  "03 c #53538DFF",
  "0, c #53548DFF",
  "0& c #535491FF",
  "08 c #535494FF",
  "q{ c #535595FF",
  "ex c #544E60FF",
  "wc c #54547CFF",
  "wx c #54547DFF",
  "07 c #54548DFF",
  "05 c #54548EFF",
  "0% c #545592FF",
  "rh c #545753F5",
  "6[ c #555555FF",
  "06 c #55558EFF",
  "04 c #55568EFF",
  "6] c #565656FF",
  "w8 c #56567DFF",
  "rd c #565855F4",
  "rT c #565855F8",
  "eN c #575756DF",
  "w7 c #57577DFF",
  "qF c #575998FF",
  ":i c #585858FF",
  "w6 c #58587EFF",
  "w5 c #58587FFF",
  "ee c #585958D3",
  "w. c #59597EFF",
  "rH c #595A57F8",
  "r) c #595B57F9",
  ":q c #5A5A5AFF",
  "r~ c #5A5C58F9",
  "qc c #5B5B7DFF",
  "q| c #5B5B7FFF",
  "5{ c #5C5C5CFF",
  "qx c #5C5C7EFF",
  "q} c #5C5C7FFF",
  "ea c #5D545BFF",
  "w1 c #5D5D5D81",
  "qz c #5D5D7FFF",
  "e+ c #5E5E5CC4",
  "wj c #5E5E5E95",
  "w~ c #5E5E5EB5",
  ":0 c #5E5E5EFF",
  "qJ c #5E5E80FF",
  "q` c #5F5F5F74",
  "l< c #5F5F5FFF",
  "q# c #5F5F7EFF",
  "q@ c #5F5F7FFF",
  "qH c #5F5F80FF",
  "wD c #606060A5",
  "q0 c #60607FFF",
  "q9 c #606080FF",
  "qG c #606081FF",
  "qe c #606179FF",
  ":8 c #616161FF",
  "q+ c #61617FFF",
  "q8 c #616181FF",
  "qh c #61639DFF",
  "qO c #62627EFF",
  "0Q c #626280FF",
  "q7 c #626281FF",
  "qs c #6363635A",
  "qZ c #63636367",
  "rr c #636363FF",
  "0W c #636380FF",
  "0E c #646482FF",
  "qj c #646483FF",
  "q< c #646486FF",
  "0` c #646488FF",
  "r( c #646662F7",
  "r^ c #646763F7",
  "6( c #656565FF",
  "0R c #656582FF",
  "q- c #6666664B",
  "0T c #666683FF",
  "q4 c #666684FF",
  "e] c #66689FFF",
  "4Y c #676767FF",
  "q3 c #676784FF",
  "q2 c #676785FF",
  "0A c #67678CFF",
  ":; c #686868FF",
  "0} c #68687EFF",
  "0| c #69697DFF",
  "0b c #696985FF",
  "q1 c #696986FF",
  "Nv c #6A6A6AFF",
  "0v c #6A6A85FF",
  "0y c #6A6A91FF",
  "0^ c #6B6B6B3E",
  "0c c #6B6B86FF",
  "r/ c #6B6E6AF8",
  ">( c #6C6C6CFF",
  "0B c #6D6D6D31",
  "0x c #6D6D88FF",
  "0q c #6E6E6E25",
  ";[ c #6E6E6EFF",
  "0' c #6E6E89FF",
  "0z c #6F6F8AFF",
  "eU c #7073A3FF",
  "0l c #717188FF",
  "q, c #7173A4FF",
  "0H c #72728CFF",
  "qK c #736A61FF",
  "5+ c #73737314",
  "0G c #73738DFF",
  "re c #747474F2",
  "0F c #74748DFF",
  "rw c #75757555",
  "0D c #75758FFF",
  "ql c #75767FFF",
  "0Y c #757683FF",
  "0S c #767690FF",
  "rg c #767874FA",
  "9} c #777777FC",
  "0d c #777790FF",
  "rf c #777A76FB",
  "r5 c #787878F1",
  "e} c #787878FB",
  "0O c #797979F7",
  ",j c #797979FF",
  "0s c #797992FF",
  "e5 c #7A630BFF",
  "0a c #7A7A93FF",
  "0{ c #7A7B87FF",
  "ez c #7B650FFF",
  "=1 c #7B7B7BFF",
  "q. c #7B7B82FF",
  "wN c #7C6300FF",
  "9| c #7C7C7C98",
  "eE c #7C7C7CF3",
  "0p c #7C7C94FF",
  "el c #7D6401FF",
  ",z c #7D7D7DFF",
  "0i c #7D7D95FF",
  "w- c #7E6709FF",
  "=< c #7E7E7EFF",
  "0u c #7E7E96FF",
  "wa c #7F6500FF",
  "0k c #7F8187FF",
  "mk c #808080FF",
  "eB c #808180E9",
  "q6 c #808186FF",
  "rv c #81837EFD",
  "lW c #81837FFF",
  "em c #8183AAFF",
  ",x c #828282FF",
  "0_ c #8284ADFF",
  "ek c #836800FF",
  "rz c #838581FD",
  "-^ c #848484FF",
  "er c #848584DF",
  "qq c #848684FF",
  "00 c #858685F3",
  "qv c #858787FF",
  ",! c #868686FF",
  "e@ c #878787D3",
  "-K c #878787FF",
  "0] c #878794FF",
  "rJ c #878A85FE",
  "0f c #888897FF",
  "ej c #896D00FF",
  "qQ c #89700BFF",
  "-Y c #898989FF",
  "w^ c #8A8A89C4",
  "mV c #8B8B8BFF",
  "l~ c #8B8E89FF",
  "qo c #8B8E8CFF",
  "q' c #8C8C8C81",
  "rY c #8C8E8AFE",
  "0w c #8D8D8D31",
  "wF c #8D8D8DB5",
  "-i c #8D8D8DFF",
  "0N c #8D8E8DF2",
  "wk c #8E8E8DA5",
  "q; c #8E8E8E5A",
  "w2 c #8E8E8E95",
  "eh c #8F7200FF",
  "0/ c #8F8F8F4B",
  "qA c #8F8F8F74",
  "-, c #8F8F8FFF",
  "0V c #9090903E",
  "qd c #90909067",
  "9{ c #909090FC",
  ">q c #91919125",
  "qk c #919296FF",
  "0j c #919396FF",
  "e0 c #9193B1FF",
  ">i c #92929215",
  "qW c #947701FF",
  "9[ c #9495949F",
  "eg c #957700FF",
  "0. c #959595F6",
  "0~ c #959695F2",
  "rA c #959993FF",
  "0Z c #9697B8FF",
  "q5 c #989A9FFF",
  "0g c #999B9EFF",
  "qE c #9A7B00FF",
  "ef c #9B7C00FF",
  "q= c #9B9C9BF3",
  "rN c #9B9E9AFF",
  "0h c #9D9FA2FF",
  "qR c #A07F00FF",
  "eX c #A0A3B9FF",
  "qw c #A0A49EFF",
  "es c #A18416FF",
  "ed c #A28001FF",
  "0+ c #A2A2A2F3",
  "<: c #A4A4A3FF",
  "qa c #A4A5A3F4",
  "qT c #A68400FF",
  "hX c #A6A8A4FF",
  "0U c #A7A9A8FF",
  "0J c #A7A9ACFF",
  "0t c #A7AAC0FF",
  "rU c #A8ABA6FF",
  "rZ c #A9ABA6FF",
  "0e c #AAAAA9F2",
  "e= c #AB8C13FF",
  "qC c #ACADABF7",
  "qV c #ACADABFF",
  "rx c #ACAFA9FF",
  "qY c #AD8900FF",
  "0m c #ADAFACFF",
  "rc c #ADB0AAFF",
  "wQ c #ADB0BDFF",
  "r& c #AEB0ABFF",
  "rC c #AEB1ABFF",
  "0C c #AFB0AFF2",
  "rB c #AFB2ACFF",
  "qb c #AFB3ACFF",
  "q_ c #B0B1AFFB",
  "0[ c #B0B1B1FF",
  "rV c #B1B3AEFF",
  "q& c #B2B4B0FF",
  "qU c #B38E00FF",
  "r* c #B3B6AFFF",
  "w` c #B69100FF",
  "w< c #B6B7B5FF",
  "q* c #B7B8B7FF",
  "wX c #B89513FF",
  "0( c #B8B8B7F3",
  "qB c #B8BBB6FF",
  "wZ c #B8BCC3FF",
  "qI c #B99300FF",
  "qL c #B99916FF",
  "0L c #B9BBB7FF",
  "0# c #B9BBC8FF",
  "wI c #BB9400FF",
  "wh c #BBBCB9FF",
  "0P c #BBBEBAFF",
  "qX c #BDC1BBFF",
  "w9 c #BE9700FF",
  "qP c #BE9702FF",
  "rI c #BEC1BEFF",
  "q: c #BFBFBEF4",
  "rK c #BFC0BDFF",
  "hx c #BFC1BCFF",
  "wS c #C0C1BEFF",
  "r0 c #C0C2BEFF",
  "0M c #C2C3C2FF",
  ".o c #C4C6C2FF",
  "r1 c #C4C8C2FF",
  "qf c #C5C5C3F7",
  "r< c #C5C8C2FF",
  "r2 c #C5C9C2FF",
  "r, c #C5C9C3FF",
  "wg c #C5C9C7FF",
  "r> c #C6C9C3FF",
  "r: c #C6CAC3FF",
  "e4 c #C7B421FF",
  "r; c #C7CAC3FF",
  "r- c #C7CBC4FF",
  "eO c #C8CAC7FF",
  "oj c #C8CBC4FF",
  "r= c #C8CCC4FF",
  "rL c #C9CBC8FF",
  "on c #C9CCC5FF",
  "qS c #CACBC9FB",
  "r% c #CACEC6FF",
  "w= c #CBB620FF",
  "r$ c #CBCEC7FF",
  "r# c #CBCFC7FF",
  "e[ c #CBCFC8FF",
  "ew c #CCCECBFF",
  "r@ c #CCCFC8FF",
  "r+ c #CCD0C8FF",
  "rO c #CDD0C9FF",
  "ro c #CDD1C9FF",
  "eY c #CDD1CBFF",
  "rP c #CED0CDFF",
  "rX c #CED1CAFF",
  "r. c #CED2CAFF",
  "q] c #CFD0CDFF",
  "}G c #CFD1CDFF",
  "XJ c #CFD2CCFF",
  "XB c #D0D3CEFF",
  "q) c #D0D4CDFF",
  "eM c #D1D2CFFF",
  "e| c #D1D4CEFF",
  "eq c #D1D5CFFF",
  "qp c #D2D5CEFF",
  "0K c #D3D5D2FF",
  "}$ c #D3D6CFFF",
  "eT c #D3D6D1FF",
  "eo c #D4D6D0FF",
  ".Y c #D4D6D2FF",
  "09 c #D4D7D0FF",
  "w! c #D5D9D3FF",
  ".r c #D7D9D5FF",
  "eW c #D7DAD2FF",
  "%| c #D8D8D6FF",
  "wA c #D8DBD5FF",
  "r3 c #D9DBD7FF",
  "eV c #D9DCD5FF",
  "XL c #DBDDD8FF",
  "0I c #DBDDD9FF",
  "et c #DBDED6FF",
  "o# c #DCDDDAFF",
  "r9 c #DCDEDAFF",
  "e# c #DCE0D9FF",
  "|1 c #DDDFDBFF",
  "w{ c #DECF41FF",
  "wT c #DECF42FF",
  ":f c #DEE0DCFF",
  "4M c #DEE1DCFF",
  "wp c #DFCF41FF",
  "wM c #DFCF42FF",
  "w/ c #DFE0DEFF",
  "5_ c #DFE1DCFF",
  "r8 c #DFE2DDFF",
  "6O c #E0E2DDFF",
  ",& c #E0E2DEFF",
  ">} c #E1E3DFFF",
  "wG c #E1E4DEFF",
  ":j c #E2E4E0FF",
  "r7 c #E2E5E1FF",
  "%e c #E3E3E1FF",
  "wl c #E3E6E0FF",
  ">< c #E3E6E1FF",
  "wm c #E4D012FF",
  "3} c #E4E6E2FF",
  "w[ c #E5D114FF",
  "wi c #E5D115FF",
  "|. c #E5E6E3FF",
  "w3 c #E5E7E2FF",
  ">{ c #E5E7E3FF",
  "51 c #E6E7E5FF",
  "r6 c #E6E8E4FF",
  ":T c #E6E8E5FF",
  "q[ c #E7E9E4FF",
  ";Z c #E7E9E5FF",
  "g! c #E7E9E6FF",
  "wu c #E8D30EFF",
  "qD c #E8EAE5FF",
  "}I c #E8EAE6FF",
  ":U c #E9EBE7FF",
  ",. c #EAEBE8FF",
  "qg c #EAECE7FF",
  ":Q c #EAECE8FF",
  "3u c #EAECE9FF",
  "e3 c #EBDC4CFF",
  "|r c #EBECE9FF",
  "wy c #ECD818FF",
  "w* c #ECDD52FF",
  "q> c #ECEDE9FF",
  "}l c #ECEDEAFF",
  "}w c #EDEEEBFF",
  "e- c #EEE193FF",
  "0) c #EEEFEBFF",
  ";p c #EEF0EDFF",
  "e2 c #EFE055FF",
  "}# c #EFF0EDFF",
  "wt c #F0DD22FF",
  "w& c #F0E364FF",
  "0r c #F0F2EEFF",
  ";z c #F0F2EFFF",
  "|j c #F1F2EFFF",
  "e1 c #F2E35CFF",
  "wo c #F2E494FF",
  "0@ c #F2F3F0FF",
  "}8 c #F2F3F1FF",
  ";k c #F2F4F1FF",
  "Xg c #F3F4F1FF",
  "}, c #F3F4F2FF",
  "w% c #F4E773FF",
  "$< c #F4F4F2FF",
  "0o c #F4F5F2FF",
  ";~ c #F4F5F3FF",
  "wr c #F5E12BFF",
  "e< c #F5E86DFF",
  "0X c #F5F6F3FF",
  "w$ c #F7EC82FF",
  "we c #F9E635FF",
  "e, c #F9EC7CFF",
  "w# c #FAEF90FF",
  "e> c #FCF18BFF",
  "w@ c #FCF39EFF",
  "w' c #FDF7C9FF",
  "wU c #FDF7CCFF",
  "w0 c #FDF8CBFF",
  "wb c #FDF8CCFF",
  "ww c #FEEB3EFF",
  "e: c #FEF498FF",
  "wY c #FFF179FF",
  "wn c #FFF279FF",
  "w] c #FFF27AFF",
  "wq c #FFF27DFF",
  "w+ c #FFF6A9FF",
  "e; c #FFF7B4FF",
  "wO c #FFF8BBFF",
  "   c none",
  
  // Image data
  "                                                                ",
  "                                                                ",
  "      9[9{-,-,-,-,-,-,-,-,-,-,-imV-Y-K,!-^,xmk=<,z=1,j9}9|      ",
  "    >i0.|j0X0X0X0X0X0X;~;~;~;~0o0o$<$<},},},XgXgXg;k}8}w0O5+    ",
  "    >q0+0@0#0$0%0%0&0*0=0-0;0:0>0,0<010203040506070809;p000q    ",
  "    0w0e0r0t0y0u0i0p0a0s0d0f0g0h0j0k0l0z0x0x0c0v0b0n0m0M0N0B    ",
  "    0V0C}#0Z0A0S0D0F0G0H0J0KXB0L0P0I0U0Y0T0R0E0W0Q0!}$:Q0~0^    ",
  "    0/0(0)0_0`0'0x0x0c0]510[0{0}0|q.qXqoqOq+q@q#q$q%q&q*q=q-    ",
  "    q;q:q>q,q<q1q2q3q4q5;zq6q7q8q9q0qqqwqeqrqtqyquqiqp>{qaqs    ",
  "    qdqfqgqhq<qjqjq7q8qk}lqlqzqzqxqcqvqbqnqmqmqMqMqNqBqVqCqZ    ",
  "    qAqSqDqFq8qGqHqJqKqLqPqIqUqYqTqRqEqWqQq!q~q^q/q(q)6Oq_q`    ",
  "    q'q]q[q{q}q|q|w.wXwowOw+w@w#w$w%w&w*w=w-w;w:w>w,hx<:w<w1    ",
  "    w20Kw3w4w5w6w7w8w9w0wqwwwewrwtwywuwiwpwawswdwdwfwgXLwhwj    ",
  "    wk%|wlwzwxwcwcwvw9wbwnwwwewrwtwywuwmwMwNwBwVwVwCwZwAwSwD    ",
  "    wFo#wGwHwJwKwLwPwIwUwYwwwewrwtwywuwmwTwNwRwRwEwWwQw!.ow~    ",
  "    w^w/5_w(wPw)w_wRw`w'w]wwwewrwtwywuw[w{wNw}w}w|e.eXeoeOe+    ",
  "    e@%ee#e$e%e&e*e*e=e-e;e:e>e,e<e1e2e3e4e5e6e7e8e9e0eqewee    ",
  "    er|.eteyeueiepepeaesedefegehejekwNelezexecevebenemXJeMeN    ",
  "    eBg!eVeCeZeAeAeSeDeFecevebeGeGeHeHeJeJeKeLeLePeIeUeYeTeR    ",
  "    eE,.eWeQe!e~e^e^e~e/e(e(e(e/e/e(e)e_e_e_e`e_e_e'e]e[.re{    ",
  "    e}3ue|r.rXrorOrOr+r@r#r$r%r&r*onr=ojr-r;r:r>r,r<r1r2r3r4    ",
  "    r5.Y|r|r:Q,.:U}I}I;Z:Tr6>{w33}><r7:j>}>},&r84M:f|1r9r0rq    ",
  "    rwre;[>(Nv:;4Y6(rr:8l<:05{:q:i6]6[;D;Ertkc:-ryrurururirp    ",
  "            *!+r@=rarsrdrflWlWlWlWlWlWrgrhrjrk9)*.=N@2@.        ",
  "          @.@2@n+/rlrzrxrcl~l~l~l~l~l~rcrcrvrb*lrn@6*'@B        ",
  "          @N@:+|rmrMrNrBrVrBrCrcrcrCrCrcrZrArSrDrF*.*k:k        ",
  "          @M@b=N*.rGrHrJhXrKrLrP}GeOrIrUrYrTrR&WrE&V@o&^        ",
  "            &^@:@5+/rWrQr!r~r^r/r/r(r)r_r`r'T2rn@6*k@B          ",
  "              @.@2+k9b*~9)r]r[r{r}r|t.&W:drn+/+|+r@N            ",
  "                  @.+>@m=N*Q@6*.+/+/*.&V+|*':k@X                ",
  "                        +j@.@N&^@C&^@N@.+j                      ",
  "                                                                "
};
