/* XPM */
const char *xpm_tango_actions_tab_new[] = {
  // Header (width height colors chars-per-pixel)
  "32 32 165 2",
  
  // Colors (code mode value)
  "+j c #00000001",
  "@. c #00000003",
  "@X c #00000004",
  "@N c #00000005",
  "&^ c #00000006",
  "*! c #00000008",
  "@B c #0000000A",
  "@b c #0000000D",
  ":l c #0000000F",
  "@V c #00000011",
  "@o c #00000014",
  "+k c #00000016",
  "=N c #00000018",
  "@5 c #0000001A",
  "*Q c #0000001D",
  "+N c #00000026",
  "+J c #00000027",
  "9) c #0000002C",
  "rF c #0000002D",
  ":s c #00000031",
  "r} c #80808008",
  "eB c #888A85FF",
  "sM c #898B87DA",
  "sm c #8A8C87E4",
  "s, c #8A8C87F7",
  "s% c #8B8C88F0",
  "aE c #8B8D87F1",
  "aR c #8C8E89A0",
  "sb c #8C8E89DD",
  "3, c #8C8E89FF",
  "a] c #8C8E8A97",
  "3V c #8D8F8AFF",
  "sn c #8E8F8AD1",
  "sv c #989974FF",
  "aW c #A1A06AFF",
  "a[ c #BDBEBCF9",
  "aQ c #C3BF4BFF",
  "sg c #C4BF4BFF",
  ":7 c #C8C8C8FF",
  ",< c #CACACAFF",
  "+a c #CBCBCBFF",
  ",2 c #CDCDCDFF",
  "s9 c #CFCEC4FF",
  "+v c #D0D0D0FF",
  "s< c #D3D1A8FF",
  ",, c #D3D3D3FF",
  "s& c #D5D299FF",
  "si c #D5D4BAFF",
  "sk c #D5D4C8FF",
  "#0 c #D5D5D4FF",
  ":o c #D5D5D5FF",
  ",N c #D6D6D6FF",
  ",B c #D8D8D8FF",
  ",b c #D9D9D9FF",
  ",v c #DBDBDBFF",
  "s0 c #DCD890FF",
  "sl c #DCD9A8FF",
  ",^ c #DCDCDCFF",
  "=[ c #DEDEDEFF",
  "sp c #E0DC8FFF",
  "sz c #E0DC92FF",
  "+Z c #E1E1E1FF",
  "s1 c #E2DD74FF",
  "sx c #E2DE8CFF",
  "sy c #E3DB34FF",
  "&I c #E4E4E4FF",
  "a! c #E5DC33FF",
  ";3 c #E5E5E5FF",
  "s* c #E6E065FF",
  ";b c #E6E6E6FF",
  "sq c #E8E266FF",
  "sa c #E8E271FF",
  "ss c #EDE65EFF",
  "sd c #EFE856FF",
  ";A c #EFEFEFFF",
  ";T c #F0F0F0FF",
  "s2 c #F1E94AFF",
  ";` c #F1F1F1FF",
  ";' c #F2F2F2FF",
  "s6 c #F3EB40FF",
  "sw c #F3EB46FF",
  ":O c #F3F3F3FF",
  "a~ c #F4EC4EFF",
  ":3 c #F4F4F4FF",
  "=a c #F5F5F5FF",
  "s= c #F6ED39FF",
  "+W c #F6F6F6FF",
  "s: c #F7F062FC",
  ":9 c #F7F7F7FF",
  "a^ c #F8F281FF",
  ";R c #F8F8F8FF",
  ";S c #F9F9F9FF",
  "se c #FAF137FF",
  "sr c #FAF142FF",
  ".k c #FAF246FF",
  "s- c #FAF364FF",
  "a/ c #FAF59BFE",
  "s3 c #FBF570FF",
  "a( c #FBF582F7",
  "sO c #FBF7AFFF",
  ";Q c #FBFBFBFF",
  "s+ c #FCF667F2",
  "s4 c #FCF684FF",
  "-z c #FCF7A2FF",
  "=q c #FDFDFDFF",
  "s; c #FEF9A6FF",
  "sc c #FEFBB5FF",
  ".R c #FEFBCAFF",
  "=w c #FEFEFEFF",
  "sj c #FFD50006",
  ".X c #FFED000E",
  "a' c #FFED062B",
  "mO c #FFF00723",
  "s8 c #FFF20013",
  "sh c #FFF20D4D",
  "aY c #FFF20D61",
  "aZ c #FFF3062A",
  "aA c #FFF30C56",
  "aF c #FFF30E6B",
  "@] c #FFF30E6D",
  "aS c #FFF30E6E",
  "a` c #FFF31281",
  ";O c #FFF3159B",
  "XX c #FFF3169A",
  "s@ c #FFF31FDD",
  "aD c #FFF4052F",
  "-> c #FFF4062D",
  "@d c #FFF4062E",
  "su c #FFF40B45",
  "aJ c #FFF40D5F",
  "s7 c #FFF40F76",
  "m8 c #FFF4106F",
  ":K c #FFF41178",
  "s> c #FFF4128C",
  "s# c #FFF41390",
  "=` c #FFF4148E",
  "aK c #FFF416A0",
  "aU c #FFF416A1",
  "aG c #FFF41ABA",
  ":L c #FFF41ABB",
  "a_ c #FFF41CC9",
  "mP c #FFF41EDA",
  ":F c #FFF41FD9",
  "m@ c #FFF5001A",
  "@F c #FFF50533",
  "aH c #FFF50534",
  ".C c #FFF51BC5",
  "s$ c #FFF60938",
  "st c #FFF63DFF",
  "aL c #FFF63FE6",
  "a| c #FFF63FFF",
  "aI c #FFF640E7",
  "a) c #FFF649E8",
  "aP c #FFF74FE9",
  "sf c #FFF86FFF",
  "s. c #FFF96FFF",
  "s5 c #FFF975FF",
  "a} c #FFF97CFF",
  "sX c #FFFBB1FF",
  "a{ c #FFFCC1FF",
  "so c #FFFDE7FF",
  "X} c #FFFF0002",
  "aT c #FFFF000F",
  ">X c #FFFFFFFF",
  "   c none",
  
  // Image data
  "                                                                ",
  "                                                                ",
  "                                                                ",
  "                                              .XmOaZmO.X        ",
  "                                            @daAaS:Km8aAaD      ",
  "                                          @FaFXXaG.C:L;O@]aH    ",
  "                                        m@aJaK:FaLaPaImPaUaYaT  ",
  "        r}aRaEeBeBeBeBeBeBeBeBeBeBeBeBeBaWaQa!a~a^a/a(a)a_a`a'  ",
  "        a]a[;R>X>X>X>X>X>X>X>X>X>X>X>X>Xa{a}a|s.sXsosOs+s@s#s$  ",
  "        s%;R,,:7:7:7:7:7:7:7:7:7:7:7:7:7s&s*s=s--z.Rs;s::Fs>->  ",
  "        s,=w+a,<,<,<,<,<,<,<,<,<,<,<,<,<s<s1s2.ks3s4s5s6:Ls7s8  ",
  "        s,>X,2,2,2,2,2,2,2,2,2,2,2,2,2,2s9s0sqswsesrstsy=`su    ",
  "        s,>X+v+v+v+v+v+v+v+v+v+v+v+v+v+v+vsispsasssdsfsgshsj    ",
  "        s,>X,,,,,,,,,,,,,,,,,,,,,,,,,,,,,,,,skslszsxscsvX}      ",
  "        s,>X,N,N,N,N,N,N,N,N,N,N,N,N,N,N,N:o:o:o#0#0;QeB        ",
  "        s,=q,b,b,b,b,b,b,b,B,B,B,B,B,B,B,B,B,B,B,B,B;SeB        ",
  "        s,;Q,^,^,^,^,v,v,v,v,v,v,v,v,v,v,v,v,v,v,v,v:9eB        ",
  "        s,;S=[=[=[=[=[=[=[=[=[=[=[=[=[=[=[=[=[=[=[=[+WeB        ",
  "        s,:9+Z+Z+Z+Z+Z+Z+Z+Z+Z+Z+Z+Z+Z+Z+Z+Z+Z+Z+Z+Z=aeB        ",
  "  sbeBeBeB+W&I&I&I&I&I&I&I&I&I&I&I&I&I&I&I&I&I&I&I&I=aeBeBeBsn  ",
  "  3V:9:9:9+W;3;3;3;3;3;3;3;3;3;3;3;3;3;3;3;3;3;3;3;3:3:O:O:OeB  ",
  "  3V:3;3;3;3;3;3;3;3;3;3;3;3;3;3;3;3;3;3;3;3;3;3;3;3;3;3;b;`eB  ",
  "  3,:O;3;3;3;3;3;3;3;3;3;3;3;3;3;3;3;3;3;3;3;3;3;3;3;3;3;b;TeB@.",
  "&^3,;';';';';';';';';`;`;`;`;`;`;`;`;T;T;T;T;T;T;T;A;A;A;A;AeB@V",
  "@BsmeBeBeBeBeBeBeBeBeBeBeBeBeBeBeBeBeBeBeBeBeBeBeBeBeBeBeBeBsM=N",
  "@N@V*Q+N9):s:s:s:s:s:s:s:s:s:s:s:s:s:s:s:s:s:s:s:s:s:srFrF+J*Q:l",
  "  +j*!@V+k@5@5@5@5@5@5@5@5@5@5@5@5@5@5@5@5@5@5@5@5@5@5+k@o@b@X  ",
  "                                                                ",
  "                                                                ",
  "                                                                ",
  "                                                                ",
  "                                                                "
};
