/* XPM */
const char *xpm_tango_actions_view_fullscreen[] = {
  // Header (width height colors chars-per-pixel)
  "32 32 198 2",
  
  // Colors (code mode value)
  "@M c #00000002",
  "@. c #00000003",
  "*7 c #00000009",
  "@B c #0000000A",
  "@b c #0000000D",
  "+r c #00000012",
  "@m c #00000013",
  "@n c #00000019",
  "+N c #00000026",
  ":d c #00000030",
  "*8 c #00000036",
  "rD c #00000038",
  ",W c #00000039",
  "*6 c #00000040",
  "*. c #00000045",
  ":g c #0000004A",
  "p- c #204A87FF",
  "sQ c #214A87FF",
  "s' c #224B87FF",
  "sH c #254E89FF",
  "sJ c #28508BFF",
  "sP c #28528CFF",
  "sW c #29528CFF",
  "f8 c #2B538DFF",
  "9e c #2B548DFF",
  "dY c #2C548DFF",
  "d$ c #2D558EFF",
  "f< c #2E558EFF",
  "sG c #2F568EFF",
  "fe c #30578FFF",
  "sA c #345A91FF",
  "s! c #375D93FF",
  "s] c #395F94FF",
  "s_ c #44689AFF",
  "d# c #46699BFF",
  "f, c #486A9CFF",
  "f# c #496B9CFF",
  "s~ c #4F709FFF",
  "s[ c #4F719FFF",
  "d* c #5071A0FF",
  "s) c #5C7CA6FF",
  "d@ c #5E7DA7FF",
  "f3 c #5F7EA8FF",
  "d& c #607EA8FF",
  "f> c #617FA9FF",
  "f$ c #6280AAFF",
  "fO c #6380AAFF",
  "d' c #6481ABFF",
  "sY c #6483ABFF",
  "s{ c #6784ACFF",
  "d= c #6885ACFF",
  "sE c #6A87ADFF",
  "f4 c #6B87AEFF",
  "d6 c #6D8AB0FF",
  "f7 c #6E8AB0FF",
  "f+ c #708BB1FF",
  "fa c #72746F72",
  "d` c #758FB3FF",
  "d+ c #7691B4FF",
  "d5 c #7893B5FF",
  "fi c #797B776B",
  "f: c #7B94B7FF",
  "f% c #7C95B7FF",
  "s} c #7C97B8FF",
  "fo c #7D95B8FF",
  "d] c #7E96B8FF",
  "d- c #7F97B8FF",
  ";i c #8098B8FF",
  "d0 c #839CBBFF",
  "eB c #888A85FF",
  "s^ c #889FBDFF",
  "3W c #8A8C87F4",
  "fp c #8A8C88F3",
  "fr c #8B8D89F1",
  "fu c #8B8D89F2",
  "sB c #8C8E8AF1",
  "sN c #8C8F895D",
  "dO c #8FA5C1FF",
  "d4 c #91A7C2FF",
  "s( c #91A8C2FF",
  "dy c #93A8C3FF",
  "f1 c #94A8C3FF",
  "du c #94A9C3FF",
  "f; c #95A9C4FF",
  "dq c #95ABC5FF",
  "f& c #96A9C4FF",
  "d; c #96AAC4FF",
  "f2 c #97AAC4FF",
  "d( c #97AAC5FF",
  "dW c #98ABC5FF",
  ";J c #9BAEC8FF",
  "dd c #A9BACEFF",
  "d3 c #AABCCFFF",
  "s| c #AABDD0FF",
  "d% c #ABBDD0FF",
  "d: c #ACBED1FF",
  "dw c #ADBED0FF",
  "sI c #ADBFD1FF",
  "fX c #AFBED1FF",
  "df c #AFBFD2FF",
  "d/ c #B0BFD2FF",
  "d[ c #B1BFD2FF",
  "dQ c #B1C0D3FF",
  "sU c #B2C2D3FF",
  "sK c #B4C5D5FF",
  "d7 c #B6C5D5FF",
  "d8 c #B7C7D6FF",
  "do c #B8C8D7FF",
  "da c #B9C9D8FF",
  "f@ c #BBC8D8FF",
  "sL c #BBCBD9FF",
  "f9 c #BCC7D8FF",
  "dk c #BCCAD8FF",
  "sS c #BDCDDAFF",
  "f* c #BECAD9FF",
  "sF c #BFCDDAFF",
  "f- c #C0CBDAFF",
  "dI c #C0CCDAFF",
  "dp c #C0CDDAFF",
  "dz c #C0CEDBFF",
  "d_ c #C2CDDCFF",
  "dH c #C2CEDCFF",
  "d2 c #C2D0DCFF",
  "de c #C4D1DDFF",
  "f0 c #C5CFDDFF",
  "dU c #C5D0DDFF",
  "dg c #C6D3DEFF",
  "dF c #C9D3DEFF",
  "f. c #C9D3DFFF",
  "dT c #C9D4DFFF",
  "fw c #CAD2DFFF",
  "d^ c #CAD4E0FF",
  "d{ c #CBD4E0FF",
  "3N c #CBD5E0FF",
  "dP c #CCD5E0FF",
  "dJ c #CDD5E0FF",
  "d> c #CDD8E1FF",
  "fq c #CED6E1FF",
  "dv c #CFD9E2FF",
  "dr c #DBE4E9FF",
  "dt c #DDE5EAFF",
  "dh c #DDE6EAFF",
  "db c #DFE6EBFF",
  "dj c #DFE7EBFF",
  "d1 c #E0E7EBFF",
  "d9 c #E2EAEDFF",
  "d~ c #E3E9EEFF",
  "sT c #E3EBEDFF",
  "dn c #E4EAEDFF",
  "d! c #E4EAEEFF",
  "di c #E4ECEEFF",
  "dL c #E5EAEDFF",
  "dK c #E6EAEEFF",
  "s/ c #E6EDEFFF",
  "d} c #E7EBEFFF",
  "dS c #E8ECEFFF",
  "dl c #E8EFF0FF",
  "d. c #E8F0F1FF",
  "dA c #E9EEF0FF",
  "sD c #E9F1F1FF",
  "dc c #EAEFF1FF",
  "sR c #EAF1F1FF",
  "d) c #EBF0F2FF",
  "d, c #EBF1F2FF",
  "dX c #EBF2F2FF",
  "d< c #ECF2F2FF",
  "f5 c #EDF0F2FF",
  "dE c #EDF1F3FF",
  "dm c #EDF2F3FF",
  "ds c #EDF3F3FF",
  "5- c #EEF1F2FF",
  "dx c #EEF3F3FF",
  "3d c #EFF1F3FF",
  "sV c #EFF2F1FF",
  "dD c #EFF3F4FF",
  "dM c #EFF4F4FF",
  "dN c #F0F4F4FF",
  "pd c #F1F2F4FF",
  "dB c #F1F4F4FF",
  "dC c #F1F5F5FF",
  "f= c #F2F4F5FF",
  "dZ c #F2F5F5FF",
  "dG c #F3F5F5FF",
  "dR c #F3F6F6FF",
  ":3 c #F4F4F4FF",
  "d| c #F4F6F6FF",
  "3S c #F5F6F6FF",
  "f6 c #F6F7F7FF",
  "ft c #F6F7F9FF",
  ":9 c #F7F7F7FF",
  "fy c #F9F9FBFF",
  "sC c #FAFBFBFF",
  "sZ c #FAFCFCFF",
  "s` c #FBFCFCFF",
  ";7 c #FCFCFCFF",
  "dV c #FCFDFDFF",
  "=q c #FDFDFDFF",
  "   c none",
  
  // Image data
  "                                                                ",
  "    sNsBeBeBeBeBeBeBeBeBeBeBeBeBeBeBeBeBeBeBeBeBeBeBeBeBeBsBsN  ",
  "    sBsVsCsCsCsCsCsCsCsCsCsCsCsCsCsCsCsCsCsCsCsCsCsCsCsCsCsVsB  ",
  "    eBsZ9e9e9e9e9e9e9esAsSsDsDsDsDsDsDsDsFsGsHsHsHsHsHsHsHsZeB  ",
  "    eBsZp-p-p-p-p-p-sJsKsDsDsDsDsDsDsDsDsDsLsPp-p-p-p-p-p-sZeB  ",
  "    eBsZp-p-p-p-p-p-sIsDsDsDsDsDsDsDsDsDsDsDsUp-p-p-p-p-p-sZeB  ",
  "    eBsZp-p-p-p-p-p-sYsTsRsRsRsRsRsRsRsRsRsTsEsWp-p-p-p-p-sZeB  ",
  "    eBsZp-p-p-p-sQs!s~s^s/sRsRsRsRsRsRsRs/s(s)s_9ep-p-p-p-sZeB  ",
  "    eBs`p-p-p-s's]s[s{s}s|d.dXdXdXdXdXsDdodOd+d@d#d$p-p-p-s`eB  ",
  "    eBs`p-sJd%d&d*d=d-d;d:d>d,d<d<d<d<d1d2d3d4d5d&d6d7sWp-s`eB  ",
  "    eBs`sJd8d<d9d0;idqdwdedrd<d<d<d<d<d<dtded%dydudid<dpsWs`eB  ",
  "    eBs`dadsdsdss/dddfdgdhdsdsdsdsdsdsdsdsdjdgdkdldsdsdsdzs`eB  ",
  "    eBs`dxdxdxdxdxdcdvdbdxdxdxdxdxdxdxdxdxdxdnd,dxdxdxdxdxs`eB  ",
  "    eBs`dxdxdxdxdxdxdmdxdxdxdxdxdxdxdxdxdxdxdxdxdxdxdxdxdxs`eB  ",
  "    eBs`dMdMdMdMdMdMdMdMdMdMdMdMdMdMdMdMdMdMdMdMdMdMdMdMdMs`eB  ",
  "    eB;7dNdNdNdNdNdNdNdNdNdNdNdNdNdNdNdNdNdNdNdNdNdNdNdNdN;7eB  ",
  "    eB;7dBdBdBdBdBdBdBdBdBdBdBdBdBdBdBdBdBdBdBdBdBdBdBdBdB;7eB  ",
  "    eBdVdCdCdCdCdCdCdCdCdCdCdCdCdCdCdCdCdCdCdCdCdCdCdCdCdCdVeB  ",
  "    eBdVdZdZdZdZdZdNdAdZdZdZdZdZdZdZdZdZdZdZdSdDdZdZdZdZdZdVeB  ",
  "    eBdVdFdGdGdG3ddHdJdKdGdGdGdGdGdGdGdGdGdLdPdI5-dGdGdGdUdVeB  ",
  "    eBdVdYdTdRdE;JdWdQ3Nd!dRdRdRdRdRdRdRd~d^d/d(dWd)dRdUsWdVeB  ",
  "    eBdVp-dYd_d`d'd]d(d[d{d}d|d|d|d|d|d}f.fXd;fofOf+f@sWp-dVeB  ",
  "    eB=qp-p-p-sGf#f$f%f&f*f=3S3S3S3S3SdGf-f;f:f>f,f<p-p-p-=qeB  ",
  "    eB=qp-p-p-p-f<f,f>f13d3S3S3S3S3S3S3Spdf2f3d#dYp-p-p-p-=qeB  ",
  "    eB=qp-p-p-p-p-dYf4f5f6f6f6f6f6f6f6f6f63df7f8p-p-p-p-p-=qeB  ",
  "    eB=qp-p-p-p-p-p-f-:9:9:9:9:9:9:9:9:9:9:9f9p-p-p-p-p-p-=qeB  ",
  "    eB=qp-p-p-p-p-p-dYdP:9:9:9:9:9:9:9:9:9f0sWp-p-p-p-p-p-=qeB  ",
  "    eB=qp-p-p-p-p-p-p-f<fq:9:9:9:9:9:9:9fwfesHsHsHsHsHsHsH=qeB  ",
  "    fr:3ftftftftftftftftfy=q=q=q=q=q=q=q=q=q=q=q=q=q=q=q=q:3fu  ",
  "  @MfifpeBeBeBeBeBeBeBeBeBeBeBeBeBeBeBeBeBeBeBeBeBeBeBeBeB3Wfa@B",
  "    @m+NrD*.*8*8*8*8*8*8*8*8*8*8*8*8*8*8*8*8*8*8*8*8,W:g*6:d@n@M",
  "      @.@B+r*7*7*7*7*7*7*7*7*7*7*7*7*7*7*7*7*7*7*7*7@b+r@B@.    "
};
