/* XPM */
const char *xpm_tango_actions_view_refresh[] = {
  // Header (width height colors chars-per-pixel)
  "32 32 450 2",
  
  // Colors (code mode value)
  "+j c #00000001",
  "@M c #00000002",
  "@. c #00000003",
  "@X c #00000004",
  "&^ c #00000006",
  "@C c #00000007",
  "*! c #00000008",
  "*7 c #00000009",
  "@B c #0000000A",
  ":k c #0000000C",
  "@b c #0000000D",
  "@2 c #0000000E",
  ":l c #0000000F",
  "@: c #00000010",
  "+r c #00000012",
  "@m c #00000013",
  "@o c #00000014",
  "*' c #00000015",
  "+k c #00000016",
  "*k c #00000017",
  "=N c #00000018",
  "@n c #00000019",
  "@5 c #0000001A",
  "+| c #0000001B",
  "@= c #0000001C",
  "*Q c #0000001D",
  "9b c #0000001E",
  "&V c #0000001F",
  "@6 c #00000020",
  "+g c #00000021",
  "*. c #00000022",
  "+/ c #00000023",
  "*` c #00000024",
  "*~ c #00000025",
  "+N c #00000026",
  "+J c #00000027",
  "er c #00000028",
  "rE c #00000029",
  "rn c #0000002A",
  "*F c #0000002B",
  "9) c #0000002C",
  "rF c #0000002D",
  "*^ c #0000002E",
  ":d c #00000030",
  ":s c #00000031",
  "T2 c #00000032",
  "&W c #00000034",
  "*l c #00000035",
  "*8 c #00000036",
  "*G c #00000037",
  "rD c #00000038",
  "9c c #0000003A",
  ":h c #0000003B",
  "*/ c #0000003C",
  "B% c #0000003D",
  "*o c #00000041",
  "*( c #00000042",
  "*9 c #00000046",
  ":f c #00000047",
  ":g c #0000004A",
  "jY c #0000004B",
  "*W c #0000004D",
  "jU c #0000004E",
  "h* c #00FFFF01",
  "jA c #06090F54",
  "jq c #142B4341",
  "jk c #142B445A",
  "jI c #16294350",
  "jC c #172E4D42",
  "jS c #1B355883",
  "j& c #20466F37",
  "j0 c #254B774B",
  "jP c #2A4F8398",
  "jh c #2A50825C",
  "jj c #2A548661",
  "jD c #2B5185BA",
  "]2 c #2B55AA06",
  "j8 c #2D568B44",
  "'v c #2D69A511",
  "j* c #2E568F79",
  "jl c #2E578EB3",
  "jZ c #2E599475",
  "g~ c #2E5DA20B",
  "jw c #315F98B7",
  "VO c #3161A42A",
  "-h c #3161AA15",
  "gM c #3162A71A",
  "hm c #3163A443",
  "fD c #3163A51F",
  "jF c #325E9AE0",
  "jL c #32609BD7",
  "jV c #32609CC7",
  "Ak c #3263A324",
  "fz c #3264A242",
  "h$ c #3265A451",
  "h^ c #3267A65C",
  "fF c #3362A446",
  "jJ c #3364A4FC",
  "8I c #3364A4FF",
  "gz c #3364A5FE",
  "gR c #3365A468",
  "-o c #3366990A",
  "A( c #3366A21E",
  "=K c #3366A237",
  "gZ c #3366A42D",
  "28 c #3366A614",
  "An c #3366AA0F",
  "hM c #3377BB0F",
  "jH c #3463A3F9",
  "fW c #3463A43B",
  "jG c #3464A1F5",
  "jK c #3464A2F0",
  "gq c #3464A5DD",
  "h; c #3465A34E",
  "fx c #3465A353",
  "h. c #3465A4FA",
  "2} c #3465A4FF",
  "jg c #3465A5F4",
  "hI c #3466A5F8",
  "h, c #3467A54F",
  "f` c #3467A659",
  "g} c #3561A71D",
  "hs c #3565A36F",
  "gG c #3565A3A4",
  "g{ c #3565A4F7",
  "-t c #3565A530",
  "fG c #3565A560",
  "gC c #3565A5F7",
  "fg c #3565A5FA",
  "fc c #3565A62B",
  "j# c #3566A5E6",
  "j7 c #3566A5F6",
  "f! c #3567A552",
  "fl c #3567A68F",
  "hD c #3567A6C6",
  "g& c #3568A678",
  "f[ c #365EA113",
  "g_ c #3664A221",
  "jz c #3666A2F7",
  "g| c #3666A5F6",
  "gm c #3666A6C3",
  "gh c #3666A77A",
  "gg c #3667A5EE",
  "hb c #3667A5F4",
  "hn c #3667A6A1",
  "hz c #3667A6F2",
  "hE c #3667A9FE",
  "ha c #3668A6F1",
  "hd c #375BA40E",
  "gL c #3761A42A",
  "g` c #3767A54F",
  "jB c #3767A6F3",
  "fh c #3767A6F6",
  "h9 c #3767A7A8",
  "fA c #3767A7F0",
  "gH c #3768A57D",
  "j= c #3768A5F6",
  "fE c #3768A69A",
  "gN c #3768A6B5",
  "g9 c #3768A7FF",
  "h@ c #3769A6F1",
  "hU c #3769A9FF",
  "hT c #376CAEFF",
  "f_ c #3867A6F2",
  "fj c #3867A7ED",
  "fQ c #3867A7F5",
  "j% c #3868A6F0",
  "g, c #3868A6FD",
  "f{ c #3868A7F0",
  "f' c #3868A7F3",
  "fS c #3869A68D",
  "ht c #3869A7F7",
  "hR c #386BADFE",
  "hY c #386BADFF",
  "F, c #3963AA12",
  "gT c #3967A774",
  "ff c #3968A8ED",
  "gj c #3968A8F3",
  "ge c #3969A5F5",
  "gw c #3969A7AA",
  "8N c #3969A7FF",
  "gs c #3969A8FB",
  "g: c #3969A8FE",
  "fs c #396AA982",
  "h5 c #396AA99D",
  "je c #3A69A6F7",
  "fk c #3A6AA8CA",
  "g> c #3A6AA8FF",
  "g0 c #3A6AA9F8",
  "hZ c #3A6CABFB",
  "fR c #3B69A9F5",
  "'d c #3B6AA7F8",
  "gc c #3B6AA7FE",
  "j9 c #3B6AA8F4",
  "g8 c #3B6AA8FC",
  "gx c #3B6AA8FF",
  "h~ c #3B6EADF2",
  "gp c #3C6AA9F5",
  "fv c #3C6BA8C8",
  "g5 c #3C6BA8DE",
  "h& c #3C6CA8F4",
  "fd c #3D6CA9CD",
  "fH c #3E6CA9F3",
  "f~ c #3F6EAAF5",
  "g' c #3F6EABF6",
  "hk c #3F70ADEA",
  "$^ c #406EAAFF",
  "hW c #4072B0FB",
  "hN c #407AC37B",
  "h8 c #416EA9FF",
  "h> c #416EAAFD",
  "gA c #4172AFEB",
  "gJ c #4472ACF9",
  "hA c #4476B3FA",
  "g) c #4477AA2D",
  "gE c #4571ACF5",
  "hP c #4573AFF1",
  "g# c #4574ADF5",
  "hl c #4577B4FA",
  "jx c #4674ADF5",
  "jN c #4679B6FC",
  "jf c #477AB7FD",
  "hB c #4982C6F2",
  "gd c #4A77B3FF",
  "j@ c #4A7EBCFF",
  "fb c #4B77B0F0",
  "g^ c #4B79B263",
  "gF c #4D7AB4C3",
  "hS c #4D81BCFF",
  "j6 c #4D82BEFF",
  "g; c #4E79B2FC",
  "gf c #4E7BB5FF",
  "gn c #517EB8E8",
  "hQ c #5183BEFF",
  "fZ c #537EB5F1",
  "g( c #5380BA34",
  "AA c #5555AA03",
  "jM c #5588C1FF",
  "hf c #558DCA57",
  "hv c #5682B9F5",
  "gP c #5783BBA2",
  "j+ c #578CC7FF",
  "g/ c #587CB740",
  "h( c #5882B7F6",
  "gv c #5884BBFC",
  "j5 c #588CC7FF",
  "j4 c #588DC6FF",
  "h! c #588DC7FF",
  "jd c #588EC6FF",
  "jc c #5A88BEFE",
  "j. c #5A8AC2FF",
  "jO c #5B8FC7FF",
  "j3 c #5B8FC8FF",
  "g< c #5C84B8F1",
  "jX c #5C8CC3FF",
  "ja c #5C90C7FF",
  "js c #5C90C8FF",
  "g7 c #5D86B8FC",
  "gb c #5D88BEED",
  "gY c #5D89BF73",
  "jp c #5D90C8FF",
  "j2 c #5D91C8FF",
  "h| c #5E8DC3FF",
  "jo c #5E90C9FF",
  "ji c #5F91C8FF",
  "h0 c #608FCF10",
  "jm c #6090C7FF",
  "j< c #6093C9FF",
  "j1 c #6093CAFF",
  "hL c #618DC1FC",
  "ju c #6193CAFF",
  "j, c #6294CAFF",
  "j> c #6395CAFF",
  "gS c #648DC3BA",
  "jr c #648EC0FB",
  "jv c #6592C6FF",
  "j: c #6596CBFF",
  "h] c #6696CBFF",
  "gD c #678FC5AB",
  "h' c #6797CBFF",
  "2j c #6797CCFF",
  "j- c #6990C1FB",
  "h} c #6995C8FF",
  "NT c #6999CCFF",
  "NR c #6A99CCFF",
  "j; c #6A9ACCFF",
  "gr c #6B90C0F6",
  "ga c #6B91C0FB",
  "jb c #6B98CBFF",
  "jn c #6B99CCFF",
  "hH c #6D9BCEFF",
  "g* c #6E94C1F7",
  "h` c #6E9CCDFF",
  "gI c #6F97CA78",
  "NF c #6F9DCEFF",
  "gU c #7099CC69",
  "gk c #7197C5FB",
  "2p c #719ECFFF",
  "h[ c #729ECFFF",
  "'~ c #729FCFFF",
  "hp c #7399C5FA",
  "N, c #739FCFFF",
  "gV c #74A0CFFF",
  "gQ c #74A1D0FF",
  "Nj c #75A1D0FF",
  "f) c #769AC6FA",
  "hC c #769CCCE0",
  "h{ c #76A0D0FF",
  "N0 c #76A1D0FF",
  "-# c #76A2D0FF",
  "-: c #77A2D0FF",
  "2A c #78A3D1FF",
  "fT c #799EC9FA",
  "N> c #79A4D1FF",
  "jy c #7AA4D2FF",
  "gl c #7AA5D2FF",
  "-8 c #7BA5D2FF",
  "N7 c #7CA5D2FF",
  "jt c #7EA5D2FF",
  "-7 c #7EA7D3FF",
  "h< c #8080FF02",
  "hK c #80A7D3FF",
  "gu c #80A9D4FF",
  "No c #81A9D3FF",
  "fC c #82A3CBFC",
  "hJ c #82A9D4FF",
  "hq c #82A9D89D",
  "NG c #84ABD5FF",
  "2I c #85AAD2FF",
  "fn c #87A6CEFC",
  "f] c #87AAD2FF",
  "gK c #87ADD6FF",
  "hg c #87ADD9C8",
  "h_ c #88AED7FF",
  "g$ c #89AAD1FE",
  "B( c #8BAFD7FF",
  "2a c #8BB0D7FF",
  "g1 c #8CACD2FD",
  "A[ c #8CB0D7FF",
  "N$ c #8FB3D8FF",
  "g- c #93B1D4FE",
  "h1 c #93B4DB63",
  "hr c #94AED645",
  "fJ c #94B1D4FE",
  "h/ c #94B3D7FD",
  "N< c #95B6DAFF",
  "hc c #95B7DBFF",
  "g3 c #96B5D8FF",
  "hx c #96B8DBFF",
  "Nh c #97B8DBFF",
  "gt c #98B7D9FF",
  "hy c #98B9DBFF",
  "gy c #98B9DCFF",
  "-@ c #99BADCFF",
  "D8 c #9AB6D7FF",
  "2> c #9BBBDDFF",
  "fV c #9CB8D9FF",
  "'G c #9CBCDDFF",
  "g@ c #9DBADBFF",
  "S1 c #9DBCDEFF",
  "Z! c #9EB9DAFF",
  "gB c #9EBBDBFF",
  "gW c #9EBCDCFF",
  "'j c #9EBDDEFF",
  "j$ c #9FBCDAFF",
  "AN c #9FBDDDFF",
  "'g c #9FBEDEFF",
  "h+ c #A0BCDBFF",
  "=X c #A0BEDEFF",
  "h) c #A1BEDCFF",
  "G_ c #A2BCDBFF",
  "=U c #A2BFDFFF",
  "g4 c #A2C0DFFF",
  "g] c #A3BEDDFF",
  "gi c #A3C0DFFF",
  "g6 c #A5BFDCFF",
  "fm c #A5BFDEFF",
  "g% c #A5C2E0FF",
  "SV c #A6BFDDFF",
  "Fv c #A6C2E0FF",
  "hu c #A7C4E1FF",
  "go c #A8C4E1FF",
  "hF c #A9C2DEFF",
  "h7 c #A9C2DFFF",
  "gO c #A9C4E1FF",
  "2X c #A9C4E2FF",
  "g[ c #A9C5E1FF",
  "fY c #AAC4E1FF",
  "gX c #AAC5E2FF",
  "g. c #ABC4E0FF",
  "=5 c #ABC6E2FF",
  "*V c #ABC6E3FF",
  "'Q c #ADC7E3FF",
  "f^ c #AEC5E1FF",
  "=p c #AEC8E3FF",
  "fB c #AFC6E1FF",
  "f( c #AFC8E3FF",
  "FR c #AFC8E4FF",
  "g! c #AFC9E4FF",
  "hj c #B1CAE282",
  "f/ c #B1CAE4FF",
  "AI c #B2CAE4FF",
  "hi c #B2CBE4FF",
  "fI c #B2CBE5FF",
  "14 c #B3CAE4FF",
  "h: c #B3CBE4FF",
  "'F c #B3CBE5FF",
  "g+ c #B3CBE6FF",
  "g2 c #B3CCE5FF",
  "hV c #B3CDE5E4",
  "f| c #B4CCE4FF",
  "fU c #B4CCE5FF",
  "fP c #B5CDE5FF",
  "'S c #B5CDE6FF",
  "Fr c #B6CDE6FF",
  "fN c #B6CEE6FF",
  "hG c #B7CEE7FF",
  "fL c #B8CEE6FF",
  "'A c #B8CEE7FF",
  "]8 c #B9CFE7FF",
  "fK c #B9D0E7FF",
  "M; c #BAD0E7FF",
  "fM c #BAD0E8FF",
  "1X c #BBD1E8FF",
  "h= c #BCD0E426",
  "]7 c #BCD2E8FF",
  "F0 c #BDD2E8FF",
  "f} c #BDD3E8FF",
  "h3 c #BDD3E923",
  "<{ c #BED3E9FF",
  "h4 c #BFBFBF04",
  "h# c #BFBFDF08",
  "g= c #BFD4EAFF",
  "h- c #BFD5EA18",
  "*P c #C0D4E9FF",
  "1K c #C0D4EAFF",
  "he c #C1D5E84E",
  "]6 c #C1D5EAFF",
  "h2 c #C2D5E843",
  "hw c #C2D5EA6D",
  "hO c #C2D6EAFF",
  "hh c #C4D6E997",
  "]4 c #C4D7EBFF",
  "1g c #C6D8ECFF",
  "'f c #C7D9ECFF",
  "h6 c #C8D9ECFF",
  "h% c #C8DAECFF",
  "ho c #C9DAEDFF",
  "hX c #CADBEDFF",
  "   c none",
  
  // Image data
  "                                                                ",
  "                  VOfsfdfffgfhfjfkflfz]2                fx      ",
  "              fcfvfbfnfm14fMfNfBfVfCfZfAfSfD          fF8I      ",
  "            fGfHfJ]71XfKfLfP'F'FfIfUfLfYfTfRfE28    fWfQ8I      ",
  "          f!f~f^<{]7fMfK'AFrfIf/f('Q*V'QfUf/f)f_f`-tf'f]8I      ",
  "        f[f{SV*Pf}f|G_D8Z!g.M;]8fU=pgXgoFvgOg+g@g#2}g$g%8I      ",
  "        g&g*g=g-g;g:g>8N8Ng,'dg<g1g2Fr*V'jN$NoA[ANg3'Gg48I      ",
  "        g5g6g7g8g9g0gq=K    AnfFgwgegrgtgyNG-7-8guNhN>gi8I      ",
  "      -ogpgagsgdgfggF,            'vghgjgk=XB(gl2ANjNjgOgz      ",
  "      fcgxgcgvgbgngm                  gMgN$^gBgy-:gVNj=5gC      ",
  "      gZ8IgAgSgDgFgG                    gHgJ=UgKN0N,-#'QgC      ",
  "      gL8IgPgIgUgYgT                  gRgEgW2a-:gQ'~-#g!gC      ",
  "      g~8Ig^g/g(g)g_                g`g'g]gX2XgOg[gXFRAIg{      ",
  "        g}                        fz8I8I8I8I8I8I8I8I8I8I8I      ",
  "        8Ig|g|g|h.8I8I8I8I8I8I-h                      AAg_      ",
  "        8IhXhXho'fhO1K]6h+h@Ak                h#      h$8I      ",
  "        8Ih%2>gygygy=pg.h&=K                h*h=h-    h;8IAn    ",
  "        8Ih%2>gygygXh:h>h,                  h<h1h2h3h4h58IA(    ",
  "        8Ih62>gy-@F0h7h8h928                h0hqhwhehrht2}'v    ",
  "        8I1g2>gygyhyhuhihphahshd            hfhghhhjhkhlhz      ",
  "        8I]4S1'S2>hxhchcN<2Ihvhbhnhmhd  hMhNhBhVhChZhAhShD      ",
  "        8IhOfKhFhG'gNGhHNR2phJhKhLhPhIhUhYhThRhEhWhQh!h~h^      ",
  "        8I]6h/8Ih(h)h_h`NTh'h]NTh[-:h{h}h|j.jXjojOj+j@j#]2      ",
  "      +j8Ij$j%j&j*j=j-2aN7j;j:j>j,j<j<j<j1j2j3j4j5j6j7j8@C@M    ",
  "    @M*!2}j9j0&V*~jqjwjejrjtjyNFh'jujijpjajsjOjdjfjgjh+k@:@B@X  ",
  "  +j@C@b8Ijj@6+N9)T2rDjkjljzjxjcjvjbjn2jjmjMjNjBjVjC+g+|*':l*7@M",
  "  @M*!:ljZ+|*.er*^&W:h*o:fjAjSjDjFjGjHjJjKjLjPjI:drn+/*Q*k@:@B@M",
  "    &^:k+r@n&V*~*F:d*8*/*o*9:g*WjU*WjY:f*(B%rDT29)+N@6@5@o@2@C  ",
  "    +j@C:k+r=N*Q*.+J9):d&W*G9c*/*/*/:hrD*l:srFer*`9b@n@o@2&^    ",
  "        @M*!@b+r*k+|&V*.*~+JrErn*F*Frner+N+/@6@==N@m:l@C+j      ",
  "              @.@C:k@:+r*'*k=N@n@n@n=N*k*'@m:l@B&^@M            ",
  "                        +j@M@.@X@X@.@.@M+j                      "
};
