/* XPM */
const char *xpm_tango_actions_window_new[] = {
  // Header (width height colors chars-per-pixel)
  "32 32 164 2",
  
  // Colors (code mode value)
  "+j c #00000001",
  "@M c #00000002",
  "@X c #00000004",
  "&^ c #00000006",
  "@C c #00000007",
  "*! c #00000008",
  "*7 c #00000009",
  "+> c #0000000B",
  ":k c #0000000C",
  "@m c #00000013",
  "@6 c #00000020",
  "+g c #00000021",
  "*. c #00000022",
  "*^ c #0000002E",
  "T2 c #00000032",
  "rD c #00000038",
  "9c c #0000003A",
  "B% c #0000003D",
  "9] c #0000003F",
  "k+ c #3B6096FF",
  "kO c #3D6197FF",
  "k, c #5877A5FF",
  "k< c #5F7C9EFF",
  "k@ c #6B8474FF",
  "k9 c #7690B5FF",
  "k0 c #8097A8FF",
  "k' c #848484B6",
  "k` c #8B8B8BAD",
  ";* c #8C8C8CFF",
  "jE c #8D8D8DFE",
  "-i c #8D8D8DFF",
  "j` c #8E8E8EFE",
  "k1 c #90A171FF",
  "kf c #93A8C5FF",
  "kd c #94A9C5FF",
  "jR c #959595A3",
  "j_ c #989892A4",
  "kg c #99ABBBFF",
  "kU c #9D9C7AFF",
  "jW c #9E9C78FF",
  "k# c #A0AC51FF",
  "ko c #A6A472FE",
  "j) c #A8A56DFE",
  "kq c #A9B577FF",
  "jQ c #B3AF61FF",
  "k: c #B7B35FFF",
  "kS c #B8B35DFF",
  "kh c #B8C285FF",
  "j( c #BBB65AFF",
  "k2 c #C1C54BFF",
  "k8 c #C2BD53FF",
  "kn c #C3BE53FF",
  "j! c #C4BF51FF",
  "ka c #C6C04FFF",
  "j/ c #C9C34DFF",
  "j~ c #CEC848FF",
  "j^ c #CFC947FF",
  "k$ c #D1D238FF",
  "kw c #D2D34CFF",
  "kj c #D8D956FF",
  "&_ c #E0E0E0FF",
  "+Z c #E1E1E1FF",
  "+S c #E3E3E3FF",
  "k- c #E5E02FFF",
  ";3 c #E5E5E5FF",
  ";b c #E6E6E6FF",
  ":# c #E8E8E8FF",
  ",$ c #EAEAEAFF",
  ":, c #EBEBEBFF",
  "k% c #ECE742FF",
  "k3 c #EDE733FF",
  "k= c #EDE952FF",
  ";9 c #EDEDEDFF",
  "k7 c #EFEA4DFF",
  "k& c #EFEB62FF",
  ";A c #EFEFEFFF",
  "k* c #F0ED69FF",
  ";T c #F0F0F0FF",
  "ke c #F1EB41FF",
  ";` c #F1F1F1FF",
  ";' c #F2F2F2FF",
  "ki c #F3EE5DFF",
  "k4 c #F3EF6DFF",
  ":O c #F3F3F3FF",
  "kk c #F4ED39FF",
  ":3 c #F4F4F4FF",
  "kv c #F5EF53FF",
  ";r c #F5F085FF",
  "=a c #F5F5F5FF",
  "kr c #F6F282FF",
  "+W c #F6F6F6FF",
  "kl c #F7F374FF",
  "k5 c #F7F4A0FF",
  "c~ c #F7F7F6FF",
  ":9 c #F7F7F7FF",
  "ku c #F8F4A0FF",
  "k6 c #F8F5ADFF",
  ";R c #F8F8F8FF",
  "kc c #F9F48DFF",
  "k~ c #F9F8E4FF",
  "k_ c #F9F9E7FF",
  ";S c #F9F9F9FF",
  "kz c #FAF7A8FF",
  "k^ c #FAF7C0FF",
  "k) c #FAF8C1FF",
  ":5 c #FAFAFAFF",
  "k( c #FBF7ABFF",
  "k/ c #FBF7ADFF",
  "kx c #FBF8B8FF",
  "kt c #FBF9C8FF",
  ";Q c #FBFBFBFF",
  "kT c #FCF8A3FF",
  "kY c #FCFAD0FF",
  "kF c #FCFADDFF",
  ";7 c #FCFCFCFF",
  "kE c #FDF66CFF",
  "+t c #FDF66FFF",
  "kW c #FDF778FF",
  "kR c #FDF782FF",
  "kQ c #FDF894FF",
  "kG c #FDF9A3FF",
  "k! c #FDFBCEFF",
  "ky c #FDFDE9FF",
  "=q c #FDFDFDFF",
  "kJ c #FEF54EFF",
  "kP c #FEF660FF",
  "kH c #FEF773FF",
  "kI c #FEF98DFF",
  "kX c #FEF992FF",
  "km c #FEFBBDFF",
  "=w c #FEFEFEFF",
  "ks c #FFF00821",
  "Xl c #FFF10725",
  "OZ c #FFF30016",
  "m; c #FFF3083E",
  "jT c #FFF40B46",
  "m% c #FFF50535",
  ".I c #FFF50A4A",
  "j} c #FFF53AFF",
  "mq c #FFF6091B",
  "kZ c #FFF638FF",
  "kK c #FFF63EFF",
  "a| c #FFF63FFF",
  "kL c #FFF643FF",
  "j| c #FFF649FF",
  "kp c #FFF64AFF",
  "kN c #FFF64BFF",
  "kb c #FFF751FF",
  "kB c #FFF752FF",
  "j{ c #FFF754FF",
  "kC c #FFF863FF",
  "k. c #FFF868FF",
  "kA c #FFF869FF",
  "k; c #FFF86DFF",
  "kV c #FFF973FF",
  "j[ c #FFF979FF",
  ">@ c #FFF97AFF",
  "kM c #FFF981FF",
  "j] c #FFFBA9FF",
  "j' c #FFFEE3FF",
  "kD c #FFFF0004",
  "k> c #FFFF000A",
  ">X c #FFFFFFFF",
  "   c none",
  
  // Image data
  "                                                                ",
  "                                              OZm%jT.Im;Xl      ",
  "  jRjE-i-i-i-i-i-i-i-i-i-i-i-i-i-i-i-i-i-i-ijWjQj!j~j^j/j(j)j_  ",
  "  j`=w>X>X>X>X>X>X>X>X>X>X>X>X>X>X>X>X>X>Xj'j]j[j{a|j}j|k.kXko  ",
  "  -i>XkOk+k+k+k+k+k+k+k+k+k+k+k+k+k+k+k+k+k@k#k$k%k&k*k=k-k;k:k>",
  "  -i>Xk,k,k,k,k,k,k,k,k,k,k,k,k,k,k,k,k,k<k1k2k3k4k5k6;rk7j{k8mq",
  "  -i>Xk9k9k9k9k9k9k9k9k9k9k9k9k9k9k9k9k9k0kqkwkekrktkykukikpkaks",
  "  -i>XkdkfkfkfkfkfkfkfkfkfkfkfkfkfkfkfkfkgkhkjkkklkzkxkckvkbknOZ",
  "  -i=w=w=w=w=w=w=w=w=w=w=w=w=w=w=w=w=w=w=wkmkMkNkBkV>@kCkZkAkSkD",
  "  -i=q;7;7;7;7;7;7;7;7;7;7;7;7;7;7;7;7;7;7kFkGkHkJkZkKkLkPkIkU  ",
  "  -i=q;Q;Q;Q;Q;Q;Q;Q;Q;Q;Q;Q;Q;Q;Q;Q;Q;Q;Q;QkYkTkR+tkEkWkQk!-i  ",
  "  -i;7;S;S;S;S;S;S;S;S;S;S;S;S;S;S;S;S;S;S;S;Sk~k^k/k(k)k_;7-i  ",
  "  -i;Q:9:9:9:9:9:9:9:9:9:9:9:9:9:9:9:9:9:9:9:9:9:9c~:9:9:9;Q-i  ",
  "  -i:5+W+W+W+W+W+W+W+W+W+W+W+W+W+W+W+W+W+W+W+W+W+W+W+W+W+W:5-i  ",
  "  -i;S:3:3:3:3:3:3:3:3:3:3:3:3:3:3:3:3:3:3:3:3:3:3:3:3:3:3;S-i  ",
  "  -i;R;';';';';';';';';';';';';';';';';';';';';';';';';';';R-i  ",
  "  -i:9;T;T;T;T;T;T;T;T;T;T;T;T;T;T;T;T;T;T;T;T;T;T;T;T;T;T:9-i  ",
  "  -i:9;A;A;A;A;A;A;A;A;A;A;A;A;A;A;A;A;A;A;A;A;A;A;A;A;A;A:9-i  ",
  "  -i+W;9;9;9;9;9;9;9;9;9;9;9;9;9;9;9;9;9;9;9;9;9;9;9;9;9;9+W-i  ",
  "  -i=a:,:,:,:,:,:,:,:,:,:,:,:,:,:,:,:,:,:,:,:,:,:,:,:,:,:,=a-i  ",
  "  -i:3,$,$,$,$,$,$,$,$,$,$,$,$,$,$,$,$,$,$,$,$,$,$,$,$,$,$:3-i  ",
  "  -i:O:#:#:#:#:#:#:#:#:#:#:#:#:#:#:#:#:#:#:#:#:#:#:#:#:#:#:O-i  ",
  "  -i;';b;b;b;b;b;b;b;b;b;b;b;b;b;b;b;b;b;b;b;b;b;b;b;b;b;b;'-i  ",
  "  -i;`;3;3;3;3;3;3;3;3;3;3;3;3;3;3;3;3;3;3;3;3;3;3;3;3;3;3;`-i  ",
  "  -i;T+S+S+S+S+S+S+S+S+S+S+S+S+S+S+S+S+S+S+S+S+S+S+S+S+S+S;T-i  ",
  "  -i;A+Z+Z+Z+Z+Z+Z+Z+Z+Z+Z+Z+Z+Z+Z+Z+Z+Z+Z+Z+Z+Z+Z+Z+Z+Z+Z;A-i  ",
  "  -i;A&_&_&_&_&_&_&_&_&_&_&_&_&_&_&_&_&_&_&_&_&_&_&_&_&_&_;A-i  ",
  "  -i;A&_&_&_&_&_&_&_&_&_&_&_&_&_&_&_&_&_&_&_&_&_&_&_&_&_&_;A-i  ",
  "  j`;9;A;A;A;A;A;A;A;A;A;A;A;A;A;A;A;A;A;A;A;A;A;A;A;A;A;A;9j`@m",
  "*7k`;*-i-i-i-i-i-i-i-i-i-i-i-i-i-i-i-i-i-i-i-i-i-i-i-i-i-i;*k'*.",
  "  :k@6*^rDB%9]9]9]9]9]9]9]9]9]9]9]9]9]9]9]9]9]9]9]9]9]9c9cT2+g+>",
  "      @M@X@C*!*!*!*!*!*!*!*!*!*!*!*!*!*!*!*!*!*!*!*!*!&^@X+j    "
};
